<svg height="512" viewBox="0 0 512 512" width="512" xmlns="http://www.w3.org/2000/svg"><g id="Analysis"><path d="m299.64 422.65a165.11 165.11 0 0 1 -118.75-49.87l-1.39-1.42 119.35-114.71h167.15c-1.32 96.43-78 166-166.36 166z" fill="#40c2d6"/><path d="m169.92 152.11 1.23-1.5a165.91 165.91 0 0 1 128.49-60.69h2v172.91z" fill="#efbd42"/><path d="m297.68 260.58v-170.66c99.11 0 169.75 80.35 168.3 168v2.64z" fill="#40c2d6"/><path d="m173.67 161.68 115.69 97.32-106.83 102.64c-51.71-58.86-52.89-139.64-8.86-199.96z" fill="#40c2d6"/><path d="m164.66 366.89a164.38 164.38 0 0 0 281.72-112.79h-164.38z" fill="#e73f46"/><path d="m282 87.37a164 164 0 0 0 -127 60l127 106.73z" fill="#efbd42"/><path d="m282 87.37v166.73h164.38c1.28-92.3-73.22-166.73-164.38-166.73z" fill="#917eec"/><path d="m165 354.28a155.54 155.54 0 0 1 -8.62-194.28l112.42 94.54z" fill="#86ebf9"/><path d="m98.14 296.02h16.57v125.23h-16.57z" fill="#c6c6c6" transform="matrix(.919 .395 -.395 .919 150.13 -12.89)"/><rect fill="#287eef" height="138.85" rx="16.86" transform="matrix(.919 .395 -.395 .919 169.97 1.12)" width="39.27" x="62.62" y="344.45"/><circle cx="148.31" cy="261.08" fill="#287eef" r="71.03"/><circle cx="148.31" cy="261.08" fill="#e5e5e5" r="57.92"/><path d="m125 243.08c0-11.7 8.59-18.84 19.72-20.2v-8.16a2.18 2.18 0 1 1 4.35 0v8a21.8 21.8 0 0 1 11.56 3.51 18.54 18.54 0 0 1 8.1 15.12c0 4.53-2.66 6.89-6.47 6.89a3.15 3.15 0 0 1 -2.91-3.38c-.06-10.47-3.44-16-10.28-16.7v29.09c5.51 3.21 9.14 5.51 11 6.84 5 3.57 8.65 8.16 8.65 15 0 8.28-4 14-10 17.17a26.11 26.11 0 0 1 -9.62 3v8.16a2.18 2.18 0 1 1 -4.35 0v-7.92a22.37 22.37 0 0 1 -11.55-3.57 18.58 18.58 0 0 1 -8.2-15.11c0-4.41 2.72-6.89 6.53-6.89a3.15 3.15 0 0 1 2.91 3.39 24.32 24.32 0 0 0 2.9 11.67 9.63 9.63 0 0 0 7.38 5.26v-27.25c-9.81-6.39-19.72-12.62-19.72-23.89m19.72 11.31v-25.85a12.08 12.08 0 0 0 -8.53 11.73c0 6.47 3.51 10.71 8.53 14.09m4.35 39.26a12.85 12.85 0 0 0 8.41-11.74c0-4.84-3.51-8.52-8.41-12z" fill="#2d1929"/><path d="m225.6 111.31q26.34 66 52.7 131.92-3.53-71.11-7-142.23a100.38 100.38 0 0 0 -45.7 10.31z" fill="#d7981a"/><path d="m413.16 178.42-121.28 69.39 138.3-3.6a126.6 126.6 0 0 0 -17.02-65.79z" fill="#6d5fde"/><path d="m279.61 268.11q-47.15 49.09-94.27 98.2c21.07 23 50.12 34.49 81.83 34.7q6.23-66.45 12.44-132.9z" fill="#cc3745"/><g fill="#2d1929"><path d="m179.5 245.73a2.5 2.5 0 0 1 -2-4l61.5-83.2a2.5 2.5 0 0 1 3.68-.38l46 41 70.17-129.29a2.5 2.5 0 0 1 3.88-.66l45.48 41.35 46.15-62.55a2.5 2.5 0 1 1 4 3l-47.79 64.81a2.49 2.49 0 0 1 -3.69.37l-45.16-41.18-70.16 129.35a2.51 2.51 0 0 1 -3.86.67l-46.34-41.32-59.85 81a2.51 2.51 0 0 1 -2.01 1.03z"/><circle cx="239.26" cy="157.47" r="11.13"/><circle cx="291.88" cy="206.48" r="11.13"/><circle cx="358.17" cy="69" r="11.13"/><circle cx="409.8" cy="117.12" r="11.13"/><circle cx="460.86" cy="41.5" r="11.13"/></g><path d="m107.76 355.59s6.16 12.71-1.34 24-14.62 12.58-14.13 22.89-2.7 24.55-13 29.71-12.52 13.26-9.09 19.88-5.2 24.8-22.59 13.51c0 0 11.37 13.05 21.6 8.83s9.79-13.25 11.54-23.07 7.84-16 13.26-21.85 7.2-25.86 8-32.74 7.69-7.36 13.09-18-2.76-22.26-7.34-23.16z" fill="#1573d8"/></g></svg>