<svg height="512" viewBox="0 0 512 512" width="512" xmlns="http://www.w3.org/2000/svg" xmlns:xlink="http://www.w3.org/1999/xlink"><clipPath id="clip-path"><path d="m100.19 194.66s45.88 13.46 44.29 43.12c-1.46 27.45-87 22.71-87.12 197.55a45.66 45.66 0 0 0 45.69 45.67h212.5a50.55 50.55 0 0 0 48.57-64.58c-18-62.16-45.93-148.87-65.86-163.48-31.64-23.21-59.76-16.17-72.42-37.27s10.55-64 10.55-64a55.83 55.83 0 0 0 -53.39 11.27c-25.37 21.79-46-15.31-82.81 31.72z"/></clipPath><clipPath id="clip-path-2"><path d="m231 49.63s56.27 158.21 62.23 158.91 43.32-40.08 46.79-40.08 60.43 135 60.43 135l32.1-31.64s-76.21-151.82-81.22-157.5-39.9 33.75-47.07 32.35-73.62-115.67-78.19-115.67 4.93 18.63 4.93 18.63z"/></clipPath><g id="Down_Arrow" data-name="Down Arrow"><g clip-path="url(#clip-path)"><path d="m100.19 194.66s45.88 13.46 44.29 43.12c-1.46 27.45-87 22.71-87.12 197.55a45.66 45.66 0 0 0 45.69 45.67h212.5a50.55 50.55 0 0 0 48.57-64.58c-18-62.16-45.93-148.87-65.86-163.48-31.64-23.21-59.76-16.17-72.42-37.27s10.55-64 10.55-64a55.83 55.83 0 0 0 -53.39 11.27c-25.37 21.79-46-15.31-82.81 31.72z" fill="#287eef"/><g fill="#1573d8"><path d="m100.19 194.66s20-19.59 36.09-13.53 29 12.39 44.29 3.69 41.23-37.27 55.82-33.13l-21-17.76-60.39 15.2-50.63 10.11-12.92 27.69z"/><path d="m126 216.2s33.75 3.16 15.82 45.88-58.13 90.63-50.37 154.69 78.84 64.23 78.84 64.23l-70.29 24.36-77.37-28.12 7.74-128.68 43.63-83.67z"/><path d="m142.08 227s6.59 3.43 9.75 12.39 12.4 7.39 16.88 2.11 2.11-21.36 5.54-21.62 10.54 15.56 15 15 3.42-9.76 6.59-10 7.64 5.27 11.86 1.32 2.23-19.25 4-21.1 2.57 13.72 7.85 17.14 19.86 8.18 16.79 10.81-17.58-6.32-21.27-1.84-4.75 7.91-12.13 5.8-2.64 2.9-8.18 6.85-12.94-4.83-18.45-6.06-.36 14.24-12.44 16.08-12.09-15.55-21.84-4.74.05-22.14.05-22.14z"/></g></g><path d="m146.74 477.39s42.11-4.71 46-18.48 8.09-63.33 8.09-63.33h129.17v-55.12h9.81s18.31 49.64 22.31 69.12-62.47 71.42-62.47 71.42h-155.44s-7.14-2.13 2.53-3.61z" fill="#1573d8"/><path d="m169.75 338c0-17.39 12.77-28 29.31-30v-12.12a3.24 3.24 0 0 1 6.47 0v11.87a32.47 32.47 0 0 1 17.17 5.25 27.55 27.55 0 0 1 12.05 22.48c0 6.73-4 10.25-9.62 10.25-2.43 0-4.32-2.25-4.32-5-.09-15.55-5.12-23.82-15.28-24.81v43.24c8.18 4.76 13.57 8.18 16.36 10.15 7.46 5.31 12.86 12.14 12.86 22.3 0 12.32-6 20.76-14.92 25.53a39.11 39.11 0 0 1 -14.3 4.5v12.13a3.24 3.24 0 1 1 -6.47 0v-11.85a33.28 33.28 0 0 1 -17.17-5.31c-5.13-3.32-8.72-8.27-11-14.83a24.25 24.25 0 0 1 -1.17-7.64c0-6.57 4.05-10.25 9.71-10.25 2.43 0 4.32 2.24 4.32 5a36.19 36.19 0 0 0 4.31 17.35 14.35 14.35 0 0 0 11 7.83v-40.52c-14.58-9.5-29.31-18.77-29.31-35.51m29.31 16.81v-38.38a18 18 0 0 0 -12.68 17.44c0 9.62 5.22 15.91 12.68 20.94m6.47 58.35a20.32 20.32 0 0 0 8.9-6.75 17 17 0 0 0 3.57-10.69c0-7.2-5.21-12.68-12.49-17.8z" fill="#e5e5e5"/><path d="m142.71 244.24a4.5 4.5 0 1 1 2.92-8.51 65.55 65.55 0 0 0 37.74 1.43c21.18-5.65 33.1-20.71 37.25-26.93a4.5 4.5 0 1 1 7.48 5 73.41 73.41 0 0 1 -85.39 29.01z" fill="#e73f46"/><path d="m344 454.27h103.37v26.73h-103.37z" fill="#efbd42"/><path d="m336.41 400.82h103.37v26.73h-103.37z" fill="#efbd42"/><path d="m353.27 427.55h103.37v26.73h-103.37z" fill="#d7981a"/><path d="m353.27 374.09h103.37v26.73h-103.37z" fill="#d7981a"/><path d="m339.82 347.36h103.37v26.73h-103.37z" fill="#efbd42"/><path d="m222.21 427.55h103.37v26.73h-103.37z" fill="#d7981a"/><path d="m211.75 454.27h103.37v26.73h-103.37z" fill="#efbd42"/><path d="m211.75 400.82h103.37v26.73h-103.37z" fill="#efbd42"/><path d="m299.65 456.33h93.58v24.67h-93.58z" fill="#d7981a"/><path d="m292.78 407h93.58v24.67h-93.58z" fill="#d7981a"/><path d="m308.05 431.67h93.58v24.67h-93.58z" fill="#efbd42"/><path d="m308.05 382.34h93.58v24.67h-93.58z" fill="#efbd42"/><path d="m356.01 351.73h7.91v19.51h-7.91z" fill="#d7981a"/><path d="m315.12 384.92h7.91v19.51h-7.91z" fill="#d7981a"/><path d="m297.89 409.58h7.91v19.51h-7.91z" fill="#efbd42"/><path d="m226.84 431.15h7.91v19.51h-7.91z" fill="#efbd42"/><path d="m218.26 457.88h7.91v19.51h-7.91z" fill="#d7981a"/><path d="m304.09 458.91h7.91v19.51h-7.91z" fill="#efbd42"/><path d="m315.12 458.91h7.91v19.51h-7.91z" fill="#efbd42"/><g fill="#d7981a"><path d="m343.13 351.73h7.91v19.51h-7.91z"/><path d="m228.39 404.43h7.91v19.51h-7.91z"/><path d="m215.51 404.43h7.91v19.51h-7.91z"/></g><g clip-path="url(#clip-path-2)"><path d="m231 49.63s56.27 158.21 62.23 158.91 43.32-40.08 46.79-40.08 60.43 135 60.43 135l32.1-31.64s-76.21-151.82-81.22-157.5-39.9 33.75-47.07 32.35-73.62-115.67-78.19-115.67 4.93 18.63 4.93 18.63z" fill="#86ebf9"/><path d="m220.73 37.23s69.08 144 77 148.18 42.27-16.95 42.27-16.95l-4.86 32.25-54.78 23.73-59.63-139.75z" fill="#40c2d6"/></g><path d="m441.81 261.78c-8.7-5.3-20.77 3.48-45.77 19.6-13.72 8.85-15.34 11.7-15.56 14.48-.74 9.42 15.17 17.5 34.78 27.47 14.44 7.33 22 10.38 26.39 7.93 6.57-3.7 6.46-14.75 6.27-34.3-.2-21.1-.31-31.65-6.11-35.18z" fill="#86ebf9"/><path d="m372.56 238.32 19.6 45.62 35.6-21.64s-37.05.7-55.2-23.98z" fill="#40c2d6"/><path d="m128.63 319.57a4.5 4.5 0 0 1 -2.63-8.15c31.4-22.61 28.93-46.61 24.69-58.86a43.41 43.41 0 0 1 -16.92 16.73c-11.11 5.89-24.59 6.23-40.07 1a4.5 4.5 0 0 1 2.88-8.53c13 4.4 24.14 4.25 33-.44 12.68-6.72 16.64-20.55 16.67-20.68a4.51 4.51 0 0 1 8.07-1.32 53.6 53.6 0 0 1 7.8 26c.92 25.11-16.26 42.9-30.83 53.39a4.53 4.53 0 0 1 -2.66.86z" fill="#e73f46"/><circle cx="150.5" cy="243.21" fill="#cc3745" r="10.09"/></g></svg>