<svg height="512" viewBox="0 0 512 512" width="512" xmlns="http://www.w3.org/2000/svg" xmlns:xlink="http://www.w3.org/1999/xlink"><clipPath id="clip-path"><path d="m338.82 183.36h57.58v125.44h-57.58z"/></clipPath><g id="Equilibrium"><g clip-path="url(#clip-path)"><path d="m338.82 183.36h57.58v125.44h-57.58z" fill="#f5b493"/><path d="m392.86 211.89s-16.86 43.87-58.12 48.63l-4.94-33.3z" fill="#eba284"/></g><path d="m328.43 270.13s-49.15 20.72-61.83 57.71 0 153.16 0 153.16h49.68z" fill="#f5b493"/><path d="m272.36 304.06c-13.71 21.4-13.43 46.58-13 84.67a337.28 337.28 0 0 0 3.24 43.21 111.67 111.67 0 0 0 45.07 6.53q19.05-87.3 38.09-174.58c-14.46 1.92-53.55 9.16-73.4 40.17z" fill="#287eef"/><path d="m409.49 69c-24.25-18.2-60.17-17.76-81.81-1.93a72.86 72.86 0 0 0 -15.9 13.84c-15 14.34-12.73 30.37-14.67 51.45-.79 8.52-3.91 16.43-5.54 29.45s-.3 25.33 9.53 48.31c7.59 17.76 14 25.34 18.73 28.36 18 11.57 42.87-1.66 52.18-6.6a106.87 106.87 0 0 0 22.89-16.74c12.67-10.32 41.72-38.38 42.1-80.14.1-9 .44-45-27.51-66z" fill="#f5b493"/><g fill="#2d1929"><path d="m327 180.69c-4.73-2.65-7.15-5.45-7.21-8.32-.14-6.43 11-7.22 14.49-26.4a.5.5 0 1 1 1 .18c-3.59 19.5-14.59 20.44-14.47 26.2.05 2.49 2.3 5 6.7 7.46a.5.5 0 0 1 -.51.88z"/><path d="m318.18 147.41c-.4 4.74-3.2 8.36-6.26 8.11s-5.22-4.3-4.83-9 3.2-8.37 6.26-8.11 5.23 4.27 4.83 9z"/><path d="m365.86 151.4c-.4 4.73-3.2 8.36-6.26 8.11s-5.23-4.3-4.83-9 3.2-8.36 6.26-8.1 5.22 4.26 4.83 8.99z"/><path d="m330.61 122.5a1 1 0 0 1 -.65-.24c-.45-.39-11.18-9.36-23.65-2.24a1 1 0 0 1 -1.37-.38 1 1 0 0 1 .38-1.36c13.72-7.83 25.82 2.36 25.94 2.46a1 1 0 0 1 -.65 1.76z"/><path d="m377.7 126.58a1 1 0 0 1 -.73-.31c-9.88-10.43-22.74-5-23.28-4.71a1 1 0 0 1 -.81-1.83c.15-.07 14.68-6.31 25.54 5.16a1 1 0 0 1 -.72 1.69z"/></g><path d="m363.47 257.55s-62.88 15.5-71.66 48.62 7.43 174.83 7.43 174.83h165s5.41-150.23-5.41-178.39-63.58-51.4-95.36-45.06z" fill="#287eef"/><path d="m202.24 481h-152.24q-.54-9-1.06-18l154.33-10.22z" fill="#40c2d6"/><circle cx="131.46" cy="438.47" fill="#efbd42" r="20.41"/><path d="m50.9 411.68 141.76 17.32s-24.32-40.82-67.77-47.43-73.99 30.11-73.99 30.11z" fill="#e73f46"/><circle cx="109.99" cy="358.9" fill="#efbd42" r="24.2"/><path d="m204.07 332.32-150.35 19.41q-2.65-13.53-5.29-27.06l152.84-14z" fill="#917eec"/><circle cx="120.79" cy="265.56" fill="#d7981a" r="54.47"/><circle cx="131.46" cy="268.03" fill="#efbd42" r="54.47"/><path d="m121.67 252.62c1.88-8.11 9-11.68 16.91-10.84l1.31-5.66a1.55 1.55 0 0 1 3 .7l-1.28 5.53a15.55 15.55 0 0 1 7.44 4.29 13.14 13.14 0 0 1 3.19 11.78c-.72 3.14-2.95 4.35-5.59 3.74a2.24 2.24 0 0 1 -1.47-2.81c1.64-7.27.18-11.67-4.45-13.22l-4.66 20.16c3.3 3.11 5.45 5.28 6.53 6.51 2.91 3.28 4.69 7 3.59 11.78-1.9 8.22-8.93 11.69-16.87 10.85l-1.3 5.66a1.55 1.55 0 0 1 -3-.7l1.27-5.49a15.93 15.93 0 0 1 -7.44-4.32c-5.34-5.54-4.74-17.18 2.4-15.53a2.25 2.25 0 0 1 1.47 2.82 17.3 17.3 0 0 0 .14 8.55 6.86 6.86 0 0 0 4.27 4.83l4.38-18.9c-5.78-6-11.65-11.92-9.84-19.73m11.85 11 4.15-17.9a8.61 8.61 0 0 0 -7.8 6.77c-1 4.48.72 8 3.65 11.13m-3.27 27.91a9.14 9.14 0 0 0 7.71-6.78c.77-3.36-1.07-6.48-3.91-9.65z" fill="#e5e5e5"/><path d="m338.82 264.77c2.66 12.7 11.43 22.7 22 24.84 14.9 3 33.1-9.66 35.68-30.61-19.1-11-41.02-7.6-57.68 5.77z" fill="#f5b493"/><path d="m417.65 291.53-86.65 55.52-117-83.86-17.61 41.58a355.35 355.35 0 0 0 75.4 86.68c19.26 16 29.16 24 42.28 26.6 58.49 11.63 129.67-66.32 129.67-66.32s28.61-60.95-26.09-60.2z" fill="#f5b493"/><path d="m220.74 268s-25.9-22.37-32-24.22-34.71-5.73-36.18 0 15.57 7.92 15.57 7.92-17.89-1.84-17.05 2.94 12.84 6.36 12.84 6.36-11.95-3.17-12.85.8 10.73 9.91 10.73 9.91-7.4-3.39-8.72-1.28 10.14 16 17.44 21.12 29.48 15.68 29.48 15.68 22.5-17.97 20.74-39.23z" fill="#f5b493"/><path d="m426 282.92c-29-12.53-75.51 8.16-96.37 58.76a147.48 147.48 0 0 0 49.85 71.26c45.71-6 77.37-39 78.23-73.64.53-21.78-11.04-47.46-31.71-56.38z" fill="#287eef"/><path d="m410.31 287s-19.74 15.5-36.65 31.54-42.66 28.51-42.66 28.51 38.15-13.92 46.41-22.38 27.96-31.27 32.9-37.67z" fill="#1573d8"/><path d="m372.12 406.81 1.27-.47c7.78-2.9 49.66-19.36 77.82-47.44 0 0-19.06 35.54-51.83 54s-32.24 61.1 22.2 68.1h-122.34l-4.55-42.53-33.73-6-1.75-52s33.41 35.24 58.25 38.72 54.66-12.38 54.66-12.38z" fill="#1573d8"/><path d="m331 347.05s3.4 33.38-13.25 54c0 0 12.95-9.48 18-25.49 0 0 19.74 25.11 36.43 31.25-.06 0-32.46-33.95-41.18-59.76z" fill="#eba284"/><path d="m320.63 196.94 27.13-5.28c-3.93 13.54-13.89 19.9-19.73 18s-7.28-11.87-7.4-12.72z" fill="#2d1929"/><path d="m298.53 111.92s-17.61-18 0-35.93c0 0-8.91-28.45 4.48-41.49a13.14 13.14 0 0 1 7-3.37c11.25-1.7 15.08 13.87 40.22 11.87 0 0 52.88-8.81 84.4 14.8s12.85 61.14 12.85 61.14 17.27 10.37 8.81 36.63-61.39 59.6-61.39 59.6c30.54-49.13 31-67.16 24.74-74.08-6-6.55-16.76-1.76-25-11.41-7.65-8.94-3.05-18.53-10.93-34.88a62.24 62.24 0 0 0 -11.27-16.12c-7 3.23-17.81 6.85-29.87 4.49-11.43-2.28-15.57-8.25-22.47-7.17-6.23 1-14.5 7.72-21.57 35.92z" fill="#2d1929"/><path d="m432.38 134.83c-9.41-3.8-20.77 2.39-25.4 13.82s-.73 23.78 8.68 27.58 20.78-2.39 25.4-13.82.73-23.77-8.68-27.58z" fill="#f5b493"/><path d="m414.63 164.28c.22 0 5.38-.81 5.87-5.93.33-3.55-6-4.58-6.1-4.59a.5.5 0 0 1 -.38-.69c.22-.53 5.55-12.93 14-12.51 7.36.36 7.11 8.74 7.11 8.83a.5.5 0 0 1 -1 0c0-.31.21-7.48-6.15-7.79-5.67-.29-10.37 6.23-12.79 11.34 1.8.39 6.65 1.81 6.3 5.55-.56 5.91-6.66 6.81-6.72 6.82a.5.5 0 0 1 -.14-1.03z" fill="#2d1929"/><path d="m173.85 278.34c-.18 0 .74.42-14-6.92a.49.49 0 0 1 -.22-.67.5.5 0 0 1 .67-.22l13.78 6.86a.5.5 0 0 1 -.23.95z" fill="#2d1929"/><path d="m177.22 264.12c-.1 0 .67.15-19-3.86a.5.5 0 0 1 -.4-.59.51.51 0 0 1 .59-.39l18.89 3.86a.49.49 0 0 1 -.08.98z" fill="#2d1929"/><path d="m182 252.06h-15a.51.51 0 0 1 -.5-.5.5.5 0 0 1 .5-.5h15a.5.5 0 0 1 .5.5.51.51 0 0 1 -.5.5z" fill="#2d1929"/></g></svg>