<svg height="512" viewBox="0 0 512 512" width="512" xmlns="http://www.w3.org/2000/svg" xmlns:xlink="http://www.w3.org/1999/xlink"><clipPath id="clip-path"><path d="m112.08 189.24h57.75v118.11h-57.75z"/></clipPath><clipPath id="clip-path-2"><path d="m187.43 146.57s8.93 11.9 18.86 10.28 12.54-7.22 12.54-7.22l-3.83-20.48-32.75 9z"/></clipPath><clipPath id="clip-path-3"><path d="m117.05 142.92s28.57 3.05 58.31-2.52c0 0-2.61 17.71-7.42 21s-35 5.9-43.49 3.85-7.4-22.33-7.4-22.33z"/></clipPath><clipPath id="clip-path-4"><path d="m423.5 368.67c-15.69-12.27-33.2-19.83-59.92-5.61-14.64 7.8-24.24 6.11-29.94 3-18.24 38.09 9.61 82.69 52.17 82.69 39.31 0 67.43-38.72 54.77-76.24-4.31 1.64-10.12 1.6-17.08-3.84z"/></clipPath><g id="Formula"><g clip-path="url(#clip-path)"><path d="m112.08 189.24h57.75v118.11h-57.75z" fill="#955d43"/><path d="m115.87 213.42a56.75 56.75 0 0 0 11.64 26.26c17.08 21.12 43.82 21.4 47.85 21.38v-32.21z" fill="#834a27"/></g><path d="m148.61 265.61c45-.25 72 12.64 88.38 24.74 12.21 9 16.89 16.31 32.48 31a326.22 326.22 0 0 0 67.17 48.88q-6.78 36.54-13.54 73.09c-54.94-7.07-99.67-42-121.26-91a48.82 48.82 0 0 1 -15.7-4.33c-37.14-17.41-37.55-77.73-37.53-82.38z" fill="#e5e5e5"/><path d="m220.52 162.1c-1.7-13.62-5-21.89-5.79-30.8-2-22 .38-38.83-15.34-53.82a76.24 76.24 0 0 0 -16.64-14.48c-22.64-16.57-60.21-17-85.59 2-29.23 21.92-28.87 59.63-28.79 69 .42 43.74 30.8 73.09 44.06 83.88a112.17 112.17 0 0 0 23.95 17.51c9.73 5.17 35.79 19 54.58 6.9 4.91-3.16 11.65-11.09 19.6-29.67 10.27-24.01 11.67-36.9 9.96-50.52z" fill="#955d43"/><path d="m183 181c4.61-2.58 7-5.21 7-7.83.13-6-11.38-7-15.14-27.41a.5.5 0 0 1 1-.18c3.7 20.11 15.29 20.89 15.15 27.61-.06 3-2.59 5.92-7.53 8.68a.5.5 0 0 1 -.48-.87z" fill="#2d1929"/><path d="m179.69 120.94a1 1 0 0 1 -.66-1.75c.13-.11 12.76-10.75 27.09-2.57a1 1 0 0 1 .37 1.36 1 1 0 0 1 -1.36.38c-13.08-7.47-24.32 1.94-24.79 2.34a1 1 0 0 1 -.65.24z" fill="#2d1929"/><path d="m130.16 124.27a1 1 0 0 1 -.68-1.74c12.22-11.09 26.86-3.43 27-3.36a1 1 0 0 1 .4 1.36 1 1 0 0 1 -1.35.41c-.55-.3-13.56-7-24.71 3.07a1 1 0 0 1 -.66.26z" fill="#2d1929"/><path d="m122.29 268.56s-54.68 28.89-60.18 59.74 11.82 155 11.82 155h178.28a645.08 645.08 0 0 0 -10.31-116.83c-6.82-37.39-12.34-48.31-18.05-56.3-27.58-38.64-82.61-41.45-101.56-41.61z" fill="#287eef"/><path d="m265 238.94c-.28 14.49-2.45 189.32 55.07 204.22 2.45.64 12.6 3.27 20.91-2.14 32.81-21.33-7.52-138.86-39.43-219.29z" fill="#e5e5e5"/><path d="m130.16 266.83c-56.75 4.83-75.81 27.9-82.28 37.95-16.21 25.17-5 49-12.42 178.52h72.18c18.2-165.4 13.26-117.44 22.52-216.47z" fill="#e5e5e5"/><path d="m112.08 270.41s13.89 22.71 36.53 26.23 21.22-21.71 21.22-21.71v-9.32s-37.34-12.22-57.75 4.8z" fill="#955d43"/><path d="m128.21 287.63 20.4 195.67h-56.66v-124.68z" fill="#e5e5e5"/><path d="m169.84 265.61 21.71 217.69h64.45s-8.3-138.89-22.73-171.53-63.43-46.16-63.43-46.16z" fill="#e5e5e5"/><path d="m112.08 253.53s-4.47 1.59-6.1 7.84-7.36 13.63-7.36 13.63 14.66 40.58 33.75 52.5l-4.16-39.89s-13.28-18.92-16.13-34.08z" fill="#e5e5e5"/><path d="m189.42 270.12s-9.85-17-19.58-16.59c-.13 1.82-2.3 32.31-2.37 34.1-.53 12.38 2.38 17.42 6.9 38.63 1.61 7.51 3.68 18.29 5.42 31.58l9.63-47.37z" fill="#e5e5e5"/><g fill="#c6c6c6"><path d="m62.11 328.3 11.89 41.45-.07 113.55h50.46s-33.29-1.76-36.27-10.15 7.66-15.15 3.88-28.15-11.14-75.79-11.14-75.79z"/><path d="m250.43 413.92-13-89.13s4.6 94 2.07 108.48-12.63 13-6.86 24.9-19.75 25.13-19.75 25.13h43.11z"/><path d="m269.47 321.38s-4.47 79.88 32.66 110.41a381.22 381.22 0 0 1 -32.66-110.41z"/><path d="m101.08 271.5.57 26.25 8.8-1.76q-2.06 5.67-4.12 11.36l26 34.25-20.29-35.92 5.68-14.3-10.56 1.09z"/><path d="m189.42 270.12v23.57h-8.19l8.19 12.86-9.63 51.29 4.82-51.29-9.06-14.22 10.55-4.7z"/></g><path d="m285.9 253.53s10.32-1.5 24.38-9.32l-4-25.22s12.63-19.77 13.35-27-6.68-7-6.68-7 9.52-12.63-.54-12.45c0 0 6.32-12.88-2.34-11.13 0 0 3-4.93 1-7.68-4.57-6.35-22.94 7.91-29 12.85-9.8 8.06-14.71 12.09-15.52 14.08-6.88 16.78 14.06 42.16 14.46 42a8.51 8.51 0 0 0 -.81-2z" fill="#955d43"/><path d="m275.91 99.44h26.46a0 0 0 0 1 0 0v112.22a11.66 11.66 0 0 1 -11.66 11.66h-3.79a11 11 0 0 1 -11-11v-112.88a0 0 0 0 1 0 0z" fill="#86ebf9"/><rect fill="#86ebf9" height="8.08" rx="3.69" width="34.38" x="271.95" y="96.12"/><path d="m289.14 151c-2.78 4.17-6 6.16-8.9 7v53.4a7.6 7.6 0 0 0 7.59 7.59h1.91a8.29 8.29 0 0 0 8.26-8.29v-65.17c-2.8-.09-6 1.17-8.86 5.47z" fill="#e73f46"/><path d="m265.75 258.8q-.83-18.41-1.63-36.81c-3.6-11.1-6.17-20.67-8-28.19s-2.64-11.8-1.12-17.14c1.71-5.84 5.4-9.54 8.48-12.63 1-1 10.94-10.86 14.62-8.48 2.49 1.61 1.34 8.36.67 11-1.69 6.86-4.87 7.12-6.81 12.59-4 11.24 3.91 25.8 3.91 25.8s-3.07 18.79 13.83 18.33l3.15 28a151.27 151.27 0 0 1 -27.1 7.53z" fill="#955d43"/><path d="m302.37 153.28s-23.27 10-22.13 16.52 8.9 3.61 8.9 3.61-9 6.86-6.49 11.19 11.35-2.34 11.35-2.34-10.65 6.85-8.3 10.64 10.64 0 10.64 0-10 7.4-5.08 11.37 23.49-8.66 23.49-8.66l-5.75-11.91z" fill="#955d43"/><path d="m264.13 240.18q.64 18.24 1.28 36.5c19.29 3.66 37.79-3.95 49.83-19.26l-6.88-25.35z" fill="#e5e5e5"/><path d="m288.84 173c.53-.38 13-9.34 20-12.09a.49.49 0 0 1 .65.28.51.51 0 0 1 -.28.65c-6.9 2.71-19.62 11.87-19.75 12a.5.5 0 0 1 -.62-.84z" fill="#2d1929"/><path d="m292.89 182.76a.5.5 0 0 1 -.22-.95l19.53-9.75a.5.5 0 0 1 .67.23.51.51 0 0 1 -.22.67c-20.93 10.44-19.58 9.8-19.76 9.8z" fill="#2d1929"/><path d="m296.36 193.4a.5.5 0 0 1 -.21-1l16.6-7.94a.5.5 0 1 1 .43.9c-17.76 8.55-16.64 8.04-16.82 8.04z" fill="#2d1929"/><path d="m165 196.51h27.65a13.83 13.83 0 0 1 -27.65 0z" fill="#e5e5e5"/><path d="m124.75 75.61a88.21 88.21 0 0 1 -39.07 68.28s12.63 58.58 26.75 74c0 0-58.42-19.19-62.21-103.38s61.86-70.66 61.86-70.66 54.4-25.45 86.41 2.7 15.27 70.68 15.27 70.68 1.24-23.29-17.76-43.47a109.54 109.54 0 0 1 -71.25 1.85z" fill="#efbd42"/><path d="m218.3 121.05s-65.58 20.42-117.91 16.54c0 0 2.38 29 20.43 31.85s51.63-2.46 55.06-5.92 3.23-15.32 5.9-14.62 8.67 12.6 20.15 12.06 18-7.63 19.22-10.22-2.85-29.69-2.85-29.69z" fill="#86ebf9"/><path d="m113.39 139c-21.14 0-36.09-1.26-36.27-1.28a3 3 0 1 1 .52-6 490.12 490.12 0 0 0 50.49 1.05c26-.76 62.83-4 90.6-15.17a3 3 0 1 1 2.23 5.56c-31.09 12.5-73.88 15.84-107.57 15.84z" fill="#2d1929"/><path d="m99.79 148.34c-4.84-12-16.73-18.42-26.57-14.45s-13.91 16.9-9.08 28.86 16.73 18.43 26.57 14.45 13.91-16.9 9.08-28.86z" fill="#955d43"/><path d="m91.65 165.71c-.07 0-6.43-1-7-7.11-.37-3.92 4.74-5.39 6.59-5.79-1.17-2.48-6.25-12.23-13.4-11.9-6.68.33-6.47 7.85-6.46 8.17a.5.5 0 1 1 -1 0c0-.09-.26-8.83 7.41-9.21 8.84-.46 14.4 12.52 14.63 13.07a.5.5 0 0 1 -.38.69c-.07 0-6.75 1.1-6.4 4.83.51 5.37 5.92 6.19 6.16 6.22a.5.5 0 0 1 -.15 1.03z" fill="#2d1929"/><g clip-path="url(#clip-path-2)"><path d="m210.61 123.27-16.51 38.11 6.32 2.14 14.05-35.34 2.01 1.24-14.07 34.1 2.88 1.27 15.85-36.61-8.27-7.13z" fill="#e5e5e5"/></g><g clip-path="url(#clip-path-3)"><path d="m164.12 130.59-17.91 41.36 6.85 2.32 15.25-38.35 2.18 1.34-15.27 37.01 3.13 1.38 17.19-39.73-8.96-7.74z" fill="#e5e5e5"/></g><path d="m369.38 240.6h32.85v107.16h-32.85z" fill="#86ebf9"/><circle cx="385.81" cy="390.95" fill="#86ebf9" r="66.56"/><rect fill="#86ebf9" height="12.04" rx="5.5" width="43.77" x="363.92" y="237.58"/><path d="m423.5 368.67c-15.69-12.27-33.2-19.83-59.92-5.61-14.64 7.8-24.24 6.11-29.94 3-18.24 38.09 9.61 82.69 52.17 82.69 39.31 0 67.43-38.72 54.77-76.24-4.31 1.64-10.12 1.6-17.08-3.84z" fill="#917eec"/><rect fill="#2d1929" height="16.23" rx="6" width="152.39" x="325.99" y="466.71"/><rect fill="#2d1929" height="197.57" rx="4.42" width="9.68" x="455.59" y="276.4"/><rect fill="#2d1929" height="11.44" rx="5.23" width="98.84" x="363.58" y="308.26"/><g clip-path="url(#clip-path-4)"><path d="m431.89 362.7s-15.32 20-8.39 36.45-11.05 18.85-26.5 12.73-21.19 2.62-27.62 9.18-37.07-5.1-45.83-25.53l-4.3 38.67 44.33 27.35 68.31-5.83 42.68-21.16-14.14-61.49z" fill="#6d5fde"/></g><circle cx="383.92" cy="386.18" fill="#d7981a" r="36.39"/><circle cx="391.22" cy="385.59" fill="#efbd42" r="36.39"/><path d="m381.86 377.77c-.45-5.55 3.34-9.26 8.56-10.34l-.31-3.86a1 1 0 1 1 2.06-.17l.31 3.78c4.07-.21 7.74 1.57 9.46 5.67 1.14 2.75.76 5.67-2.23 5.92a1.52 1.52 0 0 1 -1.51-1.5c-.43-4.95-2.25-7.46-5.51-7.51l1.12 13.78c2.73 1.31 4.54 2.26 5.48 2.82 2.51 1.5 4.41 3.53 4.67 6.77.46 5.62-3.31 9.25-8.53 10.33l.31 3.87a1 1 0 1 1 -2.06.17l-.31-3.76c-5.66.22-9.68-3.42-10.06-8.09a3 3 0 0 1 2.83-3.52 1.49 1.49 0 0 1 1.51 1.49 11.62 11.62 0 0 0 1.82 5.42 4.59 4.59 0 0 0 3.7 2.21l-1.05-12.92c-4.69-2.55-9.82-5.18-10.26-10.56m9.78 4.6-1-12.24a5.75 5.75 0 0 0 -3.59 5.89c.25 3.06 2.08 4.93 4.59 6.35m3.57 18.43a6.1 6.1 0 0 0 3.53-5.89c-.18-2.29-2-3.9-4.44-5.35z" fill="#e5e5e5"/><circle cx="382.92" cy="211.09" fill="#917eec" r="8.3"/><circle cx="402.23" cy="177.38" fill="#917eec" r="11.1"/><circle cx="375.6" cy="147.98" fill="#917eec" r="6.22"/></g></svg>