<svg height="512" viewBox="0 0 512 512" width="512" xmlns="http://www.w3.org/2000/svg" xmlns:xlink="http://www.w3.org/1999/xlink"><clipPath id="clip-path"><path d="m377.37 467.37 8.56-50.6a5.63 5.63 0 0 1 5.55-4.68h52.67a5.62 5.62 0 0 1 5.54 4.68l8.57 50.6a5.63 5.63 0 0 1 -5.55 6.56h-69.79a5.63 5.63 0 0 1 -5.55-6.56z"/></clipPath><clipPath id="clip-path-2"><path d="m377.37 393.75 8.56-50.6a5.63 5.63 0 0 1 5.55-4.69h52.67a5.62 5.62 0 0 1 5.54 4.69l8.57 50.6a5.63 5.63 0 0 1 -5.55 6.56h-69.79a5.63 5.63 0 0 1 -5.55-6.56z"/></clipPath><clipPath id="clip-path-3"><path d="m377.37 317.77 8.56-50.6a5.63 5.63 0 0 1 5.55-4.69h52.67a5.62 5.62 0 0 1 5.54 4.69l8.57 50.6a5.63 5.63 0 0 1 -5.55 6.56h-69.79a5.63 5.63 0 0 1 -5.55-6.56z"/></clipPath><clipPath id="clip-path-4"><path d="m257.59 467.37 8.56-50.6a5.63 5.63 0 0 1 5.55-4.68h52.67a5.62 5.62 0 0 1 5.54 4.68l8.57 50.6a5.63 5.63 0 0 1 -5.55 6.56h-69.79a5.63 5.63 0 0 1 -5.55-6.56z"/></clipPath><clipPath id="clip-path-5"><path d="m257.59 393.75 8.56-50.6a5.63 5.63 0 0 1 5.55-4.69h52.67a5.62 5.62 0 0 1 5.54 4.69l8.57 50.6a5.63 5.63 0 0 1 -5.55 6.56h-69.79a5.63 5.63 0 0 1 -5.55-6.56z"/></clipPath><clipPath id="clip-path-6"><path d="m134.88 467.37 8.56-50.6a5.63 5.63 0 0 1 5.55-4.68h52.67a5.62 5.62 0 0 1 5.54 4.68l8.56 50.6a5.62 5.62 0 0 1 -5.54 6.56h-69.8a5.62 5.62 0 0 1 -5.54-6.56z"/></clipPath><clipPath id="clip-path-7"><path d="m134.88 393.75 8.56-50.6a5.63 5.63 0 0 1 5.55-4.69h52.67a5.62 5.62 0 0 1 5.54 4.69l8.56 50.6a5.62 5.62 0 0 1 -5.54 6.56h-69.8a5.62 5.62 0 0 1 -5.54-6.56z"/></clipPath><clipPath id="clip-path-8"><path d="m257.59 317.77 8.56-50.6a5.63 5.63 0 0 1 5.55-4.69h52.67a5.62 5.62 0 0 1 5.54 4.69l8.57 50.6a5.63 5.63 0 0 1 -5.55 6.56h-69.79a5.63 5.63 0 0 1 -5.55-6.56z"/></clipPath><clipPath id="clip-path-9"><path d="m377.37 241.79 8.56-50.6a5.63 5.63 0 0 1 5.55-4.69h52.67a5.62 5.62 0 0 1 5.54 4.69l8.57 50.6a5.63 5.63 0 0 1 -5.55 6.56h-69.79a5.63 5.63 0 0 1 -5.55-6.56z"/></clipPath><g id="Gold_Bar" data-name="Gold Bar"><path d="m428.64 481h-131.43c-5.78 0-10.14-3.78-9.07-7.87l16.33-62.69c.82-3.14 4.63-5.42 9.07-5.42h98.77c4.44 0 8.25 2.28 9.07 5.42l16.33 62.69c1.06 4.09-3.29 7.87-9.07 7.87z" fill="#d7981a"/><path d="m459.87 481h-84.11a6.64 6.64 0 0 1 -6.55-7.75l10.61-62.69a6.64 6.64 0 0 1 6.55-5.54h62.89a6.64 6.64 0 0 1 6.55 5.54l10.61 62.69a6.64 6.64 0 0 1 -6.55 7.75z" fill="#efbd42"/><g clip-path="url(#clip-path)"><path d="m431.8 398.83 12.67 89.53h30.33l-21.5-97.77z" fill="#e5e5e5"/></g><path d="m428.64 407.38h-131.43c-5.78 0-10.14-3.78-9.07-7.87l16.33-62.69c.82-3.15 4.63-5.42 9.07-5.42h98.77c4.44 0 8.25 2.27 9.07 5.42l16.33 62.69c1.06 4.09-3.29 7.87-9.07 7.87z" fill="#d7981a"/><path d="m459.87 407.38h-84.11a6.65 6.65 0 0 1 -6.55-7.76l10.61-62.69a6.64 6.64 0 0 1 6.55-5.53h62.89a6.64 6.64 0 0 1 6.55 5.53l10.61 62.69a6.65 6.65 0 0 1 -6.55 7.76z" fill="#efbd42"/><g clip-path="url(#clip-path-2)"><path d="m431.8 325.21 12.67 89.53h30.33l-21.5-97.78z" fill="#e5e5e5"/></g><path d="m428.64 331.4h-131.43c-5.78 0-10.14-3.78-9.07-7.87l16.33-62.69c.82-3.15 4.63-5.42 9.07-5.42h98.77c4.44 0 8.25 2.27 9.07 5.42l16.33 62.69c1.06 4.09-3.29 7.87-9.07 7.87z" fill="#d7981a"/><path d="m459.87 331.4h-84.11a6.65 6.65 0 0 1 -6.55-7.76l10.61-62.64a6.64 6.64 0 0 1 6.55-5.53h62.89a6.64 6.64 0 0 1 6.55 5.53l10.61 62.69a6.65 6.65 0 0 1 -6.55 7.71z" fill="#efbd42"/><g clip-path="url(#clip-path-3)"><path d="m431.8 249.23 12.67 89.53h30.33l-21.5-97.77z" fill="#e5e5e5"/></g><path d="m308.86 481h-131.43c-5.78 0-10.14-3.78-9.07-7.87l16.33-62.69c.82-3.14 4.63-5.42 9.07-5.42h98.77c4.44 0 8.25 2.28 9.07 5.42l16.33 62.69c1.07 4.09-3.29 7.87-9.07 7.87z" fill="#d7981a"/><path d="m340.09 481h-84.09a6.64 6.64 0 0 1 -6.55-7.75l10.55-62.69a6.64 6.64 0 0 1 6.55-5.54h62.89a6.64 6.64 0 0 1 6.55 5.54l10.61 62.69a6.64 6.64 0 0 1 -6.51 7.75z" fill="#efbd42"/><g clip-path="url(#clip-path-4)"><path d="m312.02 398.83 12.67 89.53h30.33l-21.5-97.77z" fill="#e5e5e5"/></g><path d="m308.86 407.38h-131.43c-5.78 0-10.14-3.78-9.07-7.87l16.33-62.69c.82-3.15 4.63-5.42 9.07-5.42h98.77c4.44 0 8.25 2.27 9.07 5.42l16.33 62.69c1.07 4.09-3.29 7.87-9.07 7.87z" fill="#d7981a"/><path d="m340.09 407.38h-84.09a6.65 6.65 0 0 1 -6.55-7.76l10.55-62.69a6.64 6.64 0 0 1 6.55-5.53h62.89a6.64 6.64 0 0 1 6.55 5.53l10.61 62.69a6.65 6.65 0 0 1 -6.51 7.76z" fill="#efbd42"/><g clip-path="url(#clip-path-5)"><path d="m312.02 325.21 12.67 89.53h30.33l-21.5-97.78z" fill="#e5e5e5"/></g><path d="m186.15 481h-131.43c-5.78 0-10.14-3.78-9.07-7.87l16.35-62.69c.81-3.14 4.63-5.42 9.07-5.42h98.77c4.44 0 8.25 2.28 9.07 5.42l16.33 62.69c1.04 4.09-3.31 7.87-9.09 7.87z" fill="#d7981a"/><path d="m217.38 481h-84.11a6.64 6.64 0 0 1 -6.55-7.75l10.61-62.69a6.64 6.64 0 0 1 6.55-5.54h62.89a6.64 6.64 0 0 1 6.55 5.54l10.61 62.69a6.65 6.65 0 0 1 -6.55 7.75z" fill="#efbd42"/><g clip-path="url(#clip-path-6)"><path d="m189.31 398.83 12.66 89.53h30.34l-21.5-97.77z" fill="#e5e5e5"/></g><path d="m186.15 407.38h-131.43c-5.78 0-10.14-3.78-9.07-7.87l16.35-62.69c.81-3.15 4.63-5.42 9.07-5.42h98.77c4.44 0 8.25 2.27 9.07 5.42l16.33 62.69c1.04 4.09-3.31 7.87-9.09 7.87z" fill="#d7981a"/><path d="m217.38 407.38h-84.11a6.65 6.65 0 0 1 -6.55-7.76l10.61-62.69a6.64 6.64 0 0 1 6.55-5.53h62.89a6.64 6.64 0 0 1 6.55 5.53l10.61 62.69a6.65 6.65 0 0 1 -6.55 7.76z" fill="#efbd42"/><g clip-path="url(#clip-path-7)"><path d="m189.31 325.21 12.66 89.53h30.34l-21.5-97.78z" fill="#e5e5e5"/></g><path d="m308.86 331.4h-131.43c-5.78 0-10.14-3.78-9.07-7.87l16.33-62.69c.82-3.15 4.63-5.42 9.07-5.42h98.77c4.44 0 8.25 2.27 9.07 5.42l16.33 62.69c1.07 4.09-3.29 7.87-9.07 7.87z" fill="#d7981a"/><path d="m340.09 331.4h-84.09a6.65 6.65 0 0 1 -6.55-7.76l10.55-62.64a6.64 6.64 0 0 1 6.55-5.53h62.89a6.64 6.64 0 0 1 6.56 5.53l10.61 62.69a6.65 6.65 0 0 1 -6.52 7.71z" fill="#efbd42"/><g clip-path="url(#clip-path-8)"><path d="m312.02 249.23 12.67 89.53h30.33l-21.5-97.77z" fill="#e5e5e5"/></g><path d="m428.64 255.42h-131.43c-5.78 0-10.14-3.79-9.07-7.87l16.33-62.69c.82-3.15 4.63-5.42 9.07-5.42h98.77c4.44 0 8.25 2.27 9.07 5.42l16.33 62.69c1.06 4.08-3.29 7.87-9.07 7.87z" fill="#d7981a"/><path d="m459.87 255.42h-84.11a6.65 6.65 0 0 1 -6.55-7.76l10.61-62.66a6.64 6.64 0 0 1 6.55-5.53h62.89a6.64 6.64 0 0 1 6.55 5.53l10.61 62.69a6.65 6.65 0 0 1 -6.55 7.73z" fill="#efbd42"/><g clip-path="url(#clip-path-9)"><path d="m431.8 173.25 12.67 89.53h30.33l-21.5-97.78z" fill="#e5e5e5"/></g><path d="m338.63 60.49c-35.1 43.45-88.48 99.58-165 148.32-69.48 44.24-129.51 64.24-127.63 69.19 2.15 5.61 83.64-12.52 164.36-53.79 75.82-38.77 129.66-87.07 164.35-123.6z" fill="#e73f46"/><path d="m311.69 56.94c-3.89 12.67 11.06 25.08 39.4 51.42 15.55 14.46 19.67 15.59 23.26 15 12.1-2.08 17.19-24.74 23.46-52.67 4.62-20.55 6-31.09 1.54-35.81-6.78-7.1-20.67-3.42-45.25 3.09-26.55 7.03-39.82 10.53-42.41 18.97z" fill="#e73f46"/><path d="m321.91 80.46 37.72 35.48s-23.1 23.18-44.05 39.5c0 0 15.66-32.63 6.33-74.98z" fill="#cc3745"/></g></svg>