<svg height="512" viewBox="0 0 512 512" width="512" xmlns="http://www.w3.org/2000/svg" xmlns:xlink="http://www.w3.org/1999/xlink"><clipPath id="clip-path"><path d="m140.99 238.62h47.29v92.71h-47.29z" transform="matrix(.987 -.163 .163 .987 -44.26 30.66)"/></clipPath><g id="Passive_Income" data-name="Passive Income"><path d="m199.78 222.17s11.27 18.8 25.94 28.61-2.72 21.91 13.71 34.22 3.38 41.24 3.38 41.24l-64.25 3.44-20.56-67.14z" fill="#2d1929"/><g clip-path="url(#clip-path)"><path d="m140.99 238.62h47.29v92.71h-47.29z" fill="#f5b493" transform="matrix(.987 -.163 .163 .987 -44.26 30.66)"/><path d="m136.9 261.53c10.52 21.75 33.06 32.2 56.38 28.46l-4.28-25.99z" fill="#eba284"/></g><path d="m185.25 155c-.1-.08-10.07-10.93-24.95-15.63-20.1-7.91-48.16-.9-63.34 18.23-17.47 22-9.84 50-7.95 57 8.86 32.48 37.22 48.4 49.2 53.84a85.77 85.77 0 0 0 21.25 8.36c8.26 1.95 27.12 3.13 42-5.52 18.34-10.68.68-73.23-1.67-79.71-2.3-20.95-7.13-31.51-14.54-36.57z" fill="#f5b493"/><path d="m209.61 203.88c-3-2-6.75-5.62-9.83-12.29l6.59 29.33c3.92-1 11.21-4.8 10.19-11.27-.42-2.65-3.69-3.54-6.95-5.77z" fill="#f5b493"/><path d="m190.65 205.07c-2.33.83-5.26-1.43-6.53-5s-.42-7.2 1.91-8 5.26 1.43 6.54 5 .43 7.17-1.92 8z" fill="#2d1929"/><path d="m169.14 183.56a1.17 1.17 0 0 1 -1-1.84c.07-.1 7.57-10.72 20.1-7.36a1.17 1.17 0 0 1 -.61 2.26c-10.91-2.92-17.3 6-17.57 6.43a1.16 1.16 0 0 1 -.92.51z" fill="#2d1929"/><path d="m135.76 299.35s-31.63 17.57-39.1 40.15 0 99.73 0 99.73h157.92s-13.14-108.51-21.5-127.33-71.75-32.17-97.32-12.55z" fill="#917eec"/><path d="m181.58 293.27c-14.53-1.59-39-1.93-64.38 10.16-26.95 12.84-40.87 33-56.45 55.51-20.22 29.25-33.75 48.78-28.7 63.06 12.95 36.62 141.95 21.15 172.05 17.23q-4.15-17.09-8.33-34.18l-85.15-13.65 20.7-40.4a57.25 57.25 0 0 0 27.75-11.3c21.2-16.43 22.39-42.4 22.51-46.43z" fill="#917eec"/><path d="m186.85 292.47s49.54-1.9 79 30.09c37.43 40.62 88.34 86.13 74.64 109.15-2.34 3.94-8.07 9.85-51.76 12.4a509.41 509.41 0 0 1 -103.34-4.44q3.08-17.66 6.17-35.29l54.21-11.56-28.2-40.82c-3.59-1.79-26.3-13.61-31.22-38.24a49.91 49.91 0 0 1 .5-21.29z" fill="#917eec"/><path d="m140.61 295.36s7.73 20.47 29.77 19.61 20.43-23.77 20.43-23.77-25.81-13.74-50.2 4.16z" fill="#f5b493"/><path d="m225.1 444.11h-64.89l-3.5-75.96h71.88z" fill="#e5e5e5"/><path d="m152.78 432.24a24.69 24.69 0 1 1 24.69-24.69 24.71 24.71 0 0 1 -24.69 24.69zm0-42.36a17.67 17.67 0 1 0 17.67 17.67 17.69 17.69 0 0 0 -17.67-17.67z" fill="#fff"/><path d="m192.65 398.06 13.38-7.03-2.55 14.9 10.83 10.55-14.97 2.17-6.69 13.56-6.69-13.56-14.96-2.17 10.83-10.55-2.56-14.9z" fill="#e73f46"/><path d="m131.31 158s11.07 27.8 2.43 47.23-4.36 23.48 6.25 41.82c10.12 17.47 12.87 45.88 0 58.65-11.34 11.26-31.73 7.37-37.25 6.15a148.26 148.26 0 0 0 -31 31.38c-8.66-8.44-10-15.52-10.13-19.36 0-1.12-2.93-4.45 3.9-16.48 13.52-23.81-3.22-19.81-7.08-40.47s12.87-24.41 12.87-41.53-15.44-25.59-4.5-46.77 15.44-47.87 59.85-47.72c15.09-14.74 38.17-16.47 53.9-5 13.31 9.7 19.37 27.4 15 44.33-14.1-3.73-27.66 1.82-37.67 12.14a27 27 0 0 0 -26.57-24.37z" fill="#2d1929"/><path d="m204 230.65c1.31 6.52-2.16 12.25-6.27 13.36-4.76 1.28-11.82-3.21-12.55-11.27z" fill="#2d1929"/><path d="m134 214.21c-5.94-8-16.06-10.45-22.61-5.57s-7 15.3-1.12 23.26 16.06 10.45 22.61 5.57 7.12-15.3 1.12-23.26z" fill="#f5b493"/><path d="m130.81 229a6.38 6.38 0 0 1 -6.26-4.08c-1-2.84 2.18-4.94 3.66-5.73-1.58-1.84-7-7.55-11.93-6-4.74 1.49-3.16 6.86-3.09 7.09a.58.58 0 0 1 -.39.73.59.59 0 0 1 -.73-.39c-.7-2.31-.81-7.08 3.85-8.55 6.64-2.1 13.39 6.57 13.67 6.94a.59.59 0 0 1 -.23.9s-4.64 2.06-3.71 4.59c1.37 3.74 5.42 3.31 5.59 3.29a.6.6 0 0 1 .65.52.59.59 0 0 1 -.51.65s-.22.04-.57.04z" fill="#2d1929"/><path d="m111.62 406.09c10.43-1.23 14.56-4.63 16.38-7.64a53.61 53.61 0 0 0 4.64-9.69c1-2.93 1.29-5 2.59-5.32 1.67-.39 3.76 2.44 4.64 4 3.27 5.67.87 12.72-.28 15.55 4.11-4.2 9-4.64 10.55-2.95 1.35 1.44.81 5.07-1.54 8.41 0 0 8-.22 3 8 0 0 8.46-.37 4.78 5.77 0 0 4.08.06 5.11 2.4a3.34 3.34 0 0 1 .21 1.69c-.63 4.61-22.45 21.33-52 14.92l-16 2.91q-.16-18.81-.32-37.61z" fill="#f5b493"/><path d="m105.3 401.75a68.33 68.33 0 0 0 0 42.88l-29.93-1.07c3.76-41.24 3.52-39.76 3.62-39.76z" fill="#917eec"/><path d="m242.12 333.91 5.88 22.91a66.3 66.3 0 0 1 17.17 35.87c11.37 1.1 35.88 4.15 46.37 8.71 11.79 5.13 17.43 10.61 16.66 12.35s-19-9.27-37.92-12.6-61.7 8.2-61.7 8.2v-9c13.67 3.83 25.53 1.2 28.9-5.38 2.41-4.71.12-10.76-1.54-15.12a39 39 0 0 0 -13.06-17.16z" fill="#6d5fde"/><path d="m227.22 397.45s21.11-2.64 23.18 1.05-10.94 8.29-10.94 8.29 8.72 5.07-.53 10.26c0 0 8 4-1 9.1 0 0 7.95 5.41-1.61 9.33 0 0 3.58 3 1.15 6s-18.66 4.73-24 1.15 9.68-7.37 9.33-7.48-13 .46-13.13-3.23 12.32-5.65 12.32-5.65-13.59-.76-13.59-5.68 16.13-4.68 16.13-4.68-14.4.92-13.94-4 16.13-5.18 16.13-5.18z" fill="#f5b493"/><path d="m121 333.91s1.37 19.43-11.61 34.24l-26 21s-29.68 6.85-41.63 24.6c0 0 21.11-13.71 33.61-17.13s28.63 9.51 28.63 9.51 17.18 1.38 23.51-7c0 0-16.85.73-23.77-2.6s5.89-19.22 5.89-19.22 20.95-24.81 11.37-43.4z" fill="#6d5fde"/><path d="m90.34 445.07s13.54-2.85 19.33-3.87c0 0 14.27 2.2 25.79.16s22.68-10.51 22.68-10.51h1.46l.61 13.26s-52.09 2.89-69.87.96z" fill="#6d5fde"/><g fill="#2d1929"><path d="m238.93 417.63c-1.63 0 6.56.33-19.43-1a.57.57 0 0 1 -.55-.61.59.59 0 0 1 .61-.56l19.4 1a.59.59 0 0 1 0 1.17z"/><path d="m220.44 427.15a.59.59 0 0 1 0-1.17l17.53-.42a.59.59 0 0 1 .6.58.58.58 0 0 1 -.57.59c-24 .57-15.84.42-17.56.42z"/><path d="m221.47 436.22a.59.59 0 0 1 0-1.17l14.87-.15a.59.59 0 1 1 0 1.17c-20.34.2-13.34.15-14.87.15z"/><path d="m239.46 407.38c-1.25 0 4.62 0-12.68-.12a.58.58 0 0 1 -.58-.59.6.6 0 0 1 .59-.58c1.25 0-4.62 0 12.67.12a.59.59 0 0 1 0 1.17z"/></g><circle cx="355.17" cy="200.7" fill="#d7981a" r="20.37"/><circle cx="359.25" cy="200.37" fill="#efbd42" r="20.37"/><path d="m354 196c-.26-3.1 1.87-5.18 4.79-5.78l-.18-2.17a.57.57 0 0 1 .53-.62.58.58 0 0 1 .63.53l.17 2.12a5.15 5.15 0 0 1 5.3 3.17c.63 1.54.42 3.17-1.25 3.31a.84.84 0 0 1 -.85-.84c-.24-2.77-1.26-4.17-3.08-4.2l.62 7.71c2.81 1.34 5.45 2.39 5.69 5.37.25 3.15-1.86 5.18-4.78 5.78l.18 2.17a.57.57 0 0 1 -.53.62.58.58 0 0 1 -.63-.53l-.17-2.1c-3.17.12-5.42-1.92-5.63-4.53a1.66 1.66 0 0 1 1.58-2 .85.85 0 0 1 .85.84 6.51 6.51 0 0 0 1 3 2.56 2.56 0 0 0 2.07 1.24l-.59-7.24c-2.62-1.42-5.5-2.89-5.74-5.91m5.47 2.58-.56-6.86a3.23 3.23 0 0 0 -2 3.3 4.39 4.39 0 0 0 2.57 3.56m2 10.31a3.42 3.42 0 0 0 2-3.29c-.11-1.28-1.12-2.19-2.49-3z" fill="#e5e5e5"/><circle cx="391.47" cy="245.43" fill="#d7981a" r="20.37"/><circle cx="387.39" cy="245.1" fill="#efbd42" r="20.37"/><path d="m381.21 239.59c.37-3.09 2.86-4.72 5.84-4.73l.25-2.16a.59.59 0 0 1 .64-.51.58.58 0 0 1 .51.65l-.24 2.11a5.14 5.14 0 0 1 4.57 4.14c.32 1.64-.21 3.2-1.88 3a.84.84 0 0 1 -.66-1q.47-4.14-2.2-4.73l-.9 7.69c2.48 1.87 4.87 3.41 4.52 6.38-.37 3.13-2.84 4.71-5.82 4.73l-.25 2.16a.58.58 0 1 1 -1.15-.13l.24-2.1c-3.13-.5-4.94-2.94-4.63-5.55a1.67 1.67 0 0 1 1.94-1.62.84.84 0 0 1 .66 1 6.46 6.46 0 0 0 .41 3.17 2.57 2.57 0 0 0 1.79 1.62l.84-7.21c-2.29-1.91-4.83-3.91-4.48-6.92m4.87 3.6.79-6.83a3.22 3.22 0 0 0 -2.61 2.84 4.37 4.37 0 0 0 1.82 4m-.08 10.51a3.43 3.43 0 0 0 2.59-2.85c.15-1.27-.66-2.36-1.85-3.42z" fill="#e5e5e5"/><path d="m392.48 107.16h69.41v35.41h-69.41z" fill="#287eef"/><path d="m375 159.42h-35.44v-15.13a37.17 37.17 0 0 1 37.13-37.13h19.8v35.42h-19.8a1.72 1.72 0 0 0 -1.72 1.71z" fill="#287eef"/><rect fill="#287eef" height="20.52" rx="7.25" width="37.4" x="376.09" y="96.22"/><path d="m388.58 70.47h12.42v32.16h-12.42z" fill="#287eef"/><path d="m367.48 68.79h54.08v9.46h-54.08z" fill="#e73f46"/><path d="m369.35 80.86h-1.16a7.34 7.34 0 1 1 0-14.68h1.16a7.34 7.34 0 1 1 0 14.68z" fill="#e73f46"/><path d="m421.38 80.86h-1.16a7.34 7.34 0 0 1 0-14.68h1.16a7.34 7.34 0 1 1 0 14.68z" fill="#e73f46"/><rect fill="#e73f46" height="8.05" rx="3.39" width="45.05" x="334.69" y="155.38"/><path d="m393.44 304.16c-14.17 1.62-16.35-6-30-5.22s-16.07 7.41-31.33 1.42-35.22 9-35.22 9l27.05 18s28.06 1.36 29.15 1.36 29.69.54 38.14-6.8 26.61-8.52 26.61-8.52-10.24-10.86-24.4-9.24z" fill="#cc3745"/><circle cx="370.97" cy="313.2" fill="#d7981a" r="20.68"/><circle cx="374.95" cy="314.39" fill="#efbd42" r="20.68"/><path d="m371.62 308.32c.9-3 3.68-4.21 6.67-3.7l.63-2.11a.59.59 0 1 1 1.13.33l-.62 2.07a5.21 5.21 0 0 1 3.83 5c0 1.69-.77 3.16-2.4 2.67a.85.85 0 0 1 -.49-1.1c.8-2.72.35-4.42-1.36-5.12l-2.26 7.53c2.15 2.3 4.26 4.27 3.39 7.18-.92 3.06-3.67 4.21-6.66 3.7l-.63 2.11a.59.59 0 0 1 -1.13-.34l.62-2.05c-3-1.06-4.42-3.82-3.66-6.37a1.69 1.69 0 0 1 2.23-1.27.85.85 0 0 1 .49 1.1 6.48 6.48 0 0 0 -.16 3.24 2.64 2.64 0 0 0 1.5 1.94l2.12-7.06c-1.94-2.31-4.13-4.77-3.24-7.71m4.22 4.45 2-6.68a3.26 3.26 0 0 0 -3.12 2.37 4.41 4.41 0 0 0 1.11 4.31m-1.92 10.5a3.49 3.49 0 0 0 3.09-2.38c.37-1.26-.25-2.48-1.25-3.75z" fill="#e5e5e5"/><path d="m296.92 309.37s14.29 19.28 10.71 28.89-25.88 31.33-29.29 51.33c-1.9 11.16 3 27.12 7.66 39 3.8 9.68 15.4 16.31 28.59 16.31h99.3c15.34 0 27.92-9.33 28.39-21.08.64-15.57.06-36.47-5.89-50.79-10.58-25.5-31.38-28.82-31-41.65s12.48-18.05 12.48-18.05-19.67-4.92-31.39 1.75-11.2 1.72-22.8-1.75-22.57 7.71-31.27 4.87-13.88-14.28-35.49-8.83z" fill="#e73f46"/><path d="m342.6 375c0-9.08 6.66-14.62 15.29-15.67v-6.33a1.69 1.69 0 1 1 3.38 0v6.2a16.84 16.84 0 0 1 9 2.72 14.36 14.36 0 0 1 6.29 11.73c0 3.51-2.06 5.35-5 5.35a2.45 2.45 0 0 1 -2.25-2.63c-.05-8.12-2.68-12.44-8-12.95v22.58c4.27 2.48 7.09 4.27 8.54 5.3 3.9 2.77 6.71 6.34 6.71 11.64 0 9.19-6.62 14.61-15.25 15.67v6.39a1.69 1.69 0 0 1 -3.38 0v-6.14a17.36 17.36 0 0 1 -9-2.77 14.44 14.44 0 0 1 -6.33-11.73c0-3.43 2.11-5.35 5.07-5.35a2.45 2.45 0 0 1 2.25 2.63 18.91 18.91 0 0 0 2.25 9.05 7.49 7.49 0 0 0 5.72 4.09v-21.22c-7.55-4.92-15.29-9.78-15.29-18.53m15.29 8.77v-20a9.37 9.37 0 0 0 -6.61 9.1c0 5 2.72 8.31 6.61 10.93m3.38 30.46a10 10 0 0 0 6.52-9.11c0-3.75-2.72-6.61-6.52-9.29z" fill="#e5e5e5"/><path d="m409.98 436.9h51.51v8.21h-51.51z" fill="#efbd42"/><path d="m406.2 420.49h51.51v8.21h-51.51z" fill="#efbd42"/><path d="m414.6 428.69h51.51v8.21h-51.51z" fill="#d7981a"/><path d="m414.6 412.28h51.51v8.21h-51.51z" fill="#d7981a"/><path d="m407.9 404.07h51.51v8.21h-51.51z" fill="#efbd42"/><path d="m349.29 428.69h51.51v8.21h-51.51z" fill="#d7981a"/><path d="m344.08 436.9h51.51v8.21h-51.51z" fill="#efbd42"/><path d="m344.08 420.49h51.51v8.21h-51.51z" fill="#efbd42"/><path d="m387.88 437.53h46.63v7.57h-46.63z" fill="#d7981a"/><path d="m384.46 422.39h46.63v7.57h-46.63z" fill="#d7981a"/><path d="m392.07 429.96h46.63v7.57h-46.63z" fill="#efbd42"/><path d="m392.07 414.81h46.63v7.57h-46.63z" fill="#efbd42"/><path d="m430.44 107.09h11.13v35.49h-11.13z" fill="#1573d8"/><rect fill="#e73f46" height="44.49" rx="3.11" width="12.42" x="420.98" y="102.62"/><path d="m388.58 78.25h12.42v3.49h-12.42z" fill="#1573d8"/><path d="m376.69 107.16a67.49 67.49 0 0 0 36.19-.07c-10.59 8.58-25.35 9.08-36.19.07z" fill="#1573d8"/></g></svg>