<svg height="512" viewBox="0 0 512 512" width="512" xmlns="http://www.w3.org/2000/svg" xmlns:xlink="http://www.w3.org/1999/xlink"><clipPath id="clip-path"><path d="m119.89 231.2h46.78v74.85h-46.78z"/></clipPath><g id="Advisor"><g clip-path="url(#clip-path)"><path d="m119.89 231.2h46.78v74.85h-46.78z" fill="#955d43"/><path d="m114.7 257.5c16.34 13.86 40 15.16 57.69 1.41l1-33.18h-58.12z" fill="#834a27"/></g><path d="m151.17 272.41s54.88-3.62 74.13 27.64 34.49 101.22 34.49 101.22l74 23.74-5.79 25.92s-87.3 13.87-104-16.29-72.83-162.23-72.83-162.23z" fill="#955d43"/><path d="m126.57 272.41c-13 3.32-41.24 12.58-60.78 38.81-9.29 12.48-13.24 28.61-21.13 60.85-15 61.35-4.51 72.55-1 75.56s7.51 4.27 10.59 5.3c16 5.33 30.42-.41 35.22-2.58q18.53-88.98 37.1-177.94z" fill="#955d43"/><path d="m352.36 222.39c-36.26 19.09-22.27 59.41-22.27 59.41 43.19-19.65 22.27-59.41 22.27-59.41z" fill="#86ebf9"/><path d="m386.43 138.45c-37.91 15.54-27.84 57-27.84 57 44.87-15.45 27.84-57 27.84-57z" fill="#86ebf9"/><path d="m459.16 250.44c-37.57-16.35-60.27 19.78-60.27 19.78 42.34 21.4 60.27-19.78 60.27-19.78z" fill="#86ebf9"/><path d="m262.61 221.11c39.76-9.93 56.19 29.45 56.19 29.45-45.29 14.13-56.19-29.45-56.19-29.45z" fill="#86ebf9"/><path d="m311.83 126.84c40.85 3.23 43.9 45.8 43.9 45.8-47.44-1.02-43.9-45.8-43.9-45.8z" fill="#86ebf9"/><path d="m396.8 191.42c33.22 24 13.71 61.94 13.71 61.94-40-25.52-13.71-61.94-13.71-61.94z" fill="#86ebf9"/><path d="m84.66 160.27s1-50.53 36.84-63.32c.32-.07.63-.09 1-.15 23.59-9.07 40.8-.15 42.31.15a45 45 0 0 1 15.64 9.58c20.49 19.2 21.23 53.74 21.23 53.74a38.48 38.48 0 0 1 .28 5.87c-.32 9.64-6.13 32-7.38 39.71-7.33 24.16-26.21 53.8-51.88 52.53-31.22-1.85-43.7-39.92-47.32-51.48-3.84-12.43-7-24.5-7.5-26.33a38.11 38.11 0 0 1 -1.35-13c-.63-2.57-1.26-5.05-1.87-7.3z" fill="#955d43"/><path d="m145.07 206.4c4.18-1.06 6.6-2.63 7.19-4.67 1.37-4.71-7.57-8-6.21-25a.51.51 0 0 1 .54-.46.5.5 0 0 1 .46.54c-1.34 16.75 7.73 19.83 6.17 25.2-.7 2.4-3.36 4.21-7.9 5.36a.5.5 0 0 1 -.25-.97z" fill="#2d1929"/><path d="m173.34 180.35c0 4.09-2.15 7.4-4.8 7.4s-4.78-3.32-4.78-7.41 2.15-7.41 4.8-7.4 4.79 3.32 4.78 7.41z" fill="#2d1929"/><path d="m180.69 161.68a.94.94 0 0 1 -.65-.24c-.39-.33-9.56-8-20.21-1.91a1 1 0 0 1 -1-1.74c11.9-6.79 22.4 2.05 22.5 2.14a1 1 0 0 1 -.64 1.75z" fill="#2d1929"/><path d="m109.64 161.68a1 1 0 0 1 -.65-1.75c.1-.09 10.59-8.93 22.5-2.14a1 1 0 0 1 .37 1.37 1 1 0 0 1 -1.36.37c-10.66-6.08-19.82 1.58-20.21 1.91a1 1 0 0 1 -.65.24z" fill="#2d1929"/><path d="m134.61 270.44s-55.87 11.28-62.61 37.95 5.65 152.61 5.65 152.61h154.69s-2.45-123-10.1-151.13-57.45-43.3-87.63-39.43z" fill="#efbd42"/><path d="m277.3 298.56h187.82v146.58h-187.82z" fill="#2d1929"/><path d="m482.63 461h-222.84l17.51-20.15h187.82z" fill="#2d1929"/><path d="m286.92 308.19h168.57v127.33h-168.57z" fill="#287eef"/><path d="m131 182.71a.48.48 0 0 1 -.47-.34 8.42 8.42 0 0 0 -16.08 0 .5.5 0 0 1 -1-.31 9.42 9.42 0 0 1 18 0 .5.5 0 0 1 -.45.65z" fill="#2d1929"/><path d="m119.89 274.35s10.66 32.42 25.31 31.7 21.47-33.87 21.47-33.87-30.9-9.56-46.78 2.17z" fill="#955d43"/><path d="m119.89 261.29s-4-.4-6.89 6.18-5.62 11.53-5.62 11.53 5 48.13 22 49.74 15-22.71 15-22.71-23.38-11.13-24.49-44.74z" fill="#efbd42"/><path d="m166.67 261.29s-4.23 34.09-22.33 44.76c0 0 3.31 18.37 14.86 15.73s23.28-47 23.28-47-1.38-.18-3.79-6.92-8.29-8.7-12.02-6.57z" fill="#efbd42"/><path d="m81.69 297s-18.26 4.09-26.2 13.24-22.86 54.62-22.86 64 8.17 15.18 8.17 15.18l-1.67 9.32s26.22 10.39 38.5 5.58 17.56-20.46 17.56-20.46z" fill="#efbd42"/><path d="m175.89 273.25s18.93.17 40.75 14c0 0 13.47-.31 19.57 11.27s22.14 56.76 22.79 64.68-4.49 14-4.49 14l2.3 11.38a98.16 98.16 0 0 1 -39.33 11.08c-22.33 1.29-23.62-35.89-23.62-35.89z" fill="#efbd42"/><g fill="#d7981a"><path d="m107.38 279s5.86 48.53 22 49.74 15.84-22.71 15.84-22.71-7.41 19.1-16.56 17.41-21.28-44.44-21.28-44.44z"/><path d="m182.48 274.79s-.42 43.9-12.21 47.25-25.07-16-25.07-16 14 14.27 23.39 9.47 13.89-40.72 13.89-40.72z"/><path d="m145.2 306.05s-10.54 25.11 2.45 48.69 14.44 40.43 9.31 59.68-5.79 46.58-5.79 46.58h8.55s-5.91-15.13 0-34.7 7.18-49.2-2.44-63.1-16.79-44.55-12.08-57.15z"/><path d="m220.17 314.64 8.66 30.8c11.26 16 10.54 35.54 2 52.62q.75 31.47 1.49 62.94h-60.92s39.52-5.36 46.07-15.86-4.36-13.07-2.76-22.05 10.91-13.16 9.95-20.86 15.72-37.54-.64-55.83z"/><path d="m75.78 327.15 1.93 20.22s-21.23 24.29-4.68 58l4.62 55.63h42.73s-25.38-5.19-28.88-11.28 6.42-13.16 3.69-18.61-17.19-12.51-13.5-18.93-21-29.52 0-62.89z"/><path d="m40.8 389.42s13.32 5.11 22.15 3.51c0 0-8.19-2.52-9.47-3.51s-1.61-27.62-1.61-27.62-4.65 19.42-4.81 22.62 1.94 4.18 1.94 4.18-5.3-.65-6.26-2.89-.64-20.29-.64-20.29-9.16 15.37-1.3 24z"/><path d="m254.5 377.2s-4.5 4.47-15.24 6.33c0 0 6.73-8.53 7.62-11.68s-4.42-18.85-4.42-18.85 7.71 14.6 8.35 16.68-.48 5.94-.48 5.94 4.81-4.65 5.45-8.66-4.17-15.08-4.17-15.08 5.8 9.95 6.34 13.56a14.76 14.76 0 0 1 -3.45 11.76z"/></g><path d="m159.33 102.55s-28.3 57-65.07 62a98.23 98.23 0 0 0 25.63 84.51v12.22s-33.36 6.15-64.64-3.62c0 0 12.27-12.42 9.62-22.52s-10.11-18.29-1.44-29.84-5.62-20.62-1.13-42.76 15.41-16.36 13.16-33.05 29.78-54.85 83.87-38.49c0 0 34.3 1.61 46.12 15.08s2.2 20.54 13.43 35-7.7 30.16 7.06 48.44-17.36 30.49 6.4 51.34c0 0-27.08 18.44-65.67 20.45v-11.23c22.35-21.86 33-52.57 25.9-84.32-11.9-8.28-16-16.5-17.65-22.46-2.31-8.66.35-14.14-2.88-23.42-2.9-8.34-8.54-13.95-12.71-17.33z" fill="#917eec"/><path d="m181.79 177.08c3.87-9.58 13.4-14.76 21.29-11.58s11.13 13.53 7.26 23.11-13.4 14.77-21.28 11.58-11.14-13.53-7.27-23.11z" fill="#955d43"/><path d="m196.52 193.43a.5.5 0 0 1 -.32-.88c.82-.69 2.93-2.84 2.84-4.44-.1-1.88-2.92-2.53-2.95-2.54a.5.5 0 0 1 -.39-.51c.23-6.37 3.62-15.18 9.85-13.95a.5.5 0 0 1 .39.59.51.51 0 0 1 -.59.4c-5.4-1.08-8.32 7.1-8.64 12.61.95.29 3.21 1.22 3.33 3.35.14 2.42-3.06 5.14-3.2 5.25a.49.49 0 0 1 -.32.12z" fill="#2d1929"/><path d="m87.25 165.5c7.89-3.18 17.41 2 21.29 11.58s.61 19.92-7.28 23.11-17.41-2-21.28-11.58-.61-19.92 7.27-23.11z" fill="#955d43"/><path d="m93.81 193.43a.52.52 0 0 1 -.33-.12c-.13-.11-3.33-2.83-3.19-5.25.12-2.13 2.37-3.06 3.32-3.35-.31-5.5-3.23-13.71-8.61-12.61a.5.5 0 0 1 -.19-1c6.23-1.23 9.62 7.58 9.85 13.95a.5.5 0 0 1 -.39.51s-2.85.66-2.95 2.54c-.09 1.6 2 3.75 2.84 4.44a.5.5 0 0 1 -.35.89z" fill="#2d1929"/><path d="m56.69 413s7.27-7.92 8.66-21.42 6.77-11.33 9.05-3.74 2.38 18.66 2.38 18.66 20.34-3.37 24 1.69-1.93 9.38-1.93 9.38 11.15 5.52 3.15 11.61c0 0 8.48 4.66.14 10.27 0 0 4.65 3.21 2.57 6.58s-21.34 11.47-32.73 9.1-21.71-24.02-15.29-42.13z" fill="#955d43"/><path d="m39.13 398.74s6.79 6.26 13.87 7.86c0 0-26.59 33.89 12.39 48.53-18.31-11.92-18.69-35.13-3.69-50.19z" fill="#834a27"/><path d="m259.79 401.27s-16.72 9.14-23.6 27.91c0 0 19.81-20.46 30.46-25.71z" fill="#834a27"/><path d="m131 219.5h28a14.44 14.44 0 0 1 -28 0z" fill="#e5e5e5"/><path d="m373.71 384.75a2 2 0 0 1 -2-2v-143.33c-32.48-67.15-15.31-110.54-14.56-112.35a2 2 0 0 1 3.7 1.52c-.08.21-4.41 11.07-4.78 29.83-.34 17.4 2.76 45.35 19.44 79.67.31.64.2-9.36.2 144.66a2 2 0 0 1 -2 2z" fill="#40c2d6"/><path d="m373.71 308.08a2 2 0 0 1 -1.51-3.31c.46-.53 46-53.8 58.28-114.56a2 2 0 0 1 3.93.79c-12.48 61.81-58.72 115.85-59.19 116.38a2 2 0 0 1 -1.51.7z" fill="#40c2d6"/><path d="m373.71 332.19a2.06 2.06 0 0 1 -.95-.24c-27.92-15-44.05-47.67-52.67-72.43a265.36 265.36 0 0 1 -12.1-50.4 2 2 0 0 1 1.75-2.22 2 2 0 0 1 2.22 1.76c.11.92 11.28 92.13 62.7 119.77a2 2 0 0 1 -.95 3.76z" fill="#40c2d6"/><path d="m407.96 416.73h-67.38l-6.42-57.11h80.22z" fill="#e73f46"/><path d="m327.46 349.03h93.61v20.53h-93.61z" fill="#e73f46"/><path d="m334.16 369.56 77.97 10.05 1.13-10.05z" fill="#cc3745"/><circle cx="360.07" cy="92.43" fill="#d7981a" r="38.79"/><circle cx="367.85" cy="91.8" fill="#efbd42" r="38.79"/><path d="m357.87 83.46c-.48-5.91 3.57-9.87 9.13-11l-.33-4.13a1.1 1.1 0 1 1 2.2-.18l.32 4c4.34-.23 8.25 1.67 10.09 6 1.21 2.94.81 6.06-2.38 6.32a1.62 1.62 0 0 1 -1.61-1.6c-.46-5.28-2.4-8-5.87-8l1.19 14.7c2.91 1.39 4.84 2.4 5.84 3 2.68 1.59 4.7 3.77 5 7.22.49 6-3.53 9.86-9.09 11l.33 4.12a1.1 1.1 0 1 1 -2.2.18l-.32-4a11.37 11.37 0 0 1 -6-1.33c-4.81-2.59-6.94-10.63-1.73-11a1.59 1.59 0 0 1 1.6 1.59 12.33 12.33 0 0 0 1.95 5.78 4.88 4.88 0 0 0 3.94 2.35l-1.12-13.77c-5-2.73-10.47-5.53-10.94-11.26m10.42 4.9-1.06-13a6.12 6.12 0 0 0 -3.82 6.27c.26 3.27 2.21 5.27 4.88 6.77m3.82 19.61a6.52 6.52 0 0 0 3.76-6.27c-.2-2.45-2.12-4.17-4.74-5.71z" fill="#e5e5e5"/><circle cx="306.75" cy="201.39" fill="#d7981a" r="32.17"/><circle cx="313.2" cy="200.87" fill="#efbd42" r="32.17"/><path d="m304.92 194c-.4-4.9 3-8.18 7.57-9.13l-.27-3.42a.9.9 0 0 1 .83-1 .9.9 0 0 1 1 .83l.27 3.35a8.12 8.12 0 0 1 8.36 5c1 2.44.67 5-2 5.24a1.33 1.33 0 0 1 -1.33-1.32c-.38-4.38-2-6.6-4.87-6.64l1 12.18c2.41 1.16 4 2 4.84 2.49 2.22 1.32 3.9 3.12 4.13 6 .41 5-2.93 8.18-7.54 9.13l.28 3.42a.92.92 0 0 1 -1.83.15l-.27-3.32c-5 .19-8.56-3-8.89-7.16a2.63 2.63 0 0 1 2.5-3.11 1.32 1.32 0 0 1 1.3 1.31 10.24 10.24 0 0 0 1.61 4.79 4.06 4.06 0 0 0 3.27 2l-.88-11.5c-4.14-2.25-8.68-4.57-9.07-9.34m8.65 4.07-.88-10.82a5.09 5.09 0 0 0 -3.18 5.21c.22 2.71 1.84 4.36 4.06 5.61m3.16 16.29a5.4 5.4 0 0 0 3.12-5.2c-.17-2-1.76-3.45-3.93-4.73z" fill="#e5e5e5"/><circle cx="445.27" cy="179.08" fill="#d7981a" r="32.17"/><circle cx="440.75" cy="176.04" fill="#efbd42" r="32.17"/><path d="m435.58 166.58c1.42-4.71 5.74-6.54 10.38-5.73l1-3.29a.91.91 0 0 1 1.75.53l-1 3.21a8.14 8.14 0 0 1 6 7.72c.05 2.63-1.21 4.92-3.75 4.15a1.33 1.33 0 0 1 -.75-1.72c1.24-4.21.55-6.86-2.12-8l-3.52 11.71c1.82 2 3 3.32 3.6 4.08 1.58 2.05 2.48 4.34 1.66 7.09-1.44 4.76-5.72 6.54-10.36 5.74l-1 3.28a.92.92 0 0 1 -1.76-.53l1-3.18c-4.73-1.65-6.87-6-5.67-9.91a2.63 2.63 0 0 1 3.46-2 1.33 1.33 0 0 1 .76 1.72 10.3 10.3 0 0 0 -.25 5.05 4.07 4.07 0 0 0 2.33 3l3.31-11c-3-3.61-6.41-7.43-5-12m6.56 6.94 3.13-10.39a5.08 5.08 0 0 0 -4.85 3.69c-.79 2.6.11 4.73 1.72 6.7m-3 16.33a5.4 5.4 0 0 0 4.8-3.71c.59-1.94-.37-3.85-1.93-5.83z" fill="#e5e5e5"/></g></svg>