<svg xmlns="http://www.w3.org/2000/svg" width="512" height="512" viewBox="0 0 512 512"><defs><style>.cls-1{fill:#aaeeea}.cls-2{fill:#00ccc1}.cls-10,.cls-13,.cls-14,.cls-16,.cls-3,.cls-8{fill:none;stroke-linecap:round;stroke-linejoin:round}.cls-3{stroke:#00ccc1;stroke-width:4px}.cls-4{fill:#fff3e3}.cls-5{fill:#ffb833}.cls-6{fill:#ffb08d}.cls-7{fill:#ff8c5f}.cls-10,.cls-13,.cls-14,.cls-8{stroke:#383333}.cls-14,.cls-8{stroke-width:.75px}.cls-11,.cls-9{fill:#383333}.cls-10,.cls-11,.cls-14{fill-rule:evenodd}.cls-12{fill:#ff832f}.cls-15{fill:#fff}.cls-16{stroke:#fff}</style></defs><g id="Analysis"><rect width="323.39" height="243.76" x="163.28" y="32" class="cls-1" rx="20.87"/><circle cx="185.37" cy="48.59" r="5.32" class="cls-2"/><circle cx="207.88" cy="48.59" r="5.32" class="cls-2"/><circle cx="230.39" cy="48.59" r="5.32" class="cls-2"/><polyline points="218.02 87.16 218.02 235.73 437.16 235.73" class="cls-3"/><rect width="25.77" height="108.85" x="233.71" y="117.64" class="cls-4"/><rect width="25.77" height="137.12" x="268.77" y="89.37" class="cls-2"/><rect width="25.77" height="108.85" x="305.19" y="117.64" class="cls-4"/><rect width="25.77" height="137.12" x="340.25" y="89.37" class="cls-2"/><rect width="25.77" height="108.85" x="376.67" y="117.64" class="cls-4"/><rect width="25.77" height="137.12" x="411.73" y="89.37" class="cls-2"/><rect width="3.36" height="17.99" x="279.12" y="299.22" class="cls-5" rx="1.63" transform="translate(-135.7 288.83) rotate(-45)"/><rect width="3.36" height="17.99" x="279.12" y="299.22" class="cls-5" rx="1.63" transform="translate(261.41 724.71) rotate(-135)"/><rect width="3.36" height="17.99" x="66.56" y="253.62" class="cls-5" rx="1.63" transform="translate(-165.71 125.17) rotate(-45)"/><rect width="3.36" height="17.99" x="66.56" y="253.62" class="cls-5" rx="1.63" transform="translate(-69.21 496.57) rotate(-135)"/><rect width="4.26" height="22.83" x="116.35" y="66.91" class="cls-5" rx="1.73" transform="translate(-20.68 106.72) rotate(-45)"/><rect width="4.26" height="22.83" x="116.35" y="66.91" class="cls-5" rx="1.73" transform="translate(146.88 217.48) rotate(-135)"/><rect width="4.26" height="22.83" x="303.06" y="433.59" class="cls-5" rx="1.73" transform="translate(-225.27 346.14) rotate(-45)"/><rect width="4.26" height="22.83" x="303.06" y="433.59" class="cls-5" rx="1.73" transform="translate(206.34 975.47) rotate(-135)"/><rect width="4.26" height="22.83" x="431.32" y="293.7" class="cls-5" rx="1.73" transform="translate(-88.79 395.86) rotate(-45)"/><rect width="4.26" height="22.83" x="431.32" y="293.7" class="cls-5" rx="1.73" transform="translate(524.2 827.36) rotate(-135)"/><path d="M150.44,246.88s-.1,17.61,4.33,26.38,26.76,9.27,43.95,22.68-3.2,55.15-.82,177.49c0,0-96.6,16.5-146.78,0,0,0,10.74-72.85,7.09-123.71s4.94-57.74,15.6-62.2,36.08-11,38.48-16.5,4.47-24.14,4.47-24.14Z" class="cls-6"/><path d="M373.23,328s8.87-18.79,13.89-23.75,24.82-20.16,25.46-26.55-12.71,2.92-12.71,2.92,20.51-22.75,17.43-26.44-15.59,10-15.59,10,14.17-17.65,9.27-20.37S393.87,259,393.87,259s7.48-17.49,4.28-18.67-12.58,12.87-18.72,19.87-8.26,6.84-8.77.38,1.81-11.5-2.4-11.43-5.91,10.81-7,19.75-17.06,40.39-17.06,40.39S355.58,327.8,373.23,328Z" class="cls-6"/><path d="M77.52,189.5a13.6,13.6,0,0,0-10.08-3.91,10.47,10.47,0,0,0-6.18,2.32c-5.61,5.25-3.46,21.83,6.24,26.09,5.41,2.38,11.17,0,13.11-.87Z" class="cls-7"/><path d="M63.56,195.31l9.36-.43s-9.52,5.93-1.55,13.62" class="cls-8"/><path d="M193.3,189.5a13.55,13.55,0,0,1,10.07-3.91,10.47,10.47,0,0,1,6.18,2.32c5.61,5.25,3.46,21.83-6.23,26.09-5.42,2.38-11.18,0-13.12-.87Q191.75,201.31,193.3,189.5Z" class="cls-7"/><path d="M207.25,195.31l-9.35-.43s9.52,5.93,1.55,13.62" class="cls-8"/><circle cx="134.66" cy="182.82" r="64.05" class="cls-6"/><path d="M198.66,180.28c-.26,7.49-2.33,45.06-31.11,66.65-5.28,4-16.05,11.82-31.21,12.4-27.95,1.06-46.55-23.58-50.27-28.51-12.95-17.16-15-35.51-15.34-44.08C70.73,186.74,141.31,137.45,198.66,180.28Z" class="cls-6"/><path d="M92.34,183.4a20.38,20.38,0,0,1,11.71-3.84c2.85-.06,6.71-.16,7.9,2.07a3.14,3.14,0,0,1-.08,3.15c-1.34,1.79-4.7.17-10.13.12-7.14-.06-11.79,2.65-12.26,1.62C89.14,185.78,91.43,184.07,92.34,183.4Z" class="cls-9"/><path d="M174.68,183.15a20.48,20.48,0,0,0-11.77-3.66c-2.85,0-6.71-.06-7.86,2.19a3.1,3.1,0,0,0,.12,3.14c1.36,1.77,4.7.11,10.12,0,7.15-.17,11.83,2.47,12.29,1.44C177.91,185.5,175.59,183.82,174.68,183.15Z" class="cls-9"/><path d="M134.89,194.86s5,11.56,4.08,13.77-9.92,1.45-9.92,1.45" class="cls-10"/><path d="M136.68,232.83s-4.53,1.7-8.2-.06" class="cls-8"/><ellipse cx="95.21" cy="217.97" class="cls-7" rx="4.93" ry="7.92" transform="translate(-124.36 309.43) rotate(-89.02)"/><ellipse cx="169.41" cy="219.24" class="cls-7" rx="4.93" ry="7.92" transform="translate(-52.7 384.87) rotate(-89.02)"/><path d="M110.33,202.4a5.88,5.88,0,1,1,.51-8.3A5.91,5.91,0,0,1,110.33,202.4Z" class="cls-11"/><path d="M165.85,204a5.89,5.89,0,1,1,0-8.31A5.9,5.9,0,0,1,165.85,204Z" class="cls-11"/><path d="M123.12,131c11.5-6.55,18.32-5.93,22.42-4.12,12.54,5.51,8.48,25.86,25.52,38.4a42.09,42.09,0,0,0,17.78,7.22,51.61,51.61,0,0,0,32-4.64,34.35,34.35,0,0,1-7.21-5.67c-13.07-13.5-6.69-30-18.05-46.65-1.66-2.43-6.52-9.4-14.69-13.4-21.95-10.76-49,9.14-51.8,11.25-2.88-1.36-26.39-12.05-45.12-.65-14,8.53-18.84,25.46-22.67,38.88a101.43,101.43,0,0,0-3.35,17.53c2.5,1.32,12.55,6.3,24.23,2.83,11-3.27,16.74-12.05,18.3-14.69,8-13.49,2.43-26.37,8.92-29.81C111.58,126.29,115.54,126.05,123.12,131Z" class="cls-11"/><path d="M197.9,473.43s-96.6,16.5-146.78,0c0,0,10.74-72.85,7.09-123.71s4.94-57.74,15.6-62.2c7.07-3,20.65-6.84,29.69-10.72,4.89,4.35,17.75,14.35,33.18,14.76,19.74.51,27-11.78,27-11.78h0c9.19,3.86,23.32,7,35.06,16.16C215.91,309.34,195.52,351.09,197.9,473.43Z" class="cls-4"/><path d="M97.22,278.8A248.1,248.1,0,0,1,70,286.14a63,63,0,0,0-9.92,2.71,66.31,66.31,0,0,0-15.16,8.29C27.09,310.77,49.53,412,44.25,449.38c0,0,0,0-3.61,24.91h0s35.79,11.4,62.49,6.47Z" class="cls-12"/><path d="M381.55,312.6c-22.76,43.5-57.6,101.06-81.5,95.2-9-2.21-18.37-13.87-19.19-25.26-.9-12.34,8.42-21.77,17.52-31.45,12.57-13.36,29.82-32.62,50.26-58.5a90.28,90.28,0,0,0,32.91,20Z" class="cls-12"/><path d="M181.88,285.11c3.34.62,8.17,1.6,13.92,3.09,0,0,4.85,1.27,9,2.58,17.85,5.63,34.54,25.78,34.54,25.78,9.67,11.67,33.18,32.75,92.18,74.23-4.73,6.39-13.42,15.51-26.63,18.72-8.11,2-18.8,1.81-58.59-19.93-31.2-17-60.27-36.42-60.28-36.42Q184,319.13,181.88,285.11Z" class="cls-12"/><path d="M68.86,288.16c-15.26,2.34-23.55,8.43-28.22,13.45C14,330.25,41.84,392.14,48.89,407.8a203.82,203.82,0,0,0,33,51l36.6-22.68a287.92,287.92,0,0,1-49.62-148Z" class="cls-12"/><path d="M170.57,282.37a752.88,752.88,0,0,1-4,115.46A755,755,0,0,1,153,478.93q8.28.33,17.07.26a360.8,360.8,0,0,0,46.07-3.35,402.59,402.59,0,0,1,4.9-86.6c5.75-34.17,16.2-68-.39-84.28-2.64-2.6-5.68-4.48-10.82-7.61A117.53,117.53,0,0,0,170.57,282.37Z" class="cls-12"/><path d="M183.73,433.2s20.54-5.73,31.24-6.73,20.38.24,22.36,3.06S226.7,434,226.7,434a73.7,73.7,0,0,0,21.37,6.3c11.13,1.25,20.16-.16,21.34,4.56S245.6,460.37,229.29,461s-31.51-.81-43.58,2.9C185.71,463.87,173.34,443.41,183.73,433.2Z" class="cls-6"/><path d="M194,463.24c-15.74,2.66-109.38,17.85-123.11-12.43-2.69-5.95-3.66-16.65,1.6-23.38,7.16-9.14,23-7.18,42.32-5,17,1.88,42.94,4.62,77,7.57.64,3.63,1.19,7.5,1.6,11.59A156.78,156.78,0,0,1,194,463.24Z" class="cls-12"/><path d="M324.47,398.58s-14.56,18.7-43.26,11.72S212,380.79,212,380.79l-3.09-31.46,57.8,26.85Z" class="cls-12"/><path d="M207.25,166.81l-1.75,19.1s-4.29,2.74-5.51,5.13-4.77,13.4-8.25,11.21,3.29-22.68-.84-37.76Z" class="cls-11"/><path d="M75.09,169.39s2.5,28.83-1.28,29.49-5.57-13.32-5.57-13.32-3.63,0-5.3,1.19c0,0-.34-12.38.62-18.39Z" class="cls-11"/><path d="M216.08,310.2s11.69,42.91,3.95,74.89" class="cls-10"/><path d="M42.49,392.79s15.9,67.93,60.64,75" class="cls-10"/><path d="M74.37,331.81s12.51,55.74,26.59,75" class="cls-10"/><path d="M109.34,421.8s-21.55-4.06-32.61,8.48" class="cls-10"/><line x1="193.96" x2="155.34" y1="463.24" y2="468.17" class="cls-13"/><line x1="191.73" x2="162.7" y1="429.97" y2="427.33" class="cls-13"/><path d="M394.61,280.13s-7.08-8.94-13.72-11.6" class="cls-14"/><path d="M372.51,265.4s1.73,7.34-1.7,12" class="cls-14"/><line x1="393.87" x2="388.85" y1="259.02" y2="266.21" class="cls-8"/><line x1="401.71" x2="395.38" y1="264.11" y2="271.39" class="cls-8"/><ellipse cx="133.36" cy="224.18" class="cls-15" rx="7.54" ry="4.96"/><path d="M150.91,256.41s-17.8,6.51-35.25-1" class="cls-10"/><path d="M139.08,120.16s13.94-5.67,24.25,0,13.14,33.76,33.25,35.31" class="cls-16"/><path d="M171.83,114s6,21.24,18.88,22.58" class="cls-16"/><path d="M122.35,123s-20.26-8-27.14,4.9-9.68,33.25-27,33.25" class="cls-16"/><path d="M84.2,126.6s-5.93,21.14-18,23.71" class="cls-16"/><path d="M285.79,383.59s-2.69-9.36,4.06-23.09" class="cls-10"/></g></svg>