<svg height="512" viewBox="0 0 512 512" width="512" xmlns="http://www.w3.org/2000/svg"><g id="Cosmetic_Laboratory_Test" data-name="Cosmetic Laboratory Test"><circle cx="349.31" cy="207.25" fill="#383333" r="31.91"/><path d="m152 285.46s-7.34-10.65-12.79-13-25.81.94-37.18-1.66-17.76-4.26-17.52 0 10.61 16.79 21.26 19.2 22.28 13 22.28 13 17.74-2.86 23.95-17.54z" fill="#ffb08d"/><circle cx="121.46" cy="148.92" fill="#ffdb99" r="86.77"/><path d="m108.83 224.94 10.08 30.73a2.42 2.42 0 0 0 4.58 0l10.6-30.76z" fill="#ffdb99"/><path d="m198.52 245.27 4.76-12.52a1.89 1.89 0 0 1 3.57.08l4.15 12.65a1.9 1.9 0 0 0 1.21 1.2l8.67 2.88a1.89 1.89 0 0 1 0 3.58l-8.88 3.18a1.88 1.88 0 0 0 -1.16 1.19l-4.74 14.39a1.9 1.9 0 0 1 -3.62-.06l-4.15-14.29a1.87 1.87 0 0 0 -1.17-1.25l-8.77-3.19a1.89 1.89 0 0 1 0-3.57l9-3.15a1.89 1.89 0 0 0 1.13-1.12z" fill="#ffb833"/><path d="m424.35 139.14 4.76-12.53a1.9 1.9 0 0 1 3.58.08l4.15 12.65a1.9 1.9 0 0 0 1.2 1.21l8.67 2.87a1.9 1.9 0 0 1 .05 3.59l-8.9 3.17a1.93 1.93 0 0 0 -1.16 1.19l-4.76 14.4a1.9 1.9 0 0 1 -3.62-.07l-4.15-14.28a1.93 1.93 0 0 0 -1.17-1.26l-8.78-3.16a1.9 1.9 0 0 1 0-3.57l9-3.15a1.85 1.85 0 0 0 1.13-1.14z" fill="#ffb833"/><path d="m209.17 50.85 5.91-15.57a2.35 2.35 0 0 1 4.44.1l5.16 15.72a2.36 2.36 0 0 0 1.5 1.5l10.82 3.57a2.35 2.35 0 0 1 .05 4.45l-11 3.95a2.37 2.37 0 0 0 -1.45 1.48l-5.92 17.89a2.36 2.36 0 0 1 -4.5-.08l-5.15-17.75a2.35 2.35 0 0 0 -1.46-1.56l-10.91-4a2.36 2.36 0 0 1 0-4.44l11.15-3.91a2.36 2.36 0 0 0 1.36-1.35z" fill="#ffb833"/><path d="m265.2 259c-7.5 0-24.53 1.09-37.35 13.35-1.14 1.09-4.59 4.5-9 12.15-10.31 17.88-11.11 33.29-14.19 49.66a212.74 212.74 0 0 1 -13.26 43.57l24.45 22.8a15.42 15.42 0 0 0 2.84 0c16.51-1.45 27-28.39 37.89-57.14 5.93-15.69 8.89-23.53 10.6-34.09a128.07 128.07 0 0 0 -1.98-50.3z" fill="#aaeeea"/><path d="m123.77 300.14c5.25 10.69 56.15 112.63 91.4 104a20.56 20.56 0 0 0 13-10.35c16.67-32.79-71.39-106.59-80.84-114.41a71.43 71.43 0 0 1 -23.56 20.76z" fill="#aaeeea"/><path d="m367.65 252.49c7.42 1.13 24.08 4.8 34.9 18.87 1 1.25 3.85 5.14 7.05 13.38 7.1 18.24 6.24 33.17 6.5 51.22.16 11 .79 26.94 3 46.57l-24.1 17.35a178 178 0 0 1 -31.59-62.66 132.58 132.58 0 0 1 -5.31-35.31 128.13 128.13 0 0 1 9.55-49.42z" fill="#aaeeea"/><path d="m246.74 159.38c-.81-.76-5.26-4.74-11.46-4.13-.91.09-4.52.44-6.91 2.78-6.18 6.07-3.31 24.71 7.74 29.25 6.17 2.53 12.6-.28 14.76-1.35q-2.05-13.27-4.13-26.55z" fill="#ff8c5f"/><path d="m375.82 156.27c.78-.79 5-5 11.25-4.68.91 0 4.54.23 7 2.45 6.47 5.77 4.5 24.52-6.32 29.58-6 2.83-12.6.34-14.81-.63z" fill="#ff8c5f"/><path d="m240.32 181.34a.38.38 0 0 1 -.25-.09c-2.79-2.56-4.08-5.26-3.86-8 .28-3.41 2.8-6 4.26-7.21l-9.28.66a.38.38 0 0 1 -.05-.75l10.53-.74a.38.38 0 0 1 .38.25.36.36 0 0 1 -.14.43s-4.6 3.07-4.95 7.43c-.2 2.5 1 5 3.61 7.38a.37.37 0 0 1 0 .53.39.39 0 0 1 -.25.11z" fill="#383333"/><path d="m382.89 177.91a.34.34 0 0 1 -.26-.11.37.37 0 0 1 0-.53c2.48-2.51 3.58-5.06 3.25-7.55-.56-4.34-5.25-7.15-5.3-7.17a.38.38 0 0 1 -.16-.43.39.39 0 0 1 .36-.27l10.56.23a.38.38 0 0 1 0 .75l-9.31-.21c1.52 1.15 4.16 3.61 4.6 7 .36 2.74-.8 5.49-3.46 8.18a.39.39 0 0 1 -.28.11z" fill="#383333"/><circle cx="310.74" cy="138.45" fill="#ffb08d" r="75.3"/><path d="m285 204.7c3.94 24.09-1.18 36.28-7.58 42.94-13.57 14.11-31.48 7.21-43.57 19.57-15.5 15.84-3.46 46.89 3.16 80.83 5.41 27.74 9.3 68.2.62 120.6 14.88 5 33.29 9.09 54.51 11.72 31.45 3.91 71.32 3.91 104.94-11.72-11.85-40-13.71-73-12.95-96.61 1.77-54.4 18.63-95.32-1.89-112.4-11.4-9.48-24.24-3.22-36.62-15.78-11.78-11.95-12.75-30.38-11.53-44.68a34 34 0 0 0 -49.09 5.53z" fill="#ffb08d"/><path d="m235.43 141.26c5 43.08 27.92 76.59 58.77 84.84a61.61 61.61 0 0 0 31.35-.08c31.27-8.27 54.67-41.14 61.05-83.37 0 0-103.96-67.48-151.17-1.39z" fill="#ffb08d"/><path d="m265.12 144.81a24.67 24.67 0 0 1 14-4.95c3.43-.16 8.07-.38 9.56 2.27a3.75 3.75 0 0 1 0 3.79c-1.55 2.19-5.64.34-12.18.44-8.6.13-14.11 3.52-14.71 2.3-.45-.88 2.26-3.01 3.33-3.85z" fill="#383333"/><path d="m353.09 143.28a24.55 24.55 0 0 0 -14.29-4c-3.43.06-8.08.15-9.39 2.9a3.75 3.75 0 0 0 .26 3.78c1.7 2.09 5.66 0 12.18-.38 8.59-.46 14.32 2.56 14.83 1.3.38-.88-2.47-2.88-3.59-3.6z" fill="#383333"/><path d="m312.35 176.13c-3.16 0-6.65-.4-7.39-2-1.22-2.75 3.91-15.62 4.5-17.08a.5.5 0 0 1 .93.38c-2.17 5.35-5.3 14.51-4.51 16.29.7 1.58 7.13 1.64 11.47 1.17a.5.5 0 1 1 .11 1 48.15 48.15 0 0 1 -5.11.24z" fill="#383333"/><path d="m285 166.5a6.36 6.36 0 1 1 .34-9 6.39 6.39 0 0 1 -.34 9z" fill="#383333" fill-rule="evenodd"/><path d="m270 157.84c.13-.12 1.43 2 3 1.82 1.18-.15 1.45-1.45 2.92-2.63a7.64 7.64 0 0 1 4.46-1.54 16.66 16.66 0 0 1 -2.48 3.77c-1.41 1.61-2.33 2.65-3.6 2.7-2.57.1-4.52-3.96-4.3-4.12z" fill="#383333" fill-rule="evenodd"/><path d="m343.6 164.54a6.37 6.37 0 1 1 -.77-9 6.38 6.38 0 0 1 .77 9z" fill="#383333" fill-rule="evenodd"/><path d="m349.17 155.94c-.14-.12-1.33 2.07-2.94 1.95-1.18-.08-1.52-1.37-3.05-2.48a7.59 7.59 0 0 0 -4.52-1.32 16.58 16.58 0 0 0 2.65 3.64c1.5 1.55 2.46 2.54 3.73 2.53 2.58-.03 4.33-4.17 4.13-4.32z" fill="#383333" fill-rule="evenodd"/><ellipse cx="274.25" cy="178.26" fill="#ff8c5f" rx="9.71" ry="6.11" transform="matrix(1 -.024 .024 1 -4.21 6.65)"/><ellipse cx="349.31" cy="176.81" fill="#ff8c5f" rx="9.71" ry="6.11" transform="matrix(1 -.024 .024 1 -4.15 8.46)"/><path d="m310.37 228.1a66.42 66.42 0 0 1 -24.27-4.47.5.5 0 1 1 .4-.91c.24.1 23.86 10.29 48.27-.74a.5.5 0 0 1 .66.25.49.49 0 0 1 -.25.66 60 60 0 0 1 -24.81 5.21z" fill="#383333"/><path d="m310.31 204h-.11a9.12 9.12 0 0 1 -4.86-1.49.37.37 0 0 1 -.1-.52.36.36 0 0 1 .51-.1 8.46 8.46 0 0 0 4.46 1.36 8.17 8.17 0 0 0 4.67-1.37.38.38 0 0 1 .52.11.38.38 0 0 1 -.11.52 9.23 9.23 0 0 1 -4.98 1.49z" fill="#383333"/><path d="m283.68 237.41s-5.47 14.46-20.83 17.78l10.41 222.32s54.79 11.9 87.48 2.85l5.73-228s-16.25-1.69-20.51-9.74l-4.26-8s-38.84 6.57-58.02 2.79z" fill="#ff8d93"/><path d="m274.09 249.86a618.63 618.63 0 0 0 2.49 79.95c3.49 35.94 8.64 55.23 12.52 99.79 1.9 21.89 2.62 39.76 2.93 51-8.71-.54-18.15-1.5-28.19-3.06a308.07 308.07 0 0 1 -33.58-7.16c10.17-43.63 7.23-76.51 2.75-98.35 0 0-16.45-80.19-5.56-98.42a37.16 37.16 0 0 1 6.39-7.82c5-4.49 10.13-6.06 16.69-8.17 5.12-1.62 12.99-4.16 23.56-7.76z" fill="#aaeeea"/><path d="m352.83 248.56a687.21 687.21 0 0 0 -15.4 235.05 128.64 128.64 0 0 0 22.85-1.7 131.07 131.07 0 0 0 42.9-15.11s-20.45-70.19-18.27-101.08c3.87-55.06 21.78-74.16 8.49-95.85-4.62-7.55-14.78-17.32-40.57-21.31z" fill="#aaeeea"/><path d="m319.83 80.67s-18.31-4.42-28.73 12-27.59 71.05-62.73 65.33c0 0-7.67-126.61 91.46-97.57 0 0 39.47-10.41 57.15 17.69s17.12 75.88 17.12 75.88-24.81 3.55-27.6-22.44-5.62-59.41-46.67-50.89z" fill="#383333"/><path d="m236.43 150.62s-4.42 37.15 16.79 51.6c0 0-8.16-45.65-2.35-62.44z" fill="#383333"/><ellipse cx="309.34" cy="192.55" fill="#fff" rx="6.07" ry="8.41"/><path d="m149 163.46-10.81-18.73v-53.83h-29.65v53.83l-10.82 18.73-14.17 24.54a13.22 13.22 0 0 0 11.45 19.83h53.3a15.17 15.17 0 0 0 13.14-22.76z" fill="#ff8d93"/><rect fill="#ff8d93" height="8.92" rx="4.46" width="36.43" x="104.42" y="86.57"/><path d="m130.59 183.25a5 5 0 0 1 -4.09-2.12l-14.68-20.83a5 5 0 0 1 8.18-5.76l10.29 14.6 31.21-51.26a5 5 0 1 1 8.54 5.2l-35.18 57.78a5 5 0 0 1 -4.1 2.39z" fill="#ff535c"/><path d="m221.71 382.25h-.08a.5.5 0 0 1 -.42-.57c2.94-20.63-16.75-46.95-17-47.21a.5.5 0 0 1 .8-.61c.2.27 20.14 26.92 17.14 48a.5.5 0 0 1 -.44.39z" fill="#383333"/><path d="m235.88 390.85a.5.5 0 0 1 -.49-.51c0-.38.9-37.77-5.59-56-6.59-18.51 2.73-40.33 2.82-40.55a.52.52 0 0 1 .66-.26.51.51 0 0 1 .26.66c-.1.22-9.25 21.68-2.8 39.82 6.56 18.41 5.66 56 5.65 56.37a.5.5 0 0 1 -.51.47z" fill="#383333"/><path d="m277.83 350.38a.51.51 0 0 1 -.45-.27l-18-35.46a.51.51 0 0 1 0-.45l6-12-7.85-10.2a.48.48 0 0 1 -.07-.49l16.17-41.83a.49.49 0 0 1 .64-.29.5.5 0 0 1 .29.65l-16.07 41.57 7.91 10.2a.51.51 0 0 1 .06.53l-6.07 12.08 17.89 35.23a.52.52 0 0 1 -.22.68.64.64 0 0 1 -.23.05z" fill="#383333"/><path d="m336.46 347.22a.46.46 0 0 1 -.29-.1.51.51 0 0 1 -.11-.7l22.53-31-7-15.31a.5.5 0 0 1 .21-.64l6.85-4-6.29-46.85a.5.5 0 0 1 .43-.56.49.49 0 0 1 .56.43l6.34 47.18a.49.49 0 0 1 -.25.5l-6.75 3.9 7 15.17a.54.54 0 0 1 -.05.51l-22.77 31.25a.49.49 0 0 1 -.41.22z" fill="#383333"/><g fill="#fff"><path d="m385.13 140.28c-9.38 0-12.94-15-16.72-30.78-3-12.41-6-25.25-12-30.29-13.32-11.2-32-4.57-32.23-4.5a.5.5 0 0 1 -.64-.3.49.49 0 0 1 .3-.64c.19-.07 19.46-6.9 33.21 4.67 6.25 5.26 9.35 18.26 12.34 30.83 3.68 15.43 7.16 30 15.76 30h.23a.49.49 0 0 1 .51.48.5.5 0 0 1 -.48.52z"/><path d="m387.21 129.58a6 6 0 0 1 -3.21-1c-7.78-4.91-11.38-26.83-11.52-27.76a.5.5 0 1 1 1-.16c0 .23 3.68 22.41 11.08 27.07a4.7 4.7 0 0 0 4 .63.5.5 0 0 1 .28 1 5.88 5.88 0 0 1 -1.63.22z"/><path d="m240.24 145.39a20.2 20.2 0 0 1 -4.68-.56.5.5 0 1 1 .23-1c21 4.89 34.16-25.78 42.89-46.07 2.77-6.43 5.16-12 7.21-15 8.5-12.46 25.4-8.14 25.57-8.1a.5.5 0 0 1 -.26 1 30.3 30.3 0 0 0 -9.2-.66c-6.74.57-11.88 3.37-15.27 8.34-2 2.92-4.36 8.44-7.11 14.83-8.23 19.1-20.32 47.22-39.38 47.22z"/><path d="m239 129.89a11.11 11.11 0 0 1 -2.65-.32.5.5 0 0 1 -.35-.57.49.49 0 0 1 .6-.36c14.52 3.56 34.1-27.79 34.3-28.1a.49.49 0 0 1 .69-.16.5.5 0 0 1 .16.68 122.44 122.44 0 0 1 -11.84 15.62c-8.02 8.77-15.03 13.21-20.91 13.21z"/><path d="m247.82 95.07a2.5 2.5 0 0 1 -2.23-3.63 76.15 76.15 0 0 1 10.76-15.18c9.25-10.19 19.79-15.93 30.48-16.6a2.5 2.5 0 1 1 .31 5c-22.78 1.43-36.95 28.78-37.09 29.05a2.51 2.51 0 0 1 -2.23 1.36z"/><path d="m298.57 222.71c-17.27 0-33.9-18.05-34.61-18.83a2.5 2.5 0 1 1 3.7-3.36c.16.17 16.22 17.65 31.47 17.18h.07a2.5 2.5 0 0 1 .07 5z"/><path d="m224 291.14a2.57 2.57 0 0 1 -.72-.11 2.49 2.49 0 0 1 -1.68-3.11c.27-.88 6.7-21.62 26.49-27.32a2.5 2.5 0 1 1 1.39 4.8c-17.2 5-23 23.77-23.09 24a2.51 2.51 0 0 1 -2.39 1.74z"/><path d="m195 388.22a2.33 2.33 0 0 1 -1-.2c-20.9-8.75-52-62.38-53.3-64.66a2.5 2.5 0 0 1 4.33-2.5c.32.55 31.54 54.45 50.9 62.55a2.5 2.5 0 0 1 -1 4.81z"/><path d="m240.48 456.73a2.53 2.53 0 0 1 -.71-.1 2.51 2.51 0 0 1 -1.69-3.11c3-10.23 2.43-34.66 2.42-34.9a2.5 2.5 0 1 1 5-.13c0 1 .61 25.46-2.62 36.44a2.51 2.51 0 0 1 -2.4 1.8z"/><path d="m391.71 454.83a2.49 2.49 0 0 1 -2.15-1.22c-7.13-12-10.86-41.7-11-43a2.5 2.5 0 1 1 5-.61c0 .29 3.76 29.92 10.36 41a2.49 2.49 0 0 1 -2.15 3.77z"/><path d="m394.88 458.84c-4.24 0-3.62 6.56.61 6.56s3.61-6.56-.61-6.56z"/><path d="m377.51 391c-4.24 0-3.61 6.56.61 6.56s3.61-6.56-.61-6.56z"/><path d="m217.76 300c-4.24 0-3.62 6.57.61 6.57s3.63-6.57-.61-6.57z"/><path d="m257.85 257.72c-4.24 0-3.61 6.57.61 6.57s3.61-6.57-.61-6.57z"/><path d="m309.63 218.57c-4.24 0-3.61 6.57.61 6.57s3.61-6.57-.61-6.57z"/><path d="m242.07 101.6c-4.24 0-3.61 6.57.61 6.57s3.61-6.57-.61-6.57z"/><path d="m136.62 307.92c-4.24 0-3.62 6.57.61 6.57s3.61-6.57-.61-6.57z"/><path d="m204.5 388.75c-4.24 0-3.62 6.56.61 6.56s3.61-6.56-.61-6.56z"/></g><path d="m403.18 273.81s-2.43-12.12 1.57-19.87-3.25-21.75 0-23 7.75 1.95 11 8.22 0 18.57-1.39 22.83-1.62 18.56-11.18 11.82z" fill="#ffb08d"/><path d="m439 274.36c.4 5.05 8.63 117.44-27.3 128.54-.68.21-9.08 2.67-16.52-1.78-30.48-18.21 4.24-123 7.11-131.54a64.65 64.65 0 0 0 36.71 4.78z" fill="#aaeeea"/><rect fill="#ff535c" height="22.13" rx="6" transform="matrix(.953 .304 -.304 .953 102.46 -115.32)" width="36.44" x="403.91" y="260.82"/><path d="m438.62 273.18-30.69-9.78a3.66 3.66 0 0 1 -2.46-4.33l20.4-87.38a3.66 3.66 0 0 1 4.68-2.66l44.21 14.08a3.66 3.66 0 0 1 2.24 4.89l-33.91 83.08a3.68 3.68 0 0 1 -4.47 2.1z" fill="#ff8d93"/><rect fill="#ffdb99" height="67.44" rx="7" transform="matrix(.953 .304 -.304 .953 90.15 -121.46)" width="29.73" x="420.86" y="195.49"/><path d="m458.33 233.27s-16.73 2-18.1 5.77 12.25 3 12.25 3-14.25 2.37-14.13 5.5 11.75 1.62 11.75 1.62-12.62 4.14-11.75 6.57 9.25 0 9.25 0-8.17 3.85-7.09 5.77 12.47 0 14.59-2-.5-3.81-.5-3.81 6-3.57 2-6.44c0 0 5.88-3.88 1-7.13 0 .04 9-8.77.73-8.85z" fill="#ffb08d"/><path d="m451.12 242.66a.37.37 0 0 1 -.09-.74c.56-.12 5.51-1.18 6.82 0a.38.38 0 1 1 -.49.57c-.78-.68-4.19-.24-6.16.2z" fill="#383333"/><path d="m449.06 249.9a.38.38 0 0 1 -.37-.3.38.38 0 0 1 .29-.45c.24 0 5.89-1.18 7.8-.19a.38.38 0 0 1 .16.5.39.39 0 0 1 -.51.16c-1.39-.72-5.74-.05-7.3.27z" fill="#383333"/><path d="m446.8 256.5a.38.38 0 0 1 -.1-.74c.66-.18 6.48-1.71 8.14-.32a.38.38 0 0 1 -.48.58c-1-.87-5.12-.17-7.46.47z" fill="#383333"/><path d="m381.43 390.85a.49.49 0 0 1 -.5-.48c0-.38-.91-38 5.65-56.37 6.45-18.15-2.71-39.6-2.8-39.82a.51.51 0 0 1 .26-.66.52.52 0 0 1 .66.26c.09.22 9.4 22 2.82 40.55-6.49 18.24-5.6 55.63-5.59 56a.5.5 0 0 1 -.49.51z" fill="#383333"/><path d="m389.39 323.27a.25.25 0 0 1 -.12 0 .49.49 0 0 1 -.36-.6l13.16-51.42a.5.5 0 1 1 1 .25l-13.16 51.41a.5.5 0 0 1 -.52.36z" fill="#383333"/><path d="m425.77 375.94a2.56 2.56 0 0 1 -.93-.18 2.51 2.51 0 0 1 -1.39-3.25c6.79-16.92 8.78-54.33 8.8-54.7a2.5 2.5 0 0 1 5 .25c-.08 1.57-2.06 38.62-9.16 56.31a2.51 2.51 0 0 1 -2.32 1.57z" fill="#fff"/><path d="m432.43 297c-4.48 0-3.82 6.93.64 6.93s3.81-6.93-.64-6.93z" fill="#fff"/></g></svg>