<svg xmlns="http://www.w3.org/2000/svg" width="512" height="512" viewBox="0 0 512 512"><defs><style>.cls-1{fill:#ffdb99}.cls-2{fill:#ffb833}.cls-3{fill:#ffc871}.cls-11,.cls-4,.cls-6,.cls-9{fill:none;stroke-linecap:round;stroke-linejoin:round}.cls-4,.cls-6,.cls-9{stroke:#383333}.cls-4{stroke-width:.75px}.cls-5{fill:#383333}.cls-6{fill-rule:evenodd}.cls-7{fill:#fff3e3}.cls-8{fill:#ff535c}.cls-10{fill:#00ccc1}.cls-11{stroke:#fff}</style></defs><g id="Atom"><path d="M376,359.76C316.27,385.62,267.92,400.5,257.73,386c-3.58-5.09-1.35-12.26-.82-14,6.49-20.82,44.2-31.76,93.12-30.05Z" class="cls-1"/><path d="M372.11,361.42S423.69,343,423,339.8s-1.72-5.67-17-3.69-25.86,2.71-35.72.73-22.17,5-22.17,5S357.48,360.63,372.11,361.42Z" class="cls-1"/><path d="M286.59,61.9V39a2,2,0,0,1,1.32-1.94,2,2,0,0,1,2.57,1.85V62a2,2,0,0,1-2.57,1.85A2,2,0,0,1,286.59,61.9Z" class="cls-2"/><path d="M277,52.41a2,2,0,0,1-1.85-2.57,2,2,0,0,1,2-1.32H300a2,2,0,0,1,1.95,1.32,2,2,0,0,1-1.85,2.57Z" class="cls-2"/><path d="M313.07,320.39a1.48,1.48,0,0,1-1.48-1.48V301.32a1.49,1.49,0,1,1,3,0v17.59A1.49,1.49,0,0,1,313.07,320.39Z" class="cls-2"/><path d="M304.28,311.6a1.49,1.49,0,1,1,0-3h17.59a1.49,1.49,0,0,1,0,3Z" class="cls-2"/><path d="M69.82,224.84a1.48,1.48,0,0,1-1.48-1.48V205.77a1.48,1.48,0,1,1,3,0v17.59A1.48,1.48,0,0,1,69.82,224.84Z" class="cls-2"/><path d="M61,216.05a1.49,1.49,0,0,1,0-3h17.6a1.49,1.49,0,0,1,0,3Z" class="cls-2"/><path d="M235.23,138.06c.81-.8,5.28-5,11.67-4.53.93.07,4.65.34,7.16,2.69,6.5,6.09,4,25.29-7.22,30.23-6.28,2.76-13,0-15.2-1Q233.43,151.75,235.23,138.06Z" class="cls-3"/><path d="M251.4,144.79l-10.84-.49s11,6.86,1.79,15.78" class="cls-4"/><path d="M102.47,138.06c-.82-.8-5.28-5-11.67-4.53-.94.07-4.65.34-7.16,2.69-6.5,6.09-4,25.29,7.22,30.23,6.28,2.76,13,0,15.2-1Q104.26,151.75,102.47,138.06Z" class="cls-3"/><path d="M86.3,144.79l10.84-.49s-11,6.86-1.8,15.78" class="cls-4"/><circle cx="168.36" cy="126.72" r="76.26" class="cls-1"/><path d="M244.62,134c-5.88,38.26-28,68.69-58,77.68a65.88,65.88,0,0,1-36,.55c-29.66-8.23-51.87-38.35-57.3-76.77,3.92-42.07,40.34-73.16,80-70.95C209.55,66.52,240.49,95.84,244.62,134Z" class="cls-1"/><path d="M185.09,196.46c-.34,8,.46,19.72,7.74,29.54,12.55,16.94,31.92,11.31,46.34,22.92,20.2,16.27,11.82,51.16,10,98.17a498.32,498.32,0,0,0,9.31,116.1A271.85,271.85,0,0,1,93,466.51c1.73-9.37,3.89-22.86,5.32-39.2a435.32,435.32,0,0,0,.79-62.74c-4.23-80.87-20.84-102-4.84-115.89,15.7-13.63,41.59-15,48.86-23.85s4-32.28,4-32.28S174.53,182.42,185.09,196.46Z" class="cls-1"/><path d="M214.18,123.56a25.14,25.14,0,0,0-14.49-4.74c-3.52-.09-8.29-.2-9.76,2.56a3.85,3.85,0,0,0,.1,3.89c1.65,2.22,5.8.21,12.52.15,8.83-.08,14.58,3.27,15.16,2C218.13,126.51,215.3,124.39,214.18,123.56Z" class="cls-5"/><path d="M123.79,124.15a25.35,25.35,0,0,1,14.58-4.45c3.53,0,8.3,0,9.71,2.75a3.85,3.85,0,0,1-.17,3.89c-1.7,2.18-5.81.1-12.52-.09-8.84-.26-14.65,3-15.2,1.7C119.78,127,122.66,125,123.79,124.15Z" class="cls-5"/><path d="M168.47,137.38s6.17,14.3,5,17-12.27,1.8-12.27,1.8" class="cls-6"/><path d="M163.29,183.62s5.6,2.1,10.14-.08" class="cls-4"/><ellipse cx="210.63" cy="166.31" class="cls-3" rx="9.8" ry="6.1" transform="translate(-2.82 3.63) rotate(-0.98)"/><ellipse cx="130.31" cy="168.84" class="cls-3" rx="9.8" ry="6.1" transform="translate(-2.87 2.26) rotate(-0.98)"/><path d="M219.22,240.39s26.95,5,39.17,20.36,39.82,108.61,39.82,108.61a24.81,24.81,0,0,1-6.49,13.86c-7.59,7.79-20.73,9.53-33,4.25-13.26-18-35.08-51.85-39.7-98.66C215.4,252.15,219.22,240.39,219.22,240.39Z" class="cls-1"/><path d="M186.59,211.68s-20.9,6.74-39.06-.38" class="cls-6"/><path d="M134.83,230.29c1.94,3.11,10.69,16.38,27.8,20.55,25,6.1,43.91-13,44.78-13.87,0,0,27,5.38,37.21,12.65s4.51,120.39,9.5,156.77,13.45,53.81,13.45,53.81-77.21,47.64-180.12,7.88c0,0,17.36-97.95,5.81-161s1.24-60.23,8-64.32S134.83,230.29,134.83,230.29Z" class="cls-2"/><path d="M149.08,171.19c6.17.6,12.93,1,20.2,1,6.36,0,12.32-.28,17.82-.74-5.81,7.52-15,11.25-23.6,9.52S150.2,172.81,149.08,171.19Z" class="cls-7"/><path d="M103,241.82a55,55,0,0,0-28.54,23.72C63.85,283.77,45.86,458.93,45.86,458.93s11.25,11.4,41.59,9.15c0,0,13.59-56,20-116.07S112.8,253.32,103,241.82Z" class="cls-1"/><path d="M109.76,238.92s-25,4.7-38,28.35-16.51,81.46-16.51,81.46,34.66,20,56.26,12.48C111.48,361.21,134.07,248.67,109.76,238.92Z" class="cls-2"/><path d="M235,244.77s22.23,6.73,30.85,23.73,22.69,69.63,22.69,69.63S268.07,362.48,238,362.91C238,362.91,211.77,263.65,235,244.77Z" class="cls-2"/><path d="M127.9,144.3a10.45,10.45,0,0,1,19.63,0" class="cls-6"/><path d="M189.45,144.3a10.45,10.45,0,0,1,19.63,0" class="cls-6"/><circle cx="367.46" cy="175.69" r="31.4" class="cls-8"/><ellipse cx="367.46" cy="180.11" class="cls-9" rx="39.32" ry="115.49"/><ellipse cx="367.46" cy="172.42" class="cls-9" rx="115.49" ry="39.32" transform="translate(-29.27 258.19) rotate(-37.34)"/><ellipse cx="367.46" cy="172.42" class="cls-9" rx="39.32" ry="115.49" transform="translate(15.86 375.23) rotate(-55.11)"/><circle cx="365.13" cy="64.77" r="10.84" class="cls-10"/><circle cx="309.05" cy="249.14" r="10.84" class="cls-10"/><circle cx="455.3" cy="240.39" r="10.84" class="cls-10"/><path d="M86.3,134.54a3.52,3.52,0,0,1,3.74,2.9c.74,3.2,2.37,14.53,7.1,13.88s-1.27-31.13,4.89-37.78,7.74-9.28,11.76-24.22,33.57-25,43.42-20.61S173.4,89.4,189.45,89.89s25.46-2.93,31,5.8,4.83,22.48,11.21,27.56.71,24.54,6.38,26,7.36-13.27,8.62-14.45,4.76-.27,4.76-.27-4.2-26.91,0-29.54,11.42-5.58,8.79-16.09-24.64-8.35-32.52-21.26S199.22,28.14,168.94,35s-41,21.35-41,21.35-18.65-4.27-34.82,18.39S86.3,134.54,86.3,134.54Z" class="cls-5"/><path d="M147.53,61.07s9.45-5.22,19.91,3.55,19.34,21.58,40,18.38" class="cls-11"/><path d="M192,64.62A38.33,38.33,0,0,0,231.19,83.5" class="cls-11"/><path d="M229.39,101.23s.25,14.28,8.38,18.47" class="cls-11"/><path d="M240.56,110.46s.81,9,5.42,13.51" class="cls-11"/><path d="M124.82,71.51s-11.21,3.23-17.12,12.72-5.07,23.65-15.59,21.68" class="cls-11"/><path d="M100.8,89.77S93.9,99.87,88,99.25" class="cls-11"/><circle cx="215.6" cy="306.03" r="23.65" class="cls-8"/><path d="M106.06,279.58s12.89,28.9,0,82.94" class="cls-6"/><path d="M250.2,279.58s1,58.59,1.64,81.43" class="cls-6"/><path d="M267.57,375.41s8.18-20,23.92-28" class="cls-6"/></g></svg>