<svg height="512" viewBox="0 0 512 512" width="512" xmlns="http://www.w3.org/2000/svg"><g id="Electrocardiogram"><path d="m418.54 435.46h-361.54q-12-149.07-25-309.39l66.09-47h331z" fill="#287eef"/><path d="m468.19 435.46h-361.58l-9.73-356.35h385.12z" fill="#86ebf9"/><path d="m146.19 359.21-4.8-242.13h311.32l-8.22 242.13z" fill="#287eef"/><path d="m131.18 359.21-5.45-242.13h301.35c12.58 81.74 10.15 163.87-7.15 242.13z" fill="#2d1929"/><path d="m213.36 218.13s-31.3-41.2-52.17-12.84 21.41 78.12 58.86 91.5c0 0 58.86-56.72 41.21-84.55s-47.9 5.89-47.9 5.89z" fill="#e73f46"/><path d="m292.55 281.38-14.28-36.86h-68.16a3 3 0 0 1 0-6h70.21a3 3 0 0 1 2.8 1.92l12.16 31.36 23.65-64.31a3 3 0 0 1 5.74.38l13.62 60.58 15.24-49.26a3 3 0 0 1 5.62-.3l10.36 24.17h39.49a3 3 0 0 1 0 6h-41.47a3 3 0 0 1 -2.76-1.82l-7.92-18.49-16.15 52.25a3 3 0 0 1 -3 2.11 3 3 0 0 1 -2.8-2.34l-13.86-61.63-22.89 62.22a3 3 0 0 1 -5.6.02z" fill="#fff"/><rect fill="#d7981a" height="26.4" rx="10.67" width="54.44" x="145.26" y="386.29"/><rect fill="#d7981a" height="26.4" rx="10.67" width="54.44" x="219.23" y="386.29"/><path d="m163.4 407.74a8.25 8.25 0 0 1 0-16.5h28a8.25 8.25 0 1 1 0 16.5z" fill="#efbd42"/><path d="m237.38 407.74a8.25 8.25 0 0 1 0-16.5h28a8.25 8.25 0 1 1 0 16.5z" fill="#efbd42"/><circle cx="428.2" cy="395.78" fill="#1573d8" r="26.4"/><circle cx="434.18" cy="395.78" fill="#287eef" r="20.42"/></g></svg>