<svg height="512" viewBox="0 0 512 512" width="512" xmlns="http://www.w3.org/2000/svg" xmlns:xlink="http://www.w3.org/1999/xlink"><clipPath id="a"><path d="m160.34 214.53h40.27v80.61h-40.27z"/></clipPath><path d="m405.49 102.03 13.88 1.48 27.38-16.45-15.91-4.27z" fill="#287eef"/><circle cx="337.81" cy="155.6" fill="#e73f46" r="68.54"/><circle cx="337.81" cy="155.6" fill="#eaeaea" r="59.85"/><circle cx="337.81" cy="155.6" fill="#e73f46" r="48.08"/><circle cx="337.81" cy="155.6" fill="#eaeaea" r="28.13"/><path d="m337.81 166.85a11.25 11.25 0 1 1 11.25-11.25 11.27 11.27 0 0 1 -11.25 11.25z" fill="#e73f46"/><path d="m426.22 75.38-88.41 78.36 95.05-70.6c2-2.84 1.3-6.46-.91-7.94a5.38 5.38 0 0 0 -5.73.18z" fill="#2d1929"/><path d="m402.78 98.14-.87-10.73q12.7-14 25.42-28l.86 18.38z" fill="#287eef"/><path d="m353.92 74.46-13.21-27.01 6.61-3.67z" fill="#86ebf9"/><path d="m370.31 68.74-1.71-36.46h7.34z" fill="#86ebf9"/><path d="m383.77 70.21 10.98-27.89 7.16 3.67z" fill="#86ebf9"/><path d="m334.22 256.71c4.57-10.78-5.88-7.34-5.88-7.34 4.58-11.93-8-6.09-8-6.09s3.22-3.12 2.36-6.2a4.55 4.55 0 0 0 -1.74-2.43c-5-3.41-16.38 11.43-23.86 8.36-4.63-1.9-3.42-8.86-10.54-12.51-1-.53-5-2.54-6.62-1.1-2.85 2.52 5.54 11.79 3.92 25-.33 2.75-.74 2.7-1.26 6.62a58.19 58.19 0 0 0 .16 16.51l-1.23 25.82h37.31q-.06-7.89-.11-15.79c2.8-2.89 19.08-19.78 20.86-26.11.22-.76.73-2.58-.21-3.8-1.28-1.65-4.48-1.07-5.16-.94z" fill="#e39c76"/><path d="m321.3 268.47c-.75-1.55.53-3.48 2.5-5.33-3.78 1.64-7.67 2.61-9.72 1s-.18-4.17 1.57-6c-3.2 1.43-6.19 2.06-7.93.74-2.43-1.86-.14-5.09 1.93-7.34-3.73 2.2-7.42 3.7-8.95 2.28-3.12-2.88 4.59-10.66 7.73-13.48a.49.49 0 0 1 .7 0 .5.5 0 0 1 0 .71c-2.46 2.2-10 9.87-7.72 12 1.54 1.42 7.31-1.85 12.55-5.54 2.62-2.17 5-3.8 5.21-4a.5.5 0 0 1 .6.8c-.55.45-2.6 2.1-5.19 3.94-2.57 2.14-8.89 7.71-6.22 9.74 1.88 1.44 6.08-.22 10.25-2.6a84.69 84.69 0 0 1 9.5-6.51.5.5 0 0 1 .57.82 81.33 81.33 0 0 1 -9.55 6.59c-1.94 1.58-6.35 5.4-4.39 7 2.31 1.86 8.14-.58 12.87-3.19a60.75 60.75 0 0 1 5.46-3.36.5.5 0 0 1 .52.85c-.23.16-2.47 1.71-5.41 3.34-3.64 2.54-6.74 5.42-5.95 7.07 1.27 2.62 7-.66 9.34-2.32a.49.49 0 0 1 .7.11.5.5 0 0 1 -.12.7c-3.15 2.28-9.15 5.51-10.85 1.98z" fill="#2d1929"/><path d="m303.12 266.62a.5.5 0 0 1 -.5-.5c0-9.35-6.95-20.16-7-20.27a.5.5 0 0 1 .14-.69.49.49 0 0 1 .69.15c.3.45 7.19 11.17 7.19 20.81a.5.5 0 0 1 -.52.5z" fill="#2d1929"/><path d="m164.11 265c-12.18.4-39.26 3.45-58.77 27.23-5.24 6.38-8.49 13.35-15 27.29-11.34 24.33-25.85 55.56-21.74 89.17 1.19 9.71 6.09 34.38 13 57l49.23-.36q-7.31-34.38-14.6-68.76a307.3 307.3 0 0 1 18.77-59.29c3.93-8.97 16-31.73 29.11-72.28z" fill="#86ebf9"/><path d="m194.32 264.05c8.92-1.5 29.53-3.62 45.32 8.74 3.58 2.8 9 8.1 17.65 27.94a250.08 250.08 0 0 1 16.5 54.75q4.24-34.32 8.5-68.64l36.6 4.58a491.93 491.93 0 0 1 4.58 82.85c-.88 28.68-3.91 42.82-14.71 51-10.11 7.65-22.56 6.68-25.49 6.38-7.11-.75-26.87-4.87-52.81-51.32-12.71-22.79-30.06-61.33-36.14-116.28z" fill="#86ebf9"/><g clip-path="url(#a)"><path d="m160.34 214.53h40.27v80.61h-40.27z" fill="#e39c76"/><path d="m155.07 251.72a47.65 47.65 0 0 0 53.74 0v-28.52h-51.37z" fill="#d48f6e"/></g><path d="m231.38 169.69c-.27 8.39-5.34 27.91-6.42 34.59-6.39 21-22.83 46.86-45.19 45.76-27.13-1.62-38-34.78-41.15-44.85-3.35-10.83-6.08-21.34-6.53-22.93a33 33 0 0 1 -1.18-11.33c-.55-2.23-1.1-4.39-1.63-6.35 0 0 .91-44 32.08-55.16.29-.06.56-.08.84-.13 20.5-7.89 35.41-.15 36.85.13a39 39 0 0 1 13.62 8.35c17.85 16.72 18.49 46.8 18.49 46.81a33.24 33.24 0 0 1 .22 5.11z" fill="#e39c76"/><path d="m181.89 204.69c3.61-.91 5.7-2.26 6.21-4 1.17-4-6.59-7-5.41-21.76a.5.5 0 1 1 1 .08c-1.19 14.86 6.79 17.08 5.37 22-.62 2.12-2.95 3.71-6.93 4.71a.5.5 0 1 1 -.24-1.03z" fill="#2d1929"/><path d="m206.53 182.06c0 3.57-1.88 6.45-4.18 6.45s-4.17-2.89-4.17-6.46 1.87-6.44 4.18-6.44 4.17 2.89 4.17 6.45z" fill="#2d1929"/><path d="m212.92 165.94a1 1 0 0 1 -.65-.24c-.33-.29-8.25-6.91-17.45-1.66a1 1 0 1 1 -1-1.73c10.45-6 19.65 1.79 19.75 1.87a1 1 0 0 1 -.65 1.76z" fill="#2d1929"/><path d="m151 165.94a1 1 0 0 1 -.65-1.76c.09-.08 9.3-7.83 19.74-1.87a1 1 0 0 1 -1 1.73c-9.2-5.25-17.12 1.37-17.45 1.66a1 1 0 0 1 -.64.24z" fill="#2d1929"/><path d="m172 262.55s-42.53 9.22-51 28.12 0 175.05 0 175.05h125.61s1.69-148-5.63-175-68.98-28.17-68.98-28.17z" fill="#eaeaea"/><path d="m160.34 264.81s7 18.11 20.13 19.91 20.14-21.49 20.14-21.49a69.87 69.87 0 0 0 -40.27 1.58z" fill="#e39c76"/><path d="m160.34 252.57s-5.15-.1-7.11 4.48-5.46 12.53-5.46 12.53 11 30.91 20.29 32.13 15.2-16.89 15.2-16.89-18.88-.51-22.92-32.25z" fill="#eaeaea"/><path d="m183.26 284.82s16.23-19.71 17.35-32.25a7 7 0 0 1 7.49 3.22 113.58 113.58 0 0 1 5.9 12.83s-7.84 27.94-15.35 31.62-15.39-15.42-15.39-15.42z" fill="#eaeaea"/><path d="m149.11 266.45c1.75 64.77 15.63 99.16 19.89 117.55a253.74 253.74 0 0 1 5.4 81.72l-55.4-.18c-.47-43.18-2.89-77.73-5.07-101.7-3.22-35.46-6.59-59.33 7-78.13 8.45-11.57 20.07-16.71 28.18-19.26z" fill="#86ebf9"/><path d="m211.64 263.05s3.91 82.41 2.31 133.54-2.31 69.13-2.31 69.13l40.25-.1c-6.15-69.64 2.81-87.28-2.28-148.23-1.47-17.6-3.75-31.91-14.89-42.7-5.55-5.38-13.03-9.47-23.08-11.64z" fill="#86ebf9"/><path d="m183.26 284.82s-8 16.89-15.2 16.89-18.06-26.4-18.06-26.4 9.64 31 16.63 32.12 16.63-22.61 16.63-22.61z" fill="#c6c6c6"/><path d="m183.26 284.82s7 17.06 13 19.34 15.93-29.78 15.93-29.78-12.25 22.76-15.52 23.08-13.41-12.64-13.41-12.64z" fill="#c6c6c6"/><path d="m183.26 285.29-11.64 19.85 6.9 15.31s-22.85 65.71-8.08 99.73 12.82 45.54 12.82 45.54a126.35 126.35 0 0 0 30.74 16.56q3.78-13.68 7.55-27.36s-5.56-21.24-16-38.16a136.41 136.41 0 0 1 -17-96.49q3.82-9.82 7.64-19.66z" fill="#e73f46"/><g fill="#40c2d6"><path d="m135 346.32 9.4 3.11q-1 5.07-2.05 10.13l21.33 20.1-16.18-22.55 4.41-12.26-9.31-2.69c2.69-101-.02-96.16-7.6 4.16z"/><path d="m220.23 265.31 12.05 66-11 8.4 8.58 6.61q-6.24 16.68-12.5 33.34 9.43-17.52 18.88-35.05l-5.55-5.2 9-7.58z"/><path d="m108.09 323.51 5.23 79.93-5.23 62.09 7.91.19 2.88-59.4 14.05-.36-14.05-7.92z"/><path d="m112.5 362q-2.28 13-4.57 26l-19.78.66 19.94 9.64q2.13 10.62 4.25 21.24 2.35-13.38 4.72-26.76z"/><path d="m249.66 314.94.15 94 7.68 8.59z"/><path d="m273.79 355.48a92.13 92.13 0 0 0 0 52.29 39.84 39.84 0 0 1 -7.52-14.06c-5.53-18.89 5.58-35.44 7.52-38.23z"/></g><path d="m139.79 175.61 2.94-22.38s14.79-4.58 17.61-17.49 4.78-22.39 15.57-20.59c0 0 8.49-6.86 13.89 1.64s3.92 36.76 29.41 35.62l5.23 22 10.06 1.25 3-15.52s8.26-3 7.28-16-10.46-10-18.47-27.94-33-29.9-50.9-20.1c0 0-27.21-2.69-40.45 14.22s-22.8 39.71-13 42.89l4.41 22.47z" fill="#2d1929"/><path d="m238.76 189.26c-3.38 8.35-11.68 12.86-18.54 10.09s-9.71-11.79-6.34-20.13 11.68-12.86 18.55-10.09 9.7 11.79 6.33 20.13z" fill="#e39c76"/><path d="m226.71 193.52a.5.5 0 0 1 -.32-.88c.71-.6 2.53-2.44 2.46-3.81-.09-1.6-2.5-2.15-2.53-2.15a.51.51 0 0 1 -.39-.51c.21-5.59 3.18-13.3 8.66-12.21a.5.5 0 0 1 .4.59.51.51 0 0 1 -.59.39c-4.65-.93-7.16 6.16-7.45 10.87.87.28 2.79 1.11 2.89 3 .12 2.1-2.5 4.38-2.8 4.63a.51.51 0 0 1 -.33.08z" fill="#2d1929"/><path d="m143.74 199.35c-6.86 2.77-15.16-1.74-18.53-10.09s-.54-17.35 6.33-20.13 15.16 1.74 18.54 10.09.53 17.35-6.34 20.13z" fill="#e39c76"/><path d="m137.25 193.52a.51.51 0 0 1 -.33-.11c-.3-.25-2.92-2.53-2.8-4.64.1-1.85 2-2.68 2.89-3-.28-4.71-2.79-11.8-7.45-10.87a.5.5 0 0 1 -.58-.39.49.49 0 0 1 .39-.59c5.49-1.09 8.45 6.63 8.66 12.21a.51.51 0 0 1 -.39.51s-2.44.56-2.52 2.15c-.08 1.37 1.74 3.21 2.45 3.81a.5.5 0 0 1 -.32.92z" fill="#2d1929"/><path d="m169.64 181.61a.5.5 0 0 1 -.48-.34 7.13 7.13 0 0 0 -13.54 0 .5.5 0 0 1 -.63.31.51.51 0 0 1 -.31-.64 8.13 8.13 0 0 1 15.43 0 .5.5 0 0 1 -.47.67z" fill="#2d1929"/><path d="m172.84 211.75 21.21 2.45c-1.68 5.92-7.61 9.37-13 8.09a11.07 11.07 0 0 1 -8.21-10.54z" fill="#eaeaea"/></svg>