<svg xmlns="http://www.w3.org/2000/svg" width="512" height="512" viewBox="0 0 512 512"><defs><style>.cls-1,.cls-7{fill:#383333}.cls-2{fill:#ffdb99}.cls-13,.cls-14,.cls-3,.cls-6{fill:none;stroke-linecap:round;stroke-linejoin:round}.cls-13,.cls-3,.cls-6{stroke:#383333}.cls-3{stroke-width:.75px}.cls-4{fill:#ffb833}.cls-5{fill:#ffc871}.cls-6,.cls-7{fill-rule:evenodd}.cls-8{fill:#fff3e3}.cls-9{fill:#ff8d93}.cls-10{fill:#aaeeea}.cls-11{fill:#00ccc1}.cls-12{fill:#efe5d8}.cls-14{stroke:#fff}</style></defs><g id="Dangerous"><circle cx="250.92" cy="186.26" r="25.79" class="cls-1"/><path d="M46.12,265.42a20.82,20.82,0,0,1-5.85-13.2c-.72-8.64-13.07-27.17-11.05-30.65s13.55,13.29,13.55,13.29-4.57-23.17-.34-23.07,8.71,20.55,8.71,20.55,3-19.72,6.88-20.34,1.43,20.93,1.43,20.93,4.36-7.33,11.81-6.47,7.51,8.45,6.12,9.6-4.23-3.35-7.38-2.21-5.38,6.9-2.5,8.42,6.29-.4,7.31-2.68,3.21-6.82,5.66-4.28S79,248.62,76.76,250.85s.59,17.11.59,17.11S46.72,278.38,46.12,265.42Z" class="cls-2"/><path d="M46.08,240.91a28.77,28.77,0,0,1,14.27-2" class="cls-3"/><path d="M70.07,242.8a13.16,13.16,0,0,0-8.38,5.5" class="cls-3"/><path d="M337.26,118.7V95.28a2,2,0,0,1,1.32-2,2,2,0,0,1,2.65,1.89v23.57a2,2,0,0,1-2.65,1.88A2,2,0,0,1,337.26,118.7Z" class="cls-4"/><path d="M327.46,109a2,2,0,0,1-1.88-2.65,2,2,0,0,1,2-1.33H351a2,2,0,0,1,2,1.33A2,2,0,0,1,351,109Z" class="cls-4"/><path d="M118.43,212.18a1.52,1.52,0,0,1-1.52-1.51v-18a1.52,1.52,0,0,1,3,0v18A1.52,1.52,0,0,1,118.43,212.18Z" class="cls-4"/><path d="M109.44,203.2a1.52,1.52,0,0,1,0-3h18a1.52,1.52,0,0,1,0,3Z" class="cls-4"/><path d="M314.56,237.27a1.52,1.52,0,0,1-1.52-1.51v-18a1.52,1.52,0,0,1,3,0v18A1.52,1.52,0,0,1,314.56,237.27Z" class="cls-4"/><path d="M305.57,228.29a1.52,1.52,0,1,1,0-3h18a1.52,1.52,0,0,1,0,3Z" class="cls-4"/><path d="M134.5,128.8c-.81-.79-5.25-5-11.6-4.5-.93.07-4.62.34-7.12,2.67-6.46,6.05-4,25.14,7.18,30,6.24,2.74,12.87,0,15.11-1Z" class="cls-5"/><path d="M266.44,128.8c.81-.79,5.24-5,11.6-4.5.92.07,4.62.34,7.11,2.67,6.47,6.05,4,25.14-7.17,30-6.24,2.74-12.87,0-15.11-1Z" class="cls-5"/><path d="M118.43,135.49,129.2,135s-11,6.82-1.78,15.68" class="cls-3"/><path d="M282.12,135.49,271.35,135s11,6.82,1.79,15.68" class="cls-3"/><circle cx="200.95" cy="117.53" r="75.78" class="cls-2"/><path d="M125.17,124.77C131,162.79,153,193,182.84,202a65.37,65.37,0,0,0,35.8.54c29.48-8.17,51.55-38.11,56.95-76.3C271.69,84.4,235.5,53.51,196,55.7,160,57.7,129.27,86.84,125.17,124.77Z" class="cls-2"/><path d="M280.13,452.87c4.53-2.71,8.07-5.14,10.54-6.91-14.71-35.23-17.45-63.79-17.39-82.86C273.45,306.58,298.36,262,276,239a35.07,35.07,0,0,0-12.85-8.26h0a128.86,128.86,0,0,0-25.63-8.94c-5.08-1.91-9.22-4-11.5-6.74-7.23-8.81-4-32.08-4-32.08s-27.24-10.07-37.74,3.89c.23,8.82-1,20.8-8.56,30.65a31.36,31.36,0,0,1-8.27,7.58l-.09,0c-5.43,1.12-11.29,2.56-17.46,4.46-5.8,1.78-8.8,2.63-12.19,4.21a60.44,60.44,0,0,0-16.89,12.78c-9.31,10.11-11.2,51.82,6.47,103.67A135.4,135.4,0,0,1,131,394.41a136.2,136.2,0,0,1-17.35,56,158.29,158.29,0,0,0,83.5,25.2,156.39,156.39,0,0,0,62.2-12.25,67.73,67.73,0,0,0,20.79-10.18S280.16,453.06,280.13,452.87Z" class="cls-2"/><path d="M155.42,114.39a25,25,0,0,1,14.39-4.71c3.51-.09,8.25-.2,9.71,2.54a3.86,3.86,0,0,1-.1,3.87c-1.64,2.2-5.77.21-12.44.15-8.78-.08-14.49,3.25-15.07,2C151.49,117.32,154.31,115.21,155.42,114.39Z" class="cls-1"/><path d="M245.25,115a25.13,25.13,0,0,0-14.49-4.43c-3.51,0-8.25,0-9.65,2.74a3.82,3.82,0,0,0,.17,3.86c1.68,2.17,5.77.1,12.44-.09,8.78-.25,14.56,3,15.11,1.69C249.23,117.84,246.37,115.79,245.25,115Z" class="cls-1"/><path d="M200.84,128.13s-6.13,14.2-5,16.92S208,146.83,208,146.83" class="cls-6"/><path d="M175.12,137a6.5,6.5,0,1,1,.57-9.16A6.52,6.52,0,0,1,175.12,137Z" class="cls-7"/><path d="M160.05,127.8c.14-.12,1.41,2.09,3,1.93,1.2-.12,1.51-1.44,3.05-2.61a7.76,7.76,0,0,1,4.58-1.46,16.33,16.33,0,0,1-2.62,3.78c-1.48,1.62-2.44,2.66-3.74,2.67C161.74,132.15,159.85,128,160.05,127.8Z" class="cls-7"/><path d="M235,136.45a6.5,6.5,0,1,1-.57-9.17A6.52,6.52,0,0,1,235,136.45Z" class="cls-7"/><path d="M240.94,127.8c-.14-.12-1.41,2.09-3.05,1.93-1.21-.12-1.52-1.44-3-2.61a7.79,7.79,0,0,0-4.59-1.46,16.65,16.65,0,0,0,2.62,3.78c1.49,1.62,2.45,2.66,3.74,2.67C239.25,132.15,241.13,128,240.94,127.8Z" class="cls-7"/><path d="M149.94,229.48c-6.95,0-18.53,1.17-28.43,8.83-9,6.93-13.08,16.5-17.62,35.49-11.48,48-10.85,93.89-10.66,93.9h0L90.31,373c7.13,3,12.88,3.23,17.51,2.17C135.66,368.76,151.13,309.92,149.94,229.48Z" class="cls-8"/><path d="M244.64,224c23,3.82,34.85,13,41.43,20.46,13.14,15,11.56,30.64,21.55,61.43a250.58,250.58,0,0,0,20.14,45.82,21.38,21.38,0,0,1-26.93,30.71,118.27,118.27,0,0,1-19.39-15.61C234,319.41,241.77,244.84,244.64,224Z" class="cls-8"/><path d="M399.76,297.68c-10.08,15.55-63.79,97.06-93.14,86.72-6.27-2.21-16.08-10.24-17.46-20.59-.4-3-.86-10.71,12.25-26.05,12.83-15,24.3-21.47,38.82-32.05A331.57,331.57,0,0,0,374.45,277a66.53,66.53,0,0,1,25.31,20.73Z" class="cls-8"/><path d="M46.08,266.09c1.63,14.53,12.2,103.24,45.09,109.68,1.2.23,15.31,2.81,21.92-4.79,5.85-6.73,2.84-18-.2-28.79-5.48-19.46-13.06-27.84-21.8-45.37a197,197,0,0,1-14.35-38.57A175.67,175.67,0,0,1,58,263.74C53.85,264.71,49.87,265.48,46.08,266.09Z" class="cls-8"/><path d="M175.89,210.61s28.69,3.28,50.34-2.76c0,0,2.69,8.72,15.44,11.91s39.1,7.72,41.45,33.9-22.49,120.5,13.76,197c0,0-108.74,70.75-190.64-3.9,0,0,16.76-20,18.93-58.32s-6.17-143.76,0-150.86,31.71-11.2,41.15-15.66S175.89,210.61,175.89,210.61Z" class="cls-9"/><path d="M166.32,221.94S171,253,182.84,283.24s-2.77,197-2.77,197a114,114,0,0,1-31.94-4.16,115.82,115.82,0,0,1-45.32-24.7,185.84,185.84,0,0,0,14.6-39.27c9.67-39.14,5.57-78.45,2.75-103.68-3.45-30.85-10-60.92,4.74-72.11a34.9,34.9,0,0,1,3.56-2.27A88.29,88.29,0,0,1,166.32,221.94Z" class="cls-8"/><path d="M241.67,219.76s-34.3,54.86-36.59,82.83,9.29,177.63,9.29,177.63,53.87,2.89,88.11-31.85c-19.92-42.69-23.87-76.19-23.67-99.18.31-34.32,1.51-47.32,1.51-47.32,3-32.17,8.9-51.86-2.53-65.12-4.88-5.66-12.9-10.13-13.41-10.4A54.81,54.81,0,0,0,241.67,219.76Z" class="cls-8"/><path d="M462.56,448H359.69c-17.44,0-25.34-23.44-17.28-45.15l27.7-74.7c3.23-8.69,11.22-14.52,19.45-14.52h43.13c8.22,0,16.22,5.83,19.45,14.52l27.7,74.7C487.9,424.59,480,448,462.56,448Z" class="cls-10"/><rect width="42.93" height="113.22" x="389.66" y="237.14" class="cls-10"/><rect width="53.66" height="15.63" x="384.3" y="230.14" class="cls-10" rx="4.75"/><path d="M472,405.8l-27.71-74.7a14.7,14.7,0,0,0-5.52-7.06c-10.27-2.49-18,1.32-23.78,9.22-7.78,10.57-15.55,9.95-27.68,0a18.83,18.83,0,0,0-8.4-4.12,15.07,15.07,0,0,0-.89,2l-27.71,74.7c-4.57,12.33-2.64,23.58,1.3,29.25,2.15,3.09,4.8,4.59,8.11,4.59H462.56c3.31,0,6-1.5,8.11-4.59C474.61,429.38,476.54,418.13,472,405.8Z" class="cls-11"/><path d="M374.45,277s13-15.56,18-17.58,13.25-4.69,14.6-3.18-4.2,7.72-9.07,11.91-8,19-8,19S377.75,282.77,374.45,277Z" class="cls-2"/><path d="M432.33,287.71s-.27-5.34-2.11-6.62-7.92-3.69-7.73-7.89,7.6-.93,7.6-.93-8.59-5.2-7.22-7.84,6.84-1.27,6.84-1.27-6.67-3.55-6.31-6.9,6.9-.28,6.9-.28-6.44-3.44-5.3-5.83,9.2-1.24,12.69,2.69-.6,6.44-.6,6.44,2.86,3.58-.63,5.7a7.3,7.3,0,0,1,1.13,3.37,8,8,0,0,1-2.17,5.86c2.33,4.28,2.32,8.86,0,11.52A6.89,6.89,0,0,1,432.33,287.71Z" class="cls-2"/><path d="M435.25,274.67a16.87,16.87,0,0,0-6.53-3.06" class="cls-3"/><path d="M436.46,265s-6.43-1.75-6.75-1.82" class="cls-3"/><path d="M437.09,259.28s-5.4-2.88-7.39-3.56" class="cls-3"/><path d="M394.44,411.49s1-4.53-1.51-7.8-12.07-15.61-2.89-27.44,22.78-14.85,37.13-11.08,19.63,30.71,10.57,35.25-10.32,6.79-10.57,8.81.25,4.4-1.39,5.41-6.54.25-6.8-.88-.5-6-2.51-5.92-3.4,2.64-3,5.16-4,3-5.42,2.77-.37-6.67-2.64-7-2.64,4-3.27,5.79S394.45,415.83,394.44,411.49Z" class="cls-8"/><path d="M402,381.45c-3.36-.12-7.4,4.55-6.46,8.22.64,2.49,3.34,3.66,4.2,4,2.5,1.08,6.45,1.41,8-.5C410.07,390.19,406.41,381.61,402,381.45Z" class="cls-11"/><path d="M420.29,380.25c3.36-.12,7.4,4.55,6.46,8.22-.64,2.49-3.35,3.66-4.2,4-2.5,1.08-6.45,1.4-8-.5C412.18,389,415.84,380.41,420.29,380.25Z" class="cls-11"/><path d="M409.72,397.88s-3,2.37-1.61,3.22,1.92-.84,4,.19S412.77,395.94,409.72,397.88Z" class="cls-11"/><circle cx="407.05" cy="201.68" r="9.97" class="cls-10"/><circle cx="440.92" cy="181.64" r="6.97" class="cls-10"/><circle cx="423.72" cy="151.94" r="12.41" class="cls-10"/><circle cx="402.16" cy="314.92" r="6.8" class="cls-11"/><circle cx="413.73" cy="274.02" r="7.17" class="cls-11"/><path d="M145.27,142.84a107.32,107.32,0,0,1-1.43,18.53c-.51,3.07-1.13,6-1.81,8.66.11.17.27.41.47.69,4.46,6.48,19,27.6,45.39,33.44,24.76,5.48,44.64-5.86,47.08-7.3a65.39,65.39,0,0,0,24.45-26,71.37,71.37,0,0,1-7.08-11.55,72.33,72.33,0,0,1-6.05-18.12c-9.58,1.43-19.76,2.59-30.5,3.3A378.82,378.82,0,0,1,145.27,142.84Z" class="cls-8"/><ellipse cx="158.92" cy="158.46" class="cls-12" rx="9.74" ry="6.06" transform="matrix(1, -0.02, 0.02, 1, -3.52, 3.61)"/><ellipse cx="238.79" cy="157.81" class="cls-12" rx="9.74" ry="6.06" transform="translate(-3.49 5.41) rotate(-1.29)"/><path d="M198.63,50.94s-22.57,2-27.9,19.13S155.3,107.68,142,108s-6.06,20-9.52,27-9.66-10-10.6-10.39-4.08,1-4.08,1S103,102,118.43,87.86s8.2-20.47,30.78-44.64,49.42-5,49.42-5,31-12.09,49.88,0,21.11,34.57,33.61,45.65,0,41.31,0,41.31-4.46-.07-5.68,3.74-1.45,8.39-4.09,7.78-6.67-14-3.4-27-33.09-15.24-38.7-32.11S220,52.28,198.63,50.94Z" class="cls-1"/><path d="M121.91,124.61s2.93-3.86,7.29-1.84,9.83,19.93,24.85,21l-6.6,6.87s-10.24-3.37-13.76-13.12-9.5-8.78-9.5-8.78S121.5,127.38,121.91,124.61Z" class="cls-8"/><path d="M133,157.74s7.32,10.89,11,15.69l2.22-4.51-11.35-11.69Z" class="cls-8"/><path d="M236.67,142.84s12.47-.5,21.87-9.5,16.35-10.93,22-8a9,9,0,0,0-1.84.91,5.29,5.29,0,0,0-2,2,4.12,4.12,0,0,0-.29.68,10.24,10.24,0,0,0-5.17,1.08,9.86,9.86,0,0,0-2.74,2.18c-3.44,3.88-16.53,14.53-26.26,13.61Z" class="cls-8"/><path d="M253.22,168.67s9-5.61,13.51-11.24a28.17,28.17,0,0,0,4.62.76s-14,18.52-18.13,22.43C253.22,180.62,248.06,174,253.22,168.67Z" class="cls-8"/><path d="M156,224.77s-2.57,38.55-2.32,55.16l14.85,2-7.44,8.55,24.05,21.65" class="cls-13"/><path d="M206,312.15l22.15-24.67-6-10.53,15.6,3.23s12.17-39.7,11-59.49" class="cls-13"/><path d="M123.45,274.81s-6.71,22.57-1.68,42.5,3.4,45.27,3.4,45.27" class="cls-13"/><path d="M280.19,274.48c5.29,16.65,4.13,28.64,2,36.58-1.74,6.53-3.16,6.75-4.7,14.1,0,0-1.66,7.9-.34,32.56h0" class="cls-13"/><path d="M97.38,308.51s15.5,25.87,13.48,42.57" class="cls-13"/><path d="M298.91,357.72S301,335,314.56,324.62" class="cls-13"/><path d="M200.38,47.92s19.73-4.36,26.45,3.36S240,87,262.87,87.86" class="cls-14"/><path d="M246.29,69.74s6.82,15.44,25.06,12.08" class="cls-14"/><path d="M191.42,47.92s-15.61,1.34-22,9.4-12.68,48.25-35.07,45" class="cls-14"/><path d="M154.05,82.3s-21.84,19.83-35.62,12.11" class="cls-14"/><path d="M265.43,181.51s6.1,23.31-18.63,23.25" class="cls-14"/><path d="M235.6,198.79s11.7,4.48,19.92-5.48" class="cls-14"/></g></svg>