<svg height="512" viewBox="0 0 512 512" width="512" xmlns="http://www.w3.org/2000/svg" xmlns:xlink="http://www.w3.org/1999/xlink"><clipPath id="clip-path"><path d="m387.61 398.3h-286.87a544.59 544.59 0 0 1 0-259.53h286.87c-28.32 86.81-26.61 176.66 0 259.53z"/></clipPath><clipPath id="clip-path-2"><path d="m108.99 459.49-28.26-197.95h85.46l4.03 28.34h209.55l23.84 169.61z"/></clipPath><g id="Download"><path d="m423.3 480.84h-304.17a5.8 5.8 0 0 1 -5.79-6.26l21-268.27a5.8 5.8 0 0 1 5.79-5.36h310.73a5.81 5.81 0 0 1 5.78 6.4l-27.57 268.28a5.79 5.79 0 0 1 -5.77 5.21z" fill="#1573d8"/><g clip-path="url(#clip-path)"><path d="m387.61 398.3h-286.87a544.59 544.59 0 0 1 0-259.53h286.87c-28.32 86.81-26.61 176.66 0 259.53z" fill="#86ebf9"/><path d="m79.26 221.93h123.81a5.71 5.71 0 0 1 5.69 6.2l-2.3 26.55a5.7 5.7 0 0 0 5.69 6.2h158.73a5.7 5.7 0 0 1 5.67 5l8.51 71.55a5.72 5.72 0 0 1 -5.53 6.38l-312 7.82a5.71 5.71 0 0 1 -5.82-6.28l11.87-118.28a5.71 5.71 0 0 1 5.68-5.14z" fill="#40c2d6"/></g><path d="m421.49 480.84h-326a5.81 5.81 0 0 1 -5.75-5l-28.63-200.68a5.8 5.8 0 0 1 5.75-6.62h326.42a5.81 5.81 0 0 1 5.75 5l28.21 200.69a5.81 5.81 0 0 1 -5.75 6.61z" fill="#efbd42"/><path d="m185 289.29h-116.84a5.8 5.8 0 0 1 -5.74-5l-5.36-37.48a5.82 5.82 0 0 1 5.75-6.63h116.87a5.81 5.81 0 0 1 5.75 5l5.32 37.49a5.81 5.81 0 0 1 -5.75 6.62z" fill="#efbd42"/><g clip-path="url(#clip-path-2)"><path d="m344.87 257.6-243.81 236.16 33.71 12.36 240.43-226.96 12.41 10.13-207.15 195.85 10.35 8.24 219.6-204.09-22.8-44.58z" fill="#efefef"/></g><g fill="#e73f46"><path d="m191.47 30.84h87.55v152.48h-87.55z"/><path d="m300.49 158.06-65.24 78.33-65.25-78.33z"/></g></g></svg>