<?xml version="1.0" encoding="UTF-8"?>
<svg xmlns="http://www.w3.org/2000/svg" id="Graph" viewBox="0 0 512 512" width="512" height="512"><defs><style>.cls-1,.cls-11{fill:#383333;}.cls-2{fill:#ff8d93;}.cls-3{fill:#d89071;}.cls-4{fill:#d17352;}.cls-5,.cls-6,.cls-7,.cls-8{fill:none;stroke-linecap:round;stroke-linejoin:round;}.cls-5,.cls-6,.cls-7{stroke:#383333;}.cls-5{stroke-width:0.75px;}.cls-11,.cls-6,.cls-8{fill-rule:evenodd;}.cls-8{stroke:#fff;}.cls-9{fill:#ffb833;}.cls-10{fill:#00ccc1;}.cls-12{fill:#fff;}</style></defs><path class="cls-1" d="M97.83,160.91S78.19,183.05,89.12,208,43.27,261,81.8,290.16s188.77,36,209.39,1.92,1.66-47.7-16.7-69,49.23-139.25-51.42-173.4S75.63,70.21,97.83,160.91Z"/><path class="cls-2" d="M224.42,247.76c34.7-2.59,50,8.76,56,14.48s13.5,17.23,28.35,40.07c3.7,5.69,6.48,10.1,7.7,12.08,8.73,14.08,19.57,32.32,31.46,54.27L322,391.9c-3.58-1.67-7.21-3.54-10.86-5.63-26.31-15.06-43.67-35.87-54.89-53.55Z"/><path class="cls-2" d="M120,251.61C85.89,258.37,74.2,273.37,70,280.47s-8.42,20.21-16.65,46.18c-2,6.47-3.55,11.46-4.21,13.69-4.66,15.9-10.25,36.37-15.86,60.69l31.1,15.51c3-2.56,6-5.32,9-8.32C94.65,386.71,105.84,362,112,342Q116,296.8,120,251.61Z"/><path class="cls-2" d="M157.7,342.84c-5.66,9.45-63.62,104.7-102.57,93.07C44.6,432.77,32.8,421,32.28,408.81c-.55-13,11.73-22.8,30-37C77.4,360.09,100.38,342,130,317.88a52.29,52.29,0,0,0,6.63,9.88A54.42,54.42,0,0,0,157.7,342.84Z"/><path class="cls-3" d="M200.46,203.92s.54,19.7,5.82,29.33,30.26,9.38,50,23.73-1.52,61.79,5.67,198.49c0,0-107.39,22-164.1,5.45,0,0,9.29-81.86,3.32-138.59s3.39-64.73,15.13-70.12,39.94-13.64,42.42-19.88,4.1-27.16,4.1-27.16Z"/><path class="cls-4" d="M116.22,140c-.82-.75-5.26-4.69-11.44-4.06-.9.09-4.49.46-6.86,2.81-6.13,6.08-3.17,24.61,7.85,29.08,6.16,2.49,12.55-.34,14.7-1.41Q118.34,153.23,116.22,140Z"/><path class="cls-5" d="M100.74,147l10.49-.79s-10.49,7-1.29,15.34"/><path class="cls-4" d="M246.19,136.24c.77-.8,5-5,11.18-4.72.9,0,4.51.2,7,2.4,6.47,5.71,4.6,24.39-6.14,29.49-6,2.85-12.54.4-14.75-.55Z"/><path class="cls-5" d="M262,142.3l-10.51-.17s10.88,6.34,2.19,15.23"/><circle class="cls-3" cx="181.61" cy="130.55" r="74.16"/><path class="cls-3" d="M255.58,125.15c0,8.68-1,52.24-33.44,78.32-6,4.8-18.13,14.31-35.64,15.55-32.31,2.31-54.78-25.5-59.27-31.05-15.65-19.36-18.71-40.52-19.44-50.42C107.79,137.55,187.56,77.8,255.58,125.15Z"/><path class="cls-1" d="M132.66,132.85A23.64,23.64,0,0,1,146.07,128c3.29-.19,7.75-.44,9.21,2.1a3.59,3.59,0,0,1,0,3.64c-1.48,2.12-5.42.38-11.71.53-8.27.2-13.54,3.51-14.13,2.35C129.05,135.73,131.64,133.66,132.66,132.85Z"/><path class="cls-1" d="M228,132.05a23.57,23.57,0,0,0-13.76-3.79c-3.3.08-7.76.18-9,2.83a3.59,3.59,0,0,0,.26,3.63c1.64,2,5.44-.06,11.71-.41,8.26-.47,13.79,2.41,14.27,1.2C231.85,134.63,229.1,132.78,228,132.05Z"/><path class="cls-6" d="M185.68,143.54s5.34,13.56,4.19,16.08-11.54,1.31-11.54,1.31"/><ellipse class="cls-4" cx="137.15" cy="168" rx="9.17" ry="5.71" transform="translate(-2.68 2.23) rotate(-0.92)"/><ellipse class="cls-4" cx="223.07" cy="166.62" rx="9.17" ry="5.71" transform="translate(-2.65 3.61) rotate(-0.92)"/><path class="cls-2" d="M141.74,242.27c4.66,13.1,12.33,18.29,15.42,20.08,16.83,9.71,43.94,2.53,63.62-20.61,8.25,1,33.7,5.15,46.94,25.49,7.93,12.18,8.18,25.11,8.32,43.39a211.69,211.69,0,0,1-6.24,52.54c-5.39,22.41-8.29,56.87,4.69,107.93a302.19,302.19,0,0,1-57.35,10.36A320.41,320.41,0,0,1,81.8,463.23S97,413.11,95,377s-3.11-106.83,2.37-115.47S141.74,242.27,141.74,242.27Z"/><path class="cls-2" d="M156.53,229.11a5.24,5.24,0,0,1,6.58-1.88c11.26,5.12,19.2,4.73,24.72,2.94,8.06-2.6,12.83-8.8,17.52-6.64,4.35,2,1.83,8.3,8.09,13.44,4.73,3.87,12.79,6.09,12.79,6.09L204,265.7l-58.37,6-14.5-26.23s14.34-4.78,19.66-9.57A34.91,34.91,0,0,0,156.53,229.11Z"/><path class="cls-5" d="M178.29,193.37s7,2.07,12.54-.42"/><path class="cls-5" d="M161.85,215s20,7.93,39.64.75"/><path class="cls-1" d="M176.07,75.87s-26,57.48-78.15,62.91c0,0-14.56-96.9,78.15-86.15,0,0,41.07-13.87,67.42,6.25s20.89,75,20.89,75S190.19,130.33,176.07,75.87Z"/><path class="cls-7" d="M268.12,294.49s14.23,19.72,3.79,59.28"/><path class="cls-7" d="M99.66,299.52S91.83,324,97.83,343.83"/><path class="cls-8" d="M162.1,71.28s-24.81,41.63-56.11,52"/><path class="cls-8" d="M139.46,71.28s-15.17,30-34.94,35.62"/><path class="cls-8" d="M184.18,71.28S225,124,262,121.23"/><path class="cls-8" d="M206.84,76.83s41.38,28.79,61.28,24.63"/><path class="cls-8" d="M111.23,183.67s-9.66,13.35-2.37,27.4,4.68,25.26-3.82,30.67"/><path class="cls-8" d="M132.44,209.85s9,13,2.43,23.24"/><path class="cls-8" d="M251.53,180s-10.72,24.56,0,40.64,26,19.29,24.21,31"/><path class="cls-3" d="M356,255.49a115.12,115.12,0,0,0,5.77-25c1.19-12.54,1.24-15.91,3.55-15.38s7.33,7.7,5.21,18c0,0,10.16-7.18,15.6-15.35s10.15-31.48,12.66-33.57,5,2.58,5.89,8-3.8,47.17-9.14,58a194.22,194.22,0,0,0-9.28,23.31,59.23,59.23,0,0,1-9.26,0,60.91,60.91,0,0,1-25.42-7.87Q353.8,260.58,356,255.49Z"/><path class="cls-2" d="M389.4,265.46c-2,17.74-14.82,123.1-51.64,128.43-7.23,1.05-19-1.23-24.62-9-7.6-10.54-.57-26.93,7.75-47,7.3-17.64,18.31-44.71,32.06-80.35a52.77,52.77,0,0,0,10.65,5.29A54.42,54.42,0,0,0,389.4,265.46Z"/><path class="cls-7" d="M317.49,373.33s-6.77-28.51,7.37-45.09"/><path class="cls-7" d="M42.09,394.56S58.59,371.07,103,342"/><path class="cls-7" d="M127.17,368s-19.23,46.8-36.27,56.66"/><rect class="cls-9" x="259.63" y="30.34" width="3.39" height="18.15" rx="1.63" transform="translate(48.67 196.33) rotate(-45)"/><rect class="cls-9" x="259.63" y="30.34" width="3.39" height="18.15" rx="1.63" transform="translate(418.23 252.07) rotate(-135)"/><rect class="cls-9" x="322.71" y="141.87" width="4.3" height="23.04" rx="1.73" transform="translate(-13.31 274.63) rotate(-45)"/><rect class="cls-9" x="322.71" y="141.87" width="4.3" height="23.04" rx="1.73" transform="translate(446.1 491.55) rotate(-135)"/><rect class="cls-9" x="39.93" y="129.1" width="4.3" height="23.04" rx="1.73" transform="translate(-87.11 70.95) rotate(-45)"/><rect class="cls-9" x="39.93" y="129.1" width="4.3" height="23.04" rx="1.73" transform="translate(-27.59 269.81) rotate(-135)"/><path class="cls-10" d="M131.14,290.34,277.87,187.26l33.29,40.11L435,142.52l-16.65-15.83,61.4-13.51q-5.46,31-10.93,62L449.56,158.6,309.08,282.35l-39.54-52L158.2,328.13Z"/><path class="cls-3" d="M112.34,336.06a114.93,114.93,0,0,0,18.88-17.4c8.05-9.68,10-12.43,11.6-10.69s1.71,10.49-5.86,17.82c0,0,12.43-.2,21.54-3.88s26.14-20.27,29.39-20.57,2.67,4.94.38,9.88S158.52,348,148,354a193.87,193.87,0,0,0-20.81,14,57.68,57.68,0,0,1-7.67-5.19A60.89,60.89,0,0,1,103,342Z"/><path class="cls-3" d="M389.11,211.85s4.34-23.68,8.85-26.28,7.64,5.47,6.36,17.37-7.46,17.72-7.46,17.72Z"/><path class="cls-11" d="M215.55,154.75a6.62,6.62,0,1,1-.58-9.33A6.63,6.63,0,0,1,215.55,154.75Z"/><path class="cls-11" d="M221.56,146c-.15-.13-1.44,2.12-3.11,2-1.23-.12-1.54-1.47-3.11-2.65a7.91,7.91,0,0,0-4.67-1.5,16.87,16.87,0,0,0,2.67,3.86c1.52,1.64,2.49,2.7,3.81,2.72C219.83,150.38,221.76,146.11,221.56,146Z"/><path class="cls-11" d="M155.42,155a6.62,6.62,0,1,1,0-9.35A6.64,6.64,0,0,1,155.42,155Z"/><path class="cls-11" d="M139.47,146.68c.14-.13,1.58,2,3.24,1.76,1.21-.2,1.44-1.57,2.92-2.86a8,8,0,0,1,4.56-1.8,16.92,16.92,0,0,1-2.41,4c-1.4,1.74-2.3,2.86-3.62,3C141.49,151,139.29,146.86,139.47,146.68Z"/><ellipse class="cls-12" cx="184.56" cy="180.87" rx="7.38" ry="9.7"/></svg>
