<svg xmlns="http://www.w3.org/2000/svg" width="512" height="512" viewBox="0 0 512 512"><defs><style>.cls-1{fill:#ffdb99}.cls-2{fill:#fff3e3}.cls-10,.cls-11,.cls-12,.cls-3,.cls-7,.cls-9{fill:none;stroke-linecap:round;stroke-linejoin:round}.cls-10,.cls-3,.cls-7,.cls-9{stroke:#383333}.cls-3{stroke-width:.75px}.cls-4{fill:#ffb833}.cls-5{fill:#ffc871}.cls-6{fill:#383333}.cls-10,.cls-6{fill-rule:evenodd}.cls-8{fill:#ff535c}.cls-10,.cls-9{stroke-width:3px}.cls-11{stroke:#ff535c;stroke-width:4px}.cls-12{stroke:#00ccc1;stroke-width:15px}</style></defs><g id="DNA"><path d="M149.3,250.31c6,9.07,12.36,13.58,17,16,0,0,5,2.65,27.59,7.43h0l11.94-23.08c-7.77-2.71-10.25-6.07-11-8.75-2.08-7.3,6.84-15.69,3.18-21.09a2.69,2.69,0,0,0-1.46-1.32c-3.71-1-7.42,11.23-13.79,11.67-1.84.12-4.32-.7-7.43-4.44Z" class="cls-1"/><path d="M194.39,240.05c12.84,6.83,38.82,18.28,70.56,15.92,8.4-.63,19.2-1.43,32.1-6.63,14.05-5.67,19.33-12,34.75-17.78a101.1,101.1,0,0,1,25.2-5.83L336.57,291A169.47,169.47,0,0,1,178,270.56Z" class="cls-2"/><path d="M377.58,191.73s3.2,29.58,21.6,35.24S436,253.85,429.59,349.34s1.29,119.9,1.29,119.9-88.94,23-147.33-6.36c0,0,14-137.59,31.94-178.62s30.63-46.77,18.61-90.58C334.1,193.68,361.65,178.43,377.58,191.73Z" class="cls-1"/><path d="M296.25,288.86s-8.46,21.58-38,168c2.13.85,4.37,1.66,6.73,2.41a103,103,0,0,0,21.3,4.37q21-72.42,42-144.84.63-33.09,1.27-66.19Q312.88,270.73,296.25,288.86Z" class="cls-2"/><circle cx="342.72" cy="140.45" r="74.29" class="cls-1"/><path d="M266.65,102c-6.27,55.64,4.56,102.51,31.58,115,6.79,3.13,13.74,3.7,19.34,4.11,36.66,2.69,64.49-17.09,75.74-26.21C393.31,194.85,355,3,266.65,102Z" class="cls-1"/><path d="M355.41,133.31c.76-.81,4.92-5.09,11.16-4.91.92,0,4.55.13,7.09,2.31,6.59,5.63,5,24.44-5.72,29.73-6,2.95-12.6.59-14.83-.33Q354.25,146.72,355.41,133.31Z" class="cls-1"/><path d="M371.44,139.16H360.87s11,6.2,2.43,15.28" class="cls-3"/><path d="M308.05,126.15a23,23,0,0,0-13.4-3.74c-3.22.07-7.57.16-8.8,2.73a3.54,3.54,0,0,0,.25,3.55c1.59,1.95,5.3,0,11.42-.37,8.06-.43,13.43,2.39,13.91,1.21C311.78,128.68,309.1,126.86,308.05,126.15Z" class="cls-4"/><ellipse cx="306.55" cy="165.28" class="cls-5" rx="8.94" ry="5.57" transform="translate(-9.6 19.19) rotate(-3.53)"/><path d="M294.65,151.67a6.23,6.23,0,1,1-.94-8.76A6.26,6.26,0,0,1,294.65,151.67Z" class="cls-6"/><path d="M265.11,122s1.39,18.57-4.56,25.45-.29,17.44,15.8,13.64C276.35,161.05,282.8,118.27,265.11,122Z" class="cls-1"/><path d="M287.55,193.44a6.23,6.23,0,0,0,6.26-1.71" class="cls-3"/><path d="M279.13,187.76s10.91,5.35,20.28-8.11" class="cls-7"/><path d="M330.32,253.58s21.07,7,47.26-12.47L354,477.81s-55.93-1.49-73.26-14.93c10-99.34,21.48-143.8,30.77-165.53,1.23-2.87,18.86-43.77,18.86-43.77Z" class="cls-8"/><path d="M386,216.28a166.59,166.59,0,0,0-28.57,32.62c-23.6,35.46-24.52,67.34-33.95,125.91-3.69,22.89-9.73,56.39-19.54,97.26a202.91,202.91,0,0,0,46.95,9.32,207.23,207.23,0,0,0,87-12.15c-.87-10.87-2-27.35-2.58-47.44-1.31-44.83,1.57-63.54-.42-108.89,0,0-2.83-64.49-21.75-78.52-7.09-5.25-15.65-10.87-15.65-10.87Z" class="cls-2"/><path d="M249.21,66.16S238.6,83,249.21,95.4s25.19,8.84,44.6-5,54.79,19.7,53.9,35.67-2.82,22.55,2.66,21.65,3.43-19.38,15-19.34,14.2,15.07,9.78,24.36S358.58,163.3,357.22,172s16.49,42.26,29.93,32,36.08-35.8,35.72-67.95c-.13-11.83.63-55.13-31.8-77.22-24.66-16.8-54-11.72-57.41-11.07C310.85,52,289,63.86,289,63.86c-10.27,5.55-20.55,11.67-31.06,9C255.12,72.19,252.66,70.1,249.21,66.16Z" class="cls-4"/><circle cx="290.68" cy="147.45" r="21.22" class="cls-9"/><line x1="311.46" x2="357.21" y1="143.13" y2="133.83" class="cls-9"/><path d="M263.61,141.12s2.05-2.26,5.85.41" class="cls-10"/><path d="M212.26,59V34.08a2.06,2.06,0,0,1,1.21-1.9,2.11,2.11,0,0,1,3,1.92V58.94a2.11,2.11,0,0,1-3,1.91A2,2,0,0,1,212.26,59Z" class="cls-4"/><path d="M201.94,48.61a2.11,2.11,0,0,1-1.92-3,2.07,2.07,0,0,1,1.91-1.21h24.85a2,2,0,0,1,1.91,1.21,2.11,2.11,0,0,1-1.91,3Z" class="cls-4"/><path d="M240.56,220.88V202.19a1.67,1.67,0,0,1,1.36-1.7,1.6,1.6,0,0,1,1.84,1.58V221a1.6,1.6,0,0,1-1.84,1.58A1.69,1.69,0,0,1,240.56,220.88Z" class="cls-4"/><path d="M232.69,213.13a1.59,1.59,0,0,1-1.58-1.83,1.68,1.68,0,0,1,1.7-1.36H251.5a1.69,1.69,0,0,1,1.71,1.36,1.59,1.59,0,0,1-1.58,1.83Z" class="cls-4"/><path d="M447.38,195.63V176.94a1.69,1.69,0,0,1,1.36-1.71,1.6,1.6,0,0,1,1.83,1.58v18.95a1.6,1.6,0,0,1-1.83,1.58A1.69,1.69,0,0,1,447.38,195.63Z" class="cls-4"/><path d="M439.5,187.88a1.6,1.6,0,0,1-1.58-1.83,1.69,1.69,0,0,1,1.71-1.36h18.69a1.67,1.67,0,0,1,1.7,1.36,1.59,1.59,0,0,1-1.58,1.83Z" class="cls-4"/><line x1="63.75" x2="192.85" y1="111.52" y2="111.52" class="cls-11"/><line x1="57.23" x2="201.02" y1="149.16" y2="149.16" class="cls-11"/><line x1="60.18" x2="198.84" y1="190.18" y2="191.81" class="cls-11"/><path d="M72.72,222l112.12-.71" class="cls-11"/><line x1="90.82" x2="153.36" y1="247.75" y2="252.87" class="cls-11"/><line x1="97.39" x2="144.89" y1="296.9" y2="295.57" class="cls-11"/><line x1="68.78" x2="173.02" y1="331.08" y2="325.95" class="cls-11"/><line x1="52.52" x2="194.39" y1="365.02" y2="360.8" class="cls-11"/><line x1="50.44" x2="201.02" y1="398.55" y2="402.42" class="cls-11"/><line x1="53.56" x2="201.02" y1="436.15" y2="440.24" class="cls-11"/><path d="M70.25,90.44C51.21,144.12,56.33,181,64.94,205c24.62,68.77,93.86,78,123.86,148.93,17.85,42.19,12.86,85.1,5.59,115.27" class="cls-12"/><path d="M177.06,78.42c30,52.62,28.43,88.37,22.64,110.35C180.05,263.36,86.89,273,57.92,354c-15,41.81-5.79,83,2.78,108.91" class="cls-12"/><path d="M183.64,385.16s-5.86,3.95,0,8.76c0,0-5.58,4.31,0,9.08,0,0-5.58,3.71,1.25,8.33,0,0-5.29,4.14,1.83,7.22s15.78,4.61,24.05,0,30.79-6.16,30.79-6.16,3.66-28.28-7.12-40c0,0-13.94,6.73-22.84,4s-14.23-10.11-17.57-7.7,4.44,9.82,5.59,12.32S189.42,383.34,183.64,385.16Z" class="cls-1"/><path d="M384.4,249.78c-29,12.52-40.81,42.41-48.53,56.41-12.94,23.45-41.36,51.35-110.18,68.44.38,5.16.9,10.53,1.59,16.09,1,8.09,2.29,15.7,3.72,22.82a339,339,0,0,0,67.91-11.68c19.47-5.43,34.83-9.67,52.52-20.16,13.4-7.94,45.58-27,58.81-64,9.26-25.91,9.88-62.47-5.28-70.23C403.46,246.69,397.61,244.07,384.4,249.78Z" class="cls-2"/><path d="M148.68,246.4s4.21-3,6.29-2.36,7.52,3.8,10.59,1.14-3.83-6.31-3.83-6.31,9.07,3.4,10.25.78-3.12-6-3.12-6,6.67,2.94,9,.67S174,229,174,229s6.45,2.82,7.58.53-4.56-7.71-9.62-8-4.52,4.3-4.52,4.3-4.43,0-3.95,3.89a7,7,0,0,0-3.23,1.16,7.74,7.74,0,0,0-3.14,5.15c-4.64.79-8.11,3.53-8.73,6.9A6.81,6.81,0,0,0,148.68,246.4Z" class="cls-1"/><path d="M156.82,236.39a16.36,16.36,0,0,1,6.23,3.12" class="cls-3"/><path d="M163.44,229.68l5.42,4" class="cls-3"/><path d="M167.39,225.79s5.4,2.38,7.11,3.48" class="cls-3"/><path d="M333.78,309.77A91.92,91.92,0,0,0,350.9,283c6.89-16.45,21-28.74,31.3-30.42" class="cls-7"/><path d="M415.64,295.57s-30.86,75.82-95.55,99.28" class="cls-7"/><path d="M310.58,260.21S295.26,290.86,292.39,302" class="cls-7"/><path d="M300.53,332.05l-1.09-30,9-4.32-.89-16.51s10.44-17.44,15-28.58,10.15-20,14.72-22.92" class="cls-7"/><path d="M354.35,270s24.24-27,37.85-49.85" class="cls-7"/><path d="M258.24,80.1s5,21.33,35.57,4.43" class="cls-7"/><path d="M274.24,78.42s20.42,9.37,45.36-3.89" class="cls-7"/><path d="M324.9,85.57s22.55,1.69,26.79,15.22,21,20.69,36.88,12.73" class="cls-7"/><path d="M356.73,90.44s32.1,32.41,51.73,10.77" class="cls-7"/><path d="M388.57,149.16s0,21.28-19.37,30.49" class="cls-7"/><path d="M404,133.83s8.75,34.51-21.35,55" class="cls-7"/><path d="M338.85,220.18s16.16-3.74,24.38-8.64" class="cls-7"/><path d="M184.89,411.33a49.49,49.49,0,0,0,6.94,1.76" class="cls-3"/><path d="M183.64,403s5.18.16,8.19,0" class="cls-3"/><line x1="183.64" x2="191.83" y1="393.92" y2="393.92" class="cls-3"/></g></svg>