<svg height="512" viewBox="0 0 512 512" width="512" xmlns="http://www.w3.org/2000/svg" xmlns:xlink="http://www.w3.org/1999/xlink"><clipPath id="clip-path"><path d="m156.54 193.31h56.82v104.81h-56.82z" transform="matrix(.97 .26 -.26 .97 69.55 -39.35)"/></clipPath><clipPath id="clip-path-2"><path d="m305.01 210.72h50.01v95.38h-50.01z"/></clipPath><g id="Grandmother"><path d="m320 267.86c-27.08 1-65.45-.25-115.34-10.48-23.4 23.53-14.94 57.2 9 79.33l98.44 13 85.38-37.49a55.43 55.43 0 0 0 -18-31.59c-17.87-15.45-41.81-13.43-59.48-12.77z" fill="#e73f46"/><g clip-path="url(#clip-path)"><path d="m156.54 193.31h56.82v104.81h-56.82z" fill="#f5b493" transform="matrix(.97 .26 -.26 .97 69.55 -39.35)"/><path d="m170.21 208c6 25.34 25.39 43.72 50.65 49.76q3.27-14.35 6.56-28.71z" fill="#eba284"/></g><g clip-path="url(#clip-path-2)"><path d="m305.01 210.72h50.01v95.38h-50.01z" fill="#e39c76"/><path d="m297 254.9a89.89 89.89 0 0 0 67 0v-38.63h-67z" fill="#d48f6e"/></g><path d="m77 483.7c27.1-149.86 15.27-195.06 47.45-218.57 17.11-12.5 38-12.25 50.87-12.1 8.23.1 47.78.86 68.76 26.07 12.09 14.53 12.39 31.08 5.11 100.21-3.22 30.6-7.2 65.63-12.15 104.39z" fill="#e73f46"/><path d="m286.36 151.16c-3.42-11.62-13.95-18.77-23.53-16s-14.56 14.53-11.14 26.16 13.95 18.78 23.53 16 14.56-14.53 11.14-26.16z" fill="#e39c76"/><path d="m401.73 142.69s4.58-59.13-35.73-78.18c-.37-.11-.73-.18-1.1-.28-26.45-13.28-47.45-4.88-49.43-4.69a52.64 52.64 0 0 0 -19.36 9.4c-26.14 20.06-31 60.32-31 60.32a44.22 44.22 0 0 0 -1 6.83c-.73 11.29 3.49 38.12 4.06 47.22 5.8 29.05 24.43 65.84 54.56 67.31 36.58 1.4 55.58-41.61 61.08-54.71 5.92-14.08 11-27.8 11.78-29.88a44.37 44.37 0 0 0 3.07-15c1.07-2.95 2.1-5.78 3.07-8.34z" fill="#e39c76"/><g fill="#2d1929"><path d="m267.34 168.49a.51.51 0 0 1 -.36-.15c-.14-.15-3.54-3.66-3.1-6.44.37-2.46 3.18-3.25 4.26-3.47.29-6.55-2.23-16.52-8.73-15.88a.5.5 0 0 1 -.55-.45.49.49 0 0 1 .45-.54c7.36-.72 10.26 9.92 9.81 17.33a.49.49 0 0 1 -.44.46s-3.47.46-3.82 2.71c-.29 1.89 1.95 4.67 2.84 5.58a.5.5 0 0 1 -.36.85z"/><path d="m325.51 190.65c-5.15-1.86-8-4.25-8.56-7.1-1.19-6.38 9.75-9 10.1-28.71a.52.52 0 0 1 .51-.49.5.5 0 0 1 .49.51c-.36 20-11.18 22.78-10.12 28.5.47 2.49 3.13 4.62 7.92 6.35a.5.5 0 0 1 -.34.94z"/><path d="m307.05 157c-.47 4.78-3.35 8.4-6.44 8.1s-5.22-4.41-4.76-9.19 3.35-8.4 6.44-8.1 5.22 4.45 4.76 9.19z"/><path d="m311.58 209.23a.49.49 0 0 1 0-.7.5.5 0 0 1 .71 0 19.54 19.54 0 0 0 24.11 2.37.5.5 0 0 1 .54.84 20.54 20.54 0 0 1 -25.36-2.51z"/><path d="m314.7 133.24a1 1 0 0 1 -.58-.19c-11.84-8.4-23.52-.43-24-.08a1 1 0 0 1 -1.15-1.64c.13-.09 13.3-9.14 26.32.09a1 1 0 0 1 -.59 1.82z"/><path d="m361.67 162.42c-.47 4.78-3.36 8.4-6.45 8.09s-5.21-4.42-4.74-9.2 3.36-8.4 6.45-8.09 5.22 4.43 4.74 9.2z"/><path d="m372.5 141.3a1 1 0 0 1 -.72-.3c-.41-.44-10.31-10.53-23.57-4.6a1 1 0 0 1 -.82-1.82c14.57-6.52 25.73 4.92 25.84 5a1 1 0 0 1 -.73 1.72z"/></g><path d="m324.43 267.05s-64.4 9.65-81.15 48.23-6.28 168.42-6.28 168.42h183.42s16.05-147.43 0-178.21-64.29-47.09-95.99-38.44z" fill="#917eec"/><path d="m336.65 82.27a75.27 75.27 0 0 0 50.79 64.73c-.26 36-6.7 67.22-32.42 91.89 9.65 6.78 22.9 9.16 32.9 2.94 15.62-9.71 19-27.3 19-27.3s11.47 8.58 26.81-17.34 15.85-55.13-12.78-68.89c0 0-3.94-72.56-64.85-74.1 0 0-56.63-15.85-90.47 26.59s-23.15 84.42-23.15 84.42-1.29 54.64 23.15 73.56 40.25 7 40.25 7a94.68 94.68 0 0 1 -26.21-30c-19.36-35.28-8.82-71.58-6.2-79.81-.02-.06 57.63-14.83 63.18-53.69z" fill="#c6c6c6"/><path d="m268.82 97.05c-.08-.1-8.76-16.46-25.26-26.86-21.84-16-58.06-16.41-82.52 2-28.18 21.13-27.84 57.49-27.76 66.52.4 42.17 29.7 70.47 42.48 80.87a107.65 107.65 0 0 0 23.09 16.88c9.38 5 31.86 12.41 52.62 6.66 25.62-7.1 24.1-88.5 23.31-97.09 3.9-26.18 1.41-40.52-5.96-48.98z" fill="#f5b493"/><path d="m398.1 148.5c-8.84-4.62-20.56.34-26.19 11.08s-3 23.2 5.84 27.82 20.56-.33 26.18-11.07 3.01-23.2-5.83-27.83z" fill="#e39c76"/><path d="m387 179.37c1.05-.72 3.79-3 3.87-4.92.09-2.28-3.19-3.39-3.22-3.4a.5.5 0 0 1 -.34-.54c1-7.36 5.92-17.23 13-15.09a.5.5 0 0 1 -.29 1c-6.26-1.9-10.67 7.39-11.66 13.87 1 .43 3.61 1.75 3.51 4.24-.12 2.8-4.13 5.59-4.3 5.71a.5.5 0 0 1 -.57-.87z" fill="#2d1929"/><path d="m342.17 169.63c-9-5.92-8.54-15 1.12-19.89 14.9-7.56 39.49-.25 38.79 12.15-.69 12.43-25.96 16.89-39.91 7.74zm2-18.11c-8.25 4.18-8.66 11.35-.92 16.44 8.09 5.3 21.73 6.07 30.36 1.7 4-2 6.29-4.82 6.46-7.88.17-3.06-1.8-6.1-5.54-8.56-8.06-5.3-21.7-6.08-30.34-1.7z" fill="#e5e5e5"/><path d="m297.83 169.06q-1.09 0-2.19-.06c-12.78-.72-22.83-7.51-22.4-15.15s11.2-13.24 23.95-12.54 22.82 7.51 22.4 15.15c-.41 7.19-9.97 12.6-21.76 12.6zm-2.83-25.81c-10.72 0-19.37 4.59-19.71 10.72-.37 6.53 8.83 12.37 20.51 13s21.47-4.13 21.84-10.66c.37-6.53-8.84-12.38-20.51-13q-1.13-.06-2.13-.06z" fill="#e5e5e5"/><path d="m274.78 146a45.83 45.83 0 0 0 -1.33 37.62 19.77 19.77 0 0 0 9.56-2.14c3.24-1.58 6-4.19 6.37-8.27.62-6.21-10.92-6.68-14.6-27.21z" fill="#f5b493"/><path d="m259.45 159.4c-3.09.26-5.92-3.4-6.32-8.17s1.78-8.85 4.87-9.11 5.92 3.4 6.32 8.17-1.78 8.86-4.87 9.11z" fill="#2d1929"/><path d="m240.6 126.09a1 1 0 0 1 -.65-1.76c.12-.1 12.32-10.37 26.15-2.48a1 1 0 1 1 -1 1.74c-12.59-7.18-23.4 1.87-23.86 2.26a1 1 0 0 1 -.64.24z" fill="#2d1929"/><path d="m262.44 323.07 1.63 27.93s-24.31 34.79-10.07 58c-.1 24.12.53 49.05 2.05 74.71h107.62s-38.86-4.68-48.4-18.92 52-104.1 52-104.1l-104.27 87.13-.51-40.9s-10.57-30 6.81-50.11z" fill="#6d5fde"/><path d="m136.67 265.81c9.89-1.79 23.75-2.54 34.76 5.11 14.47 10.08 14.76 28.14 21.48 49.08 5.29 16.51 16 39.13 39.87 63.4a326.2 326.2 0 0 0 121.68-69.53l19.43 37.83c-58.89 81.3-128.46 126.77-171.78 109.41-14.84-5.95-25.35-18.76-46-44-24.6-30-46.52-56.72-45-92 .43-10 3.29-33.3 25.56-59.3z" fill="#e73f46"/><path d="m187.64 334 40.36 49.06s-16.36 24.88-12.27 50.78c0 0 9.79-40.7 18-50.75.73-14.95 2.11-27.46 3.37-36.76 3.31-24.38 6.5-31.86 10.23-37.83a63.69 63.69 0 0 1 13.46-15.17s9.33-8 44.19-21.74a123.2 123.2 0 0 1 -87.22-3.39c13 16 13.58 37.53 2.72 51.46-11.48 14.72-30.65 14.34-32.84 14.34z" fill="#cc3745"/><path d="m350 265.07s64.57 6.33 79.74 41 9.09 177.6 9.09 177.6h-38.59l-4.46-129.27s-64.87-62.12-45.78-89.33z" fill="#917eec"/><path d="m305 271.59s12.3 26.6 26.79 24.73 23.21-30.85 23.21-30.85-32.64-7.87-50 6.12z" fill="#e39c76"/><path d="m153.37 254.05c8.23 20.1 27.55 29.08 41.07 24 11.83-4.41 15.94-18.34 16.53-20.45-18.47-8.88-38.66-9.6-57.6-3.55z" fill="#f5b493"/><path d="m336.93 160.48c-1.54 0 5.35.3-18.37-1a1 1 0 1 1 .11-2l18.32 1a1 1 0 0 1 -.06 2z" fill="#e5e5e5"/><path d="m239.43 84.32c-3.06 36.42-15 50.53-25.05 56.75-16.66 10.24-40.23 6.25-44.87 19.19-1 2.9-2.21 3.23.7 12.25a47.81 47.81 0 0 1 -4.21 38.21 72.72 72.72 0 0 1 -22.27-11.39s-23.47-17.77-29.06-49.06c-7.08-39.55 18.75-91.72 62.88-100.72 31.39-6.4 57.77 12 64.42 16.87 1.47-.07 21.61-.72 33.43 15.67 8.93 12.39 9.43 29.39 1.19 43a57.39 57.39 0 0 0 -37.16-40.77z" fill="#287eef"/><path d="m187.94 152.47c-4.67-11.52-16.13-17.76-25.62-13.93s-13.41 16.29-8.75 27.82 16.13 17.77 25.61 13.93 13.41-16.29 8.76-27.82z" fill="#f5b493"/><path d="m180.09 169.23c-.07 0-6.22-.92-6.78-6.87-.36-3.78 4.55-5.2 6.35-5.6-1.15-2.42-6-11.8-12.9-11.44-6.42.32-6.22 7.55-6.21 7.86a.5.5 0 0 1 -.48.52.51.51 0 0 1 -.52-.48c0-.08-.25-8.53 7.16-8.89 8.54-.4 13.91 12.08 14.13 12.61a.5.5 0 0 1 -.39.69c-.06 0-6.49 1.05-6.15 4.63.49 5.16 5.7 6 5.92 6a.5.5 0 0 1 -.13.97z" fill="#2d1929"/><path d="m136.67 76.65a269.44 269.44 0 0 0 -41.92 90.49c-6.14 24.52-13 53.27-3.75 87.77a140 140 0 0 0 15 35.44c11.92-11.57 21-13.39 27.28-12.78 27.68 2.72 35.12 59.21 64.73 58.79a35.56 35.56 0 0 0 18.07-5.43c19.25-12.7 17-42.11 16.71-44.67a39.61 39.61 0 0 1 -22-.51c-11.51-3.78-17.75-12.31-21.47-17.38-19.73-26.94-17.59-75.49-17.21-82.65-10-1.18-16.88-4.58-21.48-7.84-23.08-16.38-28.84-57.03-13.96-101.23z" fill="#287eef"/><circle cx="145.1" cy="57.48" fill="#287eef" r="23.77"/><path d="m77 483.7s16.62-2.48 34.08-26.34 2-111.21 2-111.21 30.09 64.33 62.66 94.25 60 23.06 60 23.06l1.26 20.24z" fill="#cc3745"/><path d="m401.88 325.63-8.64 42.72v115.35h10.56l-6.28-115.35z" fill="#6d5fde"/><path d="m305 271.59-14.54 6s10.14 32 23.09 33.2 18.24-14.48 18.24-14.48-16.99-2.41-26.79-24.72z" fill="#e5e5e5"/><path d="m355 265.47s-9.92 26.84-23.17 30.85c0 0 6.18 12.75 19.85 9.78s16.52-37.9 16.52-37.9a62.59 62.59 0 0 0 -13.2-2.73z" fill="#e5e5e5"/><path d="m343.84 323.07 18.55-17s10.73-20.86 17.12-28a17.25 17.25 0 0 1 17.05-5.28c1.87.68 3.66 3.58 3.66 3.58a24.29 24.29 0 0 1 6 1.7c2 1.09 2 3.71 2 3.71s6.84-1 8.5 5.81a10.66 10.66 0 0 1 3.06.89 9.74 9.74 0 0 1 3.82 4.42c2.21 4.92-2.56 19.22-14.82 29.65-6.32 5.37-15.69 10.74-15.59 10.74l-23.92 24.61s-23.7-17.35-25.43-34.83z" fill="#f5b493"/><path d="m320.55 340.8a422.53 422.53 0 0 0 36.63-29.93l31.35 27.28a325.25 325.25 0 0 1 -48.13 54.71 172 172 0 0 0 -19.85-52.06z" fill="#e73f46"/><path d="m245.91 194.75 23.69 8.86-2.73 10.22c-10.3-1.72-18.69-8.54-20.96-19.08z" fill="#e5e5e5"/></g></svg>