<svg height="512" viewBox="0 0 512 512" width="512" xmlns="http://www.w3.org/2000/svg" xmlns:xlink="http://www.w3.org/1999/xlink"><clipPath id="clip-path"><path d="m249.06 196.39h42.86v78.21h-42.86z"/></clipPath><g id="Error"><g clip-path="url(#clip-path)"><path d="m249.06 196.39h42.86v78.21h-42.86z" fill="#f5b493"/><path d="m241.69 223c17 10.38 37.62 11.1 55.06 1l.72-33.5h-56.47z" fill="#eba284"/></g><path d="m244.34 242a191.91 191.91 0 0 1 -108.91-37.83l66.07-96.67-12.11-18.41s-113.87 83.74-117.27 115.74 125.26 119.81 125.26 119.81 55.74-37.23 46.96-82.64z" fill="#287eef"/><path d="m282.75 242a191.86 191.86 0 0 0 108.9-37.83l-66.06-96.67 12.1-18.39s113.87 83.72 117.31 115.72-125.3 119.81-125.3 119.81-55.7-37.23-46.95-82.64z" fill="#287eef"/><path d="m325.25 133.05a37.36 37.36 0 0 1 -1.34 12.83c-.51 1.8-3.6 13.71-7.39 26-3.53 11.41-15.89 49-46.61 50.79-25.32 1.25-43.94-28-51.17-51.82-1.23-7.57-7-29.67-7.28-39.17a37.82 37.82 0 0 1 .28-5.8s.72-34.07 20.94-53a44.47 44.47 0 0 1 15.42-9.45c1.92-.38 18.56-9.06 41.74-.15l.95.15c35.3 12.62 36.33 62.46 36.33 62.46-.63 2.19-1.25 4.64-1.87 7.16z" fill="#f5b493"/><g fill="#2d1929"><path d="m267.25 172.32c-4.48-1.13-7.11-2.91-7.79-5.29-1.53-5.27 7.4-8.38 6.08-24.86a.5.5 0 0 1 .46-.54.5.5 0 0 1 .54.46c1.34 16.71-7.46 20.07-6.12 24.66.58 2 3 3.56 7.08 4.6a.5.5 0 0 1 -.25.97z"/><path d="m249.06 145.65c0 4-2.11 7.3-4.72 7.31s-4.73-3.27-4.73-7.3 2.11-7.31 4.72-7.31 4.73 3.26 4.73 7.3z"/><path d="m233.46 130.22a1 1 0 0 1 -.84-1.53c.07-.12 7.45-11.47 20.64-8.46a1 1 0 0 1 .75 1.19 1 1 0 0 1 -1.2.76c-11.78-2.69-18.24 7.16-18.51 7.58a1 1 0 0 1 -.84.46z"/><path d="m295.21 145.66c0 4-2.13 7.3-4.74 7.3s-4.72-3.28-4.72-7.31 2.13-7.3 4.74-7.3 4.72 3.27 4.72 7.31z"/><path d="m301.3 130.33a1 1 0 0 1 -.85-.48c-.26-.42-6.6-10.34-18.43-7.78a1 1 0 0 1 -.42-2c13.22-2.86 20.48 8.57 20.55 8.69a1 1 0 0 1 -.85 1.57z"/></g><path d="m263.52 236.75c-35.17 3.82-60.61 34.77-61.93 52.29-.63 8.4 1.95 12.66 17.52 77.68h114.81c1.67-4.56 3.92-11.07 6.2-19 3-10.34 5.39-18.84 6.18-27.65 0 0 1.67-18.55-5.62-36.25-10.5-25.53-41.58-50.95-77.16-47.07z" fill="#287eef"/><path d="m249.06 237.84c-.33 15.29 12.85 26.17 24.67 24.49 10.33-1.47 19.27-12.49 18-25.55a33.68 33.68 0 0 0 -11.13-3.78c-8.6-1.38-22.81 1.9-31.54 4.84z" fill="#f5b493"/><path d="m279.36 188.67c-.38 2.1.83 3 .65 4.24-.39 2.76-7.4 4.16-12.17 4.43-5.12.29-8.86.5-11.06-2.21-1.95-2.41-2.23-6.55-.34-8.77 1.19-1.4 2.66-1.37 11.06-1.45 8.15-.07 12.4-.15 12.77 1.28.16.65-.64.94-.91 2.48z" fill="#efefef"/><path d="m249.06 59.23c-18.5-2-28.18 2.86-33.53 7.34-23.74 19.89-1.12 66-23.41 156.11 0 0 37.87 27.11 58.67 24.88l-1.73-31.06c-10.68-13.5-22.16-32.25-27.66-55.22-3.84-16.05-2.47-24.62.13-30.92 3.15-7.6 7.56-10.65 13.81-17.71s14.42-18.24 21-35.12a155.2 155.2 0 0 0 56.43 52.08 138 138 0 0 1 -20.93 84.24l-.3 33.84a98.3 98.3 0 0 0 41.76-34.78c5.57-44.27 1.45-79.16-3-101.76-6.76-34.59-15-44.19-22.51-49.53-22.1-15.62-52.74-4.62-58.73-2.39z" fill="#2d1929"/><path d="m224.1 165.23c-7.77 3.15-17.17-2-21-11.42s-.61-19.65 7.17-22.8 17.17 2 21 11.42.61 19.66-7.17 22.8z" fill="#f5b493"/><path d="m216.75 158.57a.57.57 0 0 1 -.33-.11c-.13-.12-3.29-2.8-3.15-5.2.11-2.09 2.34-3 3.28-3.31-.32-5.43-3.2-13.48-8.52-12.42a.5.5 0 0 1 -.19-1c6.16-1.22 9.5 7.5 9.73 13.77a.51.51 0 0 1 -.39.51s-2.81.65-2.91 2.5c-.09 1.57 2 3.69 2.8 4.37a.5.5 0 0 1 -.32.89z" fill="#2d1929"/><path d="m331.71 153.81c-3.82 9.45-13.22 14.57-21 11.42s-11-13.35-7.17-22.8 13.22-14.56 21-11.42 10.98 13.35 7.17 22.8z" fill="#f5b493"/><path d="m318.07 158.57a.5.5 0 0 1 -.32-.88c.81-.68 2.89-2.8 2.8-4.37-.1-1.85-2.88-2.5-2.91-2.5a.51.51 0 0 1 -.39-.51c.23-6.29 3.58-15 9.73-13.77a.51.51 0 0 1 -.2 1c-5.32-1.06-8.2 7-8.51 12.42.94.3 3.16 1.22 3.28 3.32.14 2.39-3 5.07-3.16 5.19a.54.54 0 0 1 -.32.1z" fill="#2d1929"/><path d="m239.61 182.19a20.53 20.53 0 1 1 20.53-20.53 20.55 20.55 0 0 1 -20.53 20.53zm0-39.06a18.53 18.53 0 1 0 18.53 18.53 18.55 18.55 0 0 0 -18.53-18.53z" fill="#efefef"/><path d="m287.24 172.84a20.53 20.53 0 1 1 20.53-20.53 20.55 20.55 0 0 1 -20.53 20.53zm0-39.06a18.53 18.53 0 1 0 18.53 18.53 18.55 18.55 0 0 0 -18.53-18.53z" fill="#efefef"/><path d="m258.57 158a1 1 0 0 1 -.16-2l9.4-1.52a1 1 0 0 1 .31 2c-11 1.75-9.42 1.52-9.55 1.52z" fill="#efefef"/><path d="m223.57 151.53a1 1 0 0 1 -1-.83l-4.42-24.7a1 1 0 1 1 2-.35l4.43 24.67a1 1 0 0 1 -1.01 1.21z" fill="#efefef"/><path d="m306.49 148.62a1 1 0 0 1 -.92-1.39l8.55-20.23a1 1 0 0 1 1.84.78l-8.55 20.22a1 1 0 0 1 -.92.62z" fill="#efefef"/><path d="m189.4 302.61 6.96 153.76h151.79l-1.19-160.14z" fill="#287eef"/><path d="m164 108.64 21.52-19.12c11.86-17.38 12.09-23.4 17.87-28.21 4.29-3.57 8.85-4.78 13.4-6 .7-.19 10.54-2.76 11.49-.64.34.78-.57 2-1.53 2.94 4.78-1.09 11.57-2.24 8.68 1.66-3.87 5.21-13.82 7.58-18.19 11.95-5.26 5.29-.88 13.06-2.79 22-2 9.53-26.49 34.18-26.49 34.18s-19.65-1.59-23.96-18.76z" fill="#f5b493"/><path d="m209.18 72.35c11.31-4.38 24.22-8.86 25.35-6.7.21.41 0 1.06-1.19 2.55-5.51 6.85-12.43 7-17.24 10.6-3 2.26-6.4 6.85-7 17.23a17.13 17.13 0 0 1 .08-23.68z" fill="#f5b493"/><path d="m363.13 108.64-21.51-19.12c-11.87-17.38-12.1-23.4-17.87-28.21-4.3-3.57-8.86-4.78-13.41-6-.7-.19-10.53-2.76-11.48-.64-.35.78.57 2 1.53 2.94-4.78-1.09-11.57-2.24-8.68 1.66 3.86 5.21 13.82 7.58 18.18 11.95 5.27 5.29.89 13.06 2.79 22 2.05 9.53 26.5 34.18 26.5 34.18s19.6-1.59 23.95-18.76z" fill="#f5b493"/><path d="m317.9 72.35c-11.31-4.38-24.21-8.86-25.34-6.7-.21.41 0 1.06 1.19 2.55 5.51 6.85 12.43 7 17.23 10.6 3 2.26 6.4 6.85 7 17.23a17.11 17.11 0 0 0 -.08-23.68z" fill="#f5b493"/><path d="m155.98 115.02 22.85-19.6 19.09 21.24-20.1 25.47z" fill="#287eef"/><path d="m327.86 115.18 21.92 27.7 23.6-26-28.62-24.56s-4.36 16.96-16.9 22.86z" fill="#287eef"/><path d="m190.16 319.61s4.91-35.47 11.34-37.86 9.5 110.25 25.33 116.42 79.65-12.77 85.26-8.17-39.09 27.06-30.28 39.31 45.28 27.06 45.28 27.06h-130.73q-3.79-68.26-6.2-136.76z" fill="#1573d8"/><path d="m346.9 312.39c-2.18-20.57-3.95-35.08-5.45-43.66-.16-.91-.47-2.66 0-2.83 1.71-.67 12.57 23.21 18.77 36.84z" fill="#1573d8"/><path d="m135.43 204.15s-22.21 5.19-39.06 2.72c0 0 18.77 10.55 47 2.83z" fill="#1573d8"/><path d="m391.65 204.15-10.65 7.37c11.59 2.88 30 5 42.62 2.67 1.31-.25 4-1.11 4-1.73-.03-1.74-16.12-1.53-35.97-8.31z" fill="#1573d8"/><path d="m74.26 458.64a17.26 17.26 0 0 1 -15-25.9l84-145.5a17.26 17.26 0 0 1 29.9 0l84 145.5a17.26 17.26 0 0 1 -15 25.9z" fill="#e73f46"/><path d="m74.26 450.37a9 9 0 0 1 -7.79-13.49l84-145.5a9 9 0 0 1 15.57 0l84 145.5a9 9 0 0 1 -7.79 13.49z" fill="#efefef"/><path d="m148.18 322.12a3.16 3.16 0 0 1 3.16-3.25c10.25 0 15.33 3.95 15.33 11.84s-5.52 69.14-1.57 72.73a2.94 2.94 0 0 1 1.57 2.72c0 2.37-2.71 3.59-4.64 4-11.74 3.16-13-15.37-13-27.52 0-3.4.46-9.21.62-19.63.44-21.84 1.13-36.43-.53-38.73a3.17 3.17 0 0 1 -1-2.19m12.16 96.91c5.34 0 8.06 1.93 8.06 5.87 0 5.26-4.82 11.4-7.71 11.4-3.68 0-8.68-6.14-8.68-11.4 0-3.94 2.81-5.87 8.33-5.87" fill="#231f20"/></g></svg>