<svg height="512" viewBox="0 0 512 512" width="512" xmlns="http://www.w3.org/2000/svg" xmlns:xlink="http://www.w3.org/1999/xlink"><clipPath id="a"><path d="m366.59 168.49h45.25v102.89h-45.25z" transform="matrix(.995 -.096 .096 .995 -19.31 38.37)"/></clipPath><path d="m322.14 205.44s-6 89.94 22.3 94.71 69-18.45 69-18.45l-33.74-86.56z" fill="#efbd42"/><path d="m206.35 402.18s-17.66 11.17-15.06 14.54 19.09-6 19.09-6-6.17 7.07-3.2 8.52 18.13-9.94 18.13-9.94-6.63-11.86-18.96-7.12z" fill="#6e3d1e"/><g clip-path="url(#a)"><path d="m366.59 168.49h45.25v102.89h-45.25z" fill="#834a27" transform="matrix(.995 -.096 .096 .995 -19.31 38.37)"/><path d="m407.06 191.54a45.06 45.06 0 0 1 -8.58 22.46c-12.25 16.4-31.72 18-34.9 18.19q-.56-12-1.12-23.95z" fill="#6e3d1e"/></g><path d="m312.5 442.72c27.19-125.91 9.05-165.54 37.9-191.34 14.91-13.38 36.34-16.19 38.6-16.47 7-.86 21.94-2.66 33.51 3.93 13.63 7.77 21.38 26.51 24 81.82a695 695 0 0 1 -5.06 122.06z" fill="#287eef"/><path d="m168.63 429.02-18.83-1.32v-13.97l18.83 2.3z" fill="#2d1929"/><path d="m191.9 430.64-15.35-1.07v-12.57l15.35 1.88z" fill="#2d1929"/><path d="m211.16 431.98-12.75-.89v-11.41l12.75 1.55z" fill="#2d1929"/><path d="m227.37 433.11-10.75-.75v-10.46l10.75 1.31z" fill="#2d1929"/><path d="m375.09 237.87c-12.4 1.85-34.24 7.16-48.3 25.14-6.75 8.63-9.24 17-14.23 37.93-4.22 17.72-9.43 41-14.7 68.76l-56.86 22.3q3.33 15.66 6.64 31.3a199.15 199.15 0 0 0 40.27-4.3s24.13-5.08 41.72-13.75c29.93-14.74 50.22-82.4 45.46-167.38z" fill="#287eef"/><path d="m397.91 234.1c8.24-2.45 39.77-10.89 61 6.15 15.4 12.35 18 32.16 19.6 52.47 2.61 33.4 3.65 84-5.69 150h-49.58z" fill="#287eef"/><path d="m368.35 239.26s7.42 23.59 20.86 21.85 24.17-26.29 24.17-26.29c-11.46-17.49-33.06-11.93-45.03 4.44z" fill="#834a27"/><path d="m367.47 230.13s-3.62.67-4.65 3.89a75.11 75.11 0 0 1 -3.32 8s10.67 36.44 13.28 37.39 13.6-18.17 13.6-18.17-14.59-4.88-18.91-31.11z" fill="#eaeaea"/><path d="m386.38 261.2c.24 1.4 3.23 17.6 9.76 18.2 2.65.25 4.69-2.21 11-10.94 15.61-21.52 20.58-30.53 17.78-33.9-.93-1.13-2.68-1.57-4.9-4.43-1.22-1.59-1.55-2.64-2.93-3.67a8.81 8.81 0 0 0 -4.71-1.77s-4.38 28.7-26 36.51z" fill="#eaeaea"/><path d="m327 285.29q-1.37 11.63-2.75 23.24a33.3 33.3 0 0 0 -9.23 11.38c-7.78 16.38 4.47 32.06 6.29 34.3q-.77 27.74-1.52 55.48 3.66-27.69 7.21-55.32c-2-3.21-12.85-21-2.75-36.52a31.16 31.16 0 0 1 6.29-7z" fill="#1573d8"/><path d="m431.74 292.09 7.38 46.28-15.88 104.35h9.76l12.33-106.44z" fill="#1573d8"/><path d="m400.69 198.86a85.71 85.71 0 0 1 -13.05 18.59c-5.78 6.14-21.27 22.59-37.87 18.44-4.34-1.09-11.18-5.18-21.51-16.69-13.37-14.89-17.55-23.89-19.67-34.19s-1.78-17.09-3.38-23.75c-3.95-16.46-9.84-28-2.12-42.8a58.36 58.36 0 0 1 8.49-14.59c12.34-17.58 39.47-27.16 62.55-19.6 26.58 8.73 35.61 36.12 37.87 42.93 10.45 31.8-4.35 60.57-11.31 71.66z" fill="#834a27"/><path d="m340.28 190.32c-4.3-.79-6.88-2.31-7.68-4.51-1.85-5.1 6.49-8 4.18-23.78a.5.5 0 0 1 1-.14c2.3 15.65-5.76 19.35-4.23 23.58.67 1.84 3 3.14 6.93 3.87a.5.5 0 0 1 -.2.98z" fill="#2d1929"/><path d="m309.77 153.88a1 1 0 0 1 -.61-1.79l15.84-12.29a1 1 0 1 1 1.23 1.57c-17.15 13.31-15.96 12.51-16.46 12.51z" fill="#2d1929"/><path d="m345.46 139.75a1 1 0 0 1 0-2l19.89-.17a1 1 0 0 1 0 2c-27.23.24-17.88.17-19.89.17z" fill="#2d1929"/><path d="m213.99 391.29-146.28.48-26.39-164.24 173.46-24.44z" fill="#c6c6c6"/><path d="m204.6 391.36-146.27.56-27.81-162.41 172.9-24.23z" fill="#2d1929"/><path d="m121.73 438.17-35.97.03 18.24-74.27 31.28 9.78z" fill="#2d1929"/><path d="m246.42 442.72h-187.36l-.71-7.42h188.81z" fill="#2d1929"/><path d="m234.48 435.3h-91.2v-20.33l91.2 12.69z" fill="#c6c6c6"/><path d="m228.63 435.3h-85.35v-16.74l85.35 10.44z" fill="#2d1929"/><path d="m358.86 161.12a12.6 12.6 0 0 1 -8.31-3.24.5.5 0 0 1 0-.71.49.49 0 0 1 .7 0c.28.28 6.86 6.73 16-.27a.5.5 0 1 1 .61.79 14.74 14.74 0 0 1 -9 3.43z" fill="#2d1929"/><path d="m466.6 211c-43.73-58.26-38.05-182.87-146-128.27 0 0-39.94 15.25-36.1 42.27s21.91 44.24 21.91 44.24.69-7.13-1.34-28.94c-1.72-18.55 14.27-32 19.09-35.67 3.69 5.58 23.05 31.46 63.36 30 0 0 15.46 17 15.95 28.92s-6.91 56.62 14.31 69.38 40.65 9.07 40.65 9.07 15 21.79 17.26 27.27c0-.02 15.52-25.5-9.09-58.27z" fill="#efbd42"/><path d="m244.62 390.55s-28.42.49-33.46 2.38-34 17.77-30.22 21.38 23.85-7.39 23.85-7.39-12.75 9.14-9.56 12.64 19.55-9.56 19.55-9.56 9.11 2.6 11.48 5.45-12.89 9.24-9.64 13.63 17.7-4.81 21.5-5.43 19.44-.78 19.44-.78 7.81-15.06-2.62-36.37z" fill="#834a27"/><path d="m316.07 183c-12.8 0-18.92-10.11-11.22-18.53a22.15 22.15 0 0 1 11.23-6.25c9.49-2.23 18.48 1.36 20.05 8 2.04 8.71-8.8 16.78-20.06 16.78zm-9.74-17.18c-4.85 5.3-3.4 11.48 3.31 14.06 11.18 4.3 26.64-4.31 24.54-13.2-2.13-8.99-19.84-9.58-27.85-.82z" fill="#fff"/><path d="m358.62 173c-7.19 0-13.18-3.36-14.43-8.67-1.56-6.64 4.89-13.86 14.38-16.1a22.15 22.15 0 0 1 12.83.58c6.7 2.58 7.09 7.42 7.21 7.42 1.86 7.93-7.79 16.77-19.99 16.77zm5.63-23.44a22.68 22.68 0 0 0 -5.23.62c-8.41 2-14.19 8.12-12.88 13.7s9.22 8.49 17.64 6.51 14.2-8.13 12.89-13.7c-1.17-4.95-7.19-7.1-12.42-7.1z" fill="#fff"/><path d="m335.34 168.76a1 1 0 0 1 -.23-2l10.12-2.38a1 1 0 0 1 .46 1.95c-10.8 2.56-10.17 2.43-10.35 2.43z" fill="#fff"/><path d="m419.73 150c-.56 9.86-7.59 17.48-15.7 17s-14.24-8.83-13.69-18.69 7.6-17.47 15.71-17 14.24 8.78 13.68 18.69z" fill="#834a27"/><path d="m400.12 158.07c.16-.07 3.8-2 2.87-5.89-.64-2.69-5.64-1.84-5.69-1.83a.51.51 0 0 1 -.59-.53c0-.46.88-11.3 7.48-13.18 5.81-1.64 7.81 4.86 7.81 4.93a.5.5 0 0 1 -1 .28c-.06-.23-1.74-5.62-6.55-4.25-5.09 1.45-6.41 9.39-6.68 11.68 1.58-.16 5.49-.25 6.18 2.67 1.12 4.71-3.35 7-3.39 7a.5.5 0 0 1 -.44-.88z" fill="#2d1929"/><path d="m376.49 155.49a1 1 0 0 1 -.67-1.75l17.55-15.82a1 1 0 0 1 1.41.07 1 1 0 0 1 -.07 1.42c-19.16 17.27-17.66 16.08-18.22 16.08z" fill="#fff"/><g fill="#2d1929"><path d="m314 172.54h-.43a.5.5 0 0 1 .06-1c.38 0 9.29.51 11.43-7.4a.5.5 0 0 1 1 .26c-2.06 7.67-10.06 8.14-12.06 8.14z"/><ellipse cx="349.71" cy="203.74" rx="7.75" ry="4.5"/><path d="m267.46 172.89c0 .26-.22.56-.66 1-.76.59-1.17 1.2-5.36 9.2-1.82 3.56-6.23 11.56-9 14.47h8.56c1.21 0 2.26-.32 2.26-1.75a.72.72 0 0 1 .74-.81c2.33 0 3.05 3.93-1.91 3.93h-12.74c-1.17 0-1.94-.7-1.61-1.91.06-.27.36-.57.92-.93 1.75-1.12 8.06-12.6 9.06-14.47 1.91-3.53 3.5-6.7 5-8.15h-7.93c-1.23 0-2.27.3-2.27 1.75a.73.73 0 0 1 -.73.72c-2.27 0-3.07-3.92 1.91-3.92h12.73a.86.86 0 0 1 1.03.87z"/><path d="m242 122.44c0 .36-.31.77-.91 1.3a5.49 5.49 0 0 0 -1 1.1c-3.94 6.29-12.55 25-18.64 31.37h11.79c1.66 0 3.09-.44 3.09-2.4 0-1.72 3.43-1.2 3.43 1.43 0 2.26-2.79 3-5.06 3h-17.6c-1.56 0-2.32-.88-2.32-1.88a3.86 3.86 0 0 1 .11-.75c.08-.36.5-.77 1.27-1.27 2.4-1.53 11.05-17.28 12.42-19.85 2.62-4.83 4.81-9.18 6.93-11.18h-10.87c-1.69 0-3.12.41-3.12 2.4a1 1 0 0 1 -1 1c-3.11 0-4.21-5.38 2.63-5.38h17.45a1.19 1.19 0 0 1 1.4 1.11z"/><path d="m299.15 204.49c-1.81 1.56-5.07 9.95-9.25 14.76h4.26c1.36 0 2.5-.36 2.5-1.94 0-1.36 2.76-1 2.76 1.14a1.9 1.9 0 0 1 -.76 1.51 5.12 5.12 0 0 1 -3.32.9c-9.54 0-10 .11-10.59-.32s-.49-.61-.42-.95c0-.16.22-.38.64-.63 1.51-.69 5.71-8.09 6.51-9.61a29.05 29.05 0 0 1 2.81-4.66h-4.17c-1.36 0-2.52.34-2.52 1.94a.8.8 0 0 1 -.8.81c-2.54 0-3.42-4.35 2.12-4.35h10.45c.32 0 .47.13.47.42s-.22.56-.69.98z"/></g></svg>