<svg xmlns="http://www.w3.org/2000/svg" width="512" height="512" viewBox="0 0 512 512"><defs><style>.cls-1{fill:#232121}.cls-11,.cls-13,.cls-16,.cls-2,.cls-4{fill:none;stroke-linecap:round;stroke-linejoin:round}.cls-2{stroke:#fff}.cls-3{fill:#ff8c5f}.cls-13,.cls-16,.cls-4{stroke:#383333}.cls-4{stroke-width:.75px}.cls-5{fill:#ffb08d}.cls-6{fill:#00ccc1}.cls-14,.cls-7{fill:#383333}.cls-8{fill:#ffb833}.cls-9{fill:#ff535c}.cls-10{fill:#aaeeea}.cls-11{stroke:#00ccc1;stroke-width:3px}.cls-12{fill:#ff8d93}.cls-13,.cls-14{fill-rule:evenodd}.cls-15{fill:#fff}</style></defs><g id="Message"><circle cx="168.28" cy="64.87" r="32.87" class="cls-1"/><path d="M100.94,109.71S40.15,147.3,60.12,201.76s-25.28,61.94-18.21,98.5S120,360.42,186.19,343.17s92.4-94.11,78.68-124.11-23.6-26.42-23.6-60.37.08-37.75-27.53-60.95S100.94,109.71,100.94,109.71Z" class="cls-1"/><path d="M97.82,317S61,299.35,69.13,273.54,99,237.84,95,217.34s-20.8-60.52,11-79.05" class="cls-2"/><path d="M123.08,186.63s-15.78,8.63-5.88,32.75,3.89,35.43-6.72,45.33" class="cls-2"/><path d="M213.09,153s-4.75,23.51,11.72,48.25-16.89,55.79-16.89,55.79" class="cls-2"/><path d="M103,146.39a13.47,13.47,0,0,0-10-3.87,10.28,10.28,0,0,0-6.12,2.3c-5.56,5.2-3.43,21.62,6.17,25.84,5.37,2.35,11.07,0,13-.87Z" class="cls-3"/><path d="M89.19,152.15l9.27-.43s-9.43,5.87-1.54,13.49" class="cls-4"/><path d="M217.69,146.39a13.45,13.45,0,0,1,10-3.87,10.3,10.3,0,0,1,6.12,2.3c5.56,5.2,3.43,21.62-6.18,25.84-5.36,2.35-11.06,0-13-.87Q216.17,158.09,217.69,146.39Z" class="cls-3"/><path d="M231.51,152.15l-9.26-.43s9.43,5.87,1.53,13.49" class="cls-4"/><circle cx="160.61" cy="136.19" r="65.58" class="cls-5"/><path d="M139.61,188.9c.4,9-.4,22.49-7.92,35.16-11.4,19.22-27,17.67-38.53,30.4-18.79,20.75,2,47.82,8,130.4,2.81,38.53,2.29,87.56,2.29,87.56h0S217,489.57,286.93,467.47c0,0-28.27-116.59-30.32-165.39-1-24.44-3.52-70.54-27.82-80.69-14.55-6.08-31.71,3-43-7.94-7.51-7.28-7.87-19-7.29-26.82Z" class="cls-5"/><path d="M93.16,254.46c-18.79,20.75,2,47.82,8,130.4,2.81,38.53,2.29,87.56,2.29,87.56S217,489.57,286.93,467.47c0,0-28.27-116.59-30.32-165.39-1-24.44-3.52-70.54-27.82-80.69-8.27-3.45-17.37-2-25.77-2.12h0c-1.59,3.91-10.13,23.77-32.09,32.53-19.43,7.75-42,3.91-59.1-9.77h0C105.28,245.48,98.74,248.3,93.16,254.46Z" class="cls-6"/><path d="M98.85,158.3s14,51.68,56.17,56.1,63-37.5,68.95-61.29C224,153.11,136.35,107,98.85,158.3Z" class="cls-5"/><path d="M163.77,94.34S134.08,132.86,102,136.19a146.43,146.43,0,0,0,8.48,59.15s-22-20.94-19.88-70.25,47.56-70.15,77.68-58.59c10.52.35,30.76,2.79,45.06,17.5,23.14,23.79,22.84,71.57-8,111.87a136.5,136.5,0,0,0,12.19-59.68S170.93,119,163.77,94.34Z" class="cls-7"/><path d="M145.83,59.17s2.54-18.43,22.45-19.44" class="cls-2"/><path d="M179.81,45.43s9.67,9.33,4.5,19.44" class="cls-2"/><rect width="3.45" height="18.5" x="39.43" y="71.6" class="cls-8" rx="1.63" transform="translate(-45.12 52.78) rotate(-45)"/><rect width="3.45" height="18.5" x="39.43" y="71.6" class="cls-8" rx="1.63" transform="translate(13.08 167.13) rotate(-135)"/><rect width="3.45" height="18.5" x="272.45" y="129.04" class="cls-8" rx="1.63" transform="translate(-17.48 234.38) rotate(-45)"/><rect width="3.45" height="18.5" x="272.45" y="129.04" class="cls-8" rx="1.63" transform="translate(370.27 429.95) rotate(-135)"/><rect width="4.38" height="23.48" x="238.41" y="43.41" class="cls-8" rx="1.73" transform="translate(31.47 186.29) rotate(-45)"/><rect width="4.38" height="23.48" x="238.41" y="43.41" class="cls-8" rx="1.73" transform="translate(371.74 264.28) rotate(-135)"/><rect width="4.38" height="23.48" x="38.96" y="197.77" class="cls-8" rx="1.73" transform="translate(-136.09 90.47) rotate(-45)"/><rect width="4.38" height="23.48" x="38.96" y="197.77" class="cls-8" rx="1.73" transform="translate(-77.89 386.76) rotate(-135)"/><rect width="297.19" height="197.6" x="185.61" y="284.4" class="cls-9" rx="17.52"/><path d="M334.21,289.64H189.64a3.81,3.81,0,0,1-2.7-6.66l69.78-60.24,66.51-57.42a16.78,16.78,0,0,1,21.95,0l66.51,57.42L481.47,283a3.8,3.8,0,0,1-2.69,6.66Z" class="cls-9"/><rect width="192.71" height="253.65" x="256.08" y="162.81" class="cls-10" rx="5.65" transform="translate(79.47 -75.86) rotate(13.83)"/><line x1="311.38" x2="442.34" y1="182.16" y2="214.4" class="cls-11"/><line x1="307.15" x2="438.11" y1="199.33" y2="231.58" class="cls-11"/><line x1="302.92" x2="433.88" y1="216.5" y2="248.75" class="cls-11"/><line x1="298.7" x2="429.65" y1="233.67" y2="265.92" class="cls-11"/><line x1="294.47" x2="425.43" y1="250.84" y2="283.09" class="cls-11"/><line x1="290.24" x2="421.2" y1="268.01" y2="300.26" class="cls-11"/><line x1="286.01" x2="416.97" y1="285.18" y2="317.43" class="cls-11"/><line x1="281.79" x2="412.74" y1="302.35" y2="334.6" class="cls-11"/><line x1="277.56" x2="408.51" y1="319.52" y2="351.77" class="cls-11"/><line x1="273.33" x2="404.29" y1="336.69" y2="368.94" class="cls-11"/><line x1="269.1" x2="400.06" y1="353.86" y2="386.11" class="cls-11"/><line x1="264.87" x2="395.83" y1="371.03" y2="403.28" class="cls-11"/><path d="M185.61,462.94A18.82,18.82,0,0,0,204.19,482h260a18.82,18.82,0,0,0,18.57-19.06V286.34a5.24,5.24,0,0,0-8.59-4c-45.74,38.22-133.34,110.33-140,107.66s-92.64-72.68-137.13-109.11a7,7,0,0,0-11.46,5.46V462.94Z" class="cls-12"/><path d="M211.77,419.64s18.46.72,30.73-2.16,16.16-3.61,16.88-1-10.25,7.07-10.25,7.07,12,2.31,19.91,1.15,12-1.95,13.13.33-8.51,5.88-8.51,5.88,7.07-1.88,11.4-1.45-1,6.21-10,7.94c0,0,8.37-2.45,10,0s-6.21,5.63-10.53,6.49c0,0,10.38.43,9.52,3s-24.53,6.64-37.66,4.76-35.78-2.16-35.78-2.16S205.42,425.56,211.77,419.64Z" class="cls-5"/><path d="M96.51,251.22s-18.9,11.72-22.08,43.88S60.12,409.8,60.12,409.8l47.18,4.77S133.81,328,135.4,302.35,123.89,253.29,96.51,251.22Z" class="cls-6"/><path d="M224.51,419.74S69.37,387.74,60.15,410s17.9,57.5,164.36,40.14a70.23,70.23,0,0,0,0-30.38Z" class="cls-6"/><path d="M386.73,161.31c4,1.24,4.53,8.46,4.69,10.57.65,8.6-3.23,17.94-5.47,17.39-2.49-.62-3.17-16.53-3.17-16.53-.06.93-1,13.69-6.65,15.33a2.35,2.35,0,0,1-1.64,0c-3.34-1.46-.88-13.72.25-18.8-.11.85-2.2,15-8.57,16.23a2.78,2.78,0,0,1-1.9-.13c-3.83-2.07.41-16.43,1.62-20.38-4.82,10.72-7.15,12.87-8.39,12.56-3.6-.9-1.07-21.41,2.83-25.08,2.64-2.47,7.7,4.08,7.7,4.08s5.65-2.19,7.94,2.11a5.44,5.44,0,0,1,5.9,3.65A6.19,6.19,0,0,1,386.73,161.31Z" class="cls-5"/><path d="M382.78,172.74s.77-5.79-.91-10.4" class="cls-4"/><path d="M374.74,169.3s2.5-7.47,1.23-10.61" class="cls-4"/><path d="M368,156.58s-1.36,4.57-2.14,8.44" class="cls-4"/><path d="M200.68,138.54a20.6,20.6,0,0,0-11.8-3.86c-2.86-.06-6.75-.16-7.94,2.09a3.13,3.13,0,0,0,.07,3.17c1.35,1.8,4.73.17,10.2.12,7.19-.06,11.87,2.66,12.34,1.63C203.9,141,201.59,139.22,200.68,138.54Z" class="cls-7"/><path d="M117.9,139.71A20.53,20.53,0,0,1,129,134.14c2.83-.5,6.65-1.17,8.17.88a3.13,3.13,0,0,1,.39,3.14c-1.06,2-4.65.88-10.06,1.64-7.12,1-11.34,4.4-12,3.45C115.08,142.56,117.1,140.52,117.9,139.71Z" class="cls-7"/><path d="M157.83,153.76s-5,11.63-4.1,13.86,10,1.46,10,1.46" class="cls-13"/><path d="M156,189.12s4.55,1.7,8.25-.07" class="cls-4"/><ellipse cx="197.79" cy="173.35" class="cls-3" rx="7.98" ry="4.97" transform="translate(-2.94 3.41) rotate(-0.98)"/><ellipse cx="123.08" cy="174.63" class="cls-3" rx="7.98" ry="4.97" transform="translate(-2.97 2.13) rotate(-0.98)"/><path d="M191.06,161a5.92,5.92,0,1,1-.52-8.35A6,6,0,0,1,191.06,161Z" class="cls-14"/><path d="M196.43,153.14c-.13-.11-1.29,1.91-2.78,1.76-1.1-.11-1.38-1.31-2.78-2.38a7.15,7.15,0,0,0-4.18-1.33,15,15,0,0,0,2.39,3.45c1.35,1.47,2.22,2.42,3.41,2.43C194.89,157.11,196.61,153.29,196.43,153.14Z" class="cls-14"/><path d="M135.17,163.11a5.92,5.92,0,1,1,0-8.37A5.92,5.92,0,0,1,135.17,163.11Z" class="cls-14"/><path d="M120.9,155.64c.13-.12,1.41,1.81,2.89,1.56,1.09-.17,1.3-1.4,2.62-2.55A7.16,7.16,0,0,1,130.5,153a15.22,15.22,0,0,1-2.16,3.6c-1.25,1.56-2.06,2.56-3.24,2.66C122.71,159.49,120.74,155.79,120.9,155.64Z" class="cls-14"/><path d="M147.88,176.38a48.58,48.58,0,0,0,24.52,0,12.67,12.67,0,0,1-24.52,0Z" class="cls-15"/><path d="M137.82,209.51s24,11.62,44.79,0" class="cls-13"/><path d="M258.76,432.42s11.33,1.27,16.75-2" class="cls-4"/><path d="M260.26,439.49s10.49-.74,18-2.82" class="cls-4"/><path d="M260.79,445.86s9-.07,14.26-1.95" class="cls-4"/><path d="M121.09,292.28a79.52,79.52,0,0,1,6.71,34.28c-.33,9.18-2.3,15.67-3.8,21.21a270,270,0,0,0-8.48,53" class="cls-16"/><path d="M79.73,403.28s26.25-5.71,46.4.94,59.48,8.33,59.48,8.33" class="cls-16"/><path d="M103.4,450.46s41.13,6.94,82.21,3.26" class="cls-16"/><path d="M153.62,86.56s-26.59,33.9-50.91,38.17" class="cls-2"/><path d="M137.82,82.67s-18.82,20.14-31.74,23" class="cls-2"/><path d="M172.4,86.56s20.31,31.56,42.22,33.23" class="cls-2"/><path d="M191.57,94.16s11.18,14.32,27.08,11.49" class="cls-2"/></g></svg>