<svg height="512" viewBox="0 0 512 512" width="512" xmlns="http://www.w3.org/2000/svg" xmlns:xlink="http://www.w3.org/1999/xlink"><clipPath id="clip-path"><path d="m272.44 366.02h35.53v78.27h-35.53z" transform="matrix(.973 .229 -.229 .973 100.45 -55.67)"/></clipPath><clipPath id="clip-path-2"><ellipse cx="176.08" cy="110.18" rx="66.02" ry="77.18"/></clipPath><g id="Inflation"><path d="m388.61 386.55c-45.79-18.55-38.47-59.55-38.47-59.55s-63.55-27.39-79.29-4.2-4 111.3 38.53 140.28 125 20.87 134.3-10.43-9.27-47.55-55.07-66.1z" fill="#2d1929"/><g clip-path="url(#clip-path)"><path d="m272.44 366.02h35.53v78.27h-35.53z" fill="#f5b493" transform="matrix(.973 .229 -.229 .973 100.45 -55.67)"/><path d="m280.62 381.46c-1.43 18.09 9.88 33.15 26.7 40.12q3.15-12.12 6.29-24.25z" fill="#eba284"/></g><path d="m212.75 277.78a218.42 218.42 0 0 0 62.25 134.07 180.06 180.06 0 0 0 -41.93 59.27c-25.06-55.5-44.82-128.1-44.71-190.84a16.31 16.31 0 0 1 7.77-5.86c8.52-2.95 16.04 2.9 16.62 3.36z" fill="#cc3745"/><path d="m347.24 368.36c.83-7.85.09-12.91.81-18 1.76-12.58 5.32-21.67-1.51-32.13a43.86 43.86 0 0 0 -7.4-10.29c-10.49-12.24-31.45-17.44-48.14-10.13-19.23 8.42-24 29.57-25.18 34.82-5.52 24.52 7.61 44.94 13.61 52.72a64 64 0 0 0 11.1 12.95c4.76 4.17 17.52 15.34 29.63 11 3.16-1.12 8-4.67 14.86-14 8.9-12.08 11.38-19.1 12.22-26.94z" fill="#f5b493"/><g fill="#2d1929"><path d="m323.7 373.77c2.84-.81 4.45-1.93 4.81-3.31.82-3.18-5.46-5.38-4.87-17.28a.5.5 0 0 1 1 .05c-.58 11.62 5.83 13.62 4.84 17.48-.45 1.75-2.3 3.1-5.5 4a.5.5 0 0 1 -.28-.94z"/><path d="m340.26 357.26c-.42 2.82-2.24 4.89-4.07 4.62s-3-2.78-2.55-5.6 2.24-4.9 4.07-4.63 2.97 2.78 2.55 5.61z"/><path d="m311.81 353c-.42 2.83-2.24 4.89-4.07 4.62s-3-2.78-2.55-5.6 2.24-4.9 4.07-4.62 2.97 2.81 2.55 5.6z"/><path d="m330.18 335.24a1 1 0 1 1 1.8-.86 11.06 11.06 0 0 0 12.57 6.08 1 1 0 0 1 1.2.75 1 1 0 0 1 -.76 1.2 13 13 0 0 1 -14.81-7.17z"/><path d="m301.88 337.84a1 1 0 0 1 -.93-1.07 1 1 0 0 1 1.07-.93 23.9 23.9 0 0 0 14.33-3.62 1 1 0 1 1 1.06 1.7 26 26 0 0 1 -15.53 3.92z"/></g><path d="m280.45 414.4s-38.09.49-46.8 6.91-14.65 61.69-14.65 61.69h120.1s-1.39-37-10.41-49.85-48.24-18.75-48.24-18.75z" fill="#e73f46"/><path d="m171.71 184.48s0 7.84-2 11.32 1.77 3.26 6.33 2.18 9.34 1.08 9.34-3.27-5.38-11.32-5.38-11.32-3.28-4.79-8.29 1.09z" fill="#6d5fde"/><path d="m198.68 337.36c-1.38.41 3.26 19.89 7.91 38.29a447.66 447.66 0 0 0 19.28 58.86c-4.59 21.26-5.2 26.91-6 30.14-1.49 6.23-2.81 11-2.35 18.35h58s-45-5-47.83-10.88 22.33-33.55 22.33-33.55c-39.02-53.52-48.75-101.98-51.34-101.21z" fill="#cc3745"/><path d="m163.41 421.77a1 1 0 0 1 -1-.79c-11.71-53.77 58.66-76.78 45.62-96.1-13.9-20.59-34.53-26.18-13-65.63 20.93-38.36-3.12-73.44-11.95-70.71-10.57 3.26-12.23-.16-12.45-.88a1 1 0 0 1 .65-1.25 1 1 0 0 1 1.24.6c.33.66 2.76 1.84 10-.38 3.31-1 7.57 1.28 11.68 6.31 8.16 10 19.2 36.87 2.62 67.27-20.81 38.15-1.27 42.54 12.91 63.55 14.81 21.95-57 43.22-45.32 96.79a1 1 0 0 1 -1 1.22z" fill="#2d1929"/><path d="m243.4 432.77a302.73 302.73 0 0 0 70.72 50.23h-21.12a110.9 110.9 0 0 1 -49.6-50.23z" fill="#cc3745"/><path d="m187.67 285.16s18.86 166.53 124.43 191.84l.39-54.3s-77.81-52.25-98.39-142.52c0 .01-13.89-12.92-26.43 4.98z" fill="#e73f46"/><g clip-path="url(#clip-path-2)"><ellipse cx="176.08" cy="110.18" fill="#917eec" rx="66.02" ry="77.18"/><path d="m167.72 22.78s-30.32 28.22-40.91 74.12 21.71 46.06 28.06 54.53-7.4 31.63 43.15 35.67l-5.56 28.39-67.76-5.83-42.89-56.11 23.3-74.65 25.41-50.29z" fill="#6d5fde"/></g><path d="m157.68 92.05c0-10.66 7.82-17.16 18-18.4v-7.43a2 2 0 1 1 4 0v7.27a19.84 19.84 0 0 1 10.52 3.19 16.86 16.86 0 0 1 7.38 13.77c0 4.13-2.42 6.28-5.89 6.28a2.86 2.86 0 0 1 -2.69-3.08c-.06-9.53-3.14-14.6-9.37-15.21v26.5c5 2.92 8.32 5 10 6.22 4.57 3.25 7.87 7.44 7.87 13.66 0 7.54-3.69 12.72-9.14 15.64a24 24 0 0 1 -8.76 2.76v7.43a2 2 0 1 1 -4 0v-7.21a20.44 20.44 0 0 1 -10.52-3.25 16.94 16.94 0 0 1 -7.44-13.77c0-4 2.48-6.28 5.95-6.28a2.87 2.87 0 0 1 2.65 3.08 22.1 22.1 0 0 0 2.64 10.63 8.76 8.76 0 0 0 6.72 4.79v-24.83c-8.91-5.82-18-11.51-18-21.76m18 10.3v-23.52a11 11 0 0 0 -7.77 10.68c0 5.9 3.2 9.75 7.77 12.84m4 35.74a11.68 11.68 0 0 0 7.66-10.68c0-4.41-3.2-7.77-7.66-10.91z" fill="#e5e5e5"/><path d="m311.44 308.43c-14.35 24.89-22.62 29.46-27.6 28.48-1.92-.37-4.58-1.8-7.18-.54s-3.54 4.83-4.7 12.19c-2.25 14.22 6.3 35.24 6.3 35.24l-2.68 6.43a154.8 154.8 0 0 1 -29.13-36.36c-2-41.74 34.59-67 74.12-58.7 23.14 3.74 31.86 11.53 35 18.92 7.08 16.62-7.89 45.74-7.89 45.74a73.19 73.19 0 0 0 -2-21.4c-1.48-6-2.74-7.35-3.19-7.82-5.23-5.46-13.28-1.05-20.65-4.79-3.58-1.82-8.01-6.12-10.4-17.39z" fill="#2d1929"/><path d="m281.5 344.78c-1.13-7.33-6.93-12.51-13-11.59s-10 7.63-8.87 14.95 6.94 12.52 13 11.58 10-7.62 8.87-14.94z" fill="#f5b493"/><path d="m274.59 353.62a4.87 4.87 0 0 1 -3.13-5.13c.31-2.24 3.1-2.54 4.4-2.56-.42-1.83-2-7.31-5.71-8-3.57-.66-4.41 3.38-4.44 3.55a.5.5 0 0 1 -1-.19c.35-1.8 2-5 5.6-4.35 5.16.95 6.58 9.07 6.64 9.42a.5.5 0 0 1 -.53.58s-3.72-.26-4 1.67a3.94 3.94 0 0 0 2.5 4.07.5.5 0 0 1 -.33.94z" fill="#2d1929"/><ellipse cx="316.61" cy="384.08" fill="#2d1929" rx="4.2" ry="7.23" transform="matrix(.213 -.977 .977 .213 -126.01 611.78)"/><path d="m217.17 292-4.63-18.47s.43-23.19 0-28.41-12.07-20.36-16.42-18.62-2.5 9.13-2.5 9.13-8-7.06-7.71 3.81c0 0-6.09-1.31-4.79 9.34 0 0-6.08-1.3-4.89 6s3.84 21.52 9.5 24.42l3.68 17.63s17.59 2.02 27.76-4.83z" fill="#f5b493"/><path d="m214.1 280.19s11.1 36.81 26.9 65.07l-35.88 12.42a367.18 367.18 0 0 1 -17.55-67.29z" fill="#e73f46"/><path d="m68 149.8c17.19 27.37 44.55 43.95 75.76 49.51 0 0-45.55-14.71-71.65-61.22z" fill="#86ebf9"/><path d="m130.91 259.35c10 15.68 24.69 26.49 42.72 28.46 0 0-24.48-7-41.56-36.54z" fill="#86ebf9"/><path d="m247 198.36c14.6 16.16 34.68 24 56 24 0 0-31.94-4.45-54.68-32.26z" fill="#86ebf9"/><path d="m131.16 359.36c26 24.29 61.6 33.68 96.89 32.54 0 0-55.54-4.75-94.23-44.93z" fill="#86ebf9"/></g></svg>