<svg height="512" viewBox="0 0 512 512" width="512" xmlns="http://www.w3.org/2000/svg" xmlns:xlink="http://www.w3.org/1999/xlink"><clipPath id="clip-path"><rect height="317" rx="13.51" transform="matrix(.99 -.143 .143 .99 -25.45 43.93)" width="152.67" x="216.62" y="40.54"/></clipPath><g id="Medical_App" data-name="Medical App"><path d="m122.32 414.28 28.68-61.11c-5.42-40.79-1.62-72.09 3-93.37 5.53-25.54 9.73-25.17 12.62-47.55 5.18-40.2-4.71-69.74 11-79.54a12.13 12.13 0 0 1 7.38-2.31c13.52 1 24.43 31.1 30.92 76l18.49 128.06 114.44-5.35s-21.55 60.7-73.55 79.15l-13.83 64.42c-52.94 5.81-101.99-20.03-139.15-58.4z" fill="#955d43"/><path d="m327.5 110.32c4.73-4.68 52-50.74 68.42-37.57a12.82 12.82 0 0 1 4.08 6.33c6.59 22.49-47.78 57.61-51.65 60.07z" fill="#955d43"/><rect fill="#40c2d6" height="322.37" rx="13.51" transform="matrix(.99 -.143 .143 .99 -26.27 41.98)" width="170.32" x="193.78" y="42.59"/><rect fill="#86ebf9" height="322.37" rx="13.51" transform="matrix(.99 -.143 .143 .99 -25.84 43.93)" width="164.16" x="210.67" y="40.6"/><rect fill="#e8e7e3" height="317" rx="13.51" transform="matrix(.99 -.143 .143 .99 -25.45 43.93)" width="152.67" x="216.62" y="40.54"/><g clip-path="url(#clip-path)"><path d="m177.41 27.73h183.82v61.35h-183.82z" fill="#86ebf9" transform="matrix(.99 -.14 .14 .99 -5.58 39.11)"/></g><rect fill="#e8e7e3" height="2.88" rx="1.29" transform="matrix(.99 -.143 .143 .99 -3.33 46.65)" width="21.72" x="312.06" y="45.03"/><rect fill="#e8e7e3" height="2.88" rx="1.29" transform="matrix(.99 -.14 .14 .99 -4.56 46.92)" width="21.72" x="313.32" y="53.72"/><rect fill="#e8e7e3" height="2.88" rx="1.29" transform="matrix(.99 -.143 .143 .99 -5.79 47.18)" width="21.72" x="314.57" y="62.42"/><path d="m287.9 55-30.7 4.44a7.7 7.7 0 0 1 -8-5l-3.58-8.66 49-7.08-1.05 10a6.89 6.89 0 0 1 -5.67 6.3z" fill="#40c2d6"/><rect fill="#86ebf9" height="114.08" rx="9.44" transform="matrix(.99 -.143 .143 .99 -21.16 43.45)" width="118.49" x="232.49" y="111.94"/><rect fill="#e73f46" height="89.52" rx="6.56" transform="matrix(.99 -.14 .14 .99 -21.26 43.01)" width="22.96" x="277.19" y="124.66"/><rect fill="#e73f46" height="89.52" rx="6.56" transform="matrix(-.143 -.99 .99 -.143 162.27 479.35)" width="22.96" x="277.19" y="124.66"/><g fill="#86ebf9"><circle cx="263.05" cy="264.19" r="15.58"/><rect height="4.55" rx="2.05" transform="matrix(.99 -.14 .14 .99 -32.32 48.93)" width="77.04" x="285.77" y="247.09"/><rect height="4.55" rx="2.05" transform="matrix(.99 -.143 .143 .99 -34.31 47.76)" width="55.14" x="287.57" y="260.36"/><circle cx="270.32" cy="314.49" r="15.58"/><rect height="4.55" rx="2.05" transform="matrix(.99 -.143 .143 .99 -39.44 50.48)" width="77.04" x="293.03" y="297.4"/><rect height="4.55" rx="2.05" transform="matrix(.99 -.14 .14 .99 -41.43 49.31)" width="55.14" x="294.84" y="310.66"/></g><path d="m392.08 212.11s16.54 6.08 11.52 25.8-13.17 34.39-23.21 32.46-6.72-37.4.61-56.66 11.08-1.6 11.08-1.6z" fill="#955d43"/><path d="m370.2 164.15c5 .82 19.62 3.81 26.07 14.62 6 10 1.33 20.66-6.45 38.56-3.7 8.5-8.86 20.37-15.47 20.39-5.05 0-8.63-6.87-9.49-8.53-2.85-5.46-2.73-11-1-20a145.89 145.89 0 0 1 8.7-28.76z" fill="#834a27"/><path d="m365 127.8c5 .81 19.62 3.81 26.06 14.61 6 10 1.34 20.66-6.45 38.57-3.69 8.5-8.85 20.36-15.46 20.39-5.05 0-8.63-6.87-9.5-8.53-2.84-5.47-2.72-11-1-20a145.64 145.64 0 0 1 8.71-28.76z" fill="#955d43"/><path d="m179.62 133.55s8.42-7.9 15.55 4.15 25.13 92.15 20.46 141.61-.08 81.3-.08 81.3-43.55-38.38-45.49-67.25 11.19-78.18 11.19-78.18z" fill="#955d43"/><path d="m146.61 368.76c22.52 11.7 91.5 47.15 123.28 58.82a9.13 9.13 0 0 1 5.71 10.85l-9.37 36.4a9.12 9.12 0 0 1 -10.51 6.7c-22.68-4.25-87-19.66-141-64.84a9.12 9.12 0 0 1 -1.71-12l21.81-32.86a9.12 9.12 0 0 1 11.79-3.07z" fill="#917eec"/></g></svg>