<svg height="512" viewBox="0 0 512 512" width="512" xmlns="http://www.w3.org/2000/svg" xmlns:xlink="http://www.w3.org/1999/xlink"><clipPath id="clip-path"><rect height="94.94" rx="19.67" transform="matrix(.943 .332 -.332 .943 58.25 -85.3)" width="43.85" x="256.76" y="80.31"/></clipPath><clipPath id="clip-path-2"><rect height="94.94" rx="19.67" transform="matrix(.943 .332 -.332 .943 78.25 -121.23)" width="43.85" x="371.9" y="120.85"/></clipPath><clipPath id="clip-path-3"><rect height="94.94" rx="19.67" transform="matrix(.943 .332 -.332 .943 92.76 -66.09)" width="43.85" x="217.83" y="190.89"/></clipPath><clipPath id="clip-path-4"><rect height="94.94" rx="19.67" transform="matrix(.943 .332 -.332 .943 112.76 -102.03)" width="43.85" x="332.97" y="231.42"/></clipPath><clipPath id="clip-path-5"><rect height="94.94" rx="19.67" transform="matrix(.943 .332 -.332 .943 127.27 -46.89)" width="43.85" x="178.9" y="301.46"/></clipPath><clipPath id="clip-path-6"><rect height="94.94" rx="19.67" transform="matrix(.943 .332 -.332 .943 147.27 -82.82)" width="43.85" x="294.04" y="342"/></clipPath><clipPath id="clip-path-7"><rect height="94.94" rx="19.67" transform="matrix(.943 .332 -.332 .943 59.63 -87.77)" width="43.85" x="264.68" y="83.1"/></clipPath><clipPath id="clip-path-8"><rect height="94.94" rx="19.67" transform="matrix(.943 .332 -.332 .943 79.62 -123.7)" width="43.85" x="379.81" y="123.64"/></clipPath><clipPath id="clip-path-9"><rect height="94.94" rx="19.67" transform="matrix(.943 .332 -.332 .943 94.14 -68.56)" width="43.85" x="225.75" y="193.67"/></clipPath><clipPath id="clip-path-10"><rect height="94.94" rx="19.67" transform="matrix(.943 .332 -.332 .943 114.13 -104.5)" width="43.85" x="340.88" y="234.21"/></clipPath><clipPath id="clip-path-11"><rect height="94.94" rx="19.67" transform="matrix(.943 .332 -.332 .943 128.65 -49.36)" width="43.85" x="186.81" y="304.25"/></clipPath><clipPath id="clip-path-12"><rect height="94.94" rx="19.67" transform="matrix(.943 .332 -.332 .943 148.65 -85.3)" width="43.85" x="301.95" y="344.78"/></clipPath><clipPath id="clip-path-13"><path d="m162.9 130.33h-78.23a8 8 0 0 1 -8-8.78l8-83.18a8 8 0 0 1 8-7.26h62.33a8 8 0 0 1 8 7.26l7.94 83.18a8 8 0 0 1 -8.04 8.78z"/></clipPath><clipPath id="clip-path-14"><path d="m93.49 154.57h57.79a55.73 55.73 0 0 1 55.72 55.73v216.38a15.93 15.93 0 0 1 -15.93 15.93h-134.58a15.93 15.93 0 0 1 -15.93-15.93v-219.17a52.93 52.93 0 0 1 52.93-52.94z"/></clipPath><clipPath id="clip-path-15"><path d="m40.56 227.31h166.46v156.07h-166.46z"/></clipPath><g id="Medicine"><rect fill="#efbd42" height="397.75" rx="18.94" transform="matrix(.943 .332 -.332 .943 103.26 -84.96)" width="234.09" x="183.16" y="60.77"/><g fill="#d7981a"><rect height="358.02" rx="4.79" transform="matrix(.943 .332 -.332 .943 103.26 -84.96)" width="10.67" x="294.87" y="80.63"/><rect height="94.94" rx="19.67" transform="matrix(.943 .332 -.332 .943 58.25 -85.3)" width="43.85" x="256.76" y="80.31"/><g clip-path="url(#clip-path)"><rect height="94.94" rx="19.67" transform="matrix(.943 .332 -.332 .943 58.25 -85.3)" width="43.85" x="256.76" y="80.31"/><path d="m254.96 71.97h66.33v57.41h-66.33z" transform="matrix(.943 .332 -.332 .943 49.79 -89.97)"/></g><rect height="94.94" rx="19.67" transform="matrix(.943 .332 -.332 .943 78.25 -121.23)" width="43.85" x="371.9" y="120.85"/><g clip-path="url(#clip-path-2)"><rect height="94.94" rx="19.67" transform="matrix(.943 .332 -.332 .943 78.25 -121.23)" width="43.85" x="371.9" y="120.85"/><path d="m370.1 112.51h66.33v57.41h-66.33z" transform="matrix(.943 .332 -.332 .943 69.78 -125.91)"/></g><rect height="94.94" rx="19.67" transform="matrix(.943 .332 -.332 .943 92.76 -66.09)" width="43.85" x="217.83" y="190.89"/><g clip-path="url(#clip-path-3)"><rect height="94.94" rx="19.67" transform="matrix(.943 .332 -.332 .943 92.76 -66.09)" width="43.85" x="217.83" y="190.89"/><path d="m216.03 182.54h66.33v57.41h-66.33z" transform="matrix(.943 .332 -.332 .943 84.3 -70.77)"/></g><rect height="94.94" rx="19.67" transform="matrix(.943 .332 -.332 .943 112.76 -102.03)" width="43.85" x="332.97" y="231.42"/><g clip-path="url(#clip-path-4)"><rect height="94.94" rx="19.67" transform="matrix(.943 .332 -.332 .943 112.76 -102.03)" width="43.85" x="332.97" y="231.42"/><path d="m331.17 223.08h66.33v57.41h-66.33z" transform="matrix(.943 .332 -.332 .943 104.29 -106.7)"/></g><rect height="94.94" rx="19.67" transform="matrix(.943 .332 -.332 .943 127.27 -46.89)" width="43.85" x="178.9" y="301.46"/><g clip-path="url(#clip-path-5)"><rect height="94.94" rx="19.67" transform="matrix(.943 .332 -.332 .943 127.27 -46.89)" width="43.85" x="178.9" y="301.46"/><path d="m177.1 293.12h66.33v57.41h-66.33z" transform="matrix(.943 .332 -.332 .943 118.81 -51.56)"/></g><rect height="94.94" rx="19.67" transform="matrix(.943 .332 -.332 .943 147.27 -82.82)" width="43.85" x="294.04" y="342"/><g clip-path="url(#clip-path-6)"><rect height="94.94" rx="19.67" transform="matrix(.943 .332 -.332 .943 147.27 -82.82)" width="43.85" x="294.04" y="342"/><path d="m292.24 333.65h66.33v57.41h-66.33z" transform="matrix(.943 .332 -.332 .943 138.8 -87.5)"/></g><path d="m207.54 170.41s22.5 17.48 23.69 62.46-3.35 181.72-5.86 192a29.86 29.86 0 0 1 -9.81 15.78l-30.56-10.45-21.5-158.86 27-56.29z"/></g><g clip-path="url(#clip-path-7)"><rect fill="#e8e7e3" height="94.94" rx="19.67" transform="matrix(.943 .332 -.332 .943 59.63 -87.77)" width="43.85" x="264.68" y="83.1"/><path d="m262.88 74.76h66.33v57.41h-66.33z" fill="#c6c6c6" transform="matrix(.943 .332 -.332 .943 51.16 -92.44)"/></g><g clip-path="url(#clip-path-8)"><rect fill="#e8e7e3" height="94.94" rx="19.67" transform="matrix(.943 .332 -.332 .943 79.62 -123.7)" width="43.85" x="379.81" y="123.64"/><path d="m378.02 115.29h66.33v57.41h-66.33z" fill="#c6c6c6" transform="matrix(.943 .332 -.332 .943 71.16 -128.38)"/></g><g clip-path="url(#clip-path-9)"><rect fill="#e8e7e3" height="94.94" rx="19.67" transform="matrix(.943 .332 -.332 .943 94.14 -68.56)" width="43.85" x="225.75" y="193.67"/><path d="m223.95 185.33h66.33v57.41h-66.33z" fill="#c6c6c6" transform="matrix(.943 .332 -.332 .943 85.67 -73.24)"/></g><g clip-path="url(#clip-path-10)"><rect fill="#e8e7e3" height="94.94" rx="19.67" transform="matrix(.943 .332 -.332 .943 114.13 -104.5)" width="43.85" x="340.88" y="234.21"/><path d="m339.09 225.87h66.33v57.41h-66.33z" fill="#c6c6c6" transform="matrix(.943 .332 -.332 .943 105.67 -109.17)"/></g><g clip-path="url(#clip-path-11)"><rect fill="#e8e7e3" height="94.94" rx="19.67" transform="matrix(.943 .332 -.332 .943 128.65 -49.36)" width="43.85" x="186.81" y="304.25"/><path d="m185.02 295.9h66.33v57.41h-66.33z" fill="#c6c6c6" transform="matrix(.943 .332 -.332 .943 120.18 -54.03)"/></g><g clip-path="url(#clip-path-12)"><rect fill="#e8e7e3" height="94.94" rx="19.67" transform="matrix(.943 .332 -.332 .943 148.65 -85.3)" width="43.85" x="301.95" y="344.78"/><path d="m300.16 336.44h66.33v57.41h-66.33z" fill="#c6c6c6" transform="matrix(.943 .332 -.332 .943 140.18 -89.97)"/></g><path d="m70.78 128.1h106.01v44.03h-106.01z" fill="#6d5fde"/><g clip-path="url(#clip-path-13)"><path d="m162.9 130.33h-78.23a8 8 0 0 1 -8-8.78l8-83.18a8 8 0 0 1 8-7.26h62.33a8 8 0 0 1 8 7.26l7.94 83.18a8 8 0 0 1 -8.04 8.78z" fill="#917eec"/><path d="m70.78 83.18h104.21v34.32h-104.21z" fill="#6d5fde"/></g><rect fill="#6d5fde" height="32.33" rx="2.33" width="5.2" x="90.72" y="44.86"/><rect fill="#6d5fde" height="32.33" rx="2.33" width="5.2" x="105.95" y="44.86"/><rect fill="#6d5fde" height="32.33" rx="2.33" width="5.2" x="121.19" y="44.86"/><rect fill="#6d5fde" height="32.33" rx="2.33" width="5.2" x="136.42" y="44.86"/><rect fill="#6d5fde" height="32.33" rx="2.33" width="5.2" x="151.66" y="44.86"/><rect fill="#917eec" height="46.82" rx="8.5" width="119.65" x="63.96" y="94.1"/><g clip-path="url(#clip-path-14)"><path d="m93.49 154.57h57.79a55.73 55.73 0 0 1 55.72 55.73v216.38a15.93 15.93 0 0 1 -15.93 15.93h-134.58a15.93 15.93 0 0 1 -15.93-15.93v-219.17a52.93 52.93 0 0 1 52.93-52.94z" fill="#917eec"/><path d="m141.92 149.28a72.87 72.87 0 0 1 17.46 13.72c14.15 15.23 18.13 33.1 20.07 43.84 19.76 109.41-8.92 226.67-8.92 226.67-2.57 10.52-4.88 19-6.28 24h42.75l11.77-12.14v-281.26l-15.17-19.92h-36.42z" fill="#6d5fde"/></g><path d="m40.56 227.31h166.46v156.07h-166.46z" fill="#86ebf9"/><g clip-path="url(#clip-path-15)"><path d="m180.43 213.38a525.58 525.58 0 0 1 -3.64 180h39.68v-180z" fill="#40c2d6"/></g><path d="m148.1 333c-4.9 4.4-17 10.31-29.84 8.38 0 0-11.64-1.74-19.58-10.06-13.46-14.12-3-46.45 25-80 29.67 35.41 38.66 68.88 24.42 81.68z" fill="#e73f46"/><rect fill="#40c2d6" height="13.93" rx="4.75" width="47.38" x="46.02" y="235.12"/><circle cx="69.15" cy="358.02" fill="#40c2d6" r="17.56"/></g></svg>