<svg xmlns="http://www.w3.org/2000/svg" width="512" height="512" viewBox="0 0 512 512"><defs><style>.cls-1{fill:#00ccc1}.cls-2{fill:#aaeeea}.cls-3{fill:#fff3e3}.cls-4{fill:#ffb833}.cls-5{fill:#ffb08d}.cls-10,.cls-12,.cls-13,.cls-6,.cls-7{fill:none;stroke-linecap:round;stroke-linejoin:round}.cls-10,.cls-12,.cls-6,.cls-7{stroke:#383333}.cls-6{stroke-width:4px}.cls-7{stroke-width:.75px}.cls-8{fill:#ff8c5f}.cls-11,.cls-9{fill:#383333}.cls-10,.cls-11{fill-rule:evenodd}.cls-13{stroke:#fff}</style></defs><g id="Option"><rect width="121.06" height="105.79" x="325.82" y="31" class="cls-1" rx="11.77" transform="translate(772.7 167.79) rotate(-180)"/><path d="M351.66,133.79s-5.21,23.38-24.26,25.08a.92.92,0,0,1-.92-1.3c1.9-4.33,6.8-17.87-.66-28.79Z" class="cls-1"/><rect width="129.64" height="113.29" x="357.12" y="148.74" class="cls-2" rx="11.77"/><path d="M459.08,258.81s5.59,25.05,26,26.87a1,1,0,0,0,1-1.4c-2-4.63-7.29-19.14.7-30.83Z" class="cls-2"/><path d="M381.48,66.91s11.69,1.67,15.66-3.76S403.82,50.42,408.62,50s1,17.15,1,17.15,13.78-1.28,16.28,2.06,2.3,31.52,0,42-47.17,6.06-50.51,3.55-6.05-5.84-4.59-20.45S370.21,69.42,381.48,66.91Z" class="cls-3"/><path d="M366.67,66.71s-12.36-2.07-13.29,2.36-4.89,42.43,0,45.46,15.42,1.89,17.05,0-3.76-8.2-2.59-23.22S372.73,70.7,372,67.9,366.67,66.71,366.67,66.71Z" class="cls-3"/><path d="M441.51,233.48s-14.07-2-18.84,4.52-8,15.32-13.81,15.83-1.26-20.64-1.26-20.64S391,234.74,388,230.72s-2.76-37.92,0-50.48S444.77,173,448.79,176s7.29,7,5.53,24.61S455.07,230.47,441.51,233.48Z" class="cls-3"/><path d="M459.33,233.72s14.87,2.5,16-2.83,5.89-51.06,0-54.71-18.55-2.27-20.51,0,4.52,9.87,3.12,27.94-5.89,24.81-5.05,28.17S459.33,233.72,459.33,233.72Z" class="cls-3"/><rect width="3.51" height="18.81" x="193.35" y="59.58" class="cls-4" rx="1.63" transform="translate(8.37 158.17) rotate(-45)"/><rect width="3.51" height="18.81" x="193.35" y="59.58" class="cls-4" rx="1.63" transform="translate(284.29 255.73) rotate(-135)"/><rect width="3.51" height="18.81" x="331.09" y="196.62" class="cls-4" rx="1.63" transform="translate(-48.19 295.7) rotate(-45)"/><rect width="3.51" height="18.81" x="331.09" y="196.62" class="cls-4" rx="1.63" transform="translate(422.53 587.07) rotate(-135)"/><rect width="4.46" height="23.88" x="97.28" y="235.8" class="cls-4" rx="1.73" transform="translate(-146.03 142.92) rotate(-45)"/><rect width="4.46" height="23.88" x="97.28" y="235.8" class="cls-4" rx="1.73" transform="translate(-5.31 493.27) rotate(-135)"/><rect width="4.46" height="23.88" x="291.19" y="53.54" class="cls-4" rx="1.73" transform="translate(39.64 226.65) rotate(-45)"/><rect width="4.46" height="23.88" x="291.19" y="53.54" class="cls-4" rx="1.73" transform="translate(454.59 319.26) rotate(-135)"/><path d="M338.76,295.79c-26.3-11.91-66.56,11.94-78.89-5.77,0,0-2.38-3.43-2.43-40.41h0l-50.62-1.87-4.19,4.18v10.56c-1.09,8.66-3.52,24.07-7.52,28.69-5.66,6.54-42.21-14.24-58-3.46s-36.77,125.73-36.77,125.73l123.36,38.72,145.86-3.74C377.74,343.51,361,305.85,338.76,295.79Z" class="cls-5"/><path d="M137.12,287.71c-15.78,10.77-36.77,125.73-36.77,125.73l123.36,38.72,145.86-3.74c8.17-104.91-8.58-142.57-30.81-152.63-22.53-10.2-55.29,5.82-72-.51-2.2,9.75-10.66,36.62-36.63,32.83-31.64-4.62-44.51-36.28-44.51-36.28h0C172.19,289.18,148.88,279.67,137.12,287.71Z" class="cls-1"/><line x1="472.92" x2="32.81" y1="450.62" y2="450.54" class="cls-6"/><path d="M289.81,445.44s18.92,26.11,23.51,28.86,5.88-2.39,5.88-2.39,7,10.11,10.66,9,2.34-7,2.34-7,3.17,7,7.58,4.61.92-8.83.92-8.83,2.94,2.72,5.27,1.76a3.77,3.77,0,0,0,1.71-1.76c1.92-3.82-4.17-28.69-26.22-41.43,0,0-2.46-1.42-28.9-10.56h0Z" class="cls-5"/><path d="M246.75,406.64A286.9,286.9,0,0,1,297.38,419a283.55,283.55,0,0,1,27.09,10.89l-24.39,29.23S283,447.52,246.75,447Z" class="cls-5"/><path d="M305.25,449.36s11.92,12.69,13.95,22.55" class="cls-7"/><path d="M314.1,442.34s15.47,20.4,17.55,29.57" class="cls-7"/><path d="M317.29,434.61s17.86,13.31,23.41,35.1" class="cls-7"/><path d="M274.15,412.13l-6.56,36.53c-38.62.72-69.36,1.59-89.3,2.21-44.48,1.38-60.43,2.3-70.42-8.85-15.11-16.88-5.16-48.68-.77-60.8q32,5.1,64.88,11Q224.39,401.61,274.15,412.13Z" class="cls-1"/><path d="M290.11,197c.8-.85,5.18-5.34,11.73-5.14,1,0,4.77.14,7.44,2.43,6.92,5.94,5.21,25.68-6.06,31.22-6.29,3.1-13.23.6-15.58-.37Q288.87,211,290.11,197Z" class="cls-8"/><path d="M306.93,203.14l-11.1,0s11.58,6.53,2.53,16" class="cls-7"/><path d="M162.36,212.45c-1-.67-6.15-4.19-12.53-2.67-.94.22-4.65,1.1-6.8,3.88-5.58,7.21.07,26.21,12.23,29.36,6.79,1.76,13.08-2.08,15.18-3.5Z" class="cls-8"/><path d="M147.12,221.89,158,219.62s-10,8.73.76,16.23" class="cls-7"/><circle cx="223.71" cy="189.16" r="74.66" class="cls-5"/><path d="M296.15,178.42c4.29,49.75-18.38,90.13-48.78,98.58-23,6.4-45.83-6.76-51.85-10.23-32.61-18.81-41.17-52.83-42.75-59.7a257.45,257.45,0,0,1,143.38-28.65Z" class="cls-5"/><path d="M175.49,196.38a24.54,24.54,0,0,1,13.16-6.84c3.37-.63,7.94-1.5,9.78.92a3.75,3.75,0,0,1,.52,3.75c-1.23,2.39-5.54,1.12-12,2.12-8.5,1.32-13.49,5.44-14.25,4.32C172.16,199.83,174.55,197.35,175.49,196.38Z" class="cls-9"/><path d="M269.28,182a24.49,24.49,0,0,0-14.65-2.29c-3.4.47-8,1.1-9,4a3.73,3.73,0,0,0,.7,3.72c1.93,1.87,5.61-.7,12-1.8,8.47-1.46,14.51.86,14.87-.45C273.54,184.24,270.48,182.65,269.28,182Z" class="cls-9"/><path d="M229,206s8.18,12.75,7.52,15.56-11.5,3.66-11.5,3.66" class="cls-10"/><ellipse cx="185.64" cy="236.87" class="cls-8" rx="9.53" ry="5.94" transform="translate(-32.41 29.45) rotate(-8.34)"/><ellipse cx="274" cy="223.91" class="cls-8" rx="9.53" ry="5.94" transform="translate(-29.59 42.13) rotate(-8.34)"/><path d="M204.74,214.65a7.08,7.08,0,1,1-1-10A7.09,7.09,0,0,1,204.74,214.65Z" class="cls-11"/><path d="M270.27,207.26a7.08,7.08,0,1,1-1.59-9.88A7.11,7.11,0,0,1,270.27,207.26Z" class="cls-11"/><path d="M163.67,163s8.22,27.92-8,40.08c0,0,8.89,23.27,7.87,26.3s-12.36-1.2-22.66-34.56c0,0-8.75,8.58-14.53-13.35s16.48-57.34,39.41-71.19,40.59-9.24,40.59-9.24S238,82.22,264.53,97.23,309.9,139.56,310.67,150s-12.3,4.61-12.3,4.61,3.64,31.56,3,46.28-4.7,14.72-6.68,11.25-7.06-30.3-7.06-30.3a40,40,0,0,1-15.84-40.31,50.21,50.21,0,0,0-21.55-18.09c-23.36-10-45.59,2.86-48.19,4.43-1.7,4.4-13.59,34.3-33.48,35.5A21.34,21.34,0,0,1,163.67,163Z" class="cls-9"/><path d="M290.47,222.62c-1.75,3-12.4,21.12-20.78,37-1,1.92-2.75,5.3-2.24,9.44.8,6.48,6.55,10.3,9.35,12.88,6.93,6.34,10.84,34.05,10.84,34.05s42.56-14.4,44-17.6-22-30-24.71-39.54.66-53.3-3.19-59.26S293.17,196,290.47,222.62Z" class="cls-5"/><path d="M317.29,269.62C361.14,339,405.64,421,383,443.17c-4.85,4.75-15.4,6.42-23.86,5-18.15-3-29.37-21.51-38.48-39.25-11.93-23.24-28.48-61.26-40.79-116.21,5.61-3.94,11.64-7.94,18.09-11.93C304.62,276.67,311.08,273,317.29,269.62Z" class="cls-1"/><path d="M218.06,236.87a52.83,52.83,0,0,1,25.65,2" class="cls-10"/><path d="M225,240.38s6,.05,9.87,2.52" class="cls-7"/><path d="M293.41,206s-4.94,21.38-5.77,30.85-14.93,14.32-20.19,29" class="cls-10"/><path d="M201.55,270.05s32.42,15.62,56.34,2.6" class="cls-10"/><path d="M159.05,327a243.4,243.4,0,0,0-.57,67" class="cls-10"/><path d="M129.61,400.26S157.56,390.84,187,397s87.17,15.14,87.17,15.14" class="cls-10"/><path d="M280.43,296.69s24.27,138.78,78.72,151.48" class="cls-10"/><line x1="331.7" x2="368.24" y1="293.47" y2="359.14" class="cls-12"/><path d="M192.17,124s-9.84,21.17-17.34,22.9-13.47-5.2-13.47-5.2S158.86,164,146.93,170" class="cls-13"/><path d="M221.78,109.35s40.4,1.92,52.91,17.7" class="cls-13"/><path d="M273.29,112.43s20.48,13.85,25.08,27.9" class="cls-13"/><path d="M68.38,108.2a32.86,32.86,0,1,0,32.86,32.85A32.85,32.85,0,0,0,68.38,108.2Zm0,51.81a19,19,0,1,1,19-19A19,19,0,0,1,68.38,160Z" class="cls-1"/><rect width="16.18" height="19.12" x="60.29" y="97.18" class="cls-1" rx="2.31"/><rect width="16.18" height="19.12" x="60.29" y="164.35" class="cls-1" rx="2.31"/><rect width="16.18" height="19.12" x="93.87" y="130.76" class="cls-1" rx="2.31" transform="translate(242.29 38.36) rotate(90)"/><rect width="16.18" height="19.12" x="26.71" y="130.76" class="cls-1" rx="2.31" transform="translate(175.13 105.52) rotate(90)"/><rect width="16.18" height="19.12" x="84.04" y="154.51" class="cls-1" rx="2.31" transform="translate(273.29 214.94) rotate(135)"/><rect width="16.18" height="19.12" x="36.55" y="107.02" class="cls-1" rx="2.31" transform="translate(158.63 167.45) rotate(135)"/><rect width="16.18" height="19.12" x="84.04" y="107.02" class="cls-1" rx="2.31" transform="translate(109.42 -31) rotate(45)"/><rect width="16.18" height="19.12" x="36.55" y="154.51" class="cls-1" rx="2.31" transform="translate(129.09 16.49) rotate(45)"/><path d="M114.26,50.27a25.58,25.58,0,1,0,25.58,25.58A25.57,25.57,0,0,0,114.26,50.27Zm0,40.34A14.76,14.76,0,1,1,129,75.85,14.76,14.76,0,0,1,114.26,90.61Z" class="cls-2"/><rect width="12.6" height="14.89" x="107.97" y="41.7" class="cls-2" rx="2.31"/><rect width="12.6" height="14.89" x="107.97" y="93.98" class="cls-2" rx="2.31"/><rect width="12.6" height="14.89" x="134.11" y="67.84" class="cls-2" rx="2.31" transform="translate(215.69 -65.12) rotate(90)"/><rect width="12.6" height="14.89" x="81.83" y="67.84" class="cls-2" rx="2.31" transform="translate(163.41 -12.84) rotate(90)"/><rect width="12.6" height="14.89" x="126.45" y="86.32" class="cls-2" rx="2.31" transform="translate(292.92 66.2) rotate(135)"/><rect width="12.6" height="14.89" x="89.48" y="49.36" class="cls-2" rx="2.31" transform="translate(203.67 29.24) rotate(135)"/><rect width="12.6" height="14.89" x="126.45" y="49.36" class="cls-2" rx="2.31" transform="translate(79.04 -77.23) rotate(45)"/><rect width="12.6" height="14.89" x="89.48" y="86.32" class="cls-2" rx="2.31" transform="translate(94.36 -40.26) rotate(45)"/></g></svg>