<svg height="512" viewBox="0 0 512 512" width="512" xmlns="http://www.w3.org/2000/svg" xmlns:xlink="http://www.w3.org/1999/xlink"><clipPath id="clip-path"><rect height="147.2" rx="8.02" transform="matrix(-1 0 0 -1 679.98 271.9)" width="204.59" x="237.7" y="62.35"/></clipPath><clipPath id="clip-path-2"><path d="m97.16 210.69h47.28v79.31h-47.28z"/></clipPath><g id="Programmer"><g clip-path="url(#clip-path)"><path d="m237.7 62.35h204.59v147.2h-204.59z" fill="#efefef" transform="matrix(-1 0 0 -1 679.98 271.9)"/><path d="m229.51 55.59h220.92v25.09h-220.92z" fill="#40c2d6" transform="matrix(-1 0 0 -1 679.94 136.27)"/></g><rect fill="#efefef" height="6.11" rx="2.9" transform="matrix(-1 0 0 -1 538.23 142.66)" width="37.56" x="250.34" y="68.27"/><path d="m382.43 134.81 11.42-9.55-8.7-13.75-13.58 6.27a38.43 38.43 0 0 0 -15.79-8.66l-2-14.86h-16.24l-2 14.86a38.33 38.33 0 0 0 -15.78 8.66l-13.58-6.27-8.71 13.75 11.43 9.55a38.65 38.65 0 0 0 -.05 22.69l-11.35 9.5 8.71 13.75 13.42-6.2a38.48 38.48 0 0 0 16 8.82l1.91 14.63h16.28l1.93-14.62a38.35 38.35 0 0 0 16-8.82l13.43 6.2 8.7-13.75-11.37-9.51a38.73 38.73 0 0 0 -.08-22.69z" fill="#287eef"/><path d="m322.85 143.85 12.24-9.11a2.24 2.24 0 0 0 .91-1.8v-.58a.62.62 0 0 0 -1-.49l-15.8 11.76a.76.76 0 0 0 0 1.22l15.74 11.7a.66.66 0 0 0 1.06-.55v-.72a1.78 1.78 0 0 0 -.72-1.42l-12.43-9.24a.49.49 0 0 1 0-.77z" fill="#efefef"/><path d="m368.51 143.85-12.24-9.11a2.24 2.24 0 0 1 -.91-1.8v-.58a.61.61 0 0 1 1-.49l15.81 11.76a.76.76 0 0 1 0 1.22l-15.73 11.7a.66.66 0 0 1 -1.06-.53v-.72a1.77 1.77 0 0 1 .71-1.42l12.44-9.24a.5.5 0 0 0 -.02-.79z" fill="#efefef"/><path d="m338.71 165.11a1.11 1.11 0 0 1 -1.16-1.13c0-.13 0-.26 13.29-35.52.65-1.63 3-1.77 3-.2 0 .19 0 .23-13.26 35.52a2.09 2.09 0 0 1 -1.87 1.33z" fill="#efefef"/><path d="m95.64 250c-8.11.43-33.26 2.77-47.89 21.83-6.11 8-8 18.95-11.51 40.61-5.84 35.89-8.72 55.11 1.81 62.95 5.6 4.17 14.68 4.88 21.22 3.13 3.21-.86 16.88-9 17-9l91.53-63.12c1.28-1.79 15.31-22 7.28-37.58-5.48-10.65-18.22-13.37-35.16-17a133 133 0 0 0 -44.28-1.82z" fill="#efbd42"/><g clip-path="url(#clip-path-2)"><path d="m97.16 210.69h47.28v79.31h-47.28z" fill="#834a27"/><path d="m100.64 219.07c5 24.93 27.52 39.33 52.26 41.15q.51-13.19 1-26.37z" fill="#6e3d1e"/></g><path d="m187.47 183.43c-1.33-10.62-3.88-17.08-4.52-24-1.58-17.18.3-30.29-12-42a59.77 59.77 0 0 0 -13-11.29c-17.67-12.93-47-13.28-66.78 1.57-22.8 17.11-22.53 46.53-22.46 53.84.32 34.13 24 57 34.38 65.44a87.57 87.57 0 0 0 18.68 13.67c7.59 4 27.93 14.83 42.59 5.38 3.83-2.46 9.09-8.65 15.29-23.15 8.06-18.78 9.15-28.83 7.82-39.46z" fill="#834a27"/><g fill="#2d1929"><path d="m158.14 198.06c3.55-2 5.37-4 5.42-6 .09-4.57-8.91-5.55-11.81-21.36a.5.5 0 0 1 1-.19c2.87 15.61 11.94 16.27 11.83 21.57-.05 2.38-2.05 4.69-5.94 6.87a.5.5 0 0 1 -.5-.89z"/><path d="m170.86 178.31c-2.5.21-4.79-2.76-5.11-6.62s1.44-7.16 3.94-7.37 4.79 2.75 5.11 6.61-1.44 7.17-3.94 7.38z"/><path d="m132 181.56c-2.5.21-4.79-2.75-5.11-6.61s1.44-7.17 3.94-7.38 4.79 2.76 5.11 6.62-1.49 7.16-3.94 7.37z"/><path d="m155.61 151.54a1 1 0 0 1 -.65-1.76c.1-.08 10.07-8.48 21.38-2a1 1 0 0 1 -1 1.74c-10.1-5.76-19 1.73-19.09 1.81a1 1 0 0 1 -.64.21z"/><path d="m117.55 155.86a1 1 0 0 1 -.79-1.6c7.91-10.35 20.37-6.49 20.49-6.45a1 1 0 1 1 -.61 1.91c-.45-.15-11.25-3.46-18.29 5.75a1 1 0 0 1 -.8.39z"/></g><path d="m104.89 263.18s-44.1 14.09-52.29 35.46 16.62 144.63 42.26 152.26 128.14-11.63 128.14-11.63l-5.46-34.09-86.13 2.43-19.41-62.44z" fill="#efbd42"/><path d="m137 267s52-1.22 64.14 20 38.86 108.1 38.86 108.1l59.91 10.69-45.74 35.21a154.55 154.55 0 0 1 -83.89-14z" fill="#efbd42"/><path d="m83.52 290 25.48 162.63 131.54-4.34-52.54-163.14s-72.67-31.05-104.48 4.85z" fill="#efbd42"/><path d="m97.16 266s10.3 24.62 28.79 24.32 18.49-23.32 18.49-23.32a99.67 99.67 0 0 0 -16.21-12c-10.46-6.17-20.32-12-26.37-8.18-6.39 4.03-5.02 16.63-4.7 19.18z" fill="#834a27"/><path d="m196.27 300.61 10.95 62.05c-3.73 13.54-10.13 27.51-21.86 31.31-16.5 5.35-35.93-11.93-37.58-9.4-1.21 1.85 8.9 11.37 20 18.79a116.88 116.88 0 0 0 25.16 12.73l-5.17 3.53.62 29.21 74.87-.54 2.21-26.81-51.31-63.55z" fill="#d7981a"/><path d="m250.83 406s38.5-10 48.8-9.7 34.08 23.23 31.81 27.19-15.44-4.28-15.44-4.28 4.32 7.06 1.13 8.88-12.95-8.88-12.95-8.88 5.68 9.79 2.5 12.52-15.47-12.52-15.47-12.52 5.24 10.9 2.06 12.84-11.11-8.05-13.27-8.05-7.64 10.25-20.6 8.3l-16.59 4.95-6.59-28.94z" fill="#6e3d1e"/><path d="m196.62 419.46s38.49-10 48.8-9.7 34.07 23.22 31.81 27.18-15.44-4.23-15.44-4.23 4.32 7.06 1.13 8.88-13-8.88-13-8.88 5.68 9.78 2.5 12.51-15.42-12.51-15.42-12.51 5.24 10.89 2.05 12.84-11.1-8.06-13.27-8.06-7.64 10.25-20.6 8.31l-16.79 3q-3.33-14.55-6.67-29.1z" fill="#834a27"/><path d="m139.29 207.86a55 55 0 0 0 25.38 4.62 12.46 12.46 0 0 1 -13.67 10.23c-5.94-.71-11.23-6.82-11.71-14.85z" fill="#efefef"/><path d="m129.89 295.46a47.66 47.66 0 0 1 -19.32.91c-7.35-1.22-9.9-3.56-17-6.06-5.81-2-22.32-7.82-32.28-1.9-9.13 5.44-10 19.06-10.68 30.92-1.83 30.05 10 58.66 10 58.66s-6.73-47.93-2.52-70c1.1-5.77 3.08-10.13 6.82-12.73 3.32-2.31 7.27-2.71 13.87-2 20.27 2 26.6 10.19 38.87 7.95a28.26 28.26 0 0 0 12.24-5.75z" fill="#d7981a"/><path d="m96.86 254.09a47.17 47.17 0 0 0 -14 1.36c-10.73 2.73-22.77 9.94-21.82 14.25.78 3.56 9.85 2 24.85 5.45 26.33 6 30.37 17.91 43.95 15.16 14.47-2.93 22.43-18.95 22.43-25.46 0-5.76-7.88-6.67-7.88-6.67.82 11.51-4.7 22.48-9.39 25.61-7.69 5.13-24.76-.46-37.89-17.28z" fill="#2d1929"/><path d="m134.39 294.32s17 1.82 27.63-6.36 12.66-15.28 12.66-15.28-3.52 33.69-40.29 21.64z" fill="#d7981a"/><path d="m83.22 174.57 6.36-24s10.57 1.86 14.68-19.06 21.25-8.18 32.69-13.34 10.83-9.09 10.83-9.09 20.11 1.53 30.67 18.8c0 0 30.36-28.5 0-46.68 0 0-1.88 12.12-10.06 7.27s-86.69-18.22-94.57 12.09c0 0-25.46 9.7-24.55 37s18.49 71.61 47.89 84.15z" fill="#917eec"/><path d="m86.19 195.21c-7.68 3.1-17-2-20.73-11.28s-.6-19.4 7.08-22.51 17 2 20.73 11.28.6 19.41-7.08 22.51z" fill="#834a27"/><path d="m86.91 186.35s-5.11-.75-5.57-5.64c-.29-3.05 3.53-4.25 5.1-4.61-2-4.11-5.73-9.32-10.3-9.09-5.1.25-4.94 6-4.93 6.26a.5.5 0 0 1 -1 0c0-.07-.21-7 5.88-7.3h.35c6.78 0 11 9.85 11.18 10.28a.5.5 0 0 1 -.39.68s-5.16.84-4.9 3.65c.39 4.1 4.54 4.73 4.71 4.75a.5.5 0 0 1 -.13 1.02z" fill="#2d1929"/><path d="m237.66 434c-.35 0 .09.42-6.16-7.49a.49.49 0 0 1 .08-.7.5.5 0 0 1 .7.08l5.77 7.3a.5.5 0 0 1 -.39.81z" fill="#2d1929"/><path d="m250 433.21a.5.5 0 0 1 -.43-.25l-6.11-10.25a.5.5 0 0 1 .86-.51l6.11 10.25a.5.5 0 0 1 -.43.76z" fill="#2d1929"/><path d="m261.79 433.21c-.37 0 .35.81-9.39-12.27a.51.51 0 0 1 .1-.7.5.5 0 0 1 .7.1l9 12.07a.5.5 0 0 1 -.41.8z" fill="#2d1929"/><path d="m174.53 417.27 18.1 2.26 4.7 30.18-33.96 1.12z" fill="#efbd42"/><path d="m106.68 324.1s8.66 11.14 8.21 30.35l5.91 48.76a48.13 48.13 0 0 0 -20.46 23c1.39-1.62 15.58-18.08 23.64-17.32.28 0 2.14.23 4.56.68 8.45 1.56 7.76 3.11 26.25 5.92 4.08.62 7.56 1 10.34 3.86 4.64 4.71 3.81 12.53 3.18 16.14a17.57 17.57 0 0 0 3.75-14.55l9.66-1-9.88-3.64a14.45 14.45 0 0 0 -1.37-1.48c-4.5-4.19-10.77-4.15-13-4.2-6.31-.14-16.31-1.86-31-5.34q-4.2-25.41-8.41-50.81s1.78-21.47-11.38-30.37z" fill="#d7981a"/><path d="m439 413.5h-228.64a4 4 0 0 1 -4-4l2.67-155.6a4 4 0 0 1 3.97-3.9h264a4 4 0 0 1 3.84 4.88l-38.06 155.6a3.94 3.94 0 0 1 -3.78 3.02z" fill="#2d1929"/><path d="m332.36 448.29h-109.66a3.95 3.95 0 0 1 -.49-7.86l109.67-13.67a4 4 0 0 1 4.43 3.92v13.67a3.94 3.94 0 0 1 -3.95 3.94z" fill="#2d1929"/><path d="m366.47 448.29h-39.14a4 4 0 0 1 -3.92-3.48l-10.49-89.66a4 4 0 0 1 3.92-4.4h44a3.94 3.94 0 0 1 3.93 3.7l5.61 89.65a3.94 3.94 0 0 1 -3.91 4.19z" fill="#287eef"/></g></svg>