<svg height="512" viewBox="0 0 512 512" width="512" xmlns="http://www.w3.org/2000/svg"><g id="Jade_Roller" data-name="Jade Roller"><path d="m193.67 171.3s16.44 53.9 60.68 49.29 45.19 4.25 62.26-7.14 31.65-41.36 30.52-67.92-145.56-15.12-153.46 25.77z" fill="#383333"/><path d="m204.81 151.27c-.82-.76-5.26-4.74-11.48-4.14-.9.09-4.52.44-6.91 2.79-6.19 6.08-3.31 24.73 7.75 29.27 6.17 2.54 12.61-.27 14.77-1.34q-2.05-13.29-4.13-26.58z" fill="#ff8c5f"/><path d="m334 148.16c.77-.8 5-5 11.26-4.69.91.05 4.54.23 7 2.45 6.47 5.78 4.5 24.54-6.33 29.61-6.05 2.84-12.61.34-14.83-.62q1.48-13.38 2.9-26.75z" fill="#ff8c5f"/><path d="m198.38 173.25a.35.35 0 0 1 -.25-.1c-2.79-2.56-4.08-5.25-3.86-8 .28-3.41 2.81-6 4.27-7.21l-9.3.65a.37.37 0 0 1 -.4-.35.38.38 0 0 1 .35-.4l10.55-.74a.37.37 0 0 1 .38.26.38.38 0 0 1 -.15.43c-.05 0-4.6 3.07-4.95 7.43-.21 2.51 1 5 3.62 7.39a.38.38 0 0 1 0 .53.39.39 0 0 1 -.26.11z" fill="#383333"/><path d="m341.09 169.82a.4.4 0 0 1 -.27-.11.39.39 0 0 1 0-.53c2.49-2.52 3.58-5.07 3.26-7.56-.57-4.35-5.26-7.16-5.3-7.18a.38.38 0 0 1 -.17-.43.37.37 0 0 1 .37-.27l10.56.23a.38.38 0 0 1 .37.38.37.37 0 0 1 -.37.37l-9.32-.2c1.52 1.15 4.17 3.6 4.61 7 .36 2.74-.81 5.49-3.47 8.19a.38.38 0 0 1 -.27.11z" fill="#383333"/><path d="m378.48 209.89 4.76-12.54a1.9 1.9 0 0 1 3.58.08l4.18 12.66a1.92 1.92 0 0 0 1.21 1.21l8.68 2.88a1.9 1.9 0 0 1 0 3.59l-8.89 3.23a1.86 1.86 0 0 0 -1.16 1.19l-4.77 14.41a1.9 1.9 0 0 1 -3.62-.07l-4.16-14.3a1.9 1.9 0 0 0 -1.17-1.25l-8.78-3.2a1.89 1.89 0 0 1 0-3.57l9-3.15a1.93 1.93 0 0 0 1.14-1.17z" fill="#ffb833"/><path d="m140.39 423.38 4.76-12.54a1.9 1.9 0 0 1 3.58.08l4.15 12.66a1.92 1.92 0 0 0 1.21 1.21l8.68 2.88a1.9 1.9 0 0 1 0 3.59l-8.9 3.18a1.86 1.86 0 0 0 -1.16 1.19l-4.71 14.37a1.9 1.9 0 0 1 -3.62-.07l-4.16-14.3a1.9 1.9 0 0 0 -1.17-1.25l-8.78-3.2a1.89 1.89 0 0 1 0-3.57l9-3.15a1.93 1.93 0 0 0 1.12-1.08z" fill="#ffb833"/><path d="m124 149.48 5.92-15.58a2.35 2.35 0 0 1 4.44.1l5.16 15.73a2.36 2.36 0 0 0 1.5 1.5l10.79 3.58a2.36 2.36 0 0 1 .05 4.46l-11.06 3.95a2.33 2.33 0 0 0 -1.44 1.48l-5.93 17.9a2.36 2.36 0 0 1 -4.5-.08l-5.17-17.77a2.34 2.34 0 0 0 -1.45-1.55l-10.92-4a2.36 2.36 0 0 1 0-4.44l11.15-3.91a2.37 2.37 0 0 0 1.46-1.37z" fill="#ffb833"/><circle cx="268.86" cy="130.32" fill="#ffb08d" r="75.37"/><path d="m243.09 196.63c3.95 24.11-1.17 36.31-7.58 43-13.58 14.12-31.51 7.22-43.61 19.59-15.51 15.85-3.47 46.94 3.16 80.9 5.41 27.76 9.31 68.26.62 120.71 14.9 5 33.32 9.1 54.56 11.74 31.48 3.91 71.38 3.91 105-11.74-11.86-40.05-13.73-73-13-96.7 1.77-54.44 18.65-95.4-1.9-112.5-11.4-9.49-24.26-3.22-36.65-15.8-11.8-12-12.76-30.4-11.54-44.71a34 34 0 0 0 -49.14 5.53z" fill="#ffb08d"/><path d="m115.74 338a24.25 24.25 0 0 0 6.79 8.69c15.64 12.35 48 3.28 81.06-21l-7.43-43.77-30.93 26.36a150 150 0 0 0 -18.18 8 152.63 152.63 0 0 0 -31.31 21.72z" fill="#ffb08d"/><path d="m316.35 243.42s32.76-1.13 44.61 17.83 37.93 187.24 37.93 187.24c-4.08 2.12-8.56 4.21-13.45 6.16a146.07 146.07 0 0 1 -30.64 8.46q-14.93-78.64-29.86-157.3s-35.19-47.04-8.59-62.39z" fill="#ffb08d"/><path d="m203.59 298.87s66.84 8.77 133.67-2.61a64.66 64.66 0 0 1 8.06 16.12c5.92 17.77 2.28 33.66 1.42 37.92-3.13 15.58-3.26 46.4 8.89 112.66a198.11 198.11 0 0 1 -52.26 15.56c-50.34 7.64-91.29-6.27-111.63-14.93 8.74-60.18 7.36-90.31 3.79-106.66-1-4.7-5.12-21.45.48-40.76a72.87 72.87 0 0 1 7.58-17.3z" fill="#ff535c"/><path d="m193.49 133.14c5 43.11 27.95 76.65 58.82 84.91a61.73 61.73 0 0 0 31.38-.08c31.3-8.27 54.72-41.18 61.1-83.44 0 0-104.05-67.53-151.3-1.39z" fill="#ffb08d"/><path d="m223.2 136.69a24.57 24.57 0 0 1 14-4.95c3.43-.17 8.07-.39 9.57 2.26a3.75 3.75 0 0 1 0 3.79c-1.56 2.2-5.65.35-12.19.44-8.61.13-14.13 3.53-14.73 2.31-.43-.88 2.28-3.01 3.35-3.85z" fill="#383333"/><path d="m311.25 135.15a24.56 24.56 0 0 0 -14.3-4c-3.43.06-8.08.15-9.39 2.9a3.75 3.75 0 0 0 .26 3.79c1.7 2.08 5.66 0 12.19-.39 8.6-.45 14.33 2.56 14.84 1.31.38-.9-2.48-2.84-3.6-3.61z" fill="#383333"/><path d="m270.48 168c-3.16 0-6.66-.39-7.4-2-1.22-2.75 3.92-15.63 4.5-17.09a.51.51 0 0 1 .66-.28.5.5 0 0 1 .27.65c-2.16 5.37-5.3 14.53-4.51 16.31.71 1.59 7.14 1.64 11.48 1.17a.5.5 0 0 1 .55.45.5.5 0 0 1 -.44.55c-.78.07-2.86.24-5.11.24z" fill="#383333"/><path d="m243.05 158.4a6.37 6.37 0 1 1 .34-9 6.38 6.38 0 0 1 -.34 9z" fill="#383333" fill-rule="evenodd"/><path d="m228.06 149.73c.13-.12 1.43 2 3 1.82 1.18-.15 1.45-1.45 2.93-2.63a7.61 7.61 0 0 1 4.46-1.54 16.66 16.66 0 0 1 -2.48 3.77c-1.42 1.61-2.33 2.65-3.6 2.7-2.55.15-4.5-3.96-4.31-4.12z" fill="#383333" fill-rule="evenodd"/><path d="m301.76 156.43a6.37 6.37 0 1 1 -.77-9 6.38 6.38 0 0 1 .77 9z" fill="#383333" fill-rule="evenodd"/><path d="m307.34 147.82c-.15-.11-1.34 2.08-2.95 2-1.18-.09-1.52-1.38-3.05-2.48a7.64 7.64 0 0 0 -4.53-1.33 16.37 16.37 0 0 0 2.66 3.65c1.49 1.55 2.46 2.54 3.73 2.53 2.58-.07 4.33-4.19 4.14-4.37z" fill="#383333" fill-rule="evenodd"/><ellipse cx="227.16" cy="170.61" fill="#ff8c5f" rx="9.72" ry="6.11" transform="matrix(1 -.024 .024 1 -4.04 5.52)"/><ellipse cx="305.89" cy="168.71" fill="#ff8c5f" rx="9.72" ry="6.11" transform="matrix(1 -.024 .024 1 -3.97 7.41)"/><path d="m268.5 220.05a66.69 66.69 0 0 1 -24.3-4.47.5.5 0 0 1 -.25-.66.49.49 0 0 1 .66-.25c.23.1 23.88 10.3 48.31-.74a.49.49 0 0 1 .66.25.49.49 0 0 1 -.25.66 60 60 0 0 1 -24.83 5.21z" fill="#383333"/><path d="m269.34 184.71a27.36 27.36 0 0 1 -18.56-7.41.49.49 0 0 1 0-.7.5.5 0 0 1 .71 0 26.38 26.38 0 0 0 17.87 7.13h.35a26.72 26.72 0 0 0 18.42-8 .5.5 0 1 1 .72.69 27.72 27.72 0 0 1 -19.12 8.32z" fill="#383333"/><path d="m270.43 190.48h-.12a9.09 9.09 0 0 1 -4.85-1.48.37.37 0 0 1 -.11-.52.38.38 0 0 1 .52-.11 8.22 8.22 0 0 0 4.45 1.36 8.35 8.35 0 0 0 4.68-1.36.38.38 0 1 1 .41.63 9.24 9.24 0 0 1 -4.98 1.48z" fill="#383333"/><path d="m231.1 203.47h-.1a1 1 0 0 1 -.85-1.13c.06-.35 1.3-8.46 5.33-10.89 1.59-1 4-1.06 6.63-1.17s5.54-.24 6.58-1.39a1.89 1.89 0 0 0 .41-1.5c0-.54-.68-1.25-1.76-2-7.1-4.68-28.38-7.92-34-6-1.22.42-2.69 1.15-2.77 2.2-.14 1.68 2.8 4.41 7.49 7 6.55 3.54 7.16 13.38 7.18 13.8a1 1 0 0 1 -2 .11c0-.09-.58-9.15-6.14-12.16-3.31-1.79-8.82-5.33-8.54-8.87.14-1.71 1.53-3 4.12-3.93 6.62-2.31 28.69 1.51 35.78 6.18 1.69 1.12 2.56 2.26 2.65 3.49a3.92 3.92 0 0 1 -.92 3c-1.6 1.78-4.85 1.92-8 2-2.23.1-4.53.2-5.68.89-2.67 1.61-4.07 7.38-4.38 9.47a1 1 0 0 1 -1.03.9z" fill="#00ccc1"/><rect fill="#ff535c" height="56.1" rx="8.55" transform="matrix(.985 .174 -.174 .985 43.8 -34.96)" width="17.1" x="212.82" y="204.37"/><circle cx="226.73" cy="202.03" fill="#ff8d93" r="7.62"/><ellipse cx="230.78" cy="179.13" fill="#ff535c" rx="7.81" ry="13.42" transform="matrix(.174 -.985 .985 .174 14.24 375.23)"/><path d="m200.45 224.12c-10.35 9.61-24.86 23.15-42.15 39.6-30.32 28.85-42.62 41.35-44.21 59.72-.31 3.68-1.35 15.65 6 22 7 6 17.79 3.81 22.29 2.88 33.42-6.87 74.23-95.25 80-107.93z" fill="#ffb08d"/><path d="m190.37 235.71s8.52-18.05 12.32-20.13 31.51-6.14 33.77-3.43-12.52 7.44-12.52 7.44 5.92 0 3.8 6.63c0 0 5.12 1 2.23 5.56 0 0 4.17 1.43 1.81 5.37s-8.76 15-18.23 16.5-22.34-10.27-23.18-17.94z" fill="#ffb08d"/><path d="m148.78 346.56a.5.5 0 0 1 -.19-1c36-14.26 63.51-84.89 63.79-85.6a.5.5 0 0 1 .64-.29.5.5 0 0 1 .29.65c-.27.71-27.89 71.74-64.35 86.17a.39.39 0 0 1 -.18.07z" fill="#383333"/><path d="m187.06 149.36s4.81-2.13 6.89.66 4.21 12.25 8.56 10.95-4.09-11.43-1-40.76 22-51.74 59.44-55.49 70.35 29.6 74.69 52.28-3.15 38.63 2 39.68 6.79-11.51 9.44-11.9a9 9 0 0 1 5.21 1.16c1-6.2 6.51-43.14-18-72.22-27-32-79.93-41.93-116.21-15.06-26.85 19.86-39.08 55.74-31.02 90.7z" fill="#383333"/><path d="m276.35 65.2s-11.25-2.79-22.29 11.38-41.15 63.2-57.11 57-1.67-43.23 23.47-62.49 39.58-18.88 55.93-5.89z" fill="#383333"/><path d="m272.94 59.69s38.65 71.78 69.5 58.39c0 0-12.39-63.24-69.5-58.39z" fill="#383333"/><circle cx="333.81" cy="57.59" fill="#383333" r="26.86"/><path d="m219.12 221.54a.38.38 0 0 1 -.36-.25.38.38 0 0 1 .24-.48l4.82-1.58a.37.37 0 0 1 .47.24.36.36 0 0 1 -.24.47l-4.82 1.59z" fill="#383333"/><path d="m223.11 228.3a.39.39 0 0 1 -.36-.25.38.38 0 0 1 .23-.48l4.63-1.7a.37.37 0 1 1 .26.7l-4.63 1.7z" fill="#383333"/><path d="m225.42 235.29a.4.4 0 0 1 -.31-.16.38.38 0 0 1 .1-.52l4.55-3.14a.38.38 0 0 1 .43.62l-4.56 3.13a.31.31 0 0 1 -.21.07z" fill="#383333"/><g fill="#fff"><path d="m340.82 111.24c-11.06 0-23.5-7.47-36.24-21.81a163.8 163.8 0 0 1 -17.85-24.68.51.51 0 0 1 .19-.68.49.49 0 0 1 .68.19c.29.5 28.56 49.88 56.56 45.73a.5.5 0 0 1 .15 1 23.8 23.8 0 0 1 -3.49.25z"/><path d="m338.26 99.6c-4.08 0-8.91-1.52-14.44-4.56a73 73 0 0 1 -11.45-7.88.5.5 0 1 1 .65-.75c.2.17 19.66 16.92 31 10.84a.5.5 0 0 1 .47.88 12.89 12.89 0 0 1 -6.23 1.47z"/><path d="m197.87 119a13.85 13.85 0 0 1 -3.51-.45.5.5 0 0 1 .26-1c10.26 2.68 22.46-7.47 37.3-31 10.29-16.36 33.28-28.34 33.51-28.46a.5.5 0 1 1 .46.89c-.23.12-23 12-33.13 28.1-13.48 21.4-24.94 31.92-34.89 31.92z"/><path d="m197.44 104.65c-.48 0-.94 0-1.41-.06a.51.51 0 0 1 -.45-.54.53.53 0 0 1 .55-.46c12.53 1.15 26.61-15.25 26.75-15.42a.51.51 0 0 1 .71-.06.52.52 0 0 1 .06.71 68.19 68.19 0 0 1 -8.81 8.31c-6.39 5-12.24 7.52-17.4 7.52z"/><path d="m320.28 53h-.08a.49.49 0 0 1 -.41-.57c0-.35 1.45-8.58 8.28-12.51 4.69-2.7 10.74-2.66 18 .11a.51.51 0 0 1 .28.65.5.5 0 0 1 -.64.29c-6.95-2.67-12.72-2.73-17.13-.19-6.42 3.7-7.78 11.73-7.8 11.81a.5.5 0 0 1 -.5.41z"/><path d="m338.45 70.22a.51.51 0 0 1 -.49-.39.5.5 0 0 1 .38-.6c11.08-2.54 9.49-12.76 9.41-13.19a.51.51 0 0 1 .41-.58.51.51 0 0 1 .58.41c0 .12 1.84 11.58-10.18 14.34z"/><path d="m311.59 210.15a.51.51 0 0 1 -.46-.31.5.5 0 0 1 .26-.65c9.84-4.22 19.24-20.59 19.33-20.75a.5.5 0 0 1 .87.49c-.39.69-9.65 16.83-19.8 21.18a.71.71 0 0 1 -.2.04z"/><path d="m208.94 81.23a2.48 2.48 0 0 1 -1.25-.34 2.5 2.5 0 0 1 -.91-3.42c.75-1.28 18.67-31.4 53.25-32a2.5 2.5 0 1 1 .1 5c-31.81.6-48.86 29.27-49 29.56a2.49 2.49 0 0 1 -2.19 1.2z"/><path d="m119.3 324.4a2.71 2.71 0 0 1 -.74-.11 2.49 2.49 0 0 1 -1.65-3.12 83.63 83.63 0 0 1 25.44-36.29 2.5 2.5 0 1 1 3.19 3.85 79.69 79.69 0 0 0 -23.85 33.9 2.5 2.5 0 0 1 -2.39 1.77z"/><path d="m200.51 354.66a2.49 2.49 0 0 1 -2.3-1.53c-5.67-13.4 1.23-35.91 1.53-36.86a2.5 2.5 0 1 1 4.77 1.48c-.06.22-6.65 21.72-1.7 33.44a2.48 2.48 0 0 1 -1.33 3.27 2.34 2.34 0 0 1 -.97.2z"/><path d="m340.82 348.56a2.55 2.55 0 0 1 -1-.22 2.5 2.5 0 0 1 -1.25-3.31c6-13.37-2.67-29.67-2.76-29.84a2.5 2.5 0 1 1 4.39-2.39c.41.75 10 18.62 2.93 34.28a2.5 2.5 0 0 1 -2.31 1.48z"/><path d="m362.62 282.68a2.5 2.5 0 0 1 -2.46-2.08c-3.46-20.48-22.46-24.33-22.65-24.36a2.5 2.5 0 0 1 .93-4.91c.23 0 22.61 4.56 26.65 28.44a2.5 2.5 0 0 1 -2 2.88 3 3 0 0 1 -.47.03z"/><path d="m276.83 216.88a2.5 2.5 0 0 1 -.29-5c.17 0 15.5-1.9 22.8-11.39a2.5 2.5 0 0 1 4 3c-8.6 11.2-25.48 13.24-26.19 13.32z"/><path d="m261.8 473.83c-28.05 0-52.32-10.75-53.4-11.24a2.5 2.5 0 0 1 2-4.56c.27.12 27.26 12.06 56.15 10.69a2.5 2.5 0 1 1 .23 5c-1.63.07-3.32.11-4.98.11z"/><path d="m282.05 468.4c-4.24 0-3.61 6.57.61 6.57s3.62-6.57-.61-6.57z"/><path d="m201.94 451.34c-4.24 0-3.61 6.57.61 6.57s3.62-6.57-.61-6.57z"/><path d="m202.89 362.22c-4.24 0-3.61 6.57.61 6.57s3.62-6.57-.61-6.57z"/><path d="m207.16 303.44c-4.25 0-3.62 6.57.61 6.57s3.61-6.57-.61-6.57z"/><path d="m332.77 300.6c-4.24 0-3.61 6.57.61 6.57s3.62-6.57-.61-6.57z"/><path d="m338 354.64c-4.25 0-3.62 6.57.61 6.57s3.6-6.57-.61-6.57z"/><path d="m364.53 294.44c-4.24 0-3.61 6.57.61 6.57s3.62-6.57-.61-6.57z"/><path d="m323.29 246.56c-4.24 0-3.61 6.57.61 6.57s3.62-6.57-.61-6.57z"/><path d="m308.6 188.73c-4.25 0-3.62 6.57.61 6.57s3.61-6.57-.61-6.57z"/><path d="m200.05 86.34c-4.25 0-3.62 6.57.61 6.57s3.61-6.57-.61-6.57z"/><path d="m274.47 46.53c-4.24 0-3.62 6.57.61 6.57s3.61-6.57-.61-6.57z"/><path d="m154.54 275c-4.24 0-3.61 6.57.61 6.57s3.62-6.57-.61-6.57z"/><path d="m123.26 333.78c-4.25 0-3.62 6.57.61 6.57s3.61-6.57-.61-6.57z"/></g></g></svg>