<svg height="512" viewBox="0 0 512 512" width="512" xmlns="http://www.w3.org/2000/svg" xmlns:xlink="http://www.w3.org/1999/xlink"><clipPath id="clip-path"><path d="m428.69 205.89-7.69-119.57a49.59 49.59 0 0 0 -14 36.47c.66 13.61 7.47 27 7.47 27l1.68 26z"/></clipPath><clipPath id="clip-path-2"><path d="m189.21 172.93h48.98v85.69h-48.98z"/></clipPath><clipPath id="clip-path-3"><path d="m156.26 128.43s19-21.59 43.91-36.73 67-7.56 67-7.56a92.43 92.43 0 0 0 -12.64-31.49c-1.88-2.95-7.14-11.2-12.37-15.3-26.45-20.75-111.63 17.27-114 59.92-.55 10 3.41 20.26 5.29 25.15a85.86 85.86 0 0 0 26.13 35.66q-1.65-14.82-3.32-29.65z"/></clipPath><g id="Surgeon"><path d="m448.13 214.05c-1.62-20.41-19.26-31-21-32l-17.63 37.86 3.61 18.32-8.7 16.61s18.32 14.89 32.73 8.3l4.21-23.94a40.16 40.16 0 0 0 6.78-25.15z" fill="#287eef"/><g clip-path="url(#clip-path)"><path d="m428.69 205.89-7.69-119.57a49.59 49.59 0 0 0 -14 36.47c.66 13.61 7.47 27 7.47 27l1.68 26z" fill="#86ebf9"/><path d="m427.61 98.93-31.25 42.83 4.46 7.66 27.43-40.61 3.94 3.99-27.13 36.35 3.87 3.99 26.72-39.43z" fill="#e8e7e3"/></g><path d="m426.67 229.66-5.34.34a6 6 0 0 1 -6.39-5.83l-1.83-65.5a6 6 0 0 1 5.62-6.17h.57a6 6 0 0 1 6.37 5.39l6.6 65.19a6 6 0 0 1 -5.6 6.58z" fill="#40c2d6"/><path d="m419.56 181.56c-4.16 1-10.75 10.51-13.93 19.05s1.3 33.55 1.3 33.55l-9.6 29h14.17l6.31-28.16-2.47-8.81s-.75-14.32 2.47-22.62 5.9-22.98 1.75-22.01z" fill="#287eef"/><path d="m452.09 211.85c3.75-4.56-1.19-8.47-1.19-8.47 3.75-4.07-2.54-8.3-2.54-8.3a4.61 4.61 0 0 0 0-6.19c-2.86-3.62-21.82-15.42-24.49-11.56-.93 1.34-.11 4.9 10 15.59-5.58 3.54-17.46 12-11.6 15 2.49 1.29 6.41-.22 10.5-3.61-3.12 3.15-7.15 8-5.8 10.69a3.14 3.14 0 0 0 1.29 1.29c2.3 1.18 6.15-.77 9.89-4.83-5.18 14.6-4.9 20 5.29 8.18l-2.06 19.54s6.62-12.84 10.62-18.38.09-8.95.09-8.95z" fill="#287eef"/><path d="m429.24 195.44c.17-.12 4.42-3 6.9-3.73s11.39 2.52 12.4 2.9a.5.5 0 0 1 .29.64.52.52 0 0 1 -.65.3c-2.63-1-9.88-3.45-11.75-2.88-2.34.7-6.59 3.57-6.63 3.6a.5.5 0 0 1 -.56-.83z" fill="#2d1929"/><path d="m434.61 193.37c-.32 0 .11.3-6.27-5.88a.5.5 0 0 1 0-.7.5.5 0 0 1 .71 0l5.92 5.73a.5.5 0 0 1 -.36.85z" fill="#2d1929"/><path d="m430.17 207.45a.5.5 0 0 1 -.37-.84c.16-.17 3.93-4.12 6.46-4.89s13.47 1 14.72 1.17a.5.5 0 0 1 -.16 1c-3.32-.53-12.36-1.78-14.27-1.2-2.28.69-6 4.58-6 4.62a.51.51 0 0 1 -.38.14z" fill="#2d1929"/><path d="m431.36 215.87c1.85-1.32 8-5.62 9.17-5.62s10 .82 10.42.86a.5.5 0 1 1 -.1 1c-3.18-.29-9.44-.85-10.32-.85-.69.06-4.91 2.81-8.59 5.43a.5.5 0 0 1 -.58-.82z" fill="#2d1929"/><path d="m440.53 229.81a.5.5 0 0 1 -.4-.79c1.21-1.69 5.26-7.88 3.59-9.16a1.72 1.72 0 0 0 -1.32-.11c-.74.68-5.57 4.9-9.15 3-3.26-1.7 0-6.87 2.42-9.59a.48.48 0 0 1 .7 0 .49.49 0 0 1 .05.7c-1.75 2-5.09 6.8-2.71 8 3.18 1.66 8.05-2.91 8.09-2.95a2.19 2.19 0 0 1 3.29 2.21c-.13 2.81-4 8.22-4.15 8.45a.49.49 0 0 1 -.41.24z" fill="#2d1929"/><g clip-path="url(#clip-path-2)"><path d="m189.21 172.93h48.98v85.69h-48.98z" fill="#f5b493"/><path d="m188.9 184.3s9.45 34.19 53.36 41.82v-28z" fill="#eba284"/></g><path d="m218.88 229.49c28-5.08 64.13-6.87 84.09 14.33 5.13 5.44 6.92 10.3 13 21.5a361.64 361.64 0 0 0 40.33 58.9l49.05-85.71 36.31 22.63c-8.31 45-19.71 79.24-28.82 98.19-7.05 14.66-18 30.75-33 36.9-26.83 10.95-68.77-16.62-107.57-66.76-.01 0-90.27-49.47-53.39-99.98z" fill="#86ebf9"/><path d="m281.41 137.11c-2.78-11.13-6.32-17.68-7.9-25-3.88-18.11-3.51-32.27-18.12-43.11a63.6 63.6 0 0 0 -15.26-10.4c-20.46-11.49-51.71-8.11-70.87 10.24-22.08 21.13-18 52.41-17 60.18 4.71 36.28 32.88 57.61 45 65.24a94 94 0 0 0 21.64 12.15c8.6 3.31 31.62 12.2 46 .27 3.76-3.12 8.56-10.38 13.3-26.61 6.12-20.98 5.99-31.82 3.21-42.96z" fill="#f5b493"/><g fill="#2d1929"><path d="m252.08 156.47c3.54-2.58 5.23-5 5-7.13-.26-2.61-3.29-3.94-6.44-6.72a31.37 31.37 0 0 1 -8.88-14.51.5.5 0 0 1 1-.3c5.06 16.26 14.79 15.79 15.35 21.43.25 2.53-1.57 5.23-5.42 8a.5.5 0 0 1 -.61-.77z"/><path d="m266.32 125.44c-.84-4.07-3.65-6.93-6.29-6.39s-4.08 4.28-3.24 8.35 3.65 6.93 6.28 6.39 4.09-4.28 3.25-8.35z"/><path d="m219 127.51c-2.64.54-4.09 4.28-3.25 8.35s3.65 6.93 6.29 6.38 4.08-4.28 3.24-8.35-3.61-6.89-6.28-6.38z"/><path d="m244.88 180.27c-6.54 0-12.61-2.11-16.85-7a.5.5 0 0 1 .75-.65c8.71 10 23.66 5.72 23.81 5.67a.5.5 0 1 1 .29 1 30.16 30.16 0 0 1 -8 .98z"/><path d="m243.28 107.19a1 1 0 0 1 -.74-1.67c.1-.1 9.6-10.29 22.42-4.88a1 1 0 0 1 .53 1.31 1 1 0 0 1 -1.31.53c-11.5-4.85-19.82 4-20.16 4.39a1 1 0 0 1 -.74.32z"/><path d="m203 116a1 1 0 0 1 -.82-1.57c7.9-11.46 21.39-8 21.52-8a1 1 0 1 1 -.51 1.93c-.5-.13-12.28-3.11-19.36 7.17a1 1 0 0 1 -.83.47z"/></g><path d="m203.31 230c-39.92 5.68-57.4 22.45-65.62 37.77-15.61 29.08-2.55 61.36 3.9 122.85a525.21 525.21 0 0 1 1.92 90.92h164.43q.88-38.73 1.43-91.26c.85-93.16-.6-116.59-15.88-135.49-7.92-9.79-31.44-33.03-90.18-24.79z" fill="#86ebf9"/><path d="m207.77 230c-17.23-1.48-54-1.93-82.66 22-9.93 8.27-17.69 21.79-33.22 48.84-22.93 40-34.33 60.35-31.26 80.77 2.5 16.65 11.58 29.24 21.49 43a158.72 158.72 0 0 0 33.22 33.87l33.22-30-31.27-46.89 36.48-64.48c7.15-1.22 23.61-5.09 37.27-19 26.14-26.78 17.43-65.28 16.73-68.11z" fill="#86ebf9"/><rect fill="#86ebf9" height="32.57" rx="3.42" width="64.32" x="179.17" y="218.06"/><path d="m309.52 369.84s-2.33-73.88-5.77-96.14 18.31 51.8 16.48 104.9z" fill="#40c2d6"/><path d="m136.91 355.07s-6.51-63.41-1-64.07 28.29 112 37.41 130.92 100.95-23.45 104.86-16.28-56.67 33.86-49.5 49.5 54.57 26.37 54.57 26.37h-139.74z" fill="#40c2d6"/><path d="m356.33 324.22c-4.15 25.3-1.58 51.12 0 51.13 2.1 0 .63-31 13.74-75.28z" fill="#40c2d6"/><path d="m117.29 381.54c-26.26 2.6-45.7 5.84-19.46 9.36a79 79 0 0 0 25.22-.72z" fill="#40c2d6"/><path d="m108.61 438.85s13.44 17.75 23.28 24.1 35-11 41.5-10 13.33 8.22 16.85 3.5-15.18-14.33-15.18-14.33 6.54-.65 9.5.81 6.79 6.68 9.63 4.89-2.66-9-2.66-9 4.94 4.89 7.1 3.18-2.65-9.2-2.65-9.2 4.87 4 6.48 1.46-9.46-16.26-13.87-19.34-39.27 6.51-39.27 6.51l-13.52-7.67s-24.8 4.17-27.19 25.09z" fill="#287eef"/><path d="m92.22 425.83a55.13 55.13 0 0 0 28.78 27.5q14.17-16 28.36-31.9l-23.4-26.95z" fill="#86ebf9"/><path d="m196 433.33a.51.51 0 0 1 -.43-.24c-2.72-4.52-7.47-11.44-9.36-12-2.62-.77-11.08.81-11.16.82a.5.5 0 1 1 -.19-1c.36-.07 8.78-1.64 11.63-.8s9.22 11.25 9.94 12.43a.51.51 0 0 1 -.43.79z" fill="#2d1929"/><path d="m191.53 439.35a.5.5 0 0 1 -.44-.26c-1.37-2.57-5.4-9.31-7.61-9.68a46.94 46.94 0 0 0 -8.5 0 .5.5 0 0 1 -.09-1 46.91 46.91 0 0 1 8.76 0c3.08.51 7.8 9.2 8.33 10.19a.5.5 0 0 1 -.45.75z" fill="#2d1929"/><path d="m167.2 90c.83-3.44 3.18-8 14.9-15.14 10.52-6.38 21.69-13.14 38.59-13.92a70.12 70.12 0 0 1 33.24 6.74s-12.72-24.09-45.45-19.68-59.6 13.92-66.19 34.44 2 64.37 14.65 70.16a10.56 10.56 0 0 0 7.72.68c4.87-1.71 7-7.82 7.67-9.78a24.67 24.67 0 0 0 1.22-6.35c1.24-14.15 1.86-21.22-1-26.87-1.72-3.43-2.71-3.19-4.15-6.84-.13-.39-2.71-7.15-1.2-13.44z" fill="#2d1929"/><g clip-path="url(#clip-path-3)"><path d="m156.26 128.43s19-21.59 43.91-36.73 67-7.56 67-7.56a92.43 92.43 0 0 0 -12.64-31.49c-1.88-2.95-7.14-11.2-12.37-15.3-26.45-20.75-111.63 17.27-114 59.92-.55 10 3.41 20.26 5.29 25.15a85.86 85.86 0 0 0 26.13 35.66q-1.65-14.82-3.32-29.65z" fill="#86ebf9"/><path d="m141.83 55.26s-9.11 31.59-4.23 42.33 34.85-16.59 39.73-17.26-18.24 16.73-18.24 26.61 23.55 4 23.55 4l-29.41 50.78-38.75-16.22v-50.7l16.93-39.54z" fill="#40c2d6"/></g><path d="m166.42 127.92a19.62 19.62 0 0 1 8.06.73 21.93 21.93 0 0 1 9 6c3.42 3.33 9.2 7.29 19.45 9.81l.21 4.84c-20.14-4.17-24.14-19.5-35.38-19.79-1.3 0-4.44.09-4.5-.36s1.74-.87 3.16-1.23z" fill="#c6c6c6"/><path d="m159.58 158.08s17.17 29.37 37.65 36.18l.4-4.91s-22.95-14.47-32.37-31.27z" fill="#c6c6c6"/><path d="m179.78 137.77c-5.22-9.44-15.74-13.63-23.52-9.34s-9.85 15.42-4.64 24.86 15.73 13.64 23.5 9.35 9.88-15.42 4.66-24.87z" fill="#f5b493"/><path d="m174.76 153.08c-.05 0-5.5-.14-6.61-5.27-.7-3.2 3.27-5 4.85-5.52-1.3-2.06-6.41-9.4-12.18-8.42-5.43.93-4.52 7.08-4.48 7.34a.5.5 0 0 1 -.42.57.51.51 0 0 1 -.57-.41c0-.07-1.11-7.39 5.3-8.48 7.36-1.27 13.3 9 13.54 9.43a.5.5 0 0 1 -.3.73s-5.42 1.56-4.77 4.55c.95 4.36 5.61 4.48 5.66 4.48a.52.52 0 0 1 .49.51.49.49 0 0 1 -.51.49z" fill="#2d1929"/><path d="m189.21 140.25s29.79 10.75 43.48 7.17 14.31-9.42 24.92-7.17 14.77 2.56 24.4-.51a62.9 62.9 0 0 1 1.61 22 69.25 69.25 0 0 1 -4.11 16.6c-5.35 14.72-9 25.65-18.56 31-12.19 6.88-26.09 2.51-37.86-1a84.09 84.09 0 0 1 -33.88-19.72c2.58-2.37 8.54-7.93 9.94-16.91 2.44-15.58-9.94-31.46-9.94-31.46z" fill="#e8e7e3"/><path d="m215.55 147.18s-12.88-.79-18.59 0 10 6.66 6.22 22.61-7.69 25.59 5.74 32.91c-9.24-2.76-14.52-7.12-17.17-9.78-1.92-1.92-2.76-3.24-2.93-4.81-.52-4.58 5.17-6 8.14-11.74 4.35-8.39.56-21.58-5-29.29-2-2.82-4.64-5.37-3.91-6.47 1.23-1.84 8.14 2.39 27.5 6.57z" fill="#c6c6c6"/><path d="m201.73 156.87s2.46 3.4 1.45 10.25 26.13 16.28 35 18.89-18.15 2.83-31.5-6.24-5-8.33-5-8.33z" fill="#c6c6c6"/></g></svg>