<svg xmlns="http://www.w3.org/2000/svg" width="512" height="512" viewBox="0 0 512 512"><defs><style>.cls-1{fill:#ffb833}.cls-2{fill:#ffb08d}.cls-3{fill:#00ccc1}.cls-4{fill:#ff8c5f}.cls-11,.cls-12,.cls-14,.cls-5,.cls-7{fill:none;stroke-linecap:round;stroke-linejoin:round}.cls-11,.cls-12,.cls-5,.cls-7{stroke:#383333}.cls-5{stroke-width:.75px}.cls-6,.cls-8{fill:#383333}.cls-7,.cls-8,.cls-9{fill-rule:evenodd}.cls-9{fill:#fff}.cls-10{fill:#aaeeea}.cls-12{stroke-dasharray:12.21 12.21}.cls-13{fill:#ff832f}.cls-14{stroke:#fff}</style></defs><g id="Process"><rect width="3.35" height="17.95" x="190.88" y="66.35" class="cls-1" rx="1.63" transform="translate(3.14 158.22) rotate(-45)"/><rect width="3.35" height="17.95" x="190.88" y="66.35" class="cls-1" rx="1.63" transform="translate(275.46 264.74) rotate(-135)"/><rect width="3.35" height="17.95" x="356.59" y="127.64" class="cls-1" rx="1.63" transform="translate(8.33 293.34) rotate(-45)"/><rect width="3.35" height="17.95" x="356.59" y="127.64" class="cls-1" rx="1.63" transform="translate(514.99 486.55) rotate(-135)"/><rect width="4.25" height="22.78" x="61.5" y="190.22" class="cls-1" rx="1.73" transform="translate(-123.93 104.04) rotate(-45)"/><rect width="4.25" height="22.78" x="61.5" y="190.22" class="cls-1" rx="1.73" transform="translate(-33.94 389.17) rotate(-135)"/><rect width="4.25" height="22.78" x="324.91" y="311.42" class="cls-1" rx="1.73" transform="translate(-132.47 325.8) rotate(-45)"/><rect width="4.25" height="22.78" x="324.91" y="311.42" class="cls-1" rx="1.73" transform="translate(330.03 782.32) rotate(-135)"/><path d="M358,343.46s11.81-14.06,18.94-20,14.61-9.74,17.39-8.7-5.39,8.35-5.39,8.35a63.55,63.55,0,0,0,18.26-5.91c8.53-4.52,14.26-9.91,17.39-7.13s-9.39,22.61-20.69,31-22.8,14.75-29.58,23.25C374.3,364.31,355.55,355.78,358,343.46Z" class="cls-2"/><path d="M183,295.9a174.26,174.26,0,0,0-50.56,13.16c-11.87,5-31,11.54-62.61,18.43,0,0-2.1,13.11,6.28,23.11,4.9,5.84,12.65,10,30.42,11.15,14.05.89,40.07.24,73.72-14.21Q181.67,321.72,183,295.9Z" class="cls-3"/><path d="M94,253.56s5.9-19.39,6.49-26.43-4.37-14.92-4.23-21,1.91-9.63,5-9.49a5.48,5.48,0,0,1,2.52-6.24,5.38,5.38,0,0,1,5.35.29,5.17,5.17,0,0,1,.66-5.55c1.74-1.82,4.58-1.16,4.78-1.11,3.36.83,9,10.48,7,7.63h0s10.42-29,14.52-27.31-5.13,28.1-4.3,35.67,2.94,15.5-1.77,27S120,263.57,120,263.57,99.05,259.51,94,253.56Z" class="cls-2"/><path d="M267.23,302.27c25.92,6.77,34.22,18.84,37.15,24.5s5.54,15.92,10.67,36.26c1.27,5.07,2.2,9,2.6,10.72,2.85,12.44,6.2,28.43,9.39,47.39l-24.63,10.48c-2.19-2.1-4.37-4.37-6.51-6.81-15.41-17.52-22.88-37-26.65-52.69Q268.25,337.18,267.23,302.27Z" class="cls-3"/><path d="M383,356.3c-5.9,12.42-41.48,86-69.63,80.7-5.54-1-13.56-5.65-15.7-12.68-2.92-9.58,6.29-19.77,17.37-32.35,9.71-11,24.49-28,43.39-50.55a40.41,40.41,0,0,0,6.44,6.52A42.09,42.09,0,0,0,383,356.3Z" class="cls-3"/><path d="M237.45,265.71s-.09,15.18,3.73,22.72,23.06,8,37.86,19.54-2.75,47.52-.7,152.92c0,0-83.22,14.21-126.45,0,0,0,9.25-62.77,6.11-106.58s4.25-49.74,13.43-53.59,31.09-9.47,33.16-14.21,3.85-20.8,3.85-20.8Z" class="cls-2"/><path d="M174.25,214.38a11.72,11.72,0,0,0-8.69-3.41,9,9,0,0,0-5.36,2c-4.87,4.52-3.07,18.87,5.3,22.58,4.68,2.08,9.66.07,11.35-.7Q175.55,224.6,174.25,214.38Z" class="cls-4"/><path d="M162.16,219.36l8.1-.34s-8.26,5.09-1.39,11.77" class="cls-5"/><path d="M274.38,214.79a11.74,11.74,0,0,1,8.72-3.35,9,9,0,0,1,5.34,2c4.84,4.56,2.92,18.89-5.48,22.54-4.69,2-9.66,0-11.34-.8Z" class="cls-4"/><path d="M286.43,219.86l-8.09-.4s8.21,5.15,1.29,11.78" class="cls-5"/><circle cx="224.82" cy="208.76" r="57.11" class="cls-2"/><path d="M281.89,206.5c-.24,6.68-2.08,40.17-27.74,59.42-4.71,3.54-14.31,10.55-27.83,11.06-24.92.95-41.51-21-44.82-25.42-11.55-15.3-13.36-31.66-13.67-39.3C167.83,212.26,230.75,168.32,281.89,206.5Z" class="cls-2"/><path d="M187.09,209.28a18.13,18.13,0,0,1,10.44-3.42c2.54-.06,6-.14,7,1.85a2.76,2.76,0,0,1-.07,2.8c-1.19,1.6-4.18.16-9,.11-6.38-.06-10.52,2.36-10.94,1.45C184.24,211.4,186.28,209.88,187.09,209.28Z" class="cls-6"/><path d="M260.5,211.1A18.15,18.15,0,0,0,250,207.83c-2.54,0-6-.06-7,1.95a2.76,2.76,0,0,0,.11,2.8c1.21,1.58,4.19.1,9,0,6.37-.15,10.54,2.21,10.95,1.29C263.38,213.18,261.32,211.69,260.5,211.1Z" class="cls-6"/><path d="M223.55,219.5s-4.45,10.3-3.63,12.27,8.84,1.3,8.84,1.3" class="cls-7"/><ellipse cx="189.65" cy="236.45" class="cls-4" rx="4.4" ry="7.06" transform="translate(-50.01 422.01) rotate(-89.02)"/><ellipse cx="255.81" cy="237.58" class="cls-4" rx="4.4" ry="7.06" transform="translate(13.88 489.28) rotate(-89.02)"/><path d="M203.13,226.22a5.25,5.25,0,1,1,.46-7.4A5.27,5.27,0,0,1,203.13,226.22Z" class="cls-8"/><path d="M252.63,227.64a5.25,5.25,0,1,1,0-7.41A5.26,5.26,0,0,1,252.63,227.64Z" class="cls-8"/><path d="M191.28,293.73c3.25,10.19,9,14.39,11.36,15.84,12.7,7.91,33.75,3.07,49.49-14.23,0,0,32.36,7.94,35.47,20.81s-11.77,112.1,0,157.08c0,0-69.05,21-148.1-11,0,0,12.94-38.19,12.39-66s.34-82.31,4.78-88.82S191.28,293.73,191.28,293.73Z" class="cls-3"/><path d="M98.09,230.5C94.2,239.7,60.63,320.07,72,340.87c4.91,9,11.82,10.9,11.82,10.9,9.39,2.74,18.77-4.68,19.66-5.41,12.68-10.32,9.39-28.63,12.14-56.55a241.52,241.52,0,0,1,11.25-52.4,77.12,77.12,0,0,0-28.76-6.91Z" class="cls-3"/><path d="M255.81,185.11s-51.68,12.41-73.23,7.59S158.51,166,158.74,156.62c0,0,7.35,8.73,16.09,2.07s61.91-28.94,88.29,2.19c0,0,17-.12,21.21,11.37s.22,47.85-5.12,53.34-3.48-19.44-4.87-24.1S255.9,203.27,255.81,185.11Z" class="cls-6"/><path d="M164.71,176.08s1.41,48.44,5.76,50.26,2.36-23.91,8.95-39.54Z" class="cls-6"/><path d="M203,284a4.06,4.06,0,0,1,5.12-1.28c8.53,4.23,14.65,4.14,18.94,2.9,6.28-1.8,10.11-6.44,13.66-4.66,3.29,1.66,1.19,6.43,5.88,10.55,3.54,3.1,9.69,5,9.69,5l-17.68,16.86-45.08,3.11L183,295.9s11.16-3.31,15.38-6.86A27.09,27.09,0,0,0,203,284Z" class="cls-3"/><path d="M132.59,206s-3.34-5.34-8.55-6.67-9.11-1.66-9.11.78,5.22,5.44,7.66,7.33,2.33,7.21,2.33,7.21" class="cls-5"/><line x1="119.26" x2="121.93" y1="191.56" y2="198.3" class="cls-5"/><line x1="109.13" x2="114.93" y1="190.67" y2="200.11" class="cls-5"/><path d="M101.26,196.62s7.68,8.9,11.78,9.86,3.55-3.59,3.55-3.59" class="cls-5"/><path d="M96.88,201.25s9.17,11.07,12.06,10.18,3.09-5.32,3.09-5.32" class="cls-5"/><path d="M215.29,240.1l20.88,1.14s-2.56,6.16-9.11,6.94S215.29,240.1,215.29,240.1Z" class="cls-9"/><path d="M220.85,251.51s5.32,1.78,9.65,0" class="cls-5"/><path d="M207.45,273.27s15.18,6.61,30.5,1.58" class="cls-5"/><path d="M244.85,85.64a36.49,36.49,0,1,0,36.48-36.49A36.49,36.49,0,0,0,244.85,85.64Zm15.43,0a21.06,21.06,0,1,1,21.05,21.06A21.05,21.05,0,0,1,260.28,85.64Z" class="cls-3"/><rect width="17.97" height="21.24" x="272.35" y="36.92" class="cls-3" rx="2.31" transform="translate(562.67 95.08) rotate(-180)"/><rect width="17.97" height="21.24" x="272.35" y="111.51" class="cls-3" rx="2.31" transform="translate(562.67 244.26) rotate(-180)"/><rect width="17.97" height="21.24" x="235.05" y="74.21" class="cls-3" rx="2.31" transform="translate(328.87 -159.21) rotate(90)"/><rect width="17.97" height="21.24" x="309.65" y="74.21" class="cls-3" rx="2.31" transform="translate(403.46 -233.8) rotate(90)"/><rect width="17.97" height="21.24" x="245.98" y="100.59" class="cls-3" rx="2.31" transform="translate(153.31 -147.71) rotate(45)"/><rect width="17.97" height="21.24" x="298.72" y="47.84" class="cls-3" rx="2.31" transform="translate(131.46 -200.46) rotate(45)"/><rect width="17.97" height="21.24" x="245.98" y="47.84" class="cls-3" rx="2.31" transform="translate(476.59 -80.49) rotate(135)"/><rect width="17.97" height="21.24" x="298.72" y="100.59" class="cls-3" rx="2.31" transform="translate(603.92 -27.74) rotate(135)"/><path d="M75.23,106.07A36.8,36.8,0,1,0,112,69.27,36.79,36.79,0,0,0,75.23,106.07Zm15.56,0A21.24,21.24,0,1,1,112,127.31,21.24,21.24,0,0,1,90.79,106.07Z" class="cls-10"/><rect width="18.12" height="21.42" x="102.97" y="56.93" class="cls-10" rx="2.31" transform="translate(224.06 135.28) rotate(-180)"/><rect width="18.12" height="21.42" x="102.97" y="132.16" class="cls-10" rx="2.31" transform="translate(224.06 285.75) rotate(-180)"/><rect width="18.12" height="21.42" x="65.35" y="94.55" class="cls-10" rx="2.31" transform="translate(179.67 30.84) rotate(90)"/><rect width="18.12" height="21.42" x="140.58" y="94.55" class="cls-10" rx="2.31" transform="translate(254.9 -44.39) rotate(90)"/><rect width="18.12" height="21.42" x="76.37" y="121.15" class="cls-10" rx="2.31" transform="translate(118.26 -21.79) rotate(45)"/><rect width="18.12" height="21.42" x="129.56" y="67.95" class="cls-10" rx="2.31" transform="translate(96.22 -74.98) rotate(45)"/><rect width="18.12" height="21.42" x="76.37" y="67.95" class="cls-10" rx="2.31" transform="translate(201.46 73.87) rotate(135)"/><rect width="18.12" height="21.42" x="129.56" y="121.15" class="cls-10" rx="2.31" transform="translate(329.89 127.07) rotate(135)"/><path d="M328,230.37a55,55,0,1,0,55-55A55,55,0,0,0,328,230.37Zm23.25,0A31.73,31.73,0,1,1,383,262.1,31.74,31.74,0,0,1,351.28,230.37Z" class="cls-10"/><rect width="27.08" height="32" x="369.47" y="156.96" class="cls-10" rx="2.31" transform="translate(766.03 345.92) rotate(-180)"/><rect width="27.08" height="32" x="369.47" y="269.35" class="cls-10" rx="2.31" transform="translate(766.03 570.71) rotate(-180)"/><rect width="27.08" height="32" x="313.28" y="213.16" class="cls-10" rx="2.31" transform="translate(555.97 -97.66) rotate(90)"/><rect width="27.08" height="32" x="425.67" y="213.16" class="cls-10" rx="2.31" transform="translate(668.37 -210.05) rotate(90)"/><rect width="27.08" height="32" x="329.74" y="252.89" class="cls-10" rx="2.31" transform="translate(290.68 -163.98) rotate(45)"/><rect width="27.08" height="32" x="409.21" y="173.42" class="cls-10" rx="2.31" transform="translate(257.76 -243.45) rotate(45)"/><rect width="27.08" height="32" x="329.74" y="173.42" class="cls-10" rx="2.31" transform="translate(719.95 80.62) rotate(135)"/><rect width="27.08" height="32" x="409.21" y="252.89" class="cls-10" rx="2.31" transform="translate(911.82 160.1) rotate(135)"/><path d="M63.7,91.75s-.14,2.28,0,6" class="cls-11"/><path d="M64.83,109.89c3.69,23.36,18.34,59.58,74.67,47.07,81.21-18,66.85-146,151.55-124.55s-2.48,158.85,11.34,219.89c10.37,45.77,55.24,47.42,77,45.37" class="cls-12"/><path d="M385.51,297c3.71-.54,5.9-1.05,5.9-1.05" class="cls-11"/><circle cx="65.29" cy="88.21" r="9.55" class="cls-13"/><circle cx="310.82" cy="45.49" r="9.55" class="cls-13"/><circle cx="391.41" cy="295.9" r="9.55" class="cls-13"/><rect width="14.76" height="56.98" x="397.38" y="150.67" class="cls-1" rx="3.97" transform="translate(129.06 -167.13) rotate(27.6)"/><circle cx="419.48" cy="151.78" r="9.3" class="cls-13"/><path d="M246.76,175.39s-39.07,12.06-59.54,3.77" class="cls-14"/><path d="M176.85,166.52s32.49,10.37,53.65-2.42" class="cls-14"/><path d="M262.87,176.08s7.15,15.72,18.46,15.48" class="cls-14"/><path d="M287.63,333.82s-7.12,52.54-4.38,73.48" class="cls-11"/><path d="M157.53,320.79s-5.51,18.91-5.64,36.43" class="cls-11"/><path d="M114,315.85s3.78,18-10.52,30.51" class="cls-11"/><path d="M316.84,417.07s-4.16-11.09,3.5-31.13" class="cls-11"/></g></svg>