<svg height="512" viewBox="0 0 512 512" width="512" xmlns="http://www.w3.org/2000/svg" xmlns:xlink="http://www.w3.org/1999/xlink"><clipPath id="clip-path"><path d="m115.42 198.91c1.4 18.53-20.18 28.08-35.94 68.83-3.54 9.15-5.65 13.9-6.5 21.3-3.34 29.06 17.42 48.41 1 95.79-8.1 23.33-19.72 37.61-10.72 47 10.48 11 41 7.08 56.82 5.06 17.55-2.24 21.74-6.86 36.52-8.05 18.52-1.5 33.71 2.11 70.71 2.69 56.83.9 70.77-11.61 100.79-5.36s63.26 13.4 82.56 1.79-36.45-50-36.45-79.49-18.21-89.28-40.78-118.76a198.26 198.26 0 0 0 -17.39-20c-16.2-16.25-23.51-18.47-25.5-25.53-2.09-7.41 2-19.26 31.1-38.41-19.21-5.59-35.86-6.56-49.86-5.36-33.15 2.85-37.44 16.62-65.41 15.19-21.66-1.11-36.9-10.29-50.58-2.54-4.17 2.36-7.29 5.79-14.29 7-8.44 1.47-14.29-1.71-20.91-3.12-7.89-1.69-19.77-1.5-37 7.14 24.81 13.49 31.14 25.71 31.83 34.83z"/></clipPath><g id="Money_Bag" data-name="Money Bag"><path d="m83.6 164.06a164.37 164.37 0 0 1 42.9-35.4c71-40.44 146-11.09 152.07-8.58a171 171 0 0 1 43.07 25.67l-80.06 33.11-59.89.82z" fill="#d7981a"/><path d="m216.29 56.37h72v133.39h-72z" fill="#40c2d6" transform="matrix(.98 .199 -.199 .98 29.53 -47.73)"/><path d="m285.88 51.15 14.96 13.72-30.01 89.68 3.12-80.72z" fill="#40c2d6"/><path d="m188.78 167.56 14.96 13.71 13.17-2.72v-24z" fill="#40c2d6"/><path d="m201.33 42.66h72v133.39h-72z" fill="#40c2d6" transform="matrix(.98 .2 -.2 .98 26.5 -45.03)"/><path d="m254.51 177.05-70.51-14.32a575.73 575.73 0 0 0 26.49-130.73l70.56 14.32q-10.93 65.01-26.54 130.73z" fill="#86ebf9"/><path d="m245.74 187.27 21.35 3.12 2.81-21.66-5.46 18.86z" fill="#86ebf9"/><path d="m292.14 56.9-11.09 63.37 14.42-60.32z" fill="#86ebf9"/><path d="m249.6 169.88c-.1 0 2.53.52-57.29-11.62a.5.5 0 0 1 -.37-.64 582.1 582.1 0 0 0 23.91-117.8.5.5 0 0 1 .6-.44l57.18 11.62a.48.48 0 0 1 .39.57q-10.15 59.34-23.94 117.93a.49.49 0 0 1 -.48.38zm-56.54-12.49 56.16 11.4q13.16-56 23.74-116.92l-56.17-11.4a583.78 583.78 0 0 1 -23.73 116.92z" fill="#fff"/><circle cx="237.42" cy="103.45" fill="#e5e5e5" r="14.87"/><g fill="#40c2d6"><path d="m198.51 109.53 22.57 60.81-28.72-4.44 1.51-34.43z"/><path d="m106.92 67.32h72v133.39h-72z" transform="matrix(-.98 .199 -.199 -.98 309.64 236.92)"/><path d="m109.33 62.1-14.96 13.71 30 89.69-3.11-80.73z"/><path d="m206.42 178.5-14.96 13.72-13.17-2.73v-23.99z"/><path d="m121.88 53.61h72v133.39h-72z" transform="matrix(-.98 .199 -.199 -.98 336.53 206.79)"/></g><path d="m140.7 188 70.55-14.33a575.63 575.63 0 0 1 -26.53-130.67l-70.56 14.27q10.92 65.01 26.54 130.73z" fill="#86ebf9"/><path d="m149.46 198.22-21.35 3.12-2.8-21.66q2.73 9.42 5.45 18.85z" fill="#86ebf9"/><path d="m103.06 67.84 11.1 63.37-14.43-60.31z" fill="#86ebf9"/><path d="m145.12 180.44q-13.77-58.62-23.94-117.93a.51.51 0 0 1 .39-.58c61.24-12.43 57.31-11.72 57.59-11.52 1 .75 2.75 50 24.11 118.15a.5.5 0 0 1 -.05.41c-.17.29 3.84-.61-57.51 11.84a.49.49 0 0 1 -.59-.37zm-22.87-117.62q10.09 58.8 23.73 116.92l56.17-11.41a582.36 582.36 0 0 1 -23.73-116.92z" fill="#fff"/><circle cx="157.78" cy="114.39" fill="#e5e5e5" r="14.87"/><g clip-path="url(#clip-path)"><path d="m115.42 198.91c1.4 18.53-20.18 28.08-35.94 68.83-3.54 9.15-5.65 13.9-6.5 21.3-3.34 29.06 17.42 48.41 1 95.79-8.1 23.33-19.72 37.61-10.72 47 10.48 11 41 7.08 56.82 5.06 17.55-2.24 21.74-6.86 36.52-8.05 18.52-1.5 33.71 2.11 70.71 2.69 56.83.9 70.77-11.61 100.79-5.36s63.26 13.4 82.56 1.79-36.45-50-36.45-79.49-18.21-89.28-40.78-118.76a198.26 198.26 0 0 0 -17.39-20c-16.2-16.25-23.51-18.47-25.5-25.53-2.09-7.41 2-19.26 31.1-38.41-19.21-5.59-35.86-6.56-49.86-5.36-33.15 2.85-37.44 16.62-65.41 15.19-21.66-1.11-36.9-10.29-50.58-2.54-4.17 2.36-7.29 5.79-14.29 7-8.44 1.47-14.29-1.71-20.91-3.12-7.89-1.69-19.77-1.5-37 7.14 24.81 13.49 31.14 25.71 31.83 34.83z" fill="#efbd42"/><path d="m321.64 145.75s-41.77 22.42-44.56 36.13-16.94 5.69-24.79 0-.77 6.75-8.06 19.46-24.82-13-27.32-13.34 9.68 8.74 5.65 31.8-3.53 63-3.53 63l37.67 30.29a203 203 0 0 0 -53 72.92q-6.13 21.95-12.28 43.89s80.77 16.8 128.44 11.37 90.72.74 90.72.74l-35.14-92.78-98.44-28.54a329.12 329.12 0 0 1 14-87.14 325.52 325.52 0 0 1 85.72 65.37l3.61-75.19-60.43-12.94-22.56 14.72 5.07-16.78-41.1-2.19s18.18-6.85 19.74-15.16 13.74-19 21-22.65 19.59-22.98 19.59-22.98z" fill="#d7981a"/></g><path d="m178.62 279c0-19.6 14.38-31.55 33-33.83v-13.63a3.64 3.64 0 1 1 7.28 0v13.36a36.55 36.55 0 0 1 19.34 5.88c8.69 5.63 13.57 16 13.57 25.31 0 7.59-4.45 11.54-10.83 11.54-2.74 0-4.86-2.53-4.86-5.67-.1-17.52-5.78-26.83-17.22-27.94v48.7c9.22 5.37 15.29 9.21 18.43 11.44 8.41 6 14.48 13.67 14.48 25.12 0 13.86-6.78 23.38-16.8 28.75a44.21 44.21 0 0 1 -16.11 5.06v13.67a3.64 3.64 0 1 1 -7.28 0v-13.26a37.52 37.52 0 0 1 -19.34-6c-5.78-3.74-9.83-9.31-12.36-16.7a27.42 27.42 0 0 1 -1.32-8.61c0-7.4 4.56-11.55 10.94-11.55 2.74 0 4.86 2.53 4.86 5.68a40.83 40.83 0 0 0 4.86 19.54 16.16 16.16 0 0 0 12.36 8.81v-45.67c-16.36-10.66-33-21.13-33-40m33 18.93v-43.21a20.25 20.25 0 0 0 -14.28 19.65c0 10.83 5.87 17.92 14.28 23.59m7.28 65.72a23 23 0 0 0 10-7.6 19.26 19.26 0 0 0 4.1-12.08c0-8.1-5.87-14.27-14.08-20z" fill="#2d1929"/><path d="m113.53 191.27a23 23 0 0 1 6.53 14.23c.72 8.94 10.72 8.58 15.37 4.82s4.79-20.2 7.49-21.71 4.31 19.93 6.54 21.36 9.43 2.62 13.25-3.43 7 .87 14 0 9.13-7.12 15.65-7.3-6.53 7-8.41 10.91-14.39-1.43-19 .17-10.73 7-14.3 7.69-2.68 13.58-7 10.36-5-13.58-7.86-12.68-9.11 7.32-14.12 3.21-13.72.44-13.72.44 8.97-14.78 5.58-28.07z" fill="#d7981a"/><path d="m110.23 207.27a5.36 5.36 0 0 1 3.93-10c34 13.38 67 17.37 98.14 11.87 32.85-5.79 67.7-22.24 73.93-29.14a5.36 5.36 0 0 1 7.43-7.42c4.18 2.79 5.37 7.67 2.19 12.42-8.3 12.38-51.85 29.43-81.69 34.7-35.01 6.2-70.16.86-103.93-12.43z" fill="#e73f46"/><path d="m315.37 482-31.25-89.91 127.28-48.25 49.07 63.48z" fill="#40c2d6"/><path d="m455.86 385.7 4.61 21.62-102.58 33.87 71.65-52.4z" fill="#40c2d6"/><path d="m289.59 371.21-5.47 20.88 10.65 10.5 24.1-15.15z" fill="#40c2d6"/><path d="m319.84 450.35-30.25-79.14 120.27-42.67 46 57.16z" fill="#40c2d6"/><path d="m321.6 440.72-30-76c39.58-9.53 81.19-23 118-41l45.14 55.28c-42.96 22.19-88.74 43-133.14 61.72z" fill="#86ebf9"/><path d="m304 439 12 28.5 26.48-15.68-25.24 9.76z" fill="#86ebf9"/><path d="m457.72 394.45-58.98 31.57 60.01-26.75z" fill="#86ebf9"/><path d="m325.76 429.46-25.18-60.46a.5.5 0 0 1 .34-.68c36.31-9.4 73.72-22 107.47-38.36a.51.51 0 0 1 .61.14l36.17 45.42a.5.5 0 0 1 -.17.76c-38.44 19.09-78.92 37.05-118.59 53.47a.49.49 0 0 1 -.65-.29zm-24-60.33 24.77 59.49c39.36-16.31 79.49-34.12 117.51-53l-35.57-44.62c-33.57 16.25-70.66 28.76-106.75 38.13z" fill="#fff"/><path d="m389 387.67c-6.75 4.93-17.44 3.1-23.5-4-5.83-6.85-4.89-15.79 1.76-20.06 6.46-4.16 16.22-2.55 22.16 3.67 6.18 6.44 6.16 15.6-.42 20.39z" fill="#e5e5e5"/><path d="m253.66 479.42-66.03-50.08 106.37-94.18 68.47 28.98z" fill="#40c2d6"/><path d="m351.31 349.43 11.16 14.71-84.19 68.67 49.17-69.75z" fill="#40c2d6"/><path d="m183.91 411.03 3.72 18.31 15.02 3.05 17.35-22.07z" fill="#40c2d6"/><path d="m245.94 455.75-62.03-44.72 102.83-87.82 64.57 26.22z" fill="#40c2d6"/><path d="m243.91 448.2-60.84-43.07c35.36-25 71.6-54.36 101.63-85.83l63.39 25.36c-33.02 35.34-68.87 70.48-104.18 103.54z" fill="#86ebf9"/><path d="m226.49 454.65 22.31 14.65 18.89-22.3-20 17.7z" fill="#86ebf9"/><path d="m355.87 355.43-44.74 48.88 47.23-45.6z" fill="#86ebf9"/><path d="m243.88 438.5c-.24 0 3.28 2.36-49.82-34.09a.5.5 0 0 1 0-.81c31.95-23.33 64.25-50 91.79-78.65a.51.51 0 0 1 .55-.12l51.38 21.1a.49.49 0 0 1 .17.8c-44.11 45.99-93.63 91.77-94.07 91.77zm-48.67-34.5 48.62 33.37c31.38-29.08 63.13-59.8 92.88-90.79l-50.39-20.68c-27.24 28.25-59.18 54.73-91.11 78.1z" fill="#fff"/><path d="m288.38 379.66c-4.68 6.72-15.66 10-24.21 7.18-8.35-2.72-10.93-10.11-6.07-16.41 4.74-6.14 15-9.16 23.14-6.83 8.36 2.4 11.69 9.53 7.14 16.06z" fill="#e5e5e5"/><path d="m399.15 317a268.42 268.42 0 0 0 -97.1-86l43.87-49.5a276.16 276.16 0 0 1 97.09 86z" fill="#86ebf9"/><path d="m399.7 307.12a.48.48 0 0 1 -.4-.2 274.32 274.32 0 0 0 -87.3-77.35.5.5 0 0 1 -.13-.77l35.13-39.61a.51.51 0 0 1 .62-.11 270.42 270.42 0 0 1 87.63 77.63.52.52 0 0 1 0 .63c-37.65 42.41-35.2 39.78-35.55 39.78zm-86.7-78.12a275.35 275.35 0 0 1 86.71 76.83l34.45-38.83a269.33 269.33 0 0 0 -86.71-76.83z" fill="#fff"/><circle cx="380.29" cy="242.26" fill="#e5e5e5" r="14.34"/><path d="m262.94 306.22a217.73 217.73 0 0 1 39.47-97.49l-49.71-20.12a223.92 223.92 0 0 0 -39.47 97.48z" fill="#86ebf9"/><path d="m258.81 299.42c-.16 0 2.7 1.14-40-16.14a.51.51 0 0 1 -.3-.55 219.24 219.24 0 0 1 35.64-88 .51.51 0 0 1 .6-.18c42.54 17.23 40 16.07 40.06 16.43a.48.48 0 0 1 -.06.42 222.45 222.45 0 0 0 -35.45 87.6.5.5 0 0 1 -.49.42zm-39.22-16.92 38.83 15.72a223.38 223.38 0 0 1 35.18-86.89l-38.83-15.72a218.24 218.24 0 0 0 -35.18 86.89z" fill="#fff"/><circle cx="249.68" cy="245.18" fill="#e5e5e5" r="11.63"/><path d="m60 255.44a6.44 6.44 0 0 1 -5.9-9 78.41 78.41 0 0 1 17.4-23.71c11.09-10.33 30.09-21.53 57.67-16.24a6.43 6.43 0 1 1 -2.42 12.63c-42.52-8.12-60.16 30.81-60.89 32.47a6.44 6.44 0 0 1 -5.86 3.85z" fill="#cc3745"/><path d="m78 316.19a6.44 6.44 0 0 1 2.57-8.73 41.86 41.86 0 0 0 12.3-11.31c6.34-9 6.73-19.11 1.18-30-4.84-9.5-5.64-19-2.35-28.28 7.29-20.58 32.59-32 33.66-32.49a6.44 6.44 0 0 1 5.23 11.76c-.37.17-21.38 9.78-26.78 25.07-2.07 5.87-1.51 11.79 1.7 18.1 10 19.51 4.17 34.52-2.42 43.69a54.75 54.75 0 0 1 -16.36 14.77 6.43 6.43 0 0 1 -8.73-2.58z" fill="#e73f46"/><rect fill="#cc3745" height="20.1" rx="4.85" transform="matrix(.972 .236 -.236 .972 52.71 -24.89)" width="10.39" x="125.31" y="198.08"/><rect fill="#cc3745" height="20.1" rx="4.85" transform="matrix(.972 .236 -.236 .972 53.73 -27.14)" width="10.39" x="135.23" y="201.2"/></g></svg>