<svg xmlns="http://www.w3.org/2000/svg" width="512" height="512" viewBox="0 0 512 512"><defs><style>.cls-1,.cls-6{fill:#383333}.cls-2{fill:#ff8c5f}.cls-12,.cls-13,.cls-3,.cls-5,.cls-8{fill:none;stroke-linecap:round;stroke-linejoin:round}.cls-12,.cls-3,.cls-5,.cls-8{stroke:#383333}.cls-3{stroke-width:.75px}.cls-4{fill:#ffb08d}.cls-5,.cls-6{fill-rule:evenodd}.cls-7{fill:#fff3e3}.cls-9{fill:#ff535c}.cls-10{fill:#00ccc1}.cls-11{fill:#ffb833}.cls-12{stroke-width:3px}.cls-13{stroke:#fff}</style></defs><g id="Newton_Balls" data-name="Newton Balls"><path d="M226.48,129.51s11.62,7.55,7.34,17.14-2.29,23.5,11,27.73-1,17.84,9.43,24.18,25.15-6.34,32.79,3.93,16.85,13.6,36.92,7.25,38,14.32,50.44,3.23,10.78-20.15,25.92-17.73a15.29,15.29,0,0,0,9.09-1.19c5.71-1.9,9.86-7.39,11.31-12.41,2.5-8.64-3.92-12.6-.65-18.14,3-5.05,8.94-2.77,13.16-8.15,4.82-6.15,2.47-16-1.64-22.07a27.6,27.6,0,0,0-7.9-7.25C406.46,115.89,239,128.54,226.48,129.51Z" class="cls-1"/><path d="M270,140.25c-.8-.78-5.14-4.87-11.37-4.41-.91.07-4.54.33-7,2.62-6.34,5.93-3.91,24.64,7,29.45,6.11,2.69,12.61,0,14.81-1Q271.78,153.59,270,140.25Z" class="cls-2"/><path d="M399.41,140.25c.8-.78,5.15-4.87,11.38-4.41.91.07,4.53.33,7,2.62,6.33,5.93,3.91,24.64-7,29.45-6.12,2.69-12.62,0-14.81-1Q397.66,153.59,399.41,140.25Z" class="cls-2"/><path d="M254.28,146.81l10.57-.48S254.1,153,263.1,161.7" class="cls-3"/><path d="M414.79,146.81l-10.56-.48S415,153,406,161.7" class="cls-3"/><circle cx="335.2" cy="129.2" r="74.31" class="cls-4"/><path d="M260.89,136.29c5.73,37.29,27.26,66.94,56.55,75.71a64.2,64.2,0,0,0,35.11.53c28.91-8,50.55-37.37,55.84-74.82-3.82-41-39.32-71.29-78-69.14C295.06,70.53,264.92,99.1,260.89,136.29Z" class="cls-4"/><path d="M412.84,458c4.44-2.66,7.92-5,10.34-6.78C408.75,416.7,406.07,388.7,406.12,370c.17-55.42,24.6-99.11,2.68-121.71a34.45,34.45,0,0,0-12.6-8.11h0a126.39,126.39,0,0,0-25.13-8.75c-5-1.88-9-3.88-11.28-6.62-7.08-8.63-3.89-31.45-3.89-31.45s-26.71-9.87-37,3.82c.22,8.64-1,20.38-8.4,30.05a30.82,30.82,0,0,1-8.11,7.43l-.09-.05c-5.33,1.09-11.07,2.51-17.11,4.37-5.7,1.75-8.64,2.58-12,4.13a59.42,59.42,0,0,0-16.57,12.54c-9.13,9.9-11,50.81,6.35,101.65a132.36,132.36,0,0,1-13.37,98.3,155.15,155.15,0,0,0,81.87,24.71,153.4,153.4,0,0,0,61-12,66.72,66.72,0,0,0,20.39-10S412.87,458.2,412.84,458Z" class="cls-4"/><path d="M290.55,126.12a24.56,24.56,0,0,1,14.12-4.62c3.43-.08,8.08-.2,9.51,2.49a3.77,3.77,0,0,1-.09,3.8c-1.61,2.16-5.66.21-12.2.15-8.61-.08-14.21,3.18-14.78,1.95C286.7,129,289.46,126.93,290.55,126.12Z" class="cls-1"/><path d="M378.63,126.7a24.63,24.63,0,0,0-14.2-4.34c-3.44,0-8.09,0-9.47,2.68a3.78,3.78,0,0,0,.17,3.79c1.65,2.13,5.66.1,12.2-.09,8.61-.25,14.28,2.91,14.82,1.66C382.54,129.5,379.74,127.49,378.63,126.7Z" class="cls-1"/><path d="M335.1,139.59s-6,13.93-4.91,16.59,11.95,1.75,11.95,1.75" class="cls-5"/><path d="M309.88,148.3a6.37,6.37,0,1,1,.55-9A6.4,6.4,0,0,1,309.88,148.3Z" class="cls-6"/><path d="M295.09,139.27c.14-.12,1.39,2,3,1.89,1.18-.11,1.49-1.41,3-2.55a7.61,7.61,0,0,1,4.5-1.44,16.34,16.34,0,0,1-2.57,3.71c-1.46,1.58-2.39,2.6-3.67,2.62C296.75,143.54,294.9,139.43,295.09,139.27Z" class="cls-6"/><path d="M368.63,147.75a6.37,6.37,0,1,1-.56-9A6.39,6.39,0,0,1,368.63,147.75Z" class="cls-6"/><path d="M374.41,139.27c-.14-.12-1.38,2-3,1.89-1.18-.11-1.49-1.41-3-2.55a7.61,7.61,0,0,0-4.5-1.44,16.68,16.68,0,0,0,2.57,3.71c1.46,1.58,2.4,2.6,3.67,2.62C372.75,143.54,374.6,139.43,374.41,139.27Z" class="cls-6"/><ellipse cx="293.99" cy="169.34" class="cls-2" rx="9.55" ry="5.95" transform="translate(-3.73 6.65) rotate(-1.29)"/><ellipse cx="372.3" cy="168.69" class="cls-2" rx="9.55" ry="5.95" transform="translate(-3.7 8.41) rotate(-1.29)"/><path d="M267.06,244.28a57.07,57.07,0,0,0-22.59,13.83c-8.72,8.84-12,18.47-15.18,28.63a552.78,552.78,0,0,0-15.06,61.46,84,84,0,0,0,22.51,15.64,84.94,84.94,0,0,0,37.89,8.06c.9-16.59,1.15-34.64.35-53.95A563.42,563.42,0,0,0,267.06,244.28Z" class="cls-7"/><path d="M192.43,317.2c3.82,9.84,32.15,81.58,56.77,78,5.33-.77,10.22-5,12.45-9.61,10.49-21.6-30.71-65.32-30.71-65.32Z" class="cls-4"/><path d="M215.55,317.55s-5.18-10-2.71-11.47,6.17,2.63,9.38,5.84a104.18,104.18,0,0,0,9.05,7.57S218.68,321.21,215.55,317.55Z" class="cls-4"/><path d="M350.65,70.41s-7.57,15.82-22.38,19.44-21.46-5.27-29,0,.69,22.05-15.44,28.3-14.9,16.47-13.37,25.35-3.12,12.13-6,8.94-3.73-13.9-6.81-15.27-7.2,1.42-8.12,4.43-15.82,4-20.27-4.43-9.62-27.91,7.65-36.79,6.14-14,12.7-31.91S271,58.42,280.88,50s15.21-23.69,33.77-18.76,18.82,8.89,35.72,2.47S369,49.53,382.19,48.05s29.27,5.78,32.6,20.42,25,20.55,22.09,35.36-14.48,16.79-11.52,23.87-4.51,15.12-5.13,14.73-2.72-3.81-6.3-5.21-5.06,12.53-8.64,13.51-12.35-11.19-8.4-22.38-13-9.21-13.82-24.35,3.5-17.94-.88-21.89S356.07,91.28,350.65,70.41Z" class="cls-1"/><path d="M317.44,212s24.39,6.15,38.08-.39" class="cls-5"/><path d="M330.05,180.44a9,9,0,0,0,11.09,0" class="cls-3"/><path d="M309.76,224.78a36.57,36.57,0,0,1-22.46,12.68c-14.06,2.56-27.85,10.08-29.46,11-19.85,11.62,8,79.2,5.65,146.46-1.19,34.79-10.26,63.89-19.33,85.37H429s-.35-19.55-5.11-36-17.56-71.65-11.67-99.55S409.81,249.59,402,242.62s-34.84-14-38.54-16.85a10.73,10.73,0,0,1-4.2-6.42S337.65,230.46,309.76,224.78Z" class="cls-7"/><path d="M259.42,430.62a489,489,0,0,0,57.33,3.81,491,491,0,0,0,102.17-10,164.11,164.11,0,0,1,5.53,18.35A166.39,166.39,0,0,1,429,480.31H237.11A466.52,466.52,0,0,0,259.42,430.62Z" class="cls-1"/><path d="M249.1,283.34s-6.81,25.27.54,41.76,11.83,41.77,11.83,41.77" class="cls-5"/><line x1="135.21" x2="135.21" y1="322.14" y2="429.47" class="cls-8"/><line x1="162.36" x2="162.36" y1="322.14" y2="429.47" class="cls-8"/><line x1="189.51" x2="189.51" y1="322.14" y2="429.47" class="cls-8"/><line x1="216.66" x2="216.66" y1="322.14" y2="429.47" class="cls-8"/><line x1="241.23" x2="257.81" y1="322.89" y2="428.72" class="cls-8"/><circle cx="257.27" cy="430.62" r="11.23" class="cls-9"/><circle cx="216.66" cy="430.62" r="11.23" class="cls-9"/><circle cx="189.51" cy="430.62" r="11.23" class="cls-9"/><circle cx="162.36" cy="430.62" r="11.23" class="cls-9"/><circle cx="135.21" cy="430.62" r="11.23" class="cls-9"/><path d="M284.3,340.9a15.82,15.82,0,0,0-15.8-15.8h-156a15.82,15.82,0,0,0-15.8,15.8V480.11H88.8V340.9a23.72,23.72,0,0,1,23.7-23.7h156a23.72,23.72,0,0,1,23.7,23.7V480.11h-7.9Z" class="cls-10"/><rect width="40.15" height="17.77" x="268.5" y="462.34" class="cls-9" rx="3.08" transform="translate(577.15 942.46) rotate(-180)"/><rect width="40.15" height="17.77" x="72.35" y="462.34" class="cls-9" rx="3.08" transform="translate(184.85 942.46) rotate(-180)"/><path d="M387.24,235.93a48.18,48.18,0,0,1,24.18,15.58,58.62,58.62,0,0,1,11,24c5.55,27.28-10.33,78.13-49.73,116.61-12.4,12.12-36.93,32.57-76.3,44.95l-8.85-28.66c4.63-3.68,11.14-9.08,18.51-16,30.71-29,58.7-55.45,63.24-90.68,3.05-23.61-3.58-41.71,9.17-58.91A22.81,22.81,0,0,1,387.24,235.93Z" class="cls-4"/><path d="M385.67,234.32c6.25,1.81,25.87,8.35,36.15,27.24,9.22,16.91,5.78,34.22,2.88,48.79a110.66,110.66,0,0,1-15.46,38.18,59.56,59.56,0,0,1-23.58-1.08,61,61,0,0,1-30.4-18.67c-2-5.71-12.2-36.91,4.61-67.13A77.91,77.91,0,0,1,385.67,234.32Z" class="cls-7"/><path d="M288.4,407.47s-8.6,6.67-15.32,8S259.6,417.3,260,420.69s6.41,2.54,10.44,4.85,3.74,5,.66,10.07-10.41,9.21-17,8.73-7.36,4.09,1.91,5.3,21.11-1.08,26.9-4.44,11.58-7.29,17.45-10C300.35,435.22,308,408.61,288.4,407.47Z" class="cls-4"/><path d="M223.37,316.57s-6.31-7.93-10.6-9.12-6,1.31-9.4,0-4.94.24-7.76.83-3.78-1.66-7-.47a10,10,0,0,1-2.84.78,12.29,12.29,0,0,1-2.63-.19c-2.7-.3-5.35,3.1-7.49,5.9-2.38,3.11-5.23,6.84-4.3,8,.45.55,2.2,1,11-3.88,0,0-5.47,8.33-2.26,9.52s10.72-8.57,10.72-8.57-6.43,7.5-3.1,9.29S199.92,319,199.92,319s-7.14,7.52-3.69,9.83,8.81-10,14.28-10.95S219.68,318.43,223.37,316.57Z" class="cls-4"/><path d="M187.56,110V87a2,2,0,0,1,1.32-1.94,2,2,0,0,1,2.58,1.85V110a2,2,0,0,1-2.58,1.86A2,2,0,0,1,187.56,110Z" class="cls-11"/><path d="M178,100.44a2,2,0,0,1-1.85-2.58,2,2,0,0,1,2-1.32H201a2,2,0,0,1,1.95,1.32,2,2,0,0,1-1.85,2.58Z" class="cls-11"/><path d="M210.87,255.36a1.49,1.49,0,0,1-1.49-1.48V236.25a1.49,1.49,0,1,1,3,0v17.63A1.48,1.48,0,0,1,210.87,255.36Z" class="cls-11"/><path d="M202.05,246.55a1.49,1.49,0,0,1,0-3h17.63a1.49,1.49,0,1,1,0,3Z" class="cls-11"/><path d="M437.84,223.47a1.48,1.48,0,0,1-1.48-1.48V204.36a1.49,1.49,0,1,1,3,0V222A1.49,1.49,0,0,1,437.84,223.47Z" class="cls-11"/><path d="M429,214.66a1.49,1.49,0,1,1,0-3h17.63a1.49,1.49,0,0,1,0,3Z" class="cls-11"/><line x1="67.16" x2="450.84" y1="480.11" y2="480.11" class="cls-12"/><path d="M219.18,317.56s-8-3.51-7-10.26" class="cls-3"/><path d="M197.27,322.3s5.78-11.88,8.41-14.47" class="cls-3"/><path d="M189.51,321s4.25-10,6.1-12.67" class="cls-3"/><line x1="182.3" x2="187.24" y1="318.4" y2="308.28" class="cls-3"/><path d="M362.76,64.4s-2.27,6.66,15.51,8.39,6.91,24.44,15.55,29.37,15.55,2.72,13.08,17" class="cls-13"/><path d="M401.72,91.79c.74-.74,15.55,1.73,15.79,11.36s-10.36,21,0,26" class="cls-13"/><path d="M339.51,64.4s-8.88,15.79-22.21,15.3-28.12,4-30.23,19.5" class="cls-13"/><path d="M322,64.4s-3.09,5.17-18.45,4.07S277.31,74,274.84,86.61" class="cls-13"/><path d="M261.71,130.69s-2.17-19.89,13.13-22.36" class="cls-13"/><path d="M240.53,134s-5.43-20.23,6.67-23.57,13.56-8,13.69-14.93" class="cls-13"/><path d="M263,173.13s-2,9.13,3.46,12.71,9.5.37,13.58,5.06" class="cls-13"/><path d="M390.36,189.91s1-8.27,9.13-7.16,11.62-5.79,10-9.87" class="cls-13"/><path d="M374.32,291.78s-9.76,31.45-15.49,40.7" class="cls-5"/><line x1="405.37" x2="413.57" y1="349" y2="335.11" class="cls-8"/><path d="M322.59,169.16c.27.45,4.9,7.64,13.65,7.69,9.06.05,13.79-7.59,14-7.94" class="cls-5"/></g></svg>