<?xml version="1.0" encoding="UTF-8"?>
<svg xmlns="http://www.w3.org/2000/svg" xmlns:xlink="http://www.w3.org/1999/xlink" viewBox="0 0 512 512" width="512" height="512"><defs><style>.cls-1,.cls-12,.cls-17,.cls-18,.cls-19,.cls-6,.cls-7{fill:none;}.cls-2,.cls-3{fill:#d89071;}.cls-10,.cls-12,.cls-3,.cls-7,.cls-9{fill-rule:evenodd;}.cls-4,.cls-9{fill:#383333;}.cls-5{fill:#ff535c;}.cls-19,.cls-6,.cls-7{stroke:#383333;}.cls-12,.cls-17,.cls-18,.cls-19,.cls-6,.cls-7{stroke-linecap:round;stroke-linejoin:round;}.cls-6{stroke-width:0.75px;}.cls-8{fill:#d17352;}.cls-10{fill:#ffdb99;}.cls-11{fill:#ffb833;}.cls-12{stroke:#fff;}.cls-13{fill:#fff;}.cls-14{clip-path:url(#clip-path);}.cls-15{fill:#aaeeea;}.cls-16{fill:#00ccc1;}.cls-17{stroke:#00ccc1;}.cls-18{stroke:#aaeeea;}.cls-19{stroke-width:3px;}</style><clipPath id="clip-path"><rect class="cls-1" x="77.01" y="257.04" width="230.78" height="223.96" rx="5.18"/></clipPath></defs><g id="PC_Repair" data-name="PC Repair"><path class="cls-2" d="M313.26,195.68c2.45,7.73,4.62,19.08-.33,29.37-6.19,12.85-19,14.67-28.05,21.44-17.9,13.38-14,40.78-11.87,100.95,1.58,44.05.06,88.17,1.11,132.23H415.53c-1.47-6.73-3.2-15.46-4.79-25.83a269.8,269.8,0,0,1-4-35.72c-3.23-71.54,23.27-123.33,5.83-158.76a72,72,0,0,0-19.47-24.42c-9.53-7-15.95-6-22.43-11.21-14.64-11.85-18-31.81-18.6-46.28Z"/><path class="cls-3" d="M197.57,226.45A71.14,71.14,0,0,0,199,205.73c-1-10.71,9.9-19.86,9.16-24.32s-9.54-.47-14.79,4.71-23.94,20.74-25.49,27.81S181,236.34,197.57,226.45Z"/><path class="cls-4" d="M243.25,435.53a417.76,417.76,0,0,0,61.66,6.59,419.42,419.42,0,0,0,115.57-12.53,251,251,0,0,1,7.42,35.88q1,7.54,1.48,14.6L251.79,481Z"/><path class="cls-5" d="M304.79,234.9s35.31,24.76,70.72-8.22a48.17,48.17,0,0,1,16.71,5.22A55.64,55.64,0,0,1,406.13,243C424.77,264.19,420,311.79,420,311.79c-1.17,8.56-2.37,19.66-2.95,32.68a396.45,396.45,0,0,0,.5,40.58,515.4,515.4,0,0,0,8.41,66.81,391.77,391.77,0,0,1-174.13,4c3.73-41.68,4.63-75.88,4.72-100.13.2-53.76-3.49-84.72,17.61-105.24C284.05,240.79,296.05,236.78,304.79,234.9Z"/><circle class="cls-2" cx="322.03" cy="130.78" r="71.86"/><path class="cls-2" d="M250.17,90.34c-8.45,53.49,0,99.25,25.57,112.45,6.43,3.32,13.13,4.17,18.52,4.8,35.31,4.18,63.05-13.73,74.31-22.07C368.57,185.52,339.8-1.55,250.17,90.34Z"/><path class="cls-2" d="M366.66,124.43c.77-.75,5-4.71,11-4.26.88.06,4.39.32,6.75,2.53,6.13,5.73,3.78,23.83-6.8,28.48-5.92,2.6-12.2,0-14.32-1Q365,137.33,366.66,124.43Z"/><path class="cls-6" d="M381.89,130.78l-10.21-.47s10.39,6.47,1.69,14.87"/><path class="cls-4" d="M334.65,116.24a22.26,22.26,0,0,0-12.79-4.18c-3.11-.08-7.32-.18-8.62,2.26a3.4,3.4,0,0,0,.09,3.43c1.45,2,5.12.19,11.05.14,7.8-.08,12.87,2.88,13.39,1.76C338.14,118.84,335.64,117,334.65,116.24Z"/><path class="cls-4" d="M258,116.77a22.37,22.37,0,0,1,12.88-3.94c3.11,0,7.32,0,8.57,2.43a3.45,3.45,0,0,1-.15,3.44c-1.5,1.92-5.13.09-11.06-.09-7.8-.22-12.93,2.64-13.42,1.51C254.46,119.3,257,117.48,258,116.77Z"/><path class="cls-7" d="M291.33,132.74s-5.45,12.62-4.45,15,10.83,1.59,10.83,1.59"/><ellipse class="cls-8" cx="334.66" cy="153.99" rx="8.65" ry="5.39" transform="translate(-2.59 5.76) rotate(-0.98)"/><ellipse class="cls-8" cx="263.75" cy="156.22" rx="8.65" ry="5.39" transform="matrix(1, -0.02, 0.02, 1, -2.64, 4.54)"/><path class="cls-9" d="M324.61,141.16a6.37,6.37,0,1,1-.42-9A6.39,6.39,0,0,1,324.61,141.16Z"/><path class="cls-9" d="M272.09,142.09a6.37,6.37,0,1,1,.11-9A6.39,6.39,0,0,1,272.09,142.09Z"/><path class="cls-2" d="M167.44,219.21c1.19,16.55,8.41,106.85,38.26,111.9,6.33,1.07,14.51-1.54,18.81-6.93,8.17-10.25-.45-27.16-12.87-64.33-6.52-19.52-11.08-35.62-13.85-45.92Z"/><path class="cls-10" d="M183.93,186.48,181.45,185a2.51,2.51,0,0,1-.88-3.45l44.15-74.35a2.51,2.51,0,0,1,3.45-.88l1.31.78,1.17.69a2.51,2.51,0,0,1,.88,3.45L187.38,185.6A2.51,2.51,0,0,1,183.93,186.48Z"/><rect class="cls-11" x="158.69" y="162.8" width="26.39" height="82.25" rx="13.2" transform="translate(128.22 -59.18) rotate(30.7)"/><rect class="cls-11" x="178.52" y="163.46" width="26.39" height="14.17" rx="7.09" transform="translate(113.96 -73.98) rotate(30.7)"/><path class="cls-10" d="M219.54,116.89l6.6,3.79,7.11-3.06,4.9-18.79-5.83-3.47-14,13.39Z"/><path class="cls-2" d="M375.51,226.68c34.84,5.93,49.87,22.7,55.19,29.71,4.62,6.08,6.1,10.29,18.48,60.37C459,356.52,460,361.58,457.1,369c-6.31,16.28-23.14,23.38-48.17,33.52a280.23,280.23,0,0,1-79.84,19.13l-10.23-27.38a250.2,250.2,0,0,0,85.45-45.43c-7.28-13.05-13.95-31.07-21.24-52.31C373.58,268.93,366.38,238.39,375.51,226.68Z"/><path class="cls-5" d="M375.51,226.68c40,4.28,52.56,19.59,57.09,27.48,1.31,2.28,3.32,9.63,7.34,24.33,6.75,24.66,11.83,48.81,11.83,48.81h0a109,109,0,0,1-55,23.11c-4.25-8.09-10-19.66-15.83-34C372,294.59,367.47,283.38,366.78,269,366.35,260.05,367.1,245,375.51,226.68Z"/><path class="cls-4" d="M309.63,74.28s-35.14,24.36-54.85,21.08-28.39-27.68-22.9-39.56,1,4.29,15.13,0,41.79-26.06,60.78-24.74,31.06,17.48,31.06,17.48,20.3-15.34,43,3,43,122.23-26.74,143.51c0,0-7.91-5.58.75-17.57s6.26-25.12,10.79-25.14,13.95,1.34,18.28-8.41,3.13-20.73-3.08-22.79-14.32,2.63-15.45,5-2.75,9.42-5.59,9.42-8-7.85-4.05-23.49S311,95.39,309.63,74.28Z"/><path class="cls-7" d="M316.76,207.43s15.09-1.26,28.06-8.48"/><path class="cls-12" d="M243.07,68.83s11.38,21,39.83,6.19"/><path class="cls-12" d="M266.33,65s26.47,12.3,48.74-10"/><path class="cls-12" d="M319.9,72.3S349,101.61,378.66,95.36"/><path class="cls-12" d="M347,80.32s31.42,11.52,42.81-3.82"/><path class="cls-12" d="M391.41,112s6.89,24.43-3.67,44.19"/><path class="cls-12" d="M374,159.38s-1.33,15.35-10.68,21.54"/><path class="cls-12" d="M387.74,161.6s-7.59,20.8-23.18,25.26"/><path class="cls-6" d="M300.6,171.76a14.4,14.4,0,0,1,7.19-2"/><path class="cls-7" d="M404.31,348.86s23.84-2.16,36.7,9.22"/><path class="cls-7" d="M394.08,276.18s-5.22,38.09,8.28,69"/><ellipse class="cls-13" cx="302.29" cy="163.48" rx="10.06" ry="4.7" transform="translate(-30.41 77.36) rotate(-13.89)"/><g class="cls-14"><rect class="cls-15" x="77.01" y="257.04" width="230.78" height="223.96" rx="5.18"/><rect class="cls-16" x="66.01" y="243.2" width="97.24" height="246.76"/><line class="cls-17" x1="226.5" y1="232.88" x2="226.5" y2="489.96"/></g><circle class="cls-17" cx="268.92" cy="312.31" r="29.69"/><rect class="cls-17" x="241.95" y="355.85" width="53.94" height="111.84"/><circle class="cls-16" cx="267.75" cy="312.24" r="8.54"/><line class="cls-17" x1="259.21" y1="284.25" x2="281.22" y2="339.33"/><line class="cls-17" x1="244.89" y1="329.74" x2="294.74" y2="297.65"/><polyline class="cls-17" points="135.19 311.79 202.49 311.79 202.49 479.32"/><line class="cls-17" x1="135.18" y1="346.79" x2="191.93" y2="346.79"/><line class="cls-17" x1="135.18" y1="372.11" x2="191.93" y2="372.11"/><line class="cls-17" x1="135.18" y1="397.44" x2="191.93" y2="397.44"/><line class="cls-17" x1="135.18" y1="422.76" x2="191.93" y2="422.76"/><line class="cls-17" x1="135.18" y1="448.09" x2="191.93" y2="448.09"/><circle class="cls-18" cx="117.86" cy="301.81" r="29.69"/><circle class="cls-15" cx="117.86" cy="301.81" r="8.54"/><circle class="cls-18" cx="117.86" cy="370.14" r="29.69"/><circle class="cls-15" cx="117.86" cy="370.14" r="8.54"/><circle class="cls-18" cx="117.86" cy="439.45" r="29.69"/><circle class="cls-15" cx="117.86" cy="439.45" r="8.54"/><path class="cls-2" d="M333.22,389.52s-16,4.44-24.09,5.1-19.3-8.58-21.44-5.94,2.14,10.23,8.2,13.2-20.8,4.2-25.68,4-.54,6.68,11.21,6.8l11.75.12s-8.29,3.72-16.7,3.34-12.87-.49-12.87,1.12,12.5,7.67,30.07,4.45c0,0-12.37,6.19-19.55,5.69s-6.68,2.72-1.11,4.09,16.82.61,23.63-2.35c0,0-8.54,4.94-12,6.43s-.62,4.08,8.66,1.36,15-7.92,21.77-10.39,18.15-5.24,18.15-5.24S348.41,393,333.22,389.52Z"/><path class="cls-11" d="M420.71,73.11v-23A2,2,0,0,1,422,48.17,2,2,0,0,1,424.62,50V73.2A2,2,0,0,1,422,75.05,2,2,0,0,1,420.71,73.11Z"/><path class="cls-11" d="M411.08,63.57A2,2,0,0,1,409.22,61a2,2,0,0,1,2-1.32h23a2,2,0,0,1,2,1.32,2,2,0,0,1-1.85,2.59Z"/><path class="cls-11" d="M155.71,148.07a1.49,1.49,0,0,1-1.49-1.49V128.91a1.5,1.5,0,0,1,3,0v17.67A1.5,1.5,0,0,1,155.71,148.07Z"/><path class="cls-11" d="M146.88,139.23a1.49,1.49,0,0,1,0-3h17.67a1.49,1.49,0,0,1,0,3Z"/><path class="cls-11" d="M415.9,214.91a1.49,1.49,0,0,1-1.49-1.49V195.75a1.49,1.49,0,0,1,3,0v17.67A1.49,1.49,0,0,1,415.9,214.91Z"/><path class="cls-11" d="M407.07,206.07a1.49,1.49,0,0,1,0-3h17.67a1.49,1.49,0,0,1,0,3Z"/><path class="cls-2" d="M157.08,203.08s3-4,5.11-4,8,1.35,10.09-2-5.34-4.72-5.34-4.72,9.33.54,9.67-2.21S172,185.6,172,185.6s7,.8,8.48-2-5.14-3.85-5.14-3.85,6.75.75,7.14-1.68-6.41-5.81-11.16-4.64-2.94,5.26-2.94,5.26-4.09,1.25-2.52,4.71a6.88,6.88,0,0,0-2.65,2,7.44,7.44,0,0,0-1.42,5.64c-4,2-6.46,5.58-6.06,8.86A6.4,6.4,0,0,0,157.08,203.08Z"/><path class="cls-6" d="M161.7,191.53a15.84,15.84,0,0,1,6.64,1.08"/><path class="cls-6" d="M165.89,183.44s5.86,2.05,6.14,2.16"/><path class="cls-6" d="M168.41,178.73s5.66.65,7.55,1.17"/><line class="cls-19" x1="55.48" y1="479.67" x2="450.17" y2="479.67"/></g></svg>
