<svg height="512" viewBox="0 0 512 512" width="512" xmlns="http://www.w3.org/2000/svg" xmlns:xlink="http://www.w3.org/1999/xlink"><clipPath id="clip-path"><path d="m460.67 160a110.79 110.79 0 0 0 -26.53.56c-22.36 3.19-31 11.52-47.31 14.32-10.29 1.77-25.85 1.71-46.76-8.41l-4-73.88c20.47 7.61 35.85 7 46.13 5.06 14.91-2.84 21.71-9.07 39.38-12a100.3 100.3 0 0 1 35.09.48z"/></clipPath><clipPath id="clip-path-2"><path d="m147.48 176.32h58.19v104.43h-58.19z" transform="matrix(.989 .147 -.147 .989 35.63 -23.54)"/></clipPath><g id="Tired_Doctor" data-name="Tired Doctor"><g clip-path="url(#clip-path)"><path d="m460.67 160a110.79 110.79 0 0 0 -26.53.56c-22.36 3.19-31 11.52-47.31 14.32-10.29 1.77-25.85 1.71-46.76-8.41l-4-73.88c20.47 7.61 35.85 7 46.13 5.06 14.91-2.84 21.71-9.07 39.38-12a100.3 100.3 0 0 1 35.09.48z" fill="#e8e7e3"/><path d="m367.4 84.35s-20 17.17-19.48 42.23 7.2 47.56 38.91 48.33l-32.07 11.83-33.9-14.14-3.86-88.25 42.24-24.77z" fill="#c6c6c6"/></g><path d="m342.64 206.08s15.74-9.62 20.34-5.7.49 10.26.49 10.26 9.56 2.79 3.77 11.26c0 0 9.57 3.13 3.8 11.77a4.76 4.76 0 0 1 3.57 1.51c.84.91 2.35 2.92 1.34 8.83-1.8 10.46-10.32 27.05-12.16 30.57l.39 51.44-30.95-12.19c4.92-70.54 2.77-45.68 9.41-107.75z" fill="#e39c76"/><path d="m343.63 269.31a4.5 4.5 0 0 1 -4.91-4.27l-8.56-180.54a4.61 4.61 0 0 1 9.2-.43l8.56 180.53a4.51 4.51 0 0 1 -4.29 4.71z" fill="#287eef"/><path d="m317 307.08 7.48-36.65a156.89 156.89 0 0 1 -3.37-33.12c.05-6.39.1-10.33 1.33-15.42 3.93-16.29 16.23-29.17 19.42-27.63 5 2.41-1 21.89-4.65 26.16 1.72 55.22 1.3 43.87 2 57.7 0 0 2.5 4.76 7.16 3.13l-4 31.77s-17.25 4.11-25.37-5.94z" fill="#e39c76"/><path d="m348.67 202.85s-16.33 17.15-11.41 20.15 11.19-2.44 11.19-2.44-11.45 9.73-9.35 13.44 11-1.67 11-1.67-10.2 9.69-7.84 13.55 8.46-.4 8.46-.4-9 6.7-6.09 10.78 15.37-4.84 15.37-4.84l-1.8 10.5 11.34-11.8-6.54-17.23-7.33-27.55s-1.36-4.94-7-2.49z" fill="#e39c76"/><g clip-path="url(#clip-path-2)"><path d="m147.48 176.32h58.19v104.43h-58.19z" fill="#e39c76" transform="matrix(.989 .147 -.147 .989 35.63 -23.54)"/><path d="m155.17 192.12a60.93 60.93 0 0 0 8.93 28c14.9 23.86 41.77 28.23 46.29 28.9l2.55-35.24z" fill="#d48f6e"/></g><path d="m199.8 249.66c9.81.61 24.83 3.08 38.72 13 13.13 9.35 20.12 21.68 31.19 49.61a707.94 707.94 0 0 1 26.09 79.23q14-59.67 27.95-119.33l43.65 37.5a435.11 435.11 0 0 1 -3 51.66c-4.42 37.46-13 99.91-42 111.15-13.48 5.22-27.15.78-33.75-1.36-14.69-4.77-34.22-15.4-50.81-52.51-28.65-64.1-38.04-168.95-38.04-168.95z" fill="#86ebf9"/><path d="m262.69 134.48c1.19-21 5.81-36.53-6.9-52.87a72.67 72.67 0 0 0 -13.63-16c-19-18.79-54.35-24.5-80.93-10.13-30.62 16.55-35.59 52.14-36.82 61-5.76 41.27 18.75 73.2 29.73 85.22a106.44 106.44 0 0 0 20.1 19.87c8.44 6.24 31.06 22.94 50.46 14.17 5.07-2.29 12.54-8.82 22.63-25.2 13.06-21.2 16.18-33.15 16.49-46.22s-1.61-21.32-1.13-29.84z" fill="#e39c76"/><path d="m225.8 176.8c4.69-1.78 7.28-3.92 7.7-6.37 1-5.65-9.75-8.22-10.42-28a.51.51 0 0 1 .49-.52.5.5 0 0 1 .51.48c.66 19.43 11.48 21.84 10.41 28.16-.49 2.82-3.29 5.23-8.33 7.14a.5.5 0 0 1 -.36-.89z" fill="#2d1929"/><path d="m231.59 117.47a1 1 0 1 1 1.58-1.22 16.7 16.7 0 0 0 21.89 4.52 1 1 0 0 1 1.37.37 1 1 0 0 1 -.37 1.36 18.73 18.73 0 0 1 -24.47-5.03z" fill="#2d1929"/><path d="m195.05 122.58a18.45 18.45 0 0 1 -10.92-3.84 1 1 0 1 1 1.26-1.56c.63.52 6.41 5 13.63 2.82a15.18 15.18 0 0 0 9.07-7.85 1 1 0 1 1 1.8.86 16.62 16.62 0 0 1 -14.84 9.57z" fill="#2d1929"/><path d="m164.71 248.81c-9.94-1.21-39.2-3.57-59.67 13.64-16.17 13.6-19.24 33-20.57 51.14-4.57 62.2 10 126.66 21.67 167.41h154.86c-9-87.71-10.8-143.53-7.72-178.49.48-5.4 1.8-18.61-6.43-30.51-16.59-24-59.36-24.45-82.14-23.19z" fill="#917eec"/><path d="m188.64 145.41a.51.51 0 0 1 -.16-.69.5.5 0 0 1 .69-.15 16.51 16.51 0 0 0 21.11-2.45.5.5 0 0 1 .71 0 .49.49 0 0 1 0 .71 17.48 17.48 0 0 1 -22.35 2.58z" fill="#2d1929"/><path d="m232.74 142.81a.5.5 0 0 1 .73-.69 16.5 16.5 0 0 0 21.1 2.45.5.5 0 0 1 .54.84 17.51 17.51 0 0 1 -22.37-2.6z" fill="#2d1929"/><path d="m144.22 248.2s-53 .1-77.54 46.9-12.28 185.9-12.28 185.9h70.24l-9-140.13s49.87-35.99 28.58-92.67z" fill="#86ebf9"/><path d="m144.22 248.2s16.95 15.95 32.35 16.72 26.27-15.26 26.27-15.26-31.44-11.52-58.62-1.46z" fill="#e39c76"/><path d="m202.84 249.66c4.77 87.11 11.87 137.5 17.78 167.92 1.28 6.61 12.44 63.42 12.44 63.42s-1.22 0 39.55 0c0 0-3.1-12.46-6.11-33.53-4.19-29.44-4.1-46.88-5.52-85.18-2.7-72.32-6.13-82.72-14.11-91.83-12.69-14.46-31.11-19.12-44.03-20.8z" fill="#86ebf9"/><path d="m144.22 248.2s10.42 15.61 13.83 79 8.18 153.8 8.18 153.8h-60.09l-14.23-135.36 16.36-51.14s2.07-33.63 35.95-46.3z" fill="#86ebf9"/><path d="m147.26 227.87s-4.19-.41-7.16 4.45-8.94 17.34-8.94 17.34 9.42 36.49 21.18 40.32 24.23-25.06 24.23-25.06-17.27-2-29.31-37.05z" fill="#917eec"/><path d="m176.57 264.92s14.64 27.87 26.27 22.76 10.21-36.18 10.21-36.18-2.12-12.37-8.36-14.19c0 0-5.42 23.52-28.12 27.61z" fill="#917eec"/><path d="m175.1 270.8-14.88 17.51 12.07 17.78s-12.14 75.69 4.28 106.91 7.22 68 7.22 68h43.47l.46-27.2s-3.88-31.78-14.61-53.95-33.11-67.33-27.11-94.95l5.62-17.9z" fill="#efbd42"/><path d="m160.22 288.31a5.88 5.88 0 0 1 -5.47 2l6.88 3.49 9.7 19.07 1-6.8z" fill="#6d5fde"/><path d="m191.63 287a22.52 22.52 0 0 0 13.49-.78 14.1 14.1 0 0 1 -12.25 5.17l-7.21 15.37z" fill="#6d5fde"/><path d="m97.26 328.91-5.35 36.42 5.35 115.67h56.61s-40.65-10.23-44.23-15.34 6.13-9.21 7.67-15.86-8.19-11.25-12.79-24-4.1-52.68-4.1-52.68z" fill="#40c2d6"/><path d="m129.07 259.1-3.75 41.5 17.39 6.16-8.7 22.15 20.74 30.03-12.38-30.03 7.14-24.52-18.35-7.9z" fill="#40c2d6"/><path d="m218.4 264.95 9.32 26.82-12.73 6.14 12.73 14.98-12.73 46.05 19.77-46.05-9.88-12.29 9.88-6.44z" fill="#40c2d6"/><path d="m257.74 306.76s-2 122.63 10.85 154.06a54.57 54.57 0 0 0 13.27 7.78 752.72 752.72 0 0 1 -24.12-161.84z" fill="#40c2d6"/><path d="m295.8 391.5s-4.1 41.94 2.81 59.58l2.95-84.65z" fill="#40c2d6"/><path d="m140.1 136.47 11-26.26s12.79 4.61 21.23-10.22 8.77-32.48 24.58-38.87c0 0 15.27-6.91 16.18 13s51.16 28.34 51.16 28.34l-.32 16.54s14.14-14.39 11.75-43-29.79-49.78-62.63-39.89c-36.63-10.91-74.87-4.11-95.23 18.89-29.82 33.64-22.77 103.68 33.77 143.82z" fill="#2d1929"/><path d="m152 134.4c-2.88-12-13.18-19.71-23-17.35s-15.48 14-12.6 25.91 13.17 19.71 23 17.35 15.47-13.97 12.6-25.91z" fill="#e39c76"/><path d="m141.88 149.64c-.06 0-5.94-1.81-5.63-7.72.21-3.73 5.2-4.42 7-4.54-.77-2.55-4.17-12.38-10.93-13-6.33-.62-7.17 6.47-7.2 6.77a.52.52 0 0 1 -.56.44.5.5 0 0 1 -.44-.55c0-.08 1-8.37 8.3-7.66 8.42.84 11.83 13.84 12 14.4a.5.5 0 0 1 -.48.62c-.06 0-6.49.08-6.68 3.63-.27 5.11 4.7 6.63 4.91 6.7a.5.5 0 0 1 -.29.91z" fill="#2d1929"/><path d="m224.88 192.2a.5.5 0 0 1 -.43-.24c-4.34-7.07-14.15-4.07-14.25-4a.5.5 0 0 1 -.31-1c.11 0 10.66-3.26 15.41 4.48a.5.5 0 0 1 -.42.76z" fill="#2d1929"/><path d="m129.07 366a1.49 1.49 0 0 1 -1.46-1.18c-.89-4-21.5-98.3-2.3-122.33a14.31 14.31 0 0 1 11.52-5.75 1.54 1.54 0 0 1 1.51 1.5 1.49 1.49 0 0 1 -1.49 1.5c-29.11.14-12.54 96.29-6.31 124.43a1.51 1.51 0 0 1 -1.47 1.83z" fill="#2d1929"/><path d="m229.05 356.43a1.48 1.48 0 0 1 -1.46-1.18 89.07 89.07 0 0 1 -2.08-19.5c.13-26.62 12.44-38.87 7.79-59.5a32.28 32.28 0 0 0 -7.06-14.63 28.84 28.84 0 0 0 -13.52-8.62 1.5 1.5 0 1 1 .67-2.92 31.29 31.29 0 0 1 15.1 9.6 35.19 35.19 0 0 1 7.74 15.95c4.85 21.57-7.59 34.07-7.72 60.17a85.6 85.6 0 0 0 2 18.85 1.5 1.5 0 0 1 -1.46 1.78z" fill="#2d1929"/><path d="m224 422.29a4.86 4.86 0 0 1 -4.61-3.32c-8.49-25-15.71-64.34 10.78-66.41 24.95-1.94 32.87 28.91 33.61 54a6.88 6.88 0 0 1 -3 5.87l-3.34 2.33a1.5 1.5 0 0 1 -1.71-2.46l3.34-2.33a3.9 3.9 0 0 0 1.68-3.32c-.23-7.91-2-34.6-14.64-46a20.29 20.29 0 0 0 -15.73-5.16c-5.38.42-9.28 2.57-11.92 6.57-9.33 14.16.51 46.36 3.74 55.89a1.89 1.89 0 0 0 2.22 1.23l8.64-2a1.5 1.5 0 0 1 .69 2.92c-9.43 2.25-8.95 2.19-9.75 2.19z" fill="#2d1929"/><circle cx="133.83" cy="369.6" fill="#e8e7e3" r="23.54"/><circle cx="133.84" cy="368.23" fill="#c6c6c6" r="13.3"/><g fill="#2d1929"><rect height="11.08" rx="4.75" transform="matrix(.987 -.164 .164 .987 -65.84 43.29)" width="12.34" x="223.51" y="415.54"/><rect height="11.08" rx="4.75" transform="matrix(.863 -.506 .506 .863 -173.86 186.17)" width="12.34" x="249.9" y="407.87"/><path d="m346.33 222.51a.5.5 0 0 1 -.28-.92l17.14-11.36a.5.5 0 1 1 .56.83c-18.36 12.17-17.19 11.45-17.42 11.45z"/><path d="m347.55 235.47a.5.5 0 0 1 -.28-.92l19.73-13.07a.5.5 0 0 1 .55.83c-21.09 13.98-19.77 13.16-20 13.16z"/><path d="m347.93 248.41a.5.5 0 0 1 -.27-.92l23.12-14.25a.51.51 0 0 1 .69.16.5.5 0 0 1 -.17.69c-24.81 15.29-23.15 14.32-23.37 14.32z"/><path d="m361.16 263.23a.49.49 0 0 1 -.49-.42l-1.54-9.33c-4.18 3.4-11.16 4.93-11.47 5a.5.5 0 0 1 -.22-1c.08 0 7.85-1.72 11.7-5.36a.51.51 0 0 1 .84.29l1.67 10.22a.5.5 0 0 1 -.49.6z"/></g></g></svg>