<svg height="512" viewBox="0 0 512 512" width="512" xmlns="http://www.w3.org/2000/svg" xmlns:xlink="http://www.w3.org/1999/xlink"><clipPath id="a"><circle cx="357.79" cy="372.77" r="63.8"/></clipPath><clipPath id="b"><path d="m278.61 221.16a31.82 31.82 0 1 1 44.39 7.65 31.85 31.85 0 0 1 -44.39-7.65z"/></clipPath><clipPath id="c"><path d="m233.21 254.18a17.06 17.06 0 1 1 23.79 4.11 17.06 17.06 0 0 1 -23.79-4.11z"/></clipPath><path d="m123.23 124.27s-75.38 38.29-79.15 103 60 55.46 58.75 96.71-42.74 91.46 33.57 128.2 319.38-125.69 341-224.89-66.21-61.61-90.1-103-127.44-70.73-264.07-.02z" fill="#86ebf9"/><g clip-path="url(#a)"><circle cx="357.79" cy="372.77" fill="#c6c6c6" r="63.8"/><g fill="#2d1929"><circle cx="344.39" cy="335.83" r="11.44"/><circle cx="400.78" cy="320.93" r="20.35"/><circle cx="330.27" cy="404.9" r="26.84"/><circle cx="408.91" cy="409.09" r="19.85"/><circle cx="298.7" cy="354.82" r="13.54"/><circle cx="376.12" cy="368.4" r="13.58"/></g></g><path d="m83.5 155.59c-21.67-1.52-32.23-5.87-33.24-13.69s8.09-14.71 28.66-21.7c36.12-12.28 95.82-20 133.89-17.33 21.67 1.52 32.23 5.87 33.24 13.69 1 7.82-8.09 14.71-28.66 21.7-36.66 12.46-96.39 19.97-133.89 17.33zm-24.26-14.85c.64.74 5 4.73 27 6 36.26 2.11 91.64-5.05 126.19-16.33 20.94-6.84 24.19-11.82 24.61-12.7-.63-.74-5-4.73-27-6-36.23-2.11-91.64 5.05-126.19 16.29-20.94 6.88-24.18 11.86-24.61 12.74z" fill="#efbd42"/><circle cx="146.3" cy="114.91" fill="#287eef" r="59.36"/><path d="m91.13 156a4.5 4.5 0 0 1 .09-9c.66 0 65.68.52 115.28-14.72a4.5 4.5 0 0 1 2.64 8.61c-35.4 10.85-84.45 15.39-118.01 15.11z" fill="#efbd42"/><path d="m163.24 270.81-66.42 26.19 19.61 7.13-62.43 35.01 25 7.14-48.14 49.91 82.6-23.19-4.16 35.65 45.44-68.93 4.47 22.28 34.47-49z" fill="#287eef"/><path d="m99.05 340.88-17.42-4.97 60.35-33.91-14.95-5.44 32.4-12.76 21.12 29.28-15.76 22.41-4.69-23.33-34.96 53.05.79-6.8-60.01 16.84z" fill="#1573d8"/><path d="m203.27 221.22-50.56-9.47a1.94 1.94 0 0 0 -1.69.6l-69.42 70.75a1.65 1.65 0 0 0 -.18 2.09l4.67 6.62a1.34 1.34 0 0 0 2 .29l52-40.2a1.65 1.65 0 0 1 1.75-.24l22.65 11.34a1.85 1.85 0 0 0 2.12-.45l37.22-38.18c1.17-1.14.84-2.89-.56-3.15z" fill="#e73f46"/><path d="m254.37 293.63-8 50.81a2 2 0 0 1 -1.14 1.39l-89.92 41.7a1.68 1.68 0 0 1 -2-.53l-4.67-6.62a1.35 1.35 0 0 1 .38-1.94l55.31-35.5a1.68 1.68 0 0 0 .81-1.58q-1.54-12.47-3.1-25.2a1.85 1.85 0 0 1 1.14-1.85l48.38-22.31c1.49-.65 3.03.23 2.81 1.63z" fill="#e73f46"/><path d="m189.63 323.48a4.8 4.8 0 0 1 -5.41-.75 131.31 131.31 0 0 1 -33-46.83 4.78 4.78 0 0 1 1.13-5.29l12-11.46a4.8 4.8 0 0 1 7.25.71l34.6 49.14a4.8 4.8 0 0 1 -1.77 7.07z" fill="#cc3745"/><path d="m203.54 320.47c57.26-13.82 140.14-56.63 190.46-124.47a262.2 262.2 0 0 0 41.93-86 264.33 264.33 0 0 0 -96 11.18c-80.26 24.93-147.95 88.23-180.07 137.26a255.49 255.49 0 0 0 43.68 62.03z" fill="#efbd42"/><path d="m222.18 258.76c-42.65 17.76-40.1 16.63-40.5 17-23.69 20.38-45.45 39.11-65.5 56.38a1.47 1.47 0 0 0 -.25 2l1.08 1.53a1.48 1.48 0 0 0 1.95.42c79.21-46.15 73.92-43 74.23-43.33l30.88-31.08c1.57-1.62.15-3.77-1.89-2.92z" fill="#e73f46"/><path d="m394 196a262.2 262.2 0 0 0 41.93-86s-86.69 151.85-242.88 198.79c3.54 4.18 7 8.08 10.49 11.68 57.26-13.82 140.14-56.63 190.46-124.47z" fill="#d7981a"/><path d="m435.92 110a263.7 263.7 0 0 0 -123.36 21.3 310.81 310.81 0 0 1 63 86.9 261.53 261.53 0 0 0 60.36-108.2z" fill="#e73f46"/><path d="m435.92 110s-24.27 42.51-70.26 89.49c3.72 6.46 7 12.73 9.94 18.71a261.53 261.53 0 0 0 60.32-108.2z" fill="#cc3745"/><circle cx="304.6" cy="202.81" fill="#e73f46" r="41.28"/><g clip-path="url(#b)"><path d="m278.61 221.16a31.82 31.82 0 1 1 44.39 7.65 31.85 31.85 0 0 1 -44.39-7.65z" fill="#2d1929"/><path d="m345.88 202.75-87.88-14.75c-.43 2.8-.85 5.6-1.28 8.4l82.85 14.46-.22 4.59-77.71-14.45-1.42 3.3 81.78 19.51 7.65-15.67z" fill="#eaeaea"/></g><g fill="#2d1929"><circle cx="334.7" cy="182.58" r="3.06"/><circle cx="275.33" cy="224.47" r="3.06"/><circle cx="325.96" cy="233.21" r="3.06"/><circle cx="284.07" cy="173.84" r="3.06"/><circle cx="298.83" cy="239.32" r="3.06"/><circle cx="311.19" cy="167.72" r="3.06"/><circle cx="340.81" cy="209.7" r="3.06"/><circle cx="269.21" cy="197.34" r="3.06"/></g><circle cx="247.15" cy="244.35" fill="#e73f46" r="22.14"/><g clip-path="url(#c)"><path d="m233.21 254.18a17.06 17.06 0 1 1 23.79 4.11 17.06 17.06 0 0 1 -23.79-4.11z" fill="#2d1929"/><path d="m269.28 244.31-47.14-7.9-.69 4.5 44.42 7.76-.11 2.46-41.65-7.77c-.25.59-.51 1.18-.76 1.78l43.86 10.47 4.11-8.41z" fill="#eaeaea"/></g><path d="m330.66 124.27a272.52 272.52 0 0 1 56.69 80.35q-5.57 7.06-11.75 13.61c-15.83-28.71-39.4-63-63-86.9a149.41 149.41 0 0 1 18.06-7.06z" fill="#cc3745"/></svg>