<svg height="512" viewBox="0 0 512 512" width="512" xmlns="http://www.w3.org/2000/svg" xmlns:xlink="http://www.w3.org/1999/xlink"><clipPath id="clip-path"><rect height="219.66" rx="12.5" transform="matrix(.954 -.301 .301 .954 -103.51 67.2)" width="64.65" x="133.65" y="259.16"/></clipPath><clipPath id="clip-path-2"><rect height="60.24" rx="5.83" transform="matrix(.954 -.301 .301 .954 -65.25 48.27)" width="64.65" x="91.46" y="205.43"/></clipPath><g id="Vaccine"><rect fill="#e73f46" height="219.66" rx="12.5" transform="matrix(.954 -.301 .301 .954 -103.51 67.2)" width="64.65" x="133.65" y="259.16"/><rect fill="#287eef" height="60.24" rx="5.83" transform="matrix(.954 -.301 .301 .954 -65.25 48.27)" width="64.65" x="91.46" y="205.43"/><g clip-path="url(#clip-path)"><path d="m180.57 235.66h31.28v246.07h-31.28z" fill="#cc3745" transform="matrix(.954 -.301 .301 .954 -99 75.83)"/></g><rect fill="#e8e7e3" height="185.37" rx="8.81" transform="matrix(.954 -.301 .301 .954 -103.39 67.13)" width="41.24" x="145.21" y="275.87"/><g clip-path="url(#clip-path-2)"><path d="m138.49 193.18h20.04v68.12h-20.04z" fill="#1573d8" transform="matrix(.954 -.301 .301 .954 -61.59 55.34)"/></g><rect fill="#c6c6c6" height="163.12" rx="3.21" transform="matrix(.954 -.301 .301 .954 -102.85 69.5)" width="9.27" x="169.12" y="286.43"/><rect fill="#86ebf9" height="190.65" rx="2.57" transform="matrix(-.8 .6 -.6 -.8 892.97 472.09)" width="6.72" x="364.39" y="289.65"/><rect fill="#86ebf9" height="53.14" rx="4.96" transform="matrix(-.8 .6 -.6 -.8 808.19 413.47)" width="54.36" x="307.96" y="314.96"/><path d="m341.93 369.65c18.93-14.21 18.28-13.8 18.35-13.7l5.59 7.44a3.08 3.08 0 0 1 -.62 4.31l-13.38 10.05a3.09 3.09 0 0 1 -4.32-.61z" fill="#efbd42"/><path d="m220 109.64h73.32a5.37 5.37 0 0 1 5.37 5.37v243.99a5.37 5.37 0 0 1 -5.37 5.37h-73.32a5.37 5.37 0 0 1 -5.37-5.37v-244a5.38 5.38 0 0 1 5.38-5.38z" fill="#86ebf9" transform="matrix(-.8 .6 -.6 -.8 604.28 272.48)"/><path d="m221.96 109.57h62.09v245.08h-62.09z" fill="#287eef" transform="matrix(.8 -.6 .6 .8 -88.68 198.36)"/><path d="m271.6 217.87c.53-.41 1.14-.5 1.35-.22l69.08 92c.21.28 0 .84-.58 1.24l-37.45 28.11c-.54.4-1.14.5-1.35.21l-69.09-92c-.21-.28 0-.83.59-1.24z" fill="#e73f46"/><path d="m193.26 123.45h46.84v120.55h-46.84z" fill="#40c2d6" transform="matrix(-.8 .6 -.6 -.8 500.27 200.57)"/><path d="m129.93 48.91h46.84v100.89h-46.84z" fill="#86ebf9" transform="matrix(-.8 .6 -.6 -.8 335.65 86.75)"/><rect fill="#40c2d6" height="10.99" rx="2.86" transform="matrix(-.8 .6 -.6 -.8 593.61 265.11)" width="62.09" x="221.55" y="226.06"/><rect fill="#efbd42" height="19.74" rx="7.55" transform="matrix(-.8 .6 -.6 -.8 406.21 135.54)" width="107.8" x="126.6" y="125.65"/><rect fill="#efbd42" height="18.53" rx="7.09" transform="matrix(-.8 .6 -.6 -.8 256.92 32.33)" width="75.67" x="85.24" y="49.75"/><g fill="#2d1929"><path d="m303.11 319.41a1 1 0 0 1 -.6-1.8l34.21-25.68a1 1 0 0 1 1.2 1.6c-36.57 27.47-34.31 25.88-34.81 25.88z"/><path d="m290.91 303.15a1 1 0 0 1 -.6-1.8l34.21-25.68a1 1 0 1 1 1.2 1.6c-36.58 27.45-34.31 25.88-34.81 25.88z"/><path d="m278.7 286.89a1 1 0 0 1 -.6-1.8l34.21-25.68a1 1 0 0 1 1.2 1.6c-36.57 27.45-34.31 25.88-34.81 25.88z"/><path d="m266.49 270.63a1 1 0 0 1 -.6-1.8l34.21-25.68a1 1 0 1 1 1.2 1.6c-36.57 27.45-34.3 25.88-34.81 25.88z"/><path d="m254.29 254.37a1 1 0 0 1 -.6-1.8l34.21-25.69a1 1 0 1 1 1.2 1.6c-36.58 27.46-34.31 25.89-34.81 25.89z"/><path d="m242.08 238.1a1 1 0 0 1 -.6-1.8l34.21-25.68a1 1 0 0 1 1.2 1.6c-36.57 27.46-34.31 25.88-34.81 25.88z"/><path d="m229.88 221.84a1 1 0 0 1 -.6-1.8l34.21-25.68a1 1 0 1 1 1.2 1.6c-36.58 27.46-34.31 25.88-34.81 25.88z"/><path d="m217.67 205.58a1 1 0 0 1 -.6-1.8l34.21-25.68a1 1 0 1 1 1.2 1.6c-36.57 27.46-34.31 25.88-34.81 25.88z"/><path d="m205.46 189.32a1 1 0 0 1 -.6-1.8l34.21-25.68a1 1 0 0 1 1.4.2 1 1 0 0 1 -.2 1.4c-36.57 27.46-34.27 25.88-34.81 25.88z"/><path d="m193.26 173.06a1 1 0 0 1 -.6-1.8l34.21-25.68a1 1 0 0 1 1.2 1.6c-36.58 27.46-34.31 25.88-34.81 25.88z"/></g></g></svg>