<svg height="512" viewBox="0 0 512 512" width="512" xmlns="http://www.w3.org/2000/svg" xmlns:xlink="http://www.w3.org/1999/xlink"><clipPath id="a"><path d="m471.3 294.27s2.06-63.69-61.13-85.65-180-3.09-234.84 71.85-38 186.76 33.55 193.47 89.7-61.43 122-136.95 56.17-106.69 74.43-96 17.89 55.47 17.89 55.47 42.51 5.26 48.1-2.19z"/></clipPath><clipPath id="b"><path d="m344.47 162.68h50.31v91.88h-50.31z" transform="matrix(.993 .122 -.122 .993 28.18 -43.49)"/></clipPath><path d="m154.3 203.09s7.27 69.22 57.59 86.33l33-32.14s-39.7-36.53-39.7-79.19z" fill="#287eef"/><circle cx="199.59" cy="244.82" fill="#eaeaea" r="15.78"/><path d="m210.6 284.72c-16.77-6.54-30.22-20.13-40-40.4a146.33 146.33 0 0 1 -11.94-38.56.49.49 0 0 1 .27-.53c44.78-22 42-20.75 42.32-20.55a.51.51 0 0 1 .26.39c1 11.14 6.73 40.45 37.31 71.85a.49.49 0 0 1 0 .7c-28.88 28.16-27.77 27.28-28.22 27.1zm-50.87-78.72a145.31 145.31 0 0 0 11.81 37.93c9.57 19.91 22.74 33.3 39.13 39.78l27.11-26.41c-29.86-30.84-36-59.67-37.17-71.38z" fill="#fff"/><g clip-path="url(#a)"><path d="m471.3 294.27s2.06-63.69-61.13-85.65-180-3.09-234.84 71.85-38 186.76 33.55 193.47 89.7-61.43 122-136.95 56.17-106.69 74.43-96 17.89 55.47 17.89 55.47 42.51 5.26 48.1-2.19z" fill="#86ebf9"/><path d="m130 394.54s47 72.69 91.7 57.59 13.75-143.95 44.58-194.85 75.88-41.46 75.88-41.46l-5.79 76.4-23.25 108.1-38.68 78.68-48.23 8.95-61-5.59-35.22-52z" fill="#40c2d6"/></g><g clip-path="url(#b)"><path d="m344.47 162.68h50.31v91.88h-50.31z" fill="#f5b493" transform="matrix(.993 .122 -.122 .993 28.18 -43.49)"/><path d="m351.39 170.09c2.16 28.31 20.06 51.3 46.43 61.73l5.73-37.75z" fill="#eba284"/></g><path d="m450.16 155.11c0 11-2.35 21.2-12.92 39.39-8.17 14.06-14.33 19.74-18.56 21.78-16.2 7.83-35.66-5.78-42.93-10.86a90.45 90.45 0 0 1 -17.41-16.34c-9.53-9.92-30.93-36.35-27-71.32.84-7.49 4.26-37.65 29.76-52.3 22.13-12.72 52.1-8.67 68.57 6.78a61.35 61.35 0 0 1 11.86 13.2c11.1 13.52 7.52 26.71 7 44.49-.2 7.2 1.6 14.13 1.63 25.18z" fill="#f5b493"/><g fill="#2d1929"><path d="m418.29 166.41c3.9-1.59 6-3.44 6.32-5.49.67-4.7-8.42-6.77-9.41-23.36a.5.5 0 0 1 .47-.53.5.5 0 0 1 .53.47c1 16.7 10.2 18 9.4 23.56-.35 2.43-2.68 4.54-6.93 6.27a.5.5 0 0 1 -.38-.92z"/><path d="m438.76 140.72c-.16 4-2.38 7.15-5 7.05s-4.56-3.42-4.4-7.41 2.37-7.15 5-7.05 4.55 3.42 4.4 7.41z"/><path d="m398.51 139.16c-.15 4-2.38 7.16-5 7.06s-4.56-3.42-4.4-7.42 2.37-7.15 5-7.05 4.55 3.42 4.4 7.41z"/><path d="m423.68 122.51a1 1 0 0 1 -.68-1.73c.1-.09 10.05-9.11 21.94-2.9a1 1 0 0 1 -.93 1.78c-10.61-5.56-19.28 2.25-19.65 2.59a1 1 0 0 1 -.68.26z"/><path d="m402.24 118.46a1 1 0 0 1 -.73-.33c-.34-.36-8.31-8.88-19.36-4.25a1 1 0 0 1 -.77-1.85c12.37-5.18 21.51 4.66 21.6 4.76a1 1 0 0 1 -.74 1.67z"/></g><path d="m349.41 225.68s-38.79-3.15-58.57 31.6-30.84 216.66-30.84 216.66h158.84s21.14-164.76 16.57-199-35.34-50.75-86-49.26z" fill="#eaeaea"/><path d="m396.83 230.53c26.78 3.86 41.45 14.58 48.44 20.87 8.92 8 11.84 14.69 29.86 88.35 7.45 30.46 11 46.16 1.58 58.15a35.17 35.17 0 0 1 -39.55 12.67c-25.37-7.82-39.26-167.23-40.33-180.04z" fill="#917eec"/><path d="m342.2 225.59s18.2 29.35 31.06 29.73 19.12-25.65 19.12-25.65-32.79-16.1-50.18-4.08z" fill="#f5b493"/><path d="m345 209.62s-3.23.4-6 5.25-7.41 10.44-7.12 13.23 18 38.3 26.35 42.26 17.65-15 17.65-15-24.6-5.52-30.88-45.74z" fill="#eaeaea"/><path d="m375.87 255.32c3 7.41 8.37 12 12.9 11.46 4.2-.49 6.48-5.28 9.19-10.91s7.45-15.44 3.08-25.34a23.2 23.2 0 0 0 -7.46-9.14 50.13 50.13 0 0 1 -17.71 33.93z" fill="#eaeaea"/><path d="m331.86 225.59s-30.34-4.55-50.11 31.69-29.86 216.66-29.86 216.66l106.18.46c-.71-9-1.58-22.53-1.78-39-.5-41.61 3.6-70.41 4.75-82.75 2.58-27.82-.8-69.32-29.18-127.06z" fill="#917eec"/><path d="m400.56 231.44a576.25 576.25 0 0 0 -10.46 105.78c0 56.2 4.08 136.72 4.08 136.72h51.68s-13.78-136.58-5.48-191.79z" fill="#917eec"/><path d="m393.53 220.37c8.19 48.3-5.73 69 5.18 79.12 4.55 4.23 12.11 5.21 17.61 3.63 10.17-2.92 10.27-13.71 17.89-14.26 7.45-.53 11 9.54 23 9.6a19.47 19.47 0 0 0 8.92-2.33c3.33-2.18-4.53-41.76-35-62.62-6.77-4.59-19-11.3-37.6-13.14z" fill="#40c2d6"/><path d="m348 258.69s7.67 16.75 15.78 15.26 12.95-16.67 12.95-16.67 4.22 7.76 8.15 9.54 8.6-3 8.6-3-2.89 5.72-6.37 7.05-9.64-9.16-9.64-9.16-4.3 17.89-12.61 18.17-16.86-21.19-16.86-21.19z" fill="#c6c6c6"/><path d="m392.85 410.19c21.76-34.88 35.67-75.56 38.94-120.77-.37 14.18-.76 39.32.37 67.47.76 18.87 2.46 34.15 8.56 53.3l5.14 63.75h-49z" fill="#6d5fde"/><path d="m377.5 261.75-10 17.47 10 17.66s-21.63 68.13-21 115.36 25.92 62.16 25.92 62.16l47.91-.74q-.82-11-1.64-22.09s-30.25-12.86-37.37-47.52-6.23-107.92-6.23-107.92l2.91-25.13z" fill="#e73f46"/><path d="m269.26 311.79c3.62 18.94 11.07 31 24.05 51.44 21.17 33.39 36.47 57.52 61.6 60 13.55 1.35 24.25-4.2 27.68-6 18.13-9.33 25.93-27.2 33.22-50.7a453.17 453.17 0 0 0 19-103.62l-36.38-10.44-37.17 93.94c-26.95-34.41-42.93-74.57-48.36-117.42-6.7 1.82-26.27 8.11-38 26.83-12.58 20.01-8.37 41.62-5.64 55.97z" fill="#917eec"/><path d="m391.54 269.87 9.68-24.87s20.65-28.09 25.35-29 11.74 2.34 14.07 4.39 2 4 2 4 7.55.28 6.06 6.15c0 0 6 .46 4.38 6.15 0 0 5.49.65 4.19 5.31s-10.72 20.59-18.41 19.76l-5 13.32s-30.47 6.83-42.32-5.21z" fill="#f5b493"/><path d="m393.53 175.22s.87-6.43 6.66-6.15 3.27 10.06 11 10.06 10.48-.42 7 5-8.25 8.11-15.38 5.6-9.28-14.51-9.28-14.51z" fill="#eaeaea"/><path d="m313.16 257.28c9 7.68 12.07 14.63 13.14 19.66.86 4.06 1.88 13.6 1.88 13.6a181.05 181.05 0 0 0 25.68 57c-4 10.75-7.64 27.7-5.83 39.42a155.06 155.06 0 0 1 11.63-40.35 177.26 177.26 0 0 1 -27.8-55 34.91 34.91 0 0 0 -18.7-34.33z" fill="#6d5fde"/><path d="m274.44 326.24s47.89 102.36 82 97.21l1.61 50.95h-35.39s12.3-12.2 17.06-22-27.72-11.4-26.56-13.69 23.85-6.43 23.25-12-50.08-32.33-61.97-100.47z" fill="#6d5fde"/><path d="m342.2 134.36s13.17 4.24 16.9-19.87 14.39-40.15 22.66-35.3 18.34 16.77 31 6.71 14.37 22.73 37.38 15.28 22.26-42.5 8.09-51.82-30.31 9.32-42.55-1.49-45-10.43-56.23.75-21.66 1.86-35.05 15.28-19.88 93.82 23.6 114.19z" fill="#2d1929"/><path d="m345 154.44c-8.25 2.21-17.12-4.13-19.8-14.15s1.82-19.94 10.08-22.16 17.11 4.13 19.8 14.15-1.84 19.95-10.08 22.16z" fill="#f5b493"/><path d="m346.83 145.45c-.05 0-5.11-1.41-5-6.47.08-3.16 4.17-3.89 5.8-4.06-.76-2.25-3.82-10.23-9.42-10.63-5.26-.38-5.83 5.54-5.85 5.8a.51.51 0 0 1 -.54.45.5.5 0 0 1 -.46-.54c0-.07.65-7.18 6.93-6.71 7.18.52 10.36 11.48 10.49 12a.5.5 0 0 1 -.47.63s-5.4.21-5.48 3.14c-.12 4.25 4.05 5.42 4.23 5.47a.5.5 0 0 1 -.23.92z" fill="#2d1929"/><path d="m195.12 333.6s-28 46.85-99.53 41.59l9 54.58s78.79-1.77 108.41-54.58z" fill="#287eef"/><path d="m37.44 257.28s55.36-4 95.61 32.14l-17.33 44.18s-25.72-36.6-83.31-33.78z" fill="#287eef"/><circle cx="85.11" cy="284.4" fill="#eaeaea" r="13.47"/><circle cx="159.25" cy="389.23" fill="#eaeaea" r="14.91"/><path d="m107.81 425.15-7.4-45.1a.51.51 0 0 1 .52-.58c38.19 1.44 72-12.13 92.78-37.25a.51.51 0 0 1 .85.13c14.88 34.59 14.08 32.47 13.88 32.8-10.74 17.9-28.79 31.54-53.64 40.53a184.57 184.57 0 0 1 -46.46 9.89.49.49 0 0 1 -.53-.42zm-6.31-44.66 7.22 44.05a183.73 183.73 0 0 0 45.74-9.8c24.53-8.87 42.36-22.29 53-39.88l-13.46-31.37c-20.95 24.82-54.57 38.28-92.5 37z" fill="#fff"/><path d="m113.91 325.38c-18.45-19.15-46.31-30-76.45-29.68a.49.49 0 0 1 -.5-.55l4-33.58a.5.5 0 0 1 .49-.44h1c12 0 53.54 2.11 85.62 29.22a.51.51 0 0 1 .14.57l-13.46 34.31a.5.5 0 0 1 -.84.15zm.18-1.25 13-33.25c-31.78-26.68-72.84-28.76-84.7-28.76h-.56l-3.83 32.58c28-.13 56.42 9.38 76.09 29.43z" fill="#fff"/></svg>