<svg height="512" viewBox="0 0 512 512" width="512" xmlns="http://www.w3.org/2000/svg" xmlns:xlink="http://www.w3.org/1999/xlink"><clipPath id="clip-path"><circle cx="325.34" cy="284.67" r="67.5"/></clipPath><g id="Reward"><path d="m233.79 126.55s-35.35-85.42-57.79-92.67-17.89 13.64-29.28 24.75-25 32.9 7 49.49 80.07 18.43 80.07 18.43z" fill="#86ebf9"/><path d="m233.79 126.55s-92.06-50.77-100-42.84 5.85 37.95 100 42.84z" fill="#40c2d6"/><path d="m231.47 126.94s34.33-85.84 56.72-93.35 18.06 13.41 29.58 24.41 25.37 32.6-6.44 49.58-79.86 19.36-79.86 19.36z" fill="#86ebf9"/><path d="m231.47 126.94s91.45-51.86 99.45-44-5.36 37.99-99.45 44z" fill="#40c2d6"/><path d="m231.38 417.25-121.81-10.15-13.91-249.85 135.72-23.81z" fill="#287eef"/><path d="m231.38 417.25 121.81-10.15 13.92-249.85-135.73-23.81z" fill="#1573d8"/><path d="m232 165.51 142.66 19 .33-47.72-142.86-23.41a.38.38 0 0 0 -.44.37z" fill="#287eef"/><path d="m97.18 184.53 134.2 5.18v-37.34l-126.48 18.67-7.72 7.05z" fill="#1573d8"/><path d="m232.08 165.51-142.67 19-.33-47.72c153.75-25.22 143.33-23.63 143.32-23.22z" fill="#287eef"/><path d="m191.81 414-46.29-3.82.24-282.61 45.84-7.65z" fill="#86ebf9"/><path d="m276.1 414 46.29-3.81-.24-281.95-45.83-7.63q-.12 146.65-.22 293.39z" fill="#86ebf9"/><path d="m383.94 481.91 20.85-48.06 57.26 9.06a398.3 398.3 0 0 1 -70-140.24l-75.94 34a475.18 475.18 0 0 0 67.83 145.24z" fill="#efbd42"/><path d="m269.73 482-18.73-48.92-57.59 6.56a398.45 398.45 0 0 0 76-137.06l74.39 37.27a475.35 475.35 0 0 1 -74.07 142.15z" fill="#efbd42"/><path d="m427.45 284.67-13.92 11.62 10.46 14.81-16.46 7.61 6.25 17.03-17.87 3.07 1.63 18.06-18.06-1.63-3.07 17.87-17.03-6.25-7.61 16.46-14.81-10.46-11.62 13.91-11.62-13.91-14.81 10.46-7.61-16.46-17.02 6.25-3.08-17.87-18.06 1.63 1.64-18.06-17.88-3.08 6.25-17.02-16.46-7.61 10.47-14.81-13.92-11.62 13.92-11.62-10.47-14.81 16.46-7.61-6.24-17.03 17.87-3.07-1.64-18.06 18.06 1.63 3.08-17.87 17.02 6.25 7.61-16.46 14.81 10.46 11.62-13.92 11.62 13.92 14.81-10.46 7.61 16.46 17.03-6.25 3.07 17.87 18.06-1.63-1.63 18.06 17.87 3.07-6.25 17.03 16.46 7.61-10.46 14.81z" fill="#d7981a"/><circle cx="325.34" cy="284.67" fill="#efbd42" r="78.24"/><g clip-path="url(#clip-path)"><path d="m371.68 197.97-87.77 188.8 105.18-3.3 45.73-118.26-31.24-84z" fill="#d7981a"/></g><g fill="#e5e5e5"><path d="m303.52 300.5a4 4 0 0 1 -1-1.94 33 33 0 0 1 -1.49-7.08c-2.23-15.59-2-13.26-3.23-22.47a4.17 4.17 0 0 0 -1.49-2.62 7 7 0 0 0 -3.88-1.18c-.73 0-1.09.34-1.09 1 .18 10.09-3.13 17.78-4.67 24.11-.41-3.08-3-20.59-3.09-21.33a4.12 4.12 0 0 0 -1.46-2.64 7 7 0 0 0 -3.88-1.18c-.73 0-1.09.34-1.09 1 .25 13.56-5.76 22.43-5.76 32q0 3.54 1.91 4.47c1.05.38 2.5.08 2.5-.9 0-1.18-2.23-4.37 1-18.18 1.15-5.33 1.85-8.79 2.05-10.39q2.23 15.67 2.53 18.23c.44 4.94 1.63 12 6.52 11.38a2 2 0 0 0 .42 0c1.09 0 1.65-.45 1.65-1.35a1.06 1.06 0 0 0 -.25-.7c-2-8.73 2.24-18.87 3.32-27.59q2.23 15.67 2.53 18.23 1 11.41 5.84 11.41a4.63 4.63 0 0 0 2.39-.62 1.06 1.06 0 0 0 -.28-1.66z"/><path d="m378.69 300.5a4 4 0 0 1 -1-1.94 33.61 33.61 0 0 1 -1.49-7.08c-2.22-15.59-2-13.26-3.23-22.47a4.17 4.17 0 0 0 -1.49-2.62 7 7 0 0 0 -3.87-1.18c-.74 0-1.1.34-1.1 1 .19 10.09-3.12 17.78-4.66 24.11-.42-3.08-3-20.59-3.09-21.33a4.09 4.09 0 0 0 -1.47-2.64 6.93 6.93 0 0 0 -3.87-1.18c-.73 0-1.1.34-1.1 1 .25 13.56-5.76 22.43-5.76 32 0 2.36.65 3.85 1.91 4.47 1.05.38 2.5.08 2.5-.9 0-1.18-2.23-4.37 1-18.18 1.15-5.33 1.86-8.79 2-10.39q2.24 15.67 2.53 18.23c.44 4.94 1.63 12 6.52 11.38a2 2 0 0 0 .42 0c1.1 0 1.66-.45 1.66-1.35a1.11 1.11 0 0 0 -.25-.7c-2-8.73 2.24-18.87 3.31-27.59q2.24 15.67 2.53 18.23 1 11.41 5.84 11.41a4.61 4.61 0 0 0 2.39-.62 1.05 1.05 0 0 0 -.23-1.66z"/><path d="m336 275.58a7.91 7.91 0 0 0 -.84-4.8c-3-5.89-12.6-5.81-17-.82a18.52 18.52 0 0 0 -3.65 7.31 32.11 32.11 0 0 0 -1.09 8.09c0 8.78 3.75 18.77 12.16 18.77 7.87 0 11.1-8.89 11.1-16.75a19 19 0 0 0 -2-9.21 4.8 4.8 0 0 0 1.32-2.59zm-2.44 18.18c-.83 3.74-2.76 7.61-6.6 7.61-3.26 0-5.51-2.47-6.83-6.18a21.45 21.45 0 0 1 -1.21-5.25 32.85 32.85 0 0 1 1.27-13.85c3.52-10.58 11.51-7.59 11.51-2.11a3.35 3.35 0 0 1 -3.34 3.32 3.93 3.93 0 0 1 -1.91-.71 1.14 1.14 0 0 0 -.84-.36c-.34 0-.51.25-.51.76 0 2 3.63 4.21 7.33 2.75 1.99 4.06 2.02 9.55 1.09 14.02z"/></g><path d="m87.14 43.4s-7.22 5.27 2.22 17.49-7.5 20-7.5 20l17.77 5.86s18.05-11.42 11.37-21.7-2-17.49 1.47-21.65z" fill="#e73f46"/><path d="m357.06 49.63s-7.21 5.28 2.23 17.49-7.5 20-7.5 20l17.77 5.88s18.05-11.39 11.38-21.66-2-17.49 1.48-21.66z" fill="#917eec"/><path d="m412 141.35s-9.26 7.94 4.28 20.16-6.75 29.31-6.75 29.31l14.58 9.92s15.29-14.21 13.89-29.74-12.83-15.75-8.2-29.69z" fill="#e73f46"/><path d="m78.05 225.82s9.26 7.94-4.27 20.16 6.74 29.31 6.74 29.31l-14.58 9.91s-15.32-14.2-13.89-29.69 12.82-15.76 8.19-29.69z" fill="#917eec"/></g></svg>