<?xml version="1.0" encoding="UTF-8"?>
<svg xmlns="http://www.w3.org/2000/svg" xmlns:xlink="http://www.w3.org/1999/xlink" viewBox="0 0 512 512" width="512" height="512"><defs><style>.cls-1,.cls-11,.cls-13,.cls-17,.cls-7{fill:none;}.cls-2{fill:#aaeeea;}.cls-3{clip-path:url(#clip-path);}.cls-4{fill:#00ccc1;}.cls-5{clip-path:url(#clip-path-2);}.cls-6{fill:#9ed8d4;}.cls-11,.cls-13,.cls-7{stroke:#383333;}.cls-11,.cls-13,.cls-17,.cls-7{stroke-linecap:round;stroke-linejoin:round;}.cls-8{fill:#ffdb99;}.cls-9{fill:#ff535c;}.cls-10{fill:#ffb833;}.cls-11{stroke-width:0.75px;}.cls-12,.cls-15{fill:#383333;}.cls-13,.cls-15{fill-rule:evenodd;}.cls-14{fill:#ffc871;}.cls-16{fill:#fff;}.cls-17{stroke:#fff;}</style><clipPath id="clip-path"><path class="cls-1" d="M383,131.05s95.69-2.74,64,109.2H434.71s22-85.92-51.72-85.92Z"/></clipPath><clipPath id="clip-path-2"><path class="cls-1" d="M308.79,131.05s-95.69-2.74-64,109.2h12.29s-22-85.92,51.72-85.92Z"/></clipPath></defs><g id="Robotic"><rect class="cls-2" x="327.54" y="191.43" width="39.77" height="56.3" rx="19.88"/><g class="cls-3"><path class="cls-2" d="M383,131.05s95.69-2.74,64,109.2H434.71s22-85.92-51.72-85.92Z"/><rect class="cls-4" x="409.33" y="128.63" width="3.23" height="39.12" transform="translate(103.31 -161.97) rotate(25.4)"/><rect class="cls-4" x="426.44" y="135.05" width="3.23" height="39.12" transform="translate(236.89 -258.42) rotate(45.3)"/><rect class="cls-4" x="435.17" y="149.96" width="3.23" height="39.12" transform="translate(250.08 -260.2) rotate(45.3)"/><rect class="cls-4" x="441.48" y="164.87" width="3.23" height="39.12" transform="translate(433.96 -295.44) rotate(66.31)"/><rect class="cls-4" x="445" y="178.33" width="3.23" height="39.12" transform="translate(599.47 -266.08) rotate(84.34)"/><rect class="cls-4" x="445" y="192.59" width="3.23" height="39.12" transform="translate(613.66 -253.23) rotate(84.34)"/><rect class="cls-4" x="442.55" y="207.68" width="3.23" height="39.12" transform="translate(626.46 -237.18) rotate(84.34)"/></g><g class="cls-5"><path class="cls-2" d="M308.79,131.05s-95.69-2.74-64,109.2h12.29s-22-85.92,51.72-85.92Z"/><rect class="cls-4" x="279.21" y="128.63" width="3.23" height="39.12" transform="translate(598.07 161.57) rotate(154.6)"/><rect class="cls-4" x="262.1" y="135.05" width="3.23" height="39.12" transform="translate(559.11 75.89) rotate(134.7)"/><rect class="cls-4" x="253.37" y="149.96" width="3.23" height="39.12" transform="translate(554.84 107.49) rotate(134.7)"/><rect class="cls-4" x="247.06" y="164.87" width="3.23" height="39.12" transform="translate(517.48 30.8) rotate(113.69)"/><rect class="cls-4" x="243.54" y="178.33" width="3.23" height="39.12" transform="translate(466.27 -26.55) rotate(95.66)"/><rect class="cls-4" x="243.54" y="192.59" width="3.23" height="39.12" transform="matrix(-0.1, 1, -1, -0.1, 480.47, -10.87)"/><rect class="cls-4" x="246" y="207.68" width="3.23" height="39.12" transform="matrix(-0.1, 1, -1, -0.1, 498.19, 3.26)"/></g><rect class="cls-2" x="334.16" y="88.56" width="19.88" height="33.28"/><path class="cls-4" d="M376.6,107.22h-65c-5.83,0-10.95-5-11.47-11.19l-3.91-47.68c-.62-7.58,4.24-13.88,10.87-13.88h74c6.64,0,11.5,6.3,10.87,13.88L388.06,96C387.55,102.27,382.42,107.22,376.6,107.22Z"/><path class="cls-4" d="M396.76,227.24H294.67c-4.61,0-7.81-4.7-7.15-10.38l10.62-91.46a7.63,7.63,0,0,1,7.36-6.69h80.44a7.65,7.65,0,0,1,7.36,6.69l10.61,91.46C404.57,222.54,401.38,227.24,396.76,227.24Z"/><rect class="cls-2" x="305.89" y="47.52" width="77.09" height="46.66" rx="15.55"/><circle class="cls-4" cx="328.15" cy="67.26" r="6.01"/><circle class="cls-4" cx="358.03" cy="67.26" r="6.01"/><path class="cls-4" d="M345,77.9A17.87,17.87,0,0,0,351,76c.25,4.52-2.95,8.31-6.79,8.81-4.4.58-9-3.24-9-8.49A18.18,18.18,0,0,0,345,77.9Z"/><ellipse class="cls-6" cx="322.38" cy="78.1" rx="5.01" ry="2.95"/><ellipse class="cls-6" cx="364.04" cy="78.1" rx="5.01" ry="2.95"/><rect class="cls-2" x="323.91" y="128.92" width="40.95" height="73.96" rx="10.33"/><rect class="cls-4" x="334.45" y="143.94" width="19.88" height="7.99" rx="3.99"/><rect class="cls-4" x="334.45" y="159.13" width="19.88" height="7.99" rx="3.99"/><path class="cls-4" d="M428.75,259.36a17,17,0,0,1-1.94-5.82c-.07-.52-1-8.06,3.64-13.1,5.53-6,17.87-7.24,23-.19,3.41,4.72,2.91,12.18-1.56,18l-6.15-1c3.57-3.63,3.58-8.79,1-11.39a6.5,6.5,0,0,0-6.95-1.38c-3.32,1.51-5.13,6.75-2.58,11.8Z"/><path class="cls-4" d="M265.26,259.36a17.21,17.21,0,0,0,1.94-5.82c.07-.52,1-8.06-3.64-13.1-5.53-6-17.87-7.24-23-.19-3.42,4.72-2.91,12.18,1.56,18l6.14-1c-3.56-3.63-3.57-8.79-1-11.39a6.51,6.51,0,0,1,6.95-1.38c3.33,1.51,5.13,6.75,2.59,11.8Z"/><path class="cls-7" d="M409.27,316.37s10.67-52.85-3.88-45.49,6.79,20,14.55,5.42S417,233.14,417,233.14l-5.43,7.7"/><line class="cls-7" x1="424.79" y1="237.67" x2="417.03" y2="233.14"/><path class="cls-8" d="M299.09,314.07s20.21-18.26,27-21.41S336.92,280,340,279.8s1.34,9,1,10.73,26.3-6.85,29.16-4.91-19.82,26.67-31.36,35.08-16.71,14.71-16.71,14.71S299.42,328.62,299.09,314.07Z"/><circle class="cls-9" cx="348.14" cy="290.53" r="9.38"/><rect class="cls-4" x="319.35" y="285.35" width="65.77" height="16.81" rx="5.5" transform="translate(-106.27 282.22) rotate(-38.39)"/><rect class="cls-4" x="364.58" y="269.51" width="28.61" height="2.75" transform="translate(-86.31 293.83) rotate(-38.39)"/><circle class="cls-9" cx="390.98" cy="260.94" r="3.4"/><path class="cls-10" d="M447.87,321.93V299.52a2,2,0,0,1,1.63-2,1.92,1.92,0,0,1,2.2,1.9v22.71a1.92,1.92,0,0,1-2.2,1.89A2,2,0,0,1,447.87,321.93Z"/><path class="cls-10" d="M438.43,312.64a1.92,1.92,0,0,1-1.89-2.2,2,2,0,0,1,2-1.63H461a2,2,0,0,1,2.05,1.63,1.92,1.92,0,0,1-1.9,2.2Z"/><path class="cls-10" d="M328.15,406a1.46,1.46,0,0,1-1.46-1.46V387.23a1.46,1.46,0,0,1,2.92,0v17.31A1.46,1.46,0,0,1,328.15,406Z"/><path class="cls-10" d="M319.49,397.35a1.46,1.46,0,1,1,0-2.92h17.32a1.46,1.46,0,0,1,0,2.92Z"/><path class="cls-10" d="M267.32,105.36a1.46,1.46,0,0,1-1.46-1.46V86.58a1.46,1.46,0,1,1,2.92,0V103.9A1.47,1.47,0,0,1,267.32,105.36Z"/><path class="cls-10" d="M258.66,96.7a1.46,1.46,0,0,1,0-2.92H276a1.46,1.46,0,0,1,0,2.92Z"/><path class="cls-10" d="M200.59,253.76s21.17,8.8,33.39,22.9S271.48,364,271.48,364l-30.85,18.39c-3.67-3.28-8.77-8.05-14.47-14.14a228.91,228.91,0,0,1-23.92-30.22C188.14,316.06,181.93,255.17,200.59,253.76Z"/><path class="cls-10" d="M333.79,324.92c-29.48,43.95-62.37,70.55-83.93,63.34-1.88-.63-8.36-2.79-10.62-8.44-8.15-20.34,48.66-60.15,68.74-73.67a115.27,115.27,0,0,1,25.81,18.77Z"/><circle class="cls-8" cx="162.2" cy="153.42" r="70.42"/><path class="cls-8" d="M179.41,203.28c-2.91,13-4.66,31.11,5.3,44.23,7.77,10.23,16,8.56,24.95,15.25,23.24,17.37,12.88,59.74,13.17,133.78.07,17.91.78,39.35,2.87,63.65a135,135,0,0,1-67.25,20.69c-40,1.28-68.76-15.9-78.89-22.63a179.65,179.65,0,0,0,11-34.92c11.27-55.18-4.4-113.39,6.78-145.95,2.12-6.18,4.75-13.84,12-19.76,7.4-6.08,13-4.87,18.71-11.44,4.41-5.06,5.3-10.65,6.62-19.64a94.81,94.81,0,0,0-.83-31.81Z"/><path class="cls-8" d="M232.62,113.78c8.28,52.43,0,97.27-25.06,110.21-6.3,3.25-12.86,4.08-18.15,4.7-34.6,4.1-61.79-13.46-72.82-21.63C116.59,207.06,144.78,23.74,232.62,113.78Z"/><path class="cls-8" d="M118.47,147.2c-.76-.74-4.88-4.62-10.78-4.18-.87.06-4.3.31-6.62,2.48-6,5.62-3.7,23.35,6.67,27.91,5.8,2.55,12,0,14-.93Q120.12,159.84,118.47,147.2Z"/><path class="cls-11" d="M103.53,153.41l10-.46s-10.18,6.34-1.66,14.58"/><path class="cls-12" d="M149.83,139.17a21.76,21.76,0,0,1,12.53-4.1c3-.08,7.18-.18,8.45,2.21a3.36,3.36,0,0,1-.08,3.37c-1.43,1.92-5,.18-10.83.13-7.65-.07-12.62,2.83-13.13,1.73C146.41,141.72,148.86,139.89,149.83,139.17Z"/><path class="cls-12" d="M225,139.68a21.85,21.85,0,0,0-12.61-3.85c-3.05,0-7.18,0-8.4,2.38a3.32,3.32,0,0,0,.15,3.37c1.46,1.88,5,.08,10.83-.08,7.64-.22,12.67,2.58,13.15,1.47C228.42,142.17,225.93,140.39,225,139.68Z"/><path class="cls-13" d="M192.28,155.34s5.35,12.37,4.36,14.73S186,171.62,186,171.62"/><path class="cls-11" d="M195.78,203.44s-4.84,1.81-8.77-.07"/><ellipse class="cls-14" cx="149.82" cy="176.16" rx="5.28" ry="8.48" transform="translate(-28.89 322.94) rotate(-89.02)"/><ellipse class="cls-14" cx="219.32" cy="178.35" rx="5.28" ry="8.48" transform="translate(37.24 394.57) rotate(-89.02)"/><path class="cls-15" d="M168.5,164a6.24,6.24,0,1,1,.41-8.81A6.27,6.27,0,0,1,168.5,164Z"/><path class="cls-15" d="M220,164.4a6.24,6.24,0,1,1-.1-8.82A6.25,6.25,0,0,1,220,164.4Z"/><path class="cls-10" d="M89.78,264.6a62.91,62.91,0,0,1,14.7-8.82,55.34,55.34,0,0,1,14.83-3.7s8.66,8.47,40.43,6.28c16.17-1.11,24.73-3.07,29.25-4.72a5.83,5.83,0,0,1,4.56.24c8.25,3.93,25.6,10.13,29.1,13.27,4.38,3.93,6.28,22,6,51.11s4,140.64,4,140.64c-71.32,57.54-159.52,0-159.52,0a286.86,286.86,0,0,0,9.24-54.31C86.49,346.76,73.47,278.21,89.78,264.6Z"/><path class="cls-10" d="M111.5,253.86s-11.73,2.63-15.45,5.37-3.38,93.29-3.38,93.29l26.49-14.68Z"/><path class="cls-10" d="M190.41,266.14c-17.2,46.26-42.71,69.7-57.07,80.55-12,9.1-29.79,22.12-44.44,15.9-8.25-3.5-15.33-13-15.78-23.09-.59-13.08,9.33-23.38,55.93-61.45,13.73-11.22,25.62-20.75,34.93-28.16a27,27,0,0,1,26.43,16.25Z"/><path class="cls-10" d="M105.1,255.48s-21.63,4.11-29.39,12.36S45.65,343,55.34,363.37s63.22,9.8,86-9.81l-28.77-50.37S121.88,270.27,105.1,255.48Z"/><path class="cls-8" d="M153.55,258.62c1.46-1.93,3.64-4.85,6.18-8.49,6.3-9,6.38-10.37,9.1-13.82,1.4-1.77,9.48-15.61,22.14-14,5.66.73,16.17,1.94,17,3.23s-3.64,3.93-11.81,3.74c0,0,7.12,1,6.63,5.8,0,0,5.58,1.38,3.72,5.5,0,0,3.23,1.69,3.07,4s-13.28,35.16-28.46,32.25a52.5,52.5,0,0,1-27.55-18.19Z"/><path class="cls-8" d="M350.34,306s3-3.42,2.64-5.3-2.65-7,0-9.4,5.19,3.94,5.19,3.94-2.16-8.27.25-9.07,4.93,3.28,4.93,3.28-2-6.12.23-8,4.38,3.91,4.38,3.91-1.89-5.91.22-6.7,6.36,4.7,6.16,9.17-4.18,3.58-4.18,3.58-.38,3.89-3.77,3.11a6.35,6.35,0,0,1-1.31,2.73,6.85,6.85,0,0,1-4.81,2.29c-1.11,4-3.83,6.79-6.84,7A5.91,5.91,0,0,1,350.34,306Z"/><path class="cls-11" d="M359.86,299.79a14.38,14.38,0,0,0-2.17-5.75"/><path class="cls-11" d="M366.35,294.59s-2.89-4.88-3-5.12"/><path class="cls-11" d="M370.12,291.48s-1.6-5-2.41-6.55"/><path class="cls-11" d="M182.3,233.52s7-4.92,13.84-4.22"/><path class="cls-11" d="M191.39,240.25a21.56,21.56,0,0,1,11.38-5.15"/><path class="cls-11" d="M199.39,247.4s3.65-6,7.1-6.8"/><path class="cls-7" d="M147.84,223.84s18.87,6,26.54,5.46"/><line class="cls-7" x1="228.24" y1="294.04" x2="230.22" y2="372.5"/><path class="cls-7" d="M253.34,368.27s-.63-15.78,9.63-27.8"/><path class="cls-7" d="M82,333.27a265.25,265.25,0,0,1,31.52-25.67c17.11-11.64,40-49,40-49s18.57-29.69,26.61-33.92,18.21-2.73,25.9,0"/><line class="cls-7" x1="104.14" y1="303.19" x2="103.44" y2="314.93"/><ellipse class="cls-16" cx="192.12" cy="192.44" rx="6.1" ry="8"/><path class="cls-7" d="M186.05,277s-35.86,96.78-102.86,97.4"/><path class="cls-12" d="M108.54,143s5.5,1.8,8,5.55,2.42,11.16,6.3,11.7,6.31-29.19,6.31-29.19a58.15,58.15,0,0,0,20.71-4.32c19.61-8.1,28.71-24.81,31.42-30.33,10.08.26,18.2,6.56,19.88,14.55,1.47,7-2.47,12.78-3.39,14.06l36.77,4.14c9.09-17.55,4-38.26-10.1-48-10.88-7.52-26-7.71-38.46-.65-26.79-15.76-58.58-16.37-80.11-.81C73.86,102.84,78,152.15,93.55,180.06c14.55,26.07,42.49,39.51,44.21,37.66,1-1-6.11-6.23-11-18.26-5.32-13.12-2-23.55-7.61-26-3.32-1.42-6,1.71-11.16-.4a15.89,15.89,0,0,1-6.76-5.57C95.49,159.69,95.4,140.59,108.54,143Z"/><path class="cls-17" d="M188.6,88.4s29.91.08,26.9,26.67"/><path class="cls-17" d="M209.25,86.46s24.21.49,21.54,35.65"/><path class="cls-17" d="M170.54,99.07s-26.58,27.61-57,23"/><path class="cls-17" d="M146.74,107.22s-38.54,16.61-55,3.62"/><path class="cls-17" d="M111.25,181.44s4.35,14.34,10.53,17.53"/><path class="cls-17" d="M92.11,160.24s6.29,24.92,19.14,34.49"/></g></svg>
