<svg height="512" viewBox="0 0 512 512" width="512" xmlns="http://www.w3.org/2000/svg" xmlns:xlink="http://www.w3.org/1999/xlink"><clipPath id="clip-path"><rect height="230.85" rx="8.36" width="314.08" x="121.5" y="33.03"/></clipPath><clipPath id="clip-path-2"><path d="m135.27 246.21h50.53v91.27h-50.53z"/></clipPath><g id="UX_Design" data-name="UX Design"><g clip-path="url(#clip-path)"><rect fill="#efefef" height="230.85" rx="8.36" width="314.08" x="121.5" y="33.03"/><path d="m105.21 17.29h337.08v49.08h-337.08z" fill="#40c2d6"/></g><rect fill="#efefef" height="8.45" rx="2.7" width="60.57" x="362.66" y="45.42"/><path d="m153.58 85.6h249.93v38.82h-249.93z" fill="#86ebf9"/><path d="m153.58 140.47h93.69v103.81h-93.69z" fill="#86ebf9"/><path d="m262.73 140.47h140.77v103.81h-140.77z" fill="#efbd42"/><g fill="#efefef"><path d="m333.11 156.69a30.14 30.14 0 1 0 30.14 30.14 30.14 30.14 0 0 0 -30.14-30.14zm0 49.87a19.73 19.73 0 1 1 19.73-19.73 19.73 19.73 0 0 1 -19.73 19.73z"/><rect height="16.02" rx="5.03" width="20.2" x="323.01" y="149.86"/><rect height="16.02" rx="5.03" width="20.2" x="323.01" y="208.96"/><rect height="16.02" rx="5.03" transform="matrix(0 1 -1 0 550.08 -175.24)" width="20.2" x="352.56" y="179.41"/><rect height="16.02" rx="5.03" transform="matrix(0 1 -1 0 490.99 -116.15)" width="20.2" x="293.47" y="179.41"/><rect height="16.02" rx="5.03" transform="matrix(-.707 .707 -.707 -.707 751.63 105.29)" width="20.2" x="343.91" y="200.3"/><rect height="16.02" rx="5.03" transform="matrix(-.707 .707 -.707 -.707 650.75 63.51)" width="20.2" x="302.12" y="158.52"/><rect height="16.02" rx="5.03" transform="matrix(.707 .707 -.707 .707 221.44 -201.55)" width="20.2" x="343.91" y="158.52"/><rect height="16.02" rx="5.03" transform="matrix(.707 .707 -.707 .707 238.75 -159.76)" width="20.2" x="302.12" y="200.3"/></g><path d="m450.17 241.2-67.57-52.2a9 9 0 0 0 -10.85 14.29l68.43 51.08c3.32 2.48 8.21 1.55 10.95-2s2.37-8.6-.96-11.17z" fill="#2d1929"/><path d="m351.69 206.14 15-8 .83-23.82-16.28-10.18a23.59 23.59 0 1 1 .46 42z" fill="#2d1929"/><g clip-path="url(#clip-path-2)"><path d="m135.27 246.21h50.53v91.27h-50.53z" fill="#e39c76"/><path d="m139.25 263.84c6.6 23.64 26.85 38.47 50.21 39.92q1.89-14.56 3.77-29.12z" fill="#d48f6e"/></g><path d="m203.56 155.88c-.12-.08-10-12.28-25.73-18.29-21-9.74-51.49-4-68.94 15.51-20.1 22.49-13.69 53-12.1 60.52 7.43 35.32 36.78 54.15 49.26 60.73a93 93 0 0 0 22.22 10.29c8.72 2.6 28.83 5.05 45.29-3.27 20.31-10.27 5.35-78.37 3.24-85.37-1.13-22.64-5.64-34.25-13.24-40.12z" fill="#e39c76"/><path d="m226.55 209.72c-3.08-2.38-6.87-6.44-9.75-13.77l5.2 31.81c4.26-.86 12.31-4.43 11.62-11.42-.28-2.91-3.72-4.03-7.07-6.62z" fill="#e39c76"/><path d="m206.18 209.8c-2.55.74-5.54-1.86-6.68-5.8s0-7.73 2.56-8.47 5.54 1.86 6.68 5.8-.01 7.73-2.56 8.47z" fill="#2d1929"/><path d="m184.59 185.17a1 1 0 0 1 -.79-1.62c.08-.11 8.66-10.86 21.7-6.53a1 1 0 0 1 .63 1.27 1 1 0 0 1 -1.27.63c-11.67-3.88-19.17 5.47-19.48 5.87a1 1 0 0 1 -.79.38z" fill="#2d1929"/><path d="m78.25 483s14.32-132.76 31.58-158.7 97.24-29.19 126.17 11.36 17.47 147.34 17.47 147.34z" fill="#287eef"/><path d="m171.05 304.93c39.1-2.59 64 6.18 79.62 14.84 8.71 4.83 35.38 24.3 78.42 42l48.33-108.18 34.91-.52c-7.44 60.2-18.31 105.15-26.83 134.84-4.11 14.3-9.32 30.81-24.08 39.21-9.1 5.18-21.62 6.19-65.35-5.5a409 409 0 0 1 -77-29.28z" fill="#287eef"/><path d="m166.69 305.18c-15.4-.44-76.61-.84-95.23 34.54-5.08 9.66-5.36 18.79-5.16 34.57a1039.4 1039.4 0 0 0 7.23 108.71h54.17z" fill="#287eef"/><rect fill="#287eef" height="22.43" rx="3.12" width="62.6" x="127.87" y="291.84"/><path d="m129.25 222c39.55-33.19 4.53-53.81 13.76-66.61 3.44-4.78 9.33-3.27 16.16-10.66a30.9 30.9 0 0 0 6.41-10.89s14.39 4.1 22.48 8.91c0 0 6.54-26.57-7.22-32.08s-25.28 3.44-25.28 3.44c-16.84-.24-50.26 2-75.84 24.77-4.65 4.13-9.81 8.81-13.93 16.68-13.79 26.31-1.44 60.5 14.44 80.44 19.42 24.4 46.62 30.75 56.05 32.49a61.18 61.18 0 0 0 -7.03-46.49z" fill="#2d1929"/><path d="m142.32 240.84c-7.32 4.81-18 1.5-23.84-7.39s-4.66-20 2.66-24.82 18-1.51 23.85 7.38 4.65 19.99-2.67 24.83z" fill="#e39c76"/><path d="m141 231.48c-1 0-5.4-.25-6.74-4.69-.93-3.1 2.83-5.13 4.35-5.81-1.45-1.94-7-8.75-12.62-7.33-5.28 1.33-3.9 7.29-3.84 7.55a.5.5 0 0 1 -1 .23c0-.07-1.66-7.18 4.57-8.75 7.14-1.81 13.77 7.82 14 8.24a.5.5 0 0 1 -.24.75s-5.21 2-4.34 4.83c1.26 4.19 5.71 4 5.9 4a.52.52 0 0 1 .53.47.49.49 0 0 1 -.47.53z" fill="#2d1929"/><path d="m74.56 365 9.8 42.83v75.12h9.55l-3.87-74.35z" fill="#1573d8"/><path d="m254.83 408.13s-10.84-1-32.27-14.08c0 0 15.72 61.24 10.22 72.94s-105.08 16.01-105.08 16.01h125.77s5.87-57 1.36-74.87z" fill="#1573d8"/><path d="m329.09 361.74s3.18 31.12 11.18 40.67-24.2-12.19-28.52-48.27z" fill="#1573d8"/><path d="m219.37 236.88-24.08 3.78a25.91 25.91 0 0 0 25.45 10.15q-.69-6.98-1.37-13.93z" fill="#efefef"/><path d="m370.83 268.32q5.18-15.81 10.37-31.61a26.46 26.46 0 0 1 4-23.31c4.27 2.4 9.57 1.48 12.29-1.46a9.67 9.67 0 0 0 1.47-10.4 7 7 0 0 1 9.28 4c3.53-2.51 7.77-.05 8 4 3.49-1.58 6.71 1.74 5.85 5.25 9.61-.56 3.75 15.21-.95 23.47a48.58 48.58 0 0 1 -7.18 9.63q-2.25 13.68-4.51 27.35a57.56 57.56 0 0 1 -38.62-6.92z" fill="#e39c76"/><path d="m355.23 302.83 16.83-43.07a5.09 5.09 0 0 1 5.8-3.12l32.24 6.84a4.29 4.29 0 0 1 3.28 5.19l-9.8 41.54z" fill="#287eef"/></g></svg>