<svg height="512" viewBox="0 0 512 512" width="512" xmlns="http://www.w3.org/2000/svg" xmlns:xlink="http://www.w3.org/1999/xlink"><clipPath id="clip-path"><path d="m325.64 220.92h54.29v99.16h-54.29z" transform="matrix(-1 0 0 -1 705.58 541)"/></clipPath><clipPath id="clip-path-2"><path d="m224.2 297q-59 2.43-118.19-.71a58.14 58.14 0 0 0 -56.55 35.3h-13.64a4.82 4.82 0 0 0 -4.82 4.84v41a13.67 13.67 0 0 0 13.67 13.67h3.33a69.09 69.09 0 0 0 56.51 47.7 501.68 501.68 0 0 0 135.93 0 69.48 69.48 0 0 0 59.9-68.92 73 73 0 0 0 -76.14-72.88z"/></clipPath><g id="Save_Money" data-name="Save Money"><path d="m345.86 131.68-59.46 21.71s-2.11 34.61-12.64 60.41.56 44.95 10.55 56.7-27.4 19.08-24.24 52 89.26 18.82 89.26 18.82l17.09-50z" fill="#86ebf9"/><circle cx="398.73" cy="73.55" fill="#86ebf9" r="26.63"/><g clip-path="url(#clip-path)"><path d="m325.64 220.92h54.29v99.16h-54.29z" fill="#834a27" transform="matrix(-1 0 0 -1 705.58 541)"/><path d="m376.36 240.81s-10.75 36.27-55.44 40.1v-31.67z" fill="#6e3d1e"/></g><path d="m238.6 267.51-35.53 19.57a647.92 647.92 0 0 0 -4 176h33.87l22.27-13.08q-8.31-91.25-16.61-182.49z" fill="#834a27"/><path d="m284.86 189.6c1.53-12.21 4.46-19.63 5.19-27.62 1.82-19.74-.34-34.81 13.76-48.25a68.09 68.09 0 0 1 14.91-13c20.3-14.85 54-15.26 76.73 1.81 26.21 19.65 25.89 53.46 25.81 61.86-.37 39.21-27.61 65.52-39.5 75.2a100.3 100.3 0 0 1 -21.47 15.7c-8.72 4.63-32.09 17-48.93 6.19-4.4-2.84-10.45-9.95-17.57-26.61-9.21-21.52-10.46-33.08-8.93-45.28z" fill="#834a27"/><g fill="#2d1929"><path d="m318 207.34c-4.44-2.49-6.72-5.12-6.78-7.83-.12-6 10.28-6.78 13.59-24.77a.5.5 0 1 1 1 .19c-3.36 18.27-13.68 19.2-13.57 24.56.05 2.33 2.16 4.68 6.27 7a.5.5 0 0 1 -.51.85z"/><path d="m309.81 176.11c-.37 4.43-3 7.84-5.87 7.6s-4.9-4-4.53-8.47 3-7.85 5.88-7.61 4.9 4.04 4.52 8.48z"/><path d="m354.53 179.85c-.37 4.43-3 7.84-5.87 7.6s-4.9-4-4.53-8.47 3-7.85 5.87-7.61 4.9 4.04 4.53 8.48z"/><path d="m321.47 152.8a1 1 0 0 1 -.65-.24c-.42-.36-10.45-8.75-22.11-2.09a1 1 0 0 1 -1-1.74c12.9-7.37 24.29 2.22 24.4 2.31a1 1 0 0 1 -.64 1.76z"/><path d="m363.88 158.42a1 1 0 0 1 -.8-.41c-8-10.77-20.56-7.11-21.09-6.94a1 1 0 0 1 -.59-1.92c.14 0 14.41-4.26 23.29 7.67a1 1 0 0 1 -.81 1.6z"/></g><path d="m369.48 279.84c11.94.45 37.07 3.19 52.36 21.62 11.07 13.33 12 28.8 12.09 60.45.11 26.72-.37 61-2.47 101.15h-166.88s-3.4-128 8.18-151.55 69.83-43.29 96.72-31.67z" fill="#834a27"/><path d="m325.34 279.64s-48.57-1.34-67.65 44.3-25.2 139.12-25.2 139.12h51.82z" fill="#834a27"/><path d="m325.34 279.64s3.52 22.47 25.66 23.36 29-22.26 29-22.26 9.7 1.31 15.55 3.53c0 0-6.62 54.73 20.32 81v97.78h-156.25s-5.19-66.16 0-91.72 41.18-61.33 52.14-90.33c0 0 8.64-2 13.58-1.36z" fill="#e5e5e5"/><path d="m304.33 296.22s-12.67 20.85-10.21 31.09 24.09 3.58 31.52 8-22.4 5.43-20.29 25.79 3.93 43.66-11.55 59.56 23.48 21.56 47.35 22.77 41.06-.55 41.76 4.71-57.57 14.66-57.57 14.66h-65.72a283.35 283.35 0 0 1 -1.62-56.45c1.3-18.24 2.52-33.6 10.26-51.86 3.39-8 7-14 12.37-23.16a354.2 354.2 0 0 1 23.7-35.11z" fill="#c6c6c6"/><path d="m115 301.7a50.37 50.37 0 0 0 -14.11-15.17c-15.74-10.92-37.26-11.23-39.41-5.47-1.17 3.12 4 6.27 10.43 15.87a85.72 85.72 0 0 1 12.53 30.38s26.23-.76 30.56-25.61z" fill="#e73f46"/><path d="m121.54 462.77h-18.6c-3.51 0-6-2.94-5.8-6.7l2.36-35.9a7.29 7.29 0 0 1 7-6.68h21.78a5.69 5.69 0 0 1 5.65 6.68l-5.22 35.9a7.66 7.66 0 0 1 -7.17 6.7z" fill="#cc3745"/><path d="m253.8 462.77h-18.59a7.65 7.65 0 0 1 -7.22-6.7l-5.22-35.9a5.68 5.68 0 0 1 5.64-6.68h21.78a7.31 7.31 0 0 1 7.06 6.68l2.35 35.9c.25 3.76-2.28 6.7-5.8 6.7z" fill="#cc3745"/><path d="m251.65 366.53c13.64-8.63 47.94-27.74 63.85-24.79a13.51 13.51 0 0 1 8.85 5.85c.13.21.32.62.61 1.26 4.11 11.93-9.51 20-14.8 7.88-2.44-5.65-2.21-13.3 1.71-18.39a14.35 14.35 0 0 1 8-5.12 19.47 19.47 0 0 1 4.5-.57c9.94.47 7.18 18.12 15.52 16.51a9.06 9.06 0 0 0 3.47-1.55 11.46 11.46 0 0 0 .93-.75c3.1-2.8 4.09-7.93 4.06-12.11a34.19 34.19 0 0 0 -1-7.44 29.45 29.45 0 0 1 2.17 7.34c.7 5 .13 10.43-3.16 14.22a11.62 11.62 0 0 1 -1.74 1.63c-4.69 3.38-9 2.82-11.71.17-3.46-3.39-4.93-9.85-7.18-12.16a2 2 0 0 0 -1.83-.72c.78 0-1.48.11-2.66.53-4.43 1.3-6.56 4.8-6.81 9.39a14.9 14.9 0 0 0 1.16 6.62 5.77 5.77 0 0 0 1.49 2.17l.1.08s-.09 0-.07 0l.55.2c-.5-.15-.13 0-.24-.08h.11c.19.06.3 0 .48 0a2.92 2.92 0 0 0 1.29-1.39 5.6 5.6 0 0 0 .54-2.57 6.45 6.45 0 0 0 -.22-1.42l-.42-.92c-.09-.19.14.23.05.1a8.22 8.22 0 0 0 -5.08-3.15 13.45 13.45 0 0 0 -3.25-.35c-13.52 0-44.79 13.53-59.27 19.53z" fill="#e73f46"/><g clip-path="url(#clip-path-2)"><path d="m224.2 297q-59 2.43-118.19-.71a58.14 58.14 0 0 0 -56.55 35.3h-13.64a4.82 4.82 0 0 0 -4.82 4.84v41a13.67 13.67 0 0 0 13.67 13.67h3.33a69.09 69.09 0 0 0 56.51 47.7 501.68 501.68 0 0 0 135.93 0 69.48 69.48 0 0 0 59.9-68.92 73 73 0 0 0 -76.14-72.88z" fill="#e73f46"/><path d="m21.36 361.33h32.64s11.17 54 76.21 58 169.48 5.23 170.13-70.33l15.11 42.05-26.28 61.09-111 10.51-116.89-7.87-44.08-42.7z" fill="#cc3745"/></g><ellipse cx="76.99" cy="331.6" fill="#2d1929" rx="4.62" ry="7.37"/><path d="m223.24 312.59a709 709 0 0 1 -87.23 0 4 4 0 1 1 0-8 506.19 506.19 0 0 0 87.23 0 4 4 0 1 1 0 8z" fill="#2d1929"/><circle cx="169.5" cy="263.58" fill="#d7981a" r="47.76"/><circle cx="179.07" cy="262.81" fill="#efbd42" r="47.76"/><path d="m166.79 252.54c-.59-7.28 4.39-12.15 11.24-13.56l-.41-5.07a1.35 1.35 0 1 1 2.7-.22l.41 5a13.62 13.62 0 0 1 7.36 1.6 11.56 11.56 0 0 1 5.8 9c.23 2.82-1.3 4.42-3.67 4.62a2 2 0 0 1 -2-2c-.57-6.51-3-9.8-7.24-9.86l1.47 18.08c3.59 1.72 6 3 7.19 3.7 3.31 2 5.79 4.64 6.14 8.89.6 7.37-4.35 12.14-11.2 13.55l.41 5.08a1.36 1.36 0 0 1 -2.71.22l-.4-4.93a13.87 13.87 0 0 1 -7.36-1.63c-5.92-3.19-8.54-13.09-2.13-13.61a2 2 0 0 1 2 2 15.17 15.17 0 0 0 2.39 7.11 6 6 0 0 0 4.86 2.9l-1.38-17c-6.42-3.48-12.9-6.86-13.47-13.86m12.83 6-1.3-16.06a7.54 7.54 0 0 0 -4.71 7.73c.32 4 2.72 6.47 6 8.33m4.69 24.19a8 8 0 0 0 4.7-7.74c-.25-3-2.61-5.12-5.84-7z" fill="#e5e5e5"/><path d="m345.86 109.92s4.29 41.75 45.41 53.34c4 6 9 15.21 9.19 26.68.44 20.75-14.92 25.18-20.52 51.39v39.32c27.86 7 40.46 19 46.81 28.83 8.2 12.67 12.45 31.57 21.67 31.73 4.1.08 12.38-3.51 12.38-3.51s10.88-50.13-7.55-78.59-14.74-27.7-7.37-54.93-7.9-24.71-8.42-46.76-14.74-84.71-76.34-72.6c-21.44-8-45.18-4.24-61.42 10-20.54 18-25.86 50.1-11.32 76.54 0 0 3.85-18 3.42-32.66.03 0 35.6 2.63 54.06-28.78z" fill="#86ebf9"/><path d="m393.1 177.26c4.33-10.71 15-16.51 23.82-12.95s12.47 15.14 8.13 25.86-15 16.53-23.81 13-12.47-15.17-8.14-25.91z" fill="#834a27"/><path d="m400.27 191.89c.2 0 5-.76 5.47-5.53.31-3.29-5.63-4.26-5.69-4.27a.51.51 0 0 1 -.39-.69c.21-.49 5.22-12.1 13.17-11.75 6.93.34 6.7 8.23 6.7 8.31a.52.52 0 0 1 -.52.48.5.5 0 0 1 -.48-.52c0-.28.19-7-5.75-7.27-6.32-.32-10.84 8.27-11.94 10.58 1.72.38 6.23 1.72 5.89 5.23-.52 5.57-6.27 6.41-6.33 6.42a.5.5 0 0 1 -.13-.99z" fill="#2d1929"/><path d="m421.27 292.81-11.69 170.27 66.93-.5-11-167.77z" fill="#834a27"/><path d="m466.39 308.77-.92-14a92.25 92.25 0 0 0 8.34-27.45c2.11-15.53 9.74-27.9 6.32-34.48s-14.33 17.68-16.13 18.73 5.47-39.22 0-42.91-7.32 9-8.9 15.27-.79 20.8-4.47 22.51-3.95-42.78-10.27-40.94-4.18 38.7-6.43 42.91a2.08 2.08 0 0 1 -.93.91c-2.11 1-4.66-2.93-9.22-4.6a14 14 0 0 0 -7-.61c-8.14 1.72-12.93 14-10.88 16 1 1 3.88-.45 4.21-.61 3.51-1.74 3.49-4.87 6.14-5.71 2.27-.72 4.61.83 5.62 1.49 4.27 2.83 6.39 9.2 4.21 12.11a1.62 1.62 0 0 1 -.51.53c-2.56 1.51-9.83-6.6-14.23-7.9-4.74-1.4-9.3 3.16-7.9 4.74s11.56 7.24 12.37 14.75c1.33 12.6 6.85 15.09 11.85 21s15.09 11.13 38.73 8.26z" fill="#834a27"/><path d="m420.9 301.19q-2.53 32.06-5.09 64.11a139.2 139.2 0 0 1 5.09-64.11z" fill="#6e3d1e"/><path d="m239.32 275.39c-.45-9.45-1.19-17.44-1.89-23.56-1-8.53-1.61-11.53-3.94-14.48-3.73-4.71-9.14-6-15-7.37-7.63-1.79-19.5-2.67-20.79.93-.84 2.34 3.1 5.77 4.47 7 5.38 4.69 8.59 2.82 12.64 5.79 9.28 6.81 10.13 29.61 10.24 32.75a7.14 7.14 0 0 0 1.61 4.52c3.42 3.52 11.27 1.47 12.66-5.58z" fill="#834a27"/><path d="m443 279.52a.5.5 0 0 1 -.49-.44c-.92-7.54-10.51-12.28-10.61-12.33a.5.5 0 0 1 .14-.94c10.42-1.78 26 2 26.68 2.14a.51.51 0 0 1 .37.61.51.51 0 0 1 -.61.36c-.15 0-14.59-3.52-24.8-2.34 2.81 1.65 9 6 9.82 12.38a.5.5 0 0 1 -.5.56z" fill="#2d1929"/><path d="m306.73 219.72a62.58 62.58 0 0 0 30.55-2.15c-4.19 9.24-13.37 13.77-20.72 11.62-6.44-1.9-9.32-8.3-9.83-9.47z" fill="#e5e5e5"/></g></svg>