<svg xmlns="http://www.w3.org/2000/svg" width="512" height="512" viewBox="0 0 512 512"><defs><style>.cls-1{fill:#00ccc1}.cls-2{fill:#aaeeea}.cls-14,.cls-15,.cls-17,.cls-3,.cls-4,.cls-7,.cls-9{fill:none;stroke-linecap:round;stroke-linejoin:round}.cls-15,.cls-3{stroke:#00ccc1}.cls-3{stroke-width:4px}.cls-14,.cls-4,.cls-7,.cls-9{stroke:#383333}.cls-4{stroke-width:3px}.cls-5{fill:#ffb833}.cls-6{fill:#ffb08d}.cls-7{stroke-width:.75px}.cls-11,.cls-8{fill:#383333}.cls-11,.cls-16,.cls-17,.cls-9{fill-rule:evenodd}.cls-10{fill:#ff8c5f}.cls-12{fill:#ff535c}.cls-13{fill:#fff3e3}.cls-16{fill:#fff}.cls-17{stroke:#fff}</style></defs><g id="Satellite"><path d="M60.38,335.51l65.39-1.16Q116.22,281.7,106.67,229L76.44,215.87Q68.42,275.69,60.38,335.51Z" class="cls-1"/><rect width="126.15" height="24.77" x="30" y="319.31" class="cls-2" rx="11.67" transform="translate(186.15 663.38) rotate(-180)"/><path d="M185.7,249.36a91.07,91.07,0,0,1-124.07-124Z" class="cls-2"/><ellipse cx="125.78" cy="184.55" class="cls-1" rx="25.99" ry="88.64" transform="translate(-93.12 140.28) rotate(-44.29)"/><path d="M100,206.47l4.33,4.52a2.51,2.51,0,0,0,3.6,0l67.47-69.08a2.5,2.5,0,0,0,0-3.48h0a2.5,2.5,0,0,0-3.47-.13l-71.82,64.57A2.5,2.5,0,0,0,100,206.47Z" class="cls-2"/><circle cx="176" cy="138.74" r="7.71" class="cls-1"/><path d="M196.49,152.25a25.51,25.51,0,0,0-4.34-25.17c-7.06-8.21-19.19-10.89-29.8-6.34" class="cls-3"/><path d="M217.92,158.44c.46-1.62,7.1-26.66-10.7-46.58s-43.15-16.19-44.87-15.92" class="cls-3"/><path d="M245.12,156.13c.54-5.36,3.16-36.51-19.68-62.79-19.3-22.22-44.29-26.55-50.92-27.49" class="cls-3"/><path d="M208.16,343.81,35,344.07" class="cls-4"/><path d="M267.22,76.94V55.83a1.9,1.9,0,0,1,1.54-1.92,1.81,1.81,0,0,1,2.07,1.78V77.08a1.81,1.81,0,0,1-2.07,1.79A1.92,1.92,0,0,1,267.22,76.94Z" class="cls-5"/><path d="M258.33,68.19a1.81,1.81,0,0,1-1.78-2.07,1.91,1.91,0,0,1,1.93-1.54h21.1a1.91,1.91,0,0,1,1.93,1.54,1.81,1.81,0,0,1-1.79,2.07Z" class="cls-5"/><path d="M240.54,404a1.38,1.38,0,0,1-1.38-1.38V386.28a1.38,1.38,0,0,1,2.76,0v16.31A1.38,1.38,0,0,1,240.54,404Z" class="cls-5"/><path d="M232.39,395.81a1.38,1.38,0,1,1,0-2.75h16.3a1.38,1.38,0,1,1,0,2.75Z" class="cls-5"/><path d="M448.44,232.63a1.37,1.37,0,0,1-1.37-1.37V215a1.38,1.38,0,0,1,2.75,0v16.31A1.37,1.37,0,0,1,448.44,232.63Z" class="cls-5"/><path d="M440.29,224.48a1.38,1.38,0,1,1,0-2.75h16.3a1.38,1.38,0,1,1,0,2.75Z" class="cls-5"/><circle cx="372.67" cy="146.32" r="66.32" class="cls-6"/><path d="M356.46,193.28c2.73,12.23,4.39,29.3-5,41.66-7.31,9.63-15.07,8.06-23.5,14.36-21.88,16.36-12.12,56.27-12.4,126-.07,16.87-.73,37.06-2.7,59.95a126,126,0,0,0,137.63-1.83,169.33,169.33,0,0,1-10.35-32.88c-10.62-52,4.15-106.8-6.39-137.47-2-5.81-4.47-13-11.26-18.6-7-5.73-12.25-4.59-17.62-10.77-4.15-4.77-5-10-6.24-18.5a89.46,89.46,0,0,1,.78-30Z" class="cls-6"/><path d="M306.35,109c-7.81,49.37,0,91.61,23.6,103.79,5.93,3.07,12.11,3.85,17.09,4.43,32.59,3.86,58.19-12.67,68.59-20.37C415.63,196.84,389.07,24.18,306.35,109Z" class="cls-6"/><path d="M413.86,140.46A13.71,13.71,0,0,1,424,136.52a10.53,10.53,0,0,1,6.23,2.34c5.65,5.29,3.49,22-6.29,26.29-5.46,2.4-11.26,0-13.21-.88Z" class="cls-6"/><path d="M427.92,146.32l-9.43-.44s9.6,6,1.57,13.73" class="cls-7"/><path d="M384.32,132.9A20.54,20.54,0,0,0,372.51,129c-2.87-.07-6.76-.17-7.95,2.08a3.13,3.13,0,0,0,.07,3.17c1.35,1.81,4.74.18,10.21.13,7.2-.07,11.88,2.66,12.35,1.63C387.54,135.3,385.23,133.58,384.32,132.9Z" class="cls-8"/><path d="M313.57,133.38a20.6,20.6,0,0,1,11.88-3.62c2.87,0,6.76,0,7.91,2.24a3.16,3.16,0,0,1-.14,3.17c-1.38,1.78-4.74.08-10.2-.08-7.2-.21-11.94,2.43-12.39,1.39C310.3,135.73,312.64,134.05,313.57,133.38Z" class="cls-8"/><path d="M344.33,148.13s-5,11.65-4.1,13.87,10,1.47,10,1.47" class="cls-9"/><path d="M341,189.46s4.56,1.71,8.26-.06" class="cls-7"/><ellipse cx="384.33" cy="167.74" class="cls-10" rx="7.98" ry="4.97" transform="translate(-2.82 6.61) rotate(-0.98)"/><ellipse cx="318.87" cy="169.8" class="cls-10" rx="7.98" ry="4.97" transform="translate(-2.86 5.49) rotate(-0.98)"/><path d="M375.05,155.9a5.88,5.88,0,1,1-.38-8.3A5.91,5.91,0,0,1,375.05,155.9Z" class="cls-11"/><path d="M326.58,156.76a5.88,5.88,0,1,1,.1-8.3A5.9,5.9,0,0,1,326.58,156.76Z" class="cls-11"/><path d="M417.31,239.75a60.59,60.59,0,0,1,36.25,19.89c8.57,9.84,11.33,20.23,14.53,33.4,4.68,19.3,8.44,36.86,11.48,52.33L444.75,351c-3.42-8.46-6.82-17.72-10-27.74-2.05-6.37-5.54-17.79-8.9-32.32A414.07,414.07,0,0,1,417.31,239.75Z" class="cls-12"/><path d="M388.85,210.64s-18.12,6.42-30.7,7.15" class="cls-9"/><path d="M343.41,243.76s-21.22,3.91-35.27,14.46-51.85,73-51.85,73l24.75,23c4-2.29,9.67-5.67,16.13-10.15a214.7,214.7,0,0,0,28-23.08C342.52,303.6,360.32,248.76,343.41,243.76Z" class="cls-12"/><path d="M431.62,251.63c-.93-4.95-2.53-7.39-4.86-9.1-5.64-1.56-13.7-3.29-13.7-3.29s-8.16,8-38.07,5.92c-15.24-1-23.3-2.89-27.55-4.45a5.54,5.54,0,0,0-4.3.22c-7.77,3.71-24.11,9.54-27.4,12.5-4.13,3.7-5.92,20.73-5.62,48.14S306.35,434,306.35,434c67.17,54.2,150.23,0,150.23,0C438.31,395.66,433.75,263.06,431.62,251.63Z" class="cls-13"/><path d="M343.14,240.93l2,213.86s-26.18-4.93-41.91-22c0,0,5.09-164.74,7.4-171.27s3.82-8.22,10.13-11S343.14,240.93,343.14,240.93Z" class="cls-12"/><path d="M413.06,239.24s.59,164.38,10.15,210.33c0,0,22.8-4.81,36.27-16.92,0,0-15.75-72.45-18.49-122.55s-5.22-59.12-8.4-64.35S413.06,239.24,413.06,239.24Z" class="cls-12"/><path d="M377.31,358.81a73.59,73.59,0,0,1-20.68,4.3c-12.45.92-13.13,2.74-25.69,8.22S301,375,304.68,382.3s61,11,76.27,8.67C381,391,386.24,367.3,377.31,358.81Z" class="cls-6"/><path d="M439.07,342.94l-80,19.34a61.21,61.21,0,0,0-.26,29.45,572.68,572.68,0,0,0,79.78-5.48c16.05-2.27,33.37-5.48,39.32-17.94,1.77-3.69,1.78-6.83,2-12.25.69-16.83-4.71-42.24-15.05-43.78C456.81,311.08,446.39,324.56,439.07,342.94Z" class="cls-12"/><path d="M223.23,269.28c7.55,49.28,25,85.11,46.21,87.59,1.84.21,8.2.95,12.44-2.94,15.69-14.42-18-73.49-28.2-90.79Z" class="cls-12"/><polygon points="243.9 213.89 238.81 214.42 237.18 182.87 239.06 182.68 243.9 213.89" class="cls-2"/><circle cx="237.68" cy="182.76" r="4.45" class="cls-1"/><rect width="47.45" height="75.67" x="209.88" y="206.57" class="cls-1" rx="8.31" transform="translate(-25.72 27.48) rotate(-6.38)"/><path d="M220.82,217.31q1.29,8.56,2.59,17.13a2.68,2.68,0,0,0,3,2.26l24.25-3.16a2.69,2.69,0,0,0,2.3-3.12l-3-17.23a2.7,2.7,0,0,0-3-2.2l-23.85,3.25A2.7,2.7,0,0,0,220.82,217.31Z" class="cls-2"/><line x1="215.16" x2="223.99" y1="208.4" y2="283.55" class="cls-14"/><rect width="11.42" height="6.24" x="225.23" y="241.72" class="cls-2" rx="3.12" transform="translate(-34.75 38.23) rotate(-8.8)"/><rect width="11.42" height="6.24" x="241.38" y="238.48" class="cls-2" rx="3.12" transform="translate(-34.07 40.66) rotate(-8.8)"/><rect width="11.42" height="6.24" x="243.13" y="251.44" class="cls-2" rx="3.12" transform="translate(-36.03 41.09) rotate(-8.8)"/><rect width="11.42" height="6.24" x="227.66" y="254.46" class="cls-2" rx="3.12" transform="translate(-36.67 38.75) rotate(-8.8)"/><rect width="11.42" height="6.24" x="228.59" y="267.82" class="cls-2" rx="3.12" transform="translate(-38.71 39.05) rotate(-8.8)"/><rect width="11.42" height="6.24" x="245.46" y="264.82" class="cls-2" rx="3.12" transform="translate(-38.05 41.6) rotate(-8.8)"/><polyline points="226.03 223.3 230.24 229.13 232.66 217.07 237.97 227.92 240.01 219.73 244.75 227.45 246.79 217.93" class="cls-15"/><path d="M257.66,246.06s-4-5.26-2.84-9.95,2.78-2.52,5.69,2.06,4.17,6.79,3.11,9.41-5,7.26-5,7.26Z" class="cls-6"/><path d="M211.53,260.23s-.16-4.44,1.27-5.63,6.29-3.63,5.82-7.1-6.36-.21-6.36-.21,6.73-4.93,5.41-7-5.76-.55-5.76-.55,5.26-3.43,4.73-6.17-5.74.27-5.74.27,5.08-3.32,4-5.21-7.71-.36-10.32,3.14,1,5.29,1,5.29-2.11,3.18.93,4.67a6.18,6.18,0,0,0-.68,2.88,6.65,6.65,0,0,0,2.22,4.69c-1.62,3.71-1.28,7.51.86,9.54A5.62,5.62,0,0,0,211.53,260.23Z" class="cls-6"/><path d="M208.16,249.65a14.07,14.07,0,0,1,5.19-3" class="cls-7"/><path d="M206.45,241.71s5.2-1.91,5.46-2" class="cls-7"/><path d="M205.52,237s4.26-2.77,5.86-3.48" class="cls-7"/><path d="M274.42,302.52s14.69,24.05,9.44,41.87" class="cls-9"/><line x1="417.09" x2="450.25" y1="389.13" y2="384.32" class="cls-14"/><path d="M415.34,348.67s29.08-7.15,44.14-.81" class="cls-9"/><path d="M434.15,283.84s-3.72,46.87,3.26,61.4" class="cls-9"/><path d="M352.44,88.76s-14.61-3.35-20.7,6.7-8.22,38.44-40.8,34.29c0,0,12.79-8.71,9.44-29.42s28.08-35.93,44.79-26.18c0,0,45.59-17.66,73.32.3S451,150.64,437.41,178.32s-35.49,31.56-40.51,28.81,10-32.93,13.84-37.22,6.69-2,12.47-4.47,12.86-13.32,9.49-22.18-11.25-8.52-15.93-3.72-2.34,12.82-7.31,12.4-7.38-9-1.29-24.51S388.07,73.23,352.44,88.76Z" class="cls-8"/><path d="M360.93,176.76a16.28,16.28,0,0,1-16.84,9.59c-8.67-1.25-12.25-9.69-12.39-10a106.39,106.39,0,0,1,29.23.46Z" class="cls-16"/><path d="M346.66,82.9s-16.35-4.11-24.5,4.34-3.28,32-18.74,33.8" class="cls-17"/><path d="M353.74,82.44s19.87-8.77,35.4-2.44,24.89,52.91,45.44,45.83" class="cls-17"/><path d="M412.66,94.09s8.45,22.38,24,17.36" class="cls-17"/><path d="M422,169.8s-.81,16.6-15.62,24.6" class="cls-17"/><path d="M436.64,161.46s-3.43,32.43-29,39.51" class="cls-17"/><line x1="309.11" x2="306.63" y1="279.96" y2="335.4" class="cls-14"/></g></svg>