<svg height="512" viewBox="0 0 512 512" width="512" xmlns="http://www.w3.org/2000/svg"><g id="Organic_Cosmetic" data-name="Organic Cosmetic"><path d="m402.11 160.12 5.17-13.63a2.07 2.07 0 0 1 3.89.09l4.52 13.76a2 2 0 0 0 1.31 1.31l9.43 3.13a2.06 2.06 0 0 1 0 3.9l-9.67 3.45a2.06 2.06 0 0 0 -1.26 1.3l-5.18 15.65a2.06 2.06 0 0 1 -3.94-.07l-4.51-15.54a2.09 2.09 0 0 0 -1.28-1.36l-9.54-3.47a2.06 2.06 0 0 1 0-3.88l9.75-3.43a2.05 2.05 0 0 0 1.31-1.21z" fill="#ffb833"/><path d="m99.77 277.44 5.23-13.63a2.06 2.06 0 0 1 3.89.09l4.51 13.76a2.06 2.06 0 0 0 1.31 1.31l9.43 3.13a2.06 2.06 0 0 1 0 3.89l-9.67 3.46a2.06 2.06 0 0 0 -1.27 1.29l-5.2 15.66a2.06 2.06 0 0 1 -3.94-.07l-4.51-15.54a2.05 2.05 0 0 0 -1.27-1.36l-9.53-3.43a2.06 2.06 0 0 1 0-3.88l9.75-3.42a2.06 2.06 0 0 0 1.27-1.26z" fill="#ffb833"/><path d="m140.37 97.17 6.43-16.93a2.56 2.56 0 0 1 4.83.11l5.61 17.09a2.56 2.56 0 0 0 1.63 1.64l11.72 3.92a2.57 2.57 0 0 1 0 4.85l-12 4.29a2.54 2.54 0 0 0 -1.57 1.61l-6.44 19.45a2.57 2.57 0 0 1 -4.9-.09l-5.6-19.3a2.53 2.53 0 0 0 -1.59-1.69l-11.86-4.32a2.57 2.57 0 0 1 0-4.83l12.12-4.25a2.57 2.57 0 0 0 1.62-1.55z" fill="#ffb833"/><path d="m390.1 448.27h-241.1c-6.18-64.1-5.31-145.92 18.79-235.89 5.67-21.2 12.17-41.09 19.14-59.66h165.24c7.22 20.22 13.93 41.94 19.72 65.14 21.92 87.77 23.41 167.26 18.21 230.41z" fill="#ff8d93"/><ellipse cx="269.2" cy="448.27" fill="#ff8d93" rx="120.53" ry="35.66"/><ellipse cx="269.2" cy="152.72" fill="#ff8d93" rx="82.47" ry="18.57"/><path d="m218.08 103.32h102.24v49.07h-102.24z" fill="#00ccc1"/><ellipse cx="269.2" cy="103.32" fill="#00ccc1" rx="51.12" ry="7.43"/><ellipse cx="269.2" cy="152.39" fill="#00ccc1" rx="51.12" ry="9.66"/><path d="m342.54 401.41a18.16 18.16 0 0 1 -14.87 18.83 325.9 325.9 0 0 1 -116.94 0 18.15 18.15 0 0 1 -14.87-18.83q4.39-83.05 8.8-166.13a18.14 18.14 0 0 1 20.14-17.08 401.83 401.83 0 0 0 58.2 2.22c10.75-.37 21-1.15 30.6-2.23a18.17 18.17 0 0 1 20.18 17.08q4.36 83.07 8.76 166.14z" fill="#ffdb99"/><path d="m270.62 178.21c-6.16 0-12.55-.28-19.13-.9-26.52-2.49-42.8-8.94-51.79-13.91-9.79-5.41-13.24-10.19-13.38-10.39a.5.5 0 1 1 .82-.58c.13.19 14.16 19.16 64.44 23.88 52 4.89 91.92-11 99.66-23.85a.5.5 0 0 1 .86.52c-6.88 11.42-38.6 25.23-81.48 25.23z" fill="#383333"/><path d="m254.26 59.42h29.87v43.89h-29.87z" fill="#ff8d93"/><ellipse cx="269.2" cy="59.42" fill="#ff8d93" rx="14.94" ry="3.93"/><ellipse cx="269.2" cy="103.32" fill="#ff8d93" rx="14.94" ry="3.93"/><path d="m364.89 60.69-136.09 6.31a10.24 10.24 0 0 1 -10.72-10.23v-12.59a10.24 10.24 0 0 1 10.72-10.18l136.09 6.26a10.26 10.26 0 0 1 9.77 10.24 10.24 10.24 0 0 1 -9.77 10.19z" fill="#00ccc1"/><path d="m267.74 113.33a142.31 142.31 0 0 1 -20.49-1.47c-18.13-2.67-29.28-8-29.39-8.09a.5.5 0 1 1 .44-.9c.43.21 44.41 21.1 101.85 0a.5.5 0 0 1 .64.3.51.51 0 0 1 -.3.64 152.59 152.59 0 0 1 -52.75 9.52z" fill="#383333"/><path d="m229.53 155.25a.5.5 0 0 1 -.5-.5v-38.11a.5.5 0 0 1 1 0v38.11a.5.5 0 0 1 -.5.5z" fill="#383333"/><path d="m242.92 156.79a.5.5 0 0 1 -.5-.5v-36.56a.5.5 0 0 1 .5-.5.5.5 0 0 1 .5.5v36.56a.5.5 0 0 1 -.5.5z" fill="#383333"/><path d="m309.62 152.89a.51.51 0 0 1 -.5-.49l-1-39.54a.5.5 0 0 1 .49-.51.51.51 0 0 1 .5.49l1 39.53a.5.5 0 0 1 -.49.52z" fill="#383333"/><path d="m297 153.22a.5.5 0 0 1 -.5-.49l-1-36.08a.49.49 0 0 1 .49-.51.53.53 0 0 1 .51.48l1 36.09a.5.5 0 0 1 -.48.51z" fill="#383333"/><path d="m284.13 156.79a.51.51 0 0 1 -.5-.49l-.26-36.57a.5.5 0 0 1 .5-.5.5.5 0 0 1 .5.49l.26 36.57a.49.49 0 0 1 -.49.5z" fill="#383333"/><path d="m271 156.79a.5.5 0 0 1 -.5-.5v-34.5a.5.5 0 0 1 .5-.5.5.5 0 0 1 .5.5v34.5a.5.5 0 0 1 -.5.5z" fill="#383333"/><path d="m255.8 156.79a.49.49 0 0 1 -.48-.51l1.29-34.51a.48.48 0 0 1 .51-.48.5.5 0 0 1 .49.51l-1.29 34.51a.5.5 0 0 1 -.52.48z" fill="#383333"/><path d="m264.38 298.52s-21.12-2.35-30 26.28 16.89 57.26 46 67.58 39.89-38 34.26-68.05-50.26-25.81-50.26-25.81z" fill="#ff535c"/><path d="m255.72 298.57s5.9-19.58 15.55-22.28 8.1-.39 17.37-5c5.59-2.79 7.8-4.32 8.47-3.82.87.65.11 3-.18 3.82-4.54 13.53-6.81 20.29-13 24.94-9.9 7.41-25 8.58-27.71 4.1a3.58 3.58 0 0 1 -.5-1.76z" fill="#00ccc1"/><path d="m257.86 297.56s-17.75-10.16-26.61-5.48-6.15 5.29-16.06 8.3c-6 1.81-8.64 2.23-8.78 3.05-.18 1.07 2 2.23 2.76 2.66 12.6 6.69 18.9 10 26.61 9.14 12.27-1.43 24-11 22.93-16.08a3.47 3.47 0 0 0 -.85-1.59z" fill="#00ccc1"/><path d="m254.88 319.17c-5.18 0-4.41 8 .75 8s4.37-8-.75-8z" fill="#fff"/><path d="m252.18 350.81c-5.18 0-4.41 8 .75 8s4.41-8-.75-8z" fill="#fff"/><path d="m285.76 372.81c-5.19 0-4.42 8 .74 8s4.42-8-.74-8z" fill="#fff"/><path d="m278 348.5c-5.18 0-4.42 8 .74 8s4.46-8-.74-8z" fill="#fff"/><path d="m256.19 301.81a1.5 1.5 0 0 1 -1.47-1.24c-6.3-35-29.95-39-30.95-39.2a1.5 1.5 0 1 1 .45-3c.26 0 26.76 4.43 33.45 41.63a1.5 1.5 0 0 1 -1.21 1.74 1.24 1.24 0 0 1 -.27.07z" fill="#00ccc1"/><g fill="#fff"><path d="m161.8 282.6h-.34a2.49 2.49 0 0 1 -2.14-2.81c.34-2.47 8.45-60.9 22.32-93.79a2.5 2.5 0 0 1 4.61 1.94c-13.62 32.28-21.89 91.93-22 92.53a2.51 2.51 0 0 1 -2.45 2.13z"/><path d="m274.5 181.21a209.42 209.42 0 0 1 -57.17-8.33 2.5 2.5 0 0 1 1.5-4.77c.59.18 59.2 18.27 103.68-.59a2.5 2.5 0 1 1 1.95 4.61c-16.13 6.87-33.75 9.08-49.96 9.08z"/><path d="m225.41 141.54a2.5 2.5 0 0 1 -2.5-2.5v-19.31a2.5 2.5 0 1 1 5 0v19.27a2.5 2.5 0 0 1 -2.5 2.54z"/><path d="m275.65 114.53a203.23 203.23 0 0 1 -26.38-1.87 2.5 2.5 0 0 1 .73-5c.38.05 38.18 5.47 52.19-2.63a2.5 2.5 0 1 1 2.5 4.33c-6.91 4.04-18.34 5.17-29.04 5.17z"/><path d="m229.53 50.12a2.51 2.51 0 0 1 -2.21-3.68c.2-.37 5-9 17.35-9.3 11-.26 52.25 1.72 54 1.8a2.5 2.5 0 0 1 -.24 5c-.43 0-42.78-2-53.65-1.8-9.5.23-13 6.6-13 6.66a2.5 2.5 0 0 1 -2.25 1.32z"/><path d="m267.13 95.7a2.5 2.5 0 0 1 -2.5-2.5v-18.8a2.5 2.5 0 1 1 5 0v18.8a2.5 2.5 0 0 1 -2.5 2.5z"/><path d="m212.79 470.15h-.1c-17.81-.69-45.66-7.33-52.78-14.07-6.77-6.42-7.57-53.2-7.65-67.38a2.51 2.51 0 0 1 2.49-2.52 2.5 2.5 0 0 1 2.5 2.49c.17 28.67 2.49 60.37 6.09 63.78 5.65 5.35 31.58 12 49.54 12.71a2.5 2.5 0 0 1 -.1 5z"/><path d="m379.67 402.5a2.5 2.5 0 0 1 -2.5-2.5c.11-61.71-15.61-161.71-15.77-162.71a2.5 2.5 0 1 1 4.94-.78c.16 1 15.94 101.39 15.83 163.5a2.49 2.49 0 0 1 -2.5 2.49z"/><path d="m375.9 422.53c-4.61 0-3.92 7.14.67 7.14s3.92-7.14-.67-7.14z"/><path d="m358.74 216.51c-4.62 0-3.93 7.14.66 7.14s3.93-7.14-.66-7.14z"/><path d="m335.56 159.68c-4.61 0-3.93 7.14.66 7.14s3.93-7.14-.66-7.14z"/><path d="m207.31 164.83c-4.61 0-3.93 7.14.66 7.14s3.93-7.14-.66-7.14z"/><path d="m225.85 144.74c-4.61 0-3.93 7.14.66 7.14s3.93-7.14-.66-7.14z"/><path d="m230.49 104.05c-4.61 0-3.93 7.14.66 7.14s3.93-7.14-.66-7.14z"/><path d="m313.41 41.21c-4.61 0-3.93 7.15.66 7.15s3.93-7.15-.66-7.15z"/><path d="m227.91 55.12c-4.61 0-3.93 7.14.66 7.14s3.93-7.14-.66-7.14z"/><path d="m157.52 306.47c-4.61 0-3.93 7.14.66 7.14s3.93-7.14-.66-7.14z"/><path d="m188.42 165.69c-4.61 0-3.92 7.14.67 7.14s3.91-7.14-.67-7.14z"/><path d="m154.77 364.84c-4.61 0-3.92 7.14.67 7.14s3.92-7.14-.67-7.14z"/><path d="m231 464.42c-4.61 0-3.93 7.14.67 7.14s3.92-7.14-.67-7.14z"/></g></g></svg>