<svg height="512" viewBox="0 0 512 512" width="512" xmlns="http://www.w3.org/2000/svg"><g id="Woman_Support_Woman" data-name="Woman Support Woman"><path d="m339.39 239.92c-.3-2.29-.31-4.64-3-8-7.2-9.13-24.4-6.74-31.74 2.57a33.63 33.63 0 0 0 -5.94 13.31c-2.42 11.25-1.61 22.85 4 32.66 4.69 8.36 13 13.37 23 12.16 23.89-2.9 22.62-35.41 12.05-47.76 1.24-2.01 1.79-3.66 1.63-4.94zm.43 32.29c-.51 5.27-2.2 9.39-5.23 12.27a11.4 11.4 0 0 1 -6.62 2.94c-6.92.88-12.17-3-15.5-9.2a31.78 31.78 0 0 1 -3.32-9c-.54-2.87-.92-5.21-1.08-7.08-.84-9.6.84-24.37 8.87-29.67a8.42 8.42 0 0 1 3.51-1.42 8.91 8.91 0 0 1 10.37 7.37 5.11 5.11 0 0 1 -1.44 4.56 7.44 7.44 0 0 1 -4.08 2.11 7.73 7.73 0 0 1 -3.81-.75 2.3 2.3 0 0 0 -1.69-.43c-.64.07-.91.55-.81 1.43a2.52 2.52 0 0 0 .34 1 6.66 6.66 0 0 0 4.1 2.92 11.88 11.88 0 0 0 5.23.54 15.08 15.08 0 0 0 5.09-1.61c4.98 6.46 6.74 15.81 6.07 24.02z" fill="#efbd42"/><path d="m228.69 228.36c-7.73-5.71-18.76.09-24.81 7.55.36-1.91.71-3.82 1.07-5.72a6.07 6.07 0 0 0 -1.14-4.92c-1.3-1.59-3.52-2.65-6.66-3.28a1.77 1.77 0 0 0 -1.88 2.73c.75 1.55-1.18 8.51-6.19 31.82-2.93 13.6-2.45 10-3.35 14.32-1 5-1.23 8.91-.49 11.68a7 7 0 0 0 2.69 4.15c2.39 1.74 6.16 2.08 9 1.34a1.64 1.64 0 0 0 .58-3c-.6-.45-.94-1.66-1.06-3.69-.5-5.05 1.43-12.85 2-15.93 12.69 2 26-1.76 32.55-13.12 3.31-5.79 4.12-13.37 1.54-19.23a12.69 12.69 0 0 0 -3.85-4.7zm-29.47 32.88c.71-3.64 1.43-7.72 2.21-12.14a28.73 28.73 0 0 1 10-15.37 20.06 20.06 0 0 1 8.38-3.9 7.58 7.58 0 0 1 3.38 3.68c4.86 10.49-4.14 28.02-23.97 27.73z" fill="#efbd42"/><path d="m279.7 230.77c-8.41-4.63-18.54 2.59-23.52 10.8q.13-2.91.29-5.81a6 6 0 0 0 -1.78-4.72c-1.5-1.41-3.83-2.16-7-2.36a1.77 1.77 0 0 0 -1.49 3c1 1.45-.07 9.07-1.86 32.36-1.08 13.84-1.09 10.21-1.4 14.64-.35 5.12 0 9 1.07 11.64a7.09 7.09 0 0 0 3.22 3.75c2.59 1.41 6.36 1.23 9.06.12a1.64 1.64 0 0 0 .17-3.06c-.64-.36-1.14-1.52-1.54-3.51-1.17-4.95-.3-13.05-.17-16.05 12.82.26 25.48-5.25 30.43-17.37 2.45-6 2.36-13.69-1-19.26a12.8 12.8 0 0 0 -4.48-4.17zm-3.26 19.54c-2.74 9.81-11.52 15.78-21.48 17 .21-3.69.38-7.83.56-12.32a28.8 28.8 0 0 1 7.86-16.58 19.92 19.92 0 0 1 7.77-5 7.54 7.54 0 0 1 3.85 3.19c2.45 3.9 2.7 9.29 1.44 13.71z" fill="#efbd42"/><path d="m408.94 265.6-.79.31c-5 1.64-23.47-6.05-28.47-8.65a34.33 34.33 0 0 0 11.45-8c10.13-11.15 8.32-26.1.47-33.17-5.41-4.61-12.79-3.6-17.85 1.47a28.44 28.44 0 0 0 -7.35 12.84q-.69-2.82-1.4-5.64c-1.07-4.27-4.52-5.66-10.42-4.34a1.78 1.78 0 0 0 -1.44 1.43 1.68 1.68 0 0 0 .83 1.84c.52.44 1.11 2.13 1.77 5.11s6.36 30.28 7.55 36.83c.58 4.38 2.16 11.42 5 15a7.38 7.38 0 0 0 7.95 2.61 12.84 12.84 0 0 0 5-2.35 1.64 1.64 0 0 0 -.7-3c-.72-.18-1.53-1.14-2.47-2.94-1.71-3.15-2.79-7.52-3.59-10.75 7.76 4.3 22.24 13.66 30.58 11.05a8.89 8.89 0 0 0 4.62-3c1.95-2.67 1.72-4.47 1.46-5.26-.4-1.31-1.14-1.75-2.2-1.39zm-36.5-10.2-2.91-12a28.65 28.65 0 0 1 3-18.13 20.12 20.12 0 0 1 6.12-7c6.24.55 9.85 8.35 9.87 14.72.04 10.23-6.79 18.44-16.08 22.41z" fill="#efbd42"/><path d="m106.92 196.34c7 3.53 6.79 10.56 3.61 17.74a2.9 2.9 0 0 0 1.39 3.85c3.48 1.51 6.69.6 8.2-3.05a16.3 16.3 0 0 0 -2.21-15.45 23.86 23.86 0 0 0 -8.92-7.3 27 27 0 0 0 -15.28-2.75 15.79 15.79 0 0 0 -12.54 8.43c-8.78 16 19.45 33.89 14.51 45-3.43 7.63-17.63 7.53-21-.62-1.9-4.28-1.29-9.37.9-13.57a3 3 0 0 0 -1.31-4c-3.61-1.9-7-1.42-8.9 2-2.27 4.12-2.31 10.58 1.83 16.1 6.41 8.66 18.46 13 27.84 11.71 6.17-.8 10.28-4 12.45-9.21a11.77 11.77 0 0 0 .64-8c-3.62-12.84-22.66-23.84-16.18-36.38a10.2 10.2 0 0 1 6.16-5.12 11.64 11.64 0 0 1 8.81.62z" fill="#efbd42"/><path d="m448.5 181a1.7 1.7 0 0 0 -.91 2.33c1.71 3.23-.75 4.74-2.46 5.61-3.72 1.7-16.27 6.64-25.67 9.75-5 1.65-9.62 5-6.38 9.22a5.23 5.23 0 0 0 5.32 1.21 1.68 1.68 0 0 0 1.12-2.22c-1.41-3.42 1.26-4.69 2.92-5.4.53-.23 2.64-1 6.32-2.24 1.3 1.36 2.52 4.44 6.72 14 1.61 3.67 9.22 21.25 10.69 24.89 1.54 4.31 4.4 10.7 7.93 13.63a7.52 7.52 0 0 0 8.42.88 13 13 0 0 0 4.5-3.37 1.65 1.65 0 0 0 -1.31-2.82c-.76 0-1.8-.77-3-2.31-4.46-5.46-6.77-12.74-23-46.46a6.92 6.92 0 0 0 -1.52-2.05c7.49-2.91 11.43-4.7 11.86-4.91 3.15-1.65 6.56-4.7 4.85-7.81a5.91 5.91 0 0 0 -1-1.3 5.29 5.29 0 0 0 -5.4-.63z" fill="#efbd42"/><path d="m163.65 274.27c.12-5.69 1.26-8.27 12.4-50.34 1.08-4.27-1.29-7.13-7.14-8.78a1.8 1.8 0 0 0 -2.14 2.57c.63 1.35-1 6-7.17 26.64a53.78 53.78 0 0 1 -8.35 16.83 25.17 25.17 0 0 1 -6.51 6.19c-3.21 2.12-6.38 2.67-9.38 1.69-2.53-.83-3.55-3.15-3.06-7 .55-4.76 1-5.11 15.44-46.59 1.4-4.17-.76-7.22-6.49-9.32a1.94 1.94 0 0 0 -2.05.4 1.72 1.72 0 0 0 -.3 2c.26.67-.17 2.46-1.22 5.28-.1.25-10.51 27.63-13.59 35-5.07 11.51-4.48 19.83 7.51 23.82 10 3.3 16.55-1.17 21.51-7.12-1.2 4.82-1.9 10 1.61 13.36 2.31 2 6.07 2.53 9 2.05a1.67 1.67 0 0 0 .76-3c-.59-.46-.9-1.71-.83-3.68z" fill="#efbd42"/><path d="m415 185.33h-65.28v-61.65h65.28l-18.39 30.32z" fill="#cc3745"/><path d="m114.55 169.62h65.26v-61.62h-65.26q9.18 15.18 18.38 30.36-9.2 15.64-18.38 31.26z" fill="#cc3745"/><path d="m374.22 179c-74.39-42.71-148.78 42.71-223.17 0v-66.69c74.39 42.71 148.78-42.71 223.17 0z" fill="#e73f46"/><path d="m151.05 112.31 28.76-4.31-23.9 7.15s-5.66 1.06-4.86-2.84z" fill="#e73f46"/><path d="m374.22 179-24.5 6.29 17.93-9.78s5.93-.26 6.57 3.49z" fill="#e73f46"/><g fill="#efbd42"><path d="m310.5 141.71q1.22 6.78 2.43 13.59a4.72 4.72 0 0 0 1.76 3 7.78 7.78 0 0 0 4.64 1.3c1 0 1.32-1.21.45-1.94a7.17 7.17 0 0 1 -.83-2.45c-2.59-15.05-4.06-23.48-4.35-25.47a45.36 45.36 0 0 0 -1.47-7.26c-.74-2.5-1.89-4.19-3.49-5a6 6 0 0 0 -3-.42c-1.25.1-2.21.83-2.21 1.79v.25c-.71 10.41-5.31 19.58-8.5 29.26-1.46 4.27-3.61 13.29.86 12.7a3.46 3.46 0 0 0 1.5-.62 1.44 1.44 0 0 0 .77-1.27 24.24 24.24 0 0 1 -.38-4.11 48.37 48.37 0 0 1 2.3-12.56c3.21-.38 6.37-.64 9.52-.79zm-3.86-19.37c1.09 3.06 1.25 4.66 3.48 17.08-2.79.14-5.59.37-8.38.67 1.68-5.49 4.03-12.46 4.9-17.75z"/><path d="m285.48 159c-.35-.16-.76-.82-1.18-2a34 34 0 0 1 -1.7-7.73c-2.47-16.84-2.35-15.5-3.67-24.83a3.64 3.64 0 0 0 -1.7-2.62 6.8 6.8 0 0 0 -4.41-.39 1.38 1.38 0 0 0 -1.25 1.45c.22 11.46-3.56 21.06-5.3 28.63-.45-3.18-3.38-22.59-3.52-23.47a3.52 3.52 0 0 0 -1.66-2.62 7 7 0 0 0 -4.42-.35 1.38 1.38 0 0 0 -1.24 1.47c.28 15.12-6.56 27.19-6.56 37.86 0 2.68.74 4.22 2.17 4.61 1.23.18 2.85-.54 2.85-1.65s-2.52-4.46 1.18-20.95c1.31-6.37 2.11-10.48 2.34-12.36q2.54 17.28 2.88 20.1c.52 5.79 1.95 13.19 7.42 11.27a2.72 2.72 0 0 0 .47-.08c1.25-.28 1.89-.94 1.89-2a1 1 0 0 0 -.29-.73c-2.22-9.41 2.56-22.11 3.78-32.24q2.54 17.3 2.87 20.13c.77 8.51 3 12.35 6.66 11.62a6.23 6.23 0 0 0 2.71-1.22 1.13 1.13 0 0 0 -.32-1.9z"/><path d="m351.66 123.1c-1.63-.64-2.46-.48-2.46.41a1.67 1.67 0 0 0 .58 1.21c.91.94 1.68 4 1.91 5.27 2.1 10.32 1.76 18 1.76 32.53-3-6.21-3.32-8.84-14-38.93a8.83 8.83 0 0 0 -2.43-3.51c-2.41-1.94-4.94-2.34-5.12-2.19-1.88-.17.29 2.67.29 10.72 0 11.94-3.7 23 0 30.29a4.49 4.49 0 0 0 2.24 2.16c1.12.36 2.49.43 2.5-.74 0-1.45-2.75-3.7-2.75-16.54 0-6.62.64-8.59.35-17.72q4.19 11.81 8.37 24a46.18 46.18 0 0 0 4.93 11.71 12 12 0 0 0 6.84 5.45c.74.23 1.12 0 1.12-.84v-36.69a7.07 7.07 0 0 0 -1.34-4.31 6.82 6.82 0 0 0 -2.79-2.28z"/><path d="m239.8 140.38a8.41 8.41 0 0 0 -1-5.3c-3.4-6-14.43-4.24-19.35 1.74a23 23 0 0 0 -4.16 8.59 37.38 37.38 0 0 0 -1.25 9.27c0 10 4.35 21.37 13.85 20.11 12.45-1.67 15.25-23.19 10.39-31.2a6.57 6.57 0 0 0 1.52-3.21zm-2.8 21.19c-.92 4.33-3.1 9.24-7.51 9.87-3.72.52-6.27-2-7.77-6.11a23 23 0 0 1 -1.38-5.85 38.51 38.51 0 0 1 1.44-15.9c1.25-3.86 3-6.51 5.28-8a5.49 5.49 0 0 1 2.23-.94 4.67 4.67 0 1 1 1.8 9.17 3.91 3.91 0 0 1 -2.18-.49 1.18 1.18 0 0 0 -1-.28c-.38.05-.57.36-.57.94 0 2.09 3.16 3.24 5.27 2.91a9.12 9.12 0 0 0 3.07-1c2.47 4.36 2.32 10.76 1.32 15.68z"/><path d="m204.56 133.19a3 3 0 0 0 -2.21 0 1 1 0 0 0 -.64 1 28.74 28.74 0 0 1 .64 10.62c-1.12 8.47-3.5 16.65-4.15 21.58-1.73-12.36-2.69-19.43-2.88-21.08-.55-6.92-2-11.25-4.58-13.14a7.38 7.38 0 0 0 -2.81-1.12c-2-.43-2.25 0-2.4 1a1.54 1.54 0 0 0 .29.87 29 29 0 0 1 .32 10c-1.24 8.66-3.43 15.53-4.09 20.43-1.73-12.67-2.69-19.93-2.88-21.62-.67-8.89-2.88-13.87-6.62-15.39a5.31 5.31 0 0 0 -2.75-.48.62.62 0 0 0 -.42.68 2.25 2.25 0 0 0 .74 1.48 7.7 7.7 0 0 1 1.22 2.7c1.15 3.83 1.3 6.34 2.71 16.43 1.77 12.73 2.31 16.47 2.69 19.35.35 2.66 2.42 5.22 6.23 6.26a.8.8 0 0 0 1.06-.88c-.19-10.35 2.5-16.2 5.31-26.26 1.89 13.44 3.07 21.71 3.55 24.89.34 2.59 2.39 4.76 6.23 5.1a1 1 0 0 0 1.06-1.06c-.28-15.13 6.55-25.09 6.55-36.14 0-2.73-.73-4.41-2.17-5.22z"/><path d="m310.07 412.06c-5.23-1.12-6.29-6.52-6.36-11.83.26-25.61 13.7-52.37 14.76-84.69a6.71 6.71 0 0 1 6.68-7.66 11.16 11.16 0 0 1 6.6 1.91c3.89 2.88 5.85 8.22 6.94 12.93 2.12 9.17.26 1.71 10.36 67.64a24.23 24.23 0 0 0 .78 3.16c2.68 2.9 1.63 8.33-2.35 9.58a15.27 15.27 0 0 1 -4.54.77c-5.77 0-9.14-4.41-9.9-9.81q-1.91-12.44-3.81-25.2c-3 .44-6 .85-8.93 1.24-1.86 10.37-2.75 18.75-2.65 24.95a75.28 75.28 0 0 0 .72 8.84 2.6 2.6 0 0 1 0 .4 7 7 0 0 1 -2.21 5.4 7.87 7.87 0 0 1 -4.1 2.29 9.14 9.14 0 0 1 -1.99.08zm15.46-68.41c-1.1 5.7-1.43 7-2.86 14.16 1.62-.2 3.24-.41 4.85-.63q-.99-6.73-1.99-13.53z"/><path d="m263.89 414c-8.2 0-12.46-10.49-13.81-34-.19-2.55-.76-8.94-1.67-19-5.55 36.21-1.71 42.5-1.71 46.53 0 4.81-5 7.95-9.89 5-4.24-3.33-4.88-9.67-4.85-15.05.17-26.56 11-48.69 10.69-85.83 0-4.62 2.89-6.24 5.34-6.25a12.8 12.8 0 0 1 9.43 4.42 17 17 0 0 1 3.35 9c.21 2 2.66 27.79 3.21 33.41 3.35-19 3.78-30.12 3.6-40.59 0-4.2 2.42-6.27 5.32-6.27a12.92 12.92 0 0 1 9.43 4.37 16.8 16.8 0 0 1 3.47 8.86c2.4 24.41 3.77 35.5 5.91 56.43.67 6.59 1.34 14.66 3.1 21.4a17.68 17.68 0 0 0 1.06 3.38 6.87 6.87 0 0 1 .54 9.45 10.34 10.34 0 0 1 -7.23 3.16c-7.94 0-12.15-10.15-13.64-32.9-.21-2.51-.82-8.76-1.8-18.67-.92 6.37-1.7 13.22-2.38 20.9a97.59 97.59 0 0 0 .48 22.17 7.43 7.43 0 0 1 .59 2.9c0 5-3.4 7.47-7.16 7.15-.48.03-.91.03-1.38.03z"/><path d="m369.33 395a6.78 6.78 0 0 1 -6.26-3.92c-6.45-11.88-1.11-36.87-1.52-59.41-.19-10.54-2-16.68-2-18.42-.1-3.54 2.09-5.58 5.22-5.6a15.13 15.13 0 0 1 14.35 10c5.12 14.63 10.14 28.1 14.94 40.07 0-10.49.14-22.09-2.73-35.15a22.47 22.47 0 0 0 -1.73-5.24 5.23 5.23 0 0 1 -2.23-4.3c0-.93.3-5.63 7.15-5.71a10 10 0 0 1 6.66 2.44c2.11 1.78 3.22 4.54 3.29 8.22v56.72a6.81 6.81 0 0 1 -3.1 5.76 13.14 13.14 0 0 1 -7.79 2.84c-8.08 0-12.42-10.92-14.89-18.72q-3.22-8.59-6.55-18a197.2 197.2 0 0 0 .47 24.05 42.7 42.7 0 0 0 3.79 15.26 8.69 8.69 0 0 1 .3 1.88 7.28 7.28 0 0 1 -4.87 6.72 10.53 10.53 0 0 1 -1.83.51z"/><path d="m191.71 406.81c-11-11.33-14-33-13.75-48.79a109 109 0 0 1 2.38-20.28 58.51 58.51 0 0 1 7.18-18.86c7.87-12.14 22-13.62 29.73-6.42 6 5.54 8.26 13.86 7.93 21.52-.14 3.23 0 5.13-2.16 9.33 3.18 10.18 3.42 23.13 2.43 33.77-1.33 14.54-6.47 35.47-21 35.47a17.66 17.66 0 0 1 -12.74-5.74zm13.87-84.81s-.42 0-1.41.73c-1.95 1.46-4.81 5.16-7.14 14.33a105.62 105.62 0 0 0 -2.95 23.57c0 2.41 0 5.52.22 10.07.32 7.69 3.37 26.91 11 28.21a2.76 2.76 0 0 0 2.77-1c6.94-7.56 8-33.37 4.82-46.68a11.1 11.1 0 0 1 -9.22-2.81c-6.51-5.23-6-14.83-.18-14.67a5.16 5.16 0 0 1 3.9 2.22 4.35 4.35 0 0 0 1 .76 2.59 2.59 0 0 0 1.19-.9c2.54-3 .75-13.74-4-13.81-.01-4.56 0-4.61 0-.02z"/><path d="m156.35 399.73a16.93 16.93 0 0 1 -11.56-14.73c-.24-2.36-1.8-18.77-2.7-28-3.39 13.4-3.88 20.87-3.87 28.4-.06 4-3.47 5.81-6.44 4.46-6.7-3.06-10.48-8.69-11.09-14.31-.88-8.26-3.08-26.37-5-40.89-.41-3.24-1.37-13.41-3.47-17.12a5.25 5.25 0 0 1 -.2-8.62 11.4 11.4 0 0 1 6-1.6c10.82.06 12.89 14.74 13.49 25.53.15 1.58.78 7.42 1.51 14.24 1.17-5.86 2.78-15.35 2.88-21.48a53.13 53.13 0 0 0 -.63-9.26 5.73 5.73 0 0 1 -.53-3.06c.49-3.52 2.28-5.73 7-5.73a11.2 11.2 0 0 1 6.34 1.69c6.68 4.58 7.76 18.81 8.11 27 .13 1.77.61 7.23 1.39 16.15 1-5.09 1.86-10.85 2.67-17.52a70.32 70.32 0 0 0 -.42-19.6 5.75 5.75 0 0 1 2.78-6.53 6.81 6.81 0 0 1 6.44-.08 2.25 2.25 0 0 1 .41.25c3.23 2.25 4.74 6.66 4.61 13.46-.44 22.08-11 44-11.53 69.11v3.36c-.07 3.97-3.3 5.9-6.19 4.88z"/></g><path d="m332.1 365q2.14 14.47 4.32 28.61a8.7 8.7 0 0 0 2.84 5.68c1.72 1.36 4.1 1.54 7.2.58.89-.28 1.37-1.1 1.44-2.44a2.27 2.27 0 0 0 -.83-1.8c-.46-.6-.89-2.2-1.38-4.66-10.28-67.11-8.16-58.09-10.32-67.45-1.24-5.34-3.09-9-5.59-10.92a7.66 7.66 0 0 0 -4.61-1.29 3.3 3.3 0 0 0 -3.35 3.55l.06.57c-1 31.84-14.52 60.84-14.76 84.77.07 5.1 1.17 7.93 3.35 8.48a4.3 4.3 0 0 0 1 0 4.55 4.55 0 0 0 2.34-1.38 3.61 3.61 0 0 0 1.17-2.89 76.94 76.94 0 0 1 -.75-9.25c-.11-6.91.95-16.34 3.15-28.08q7.39-.96 14.72-2.08zm-6.77-42.06c1.91 7.22 2.11 10.54 6.08 37.18q-6.5.9-13 1.65c2.4-12.11 5.79-27.4 6.92-38.85z" fill="#e73f46"/><path d="m293.43 402.21c-.56-.46-1.24-2.1-1.92-4.94a120.92 120.92 0 0 1 -2.86-18.59c-5-47.21-4.85-45.65-6.25-59.76a13.31 13.31 0 0 0 -2.67-7 9.53 9.53 0 0 0 -6.82-3.16c-4.63 0 1.73 6.59-6.62 49.71-1.78 9.36-2.93 15.45-3.38 18.27-.2-2.22-5.52-57.44-5.54-57.65a13.57 13.57 0 0 0 -2.57-7.09 9.44 9.44 0 0 0 -6.81-3.19c-1.28 0-1.92.91-1.93 2.8.33 37.31-10.51 59.85-10.68 85.89 0 6.33 1.09 10.41 3.37 12.21 2.16 1.3 4.53.22 4.54-2.18a97.46 97.46 0 0 1 -1.3-16c.09-18.28 5.68-44.19 7.08-61q3.85 42.39 4.42 49.33c1.18 20.59 4.69 30.92 10.5 30.79a6.48 6.48 0 0 0 1.27-.1 2.5 2.5 0 0 0 .77.05c2-.05 3-1.31 3-3.74a3.74 3.74 0 0 0 -.46-1.88c-3.58-23.22 3.81-50.85 5.6-74.53 2.79 28.1 4.41 44.29 4.79 48.88 1.34 20.38 4.93 30.31 10.76 29.68a7.05 7.05 0 0 0 4.29-2.12 2.69 2.69 0 0 0 .63-1.94 3.23 3.23 0 0 0 -1.21-2.74z" fill="#e73f46"/><path d="m394.55 310.73c-2.52 0-3.79.79-3.78 2.28a1.81 1.81 0 0 0 .9 1.61c1.44 1 2.65 5.52 3 7.22 3.38 15.47 2.78 29.11 2.85 50.21a18.54 18.54 0 0 1 -1.5-2.12 65.24 65.24 0 0 1 -4.61-9.66c-5-12.41-10.2-26.32-15.5-41.49a11.71 11.71 0 0 0 -3.83-5.29 12.74 12.74 0 0 0 -7.44-2.4.78.78 0 0 0 -.49.13c-2.89.26.54 5.06.83 20.42.29 15.94-1.94 30.61-1.72 41.75.14 7.48 1.07 12.92 2.84 16.14a3.43 3.43 0 0 0 3.43 2.08c2-.44 3.74-1.8 3.71-3.78a3.7 3.7 0 0 0 -.17-.89 46.49 46.49 0 0 1 -3.91-16c-1.48-18.28.25-24.84-.66-45.2 4.54 13.5 9 26.13 13.37 37.74 2.31 7.33 4.8 12.17 7.52 14.65 2.89 2.85 6.7 1.95 10-.46a3.44 3.44 0 0 0 1.61-2.97q0-28.33.05-56.66-.07-4-2.07-5.66a6.59 6.59 0 0 0 -4.43-1.65z" fill="#e73f46"/><path d="m221.68 336.22c.13-3.48.52-7-1.35-12.75a19.9 19.9 0 0 0 -5.39-8.51c-6.22-5.77-17.88-4.53-24.51 5.69a55 55 0 0 0 -6.75 17.78 104.94 104.94 0 0 0 -2.3 19.65c-.28 14.73 2.49 35.76 12.79 46.37a14.62 14.62 0 0 0 8 4.47c15.82 3 20.24-25.21 20.4-41.37q.15-14.87-3.23-24.58a15.17 15.17 0 0 0 2.34-6.75zm-4.88 47.72c-1.25 7.58-3.29 13-6.21 16.22a6.17 6.17 0 0 1 -5.87 2.09c-5.84-1-9.74-8.13-11.92-17.86a80.63 80.63 0 0 1 -1.91-13.56c-.48-11.54-.25-22.23 2.84-34.63q3.11-12.26 8.43-16.25a5.92 5.92 0 0 1 3.48-1.38c6.18.08 8.56 7.79 8.49 13.18-.07 5.72-3.35 8.4-6 8.39a6 6 0 0 1 -3.35-2 1.89 1.89 0 0 0 -1.47-1c-.6 0-.9.6-.93 1.9-.05 4.43 4.54 8.64 8.08 8.86a9 9 0 0 0 4.8-1c3.49 11.02 3.3 25.66 1.54 37.04z" fill="#e73f46"/><path d="m167.54 311.66a3.46 3.46 0 0 0 -3.41.09 2.18 2.18 0 0 0 -1 2 74.21 74.21 0 0 1 .56 21.48c-.89 7.32-1.91 14-3.16 20-2.24 11.5-3.61 18.92-4.08 22.68-2.16-24.83-3.38-38.34-3.62-41.58-.58-13.41-2.74-21.52-6.58-24.26-2.17-1.43-5.8-1.38-7.09-.58-.5.28-.81 1-1 2.24a2.49 2.49 0 0 0 .42 1.46 61.09 61.09 0 0 1 .21 18c-2.17 16.15-5.62 28.18-6.75 36.86-2.3-22.27-3.64-34.17-3.89-37-.85-15-4.18-22.31-10-22.32a8.16 8.16 0 0 0 -4.24 1c-.86.66-1 2.17.49 3.15.54.32 1.18 1.5 1.86 3.51a66.2 66.2 0 0 1 2.48 13.22c1.07 8.4 3.85 30.09 5.28 43.54.57 5.21 4.34 9.39 9.13 11.57.9.42 1.58-.15 1.59-1.35 0-18.49 4.2-28.72 8.82-47.8 2.46 24.79 3.95 41 4.57 47.11a13.51 13.51 0 0 0 9.3 11.82c.92.33 1.62-.4 1.65-1.74.17-30.65 11.08-49 11.55-72.52.16-5.51-.9-9.05-3.09-10.58z" fill="#e73f46"/><path d="m98.33 346.65-51.12-23.56 17.09-14.23-33.3-18.51 29.28-19.46 33.4 37-18.68 13.49z" fill="#efbd42"/><path d="m413.67 346.65 51.12-23.56-17.09-14.23 33.3-18.51-29.28-19.46-33.4 37 18.73 13.48z" fill="#efbd42"/><circle cx="95.6" cy="142.4" fill="#efbd42" r="19.72"/><circle cx="109.92" cy="286.78" fill="#efbd42" r="11.76"/><circle cx="429.97" cy="360.33" fill="#efbd42" r="11.76"/><circle cx="294.43" cy="194.79" fill="#efbd42" r="14.36"/><circle cx="91.61" cy="381.41" fill="#efbd42" r="21.08"/><circle cx="436.06" cy="146.43" fill="#efbd42" r="21.08"/></g></svg>