<svg height="512" viewBox="0 0 512 512" width="512" xmlns="http://www.w3.org/2000/svg" xmlns:xlink="http://www.w3.org/1999/xlink"><clipPath id="clip-path"><ellipse cx="388.55" cy="90.14" rx="43.83" ry="56.68" transform="matrix(.133 -.991 .991 .133 247.56 463.26)"/></clipPath><g id="Parfume"><path d="m37.55 419.15 5.92-15.58a2.35 2.35 0 0 1 4.44.1l5.16 15.73a2.38 2.38 0 0 0 1.5 1.5l10.78 3.57a2.36 2.36 0 0 1 .05 4.46l-11.05 3.95a2.33 2.33 0 0 0 -1.44 1.48l-5.91 17.9a2.36 2.36 0 0 1 -4.5-.09l-5.16-17.76a2.33 2.33 0 0 0 -1.46-1.55l-10.91-4a2.35 2.35 0 0 1 0-4.43l11.15-3.92a2.31 2.31 0 0 0 1.43-1.36z" fill="#ffb833"/><path d="m459.18 183.5 5.92-15.57a2.35 2.35 0 0 1 4.44.1l5.16 15.72a2.34 2.34 0 0 0 1.5 1.5l10.8 3.58a2.36 2.36 0 0 1 0 4.46l-11 3.94a2.37 2.37 0 0 0 -1.45 1.48l-5.92 17.9a2.36 2.36 0 0 1 -4.5-.08l-5.13-17.76a2.37 2.37 0 0 0 -1.46-1.56l-10.91-4a2.36 2.36 0 0 1 0-4.44l11.15-3.91a2.35 2.35 0 0 0 1.4-1.36z" fill="#ffb833"/><path d="m97.17 99.51 7.35-19.36a2.93 2.93 0 0 1 5.52.13l6.41 19.54a3 3 0 0 0 1.86 1.87l13.4 4.44a2.93 2.93 0 0 1 .06 5.54l-13.77 4.9a3 3 0 0 0 -1.8 1.84l-7.36 22.24a2.93 2.93 0 0 1 -5.59-.1l-6.41-22.07a2.93 2.93 0 0 0 -1.81-1.93l-13.56-4.94a2.93 2.93 0 0 1 0-5.52l13.86-4.86a2.92 2.92 0 0 0 1.84-1.72z" fill="#ffb833"/><path d="m271.59 75.48h82.17v8.98h-82.17z" fill="#ffb833" transform="matrix(.991 .133 -.133 .991 13.4 -40.84)"/><g clip-path="url(#clip-path)"><ellipse cx="388.55" cy="90.14" fill="#ffb833" rx="43.83" ry="56.68" transform="matrix(.133 -.991 .991 .133 247.56 463.26)"/><g fill="#ffdb99"><path d="m407.92 149.94a.51.51 0 0 1 -.31-.11c-46.22-36.53-79.09-114.37-79.42-115.15a.5.5 0 1 1 .92-.38c.33.78 33.11 78.38 79.12 114.74a.51.51 0 0 1 -.31.9z"/><path d="m435.85 145.75a.51.51 0 0 1 -.31-.11c-46.21-36.53-79.09-114.37-79.42-115.15a.5.5 0 0 1 .93-.39c.32.78 33.1 78.39 79.11 114.75a.51.51 0 0 1 .09.71.53.53 0 0 1 -.4.19z"/><path d="m457.47 133.43a.53.53 0 0 1 -.31-.11c-46.16-36.53-79.09-114.32-79.42-115.15a.51.51 0 0 1 .27-.65.5.5 0 0 1 .66.27c.32.78 33.1 78.38 79.11 114.75a.5.5 0 0 1 .09.7.53.53 0 0 1 -.4.19z"/><path d="m343.84 148.62a.5.5 0 0 1 -.19-1c.78-.33 78.38-33.11 114.75-79.12a.5.5 0 1 1 .78.62c-36.53 46.26-114.36 79.13-115.18 79.46a.48.48 0 0 1 -.16.04z"/><path d="m339.65 120.69a.51.51 0 0 1 -.46-.31.5.5 0 0 1 .27-.66c.78-.32 78.38-33.1 114.75-79.11a.49.49 0 0 1 .7-.08.5.5 0 0 1 .08.7c-36.53 46.21-114.36 79.09-115.15 79.42a.58.58 0 0 1 -.19.04z"/><path d="m327.33 99.07a.51.51 0 0 1 -.46-.31.52.52 0 0 1 .27-.66c.78-.32 78.38-33.1 114.75-79.11a.49.49 0 0 1 .7-.08.49.49 0 0 1 .08.7c-36.52 46.21-114.36 79.09-115.14 79.39a.71.71 0 0 1 -.2.07z"/></g></g><rect fill="#ff8d93" height="35.5" rx="13.18" transform="matrix(.991 .133 -.133 .991 62.21 -24.86)" width="206.98" x="113.83" y="435.87"/><rect fill="#ffdb99" height="76.32" rx="3.46" transform="matrix(.991 .133 -.133 .991 14.4 -34.81)" width="53.17" x="241.38" y="52.28"/><rect fill="#ffb833" height="83.92" rx="20" transform="matrix(.991 .133 -.133 .991 20.6 -33.29)" width="92.6" x="213.38" y="95.73"/><path d="m435.88 275.18c12.92 86.59-100.64 194.69-213.88 182.42-117.35-12.72-203.35-151.42-169.29-231.6 27.75-65.33 129.93-79.35 187.5-75.58 75.79 4.95 184.22 47.98 195.67 124.76z" fill="#ff8d93"/><path d="m360.54 272.62c-10.86-33.34-58.36-38.36-96.8-13-15.59 10.31-16.17 9.55-31.74 12.38-2.12.38-43.46 7.31-72.56-18.57-9.59-8.53-10.81-14.35-16.72-21.81-8.13-10.23-22.4-20.09-49-24.23-8.85 7.3-16.32 16.22-20.94 27.08-11.69 27.53-5.59 66.87 16.3 105.3 29.75 52.2 80.25 88.92 131.8 95.84 1.18.15 2.37.3 3.55.43 51.13 5.54 108.26-17.43 149.11-60 21.8-22.7 35.84-48.12 40.23-71.75-24.01 5.42-44.98-6.36-53.23-31.67z" fill="#ff1a26"/><ellipse cx="238.38" cy="296.51" fill="#ffdb99" rx="81.26" ry="111.86" transform="matrix(.133 -.991 .991 .133 -87.18 493.37)"/><ellipse cx="251.82" cy="71.81" fill="#383333" rx="8.31" ry="4.6" transform="matrix(.133 -.991 .991 .133 147.18 311.85)"/><g fill="#fff"><path d="m84.13 219.14a2.5 2.5 0 0 1 -1.75-4.28c.49-.49 50.22-48.52 127-54.24a2.5 2.5 0 1 1 .37 5c-74.89 5.57-123.39 52.38-123.87 52.81a2.51 2.51 0 0 1 -1.75.71z"/><path d="m167.42 420.2a2.5 2.5 0 0 1 -1-.2c-40.87-17.12-71.75-66.24-73-68.32a2.5 2.5 0 1 1 4.25-2.68c.3.49 31.34 49.85 70.72 66.35a2.5 2.5 0 0 1 -1 4.81z"/><path d="m127.43 452a2.49 2.49 0 0 1 -2.38-1.77c-.12-.38-2.81-9.46 2.23-15.7 3.34-4.13 9.07-5.89 17-5.22a2.5 2.5 0 1 1 -.42 5c-6.18-.52-10.45.61-12.69 3.37-3.38 4.16-1.37 11-1.35 11.12a2.5 2.5 0 0 1 -1.67 3.11 2.64 2.64 0 0 1 -.72.09z"/><path d="m404.4 321.28a2.61 2.61 0 0 1 -.9-.17 2.49 2.49 0 0 1 -1.43-3.23c10.32-26.9 6.76-53.21-10.61-78.22a125.34 125.34 0 0 0 -29.68-29.93 2.5 2.5 0 0 1 2.75-4.17 127.6 127.6 0 0 1 30.94 31.12c18.19 26.11 22.09 54.81 11.26 83a2.5 2.5 0 0 1 -2.33 1.6z"/><path d="m223.66 123.79a2.45 2.45 0 0 1 -.71-.11 2.49 2.49 0 0 1 -1.69-3.1c2.8-9.47 12.58-26.45 29.53-23a2.5 2.5 0 1 1 -1 4.9c-6.88-1.41-12.91 1.31-17.92 8.08a42 42 0 0 0 -5.82 11.44 2.51 2.51 0 0 1 -2.39 1.79z"/><path d="m283.61 61.83a1.83 1.83 0 0 1 -.33 0l-20.7-2.83a2.5 2.5 0 0 1 .67-5l20.69 2.78a2.5 2.5 0 0 1 -.33 5z"/><path d="m342.58 78.1a2.5 2.5 0 0 1 -2.05-3.92 62.72 62.72 0 0 1 18.47-16.39c11-6.51 29-12.46 52.32-3.84a2.5 2.5 0 1 1 -1.73 4.69c-41-15.13-64 17-64.9 18.39a2.53 2.53 0 0 1 -2.11 1.07z"/><path d="m422.58 61c-6-.8-6.33 8.57-.38 9.37s6.33-8.54.38-9.37z"/><path d="m342.52 88c-6-.81-6.33 8.57-.38 9.37s6.33-8.57.38-9.37z"/><path d="m289.48 68c-6-.8-6.33 8.58-.38 9.37s6.33-8.59.38-9.37z"/><path d="m224.75 132.69c-6-.8-6.33 8.57-.38 9.37s6.33-8.57.38-9.37z"/><path d="m231.4 159.06c-6-.8-6.33 8.58-.38 9.37s6.33-8.57.38-9.37z"/><path d="m343.09 187.63c-6-.8-6.33 8.57-.38 9.37s6.29-8.57.38-9.37z"/><path d="m70.06 237.32c-6-.8-6.33 8.57-.38 9.37s6.32-8.57.38-9.37z"/><path d="m83.48 324.74c-6-.8-6.33 8.57-.38 9.37s6.33-8.57.38-9.37z"/><path d="m169.52 428c-6-.8-6.33 8.57-.38 9.37s6.33-8.56.38-9.37z"/><path d="m394.52 341.3c-6-.8-6.34 8.57-.39 9.37s6.33-8.57.39-9.37z"/><path d="m276.8 475a2 2 0 0 1 -.34 0l-72.53-9.72a2.5 2.5 0 0 1 .66-5l72.54 9.72a2.5 2.5 0 0 1 -.33 5z"/><path d="m298.44 466.59c-6-.8-6.33 8.57-.38 9.37s6.33-8.57.38-9.37z"/></g><path d="m220.08 61.48h-.08l-113.46-25.86a.5.5 0 0 1 -.38-.59.5.5 0 0 1 .6-.38l113.43 25.84a.5.5 0 0 1 -.11 1z" fill="#383333"/><path d="m227.45 57.06a.52.52 0 0 1 -.29-.09l-32.82-23.28a.51.51 0 0 1 -.12-.7.5.5 0 0 1 .7-.12l32.82 23.28a.5.5 0 0 1 -.29.91z" fill="#383333"/><path d="m180.06 73.17a.51.51 0 0 1 -.5-.49.5.5 0 0 1 .49-.51l40-.86a.5.5 0 0 1 .5.49.49.49 0 0 1 -.49.51z" fill="#383333"/></g></svg>