<?xml version="1.0" encoding="UTF-8"?>
<svg xmlns="http://www.w3.org/2000/svg" viewBox="0 0 512 512" width="512" height="512"><defs><style>.cls-1{fill:#d89071;}.cls-2,.cls-6{fill:#383333;}.cls-10,.cls-11,.cls-12,.cls-17,.cls-3,.cls-5,.cls-8{fill:none;stroke-linecap:round;stroke-linejoin:round;}.cls-17,.cls-3,.cls-5,.cls-8{stroke:#383333;}.cls-3{stroke-width:0.75px;}.cls-4{fill:#d17352;}.cls-10,.cls-12,.cls-13,.cls-5,.cls-6{fill-rule:evenodd;}.cls-7{fill:#fff3e3;}.cls-9{fill:#ffb833;}.cls-10,.cls-11{stroke:#aaeeea;}.cls-10{stroke-width:4px;}.cls-11{stroke-width:8px;}.cls-12{stroke:#fff;}.cls-13{fill:#fff;}.cls-14{fill:#00ccc1;}.cls-15{fill:#aaeeea;}.cls-16{fill:#ff8d93;}.cls-17{stroke-width:3px;}</style></defs><g id="Scientific_Scale" data-name="Scientific Scale"><path class="cls-1" d="M284.78,480c-15-36-17.84-65.24-17.78-84.75.17-57.81,25.65-103.38,2.79-127a36.09,36.09,0,0,0-13.15-8.45h0a131.52,131.52,0,0,0-26.21-9.14c-5.2-2-9.43-4-11.77-6.9-7.39-9-4-32.81-4-32.81s-27.86-10.29-38.6,4c.23,9-1,21.26-8.77,31.34a32,32,0,0,1-8.45,7.76l-.09-.06c-5.56,1.14-11.55,2.63-17.86,4.56-5.94,1.83-9,2.7-12.47,4.31A61.76,61.76,0,0,0,111.09,276c-9.52,10.33-11.45,53,6.63,106a138.61,138.61,0,0,1,3.79,45.27,139.42,139.42,0,0,1-17.74,57.27H278.09C280.81,482.82,283.06,481.27,284.78,480Z"/><path class="cls-2" d="M114.12,172.65S117,209,140.91,222.08s34.43,3.46,49.57,5.15,48.5,5.49,60.51-2.4,29.19-52.44,26.78-82.52Z"/><path class="cls-1" d="M68.8,300.52a42.23,42.23,0,0,1-3.19-10.71c-.61-3.92-.34-5.87-.51-11.71-.28-9.39-1.11-8.69-1-14.29.14-10.49,3.08-15.79.9-17.13-1.94-1.19-5.82,2.06-6.44,2.58a15.15,15.15,0,0,0-5,10.55,21.26,21.26,0,0,0-8.32-10.51c-2.07-1.28-6.22-3.81-9.27-2.06-2,1.14-2.5,3.88-2.65,5.36a6.39,6.39,0,0,0-6.33,6.83s-6.6,1.49-5.18,8.84c0,0-5.33,2.17-3.17,7.69s4.46,13.53,13.09,18.88,7.5,19.89,7.5,19.89S62.76,314.6,68.8,300.52Z"/><path class="cls-3" d="M27.12,280.54l-2.7-4.38s7.59,4.25,9.91,2.19-4.93-7.93-12.57-10.08"/><path class="cls-3" d="M34.56,276.5s5.31.31,5-3.17-12.67-13.9-12.67-13.9"/><path class="cls-3" d="M39.61,273.33a4.58,4.58,0,0,0,4.18-3.09C45.14,267,33.27,252.6,33.27,252.6"/><path class="cls-3" d="M43.06,266.83s5.43,2.39,6.2,0-2-10.8-5.36-15.93"/><path class="cls-4" d="M125.05,155.64c-.83-.81-5.37-5.08-11.87-4.6-1,.07-4.73.34-7.28,2.73-6.61,6.18-4.08,25.71,7.35,30.72,6.38,2.81,13.16,0,15.44-1Q126.88,169.55,125.05,155.64Z"/><path class="cls-4" d="M260,155.64c.84-.81,5.37-5.08,11.87-4.6.95.07,4.73.34,7.28,2.73,6.61,6.18,4.08,25.71-7.34,30.72-6.38,2.81-13.16,0-15.45-1Q258.16,169.55,260,155.64Z"/><path class="cls-3" d="M108.61,162.48l11-.5s-11.21,7-1.83,16"/><path class="cls-3" d="M276,162.48l-11-.5s11.21,7,1.83,16"/><circle class="cls-1" cx="193.01" cy="144.11" r="77.51"/><path class="cls-1" d="M115.5,151.51c6,38.9,28.43,69.82,59,79a66.88,66.88,0,0,0,36.62.56c30.15-8.36,52.73-39,58.25-78-4-42.76-41-74.36-81.37-72.12C151.14,82.92,119.7,112.72,115.5,151.51Z"/><path class="cls-2" d="M146.44,140.89a25.73,25.73,0,0,1,14.73-4.81c3.58-.09,8.43-.21,9.92,2.6a3.93,3.93,0,0,1-.1,4c-1.68,2.25-5.9.21-12.72.15-9-.08-14.83,3.32-15.42,2C142.42,143.89,145.31,141.74,146.44,140.89Z"/><path class="cls-2" d="M238.32,141.5A25.69,25.69,0,0,0,223.5,137c-3.58,0-8.43,0-9.87,2.8a3.89,3.89,0,0,0,.18,3.95c1.72,2.22,5.9.11,12.72-.09,9-.26,14.89,3,15.46,1.73C242.39,144.42,239.47,142.33,238.32,141.5Z"/><path class="cls-5" d="M195,155s6.27,14.53,5.12,17.31-12.48,1.82-12.48,1.82"/><path class="cls-6" d="M166.6,164a6.64,6.64,0,1,1,.58-9.37A6.67,6.67,0,0,1,166.6,164Z"/><path class="cls-6" d="M151.18,154.62c.14-.13,1.44,2.13,3.12,2,1.23-.12,1.55-1.48,3.12-2.67a8,8,0,0,1,4.69-1.5,17.23,17.23,0,0,1-2.68,3.88c-1.52,1.65-2.5,2.71-3.83,2.73C152.91,159.06,151,154.78,151.18,154.62Z"/><path class="cls-6" d="M227.88,163.46a6.65,6.65,0,1,1-.58-9.37A6.67,6.67,0,0,1,227.88,163.46Z"/><path class="cls-6" d="M233.92,154.62c-.15-.13-1.45,2.13-3.12,2-1.24-.12-1.55-1.48-3.12-2.67a8,8,0,0,0-4.69-1.5,16.9,16.9,0,0,0,2.68,3.88c1.52,1.65,2.49,2.71,3.82,2.73C232.18,159.06,234.11,154.78,233.92,154.62Z"/><path class="cls-7" d="M140.84,258.61c-7.11,0-19,1.2-29.08,9-9.17,7.09-13.37,16.88-18,36.3C82,353,82.64,400,82.84,400h0l-3,5.37c7.3,3.08,13.18,3.3,17.92,2.22C126.24,401.07,142.06,340.89,140.84,258.61Z"/><path class="cls-7" d="M237.7,253c23.49,3.91,35.65,13.26,42.37,20.92,13.44,15.3,11.83,31.34,22.05,62.84a255.23,255.23,0,0,0,20.6,46.86A21.88,21.88,0,0,1,295.17,415a121,121,0,0,1-19.83-16C226.81,350.59,234.76,274.32,237.7,253Z"/><path class="cls-7" d="M376.36,328.37c-10.32,15.91-65.25,99.28-95.27,88.7-6.41-2.26-16.44-10.47-17.86-21.06-.41-3.06-.87-10.95,12.54-26.65,13.12-15.36,24.85-22,39.69-32.78a336.54,336.54,0,0,0,35-29.42,68.32,68.32,0,0,1,25.89,21.21Z"/><path class="cls-7" d="M33,298.56c1.75,14.08,13.5,103.32,47.73,109.68,1.13.21,15.63,2.91,22.42-4.9,6-6.88,2.9-18.4-.21-29.45-5.59-19.87-13.31-28.12-22.3-46.4a196.3,196.3,0,0,1-14-38.19A107,107,0,0,1,33,298.56Z"/><ellipse class="cls-4" cx="151.58" cy="176.87" rx="9.96" ry="6.2" transform="translate(-3.94 3.45) rotate(-1.29)"/><ellipse class="cls-4" cx="233.27" cy="176.2" rx="9.96" ry="6.2" transform="translate(-3.9 5.29) rotate(-1.29)"/><path class="cls-8" d="M87.08,339.45s15.85,26.46,13.79,43.54"/><path class="cls-9" d="M277.06,283.35c-2.4-26.78-29.35-31.42-42.4-34.68s-15.79-12.18-15.79-12.18c-22.14,6.18-51.49,2.83-51.49,2.83s-.14,7-9.79,11.59-35.79,8.75-42.09,16c-17.72,20.42,11.45,79.74,0,154.31a205.06,205.06,0,0,1-20.27,62.12l195.6.85C254.21,406.05,279.46,310.05,277.06,283.35Z"/><path class="cls-7" d="M174.49,313.6c-12.17-30.9-16.9-62.7-16.9-62.7a90.27,90.27,0,0,0-38.72,12.36,35.76,35.76,0,0,0-3.64,2.33c-15,11.44-8.38,42.21-4.85,73.76,2.88,25.8,7.08,66-2.82,106A189.36,189.36,0,0,1,93.31,484.2h80.77C177.75,433.56,183.39,336.2,174.49,313.6Z"/><path class="cls-7" d="M296.86,482.5c-20.38-43.66-24.41-77.93-24.21-101.44.31-35.11,1.55-48.41,1.55-48.41,3.06-32.89,9.1-53-2.59-66.6-5-5.79-13.2-10.36-13.72-10.64a56.16,56.16,0,0,0-23.23-6.74s-35.08,56.11-37.42,84.72c-1.68,20.46,3.9,104.54,7.22,150.81h90.68C295.72,483.64,296.29,483.08,296.86,482.5Z"/><path class="cls-8" d="M110.38,315.39s-6,18.52,1.42,37.41S113.69,397,113.69,397"/><path class="cls-8" d="M274.6,316.59c5.21,11.13,6.21,20.47,5.67,27.81-.66,9-3.49,13.22-5.67,24.2a99.75,99.75,0,0,0-1.43,28.21"/><path class="cls-8" d="M147,253.8s-2.64,39.42-2.38,56.42l15.19,2.06-7.6,8.75,24.6,22.14"/><path class="cls-8" d="M198.2,343.17l22.65-25.23-6.18-10.78,16,3.32s12.44-40.61,11.24-60.86"/><path class="cls-2" d="M198.13,77.14S181,80.91,179.93,98.42s-29.35,33.71-47.37,37.63-5,26.9-9.27,33.95-8.67-16.44-12.1-17.58-5.92,2-5.92,2-22.13-24.25,0-46.65,36.13-73.64,92.86-44.55c0,0,31.24-18,55.44,2.06s21,51,29.16,61-4.27,26.9-4.27,26.9-4.93-1.44-6.87.57-1.71,11.23-7.21,11.92S275.54,92.07,198.13,77.14Z"/><circle class="cls-2" cx="265.07" cy="59.97" r="25.4"/><path class="cls-5" d="M174.49,230.47s25.83,5.23,39.66-.83"/><path class="cls-10" d="M127.12,136.07c19-.91,87.67-3.71,132.18,1.22a6.06,6.06,0,0,1,5.54,4.92c1.3,9.31,1.75,30.66-20.46,34.72-28.57,5.24-32.82-10.21-44.08-9.86S190,175.92,169,176.93c-20,1-52.16-6.37-47.86-35.85A6.18,6.18,0,0,1,127.12,136.07Z"/><line class="cls-11" x1="107.84" y1="152.42" x2="118.78" y2="152.42"/><line class="cls-11" x1="267.47" y1="152.42" x2="277.56" y2="152.42"/><path class="cls-3" d="M188.92,199.57a12,12,0,0,0,7.33,1.8,11.79,11.79,0,0,0,5.28-1.8"/><path class="cls-12" d="M187.64,76.62S173.21,77.91,168.85,91s-13.12,31.67-36.55,31.67"/><path class="cls-12" d="M154.18,101.34s-17,20.85-42.74,16.48"/><path class="cls-12" d="M211.34,76.62s21.37-5.41,33.22,6.18,15.32,52.27,31.48,48.92"/><path class="cls-12" d="M261.81,103.64s6.53,20.36,15.75,19.07"/><path class="cls-12" d="M250.22,56.8s6.23-14.42,22.3-12.62"/><path class="cls-12" d="M278,54.52s10,17-7.47,20.84"/><path class="cls-12" d="M127.75,194.87s5.05,22.61,20.08,26.75"/><path class="cls-12" d="M260.26,194.87s-3.77,22.85-19.74,27.83"/><path class="cls-13" d="M179.52,186h31.41a16.48,16.48,0,0,1-31.41,0Z"/><rect class="cls-14" x="283.06" y="462.27" width="23.22" height="21.93"/><rect class="cls-14" x="446.37" y="462.27" width="23.22" height="21.93"/><rect class="cls-14" x="283.12" y="414.03" width="186.47" height="33.05"/><rect class="cls-15" x="254.58" y="411.65" width="243.56" height="8.63" rx="4.05"/><rect class="cls-15" x="264.9" y="429.19" width="222.9" height="42.95" rx="9.5"/><rect class="cls-14" x="314.27" y="435.04" width="124.16" height="31.26" rx="12.25"/><rect class="cls-15" x="317.92" y="276.34" width="114.61" height="135.31"/><path class="cls-15" d="M357.57,276.34H309.2a4.31,4.31,0,0,0-3.54,6.78l16.78,24Z"/><path class="cls-16" d="M363.23,334.08c-14.13-10.27-29-10.2-39.06-8.29V405.4h102.1V346.33C407.93,349.76,381.42,347.32,363.23,334.08Z"/><line class="cls-8" x1="419.06" y1="291.74" x2="419.06" y2="397.06"/><line class="cls-8" x1="409.68" y1="387.09" x2="415.93" y2="387.09"/><line class="cls-8" x1="409.68" y1="372.64" x2="415.93" y2="372.64"/><line class="cls-8" x1="398.36" y1="360.29" x2="415.93" y2="360.29"/><line class="cls-8" x1="409.68" y1="346.29" x2="415.93" y2="346.29"/><line class="cls-8" x1="409.68" y1="331.85" x2="415.93" y2="331.85"/><line class="cls-8" x1="398.36" y1="319.5" x2="415.93" y2="319.5"/><line class="cls-8" x1="409.68" y1="305.5" x2="415.93" y2="305.5"/><line class="cls-8" x1="317.92" y1="411.65" x2="432.53" y2="411.65"/><path class="cls-9" d="M313.79,117.15V93.09A2,2,0,0,1,315,91.2a2,2,0,0,1,2.86,1.87v24.11a2,2,0,1,1-4.06,0Z"/><path class="cls-9" d="M303.76,107.16a2,2,0,0,1-1.86-2.87,2,2,0,0,1,1.89-1.2h24.06a2,2,0,0,1,1.89,1.2,2,2,0,0,1-1.86,2.87Z"/><path class="cls-9" d="M296.86,238.5a1.54,1.54,0,0,1-1.55-1.55V218.57a1.55,1.55,0,0,1,3.1,0V237A1.55,1.55,0,0,1,296.86,238.5Z"/><path class="cls-9" d="M287.66,229.31a1.55,1.55,0,1,1,0-3.1h18.39a1.55,1.55,0,1,1,0,3.1Z"/><path class="cls-9" d="M95.44,241.24a1.55,1.55,0,0,1-1.55-1.55V221.3a1.55,1.55,0,1,1,3.1,0v18.39A1.56,1.56,0,0,1,95.44,241.24Z"/><path class="cls-9" d="M86.25,232.05a1.56,1.56,0,1,1,0-3.11h18.38a1.56,1.56,0,0,1,0,3.11Z"/><line class="cls-17" x1="55.01" y1="484.2" x2="487.93" y2="484.2"/></g></svg>
