<svg height="512" viewBox="0 0 512 512" width="512" xmlns="http://www.w3.org/2000/svg"><g id="Solar_Energy" data-name="Solar Energy"><path d="m236.45 164.17v-37.95h117.52 81.77v37.95" fill="none" stroke="#383333" stroke-linecap="round" stroke-linejoin="round"/><path d="m268.71 322.53h32.26v85.29h-32.26z" fill="#00ccc1"/><rect fill="#aaeeea" height="20.94" rx="4.91" width="64.43" x="252.63" y="395.69"/><path d="m416.8 346.1h-266.31c-6.82 0-11.93-5.65-10.57-11.69q19.62-87.46 39.25-174.94c1-4.54 5.44-7.81 10.57-7.81h261.44c6.71 0 11.79 5.48 10.62 11.46l-34.38 174.94c-.91 4.65-5.42 8.04-10.62 8.04z" fill="#aaeeea"/><g fill="#00ccc1"><path d="m258.3 213.17-72.77-.01 10.61-45.19h72.04z"/><path d="m246.41 267.57-73.64-.04 10.86-46.28 72.9.02z"/><path d="m233.78 325.33-74.56-.06 11.13-47.45 73.81.04z"/><path d="m344.2 213.29-73.14-.02 10.49-45.3h72.42z"/><path d="m332.46 267.83-74.02-.04 10.74-46.4 73.28.02z"/><path d="m319.98 325.74-74.95-.06 11.02-47.58 74.18.05z"/><path d="m430.56 213.41-73.52-.02 10.37-45.42h72.79z"/><path d="m418.95 268.09-74.4-.04 10.63-46.52 73.65.02z"/><path d="m406.63 326.15-75.34-.06 10.9-47.7 74.57.05z"/></g><path d="m52.43 416.37 395.17.26" fill="none" stroke="#383333" stroke-linecap="round" stroke-linejoin="round" stroke-width="3"/><path d="m273.13 357s10.25-8.54 15.16-12.52 11.24-7.26 14.63-6.32-6.71 7.92-4.33 7.92h21.31s-6.21 8.7-14.63 12.79-15.34 12.88-15.34 12.88-16.87-6-16.8-14.75" fill="#d89071"/><path d="m438.35 107.92v-21.64a2 2 0 0 1 1.58-2 1.85 1.85 0 0 1 2.12 1.83v21.92a1.85 1.85 0 0 1 -2.12 1.83 1.94 1.94 0 0 1 -1.58-1.94z" fill="#ffb833"/><path d="m429.24 99a1.85 1.85 0 0 1 -1.83-2.12 2 2 0 0 1 2-1.58h21.59a1.94 1.94 0 0 1 2 1.58 1.85 1.85 0 0 1 -1.84 2.12z" fill="#ffb833"/><path d="m154 127.84a1.41 1.41 0 0 1 -1.41-1.41v-16.72a1.41 1.41 0 1 1 2.82 0v16.72a1.41 1.41 0 0 1 -1.41 1.41z" fill="#ffb833"/><path d="m145.65 119.48a1.41 1.41 0 1 1 0-2.82h16.72a1.41 1.41 0 0 1 0 2.82z" fill="#ffb833"/><path d="m349.88 394.58a1.41 1.41 0 0 1 -1.41-1.41v-16.72a1.41 1.41 0 0 1 2.82 0v16.72a1.41 1.41 0 0 1 -1.41 1.41z" fill="#ffb833"/><path d="m341.52 386.22a1.41 1.41 0 1 1 0-2.82h16.71a1.41 1.41 0 0 1 0 2.82z" fill="#ffb833"/><circle cx="131.37" cy="232.7" fill="#d89071" r="62.87"/><path d="m183.74 183.09c18.55 43.59 21.12 84.22 2.26 100.91-4.75 4.18-10.25 6.32-14.69 8-29.08 11.06-56.43 1.76-67.76-2.91-.03-.03-15.42-164.9 80.19-106z" fill="#d89071"/><path d="m119.35 230a12.91 12.91 0 0 0 -10.24-1.28 9.94 9.94 0 0 0 -5.19 3.58c-4 6.17 1.87 21 11.84 22.72 5.57 1 10.36-2.57 11.95-3.85q-4.18-10.6-8.36-21.17z" fill="#d89071"/><path d="m107.77 238.61 8.57-2.57s-7.45 7.7 1.73 13" fill="none" stroke="#383333" stroke-linecap="round" stroke-linejoin="round" stroke-width=".75"/><path d="m156 212.71a19.45 19.45 0 0 1 10-6.27c2.62-.73 6.18-1.71 7.8.08a3 3 0 0 1 .65 2.93c-.82 2-4.31 1.26-9.35 2.47-6.63 1.6-10.31 5.19-11 4.35-.49-.61 1.24-2.73 1.9-3.56z" fill="#383333"/><ellipse cx="166.71" cy="244.08" fill="#d17352" rx="7.57" ry="4.71" transform="matrix(.974 -.227 .227 .974 -50.97 44.12)"/><path d="m180.41 228.79a5.27 5.27 0 1 1 -1.36-7.33 5.28 5.28 0 0 1 1.36 7.33z" fill="#383333" fill-rule="evenodd"/><path d="m166.71 224.52c.09-.13 1.53 1.36 2.79.91.92-.33.91-1.43 1.89-2.65a6.25 6.25 0 0 1 3.32-2.06 14 14 0 0 1 -1.32 3.5c-.85 1.56-1.4 2.57-2.42 2.84-2.06.55-4.37-2.38-4.26-2.54z" fill="#383333" fill-rule="evenodd"/><path d="m189.82 198.92s3.37 15.39 9.86 19.53 4.46 14.07-9.5 14.88c0 0-15.59-33.12-.36-34.41z" fill="#d89071"/><path d="m191 262.31a5.3 5.3 0 0 1 -5.5.13" fill="none" stroke="#383333" stroke-linecap="round" stroke-linejoin="round" stroke-width=".75"/><path d="m107.77 282.93s.38 19.19-7.58 27.62c-15.32 16.23-19.73 24.11-24.81 39.33s1.2 23.93 4.21 43.9c2.41 16 2.85 39.83-8 71.16a170.12 170.12 0 0 0 138.12 6.45s-11.19-128.7-20.81-145.24-36.85-11.85-46.41-18.41-4.88-24.81-4.88-24.81z" fill="#ffb833"/><path d="m159.26 312.15s29.05 3.08 42.43 16.19 42.47 67.35 42.47 67.35l-23.16 20.94s-45.82-21.8-54.28-43.34-7.46-61.14-7.46-61.14z" fill="#ffb833"/><path d="m278.58 352.22c-10.43 8.29-19.21 14.38-25 18.26-15.19 10.09-24.17 14.38-31.29 25.91-2.57 4.15-6.51 10.74-4.06 16.23 2.78 6.23 12.17 7.44 15 7.8 25.22 3.26 55.66-44.53 60.56-52.36a31.25 31.25 0 0 0 -10.3-13 29.64 29.64 0 0 0 -4.91-2.84z" fill="#ffb833"/><path d="m142.56 159.32s47-11.95 44.22 31.25c0 0-6.06-10.88-38.83-16.38 0 0-18.42 6.2-24.35 23.21s4.06 32.33 3.28 38.64-6.38-5.19-11.69-7.63-14.56 2.9-12.13 12.4 7.43 15.64 18.67 14.36 12.6 35.09 26.59 41.8 34.84.07 44.86 25.56c0 0-22.92-13.21-33.92 2.55s4.61 52.28-23.49 70.61-75.84-9.05-75.84-9.05 21.53-15.22 4.68-43.78-42.61-197.59 77.95-183.54z" fill="#383333"/><ellipse cx="188.84" cy="249.39" fill="#fff" rx="5.4" ry="8.25"/><path d="m188.68 374.46s3.3 21.39 14.41 31.7" fill="none" stroke="#383333" stroke-linecap="round" stroke-linejoin="round"/><path d="m228.48 406.16s-2.09-14.57 8-24.42" fill="none" stroke="#383333" stroke-linecap="round" stroke-linejoin="round"/><path d="m325.44 92.07c-7.49-9.13-8.1-28.76 3-40.69 9.05-9.74 21.8-9.92 24.8-9.87s11.23.3 18.48 5.82c15.23 11.6 15.55 38.4 5.76 47.39-2.91 2.68-5.89 3-9 7.28-4 5.36-4.43 11.74-4.24 16.07l-29.17-1a30.49 30.49 0 0 0 -3.29-17.34c-2.29-4.01-4.31-5.19-6.34-7.66z" fill="#aaeeea"/><path d="m343.51 120.1s.88-43.91-4.81-41.64 8.48 16.71 14.3 11.54 3.29-11.14 0-9.37 1.52 12.79 7.84 11 7.34-6.7 3.8-7-9.17 36.58-9.17 36.58" fill="none" stroke="#fff" stroke-linecap="round" stroke-linejoin="round"/><rect fill="#00ccc1" height="19.62" rx="4.38" width="31.79" x="333.98" y="110.99"/><rect fill="#00ccc1" height="11.12" rx="5.56" width="13.92" x="342.92" y="123.91"/><path d="m335.88 118.83h25.69" fill="none" stroke="#fff" stroke-linecap="round" stroke-linejoin="round"/><path d="m337.37 123.91h24.2" fill="none" stroke="#fff" stroke-linecap="round" stroke-linejoin="round"/><path d="m319.94 45.31-14.86-12.31-1.77 19.46-17.11 7.15 13.16 10.59-13.16 15.45 16.87 5.44-6.57 13.45 20.03-4.73h-11.16l4.44-10.15-12.74-5.15 10.3-15.74-11.58-6.87 13.87-4.57-1.14-16.6z" fill="#aaeeea"/><path d="m386.06 45.31 14.85-12.31 1.78 19.46 17.11 7.15-13.17 10.59 13.17 15.45-16.87 5.44 6.57 13.45-20.03-4.73h11.16l-4.44-10.15 12.73-5.15-10.3-15.74 11.59-6.87-13.88-4.57 1.15-16.6z" fill="#aaeeea"/><path d="m150.78 164.17s25.61 3 32.66 15.4" fill="none" stroke="#fff" stroke-linecap="round" stroke-linejoin="round"/><path d="m134.84 174.42s-19.17 8.66-19.65 26.92-7 27.22-20.62 25.79" fill="none" stroke="#fff" stroke-linecap="round" stroke-linejoin="round"/><path d="m106.28 205.51s-11.94 22.26-32.54 18.41" fill="none" stroke="#fff" stroke-linecap="round" stroke-linejoin="round"/><path d="m127.71 281.87s3.62 26.46 20.24 26.93 23.08 2.37 26.76 6.33" fill="none" stroke="#fff" stroke-linecap="round" stroke-linejoin="round"/><path d="m61.8 244.81s-4.22 66.94 20.6 93.19 4.54 49.54-7.09 47.32" fill="none" stroke="#fff" stroke-linecap="round" stroke-linejoin="round"/><path d="m90 292.64s-3.21 24.36 17.77 39.36 22.56 58.63-13.58 58.34" fill="none" stroke="#fff" stroke-linecap="round" stroke-linejoin="round"/><path d="m96.45 255.17s1.37 64.58 51.5 67.36" fill="none" stroke="#fff" stroke-linecap="round" stroke-linejoin="round"/></g></svg>