<svg xmlns="http://www.w3.org/2000/svg" width="512" height="512" viewBox="0 0 512 512"><defs><style>.cls-1{fill:#aaeeea}.cls-2{fill:#00ccc1}.cls-3{fill:#fff3e3}.cls-4{fill:#ffb833}.cls-5{fill:#d89071}.cls-6{fill:#ff8d93}.cls-10,.cls-7{fill:#383333}.cls-8{fill:#d17352}.cls-11,.cls-9{fill:none;stroke-linecap:round;stroke-linejoin:round}.cls-9{stroke:#383333;stroke-width:.75px}.cls-10{fill-rule:evenodd}.cls-11{stroke:#fff}</style></defs><g id="User"><rect width="263.1" height="198.31" x="190.47" y="123.05" class="cls-1" rx="20.87" transform="translate(644.04 444.41) rotate(-180)"/><circle cx="428.19" cy="144.09" r="5.87" class="cls-2"/><circle cx="403.36" cy="144.09" r="5.87" class="cls-2"/><circle cx="378.53" cy="144.09" r="5.87" class="cls-2"/><rect width="110.24" height="96.33" x="56.43" y="32.91" class="cls-1" rx="48.17"/><path d="M126.14,120.1s4.75,21.3,22.09,22.84a.85.85,0,0,0,.84-1.19c-1.73-3.93-6.19-16.27.6-26.21Z" class="cls-1"/><path d="M302.3,191.63s17.76,2.54,23.78-5.71,10.15-19.35,17.45-20S345.11,192,345.11,192s20.94-2,24.74,3.12,3.49,47.89,0,63.75-71.68,9.2-76.75,5.39-9.2-8.88-7-31.08S285.17,195.43,302.3,191.63Z" class="cls-3"/><path d="M279.79,191.32S261,188.17,259.6,194.9s-7.44,64.48,0,69.09,23.42,2.87,25.9,0-5.71-12.46-3.94-35.28,7.44-31.33,6.38-35.58S279.79,191.32,279.79,191.32Z" class="cls-3"/><rect width="3.17" height="16.98" x="200.27" y="57.09" class="cls-4" rx="1.58" transform="translate(12.75 161.94) rotate(-45)"/><rect width="3.17" height="16.98" x="200.27" y="57.09" class="cls-4" rx="1.58" transform="translate(298.21 254.69) rotate(-135)"/><rect width="3.17" height="16.98" x="280.06" y="330.68" class="cls-4" rx="1.58" transform="translate(-157.34 298.5) rotate(-45)"/><rect width="3.17" height="16.98" x="280.06" y="330.68" class="cls-4" rx="1.58" transform="translate(240.97 778.16) rotate(-135)"/><rect width="4.02" height="21.55" x="77.95" y="151.39" class="cls-4" rx="1.73" transform="translate(-91.25 104.04) rotate(-45)"/><rect width="4.02" height="21.55" x="77.95" y="151.39" class="cls-4" rx="1.73" transform="translate(21.83 333.38) rotate(-135)"/><rect width="4.02" height="21.55" x="240.49" y="90.84" class="cls-4" rx="1.73" transform="translate(-0.82 201.24) rotate(-45)"/><rect width="4.02" height="21.55" x="240.49" y="90.84" class="cls-4" rx="1.73" transform="translate(342.13 344.94) rotate(-135)"/><rect width="4.02" height="21.55" x="320.01" y="354.47" class="cls-4" rx="1.73" transform="translate(-163.95 334.68) rotate(-45)"/><rect width="4.02" height="21.55" x="320.01" y="354.47" class="cls-4" rx="1.73" transform="translate(291.45 851.22) rotate(-135)"/><path d="M381.09,250.77s-1.21-17-3.32-22.06-3.61-4.7-5.21-2.43-1.79,35.6-11.35,39.54-17,1-22.19,3.05-5,4.78-3.92,6.4,12.49.48,17.2,4.05,1.3,14.13,13,32.94S342.4,428.41,342.4,428.41s31.64,10.71,56,6.33c0,0,8-116.32,9.25-120.21s6.08-40.41,4.38-47.7-9.9-4.7-9.9-4.7S400,254.5,391.88,256C391.88,256,388.31,246.88,381.09,250.77Z" class="cls-5"/><path d="M111.55,69.06s-18.17-18-28.88-2.92,12.41,49.4,32.61,49.4,33.09-36.74,31.39-48.91S118.29,50.32,111.55,69.06Z" class="cls-2"/><circle cx="159.17" cy="260.46" r="81.73" class="cls-5"/><path d="M190,313.68c3.89,34,16.47,50.28,26.56,58.81,23.51,19.88,49.64,11.31,70.19,31.61,15.82,15.63,18.32,38.49,18.33,53.75a492.76,492.76,0,0,1-74,18.33,501.61,501.61,0,0,1-170.93-1.26s18.55-65.34,29.93-74.19,52.27-16.44,57.33-23.19-.85-53.11-.85-53.11Z" class="cls-6"/><path d="M233.4,226.22s26.18,45.1,7.5,81.14-66.91,45.52-118,23.39C122.86,330.75,135.82,197.57,233.4,226.22Z" class="cls-5"/><path d="M196.32,234.8a22.67,22.67,0,0,1,11.05-8.05c3-1.05,7-2.46,9-.51a3.44,3.44,0,0,1,1,3.34c-.8,2.35-4.9,1.79-10.65,3.6-7.56,2.37-11.54,6.82-12.39,5.9C193.76,238.41,195.59,235.82,196.32,234.8Z" class="cls-7"/><ellipse cx="210.41" cy="270.53" class="cls-8" rx="8.79" ry="5.47" transform="translate(-69.8 73.2) rotate(-16.97)"/><path d="M167.42,261.41c-1-.49-6.29-3-12-.68-.83.34-4.14,1.68-5.73,4.56-4.13,7.46,3.81,24.23,15.5,25.41,6.53.66,11.8-3.8,13.55-5.41Q173.08,273.35,167.42,261.41Z" class="cls-5"/><path d="M154.67,272.32l9.73-3.66s-8,9.51,3,14.91" class="cls-9"/><path d="M233.39,229.55s4.34,10,11.24,9.91,13.35,12.68-4.79,17Z" class="cls-5"/><path d="M242.5,284.87a7.15,7.15,0,0,1-6.39,3.34" class="cls-9"/><path d="M190.47,184.94S204.69,241.8,165,260.46c0,0-8.77-2.48-13.85,3s-1,18,5.94,23.67a14.93,14.93,0,0,0,18.25.84.63.63,0,0,1,.29-.12c5.29-2.22,24.72,4.3,42.77,27.29,12.05,15.35,7.18,17.27,16.06,25.8,15.79,15.15,31.5,9.39,41.37,21.9,4.44,5.62,8.34,15.77,3.81,35.47,0,0-11.89-7.12-32-11.39,0,0,12.71,37.78-1.92,63.53s-113.91,31.8-139.22,9.09-8.44-37.64-5.84-73.33-49.32-66.85-31.15-147,121.57-99,149.64-34.28C219.13,204.92,210.55,193.13,190.47,184.94Z" class="cls-7"/><path d="M408.87,353.42,362.8,345l-25.63,90.81s42.5,10.75,62.62,8.48Z" class="cls-6"/><path d="M223.88,253a7,7,0,1,1-2.56-9.56A7,7,0,0,1,223.88,253Z" class="cls-10"/><path d="M205.32,248.73c.11-.17,2.16,1.65,3.78.92,1.19-.53,1.05-2,2.22-3.7a8.41,8.41,0,0,1,4.19-3.07,17.92,17.92,0,0,1-1.39,4.77c-1,2.15-1.58,3.54-2.9,4C208.54,252.59,205.18,249,205.32,248.73Z" class="cls-10"/><path d="M226.06,280.45s7.3,6.81,13.62,2.67,5.48-9,5.48-9a67.91,67.91,0,0,1-19.1,6.33Z" class="cls-3"/><path d="M381.09,250.77s.83,8.55-1,13.74" class="cls-9"/><path d="M391.88,256s1.37,7.57,0,12" class="cls-9"/><path d="M402.1,262.13a31.73,31.73,0,0,1-1.2,8.54" class="cls-9"/><path d="M176.54,190.59s4.79,46.79-15.49,58.89" class="cls-11"/><path d="M148.61,198.32s9.43,32.5-11.5,59.32" class="cls-11"/><path d="M182.6,298.57s21.78,10.71,27.81,35.53,38.64,26.28,48.38,31.64,7.3,17,7.3,17" class="cls-11"/><path d="M122.86,224.7s-25.5,51.36,21.06,89S246.7,386,226.06,435.79" class="cls-11"/><path d="M97.15,313.68a133.81,133.81,0,0,0,18.74,51.9c16.19,25.95-22.39,62.49,7,85" class="cls-11"/><path d="M137.11,339.17s31,20.57,39.92,50.42,4.55,49-16,55" class="cls-11"/><path d="M127.54,185.83s-57.21,35-42.18,89.43" class="cls-11"/></g></svg>