<svg height="512" viewBox="0 0 512 512" width="512" xmlns="http://www.w3.org/2000/svg"><g id="Yoga"><path d="m39.41 396.32h431.18v84.68h-431.18z" fill="#ff832f"/><path d="m104.44 149.44a19.56 19.56 0 0 1 5 3.3 20.62 20.62 0 0 1 6 10.37 15.31 15.31 0 0 1 3.76-9.62 15 15 0 0 1 7.36-4.5 14.19 14.19 0 0 1 -6.76-2.86 14.66 14.66 0 0 1 -5.26-9 12.9 12.9 0 0 1 -2.25 7.06 13.29 13.29 0 0 1 -7.85 5.25z" fill="#ffb833"/><path d="m272.06 249.65a19.56 19.56 0 0 1 5 3.3 20.64 20.64 0 0 1 6 10.36 15.29 15.29 0 0 1 3.76-9.61 15 15 0 0 1 7.36-4.5 14.29 14.29 0 0 1 -6.76-2.86 14.66 14.66 0 0 1 -5.26-9 12.92 12.92 0 0 1 -2.25 7.06 13.29 13.29 0 0 1 -7.85 5.25z" fill="#ffb833"/><path d="m268.66 72.62a25.67 25.67 0 0 1 6.48 4.32 27 27 0 0 1 7.86 13.55 19.93 19.93 0 0 1 4.91-12.57 19.62 19.62 0 0 1 9.63-5.92 18.67 18.67 0 0 1 -8.84-3.73 19.21 19.21 0 0 1 -6.88-11.79 17 17 0 0 1 -2.94 9.23 17.36 17.36 0 0 1 -10.22 6.91z" fill="#ffb833"/><path d="m132.62 272.2a26 26 0 0 1 6.48 4.32 26.93 26.93 0 0 1 7.9 13.56 19.94 19.94 0 0 1 4.92-12.57 19.72 19.72 0 0 1 9.62-5.9 18.47 18.47 0 0 1 -8.84-3.73 19.19 19.19 0 0 1 -6.87-11.78 17.09 17.09 0 0 1 -2.95 9.23 17.32 17.32 0 0 1 -10.26 6.87z" fill="#ffb833"/><path d="m96.06 419.12s1.91 17.23 0 26.15-24.15 4.16-24.85 25.62h50.79a4.65 4.65 0 0 0 4.63-4.34l3.18-49z" fill="#ffb08d"/><path d="m392.51 446.62s17.22-2.07 26.16-.23 4.33 24.11 25.84 24.61l-.42-47.69a8 8 0 0 0 -7.52-7.89l-45.89-2.58z" fill="#ffb08d"/><circle cx="242.71" cy="149.94" fill="#ffb08d" r="43.73"/><path d="m224.62 184a49.16 49.16 0 0 1 -7.69 21.55c-5.31 7.94-10.66 10.41-16 15.85-8.65 8.79-11.5 18.85-14.34 34.54-5.18 28.63-4.61 56.29-3 76.29 0 0 42.27 12.71 74.18 0 0 0-3.24-22.5-6.54-47.43 0 0-5.18-30.55-6.92-62a58.74 58.74 0 0 1 2.47-21.39c1.38-4.41 3.85-12 10.77-18.77a39.63 39.63 0 0 1 12.62-8.31z" fill="#ffb08d"/><path d="m224.5 188-4.22 11.55s17.06 4.31 26.5 1.81l3.27-9.06-10.62-4.3z" fill="#ff8c5f"/><path d="m202.29 133.25c-9.28 16.59-9.11 35.33.39 47.76 8.56 11.21 21.67 13.34 25.75 14 27.8 4.53 49-18.87 51.1-21.25 0 0-30.94-59.56-77.24-40.51z" fill="#ffb08d"/><path d="m231.82 139.17a13.33 13.33 0 0 0 -5.44-6c-1.6-1-3.77-2.26-5.17-1.37a2 2 0 0 0 -1 1.82c.19 1.45 2.62 1.61 5.73 3.34 4.1 2.27 5.87 5.31 6.47 4.88.46-.28-.29-1.99-.59-2.67z" fill="#383333"/><ellipse cx="220.26" cy="161.95" fill="#ff8c5f" rx="3.23" ry="5.19" transform="matrix(.478 -.878 .878 .478 -27.24 278.09)"/><path d="m242.05 165.12a.26.26 0 0 1 -.25-.18.26.26 0 0 1 .18-.31c2-.51 3.28-1.44 3.86-2.77 1-2.31-.49-5.1-.5-5.13a.23.23 0 0 1 0-.3.24.24 0 0 1 .3 0l5.19 3.26a.25.25 0 0 1 .08.35.26.26 0 0 1 -.34.08l-4.5-2.83a6.46 6.46 0 0 1 .18 4.79 5.79 5.79 0 0 1 -4.19 3.06z"/><path d="m208 126.2s-4.3 5.8-9.16 5.62-8.1 6.28 1.3 11.18z" fill="#ffb08d"/><path d="m202.42 323.87s-101.2-13.85-115 0 8.69 113.56 8.69 113.56h34.7s5.54-52.62-1.84-78.47c0 0 51.56 38.45 101.55 30.27-.05 0 11.25-52.43-28.1-65.36z" fill="#383333"/><path d="m177.85 64.14c-2.55 17.14-8.27 65.38 7.38 106.48 4.85 12.72 12.22 31.29 30.47 40a47.52 47.52 0 0 0 15.3 4.31l-13 45.45c-14.08-8.15-34.77-23-50.39-48.22-39.95-64.45-10.27-137.79-6.46-146.79z" fill="#ffb08d"/><circle cx="219.41" cy="144.26" fill="#fff" r="5.86"/><circle cx="218.73" cy="144.09" fill="#383333" r="4.19"/><circle cx="219.41" cy="141.58" fill="#fff" r="1.22"/><path d="m243 317.73a87.2 87.2 0 0 1 21.94 20.27c13.42 17.74 14.36 33.92 17.85 42.47 6.63 16.29 33.79 32.58 127.4 29.54a95.9 95.9 0 0 1 7.39 38.78 452.21 452.21 0 0 1 -95.4 6.77c-35.72-1.31-53.6-6.37-68.94-17.24-7.3-5.17-12.72-10.74-20.92-20.92-13.52-16.78-31.83-42.65-49.24-79.4l31.31-20.3z" fill="#383333"/><path d="m218.16 201.55a73.69 73.69 0 0 0 26.84 7.45s-.42 9.63 1.43 14.24 4.84 22.39 6.23 41.32 6.74 66.87 6.74 66.87-38.59 9.07-78.4-10.09c0 0-1.75-51 6.33-76.63a159 159 0 0 1 -32.78-49.86 46.74 46.74 0 0 1 12-8.66 47.59 47.59 0 0 1 23.45-4.95 73.46 73.46 0 0 0 15 20.08 71.71 71.71 0 0 0 8.08 6.53z" fill="#00ccc1"/><path d="m247.81 198.3a12.9 12.9 0 0 1 -5.76-2.71 5.94 5.94 0 0 1 -2.3-2.82c-.54-1.79.54-2.82.73-5.35.13-1.7-.26-2.63-.73-4.62-1.36-5.73-1.87-13.56-.06-14.16a.55.55 0 0 1 .39 0c2.4.65 7.47 1.89 12.39-4.82s.92-10.07-2.46-11.55-7.92 4.29-9.08 4.37-4.46-.91-1.23-4.07 9.57-14.6 19.67-13.38c0 0-33.1-12.4-43.92-29.47s11.31-18.7 15.59-9c0 0 8.44-14.77 15.36 2.31 0 0 38.31-4.52 42.23 36.17 0 0 7.16 9.54 2.54 23.38s-19.85 25.5-28.5 28.74-12.48 7.88-14.86 6.98z" fill="#383333"/><path d="m175.19 85.63a29.61 29.61 0 0 1 .66-6 28.26 28.26 0 0 1 3.51-8.87c1.43-2.29 1.77-2 3.28-4.25s1.69-3.39 3.81-8.87c2.55-6.64 4.39-10.36 3.15-11.52a1.19 1.19 0 0 0 -.53-.3c-1.54-.37-3.44 2.71-3.95 3.58a47.45 47.45 0 0 0 1.77-7.22c.17-1.06 1.48-9 .18-9.1-3.06-.13-6.78 11.44-6.78 11.44s4.12-12.51 2-13.44-5.72 6.12-7.58 10.78c0 0 2.62-9.4 0-9.85s-6.61 11.53-6.61 11.53 1.95-7.71 0-8.15-2.48 2.57-5.59 9.4a26.77 26.77 0 0 0 -2.26 6c-1.81 6-1.42 10.24-1.55 15a71.21 71.21 0 0 1 -2.48 16.58z" fill="#ffb08d"/><path d="m173.1 45.81h-.09a.25.25 0 0 1 -.13-.33l1.59-3.7a.24.24 0 0 1 .33-.13.26.26 0 0 1 .13.33l-1.6 3.7a.25.25 0 0 1 -.23.13z"/><path d="m179.22 47.21h-.09a.25.25 0 0 1 -.14-.33l1.34-3.25a.26.26 0 0 1 .33-.13.25.25 0 0 1 .13.32l-1.34 3.25a.25.25 0 0 1 -.23.14z"/><path d="m183.72 56.7a.24.24 0 0 1 -.2-.29l1.4-7a.24.24 0 0 1 .29-.2.27.27 0 0 1 .2.3l-1.4 7a.25.25 0 0 1 -.29.19z"/><g fill="#fff"><path d="m255 129.74c-23.23-2.39-34.82-27-34.94-27.26a.26.26 0 0 1 .13-.33.25.25 0 0 1 .33.12c.11.25 11.59 24.61 34.54 27a.25.25 0 0 1 .22.27.24.24 0 0 1 -.28.2z"/><path d="m255.81 120.47c-14-2.43-18.34-17.87-18.38-18a.24.24 0 0 1 .17-.3.25.25 0 0 1 .31.17c0 .15 4.35 15.29 18 17.67a.25.25 0 0 1 0 .49z"/><path d="m255.81 173.52a.25.25 0 0 1 -.25-.25c-.48-17 14.31-28.13 14.46-28.24a.25.25 0 0 1 .3.4c-.15.11-14.74 11.13-14.26 27.83a.25.25 0 0 1 -.24.26z"/><path d="m263 184.87a.26.26 0 0 1 -.23-.15c-3.21-7.8 4.82-24.86 5.16-25.58a.26.26 0 0 1 .34-.12.27.27 0 0 1 .12.34c-.09.17-8.29 17.57-5.15 25.17a.24.24 0 0 1 -.14.32.16.16 0 0 1 -.1.02z"/><path d="m199 151.85s1.29 5 9 6.33a7.06 7.06 0 0 1 -4 2c-.51.06-3.59.45-5.27-1.71a5.57 5.57 0 0 1 .27-6.62z"/></g><path d="m200.55 162.82a4.15 4.15 0 0 1 -3-1.27.24.24 0 0 1 0-.35.25.25 0 0 1 .35 0 3.68 3.68 0 0 0 3.1 1.1.23.23 0 0 1 .27.21.24.24 0 0 1 -.22.28z"/><path d="m212.48 390.8a.48.48 0 0 1 -.45-.29c-8.25-17.84-7.1-38.78-7.09-39a.51.51 0 0 1 .53-.47.5.5 0 0 1 .47.53c0 .2-1.15 20.9 7 38.51a.5.5 0 0 1 -.24.67.52.52 0 0 1 -.22.05z" fill="#fff"/></g></svg>