<svg height="512" viewBox="0 0 512 512" width="512" xmlns="http://www.w3.org/2000/svg"><g id="Toner"><path d="m242.51 401.78 5.36-14.12a2.14 2.14 0 0 1 4 .09l4.71 14.25a2.16 2.16 0 0 0 1.36 1.36l9.77 3.24a2.14 2.14 0 0 1 .05 4l-10 3.58a2.13 2.13 0 0 0 -1.31 1.34l-5.37 16.23a2.14 2.14 0 0 1 -4.08-.08l-4.68-16.1a2.14 2.14 0 0 0 -1.32-1.41l-9.89-3.6a2.14 2.14 0 0 1 0-4l10.11-3.56a2.14 2.14 0 0 0 1.29-1.22z" fill="#ffb833"/><path d="m60.05 117.25 5.36-14.13a2.14 2.14 0 0 1 4 .1l4.68 14.25a2.13 2.13 0 0 0 1.36 1.37l9.77 3.24a2.14 2.14 0 0 1 0 4l-10 3.58a2.11 2.11 0 0 0 -1.22 1.34l-5.38 16.22a2.14 2.14 0 0 1 -4.08-.07l-4.67-16.1a2.11 2.11 0 0 0 -1.32-1.41l-9.9-3.61a2.13 2.13 0 0 1 0-4l10.11-3.55a2.13 2.13 0 0 0 1.29-1.23z" fill="#ffb833"/><path d="m221.08 55.28 6.67-17.55a2.65 2.65 0 0 1 5 .11l5.82 17.72a2.64 2.64 0 0 0 1.68 1.69l12.15 4a2.65 2.65 0 0 1 .06 5l-12.46 4.5a2.66 2.66 0 0 0 -1.63 1.66l-6.67 20.17a2.65 2.65 0 0 1 -5.07-.1l-5.81-20a2.67 2.67 0 0 0 -1.64-1.76l-12.29-4.47a2.65 2.65 0 0 1 0-5l12.56-4.41a2.65 2.65 0 0 0 1.63-1.56z" fill="#ffb833"/><rect fill="#00ccc1" height="104.92" rx="15.5" transform="matrix(.993 -.119 .119 .993 -7.92 41.3)" width="97.37" x="294.21" y="34.69"/><rect fill="#ff8d93" height="349.63" rx="32.47" transform="matrix(.993 -.119 .119 .993 -31.03 45.47)" width="190.71" x="270.99" y="108.54"/><rect fill="#00ccc1" height="245.36" rx="25.68" transform="matrix(.993 -.119 .119 .993 -31.02 45.53)" width="135.9" x="298.94" y="160.61"/><path d="m303.06 50.72q-4.87 0-9.73-.15a.5.5 0 0 1 -.48-.52.51.51 0 0 1 .51-.48 301.41 301.41 0 0 0 49.35-2.47 302.33 302.33 0 0 0 39.39-8 .5.5 0 1 1 .26 1 300.71 300.71 0 0 1 -39.52 8 301.79 301.79 0 0 1 -39.78 2.62z" fill="#383333"/><path d="m328.62 59.3a5 5 0 0 1 -5-4.41l-.55-4.89a.5.5 0 1 1 1-.12l.59 4.94a4 4 0 0 0 4.44 3.5l15.9-1.95a4 4 0 0 0 3.49-4.44l-.59-5a.5.5 0 0 1 .44-.55.5.5 0 0 1 .56.43l.59 5a5 5 0 0 1 -4.37 5.55l-15.88 1.9a4 4 0 0 1 -.62.04z" fill="#383333"/><path d="m346.61 234.59s2.53 21.16-5.1 41.53-5.79 47 23.71 46.82 37.56-39.38 22.54-58.38-32.93-45.38-37.76-44.13-3.77 3.31-3.39 14.16z" fill="#aaeeea"/><path d="m302.45 100.06a2.5 2.5 0 0 1 -2.45-2.16c-.62-4.5-3.59-27.67-1.05-41.24 1.05-5.77 3.05-9.66 6.35-12.15a15.71 15.71 0 0 1 7.59-3.06 2.5 2.5 0 0 1 .67 5 10.73 10.73 0 0 0 -5.21 2.06c-1.52 1.18-3.41 3.27-4.51 9.11-2.4 12.82.49 35.27 1.09 39.64a2.5 2.5 0 0 1 -2.13 2.74z" fill="#fff"/><path d="m272.87 150.84h-.1a2.48 2.48 0 0 1 -2.4-2.57c0-.24 1.16-23.17 34.81-27.46a2.5 2.5 0 0 1 .64 5c-29.26 3.73-30.42 21.91-30.46 22.68a2.5 2.5 0 0 1 -2.49 2.35z" fill="#fff"/><path d="m291 368.71a2.49 2.49 0 0 1 -2.47-2.2l-19-158.7a2.5 2.5 0 0 1 5-.59l19 158.7a2.5 2.5 0 0 1 -2.19 2.78z" fill="#fff"/><path d="m339 455.73a53.42 53.42 0 0 1 -10.63-1c-15.15-3.11-22.18-17.92-22.47-18.55a2.5 2.5 0 0 1 4.54-2.11c.08.19 6.32 13.17 18.93 15.76 13.38 2.75 32.8-2 33-2.09a2.51 2.51 0 0 1 1.22 4.86 114.79 114.79 0 0 1 -24.59 3.13z" fill="#fff"/><path d="m463 362.51a2.5 2.5 0 0 1 -2.48-2.2l-18-150.95a2.5 2.5 0 1 1 5-.59l18 150.94a2.51 2.51 0 0 1 -2.19 2.78z" fill="#fff"/><path d="m464 385.94c-5.78.69-3.85 9.53 1.9 8.85s3.83-9.54-1.9-8.85z" fill="#fff"/><path d="m438.76 182.19c-5.78.69-3.85 9.53 1.9 8.85s3.85-9.54-1.9-8.85z" fill="#fff"/><path d="m325.33 116.36c-5.78.69-3.85 9.53 1.9 8.84s3.85-9.53-1.9-8.84z" fill="#fff"/><path d="m272.84 166.25c-5.78.69-3.85 9.53 1.9 8.84s3.85-9.53-1.9-8.84z" fill="#fff"/><path d="m295.57 393c-5.77.69-3.85 9.53 1.9 8.84s3.85-9.55-1.9-8.84z" fill="#fff"/><path d="m383.52 442.67c-5.78.69-3.85 9.53 1.9 8.84s3.85-9.51-1.9-8.84z" fill="#fff"/><path d="m333 36.05c-5.77.69-3.85 9.53 1.9 8.85s3.81-9.53-1.9-8.85z" fill="#fff"/><path d="m31.85 447.94s30.29-51.94 33.24-85c4.3-48.35-17.52-84.85-4.94-126.54 0 0 6.21-20.57 30.24-43.52 1.49-1.42 4-3.74 6.15-3 8.19 2.7-1.09 46.58 5.79 48.27a1.86 1.86 0 0 0 1.12-.08c8.31-3.09 29.3-95.42 44.39-99.79s7.8 71.34 7.8 71.34 12.93-84.68 27-78.3 6.88 82.59 6.88 82.59 13.25-67.21 22.75-64.27 1.68 84.19 1.68 84.19 9.48-40.4 17.82-38.15 4.43 79.1-12.54 124-51.17 83.72-57.23 107.01a246.36 246.36 0 0 0 -7.15 45s-83.77 32.39-123-23.75z" fill="#ffb08d"/><ellipse cx="164.02" cy="230.42" fill="#ffdb99" rx="75.16" ry="69.78" transform="matrix(.963 -.27 .27 .963 -56.2 52.93)"/><path d="m71.49 214.88c10.32-13.83 23.12-29.14 28.37-26.55.54.27 1.34.9 2.27 4.19 2.86 10.17-.4 19.68-2.82 25.88-4.31 11.16-7.31 14.72-10.4 21.88-10.31 23.58-7.28 43.87-10.63 44.08-.52 0-2.43-.34-5.28-12.14-2.95-12.22-5.68-31.52-1.51-57.34z" fill="#ffb08d"/><g fill="#fff"><path d="m68.22 281a2.49 2.49 0 0 1 -2.45-2c-6.54-36.51 13.41-63 14.23-64.11a2.5 2.5 0 0 1 4 3c-.23.31-19.43 25.95-13.3 60.16a2.5 2.5 0 0 1 -2 2.9 2.28 2.28 0 0 1 -.48.05z"/><path d="m52.53 434.71a2.34 2.34 0 0 1 -1-.23 2.5 2.5 0 0 1 -1.25-3.31l16.49-36.35a2.5 2.5 0 0 1 4.56 2.07l-16.52 36.35a2.51 2.51 0 0 1 -2.28 1.47z"/><path d="m71.56 298.27c-5 1.41-2.1 9 2.91 7.59s2.1-9-2.91-7.59z"/><path d="m73 372.5c-5 1.41-2.1 9 2.91 7.59s2.09-9-2.91-7.59z"/><path d="m42.19 440c-5 1.41-2.09 9 2.92 7.59s2.1-8.99-2.92-7.59z"/><path d="m90.29 200.78c-5 1.41-2.1 9 2.92 7.59s2.09-9-2.92-7.59z"/><path d="m179.82 367.24a2.5 2.5 0 0 1 -1.56-4.46c24.34-19.25 32.53-56.08 32.61-56.45a2.5 2.5 0 1 1 4.89 1.05c-.35 1.58-8.67 39-34.4 59.32a2.47 2.47 0 0 1 -1.54.54z"/><path d="m164.69 377.08c-5 1.42-2.1 9 2.91 7.6s2.1-9-2.91-7.6z"/><path d="m217.25 287.69c-5 1.41-2.1 9 2.91 7.59s2.1-9-2.91-7.59z"/><path d="m126 182.66a2.5 2.5 0 0 1 -1.39-4.58 89.76 89.76 0 0 1 25.53-10.78c19.84-5 38.44-2.13 53.77 8.3a2.5 2.5 0 0 1 -2.81 4.14c-34.16-23.26-73.32 2.24-73.71 2.5a2.46 2.46 0 0 1 -1.39.42z"/><path d="m160.35 293.41c-1 0-2 0-3-.05a124.54 124.54 0 0 1 -29.59-4.49 2.5 2.5 0 0 1 1.45-4.79c.51.16 50.66 14.94 73-11.37a2.5 2.5 0 1 1 3.81 3.24c-9.67 11.45-25.44 17.46-45.67 17.46z"/><path d="m147.64 144.62c-5 1.42-2.1 9 2.91 7.6s2.1-9.01-2.91-7.6z"/><path d="m179.75 140.15c-5 1.42-2.1 9 2.92 7.6s2.1-9-2.92-7.6z"/><path d="m114.24 264.44c-5 1.41-2.1 9 2.91 7.59s2.1-9.03-2.91-7.59z"/><path d="m211.44 258.37c-5 1.42-2.1 9 2.91 7.6s2.1-8.97-2.91-7.6z"/><path d="m212.89 185.76c-5 1.41-2.1 9 2.91 7.59s2.1-9-2.91-7.59z"/></g></g></svg>