<svg height="512" viewBox="0 0 512 512" width="512" xmlns="http://www.w3.org/2000/svg" xmlns:xlink="http://www.w3.org/1999/xlink"><clipPath id="a"><rect height="48.96" rx="6.03" transform="matrix(.961 .277 -.277 .961 72.59 -56.63)" width="70.96" x="201.33" y="204.24"/></clipPath><path d="m360.75 420-266.13-67.56a11.39 11.39 0 0 1 -8.17-11.84l24-253.18c.85-8.91 6.91-14.87 13.54-13.19l351.67 89.3c6.63 1.68 8.9 9.76 5.14 17.93l-106.94 232.12a11.84 11.84 0 0 1 -13.11 6.42z" fill="#6e3d1e"/><path d="m328.3 411.78-258.57-65.66a11.82 11.82 0 0 1 -8.45-11.91l16.72-255.02c.59-9 6.44-15 13.07-13.32l341.68 86.77c6.63 1.68 9.17 9.83 5.74 18.08l-97.49 234.53a11.26 11.26 0 0 1 -12.7 6.53z" fill="#955d43"/><g fill="#6e3d1e"><path d="m68.48 224.65 8.19 22 24.83-7.84-19.22 24.84q36.28 21.75 69.48 43.16a560.46 560.46 0 0 0 41.68-65.65l13.28-28.91-65.89-50.5-67.31-13.89z"/><path d="m294.25 242.24s24.1 56.17 79 85.5l24.46-59.65-57.65-61.6z"/><path d="m62 322.75 35.66-15.94 18.2 51-55.23-13.53z"/><path d="m197.8 378.58a136.71 136.71 0 0 0 -5-50.09l75.68-3.35 2.23 10.23-43 51.26z"/><path d="m351.49 146.6-11.57-2.41c2.32-11.17 3.39-27.95-4.76-44.46-13.28-26.95-47.66-42.86-80-37-35.32 6.39-52.78 36.88-55.92 42.93l-10.5-5.45c3.59-6.91 23.56-41.74 64.31-49.12 36.25-6.57 76.44 10.47 92.68 43.41 9.67 19.5 8.47 39.12 5.76 52.1z"/></g><path d="m342.93 146.6-11.57-2.41c2.33-11.17 3.39-27.95-4.75-44.46-13.29-26.95-47.67-42.86-80-37-35.32 6.39-52.78 36.88-55.92 42.93l-10.49-5.45c3.59-6.91 23.55-41.74 64.3-49.12 36.28-6.57 76.5 10.47 92.71 43.41 9.63 19.5 8.43 39.12 5.72 52.1z" fill="#d48f6e"/><rect fill="#d7981a" height="29.1" rx="1.8" transform="matrix(.875 .483 -.483 .875 68.94 -84.9)" width="28.47" x="184.99" y="76.78"/><rect fill="#efbd42" height="29.1" rx="1.8" transform="matrix(.875 .483 -.483 .875 67.48 -83.33)" width="25.95" x="182.47" y="74.72"/><rect fill="#d7981a" height="29.1" rx="1.8" transform="matrix(1 .006 -.006 1 .84 -2.21)" width="28.47" x="329.9" y="114.85"/><rect fill="#efbd42" height="29.1" rx="1.8" transform="matrix(1 .006 -.006 1 .84 -2.18)" width="25.95" x="326.86" y="114.85"/><path d="m85.93 71.37c1.57 19.11 9.4 85 63.11 131.53 67.75 58.74 168 51.75 232.31 13.26a195.37 195.37 0 0 0 57.81-53.57c-79.74 71.61-188.38 85.54-264.66 38.72-65.5-40.22-84.24-111.2-88.57-129.94z" fill="#6e3d1e"/><path d="m303.7 194s-1.27 100.18 79.89 125.54l48.19-38s-64.68-44.38-64-107.79z" fill="#86ebf9"/><path d="m145.71 293.28-60.43-36.23a605 605 0 0 0 67.25-112.19l60.47 36.23a351.2 351.2 0 0 1 -67.29 112.19z" fill="#86ebf9"/><path d="m102.8 232.68-3.8 5.43a291.43 291.43 0 0 0 107.73-55.36c-1.35-2.6-2.71-5.19-4.06-7.78l-7.81-4.74 5.39 11s-61.86 40.21-97.45 51.45z" fill="#40c2d6"/><path d="m306.67 222.53s29.33 41.14 104.57 41.52l-4.4-4.48s-69.39-8.27-101.84-47.32z" fill="#40c2d6"/><path d="m381.77 310.55c-28.89-10.4-49.42-32.57-61-65.88a170.88 170.88 0 0 1 -8.85-44.45.5.5 0 0 1 .34-.51c50.79-16.09 47.52-15.15 47.82-15a.49.49 0 0 1 .22.37c4.87 47.54 42.19 83.06 58 96.12a.5.5 0 0 1 0 .78c-37.5 29.63-36.13 28.71-36.53 28.57zm-68.85-110a169.9 169.9 0 0 0 8.78 43.81c11.46 32.9 31.7 54.83 60.15 65.16l35.33-27.89c-16.11-13.4-52.72-48.66-57.83-95.79z" fill="#fff"/><path d="m144 282.85c-.21 0 3.15 2-46.55-27.82a.51.51 0 0 1 -.15-.73 614.86 614.86 0 0 0 58.48-97.55.52.52 0 0 1 .31-.27c.33-.09-2.88-1.91 46.69 27.81a.49.49 0 0 1 .21.61 342.31 342.31 0 0 1 -58.61 97.77.49.49 0 0 1 -.38.18zm-45.56-28.4 45.46 27.25a341.47 341.47 0 0 0 58-96.78l-45.46-27.25a616.4 616.4 0 0 1 -58.02 96.78z" fill="#fff"/><circle cx="152.86" cy="224.65" fill="#eaeaea" r="16.5"/><path d="m280.59 456.36-68 6.08a586.59 586.59 0 0 0 -11.28-126.3l68-6.08a340.22 340.22 0 0 1 11.28 126.3z" fill="#86ebf9"/><path d="m220.88 453.94a.5.5 0 0 1 -.5-.5 595.68 595.68 0 0 0 -9.81-109.82.51.51 0 0 1 .09-.4c.21-.27-3.31.13 52.47-4.85a.51.51 0 0 1 .53.37 332.28 332.28 0 0 1 9.84 110.08.51.51 0 0 1 -.46.46zm-9.23-110a597.51 597.51 0 0 1 9.73 108.92l51.15-4.57a330.85 330.85 0 0 0 -9.73-108.91z" fill="#fff"/><circle cx="247.04" cy="398.5" fill="#eaeaea" r="16"/><path d="m86.93 457.45 60.07-29.26a574.06 574.06 0 0 1 -54.27-111.59l-60.11 29.26a333.24 333.24 0 0 0 54.31 111.59z" fill="#86ebf9"/><path d="m89.06 447.55a325 325 0 0 1 -47.34-97.26.5.5 0 0 1 .26-.59l46.02-22.41a.5.5 0 0 1 .69.27 583.34 583.34 0 0 0 47.22 97 .51.51 0 0 1 .05.4c-.09.33 3-1.29-46.3 22.72a.5.5 0 0 1 -.6-.13zm-46.26-97.13a324.06 324.06 0 0 0 46.83 96.2l45.17-22a585.32 585.32 0 0 1 -46.8-96.19z" fill="#fff"/><circle cx="85.84" cy="392" fill="#eaeaea" r="15.66"/><path d="m82.81 238.83-31-63.25a604.76 604.76 0 0 0 117.38-57.58l31.05 63.25a350.89 350.89 0 0 1 -117.43 57.58z" fill="#86ebf9"/><path d="m81.28 164-7.28 3a378.38 378.38 0 0 0 104.72-2.3l-2.26-31.88-5.7-11.62v37.5s-45.33 9.35-89.48 5.3z" fill="#40c2d6"/><path d="m86.85 228.94-23.78-48.45a.5.5 0 0 1 .27-.69 614.73 614.73 0 0 0 102.11-50.11.51.51 0 0 1 .4-.05c.33.09-1.38-3.17 24.09 48.71a.49.49 0 0 1 -.16.62 342.4 342.4 0 0 1 -102.34 50.23.5.5 0 0 1 -.59-.26zm-22.64-48.4 23.35 47.58a341.35 341.35 0 0 0 101.29-49.71l-23.35-47.58a616.25 616.25 0 0 1 -101.29 49.71z" fill="#fff"/><path d="m170.79 158.7a253.83 253.83 0 0 1 -119 0v-66.12a277 277 0 0 0 119 0z" fill="#86ebf9"/><path d="m60.15 152.41a.5.5 0 0 1 -.4-.49c0-52.46-.09-49.14.18-49.37a.56.56 0 0 1 .41-.11 284.45 284.45 0 0 0 101.87 0 .5.5 0 0 1 .59.5v49a.49.49 0 0 1 -.39.49 244.26 244.26 0 0 1 -102.26-.02zm.6-.89a243.37 243.37 0 0 0 101.05 0v-48a285.66 285.66 0 0 1 -101.05 0z" fill="#fff"/><circle cx="107.82" cy="130.12" fill="#eaeaea" r="16.5"/><circle cx="124.33" cy="186.73" fill="#eaeaea" r="16.5"/><circle cx="361.02" cy="257.6" fill="#eaeaea" r="15.31"/><path d="m297.24 203.3s60.76 79.7 140.28 49.7l14.48-59.69s-78.29 4.88-116.85-45.45z" fill="#86ebf9"/><path d="m401.27 251.74c-20 0-40.14-6.55-60-19.47a172.16 172.16 0 0 1 -33.78-29.16.51.51 0 0 1 0-.62l28.07-41a.51.51 0 0 1 .78-.07c33 34.19 84.36 39.32 104.92 39.94a.51.51 0 0 1 .38.2c.22.3.85-2.71-10.78 45.07a.5.5 0 0 1 -.33.36 95.24 95.24 0 0 1 -29.26 4.75zm28.67-5.64 10.65-43.78c-21-.7-71.63-6.06-104.57-39.78l-27.51 40.2c38.58 43.31 77.71 48 92.76 48a92.93 92.93 0 0 0 28.67-4.64z" fill="#fff"/><circle cx="376.33" cy="217.64" fill="#eaeaea" r="15.31"/><path d="m89.85 98.21s7.55 38.09 27.1 67.5 47.59 49.81 73.87 63.83l10.88-21.39-96.85-109.94z" fill="#40c2d6"/><path d="m311.52 242.24c39.41-4.93 75.12-23 103.18-51.53l-60.4-11.29-65.24 31.3 19.88 22.28z" fill="#40c2d6"/><path d="m244 231.54c149.94 25.34 194.77-72.15 195.17-73a9.17 9.17 0 0 0 -6.37-5.86c-4.09-1-340.92-86.58-341.88-86.8l-5 1.55s7.43 138.65 158.08 164.11z" fill="#d48f6e"/><rect fill="#d7981a" height="56.68" rx="6.03" transform="matrix(.961 .277 -.277 .961 72.59 -56.63)" width="82.15" x="195.73" y="200.38"/><g clip-path="url(#a)"><rect fill="#efbd42" height="48.96" rx="6.03" transform="matrix(.961 .277 -.277 .961 72.59 -56.63)" width="70.96" x="201.33" y="204.24"/><path d="m202.78 244.39 6.81 2 47.08-37.39 5.88 1.69-48.55 37 5.74 1.65 47-37 4-4.1-8.65-3.77-6.5-.59z" fill="#eaeaea"/></g></svg>