<svg height="512" viewBox="0 0 512 512" width="512" xmlns="http://www.w3.org/2000/svg" xmlns:xlink="http://www.w3.org/1999/xlink"><clipPath id="a"><path d="m112.74 216.64h36.8v78.12h-36.8z"/></clipPath><path d="m282.62 478.22-10.3-2.52a5.76 5.76 0 0 1 -4.46-7.08l20.54-71.4a6.35 6.35 0 0 1 7.68-4.11l10.3 2.52a5.77 5.77 0 0 1 4.46 7.09l-20.54 71.39a6.35 6.35 0 0 1 -7.68 4.11z" fill="#287eef"/><path d="m404.11 482.13 9.48-1.75a5.79 5.79 0 0 0 4.58-6.73l-12.9-72.65a5.69 5.69 0 0 0 -6.6-4.67l-9.48 1.75a5.79 5.79 0 0 0 -4.57 6.73l12.9 72.69a5.68 5.68 0 0 0 6.59 4.63z" fill="#287eef"/><path d="m400.69 455.25-115.61-4.33.71-16.03 115.6 4.33z" fill="#287eef"/><path d="m279.19 429.24 23.33 2.4 3.62-12.63h-24.82z" fill="#1573d8"/><path d="m389.96 434.89h21.33l-2.47-13.17h-21.2z" fill="#1573d8"/><path d="m296.84 451.36h-17.65l14.44 11.17z" fill="#1573d8"/><path d="m393.57 455.25h12.66l-10.39 12.79z" fill="#1573d8"/><path d="m441.44 128.55s22.4-5.35 27.71 33.37-22.4 162 17.73 190.29h-96.78l-25.38-168.21s38.95-59 76.72-55.45z" fill="#40c2d6"/><path d="m271.19 161.92h176.59v256.24h-176.59z" fill="#287eef"/><path d="m420.78 423-178.78-5.28a886.69 886.69 0 0 0 12.4-255.8h176.6a1466.46 1466.46 0 0 1 -10.22 261.08z" fill="#86ebf9"/><path d="m254.37 161.92s-15.37-20.92 16.82-33.37h170.25s-22.15 8.79-10.49 33.37z" fill="#86ebf9"/><path d="m431.12 162.92h-176.75a1 1 0 0 1 0-2h176.75a1 1 0 0 1 0 2z" fill="#40c2d6"/><g fill="#2d1929"><path d="m291.37 216.46h-17a.5.5 0 0 1 -.5-.5v-17.28a.5.5 0 0 1 .5-.5h17a.5.5 0 0 1 .5.5v17.32a.5.5 0 0 1 -.5.46zm-16.47-1h16v-16.28h-16z"/><path d="m331.13 210.34c-5.14 0-3.41-5-7.15-7.49-3.26-2.17-15.29 4.54-19.65 7.31a.49.49 0 0 1 -.69-.16.5.5 0 0 1 .15-.69c1.67-1.05 16.35-10.22 20.74-7.29s1.91 8.1 7.87 7.22c6.29-.92 15.83-11.78 21.15-7.7 5.06 3.89 5.27 8 12 5.31 7.05-2.75 12.6-9.08 17.41-6.15s4.17 10.17 13 6.17a.49.49 0 0 1 .66.24.51.51 0 0 1 -.25.67c-9.56 4.34-9.64-3.63-13.9-6.23s-9.47 3.45-16.55 6.24c-7.39 2.88-8.18-1.77-13-5.45s-14.59 8-21.79 8z"/><path d="m293.49 252.6h-17a.5.5 0 0 1 -.5-.5v-17.28a.5.5 0 0 1 .5-.5h17a.5.5 0 0 1 .5.5v17.28a.5.5 0 0 1 -.5.5zm-16.47-1h16v-16.28h-16.02z"/><path d="m333.24 246.48c-5.13 0-3.4-5-7.15-7.49-3.26-2.17-15.29 4.54-19.65 7.31a.49.49 0 0 1 -.69-.16.51.51 0 0 1 .16-.69c1.66-1 16.35-10.21 20.73-7.29 4.55 3 1.87 8.1 7.88 7.22 6.28-.92 15.82-11.79 21.14-7.7 5 3.88 5.27 7.94 12 5.31 7.09-2.77 12.59-9.09 17.41-6.15s4.18 10.16 12.93 6.16a.51.51 0 0 1 .67.25.5.5 0 0 1 -.25.66c-9.57 4.35-9.64-3.62-13.9-6.22s-9.45 3.47-16.53 6.23c-7.39 2.89-8.17-1.76-13-5.45s-14.54 8.01-21.75 8.01z"/><path d="m295.6 288.74h-17a.5.5 0 0 1 -.5-.5v-17.24a.5.5 0 0 1 .5-.5h17a.5.5 0 0 1 .5.5v17.28a.5.5 0 0 1 -.5.46zm-16.47-1h16v-16.28h-16z"/><path d="m335.35 282.62c-5.13 0-3.4-5-7.15-7.49-3.25-2.17-15.28 4.54-19.64 7.3a.5.5 0 1 1 -.54-.84c1.66-1 16.35-10.22 20.74-7.29s1.91 8.1 7.87 7.22c6.28-.92 15.82-11.78 21.14-7.7 5.06 3.88 5.28 7.94 12 5.31 7.09-2.77 12.59-9.09 17.41-6.16s4.17 10.17 13 6.17a.5.5 0 0 1 .41.91c-9.57 4.35-9.64-3.63-13.9-6.22s-9.45 3.47-16.53 6.23c-7.38 2.89-8.17-1.76-13-5.45s-14.62 8.01-21.81 8.01z"/><path d="m297.72 324.88h-17a.5.5 0 0 1 -.5-.5v-17.29a.5.5 0 0 1 .5-.5h17a.51.51 0 0 1 .5.5v17.29a.51.51 0 0 1 -.5.5zm-16.47-1h16v-16.29h-16z"/><path d="m297.72 358.25h-17a.5.5 0 0 1 -.5-.5v-17.28a.5.5 0 0 1 .5-.5h17a.5.5 0 0 1 .5.5v17.28a.5.5 0 0 1 -.5.5zm-16.47-1h16v-16.25h-16z"/><path d="m337.47 318.76c-5.14 0-3.41-5-7.15-7.49-3.26-2.17-15.29 4.54-19.65 7.3a.5.5 0 0 1 -.69-.15.49.49 0 0 1 .16-.69c1.66-1.06 16.35-10.22 20.73-7.29s1.91 8.09 7.88 7.22c6.27-.92 15.82-11.79 21.14-7.7 5.06 3.88 5.28 7.94 12 5.31 7.05-2.75 12.61-9.09 17.41-6.16s4.17 10.17 13 6.17a.5.5 0 0 1 .42.91c-9.57 4.35-9.65-3.63-13.91-6.22s-9.44 3.46-16.52 6.23c-7.39 2.89-8.18-1.77-13-5.45s-14.62 8.01-21.82 8.01z"/><path d="m185.13 200s-1.49 26 5.63 37.15-6.67 22.31-2.88 31.37 14.74 15.56 8.23 27.69-26.24 12-26.24 12l-39.45-15.68 10.52-60.53z"/></g><g clip-path="url(#a)"><path d="m112.74 216.64h36.8v78.12h-36.8z" fill="#e39c76"/><path d="m114 237.41c5.73 19.2 21.69 31.72 40.84 34.48l-.84-25.37z" fill="#d48f6e"/></g><path d="m135.56 270.71c12.59 0 32.34 2.11 44.3 16 10.8 12.56 7 24.6 28.29 86.27l42.42-14.62 5.66 11.55c-1.28 1.68-3 3.95-5.19 6.6-21 26-36.82 45.47-51.38 45.49-18.89 0-32.84-32.76-42.89-56.1-8.56-19.82-19.41-51.97-21.21-95.19z" fill="#917eec"/><path d="m208.15 373s-15.41 30.36-11.71 48.29a25.52 25.52 0 0 0 6.48 1.35c14.37.51 35.55-21.36 35.55-21.36a286.25 286.25 0 0 0 30.17-36.93 33.59 33.59 0 0 0 20.43-15.87l-19.17-9.42z" fill="#e39c76"/><path d="m208.15 373-1.6-4.7s-27.63 17.42-29 33.21 7.77 15.31 7.77 15.31 4.88 10.45 17.64 5.82c-.04 0-9.19-23.01 5.19-49.64z" fill="#eaeaea"/><path d="m279.51 340.65a15 15 0 0 1 8.83 1.53 14.78 14.78 0 0 1 4.19 3.3c.47.52 5.24 5.8 3.72 9.61-1.07 2.67-3.52 1-5.18-1.47.25 3.21-.95 6.47-3.33 4.39-1.32-1.15-.62-2.79-1.83-4.11a3.66 3.66 0 0 0 -2-1.06 14.52 14.52 0 0 1 -20.41 3.05z" fill="#e39c76"/><path d="m298.25 350.93-52.79.38a3.83 3.83 0 0 1 -3.21-4.21 3.68 3.68 0 0 1 3.16-3.45l52.79-.38z" fill="#e73f46"/><path d="m298.25 350.93 9.87-3.9-9.92-3.76s-5.2 3.65.05 7.66z" fill="#efbd42"/><path d="m261.75 343.53s8.89-8.24 14.65-7.38 22.9 4 21.81 6.05-16.77 1.33-16.77 1.33z" fill="#e39c76"/><path d="m259.88 351.9c16.43-7.17 20.41-10.52 21.92-9.07 1.33 1.27-1 5.75-1.18 6.13a15.22 15.22 0 0 1 -3.42 4.24c-4.9 4.54-7.35 6.81-10.13 6.48-4.65-.56-7.07-7.3-7.19-7.78z" fill="#e39c76"/><path d="m273.3 357.24a.5.5 0 0 1 -.35-.86l6.05-5.81a.49.49 0 0 1 .7 0 .5.5 0 0 1 0 .71c-6.51 6.25-6.11 5.96-6.4 5.96z" fill="#2d1929"/><path d="m291.07 354.12a.5.5 0 0 1 -.5-.47 15.33 15.33 0 0 0 -1.34-2 .51.51 0 0 1 .11-.7.5.5 0 0 1 .7.11 7.94 7.94 0 0 1 1.53 2.57.51.51 0 0 1 -.5.49z" fill="#2d1929"/><path d="m277.15 343.23c2.16-1.29 5.29-2.21 5.51.29a.5.5 0 0 1 -1 .09c0-.45-.23-.55-.3-.59-.71-.36-2.59.41-3.69 1.07a.5.5 0 0 1 -.52-.86z" fill="#2d1929"/><path d="m176.87 243.48c-4.61 10.78-8.52 15.38-11.37 17.21-10.89 7-26-1-31.65-4a64.92 64.92 0 0 1 -13.85-10.16c-7.69-6.25-25.31-23.28-25.55-48.64 0-5.43-.26-27.31 16.69-40 14.72-11 36.51-10.78 49.64-1.17a44.16 44.16 0 0 1 9.65 8.39c9.12 8.71 7.72 18.45 8.9 31.22.47 5.17 2.37 10 3.36 17.86s.14 15.36-5.82 29.29z" fill="#e39c76"/><path d="m160.78 224.93c2.6-1.45 3.93-2.92 4-4.36.07-3.31-6.6-4-8.77-15.86a.5.5 0 0 1 1-.18c2.18 11.86 8.88 11.87 8.79 16.06 0 1.82-1.54 3.58-4.47 5.22a.5.5 0 0 1 -.55-.88z" fill="#2d1929"/><path d="m170.3 210.36c-1.86.16-3.56-2-3.8-4.91s1.07-5.33 2.93-5.48 3.56 2 3.8 4.91-1.07 5.33-2.93 5.48z" fill="#2d1929"/><path d="m141.38 212.78c-1.86.16-3.56-2-3.8-4.91s1.07-5.33 2.93-5.48 3.55 2 3.8 4.91-1.08 5.33-2.93 5.48z" fill="#2d1929"/><path d="m159 190.72a1 1 0 0 1 -.65-1.75c.08-.07 7.63-6.42 16.19-1.54a1 1 0 0 1 .38 1.36 1 1 0 0 1 -1.37.38c-7.35-4.2-13.83 1.26-13.89 1.31a1 1 0 0 1 -.66.24z" fill="#2d1929"/><path d="m130.42 194a1 1 0 0 1 -.74-1.68c6.71-7.22 15.82-3.41 15.91-3.37a1 1 0 1 1 -.79 1.83c-.33-.14-7.92-3.27-13.65 2.9a1 1 0 0 1 -.73.32z" fill="#2d1929"/><path d="m117.58 271.34c-11.6 1.44-24.43 3-34.35 12.1-21.78 19.93-7.3 54.15-11.38 169.38l99.06.31c6-37.48 9.08-68.79 10.84-91.45 4.32-55.72 1.16-68.68-8-77.77-17.49-17.34-49.43-13.4-56.17-12.57z" fill="#2d1929"/><path d="m72.86 414.48a506 506 0 0 0 112-3.86l10.71 71.26q-67.57 1.12-138.26-1.57 7.77-32.91 15.55-65.83z" fill="#2d1929"/><path d="m117.58 271.34s-34.17-.44-46.75 18.32c-27.58 41.14-56.07 93.93-33.83 114.45 18.17 16.73 65.32 7.35 109.36-28.76l-5.66-21.68-63.59 13.67 29.56-61.75s20.74-4.38 10.91-34.25z" fill="#917eec"/><path d="m112.74 271.34s8.91 16.35 21.17 16.82 15.63-16.46 15.63-16.46a76 76 0 0 0 -36.8-.36z" fill="#e39c76"/><path d="m149.54 271.7a530.54 530.54 0 0 1 5.66 183 36.06 36.06 0 0 0 34.68-10.7c-10.88-95.72 9.7-134.18-12.88-158.44-8.55-9.24-20-12.5-27.46-13.86z" fill="#917eec"/><path d="m63.91 325.39a144.48 144.48 0 0 1 8 40.06 152.15 152.15 0 0 1 -.31 20c-1 14.2-2.94 35.85-7.15 64.65a136.66 136.66 0 0 0 63.24 9.2c-3.59-59.51-3.8-88.39-3-103.23a309.1 309.1 0 0 0 -4.94-75.5z" fill="#917eec"/><path d="m77.11 367.34 73.89-16.18q3.09 11.34 6.17 22.7a251.23 251.23 0 0 1 -31.95 19.82c-16.41 8.55-32.4 16.69-54.19 18.2a100.42 100.42 0 0 1 -14 0 52.74 52.74 0 0 1 .56-18.48c1.9-9.85 6.91-20.99 19.52-26.06z" fill="#e39c76"/><path d="m77.11 367.34s-2.36-2.83-5.19-2 2.2.15 5.19-8c-1.88.39-33.73 7.38-39.13 29.7-2.25 9.34-.11 23.35 6.29 25.92a15 15 0 0 0 12.8-1c-2.14-17.66 5.51-34.18 20.04-44.62z" fill="#eaeaea"/><path d="m145.2 157.59s-13.15.8-11.2 16-10 19.89-16.86 18.71-3 13.87-12.28 18.1 8.93 19 11.49 34.91c1.61 10 2.6 26.25-6.76 32.1-7.43 4.64-17.57.57-20.46-.7a102 102 0 0 0 -26.64 25.85c-8.07-14.69-7.3-23.27-4.81-28.47 4-8.25 13-9.58 14.2-18 .81-5.45-2.77-6.38-5.55-15.75-.3-1-6.15-21.78 4.44-33.82 2.38-2.72 3-1.75 5.51-4.71 4.16-4.92 6.52-12.47 8-27.51 2.07-20.71 30.39-48.22 60.9-29 0 0 21.38-7.69 34.08 8s2 27.3 8 36.42-4.26 26.28-4.26 26.28a82.83 82.83 0 0 1 -7.85-30.12c-.27-4.73.07-6.8-.94-9.9-3.5-10.7-17.28-15.76-29.01-18.39z" fill="#2d1929"/><path d="m107.36 222.93c-5.71 2.31-12.61-1.45-15.41-8.38s-.44-14.43 5.26-16.74 12.61 1.45 15.42 8.39.44 14.42-5.27 16.73z" fill="#e39c76"/><path d="m107.88 216.47a4.89 4.89 0 0 1 -4.25-4.31c-.22-2.27 2.46-3.21 3.73-3.52-.83-1.7-3.65-6.72-7.46-6.55s-3.55 4.35-3.55 4.52a.5.5 0 0 1 -1 0c-.07-1.84.78-5.37 4.5-5.55 5.28-.26 8.55 7.38 8.69 7.7a.5.5 0 0 1 -.38.69s-3.72.61-3.54 2.58a3.94 3.94 0 0 0 3.39 3.41.5.5 0 0 1 -.13 1.03z" fill="#2d1929"/><path d="m146.4 232.84h18.84a9.42 9.42 0 0 1 -18.84 0z" fill="#eaeaea"/><path d="m77.11 357.28 13-31.19a26.29 26.29 0 0 0 10.6-19.79s3.89 13.31-7.77 22.39z" fill="#6d5fde"/><path d="m177.51 298.2 8 21.22c8.18 9.38 9.16 22.05 3.57 33l-2.63 33.31-1.1-31.11c4.91-11.63 3.45-24.21-3.14-34.8z" fill="#6d5fde"/><path d="m69.25 412.13-4.79 37.93s15.24 6.12 26.91 7.68c0 0-12.85-9.66-8.61-22.81s42-35.39 42-35.39l-.16-5.53s-33.6 18.37-55.35 18.12z" fill="#6d5fde"/><path d="m186.46 385.72s-11 31.27-5.81 43.37-6.86 23.91-11.76 26.11c0 0 11.37.56 21-11.2z" fill="#6d5fde"/><circle cx="199.77" cy="99.54" fill="#d7981a" r="35.9"/><circle cx="206.73" cy="99.21" fill="#efbd42" r="35.9"/><path d="m192.84 91.26c-1.11-6.51 3-11.31 9.06-13.12l-.77-4.55a1.23 1.23 0 1 1 2.42-.41l.76 4.45a12.41 12.41 0 0 1 6.77.85c5.52 2.38 8.74 11.13 3 12.11a1.79 1.79 0 0 1 -1.94-1.59c-1-5.82-3.44-8.6-7.31-8.32l2.76 16.2c3.37 1.26 5.61 2.2 6.78 2.76 3.14 1.51 5.59 3.73 6.24 7.53 1.13 6.6-3 11.3-9 13.12l.78 4.55a1.23 1.23 0 0 1 -2.43.41l-.75-4.41a12.7 12.7 0 0 1 -6.77-.89c-5.59-2.41-8.75-11.13-3-12.11a1.79 1.79 0 0 1 1.94 1.61 13.77 13.77 0 0 0 2.72 6.23 5.46 5.46 0 0 0 4.61 2.23l-2.59-15.19c-5.82-2.53-12.17-5.1-13.25-11.44m12.06 4.43-2.46-14.38a6.83 6.83 0 0 0 -3.63 7.34c.61 3.6 3 5.63 6.09 7m6.15 21.45a7.28 7.28 0 0 0 3.57-7.34c-.46-2.69-2.77-4.41-5.82-5.87z" fill="#eaeaea"/><path d="m172.84 335.7c4-.81 17.59-4.71 18-2s-12.84 7.82-12.84 7.82 3 2.41 2.93 4.18a3.94 3.94 0 0 1 -1.15 2.69s2.74.44 3 2.6a4.29 4.29 0 0 1 -1.49 3.55s3 1.93 2.5 4.28-4.81 8.65-8.7 7.64c-.62 1.07-4.93 8.24-13.05 9.24a13.29 13.29 0 0 1 -7.7-1c-9.35-4.57-11.19-21.62-11.19-21.62s25.54-16.55 29.69-17.38z" fill="#e39c76"/><path d="m247.02 71.52 30.03-9.35-3.26-7.08z" fill="#86ebf9"/><path d="m250.87 85.59 29.35 11.29 1.84-7.57z" fill="#86ebf9"/><path d="m233.06 60.92 19.14-24.26-6.2-4.43q-6.5 14.34-12.94 28.69z" fill="#86ebf9"/></svg>