<svg height="512" viewBox="0 0 512 512" width="512" xmlns="http://www.w3.org/2000/svg" xmlns:xlink="http://www.w3.org/1999/xlink"><clipPath id="a"><path d="m136.65 420.25h-38.32c-30.75 0-58.87-26-63.2-61.26l-4.13-33.38h173.5l-4 32.71c-4.38 35.68-32.78 61.93-63.85 61.93z"/></clipPath><clipPath id="b"><ellipse cx="117.77" cy="325.61" rx="86.73" ry="14.87"/></clipPath><path d="m423.37 438.48-294.37-51.38 47.43-271.75 294.37 51.39z" fill="#40c2d6"/><path d="m380.82 447.36-325.36-71.49a1522.65 1522.65 0 0 0 60-270.18l327 59.06a771.91 771.91 0 0 1 -61.64 282.61z" fill="#86ebf9"/><path d="m119 113h359.68v58.57h-359.68z" fill="#cc3745" transform="matrix(.985 .172 -.172 .985 28.92 -49.27)"/><path d="m109.83 109.18h334.26v58.57h-334.26z" fill="#e73f46" transform="matrix(.985 .172 -.172 .985 27.93 -45.56)"/><circle cx="154.74" cy="126.25" fill="#2d1929" r="10.87"/><path d="m155.11 130.72a5 5 0 0 1 -4.11-2.22c-12.6-18.87-9-50.43 10.2-61.62 21.67-12.65 39 4.45 37.51 27.68a5 5 0 1 1 -10-.65c.65-9.84-3.27-18.37-9.53-20.72-2.49-.94-6.74-1.3-12.89 2.28-12.62 7.36-17.77 31.35-7 47.48a5 5 0 0 1 -4.18 7.77z" fill="#efbd42"/><circle cx="208.87" cy="135.7" fill="#2d1929" r="10.87"/><path d="m209.25 140.17a5 5 0 0 1 -4.17-2.22c-12.59-18.87-9-50.43 10.21-61.62 21.67-12.65 39 4.45 37.51 27.68a5 5 0 1 1 -10-.65c.64-9.85-3.28-18.37-9.53-20.72-2.49-.94-6.75-1.3-12.89 2.28-12.62 7.36-17.77 31.35-7 47.48a5 5 0 0 1 -4.13 7.77z" fill="#efbd42"/><circle cx="353.56" cy="160.95" fill="#2d1929" r="10.87"/><path d="m353.93 165.43a5 5 0 0 1 -4.17-2.23c-12.59-18.88-9-50.44 10.21-61.62 21.67-12.65 39 4.46 37.51 27.68a5 5 0 0 1 -10-.64c.65-9.85-3.27-18.37-9.53-20.73-2.49-.94-6.74-1.3-12.89 2.29-12.7 7.4-17.71 31.41-7 47.47a5 5 0 0 1 -4.13 7.78z" fill="#efbd42"/><circle cx="407.69" cy="170.4" fill="#2d1929" r="10.87"/><path d="m408.07 174.88a5 5 0 0 1 -4.17-2.23c-12.6-18.88-9-50.44 10.21-61.62 21.69-12.66 39 4.48 37.51 27.68a5 5 0 1 1 -10-.64c.64-9.85-3.28-18.37-9.53-20.73-2.49-.93-6.74-1.3-12.89 2.28-12.58 7.34-17.8 31.29-7 47.48a5 5 0 0 1 -4.13 7.78z" fill="#efbd42"/><g fill="#40c2d6"><path d="m138.98 173.61h62.6v39.72h-62.6z" transform="matrix(.985 .172 -.172 .985 35.8 -26.4)"/><path d="m233.19 190.05h62.6v39.72h-62.6z" transform="matrix(.985 .172 -.172 .985 40.03 -42.35)"/><path d="m327.4 206.5h62.6v39.72h-62.6z" transform="matrix(.985 .172 -.172 .985 44.26 -58.31)"/><path d="m126.96 242.45h62.6v39.72h-62.6z" transform="matrix(.985 .172 -.172 .985 47.46 -23.31)"/><path d="m221.17 258.89h62.6v39.72h-62.6z" transform="matrix(.985 .172 -.172 .985 51.69 -39.26)"/><path d="m315.38 275.34h62.6v39.72h-62.6z" transform="matrix(.985 .172 -.172 .985 55.92 -55.21)"/><path d="m114.95 311.29h62.6v39.72h-62.6z" transform="matrix(.985 .172 -.172 .985 59.12 -20.21)"/><path d="m209.16 327.73h62.6v39.72h-62.6z" transform="matrix(.985 .172 -.172 .985 63.35 -36.17)"/><path d="m303.37 344.18h62.6v39.72h-62.6z" transform="matrix(.985 .172 -.172 .985 67.58 -52.12)"/></g><ellipse cx="119.27" cy="414.38" fill="#917eec" rx="88.23" ry="26.21"/><ellipse cx="118.04" cy="411.69" fill="#6d5fde" rx="71.33" ry="21.17"/><path d="m210.42 392.67a30 30 0 1 1 30-30 30.07 30.07 0 0 1 -30 30zm0-51.08a21 21 0 1 0 21 21 21.07 21.07 0 0 0 -21-21z" fill="#917eec"/><g clip-path="url(#a)"><path d="m136.65 420.25h-38.32c-30.75 0-58.87-26-63.2-61.26l-4.13-33.38h173.5l-4 32.71c-4.38 35.68-32.78 61.93-63.85 61.93z" fill="#917eec"/><path d="m144 333.75s38.3 6.81 31.75 39.18-15.62 46.49-47.37 50.52l44.29 1.85 43.9-45.78 5.54-68.77-17.61-7.75z" fill="#6d5fde"/></g><g clip-path="url(#b)"><ellipse cx="117.77" cy="325.61" fill="#6e3d1e" rx="86.73" ry="14.87"/><ellipse cx="133.44" cy="325.61" fill="#834a27" rx="86.73" ry="14.87"/></g><path d="m123.27 234.14s-16.93 11.76-3.49 24.19-.85 27.49-.85 27.49 16-11.36 10.26-21.78-13.51-17.47-5.92-29.9z" fill="#eaeaea"/><path d="m100 254.59s-17 11.76-3.55 24.19-.84 27.48-.84 27.48 16-11.36 10.25-21.77-13.5-17.49-5.86-29.9z" fill="#eaeaea"/><path d="m149.21 257.45s-16.93 11.76-3.49 24.19-.85 27.49-.85 27.49 16-11.36 10.25-21.78-13.5-17.47-5.91-29.9z" fill="#eaeaea"/><ellipse cx="89.23" cy="321.84" fill="#2d1929" rx="3.33" ry="1.32"/><ellipse cx="123.38" cy="328.16" fill="#2d1929" rx="5.6" ry="1.49"/><ellipse cx="122.47" cy="317.37" fill="#2d1929" rx="3.42" ry="1.05"/><ellipse cx="149.3" cy="322.46" fill="#2d1929" rx="5.7" ry="1.93"/><ellipse cx="171.48" cy="321.19" fill="#2d1929" rx="2.98" ry=".66"/><path d="m73.45 322.5c0 .87-7.89.87-7.89 0s7.89-.87 7.89 0z" fill="#2d1929"/></svg>