<svg height="512" viewBox="0 0 512 512" width="512" xmlns="http://www.w3.org/2000/svg" xmlns:xlink="http://www.w3.org/1999/xlink"><clipPath id="a"><path d="m137.84 172.57h54.92v127.83h-54.92z"/></clipPath><path d="m338.4 301.53 10.76-28.45s-2.51-26.63 0-33.89 15.08-12.11 15.08-12.11 8.67-42.22 15.4-43 0 41.69 0 41.69 12.64-1.62 11 7.93c0 0 10.35-1.21 7.53 7.53 0 0 9.14-2.95 8.07 6.19s-3.9 26.76-7.13 31.74-7.11 4.54-7.11 4.54l-7.4 24.48z" fill="#e39c76"/><path d="m173.42 249.54c7.5.1 18.35.48 31.36 1.81 15.93 1.62 23.9 2.42 27.77 4 25.3 10.09 21.93 48.12 60.59 120.46l53.37-90.88 39.67 16.59c-16.63 82.15-49.18 142.33-83.66 146.38-13.37 1.57-26-2.89-26-2.89-25.48-9-37.57-34.44-45.26-51.21-26.82-58.56-47.62-115.33-57.84-144.26z" fill="#2d1929"/><g clip-path="url(#a)"><path d="m137.84 172.57h54.92v127.83h-54.92z" fill="#e39c76"/><path d="m141.28 198.2c.69 4 4.63 24.86 24 38.18a57.65 57.65 0 0 0 33.72 9.92q-.33-17-.67-33.92z" fill="#d48f6e"/></g><path d="m170.88 254.74c23.52-2.74 55.68-2.85 72.31 16.21 14 16.06 5.33 32.33 5.95 92.53.6 57.93 9.38 115.43 9.38 115.43h-153l-5.58-168.48z" fill="#eaeaea"/><path d="m142.57 249.54s-62.21 25.79-75.19 48-20.56 167 17.31 181.4 162.83 0 162.83 0l-3.79-44.54-119.55-14.6 1.62-89.8s42.2-51.6 16.77-80.46z" fill="#2d1929"/><path d="m137.84 251.59s23.68 40.78 41.39 38.62 13.53-39.47 13.53-39.47-31.76-16.95-54.92.85z" fill="#e39c76"/><path d="m192.76 250.74a1105 1105 0 0 1 27.17 230.86l52.53-5.43c-11.54-76.9-14.24-114.18-14.3-133.94 0-11.93-1.3-23.84-2.53-35.7-3.38-32.78-7-39.43-11.9-44-7.65-7.17-18.15-9-28.13-10.82a86.3 86.3 0 0 0 -22.84-.97z" fill="#2d1929"/><path d="m137.84 251.59s24.11 21 27.68 87.39 7.9 142.62 7.9 142.62l-73.48-7.74 12.16-148.58z" fill="#2d1929"/><path d="m137.84 233s-8.43 3.68-9.87 10.49-6.51 15.79-6.51 15.79l28.14 46.93 15.92-15.88 15.64 11.37 14.61-19.3 14.42 14.79-5.14-46.65s-2.67-11.68-12.29-11.68a92.11 92.11 0 0 1 -.66 11.66c-1.62 13.27-5.61 25.12-14 36.87a135.27 135.27 0 0 1 -40.26-54.39z" fill="#eaeaea"/><path d="m102.87 337.36 6.66 19.32 1.7 61.29s-12.71 13-17.39 25.76c0 0 13.38-16.06 23.41-21.41l53 3.08-53-7.09-2.67-61.55.5-32.61-4.35 23.41z" fill="#eaeaea"/><path d="m251.16 301.53s1.29 113.31 15.89 136.87z" fill="#eaeaea"/><path d="m293.14 375.77s-12.48 33.43-4.46 53z" fill="#eaeaea"/><path d="m238.59 163.15c-1.47-11.69-4.27-18.79-5-26.44-1.74-18.9.32-33.32-13.17-46.2a65.94 65.94 0 0 0 -14.28-12.42c-19.44-14.22-51.68-14.61-73.46 1.73-25.06 18.82-24.76 51.18-24.68 59.23.35 37.54 26.43 62.73 37.81 72a96 96 0 0 0 20.56 15c8.35 4.44 30.72 16.31 46.85 5.93 4.21-2.72 10-9.53 16.82-25.48 8.82-20.6 10.01-31.66 8.55-43.35z" fill="#e39c76"/><g fill="#2d1929"><path d="m206.34 179.28c3.93-2.2 5.95-4.44 6-6.66.11-5.1-9.78-6.06-13-23.51a.5.5 0 1 1 1-.18c3.23 17.59 13.14 17.69 13 23.71-.05 2.6-2.24 5.13-6.5 7.51a.5.5 0 0 1 -.5-.87z"/><path d="m220.32 157.51c-2.75.23-5.27-3-5.62-7.28s1.58-7.88 4.33-8.11 5.27 3 5.62 7.28-1.58 7.88-4.33 8.11z"/><path d="m177.51 161.09c-2.75.23-5.27-3-5.62-7.28s1.58-7.88 4.33-8.11 5.27 3 5.63 7.28-1.59 7.88-4.34 8.11z"/><path d="m203.54 128a1 1 0 0 1 -.66-1.75c.11-.1 11-9.29 23.42-2.22a1 1 0 1 1 -1 1.73c-11.13-6.36-20.71 1.66-21.11 2a1 1 0 0 1 -.65.24z"/><path d="m183 130.52a1 1 0 0 1 -.65-.24c-.41-.34-10-8.36-21.12-2a1 1 0 0 1 -1-1.73c12.38-7.07 23.3 2.12 23.41 2.22a1 1 0 0 1 -.64 1.75z"/></g><path d="m159.44 296.35 6.08-6.06 16.29 12.28 13.96-20.21 4.57 4.69 1.42 7.58-5.9-4.34-12.92 14.88-15.81-8.91-6.21 6.49z" fill="#c6c6c6"/><path d="m178.67 301.53a368.57 368.57 0 0 1 14.68 126.81l4.08.38a264.05 264.05 0 0 0 -1.57-64.6c-4.21-27.95-13.41-60.54-13.3-60.54z" fill="#c6c6c6"/><path d="m232.49 481.1a94.93 94.93 0 0 0 27.09 1c17.6-1.93 24.88-8 36.79-3.91a50.2 50.2 0 0 0 12.21 2.89c10.33 1 13.12-2.18 13.83-3a6.16 6.16 0 0 0 1.06-1.92c1-2.73-18.57-21.27-31.61-26.88s-56.36-10.88-56.36-10.88z" fill="#e39c76"/><path d="m185.68 484.04 46.3-1.66v-28.95z" fill="#2d1929"/><path d="m233 437.21q-3.65 22.6-7.28 45.21l17.94-.13 1.71-44.23z" fill="#eaeaea"/><path d="m117.25 155.17s16.5 2.76 19.46-17.24 3.29-43.41 11-45.42 19.24 9.2 31.44 7.19 11.52-11.7 11.52-11.7c7.44 8.31 19.76 9.65 24.36-1a45.49 45.49 0 0 1 16.95 28c1-4 7.53-32-10.28-55.37-14.81-19.44-38.91-25.84-52.6-23.92-4.22.53-10.1 2.29-10.1 4.04s5.63 2 7 5.77c.75 2 0 4.16-.71 5.52-16.94-5.56-26.58-3.13-31.15-1.26-3.14 1.29-7.21 3.66-6.88 4.82s4.31 0 5.87 2.21.17 6.6.17 6.6c-9 1.55-37 7.54-48.84 29.27-16.07 29.55 1.54 81.13 53.38 111.21z" fill="#efbd42"/><path d="m127.17 176.11c-8.44 3.41-18.66-2.14-22.8-12.41s-.66-21.35 7.78-24.76 18.66 2.14 22.81 12.4.66 21.35-7.79 24.77z" fill="#e39c76"/><path d="m128 166.31c-.06 0-5.58-.82-6.09-6.16-.31-3.36 4-4.65 5.64-5-1.07-2.24-5.39-10.4-11.4-10.09-5.66.28-5.49 6.67-5.48 6.94a.5.5 0 0 1 -1 0c0-.08-.23-7.65 6.43-8 7.63-.38 12.43 10.79 12.63 11.27a.5.5 0 0 1 -.39.68c-.06 0-5.73.93-5.43 4.07.43 4.57 5.17 5.27 5.22 5.27a.5.5 0 0 1 -.13 1.02z" fill="#2d1929"/><path d="m187.6 191a25.73 25.73 0 0 0 20.4 4.35c-.88 7.21-3.91 13.14-7.53 13.71-4.31.69-10.97-6.06-12.87-18.06z" fill="#2d1929"/><path d="m340.23 295.59 43.45 17.56 4.56-15.33-42.49-16.14z" fill="#eaeaea"/><path d="m327.77 132c2.77 26.33 26.58 45.41 53.17 42.61s45.9-26.42 43.12-52.75a47.86 47.86 0 0 0 -30-39.42 11.29 11.29 0 0 1 -7.36-9.11l-1.07-10.19-32.48 3.36 1.21 11.5a8.88 8.88 0 0 1 -4.26 8.41 47.89 47.89 0 0 0 -22.33 45.59z" fill="#86ebf9"/><path d="m377.56 129.89c-3.39 0-6.39-7.41-2.71-12.42-2-2.93-5-5.73-8.45-4.8a9.26 9.26 0 0 0 -1.68.65c-1.29 8.67-3 15.25-5.17 15.41-5.89.44-3.25-11.85 4.23-16 1.32-8.85 2.58-22 3.39-40.32a.5.5 0 0 1 1 0c-.25 5.7-1.23 25.26-3.28 39.74 4.38-1.84 7.89.62 10.62 4.53 2.54-2.72 7.45-4.39 12.61-3-6.49-15.31-13.12-38.11-14.12-41.88a.5.5 0 0 1 1-.27c5.72 20.07 10.62 33.8 14.45 42.55a20.17 20.17 0 0 1 8.16 5.59c2.21 2.52 3.19 5 2.56 6.59a2.59 2.59 0 0 1 -2.45 1.52c-3.26.27-7.69-9.87-9-12.9-5.33-1.75-10.24 0-12.56 2.63 2.56 4 3.89 9 3.15 11.12a1.68 1.68 0 0 1 -1.75 1.26zm-2.14-11.53c-2.94 4.44-.11 10.87 2.32 10.51.16 0 .39-.11.55-.56.57-1.65-.55-6.13-2.87-9.95zm-11.84-4.36c-6.17 4.12-8.25 14-4.1 13.75 1.05-.1 2.61-4.22 4.1-13.75zm26.42 1.37c3.68 8.16 6.3 11.53 7.61 11.41 3.22-.25 1.34-4-.78-6.45a19.28 19.28 0 0 0 -6.83-4.96z" fill="#fff"/><path d="m352.52 46.36h32.9a0 0 0 0 1 0 0v19.58a9.47 9.47 0 0 1 -9.42 9.46h-12.82a10.66 10.66 0 0 1 -10.66-10.66v-18.38a0 0 0 0 1 0 0z" fill="#287eef" transform="matrix(-.995 .105 -.105 -.995 742.28 82.8)"/><path d="m376.72 262.44c.13-9.19-12.68-20.07-12.8-20.18a.5.5 0 0 1 .12-.84c5-2.1 17.86-8.32 17.65-11.89s-13.69-2.43-17.39-1.95a.5.5 0 0 1 -.13-1c4.61-.6 18.26-1.76 18.52 2.89s-13.77 10.93-17.52 12.53c2.63 2.35 12.67 11.85 12.55 20.44a.5.5 0 0 1 -1 0z" fill="#2d1929"/><path d="m394.23 261.68c-5.48 0-1.37-10.22.85-15.21-3.54 4.53-9 10.17-13.11 8.09-3.32-1.7-1.19-6.72.57-10-2.8 3-5.6 5.56-7.24 5.47-3.89-.13-1.55-10.11-.46-13.88a.5.5 0 0 1 1 .28c-.78 2.72-3.07 12.61-.42 12.61 1.92 0 6.75-5.27 10.91-10.47 2-2.86 3.81-5 4-5.23a.5.5 0 0 1 .79.62c-.41.57-2 2.69-4 5.2-2.42 3.44-8.47 12.57-4.69 14.5 4.62 2.36 12.65-8.39 15.35-12.73a.5.5 0 0 1 .87.5c-1.87 3.49-8.68 17.65-5.23 19.07s7.4-6.35 8.76-9.68a.5.5 0 0 1 .93.38c-1.43 3.47-5.11 10.48-8.88 10.48z" fill="#2d1929"/><path d="m413.71 81.9 27.88-34.9-7.95-3.59z" fill="#86ebf9"/><path d="m335.78 90.1-34.53-28.31 7-5.16q13.75 16.74 27.53 33.47z" fill="#86ebf9"/><path d="m288.74 107.37 34.78 5-32.6-13.37q-1.08 4.2-2.18 8.37z" fill="#86ebf9"/><path d="m463.14 89-33 12.13 29.1-19.84q1.96 3.87 3.9 7.71z" fill="#86ebf9"/></svg>