<svg height="512" viewBox="0 0 512 512" width="512" xmlns="http://www.w3.org/2000/svg" xmlns:xlink="http://www.w3.org/1999/xlink"><clipPath id="a"><path d="m292 250s-24.59-11.88-60.79 1.64-105.35 90.87-156.86 83c0 0-1.86 32.69 26.91 33.61s8.82 18.42 23.67 29.47 40.38-1.84 45.95 11.05 44.08 25.07 64.5 7.93 56.62-166.7 56.62-166.7z"/></clipPath><clipPath id="b"><path d="m271.53 207.92h33.86v66.52h-33.86z" transform="matrix(.973 .231 -.231 .973 63.53 -60.12)"/></clipPath><path d="m173.74 432.27-9.57 21.27c4.33 6.38 4.87 11.39 4.43 14.89-.35 2.78-1 2.22-2.48 7.8-2 7.73-1.59 11.87-4.87 14.17a5.9 5.9 0 0 1 -2.93 1.1c-3.66.26-6.39-3.49-6.39-3.49s-5 4.12-7.94-4c0 0-6.37 4.28-7.79-3.56 0 0-2.47 1-4.3-.28-.44-.3-1.49-1.15-1.85-3.62-1.72-11.69 4-25.15 4-25.15a182.11 182.11 0 0 1 13.3-25.53 34.79 34.79 0 0 1 26.39 6.4z" fill="#f5b493"/><path d="m166.65 175.38c-27.51 62.87-73.65 112.67-131.34 146.19 71.44-20.28 126.08-70.57 156.08-137.28l17.84 5.63q-7.29-29.65-14.57-59.31l-49.08 38.88z" fill="#86ebf9"/><circle cx="229.85" cy="77.45" fill="#d7981a" r="45.45"/><circle cx="221.64" cy="76.46" fill="#efbd42" r="45.45"/><path d="m207.65 61.82c1-8.32 7.71-12.65 15.73-12.67l.69-5.8a1.56 1.56 0 0 1 3.1.37l-.69 5.67c6.07.91 10.94 4.64 12.26 11.19.85 4.41-.59 8.6-5.07 8.07a2.26 2.26 0 0 1 -1.77-2.65c.85-7.43-1.08-11.68-5.88-12.73l-2.48 20.66c3.63 2.75 6 4.69 7.23 5.79 3.26 3 5.45 6.54 4.87 11.4-1 8.41-7.67 12.64-15.69 12.66l-.7 5.8a1.56 1.56 0 0 1 -3.09-.37l.68-5.62a16 16 0 0 1 -7.9-3.53c-5.92-4.93-6.61-16.65.72-15.77a2.25 2.25 0 0 1 1.77 2.65 17.44 17.44 0 0 0 1.06 8.54 6.94 6.94 0 0 0 4.8 4.37l2.32-19.37c-6.15-5.16-12.93-10.57-12-18.65m13 9.71 2.2-18.34a8.66 8.66 0 0 0 -7.06 7.6c-.55 4.6 1.58 7.91 4.86 10.74m-.26 28.25a9.18 9.18 0 0 0 7-7.62c.42-3.43-1.76-6.35-5-9.22z" fill="#eaeaea"/><g clip-path="url(#a)"><path d="m292 250s-24.59-11.88-60.79 1.64-105.35 90.87-156.86 83c0 0-1.86 32.69 26.91 33.61s8.82 18.42 23.67 29.47 40.38-1.84 45.95 11.05 44.08 25.07 64.5 7.93 56.62-166.7 56.62-166.7z" fill="#e73f46"/><path d="m62.74 364s34.66 20.63 82.92-21.61 81.86-69 110.17-61.48 54 77 54 77l-58.8 81.65-67.92 3.69-103.04-43.65z" fill="#cc3745"/></g><path d="m419.34 132.25 19.06-26.25s10.36-25.62 13.43-27.47 22.55-2.25 25.21 0 6.56 16.81 5.74 21.32-7.79 4.71-7.79 4.71-5.94 10-8 12.5-9.43 5.13-9.43 5.13l-15.17 28.9z" fill="#f5b493"/><path d="m469.45 107.42c1.84-5.24-2.72-10-2.76-10.07a.49.49 0 0 1 -.09-.57s2-4.14 3.95-7.31 1.57-8.86.61-8.5c-1.38.53-8.62 7-13.15 11.25a.5.5 0 0 1 -.69-.73c1.17-1.09 11.48-10.68 13.48-11.49 2.82-1.08 2.71 6.56.6 10-1.62 2.62-3.26 5.91-3.76 6.91 1 1.14 4.56 5.7 2.75 10.84a.5.5 0 1 1 -.94-.33z" fill="#2d1929"/><path d="m470 98.59c-2.52 0-2.84-2.44-1.91-4.76a.5.5 0 0 1 .93.38c-.23.58-.74 2.39 0 3.06a1.93 1.93 0 0 0 1.48.29c2.47-.27 6.14-6.94 8.76-13.09a.5.5 0 0 1 .66-.26.5.5 0 0 1 .26.65c-2.11 5-6.15 13.32-9.56 13.69a4 4 0 0 1 -.62.04z" fill="#2d1929"/><path d="m471.8 102.51a2.73 2.73 0 0 1 -2.21-1.06c-.9-1.37.27-3.29.52-3.67a.5.5 0 0 1 .69-.14.49.49 0 0 1 .14.69c-.38.58-1 1.87-.52 2.57a1.82 1.82 0 0 0 1.24.6c1.75.25 5.47-3.7 9.49-10.06a.49.49 0 0 1 .69-.16.5.5 0 0 1 .16.72c-2.53 4-7.13 10.51-10.2 10.51z" fill="#2d1929"/><path d="m475 105.06a3.29 3.29 0 0 1 -2.5-1.07 2.81 2.81 0 0 1 -.53-2.07.5.5 0 0 1 1 .17 1.74 1.74 0 0 0 .33 1.28 2.27 2.27 0 0 0 1.74.69.5.5 0 0 1 -.04 1z" fill="#2d1929"/><path d="m277.27 255.88a576.23 576.23 0 0 0 152.37-138.81l22.59 16.52c-26.67 62.54-71.28 118.18-133 159-2.11.6-15.15 4.07-27.22-3.72-10.66-6.82-16.37-19.69-14.74-32.99z" fill="#287eef"/><g clip-path="url(#b)"><path d="m271.53 207.92h33.86v66.52h-33.86z" fill="#f5b493" transform="matrix(.973 .231 -.231 .973 63.53 -60.12)"/><path d="m277.66 213.41s2.35 34 29.78 42.16l5.56-23.48z" fill="#eba284"/></g><path d="m340.8 199.47c-1.15-7.43-3.07-11.92-3.66-16.79-1.45-12-.39-21.28-9.24-29.25a42 42 0 0 0 -9.34-7.68c-12.67-8.72-33.27-8.39-46.88 2.44-15.68 12.47-14.89 33.13-14.68 38.26.91 24 18 39.58 25.45 45.28a61 61 0 0 0 13.4 9.23c5.41 2.68 19.91 9.86 30 2.93 2.64-1.81 6.21-6.26 10.27-16.56 5.26-13.33 5.82-20.42 4.68-27.86z" fill="#f5b493"/><g fill="#2d1929"><path d="m320.41 210.2c2.41-1.43 3.62-2.85 3.61-4.2 0-3.1-6.35-3.66-8.72-14.74a.5.5 0 0 1 .39-.59.48.48 0 0 1 .59.38c2.38 11.14 8.72 10.95 8.72 14.95 0 1.73-1.36 3.44-4.1 5.07a.5.5 0 0 1 -.49-.87z"/><path d="m325.31 191.66c.3 2.71 2 4.74 3.72 4.55s2.92-2.55 2.62-5.26-2-4.74-3.72-4.55-2.93 2.56-2.62 5.26"/><path d="m298 194.73c.3 2.7 2 4.74 3.72 4.54s2.93-2.55 2.62-5.26-2-4.74-3.72-4.54-2.92 2.55-2.62 5.26"/><path d="m316.34 225.7c-3.58 0-9.21-.87-12.69-5.73a.5.5 0 0 1 .81-.58c5 7 14.93 5.08 15 5.06a.51.51 0 0 1 .59.39.5.5 0 0 1 -.39.59 18.66 18.66 0 0 1 -3.32.27z"/><path d="m317.76 178a1 1 0 0 1 -.67-1.74c.07-.07 7.06-6.3 15.32-1.89a1 1 0 0 1 .41 1.35 1 1 0 0 1 -1.35.41c-7-3.73-12.79 1.39-13 1.61a1 1 0 0 1 -.71.26z"/><path d="m304.68 180a1 1 0 0 1 -.63-.22c.1 0-6.28-5-13.1-.86a1 1 0 0 1 -1.38-.34 1 1 0 0 1 .34-1.37c8-4.87 15.33 1 15.4 1a1 1 0 0 1 -.63 1.79z"/></g><path d="m243.49 258.12c-13.84 8.28-17.48 22.59-22.71 64-3.29 26.06-7 61.06-9.29 103h96c3.11-11.2 20-72.52 24.77-118.34 1.29-12.32 2.45-30.53-10.32-41.77-1.75-1.53-5-4.08-12.56-6.91-15.79-5.87-46.38-11.64-65.89.02z" fill="#287eef"/><path d="m270.26 251.37a126.5 126.5 0 0 0 -39.26 15.68c-7.83 4.81-29.5 19.34-54.42 65.41a354.5 354.5 0 0 0 -36.92 106.63l26.1 10.55 40.78-86.86 47.29-54.69c4-2.55 10-7.86 15.16-16 6.42-10.04 10.53-24.22 1.27-40.72z" fill="#287eef"/><path d="m268.59 251.56s15.25 26.52 24.53 24.66 9.73-22.36 9.73-22.36-21.66-8.62-34.26-2.3z" fill="#f5b493"/><path d="m200.77 289.21c5.24-14.21 18.3-21.86 29.7-20.65 10.37 1.1 12.28 8.66 23.74 15.24 13.6 7.81 27.92 6 35.43 5.1s13.32-1.64 17.87-6.42c6.58-6.91 5.58-17 5.33-19.49a30.23 30.23 0 0 0 -6.72-16 73.14 73.14 0 0 1 -15.67 29.12l-14.78-5.29-13.22-25.58c-2.35.66-5.72 1.64-9.75 2.89-20.92 6.46-31.37 9.69-38 15.34-4.18 3.53-10.84 10.89-13.93 25.74z" fill="#e73f46"/><path d="m271.88 237.73a9.22 9.22 0 0 0 -9.16 6.7c-2.32 7.19-4.79 6.73-4 10.75.43 2.23 8.37 36.75 19.68 36.2 2.14-.11 6.86-1.59 12.07-15.28-13.7-8.1-19.77-22.9-18.59-38.37z" fill="#eaeaea"/><path d="m290 276.31s7.17 12.9 14.11 10.12 1.86-41.25 1.86-41.25l-1.21.86a92 92 0 0 1 -14.76 30.27z" fill="#eaeaea"/><path d="m293.58 408.48c-12.36-5.56 4.1-51.05-3.13-54.29s-42.32 34.8-51.61 31.09-3.35-71.93-6.19-71.47c-2.37.39-11.73 24.88-14.76 33-2.4 22.13-4.75 48.49-6.4 78.42h96c.79-2.87 2.5-9.05 4.67-17.41-4.69 2.07-11.6 3.81-18.58.66z" fill="#1573d8"/><path d="m332.13 283.66s-7-16.26-12-22.29 19.14 2.32 30.74-1.63a149.49 149.49 0 0 0 19.94-8.37 183.74 183.74 0 0 1 -38.68 32.29z" fill="#1573d8"/><path d="m266.67 196.22s7.42-4.23 5.8-20.82 9.28-20.77 9.28-20.77 36.83 15 51.6 6 1.31-29.42-8.09-33.13c0 0 .44 9.51-9.47 4.87s-41.79-7.89-51 10c-6.44 2.21-18.73 7.63-23.85 19.26-8.11 18.41 4 47.23 34.13 63.63z" fill="#2d1929"/><path d="m255.11 202.26c2.83 6.48 9.45 9.84 14.78 7.51s7.36-9.48 4.53-16-9.42-9.77-14.79-7.46-7.36 9.48-4.52 15.95" fill="#f5b493"/><path d="m270.2 203.68a4.67 4.67 0 0 1 -4.15-4c-.26-2.14 2.21-3.11 3.42-3.45-4.6-8.7-10.72-6.67-10.39-1.6a.5.5 0 0 1 -.47.53.52.52 0 0 1 -.53-.47c-.12-1.74.59-5.12 4.13-5.4 5-.38 8.3 6.77 8.44 7.07a.5.5 0 0 1 -.36.7s-3.47.7-3.25 2.5a3.7 3.7 0 0 0 3.27 3.11.5.5 0 0 1 -.11 1.01z" fill="#2d1929"/></svg>