<svg height="512" viewBox="0 0 512 512" width="512" xmlns="http://www.w3.org/2000/svg"><path d="m260.1 287.24h106.9a0 0 0 0 1 0 0v49a26.56 26.56 0 0 1 -26.56 26.56h-54.07a26.27 26.27 0 0 1 -26.27-26.27v-49.29a0 0 0 0 1 0 0z" fill="#917eec" transform="matrix(.999 .046 -.046 .999 15.12 -13.93)"/><path d="m323.16 377.62-24-1.09a6 6 0 0 1 -5.38-5.34l-1.58-15.45c-.39-3.87 2-7.05 5.31-6.9l29.76 1.36c3.34.15 5.41 3.53 4.66 7.35l-3 15.25a5.94 5.94 0 0 1 -5.77 4.82z" fill="#917eec"/><g fill="#6d5fde"><path d="m329 372.8 1.78-9.15 7.34.33a27.12 27.12 0 0 0 28.34-25.86l2.21-48.41-98.1-4.47s21.12 15.28 53.7 18.46 31.77 13.38 25.06 18.53-.84 5.42 3 10.36-5.53 30.41-30.07 30.33a13.8 13.8 0 0 1 -7.55 14.31l8.45.39a5.94 5.94 0 0 0 5.84-4.82z"/><path d="m293.08 325c-15.31-2-24.13-5.07-24.5-5.2a1.5 1.5 0 0 1 1-2.83c.35.12 35.76 12.12 86.47 3.91a1.49 1.49 0 0 1 1.72 1.24 1.51 1.51 0 0 1 -1.24 1.72 220.65 220.65 0 0 1 -63.45 1.16z"/><path d="m321.8 351.35c-21.56 0-40.9-3.88-50.1-7.37a1.5 1.5 0 0 1 1.06-2.81c.35.13 35.42 13.1 84.91 3.84a1.5 1.5 0 0 1 .55 2.95 198.17 198.17 0 0 1 -36.42 3.39z"/></g><circle cx="321.75" cy="145.23" fill="#86ebf9" r="114.15"/><path d="m368.68 289.71-106.8-4.87-49.04-106.23 214.34 9.77z" fill="#86ebf9"/><ellipse cx="315.28" cy="287.27" fill="#40c2d6" rx="9.28" ry="53.45" transform="matrix(.046 -.999 .999 .046 13.95 589.15)"/><path d="m368.68 289.71 42.32-73.34a114.14 114.14 0 0 0 -82.74-185.09c10 3.82 54.37 22.07 73.13 68.7 13.16 32.71 6.62 61.8 1.2 86-5.91 26.3-15.86 70.61-55.32 94-23.76 14.09-48.13 14.6-60.82 13.9 34.18 5.27 81.88 3.34 82.23-4.17z" fill="#40c2d6"/><path d="m220.23 118.66s13-75.76 94.32-80.24c0 0-61.88 11.5-94.32 80.24z" fill="#eaeaea"/><ellipse cx="219.25" cy="133.85" fill="#eaeaea" rx="6.71" ry="4.37" transform="matrix(.046 -.999 .999 .046 75.57 346.78)"/><path d="m320 289a1.5 1.5 0 0 1 -1.5-1.54c.65-25.27 8.89-67 18.29-95.93-8-.2-15.42-4.77-20.68-12.82-7.52 4-18.68 6-27.1 5.07 6.35 28 10.94 72.72 12.68 99.65a1.5 1.5 0 1 1 -3 .2c-1.69-26.82-6.43-72.68-12.88-100.35-10.19-2-17.35-7.89-20.82-13.29-5.7-8.86-2.87-17.55 7.63-17.55 5.26 0 9.66 6.77 13.83 21.28.62 2.14 1.23 4.46 1.83 6.94 7.81 1.11 19.07-.51 26.32-4.47-4.53-8.21-5.64-17-2.59-20.53.84-1 2.76-2.39 6.21-1.07 10.33 4 10.85 15.48.46 22.56 3.16 4.77 9.43 11.68 19.1 11.39 4.66-13.76 9.55-24.17 13.89-27.74a5.48 5.48 0 0 1 4.39-1.48c9.69 1.67 12 14.52 2.81 23.61-4.85 4.82-12.19 7.65-18.85 8.45-9.2 27.91-17.84 69.52-18.52 96.16a1.5 1.5 0 0 1 -1.5 1.46zm33.58-125.88c-3.71 3-8.13 12.4-12.49 25.06 23.13-4.09 24.94-24.1 14.46-25.9a2.87 2.87 0 0 0 -1.94.83zm-81-7.68c-14.54 0-6.69 20 12.42 24.6-5.32-21.55-10.09-24.61-12.36-24.61zm41.66 2.19c-1.87 2.15-1.13 9.61 2.88 17 8.12-5.81 8.06-14.11 0-17.21-.96-.42-2.12-.62-2.82.2z" fill="#2d1929"/><circle cx="338.89" cy="419.76" fill="#efbd42" r="38.65"/><circle cx="154.55" cy="164.07" fill="#efbd42" r="38.65"/><circle cx="417.4" cy="287.49" fill="#efbd42" r="24.59"/><path d="m161.24 481.08a672.63 672.63 0 0 1 -91.4-206.71l102.28-45.23a884.67 884.67 0 0 0 91.41 206.71z" fill="#1573d8"/><path d="m276.58 419.76-13.06 16.1-22.19 2.91 5.37-16.27z" fill="#1573d8"/><path d="m185.85 463.3a672.87 672.87 0 0 1 -91.4-206.71l102.29-45.23a884.64 884.64 0 0 0 91.4 206.71z" fill="#287eef"/><path d="m190.18 447.57a660.8 660.8 0 0 1 -81.18-183.57.51.51 0 0 1 .28-.59l79.28-35a.5.5 0 0 1 .68.3 899.62 899.62 0 0 0 81.08 183.29.53.53 0 0 1 0 .41c-.1.32 5.78-2.37-79.55 35.36a.51.51 0 0 1 -.59-.2zm-80.1-183.45a659.44 659.44 0 0 0 80.71 182.55l78.38-34.67a900.41 900.41 0 0 1 -80.71-182.54z" fill="#fff"/><circle cx="187.26" cy="340.64" fill="#eaeaea" r="32.71"/><path d="m191.56 327.6c5.31-2.34 10.26.13 13.11 4.9l3.7-1.63a1.08 1.08 0 0 1 .87 2l-3.62 1.6c1.6 3.93 1.09 8.16-2.35 11.26-2.32 2.06-5.33 2.69-6.59-.17a1.56 1.56 0 0 1 .95-2c4.74-2.12 6.58-4.77 5.52-8l-13.15 5.79c-.35 3.14-.67 5.24-.9 6.36-.61 3-2 5.55-5.07 6.92-5.38 2.37-10.25-.1-13.1-4.88l-3.7 1.64a1.08 1.08 0 0 1 -.87-2l3.59-1.58a11.26 11.26 0 0 1 -.69-6c.86-5.27 7.6-9.82 9.66-5.14a1.55 1.55 0 0 1 -1 2 12.14 12.14 0 0 0 -4.72 3.65 4.81 4.81 0 0 0 -.91 4.4l12.37-5.45c.9-5.48 1.74-11.45 6.9-13.72m-1.19 11.2 11.72-5.16a6 6 0 0 0 -7-1.52c-2.94 1.29-4.16 3.73-4.69 6.68m-16.93 9.83a6.37 6.37 0 0 0 7 1.47c2.2-1 3.17-3.3 3.75-6.21z" fill="#287eef"/><path d="m110.12 309.37 103.11-47.92 11.88 30.95-103 49.47a246.6 246.6 0 0 1 -11.99-32.5z" fill="#efbd42"/><path d="m110.12 309.37-25.78 14.34q5.28 16 11.52 31.67l26.29-13.51z" fill="#d7981a"/></svg>