<svg height="512" viewBox="0 0 512 512" width="512" xmlns="http://www.w3.org/2000/svg"><path d="m257.37 450.33a20.33 20.33 0 1 1 20.32-20.33 20.34 20.34 0 0 1 -20.32 20.33zm0-35.65a15.33 15.33 0 1 0 15.32 15.32 15.34 15.34 0 0 0 -15.32-15.32z" fill="#efbd42"/><rect fill="#917eec" height="37.11" rx="2.64" width="8.15" x="253.29" y="379.73"/><path d="m50.12 86.32h415.41v313.46h-415.41z" fill="#86ebf9"/><rect fill="#287eef" height="19.34" rx="5.13" width="450" x="32.82" y="68.03"/><rect fill="#917eec" height="115.26" rx="5.53" width="150.96" x="294.95" y="122.82"/><rect fill="#eaeaea" height="7.21" rx="3.14" width="35.3" x="307.82" y="131.9"/><path d="m377.88 208c-20.19-1.52-18.88-27.22-30.88-35.44-11.65-8-29.55 2.9-29.74 3a1 1 0 0 1 -1.05-1.7 49.52 49.52 0 0 1 11-4.77c8.37-2.44 15.59-1.82 20.88 1.81 12.82 8.75 11.16 33.7 29.91 35.1 18.39 1.41 22.06-51.68 53.47-53.2a1 1 0 0 1 .1 2c-30.16 1.5-33.24 54.8-53.69 53.2z" fill="#fff"/><rect fill="#efbd42" height="111.35" rx="5.53" width="145.84" x="297.51" y="265.85"/><rect fill="#eaeaea" height="6.96" rx="3.24" width="34.1" x="309.95" y="274.61"/><path d="m75.14 113.36h33.32v185.78h-33.32z" fill="#eaeaea"/><path d="m122.87 162.35h33.32v136.8h-33.32z" fill="#efbd42"/><path d="m170.6 113.36h33.32v185.78h-33.32z" fill="#eaeaea"/><path d="m218.33 153.2h33.32v145.94h-33.32z" fill="#efbd42"/><path d="m71.74 325.43h46.51v11.03h-46.51z" fill="#efbd42"/><path d="m71.74 351.81h46.51v11.03h-46.51z" fill="#eaeaea"/><path d="m254.51 331.94h-115a1 1 0 0 1 0-2h115a1 1 0 1 1 0 2z" fill="#2d1929"/><path d="m254.51 358.33h-115a1 1 0 0 1 0-2h115a1 1 0 0 1 0 2z" fill="#2d1929"/><circle cx="375.83" cy="327.54" fill="#287eef" r="38.55"/><path d="m413.75 320.59a38.55 38.55 0 0 0 -37.92-31.59v38.56z" fill="#eaeaea"/><path d="m413.75 320.59-37.92 7 26 28.49a38.48 38.48 0 0 0 11.92-35.49z" fill="#e73f46"/></svg>