<svg height="512" viewBox="0 0 512 512" width="512" xmlns="http://www.w3.org/2000/svg" xmlns:xlink="http://www.w3.org/1999/xlink"><clipPath id="clip-path"><path d="m226.84 194.99h49.21v90.01h-49.21z"/></clipPath><clipPath id="clip-path-2"><path d="m435.43 155.45h-70.64v-43.16a35.56 35.56 0 0 1 35.56-35.56 35.08 35.08 0 0 1 35.08 35.08z"/></clipPath><g id="Emergency"><path d="m248.49 214.08-40.92-143s-23.18 8.38-34.43 49.49c-8.82 32.23 5.65 57.95-4.36 82.1-3.78 9.33-6.31 7.56-14.78 19.73-9.19 13.14-40 57.19-24.79 96.12 9.8 25.11 39.14 49.17 69.36 44.94 33.32-4.67 48.77-41.06 53.73-52.76 18.7-44.18.7-86.64-3.81-96.62z" fill="#2d1929"/><g clip-path="url(#clip-path)"><path d="m226.84 194.99h49.21v90.01h-49.21z" fill="#f5b493"/><path d="m272.45 213.29c-7.27 25.88-29.63 42.84-55.31 44.41v-31.8z" fill="#eba284"/></g><path d="m251.44 264.14a279 279 0 0 1 -140.83-36.47l71.33-122.12-27.37-15.33a553.43 553.43 0 0 0 -44 41.71c-41.42 43.87-66.57 70.49-66.39 96.71.28 39.62 58.42 79.79 138.72 99.65a60.72 60.72 0 0 0 33.1-5.57c32.29-15.93 35.31-56.28 35.44-58.58z" fill="#f5b493"/><path d="m415.73 31 3.18 34.94 4.69-33.66z" fill="#86ebf9"/><path d="m461.04 45.58-22.35 25.63 25.87-20.08z" fill="#86ebf9"/><path d="m478 81.8-29.57 11.68 31.13-3.48z" fill="#86ebf9"/><path d="m287.21 87.29c-21.55-16.16-53.45-15.78-72.67-1.71a64.77 64.77 0 0 0 -14.13 12.29c-13.35 12.73-11.3 27-13 45.7-.7 7.56-3.47 14.59-4.92 26.15s-.27 22.51 8.46 42.91c6.74 15.78 12.47 22.51 16.63 25.2 16 10.27 38.09-1.48 46.35-5.86a95 95 0 0 0 20.33-14.88c11.26-9.16 37.06-34.08 37.41-71.21.06-7.95.33-39.98-24.46-58.59z" fill="#f5b493"/><g fill="#2d1929"><path d="m213.88 186.55c-4.22-2.36-6.38-4.86-6.43-7.44-.12-5.71 9.75-6.49 12.87-23.46a.5.5 0 0 1 1 .18 31.74 31.74 0 0 1 -7.18 15.7c-2.81 3.16-5.73 4.91-5.67 7.56 0 2.2 2 4.41 5.92 6.58a.5.5 0 0 1 -.51.88z"/><path d="m201.81 148.92c-2.72-.23-5.21 3-5.56 7.2s1.57 7.8 4.29 8 5.21-3 5.56-7.2-1.57-7.77-4.29-8z"/><path d="m244.16 152.46c-2.72-.22-5.21 3-5.56 7.2s1.57 7.8 4.29 8 5.21-3 5.56-7.2-1.57-7.77-4.29-8z"/><path d="m197.2 134.78a1 1 0 1 1 .38-2 21.12 21.12 0 0 0 19.42-6.27 1 1 0 1 1 1.43 1.39 23.06 23.06 0 0 1 -21.23 6.88z"/><path d="m251.59 139.44a16.29 16.29 0 0 1 -15.21-9.7 1 1 0 0 1 .48-1.32 1 1 0 0 1 1.33.48 15.07 15.07 0 0 0 5.34 6.26c6.61 4.31 14.35 1.28 15.21.92a1 1 0 0 1 .77 1.85 21.8 21.8 0 0 1 -7.92 1.51z"/></g><path d="m262.31 263.66s61.56-2.9 68.63 26.47-14.34 190.87-14.34 190.87h-152.26s2.06-164.56 18.2-190.87 79.77-26.47 79.77-26.47z" fill="#917eec"/><path d="m288.72 260.23c8.57.73 50.36 5.12 67.87 35.75 12.45 21.78 4.88 45.6-10.28 93.25-10.38 32.64-18 55.6-37.71 62-13.82 4.53-29.76-.34-38.49-7-44.11-33.76 14.95-175.42 18.61-184z" fill="#917eec"/><path d="m259.43 263.58s-96.72-13.77-148.82-35.91a103.64 103.64 0 0 1 -27.68 5.33c-12.48.66-23.73 1.27-30.78-6.19a22.54 22.54 0 0 1 -5.58-12.77c-1.49.86-9.15 5.43-11.51 14.89-3.28 13.11 6.74 23 7.16 23.44 1.23 1.75 3.05 4.26 5.38 7.17 23 28.84 50.73 42.11 73.27 52.59a312.31 312.31 0 0 0 67.89 22.47l44-33.7z" fill="#917eec"/><rect fill="#917eec" height="26.51" rx="2.83" width="65.94" x="222.96" y="247.86"/><path d="m172.81 312c-20.62 20.51-24 50.08-11.73 74.9q1.63 47 3.26 94.09h31.91l26.75-164.42z" fill="#917eec"/><path d="m162.08 326c15.24-26.76 19.42-33.14 19.86-32.9.95.51-12.78 31.85-16.3 58a34.61 34.61 0 0 0 1.21 16.5c3.07 8.86 8.24 10.12 11.82 16.72 6 11.07-1.46 19.44-2.28 38.1-.45 10-1.39 31.24 9.12 38.43 16.45 11.24 52.53-16.29 58-8.47 1.57 2.26.44 7.31-1 10.26-2.41 5-6.23 5.2-6.1 7.57.28 5.11 18.38 8.89 27.64 10.81.1 0-1.12 0-99.69 0l-3.26-94.09s-20.81-27.68.98-60.93z" fill="#6d5fde"/><path d="m322.93 354.34c10 19.54 16.35 40.93 7.49 56.66-11.35 20.17-43 22.73-41.68 30.29.78 4.42 12.3 7.28 21.16 6.19a29.28 29.28 0 0 0 11.35-4l-4.65 37.52-14.76-.19c7.77-13.59 7.21-20.45 4.81-24.22-5.28-8.25-19.67-1.91-33.55-12.37-8.7-6.56-12-15.79-14-21.46-6.27-17.66-1.66-33.42.32-39.11z" fill="#6d5fde"/><path d="m37.88 222.4s-1.19 13.24 4.83 17.6 11.72.33 15.79.81-3.78 11.8 5.87 28.19 105.63 51.85 105.63 51.85l-5.65 10.7s-163.35-57.55-126.47-109.15z" fill="#6d5fde"/><path d="m233.21 86a58.69 58.69 0 0 0 -44.39 37.67s-5.27-22 3.52-39.62 33.87-16.61 43.32-14.66c0 0 72.45-24.42 90.2 39.08s14.33 119.34 33.38 151.75 3.6 58.41 3.6 58.41-7.54-34.25-45.87-48-41.56-48.58-39-66.31 20.06-31.53 16.94-47.84-61.21-25.04-61.7-70.48z" fill="#2d1929"/><path d="m315.24 170.27c-4.1 10.15-14.2 15.65-22.56 12.27s-11.8-14.35-7.7-24.5 14.2-15.64 22.56-12.27 11.81 14.35 7.7 24.5z" fill="#f5b493"/><path d="m291.76 171.87c.2 0 4.74-.72 5.16-5.21.3-3.1-5.31-4-5.36-4a.51.51 0 0 1 -.39-.69c.2-.47 4.9-11.5 12.5-11.14 6.59.32 6.37 7.82 6.36 7.89a.5.5 0 0 1 -1 0c0-.27.18-6.58-5.41-6.85-6-.31-10.21 7.74-11.27 10 1.66.37 5.88 1.65 5.57 5-.5 5.3-6 6.1-6 6.11a.5.5 0 0 1 -.16-1.11z" fill="#2d1929"/><path d="m218.07 191.68c6.38-2.13 14.09 3 13.85 5.94-.08.89-.88 1.48-12.71 6.11-7 2.74-8 3-8.63 2.44-2.12-1.9.42-12.17 7.49-14.49z" fill="#2d1929"/><path d="m175.09 112.27a23.72 23.72 0 0 0 10.09-3.14c12.82-7.62 9.23-23.66 19.7-28.25 7.35-3.22 18.44.58 21.25-2.93 2.93-3.66-6.72-5.74-6.72-5.74s12.47 3.1 13.56 0-10-6.35-10-6.35 10.5 3.66 11.11 0-30.65-11.27-42.7-9.16-41 37.09-41 37.09a20.31 20.31 0 0 0 6.26 13.88c7.62 7.01 17.61 4.8 18.45 4.6z" fill="#f5b493"/><path d="m241.19 226.85c5.36-18.48 9.49-32.69 13.68-46.4 5.06-16.57 5.88-20.27 9.24-24.71a31.37 31.37 0 0 1 7.2-6.83l2.57-10a41.63 41.63 0 0 0 11.4 4.52q-.16 12.14-.31 24.29l-24.34 49.84z" fill="#eba284"/><rect fill="#e73f46" height="111.49" rx="8.37" transform="matrix(.922 .388 -.388 .922 99.96 -94.84)" width="59.83" x="255.06" y="144.53"/><path d="m271.65 214c-15.06 96.22-25.32 205.92 7.32 217.85 10 3.68 20.74-3.15 23.45-4.88 41.44-26.46 18.68-139.44 1.93-222.57-.02-.11.71-.24-32.7 9.6z" fill="#f5b493"/><path d="m307.13 231.08s6.27-13.91 8-21.65 15.29-22.54 13-25.89a3.21 3.21 0 0 0 -1.51-1.29c-2.49-1-5.39 2.55-9.66 5.85-5.26 4.06-8.1 6.25-10.16 5.7-8-2.14-7-46.17-11.72-49-3.38-2-6.09 20-6.52 23.94 0 0-9-9-12.52-10.21s-10.6-2.65-12.55 1.57 7.45 4.33 9 6.28 5.47 7.33 5.47 7.33-9.31-7-12.18-7.08-3.36 5.19 1.77 10.8c0 0-3.09-3.31-5.32-2.4a3.36 3.36 0 0 0 -1.64 2.1c-1.23 3.57-5.74 39.78 18.74 52 11.14 5.55 22.56 3.37 27.8 1.95z" fill="#f5b493"/><path d="m221.39 73.26-14.68-1.16a.49.49 0 0 1 -.45-.54.53.53 0 0 1 .53-.46l14.68 1.16a.5.5 0 0 1 -.08 1z" fill="#2d1929"/><path d="m227 67.78c-.1 0 .82.19-20.33-4.32a.5.5 0 0 1 .21-1l20.22 4.31a.5.5 0 0 1 -.1 1.01z" fill="#2d1929"/><g clip-path="url(#clip-path-2)"><path d="m435.43 155.45h-70.64v-43.16a35.56 35.56 0 0 1 35.56-35.56 35.08 35.08 0 0 1 35.08 35.08z" fill="#e73f46"/><path d="m402.88 69.13c23.67 24.65 26.81 58.73 13.78 88.91l25.93-.66v-82.52l-19.85-9.08z" fill="#cc3745"/></g><rect fill="#40c2d6" height="20.29" rx="7.93" width="84.96" x="357.63" y="143.28"/></g></svg>