<svg height="512" viewBox="0 0 512 512" width="512" xmlns="http://www.w3.org/2000/svg" xmlns:xlink="http://www.w3.org/1999/xlink"><clipPath id="clip-path"><path d="m227.08 239.87h51.96v93.25h-51.96z"/></clipPath><clipPath id="clip-path-2"><path d="m288.65 52.66c-20.25-1.46-44 10.42-49.59 26a19.65 19.65 0 0 0 -.94 11.81c3.4 12.93 20 10.9 40.92 24.56 20 13 25 28.34 46.58 33.48a18.4 18.4 0 0 0 7.78.07c20.42-3.8 18.53-41.57 4.83-59.28s-18.7-24.8-12.42-28.11 17.87 6.38 22.82 3.54 2.35-11.8-4.26-13.93-1.65-9-4.72-12-6.85 1.42-11.57-4c-3-3.44-6-4.09-7.37-3.46-2.45 1.11.55 7.59-3 13.37a14.31 14.31 0 0 1 -5.67 5c-8.59 4.76-18.67 3.29-23.39 2.95z"/></clipPath><g id="Sick"><g clip-path="url(#clip-path)"><path d="m227.08 239.87h51.96v93.25h-51.96z" fill="#955d43"/><path d="m221.26 280.51c18 13.32 42.44 14.79 62.06 1.57q.44-16.8.88-33.59h-60.71z" fill="#834a27"/></g><path d="m247 297.43c-19.66 1.38-56.95 4-73.51 24.4-11.77 14.5-4 25.57 3.63 122.22l159-.25a561.31 561.31 0 0 1 .44-56.92c2.74-47.25 9.35-59.18-2.52-71.95-20.57-22.15-70.52-18.65-87.04-17.5z" fill="#e8e7e3"/><path d="m272.73 98.93s-35.19-19.12-54.07-16.05-1.19 7.86-1.19 7.86-19.59 4.89-24.55 10.56 17.24 5.19 17.24 5.19z" fill="#917eec"/><path d="m227.08 299.25s9.11 19.74 24.54 20.92 27.38-23.65 27.38-23.65-36.89-8.52-51.92 2.73z" fill="#955d43"/><path d="m227.08 281.73c2.27 46.39-13.67 63.88-3.54 86.61 2 4.41 4.34 9.75 8.18 10.07 6.6.56 13.21-14.09 32.27-65.79 6.18-16.78 11.29-31 15.05-41.53 0 0 38.86-2.85 46.77 15.4s16.1 12 33.73 39.66 21.4 154.9 21.4 154.9h-239.26s-10.68-95.05 4.41-134.75 34.24-42 47.8-58.57 33.19-13.84 33.19-13.84z" fill="#efbd42"/><path d="m243.29 341.21s-16.57-20.5-20.87-20.24 3.49 17.67 3.49 17.67-15.3-7.64-18.79-14.64-7.51-8.36-9.39-7.42 3.62 13.68 7.65 18.11c0 0-6.31-2.54-9.93-7.85s-5.64-6-7.92-4.76 2.68 10.6 4.83 13.28a45.47 45.47 0 0 0 6.29 5.88s-14.48-9.77-16.89-7.22 14.63 16 14.63 16-12.89-6-13-2.41 16.77 18.38 25.77 22.81 22.68 8.46 22.68 8.46 12.16-21.18 11.45-37.67z" fill="#955d43"/><path d="m272.65 292.78a94.4 94.4 0 0 1 -17.95 36.52c-4.84 6-8.31 8.66-11.41 11.91-8.65 9.08-17.34 25.65-16.21 58.61l32.39-9.44 16.33-27.71z" fill="#efbd42"/><path d="m314.94 182.32c-.34 10.38-6.61 34.52-7.95 42.78-7.9 26-28.23 58-55.88 56.58-33.54-2-47-43-50.89-55.46-4.14-13.39-7.51-26.38-8.08-28.36a40.57 40.57 0 0 1 -1.45-14c-.68-2.76-1.37-5.43-2-7.86 0 0 1.12-54.43 39.68-68.21.35-.07.68-.1 1-.16 18.65-7.17 34.46-4.37 45.5.15h.13a48.41 48.41 0 0 1 16.84 10.32c22 20.69 22.8 57.9 22.8 57.9a45.7 45.7 0 0 1 .3 6.32z" fill="#955d43"/><g fill="#2d1929"><path d="m257.08 226.7c-4.88-1.24-7.73-3.17-8.48-5.75-1.67-5.74 8.09-9.12 6.65-27.14a.5.5 0 1 1 1-.08c.54 6.76-.46 12.73-3 17.77-2 4-4.46 6.49-3.68 9.17.64 2.21 3.26 3.91 7.77 5.06a.5.5 0 0 1 -.26.97z"/><path d="m284.2 197.62c0 4.41-2.32 8-5.17 8s-5.16-3.57-5.15-8 2.31-8 5.17-8 5.15 3.6 5.15 8z"/><path d="m293.55 188.78a1 1 0 0 1 -.86-.48 30.58 30.58 0 0 0 -18.11-13.88 1 1 0 0 1 .54-1.92 32.62 32.62 0 0 1 19.28 14.77 1 1 0 0 1 -.85 1.51z"/><path d="m233.81 197.61c0 4.41-2.3 8-5.15 8s-5.17-3.56-5.17-8 2.3-8 5.15-8 5.17 3.6 5.17 8z"/><path d="m216.21 183.53a1 1 0 0 1 -.83-1.55 24.86 24.86 0 0 1 21.62-11.07 1 1 0 0 1 1 1 1 1 0 0 1 -1 1 22.84 22.84 0 0 0 -20 10.18 1 1 0 0 1 -.79.44z"/></g><path d="m236.74 254.78a2.71 2.71 0 0 1 .17-3.84l12.09-11.78a2.46 2.46 0 0 1 3.46 3.49l-11.88 12a2.71 2.71 0 0 1 -3.84.13z" fill="#86ebf9"/><path d="m179.71 322.05-10.66-10.73c-1.15-1.16-.73-3.37.92-4.91l65.08-61.13a2.36 2.36 0 0 1 3.27 0l8 8a2.34 2.34 0 0 1 -.07 3.26l-61.61 64.63c-1.58 1.64-3.78 2.04-4.93.88z" fill="#86ebf9"/><path d="m185.71 312.35-6.91-7c-.92-.93-.62-2.67.65-3.88l54.66-52.17a2 2 0 0 1 2.73-.06l5.4 5.45a2 2 0 0 1 -.08 2.72l-52.57 54.28c-1.22 1.31-2.97 1.58-3.88.66z" fill="#40c2d6"/><path d="m213.69 273.25 20-19.48a2.87 2.87 0 1 1 4 4.06l-19.59 19.87c-1.45 1.47-3.64 1.67-4.87.43s-.94-3.51.46-4.88z" fill="#e73f46"/><path d="m215.87 275.5a1.41 1.41 0 0 0 2 .06l33.51-33.56a1.14 1.14 0 0 0 -.17-1.57 1.13 1.13 0 0 0 -1.56-.18l-33.83 33.27a1.42 1.42 0 0 0 .05 1.98z" fill="#e73f46"/><path d="m254.91 250.76a.46.46 0 0 1 -.37-.17 8.92 8.92 0 0 1 7.52-14.87.5.5 0 0 1 .46.54.52.52 0 0 1 -.54.46 7.92 7.92 0 0 0 -6.69 13.21.5.5 0 0 1 -.38.83z" fill="#2d1929"/><path d="m333.41 167.8c-.91.45-2.59.47-6-2.2q-2.81 16-5.59 32l-16.27-2.6-2.13-26.91a51.28 51.28 0 0 1 -28.88-46.28 77.88 77.88 0 0 1 -17.32 17c-4.39 3.12-14.5 10.29-17.94 7.55-4.48-3.55 4.76-21.77 3.46-22.35-1.86-.82-11 32-41.56 43.45l1.26 29-17 3.87q-2.52-18.15-5-36.3c-3.27 2.62-4.84 2.64-5.67 2.21-5.05-2.63-.06-31 16.55-51.19a73.37 73.37 0 0 1 22.49-18.39 77.81 77.81 0 0 1 17.63-6.22c26.33-5.43 51.61 9.68 56.66 12.82a23.48 23.48 0 0 1 11.3-1c5.36.92 11.13 4 18.3 13.6 15.14 20.25 21.37 49.14 15.71 51.94z" fill="#917eec"/><path d="m316.23 181.63c-8.5-3.43-18.76 2.16-22.93 12.47s-.66 21.47 7.83 24.9 18.76-2.15 22.93-12.47.66-21.46-7.83-24.9z" fill="#955d43"/><path d="m309.17 211.68a.5.5 0 0 1 -.33-.88c.89-.75 3.18-3.07 3.08-4.81-.11-2.06-3.18-2.77-3.21-2.78a.5.5 0 0 1 -.4-.5c.26-6.84 3.89-16.32 10.57-15a.5.5 0 0 1 .4.59.51.51 0 0 1 -.59.39c-5.85-1.17-9 7.69-9.36 13.65 1 .31 3.46 1.29 3.59 3.58.15 2.59-3.29 5.51-3.43 5.63a.51.51 0 0 1 -.32.13z" fill="#2d1929"/><path d="m214.39 194.1c-4.17-10.31-14.43-15.9-22.93-12.47s-12 14.58-7.83 24.9 14.44 15.9 22.93 12.47 12-14.58 7.83-24.9z" fill="#955d43"/><path d="m198.52 211.68a.51.51 0 0 1 -.32-.12c-.14-.12-3.58-3-3.43-5.63.13-2.29 2.59-3.27 3.59-3.58-.34-6-3.5-14.82-9.36-13.65a.5.5 0 0 1 -.2-1c6.69-1.33 10.32 8.15 10.57 15a.49.49 0 0 1 -.39.5s-3.1.72-3.21 2.78c-.1 1.74 2.19 4.06 3.08 4.81a.5.5 0 0 1 -.33.89z" fill="#2d1929"/><g clip-path="url(#clip-path-2)"><path d="m288.65 52.66c-20.25-1.46-44 10.42-49.59 26a19.65 19.65 0 0 0 -.94 11.81c3.4 12.93 20 10.9 40.92 24.56 20 13 25 28.34 46.58 33.48a18.4 18.4 0 0 0 7.78.07c20.42-3.8 18.53-41.57 4.83-59.28s-18.7-24.8-12.42-28.11 17.87 6.38 22.82 3.54 2.35-11.8-4.26-13.93-1.65-9-4.72-12-6.85 1.42-11.57-4c-3-3.44-6-4.09-7.37-3.46-2.45 1.11.55 7.59-3 13.37a14.31 14.31 0 0 1 -5.67 5c-8.59 4.76-18.67 3.29-23.39 2.95z" fill="#86ebf9"/><path d="m347.36 49.36s1.88 13.22-11.89 9.91-20.22-.63-22.74 9.45 22.76 31.79 17.36 41.55-44.8-27.12-57.36-27.72 15.45 17.66 12.93 24-43.9-3.47-48.08-29.6l-10.19 14.47 18.92 20.5 45.46 22.28 27 26.13 34.87-9.13 8.5-32.74-14.46-38.09 10.7-11 1.26-14.8z" fill="#40c2d6"/></g><rect fill="#efbd42" height="6.72" rx="2.92" transform="matrix(.666 .746 -.746 .666 148.47 -218.65)" width="21.61" x="307.51" y="53.05"/><path d="m228.07 376.36c.16-.52.17-.5 0 0z" fill="#d7981a"/><path d="m228.11 376.4c-22.28 63.6-4.58 101.08-4.58 101.08-22.3 3.94-35.88-1.44-42.7-5.2-34.07-18.8-47.51-79-24.36-147.07a154 154 0 0 0 -10.34 21.13c-10.62 26.71-9.47 43.11-15.82 133.5l108.55 1.25c-26.41-30.18-12.04-98.82-10.75-104.69z" fill="#d7981a"/><path d="m359.54 326.15c-17.63-27.7-25.82-21.4-33.73-39.66a18.62 18.62 0 0 0 -6.89-7.95 16.71 16.71 0 0 1 3.54 10.46c-.47 14.64-50.53 33.53-44.86 37.78s41.12-20.44 56.45-11.87c16.9 9.44 8.37 60.84 6.84 69.95-4.68 27.94-14.42 46.05-4.26 59.5 6 7.94 14.4 8.28 14.64 13.22.28 5.78-10.83 13.43-49.34 23.45h79s-3.76-127.17-21.39-154.88z" fill="#d7981a"/><path d="m221.41 409.28s-4.41 23.61 17.59 26.72 63.59-2.2 62 4.41-65.49 1.57-67.38 6.29 4.1 6.61 23.93 12.28-32.47 12.52-36.56-1.26-5.57-40.57.42-48.44z" fill="#d7981a"/></g></svg>