<svg height="512" viewBox="0 0 512 512" width="512" xmlns="http://www.w3.org/2000/svg" xmlns:xlink="http://www.w3.org/1999/xlink"><clipPath id="clip-path"><path d="m480.79 117.14-12.2-31.39a16.33 16.33 0 0 0 -21.13-9.31l-173 67.22a62.83 62.83 0 0 0 -32.39 28.47l-5.91 10.87-71.34 27.7a11.12 11.12 0 1 0 8.05 20.73l70.47-27.38 16.07 5.2a53.68 53.68 0 0 0 36-1l175.21-68.08a17.77 17.77 0 0 0 10.17-23.03z"/></clipPath><clipPath id="clip-path-2"><rect height="67.17" rx="20.44" transform="matrix(.362 .932 -.932 .362 363.12 -227.8)" width="46.73" x="324.66" y="117.86"/></clipPath><g id="Thermometer"><path d="m225.28 158.65s125.09-46.82 137-38.83-2.67 35.66-67.71 71.66-62.46 72.12-101.14 76-28.59-62.09-11.29-86.7 43.14-22.13 43.14-22.13z" fill="#e39c76"/><path d="m201.38 279s56.85-36.53 72.27-37.39 54.52-.43 59.25-11.6-48.75-13.45-48.75-13.45a157.68 157.68 0 0 1 39.54-3.27c12.05.56 24.62 2.64 34-5.16 2.16-1.8 4.07-3.4 4.13-5.63.28-9.35-32.42-18.78-59.65-22.35-32.84-4.3-75.39 15.9-90 32.24s-36.57 53.31-10.79 66.61z" fill="#e39c76"/><path d="m32 370.18 57-69.58s31.45-93.69 61.63-126.6 145.69-64.25 168.24-73.56 14.55 13.58-7.08 29.88c-23.14 17.4-142.57 80.53-119.5 102.68 4.85 4.65 61.14-8.81 68.66 2.26 3.05 4.48-3.32 11-17.41 39.32-10.25 20.63-9.58 22.51-15.47 33.52-6.88 12.85-18.61 30.53-39.47 49l-37.6 79.57s-87.5-21.87-119-66.49z" fill="#f5b493"/><g clip-path="url(#clip-path)"><path d="m480.79 117.14-12.2-31.39a16.33 16.33 0 0 0 -21.13-9.31l-173 67.22a62.83 62.83 0 0 0 -32.39 28.47l-5.91 10.87-71.34 27.7a11.12 11.12 0 1 0 8.05 20.73l70.47-27.38 16.07 5.2a53.68 53.68 0 0 0 36-1l175.21-68.08a17.77 17.77 0 0 0 10.17-23.03z" fill="#287eef"/><path d="m494 113.49-216 84a40.94 40.94 0 0 1 -34.2-2l-88 34.17 5.94 15.29 83.34-32.39 32.56 14.34 226.22-87.9z" fill="#1573d8"/><path d="m396.5 74.33h129.18v51.6h-129.18z" fill="#e73f46" transform="matrix(.362 .932 -.932 .362 387.41 -365.92)"/><path d="m459.76 111.88h40.23v57.34h-40.23z" fill="#cc3745" transform="matrix(.362 .932 -.932 .362 437.07 -357.65)"/></g><g clip-path="url(#clip-path-2)"><rect fill="#c6c6c6" height="67.17" rx="20.44" transform="matrix(.362 .932 -.932 .362 363.12 -227.8)" width="46.73" x="324.66" y="117.86"/><rect fill="#e8e7e3" height="67.17" rx="20.44" transform="matrix(.362 .932 -.932 .362 369.3 -226.36)" width="46.73" x="326.69" y="123.09"/></g><path d="m338.3 153.65a6.89 6.89 0 0 0 2.31-3.3 5.21 5.21 0 0 0 .23-2.72 6.74 6.74 0 0 0 -2.09-3.54c-3-2.8-7.94-1.93-10.6 1.5-2.51 3.23-1.07 9.06 2 7.86a1.14 1.14 0 0 0 .47-1.46c-2.24-5.76 1.6-8.73 4.5-6.76a4.41 4.41 0 0 1 1.7 1.83 5.5 5.5 0 0 1 .4 4.37 5.57 5.57 0 0 1 -3.07 3 1 1 0 0 0 .9 1.86c7.43-2.89 10.51 8.76 5.59 10.73a3.88 3.88 0 0 1 -3.69-.41 7 7 0 0 1 -2.6-3.67 1.1 1.1 0 0 0 -1.4-.76c-2.11.82-1.83 3.08-.49 4.87 3.12 4 9.92 2.79 12.65-1s2.13-8.77-1.82-11.28a9.26 9.26 0 0 0 -4.99-1.12z" fill="#231f20"/><path d="m363.32 146.66a8 8 0 0 0 -7.13 2.66 9.37 9.37 0 0 0 -1.84 2.94c-1.7-3.9-3.33-9.87-2-13.86a3.52 3.52 0 0 1 2.06-2.25c1.6-.63 1.78.6 2.67.26.48-.19.59-1 .41-1.44a1.59 1.59 0 0 0 -1.27-.94 4.48 4.48 0 0 0 -2.35.43c-11.59 4.5-3.32 30.83 8.54 26.23a8.11 8.11 0 0 0 5.26-5.87 7.06 7.06 0 0 0 .14-2.94 12.66 12.66 0 0 0 -.44-1.53 5.63 5.63 0 0 0 -4.05-3.69zm1 6.89a5.48 5.48 0 0 1 -.24 2.81 3.58 3.58 0 0 1 -5.76 1.84 8.77 8.77 0 0 1 -3-4c.91-3 4.7-6.19 7.14-4.16a5.92 5.92 0 0 1 1.86 3.51z" fill="#231f20"/><circle cx="398.35" cy="131.88" fill="#efbd42" r="13.84"/><rect fill="#86ebf9" height="9.1" rx="3.98" transform="matrix(.362 .932 -.932 .362 349.26 -168.44)" width="25.58" x="284.92" y="166.44"/><path d="m165.54 234.58a44.14 44.14 0 0 0 40-5.8c26.5-17.61 34.08-32.91 56.73-43.19 12.86-5.85 21.58-6 27.72-2.58a9.63 9.63 0 0 1 3.22 2.35c6.3 8-8.86 29.13-32.23 62.76-32.24 46.36-32.22 47.52-38 51.57-22.42 15.63-63.4 26.85-81.23 6.45-12-13.7-12.22-40.21 1.45-57 5.03-6.29 12.35-11.46 22.34-14.56z" fill="#f5b493"/></g></svg>