<svg height="512" viewBox="0 0 512 512" width="512" xmlns="http://www.w3.org/2000/svg" xmlns:xlink="http://www.w3.org/1999/xlink"><clipPath id="clip-path"><rect height="31.32" rx="1.25" width="87.35" x="211.7" y="56.18"/></clipPath><g id="Management"><rect fill="#287eef" height="357.94" rx="10.42" width="300.91" x="100.41" y="63.55"/><path d="m370.3 410.37h-237a1194.36 1194.36 0 0 1 0-333.42h237z" fill="#c6c6c6"/><path d="m380.81 401.3h-232.31a1297.48 1297.48 0 0 1 0-324.3h232.31a1357.59 1357.59 0 0 0 0 324.3z" fill="#e5e5e5"/><rect fill="#cc3745" height="38.83" rx="4.83" width="94.86" x="207.95" y="52.43"/><g fill="#efbd42"><path d="m266 160a71.46 71.46 0 1 0 60.54 80.91 71.47 71.47 0 0 0 -60.54-80.91zm-13.4 93a22.5 22.5 0 1 1 25.48-19.06 22.5 22.5 0 0 1 -25.47 19.06z"/><path d="m260.58 197.64a13.27 13.27 0 0 1 -11.24-15l6.27-43.57a13.27 13.27 0 1 1 26.27 3.78l-6.27 43.57a13.29 13.29 0 0 1 -15.03 11.22z"/><path d="m240.61 336.34a13.3 13.3 0 0 1 -11.25-15l6.28-43.57a13.27 13.27 0 0 1 26.27 3.78l-6.28 43.57a13.29 13.29 0 0 1 -15.02 11.22z"/><path d="m301.29 252.05a13.27 13.27 0 0 1 3.79-26.27l43.56 6.28a13.27 13.27 0 1 1 -3.78 26.27z"/><path d="m162.6 232.08a13.27 13.27 0 0 1 3.78-26.27l43.62 6.28a13.27 13.27 0 1 1 -3.78 26.27z"/><path d="m308.89 318.92a13.13 13.13 0 0 1 -8.73-5.18l-26.38-35.25a13.27 13.27 0 0 1 21.22-15.9l26.37 35.25c7.05 9.38-.74 22.77-12.48 21.08z"/><path d="m224.94 206.73a13.17 13.17 0 0 1 -8.73-5.18l-26.37-35.25a13.27 13.27 0 0 1 21.25-15.9l26.37 35.25c7.02 9.35-.79 22.77-12.52 21.08z"/><path d="m292.2 216.42c-11.76-1.7-15.42-16.75-6.05-23.76l35.24-26.37a13.27 13.27 0 1 1 15.9 21.25l-35.24 26.37a13.24 13.24 0 0 1 -9.85 2.51z"/><path d="m180 300.37c-11.79-1.7-15.41-16.77-6.06-23.77l35.25-26.37a13.27 13.27 0 0 1 15.9 21.25l-35.24 26.38a13.24 13.24 0 0 1 -9.85 2.51z"/></g><circle cx="255.82" cy="230.69" fill="#d7981a" r="56.59" transform="matrix(.51 -.86 .86 .51 -73.14 332.91)"/><path d="m241.16 212.25c1.63-11.3 10.91-17 21.85-16.76l1.13-7.89a2.13 2.13 0 1 1 4.21.61l-1.11 7.71a21.26 21.26 0 0 1 10.67 5 18.08 18.08 0 0 1 5.72 15.73c-.63 4.38-3.53 6.29-7.21 5.76a3.09 3.09 0 0 1 -2.33-3.68c1.4-10.11-1.1-16-7.61-17.55l-4 28.1c4.87 3.86 8.05 6.58 9.68 8.12 4.35 4.15 7.21 9.09 6.26 15.7-1.15 8-5.85 12.92-12.08 15.18a25.6 25.6 0 0 1 -9.71 1.59l-1.13 7.88a2.13 2.13 0 0 1 -4.21-.6l1.1-7.65a22 22 0 0 1 -10.66-5.06 18.12 18.12 0 0 1 -5.78-15.73c.61-4.27 3.59-6.28 7.27-5.75a3.06 3.06 0 0 1 2.33 3.67 23.86 23.86 0 0 0 1.18 11.68 9.4 9.4 0 0 0 6.4 6.1l3.79-26.33c-8.55-7.52-17.29-14.94-15.72-25.82m17.47 13.67 3.55-24.93a11.82 11.82 0 0 0 -9.87 10.15c-.9 6.25 1.9 10.83 6.28 14.8m-1.26 38.51a12.52 12.52 0 0 0 9.75-10.17c.68-4.67-2.2-8.72-6.45-12.73z" fill="#efbd42"/><path d="m61.34 229.69h103.37a0 0 0 0 1 0 0v55.06a48.14 48.14 0 0 1 -48.14 48.14h-5.25a50 50 0 0 1 -50-50v-53.2a0 0 0 0 1 0 0z" fill="#917eec" transform="matrix(.97 -.25 .25 .97 -67.65 37.87)"/><path d="m86.08 324h103.37a0 0 0 0 1 0 0v55.06a48.14 48.14 0 0 1 -48.14 48.14h-5.25a50 50 0 0 1 -50-50v-53.2a0 0 0 0 1 0 0z" fill="#917eec" transform="matrix(-.967 .254 -.254 -.967 366.31 704.06)"/><path d="m125.9 326.54a48.14 48.14 0 0 1 -58.72-34.32l-11.67-44.47 91.16-23.9 12.16 46.35a46.2 46.2 0 0 1 -32.93 56.34z" fill="#86ebf9"/><path d="m104.12 433.09-12.12-46.35a46.2 46.2 0 0 1 32.93-56.34 48.15 48.15 0 0 1 58.72 34.32l11.66 44.47z" fill="#86ebf9"/><path d="m124.54 322.17c-4.64 1.49-18.75 6-31.75-1.06-7.58-4.13-11.56-10.46-15-15.94a62 62 0 0 1 -8.48-22l82.32-21.59c1 2.12 9.72 22.07-1.15 40.88-8.09 13.99-21.89 18.41-25.94 19.71z" fill="#e73f46"/><path d="m107.38 427.51-7.64-29.11c-4-15.4 10.72-32.66 32.89-38.47 23.22-6.09 45.54 2.07 49.77 18.19l7.29 27.81z" fill="#e73f46"/><path d="m125.05 308.83h7.61v63.09h-7.61z" fill="#e73f46" transform="matrix(.967 -.254 .254 .967 -82.12 43.82)"/><rect fill="#917eec" height="15.23" rx="4.61" transform="matrix(.967 -.254 .254 .967 -55.34 32.88)" width="119.29" x="40.19" y="223.42"/><rect fill="#917eec" height="15.23" rx="4.61" transform="matrix(.967 -.254 .254 .967 -102.52 51.98)" width="119.29" x="90.68" y="415.94"/><path d="m55.4 254.64c5.25 23.75 19.48 74.12 43.7 71.57a51.49 51.49 0 0 1 -8.1-5.75c-6.7-5.83-11.58-13.17-18.53-31.62a299.42 299.42 0 0 1 -10.81-35.21z" fill="#e5e5e5"/><path d="m101.68 426.63c-7.08-23.28-19.4-74.15 2.95-83.82a51.86 51.86 0 0 0 -4.21 9c-3 8.37-3.62 17.15-.62 36.64a295.5 295.5 0 0 0 7.86 36z" fill="#e5e5e5"/><g clip-path="url(#clip-path)"><path d="m296 46.41s-15.34 31.91-92.94 50.38h99.72v-50.38z" fill="#e73f46"/></g><path d="m226.56 405.3q1.74-11.93 3.47-23.86l100.06-66.78 19.06 31.8 25.17-13.77 3.21 33.64-29.25 29-92.36 13.55z" fill="#c6c6c6"/><path d="m336.78 451.8-36.12-61.51 114.56-43.97 55.55 45.6z" fill="#40c2d6"/><path d="m464.31 375.44 6.46 16.48-99.01 29.96 65.51-42.36z" fill="#40c2d6"/><path d="m303.34 375.23-2.68 15.06 10.35 6.86 19.95-12.04z" fill="#40c2d6"/><path d="m337.81 429.68-34.47-54.45 109.03-40.62 51.94 40.83z" fill="#40c2d6"/><path d="m338.48 422.86-34-52.36c36.46-10 73.83-23.25 107.29-39.58l52.05 36.63a421.19 421.19 0 0 1 -125.34 55.31z" fill="#86ebf9"/><path d="m322.66 422.26 13.34 19.47 22.42-11.73-21.91 7.6z" fill="#86ebf9"/><path d="m466.93 382.12-57.42 27.05 58.86-23.37z" fill="#86ebf9"/><path d="m312.82 373a.45.45 0 0 1 .25-.69c32.95-9.48 66.86-21.64 98-36.6.39-.19-2.27-2.11 40.31 31.39a.46.46 0 0 1 -.06.76 670.78 670.78 0 0 1 -109.6 47.14c-.5.18.28 1-28.9-42zm1.1 0 27.84 41a670.58 670.58 0 0 0 108.53-46.63l-39.08-30.74c-30.66 14.77-64.21 26.88-97.29 36.42z" fill="#fff"/><path d="m396.79 381.18c-6.12 4.08-16.56 3.34-23-1.54-6.15-4.69-6.07-11.36-.14-15s15.42-3.06 21.75 1.21c6.6 4.44 7.38 11.34 1.39 15.33z" fill="#e5e5e5"/><path d="m335.42 418.14 56.79-36.14-29.69-30.1-12.52 3.42-26.35 48.47s2.85 15.21 11.77 14.35z" fill="#40c2d6"/><path d="m252.63 466.11-48-55.11 116.14-65.69 64.09 36.69c-43.99 34.84-82.67 58.31-132.23 84.11z" fill="#40c2d6"/><path d="m375.19 366.76 9.67 15.24-92.05 43.76 56.43-51.07z" fill="#40c2d6"/><path d="m204.32 395.82.35 15.18 11.6 5.22 17.36-14.71z" fill="#40c2d6"/><path d="m249.26 444.25-44.94-48.43 111.35-61.58 59.52 32.52z" fill="#40c2d6"/><path d="m248.57 437.47-44.07-46.47c17.06-7.58 46.82-22.39 65.26-32.64a512.05 512.05 0 0 0 44.56-27.69l58.19 31.33c-49.58 33.23-74.58 47.07-123.94 75.47z" fill="#86ebf9"/><path d="m232.78 439.17 17 17.17 31.4-20.7c-6.66 3.51-24.89 13-31.67 16.56z" fill="#86ebf9"/><path d="m379.11 372.94-51.46 34.87 53.61-31.47z" fill="#86ebf9"/><path d="m250 429.36c-.3 0 2.26 2.49-36.72-37a.46.46 0 0 1 .13-.73c16.42-7.52 44.55-21.82 60.2-30.6 14.66-8.23 28.46-16.79 41-25.45.36-.25-2.77-1.82 47.18 25.82a.45.45 0 0 1 0 .77c-40.05 26.31-59.6 37.48-98.55 59.69-13.96 7.96-13.05 7.5-13.24 7.5zm-35.62-37.22 35.69 36.2c46.88-26.85 65.32-36.8 110.66-66.55l-45.8-25.35c-12.53 8.63-26.28 17.15-40.87 25.34-15.5 8.68-43.18 22.76-59.69 30.36z" fill="#fff"/><path d="m300.31 385.93c-5.24 4.89-15.72 5.68-23 1.82-7-3.71-8.27-10.27-3.12-14.69s14.65-5.24 21.77-2c7.37 3.43 9.49 10.09 4.35 14.87z" fill="#e5e5e5"/></g></svg>