<svg height="512" viewBox="0 0 512 512" width="512" xmlns="http://www.w3.org/2000/svg" xmlns:xlink="http://www.w3.org/1999/xlink"><clipPath id="clip-path"><path d="m247.45 267.06h38.13v73.66h-38.13z" transform="matrix(.992 .13 -.13 .992 41.71 -32.03)"/></clipPath><g id="Money_Exchange" data-name="Money Exchange"><g clip-path="url(#clip-path)"><path d="m247.45 267.06h38.13v73.66h-38.13z" fill="#834a27" transform="matrix(.992 .13 -.13 .992 41.71 -32.03)"/><path d="m284.85 287.75c-9.49 16-26.89 22.81-44.62 20.32l2.22-21.25z" fill="#6e3d1e"/></g><path d="m295.32 321.9c9 .92 22.62 3.82 33.78 13.93 4.86 4.41 7.56 8.64 15.67 22.64 5.49 9.47 12.43 21.64 20.32 36l41.08-98.17 30.55 10.28c-8.39 80.92-33.05 139-62.34 141.88-8.37.81-16.19-3-23.22-6.39-37.75-18.29-49.32-58.29-51.9-68.27 0-.01-18.61-31.8-3.94-51.9z" fill="#834a27"/><path d="m255.81 312.45c-19 1.35-32.56 6.39-41.32 10.65-15.37 7.49-24.7 17.84-65.62 43.45l-59.4-77.39-23 22.17a347.53 347.53 0 0 0 17.23 37.57c19.8 37.28 30.61 57.62 50.69 62.91 18.49 4.87 36.89-5.12 57.48-16.3a157.54 157.54 0 0 0 33-24l10.41-2.72c23.09-6.58 27.22-33.12 20.53-56.34z" fill="#834a27"/><path d="m70.8 321.9-4.3-10.57s-14.14-8.91-19.5-14.56-19-33.67-16.76-38.34 6.15 1.72 6.15 1.72-3.81-9.22-.74-10.44 7.25 5.29 7.25 5.29-2.58-8.41.49-8.69 7 5.86 7 5.86-2.22-7 1-7.37 13.51 19.54 17.28 21.83 15.4 7.7 18.51 12 5 20.15 5 20.15.25 21.46-21.38 23.12z" fill="#834a27"/><path d="m77.67 275.14s-1.23-13.39 3.81-17.33 2.7 7.5 4.92 14.14 2.7 15.85 2.7 15.85-12.78-5.9-11.43-12.66z" fill="#834a27"/><path d="m416.18 325.63 8.41-7.7s16.59-2 23.9-4.8 31.51-22.33 31.51-27.5-6.29-1.07-6.29-1.07 7.39-6.7 5.14-9.13-8.85 1.67-8.85 1.67 5.93-6.49 3.28-8.06-8.85 2.3-8.85 2.3 5-5.38 2.28-7.08-20.58 11.87-25 12.33c-10.95 1.15-14.35-.71-21.85 2.89-7.82 3.75-12 11.41-14.26 17.29a22.89 22.89 0 0 0 10.58 28.86z" fill="#834a27"/><path d="m427.36 280.43s6.84-11.57 4-17.28-5.65 5.61-10.49 10.66-9.25 13.19-9.25 13.19 14.07.12 15.74-6.57z" fill="#834a27"/><path d="m309.4 190.32c-14.73-14.39-38.94-17.26-54.9-8.51a49.47 49.47 0 0 0 -11.92 7.91c-11.39 8.33-11.25 19.32-14.41 33.34-1.28 5.66-4.08 10.71-6.32 19.33s-2.44 17 2.15 33.35c3.55 12.63 7.22 18.3 10.11 20.75 11.07 9.37 29 2.66 35.7.16a73.07 73.07 0 0 0 16.88-9.26c9.44-5.82 31.47-22.14 35.41-50.25.9-6.02 4.26-30.25-12.7-46.82z" fill="#834a27"/><path d="m244.21 258.45a.49.49 0 0 1 -.3-.1c-3-2.23-4.4-4.38-4.18-6.38.49-4.45 8-3.93 12.08-16.52a.51.51 0 0 1 .63-.33.49.49 0 0 1 .32.63c-4.13 12.81-11.63 12.58-12 16.33-.18 1.62 1.1 3.46 3.79 5.47a.5.5 0 0 1 -.34.9z" fill="#2d1929"/><path d="m241 235.05c-.69 3.15-2.9 5.35-4.93 4.91s-3.14-3.36-2.46-6.51 2.89-5.34 4.93-4.9 3.17 3.35 2.46 6.5z" fill="#2d1929"/><path d="m272.76 241.94c-.68 3.15-2.89 5.35-4.93 4.9s-3.13-3.35-2.45-6.5 2.89-5.35 4.93-4.91 3.14 3.36 2.45 6.51z" fill="#2d1929"/><path d="m251.67 219.71a1 1 0 0 1 -.74-.33c-.26-.3-6.55-7.12-15.36-3.51a1 1 0 0 1 -1.3-.55 1 1 0 0 1 .54-1.3c10.14-4.15 17.53 3.94 17.61 4a1 1 0 0 1 -.75 1.69z" fill="#2d1929"/><path d="m283.47 225.4a1 1 0 0 1 -.71-.29c-6.7-6.76-15.15-2.94-15.51-2.77a1 1 0 0 1 -.85-1.81c.1-.05 10.07-4.61 17.78 3.17a1 1 0 0 1 -.71 1.7z" fill="#2d1929"/><path d="m248.56 314.21c-3.84.77-35.12 7.51-51.07 33.89v109.06h132c.35-17.87.45-33.47.46-46.19 0-45.21-.09-67.82-13.22-80.65-4.32-4.22-8.32-6-16.33-9.58-6.01-2.66-26.72-11.56-51.84-6.53z" fill="#86ebf9"/><path d="m267.39 312.77s-33.49-5.67-60.48 11.74-54.17 39.6-54.17 39.6 2.8 32 19.92 41.33l39.18-17.07s63.5-24.37 55.55-75.6z" fill="#86ebf9"/><path d="m281.63 314.59c30.47 3.41 44.37 15.29 50.95 23.27 1.91 2.31 3.46 4.59 8.06 12.27 7.48 12.48 15.85 27.23 24.55 44.11q-10.72 21.76-23.14 42.69l-21.22-14.93s-71.83-74.82-39.2-107.41z" fill="#86ebf9"/><path d="m246.21 312.21c-2.81 13 6 24.59 20 21.88 8.51-1.63 15.42-9.19 18-19.22-11.54-7.87-25.6-8.4-38-2.66z" fill="#834a27"/><circle cx="422" cy="245.97" fill="#d7981a" r="36.89"/><circle cx="429.39" cy="245.37" fill="#efbd42" r="36.89"/><path d="m419.9 237.44c-.45-5.62 3.39-9.39 8.69-10.48l-.32-3.92a1 1 0 1 1 2.09-.17l.31 3.84c4.12-.22 7.85 1.59 9.59 5.74 1.16 2.79.77 5.76-2.26 6a1.52 1.52 0 0 1 -1.53-1.51c-.43-5-2.28-7.57-5.59-7.62l1.14 14c2.77 1.32 4.6 2.28 5.55 2.85 2.55 1.52 4.48 3.58 4.74 6.87.47 5.69-3.36 9.37-8.65 10.47l.32 3.92a1 1 0 1 1 -2.09.17l-.31-3.81a10.81 10.81 0 0 1 -5.69-1.26c-4.57-2.46-6.6-10.11-1.64-10.51a1.51 1.51 0 0 1 1.52 1.51 11.85 11.85 0 0 0 1.85 5.5 4.67 4.67 0 0 0 3.75 2.23l-1.06-13.1c-4.75-2.57-10-5.23-10.41-10.7m9.92 4.66-1-12.41a5.84 5.84 0 0 0 -3.64 6c.25 3.11 2.1 5 4.65 6.44m3.62 18.68a6.17 6.17 0 0 0 3.58-6c-.19-2.32-2-4-4.51-5.42z" fill="#e5e5e5"/><path d="m197.49 394.62s-.74-41.29 1.58-43.51 9.58 72.09 13.64 79.05 44.8-12.77 51-12.77-15.58 19.16-13.54 26.7 56.83 13.07 56.83 13.07h-109.51z" fill="#40c2d6"/><path d="m328.77 427.61c-4.56-90.81 1.27-94.38 5.74 4z" fill="#40c2d6"/><g fill="#2d1929"><path d="m69.11 290.73a28.16 28.16 0 0 1 4.68-14.61 34.07 34.07 0 0 0 -15.38 11.36.5.5 0 0 1 -.7.1.51.51 0 0 1 -.1-.7 35.19 35.19 0 0 1 17.33-12.22.5.5 0 0 1 .55.78 27 27 0 0 0 -5.38 15.32.5.5 0 0 1 -1-.03z"/><path d="m61.08 270.4a.51.51 0 0 1 -.37-.17c-4.46-5.07-10.5-17.33-10.76-17.85a.51.51 0 0 1 .23-.67.5.5 0 0 1 .67.23c.06.13 6.24 12.66 10.61 17.63a.5.5 0 0 1 -.38.83z"/><path d="m53.1 273.84a.48.48 0 0 1 -.39-.19c-4.42-5.39-10-17.93-10.27-18.46a.5.5 0 0 1 .25-.66.51.51 0 0 1 .67.26c0 .12 5.79 12.94 10.12 18.23a.5.5 0 0 1 -.38.82z"/><path d="m46.38 278.92a.49.49 0 0 1 -.38-.18c-5.08-6.06-9.88-17.9-10.08-18.4a.5.5 0 0 1 .93-.38c0 .12 4.94 12.2 9.91 18.14a.5.5 0 0 1 -.38.82z"/><path d="m442.6 300.23a.49.49 0 0 1 -.49-.4 34 34 0 0 0 -9-16.84 28 28 0 0 1 -2 15.2.5.5 0 0 1 -.91-.4 27.11 27.11 0 0 0 1.69-16.15.51.51 0 0 1 .84-.47 35.21 35.21 0 0 1 10.43 18.46.5.5 0 0 1 -.56.6z"/><path d="m447 282.34c6.07-2.63 17-11.3 17.13-11.39a.5.5 0 0 1 .63.78c-.46.36-11.17 8.85-17.36 11.52a.5.5 0 1 1 -.4-.91z"/><path d="m452.75 288.87c6.18-2.93 16.85-12.05 17-12.15a.5.5 0 0 1 .7.06.49.49 0 0 1 -.05.7c-.44.38-10.88 9.31-17.18 12.29a.5.5 0 0 1 -.47-.9z"/><path d="m456.65 296.33c7-3.23 16.63-12.05 16.72-12.14a.5.5 0 1 1 .68.73c-.4.37-9.81 9-17 12.32a.5.5 0 0 1 -.4-.91z"/></g><path d="m148.87 366.55s-1.53 26.42-9.43 35.39 10.38-2.62 13.3-20a33.43 33.43 0 0 0 19.92 23.48s-17-18.71-19.92-41.33z" fill="#6e3d1e"/><path d="m365.09 394.46s-11.36 20.59-5.47 44.18c0 0 7.46-45.24 10.14-55.34z" fill="#6e3d1e"/><path d="m229.56 216.27s-10.36-19.66 8.44-31.76c0 0 8.49-20.94 21-24.63s3.44 6.39 3.44 6.39 8.36-6.78 19.42-7.2-1.37 8.79-1.37 8.79 36.51 5.43 47.32 16 4.45 27.14 4.45 27.14 13.27 8.63 7.38 29-36.1 45.22-52.95 47.38c6.3-11.29 11.22-19.8 14.28-25 5-8.49 7.82-13.15 6.23-18s-6.34-5.38-9.83-9.5c-3.72-4.39-6.21-13.18 1-32.77 0 0-20.66-16.38-44.74-15.64 0-.04-12.99-.33-24.07 29.8z" fill="#2d1929"/><path d="m319 236.65c-6-3.38-14.2-.22-18.31 7.06s-2.59 15.94 3.41 19.29 14.19.23 18.31-7.06 2.59-15.94-3.41-19.29z" fill="#834a27"/><path d="m304 255.25a.51.51 0 0 1 .49-.51c.15 0 3.57-.07 4.32-3.34.5-2.21-3.55-3.43-3.59-3.44a.5.5 0 0 1 -.29-.73c.2-.34 4.9-8.31 10.7-7.26 4.06.73 4.48 4.73 4.13 6.75a.5.5 0 0 1 -.57.41.51.51 0 0 1 -.41-.58c0-.2.77-4.86-3.33-5.6-4.32-.78-8.2 4.55-9.33 6.26 1.32.51 4.23 1.93 3.66 4.41-.92 4-5.24 4.12-5.28 4.12a.5.5 0 0 1 -.5-.49z" fill="#2d1929"/><path d="m238.88 268.5 22.61-3.6c-4.01 10.88-16.86 14.55-22.61 3.6z" fill="#e5e5e5"/><circle cx="314.3" cy="98.93" fill="#d7981a" r="39.91"/><circle cx="304.8" cy="94.77" fill="#efbd42" r="39.91"/><path d="m317.3 70.44c-1 0-2.91.2-2.91 1.13a7.89 7.89 0 0 1 .43 2.58c0 5.26-6.37 12.46-9.19 18.24-1-2.19-5.87-15-6.72-17.26-1.45-3.77-4.19-4.68-8.21-4.68-1.16 0-1.82.69-1.82 1.42a.68.68 0 0 0 .44.61c2 1.41 6.63 14.87 7.27 17.15a13.5 13.5 0 0 0 4.1 6.58c0 4.25-.11 6.94-.14 8.14-.23 3.23-.2 8.5 1 11.51a4.52 4.52 0 0 0 4.29 3.2 6.61 6.61 0 0 0 3.23-.8 1.33 1.33 0 0 0 0-2.29c-.4-.25-.72-1.09-1-2.47-.85-3.64-.53-9.61-.47-17.62 1.4-6.28 7.4-12.23 10.79-17.19a11.74 11.74 0 0 0 2.29-5.69c0-1.61-1.13-2.45-3.38-2.56z" fill="#e5e5e5"/><rect fill="#e5e5e5" height="3.74" rx="1.69" width="23.43" x="293.09" y="98.57"/><rect fill="#e5e5e5" height="3.74" rx="1.69" width="23.43" x="293.09" y="106.87"/><circle cx="98.71" cy="206.32" fill="#d7981a" r="40.69"/><circle cx="106.61" cy="204.18" fill="#efbd42" r="40.69"/><path d="m115.46 226.61c6.9-1.27 10.37-7 10.55-13.73v-.28c-.13-.72-.62-1.06-1.5-1a1.18 1.18 0 0 0 -1 1.21 13.51 13.51 0 0 1 -1.91 7c-1.22 1.82-2.31 2.84-3.27 3s-1.47.31-1.5.31a7.35 7.35 0 0 1 -5.36-1.13q-7.14-4.91-9.36-17c-1.12-6-1-12.55 1.89-17.92 1.39-2.28 2.89-3.55 4.5-3.85a5.76 5.76 0 0 1 4 .5 6.63 6.63 0 0 1 3.19 4.55 3.67 3.67 0 0 1 -.81 3.49 1.46 1.46 0 0 0 -.45.86 1.16 1.16 0 0 0 0 .32 1.19 1.19 0 0 0 .81.94c1.82.58 3.53.52 4.8-.92a5.71 5.71 0 0 0 1.08-4.89c-2.09-11.24-17.45-10.67-23-1.73a22.82 22.82 0 0 0 -2.81 9.74 37.7 37.7 0 0 0 5.23 22.67c3.46 5.4 8.63 9.03 14.92 7.86z" fill="#e5e5e5"/><rect fill="#e5e5e5" height="3.97" rx="1.58" transform="matrix(.983 -.182 .182 .983 -35.28 21.46)" width="20.81" x="88.66" y="200.58"/><rect fill="#e5e5e5" height="3.97" rx="1.58" transform="matrix(.983 -.182 .182 .983 -36.81 21.89)" width="20.81" x="90.24" y="209.12"/></g></svg>