<svg height="512" viewBox="0 0 512 512" width="512" xmlns="http://www.w3.org/2000/svg" xmlns:xlink="http://www.w3.org/1999/xlink"><clipPath id="clip-path"><rect height="37.3" rx="3.93" transform="matrix(.981 -.194 .194 .981 -74.41 37.41)" width="100.71" x="103.79" y="380.61"/></clipPath><g id="Target"><circle cx="295.82" cy="246.32" fill="#cc3745" r="149.32"/><circle cx="297.74" cy="230.29" fill="#e73f46" r="149.32"/><circle cx="297.74" cy="230.29" fill="#e5e5e5" r="122.38"/><circle cx="297.74" cy="230.29" fill="#e73f46" r="79.65"/><circle cx="297.74" cy="230.29" fill="#e5e5e5" r="37.84"/><path d="m241 286.17s42.14-6.67 91.63 15.67c0 0 12.57-5.48 16-11.55s-110.83-24.77-110.83-24.77l-4.94 10.91a66.75 66.75 0 0 0 8.14 9.74z" fill="#cc3745"/><path d="m241 286.17s-25.3 1.29-49.36 5c0 0-9.6-14.81-8.9-18.87l49.71 3s6.31 8.7 8.55 10.87z" fill="#c6c6c6"/><path d="m191.66 291.2s-21.19 2.65-28.06 4.7l-4.71-10.67 9.58-26.23 16.17 6.35z" fill="#cc3745"/><path d="m332.65 301.84s20.53 6.6 43.47 22.38c0 0 14.26-11 18.19-19.79l-44.4-16s-7.51 9.41-17.26 13.41z" fill="#c6c6c6"/><path d="m376.12 324.22s14.18 7.78 22.38 16.29c0 0 6.81-24.37 7.85-34.2l-14.35 1.58a66.39 66.39 0 0 1 -15.88 16.33z" fill="#cc3745"/><path d="m407.37 315.08a521.12 521.12 0 0 0 -242.14-37.38q11.45-66.1 22.88-132.2a848 848 0 0 0 242.14 37.38q-11.44 66.12-22.88 132.2z" fill="#86ebf9"/><path d="m399.61 301c-3.28 0-92.72-41.86-221.86-34.26a1 1 0 0 1 -1.05-1.17c19.68-113.73 18.23-106.44 18.82-106.81 1.88-1.17 90.84 31.17 222.48 34.1a1 1 0 0 1 1 1.18l-18.4 106.09a1 1 0 0 1 -.99.87zm-.78-2.37 18-103.79a858 858 0 0 1 -219.94-34l-18 103.79a531 531 0 0 1 219.94 33.96z" fill="#40c2d6"/><path d="m283.46 212c1.32-7.71 7.8-11.44 15.28-11.07l.93-5.38a1.46 1.46 0 0 1 2.87.49l-.91 5.26a14.6 14.6 0 0 1 7.22 3.63 12.39 12.39 0 0 1 3.62 10.88c-.51 3-2.54 4.24-5.05 3.81a2.12 2.12 0 0 1 -1.53-2.56c1.15-6.91-.45-11-4.88-12.17l-3.3 19.11c3.27 2.74 5.4 4.66 6.48 5.75 2.9 2.92 4.77 6.36 4 10.87-1.35 7.81-7.76 11.44-15.25 11.08l-.94 5.4a1.43 1.43 0 0 1 -1.68 1.18 1.45 1.45 0 0 1 -1.19-1.68l.9-5.22a14.83 14.83 0 0 1 -7.2-3.66c-5.31-4.91-5.37-15.86 1.42-14.69a2.1 2.1 0 0 1 1.53 2.56 16.26 16.26 0 0 0 .58 8 6.47 6.47 0 0 0 4.27 4.31l3.1-18c-5.74-5.33-11.56-10.56-10.28-18m11.71 9.69 2.93-17a8.09 8.09 0 0 0 -7 6.77c-.74 4.26 1.09 7.45 4 10.25m-1.51 26.39a8.59 8.59 0 0 0 6.87-6.78c.55-3.18-1.34-6-4.18-8.84z" fill="#40c2d6"/><path d="m295.88 264.67a38.38 38.38 0 1 1 19.12-5.13 38.41 38.41 0 0 1 -19.12 5.13zm-.05-74.73a36.36 36.36 0 1 0 35.1 45.81 36.35 36.35 0 0 0 -35.1-45.81z" fill="#40c2d6"/><path d="m310.8 221.1-8.8 2.25 9.48 5.31-1.93 4.81 6.28 1.69 4.29-4.02 5.7 3.24 3.22-8.37-2.42-3.54.19-6.04-8.31 2.6-3.35-3.98z" fill="#2d1929"/><path d="m417.41 147.49 17.14 7.59a2.34 2.34 0 0 0 2.28-.36l43-32.26c1.47-1.1 1.56-3 .17-3.51l-19.31-7.5a2.59 2.59 0 0 0 -2.46.52l-40.81 32.38c-1.2.96-1.21 2.65-.01 3.14z" fill="#efbd42"/><path d="m414.36 143.65-3.49-18.42a2.35 2.35 0 0 1 .88-2.14l41.19-34.54c1.41-1.18 3.25-.85 3.46.63l2.91 20.52a2.58 2.58 0 0 1 -1.07 2.27l-40.81 32.38c-1.21.96-2.82.58-3.07-.7z" fill="#efbd42"/><path d="m314.38 226.09a3 3 0 0 0 4.14.48l146.65-115.18c2.21-1.73 2.93-4.51 1.6-6.19s-4.4-1.44-6.39.15l-145.52 116.65a3 3 0 0 0 -.48 4.09z" fill="#917eec"/><g fill="#efbd42"><path d="m192 283.51a20.21 20.21 0 0 1 -5.7 13.94c-21.49 23.08-70 33.05-99.41 20.35a21.8 21.8 0 0 1 -11.89-11.8q-15.36-38.37-30.7-76.81l146.82-29z"/><path d="m133.55 294.71h20.83v106.02h-20.83z" transform="matrix(.981 -.194 .194 .981 -64.62 34.47)"/><rect height="23.79" rx="5.14" transform="matrix(.981 -.194 .194 .981 -40.51 27.21)" width="165.54" x="36.14" y="208.89"/><rect height="50.09" rx="4.25" transform="matrix(.98 -.19 .19 .98 -74.41 37.41)" width="113.5" x="97.39" y="374.22"/><ellipse cx="148" cy="368.16" rx="18.92" ry="8.53" transform="matrix(.981 -.194 .194 .981 -68.5 35.63)"/><path d="m67.2 313.07c-13.53 0-25.76-7.45-30.06-19.07l-10.58-28.6c-2-5.43 1.6-11.48 7.84-12.71l77.19-15.23a5 5 0 0 1 5.87 3.93l10.9 55.23a5 5 0 0 1 -3.94 5.87c-55.42 10.94-52.35 10.58-57.22 10.58zm-31-50.52 10.36 28c3.37 9.11 14.53 14.28 26 12l45.1-8.9-9-45.41c-76.82 15.15-72.37 14.26-72.5 14.31z"/><path d="m143.88 298.55a5 5 0 0 1 -4.89-4l-10.91-55.25a5 5 0 0 1 3.94-5.88l77.18-15.23c6.28-1.25 11.89 3 12.09 8.77l1.08 30.48c.51 14.56-11.31 27.95-27.5 31.14-53.47 10.56-50.26 9.97-50.99 9.97zm-5-56.28 9 45.41 45.1-8.91c11.43-2.25 19.79-11.27 19.45-21l-1.11-29.77c-.16 0 1.96-.42-72.46 14.27z"/></g><path d="m51.12 246.29 126.93-15.51c1.2 4.95 9.1 39.7-12.81 65.81a64.68 64.68 0 0 1 -22.24 16.87s31.37-6.3 40.08-23.93 8.06-70.89 8.06-70.89z" fill="#d7981a"/><g clip-path="url(#clip-path)"><path d="m197.41 358.41s6 43.62-25.74 62.92l38.56-7.61 7.29-22.89-3.44-27z" fill="#d7981a"/></g><g clip-path="url(#clip-path)"><path d="m110.88 440.12s-6-43.62 25.74-62.93l-38.56 7.62-7.29 22.89 3.44 27z" fill="#e5e5e5"/></g><path d="m153.31 354.89-3.5.69-7.34-33.99 4.71-.93z" fill="#d7981a"/><path d="m154.63 361.15s7.3 5 2.2 11.17c0 0 7.13-2.42 6.79-7.24s-8.99-3.93-8.99-3.93z" fill="#d7981a"/><path d="m138.88 357.74 3.5-.69-6.13-34.23-4.71.93z" fill="#e5e5e5"/><path d="m140 364s-4.85 7.41 2.21 11.17c0 0-7.51.47-9-4.12s6.79-7.05 6.79-7.05z" fill="#e5e5e5"/><path d="m42.31 227.13h8.35v16.16h-8.35z" fill="#e5e5e5" transform="matrix(.981 -.194 .194 .981 -44.67 13.46)"/><path d="m60.32 250.76s20.35 56.28 27 60.95 41.37 4.59 41.37 4.59-33.1-8.13-39.4-19.38-18.29-48.27-18.29-48.27z" fill="#e5e5e5"/><circle cx="131.03" cy="270.85" fill="#d7981a" r="31.23"/><path d="m116.11 261.81c-1.48-7.5 3.12-13.17 10.08-15.45l-1-5.23a1.42 1.42 0 1 1 2.79-.55l1 5.12a14.19 14.19 0 0 1 7.85.78 12.12 12.12 0 0 1 7.11 8.67c.57 2.91-.84 4.76-3.28 5.24a2.06 2.06 0 0 1 -2.29-1.81c-1.36-6.7-4.24-9.83-8.7-9.4l3.68 18.65c3.93 1.36 6.55 2.37 7.92 3 3.67 1.65 6.58 4.14 7.44 8.52 1.5 7.6-3.08 13.15-10 15.44l1 5.23a1.42 1.42 0 0 1 -2.79.55l-1-5.07a14.7 14.7 0 0 1 -7.86-.83c-6.55-2.62-10.43-12.6-3.83-13.91a2.06 2.06 0 0 1 2.29 1.81 16 16 0 0 0 3.34 7.11 6.31 6.31 0 0 0 5.39 2.44l-3.45-17.48c-7.07-2.85-14.24-5.6-15.66-12.82m14.07 4.75-3.3-16.57a7.9 7.9 0 0 0 -4 8.6c.82 4.15 3.6 6.42 7.25 7.95m7.76 24.61a8.38 8.38 0 0 0 3.9-8.58c-.61-3.1-3.33-5-6.9-6.61z" fill="#efbd42"/><rect fill="#d7981a" height="4.09" rx="1.92" transform="matrix(.981 -.194 .194 .981 -73.66 36.83)" width="52.75" x="125.19" y="393.11"/><rect fill="#d7981a" height="4.09" rx="1.92" transform="matrix(.981 -.194 .194 .981 -75.94 37.52)" width="52.75" x="127.56" y="405.14"/></g></svg>