<svg height="512" viewBox="0 0 512 512" width="512" xmlns="http://www.w3.org/2000/svg" xmlns:xlink="http://www.w3.org/1999/xlink"><clipPath id="clip-path"><path d="m198.23 186.08h50.85v77.21h-50.85z"/></clipPath><clipPath id="clip-path-2"><rect height="107.54" rx="9.27" width="63.68" x="388.86" y="279.03"/></clipPath><clipPath id="clip-path-3"><path d="m190.72 231.13a226.21 226.21 0 0 0 42.48 61.87 126.51 126.51 0 0 0 24.63-61.32 540.12 540.12 0 0 0 -67.11-.55z"/></clipPath><g id="Defibrillator"><path d="m402.15 475.28a1.51 1.51 0 0 1 1.05-1.85c18.41-5 24.32-14.83 26-22.18a24 24 0 0 0 -.07-11.27c-9.2 5.93-13.74 2.44-13.2-2.48a10.55 10.55 0 0 1 6.55-8.3c3.4-1.24 6.42 2.37 8 5.65 4.48-5.38 4.15-13.84 2.05-19.57a9.75 9.75 0 0 1 -4.35 3c-8.91 3.13-11.15-.15-11.69-1.71-1.3-3.66 2.51-8.77 8-10.71 2.68-.95 5.44.09 7.71 2.76 1.67-10.09-5.78-26.61-5.87-26.79a1.51 1.51 0 0 1 2.74-1.25c.38.85 9.31 20.66 5.34 31.45 3.78 7.69 3.87 19.51-2.7 26a27.33 27.33 0 0 1 .44 14c-1.89 8.15-8.32 19-28.16 24.4a1.5 1.5 0 0 1 -1.84-1.15zm21.39-43.28c-4 1.45-5.65 6.74-4 7.8 1.83 1.18 6.86-1.51 8.63-2.8a12 12 0 0 0 -2.76-4.26c-.48-.41-1.26-.94-1.87-.74zm2-23.36c-4.36 1.54-6.75 5.24-6.17 6.88.42 1.17 3 1.59 7.87-.12a6.7 6.7 0 0 0 3.86-3.28c-1.29-2.04-3.34-4.27-5.6-3.46z" fill="#2d1929"/><path d="m239.35 244.17s39.73-5.28 59.67 14.5 60.68 101.84 60.68 101.84l65.18-54.12 24.44 24.44a421.72 421.72 0 0 1 -27.32 43.79c-14.79 20.6-33.1 41.61-54 46.41-31.16 7.16-71.5-23.06-99.07-72.74z" fill="#e39c76"/><path d="m359.7 360.51a95.8 95.8 0 0 0 -10.95 38.62s14.76-29 23.86-38.62 4.18 25.78 10.57 29.13 29.82-3.07 29.82-3.07l3.89-32.05-28-18.22z" fill="#d48f6e"/><g clip-path="url(#clip-path)"><path d="m198.23 186.08h50.85v77.21h-50.85z" fill="#e39c76"/><path d="m189.83 213.26c3 2.44 19.18 15.32 41.67 12.47a54.28 54.28 0 0 0 28.79-13.17q1.72-18.19 3.46-36.37h-74.32q.2 18.52.4 37.07z" fill="#d48f6e"/></g><path d="m204.68 234.3c-10.42 2.3-43.89 8-60.42 35-11.19 18.27-11.37 41.19-11.29 86.29.11 55.36.43 98.87.67 125.37h182.85c-2.32-19.19-5.59-49.9-7.58-88-3.27-62.77 9.72-96.06-12.61-127.81a83.42 83.42 0 0 0 -31.67-27c-24.78-11.64-48.47-6.4-59.95-3.85z" fill="#287eef"/><path d="m133 408.91.68 72h128.17s-35.6-10.23-37.12-19 41.36-44.36 43.47-52.5-69.88 38.07-85.76 35.5-22.19-49.43-22.19-49.43z" fill="#1573d8"/><path d="m211 234c-12.6-2.67-36.11-5.59-59.7 5.4a57.91 57.91 0 0 0 -5.19 2.73c-26.73 16-40.62 46-45.07 56-42.65 95.54-56.53 117-43.38 134 29.66 38.27 117.49-24.13 155-54.88l-13.77-31.95-59.79 17.62 19.73-44.16c7.26-3.51 39.32-20 49.48-55.42a80.51 80.51 0 0 0 2.69-29.34z" fill="#e39c76"/><path d="m198.23 232s-37.5-5.74-61.14 10.37-64.59 94.81-64.59 94.81 25.56 26.07 66.6 25.74l23.05-32.8s39.17-22.24 51.52-48-4.76-43.77-15.44-50.12z" fill="#287eef"/><path d="m249 231.84c16.7-1.12 36 3.07 48.63 9.34 19.65 9.78 18.86 24.5 66.36 103.23a124.86 124.86 0 0 1 -65.7 56.65l-22.18-96.88-17.48-56.92-11.58-7.6c1.02-3.92 1.01-3.9 1.95-7.82z" fill="#287eef"/><path d="m139.1 362.92c.7-2.83 16.59-66.74 19.43-66.25 2.22.38.38 32.74-6.09 62.39z" fill="#1573d8"/><path d="m309.06 396.45q-9.24-175.27 15.73-9.08a63.2 63.2 0 0 1 -15.73 9.08z" fill="#1573d8"/><rect fill="#e8e7e3" height="32.51" rx="3.08" transform="matrix(.986 -.165 .165 .986 -48.03 52.98)" width="54.96" x="268.25" y="300.09"/><path d="m289.24 291.2h6.48v15.26h-6.48z" fill="#2d1929" transform="matrix(.992 -.124 .124 .992 -34.89 38.69)"/><rect fill="#86ebf9" height="115.74" rx="9.27" width="57.43" x="223.66" y="301.2"/><rect fill="#2d1929" height="115.74" rx="9.27" width="68.54" x="205.49" y="301.2"/><rect fill="#2d1929" height="107.54" rx="9.27" width="53.36" x="405.74" y="279.03"/><path d="m239.76 398.73h-6.76a12.27 12.27 0 0 1 -12.26-12.26v-51.07a11.34 11.34 0 0 1 11.26-11.33h7.72v8h-7.72a3.29 3.29 0 0 0 -3.29 3.29v51.07a4.22 4.22 0 0 0 4.22 4.21h6.79z" fill="#40c2d6"/><path d="m196 389.25 8.25-5.84a27.71 27.71 0 0 0 6.83.35c7.68-.55 12.67-4.2 19.58-9.26 5-3.62 6.12-5.4 6.34-7.39a8.35 8.35 0 0 0 -1.86-5.71s5.76-9.31-.33-10.9c0 0 2.86-7.28-2.61-7.94 0 0 3-6.81-1.09-8.63s-16.37 1.22-25.66 4.53-19.08 10.54-19.08 10.54-7.3 31.89 9.63 40.25z" fill="#e39c76"/><path d="m89.25 349.51a99.14 99.14 0 0 0 27 18.55 107.92 107.92 0 0 0 -52.25 44.47 230 230 0 0 1 75.07-49.61s-35.63-3.43-49.82-13.41z" fill="#d48f6e"/><path d="m324.85 387.36a52.66 52.66 0 0 0 28 34.36c-17.36-1-32.3-9.39-43.65-22.09 0-1 0-2.08 0-3.12a78.87 78.87 0 0 0 15.65-9.15z" fill="#d48f6e"/><path d="m248.09 482.5a1.51 1.51 0 0 1 -1-.41c-.33-.31-6.67-6.38-8.9-12.78-1.94-.14-4.26-1-6.9-3.33-5.7-5-5.6-11.53-1.22-17.53a12.22 12.22 0 0 1 -3-3.6c-6.33-11.48 3.14-31.65 14-35.16a1.5 1.5 0 1 1 .92 2.85c-9 2.92-17.71 21-12.26 30.86a9 9 0 0 0 2.29 2.75 22.16 22.16 0 0 1 8.66-5.75c3.25-1.06 5-.27 6 .58a3.75 3.75 0 0 1 1.11 4.12c-1.38 4.07-9.06 7.35-15 4.89-3.6 4.77-4 9.72.58 13.73a10.91 10.91 0 0 0 4.21 2.44 8.17 8.17 0 0 1 3.08-7.5c3.33-2.7 5.11-1.44 5.72-.77 2.19 2.4.08 9.22-5 11 1.78 4.49 6 9.2 7.91 11a1.5 1.5 0 0 1 -1.2 2.61zm-4-22.48a4.29 4.29 0 0 0 -1.65 1 5.24 5.24 0 0 0 -2 5 5.27 5.27 0 0 0 1.43-.91 6.41 6.41 0 0 0 2.2-5.11zm-9.24-12.47c4.35 1.14 9.32-1.35 10-3.41a.77.77 0 0 0 -.29-.94c-.36-.33-1.34-.49-3 .05a18.65 18.65 0 0 0 -6.73 4.3z" fill="#2d1929"/><g clip-path="url(#clip-path-2)"><rect fill="#86ebf9" height="107.54" rx="9.27" width="63.68" x="388.86" y="279.03"/><path d="m462.71 281.89-81.33 79.7 4.59 6.12 70.51-69.09 6.23 7.21-79.9 75.34 4.47 5.4 75.43-64.84 8.85-24.1z" fill="#e8e7e3"/></g><g clip-path="url(#clip-path-3)"><path d="m190.72 231.13a226.21 226.21 0 0 0 42.48 61.87 126.51 126.51 0 0 0 24.63-61.32 540.12 540.12 0 0 0 -67.11-.55z" fill="#e39c76"/><path d="m197.38 249.11a160.94 160.94 0 0 0 62.08-1.51 87.38 87.38 0 0 1 -25.89 48.25 82.19 82.19 0 0 1 -36.19-46.74z" fill="#86ebf9"/></g><path d="m179.91 233.82q3.1 19.6 6.2 39.2l12.12-.67-3.23 13.24a84.33 84.33 0 0 0 28.67 9.64l-20.67-10.81-1.76-19.23-10.81 1.13z" fill="#1573d8"/><path d="m267.38 233.82 4.27 27.82-13.82 4.93 11.31 6.54s-16.34 14.56-26.64 20.1c0 0 26.39-11.81 35.18-18.85l-8.54-6.28 11.95-3.56z" fill="#1573d8"/><path d="m287.05 110.48-29.1 120.75" fill="#f5b493"/><path d="m287.05 110.48s-.8-37.55-23.07-58.41a48.89 48.89 0 0 0 -17-10.42c-2.33-.46-20.49-10-46-.16-.35.06-.69.09-1 .16-38.91 13.9-40 68.83-40 68.83.67 2.45 1.36 5.15 2 7.93a41.23 41.23 0 0 0 1.47 14.14c.57 2 4 15.1 8.15 28.61 3.88 12.58 17.5 54 51.35 56 27.91 1.38 48.42-30.84 56.39-57.1 1.36-8.33 7.68-32.69 8-43.17a40.94 40.94 0 0 0 -.29-6.41z" fill="#e39c76"/><g fill="#2d1929"><path d="m225.62 160.67c4.55-1.16 7.19-2.87 7.84-5.11 1.48-5.09-8.22-8.81-6.75-27.18a.51.51 0 0 1 .54-.46.5.5 0 0 1 .46.54c-1.45 18.14 8.39 21.6 6.71 27.38-.75 2.6-3.63 4.55-8.56 5.8a.5.5 0 0 1 -.24-.97z"/><path d="m264.32 111.93a1 1 0 0 1 -.65-.24c-.42-.36-10.43-8.73-22.06-2.09a1 1 0 1 1 -1-1.73c12.89-7.36 24.25 2.21 24.36 2.3a1 1 0 0 1 -.65 1.76z"/><path d="m251.14 124.25c-2.88 0-5.22 3.6-5.22 8s2.32 8.05 5.2 8.06 5.21-3.6 5.22-8-2.34-8.06-5.2-8.06z"/><path d="m200.27 124.25c-2.87 0-5.2 3.61-5.2 8.05s2.34 8 5.22 8 5.2-3.61 5.2-8.06-2.34-7.99-5.22-7.99z"/><path d="m187.09 111.93a1 1 0 0 1 -.65-1.76c.11-.09 11.48-9.66 24.36-2.3a1 1 0 1 1 -1 1.73c-11.63-6.64-21.64 1.73-22.06 2.09a1 1 0 0 1 -.65.24z"/><path d="m219.07 177.43c-5-2.07-7-7.2-7-7.42a.5.5 0 1 1 .93-.35c0 .05 1.91 5 6.51 6.85 3 1.22 6.41 1 10.26-.77a.49.49 0 0 1 .66.24.51.51 0 0 1 -.25.67c-3.61 1.61-7.47 2.29-11.11.78z"/></g><path d="m175.73 133.18a194.19 194.19 0 0 1 1.94-48.53c30.61 7.89 60.42-2.71 81-25.06 0 0-1.85 19.06 12.45 23.82a103.1 103.1 0 0 1 6.26 39.88l17.55-2.14s1.35-61.3-3.69-71.36-21.18-4.5-21.18-4.5c-49.62-19-92.34-18.08-105.62-2.91-11.41 13-12.18 26.74-12.18 26.74a39 39 0 0 0 2.12 14.82q1.86 24 3.71 47.91z" fill="#e73f46"/><path d="m288.66 116.17c-8.58-3.46-18.93 2.17-23.14 12.58s-.67 21.66 7.9 25.12 18.93-2.17 23.14-12.58.67-21.66-7.9-25.12z" fill="#e39c76"/><path d="m281.53 146.48a.5.5 0 0 1 -.32-.88c.9-.75 3.2-3.1 3.1-4.85-.11-2.08-3.21-2.8-3.24-2.81a.49.49 0 0 1 -.39-.51c.25-6.86 3.9-16.47 10.66-15.12a.51.51 0 0 1 .39.59.49.49 0 0 1 -.59.39c-5.92-1.17-9.11 7.78-9.45 13.79 1 .3 3.49 1.3 3.62 3.61.15 2.61-3.31 5.55-3.46 5.68a.48.48 0 0 1 -.32.11z" fill="#2d1929"/><path d="m185.89 128.75c-4.21-10.41-14.57-16-23.14-12.58s-12.1 14.71-7.9 25.12 14.57 16.05 23.14 12.58 12.11-14.71 7.9-25.12z" fill="#e39c76"/><path d="m169.88 146.48a.46.46 0 0 1 -.32-.11c-.15-.13-3.61-3.07-3.46-5.68.12-2.31 2.61-3.31 3.61-3.61-.33-6-3.53-15-9.44-13.79a.49.49 0 0 1 -.59-.39.51.51 0 0 1 .39-.59c6.76-1.35 10.41 8.26 10.66 15.12a.49.49 0 0 1 -.39.51s-3.13.73-3.24 2.8c-.1 1.76 2.2 4.11 3.1 4.86a.5.5 0 0 1 -.32.88z" fill="#2d1929"/><path d="m357.06 233.37 6.94 23.63-15.22-4.68q2.44 20.47 4.9 40.93 5.12-11.65 10.22-23.32l12.1 1.53 5.7-26.72z" fill="#efbd42"/><path d="m390 285.51-5.27 18.49-8.1-9.46-13.89 29.1 16.51-11.13 7.37 6.11 14.94-15.27z" fill="#efbd42"/></g></svg>