<svg height="512" viewBox="0 0 512 512" width="512" xmlns="http://www.w3.org/2000/svg" xmlns:xlink="http://www.w3.org/1999/xlink"><clipPath id="clip-path"><path d="m251.4 349.44c-42.54-24.12-69.08-62.15-72.81-104.35l-9.31-105.09a324.48 324.48 0 0 0 124.87-75 280.7 280.7 0 0 0 126.18 75l-10.82 122.19c-2.72 30.75-23.18 59.44-54.73 76.75l-61.94 34z"/></clipPath><g id="Immune"><path d="m294.81 32a302.1 302.1 0 0 1 -149.49 91.62q5.46 61.73 10.93 123.44c4.37 49.34 35.36 94.26 84.09 121.88l52.32 29.66 72.9-40c38.37-21.05 62.88-56 66.29-94.43 12.77-144.17 12.42-141.36 12.52-141.36a258.63 258.63 0 0 1 -149.56-90.81z" fill="#d7981a"/><path d="m246.41 359.69c-45.47-25.78-73.86-66.69-77.89-112.24l-10-113.23a314.41 314.41 0 0 0 135.88-82.22 270.62 270.62 0 0 0 136.72 81.93l-11.57 130.62c-3 34.11-25.43 65.78-59.94 84.71l-66.87 36.74z" fill="#efbd42"/><g clip-path="url(#clip-path)"><path d="m357.53 32a2141.14 2141.14 0 0 1 -159 340.93l31.95 25.67a3384.31 3384.31 0 0 0 146.69-333.06l16.26 3.93a1854.15 1854.15 0 0 1 -162 339.15l18.69 3a1530.18 1530.18 0 0 0 163.49-347.76l6.72-31.86z" fill="#e8e7e3"/></g><path d="m264.17 288.24c0 4.5-29.33 6.67-30 11s26.53 15.51 25.17 19.69-29.93-2.78-31.93 1.15 20.4 22.92 17.8 26.52-27.6-11.92-30.73-8.78 12.37 28.11 8.78 30.72-22.56-19.83-26.53-17.81 3.1 30.56-1.15 31.94-15.26-25.87-19.69-25.17-6.48 30-11 30-6.67-29.32-11-30-15.5 26.5-19.67 25.17 2.77-29.93-1.15-31.94-23 20.42-26.53 17.81 11.91-27.59 8.78-30.72-28.12 12.37-30.73 8.78 19.84-22.6 17.81-26.53-30.55 3.1-31.93-1.15 25.86-15.26 25.17-19.69-30-6.49-30-11 29.33-6.68 30-11-26.53-15.52-25.17-19.69 29.93 2.77 31.93-1.15-20.41-23-17.81-26.53 27.59 11.91 30.73 8.78-12.37-28.12-8.78-30.73 22.56 19.83 26.53 17.81-3.1-30.56 1.15-31.94 15.26 25.87 19.69 25.17 6.48-30 11-30 6.67 29.32 11 30 15.51-26.52 19.69-25.17-2.78 29.93 1.15 31.94 23-20.41 26.53-17.81-11.91 27.59-8.78 30.73 28.11-12.38 30.73-8.78-19.84 22.56-17.81 26.53 30.55-3.1 31.93 1.15-25.86 15.25-25.17 19.69 29.99 6.5 29.99 11.01z" fill="#917eec"/><g fill="#6d5fde"><circle cx="150.51" cy="261.76" r="16.35"/><circle cx="125.47" cy="299.87" r="8.69"/><circle cx="200.91" cy="291.98" r="19.39"/><circle cx="186.92" cy="253.42" r="8.33"/><circle cx="164.9" cy="320.06" r="10.51"/></g><path d="m277.86 367.35c2.17-2.17 17.34 10.91 19.75 9.16s-5.31-20.25-2.61-21.61 13.08 15.76 15.94 14.83 1.23-20.9 4.2-21.36 7.56 19 10.58 19 7.58-19.51 10.57-19 1.32 20.42 4.2 21.36 13.23-16.22 15.94-14.83-5.11 19.81-2.64 21.61 17.58-11.33 19.76-9.16-10.92 17.34-9.17 19.75 20.26-5.3 21.62-2.64-15.76 13.09-14.83 15.94 20.89 1.23 21.36 4.2-19 7.56-19 10.58 19.51 7.58 19 10.57-20.43 1.32-21.37 4.2 16.22 13.23 14.84 15.94-19.82-5.11-21.62-2.63 11.34 17.58 9.17 19.75-17.35-10.92-19.76-9.16 5.31 20.25 2.64 21.61-13.08-15.76-15.94-14.83-1.22 20.89-4.2 21.36-7.55-19-10.57-19-7.59 19.5-10.58 19-1.31-20.43-4.2-21.36-13.26 16.21-15.94 14.83 5.11-19.81 2.64-21.61-17.64 11.33-19.78 9.15 10.91-17.35 9.16-19.75-20.26 5.3-21.61 2.64 15.75-13.09 14.83-15.95-20.9-1.22-21.37-4.2 19-7.55 19-10.57-19.51-7.59-19-10.58 20.43-1.31 21.37-4.2-16.24-13.22-14.84-15.93 19.82 5.11 21.62 2.64-11.33-17.58-9.16-19.75z" fill="#917eec"/><circle cx="319.86" cy="434.87" fill="#6d5fde" r="11.14"/><circle cx="350.29" cy="428.57" fill="#6d5fde" r="5.92"/><circle cx="310.14" cy="396.02" fill="#6d5fde" r="13.21"/><circle cx="298.3" cy="421.34" fill="#6d5fde" r="5.68"/><circle cx="341.02" cy="399.85" fill="#6d5fde" r="7.16"/><circle cx="258.21" cy="155.69" fill="#287eef" r="24.55"/><circle cx="192.6" cy="443.36" fill="#287eef" r="27.7"/><circle cx="351.84" cy="290.58" fill="#287eef" r="17.98"/><circle cx="111.68" cy="169.48" fill="#287eef" r="13.79"/></g></svg>