<svg height="512" viewBox="0 0 512 512" width="512" xmlns="http://www.w3.org/2000/svg" xmlns:xlink="http://www.w3.org/1999/xlink"><clipPath id="clip-path"><path d="m256.02 207.26h56.21v97.37h-56.21z"/></clipPath><clipPath id="clip-path-2"><path d="m338.89 272.51a7 7 0 0 1 -5.23 8.14 212.7 212.7 0 0 1 -97.25 0 7 7 0 0 1 -5.23-8.14c3.58-18.83 6.72-35.31 9.49-49.87a7 7 0 0 1 8-5.61 231.62 231.62 0 0 0 72.73 0 7 7 0 0 1 8 5.6c2.76 14.57 5.9 31.05 9.49 49.88z"/></clipPath><clipPath id="clip-path-3"><path d="m301.22 478.09a618.46 618.46 0 0 1 -160-1 444.53 444.53 0 0 1 52.4-67.27l107.25 25.48q.18 21.39.35 42.79z"/></clipPath><g id="Injury"><path d="m358.92 75.22s-104.56-48.62-143.99-15.32c0 0-32.77 36.62-39.43 86.91-4.63 34.95 12 44 12.24 59.24.21 11.26-7.05 15.59-12.24 26.34 0 0-11.53 23.88 1 56.78 20.36 53.45 145.4 72.58 199.31 25.47 7.33-6.4 21.61-18.88 22-36 .5-23.41-25.64-32.46-28.75-61-1.84-16.86 5.22-24.8 10.94-41.15 14-40-21.08-101.27-21.08-101.27z" fill="#e73f46"/><g clip-path="url(#clip-path)"><path d="m256.02 207.26h56.21v97.37h-56.21z" fill="#834a27"/><path d="m252.27 248.35a101.93 101.93 0 0 0 68.54 0v-43.23h-68.54z" fill="#6e3d1e"/></g><path d="m284.49 275s79.46-3.66 102.44 39.09 10 164 10 164h-53.8l-5.53-128.46z" fill="#834a27"/><path d="m355.39 129s-1.22-58.76-42.84-73.64c-.38-.07-.73-.1-1.11-.17-27.37-10.53-47.27-.2-49.2.17a52.46 52.46 0 0 0 -18.18 11.15c-23.8 22.33-24.65 62.49-24.65 62.49a45.08 45.08 0 0 0 -.33 6.82c.37 11.21 7.13 37.26 8.58 46.18 8.53 28.09 30.48 62.56 60.33 61.08 36.21-2.16 50.78-46.42 54.93-59.87 4.47-14.45 8.11-28.48 8.72-30.61a44 44 0 0 0 1.57-15.12c.73-2.96 1.47-5.85 2.18-8.48z" fill="#834a27"/><g fill="#2d1929"><path d="m284.87 183.7c-5.25-1.34-8.32-3.41-9.13-6.18-1.79-6.18 8.74-9.82 7.18-29.29a.5.5 0 0 1 1-.08c1.58 19.8-8.82 23.55-7.22 29.09.7 2.4 3.53 4.25 8.42 5.49a.5.5 0 0 1 -.25.97z"/><path d="m245.67 135.05a1 1 0 0 1 -.89-1.45c.07-.14 7.35-14.21 23-12.24a1 1 0 0 1 -.24 2c-14.28-1.8-20.75 10.62-21 11.15a1 1 0 0 1 -.87.54z"/><path d="m257.83 143.73c-3.08 0-5.57 3.86-5.56 8.62s2.5 8.61 5.58 8.6 5.56-3.86 5.56-8.61-2.51-8.61-5.58-8.61z"/><path d="m312.24 143.73c-3.08 0-5.58 3.85-5.58 8.61s2.48 8.61 5.56 8.61 5.57-3.84 5.58-8.6-2.49-8.61-5.56-8.62z"/><path d="m325.09 133.91a1 1 0 0 1 -.84-.46c-.33-.5-8.07-12.17-22.07-8.88a1 1 0 1 1 -.46-1.94c15.4-3.62 24.12 9.6 24.21 9.74a1 1 0 0 1 -.84 1.54z"/></g><path d="m249.11 277.54s-50.11 4.46-60.55 44.37 0 156.18 0 156.18h162.06s16.51-149.87 0-175.84-56.26-31.45-101.51-24.71z" fill="#efbd42"/><path d="m286.13 275.48s-50.8-4.7-90 30.19-106 134.12-80.9 160.1 154.45 6 154.45 6q.6-18.9 1.19-37.79l-77.19-24.15 33.71-47.28c38.81-14.48 64.43-41.68 63.72-68.26a44 44 0 0 0 -4.98-18.81z" fill="#834a27"/><path d="m297 275.27s51.45-1.81 77.25 20.83 31.46 61.11 26.3 124h-50.89l-11.66-78.38z" fill="#efbd42"/><path d="m307.65 275.27c-16.19-1.24-82.57-5-116.33 28.33a287.6 287.6 0 0 0 -23.9 28 319.18 319.18 0 0 0 -28.42 44.89 151.09 151.09 0 0 0 55.57 33.09l28.74-29.89s98.13-45.5 84.34-104.42z" fill="#efbd42"/><path d="m338.89 272.51a7 7 0 0 1 -5.23 8.14 212.7 212.7 0 0 1 -97.25 0 7 7 0 0 1 -5.23-8.14c3.58-18.83 6.72-35.31 9.49-49.87a7 7 0 0 1 8-5.61 231.62 231.62 0 0 0 72.73 0 7 7 0 0 1 8 5.6c2.76 14.57 5.9 31.05 9.49 49.88z" fill="#40c2d6"/><path d="m358 420.15s2.17-69 0-78.12-4.7 72.75-15.43 92-32.19 9.26-32.19 9.26l11.47 34.8h28.81z" fill="#d7981a"/><path d="m305.68 219.35 3.3 62.77h6.02l-4.66-62.77z" fill="#e8e7e3"/><g clip-path="url(#clip-path-2)" fill="#e8e7e3"><path d="m233.75 219.85s36.13 16.31 100.4 0l-12.66-9.85c-81.54 4.38-67.13 3.62-84.08 4.5z"/><path d="m224.09 272s51.12 18.65 120.13 0l2.66 9.87-53.19 10.44-69.6-6z"/></g><path d="m294.36 434s20.13 3.6 26.29 8.93 16.48 35.13 16.48 35.13h-36.59s-10.86.33-12.86-12.32 1.38-30.65 6.68-31.74z" fill="#834a27"/><path d="m214.92 327.41-8 28.3s-24.23 21.64-13.28 54.11l15.3 3.64c-1.64-2.09-11.84-15.57-8.27-33.1a39.89 39.89 0 0 1 11.25-20.36z" fill="#d7981a"/><path d="m280.52 199.7a.5.5 0 0 1 -.39-.82c.1-.11 9.89-11.7 23.23-6.13a.51.51 0 0 1 .27.65.5.5 0 0 1 -.66.27c-12.66-5.29-22 5.74-22.07 5.85a.49.49 0 0 1 -.38.18z" fill="#2d1929"/><path d="m339 279.69s-64.85 130.64-108 160.61l22.33 6s90-118.24 100.58-162a43.4 43.4 0 0 0 -14.91-4.61z" fill="#e8e7e3"/><g clip-path="url(#clip-path-3)"><path d="m301.22 478.09a618.46 618.46 0 0 1 -160-1 444.53 444.53 0 0 1 52.4-67.27l106.68 15.32q.45 26.48.92 52.95z" fill="#e8e7e3"/><path d="m266.55 505.23c-.11 0 1.28.3-22.18-5a.5.5 0 0 1 -.37-.61l25.59-94.52-21.46-2.7c-14.24 109.91-13.2 102.55-13.47 102.75s1 .35-21.53-3.91a.52.52 0 0 1 -.41-.51l2.7-100-42.19 90.72a.52.52 0 0 1 -.56.28c-24.15-4.82-22.7-4.42-22.87-4.77s-3.42 6.3 46.43-91.86a.5.5 0 0 1 .89.46l-46.12 90.83 21.49 4.29 43.05-92.55a.5.5 0 0 1 .95.22l-2.74 102 20.2 3.82 13.27-102.37a.49.49 0 0 1 .55-.43l22.53 2.83a.49.49 0 0 1 .42.62l-25.62 94.54 21.08 4.78 24.43-102.42a.5.5 0 0 1 1 .23l-24.61 102.9a.49.49 0 0 1 -.45.38z" fill="#c6c6c6"/></g><path d="m253.64 418.44 17.9 3.32-4.08 5.6-17.68-4.46z" fill="#c6c6c6"/><path d="m277.89 62.89c-8 4.44-19.1 12.28-25 25.48-7.07 15.88-1 27-6.49 44.45-2.82 9-9.27 21.51-26.12 34.16l-8.18-7.85a136.66 136.66 0 0 1 -6.1-59.77c2.54-20.61 6.19-50.23 29-61.94s49.91 2.37 54.44 4.83c24.77-10.56 39.46-5 44-3 27.96 12.75 42.36 63.09 21.95 121.75h-11.17l.11-25.79a95.48 95.48 0 0 1 -66.44-72.32z" fill="#e73f46"/><path d="m242.44 148.55c-4.5-11.14-15.58-17.16-24.75-13.46s-12.95 15.73-8.45 26.87 15.58 17.17 24.75 13.46 12.95-15.73 8.45-26.87z" fill="#834a27"/><path d="m225.31 167.48a.5.5 0 0 1 -.32-.11c-.16-.13-3.85-3.27-3.69-6.05.14-2.47 2.82-3.52 3.87-3.84-.35-6.45-3.78-16.07-10.14-14.8a.5.5 0 0 1 -.2-1c7.19-1.44 11.09 8.78 11.36 16.14a.5.5 0 0 1 -.39.51s-3.37.78-3.5 3c-.11 1.89 2.37 4.41 3.34 5.22a.5.5 0 0 1 -.33.93z" fill="#2d1929"/><path d="m352.37 135.09c-9.17-3.7-20.24 2.32-24.75 13.46s-.71 23.17 8.46 26.87 20.24-2.32 24.75-13.46.71-23.16-8.46-26.87z" fill="#834a27"/><path d="m344.75 167.48a.5.5 0 0 1 -.32-.88c1-.81 3.44-3.33 3.33-5.22-.12-2.25-3.46-3-3.5-3a.51.51 0 0 1 -.39-.51c.27-7.35 4.18-17.58 11.36-16.14a.5.5 0 0 1 -.19 1c-6.37-1.27-9.8 8.35-10.15 14.8 1.05.32 3.74 1.37 3.87 3.84.16 2.78-3.53 5.92-3.69 6.05a.48.48 0 0 1 -.32.06z" fill="#2d1929"/></g></svg>