<svg height="512" viewBox="0 0 512 512" width="512" xmlns="http://www.w3.org/2000/svg" xmlns:xlink="http://www.w3.org/1999/xlink"><clipPath id="clip-path"><path d="m203.75 177.99h59.19v105.37h-59.19z" transform="matrix(.996 -.092 .092 .996 -20.32 22.55)"/></clipPath><g id="X_Ray" data-name="X Ray"><path d="m314.67 255c-8.72-4.43-23.23-10-44.4-10.18l67.12 128.66 62.4-6.8c-3.64-6.48-9.25-16.27-16.44-28-28.98-47.27-43.97-71.15-68.68-83.68z" fill="#917eec"/><path d="m310 130.09c-3.57-39.23-12.43-88-48.12-95.46s-86.35 36.56-86.35 36.56c-.37-18.77-4.31-24.48-8.18-25.89-12.35-4.46-39.71 28.5-47.25 60.77a94.62 94.62 0 0 0 -2 29.27c.65 7.26 2.85 14.7 7.51 28.11 16.71 48-42.3 72.88 7.4 101.35s174.54.14 191.32-37.72-10.79-57.76-14.33-96.99z" fill="#2d1929"/><g clip-path="url(#clip-path)"><path d="m203.75 177.99h59.19v105.37h-59.19z" fill="#f5b493" transform="matrix(.996 -.092 .092 .996 -20.32 22.55)"/><path d="m202.8 199.65c9.91 29 36.59 44.83 66.13 44.3l-3.67-39.54z" fill="#eba284"/></g><path d="m297.85 141.77c-2.85-12.77-6.67-20.4-8.24-28.77-3.87-20.78-3.06-37-19.36-49.89a73 73 0 0 0 -17.11-12.31c-23-13.77-58.84-10.88-81.32 9.48-25.89 23.46-22.22 59.33-21.31 68.24 4.26 41.61 35.78 66.87 49.36 76a106.92 106.92 0 0 0 24.35 14.48c9.72 4.06 35.76 14.94 52.58 1.75 4.39-3.44 10.11-11.59 16-30 7.69-23.75 7.88-36.16 5.05-48.98z" fill="#f5b493"/><path d="m264.06 164a.5.5 0 0 1 -.28-.92c4.15-2.85 6.16-5.56 6-8.05-.41-5.73-11.47-5.68-16.84-24.76a.5.5 0 0 1 .35-.61.49.49 0 0 1 .61.34c5.28 18.74 16.42 18.56 16.88 25 .2 2.87-2 5.88-6.42 9a.47.47 0 0 1 -.3 0z" fill="#2d1929"/><path d="m277 137.4c-3 .54-6.15-2.82-7-7.49s1-8.91 4-9.45 6.16 2.82 7 7.5-1 8.9-4 9.44z" fill="#2d1929"/><path d="m231.86 145.93c-3 .54-6.16-2.82-7-7.5s.95-8.9 4-9.44 6.15 2.82 7 7.49-.98 8.91-4 9.45z" fill="#2d1929"/><path d="m255.25 106.25a1 1 0 0 1 -.72-1.7c.11-.11 11.22-11.38 25.61-4.85a1 1 0 1 1 -.83 1.83c-13.12-6-23.24 4.31-23.34 4.41a1 1 0 0 1 -.72.31z" fill="#2d1929"/><path d="m208.74 114.71a1 1 0 0 1 -.79-1.62c9.72-12.47 24.79-7.64 24.94-7.59a1 1 0 0 1 .63 1.26 1 1 0 0 1 -1.26.64c-.56-.19-13.9-4.42-22.73 6.92a1 1 0 0 1 -.79.39z" fill="#2d1929"/><path d="m214.9 251.34s-71 5.18-68.77 62.12 15.32 164.62 15.32 164.62h175.94c0-52.79-2.48-96.94-5.12-129.76-4.7-58.56-9.33-75.37-22.78-87.66-29.67-27.14-81.38-13.23-94.59-9.32z" fill="#917eec"/><path d="m236.78 251.34c-14.17-.43-41.17.79-68.78 16.22-11.56 6.45-31.45 20-53.84 57.29-23.67 39.41-63.65 127.86-35.9 151.15 21.43 18 79.6-5.86 138.88-53.84q-4.56-23.12-9.11-46.24l-51.77 13.8 27.63-49.35s78.47-37.37 52.89-89.03z" fill="#917eec"/><path d="m205.66 252.67s27.48 23.78 41.84 21.19 16.79-30 16.79-30-40.03-2.14-58.63 8.81z" fill="#f5b493"/><path d="m169.77 276.6s-12.77 73.68-41.46 104.79-35.9 37.33-44.52 56.66c0 0 44.19-45.67 67.3-56.66 7-3.33 10.16-4.54 11.1-3.63 3.92 3.84-9.64 20.06-8 39.93 1 12.08 7.43 21.48 12.68 27.52l-7.5 16.79q1 8 2.08 16.05h44.21l-28-123.21 8.28-63.15z" fill="#6d5fde"/><path d="m401.45 478.08h-212.75a9.13 9.13 0 0 1 -9.12-8.66l-9.9-191a9.13 9.13 0 0 1 9.12-9.6h232.55a9.13 9.13 0 0 1 9.12 9.6l-9.9 191a9.13 9.13 0 0 1 -9.12 8.66z" fill="#2d1929"/><path d="m300.72 451.75c-4.56 0-8.41-3.31-8.42-7.59l-.15-127.66a8.91 8.91 0 0 1 17.81 0l-.79 127.66c-.03 4.2-3.81 7.59-8.45 7.59z" fill="#e8e7e3"/><g fill="#fff"><path d="m280.66 341.57c-15.44 0-35.58-2.07-50.52-7.56-9.78-3.58-14.93-14.52-10.49-24.05l5.48-11.76a4 4 0 1 1 7.25 3.39l-5.48 11.75c-2.38 5.11.44 11.12 6 13.16 8.26 3 23.25 6.72 47.83 7.07a4 4 0 0 1 -.06 8z"/><path d="m218.47 372.39c-10-3.72-15.76-14-13.44-23.83l2.8-11.9a4 4 0 1 1 7.78 1.83l-2.8 11.9c-1.4 6 2.23 12.19 8.45 14.51 13.31 5 33.68 10 55.16 5.88a4 4 0 1 1 1.51 7.85c-19.93 3.83-40.69.76-59.46-6.24z"/><path d="m202.76 403.63-3.1-14.27a4 4 0 0 1 7.82-1.7l3.1 14.27c1.22 5.62 6.84 9.65 13.08 9.39a129.68 129.68 0 0 0 52-13.33 4 4 0 1 1 3.53 7.17 137.6 137.6 0 0 1 -55.19 14.15c-10.18.42-19.22-6.39-21.24-15.68z"/><path d="m240 445.66c-17.37 0-30.34-9.61-30.56-9.77a4 4 0 0 1 4.84-6.38c.1 0 31.3 24.26 60.24-10.26a4 4 0 1 1 6.13 5.13c-13.83 16.45-28.37 21.28-40.65 21.28z"/><path d="m321 341.57a4 4 0 0 1 -.06-8c24.58-.35 39.6-4 47.86-7.07 5.53-2 8.45-8 6.08-13.18l-5.43-11.75a4 4 0 1 1 7.27-3.35l5.41 11.78c4.36 9.46-.72 20.43-10.58 24-15.04 5.53-35.42 7.57-50.55 7.57z"/><path d="m323.53 378.63a4 4 0 1 1 1.52-7.85c21.45 4.13 41.85-.92 55.19-5.88 6.24-2.32 9.91-8.57 8.53-14.52l-2.77-11.91a4 4 0 1 1 7.8-1.8l2.74 11.91c2.27 9.86-3.55 20.1-13.54 23.82-19 7.06-39.73 10.03-59.47 6.23z"/><path d="m378.18 419.33c-1.78 0-5.94-.31-8.13-.52a137.24 137.24 0 0 1 -47.87-13.65 4 4 0 0 1 3.54-7.17 129.42 129.42 0 0 0 51.89 13.33c6.27.27 11.9-3.78 13.15-9.4l3.17-14.28a4 4 0 1 1 7.81 1.74l-3.17 14.27c-2.02 9.08-10.69 15.68-20.39 15.68z"/><path d="m361.18 445.66c-12.33 0-26.84-4.83-40.56-21.28a4 4 0 0 1 6.15-5.13c28.09 33.75 58.88 11.23 60.23 10.26a4 4 0 0 1 4.83 6.38c-.28.17-13.28 9.77-30.65 9.77z"/></g><path d="m164.56 375.14c-2.11-11.08.58-14.61 2.21-15.92 9.2-7.44 37.32 14.32 34.76 20.9-1.76 4.51-15.37 2.67-15.37 2.67s12.9.45 14.11 6-13.87 6.32-13.87 6.32 13.6-2.13 14.66 2.13-12.65 11.94-12.65 11.94 9.67-3.78 11.22 0-15.36 25-27.42 26.85-5.29-16.08-5.29-16.08-15.14-10.53 0-21.82c0 0-20.35-13.51 0-18.71z" fill="#f5b493"/><path d="m189.26 383.57c-.1 0 .69.12-20.69-3.36a.5.5 0 0 1 .16-1l20.61 3.36a.5.5 0 0 1 -.08 1z" fill="#2d1929"/><path d="m166.92 398.61a.5.5 0 0 1 -.07-1l22.34-3.35a.5.5 0 0 1 .14 1c-23.12 3.46-22.33 3.35-22.41 3.35z" fill="#2d1929"/><path d="m166.92 420.43a.5.5 0 0 1 -.22-.95l21.49-10.76a.49.49 0 0 1 .67.22.5.5 0 0 1 -.23.67c-23.02 11.53-21.53 10.82-21.71 10.82z" fill="#2d1929"/><path d="m434.87 373.71c2-10.46-.55-13.79-2.09-15-8.69-7-35.24 13.52-32.82 19.74 1.66 4.25 14.51 2.52 14.51 2.52s-12.18.42-13.32 5.65 13.1 6 13.1 6-12.85-2-13.85 2 12 11.28 12 11.28-9.13-3.58-10.6 0 14.51 23.56 25.9 25.35 5-15.19 5-15.19 14.29-9.94 0-20.6c0 0 19.21-12.75 0-17.67q1.05-2.07 2.17-4.08z" fill="#f5b493"/><path d="m411.54 381.7a.5.5 0 0 1 -.08-1l19.46-3.17a.5.5 0 1 1 .16 1c-20.29 3.3-19.44 3.17-19.54 3.17z" fill="#2d1929"/><path d="m432.64 395.9c-.1 0 .72.11-21.17-3.17a.51.51 0 0 1 -.42-.57.5.5 0 0 1 .57-.42l21.09 3.16a.5.5 0 0 1 -.07 1z" fill="#2d1929"/><path d="m432.64 416.5c-.19 0 1.18.65-20.52-10.22a.5.5 0 0 1 .45-.89l20.29 10.16a.5.5 0 0 1 -.22.95z" fill="#2d1929"/><path d="m246.68 179.55 28.82-7.55c.89 11.67-7.86 20.14-15.7 19.67-5.6-.37-10.99-5.27-13.12-12.12z" fill="#e8e7e3"/><path d="m224.67 58.42s8.21 48.05-46.32 62c0 0-13.66 51.92 21.52 84-5.55-1-47.08-9.54-67.08-48.32-14.6-28.32-16.81-71 10.7-98.74 29.11-29.36 71.51-21.79 75.41-21.03 0 0 34.46-12.95 56.66 6s16.9 81 16.9 81c-1.25-3.82-3.1-9.59-5.23-16.63-7.06-23.42-5.58-22.4-7.5-25.89-6.89-12.49-20.62-19.24-20.62-19.24-15.36-7.57-30.4-4.2-34.44-3.15z" fill="#2d1929"/><path d="m227.06 164.45a24.88 24.88 0 1 1 24.87-24.87 24.9 24.9 0 0 1 -24.87 24.87zm0-47.75a22.88 22.88 0 1 0 22.87 22.88 22.9 22.9 0 0 0 -22.87-22.88z" fill="#fff"/><path d="m285 153.8a24.87 24.87 0 1 1 24.87-24.87 24.9 24.9 0 0 1 -24.87 24.87zm0-47.74a22.87 22.87 0 1 0 22.87 22.87 22.9 22.9 0 0 0 -22.87-22.87z" fill="#fff"/><path d="m250.43 135.68a1 1 0 0 1 -.29-2l10.86-3.2a1 1 0 0 1 .57 1.92c-11.65 3.47-10.93 3.28-11.14 3.28z" fill="#fff"/><path d="m203.19 140.58c-.21 0 2.63.77-39.95-11.23a1 1 0 0 1 .54-1.92l39.68 11.18a1 1 0 0 1 -.27 1.97z" fill="#fff"/><path d="m175.6 167.62c-9 4.65-20.92-.46-26.58-11.41s-2.92-23.62 6.09-28.28 20.92.46 26.58 11.41 2.93 23.66-6.09 28.28z" fill="#f5b493"/><path d="m175.49 156.62c-.06 0-6.22-.34-7.32-6.17-.7-3.7 4-5.56 5.75-6.11-1.35-2.3-7-11.08-13.77-10.11-6.31.9-5.45 8-5.41 8.32a.5.5 0 0 1 -.43.56.51.51 0 0 1 -.57-.43c0-.08-1-8.4 6.27-9.44 8.4-1.2 14.84 10.66 15.1 11.16a.49.49 0 0 1 -.31.72c-.07 0-6.31 1.64-5.65 5.14 1 5.07 6.33 5.36 6.39 5.36a.5.5 0 0 1 -.05 1z" fill="#2d1929"/></g></svg>