<svg height="512" viewBox="0 0 512 512" width="512" xmlns="http://www.w3.org/2000/svg" xmlns:xlink="http://www.w3.org/1999/xlink"><clipPath id="clip-path"><path d="m321.52 180.13h54.15v107.63h-54.15z"/></clipPath><clipPath id="clip-path-2"><path d="m308.12 122.79a43.3 43.3 0 1 1 42.23-34 43.29 43.29 0 0 1 -42.23 34zm-.05-57.08a13.79 13.79 0 1 0 13.47 16.76 13.86 13.86 0 0 0 -13.47-16.76z"/></clipPath><clipPath id="clip-path-3"><path d="m60.27 123.5c-6.65 12.43-2.27 30.43 10.73 45.59 1.13 7 6.53 38.8 14.81 42.32 8 3.4 1.56-40.82 14.21-44.81 15.65-4.94-5.94 53.28 8.7 46.45 12.87-6 19.64-41.1 20.57-46.14 16-9.33 19.67-30.13 10.06-42.71-8.44-11-25.89-14.17-39.33-5.3-12.14-12.16-31.02-11.61-39.75 4.6z"/></clipPath><g id="Dentist"><path d="m114 332.22-8.27-31.79s-26.45-.69-35.93-6.2-36.18-34.46-31.7-39.46 16.54 8.1 16.54 8.1-17.64-22.75-12.29-25.33 20.34 16.54 20.34 16.54-17.15-22.43-11.69-25.67 20.3 17.23 20.3 17.23c-3.83-6-13-22.22-6-23.82 4.94-1.14 8 10.27 18.61 18 13.64 10 22.11 5.58 35.23 9.61a16.23 16.23 0 0 1 5.35 2.93c7.81 6.16 13.69 18.65 13.8 18.82l14.22 27.14s-19.44 37.26-38.51 33.9z" fill="#f5b493"/><path d="m106.57 253.39s-7.11-19.9-1.3-24.81 22.5 30 22.5 30-18.37 5.42-21.2-5.19z" fill="#f5b493"/><g clip-path="url(#clip-path)"><path d="m321.52 180.13h54.15v107.63h-54.15z" fill="#f5b493"/><path d="m373.08 204.07c-5.89 28.47-29 47.35-56.59 50.12l-2.59-32z" fill="#e39c76"/></g><path d="m141.72 277.5 53.28 103.25c31.51-52.88 40.07-84.65 58-101.31a82.38 82.38 0 0 1 27.16-16.54 137.61 137.61 0 0 1 14.8-4.4q-14.96 65.08-29.88 130.18c-17.47 48.9-48.57 82.29-75.75 79.43s-44.89-41.41-66-87.36a395.62 395.62 0 0 1 -23.57-66.51z" fill="#86ebf9"/><path d="m382.08 78.48c-22.76-17.07-56.44-16.66-76.75-1.81a68.93 68.93 0 0 0 -14.92 13c-14.1 13.45-11.94 28.49-13.76 48.27-.73 8-3.66 15.41-5.19 27.62s-.28 23.77 8.93 45.32c7.13 16.66 13.17 23.77 17.57 26.61 16.85 10.85 40.22-1.56 49-6.19a100.59 100.59 0 0 0 21.48-15.71c11.89-9.67 39.13-36 39.5-75.21.06-8.38.35-42.24-25.86-61.9z" fill="#f5b493"/><g fill="#2d1929"><path d="m304.65 183.29c-4.45-2.49-6.73-5.12-6.78-7.83-.13-6 10.28-6.79 13.59-24.77a.5.5 0 0 1 .58-.41.5.5 0 0 1 .4.59c-3.35 18.26-13.68 19.21-13.57 24.57.05 2.33 2.15 4.67 6.27 7a.5.5 0 0 1 -.49.85z"/><path d="m291.89 143.57c-2.87-.24-5.5 3.17-5.87 7.61s1.65 8.23 4.53 8.47 5.5-3.16 5.87-7.6-1.66-8.24-4.53-8.48z"/><path d="m336.62 147.31c-2.88-.24-5.51 3.17-5.88 7.61s1.66 8.23 4.53 8.47 5.5-3.16 5.87-7.6-1.65-8.24-4.52-8.48z"/><path d="m308.08 128.74a1 1 0 0 1 -.65-.24c-.42-.37-10.45-8.76-22.12-2.1a1 1 0 0 1 -1-1.73c12.91-7.37 24.3 2.21 24.41 2.31a1 1 0 0 1 -.64 1.76z"/><path d="m351.33 134.68a1 1 0 0 1 -.85-.47c-7.15-11.42-20.34-8.64-20.48-8.61a1 1 0 1 1 -.43-1.95c.15 0 14.71-3.1 22.6 9.5a1 1 0 0 1 -.84 1.53z"/></g><path d="m250.63 480c-1-48.4-2.68-87.64-4-113.43-2.17-43.54-3.73-60.45 7.81-77.86 20.46-30.85 62.36-34.12 80.22-35.52 22.64-1.77 64.17-5 85.9 21.05 23.17 27.79 1 65.08 1.86 205.76z" fill="#287eef"/><path d="m315.35 255.32-13.96 224.68h-58.74s-5.51-164.82 2.35-187.36c8-22.92 46.85-36.14 70.35-37.32z" fill="#86ebf9"/><path d="m372.48 255.32-6.32 224.68h65.84l-1.3-170.83s-37.4-57.25-58.22-53.85z" fill="#86ebf9"/><path d="m321.49 254.11c0 13.57 5.85 24.44 14.54 27.39 6.34 2.16 12.44-.47 16.11-2.06 15.63-6.78 21.82-22.84 23.53-27.88a130.06 130.06 0 0 0 -54.18 2.55z" fill="#f5b493"/><path d="m375.67 251.56s61.63 5.92 79.55 46 17.23 182.44 17.23 182.44h-58.94l-5.61-156.86-22.63-57.06z" fill="#86ebf9"/><path d="m382.35 252.52-6.68-.96-3.3 7.79 2.45 3.77 6.89-2.43z" fill="#86ebf9"/><path d="m428 309.87-12.41 50.13s2.59 54.54 1 61.26-19.07 11.63-17.54 16.28 14.44 5.43 16.25 11.37-.26 31.08-.26 31.08h12.96l-5.17-116.61z" fill="#40c2d6"/><path d="m241.48 434.84s.94-110.5 4.56-114.11 5.17 112.17 13.44 118.89 30.44 1 18.58 18.61-4.06 21.77-4.06 21.77h-31.35z" fill="#40c2d6"/><path d="m306.26 257.34-21.19 55.66 12.93 5.14-10.6 18.35q9.42 12.93 18.86 25.85l-10.59-26.11 11.11-18.86-14.47-8z" fill="#40c2d6"/><path d="m380.44 255.18 12.66 51.82-14 13.44 10.9 10.88-17.63 29.47 24.87-27.92-8.24-14.21 12.89-10.66z" fill="#40c2d6"/><path d="m195 380.75s9 36.12 2.36 69.72c13.39-28.49 15.84-59.45 9.08-89.68z" fill="#40c2d6"/><path d="m277.67 122.86s-9.92-23.86-2.94-38.86 25.07-13.7 25.07-13.7 4.65-24 45.49-20.94 79.09 19.11 82.71 56.85-7 86.42-52.33 102.91c0 0 17.67-41.37 18.21-55.42s-14.21-12.09-13.18-37.41-57.89-21.29-68.7-35.41c0 0-31.38 9.01-34.33 41.98z" fill="#2d1929"/><path d="m403.55 140.24c-8.83-3.56-19.49 2.25-23.83 13s-.69 22.31 8.14 25.88 19.5-2.24 23.83-13 .69-22.3-8.14-25.88z" fill="#f5b493"/><path d="m386.89 167.84c.21 0 5-.76 5.48-5.53.31-3.3-5.63-4.27-5.69-4.28a.5.5 0 0 1 -.39-.69c.21-.49 5.23-12.12 13.17-11.75 6.93.34 6.7 8.23 6.7 8.31a.51.51 0 0 1 -.52.48.5.5 0 0 1 -.48-.52c0-.28.19-7-5.75-7.27-6.31-.31-10.84 8.27-11.94 10.58 1.72.38 6.22 1.72 5.89 5.23-.53 5.57-6.27 6.42-6.33 6.43a.5.5 0 0 1 -.14-.99z" fill="#2d1929"/><path d="m288.09 85a604.2 604.2 0 0 0 140.25 45.84 80.1 80.1 0 0 1 -2.24 15.23 808 808 0 0 1 -143.18-48q2.58-6.51 5.17-13.07z" fill="#40c2d6"/><path d="m259.75 68.85a49.49 49.49 0 1 1 48.37 60.15 49.78 49.78 0 0 1 -48.37-60.15zm48.32 3.06a7.58 7.58 0 1 0 7.41 9.22 7.63 7.63 0 0 0 -7.41-9.22z" fill="#86ebf9"/><g clip-path="url(#clip-path-2)"><path d="m339.41 25.05-87.68 87.88 6.84 6.72 85.17-85.3 3.1 2.85-78.57 82.45 2.64 3.21 84.72-78.94v-10.86z" fill="#e8e7e3"/></g><g clip-path="url(#clip-path-3)"><path d="m60.27 123.5c-6.65 12.43-2.27 30.43 10.73 45.59 1.13 7 6.53 38.8 14.81 42.32 8 3.4 1.56-40.82 14.21-44.81 15.65-4.94-5.94 53.28 8.7 46.45 12.87-6 19.64-41.1 20.57-46.14 16-9.33 19.67-30.13 10.06-42.71-8.44-11-25.89-14.17-39.33-5.3-12.14-12.16-31.02-11.61-39.75 4.6z" fill="#e8e7e3"/><path d="m100 118.9c-10.09-4.56-21.36-4.81-28.15.69-10.11 8.19-11.3 29.95 4.68 45.84 0 0 3.78 45.62 12.9 49.85l-17.58-5.1c-15.25-52.89-10.35-37.33-21.85-70.12l2.67-26 17.82-11.16 17.58-1.78 12.82 3.34z" fill="#c6c6c6"/></g><path d="m300.5 200.8 30.2-8.27a18.61 18.61 0 0 1 -11.51 16.59c-11.63 4.88-18.69-8.32-18.69-8.32z" fill="#e8e7e3"/><path d="m146.53 286.81 1.69 8.59-13.96 17.7 19.05-13.14z" fill="#40c2d6"/><circle cx="139.3" cy="294.23" fill="#40c2d6" r="5.04"/><path d="m96.89 277.77c-7-10.33-1.07-20.63 1.81-24.56-15.24 7.46-21 22.72-21.09 22.88a.5.5 0 1 1 -.94-.34c.06-.17 6.48-17.09 23.53-24.33a.5.5 0 0 1 .57.8c-.12.13-11.51 12.57-3.06 25a.5.5 0 0 1 -.82.55z" fill="#2d1929"/><path d="m118.62 64.73 3.65 40.11 5.39-38.65z" fill="#86ebf9"/><path d="m170.63 81.46-25.66 29.43 29.71-23.05z" fill="#86ebf9"/><path d="m190.1 123.05-33.94 13.41 35.73-4q-.89-4.7-1.79-9.41z" fill="#86ebf9"/></g></svg>