<svg id="Walking_Aid" height="512" viewBox="0 0 512 512" width="512" xmlns="http://www.w3.org/2000/svg" xmlns:xlink="http://www.w3.org/1999/xlink" data-name="Walking Aid"><clipPath id="clip-path"><rect height="31.01" rx="6.5" transform="matrix(.972 .237 -.237 .972 19.15 -43.59)" width="111.05" x="135.65" y="42.49"/></clipPath><clipPath id="clip-path-2"><rect height="31.01" rx="6.5" transform="matrix(.846 .533 -.533 .846 106.6 -183.01)" width="111.05" x="314.8" y="77.66"/></clipPath><clipPath id="clip-path-3"><rect height="117.17" rx="8.63" width="161.28" x="243.12" y="316.33"/></clipPath><g fill="#c6c6c6"><path d="m140.37 325.65c-.62 0 1.36.43-26-6.22a3.5 3.5 0 0 1 -2.67-3.52c3.67-105.87 3.33-99.48 3.72-101 .07-1.08-2.06 10.66 30.6-165.8a3.5 3.5 0 0 1 4.27-2.76l82.51 20.12a3.5 3.5 0 0 1 2.52 4.42c-51.56 169.83-49.24 162.2-49.32 162.47-.36 2 3.11-5.71-42.45 90.29a3.51 3.51 0 0 1 -3.18 2zm-21.54-12.35 19.59 4.77 40.38-85.07c0-.1 27.31-90 48.75-160.6l-75.29-18.34c-32 172.92-30 162.43-30 162.53-.15.47.15-6.67-3.43 96.71z"/><path d="m87.94 440.23h11.73v35.2h-11.73z" transform="matrix(.972 .237 -.237 .972 111 -9.19)"/><path d="m85.47 468h9.17a5.12 5.12 0 0 1 5.12 5.12v5.56a0 0 0 0 1 0 0h-19.48a0 0 0 0 1 0 0v-5.5a5.19 5.19 0 0 1 5.19-5.18z" transform="matrix(.972 .237 -.237 .972 114.56 -7.86)"/></g><rect fill="#efbd42" height="31.01" rx="6.5" transform="matrix(.972 .237 -.237 .972 19.15 -43.59)" width="111.05" x="135.65" y="42.49"/><path d="m203.76 165.44-73.15-17.82 1.54-15.79 77.5 18.87z" fill="#c6c6c6"/><rect fill="#c6c6c6" height="141.44" rx="10.53" transform="matrix(.972 .237 -.237 .972 93.06 -15.91)" width="34.68" x="95.48" y="309.04"/><rect fill="#2d1929" height="120.64" rx="4.67" transform="matrix(.972 .237 -.237 .972 92.58 -16.09)" width="11.73" x="107.47" y="317.33"/><g clip-path="url(#clip-path)"><path d="m237.92 45.44s-19.85 29.46-47.53 31.56l55.79 16.17 9.88-29.94-5.43-14.69z" fill="#d7981a"/></g><path d="m236.41 330.48-21.9-13.79a3.5 3.5 0 0 1 -1.41-4.19c37.2-99.5 34.78-93.33 35.58-94.5.42-1-5.26 9.32 81.67-147.5a3.5 3.5 0 0 1 4.92-1.27l71.84 45.24a3.5 3.5 0 0 1 1 5c-101.8 143.24-98.2 138.19-98.37 138.39-1 1.77 4.68-4.34-68.93 72.14a3.49 3.49 0 0 1 -4.4.48zm-15.75-18.19 17.06 10.71 65.28-67.82c.09-.1 53.39-75.15 97.21-136.81l-65.53-41.29c-85.26 153.81-80 144.49-80.06 144.59-.29.4 2.29-6.36-33.96 90.62z" fill="#c6c6c6"/><path d="m145.17 423.79h11.73v35.2h-11.73z" fill="#c6c6c6" transform="matrix(.846 .533 -.533 .846 258.44 -12.6)"/><path d="m138 449.57h9.17a5.12 5.12 0 0 1 5.12 5.12v5.56a0 0 0 0 1 0 0h-19.51a0 0 0 0 1 0 0v-5.5a5.19 5.19 0 0 1 5.22-5.18z" fill="#c6c6c6" transform="matrix(.846 .533 -.533 .846 264.33 -5.98)"/><rect fill="#efbd42" height="31.01" rx="6.5" transform="matrix(.846 .533 -.533 .846 106.6 -183.01)" width="111.05" x="314.8" y="77.66"/><path d="m348.14 199.04-63.71-40.12 6.49-14.49 67.49 42.51z" fill="#c6c6c6"/><rect fill="#c6c6c6" height="141.44" rx="10.53" transform="matrix(.846 .533 -.533 .846 228.79 -45.87)" width="34.68" x="176.52" y="302.68"/><rect fill="#2d1929" height="120.64" rx="4.67" transform="matrix(.846 .533 -.533 .846 227.99 -46.77)" width="11.73" x="189.15" y="311.24"/><g clip-path="url(#clip-path-2)"><path d="m418.64 96.1s-28.18 21.63-55.1 14.83l47.78 33.07 18.87-25.26-.48-15.66z" fill="#d7981a"/></g><path d="m349.09 332.54h-45.84a13.24 13.24 0 0 1 -13.25-13.23v-28.17a13.24 13.24 0 0 1 13.23-13.23h45.84a13.24 13.24 0 0 1 13.22 13.23v28.17a13.24 13.24 0 0 1 -13.2 13.23zm-45.84-47.84a6.45 6.45 0 0 0 -6.44 6.44v28.17a6.45 6.45 0 0 0 6.44 6.44h45.84a6.44 6.44 0 0 0 6.43-6.44v-28.17a6.44 6.44 0 0 0 -6.43-6.44z" fill="#cc3745"/><rect fill="#cc3745" height="143.17" rx="9.24" width="187.28" x="245.43" y="303.33"/><rect fill="#e73f46" height="143.17" rx="9.24" width="187.28" x="230.12" y="303.33"/><circle cx="323.76" cy="372.37" fill="#efbd42" r="47.88"/><rect fill="#e8e7e3" height="61.5" rx="6.56" width="15.77" x="315.87" y="341.62"/><rect fill="#e8e7e3" height="61.5" rx="6.56" transform="matrix(0 -1 1 0 -48.61 696.13)" width="15.77" x="315.87" y="341.62"/><g clip-path="url(#clip-path-3)"><path d="m396.21 299s-9.89 125-72.45 154h93.64v-154z" fill="#cc3745"/></g></svg>