<svg height="512" viewBox="0 0 512 512" width="512" xmlns="http://www.w3.org/2000/svg" xmlns:xlink="http://www.w3.org/1999/xlink"><clipPath id="clip-path"><path d="m112.71 434a29.08 29.08 0 0 1 -29-27.47l-15.31-277a29 29 0 0 1 29-30.67h319.2a29 29 0 0 1 29 30.68l-15.31 277a29.08 29.08 0 0 1 -29 27.47z"/></clipPath><g id="Weighing_Machine" data-name="Weighing Machine"><path d="m112.71 462.48a65.42 65.42 0 0 1 -65.3-61.78l-15.31-277a65.35 65.35 0 0 1 65.3-69h319.2a65.35 65.35 0 0 1 65.3 69l-15.31 277a65.42 65.42 0 0 1 -65.3 61.78z" fill="#cc3745"/><path d="m401.29 445.28h-288.58a47.86 47.86 0 0 1 -47.79-45.22l-15.31-277.06a47.87 47.87 0 0 1 47.79-50.47h319.2a47.87 47.87 0 0 1 47.79 50.47l-15.31 277a47.86 47.86 0 0 1 -47.79 45.28z" fill="#e73f46"/><g clip-path="url(#clip-path)"><path d="m112.71 434a29.08 29.08 0 0 1 -29-27.47l-15.31-277a29 29 0 0 1 29-30.67h319.2a29 29 0 0 1 29 30.68l-15.31 277a29.08 29.08 0 0 1 -29 27.47z" fill="#86ebf9"/><g fill="#40c2d6"><path d="m27.18 104.62h459.64v5.32h-459.64z"/><path d="m27.18 132.7h459.64v5.32h-459.64z"/><path d="m27.18 162.65h459.64v5.32h-459.64z"/><path d="m27.18 190.73h459.64v5.32h-459.64z"/><path d="m27.18 220.68h459.64v5.32h-459.64z"/><path d="m27.18 248.76h459.64v5.32h-459.64z"/><path d="m27.18 278.71h459.64v5.32h-459.64z"/><path d="m27.18 306.79h459.64v5.32h-459.64z"/><path d="m27.18 336.74h459.64v5.32h-459.64z"/><path d="m27.18 364.81h459.64v5.32h-459.64z"/><path d="m27.18 394.77h459.64v5.32h-459.64z"/><path d="m27.18 422.84h459.64v5.32h-459.64z"/></g></g><path d="m165.26 98.57h-28.39l-3.34-26.04h31.73z" fill="#cc3745"/><path d="m348.53 98.57h28.39l3.34-26.04h-31.73z" fill="#cc3745"/><path d="m314.48 173.09h-115c-19.26 0-35.61-9.6-38.38-22.54l-15.1-70.93c-3.4-15.87 14.74-30.1 38.37-30.1h145.3c23.63 0 41.77 14.23 38.37 30.1l-15.18 70.93c-2.77 12.94-19.12 22.54-38.38 22.54z" fill="#e73f46"/><path d="m317.48 153.47h-121c-6.34 0-11.72-5.26-12.6-12.33l-7.26-58.42c-1.07-8.61 4.87-16.3 12.59-16.3h135.5c7.72 0 13.66 7.69 12.59 16.3l-7.26 58.42c-.84 7.07-6.22 12.33-12.56 12.33z" fill="#d7981a"/><path d="m317.48 153.47h-121a12.61 12.61 0 0 1 -12.6-10.64l-7.26-50.44a12.48 12.48 0 0 1 12.59-14.07h135.5a12.48 12.48 0 0 1 12.59 14.07l-7.26 50.44a12.61 12.61 0 0 1 -12.56 10.64z" fill="#efbd42"/><path d="m223.91 154-8.49-.4c.92-19.91 19.57-36.09 41.58-36.09 22.25 0 40.64 15.77 41.58 36.09l-8.49.4c-.71-15.4-15.53-28-33-28-18.09 0-32.48 12.93-33.18 28z" fill="#e8e7e3"/><g fill="#fff"><path d="m254.39 100.11a1 1 0 0 1 -1-1v-27.86a1 1 0 0 1 2 0v27.86a1 1 0 0 1 -1 1z"/><path d="m336.53 95.1a1 1 0 0 1 -.53-.1 159.51 159.51 0 0 0 -158.17-2.18 1 1 0 0 1 -1-1.75 161.5 161.5 0 0 1 160.17 2.17 1 1 0 0 1 -.47 1.86z"/><path d="m191.87 101.22a1 1 0 0 1 -.93-.65l-5.23-14a1 1 0 0 1 .58-1.29 1 1 0 0 1 1.29.59l5.23 14a1 1 0 0 1 -.94 1.35z"/><path d="m206.69 95.94a1 1 0 0 1 -.94-.65l-5.23-14a1 1 0 0 1 .59-1.29 1 1 0 0 1 1.28.59l5.23 14a1 1 0 0 1 -.93 1.35z"/><path d="m221 91.56a1 1 0 0 1 -1-.75l-3.78-14.27a1 1 0 1 1 1.93-.52l3.85 14.28a1 1 0 0 1 -1 1.26z"/><path d="m235.71 88.22a1 1 0 0 1 -1-.82l-2.49-13.4a1 1 0 0 1 .8-1.17 1 1 0 0 1 1.16.8l2.51 13.37a1 1 0 0 1 -.98 1.22z"/><path d="m316.13 101.22a1 1 0 0 1 -.94-1.35l5.24-14a1 1 0 1 1 1.87.7l-5.23 14a1 1 0 0 1 -.94.65z"/><path d="m301.32 95.94a1 1 0 0 1 -.94-1.35l5.23-14a1 1 0 0 1 1.88.7l-5.24 14a1 1 0 0 1 -.93.65z"/><path d="m287 91.56a1 1 0 0 1 -1-1.26l3.83-14.3a1 1 0 0 1 1.94.52l-3.77 14.29a1 1 0 0 1 -1 .75z"/><path d="m272.3 88.22a1 1 0 0 1 -1-1.19l2.51-13.36a1 1 0 1 1 2 .37l-2.5 13.36a1 1 0 0 1 -1.01.82z"/></g><path d="m190.07 197.51c-18.18-15.7-65.59-3.18-85.17 27.53-17.29 27.12-7.53 60-5.16 68 4.4 14.84 8 13.48 17.2 33.55 19.6 42.86 9.19 62.41 28.39 78.29 1.3 1.08 17 13.65 37 10.33a43.08 43.08 0 0 0 23.23-12.05c14-14.35 12.46-34.24 12-39.57-1.73-22.59-14.56-23.26-21.47-45.59-9.3-30.29 9.67-44.16 3.45-92.06-1.98-15.22-3.09-22.94-9.47-28.43z" fill="#40c2d6"/><path d="m330.68 197.51c18.18-15.7 65.59-3.18 85.18 27.53 17.29 27.12 7.52 60 5.16 68-4.41 14.84-8 13.48-17.21 33.55-19.6 42.86-9.19 62.41-28.39 78.29-1.3 1.08-17 13.65-37 10.33a43.08 43.08 0 0 1 -23.23-12.05c-14-14.35-12.47-34.24-12.05-39.57 1.78-22.58 14.64-23.23 21.51-45.6 9.3-30.29-9.66-44.16-3.44-92.06 1.98-15.21 3.1-22.93 9.47-28.42z" fill="#40c2d6"/></g></svg>