<svg height="512" viewBox="0 0 512 512" width="512" xmlns="http://www.w3.org/2000/svg"><g id="Dumbbell"><g fill="#ffb833"><circle cx="294.15" cy="68.71" r="36.46"/><path d="m73.24 129.61a21.74 21.74 0 0 1 5.54 3.69 23.06 23.06 0 0 1 6.71 11.57 16.61 16.61 0 0 1 12.41-15.77 15.79 15.79 0 0 1 -7.55-3.18 16.45 16.45 0 0 1 -5.87-10.07 14.52 14.52 0 0 1 -2.48 7.89 14.88 14.88 0 0 1 -8.76 5.87z"/><path d="m115.83 231.29a22.15 22.15 0 0 1 5.53 3.69 23 23 0 0 1 6.71 11.58 17 17 0 0 1 4.2-10.74 16.79 16.79 0 0 1 8.22-5 15.9 15.9 0 0 1 -7.55-3.19 16.33 16.33 0 0 1 -5.87-10.06 14.55 14.55 0 0 1 -2.52 7.88 14.74 14.74 0 0 1 -8.72 5.84z"/><path d="m320.92 171.28a28.54 28.54 0 0 1 7.24 4.83 30.19 30.19 0 0 1 8.78 15.13 21.7 21.7 0 0 1 16.23-20.62 20.7 20.7 0 0 1 -9.87-4.17 21.41 21.41 0 0 1 -7.68-13.16 19 19 0 0 1 -3.29 10.31 19.41 19.41 0 0 1 -11.41 7.68z"/><path d="m300.27 135.69c3.28 22.34-4.45 51.37-25 65.58-11.47 7.94-24.62 9.65-25.73 9.79-14.29 1.72-15.81-3.92-32.25-4-19.42-.08-25.27 7.75-40.95 3.63a53.07 53.07 0 0 1 -14.13-6.53c-19.86-13.21-30-44.93-25-71 6.79-35.53 42.39-64.86 82.11-64.45 40.03.4 75.68 30.94 80.95 66.98z"/></g><path d="m312 100.45-13.32 7.34q-21.51-27.87-42.98-55.72l13.3-9.87a53.11 53.11 0 0 1 23.64 11.23c20.13 16.9 19.47 43.22 19.36 47.02z" fill="#00ccc1"/><path d="m289.3 135.79c.86-.75 5.55-4.69 11.9-3.85.93.12 4.63.6 7 3.09 6.14 6.44 2.56 25.46-8.93 29.74-6.43 2.39-12.92-.71-15.11-1.88q2.57-13.54 5.14-27.1z" fill="#ffc871"/><path d="m295.15 158.66a.5.5 0 0 1 -.33-.88c2.73-2.35 4.05-4.82 3.92-7.37-.21-4.43-4.72-7.66-4.77-7.69a.51.51 0 0 1 -.18-.59.5.5 0 0 1 .52-.32l10.79 1.12a.5.5 0 0 1 .44.55.51.51 0 0 1 -.55.45l-9.15-1c1.48 1.39 3.74 4 3.9 7.38.14 2.87-1.3 5.62-4.27 8.18a.49.49 0 0 1 -.32.17z"/><path d="m150.36 132.87c-.83-.78-5.36-4.9-11.74-4.32-.93.08-4.64.42-7.11 2.81-6.39 6.19-3.57 25.34 7.74 30.07 6.32 2.65 12.94-.18 15.17-1.27q-2.03-13.64-4.06-27.29z" fill="#ffc871"/><path d="m143.62 155.49a.48.48 0 0 1 -.34-.13c-2.87-2.68-4.19-5.48-3.94-8.34.3-3.34 2.66-5.89 4.2-7.22l-9.19.58a.5.5 0 1 1 -.06-1l10.82-.69a.51.51 0 0 1 .51.35.49.49 0 0 1 -.2.57s-4.69 3.09-5.08 7.5c-.23 2.54 1 5.07 3.62 7.52a.49.49 0 0 1 0 .7.46.46 0 0 1 -.34.16z"/><circle cx="219.32" cy="126.11" fill="#ffdb99" r="77.3"/><path d="m193.55 190.54c1.65 8 3.1 21.25-3.08 33.84-9.83 20-28.49 17.1-40.76 31.54-22.49 26.45 11.82 69.61 8.46 138.45a205.53 205.53 0 0 1 -14.62 66.14 209.48 209.48 0 0 0 62.45 18.08c47 5.92 84.85-5.73 104.51-13.46a251.11 251.11 0 0 1 -13.07-90.76c.5-12.19 1.45-13.45 2.3-30 2.81-54.69 8.27-87.43-11.53-98.07-20.77-11.15-46.05-16.15-51.54-27.3s-5.38-33.84-5.38-33.84-13.13-13.85-37.74 5.38z" fill="#ffdb99"/><path d="m193.11 217.55s20.78 10.49 42.86 0l-.92-16.82h-41.68q-.12 8.42-.26 16.82z" fill="#ffc871"/><path d="m296.18 134.34c-5.22 36.7-27.72 66.22-58 75.23a72.35 72.35 0 0 1 -46.18-1.93c-28.25-11.14-47.61-40.54-50-75.64 0 0 98.37-66.35 154.18 2.34z" fill="#ffdb99"/><path d="m170.19 122.67a23.68 23.68 0 0 1 13.48-4.67c3.3-.13 7.76-.32 9.18 2.24a3.64 3.64 0 0 1 0 3.65c-1.52 2.1-5.44.29-11.72.34-8.28.07-13.6 3.29-14.17 2.12-.43-.85 2.2-2.88 3.23-3.68z" fill="#ffb833"/><path d="m265.4 126.41a23.67 23.67 0 0 0 -12.86-6.19c-3.26-.51-7.68-1.21-9.38 1.18a3.61 3.61 0 0 0 -.39 3.62c1.26 2.26 5.36.91 11.6 1.69 8.21 1 13.13 4.83 13.83 3.73.5-.8-1.87-3.12-2.8-4.03z" fill="#ffb833"/><path d="m213.52 156.48c-1.36 0-2.55-.06-3.27-.11a.75.75 0 0 1 .09-1.5c4.76.32 10.21-.13 10.71-1.41.63-1.57-2.53-9.87-5-15.27a.75.75 0 0 1 .37-1 .76.76 0 0 1 1 .37c1 2.27 6.08 13.71 5 16.45-.79 2.07-5.42 2.47-8.9 2.47z"/><path d="m216.45 182.58a11.13 11.13 0 0 1 -5.34-1.23.49.49 0 0 1 -.21-.67.5.5 0 0 1 .68-.21c3.9 2.12 9 .53 9.09.51a.5.5 0 0 1 .3 1 16.43 16.43 0 0 1 -4.52.6z"/><ellipse cx="177.44" cy="164.37" fill="#ffc871" rx="9.17" ry="5.71"/><ellipse cx="260.49" cy="164.37" fill="#ffc871" rx="9.17" ry="5.71"/><path d="m243.57 138.58c-.47.18 6.36-5.91 13.34-2.22s3.62 9 9.09 11.12c0 0-5.44 2-7.81-1.94s-4.27-10.92-14.62-6.96z" fill="#383333"/><circle cx="250.2" cy="145.76" fill="#fff" r="10.29"/><circle cx="249.03" cy="145.41" fill="#383333" r="7.35"/><circle cx="247.11" cy="141.45" fill="#fff" r="2.14"/><path d="m190.61 137.37c.44.24-5.64-6.59-13-3.73s-4.63 8.54-10.31 10c0 0 5.18 2.61 8-1s5.48-10.39 15.31-5.27z" fill="#383333"/><circle cx="183.19" cy="143.75" fill="#fff" r="10.29"/><circle cx="184.4" cy="143.54" fill="#383333" r="7.35"/><circle cx="186.76" cy="139.82" fill="#fff" r="2.14"/><path d="m260.49 234.23s30.13 8 44.56 20.31 16.6 125.74 16.6 125.74h-37.5z" fill="#ffdb99"/><path d="m340.87 285.49a395 395 0 0 1 -24.29 54.93c-11.88 22.05-21.92 35.44-18.91 53.53.49 3 2.63 15.82 11.44 19.41 7.28 3 15.49-1.88 18.95-3.92 26.65-15.73 40.54-99 42.71-112.53z" fill="#ffdb99"/><path d="m163 246a104.73 104.73 0 0 0 -30.71 23.19c-17 18.77-22.43 39.19-26.64 57.07a968.64 968.64 0 0 0 -20.08 122.32 75.55 75.55 0 0 0 15.22 6 77 77 0 0 0 28.81 2.18 362.56 362.56 0 0 1 44.57-147.85 38.42 38.42 0 0 0 7.4-14.91c6.04-25-16.89-46.46-18.57-48z" fill="#ffdb99"/><path d="m173.84 240.83-13.6 6.66s16.1 37.85 13.93 61.4-18.91 39.5-18.91 39.5 5.7 45.14-1.1 77.11c0 0 92.54 36.11 146.69 1.78l-2-70.55a47.9 47.9 0 0 0 8-18.21c4.34-21.41-8.05-38.55-10.61-41.95l-16.09-55.74s-8.4-3.77-14-4.94c0 0 9.14 42 5.33 52.08s-66.58 16-74.19 11.41-23.45-58.55-23.45-58.55z" fill="#00ccc1"/><path d="m150.12 439.34a212.34 212.34 0 0 0 55.76 15.59 216.57 216.57 0 0 0 98.72-9.84l8.72 24s-90.23 34.42-173.21-8q4.99-10.87 10.01-21.75z" fill="#00ccc1"/><path d="m228.79 67.29c6.43-3.32 16-7.06 22.56-3 4.62 2.88 5.52 8.32 7.07 15 3.54 15.21 8.69 37.36 20.11 47 4.53 3.83 12.41 7.68 26.9 6.52a116.28 116.28 0 0 0 -7.06-44.81c-5.93-16-13.51-36.39-32.61-43-15.06-5.21-29.69.77-35.89 3.8-3.52-2.7-27.66-20.7-52.44-12.23-2.32.79-12.11 4.37-23.37 18.21-22 27-23.15 60.71-22.55 76.57 11.09-.33 18.58-3.42 23.36-6.18 16.67-9.63 32-33.42 39.68-51.64 1.16-2.75 2.91-7.16 7.34-9.78 7.77-4.59 18.66-.68 26.9 3.54z" fill="#ffb833"/><rect fill="#ff1a26" height="56.79" rx="13.24" transform="matrix(.996 -.086 .086 .996 -22.06 27.79)" width="44.71" x="289.04" y="241.47"/><rect fill="#ff1a26" height="56.79" rx="13.24" transform="matrix(.996 -.086 .086 .996 -20.93 36.51)" width="44.71" x="390.78" y="232.68"/><rect fill="#ff1a26" height="16.12" rx="4.24" transform="matrix(.996 -.086 .086 .996 -21.52 31.99)" width="90.77" x="314.95" y="257.58"/><path d="m337.07 258.64s.26-6.16 7-5.37c0 0 2.09-5.17 8.17-3.54 0 0 1.29-3.93 6.35-2.86 0 0 1.75-4.23 7.48-1.4 4.67 2.31 10.53 9.26 11.53 19 .55 5.26-.52 9.16-1.75 13.67-2.42 8.9-4.92 18.13-8.33 30.8l-30.44-8.36a30.79 30.79 0 0 0 3.62-15c-.1-3.55-.85-5.5-1.81-10.69a114.17 114.17 0 0 1 -1.82-16.25z" fill="#ffdb99"/><path d="m365.83 257a.26.26 0 0 1 -.24-.18c-1.71-6-7.11-9.67-7.17-9.7a.25.25 0 0 1 -.06-.35.24.24 0 0 1 .34-.07c.06 0 5.6 3.79 7.38 10a.26.26 0 0 1 -.18.31z"/><path d="m357.38 260a.25.25 0 0 1 -.24-.2c-1-5-5.08-9.81-5.12-9.86a.25.25 0 0 1 .37-.33c.18.21 4.26 5 5.24 10.1a.25.25 0 0 1 -.2.29z"/><path d="m348.44 263.15a.28.28 0 0 1 -.2-.1 29.15 29.15 0 0 1 -4.44-9.73.25.25 0 1 1 .49-.1 28.41 28.41 0 0 0 4.35 9.53.25.25 0 0 1 -.05.35.3.3 0 0 1 -.15.05z"/><path d="m300.59 371.48a.53.53 0 0 1 -.24-.06.49.49 0 0 1 -.2-.67c.15-.28 15-28.24 19.05-36.39a.52.52 0 0 1 .68-.22.5.5 0 0 1 .22.67c-4.1 8.19-18.92 36.13-19.1 36.41a.49.49 0 0 1 -.41.26z"/><path d="m136 122.77a.5.5 0 0 1 -.49-.4.51.51 0 0 1 .39-.59c17.88-3.68 24.61-20.78 31.1-37.39 4.65-11.86 9-23.06 17.35-27.8 19.48-11.11 39.65 2.27 39.83 2.41a.5.5 0 1 1 -.56.82c-.19-.13-19.84-13.16-38.75-2.36-8 4.56-12.33 15.6-16.92 27.3-6.3 16-13.44 34.21-31.9 38z"/><path d="m142 103.7a.51.51 0 0 1 -.44-.25.49.49 0 0 1 .18-.68c15.31-9 22.88-42.32 23-42.65a.5.5 0 0 1 .6-.38.49.49 0 0 1 .38.59 132.51 132.51 0 0 1 -5.72 18.11c-5.13 12.84-11.08 21.31-17.68 25.19a.59.59 0 0 1 -.32.07z"/><path d="m301 120.22c-16.38 0-22.18-20.77-26.84-37.44-2.53-9.07-4.92-17.63-8.5-21.11-10-9.7-30.21-1.07-30.41-1a.49.49 0 0 1 -.66-.26.49.49 0 0 1 .26-.65 52.74 52.74 0 0 1 11.72-3.27c8.59-1.31 15.43.23 19.78 4.45 3.78 3.67 6.09 12 8.77 21.56 4.81 17.2 10.26 36.69 25.88 36.71a.5.5 0 0 1 .5.5.51.51 0 0 1 -.5.51z"/><path d="m319.29 88a.5.5 0 0 1 -.45-.54c1.53-18.34-1.8-31.34-9.9-38.65-9.18-8.29-21.46-6.1-21.58-6.08a.51.51 0 0 1 -.59-.4.5.5 0 0 1 .4-.58c.13 0 12.87-2.31 22.43 6.31 8.35 7.53 11.79 20.81 10.23 39.48a.5.5 0 0 1 -.54.46z"/><path d="m179 206.67h-.16c-25.86-8.68-34.06-36.14-34.14-36.42a.51.51 0 0 1 .34-.62.5.5 0 0 1 .62.35c.08.27 8.14 27.23 33.5 35.74a.5.5 0 0 1 .32.63.51.51 0 0 1 -.48.32z"/><path d="m256.38 206.67a.5.5 0 0 1 -.18-1c23.8-8.78 31.12-30.72 31.19-30.94a.5.5 0 0 1 .95.3c-.07.23-7.52 22.63-31.79 31.57a.38.38 0 0 1 -.17.07z"/><path d="m202.3 166.35a34.79 34.79 0 0 0 30.3 1.5c-3.88 7.94-12.36 11.86-19.57 9.78-7.87-2.27-10.54-10.63-10.73-11.28z" fill="#fff"/></g></svg>