<svg height="512" viewBox="0 0 512 512" width="512" xmlns="http://www.w3.org/2000/svg"><g id="Laundry"><g fill="#ffb833"><path d="m162.11 56.77a22.08 22.08 0 0 1 5.58 3.72 23.26 23.26 0 0 1 6.77 11.66 16.71 16.71 0 0 1 12.54-15.89 16 16 0 0 1 -7.61-3.21 16.56 16.56 0 0 1 -5.92-10.14 14.68 14.68 0 0 1 -2.53 7.94 15 15 0 0 1 -8.83 5.92z"/><path d="m391.77 221.3a22.43 22.43 0 0 1 5.58 3.72 23.2 23.2 0 0 1 6.76 11.67 17.19 17.19 0 0 1 4.23-10.82 16.91 16.91 0 0 1 8.28-5.07 16 16 0 0 1 -7.61-3.22 16.45 16.45 0 0 1 -5.91-10.14 14.65 14.65 0 0 1 -2.54 7.95 14.86 14.86 0 0 1 -8.79 5.91z"/><path d="m189.93 216.54a29.3 29.3 0 0 1 7.3 4.86 30.36 30.36 0 0 1 8.84 15.26 22.45 22.45 0 0 1 5.53-14.15 22.23 22.23 0 0 1 10.83-6.64 20.83 20.83 0 0 1 -10-4.2 21.67 21.67 0 0 1 -7.74-13.26 19 19 0 0 1 -3.31 10.39 19.53 19.53 0 0 1 -11.45 7.74z"/><path d="m407.59 99.19a29.09 29.09 0 0 1 7.29 4.86 30.39 30.39 0 0 1 8.85 15.26 22.45 22.45 0 0 1 5.53-14.15 22.23 22.23 0 0 1 10.83-6.64 20.83 20.83 0 0 1 -9.95-4.2 21.62 21.62 0 0 1 -7.74-13.26 19.13 19.13 0 0 1 -3.31 10.39 19.53 19.53 0 0 1 -11.5 7.74z"/></g><path d="m58.46 91.6s-8 58.48 0 77.56 71.56 15.23 74.62 17.46 6.42 13.43 22.63 13.8c0 0-8-11.13-3.67-13.8s12.84 1.08 19.88-5.53 15-74.5 11.31-85.51-75.84-13.77-88.07-14.38-33.65-.91-36.7 10.4z" fill="#00ccc1"/><circle cx="339.51" cy="182.68" fill="#c65726" r="36.49"/><path d="m98.07 158.75a19.44 19.44 0 0 0 15.34 6.7c8.36-.47 16.09-7.42 18.9-15.09 7.28-19.84-16.71-49.55-16.71-49.55-18.8 24.19-25.91 47.57-17.53 57.94z" fill="#aaeeea"/><path d="m226.38 129.59c-.87-.75-5.6-4.71-12-3.87-.93.12-4.65.61-7 3.11-6.19 6.49-2.58 25.66 9 30 6.47 2.41 13-.72 15.22-1.9z" fill="#ffc871"/><path d="m220.49 152.64a.5.5 0 0 1 -.33-.12c-3-2.58-4.44-5.35-4.3-8.23.16-3.38 2.45-6 3.94-7.46l-9.24 1a.5.5 0 1 1 -.1-1l10.87-1.13a.5.5 0 0 1 .52.32.51.51 0 0 1 -.18.59s-4.6 3.3-4.81 7.76c-.12 2.56 1.21 5.06 3.95 7.42a.51.51 0 0 1 .05.71.48.48 0 0 1 -.37.14z"/><path d="m366.4 126.66c.84-.79 5.41-4.94 11.84-4.36.94.09 4.67.42 7.16 2.83 6.44 6.24 3.61 25.54-7.79 30.31-6.37 2.67-13-.19-15.29-1.28z" fill="#ffc871"/><path d="m373.2 149.45a.46.46 0 0 1 -.36-.16.5.5 0 0 1 0-.71c2.65-2.47 3.88-5 3.65-7.58-.39-4.45-5.07-7.52-5.12-7.55a.5.5 0 0 1 .31-.92l10.9.69a.5.5 0 0 1 .47.53.48.48 0 0 1 -.53.47l-9.27-.59c1.55 1.34 3.94 3.92 4.24 7.29.25 2.88-1.08 5.7-4 8.4a.48.48 0 0 1 -.29.13z"/><circle cx="296.91" cy="119.84" fill="#ffdb99" r="77.91"/><path d="m278.84 184.78c1.66 8.08 3.13 21.41-3.1 34.1-9.91 20.18-28.72 17.24-41.09 31.79-22.66 26.65 11.92 70.16 8.53 139.53a207.37 207.37 0 0 1 -14.73 66.67 211.11 211.11 0 0 0 62.89 18.21c47.39 6 85.51-5.77 105.33-13.56a253 253 0 0 1 -13.18-91.47c.51-12.29 1.47-13.56 2.32-30.24 2.83-55.12 8.33-88.12-11.62-98.83-20.93-11.24-46.41-16.28-51.94-27.52s-5.43-34.11-5.43-34.11-13.18-13.95-37.98 5.43z" fill="#ffdb99"/><path d="m278 213.38s17.48 11.16 44.28.08l-1.69-17.66-42.59 1.95z" fill="#ffc871"/><path d="m219.44 128.14c5.27 37 27.94 66.74 58.48 75.81a72.89 72.89 0 0 0 46.51-1.95c28.48-11.23 48-40.86 50.39-76.21 0 .01-99.12-66.88-155.38 2.35z" fill="#ffdb99"/><path d="m346.43 116.38a23.85 23.85 0 0 0 -13.6-4.71c-3.32-.14-7.82-.32-9.25 2.26a3.65 3.65 0 0 0 0 3.67c1.52 2.12 5.47.3 11.81.35 8.34.07 13.71 3.32 14.28 2.13.44-.85-2.2-2.9-3.24-3.7z" fill="#c65726"/><path d="m250.47 120.15a23.8 23.8 0 0 1 13-6.24c3.29-.52 7.73-1.22 9.45 1.18a3.64 3.64 0 0 1 .4 3.65c-1.27 2.28-5.41.93-11.7 1.7-8.27 1-13.23 4.88-13.93 3.76-.55-.8 1.84-3.14 2.78-4.05z" fill="#c65726"/><path d="m302.75 150.44c-3.51 0-8.17-.4-9-2.47-1.09-2.76 4-14.29 5-16.57a.75.75 0 1 1 1.37.62c-2.46 5.44-5.64 13.81-5 15.39.49 1.25 6 1.75 10.79 1.43a.76.76 0 0 1 .8.69.74.74 0 0 1 -.7.8c-.68.05-1.88.11-3.26.11z"/><path d="m301.31 175.58a16.48 16.48 0 0 1 -4.55-.65.5.5 0 1 1 .3-1c.05 0 5.23 1.62 9.16-.51a.5.5 0 1 1 .48.87 11.22 11.22 0 0 1 -5.39 1.29z"/><ellipse cx="339.12" cy="158.4" fill="#ffc871" rx="9.24" ry="5.76"/><ellipse cx="253.88" cy="158.4" fill="#ffc871" rx="9.24" ry="5.76"/><path d="m267.24 231.23a115.31 115.31 0 0 0 -21.18 6.94 128.88 128.88 0 0 0 -12.79 6.57c-17.52 10.57-30.49 41.14-36.15 54.41-5.23 12.25-13.86 32.33-26.66 61.36l34.74 29.69s28.07-24.58 44.14-83.74c3.3-9.6 6.46-20 9.31-31.19a398.6 398.6 0 0 0 8.59-44.04z" fill="#aaeeea"/><path d="m354.15 231.23a115.61 115.61 0 0 1 21.19 6.94 128.09 128.09 0 0 1 12.78 6.57c17.52 10.57 30.49 41.14 36.15 54.41 5.23 12.25 13.86 32.33 26.66 61.36l-34.73 29.69s-28.08-24.58-44.15-83.74c-3.3-9.6-6.46-20-9.31-31.19a398.6 398.6 0 0 1 -8.59-44.04z" fill="#aaeeea"/><path d="m266 230.91a38.12 38.12 0 0 0 17.82 16.09 41 41 0 0 0 22.64 2.08c28.7-5.48 32.66-23.34 32.66-23.34s40.23 12.26 49.88 21.37 4.83 72.7-.24 110.47 13.75 101.9 13.75 101.9-88.19 54.23-179.67-6c0 0 12.92-29.83 16.7-53.68s-10-80.26-12.67-108.19c-.36-3.76-3.58-39.86 10.44-49.15a78 78 0 0 1 6.89-3.85 90.9 90.9 0 0 1 21.8-7.7z" fill="#aaeeea"/><path d="m387 349.56a.5.5 0 0 1 -.49-.38c-5-21.14 2.77-67.33 2.85-67.79a.5.5 0 0 1 1 .17c-.08.46-7.83 46.45-2.87 67.39a.49.49 0 0 1 -.37.6z"/><path d="m272.47 132.41c.47.18-6.41-6-13.45-2.24s-3.64 9.09-9.16 11.21c0 0 5.49 2 7.88-2s4.26-10.96 14.73-6.97z" fill="#383333"/><circle cx="265.78" cy="139.65" fill="#fff" r="10.37"/><circle cx="266.97" cy="139.3" fill="#383333" r="7.41"/><circle cx="268.9" cy="135.3" fill="#fff" r="2.16"/><path d="m325.85 131.2c-.45.23 5.68-6.65 13.1-3.77s4.66 8.61 10.39 10.09c0 0-5.22 2.63-8-1s-5.59-10.52-15.49-5.32z" fill="#383333"/><circle cx="333.32" cy="137.62" fill="#fff" r="10.37"/><circle cx="332.1" cy="137.41" fill="#383333" r="7.41"/><circle cx="329.72" cy="133.66" fill="#fff" r="2.16"/><path d="m337.58 76s-78 36.82-110.68 37.4c0 0-2.73 48.78 12.61 71.43 0 0-26.59-22.66-29-65.93s46.76-122.52 129-69.2c0 0 44.15 3.5 38.73 72.6a37.34 37.34 0 0 1 -18.58-3.94c-13.96-7.21-22.23-23.68-22.08-42.36z" fill="#c65726"/><path d="m300.16 170.62h-.5a12.61 12.61 0 0 1 -11.08-7.85.74.74 0 0 1 .42-1 .73.73 0 0 1 1 .41 11 11 0 0 0 20.4 0 .75.75 0 0 1 1.39.58 12.65 12.65 0 0 1 -11.63 7.86z"/><path d="m166.94 352.63s-11.5-21.54 0-32.5 42.18-1.09 77.24 0 69-9.72 82.14-4.86 4.9 27.67 0 33.79-31.2-3-59.68-2.8-94.99 20.74-99.7 6.37z" fill="#ff1a26"/><path d="m166.94 327.48s-11.5-21.54 0-32.49 42.18-1.1 77.24 0 69-9.73 82.14-4.87 4.9 27.67 0 33.8-31.2-3-59.68-2.8-94.99 20.71-99.7 6.36z" fill="#fff3e3"/><path d="m166.94 309.21s-11.5-21.54 0-32.49 42.18-1.1 77.24 0 69-9.73 82.14-4.87 4.9 27.67 0 33.8-31.2-3-59.68-2.8-94.99 20.71-99.7 6.36z" fill="#ff832f"/><path d="m314.38 445.27h-133.6c-7.59 0-13.9-4.69-14.51-10.78l-8.62-86.71c-.68-6.82 6-12.65 14.5-12.65h150.85c8.5 0 15.19 5.83 14.51 12.65l-8.63 86.71c-.6 6.09-6.88 10.78-14.5 10.78z" fill="#ffb833"/><rect fill="#ff832f" height="15.23" rx="6.95" width="65.68" x="214.74" y="345.01"/><path d="m337.55 404.67s-32.21 19.54-43.72 23.92-16.06 5.25-16.34 7.42 6.39 2.81 14.06 1.44c0 0-11.32 7.34-15.15 7.82s-6.85-.24-7.13.67 18.63 7.49 32.51 6.21 27.75-11.32 34.69-14.43a130.35 130.35 0 0 1 14.43-5.29z" fill="#ffdb99"/><path d="m330.67 408.05a567.85 567.85 0 0 1 58.94-35.51c37.75-19.72 49.39-20.31 57.06-15.54a23.38 23.38 0 0 1 10.41 18.71c-.27 31.23-91.17 53.42-105.9 56.91a51.68 51.68 0 0 1 -20.51-24.59z" fill="#aaeeea"/><path d="m153.32 374.57a21.71 21.71 0 0 1 9.55-1.23c5 .61 19.63.15 19.67 3.59s-17.11 5.57-17.11 5.57 17.46 1.34 16.69 6.05-16.27 2.24-16.27 2.24 14.3 4.13 12.41 8-14.64-.81-14.64-.81 10.88 4.56 7.66 7.81-18.11-.68-19.05-3.74 2.67-4.6 2.67-4.6-3.9-4.38-.21-6.5c0 0-3.92-3.74.69-6.76 0-.04-9.58-5.54-2.06-9.62z" fill="#ffdb99"/><path d="m155.38 384.4a.25.25 0 0 1 -.24-.19.24.24 0 0 1 .18-.3c2.76-.65 11.47-1.85 11.56-1.86a.26.26 0 0 1 .28.22.25.25 0 0 1 -.22.28c-.08 0-8.76 1.21-11.5 1.84z"/><path d="m154.69 391.16a.25.25 0 0 1 -.05-.49c3.24-.73 10.91-.16 11.23-.13a.25.25 0 0 1 .23.27.25.25 0 0 1 -.27.23c-.08 0-7.91-.6-11.08.12z"/><path d="m163.62 398.19h-.06c-.06 0-5.27-1.42-8.6-.53a.24.24 0 0 1 -.3-.18.24.24 0 0 1 .17-.3c3.47-.93 8.64.47 8.86.53a.24.24 0 0 1 .17.3.26.26 0 0 1 -.24.18z"/><path d="m398.51 368.5a.5.5 0 0 1 -.27-.92c1.12-.69 27.53-16.94 39.32-14.23a.5.5 0 0 1 -.22 1c-11.41-2.61-38.3 13.94-38.57 14.11a.48.48 0 0 1 -.26.04z"/><path d="m330.67 408.55a.5.5 0 0 1 -.43-.24.51.51 0 0 1 .18-.69l58.93-35.51a.5.5 0 1 1 .51.86l-58.93 35.51a.48.48 0 0 1 -.26.07z"/><path d="m351.18 433.14a.5.5 0 0 1 -.13-1l42.17-12.07a.5.5 0 1 1 .27 1l-42.17 12.07a.32.32 0 0 1 -.14 0z"/><path d="m233.08 97.27c-.52 0-1 0-1.53 0a.5.5 0 0 1 -.48-.52.54.54 0 0 1 .51-.48c31.7 1 87.46-30.95 88-31.28a.51.51 0 0 1 .69.19.5.5 0 0 1 -.19.68c-.53.3-54.78 31.41-87 31.41z"/><path d="m258.58 75.24a105.4 105.4 0 0 1 -23.39-2.6.49.49 0 0 1 -.37-.6.48.48 0 0 1 .59-.37c37.17 8.43 67.08-6.56 67.38-6.71a.5.5 0 0 1 .46.89c-.25.15-18.72 9.39-44.67 9.39z"/><path d="m376 112.1h-.06c-20.08-2.29-29.62-30.6-29.72-30.89a.5.5 0 0 1 .95-.31 68.38 68.38 0 0 0 7.11 14.32c4.34 6.61 11.64 14.73 21.78 15.89a.5.5 0 0 1 -.06 1z"/><path d="m367.47 90c-7.91 0-13.15-5.87-13.21-5.94a.51.51 0 0 1 .05-.71.49.49 0 0 1 .7.05c.07.07 6.87 7.67 16.52 5a.5.5 0 1 1 .27 1 16.54 16.54 0 0 1 -4.33.6z"/><path d="m337.58 211.89a.49.49 0 0 1 -.48-.37.5.5 0 0 1 .35-.61c11.72-3.07 19.68-8.46 23.66-16 5.2-9.89 1.61-20.15 1.57-20.25a.5.5 0 1 1 .94-.34c0 .11 3.78 10.76-1.62 21-4.11 7.81-12.28 13.37-24.29 16.52z"/></g></svg>