<svg height="512" viewBox="0 0 512 512" width="512" xmlns="http://www.w3.org/2000/svg" xmlns:xlink="http://www.w3.org/1999/xlink"><clipPath id="clip-path"><path d="m333.51 152.72c-3 8.14-6.19 15.6-9.4 22.38a23.29 23.29 0 0 0 14.53 2.65c13.95-2.34 19.23-18.43 19.92-20.52 1.23-3.75 4.84-14.73-1.66-24.11-4.75-6.85-12.12-8.89-14.52-9.44a269 269 0 0 1 -8.87 29.04z"/></clipPath><clipPath id="clip-path-2"><path d="m186.27 142.92c2.1 8.42 4.47 16.18 6.93 23.26a23.3 23.3 0 0 1 -14.74 1.07c-13.61-3.83-17.13-20.41-17.58-22.55-.82-3.87-3.22-15.17 4.26-23.8 5.46-6.29 13-7.52 15.45-7.81a270 270 0 0 0 5.68 29.83z"/></clipPath><g id="Listening"><path d="m94.82 425.57a21.4 21.4 0 0 1 5.42 3.62 22.57 22.57 0 0 1 6.58 11.34 16.66 16.66 0 0 1 4.11-10.53 16.39 16.39 0 0 1 8.06-4.93 15.57 15.57 0 0 1 -7.4-3.13 16.08 16.08 0 0 1 -5.76-9.86 14.07 14.07 0 0 1 -2.46 7.72 14.5 14.5 0 0 1 -8.55 5.77z" fill="#ffb833"/><path d="m396.63 143.25a21.67 21.67 0 0 1 5.42 3.62 22.57 22.57 0 0 1 6.58 11.34 16.66 16.66 0 0 1 4.11-10.52 16.47 16.47 0 0 1 8.06-4.93 15.57 15.57 0 0 1 -7.4-3.13 16.08 16.08 0 0 1 -5.76-9.86 14.21 14.21 0 0 1 -2.46 7.73 14.52 14.52 0 0 1 -8.55 5.75z" fill="#ffb833"/><path d="m36.49 194.09a28 28 0 0 1 7.1 4.73 29.6 29.6 0 0 1 8.6 14.84 21.84 21.84 0 0 1 5.38-13.76 21.53 21.53 0 0 1 10.53-6.46 20.37 20.37 0 0 1 -9.67-4.08 21 21 0 0 1 -7.53-12.9 18.59 18.59 0 0 1 -3.22 10.1 19 19 0 0 1 -11.19 7.53z" fill="#ffb833"/><path d="m402 344a28.57 28.57 0 0 1 7.1 4.73 29.6 29.6 0 0 1 8.6 14.84 21.81 21.81 0 0 1 5.37-13.76 21.58 21.58 0 0 1 10.54-6.45 20.23 20.23 0 0 1 -9.67-4.09 21 21 0 0 1 -7.53-12.9 18.57 18.57 0 0 1 -3.23 10.11 18.9 18.9 0 0 1 -11.18 7.52z" fill="#ffb833"/><path d="m172.24 125s2.14-57.35 30.9-78.58 96.42-14.3 126.79 13.4 27.07 55.41 13.52 84.18z" fill="#37ad36"/><path d="m477.12 209.05s-2.58 51.34-12.44 66.39-63.68 1.56-66.68 2.98-7.66 10.47-21.59 8.18c0 0 8.59-8.25 5.35-11.22s-11.16-1.14-16.13-7.92-.87-66.19 4-75 67.14.38 77.71 1.82 28.97 4.59 29.78 14.77z" fill="#00ccc1"/><path d="m40.31 41.41s-6.92 50.93 0 67.55 62.33 13.26 65 15.21 5.6 11.69 19.71 12c0 0-6.92-9.69-3.19-12s11.18.93 17.31-4.82 13.04-64.89 9.86-74.48-66.06-12-76.72-12.52-29.28-.8-31.97 9.06z" fill="#00ccc1"/><path d="m219.62 234.23s-34.17 2.66-55.06 19-55.67 101.26-55.67 101.26l31.35 19.95 56.52-53.12s43.53-52.32 22.86-87.09z" fill="#ffb833"/><path d="m282.13 189.78c-2.36 9-4.12 21.78 1.4 34 8.83 19.54 27.28 17.44 41.17 31.85 22.7 23.56 4.71 61.61 3.17 139a520.49 520.49 0 0 0 3.05 67.7 211.49 211.49 0 0 1 -63 18.25c-47.49 6-85.69-5.78-105.55-13.59a465.41 465.41 0 0 0 10.17-73.46c.85-14.56.81-26.07.7-48.51-.36-73.54-4.62-85 6.07-96.6 15.19-16.41 36.59-7.08 49.78-26 8.17-11.71 7.7-26.38 5.85-37.33a40 40 0 0 1 17.15-5.45c15.91-1.29 27.31 7.83 30.04 10.14z" fill="#d89071"/><path d="m281.3 217.45s-22.61 8.89-48.29-2.51l2.73-18.34 44.57 2.67z" fill="#d17352"/><circle cx="262.31" cy="124.5" fill="#d89071" r="78.07"/><path d="m339.94 132.81c-5.27 37.06-28 66.88-58.6 76-4.9 1.45-24.63 6.72-46.61-1.95-28.54-11.25-48.09-41-50.5-76.38 0-.02 99.34-67.05 155.71 2.33z" fill="#d89071"/><path d="m212.69 121a23.79 23.79 0 0 1 13.62-4.71c3.33-.14 7.83-.33 9.27 2.26a3.64 3.64 0 0 1 0 3.68c-1.53 2.12-5.49.3-11.83.35-8.36.06-13.74 3.32-14.31 2.14-.44-.84 2.2-2.89 3.25-3.72z" fill="#383333"/><path d="m308.85 124.8a23.88 23.88 0 0 0 -13-6.25c-3.29-.52-7.75-1.22-9.47 1.18a3.66 3.66 0 0 0 -.4 3.66c1.28 2.29 5.42.93 11.72 1.71 8.3 1 13.26 4.88 14 3.76.49-.8-1.91-3.14-2.85-4.06z" fill="#383333"/><path d="m261.62 155.16c-3.52 0-8.18-.41-9-2.48-1.1-2.76 4-14.31 5.05-16.6a.75.75 0 1 1 1.36.62c-2.46 5.45-5.65 13.84-5 15.43.51 1.29 6 1.74 10.82 1.42a.75.75 0 1 1 .1 1.5c-.75.05-1.95.11-3.33.11z"/><path d="m257.9 180.35a11.25 11.25 0 0 1 -5.4-1.24.5.5 0 0 1 .48-.88c4 2.15 9.12.54 9.18.52a.49.49 0 0 1 .62.32.49.49 0 0 1 -.32.63 16.17 16.17 0 0 1 -4.56.65z"/><ellipse cx="220.01" cy="163.14" fill="#d17352" rx="9.26" ry="5.77"/><ellipse cx="305.43" cy="163.14" fill="#d17352" rx="9.26" ry="5.77"/><circle cx="293.5" cy="144.34" fill="#fff" r="10.39"/><circle cx="292.31" cy="143.99" fill="#383333" r="7.43"/><circle cx="290.38" cy="139.99" fill="#fff" r="2.16"/><circle cx="225.82" cy="142.31" fill="#fff" r="10.39"/><circle cx="227.04" cy="142.1" fill="#383333" r="7.43"/><circle cx="229.43" cy="138.34" fill="#fff" r="2.16"/><path d="m327.87 394.55a520.49 520.49 0 0 0 3.05 67.7 211.49 211.49 0 0 1 -63 18.25c-47.49 6-85.69-5.78-105.55-13.59a465.41 465.41 0 0 0 10.17-73.46c.85-14.56.81-26.07.7-48.51-.36-73.54-4.62-85 6.07-96.6 10.52-11.37 24-10.39 35.7-15 3.4 3.43 12.37 9.77 34.23 13.33a83.1 83.1 0 0 0 49.58-6.89c8.34 4.66 17.88 7.48 25.91 15.81 22.67 23.57 4.68 61.62 3.14 138.96z" fill="#ffb833"/><path d="m308.2 244.49s37.73 10 51.62 51.11 26.7 92.92 26.7 92.92l-39.16 9.61s-33.71-64.61-43.47-96.65-13.12-43.48 4.31-56.99z" fill="#ffb833"/><path d="m149.79 254a227.07 227.07 0 0 0 -2.06 54.62c1.36 15.73 4.67 33.84-2.42 55.09-2.35 7-5.33 12.88-11.06 15.7-10.34 5.1-23.51-2.65-25.84-4.18-27.18-17.82 5.53-118.08 10.81-134z" fill="#d89071"/><path d="m295.47 308.76c24.34 16.48 100.11 69.2 91.79 89.09-.72 1.73-4.54 9.06-12.34 12.45-8.52 3.7-17.25.72-21.3-.66-16.9-5.77-43.56-35.17-70.4-79z" fill="#d89071"/><path d="m271.17 164.46-25.48-1.32a11.78 11.78 0 0 0 1.33 6.38c2.41 4.45 7.65 6.65 12.25 6.22 5.73-.53 10.59-5.08 11.9-11.28z" fill="#fff"/><path d="m181 125.74a69.38 69.38 0 0 0 6 19.65 18.51 18.51 0 0 0 3.56-4.07c5.15-8 1-15.54.8-26.63a52 52 0 0 1 13.85-35.43 35.05 35.05 0 0 1 10.5-8.08 38.21 38.21 0 0 1 33.44.18c13.77 6.75 40.06 11.17 56.22 6.75s30.89 25.17 30 39.93-8.33 29.62.54 32.38c0 0 7.68-16 7.48-41.67a59 59 0 0 0 -4.91-23.17c-13.66-31.16-54-39.93-60.64-41.21-11.36-2.19-46.77-9-73.69 15.71-18.8 17.33-26.43 43.35-23.15 65.66z" fill="#383333"/><path d="m169.21 389a37.47 37.47 0 0 1 -12-2.27c-18.81-6.41-29.34-30.7-31.29-72.2a370.52 370.52 0 0 1 2.59-59.95 1.5 1.5 0 0 1 3 .42c-.16 1.14-15.46 114.54 26.69 128.89 8.37 2.85 14.72 2.82 19.38-.1 8.75-5.48 10.66-20.79 12.51-35.6.68-5.45 1.35-10.79 2.32-15.67a32.91 32.91 0 0 1 -10-13.08c-2.54-6.64-2.9-16.78 9.76-27.44 27.85-23.43 26.32-36.85 26.3-37a1.51 1.51 0 0 1 1.26-1.7 1.49 1.49 0 0 1 1.7 1.23c.1.6 2.11 15-27.33 39.75-9.08 7.64-12.07 15.74-8.89 24.07a29.17 29.17 0 0 0 7.87 10.91c1.4-5.77 3.38-10.73 6.56-14.27 4.59-5.12 10.08-6.41 15.43-3.63 8 4.13 14.43 17.33 12.53 25.68a7.9 7.9 0 0 1 -8 6.6c-6.58.2-16.44-3.23-24.56-9.07-.83 4.47-1.42 9.25-2 14-1.94 15.51-3.94 31.54-13.9 37.77a18.38 18.38 0 0 1 -9.93 2.66zm26.53-57.56c7.69 5.91 17.43 9.43 23.83 9.22a4.94 4.94 0 0 0 5.16-4.27c1.48-6.51-3.57-18.51-11-22.35-4.14-2.15-8.12-1.14-11.82 3-2.98 3.32-4.85 8.47-6.17 14.4z" fill="#37ad36"/><path d="m150.94 263.49h-41.8a7.76 7.76 0 0 1 -7.67-7.46l-3.38-91.77c-.19-5.24 3.43-9.53 8.09-9.53h47.72c4.66 0 8.28 4.29 8.09 9.53l-3.38 91.74a7.76 7.76 0 0 1 -7.67 7.49z" fill="#383333"/><path d="m109.14 259.23a3.48 3.48 0 0 1 -3.41-3.36l-3.38-91.77a5.53 5.53 0 0 1 1.41-4 3.31 3.31 0 0 1 2.42-1.09h47.72a3.31 3.31 0 0 1 2.42 1.09 5.49 5.49 0 0 1 1.41 4l-3.38 91.77a3.48 3.48 0 0 1 -3.41 3.36z" fill="#aaeeea"/><g fill="#d89071"><path d="m164.31 214.15c-2.17-2.7-8.54-10.31-11.27-9s-1.27 10.32 2.7 16.42c1 1.52 3.2 4.93 5.49 4.54 2.46-.41 3.46-4.94 3.59-5.54a11.55 11.55 0 0 0 -.51-6.42z"/><ellipse cx="99.77" cy="195.06" rx="3.97" ry="6.59"/><ellipse cx="99.77" cy="207.18" rx="3.97" ry="5.53"/><ellipse cx="99.77" cy="218.24" rx="3.97" ry="5.53"/><path d="m309.07 318.13s-15.9-14-18.38-27.82-1.78-15.81-5.33-14-4.44 14.69-4.44 14.69-6.57-5.15-11.37-4.26-3.19 7.1-3.19 7.1-8-3.2-7.46 7.81c0 0-6.57-1.06-4.44 9.06 0 0-6.59-.54-5.25 5.32s13.79 17.25 22.79 19.73 22.41 12.64 26.58 18.51 8.4-2.88 8.4-2.88 7.27-16.6 2.09-33.26z"/></g><path d="m240.87 253.35a64.29 64.29 0 0 1 -18.45-2.63c-18.12-5.39-30.73-22.33-36.46-49a161.87 161.87 0 0 1 -3.22-38.68 1.48 1.48 0 0 1 1.58-1.41 1.5 1.5 0 0 1 1.41 1.59c0 .72-3.78 72.32 37.55 84.62a62.07 62.07 0 0 0 17.72 2.55c38.6 0 79.48-33.95 93.63-81.35a1.5 1.5 0 0 1 1.87-1 1.51 1.51 0 0 1 1 1.87c-8.23 27.55-25.08 51.28-47.45 66.81-15.72 10.92-32.91 16.63-49.18 16.63z" fill="#37ad36"/><g clip-path="url(#clip-path)"><path d="m333.51 152.72c-3 8.14-6.19 15.6-9.4 22.38a23.29 23.29 0 0 0 14.53 2.65c13.95-2.34 19.23-18.43 19.92-20.52 1.23-3.75 4.84-14.73-1.66-24.11-4.75-6.85-12.12-8.89-14.52-9.44a269 269 0 0 1 -8.87 29.04z" fill="#ff832f"/><ellipse cx="353.38" cy="157.37" fill="#37ad36" rx="23.36" ry="7.79" transform="matrix(.379 -.925 .925 .379 73.72 424.64)"/></g><g clip-path="url(#clip-path-2)"><path d="m186.27 142.92c2.1 8.42 4.47 16.18 6.93 23.26a23.3 23.3 0 0 1 -14.74 1.07c-13.61-3.83-17.13-20.41-17.58-22.55-.82-3.87-3.22-15.17 4.26-23.8 5.46-6.29 13-7.52 15.45-7.81a270 270 0 0 0 5.68 29.83z" fill="#ff832f"/><ellipse cx="162.34" cy="145.39" fill="#37ad36" rx="16.51" ry="26.78" transform="matrix(.995 -.1 .1 .995 -13.67 16.89)"/></g><rect fill="#ff832f" height="12.34" rx="2" transform="matrix(.957 .291 -.291 .957 82.75 -53.51)" width="8.43" x="216.97" y="245.11"/><path d="m273.33 299.66a.26.26 0 0 1 -.2-.1 18.41 18.41 0 0 0 -6.86-5.47.24.24 0 0 1 -.14-.32.24.24 0 0 1 .32-.14 18.37 18.37 0 0 1 7.08 5.62.27.27 0 0 1 0 .36.3.3 0 0 1 -.2.05z"/><path d="m261.47 318a.33.33 0 0 1 -.13 0c-3.6-2.27-6.94-6.93-7.08-7.13a.25.25 0 0 1 .06-.35.24.24 0 0 1 .34.06c0 .05 3.44 4.78 7 7a.27.27 0 0 1 .08.35.27.27 0 0 1 -.27.07z"/><path d="m266.36 309a.29.29 0 0 1 -.18-.07c-3.86-3.79-7.41-7.05-7.45-7.08a.25.25 0 0 1 0-.36.24.24 0 0 1 .35 0s3.6 3.3 7.46 7.09a.25.25 0 0 1 0 .35.27.27 0 0 1 -.18.07z"/><ellipse cx="408.71" cy="251.49" fill="#ffb833" rx="12.13" ry="8.1" transform="matrix(.92 -.38 .38 .92 -65.08 175.27)"/><path d="m416.18 207.77h3.29v41.53h-3.29z" fill="#ffb833"/><path d="m416.32 216.89a29.28 29.28 0 0 0 11.68 1.64 9 9 0 0 1 7.89 3.28.5.5 0 0 0 .89-.37c-.63-7.33-2.76-10-4.82-11-1.47-.69-2.62-.37-5-.62a22.66 22.66 0 0 1 -10.95-4.42c.14 3.84.22 7.66.31 11.49z" fill="#ffb833"/><path d="m125.81 192.74s15.81 17 15.63 19-17 10.15-18.82 10-.36-28.59 0-30 3.19 1 3.19 1z" fill="#ff1a26"/><rect fill="#ffb833" height="40.09" rx="7.49" transform="matrix(.998 .069 -.069 .998 4.95 -6.21)" width="18.91" x="83.41" y="48.9"/><path d="m98.09 94.39h-.71l-10.68-.76a11.84 11.84 0 0 1 -11-12.63l.32-4.7a4.06 4.06 0 0 1 4.32-3.76l24.44 1.68a4.06 4.06 0 0 1 3.76 4.32l-.45 6.46a10 10 0 0 1 -10 9.35zm-.56-2.15a7.91 7.91 0 0 0 8.47-7.35l.45-6.49a1.92 1.92 0 0 0 -1.78-2l-24.48-1.72a1.91 1.91 0 0 0 -2 1.78l-.32 4.7a9.7 9.7 0 0 0 9 10.35z" fill="#ffb833"/><rect fill="#ffb833" height="13.68" rx="1.25" transform="matrix(.998 .069 -.069 .998 7.01 -6.02)" width="7.07" x="87.63" y="92.2"/><path d="m173.21 345.44a.5.5 0 0 1 -.5-.47c-1.77-30.54-.53-81-.52-81.49a.5.5 0 1 1 1 0c0 .5-1.24 50.9.52 81.4a.49.49 0 0 1 -.47.53z"/><path d="m332.15 335.43h-.15a.51.51 0 0 1 -.36-.61c4-16.48 3.39-47.52 3.39-47.83a.5.5 0 0 1 .49-.51.51.51 0 0 1 .51.49c0 .31.63 31.48-3.42 48.09a.5.5 0 0 1 -.46.37z"/><path d="m204 71.25a.5.5 0 0 1 -.37-.17.48.48 0 0 1 0-.7 109.83 109.83 0 0 1 14.63-11.25.51.51 0 0 1 .69.16.5.5 0 0 1 -.16.69 109.35 109.35 0 0 0 -14.49 11.13.47.47 0 0 1 -.3.14z" fill="#fff"/><path d="m330.73 88.65a.5.5 0 0 1 -.43-.25c-4-7-11-13.13-11.08-13.19a.51.51 0 0 1 -.05-.71.49.49 0 0 1 .7 0c.08.07 7.22 6.36 11.3 13.45a.51.51 0 0 1 -.19.68.45.45 0 0 1 -.25.02z" fill="#fff"/><path d="m184.23 108.54a.5.5 0 0 1 -.46-.54c.71-8.18 6.91-18.81 7.18-19.25a.5.5 0 1 1 .86.5c-.06.11-6.35 10.88-7 18.84a.5.5 0 0 1 -.58.45z" fill="#fff"/><path d="m339.94 123.27a.43.43 0 0 1 -.19 0 .49.49 0 0 1 -.27-.65c2-4.77 0-15.23 0-15.34a.5.5 0 0 1 1-.19c.09.44 2.11 10.86 0 15.92a.49.49 0 0 1 -.54.26z" fill="#fff"/><path d="m272.54 78.69a9.16 9.16 0 0 1 -1.41-.11c-6.59-1-12.29-11.59-12.53-12a.51.51 0 0 1 .2-.68.52.52 0 0 1 .68.21c.06.11 5.7 10.59 11.8 11.53s16.56-5.75 16.66-5.82a.49.49 0 0 1 .69.15.5.5 0 0 1 -.14.69c-.41.22-9.44 6.03-15.95 6.03z" fill="#fff"/></g></svg>