<svg height="512" viewBox="0 0 512 512" width="512" xmlns="http://www.w3.org/2000/svg" xmlns:xlink="http://www.w3.org/1999/xlink"><clipPath id="clip-path"><path d="m332.43 195.94s-39.43-7.94-59.51 15.14-45.2 7.7-51.35 31.09 48 24.44 57.57 40.21-14 47.44-6.26 84.19 76.92 105.8 106.43 102 61.64-30.37 55.78-66.56-34.74-34.82-66-65.91-14.41-99.73-19.08-118.39-17.58-21.77-17.58-21.77z"/></clipPath><g id="Pets_Playing" data-name="Pets Playing"><g fill="#ffb833"><path d="m288.49 84.65a21.81 21.81 0 0 1 5.51 3.66 22.84 22.84 0 0 1 6.66 11.49 16.9 16.9 0 0 1 4.17-10.66 16.65 16.65 0 0 1 8.16-5 15.76 15.76 0 0 1 -7.5-3.17 16.31 16.31 0 0 1 -5.83-10 14.36 14.36 0 0 1 -2.49 7.83 14.76 14.76 0 0 1 -8.68 5.85z"/><path d="m323.66 162.9a21.91 21.91 0 0 1 5.5 3.67 22.92 22.92 0 0 1 6.66 11.49 16.48 16.48 0 0 1 12.32-15.66 15.59 15.59 0 0 1 -7.49-3.16 16.28 16.28 0 0 1 -5.83-10 14.37 14.37 0 0 1 -2.5 7.82 14.65 14.65 0 0 1 -8.66 5.84z"/><path d="m84.22 193.65a28.67 28.67 0 0 1 7.18 4.8 29.84 29.84 0 0 1 8.71 15 22.17 22.17 0 0 1 5.45-13.94 21.9 21.9 0 0 1 10.67-6.51 20.51 20.51 0 0 1 -9.8-4.14 21.3 21.3 0 0 1 -7.62-13.07 18.83 18.83 0 0 1 -3.27 10.21 19.2 19.2 0 0 1 -11.32 7.65z"/></g><path d="m120.32 119c-.8-.8-5.18-5-11.52-4.62-.93.06-4.62.29-7.14 2.59-6.51 6-4.25 25 6.84 30.06 6.2 2.8 12.84.17 15.09-.84z" fill="#ffc871"/><path d="m113 141.27a.47.47 0 0 1 -.35-.15c-2.77-2.73-4-5.55-3.68-8.38.39-3.3 2.79-5.77 4.36-7.05l-9.12.32a.54.54 0 0 1 -.52-.48.5.5 0 0 1 .48-.52l10.76-.38a.5.5 0 0 1 .5.36.51.51 0 0 1 -.22.57s-4.74 2.93-5.25 7.3c-.29 2.51.85 5 3.39 7.55a.5.5 0 0 1 0 .71.47.47 0 0 1 -.35.15z"/><path d="m261 125.81c.88-.72 5.64-4.49 11.92-3.49.92.15 4.57.73 6.85 3.27 5.91 6.56 1.83 25.33-9.69 29.26-6.44 2.2-12.8-1.06-14.94-2.28q2.97-13.38 5.86-26.76z" fill="#ffc871"/><path d="m266.23 148.67a.5.5 0 0 1 -.32-.88c2.77-2.25 4.14-4.68 4.09-7.2-.09-4.4-4.47-7.73-4.52-7.77a.48.48 0 0 1 -.16-.58.5.5 0 0 1 .53-.31l10.67 1.41a.5.5 0 0 1 .43.56.5.5 0 0 1 -.56.43l-9.05-1.2c1.44 1.43 3.6 4.12 3.66 7.44.06 2.85-1.44 5.54-4.46 8a.45.45 0 0 1 -.31.1z"/><path d="m134.18 245.77s-38.27 9.9-52.59 51.46-27.59 93.95-27.59 93.95l39.6 10s34.54-65.24 44.62-97.63 13.54-43.99-4.04-57.78z" fill="#ffc871"/><path d="m170.45 183.22c2.23 9.12 3.79 22.13-2 34.38-9.28 19.64-27.93 17.2-42.24 31.55-23.4 23.46-5.84 62.32-5.61 140.66a528.73 528.73 0 0 1 -4.25 68.51 214.22 214.22 0 0 0 63.51 19.58c48 6.88 86.88-4.38 107.13-11.95a471.52 471.52 0 0 1 -9-74.57c-.61-14.76-.38-26.42.12-49.14 1.64-74.47 6.16-86-4.48-97.94-15.09-16.88-36.93-7.8-50-27.17-8.07-12-7.34-26.85-5.29-37.91a40.31 40.31 0 0 0 -17.27-5.82c-16.07-1.51-27.82 7.54-30.62 9.82z" fill="#ffdb99"/><path d="m170.81 211.26s22.74 9.4 48.95-1.71l-2.46-18.61-45.18 1.93z" fill="#ffc871"/><circle cx="191.51" cy="115.55" fill="#ffdb99" r="79.08"/><path d="m112.48 118.58c2.77 37.83 23.68 69.53 54 80.83 4.85 1.81 24.42 8.5 47.23 1.26 29.62-9.4 51.43-38.06 56.3-73.7-.01.03-95.77-74.6-157.53-8.39z" fill="#ffdb99"/><path d="m241.9 115.46a24.2 24.2 0 0 0 -13.44-5.7c-3.36-.37-7.9-.87-9.53 1.65a3.72 3.72 0 0 0 -.23 3.72c1.4 2.25 5.53.68 11.94 1.16 8.44.65 13.65 4.32 14.31 3.15.48-.84-2.06-3.09-3.05-3.98z" fill="#383333"/><path d="m144.46 112.64a24.18 24.18 0 0 1 13.54-5.42c3.36-.29 7.91-.7 9.48 1.85a3.69 3.69 0 0 1 .15 3.73c-1.44 2.22-5.54.56-12 .91-8.45.47-13.74 4-14.37 2.84-.4-.85 2.18-3.04 3.2-3.91z" fill="#383333"/><path d="m193.23 173.59a16.48 16.48 0 0 1 -5.55-1 .49.49 0 0 1 -.28-.65.5.5 0 0 1 .64-.28c.06 0 5.19 2 9.32.12a.49.49 0 0 1 .66.24.5.5 0 0 1 -.24.67 11 11 0 0 1 -4.55.9z"/><circle cx="158.62" cy="133.45" fill="#fff" r="10.52"/><circle cx="159.84" cy="133.18" fill="#383333" r="7.52"/><circle cx="162.07" cy="129.26" fill="#fff" r="2.19"/><circle cx="225.69" cy="133.45" fill="#fff" r="10.52"/><circle cx="224.46" cy="133.18" fill="#383333" r="7.52"/><circle cx="222.23" cy="129.26" fill="#fff" r="2.19"/><path d="m120.59 389.81a528.73 528.73 0 0 1 -4.25 68.51 214.22 214.22 0 0 0 63.51 19.58c48 6.88 86.88-4.38 107.13-11.95a331.69 331.69 0 0 1 -9-74.57 517.06 517.06 0 0 1 2.68-52.38c2.89-28.27 9.26-67.84-3.39-89.48a37.39 37.39 0 0 0 -3.68-5.26c-10.45-11.69-24.14-10.93-35.89-15.8-3.5 3.43-12.7 9.69-34.9 12.92a84.22 84.22 0 0 1 -50.09-7.83c-8.52 4.57-18.24 7.27-26.51 15.56-23.4 23.5-5.84 62.36-5.61 140.7z" fill="#ff832f"/><path d="m49.85 272c-.36 4.71-8 108.83 3.6 129.62 4.54 8.13 11 10.68 11 10.68 8.86 3.47 17.85-1.47 19.21-2.21 9.25-5 13.45-17.42 14-18.91 5-15-2.85-35.62-4.18-39.16-6.3-16.78-13.2-41.21-16.29-75.7z" fill="#ffdb99"/><path d="m179.79 155.33c4.08-.05 8.27-.05 12.54 0q6.82.1 13.31.4a12.07 12.07 0 0 1 -1.79 6.36c-2.75 4.32-8.19 6.18-12.81 5.43-5.7-.91-10.35-5.85-11.25-12.19z" fill="#fff"/><ellipse cx="233.47" cy="158.76" fill="#ffc871" rx="5.84" ry="9.38" transform="matrix(.033 -.999 .999 .033 67.11 386.88)"/><ellipse cx="147" cy="155.91" fill="#ffc871" rx="5.84" ry="9.38" transform="matrix(.033 -.999 .999 .033 -13.67 297.7)"/><path d="m107.88 259.88s6 8.5 6.28 31.88l36.34-36.08-4.05-19s-22.88 4.64-38.57 23.2z" fill="#ff832f"/><path d="m252.06 231.54s19.31 3.61 33.61 14.7l-7 66.47-23.97-12.71z" fill="#ff832f"/><path d="m193 146.67c-2.94 0-5.9-.42-6.64-2-1.3-2.7 3.07-14.73 4-17.11a.75.75 0 1 1 1.4.52c-2.11 5.68-4.76 14.38-4 16 .61 1.27 6.21 1.35 11 .7a.75.75 0 0 1 .2 1.48 46.54 46.54 0 0 1 -5.96.41z"/><path d="m275.35 331.7s-10.78 33.51-2 70.2-3.43 62.41-3.43 62.41-15 .54-14.79 11.51c0 0 21.76 3.24 27.52 0s24.28-39 27.16-69.24-18.9-69.9-34.46-74.88z" fill="#c65726"/><path d="m337.13 397.64s-27.52 30.25 14 71.12c0 0-34.53-1.68-38.31 10.43 0 0 70.42 4.08 79.32 0s7.29-24.32 1.89-34-44.49-50.29-56.9-47.55z" fill="#c65726"/><g clip-path="url(#clip-path)"><path d="m332.43 195.94s-39.43-7.94-59.51 15.14-45.2 7.7-51.35 31.09 48 24.44 57.57 40.21-14 47.44-6.26 84.19 76.92 105.8 106.43 102 61.64-30.37 55.78-66.56-34.74-34.82-66-65.91-14.41-99.73-19.08-118.39-17.58-21.77-17.58-21.77z" fill="#ffb833"/><g fill="#c65726"><path d="m306.76 188s-23.83 16.55-21.09 31.66 22.53 7.11 29 19.34 5.39 34.53 23 35.25 21.22-2.07 21.22-2.07v-64.53l-23.38-26.26z"/><path d="m355.66 285.35s-23.44.45-33.47 22.17-55.3.53-56.41 62.56 127.32 117.43 127.32 117.43l42.68-18.75 18.83-41.14-9.71-65.29z"/></g></g><path d="m335.9 214.43s4.86 81.7 39.93 78.11 3-75.89-5.94-88.58-31 2.43-31 2.43z" fill="#c65726"/><circle cx="300.73" cy="215.94" fill="#fff" r="9.16"/><circle cx="299.44" cy="214.69" fill="#383333" r="6.55"/><circle cx="297.57" cy="211.24" fill="#fff" r="1.91"/><path d="m354.91 307.47a26.68 26.68 0 0 0 -10.17 6c-4.34 4.34-18.9 15-16.33 18.36s20.78-7.55 20.78-7.55-15.89 14.51-11.58 18.48 17.44-10.14 17.44-10.14-10.72 14.82-6 17.1 13.56-11.86 13.56-11.86-7.08 12.65-1.5 13.35 17-14.36 15.62-18-6.07-2.44-6.07-2.44.46-7.18-4.72-6.44c0 0 1-6.59-5.78-6 .01-.03 5.12-12.6-5.25-10.86z" fill="#ffdb99"/><path d="m241.32 252.43a19.44 19.44 0 0 1 -10.61-2.63c-3.42-2.17-5.46-4.85-6.06-8a13.06 13.06 0 0 1 2.15-9.29.5.5 0 0 1 .81.58s-2.85 4-2 8.53c.55 2.83 2.44 5.29 5.62 7.31 6.13 3.88 14.71 2.38 23 .93 6.07-1.07 11.8-2.07 16.45-1a.5.5 0 0 1 .37.6.5.5 0 0 1 -.6.38c-4.45-1-10.08 0-16.05 1a77.62 77.62 0 0 1 -13.08 1.59z"/><path d="m225.69 233.9s3.44-8 6.88-9.1 10.3.79 10.21 1.54-1.91 5.28-5.42 7.17-11.47 1.66-11.67.39z" fill="#383333"/><path d="m350 274.57a.51.51 0 0 1 -.43-.24c-8.57-14.51-4.57-29.92-1.57-41.17 1.26-4.8 2.35-8.95 2.15-11.89-.64-9.33-5.37-9.53-5.58-9.53a.51.51 0 0 1 -.49-.51.5.5 0 0 1 .5-.49c.24 0 5.86.14 6.57 10.46.21 3.1-.9 7.32-2.18 12.21-2.9 11.09-6.87 26.26 1.47 40.41a.49.49 0 0 1 -.18.68.43.43 0 0 1 -.26.07z"/><path d="m306.83 423.88a.45.45 0 0 1 -.16 0 .51.51 0 0 1 -.31-.64c10.65-30.28 3.29-51.6 3.22-51.81a.5.5 0 0 1 .3-.64.5.5 0 0 1 .64.31c.07.21 7.56 21.83-3.21 52.47a.51.51 0 0 1 -.48.31z"/><path d="m334.84 448.27a.49.49 0 0 1 -.45-.29c-8.4-18.75-9.68-33.41-3.82-43.57 6.49-11.23 19.65-12.71 19.78-12.72a.5.5 0 0 1 .55.44.49.49 0 0 1 -.44.55c-.13 0-12.8 1.45-19 12.24-5.7 9.87-4.4 24.22 3.86 42.65a.5.5 0 0 1 -.25.66.52.52 0 0 1 -.23.04z"/><path d="m398.46 463.58a.5.5 0 0 1 -.5-.48c-.86-22.05-17.4-35.77-17.56-35.9a.51.51 0 0 1 -.08-.71.52.52 0 0 1 .71-.07c.17.14 17.06 14.13 17.93 36.64a.5.5 0 0 1 -.48.52z"/><path d="m448.43 345.06s-8.9 20.24 0 36.43 1.89 49.1-23.47 45.32l-4.86 7s17.27 6.75 36.15 2.16 24.82-25.63 24.82-25.63l-11.33 5.13s10.52-14.84 5.67-30.22-17.81-37.49-9.41-48.25a19.36 19.36 0 0 0 -7.56.81 20 20 0 0 0 -10.01 7.25z" fill="#c65726"/><path d="m156.37 59.06a.2.2 0 0 0 -.16.15c-2.78 9.51-11.46 34.13-35.58 49.25a76.64 76.64 0 0 1 -18.63 8.43.21.21 0 0 1 -.27-.23c.44-4.08 5.45-45.92 24.88-62.18a.21.21 0 0 0 -.23-.35l-13 5.9a.22.22 0 0 1 -.26-.34c4.72-5.27 34.78-36.65 73.75-26.78h.06c1.31-.07 50.75-2.87 71.75 20.59a.22.22 0 0 1 -.2.36l-8.23-1.37a.22.22 0 0 0 -.17.38c4.91 3.75 33.47 27.63 25.52 69.76a.22.22 0 0 1 -.32.15c-24.42-13.39-40.42-27.66-50.73-38.6-7.54-8-12.62-14.86-22.93-20.24-15.88-8.26-32.92-7.23-45.25-4.88z" fill="#383333"/><path d="m108.49 111.9s1.29 18.63 7.39 27.15c0 0 .17-24.25 6.91-39.36z" fill="#383333"/><path d="m276 116.21s-1.28 18.63-7.39 27.16c0 0-.16-24.26-6.91-39.36z" fill="#383333"/><path d="m76.73 282.65s5.53-8.88 6.48-17.42 5.25-16.68 6.59-22.23-5.88-5.41-12.19 4.32c0 0 1.65-26.49-2.81-27.91s-7.73 21.92-7.73 21.92-5.18-27.14-9.43-26.71-3.32 26-3.32 26-9.9-18.55-14.32-17.62 4.09 24 4.09 24-7.21-8.3-12-7.13 6.71 13.91 8.09 18.61 1.37 18.9 9.13 23.3 17.82 5.02 27.42.87z" fill="#ffdb99"/><path d="m48.69 255.19a.26.26 0 0 1 -.21-.11.26.26 0 0 1 .07-.35c.12-.07 11.49-7.36 21.9-6a.24.24 0 0 1 .21.28.24.24 0 0 1 -.28.21c-10.21-1.36-21.44 5.83-21.55 5.9a.25.25 0 0 1 -.14.07z"/><path d="m71 261.42a.26.26 0 0 1 -.25-.26 23.73 23.73 0 0 1 6.68-14 .25.25 0 0 1 .35 0 .25.25 0 0 1 0 .36 23.21 23.21 0 0 0 -6.54 13.68.25.25 0 0 1 -.24.22z"/><path d="m347.61 325.48a.25.25 0 0 1 -.22-.12.25.25 0 0 1 .09-.34c.09-.06 9.43-5.48 12.59-6.94a.24.24 0 0 1 .33.12.25.25 0 0 1 -.12.33c-3.14 1.46-12.45 6.87-12.55 6.92a.27.27 0 0 1 -.12.03z"/><path d="m355.05 332.9a.25.25 0 0 1 -.18-.08.24.24 0 0 1 0-.35c.3-.27 7.28-6.63 11-8.37a.24.24 0 0 1 .33.12.25.25 0 0 1 -.12.33c-3.62 1.71-10.77 8.22-10.84 8.28a.23.23 0 0 1 -.19.07z"/><path d="m362.62 338.14a.3.3 0 0 1 -.15-.05.25.25 0 0 1 -.05-.35c.17-.23 4.11-5.48 8.15-7.2a.26.26 0 0 1 .33.13.26.26 0 0 1 -.13.33c-3.92 1.67-7.91 7-7.95 7a.26.26 0 0 1 -.2.14z"/><path d="m112.43 104.51a.5.5 0 0 1 -.21-1c20-8.85 32.64-45.34 32.76-45.71a.5.5 0 0 1 1 .33c-.13.37-13 37.27-33.3 46.29a.53.53 0 0 1 -.25.09z" fill="#fff"/><path d="m267.88 103.54c-13 0-23.44-12.1-34.4-24.85-5.33-6.2-10.85-12.61-16.87-17.88-19-16.63-51.91-9.67-52.24-9.6a.49.49 0 0 1 -.59-.38.5.5 0 0 1 .38-.6c.33-.07 33.71-7.14 53.11 9.83 6.08 5.31 11.61 11.75 17 18 11.66 13.58 22.73 26.42 36.73 24.24a.5.5 0 0 1 .16 1 22.32 22.32 0 0 1 -3.28.24z" fill="#fff"/><path d="m262.66 81.51h-.07c-20.11-2.9-31.25-20.08-31.36-20.26a.5.5 0 0 1 .15-.69.49.49 0 0 1 .69.16c.11.17 11 17 30.66 19.8a.5.5 0 0 1 .43.57.51.51 0 0 1 -.5.42z" fill="#fff"/></g></svg>