<svg height="512" viewBox="0 0 512 512" width="512" xmlns="http://www.w3.org/2000/svg"><g id="Playing_Harmonica" data-name="Playing Harmonica"><path d="m136.14 115.24a21.08 21.08 0 0 1 5.38 3.58 22.42 22.42 0 0 1 6.53 11.26 16.49 16.49 0 0 1 4.08-10.44 16.22 16.22 0 0 1 8-4.89 15.51 15.51 0 0 1 -7.34-3.1 16 16 0 0 1 -5.71-9.79 14.14 14.14 0 0 1 -2.45 7.67 14.4 14.4 0 0 1 -8.49 5.71z" fill="#ffb833"/><path d="m392.12 298.72a21.42 21.42 0 0 1 5.38 3.59 22.42 22.42 0 0 1 6.5 11.26 16.17 16.17 0 0 1 12.07-15.34 15.4 15.4 0 0 1 -7.34-3.1 15.91 15.91 0 0 1 -5.71-9.78 14.12 14.12 0 0 1 -2.42 7.65 14.29 14.29 0 0 1 -8.48 5.72z" fill="#ffb833"/><path d="m115.24 298.5a27.81 27.81 0 0 1 7 4.69 29.3 29.3 0 0 1 8.53 14.72 21.68 21.68 0 0 1 5.34-13.65 21.26 21.26 0 0 1 10.45-6.4 20.14 20.14 0 0 1 -9.6-4.06 20.89 20.89 0 0 1 -7.47-12.8 18.38 18.38 0 0 1 -3.2 10 18.88 18.88 0 0 1 -11.05 7.5z" fill="#ffb833"/><path d="m316.29 251.47c8.76 1.36 24.14 5.16 36.09 17.62 5.89 6.14 10.17 13.58 17.12 37.71a472.76 472.76 0 0 1 12.62 57h-48.79q-5.15-16-10.27-32-3.39-40.16-6.77-80.33z" fill="#ffc871"/><path d="m217.6 251.47c-8.29 1.09-24.5 4.52-36.1 17.62-8.33 9.42-10.68 19.75-12.86 31.36a561 561 0 0 0 -8.81 77.55l40.73-14.2q5.13-16 10.27-32 3.38-40.16 6.77-80.33z" fill="#ffc871"/><g fill="#ff1a26"><ellipse cx="105.38" cy="171.75" rx="7.8" ry="5.2" transform="matrix(.924 -.382 .382 .924 -57.63 53.3)"/><path d="m110.18 143.65h2.11v26.69h-2.11z"/><path d="m110.27 149.51a18.92 18.92 0 0 0 7.53 1.06 5.77 5.77 0 0 1 5.07 2.11.32.32 0 0 0 .57-.24c-.4-4.72-1.77-6.44-3.1-7.07-.94-.44-1.68-.23-3.2-.39a14.68 14.68 0 0 1 -7-2.84c.02 2.45.07 4.91.13 7.37z"/><ellipse cx="134.94" cy="234.98" rx="7.8" ry="5.2" transform="matrix(.924 -.382 .382 .924 -79.55 69.4)"/><path d="m139.74 206.88h2.11v26.69h-2.11z"/><ellipse cx="157.93" cy="228.79" rx="7.8" ry="5.2" transform="matrix(.924 -.382 .382 .924 -75.44 77.72)"/><path d="m162.73 200.69h2.11v26.69h-2.11z"/><path d="m139.95 214.93 24.84-8.66v-8.34l-25.28 7.14z"/><ellipse cx="392.12" cy="134.92" rx="5.2" ry="7.8" transform="matrix(.382 -.924 .924 .382 117.59 445.72)"/><path d="m385.2 106.83h2.11v26.69h-2.11z"/><path d="m387.23 112.69a18.86 18.86 0 0 1 -7.53 1 5.81 5.81 0 0 0 -5.07 2.11.33.33 0 0 1 -.58-.24c.41-4.71 1.78-6.44 3.11-7.06.94-.45 1.68-.24 3.2-.4a14.62 14.62 0 0 0 7-2.84c-.02 2.51-.07 4.97-.13 7.43z"/><ellipse cx="379.67" cy="236.59" rx="5.2" ry="7.8" transform="matrix(.382 -.924 .924 .382 15.95 497.04)"/><path d="m372.75 208.5h2.11v26.69h-2.11z"/><ellipse cx="356.68" cy="230.41" rx="5.2" ry="7.8" transform="matrix(.382 -.924 .924 .382 7.46 471.97)"/><path d="m349.76 202.31h2.11v26.69h-2.11z"/><path d="m374.66 216.55-24.84-8.66v-8.34l25.28 7.14z"/></g><path d="m189.51 148.06c-.84-.72-5.4-4.55-11.58-3.74-.9.12-4.49.59-6.8 3-6 6.26-2.48 24.76 8.7 28.92 6.24 2.33 12.56-.69 14.68-1.83q-2.51-13.16-5-26.35z" fill="#ffc871"/><path d="m183.82 170.32a.52.52 0 0 1 -.33-.12c-2.89-2.49-4.29-5.17-4.15-8 .15-3.24 2.32-5.8 3.77-7.16l-8.86.92a.51.51 0 0 1 -.55-.45.5.5 0 0 1 .44-.55l10.49-1.09a.52.52 0 0 1 .52.32.5.5 0 0 1 -.18.59s-4.43 3.18-4.63 7.47c-.12 2.47 1.16 4.88 3.81 7.15a.5.5 0 0 1 -.33.88z"/><path d="m323.18 145.23c.81-.76 5.22-4.76 11.42-4.2.9.08 4.51.41 6.91 2.73 6.22 6 3.48 24.64-7.52 29.25-6.14 2.57-12.58-.19-14.75-1.24q1.97-13.26 3.94-26.54z" fill="#ffc871"/><path d="m329.74 167.24a.46.46 0 0 1 -.36-.16.49.49 0 0 1 0-.7c2.55-2.38 3.73-4.84 3.52-7.3-.38-4.28-4.89-7.25-4.93-7.28a.51.51 0 0 1 -.21-.58.5.5 0 0 1 .51-.34l10.52.66a.5.5 0 1 1 -.06 1l-8.9-.56c1.51 1.3 3.78 3.78 4.06 7 .25 2.78-1 5.51-3.83 8.12a.48.48 0 0 1 -.32.14z"/><circle cx="256.13" cy="138.66" fill="#ffdb99" r="75.17"/><path d="m339.67 380.07c.49-11.85 1.41-13.08 2.24-29.17 2.73-53.18 8-85-11.22-95.36-20.2-10.85-44.78-15.71-50.11-26.56s-5.24-32.91-5.24-32.91-12.72-13.46-36.65 5.24c1.6 7.8 3 20.66-3 32.91-9.56 19.47-27.71 16.63-39.64 30.67-21.87 25.72 11.49 67.69 8.22 134.63a200.1 200.1 0 0 1 -14.21 64.33 203.6 203.6 0 0 0 60.68 17.57c45.73 5.76 82.51-5.57 101.63-13.09a244 244 0 0 1 -12.7-88.26z" fill="#ffc871"/><path d="m181.38 146.66c5.08 35.69 27 64.4 56.42 73.15a70.3 70.3 0 0 0 44.88-1.87c27.48-10.83 46.31-39.43 48.62-73.54 0 0-95.64-64.54-149.92 2.26z" fill="#ffdb99"/><path d="m303.91 135.31a23 23 0 0 0 -13.12-4.54c-3.21-.13-7.55-.31-8.93 2.18a3.5 3.5 0 0 0 0 3.54c1.47 2 5.28.29 11.39.34 8.05.06 13.23 3.2 13.78 2.06.43-.83-2.12-2.8-3.12-3.58z" fill="#383333"/><path d="m211.32 139a22.92 22.92 0 0 1 12.5-6c3.17-.5 7.46-1.17 9.12 1.14a3.48 3.48 0 0 1 .38 3.52c-1.22 2.2-5.21.89-11.28 1.65-8 1-12.77 4.7-13.45 3.62-.49-.84 1.82-3.1 2.73-3.93z" fill="#383333"/><path d="m261.77 168.21c-3.4 0-7.91-.4-8.71-2.41-1.05-2.66 3.87-13.8 4.87-16a.75.75 0 0 1 1-.38.74.74 0 0 1 .37 1c-2.37 5.25-5.44 13.31-4.83 14.84.47 1.19 5.75 1.66 10.39 1.35a.76.76 0 0 1 .8.7.74.74 0 0 1 -.7.8c-.71.04-1.87.1-3.19.1z"/><ellipse cx="296.85" cy="175.86" fill="#ffc871" rx="8.92" ry="5.55"/><ellipse cx="214.61" cy="175.86" fill="#ffc871" rx="8.92" ry="5.55"/><path d="m232.54 150.78c.46.17-6.18-5.74-13-2.16s-3.52 8.77-8.84 10.82c0 0 5.3 1.95 7.6-1.89s4.18-10.62 14.24-6.77z" fill="#383333"/><circle cx="226.09" cy="157.77" fill="#fff" r="10"/><circle cx="227.24" cy="157.43" fill="#383333" r="7.15"/><circle cx="229.1" cy="153.57" fill="#fff" r="2.08"/><path d="m284.05 149.61c-.44.23 5.48-6.41 12.64-3.63s4.5 8.3 10 9.73c0 0-5 2.54-7.77-1s-5.31-10.08-14.87-5.1z" fill="#383333"/><circle cx="291.26" cy="155.81" fill="#fff" r="10"/><circle cx="290.08" cy="155.6" fill="#383333" r="7.15"/><circle cx="287.79" cy="151.99" fill="#fff" r="2.08"/><path d="m339.67 380.07c.49-11.85 1.41-13.08 2.24-29.17 2.73-53.18 8-85-11.22-95.36-16.73-9-36.45-13.87-45.77-21.44-20.48 4.42-38.91 1.26-48.61-1.23-.12.28-.33.76-.61 1.35-8.81 18.17-32.19 15.84-43.1 24.3-21.07 16.34 9.1 69.36 7.4 141.13a253 253 0 0 1 -9.93 64.2 203.6 203.6 0 0 0 60.68 17.57c45.73 5.76 82.51-5.57 101.63-13.09a244 244 0 0 1 -12.71-88.26z" fill="#ff535c"/><path d="m325.81 263.71c11.53 18 21.87 34.68 31 49.68 22 36.1 29.32 50.18 24 62.73-3.1 7.3-9.45 11.62-14 14a42.16 42.16 0 0 1 -19.12-3.46c-21.69-9.78-29.2-38.03-38.09-73.66a343.55 343.55 0 0 1 -7.4-39.11z" fill="#ffdb99"/><path d="m193.7 266c-3 6.83-45.75 103.58-32.78 129.32 5.8 11.5 14 14 14 14 9.85 1.14 15.7-1.27 19.13-3.46 17.83-11.46 9.8-42.94 19.73-95.85a321.19 321.19 0 0 1 7.75-32.01z" fill="#ffdb99"/><path d="m199 129.2c7.34-1.77 15.1-3.32 23.27-4.53a276.48 276.48 0 0 1 94.07 2.41 110.14 110.14 0 0 1 1.06 54.27 108.29 108.29 0 0 1 -13.4 32.07 91.69 91.69 0 0 0 18.93-21.9c16.23-26.3 13.6-53 13.14-60.81-.48-8.25-2.1-27.72-15.73-45-22.22-28.23-70.1-42.5-106.19-20.26-46 28.34-34.06 92.06-33.4 95.31 5.61 27.48 22 45.39 30 53.1a150.34 150.34 0 0 1 -9.75-28.86 152.67 152.67 0 0 1 -2-55.8z" fill="#383333"/><rect fill="#37ad36" height="17.49" rx="3.83" width="126.32" x="196.74" y="223.34"/><rect fill="#ffb833" height="8.28" rx="3.08" width="115.88" x="201.96" y="227.95"/><path d="m190 282c0-18.93 3.6-32.53 6.73-41.2 1-2.88 7.08-19.2 11.06-18.52a2.74 2.74 0 0 1 1.32.8c2.7 2.54 1 9 1 9s2.77-10.06 7-11.11 2.48 9.38 2.48 9.38 2.68-5.82 6.51-4.63-1 17.58-1 17.58 3.79-8.78 7.46-7.93-3.2 19.7-3.9 28.33-6.66 20.3-10.49 22.38-8.92 0-8.92 0z" fill="#ffdb99"/><path d="m294.81 223.34s16.62-15.67 23-15.14 14.52 16.56 15.4 22.91-5.08 32-3.42 38.88-12 9.12-12 9.12l-14.68 1.67s-4.87-16.44-1-25.57 6.41-16.68 5.09-19-8.53-1.61-8.36-4.95 7.7-3.33 7.7-3.33-7.05 1-9.42 0-4.03-3.01-2.31-4.59z" fill="#ffdb99"/><circle cx="313.54" cy="60.84" fill="#383333" r="27.84"/><circle cx="194.51" cy="60.84" fill="#383333" r="27.84"/><path d="m259.24 190.93a27.7 27.7 0 0 1 -18.34-7.27.75.75 0 0 1 0-1.06.76.76 0 0 1 1.06 0 26.11 26.11 0 0 0 18.31 6.85 25.8 25.8 0 0 0 16.26-6.85.75.75 0 1 1 1 1.1 27.31 27.31 0 0 1 -17.22 7.25z"/><path d="m259.43 198.31a8.82 8.82 0 0 1 -4.52-1.27.5.5 0 1 1 .52-.86 7.64 7.64 0 0 0 4.22 1.12 7.86 7.86 0 0 0 3.79-1.11.5.5 0 1 1 .51.85 8.65 8.65 0 0 1 -4.27 1.26z"/><path d="m222.2 251.72h-.07a.24.24 0 0 1 -.16-.31c1.17-3.71 3-8.14 3-8.19a.26.26 0 0 1 .33-.13.24.24 0 0 1 .14.32s-1.83 4.46-3 8.15a.24.24 0 0 1 -.24.16z"/><path d="m214.54 244.74h-.09a.26.26 0 0 1 -.15-.32l5.11-14.13a.26.26 0 0 1 .32-.15.25.25 0 0 1 .15.32l-5.11 14.13a.25.25 0 0 1 -.23.15z"/><path d="m206 242.78a.15.15 0 0 1 -.09 0 .24.24 0 0 1 -.14-.32l4.17-10.46a.24.24 0 0 1 .32-.14.26.26 0 0 1 .14.33l-4.22 10.45a.25.25 0 0 1 -.18.14z"/><path d="m316.9 233.12a.24.24 0 0 1 -.23-.18s-1.24-4-4.57-4.65-8.78.23-8.83.24a.24.24 0 0 1 -.29-.2.25.25 0 0 1 .2-.29c.23 0 5.49-.95 9-.25s4.89 4.84 4.94 5a.25.25 0 0 1 -.16.31z"/><path d="m295.94 227.53a.26.26 0 0 1 -.21-.11.27.27 0 0 1 .07-.35c.55-.36 13.38-8.8 18.71-7.11a13.6 13.6 0 0 1 7.55 5.49.26.26 0 0 1 -.1.34.25.25 0 0 1 -.34-.09 13.3 13.3 0 0 0 -7.26-5.26c-5.11-1.62-18.15 7-18.28 7.05a.23.23 0 0 1 -.14.04z"/><path d="m298.56 220.24a.25.25 0 0 1 -.21-.12.24.24 0 0 1 .07-.34c.51-.33 12.34-7.95 17.94-6.19a19.76 19.76 0 0 1 9 6.25.25.25 0 1 1 -.4.3 19.24 19.24 0 0 0 -8.73-6.07c-5.37-1.69-17.39 6.05-17.51 6.13a.37.37 0 0 1 -.16.04z"/><path d="m194.51 182.22a.5.5 0 0 1 -.46-.31c-10.15-25.75-2.37-60.23-2.29-60.58a.5.5 0 0 1 1 .23c-.08.34-7.8 34.53 2.24 60a.51.51 0 0 1 -.28.65.63.63 0 0 1 -.21.01z" fill="#fff"/><path d="m319.24 187.15a.52.52 0 0 1 -.46-.7c11.07-25.52 5.92-69.57 5.87-70a.49.49 0 0 1 .43-.55.5.5 0 0 1 .56.43c.05.45 5.24 44.77-5.94 70.54a.52.52 0 0 1 -.46.28z" fill="#fff"/><path d="m222.35 123.44a.51.51 0 0 1 -.47-.32c-6.18-16-1.33-34.39-1.28-34.58a.5.5 0 1 1 1 .27c0 .18-4.81 18.27 1.25 34a.5.5 0 0 1 -.29.65.57.57 0 0 1 -.21-.02z" fill="#fff"/><path d="m284 122h-.1a.5.5 0 0 1 -.38-.6c4.11-19-2.51-31.07-2.58-31.19a.5.5 0 0 1 .19-.68.51.51 0 0 1 .68.19c.07.12 6.88 12.46 2.68 31.89a.49.49 0 0 1 -.49.39z" fill="#fff"/><path d="m256.34 122.29a.5.5 0 0 1 -.46-.54c1.35-17-2.64-36-2.68-36.23a.49.49 0 0 1 .38-.59.5.5 0 0 1 .6.38c0 .19 4.05 19.38 2.7 36.52a.49.49 0 0 1 -.54.46z" fill="#fff"/><path d="m192.94 76.45a16.58 16.58 0 0 1 -9.84-3c-7.52-5.36-9.33-15.74-9.4-16.18a.51.51 0 0 1 .41-.58.51.51 0 0 1 .58.42c0 .1 1.81 10.41 9 15.53 3.56 2.53 7.87 3.39 12.8 2.55a.5.5 0 1 1 .17 1 21.72 21.72 0 0 1 -3.72.26z" fill="#fff"/><path d="m210.73 61.34a.5.5 0 0 1 -.5-.5c-.11-19.09-17.58-19.58-18.33-19.59a.5.5 0 0 1 0-1c.19 0 19.19.51 19.31 20.58a.5.5 0 0 1 -.5.51z" fill="#fff"/><path d="m295.37 64h-.13a.49.49 0 0 1 -.35-.61c3.57-13.28 9.55-18.85 13.93-21.19a14.86 14.86 0 0 1 8.87-1.91.5.5 0 0 1 -.16 1c-.16 0-15-2.22-21.68 22.37a.5.5 0 0 1 -.48.34z" fill="#fff"/><path d="m313.54 76.45a.5.5 0 0 1 -.15-1c17.53-5.73 14.52-20.25 14.38-20.86a.5.5 0 1 1 1-.22c0 .16 3.36 16-15.05 22a.44.44 0 0 1 -.18.08z" fill="#fff"/></g></svg>