<svg height="512" viewBox="0 0 512 512" width="512" xmlns="http://www.w3.org/2000/svg"><g id="Skincare"><g fill="#ffb833"><path d="m115.74 144.87a20.43 20.43 0 0 1 5.19 3.46 21.56 21.56 0 0 1 6.3 10.87 16.05 16.05 0 0 1 3.94-10.08 15.85 15.85 0 0 1 7.72-4.73 14.85 14.85 0 0 1 -7.09-3 15.37 15.37 0 0 1 -5.51-9.45 13.71 13.71 0 0 1 -2.36 7.41 13.94 13.94 0 0 1 -8.19 5.52z"/><path d="m350.06 182.66a20.29 20.29 0 0 1 5.2 3.46 21.64 21.64 0 0 1 6.3 10.87 15.58 15.58 0 0 1 11.65-14.81 14.85 14.85 0 0 1 -7.09-3 15.37 15.37 0 0 1 -5.51-9.45 13.71 13.71 0 0 1 -2.36 7.41 13.94 13.94 0 0 1 -8.19 5.52z"/><path d="m357 87.85a27.08 27.08 0 0 1 6.8 4.53 28.38 28.38 0 0 1 8.2 14.21 20.86 20.86 0 0 1 5.14-13.18 20.63 20.63 0 0 1 10.1-6.17 19.5 19.5 0 0 1 -9.24-3.92 20.09 20.09 0 0 1 -7.24-12.32 17.88 17.88 0 0 1 -3.09 9.68 18.11 18.11 0 0 1 -10.67 7.17z"/><path d="m149.59 230.7a26.91 26.91 0 0 1 6.8 4.53 28.34 28.34 0 0 1 8.24 14.21 20.89 20.89 0 0 1 5.15-13.18 20.57 20.57 0 0 1 10.09-6.17 19.5 19.5 0 0 1 -9.27-3.92 20.14 20.14 0 0 1 -7.21-12.35 17.79 17.79 0 0 1 -3.09 9.68 18.13 18.13 0 0 1 -10.71 7.2z"/></g><path d="m181.69 141.4c-.76-.76-4.9-4.74-10.9-4.37-.88.06-4.37.28-6.75 2.45-6.16 5.64-4 23.68 6.47 28.43 5.86 2.65 12.15.16 14.27-.8z" fill="#ffc871"/><path d="m174.78 162.48a.49.49 0 0 1 -.35-.15c-2.63-2.59-3.8-5.26-3.48-8 .36-3.09 2.58-5.4 4.07-6.63l-8.55.3a.5.5 0 1 1 0-1l10.17-.36a.48.48 0 0 1 .49.36.49.49 0 0 1 -.21.57s-4.47 2.77-4.95 6.88c-.28 2.36.8 4.76 3.19 7.12a.5.5 0 0 1 -.35.86z"/><path d="m314.75 147.83c.83-.68 5.34-4.24 11.27-3.29.87.13 4.32.69 6.48 3.08 5.59 6.21 1.73 24-9.17 27.67-6.08 2.08-12.1-1-14.12-2.16q2.79-12.65 5.54-25.3z" fill="#ffc871"/><path d="m319.65 169.48a.5.5 0 0 1 -.31-.89c2.61-2.12 3.91-4.4 3.86-6.78-.08-4.14-4.22-7.29-4.26-7.32a.5.5 0 0 1 .36-.9l10.09 1.34a.49.49 0 0 1 .43.56.5.5 0 0 1 -.56.43l-8.48-1.12c1.37 1.36 3.36 3.88 3.42 7 .05 2.7-1.37 5.25-4.23 7.58a.52.52 0 0 1 -.32.1z"/><path d="m286.66 244.54s32.72 2.55 52.74 18.19 53.31 97 53.31 97l-30 19.11-54.15-50.84s-41.7-50.16-21.9-83.46z" fill="#ffc871"/><path d="m210.26 256.91s-37.29 2.71-57.65 38.95-41.61 82.72-41.61 82.72l35.15 16s43.19-54.83 58.06-83.26 20.06-38.61 6.05-54.41z" fill="#ffc871"/><path d="m226.79 202c2.26 8.58 3.94 20.86-1.34 32.53-8.45 18.68-26.13 16.68-39.45 30.47-21.74 22.56-4.51 59-3 133.08a499.92 499.92 0 0 1 -2.91 64.84 202.54 202.54 0 0 0 60.36 17.49c45.49 5.73 82.08-5.54 101.1-13a446.3 446.3 0 0 1 -9.77-70.41c-.82-14-.78-25-.67-46.46.35-70.43 4.43-81.45-5.82-92.53-14.54-15.71-35-6.78-47.67-24.89-7.83-11.21-7.38-25.26-5.61-35.75a38.08 38.08 0 0 0 -16.43-5.22c-15.26-1.15-26.18 7.61-28.79 9.85z" fill="#ffdb99"/><path d="m227.58 228.47s21.66 8.52 46.25-2.41l-2.62-17.56-42.69 2.55z" fill="#ffc871"/><circle cx="249" cy="138.13" fill="#ffdb99" r="74.78"/><path d="m174.28 141c2.62 35.76 22.38 65.74 51 76.43a70 70 0 0 0 44.72 1.19c28-8.89 48.63-36 53.24-69.69-.02 0-90.56-70.54-148.96-7.93z" fill="#ffdb99"/><path d="m296.65 138.05a22.83 22.83 0 0 0 -12.71-5.39c-3.17-.35-7.47-.83-9 1.55a3.49 3.49 0 0 0 -.21 3.52c1.32 2.13 5.22.64 11.28 1.11 8 .6 12.91 4.07 13.54 3 .45-.84-1.96-2.95-2.9-3.79z" fill="#383333"/><path d="m204.51 135.38a22.82 22.82 0 0 1 12.82-5.12c3.18-.28 7.49-.66 9 1.75a3.49 3.49 0 0 1 .14 3.52c-1.36 2.1-5.23.53-11.31.86-8 .44-13 3.8-13.59 2.69-.46-.8 1.98-2.88 2.94-3.7z" fill="#383333"/><path d="m250.63 193a15.93 15.93 0 0 1 -5.26-.95.5.5 0 0 1 -.28-.65.49.49 0 0 1 .65-.28s4.89 1.88 8.79.1a.5.5 0 1 1 .41.91 10.32 10.32 0 0 1 -4.31.87z"/><circle cx="217.9" cy="155.06" fill="#fff" r="9.95"/><circle cx="219.06" cy="154.8" fill="#383333" r="7.11"/><circle cx="221.17" cy="151.1" fill="#fff" r="2.07"/><circle cx="282.7" cy="157.54" fill="#fff" r="9.95"/><circle cx="281.55" cy="157.25" fill="#383333" r="7.11"/><circle cx="279.52" cy="153.51" fill="#fff" r="2.07"/><path d="m183 398.09a499.92 499.92 0 0 1 -2.91 64.84 202.54 202.54 0 0 0 60.36 17.49c45.49 5.73 82.08-5.54 101.1-13a446.3 446.3 0 0 1 -9.77-70.42c-.82-14-.78-25-.67-46.46.35-70.43 4.43-81.45-5.82-92.53-10.07-10.88-23-10-34.19-14.36-3.26 3.3-11.85 9.36-32.79 12.77a79.65 79.65 0 0 1 -47.48-6.59c-8 4.46-17.13 7.16-24.82 15.14-21.74 22.6-4.51 59.03-3.01 133.12z" fill="#00ccc1"/><path d="m357.57 262.46a419.91 419.91 0 0 1 -2.06 53.33c-1.61 15.54-4.31 32.88 2.32 52.76 2.25 6.75 5.11 12.34 10.59 15 9.91 4.88 22.52-2.54 24.75-4 26-17.07-5.29-113.1-10.36-128.3z" fill="#ffdb99"/><path d="m210.85 319.66c-3.77 1.61-87.06 37.49-98.41 54.77-4.44 6.77-3.8 12.79-3.8 12.79.89 8.22 8.3 13.16 9.41 13.92 7.36 5 16.1 3.74 20.16 3.15 16.94-2.43 47.25-25.37 80.28-61.84q-3.82-11.4-7.64-22.79z" fill="#ffdb99"/><path d="m237.93 175.74h11.85q6.45.11 12.58.38a11.29 11.29 0 0 1 -1.69 6 12.26 12.26 0 0 1 -12.11 5.13c-5.39-.83-9.79-5.51-10.63-11.51z" fill="#fff"/><path d="m326.58 144.63a66.71 66.71 0 0 1 -7 18.38 18.12 18.12 0 0 1 -3.14-4.12c-4.39-8 .08-14.91 1-25.5a49.82 49.82 0 0 0 -10.92-34.76 33.58 33.58 0 0 0 -9.52-8.41 36.57 36.57 0 0 0 -32-2c-13.6 5.55-39 8.06-54.16 2.78s-31.16 22-31.28 36.19 6 28.85-2.63 30.91c0 0-6.29-15.79-4.42-40.31a56.27 56.27 0 0 1 6.2-21.79c15.08-28.89 54.2-34.63 60.63-35.42 11-1.36 45.28-5.57 69.39 19.82 16.88 17.76 22.47 43.13 17.85 64.23z" fill="#383333"/><path d="m247.89 72.31s-11.77 11.75-39.93 24-13.13 39.33-43.79 43.42c0 0-14.18-28.83-8.92-50.47 4.19-17.24.38-29 5.89-36.86 1.42-2 3.22-3 6.34-5.29 0 0 11.92-8.78 25.79-12.51 20.73-5.6 27.94 6.4 54.6 4.55 17.68-1.25 16.23-6.68 31.63-7.15 3.24-.09 37.35-.63 53.8 23.44 10.14 14.83 4 32.33 7.56 45.49 3.91 14.32-10.73 44.62-10.73 44.62s-12.76 1.39-12.47-18.53-62.32-35.81-69.77-54.71z" fill="#00ccc1"/><path d="m309.21 134.68c-.36-21.23-13.28-28.18-27.62-32.26s-53.74-2-53.74-2-22.95 3.32-31.43 10.84-9.94 36.58-11.64 46 8.09 34.46 27.17 48.23 47.68 12.57 60.8 7.43 32.61-25.13 38.13-39.57-1.31-17.44-1.67-38.67zm-108.79 27.32c-3.74-4.74-7.32-15.68-4-23.85s14.2-11.39 14.2-11.39c13.27-2.21 26.36 4.76 28.06 18.37s-1 17.51-7.65 21.58-26.88 0-30.61-4.71zm50.28 34c-11.17 0-20.23-5.62-20.23-12.56s9.06-12.57 20.23-12.57 20.24 5.62 20.24 12.57-9.06 12.49-20.24 12.49zm48.73-31.55c-3.74 4.73-24 8.79-30.61 4.71s-9.36-8-7.66-21.58 14.8-20.58 28.07-18.37c0 0 10.89 3.23 14.2 11.39s-.26 19.04-4 23.78z" fill="#6ee56a"/><ellipse cx="288.68" cy="178.99" fill="#37ad36" rx="5.53" ry="8.87" transform="matrix(.033 -.999 .999 .033 100.28 461.63)"/><ellipse cx="206.92" cy="176.3" fill="#37ad36" rx="5.53" ry="8.87" transform="matrix(.033 -.999 .999 .033 23.9 377.3)"/><path d="m168.86 275.45s5.85 7.94 6.46 30l33.77-34.7-4.09-17.9s-21.6 4.8-36.14 22.6z" fill="#00ccc1"/><path d="m306.26 247.81s18.25 3.42 31.78 13.9l-6.62 62.86-22.66-12z" fill="#00ccc1"/><path d="m316.82 216.49h59.46a2.19 2.19 0 0 1 2.19 2.19v8.53a26.2 26.2 0 0 1 -26.2 26.2h-11.72a25.93 25.93 0 0 1 -25.93-25.93v-8.81a2.19 2.19 0 0 1 2.2-2.18z" fill="#ff1a26"/><path d="m386.93 264.19s-6.23-27.07-11.33-34.05-42.52-12.41-44.05-10.2 16.32 7.82 16.32 7.82-18.87-4.25-20.75-1.7 16.16 8.94 16.16 8.94-14.11-2.34-14.28 0 17.55 9.59 17.55 9.59-14.83-3.43-15.43-1.73c-.37 1.07 3.67 2.59 9.1 6.93 10.71 8.57 11.64 16 20.15 18.63a18.69 18.69 0 0 0 6.64.76s11.54 2.18 19.92-4.99z" fill="#ffdb99"/><path d="m234.92 361-5.41.27a1.75 1.75 0 0 1 -1.83-1.63l-5-71.13a1.75 1.75 0 0 1 1.66-1.87l8.33-.41a1.75 1.75 0 0 1 1.83 1.69l2.06 71.28a1.75 1.75 0 0 1 -1.64 1.8z" fill="#ff1a26"/><path d="m234 293.19-10.24.51a1.08 1.08 0 0 1 -1.13-.94l-2.72-19.4a1.09 1.09 0 0 1 1-1.24l13.75-.68a1.09 1.09 0 0 1 1.15 1.14l-.81 19.57a1.09 1.09 0 0 1 -1 1.04z" fill="#fff3e3"/><path d="m194.38 327s24-16.78 32.35-18 12.93 5.29 13.43 7.72-2.1 3.32-2.1 3.32 6.5 4.52 1.24 8.11c0 0 5.16 3.74 0 7.88 0 0 3.57 2.92 1.68 5.6s-13.88 6.58-22.09 7.95-15.72-3-15.72-3z" fill="#ffdb99"/><path d="m238.06 320.21a.24.24 0 0 1 -.16 0c-5-3.88-11.32-2.75-11.39-2.74a.25.25 0 0 1 -.29-.2.25.25 0 0 1 .2-.29c.07 0 6.63-1.18 11.79 2.84a.24.24 0 0 1 0 .35.23.23 0 0 1 -.15.04z"/><path d="m239.3 328.32h-.11c-3.56-1.69-12.6-1.87-12.69-1.87a.26.26 0 0 1 -.25-.26.27.27 0 0 1 .26-.24c.37 0 9.23.19 12.9 1.92a.25.25 0 0 1 .11.33.24.24 0 0 1 -.22.12z"/><path d="m230.3 337.23c-.3 0-.58 0-.83 0a.25.25 0 0 1 -.23-.26.24.24 0 0 1 .27-.23c2.93.2 9.7-1 9.76-1a.24.24 0 0 1 .29.2.25.25 0 0 1 -.2.29 69.36 69.36 0 0 1 -9.06 1z"/><path d="m353.58 229.37h-.06l-7-1.79a.25.25 0 1 1 .13-.48l7 1.79a.25.25 0 0 1 .18.3.24.24 0 0 1 -.25.18z"/><path d="m350.76 237.37h-.07l-8.2-2.43a.25.25 0 1 1 .14-.48l8.21 2.43a.24.24 0 0 1 .16.31.25.25 0 0 1 -.24.17z"/><path d="m351.27 246.89h-.09l-5.61-2.3a.25.25 0 0 1 -.14-.32.25.25 0 0 1 .33-.14l5.61 2.3a.25.25 0 0 1 .14.33.27.27 0 0 1 -.24.13z"/><path d="m248.56 187.29a12.26 12.26 0 0 0 12.11-5.13 11 11 0 0 0 .77-1.48 31.19 31.19 0 0 0 -21.79.16 12.7 12.7 0 0 0 8.91 6.45z" fill="#ff1a26"/><path d="m156.55 83a.5.5 0 0 1 0-1 137.21 137.21 0 0 0 45.7-11.67 93.39 93.39 0 0 0 16.5-9.33.5.5 0 1 1 .61.79c-.23.18-24 18.17-62.77 21.24z"/><path d="m339.78 94.93a.52.52 0 0 1 -.47-.33c-9.4-26.27-82.67-34.6-83.41-34.67a.5.5 0 1 1 .11-1 283.31 283.31 0 0 1 38.38 7.44c26.39 7.19 41.82 16.58 45.86 27.88a.49.49 0 0 1 -.3.64.47.47 0 0 1 -.17.04z"/><path d="m250.42 167.6c-2.79 0-5.61-.4-6.33-1.89-1.23-2.58 2.91-14 3.75-16.22a.75.75 0 0 1 1.4.52c-2 5.37-4.49 13.58-3.79 15.05.55 1.15 5.82 1.26 10.4.64a.75.75 0 0 1 .85.64.77.77 0 0 1 -.65.85 44.41 44.41 0 0 1 -5.63.41z"/></g></svg>