<svg height="512" viewBox="0 0 512 512" width="512" xmlns="http://www.w3.org/2000/svg" xmlns:xlink="http://www.w3.org/1999/xlink"><clipPath id="clip-path"><path d="m167.32 130.43c22.64-4.3 90.08-14.86 129.29 3.19a9.83 9.83 0 0 1 5.73 10c-1.29 11.78-5.88 35.46-22.14 41.82-21.9 8.56-40-20.93-48.17-19.6s-35.11 27.43-57.29 21.16c-16.52-4.67-16.8-32.89-15.87-47a10.42 10.42 0 0 1 8.45-9.57z"/></clipPath><g id="Sleeping"><path d="m367.24 272.8a13.89 13.89 0 0 1 -15.36 16.44 1060.69 1060.69 0 0 0 -262.75-.07 13.9 13.9 0 0 1 -15.33-16.75 388.11 388.11 0 0 0 9-92.47 387.73 387.73 0 0 0 -10.3-80.12 13.88 13.88 0 0 1 10.79-16.78 692.57 692.57 0 0 1 274.19.06 13.92 13.92 0 0 1 10.89 16.51 433.94 433.94 0 0 0 -1.13 173.18z" fill="#00ccc1"/><path d="m390.33 208.52a20.74 20.74 0 0 0 -5.16 3.44 21.42 21.42 0 0 0 -6.25 10.79 15.48 15.48 0 0 0 -11.57-14.7 14.72 14.72 0 0 0 7-3 15.32 15.32 0 0 0 5.48-9.38 13.46 13.46 0 0 0 2.34 7.35 13.85 13.85 0 0 0 8.16 5.5z" fill="#ffb833"/><path d="m301.23 45.48a20.2 20.2 0 0 0 -5.16 3.44 21.51 21.51 0 0 0 -6.25 10.78 15.82 15.82 0 0 0 -3.91-10 15.63 15.63 0 0 0 -7.66-4.7 14.92 14.92 0 0 0 7-3 15.33 15.33 0 0 0 5.47-9.39 13.44 13.44 0 0 0 2.38 7.39 13.83 13.83 0 0 0 8.13 5.48z" fill="#ffb833"/><path d="m114.12 158.91a26.91 26.91 0 0 0 -6.75 4.49 28.12 28.12 0 0 0 -8.18 14.11 20.25 20.25 0 0 0 -15.13-19.22 19.22 19.22 0 0 0 9.2-3.88 20 20 0 0 0 7.16-12.27 17.67 17.67 0 0 0 3.07 9.61 18.07 18.07 0 0 0 10.63 7.16z" fill="#ffb833"/><path d="m166.07 91s-35 43.45-38 94.73-12.84 63.44-29.39 87.76-9.23 63.5 48.41 68.57 175.53 11.82 193.43-25.67-12.83-60.8-25.67-79.72 3.82-72.25-2.82-107z" fill="#383333"/><g fill="#fff"><path d="m120.79 309a.49.49 0 0 1 -.45-.3c-8.77-19.8 1.55-34.52 11.54-48.76 8.07-11.51 16.42-23.42 14.71-38-3.83-32.69 3.06-49.24 3.13-49.4a.5.5 0 0 1 .66-.26.5.5 0 0 1 .26.65c-.07.17-6.85 16.51-3.06 48.89 1.75 15-6.7 27-14.89 38.71-10.27 14.66-20 28.51-11.44 47.79a.5.5 0 0 1 -.25.66.52.52 0 0 1 -.21.02z"/><path d="m310.83 317.92a.53.53 0 0 1 -.4-.19.51.51 0 0 1 .09-.71c17.27-13.25 8.78-46.22-8.53-71.94-17.45-25.92-2.8-66.18-2.65-66.58a.5.5 0 1 1 .93.34c-.14.4-14.61 40.19 2.55 65.68 17.57 26.11 26.07 59.67 8.31 73.3a.49.49 0 0 1 -.3.1z"/><path d="m283.77 283.13a.52.52 0 0 1 -.33-.12c-29.3-25.26-10.14-83.38-9.94-84a.5.5 0 0 1 .63-.31.51.51 0 0 1 .32.63c-.2.58-19.15 58.07 9.64 82.89a.51.51 0 0 1 .06.71.52.52 0 0 1 -.38.2z"/><path d="m166.07 275.7a.5.5 0 0 1 -.35-.85c18.06-18.54 15.57-72.88 15.54-73.43a.5.5 0 0 1 .48-.52.47.47 0 0 1 .52.47 224.85 224.85 0 0 1 -.93 29.89c-2.16 21.46-7.17 36.36-14.9 44.29a.51.51 0 0 1 -.36.15z"/></g><path d="m440.31 45.62s7.35 54.09 0 71.73-66.19 14.09-69 16.15-5.94 12.43-20.93 12.76c0 0 7.35-10.29 3.39-12.76s-11.88 1-18.38-5.11-13.88-68.91-10.49-79.09 70.15-12.73 81.46-13.3 31.12-.85 33.95 9.62z" fill="#ffb833"/><path d="m335.39 66.19 26.35-6-18.49 26.13 2.75 5.57 32.81-12.06-4.43-3.77-17.29 5.45 12-24.32-5.39-3.8-30.33 9z" fill="#fff3e3"/><path d="m379.43 92.92 17.62 1-16.27 13.08.76 4 22.76-1.74-2.11-3.15-11.84.34 11.86-13.15-2.71-3.35-20.66.25c.16.89.4 1.8.59 2.72z" fill="#fff3e3"/><path d="m398 59.5 23.15 1.24-21.35 17.26 1 5.25 29.9-2.28-2.77-4.15-15.55.46 15.62-17.28-3.56-4.4-27.14.33z" fill="#fff3e3"/><path d="m296 157.53c.81-.71 5.25-4.43 11.25-3.64.87.11 4.36.57 6.6 2.92 5.8 6.09 2.42 24.07-8.44 28.11-6.07 2.26-12.21-.67-14.28-1.78q2.38-12.81 4.87-25.61z" fill="#ffc871"/><path d="m301.47 179.17a.52.52 0 0 1 -.38-.17.51.51 0 0 1 .06-.71c2.56-2.21 3.81-4.54 3.69-6.93-.19-4.17-4.45-7.23-4.49-7.26a.49.49 0 0 1 -.18-.58.47.47 0 0 1 .52-.32l10.19 1.05a.52.52 0 0 1 .45.55.51.51 0 0 1 -.55.45l-8.58-.89c1.41 1.33 3.49 3.81 3.64 6.94.13 2.72-1.23 5.33-4 7.75a.5.5 0 0 1 -.37.12z"/><path d="m162.25 154.77c-.79-.74-5.07-4.63-11.1-4.08-.88.08-4.39.39-6.72 2.65-6 5.85-3.38 23.95 7.31 28.43 6 2.5 12.23-.18 14.33-1.2q-1.9-12.9-3.82-25.8z" fill="#ffc871"/><path d="m155.87 176.18a.49.49 0 0 1 -.34-.14c-2.72-2.53-4-5.19-3.73-7.9.28-3.12 2.46-5.52 3.92-6.79l-8.6.54a.49.49 0 0 1 -.54-.47.52.52 0 0 1 .47-.53l10.23-.64a.5.5 0 0 1 .51.34.51.51 0 0 1 -.21.58s-4.42 2.91-4.78 7.06c-.21 2.39.94 4.77 3.41 7.08a.51.51 0 0 1 0 .71.54.54 0 0 1 -.34.16z"/><circle cx="230.49" cy="148.3" fill="#ffdb99" r="75.66"/><path d="m207.7 212.5c.47 8.09-.17 19.93-7.53 29.46-11.93 15.43-28.4 7.82-42 18.55-21.92 17.23-5.19 57.09-11 134.93-1.35 18.25-3.54 33.21-5.23 43.2a170.29 170.29 0 0 0 55 18.82c48 7.6 86.42-7.78 102.78-15.55a103.6 103.6 0 0 1 -12.43-28.8c-7.22-27.87-1.17-54.37 3-72.07 6.19-25.9 14-43.16 6.56-61.81a27.46 27.46 0 0 0 -4.05-6.81c-11.14-14.12-29.76-8.19-37.63-24.57-5.72-11.89-3.92-31.68-3.93-31.75a115.87 115.87 0 0 0 -43.52-3.6z" fill="#ffdb99"/><path d="m204.07 235.85s27.68 9.83 48 1.74l-1.07-16.43-43.16-1.65z" fill="#ffc871"/><path d="m305.72 156.36c-5.11 35.92-27.13 64.82-56.79 73.63a70.84 70.84 0 0 1 -45.17-1.88c-27.66-10.91-46.61-39.69-48.94-74 0-.02 96.27-64.99 150.9 2.25z" fill="#ffdb99"/><path d="m224.81 178c-1.33 0-2.5-.06-3.2-.11a.74.74 0 0 1 -.7-.79.75.75 0 0 1 .8-.7c4.67.31 10-.17 10.46-1.37.61-1.53-2.48-9.66-4.87-14.93a.76.76 0 0 1 .38-1 .75.75 0 0 1 1 .38c1 2.22 6 13.42 4.9 16.1-.82 2.07-5.35 2.42-8.77 2.42z"/><path d="m228.27 203.06a10.19 10.19 0 0 1 -3.85-.71.5.5 0 0 1 .38-.93c4 1.64 8.84-.46 8.88-.48a.5.5 0 0 1 .41.92 16 16 0 0 1 -5.82 1.2z"/><path d="m180.21 256.6c-11.42.5-32.21 3.25-47.58 18.51-9.54 9.47-13.1 19.9-16.42 30-8.7 26.48-17.55 54.76-26.35 84.78l38.2 18.74 37.8-75.85s28.23-38.52 14.35-76.18z" fill="#ff8d93"/><path d="m264.56 257.66s30.54 8.76 43.92 28.83 39.19 90.81 39.19 90.81l-36.48 21-51.07-62.66s-17.5-48.51 4.44-77.98z" fill="#ff8d93"/><path d="m188.85 250.54c11.8 15.17 22.32 19.23 30.08 19.88 14.83 1.26 42-15.15 42-15.15s19.41 6.52 29.75 14.53q-2.82 17.77-5.63 35.57a657 657 0 0 0 8.95 97.07c2.82 16.8 6.15 32.68 9.81 47.6 0 0-79.47 31.81-167.15-3.26l10.92-91.46a53.56 53.56 0 0 1 -5.35-19.09c-1.73-20.59 9.4-35.8 12.85-40.18q-8.76-12.68-17.51-25.36a88.26 88.26 0 0 1 51.3-20.15z" fill="#ff8d93"/><path d="m235.13 84.36c-16.6-1.8-29.55 7.76-33.1 10.47-23.07 17.58-18.23 43.55-39.78 54a37.73 37.73 0 0 1 -16.89 3.55c-3-39.43 16.54-73.39 45.45-83.7 20-7.14 38.94-.95 46.76 2.17 5-1.42 27.61-7.23 47.3 5.44 18.75 12.06 23.26 33.51 26 46.53a98 98 0 0 1 1.25 32.69c-20.21-3.18-29.77-11-34.77-17.73-10.58-14.17-4.43-28.14-17.56-41.55-9.79-10.03-22.31-11.61-24.66-11.87z" fill="#383333"/><path d="m288 357.09a.44.44 0 0 1 -.16 0 .5.5 0 0 1 -.32-.63c5.39-16.73 3.31-28.08.62-34.65-2.89-7.08-7.08-10.25-7.12-10.28a.5.5 0 0 1 .6-.81c.17.13 17.37 13.41 6.85 46.05a.49.49 0 0 1 -.47.32z"/><path d="m150.18 371.76h-.06a.5.5 0 0 1 -.44-.56l1.84-14.56c-10.44-32.56 6.71-45.81 6.89-45.94a.5.5 0 0 1 .7.11.49.49 0 0 1 -.1.69c-.17.13-16.78 13-6.5 44.94a.53.53 0 0 1 0 .22l-1.85 14.67a.51.51 0 0 1 -.48.43z"/><path d="m73 385.3a2.9 2.9 0 0 1 4.18-3.08 58.87 58.87 0 0 0 14.24 5.07c27.5 5.93 44.52-11.74 75-23 9.37-3.45 58.67-20.54 104.71-3.37 21.48 8 29.42 18.69 57.42 24.32a142.55 142.55 0 0 0 38.89 2.3 2.91 2.91 0 0 1 2.85 4.11c-14.05 30.66-12.26 49.88-9.06 62.49 3.1 12.22 6.08 19.85 8.19 24.32a2.9 2.9 0 0 1 -3.2 4.1 896.65 896.65 0 0 0 -296.43-10.8 2.91 2.91 0 0 1 -3.14-3.8 168.59 168.59 0 0 0 8.57-44.22 168 168 0 0 0 -2.22-38.44z" fill="#00ccc1"/><rect fill="#ff1a26" height="10.95" rx="1.96" transform="matrix(.988 -.157 .157 .988 -20.98 26.13)" width="16.48" x="147.01" y="140.66"/><rect fill="#ff1a26" height="9.08" rx="1.96" transform="matrix(.979 .205 -.205 .979 37.14 -59.35)" width="12.41" x="298.51" y="144.84"/><path d="m294.58 123.93a.49.49 0 0 1 -.49-.37c-10-37.77-47.18-44-47.55-44.11a.5.5 0 0 1 -.42-.57.51.51 0 0 1 .57-.42c.38.06 38.21 6.43 48.37 44.85a.5.5 0 0 1 -.36.61z" fill="#fff"/><path d="m175 107.83a.59.59 0 0 1 -.23 0 .5.5 0 0 1 -.22-.67c13-25.85 39.33-26.95 39.6-27a.5.5 0 0 1 0 1c-.26 0-26 1.1-38.74 26.4a.48.48 0 0 1 -.41.27z" fill="#fff"/><g clip-path="url(#clip-path)"><path d="m167.32 130.43c22.64-4.3 90.08-14.86 129.29 3.19a9.83 9.83 0 0 1 5.73 10c-1.29 11.78-5.88 35.46-22.14 41.82-21.9 8.56-40-20.93-48.17-19.6s-35.11 27.43-57.29 21.16c-16.52-4.67-16.8-32.89-15.87-47a10.42 10.42 0 0 1 8.45-9.57z" fill="#ffb833"/><g fill="#ff1a26"><path d="m288.1 118.21 14.05-5.98-1.35 15.21 10.03 11.51-14.88 3.42-7.85 13.09-7.85-13.09-14.88-3.42 10.03-11.51-1.35-15.21z"/><path d="m181.91 163.72 14.04-5.97-1.34 15.2 10.02 11.51-14.88 3.42-7.84 13.1-7.85-13.1-14.88-3.42 10.03-11.51-1.35-15.2z"/><path d="m224.61 118.18 10.28-4.37-.99 11.13 7.34 8.42-10.89 2.5-5.74 9.58-5.74-9.58-10.89-2.5 7.33-8.42-.98-11.13z"/><path d="m277.94 174.31 10.28-4.37-.98 11.12 7.34 8.43-10.89 2.5-5.75 9.58-5.74-9.58-10.89-2.5 7.34-8.43-.98-11.12z"/><path d="m171.46 122.4 10.27-4.37-.98 11.13 7.34 8.42-10.89 2.5-5.74 9.58-5.75-9.58-10.89-2.5 7.34-8.42-.98-11.13z"/></g></g><ellipse cx="229.25" cy="190.76" fill="#fff" rx="7.24" ry="4.94"/><path d="m201.49 393.5s17.43 5.32 26.88 12.08 21.11 21.95 19.76 25.67-6.25 0-6.25 0 4.82 7.43 2.92 9.71-7-3.17-7-3.17 2.41 4.56-1.14 5.58-7.6-4.82-7.6-4.82 2 3.17-1 4.06-8-6.34-14.69-9.25-19.27-3.67-22.81-15.32l-10.38-7.1z" fill="#ffdb99"/><path d="m266.24 355.75s-16-8.77-27.41-10.83-30.46.21-32.18 3.77 4.37 4.47 4.37 4.47-8.69 1.74-9 4.7 7.13 2.77 7.13 2.77-4.95 1.46-3.2 4.71 8.75 2.08 8.75 2.08-3.68.76-2.19 3.56 10.1 1.29 16.88 4.07 16.07 11.23 26.89 5.63l12.32 2.48z" fill="#ffdb99"/><path d="m265.44 353.56c9.47 3.1 23.58 7.35 41 11.22 26.74 5.93 37.33 5.65 42.56 14.19 6.25 10.2 1.93 28.27-7.85 35.46-15.44 11.35-49.05-1-83.09-33a42.5 42.5 0 0 1 7.34-27.87z" fill="#ff8d93"/><path d="m213 396.88c-5-2.66-12.78-6.57-22.55-10.64-9.31-3.88-78-32.51-94.74-11.9-3.23 4-6.34 12-5.59 20.42a27.85 27.85 0 0 0 3.65 11.66c6.92 11 26.66 8.49 62.62 9.6 12.73.4 24.2 1.15 34.18 2a34.38 34.38 0 0 0 22.43-21.14z" fill="#ff8d93"/><path d="m148.62 372.31h-.15c-30.34-9.88-49-.67-49.15-.58a.5.5 0 0 1 -.68-.22.51.51 0 0 1 .22-.67c.19-.1 19.19-9.49 49.92.52a.5.5 0 0 1 -.16 1z"/><path d="m343.13 374a.48.48 0 0 1 -.26-.07c-8.28-5.19-18.31-6.45-28-7.67-4.43-.56-8.61-1.09-12.66-2-13-2.81-36.67-10.21-36.91-10.28a.49.49 0 0 1 -.32-.63.5.5 0 0 1 .62-.33c.24.08 23.86 7.46 36.82 10.26 4 .87 8.17 1.4 12.58 2 9.8 1.24 19.95 2.52 28.41 7.82a.5.5 0 0 1 -.27.92z"/><path d="m242.34 432.25a.22.22 0 0 1 -.2-.12l-9.39-13.95a.25.25 0 0 1 .07-.35.24.24 0 0 1 .34.07l9.39 14a.24.24 0 0 1 -.07.34.24.24 0 0 1 -.14.01z"/><path d="m237.83 438a.28.28 0 0 1 -.21-.1l-9.43-13.65a.25.25 0 0 1 .06-.35.26.26 0 0 1 .35.07l9.4 13.68a.25.25 0 0 1 -.07.35.23.23 0 0 1 -.1 0z"/><path d="m229.09 438.8a.25.25 0 0 1 -.22-.12l-5.25-9.21a.25.25 0 0 1 .43-.25l5.26 9.21a.25.25 0 0 1 -.1.34.24.24 0 0 1 -.12.03z"/><path d="m211 353.42a.26.26 0 0 1 -.25-.2.25.25 0 0 1 .19-.3c.09 0 9-2.1 15-2.23a.25.25 0 0 1 .25.24.26.26 0 0 1 -.25.26c-6 .12-14.83 2.2-14.92 2.22z"/><path d="m209.16 360.88a.25.25 0 0 1 -.24-.18.25.25 0 0 1 .17-.31c.09 0 8.94-2.48 15.76-2.35a.25.25 0 0 1 .25.25.25.25 0 0 1 -.25.25c-6.71-.13-15.53 2.31-15.61 2.34z"/><path d="m214.71 367.67a.24.24 0 0 1 -.23-.16.24.24 0 0 1 .15-.32c.06 0 6.33-2.18 11.38-1.68a.25.25 0 1 1 0 .5c-5-.5-11.1 1.63-11.16 1.65z"/></g></svg>