<svg height="512" viewBox="0 0 512 512" width="512" xmlns="http://www.w3.org/2000/svg"><g id="Bouquet"><g fill="#40c2d6"><path d="m391.35 200.29a283.79 283.79 0 0 1 -64 56.58c26-59.52 53.22-103.82 74.08-134.12 34.73-50.42 59.13-77.47 41-19.29-6.65 21.41-18.32 57.48-51.08 96.83z"/><path d="m209.62 156.43a283.69 283.69 0 0 1 3 85.33c-29.39-57.93-46.27-107.1-56.37-142.47-16.84-58.87-22.18-94.91 11.16-43.89 12.27 18.76 32.68 50.72 42.21 101.03z"/><path d="m225.68 204.54c-13.59-26.49-65-120.54-145.61-138.22-4.82-1.06-23.92-5.26-26.36 0-5.1 10.85 73.29 39.04 136.82 116.62 17.89 21.82 36.59 50 41 47.44 2.83-1.59-1.53-14.56-5.85-25.84z"/><path d="m263.83 193.78c13.58-26.48 65-120.5 145.61-138.21 4.82-1.06 23.91-5.26 26.36 0 5.1 10.84-73.24 39.03-136.8 116.62-17.89 21.82-36.59 50-41 47.44-2.85-1.63 1.47-14.56 5.83-25.85z"/></g><path d="m258.4 31.86c-23-1.11-37.94 12.59-40.48 15-5.92 30.37 1.8 57.51 19.42 67.83 1.91 1.12 15.1 8.85 28.67 4 9.33-3.33 14.14-10.93 18.46-18 11.08-18.07 13-37.08 12.83-49.95-2.3-2.61-15.88-17.74-38.9-18.88z" fill="#e73f46"/><path d="m250.66 41.7s3.88-6.26 7.4-3.8 4.51 8 9 3.26 8.73 3.3 8.73 3.3-18 4.71-26.91 1-10.28-6.28-10.28-6.28a20.61 20.61 0 0 0 12.06 2.52z" fill="#cc3745"/><path d="m217.92 46.85c17.19-7.92 37.91 1.25 42 20.4a60 60 0 0 0 -42-20.4z" fill="#cc3745"/><path d="m232.2 99s-1.81-9.55 10.35-17.82 6.7-13.77 17.75-23.18 25.69-14.48 37-7.19c0 0-23.62 1.75-33.27 13.51s-10.53 18.42-20.03 21.68-11.8 13-11.8 13z" fill="#cc3745"/><path d="m190.23 59.37c25.7-10.12 48-.29 51.83 1.46 18.44 32.27 20.11 66.12 4.05 84.66-1.74 2-13.77 15.89-31.08 15.61-11.89-.2-20.29-7-27.92-13.34-19.57-16.29-29.1-37.18-33.85-51.89 1.58-3.87 11.21-26.36 36.97-36.5z" fill="#cc3745"/><path d="m202.83 67.59s-6.83-5.59-9.89-1.47-2.07 10.77-9 7.17-8.67 7.12-8.67 7.12 22.29-1.58 31-9.18 9.28-11.1 9.28-11.1a24.76 24.76 0 0 1 -12.72 7.46z" fill="#e73f46"/><path d="m242.06 60.83c-22.61-2.39-42.65 16-40 39.41a72 72 0 0 1 40-39.41z" fill="#e73f46"/><path d="m245.91 125.68s-1.61-11.57-18.64-16.29-12.94-13.1-29.15-19.6-34.8-6.57-44.86 6.08c0 0 27.54-7.11 43.06 2.55s19.09 17 31.14 17 18.45 10.26 18.45 10.26z" fill="#e73f46"/><path d="m340.73 56.18c24.71 6.82 35.81 26.5 37.67 29.92-4.27 34.22-21.86 60.27-44.1 65.1-2.4.52-19.06 4.13-31.75-5.71-8.72-6.76-11.18-16.47-13.31-25.43-5.46-23-.92-43.79 3.74-57.35 3.33-2 23.02-13.33 47.75-6.53z" fill="#cc3745"/><path d="m345.51 69.29s-1.94-8-6.52-6.59-7.53 6.85-10.65.34-10.34.46-10.34.46 17.43 11.22 28.13 10.44 13.07-3.08 13.07-3.08a23 23 0 0 1 -13.69-1.57z" fill="#e73f46"/><path d="m378.4 86.1c-15.46-14.35-40.58-11.83-51.59 7a66.78 66.78 0 0 1 51.59-7z" fill="#e73f46"/><path d="m345.18 136.38s5.23-9.49-4.78-22.46-2.32-16.92-10.74-30.76-22.17-24.25-36.66-20.45c0 0 24.4 10 30.55 25.85s4.74 23.2 13.63 30 8 17.82 8 17.82z" fill="#e73f46"/><path d="m91.56 179.74q63.75 85.78 125.9 172.76l-36.46 71.9a103.84 103.84 0 0 0 37.56 22.53c55.78 18.64 107.41-19.81 113.74-24.68q-19.54-38-38.63-79.4 64.38-79.73 125.55-162c-104.11-50.13-223.61-50.53-327.66-1.11z" fill="#6d5fde"/><path d="m138.59 162.57 76.73 189.63q-8.85 45.75-17.71 91.52c37.39 21.37 80.63 18.8 115.36-2.51l-17.17-100.72q38.9-91.65 77.8-183.29a494.83 494.83 0 0 0 -90.68-18.2c-53.79-5.13-132.37 19.72-144.33 23.57z" fill="#917eec"/><path d="m84.42 98.88c-18.92 13.05-22.51 33-23.07 36.49 13.73 27.72 36.34 44.63 56.65 42.11 2.19-.27 17.37-2.13 25.21-14.21 5.39-8.31 4.6-17.27 3.76-25.49-2.16-21.08-12.17-37.37-20.12-47.48-3.45-.71-23.46-4.5-42.43 8.58z" fill="#cc3745"/><path d="m84.24 111.4s-.71-7.33 3.58-7.51 8.41 3.58 9.12-2.86 8.94-2.69 8.94-2.69-11.44 14.66-20.74 17.17-12 1.26-12 1.26a20.61 20.61 0 0 0 11.1-5.37z" fill="#e73f46"/><path d="m61.35 135.37c8.86-16.73 30.89-22 45.79-9.3a60 60 0 0 0 -45.79 9.3z" fill="#e73f46"/><path d="m104.36 168.15s-7.24-6.49-2.59-20.44-3-15 0-29.25 11.63-27.09 25-28.16c0 0-17.71 15.72-18.24 30.93s2.84 21.06-2.69 29.43-1.48 17.49-1.48 17.49z" fill="#e73f46"/><path d="m428.52 101.15c16.61 15.9 17 36.2 17 39.69-18 25.19-43 38.25-62.58 32.57-2.13-.61-16.82-4.87-22.64-18-4-9.06-1.79-17.77.35-25.76 5.49-20.47 18-34.95 27.42-43.67 3.45-.21 23.8-.77 40.45 15.17z" fill="#cc3745"/><path d="m426.7 113.54s1.88-7.13-2.33-8-8.87 2.19-8.55-4.28-8.4-4.07-8.4-4.07 9 16.3 17.75 20.25 11.63 3.15 11.63 3.15a20.6 20.6 0 0 1 -10.1-7.05z" fill="#e73f46"/><path d="m445.49 140.84c-6.08-17.93-27-26.65-43.72-16.47a59.94 59.94 0 0 1 43.72 16.47z" fill="#e73f46"/><path d="m397.81 166.36s8.18-5.26 5.81-19.77 5.39-14.35 4.66-28.87-7.17-28.6-20.28-31.79c0 0 15 18.33 13.09 33.44s-6.16 20.34-2 29.48-1.28 17.51-1.28 17.51z" fill="#e73f46"/><path d="m147 175.09s20.42 16.13 48.51 4.24 43.15-14.47 69.24-7.61 24.52 5.41 41.11-3.74 33.92 27 57 21.71 25.14-29.4 25.14-29.4-80-22.68-128.09-23-106.56 18.71-112.91 37.8z" fill="#6d5fde"/><path d="m349.45 174.37c12.45-7.62 34.7-18.58 62.78-17.7 26.13.81 48.89 11.63 48.29 15-.44 2.46-12.94-.19-31.66 6.44-9.4 3.32-8.26 4.7-16.1 7.51-1.6.57-28.83 9.73-53.65-4.29a54.23 54.23 0 0 1 -9.66-6.96z" fill="#86ebf9"/><path d="m169.89 176.52c-5.42-3.51-35.4-22.21-66.58-11.07-26.59 9.5-42.24 36.48-39 40.32s22.3-21 53.71-20.3c15.46.35 29.59 6.81 43.67-1.8a33.24 33.24 0 0 0 8.2-7.15z" fill="#86ebf9"/><path d="m143.57 93.61c-21.2 8.9-28.81 27.73-30.06 31 7.76 30 26.43 51.1 46.78 52.82 2.2.18 17.44 1.47 27.59-8.75 7-7 8-16 8.9-24.18 2.2-21.08-4.25-39.07-10-50.6-3.16-1.4-21.97-9.21-43.21-.29z" fill="#e73f46"/><path d="m140.83 105.83s.8-7.32 5-6.62 7.49 5.22 9.51-.93 9.3-.8 9.3-.8-14.2 12-23.82 12.56-12-1.23-12-1.23a20.59 20.59 0 0 0 12.01-2.98z" fill="#cc3745"/><path d="m113.51 124.6c12.1-14.56 34.74-15.22 46.72.27a60 60 0 0 0 -46.72-.27z" fill="#cc3745"/><path d="m148.89 165.49s-5.75-7.83 1.66-20.53.1-15.33 6-28.62 16.92-24.14 30.27-22.45c0 0-20.55 11.76-24.19 26.54s-1.53 21.2-8.65 28.26-5.09 16.8-5.09 16.8z" fill="#cc3745"/><path d="m268.68 65.82c-25.6 2.12-40.19 19.48-42.68 22.51-2.13 34.5 10.39 63.43 31.41 72.3 2.27 1 18 7.6 32.34.26 9.84-5 14.06-14.17 17.82-22.61 9.63-21.63 9-43 6.92-57.19-2.88-2.59-20.15-17.39-45.81-15.27z" fill="#e73f46"/><path d="m261.54 77.85s3.39-7.5 7.65-5.29 6.15 8.14 10.43 2.3 10.15 2.38 10.15 2.38-19.25 7.84-29.65 5.09-12.3-5.45-12.3-5.45a23 23 0 0 0 13.72.97z" fill="#cc3745"/><path d="m226 88.33c17.89-11.28 42.17-4.14 49.53 16.46a67 67 0 0 0 -49.53-16.46z" fill="#cc3745"/><path d="m249.46 144s-3.4-10.32 8.86-21.25 5.42-16.24 16.27-28.33 26.34-19.78 39.93-13.35c0 0-25.9 5.37-34.88 19.81s-9 22-19 27-11.18 16.12-11.18 16.12z" fill="#cc3745"/><path d="m370.93 98.89c22 6.61 31.57 24.53 33.16 27.64-4.56 30.61-20.89 53.61-40.94 57.46-2.17.42-17.19 3.31-28.37-5.78-7.68-6.26-9.67-15-11.4-23.11-4.41-20.73.11-39.3 4.57-51.36 3.05-1.74 20.91-11.47 42.98-4.85z" fill="#e73f46"/><path d="m374.94 110.75s-1.57-7.2-5.71-6-6.9 6-9.56.08-9.33.19-9.33.19 15.39 10.44 25 10 11.79-2.49 11.79-2.49a20.57 20.57 0 0 1 -12.19-1.78z" fill="#cc3745"/><path d="m404.09 126.53c-13.57-13.2-36.16-11.47-46.43 5.21a59.94 59.94 0 0 1 46.43-5.21z" fill="#cc3745"/><path d="m373.22 170.93s4.9-8.4-3.81-20.24-1.72-15.24-9-27.83-19.36-22.22-32.41-19.12c0 0 21.68 9.52 26.86 23.83s3.76 20.92 11.59 27.19 6.77 16.17 6.77 16.17z" fill="#cc3745"/><path d="m256.09 159.89c-3.71-7.22-9.92-16.43-20.38-22.54-18.06-10.54-31.76.41-64.93-6.44-16.42-3.39-25.7-8.56-27-6.26-1.79 3.19 13.88 16.74 27.9 24.68 13.49 7.67 40.41 18.56 84.41 10.56z" fill="#86ebf9"/><path d="m271.72 163.63c3.71-7.21 9.93-16.42 20.39-22.53 18.06-10.54 31.76.41 64.92-6.44 16.43-3.39 25.71-8.57 27-6.26 1.79 3.19-13.88 16.74-27.9 24.68-13.48 7.64-40.4 18.56-84.41 10.55z" fill="#86ebf9"/><path d="m166.79 189.1 55 152.67-24.57-155.24s-12.79 6.58-30.43 2.57z" fill="#6d5fde"/><path d="m224.17 356q-8.35 42.61-16.72 85.22s18.6 11.45 28.26 5.37q-5.77-45.31-11.54-90.59z" fill="#6d5fde"/><path d="m207.45 184.07 25 152.87-3.72-159.37z" fill="#e5e5e5"/><path d="m268.33 361.68s-40.4-73.59-61.41-77.89-14.8 14.09-24 25.25-19.28 32.18 11.27 44 74.14 8.64 74.14 8.64z" fill="#efbd42"/><path d="m268.33 361.68s-88.14-36.68-94.49-28.68 9.02 33.63 94.49 28.68z" fill="#d7981a"/><path d="m248.37 356.06s71.31-51 93-45.55 7.55 20 11.15 34.61 3.59 39-30.5 36.3-73.65-25.36-73.65-25.36z" fill="#efbd42"/><path d="m248.37 356.06s99.56 5.35 101.94 15.69-23.72 27.62-101.94-15.69z" fill="#d7981a"/><path d="m248.77 352.76a175.83 175.83 0 0 0 -14.2 31.41c-9.49 28-6.36 42.39-17.86 57.67-4.78 6.35-13.27 14.43-29.37 20l32.25 1.54q-1.82 8.8-3.59 17.62c11.59-7.64 26.19-20.15 31.67-39.16 2.74-9.49 2-16.43 1.92-28.8a349.7 349.7 0 0 1 5-60.28z" fill="#efbd42"/><path d="m268.12 352.76a175.12 175.12 0 0 1 14.2 31.41c9.49 28 6.36 42.39 17.86 57.67 4.78 6.35 13.27 14.43 29.37 20l-32.25 1.54q1.81 8.84 3.65 17.66c-11.59-7.64-26.2-20.15-31.68-39.16-2.74-9.49-2-16.43-1.92-28.8a349.7 349.7 0 0 0 -5-60.28z" fill="#efbd42"/><circle cx="261.85" cy="351.32" fill="#efbd42" r="16.54"/><path d="m246.66 357.15a16.25 16.25 0 0 1 7-20.21s-14.06 1.12-16.37 14.38a7.9 7.9 0 0 0 9.37 5.83z" fill="#d7981a"/><path d="m273.33 339.42s13.93 7.15 7.74 23.85l-5.81-2.27s6.88-8.14-1.93-21.58z" fill="#d7981a"/><path d="m280.74 344.67s45.11-20.83 45.4-19.39-39.74 20.45-39.88 22.17 17.66-.28 17.18 2.88-23.66 3.3-23.66 3.3-5.35-6.06.96-8.96z" fill="#d7981a"/><path d="m244 339.64s-38.59-31.31-39.22-30 33.47 29.62 33.22 31.36-17.05-4.63-17.36-1.44 22.11 9 22.11 9 6.65-4.56 1.25-8.92z" fill="#d7981a"/></g></svg>