<svg height="512" viewBox="0 0 512 512" width="512" xmlns="http://www.w3.org/2000/svg"><g id="Crown"><path d="m150.19 330.23q2.87-63.12 5.94-130.64l80.76 113.63-33.34 44z" fill="#d7981a"/><path d="m363.23 330.23q-2.72-63.12-5.63-130.64l-81 113.63 33.23 44z" fill="#d7981a"/><path d="m397.56 393.89h-283.17l-12.34-59.59h307.87z" fill="#efbd42"/><path d="m106.91 360.8q-29-73-60.33-152.06 52.76 41 103.36 80.33c24.1 18.74 57.82 9 68.33-20l46.89-129.28c15.19 55.11 27.84 101.11 38.59 140.04 6 21.93 31.28 29.85 48.58 15.36l113.09-94.7-62.9 166.68z" fill="#efbd42"/><path d="m406.23 393.89h-300.51l-2.9-47.04h306.32z" fill="#efbd42"/><path d="m406.23 393.89c-.58 9.4-67.85 17-150.26 17s-149.67-7.57-150.25-17 66.69-17.21 150.28-17.21 150.82 7.74 150.23 17.21z" fill="#d7981a"/><ellipse cx="265.15" cy="132.15" fill="#86ebf9" rx="19" ry="29.01"/><ellipse cx="46.58" cy="205.79" fill="#e73f46" rx="13.06" ry="19.94" transform="matrix(.826 -.564 .564 .826 -107.88 62.05)"/><ellipse cx="153.45" cy="196.35" fill="#917eec" rx="10.91" ry="16.65" transform="matrix(.96 -.28 .28 .96 -49.29 51.45)"/><ellipse cx="357.9" cy="196.35" fill="#917eec" rx="16.65" ry="10.91" transform="matrix(.28 -.96 .96 .28 68.3 484.05)"/><ellipse cx="465.42" cy="199.59" fill="#e73f46" rx="19.94" ry="13.06" transform="matrix(.564 -.826 .826 .564 38.24 471.57)"/><path d="m257.54 305.8c-3-10-10.19-16.31-17.05-16.08-6.48.23-11.66 6.28-13.42 11-4.67 12.58 8.79 31.8 32.56 48.74 21.8-18.17 33.69-37.8 28.33-49.95-1.68-3.8-5.93-8.91-11.63-9.51-6.98-.7-14.74 5.47-18.79 15.8z" fill="#cc3745"/><g fill="#e5e5e5"><path d="m35.14 194.35a36.7 36.7 0 0 0 17.14 25.26 21.47 21.47 0 0 1 -14.72-9.74 21.21 21.21 0 0 1 -2.42-15.52z"/><path d="m262.1 107.28c-17 13.1-15.55 35.89 0 49.25a45.33 45.33 0 0 1 0-49.25z"/><path d="m453.35 209.5c-.23-13.57 8.09-25.45 21.83-24-11.45 3.39-19.18 12.56-21.83 24z"/><path d="m59 230 46.2 99.52 11.85-10.33z"/><path d="m108.26 338.25 2.88 44.56 14.55-5.06-4.69-47.24z"/></g><path d="m255.88 309c-4.2-8.69-10.52-14.21-16-13.59a9.62 9.62 0 0 0 -4.87 2.12c-3.17 2.85-3.09 7.51-3 9.82.23 12.59 22.92 33.51 24 34.52q-.01-16.46-.13-32.87z" fill="#e73f46"/><path d="m262.1 170.75-6.12 107.66h-26.88z" fill="#e5e5e5"/><path d="m224.53 328.4v40.36h26.15v-16.5z" fill="#e5e5e5"/><path d="m444.89 224.58-83.27 81.9 21.32 10.52z" fill="#d7981a"/><path d="m376.09 375.36-21.58-4.31 3.81-56.87 21.07 9.14z" fill="#d7981a"/></g></svg>