<svg height="512" viewBox="0 0 512 512" width="512" xmlns="http://www.w3.org/2000/svg" xmlns:xlink="http://www.w3.org/1999/xlink"><clipPath id="clip-path"><path d="m278.8 169.95h53.72v109.11h-53.72z" transform="matrix(1 -.08 .08 1 -17.39 25.84)"/></clipPath><clipPath id="clip-path-2"><path d="m171.6 226.76h46.02v90.2h-46.02z" transform="matrix(.974 -.228 .228 .974 -56.93 51.61)"/></clipPath><g id="Giving_Gift" data-name="Giving Gift"><path d="m408.28 250.54c-3.49-7.59-9.89-11.67-13.29-13.84-27.06-17.28-66.14-.62-93.6 11.07-5.6 2.39-79.26 40.38-84.74 43.2q17.73 26.03 35.45 52.03l107.55-6c39.27-30.69 58.35-65.32 48.63-86.46z" fill="#917eec"/><path d="m242.77 195.43s-31.7 108.16 35.1 101.42 54.94-87.66 54.94-87.66l-15.3-36.48z" fill="#2d1929"/><g clip-path="url(#clip-path)"><path d="m278.8 169.95h53.72v109.11h-53.72z" fill="#834a27" transform="matrix(1 -.08 .08 1 -17.39 25.84)"/><path d="m327.74 190c-5.4 28.24-27.84 50.8-58.13 54.43q-.23-13.87-.43-27.75z" fill="#6e3d1e"/></g><g clip-path="url(#clip-path-2)"><path d="m171.6 226.76h46.02v90.2h-46.02z" fill="#955d43" transform="matrix(.974 -.228 .228 .974 -56.93 51.61)"/><path d="m164.91 277.32a49.67 49.67 0 0 0 59.28-11.74l-7.19-28.17-58.21 13.65z" fill="#834a27"/></g><path d="m138.78 301.21c-10.89 8.79-13.78 24.66-3.52 102.45 4.17 31.66 8.49 58.12 11.87 77.34h155.22c-1.74-42.86-5.18-78.67-8.35-105.29-6.76-56.94-12.21-71.54-24.76-79.79-6.32-4.16-11.68-3.39-65.93-2.48-37.64.64-56.47 1.25-64.53 7.77z" fill="#917eec"/><path d="m330.85 241.07s-71.72 8.76-89.71 38.49c-18.14 30-10.89 201.29-10.89 201.29l172.57.15c.45-31.73 1.05-107-3.57-178.35-.89-13.79-2.6-35.56-18.48-49.64-16.46-14.6-39.49-13.26-49.92-11.94z" fill="#efbd42"/><path d="m114.22 195.25s-11.15-52.37 22.67-74.25c.32-.15.63-.25 1-.39 22.13-15.06 42-10 43.67-10.08a47.73 47.73 0 0 1 18.44 6.15c25.7 14.84 34.81 50.32 34.81 50.32a40.48 40.48 0 0 1 1.71 6c2 10 1.42 34.53 2 42.74-2.63 29.26-21.81 52.26-44.74 56.26-26.09 4.57-48.72-16.84-56.86-28.44-5.68-8.1-13.93-24.25-19-41.22-1.28-2.51-2.53-4.92-3.7-7.09z" fill="#955d43"/><path d="m187.69 228.23c4.06-2.1 6.17-4.32 6.29-6.57.15-2.74-2.79-4.61-5.58-7.95-3.56-4.25-5.86-9.75-6.86-16.34a.5.5 0 1 1 1-.15c2.67 17.56 12.77 18.6 12.46 24.49-.14 2.63-2.44 5.13-6.83 7.41a.5.5 0 0 1 -.48-.89z" fill="#2d1929"/><path d="m207.37 203.29c-2.73.64-5.74-2.26-6.73-6.48s.43-8.16 3.16-8.79 5.74 2.26 6.72 6.48-.43 8.16-3.15 8.79z" fill="#2d1929"/><path d="m190.83 176.53a1 1 0 0 1 -.68-1.73c10.6-9.86 23.53-3.3 23.65-3.24a1 1 0 0 1 -.92 1.78c-.48-.25-11.82-6-21.36 2.92a1 1 0 0 1 -.69.27z" fill="#2d1929"/><path d="m159.14 214.6c-2.72.64-5.74-2.25-6.73-6.47s.41-8.15 3.14-8.8 5.74 2.26 6.74 6.47-.42 8.2-3.15 8.8z" fill="#2d1929"/><path d="m140.08 190.63a1 1 0 0 1 -.81-1.59c.09-.12 8.75-11.73 22.62-7.62a1 1 0 0 1 .68 1.25 1 1 0 0 1 -1.25.67c-12.5-3.71-20.12 6.45-20.44 6.88a1 1 0 0 1 -.8.41z" fill="#2d1929"/><path d="m202.83 293.82c-8.7-.61-21.55-1.38-37.29-1.85-14-.42-17.24-.21-20.68.74-17.07 4.73-26.06 24.33-31.38 37.66-18 45.05-46.82 115.36-18.09 138.83 10.19 8.33 23.72 7.57 26.68 7.4 20.52-1.16 35.46-18.16 52.34-37.38a215.77 215.77 0 0 0 17.88-23.41l-14.29-27.31-36.07 29.75q9.22-30.28 18.46-60.56c25.41-11.15 42.14-35.5 42.44-63.87z" fill="#917eec"/><path d="m137.35 141.56s12.68 48-16.91 67.17a130.84 130.84 0 0 0 50 61 40.34 40.34 0 0 1 -17.4.77c-22-4.09-33.66-27.19-41-41.78-9.4-18.69-26-53.76-10.37-86.52 5-10.59 14.09-19.43 27.93-27.32 40.58-23.18 89.76-13.35 107.4 18.12s25.87 115-21.37 128.59c0 0 21.53-24 21.4-48.61s-12.8-54.44-12.8-54.44-30.64 9.31-46.57 0-19.18-32.79-40.31-16.98z" fill="#40c2d6"/><path d="m313.08 52.85c-26.88-13.69-62-7.13-80.52 12.08a72.43 72.43 0 0 0 -13.21 16.28c-12.29 16.62-7.29 31.94-5.59 52.93.68 8.48-1 16.77-.4 29.8s4 24.88 17.58 45.72c10.48 16.11 18.09 22.44 23.2 24.6 19.58 8.27 41.74-8.94 50-15.37a106.58 106.58 0 0 0 19.58-20.32c10.66-12.27 34.34-44.73 27.58-85.77-1.43-8.8-7.3-44.18-38.22-59.95z" fill="#834a27"/><path d="m251.27 176.41c-5.08-1.78-7.94-4.11-8.49-6.92-1.22-6.27 9.51-8.94 9.7-28.35a.5.5 0 0 1 1 0c-.19 19.71-10.81 22.55-9.71 28.15.47 2.43 3.11 4.51 7.83 6.17a.5.5 0 1 1 -.33.95z" fill="#2d1929"/><path d="m232.23 154.31c-3 .28-5.86-3.32-6.28-8s1.71-8.75 4.76-9 5.85 3.33 6.27 8-1.71 8.69-4.75 9z" fill="#2d1929"/><path d="m279.63 150.08c-3 .27-5.85-3.32-6.27-8s1.71-8.74 4.75-9 5.86 3.32 6.28 8-1.71 8.73-4.76 9z" fill="#2d1929"/><path d="m220 120.71a1 1 0 0 1 -.64-1.77c12.12-10 25.72-2.1 25.86-2a1 1 0 0 1 -1 1.72c-.51-.3-12.54-7.26-23.55 1.84a1 1 0 0 1 -.67.21z" fill="#2d1929"/><path d="m291.58 114.73a1 1 0 0 1 -.59-.2c-11.47-8.52-23.13-.94-23.62-.61a1 1 0 0 1 -1.39-.28 1 1 0 0 1 .28-1.38c.13-.09 13.3-8.71 25.92.66a1 1 0 0 1 -.6 1.81z" fill="#2d1929"/><path d="m175.78 292.33s17.64 27.1 33.7 23.62 13.75-22.81 13.75-22.81-22.23-13.92-47.45-.81z" fill="#955d43"/><path d="m333.79 240.09c11.47-2.73 29.35-5 47 2.7 35 15.18 44.65 58.65 53.54 98.58 10.68 47.93 20.12 90.35 0 108.56-24.64 22.3-89 4.13-155.44-49.11l26.79-34 77.7 30.28-13.31-76.1s-42.65-56.66-36.28-80.91z" fill="#efbd42"/><path d="m281 252.9c2.9 11.49 10 21.21 18.78 23 12.92 2.69 31.51-11.16 34-35.85a55.35 55.35 0 0 0 -20.13-1.82c-8.45.85-15.52 3.54-32.65 14.67z" fill="#834a27"/><path d="m228.82 413.28 1.43 67.57h172.57v-21.62s-75.41-8.75-113.06-62.47z" fill="#d7981a"/><path d="m294.42 413.28h-111.6l-6.3-105.25h124.2z" fill="#e73f46"/><path d="m177.75 328.64 121.03 11.78 1.94-24.16h-111.76z" fill="#cc3745"/><path d="m171.68 297.07h133.88v31.57h-133.88z" fill="#e73f46"/><path d="m228.82 297.07h22.17v116.21h-22.17z" fill="#e5e5e5"/><path d="m240.46 292.79c-18.26-12.25-25.89-13.09-29.07-10.47-3.89 3.21-4.64 14.46-4.71 14.75h64.8a20.45 20.45 0 0 0 .12-5.84c-.41-3.27-1.71-7.15-3.23-8.63-3.66-3.6-15.5-.14-27.91 10.19z" fill="#e5e5e5"/><path d="m248.68 297.07h-17.68a14.41 14.41 0 0 1 1.65-9.1h14.35a24.38 24.38 0 0 1 1.68 9.1z" fill="#c6c6c6"/><path d="m316.9 373.5 73.1 23.26s30.74 17.17 34.34 39.05c0 0-1.38-36-32.67-47.08l-11.08-102.58 1 100.71z" fill="#d7981a"/><path d="m315.82 373.88-21.82-6.66s-8.58-10.24-10.33-15c-3.93-10.55-7.92-5.2-4.8 7.38.92 3.69 1.66 8.49-6.84 9.6s-30.09-18.18-33.41-15.69 4 10.43 4 10.43-11.75-9.78-13.77-7.38 6.29 11.81 6.29 11.81-8-5.17-8.68-2 4.25 11 12.19 15.55c0 0-10.09-3.87-9.8 0s23 16.76 35.88 19.8 25.33 0 25.33 0l9.9 7.58a63.11 63.11 0 0 0 15.86-35.42z" fill="#834a27"/><path d="m309.47 371.94-13.98 33.98 12.35 11.18 18.23-40.68z" fill="#efbd42"/><path d="m245.73 191.84 28-10.53c-.28 9.36-6.92 16.55-14.4 17.17-7.83.65-13.19-6.11-13.6-6.64z" fill="#e5e5e5"/><path d="m253 60.65s-13.6 2-14.47 22.19-21.35 26.69-21.35 26.69l-3.82 20.11s-14.73-14.13-13-27.54 10.72-15.11 11-27.55 4.64-37.06 39.5-35.84c0 0 54.13-18.29 86.56 1.46s19.75 54.74 45.1 77.11-4.87 50.74 25.36 80.2 6.82 79.68 6.82 79.68-18.97-31.16-54.13-32.67-33.86 4.09-40.61-41.11 25.77-51.45 21.94-70.38a16.24 16.24 0 0 0 -3.35-7.43c-5.13-6.11-11-7.71-20-12-3.5-1.65-11.12-5.26-16.5-10-13.87-12.27-7.81-27.74-18.57-37.57-4.74-4.3-13.37-8.11-30.48-5.35z" fill="#2d1929"/><path d="m346.76 113.47c-9.88-2.12-20 5.89-22.54 17.88s3.34 23.43 13.21 25.55 19.96-5.9 22.57-17.9-3.37-23.41-13.24-25.53z" fill="#834a27"/><path d="m334.38 145.36c.21-.07 5.14-1.72 4.74-6.81-.28-3.53-6.69-3.45-6.76-3.46a.49.49 0 0 1 -.49-.61c.12-.55 3.21-13.61 11.59-14.65 7.27-.9 8.46 7.35 8.47 7.44a.5.5 0 0 1 -1 .13c0-.3-1.07-7.35-7.36-6.58-6.72.83-9.88 10.73-10.58 13.29 1.83.08 6.82.64 7.12 4.36.46 5.89-5.37 7.82-5.43 7.84a.5.5 0 0 1 -.3-.95z" fill="#2d1929"/><path d="m118.15 200c7.37-5.19 18.44-2.14 24.75 6.79s5.46 20.4-1.91 25.6-18.43 2.15-24.74-6.8-5.45-20.38 1.9-25.59z" fill="#955d43"/><path d="m131.32 227.16c-.17-.08-4.11-2.11-4.55-4.63-.39-2.22 1.73-3.71 2.62-4.24-1.66-5.63-6.68-13.38-12-10.95a.51.51 0 0 1 -.67-.25.5.5 0 0 1 .25-.66c6.11-2.78 11.72 5.49 13.5 12a.5.5 0 0 1 -.27.58s-2.8 1.38-2.45 3.37c.3 1.68 3 3.39 4 3.91a.5.5 0 0 1 -.43.87z" fill="#2d1929"/><circle cx="94.28" cy="139.93" fill="#40c2d6" r="30.4"/><path d="m159.62 405.3 13.81-9.37a102.25 102.25 0 0 1 5.93-13.3c3.54-6.46-.24-13.25 1.87-14.06s4.4.95 5.82 5.84 1 9.56 4.14 9.68 6.58-1.95 10.12-6.46 6.82-16.33 10.12-15.72 0 11.32 0 11.32 3.9-9.13 6.09-7.42-2.92 15.6-2.92 15.6 3.65-9.87 6-7.56-3.78 16.71-3.78 16.71 4.26-6.35 6.16-4.39-3.11 14-11.16 23.16-24.62 12.56-24.62 12.56l-8.2 9.75a34.27 34.27 0 0 1 -19.38-26.34z" fill="#955d43"/><path d="m146.69 413.28 20.73-14.21a41.16 41.16 0 0 0 16.44 28.6l-15.37 18.25z" fill="#917eec"/><path d="m141.57 335.52q-4.55 37.71-9.1 75.42l35.06-11-39.61 19.12a74.55 74.55 0 0 0 -27.06 38 60.7 60.7 0 0 1 22.51-43.24z" fill="#6d5fde"/><path d="m144.93 468.19 2.2 12.81h83.12v-67.72h-22.86s-12.3 6.81-20.22 8.61c0 0-23.78 32.52-42.24 46.3z" fill="#6d5fde"/><g fill="#2d1929"><path d="m182.21 242.34a.49.49 0 0 1 -.05-.7.5.5 0 0 1 .7-.06 10.7 10.7 0 0 0 15.38-1.39.5.5 0 0 1 .7-.08.51.51 0 0 1 .08.71 11.72 11.72 0 0 1 -16.81 1.52z"/><path d="m207.43 382.19 3.53-9.14a.5.5 0 1 1 .93.36l-3.53 9.14a.5.5 0 0 1 -.93-.36z"/><path d="m212.52 388a.5.5 0 0 1 -.47-.67l2.69-7.61a.5.5 0 0 1 .64-.3.51.51 0 0 1 .31.64l-2.69 7.6a.52.52 0 0 1 -.48.34z"/><path d="m251 371.77c-.27 0 .39.51-8.73-7.4a.5.5 0 1 1 .66-.76l8.4 7.29a.5.5 0 0 1 -.33.87z"/><path d="m244.71 378.3c-.3 0 .45.64-10-9.52a.5.5 0 0 1 0-.71.51.51 0 0 1 .71 0l9.6 9.38a.5.5 0 0 1 -.31.85z"/><path d="m244.71 388c-.28 0 .22.38-6.43-5.68a.5.5 0 0 1 .67-.74l6.09 5.55a.5.5 0 0 1 -.33.87z"/></g></g></svg>