<svg height="512" viewBox="0 0 512 512" width="512" xmlns="http://www.w3.org/2000/svg" xmlns:xlink="http://www.w3.org/1999/xlink"><clipPath id="clip-path"><path d="m424.36 451.35a24.13 24.13 0 0 1 -21.46 21.8 1378.53 1378.53 0 0 1 -292.65.12 25.49 25.49 0 0 1 -22.71-23q-12.54-137.63-25.03-275.27a835.44 835.44 0 0 1 387 0q-12.57 138.18-25.15 276.35z"/></clipPath><g id="Hand_Bag" data-name="Hand Bag"><g clip-path="url(#clip-path)"><path d="m424.36 451.35a24.13 24.13 0 0 1 -21.46 21.8 1378.53 1378.53 0 0 1 -292.65.12 25.49 25.49 0 0 1 -22.71-23q-12.54-137.63-25.03-275.27a835.44 835.44 0 0 1 387 0q-12.57 138.18-25.15 276.35z" fill="#287eef"/><g fill="#e73f46"><path d="m64.64 150.14s61.79 181.17 60.71 209.35-22.77 115.71-22.77 115.71l-37.94-4.31-21.64-247.99z"/><path d="m447.34 150.14s-61.8 181.17-60.71 209.35 22.76 115.71 22.76 115.71l37.95-4.31 21.66-247.99z"/></g></g><path d="m351.85 250.36a1816 1816 0 0 1 -191.7 0 7 7 0 1 1 .83-14 1450.22 1450.22 0 0 0 190 0 7 7 0 1 1 .83 14z" fill="#efbd42"/><rect fill="#2d1929" height="38.12" rx="4.67" transform="matrix(.936 .351 -.351 .936 101.59 -38.23)" width="11.74" x="150.28" y="241.78"/><path d="m161.13 245a1 1 0 0 1 -.91-1.08 1 1 0 0 1 1.08-.91 1114.19 1114.19 0 0 0 184.41 0 1 1 0 0 1 1.08.91 1 1 0 0 1 -.92 1.08 1114.68 1114.68 0 0 1 -184.74 0z" fill="#2d1929"/><path d="m374.7 299.87s-62.43 108.41-121.2 136.59-18.65 30.26 36.64 29.22 90 .05 92.15-16.21-11.2-62.51-6.87-87.09 26.74-91.78-.72-62.51z" fill="#1573d8"/><g fill="#cc3745"><path d="m82 276s9.22 155.56 13.56 158.82 17.88-73.18 17.34-87.81-25.49-91.59-30.9-71.01z"/><path d="m428.38 276s-9.22 155.56-13.55 158.82-17.89-73.16-17.35-87.82 25.52-91.58 30.9-71z"/><path d="m334.71 166.65a5 5 0 0 1 -5-5.06c.38-31.59-5.22-60.22-16.18-82.78-18.36-37.81-46.25-47.81-70.81-40.81-35.37 10-59.49 57.54-60 118.17a5 5 0 1 1 -10-.09c.55-65.08 27.58-116.43 67.28-127.71a63 63 0 0 1 34.2 0c40 11.63 66.33 65.21 65.52 133.33a5 5 0 0 1 -5.01 4.95z"/></g><rect fill="#efbd42" height="35.41" rx="7.29" width="28.1" x="162.47" y="146.92"/><rect fill="#efbd42" height="35.41" rx="7.29" width="28.1" x="322.5" y="146.92"/><rect fill="#d7981a" height="24.33" rx="4.8" width="19.33" x="166.73" y="152.32"/><rect fill="#d7981a" height="24.33" rx="4.8" width="19.33" x="326.89" y="152.32"/><path d="m351.57 292.62s-122.86 5.4-174.9 0-53.48 1.1-44.81 29.29 14.46 50.59 2.89 75.89-24.66 47.7-6.91 54.2 78.1 10.12 96.71-7.95 70.65-52.7 100.28-90.31 48.42-69.45 26.74-61.12z" fill="#1573d8"/></g></svg>