<svg height="512" viewBox="0 0 512 512" width="512" xmlns="http://www.w3.org/2000/svg" xmlns:xlink="http://www.w3.org/1999/xlink"><clipPath id="clip-path"><path d="m357.21 202.54h45.81v88.85h-45.81z" transform="matrix(.996 .088 -.088 .996 23.18 -32.45)"/></clipPath><g id="Mother_with_Stroller" data-name="Mother with Stroller"><g clip-path="url(#clip-path)"><path d="m357.21 202.54h45.81v88.85h-45.81z" fill="#f5b493" transform="matrix(.996 .088 -.088 .996 23.18 -32.45)"/><path d="m349 230.57a52.82 52.82 0 0 0 62.37 8.43l2.63-30-62.33-5.5z" fill="#eba284"/></g><path d="m364.84 251.35s-42.6 4.67-55.29 30.06-33.38 103.46-33.38 103.46l-72.55 16.19q.69 9.29 1.36 18.57s101.56 15 124-6.17 24-97.29 24-97.29 29.36-18.97 11.86-64.82z" fill="#eba284"/><path d="m206.34 400.46s-18.48.57-24 5.94a24.5 24.5 0 0 0 -6.59 12.39l19.57 6 17.29-4.58z" fill="#eba284"/><path d="m449.62 144.93s3.38-50.2-31-66c-.32-.09-.62-.15-.94-.23-22.51-11-40-3.76-42-3.56a44.82 44.82 0 0 0 -16.34 8.14c-22 17.23-25.75 51.42-25.75 51.43a37.47 37.47 0 0 0 -.79 5.79c-.53 9.59 3.28 32.32 3.84 40 5.16 24.59 21.29 55.64 46.85 56.63 31 .88 46.8-35.77 51.36-46.92 4.89-12 9-23.68 9.73-25.46a37.54 37.54 0 0 0 2.54-12.75c.88-2.48 1.7-4.89 2.5-7.07z" fill="#f5b493"/><g fill="#2d1929"><path d="m385.34 186.33c-4.41-1.54-6.88-3.56-7.36-6-1.09-5.48 8.18-7.69 8.32-24.45a.5.5 0 0 1 1 0c-.14 16.93-9.28 19.51-8.34 24.25.4 2.07 2.66 3.84 6.71 5.26a.5.5 0 0 1 -.33.94z"/><path d="m369.42 157.91c-.35 4.05-2.77 7.15-5.39 6.92s-4.47-3.7-4.11-7.75 2.76-7.16 5.39-6.93 4.46 3.7 4.11 7.76z"/><path d="m354.36 137.94a1 1 0 0 1 -.59-1.82c.11-.08 11.29-7.92 22.51-.14a1 1 0 1 1 -1.15 1.64c-10.06-7-20.09.06-20.19.13a1 1 0 0 1 -.58.19z"/><path d="m415.8 162c-.36 4.05-2.78 7.15-5.4 6.92s-4.46-3.72-4.1-7.77 2.79-7.15 5.41-6.92 4.46 3.77 4.09 7.77z"/><path d="m424.81 144.15a1 1 0 0 1 -.72-.3c-.35-.36-8.77-8.76-19.86-3.66a1 1 0 1 1 -.84-1.82c12.4-5.69 22 4 22.13 4.08a1 1 0 0 1 -.71 1.7z"/></g><path d="m300.33 453.3c7.52-143.35-.8-153.09 12-172.46 24.8-37.66 102.44-41.71 125.71-9.6 14.24 19.65 1.7 41-8 182.52z" fill="#86ebf9"/><path d="m31 411.87h261.54v41.89h-261.54z" fill="#917eec"/><path d="m119.78 285.42h52.52a0 0 0 0 1 0 0v163.52a0 0 0 0 1 0 0h-141.3a0 0 0 0 1 0 0v-74.74a88.78 88.78 0 0 1 88.78-88.78z" fill="#917eec"/><path d="m292.54 411.87s-126.82 36.19-203 41.89h203z" fill="#6d5fde"/><path d="m374.28 250s-50.73 2.53-67 30.45-23.75 78-23.75 78 20.61 13.37 57 6.58l15.69-70.79z" fill="#86ebf9"/><path d="m321.35 291.1-7.23 24.16a41 41 0 0 0 -10.49 49.74l-3.3 88.35h64.95s-45.36-14.43-47.78-23.21 114 3.1 114 3.1l1.05-22.87a232.72 232.72 0 0 1 -45 1.88c-28.64-1.58-57.34-3.27-70.05-22.59-2.83-4.31-6.92-12.67-5.87-27-10.5-15-8.52-34.39 7.84-43.29z" fill="#40c2d6"/><path d="m349.51 379.87s-25.18-11.75-33.88-11-19.53 11.06-18.36 19.06 16.69-2.2 20.23 1.72 11.07 21.1 28.25 18.28 3.76-28.06 3.76-28.06z" fill="#f5b493"/><path d="m211.51 458.76a5 5 0 0 1 -4.43-7.3l21.14-40.72c4.05-7.8 12.22-13.52 22.43-15.69l62.43-13.3a5 5 0 0 1 2.08 9.78l-62.43 13.3c-7.16 1.53-13 5.46-15.64 10.52l-21.09 40.72a5 5 0 0 1 -4.49 2.69z" fill="#2d1929"/><path d="m31 409.25s84.81-2.47 93.32-6.23-52.45-36.85-52.45-36.85 65.13 25.83 72.71 21.54-11.51-42.08-11.51-42.08 26.06 29 32.65 26.33 6.58-18.49 6.58-18.49l-.3 57.32-140.29.37z" fill="#6d5fde"/><circle cx="317.5" cy="385.54" fill="#e5e5e5" r="13.34"/><path d="m172.3 411.79h-141.3a1 1 0 0 1 0-2h140.3v-124.37a1 1 0 0 1 2 0v125.37a1 1 0 0 1 -1 1z" fill="#2d1929"/><path d="m172 411.79c-.33 0 6 2.76-140-62.28a1 1 0 0 1 .81-1.83l136.66 60.91-72.72-121.8a1 1 0 0 1 1.72-1l74.38 124.52a1 1 0 0 1 -.85 1.48z" fill="#2d1929"/><path d="m149.25 411.87h46.1a23.9 23.9 0 0 0 -46.1 0z" fill="#2d1929"/><path d="m400.32 251c8.95.3 24 2.22 37.43 12.21 12.2 9 17.13 22.54 26.67 48.94 1.15 3.17 11 31.1 15.45 69.18 1.88 16.26 2.56 32.56-7.45 41.41a22.89 22.89 0 0 1 -3.77 2.67c-17.69 10.27-45.83 2.8-52.86.94-22.11-5.84-45.53-11.61-74-18.51q1.25-14 2.51-27.92l91.56-.27-4.75-46.65s-58.72-57-30.79-82z" fill="#f5b493"/><path d="m387.55 249.63c14-1.29 46.38-2.41 62.33 17.94 4.12 5.24 5.84 10.26 8.89 20.39 4.82 16 11.1 38.62 17.26 67a164.26 164.26 0 0 1 -54 11.6q-.46-18.9-.94-37.8s-57.38-67.9-33.54-79.13z" fill="#86ebf9"/><path d="m356.49 252.43c1.42 11.22 8.77 20.16 17.57 22 12.1 2.59 27.27-8.11 28.71-25.57a74.73 74.73 0 0 0 -46.28 3.57z" fill="#f5b493"/><path d="m425.52 291.1v88.52h10.3c-2.82-28.23-.82-10.24-10.3-88.52z" fill="#40c2d6"/><path d="m386.8 94.23s-16.06 43.85-53.15 51.34a191.73 191.73 0 0 0 4.35 33.16c2.54 11.35 4.95 21.73 11.86 33.62a91.41 91.41 0 0 0 9.77 13.65l-3.14 26.43s-6.93 15.22-22.84 17.57-26.51 8.8-34.27 27c0 0-16.33-22.77 4.79-59.82s1.35-126 28.64-159.88 66.82-12.24 66.82-12.24 53.18-13.66 66.37 27.29-17.89 105.16-3.3 144.82 32.9 96-51.32 98.19c0 0-15.47-75.32-6.9-103.87 0 0 26.12-22.63 31.35-47s4.52-41.32 4.52-41.32-11.8-63.53-53.55-48.94z" fill="#2d1929"/><path d="m446.59 149.89c-7.54-3.85-17.44.46-22.12 9.61s-2.36 19.71 5.19 23.56 17.44-.46 22.11-9.62 2.36-19.7-5.18-23.55z" fill="#f5b493"/><path d="m437.4 176.11c.88-.62 3.16-2.56 3.21-4.15.06-1.88-2.68-2.77-2.71-2.78a.5.5 0 0 1 -.34-.54c.79-6.29 4.92-14.75 11-13a.5.5 0 0 1 -.28 1c-5.26-1.54-8.87 6.34-9.67 11.75.92.37 3.08 1.49 3 3.61-.08 2.42-3.49 4.83-3.64 4.94a.5.5 0 0 1 -.57-.83z" fill="#2d1929"/><path d="m351.83 153.1c-3-9.84-12-15.81-20.1-13.35s-12.23 12.45-9.23 22.25 12 15.81 20.09 13.34 12.24-12.41 9.24-22.24z" fill="#f5b493"/><path d="m335.83 168a.47.47 0 0 1 -.35-.15c-.13-.12-3.06-3.1-2.71-5.49.3-2.1 2.62-2.82 3.59-3 .16-5.45-2-13.86-7.47-13.25a.51.51 0 0 1 -.55-.45.5.5 0 0 1 .45-.55c6.3-.68 8.87 8.37 8.55 14.7a.5.5 0 0 1 -.43.47s-2.89.41-3.15 2.26c-.24 1.58 1.67 3.89 2.43 4.65a.5.5 0 0 1 -.36.81z" fill="#2d1929"/><path d="m373.43 195.57h31.38c-3.54 8.07-11.79 12.48-19.3 10.9-8.45-1.78-11.84-10.29-12.08-10.9z" fill="#e5e5e5"/><path d="m435.82 379.62c11.89 5.38 21.18 14.6 27.34 26.38-2.07-16.87-13.23-29.91-28.27-35.59z" fill="#eba284"/><path d="m227 220.31c-4.06-13.39-13.68-21.89-22.89-21.57-8.7.3-15.65 8.43-18 14.8-6.26 16.88 11.81 42.67 43.7 65.4 29.26-24.38 45.21-50.72 38-67-2.24-5.1-8-12-15.6-12.76-9.35-1.01-19.77 7.27-25.21 21.13z" fill="#e73f46"/></g></svg>