<?xml version="1.0" encoding="utf-8"?>
<!-- Generator: Adobe Illustrator 27.3.1, SVG Export Plug-In . SVG Version: 6.00 Build 0)  -->
<svg version="1.1" id="Calque_1" xmlns="http://www.w3.org/2000/svg" xmlns:xlink="http://www.w3.org/1999/xlink" x="0px" y="0px"
	 viewBox="0 0 1000 1000" style="enable-background:new 0 0 1000 1000;" xml:space="preserve">
<style type="text/css">
	.st0{fill:#312E81;}
	.st1{opacity:0.82;fill:#312E81;}
</style>
<path class="st0" d="M699.79,671.74l-726.66,37.02c-66.03,3.36-122.29-47.44-125.65-113.47l-1.54-30.2
	c-3.36-66.03,47.44-122.29,113.47-125.65l726.66-37.02c66.03-3.36,122.29,47.44,125.65,113.47l1.54,30.2
	C816.63,612.12,765.82,668.37,699.79,671.74z"/>
<path class="st1" d="M481.47,545.12l-595.34-24c-63.57-2.56-113.03-56.18-110.47-119.75l0,0c2.56-63.57,56.18-113.03,119.75-110.47
	l595.34,24c63.57,2.56,113.03,56.18,110.47,119.75v0C598.65,498.23,545.04,547.69,481.47,545.12z"/>
</svg>
