<svg xmlns="http://www.w3.org/2000/svg" xmlns:xlink="http://www.w3.org/1999/xlink" id="Calque_1" x="0" y="0" version="1.1" viewBox="0 0 1000 1000" style="enable-background:new 0 0 1000 1000" xml:space="preserve"><style type="text/css">.st0,.st1{fill:#312e81}.st1{opacity:.82}</style><path d="M699.79,671.74l-726.66,37.02c-66.03,3.36-122.29-47.44-125.65-113.47l-1.54-30.2	c-3.36-66.03,47.44-122.29,113.47-125.65l726.66-37.02c66.03-3.36,122.29,47.44,125.65,113.47l1.54,30.2	C816.63,612.12,765.82,668.37,699.79,671.74z" class="st0"/><path d="M481.47,545.12l-595.34-24c-63.57-2.56-113.03-56.18-110.47-119.75l0,0c2.56-63.57,56.18-113.03,119.75-110.47	l595.34,24c63.57,2.56,113.03,56.18,110.47,119.75v0C598.65,498.23,545.04,547.69,481.47,545.12z" class="st1"/></svg>