<svg id="Filled_Expand" height="512" viewBox="0 0 64 64" width="512" xmlns="http://www.w3.org/2000/svg" data-name="Filled Expand"><path d="m63 51-8 8h-54v-48h62z" fill="#f9f9f9"/><path d="m63 51-8 8h-51v-45h59z" fill="#f0f0f0"/><path d="m55 51v8l8-8z" fill="#e1e1e1"/><path d="m8.186 5.545h6v13h-6z" fill="#fff0a0" transform="matrix(.819 -.574 .574 .819 -4.886 8.594)"/><path d="m8.94 7.938h4v11h-4z" fill="#fae16e" transform="matrix(.819 -.574 .574 .819 -5.729 8.705)"/><path d="m49.814 5.545h6v13h-6z" fill="#fff0a0" transform="matrix(-.819 -.574 .574 -.819 89.168 52.205)"/><path d="m47.56 11.438h11v4h-11z" fill="#fae16e" transform="matrix(.574 -.819 .819 .574 11.618 49.194)"/><g fill="#f06478"><circle cx="16" cy="48" r="2"/><circle cx="24" cy="48" r="2"/><circle cx="32" cy="48" r="2"/><circle cx="40" cy="48" r="2"/><circle cx="48" cy="48" r="2"/></g><path d="m63 10.25h-4.35l.965-1.379a.75.75 0 0 0 -.184-1.044l-4.916-3.442a.751.751 0 0 0 -1.045.184l-3.977 5.681h-34.986l-3.977-5.681a.751.751 0 0 0 -1.045-.184l-4.916 3.442a.75.75 0 0 0 -.184 1.044l.965 1.379h-4.35a.75.75 0 0 0 -.75.75v48a.75.75 0 0 0 .75.75h54a.747.747 0 0 0 .53-.22l8-8a.747.747 0 0 0 .22-.53v-40a.75.75 0 0 0 -.75-.75zm-8.73-4.2 3.685 2.581-6.6 9.42-3.685-2.581zm-44.54 0 6.6 9.42-3.685 2.581-6.6-9.42zm46.02 51.139v-5.439h5.439zm6.5-6.939h-7.25a.75.75 0 0 0 -.75.75v7.25h-52.5v-46.5h4.65l5.44 7.771a.751.751 0 0 0 1.045.185l4.915-3.442a.75.75 0 0 0 .184-1.044l-2.429-3.47h32.888l-2.429 3.47a.75.75 0 0 0 .184 1.044l4.916 3.442a.751.751 0 0 0 1.045-.185l5.441-7.771h4.65z"/><path d="m16 45.25a2.75 2.75 0 1 0 2.75 2.75 2.752 2.752 0 0 0 -2.75-2.75zm0 4a1.25 1.25 0 1 1 1.25-1.25 1.252 1.252 0 0 1 -1.25 1.25z"/><path d="m24 45.25a2.75 2.75 0 1 0 2.75 2.75 2.752 2.752 0 0 0 -2.75-2.75zm0 4a1.25 1.25 0 1 1 1.25-1.25 1.252 1.252 0 0 1 -1.25 1.25z"/><path d="m32 45.25a2.75 2.75 0 1 0 2.75 2.75 2.752 2.752 0 0 0 -2.75-2.75zm0 4a1.25 1.25 0 1 1 1.25-1.25 1.252 1.252 0 0 1 -1.25 1.25z"/><path d="m40 45.25a2.75 2.75 0 1 0 2.75 2.75 2.752 2.752 0 0 0 -2.75-2.75zm0 4a1.25 1.25 0 1 1 1.25-1.25 1.252 1.252 0 0 1 -1.25 1.25z"/><path d="m48 45.25a2.75 2.75 0 1 0 2.75 2.75 2.752 2.752 0 0 0 -2.75-2.75zm0 4a1.25 1.25 0 1 1 1.25-1.25 1.252 1.252 0 0 1 -1.25 1.25z"/><path d="m46.25 41v-7a.75.75 0 0 0 -1.5 0v4.75l-3.9-5.2a.75.75 0 0 0 -1.35.45v7a.75.75 0 0 0 1.5 0v-4.75l3.9 5.2a.75.75 0 0 0 1.35-.45z"/><path d="m26.5 30.75a.75.75 0 0 0 .75-.75v-4.621l1.7 2.426a.751.751 0 0 0 1.229 0l1.7-2.426v4.621a.75.75 0 0 0 1.5 0v-7a.75.75 0 0 0 -1.364-.43l-2.449 3.5-2.448-3.5a.75.75 0 0 0 -1.368.43v7a.75.75 0 0 0 .75.75z"/><path d="m38.5 30.75a.75.75 0 0 0 .75-.75v-4.75l3.9 5.2a.75.75 0 0 0 1.35-.45v-7a.75.75 0 0 0 -1.5 0v4.75l-3.9-5.2a.75.75 0 0 0 -1.35.45v7a.75.75 0 0 0 .75.75z"/><path d="m35.5 30.75a.75.75 0 0 0 .75-.75v-7a.75.75 0 0 0 -1.5 0v7a.75.75 0 0 0 .75.75z"/><path d="m14.125 30.75a3.365 3.365 0 0 0 2.252-.875.749.749 0 1 0 -1-1.113 1.865 1.865 0 0 1 -3.123-1.387v-1.75a1.865 1.865 0 0 1 3.123-1.387.749.749 0 1 0 1-1.113 3.364 3.364 0 0 0 -5.627 2.5v1.75a3.379 3.379 0 0 0 3.375 3.375z"/><path d="m49.437 30.75a3.816 3.816 0 0 0 3.813-3.812.75.75 0 0 0 -.75-.75h-2.625a.75.75 0 0 0 0 1.5h1.75a2.313 2.313 0 0 1 -4.5-.75v-.875a2.31 2.31 0 0 1 3.964-1.615.75.75 0 1 0 1.072-1.048 3.809 3.809 0 0 0 -6.536 2.664v.875a3.816 3.816 0 0 0 3.812 3.811z"/><path d="m20.875 30.75a3.379 3.379 0 0 0 3.375-3.375v-1.75a3.375 3.375 0 0 0 -6.75 0v1.75a3.379 3.379 0 0 0 3.375 3.375zm-1.875-5.125a1.875 1.875 0 0 1 3.75 0v1.75a1.875 1.875 0 0 1 -3.75 0z"/><path d="m30.5 38.375v-1.75a3.375 3.375 0 0 0 -6.75 0v1.75a3.375 3.375 0 0 0 6.75 0zm-1.5 0a1.875 1.875 0 0 1 -3.75 0v-1.75a1.875 1.875 0 0 1 3.75 0z"/><path d="m38.5 38.375v-1.75a3.375 3.375 0 0 0 -6.75 0v1.75a3.375 3.375 0 0 0 6.75 0zm-1.5 0a1.875 1.875 0 0 1 -3.75 0v-1.75a1.875 1.875 0 0 1 3.75 0z"/><path d="m22.75 39.25a2.5 2.5 0 0 0 -2.5-2.5 1 1 0 0 1 0-2h1.75a.75.75 0 0 0 0-1.5h-1.75a2.5 2.5 0 0 0 0 5 1 1 0 0 1 0 2h-1.75a.75.75 0 0 0 0 1.5h1.75a2.5 2.5 0 0 0 2.5-2.5z"/><path d="m55 37.25h-5a.75.75 0 0 0 0 1.5h5a.75.75 0 0 0 0-1.5z"/><path d="m14.75 38a.75.75 0 0 0 -.75-.75h-5a.75.75 0 0 0 0 1.5h5a.75.75 0 0 0 .75-.75z"/></svg>