<svg id="Layer_1" viewBox="0 0 512 512" xmlns="http://www.w3.org/2000/svg" data-name="Layer 1" fill="#1e1b4b"><path d="m219.285 434.386-205.759-307.7c-19.626-29.338 1.409-68.693 36.705-68.693a33.013 33.013 0 0 1 8.357 1.075l108.868 28.479a29.383 29.383 0 0 1 21.944 28.426v26.927a8.347 8.347 0 0 1 -10.459 8.075l-22.341-5.84c-13.573-3.549-25.383 10.919-18.46 23.122q.355.627.766 1.242l101.467 151.745a18.806 18.806 0 0 0 31.255 0l101.472-151.744a18.837 18.837 0 0 0 -7.608-27.478 15.522 15.522 0 0 0 -10.513-.793l-21.916 5.738a8.347 8.347 0 0 1 -10.463-8.074v-23.409a29.383 29.383 0 0 1 21.944-28.426l106.971-27.99a33.023 33.023 0 0 1 8.359-1.075h1.9c35.3 0 56.327 39.355 36.7 68.693l-205.759 307.7a44.161 44.161 0 0 1 -73.43 0z"/></svg>