<svg viewBox="0 0 64 64" xmlns="http://www.w3.org/2000/svg" fill="#312e81"><path d="m58 24h-18v-18a6 6 0 0 0 -6-6h-28a6 6 0 0 0 -6 6v52a6 6 0 0 0 6 6h52a6 6 0 0 0 6-6v-28a6 6 0 0 0 -6-6zm-54-18a2 2 0 0 1 2-2h4.08v3a2 2 0 0 0 2 2h15.84a2 2 0 0 0 2-2v-3h4.08a2 2 0 0 1 2 2v18h-30a6 6 0 0 0 -2 .35zm56 28.08h-3a2 2 0 0 0 -2 2v15.84a2 2 0 0 0 2 2h3v4.08a2 2 0 0 1 -2 2h-52a2 2 0 0 1 -2-2v-28a2 2 0 0 1 2-2h52a2 2 0 0 1 2 2z"/><path d="m48.7 15.1a2 2 0 0 0 .22 2.82l5 4.27a2 2 0 0 0 1 .45 2.07 2.07 0 0 0 .35 0 2 2 0 0 0 1.52-.7l4.21-4.94a2 2 0 1 0 -3-2.6l-1 1.19a14 14 0 0 0 -14-12.59 2 2 0 0 0 0 4 10 10 0 0 1 10 9.12l-1.44-1.24a2 2 0 0 0 -2.86.22z"/></svg>