<svg xmlns="http://www.w3.org/2000/svg" width="113" height="18" fill="none" viewBox="0 0 113 18"><path fill="#312e81" d="M7.81929 1.1866L7.59951 0.737492L7.59951 0.737492L7.81929 1.1866ZM9.43097 1.1866L9.21119 1.63571L9.21119 1.63571L9.43097 1.1866ZM7.00247 2.06819L7.43558 2.31801L7.43558 2.31801L7.00247 2.06819ZM6.24588 3.61084L6.69972 3.82067L6.69973 3.82066L6.24588 3.61084ZM6.23488 3.63463L5.78104 3.4248L5.78104 3.42481L6.23488 3.63463ZM6.00429 4.1334L5.55044 3.92357L5.55044 3.92357L6.00429 4.1334ZM5.67674 4.74997L6.04648 5.08656L6.04648 5.08656L5.67674 4.74997ZM5.40413 4.94817L5.61031 5.40369L5.61031 5.40369L5.40413 4.94817ZM4.7166 5.06964L4.77625 5.56607L4.77626 5.56607L4.7166 5.06964ZM4.2441 5.12642L4.30375 5.62285L4.30376 5.62285L4.2441 5.12642ZM4.21819 5.12953L4.15854 4.6331L4.15617 4.63339L4.21819 5.12953ZM4.21817 5.12954L4.27782 5.62597L4.28018 5.62567L4.21817 5.12954ZM2.59057 5.36351L2.48618 4.87453L2.48618 4.87453L2.59057 5.36351ZM1.53111 5.852L1.17596 5.50006L1.17596 5.50006L1.53111 5.852ZM1.01169 7.34908L0.514877 7.40542L0.514877 7.40542L1.01169 7.34908ZM1.54093 8.38877L1.15612 8.70803L1.15612 8.70803L1.54093 8.38877ZM2.67387 9.58055L2.31957 9.93335L2.31958 9.93336L2.67387 9.58055ZM2.6923 9.59905L3.0466 9.24624L3.04659 9.24624L2.6923 9.59905ZM3.35101 10.2606L2.99671 10.6134L2.99671 10.6134L3.35101 10.2606ZM3.85429 10.8294L4.3036 10.61L4.3036 10.61L3.85429 10.8294ZM3.93867 11.1821L3.43873 11.1898L3.43873 11.1898L3.93867 11.1821ZM3.74724 11.9171L3.27165 11.7628L3.27165 11.7628L3.74724 11.9171ZM3.57235 12.4562L3.09676 12.3019L3.09676 12.3019L3.57235 12.4562ZM3.56423 12.4812L4.03983 12.6355L4.03983 12.6355L3.56423 12.4812ZM3.00711 14.3365L3.49439 14.4486L3.49439 14.4486L3.00711 14.3365ZM3.01094 15.6379L3.47141 15.443L3.47141 15.443L3.01094 15.6379ZM4.30216 16.7131L4.19384 17.2013L4.19384 17.2013L4.30216 16.7131ZM5.58268 16.4814L5.78107 16.9404L5.78107 16.9404L5.58268 16.4814ZM7.30647 15.5977L7.54431 16.0376L7.54743 16.0359L7.30647 15.5977ZM7.30653 15.5977L7.0687 15.1579L7.06557 15.1596L7.30653 15.5977ZM7.32972 15.5852L7.56753 16.025L7.56755 16.025L7.32972 15.5852ZM7.84822 15.3048L8.08605 15.7446L8.08605 15.7446L7.84822 15.3048ZM8.46097 15.015L8.36248 14.5248L8.36248 14.5248L8.46097 15.015ZM8.78928 15.015L8.88778 14.5248L8.88777 14.5248L8.78928 15.015ZM9.40203 15.3048L9.63986 14.865L9.63986 14.865L9.40203 15.3048ZM9.92053 15.5852L10.1584 15.1454L10.1584 15.1454L9.92053 15.5852ZM9.94354 15.5976L10.1864 15.1605L10.1814 15.1578L9.94354 15.5976ZM9.94362 15.5977L9.70078 16.0348L9.70579 16.0375L9.94362 15.5977ZM11.6676 16.4814L11.4692 16.9404L11.4692 16.9404L11.6676 16.4814ZM12.9481 16.7131L12.8398 16.225L12.8398 16.225L12.9481 16.7131ZM14.2393 15.6379L14.6998 15.8327L14.6998 15.8327L14.2393 15.6379ZM14.2431 14.3365L14.7304 14.2245L14.7304 14.2245L14.2431 14.3365ZM13.686 12.4812L14.1616 12.3269L14.1604 12.3231L13.686 12.4812ZM13.686 12.4812L13.2104 12.6355L13.2117 12.6393L13.686 12.4812ZM13.6779 12.4562L13.2023 12.6105L13.2023 12.6105L13.6779 12.4562ZM13.503 11.9171L13.0274 12.0714L13.0274 12.0714L13.503 11.9171ZM13.3116 11.1821L13.8115 11.1898L13.8115 11.1898L13.3116 11.1821ZM13.396 10.8294L12.9466 10.61L12.9466 10.61L13.396 10.8294ZM13.8992 10.2606L14.2535 10.6134L14.2535 10.6134L13.8992 10.2606ZM14.5579 9.59905L14.9122 9.95185L14.9123 9.95185L14.5579 9.59905ZM14.5763 9.58057L14.2221 9.22776L14.222 9.22777L14.5763 9.58057ZM15.7093 8.38877L15.3245 8.06952L15.3245 8.06952L15.7093 8.38877ZM16.2386 7.34908L16.7354 7.40543L16.7354 7.40542L16.2386 7.34908ZM15.7191 5.852L15.364 6.20395L15.364 6.20395L15.7191 5.852ZM14.6597 5.36351L14.7641 4.87453L14.7641 4.87453L14.6597 5.36351ZM13.0321 5.12953L13.0917 4.6331L13.0917 4.6331L13.0321 5.12953ZM13.0061 5.12642L12.9465 5.62285L12.9465 5.62285L13.0061 5.12642ZM12.5336 5.06964L12.474 5.56607L12.474 5.56607L12.5336 5.06964ZM11.8461 4.94817L11.6399 5.40368L11.6399 5.40369L11.8461 4.94817ZM11.5735 4.74997L11.2038 5.08656L11.2038 5.08656L11.5735 4.74997ZM11.246 4.1334L11.6998 3.92357L11.6998 3.92357L11.246 4.1334ZM11.0154 3.63464L11.4692 3.42481L11.4692 3.42481L11.0154 3.63464ZM11.0044 3.61082L11.4582 3.40099L11.4579 3.40026L11.0044 3.61082ZM11.0043 3.61074L10.5505 3.82056L10.5508 3.82129L11.0043 3.61074ZM10.2478 2.06819L9.81466 2.31801L9.81467 2.31801L10.2478 2.06819ZM8.03906 1.63571C8.40882 1.45477 8.84143 1.45477 9.21119 1.63571L9.65074 0.737493C9.00366 0.42084 8.24659 0.42084 7.59951 0.737492L8.03906 1.63571ZM7.43558 2.31801C7.64259 1.95913 7.82605 1.73995 8.03906 1.63571L7.59951 0.737492C7.10256 0.98068 6.79403 1.42884 6.56935 1.81837L7.43558 2.31801ZM6.69973 3.82066C7.0026 3.16554 7.23085 2.67296 7.43558 2.31801L6.56935 1.81837C6.33677 2.2216 6.08711 2.76277 5.79204 3.40102L6.69973 3.82066ZM6.68872 3.84446L6.69972 3.82067L5.79204 3.40101L5.78104 3.4248L6.68872 3.84446ZM6.45813 4.34322L6.68872 3.84446L5.78104 3.42481L5.55044 3.92357L6.45813 4.34322ZM6.04648 5.08656C6.18536 4.934 6.27781 4.73326 6.45813 4.34322L5.55044 3.92357C5.45137 4.13787 5.3936 4.25926 5.35283 4.33634C5.33328 4.37328 5.32146 4.39268 5.3147 4.40289C5.30928 4.41108 5.30743 4.4129 5.307 4.41338L6.04648 5.08656ZM5.61031 5.40369C5.77578 5.32879 5.9242 5.22087 6.04648 5.08656L5.307 4.41338C5.27643 4.44696 5.23932 4.47394 5.19795 4.49266L5.61031 5.40369ZM4.77626 5.56607C5.20289 5.5148 5.42236 5.48876 5.61031 5.40369L5.19796 4.49266C5.19737 4.49293 5.19506 4.49412 5.1856 4.49676C5.17381 4.50004 5.1517 4.5053 5.11053 4.5125C5.02464 4.52752 4.89136 4.54504 4.65695 4.57321L4.77626 5.56607ZM4.30376 5.62285L4.77625 5.56607L4.65695 4.57321L4.18445 4.62999L4.30376 5.62285ZM4.27784 5.62596L4.30375 5.62285L4.18445 4.62999L4.15854 4.6331L4.27784 5.62596ZM4.28018 5.62567L4.28021 5.62567L4.15617 4.63339L4.15615 4.6334L4.28018 5.62567ZM2.69495 5.8525C3.07914 5.77048 3.59374 5.70816 4.27782 5.62596L4.15852 4.63311C3.49284 4.71309 2.9252 4.78081 2.48618 4.87453L2.69495 5.8525ZM1.88627 6.20395C2.04992 6.0388 2.30621 5.93548 2.69495 5.8525L2.48618 4.87453C2.05813 4.96591 1.55515 5.11741 1.17596 5.50006L1.88627 6.20395ZM1.50851 7.29273C1.46298 6.89131 1.6019 6.4909 1.88627 6.20395L1.17596 5.50006C0.678321 6.00223 0.435203 6.70295 0.514877 7.40542L1.50851 7.29273ZM1.92574 8.06952C1.67193 7.7636 1.53471 7.52375 1.50851 7.29273L0.514877 7.40542C0.575587 7.9407 0.87665 8.37117 1.15612 8.70803L1.92574 8.06952ZM3.02817 9.22774C2.542 8.73952 2.17658 8.37187 1.92574 8.06952L1.15612 8.70803C1.44276 9.05352 1.84648 9.45826 2.31957 9.93335L3.02817 9.22774ZM3.04659 9.24624L3.02817 9.22774L2.31958 9.93336L2.338 9.95186L3.04659 9.24624ZM3.70531 9.90775L3.0466 9.24624L2.33799 9.95185L2.99671 10.6134L3.70531 9.90775ZM4.3036 10.61C4.20596 10.41 4.03575 10.2396 3.70531 9.90775L2.99671 10.6134C3.17833 10.7958 3.2808 10.9011 3.34406 10.9724C3.37443 11.0066 3.38973 11.0262 3.39755 11.0371C3.40384 11.0459 3.40484 11.0484 3.40498 11.0487L4.3036 10.61ZM4.43862 11.1745C4.4356 10.9787 4.38951 10.7859 4.3036 10.61L3.40498 11.0487C3.42646 11.0927 3.43798 11.1409 3.43873 11.1898L4.43862 11.1745ZM4.22284 12.0714C4.36736 11.626 4.44204 11.397 4.43862 11.1745L3.43873 11.1898C3.43874 11.1902 3.43897 11.1928 3.43735 11.2035C3.43532 11.2168 3.43057 11.2412 3.41896 11.2855C3.39478 11.3776 3.35108 11.518 3.27165 11.7628L4.22284 12.0714ZM4.04795 12.6105L4.22284 12.0714L3.27165 11.7628L3.09676 12.3019L4.04795 12.6105ZM4.03983 12.6355L4.04795 12.6105L3.09676 12.3019L3.08864 12.3269L4.03983 12.6355ZM3.49439 14.4486C3.59741 14.0006 3.78704 13.4146 4.03983 12.6355L3.08864 12.3269C2.84158 13.0884 2.63502 13.7235 2.51983 14.2245L3.49439 14.4486ZM3.47141 15.443C3.37431 15.2136 3.39044 14.9007 3.49439 14.4486L2.51983 14.2245C2.41147 14.6957 2.31953 15.287 2.55048 15.8327L3.47141 15.443ZM4.41047 16.225C3.98939 16.1316 3.63951 15.8402 3.47141 15.443L2.55048 15.8327C2.84466 16.5279 3.45694 17.0378 4.19384 17.2013L4.41047 16.225ZM5.3843 16.0224C4.9585 16.2065 4.65368 16.279 4.41047 16.225L4.19384 17.2013C4.77235 17.3296 5.33726 17.1322 5.78107 16.9404L5.3843 16.0224ZM7.06864 15.1579C6.34817 15.5475 5.80624 15.8401 5.3843 16.0224L5.78107 16.9404C6.2529 16.7364 6.84015 16.4183 7.5443 16.0376L7.06864 15.1579ZM7.06557 15.1596L7.06551 15.1596L7.54743 16.0359L7.54749 16.0358L7.06557 15.1596ZM7.0919 15.1454L7.06871 15.1579L7.54434 16.0375L7.56753 16.025L7.0919 15.1454ZM7.61039 14.865L7.09189 15.1454L7.56755 16.025L8.08605 15.7446L7.61039 14.865ZM8.36248 14.5248C8.1656 14.5644 7.97712 14.6667 7.61039 14.865L8.08605 15.7446C8.28752 15.6357 8.4028 15.5749 8.47916 15.5387C8.51574 15.5213 8.53614 15.5131 8.54728 15.509C8.55622 15.5058 8.55875 15.5054 8.55946 15.5053L8.36248 14.5248ZM8.88777 14.5248C8.71441 14.49 8.53584 14.49 8.36248 14.5248L8.55946 15.5053C8.6028 15.4965 8.64745 15.4965 8.69079 15.5053L8.88777 14.5248ZM9.63986 14.865C9.27313 14.6667 9.08465 14.5644 8.88778 14.5248L8.69079 15.5053C8.69151 15.5054 8.69404 15.5058 8.70297 15.509C8.71411 15.5131 8.73452 15.5213 8.7711 15.5387C8.84746 15.5749 8.96273 15.6357 9.1642 15.7446L9.63986 14.865ZM10.1584 15.1454L9.63986 14.865L9.1642 15.7446L9.6827 16.025L10.1584 15.1454ZM10.1814 15.1578L10.1584 15.1454L9.68267 16.025L9.70569 16.0374L10.1814 15.1578ZM10.1864 15.1606L10.1864 15.1605L9.70072 16.0347L9.7008 16.0347L10.1864 15.1606ZM11.8659 16.0224C11.444 15.84 10.902 15.5475 10.1815 15.1578L9.70579 16.0375C10.41 16.4183 10.9973 16.7364 11.4692 16.9404L11.8659 16.0224ZM12.8398 16.225C12.5966 16.279 12.2917 16.2065 11.8659 16.0224L11.4692 16.9404C11.913 17.1322 12.4779 17.3296 13.0564 17.2013L12.8398 16.225ZM13.7788 15.443C13.6107 15.8402 13.2609 16.1316 12.8398 16.225L13.0564 17.2013C13.7933 17.0378 14.4056 16.5279 14.6998 15.8327L13.7788 15.443ZM13.7559 14.4486C13.8598 14.9007 13.8759 15.2136 13.7788 15.443L14.6998 15.8327C14.9307 15.287 14.8388 14.6957 14.7304 14.2245L13.7559 14.4486ZM13.2104 12.6355C13.4632 13.4146 13.6528 14.0006 13.7559 14.4486L14.7304 14.2245C14.6152 13.7235 14.4087 13.0884 14.1616 12.3269L13.2104 12.6355ZM13.2117 12.6393L13.2117 12.6393L14.1604 12.3231L14.1604 12.3231L13.2117 12.6393ZM13.2023 12.6105L13.2104 12.6355L14.1616 12.3269L14.1535 12.3018L13.2023 12.6105ZM13.0274 12.0714L13.2023 12.6105L14.1535 12.3019L13.9786 11.7628L13.0274 12.0714ZM12.8116 11.1745C12.8082 11.397 12.8829 11.626 13.0274 12.0714L13.9786 11.7628C13.8992 11.518 13.8555 11.3776 13.8313 11.2855C13.8197 11.2412 13.8149 11.2168 13.8129 11.2035C13.8113 11.1928 13.8115 11.1902 13.8115 11.1898L12.8116 11.1745ZM12.9466 10.61C12.8607 10.7859 12.8146 10.9787 12.8116 11.1745L13.8115 11.1898C13.8123 11.1409 13.8238 11.0927 13.8453 11.0487L12.9466 10.61ZM13.5449 9.90775C13.2145 10.2396 13.0443 10.41 12.9466 10.61L13.8453 11.0487C13.8454 11.0484 13.8464 11.0459 13.8527 11.0371C13.8605 11.0262 13.8758 11.0066 13.9062 10.9724C13.9694 10.9011 14.0719 10.7958 14.2535 10.6134L13.5449 9.90775ZM14.2036 9.24624L13.5449 9.90775L14.2535 10.6134L14.9122 9.95185L14.2036 9.24624ZM14.222 9.22777L14.2036 9.24624L14.9123 9.95185L14.9307 9.93337L14.222 9.22777ZM15.3245 8.06952C15.0737 8.37187 14.7082 8.73953 14.2221 9.22776L14.9306 9.93338C15.4038 9.45827 15.8075 9.05353 16.0941 8.70803L15.3245 8.06952ZM15.7417 7.29273C15.7155 7.52375 15.5783 7.7636 15.3245 8.06952L16.0941 8.70803C16.3736 8.37117 16.6747 7.9407 16.7354 7.40543L15.7417 7.29273ZM15.364 6.20395C15.6483 6.4909 15.7873 6.89131 15.7417 7.29273L16.7354 7.40542C16.815 6.70295 16.5719 6.00223 16.0743 5.50006L15.364 6.20395ZM14.5553 5.8525C14.944 5.93548 15.2003 6.0388 15.364 6.20395L16.0743 5.50006C15.6951 5.11741 15.1921 4.96591 14.7641 4.87453L14.5553 5.8525ZM12.9724 5.62596C13.6565 5.70816 14.1711 5.77048 14.5553 5.8525L14.7641 4.87453C14.325 4.78081 13.7574 4.71309 13.0917 4.6331L12.9724 5.62596ZM12.9465 5.62285L12.9724 5.62596L13.0917 4.6331L13.0658 4.62999L12.9465 5.62285ZM12.474 5.56607L12.9465 5.62285L13.0658 4.62999L12.5933 4.57321L12.474 5.56607ZM11.6399 5.40369C11.8279 5.48876 12.0474 5.5148 12.474 5.56607L12.5933 4.57321C12.3589 4.54504 12.2256 4.52752 12.1397 4.5125C12.0985 4.5053 12.0764 4.50004 12.0646 4.49676C12.0552 4.49412 12.0529 4.49293 12.0523 4.49266L11.6399 5.40369ZM11.2038 5.08656C11.326 5.22087 11.4745 5.32879 11.6399 5.40368L12.0523 4.49266C12.0109 4.47394 11.9738 4.44696 11.9432 4.41338L11.2038 5.08656ZM10.7921 4.34322C10.9724 4.73325 11.0649 4.934 11.2038 5.08656L11.9432 4.41338C11.9428 4.4129 11.941 4.41108 11.9355 4.40289C11.9288 4.39268 11.917 4.37328 11.8974 4.33634C11.8566 4.25926 11.7989 4.13788 11.6998 3.92357L10.7921 4.34322ZM10.5615 3.84446L10.7921 4.34322L11.6998 3.92357L11.4692 3.42481L10.5615 3.84446ZM10.5505 3.82064L10.5615 3.84446L11.4692 3.42481L11.4582 3.401L10.5505 3.82064ZM10.5508 3.82129L10.5509 3.82137L11.4579 3.40026L11.4578 3.40018L10.5508 3.82129ZM9.81467 2.31801C10.0194 2.67294 10.2476 3.16549 10.5505 3.82056L11.4582 3.40092C11.1631 2.76272 10.9135 2.22158 10.6809 1.81837L9.81467 2.31801ZM9.21119 1.63571C9.4242 1.73995 9.60766 1.95913 9.81466 2.31801L10.6809 1.81837C10.4562 1.42884 10.1477 0.980681 9.65074 0.737493L9.21119 1.63571Z"/><path fill="#312e81" d="M31.8193 1.1866L31.5995 0.737492L31.5995 0.737492L31.8193 1.1866ZM33.431 1.1866L33.2112 1.63571L33.2112 1.63571L33.431 1.1866ZM31.0025 2.06819L31.4356 2.31801L31.4356 2.31801L31.0025 2.06819ZM30.2459 3.61084L30.6997 3.82067L30.6997 3.82066L30.2459 3.61084ZM30.2349 3.63463L29.781 3.4248L29.781 3.42481L30.2349 3.63463ZM30.0043 4.1334L29.5504 3.92357L29.5504 3.92357L30.0043 4.1334ZM29.6767 4.74997L30.0465 5.08656L30.0465 5.08656L29.6767 4.74997ZM29.4041 4.94817L29.6103 5.40369L29.6103 5.40369L29.4041 4.94817ZM28.7166 5.06964L28.7763 5.56607L28.7763 5.56607L28.7166 5.06964ZM28.2441 5.12642L28.3038 5.62285L28.3038 5.62285L28.2441 5.12642ZM28.2182 5.12953L28.1585 4.6331L28.1562 4.63339L28.2182 5.12953ZM28.2182 5.12954L28.2778 5.62597L28.2802 5.62567L28.2182 5.12954ZM26.5906 5.36351L26.4862 4.87453L26.4862 4.87453L26.5906 5.36351ZM25.5311 5.852L25.176 5.50006L25.176 5.50006L25.5311 5.852ZM25.0117 7.34908L24.5149 7.40542L24.5149 7.40542L25.0117 7.34908ZM25.5409 8.38877L25.1561 8.70803L25.1561 8.70803L25.5409 8.38877ZM26.6739 9.58055L26.3196 9.93335L26.3196 9.93336L26.6739 9.58055ZM26.6923 9.59905L27.0466 9.24624L27.0466 9.24624L26.6923 9.59905ZM27.351 10.2606L26.9967 10.6134L26.9967 10.6134L27.351 10.2606ZM27.8543 10.8294L28.3036 10.61L28.3036 10.61L27.8543 10.8294ZM27.9387 11.1821L27.4387 11.1898L27.4387 11.1898L27.9387 11.1821ZM27.7472 11.9171L27.2716 11.7628L27.2716 11.7628L27.7472 11.9171ZM27.5724 12.4562L27.0968 12.3019L27.0968 12.3019L27.5724 12.4562ZM27.5642 12.4812L28.0398 12.6355L28.0398 12.6355L27.5642 12.4812ZM27.0071 14.3365L27.4944 14.4486L27.4944 14.4486L27.0071 14.3365ZM27.0109 15.6379L27.4714 15.443L27.4714 15.443L27.0109 15.6379ZM28.3022 16.7131L28.1938 17.2013L28.1938 17.2013L28.3022 16.7131ZM29.5827 16.4814L29.7811 16.9404L29.7811 16.9404L29.5827 16.4814ZM31.3065 15.5977L31.5443 16.0376L31.5474 16.0359L31.3065 15.5977ZM31.3065 15.5977L31.0687 15.1579L31.0656 15.1596L31.3065 15.5977ZM31.3297 15.5852L31.5675 16.025L31.5675 16.025L31.3297 15.5852ZM31.8482 15.3048L32.086 15.7446L32.086 15.7446L31.8482 15.3048ZM32.461 15.015L32.3625 14.5248L32.3625 14.5248L32.461 15.015ZM32.7893 15.015L32.8878 14.5248L32.8878 14.5248L32.7893 15.015ZM33.402 15.3048L33.6399 14.865L33.6399 14.865L33.402 15.3048ZM33.9205 15.5852L34.1584 15.1454L34.1584 15.1454L33.9205 15.5852ZM33.9435 15.5976L34.1864 15.1605L34.1814 15.1578L33.9435 15.5976ZM33.9436 15.5977L33.7008 16.0348L33.7058 16.0375L33.9436 15.5977ZM35.6676 16.4814L35.4692 16.9404L35.4692 16.9404L35.6676 16.4814ZM36.9481 16.7131L36.8398 16.225L36.8398 16.225L36.9481 16.7131ZM38.2393 15.6379L38.6998 15.8327L38.6998 15.8327L38.2393 15.6379ZM38.2431 14.3365L38.7304 14.2245L38.7304 14.2245L38.2431 14.3365ZM37.686 12.4812L38.1616 12.3269L38.1604 12.3231L37.686 12.4812ZM37.686 12.4812L37.2104 12.6355L37.2117 12.6393L37.686 12.4812ZM37.6779 12.4562L37.2023 12.6105L37.2023 12.6105L37.6779 12.4562ZM37.503 11.9171L37.0274 12.0714L37.0274 12.0714L37.503 11.9171ZM37.3116 11.1821L37.8115 11.1898L37.8115 11.1898L37.3116 11.1821ZM37.396 10.8294L36.9466 10.61L36.9466 10.61L37.396 10.8294ZM37.8992 10.2606L38.2535 10.6134L38.2535 10.6134L37.8992 10.2606ZM38.5579 9.59905L38.9122 9.95185L38.9123 9.95185L38.5579 9.59905ZM38.5763 9.58057L38.2221 9.22776L38.222 9.22777L38.5763 9.58057ZM39.7093 8.38877L39.3245 8.06952L39.3245 8.06952L39.7093 8.38877ZM40.2386 7.34908L40.7354 7.40543L40.7354 7.40542L40.2386 7.34908ZM39.7191 5.852L39.364 6.20395L39.364 6.20395L39.7191 5.852ZM38.6597 5.36351L38.7641 4.87453L38.7641 4.87453L38.6597 5.36351ZM37.0321 5.12953L37.0917 4.6331L37.0917 4.6331L37.0321 5.12953ZM37.0061 5.12642L36.9465 5.62285L36.9465 5.62285L37.0061 5.12642ZM36.5336 5.06964L36.474 5.56607L36.474 5.56607L36.5336 5.06964ZM35.8461 4.94817L35.6399 5.40368L35.6399 5.40369L35.8461 4.94817ZM35.5735 4.74997L35.2038 5.08656L35.2038 5.08656L35.5735 4.74997ZM35.246 4.1334L35.6998 3.92357L35.6998 3.92357L35.246 4.1334ZM35.0154 3.63464L35.4692 3.42481L35.4692 3.42481L35.0154 3.63464ZM35.0044 3.61082L35.4582 3.40099L35.4579 3.40026L35.0044 3.61082ZM35.0043 3.61074L34.5505 3.82056L34.5508 3.82129L35.0043 3.61074ZM34.2478 2.06819L33.8147 2.31801L33.8147 2.31801L34.2478 2.06819ZM32.0391 1.63571C32.4088 1.45477 32.8414 1.45477 33.2112 1.63571L33.6507 0.737493C33.0037 0.42084 32.2466 0.42084 31.5995 0.737492L32.0391 1.63571ZM31.4356 2.31801C31.6426 1.95913 31.8261 1.73995 32.0391 1.63571L31.5995 0.737492C31.1026 0.98068 30.794 1.42884 30.5694 1.81837L31.4356 2.31801ZM30.6997 3.82066C31.0026 3.16554 31.2309 2.67296 31.4356 2.31801L30.5694 1.81837C30.3368 2.2216 30.0871 2.76277 29.792 3.40102L30.6997 3.82066ZM30.6887 3.84446L30.6997 3.82067L29.792 3.40101L29.781 3.4248L30.6887 3.84446ZM30.4581 4.34322L30.6887 3.84446L29.781 3.42481L29.5504 3.92357L30.4581 4.34322ZM30.0465 5.08656C30.1854 4.934 30.2778 4.73326 30.4581 4.34322L29.5504 3.92357C29.4514 4.13787 29.3936 4.25926 29.3528 4.33634C29.3333 4.37328 29.3215 4.39268 29.3147 4.40289C29.3093 4.41108 29.3074 4.4129 29.307 4.41338L30.0465 5.08656ZM29.6103 5.40369C29.7758 5.32879 29.9242 5.22087 30.0465 5.08656L29.307 4.41338C29.2764 4.44696 29.2393 4.47394 29.198 4.49266L29.6103 5.40369ZM28.7763 5.56607C29.2029 5.5148 29.4224 5.48876 29.6103 5.40369L29.198 4.49266C29.1974 4.49293 29.1951 4.49412 29.1856 4.49676C29.1738 4.50004 29.1517 4.5053 29.1105 4.5125C29.0246 4.52752 28.8914 4.54504 28.6569 4.57321L28.7763 5.56607ZM28.3038 5.62285L28.7763 5.56607L28.6569 4.57321L28.1844 4.62999L28.3038 5.62285ZM28.2778 5.62596L28.3038 5.62285L28.1845 4.62999L28.1585 4.6331L28.2778 5.62596ZM28.2802 5.62567L28.2802 5.62567L28.1562 4.63339L28.1561 4.6334L28.2802 5.62567ZM26.695 5.8525C27.0791 5.77048 27.5937 5.70816 28.2778 5.62596L28.1585 4.63311C27.4928 4.71309 26.9252 4.78081 26.4862 4.87453L26.695 5.8525ZM25.8863 6.20395C26.0499 6.0388 26.3062 5.93548 26.695 5.8525L26.4862 4.87453C26.0581 4.96591 25.5551 5.11741 25.176 5.50006L25.8863 6.20395ZM25.5085 7.29273C25.463 6.89131 25.6019 6.4909 25.8863 6.20395L25.176 5.50006C24.6783 6.00223 24.4352 6.70295 24.5149 7.40542L25.5085 7.29273ZM25.9257 8.06952C25.6719 7.7636 25.5347 7.52375 25.5085 7.29273L24.5149 7.40542C24.5756 7.9407 24.8766 8.37117 25.1561 8.70803L25.9257 8.06952ZM27.0282 9.22774C26.542 8.73952 26.1766 8.37187 25.9257 8.06952L25.1561 8.70803C25.4428 9.05352 25.8465 9.45826 26.3196 9.93335L27.0282 9.22774ZM27.0466 9.24624L27.0282 9.22774L26.3196 9.93336L26.338 9.95186L27.0466 9.24624ZM27.7053 9.90775L27.0466 9.24624L26.338 9.95185L26.9967 10.6134L27.7053 9.90775ZM28.3036 10.61C28.206 10.41 28.0358 10.2396 27.7053 9.90775L26.9967 10.6134C27.1783 10.7958 27.2808 10.9011 27.3441 10.9724C27.3744 11.0066 27.3897 11.0262 27.3976 11.0371C27.4038 11.0459 27.4048 11.0484 27.405 11.0487L28.3036 10.61ZM28.4386 11.1745C28.4356 10.9787 28.3895 10.7859 28.3036 10.61L27.405 11.0487C27.4265 11.0927 27.438 11.1409 27.4387 11.1898L28.4386 11.1745ZM28.2228 12.0714C28.3674 11.626 28.442 11.397 28.4386 11.1745L27.4387 11.1898C27.4387 11.1902 27.439 11.1928 27.4373 11.2035C27.4353 11.2168 27.4306 11.2412 27.419 11.2855C27.3948 11.3776 27.3511 11.518 27.2716 11.7628L28.2228 12.0714ZM28.0479 12.6105L28.2228 12.0714L27.2716 11.7628L27.0968 12.3019L28.0479 12.6105ZM28.0398 12.6355L28.0479 12.6105L27.0968 12.3019L27.0886 12.3269L28.0398 12.6355ZM27.4944 14.4486C27.5974 14.0006 27.787 13.4146 28.0398 12.6355L27.0886 12.3269C26.8416 13.0884 26.635 13.7235 26.5198 14.2245L27.4944 14.4486ZM27.4714 15.443C27.3743 15.2136 27.3904 14.9007 27.4944 14.4486L26.5198 14.2245C26.4115 14.6957 26.3195 15.287 26.5505 15.8327L27.4714 15.443ZM28.4105 16.225C27.9894 16.1316 27.6395 15.8402 27.4714 15.443L26.5505 15.8327C26.8447 16.5279 27.4569 17.0378 28.1938 17.2013L28.4105 16.225ZM29.3843 16.0224C28.9585 16.2065 28.6537 16.279 28.4105 16.225L28.1938 17.2013C28.7723 17.3296 29.3373 17.1322 29.7811 16.9404L29.3843 16.0224ZM31.0686 15.1579C30.3482 15.5475 29.8062 15.8401 29.3843 16.0224L29.7811 16.9404C30.2529 16.7364 30.8402 16.4183 31.5443 16.0376L31.0686 15.1579ZM31.0656 15.1596L31.0655 15.1596L31.5474 16.0359L31.5475 16.0358L31.0656 15.1596ZM31.0919 15.1454L31.0687 15.1579L31.5443 16.0375L31.5675 16.025L31.0919 15.1454ZM31.6104 14.865L31.0919 15.1454L31.5675 16.025L32.086 15.7446L31.6104 14.865ZM32.3625 14.5248C32.1656 14.5644 31.9771 14.6667 31.6104 14.865L32.086 15.7446C32.2875 15.6357 32.4028 15.5749 32.4792 15.5387C32.5157 15.5213 32.5361 15.5131 32.5473 15.509C32.5562 15.5058 32.5587 15.5054 32.5595 15.5053L32.3625 14.5248ZM32.8878 14.5248C32.7144 14.49 32.5358 14.49 32.3625 14.5248L32.5595 15.5053C32.6028 15.4965 32.6474 15.4965 32.6908 15.5053L32.8878 14.5248ZM33.6399 14.865C33.2731 14.6667 33.0847 14.5644 32.8878 14.5248L32.6908 15.5053C32.6915 15.5054 32.694 15.5058 32.703 15.509C32.7141 15.5131 32.7345 15.5213 32.7711 15.5387C32.8475 15.5749 32.9627 15.6357 33.1642 15.7446L33.6399 14.865ZM34.1584 15.1454L33.6399 14.865L33.1642 15.7446L33.6827 16.025L34.1584 15.1454ZM34.1814 15.1578L34.1584 15.1454L33.6827 16.025L33.7057 16.0374L34.1814 15.1578ZM34.1864 15.1606L34.1864 15.1605L33.7007 16.0347L33.7008 16.0347L34.1864 15.1606ZM35.8659 16.0224C35.444 15.84 34.902 15.5475 34.1815 15.1578L33.7058 16.0375C34.41 16.4183 34.9973 16.7364 35.4692 16.9404L35.8659 16.0224ZM36.8398 16.225C36.5966 16.279 36.2917 16.2065 35.8659 16.0224L35.4692 16.9404C35.913 17.1322 36.4779 17.3296 37.0564 17.2013L36.8398 16.225ZM37.7788 15.443C37.6107 15.8402 37.2609 16.1316 36.8398 16.225L37.0564 17.2013C37.7933 17.0378 38.4056 16.5279 38.6998 15.8327L37.7788 15.443ZM37.7559 14.4486C37.8598 14.9007 37.8759 15.2136 37.7788 15.443L38.6998 15.8327C38.9307 15.287 38.8388 14.6957 38.7304 14.2245L37.7559 14.4486ZM37.2104 12.6355C37.4632 13.4146 37.6528 14.0006 37.7559 14.4486L38.7304 14.2245C38.6152 13.7235 38.4087 13.0884 38.1616 12.3269L37.2104 12.6355ZM37.2117 12.6393L37.2117 12.6393L38.1604 12.3231L38.1604 12.3231L37.2117 12.6393ZM37.2023 12.6105L37.2104 12.6355L38.1616 12.3269L38.1535 12.3018L37.2023 12.6105ZM37.0274 12.0714L37.2023 12.6105L38.1535 12.3019L37.9786 11.7628L37.0274 12.0714ZM36.8116 11.1745C36.8082 11.397 36.8829 11.626 37.0274 12.0714L37.9786 11.7628C37.8992 11.518 37.8555 11.3776 37.8313 11.2855C37.8197 11.2412 37.8149 11.2168 37.8129 11.2035C37.8113 11.1928 37.8115 11.1902 37.8115 11.1898L36.8116 11.1745ZM36.9466 10.61C36.8607 10.7859 36.8146 10.9787 36.8116 11.1745L37.8115 11.1898C37.8123 11.1409 37.8238 11.0927 37.8453 11.0487L36.9466 10.61ZM37.5449 9.90775C37.2145 10.2396 37.0443 10.41 36.9466 10.61L37.8453 11.0487C37.8454 11.0484 37.8464 11.0459 37.8527 11.0371C37.8605 11.0262 37.8758 11.0066 37.9062 10.9724C37.9694 10.9011 38.0719 10.7958 38.2535 10.6134L37.5449 9.90775ZM38.2036 9.24624L37.5449 9.90775L38.2535 10.6134L38.9122 9.95185L38.2036 9.24624ZM38.222 9.22777L38.2036 9.24624L38.9123 9.95185L38.9307 9.93337L38.222 9.22777ZM39.3245 8.06952C39.0737 8.37187 38.7082 8.73953 38.2221 9.22776L38.9306 9.93338C39.4038 9.45827 39.8075 9.05353 40.0941 8.70803L39.3245 8.06952ZM39.7417 7.29273C39.7155 7.52375 39.5783 7.7636 39.3245 8.06952L40.0941 8.70803C40.3736 8.37117 40.6747 7.9407 40.7354 7.40543L39.7417 7.29273ZM39.364 6.20395C39.6483 6.4909 39.7873 6.89131 39.7417 7.29273L40.7354 7.40542C40.815 6.70295 40.5719 6.00223 40.0743 5.50006L39.364 6.20395ZM38.5553 5.8525C38.944 5.93548 39.2003 6.0388 39.364 6.20395L40.0743 5.50006C39.6951 5.11741 39.1921 4.96591 38.7641 4.87453L38.5553 5.8525ZM36.9724 5.62596C37.6565 5.70816 38.1711 5.77048 38.5553 5.8525L38.7641 4.87453C38.325 4.78081 37.7574 4.71309 37.0917 4.6331L36.9724 5.62596ZM36.9465 5.62285L36.9724 5.62596L37.0917 4.6331L37.0658 4.62999L36.9465 5.62285ZM36.474 5.56607L36.9465 5.62285L37.0658 4.62999L36.5933 4.57321L36.474 5.56607ZM35.6399 5.40369C35.8279 5.48876 36.0474 5.5148 36.474 5.56607L36.5933 4.57321C36.3589 4.54504 36.2256 4.52752 36.1397 4.5125C36.0985 4.5053 36.0764 4.50004 36.0646 4.49676C36.0552 4.49412 36.0529 4.49293 36.0523 4.49266L35.6399 5.40369ZM35.2038 5.08656C35.326 5.22087 35.4745 5.32879 35.6399 5.40368L36.0523 4.49266C36.0109 4.47394 35.9738 4.44696 35.9432 4.41338L35.2038 5.08656ZM34.7921 4.34322C34.9724 4.73325 35.0649 4.934 35.2038 5.08656L35.9432 4.41338C35.9428 4.4129 35.941 4.41108 35.9355 4.40289C35.9288 4.39268 35.917 4.37328 35.8974 4.33634C35.8566 4.25926 35.7989 4.13788 35.6998 3.92357L34.7921 4.34322ZM34.5615 3.84446L34.7921 4.34322L35.6998 3.92357L35.4692 3.42481L34.5615 3.84446ZM34.5505 3.82064L34.5615 3.84446L35.4692 3.42481L35.4582 3.401L34.5505 3.82064ZM34.5508 3.82129L34.5509 3.82137L35.4579 3.40026L35.4578 3.40018L34.5508 3.82129ZM33.8147 2.31801C34.0194 2.67294 34.2476 3.16549 34.5505 3.82056L35.4582 3.40092C35.1631 2.76272 34.9135 2.22158 34.6809 1.81837L33.8147 2.31801ZM33.2112 1.63571C33.4242 1.73995 33.6077 1.95913 33.8147 2.31801L34.6809 1.81837C34.4562 1.42884 34.1477 0.980681 33.6507 0.737493L33.2112 1.63571Z"/><path fill="#312e81" d="M55.8193 1.1866L55.5995 0.737492L55.5995 0.737492L55.8193 1.1866ZM57.431 1.1866L57.2112 1.63571L57.2112 1.63571L57.431 1.1866ZM55.0025 2.06819L55.4356 2.31801L55.4356 2.31801L55.0025 2.06819ZM54.2459 3.61084L54.6997 3.82067L54.6997 3.82066L54.2459 3.61084ZM54.2349 3.63463L53.781 3.4248L53.781 3.42481L54.2349 3.63463ZM54.0043 4.1334L53.5504 3.92357L53.5504 3.92357L54.0043 4.1334ZM53.6767 4.74997L54.0465 5.08656L54.0465 5.08656L53.6767 4.74997ZM53.4041 4.94817L53.6103 5.40369L53.6103 5.40369L53.4041 4.94817ZM52.7166 5.06964L52.7763 5.56607L52.7763 5.56607L52.7166 5.06964ZM52.2441 5.12642L52.3038 5.62285L52.3038 5.62285L52.2441 5.12642ZM52.2182 5.12953L52.1585 4.6331L52.1562 4.63339L52.2182 5.12953ZM52.2182 5.12954L52.2778 5.62597L52.2802 5.62567L52.2182 5.12954ZM50.5906 5.36351L50.4862 4.87453L50.4862 4.87453L50.5906 5.36351ZM49.5311 5.852L49.176 5.50006L49.176 5.50006L49.5311 5.852ZM49.0117 7.34908L48.5149 7.40542L48.5149 7.40542L49.0117 7.34908ZM49.5409 8.38877L49.1561 8.70803L49.1561 8.70803L49.5409 8.38877ZM50.6739 9.58055L50.3196 9.93335L50.3196 9.93336L50.6739 9.58055ZM50.6923 9.59905L51.0466 9.24624L51.0466 9.24624L50.6923 9.59905ZM51.351 10.2606L50.9967 10.6134L50.9967 10.6134L51.351 10.2606ZM51.8543 10.8294L52.3036 10.61L52.3036 10.61L51.8543 10.8294ZM51.9387 11.1821L51.4387 11.1898L51.4387 11.1898L51.9387 11.1821ZM51.7472 11.9171L51.2716 11.7628L51.2716 11.7628L51.7472 11.9171ZM51.5724 12.4562L51.0968 12.3019L51.0968 12.3019L51.5724 12.4562ZM51.5642 12.4812L52.0398 12.6355L52.0398 12.6355L51.5642 12.4812ZM51.0071 14.3365L51.4944 14.4486L51.4944 14.4486L51.0071 14.3365ZM51.0109 15.6379L51.4714 15.443L51.4714 15.443L51.0109 15.6379ZM52.3022 16.7131L52.1938 17.2013L52.1938 17.2013L52.3022 16.7131ZM53.5827 16.4814L53.7811 16.9404L53.7811 16.9404L53.5827 16.4814ZM55.3065 15.5977L55.5443 16.0376L55.5474 16.0359L55.3065 15.5977ZM55.3065 15.5977L55.0687 15.1579L55.0656 15.1596L55.3065 15.5977ZM55.3297 15.5852L55.5675 16.025L55.5675 16.025L55.3297 15.5852ZM55.8482 15.3048L56.086 15.7446L56.086 15.7446L55.8482 15.3048ZM56.461 15.015L56.3625 14.5248L56.3625 14.5248L56.461 15.015ZM56.7893 15.015L56.8878 14.5248L56.8878 14.5248L56.7893 15.015ZM57.402 15.3048L57.6399 14.865L57.6399 14.865L57.402 15.3048ZM57.9205 15.5852L58.1584 15.1454L58.1584 15.1454L57.9205 15.5852ZM57.9435 15.5976L58.1864 15.1605L58.1814 15.1578L57.9435 15.5976ZM57.9436 15.5977L57.7008 16.0348L57.7058 16.0375L57.9436 15.5977ZM59.6676 16.4814L59.4692 16.9404L59.4692 16.9404L59.6676 16.4814ZM60.9481 16.7131L60.8398 16.225L60.8398 16.225L60.9481 16.7131ZM62.2393 15.6379L62.6998 15.8327L62.6998 15.8327L62.2393 15.6379ZM62.2431 14.3365L62.7304 14.2245L62.7304 14.2245L62.2431 14.3365ZM61.686 12.4812L62.1616 12.3269L62.1604 12.3231L61.686 12.4812ZM61.686 12.4812L61.2104 12.6355L61.2117 12.6393L61.686 12.4812ZM61.6779 12.4562L61.2023 12.6105L61.2023 12.6105L61.6779 12.4562ZM61.503 11.9171L61.0274 12.0714L61.0274 12.0714L61.503 11.9171ZM61.3116 11.1821L61.8115 11.1898L61.8115 11.1898L61.3116 11.1821ZM61.396 10.8294L60.9466 10.61L60.9466 10.61L61.396 10.8294ZM61.8992 10.2606L62.2535 10.6134L62.2535 10.6134L61.8992 10.2606ZM62.5579 9.59905L62.9122 9.95185L62.9123 9.95185L62.5579 9.59905ZM62.5763 9.58057L62.2221 9.22776L62.222 9.22777L62.5763 9.58057ZM63.7093 8.38877L63.3245 8.06952L63.3245 8.06952L63.7093 8.38877ZM64.2386 7.34908L64.7354 7.40543L64.7354 7.40542L64.2386 7.34908ZM63.7191 5.852L63.364 6.20395L63.364 6.20395L63.7191 5.852ZM62.6597 5.36351L62.7641 4.87453L62.7641 4.87453L62.6597 5.36351ZM61.0321 5.12953L61.0917 4.6331L61.0917 4.6331L61.0321 5.12953ZM61.0061 5.12642L60.9465 5.62285L60.9465 5.62285L61.0061 5.12642ZM60.5336 5.06964L60.474 5.56607L60.474 5.56607L60.5336 5.06964ZM59.8461 4.94817L59.6399 5.40368L59.6399 5.40369L59.8461 4.94817ZM59.5735 4.74997L59.2038 5.08656L59.2038 5.08656L59.5735 4.74997ZM59.246 4.1334L59.6998 3.92357L59.6998 3.92357L59.246 4.1334ZM59.0154 3.63464L59.4692 3.42481L59.4692 3.42481L59.0154 3.63464ZM59.0044 3.61082L59.4582 3.40099L59.4579 3.40026L59.0044 3.61082ZM59.0043 3.61074L58.5505 3.82056L58.5508 3.82129L59.0043 3.61074ZM58.2478 2.06819L57.8147 2.31801L57.8147 2.31801L58.2478 2.06819ZM56.0391 1.63571C56.4088 1.45477 56.8414 1.45477 57.2112 1.63571L57.6507 0.737493C57.0037 0.42084 56.2466 0.42084 55.5995 0.737492L56.0391 1.63571ZM55.4356 2.31801C55.6426 1.95913 55.8261 1.73995 56.0391 1.63571L55.5995 0.737492C55.1026 0.98068 54.794 1.42884 54.5694 1.81837L55.4356 2.31801ZM54.6997 3.82066C55.0026 3.16554 55.2309 2.67296 55.4356 2.31801L54.5694 1.81837C54.3368 2.2216 54.0871 2.76277 53.792 3.40102L54.6997 3.82066ZM54.6887 3.84446L54.6997 3.82067L53.792 3.40101L53.781 3.4248L54.6887 3.84446ZM54.4581 4.34322L54.6887 3.84446L53.781 3.42481L53.5504 3.92357L54.4581 4.34322ZM54.0465 5.08656C54.1854 4.934 54.2778 4.73326 54.4581 4.34322L53.5504 3.92357C53.4514 4.13787 53.3936 4.25926 53.3528 4.33634C53.3333 4.37328 53.3215 4.39268 53.3147 4.40289C53.3093 4.41108 53.3074 4.4129 53.307 4.41338L54.0465 5.08656ZM53.6103 5.40369C53.7758 5.32879 53.9242 5.22087 54.0465 5.08656L53.307 4.41338C53.2764 4.44696 53.2393 4.47394 53.198 4.49266L53.6103 5.40369ZM52.7763 5.56607C53.2029 5.5148 53.4224 5.48876 53.6103 5.40369L53.198 4.49266C53.1974 4.49293 53.1951 4.49412 53.1856 4.49676C53.1738 4.50004 53.1517 4.5053 53.1105 4.5125C53.0246 4.52752 52.8914 4.54504 52.6569 4.57321L52.7763 5.56607ZM52.3038 5.62285L52.7763 5.56607L52.6569 4.57321L52.1844 4.62999L52.3038 5.62285ZM52.2778 5.62596L52.3038 5.62285L52.1845 4.62999L52.1585 4.6331L52.2778 5.62596ZM52.2802 5.62567L52.2802 5.62567L52.1562 4.63339L52.1561 4.6334L52.2802 5.62567ZM50.695 5.8525C51.0791 5.77048 51.5937 5.70816 52.2778 5.62596L52.1585 4.63311C51.4928 4.71309 50.9252 4.78081 50.4862 4.87453L50.695 5.8525ZM49.8863 6.20395C50.0499 6.0388 50.3062 5.93548 50.695 5.8525L50.4862 4.87453C50.0581 4.96591 49.5551 5.11741 49.176 5.50006L49.8863 6.20395ZM49.5085 7.29273C49.463 6.89131 49.6019 6.4909 49.8863 6.20395L49.176 5.50006C48.6783 6.00223 48.4352 6.70295 48.5149 7.40542L49.5085 7.29273ZM49.9257 8.06952C49.6719 7.7636 49.5347 7.52375 49.5085 7.29273L48.5149 7.40542C48.5756 7.9407 48.8766 8.37117 49.1561 8.70803L49.9257 8.06952ZM51.0282 9.22774C50.542 8.73952 50.1766 8.37187 49.9257 8.06952L49.1561 8.70803C49.4428 9.05352 49.8465 9.45826 50.3196 9.93335L51.0282 9.22774ZM51.0466 9.24624L51.0282 9.22774L50.3196 9.93336L50.338 9.95186L51.0466 9.24624ZM51.7053 9.90775L51.0466 9.24624L50.338 9.95185L50.9967 10.6134L51.7053 9.90775ZM52.3036 10.61C52.206 10.41 52.0358 10.2396 51.7053 9.90775L50.9967 10.6134C51.1783 10.7958 51.2808 10.9011 51.3441 10.9724C51.3744 11.0066 51.3897 11.0262 51.3976 11.0371C51.4038 11.0459 51.4048 11.0484 51.405 11.0487L52.3036 10.61ZM52.4386 11.1745C52.4356 10.9787 52.3895 10.7859 52.3036 10.61L51.405 11.0487C51.4265 11.0927 51.438 11.1409 51.4387 11.1898L52.4386 11.1745ZM52.2228 12.0714C52.3674 11.626 52.442 11.397 52.4386 11.1745L51.4387 11.1898C51.4387 11.1902 51.439 11.1928 51.4373 11.2035C51.4353 11.2168 51.4306 11.2412 51.419 11.2855C51.3948 11.3776 51.3511 11.518 51.2716 11.7628L52.2228 12.0714ZM52.0479 12.6105L52.2228 12.0714L51.2716 11.7628L51.0968 12.3019L52.0479 12.6105ZM52.0398 12.6355L52.0479 12.6105L51.0968 12.3019L51.0886 12.3269L52.0398 12.6355ZM51.4944 14.4486C51.5974 14.0006 51.787 13.4146 52.0398 12.6355L51.0886 12.3269C50.8416 13.0884 50.635 13.7235 50.5198 14.2245L51.4944 14.4486ZM51.4714 15.443C51.3743 15.2136 51.3904 14.9007 51.4944 14.4486L50.5198 14.2245C50.4115 14.6957 50.3195 15.287 50.5505 15.8327L51.4714 15.443ZM52.4105 16.225C51.9894 16.1316 51.6395 15.8402 51.4714 15.443L50.5505 15.8327C50.8447 16.5279 51.4569 17.0378 52.1938 17.2013L52.4105 16.225ZM53.3843 16.0224C52.9585 16.2065 52.6537 16.279 52.4105 16.225L52.1938 17.2013C52.7723 17.3296 53.3373 17.1322 53.7811 16.9404L53.3843 16.0224ZM55.0686 15.1579C54.3482 15.5475 53.8062 15.8401 53.3843 16.0224L53.7811 16.9404C54.2529 16.7364 54.8402 16.4183 55.5443 16.0376L55.0686 15.1579ZM55.0656 15.1596L55.0655 15.1596L55.5474 16.0359L55.5475 16.0358L55.0656 15.1596ZM55.0919 15.1454L55.0687 15.1579L55.5443 16.0375L55.5675 16.025L55.0919 15.1454ZM55.6104 14.865L55.0919 15.1454L55.5675 16.025L56.086 15.7446L55.6104 14.865ZM56.3625 14.5248C56.1656 14.5644 55.9771 14.6667 55.6104 14.865L56.086 15.7446C56.2875 15.6357 56.4028 15.5749 56.4792 15.5387C56.5157 15.5213 56.5361 15.5131 56.5473 15.509C56.5562 15.5058 56.5587 15.5054 56.5595 15.5053L56.3625 14.5248ZM56.8878 14.5248C56.7144 14.49 56.5358 14.49 56.3625 14.5248L56.5595 15.5053C56.6028 15.4965 56.6474 15.4965 56.6908 15.5053L56.8878 14.5248ZM57.6399 14.865C57.2731 14.6667 57.0847 14.5644 56.8878 14.5248L56.6908 15.5053C56.6915 15.5054 56.694 15.5058 56.703 15.509C56.7141 15.5131 56.7345 15.5213 56.7711 15.5387C56.8475 15.5749 56.9627 15.6357 57.1642 15.7446L57.6399 14.865ZM58.1584 15.1454L57.6399 14.865L57.1642 15.7446L57.6827 16.025L58.1584 15.1454ZM58.1814 15.1578L58.1584 15.1454L57.6827 16.025L57.7057 16.0374L58.1814 15.1578ZM58.1864 15.1606L58.1864 15.1605L57.7007 16.0347L57.7008 16.0347L58.1864 15.1606ZM59.8659 16.0224C59.444 15.84 58.902 15.5475 58.1815 15.1578L57.7058 16.0375C58.41 16.4183 58.9973 16.7364 59.4692 16.9404L59.8659 16.0224ZM60.8398 16.225C60.5966 16.279 60.2917 16.2065 59.8659 16.0224L59.4692 16.9404C59.913 17.1322 60.4779 17.3296 61.0564 17.2013L60.8398 16.225ZM61.7788 15.443C61.6107 15.8402 61.2609 16.1316 60.8398 16.225L61.0564 17.2013C61.7933 17.0378 62.4056 16.5279 62.6998 15.8327L61.7788 15.443ZM61.7559 14.4486C61.8598 14.9007 61.8759 15.2136 61.7788 15.443L62.6998 15.8327C62.9307 15.287 62.8388 14.6957 62.7304 14.2245L61.7559 14.4486ZM61.2104 12.6355C61.4632 13.4146 61.6528 14.0006 61.7559 14.4486L62.7304 14.2245C62.6152 13.7235 62.4087 13.0884 62.1616 12.3269L61.2104 12.6355ZM61.2117 12.6393L61.2117 12.6393L62.1604 12.3231L62.1604 12.3231L61.2117 12.6393ZM61.2023 12.6105L61.2104 12.6355L62.1616 12.3269L62.1535 12.3018L61.2023 12.6105ZM61.0274 12.0714L61.2023 12.6105L62.1535 12.3019L61.9786 11.7628L61.0274 12.0714ZM60.8116 11.1745C60.8082 11.397 60.8829 11.626 61.0274 12.0714L61.9786 11.7628C61.8992 11.518 61.8555 11.3776 61.8313 11.2855C61.8197 11.2412 61.8149 11.2168 61.8129 11.2035C61.8113 11.1928 61.8115 11.1902 61.8115 11.1898L60.8116 11.1745ZM60.9466 10.61C60.8607 10.7859 60.8146 10.9787 60.8116 11.1745L61.8115 11.1898C61.8123 11.1409 61.8238 11.0927 61.8453 11.0487L60.9466 10.61ZM61.5449 9.90775C61.2145 10.2396 61.0443 10.41 60.9466 10.61L61.8453 11.0487C61.8454 11.0484 61.8464 11.0459 61.8527 11.0371C61.8605 11.0262 61.8758 11.0066 61.9062 10.9724C61.9694 10.9011 62.0719 10.7958 62.2535 10.6134L61.5449 9.90775ZM62.2036 9.24624L61.5449 9.90775L62.2535 10.6134L62.9122 9.95185L62.2036 9.24624ZM62.222 9.22777L62.2036 9.24624L62.9123 9.95185L62.9307 9.93337L62.222 9.22777ZM63.3245 8.06952C63.0737 8.37187 62.7082 8.73953 62.2221 9.22776L62.9306 9.93338C63.4038 9.45827 63.8075 9.05353 64.0941 8.70803L63.3245 8.06952ZM63.7417 7.29273C63.7155 7.52375 63.5783 7.7636 63.3245 8.06952L64.0941 8.70803C64.3736 8.37117 64.6747 7.9407 64.7354 7.40543L63.7417 7.29273ZM63.364 6.20395C63.6483 6.4909 63.7873 6.89131 63.7417 7.29273L64.7354 7.40542C64.815 6.70295 64.5719 6.00223 64.0743 5.50006L63.364 6.20395ZM62.5553 5.8525C62.944 5.93548 63.2003 6.0388 63.364 6.20395L64.0743 5.50006C63.6951 5.11741 63.1921 4.96591 62.7641 4.87453L62.5553 5.8525ZM60.9724 5.62596C61.6565 5.70816 62.1711 5.77048 62.5553 5.8525L62.7641 4.87453C62.325 4.78081 61.7574 4.71309 61.0917 4.6331L60.9724 5.62596ZM60.9465 5.62285L60.9724 5.62596L61.0917 4.6331L61.0658 4.62999L60.9465 5.62285ZM60.474 5.56607L60.9465 5.62285L61.0658 4.62999L60.5933 4.57321L60.474 5.56607ZM59.6399 5.40369C59.8279 5.48876 60.0474 5.5148 60.474 5.56607L60.5933 4.57321C60.3589 4.54504 60.2256 4.52752 60.1397 4.5125C60.0985 4.5053 60.0764 4.50004 60.0646 4.49676C60.0552 4.49412 60.0529 4.49293 60.0523 4.49266L59.6399 5.40369ZM59.2038 5.08656C59.326 5.22087 59.4745 5.32879 59.6399 5.40368L60.0523 4.49266C60.0109 4.47394 59.9738 4.44696 59.9432 4.41338L59.2038 5.08656ZM58.7921 4.34322C58.9724 4.73325 59.0649 4.934 59.2038 5.08656L59.9432 4.41338C59.9428 4.4129 59.941 4.41108 59.9355 4.40289C59.9288 4.39268 59.917 4.37328 59.8974 4.33634C59.8566 4.25926 59.7989 4.13788 59.6998 3.92357L58.7921 4.34322ZM58.5615 3.84446L58.7921 4.34322L59.6998 3.92357L59.4692 3.42481L58.5615 3.84446ZM58.5505 3.82064L58.5615 3.84446L59.4692 3.42481L59.4582 3.401L58.5505 3.82064ZM58.5508 3.82129L58.5509 3.82137L59.4579 3.40026L59.4578 3.40018L58.5508 3.82129ZM57.8147 2.31801C58.0194 2.67294 58.2476 3.16549 58.5505 3.82056L59.4582 3.40092C59.1631 2.76272 58.9135 2.22158 58.6809 1.81837L57.8147 2.31801ZM57.2112 1.63571C57.4242 1.73995 57.6077 1.95913 57.8147 2.31801L58.6809 1.81837C58.4562 1.42884 58.1477 0.980681 57.6507 0.737493L57.2112 1.63571Z"/><path fill="#312e81" d="M79.8193 1.1866L79.5995 0.737492L79.5995 0.737492L79.8193 1.1866ZM81.431 1.1866L81.2112 1.63571L81.2112 1.63571L81.431 1.1866ZM79.0025 2.06819L79.4356 2.31801L79.4356 2.31801L79.0025 2.06819ZM78.2459 3.61084L78.6997 3.82067L78.6997 3.82066L78.2459 3.61084ZM78.2349 3.63463L77.781 3.4248L77.781 3.42481L78.2349 3.63463ZM78.0043 4.1334L77.5504 3.92357L77.5504 3.92357L78.0043 4.1334ZM77.6767 4.74997L78.0465 5.08656L78.0465 5.08656L77.6767 4.74997ZM77.4041 4.94817L77.6103 5.40369L77.6103 5.40369L77.4041 4.94817ZM76.7166 5.06964L76.7763 5.56607L76.7763 5.56607L76.7166 5.06964ZM76.2441 5.12642L76.3038 5.62285L76.3038 5.62285L76.2441 5.12642ZM76.2182 5.12953L76.1585 4.6331L76.1562 4.63339L76.2182 5.12953ZM76.2182 5.12954L76.2778 5.62597L76.2802 5.62567L76.2182 5.12954ZM74.5906 5.36351L74.4862 4.87453L74.4862 4.87453L74.5906 5.36351ZM73.5311 5.852L73.176 5.50006L73.176 5.50006L73.5311 5.852ZM73.0117 7.34908L72.5149 7.40542L72.5149 7.40542L73.0117 7.34908ZM73.5409 8.38877L73.1561 8.70803L73.1561 8.70803L73.5409 8.38877ZM74.6739 9.58055L74.3196 9.93335L74.3196 9.93336L74.6739 9.58055ZM74.6923 9.59905L75.0466 9.24624L75.0466 9.24624L74.6923 9.59905ZM75.351 10.2606L74.9967 10.6134L74.9967 10.6134L75.351 10.2606ZM75.8543 10.8294L76.3036 10.61L76.3036 10.61L75.8543 10.8294ZM75.9387 11.1821L75.4387 11.1898L75.4387 11.1898L75.9387 11.1821ZM75.7472 11.9171L75.2716 11.7628L75.2716 11.7628L75.7472 11.9171ZM75.5724 12.4562L75.0968 12.3019L75.0968 12.3019L75.5724 12.4562ZM75.5642 12.4812L76.0398 12.6355L76.0398 12.6355L75.5642 12.4812ZM75.0071 14.3365L75.4944 14.4486L75.4944 14.4486L75.0071 14.3365ZM75.0109 15.6379L75.4714 15.443L75.4714 15.443L75.0109 15.6379ZM76.3022 16.7131L76.1938 17.2013L76.1938 17.2013L76.3022 16.7131ZM77.5827 16.4814L77.7811 16.9404L77.7811 16.9404L77.5827 16.4814ZM79.3065 15.5977L79.5443 16.0376L79.5474 16.0359L79.3065 15.5977ZM79.3065 15.5977L79.0687 15.1579L79.0656 15.1596L79.3065 15.5977ZM79.3297 15.5852L79.5675 16.025L79.5675 16.025L79.3297 15.5852ZM79.8482 15.3048L80.086 15.7446L80.086 15.7446L79.8482 15.3048ZM80.461 15.015L80.3625 14.5248L80.3625 14.5248L80.461 15.015ZM80.7893 15.015L80.8878 14.5248L80.8878 14.5248L80.7893 15.015ZM81.402 15.3048L81.6399 14.865L81.6399 14.865L81.402 15.3048ZM81.9205 15.5852L82.1584 15.1454L82.1584 15.1454L81.9205 15.5852ZM81.9435 15.5976L82.1864 15.1605L82.1814 15.1578L81.9435 15.5976ZM81.9436 15.5977L81.7008 16.0348L81.7058 16.0375L81.9436 15.5977ZM83.6676 16.4814L83.4692 16.9404L83.4692 16.9404L83.6676 16.4814ZM84.9481 16.7131L84.8398 16.225L84.8398 16.225L84.9481 16.7131ZM86.2393 15.6379L86.6998 15.8327L86.6998 15.8327L86.2393 15.6379ZM86.2431 14.3365L86.7304 14.2245L86.7304 14.2245L86.2431 14.3365ZM85.686 12.4812L86.1616 12.3269L86.1604 12.3231L85.686 12.4812ZM85.686 12.4812L85.2104 12.6355L85.2117 12.6393L85.686 12.4812ZM85.6779 12.4562L85.2023 12.6105L85.2023 12.6105L85.6779 12.4562ZM85.503 11.9171L85.0274 12.0714L85.0274 12.0714L85.503 11.9171ZM85.3116 11.1821L85.8115 11.1898L85.8115 11.1898L85.3116 11.1821ZM85.396 10.8294L84.9466 10.61L84.9466 10.61L85.396 10.8294ZM85.8992 10.2606L86.2535 10.6134L86.2535 10.6134L85.8992 10.2606ZM86.5579 9.59905L86.9122 9.95185L86.9123 9.95185L86.5579 9.59905ZM86.5763 9.58057L86.2221 9.22776L86.222 9.22777L86.5763 9.58057ZM87.7093 8.38877L87.3245 8.06952L87.3245 8.06952L87.7093 8.38877ZM88.2386 7.34908L88.7354 7.40543L88.7354 7.40542L88.2386 7.34908ZM87.7191 5.852L87.364 6.20395L87.364 6.20395L87.7191 5.852ZM86.6597 5.36351L86.7641 4.87453L86.7641 4.87453L86.6597 5.36351ZM85.0321 5.12953L85.0917 4.6331L85.0917 4.6331L85.0321 5.12953ZM85.0061 5.12642L84.9465 5.62285L84.9465 5.62285L85.0061 5.12642ZM84.5336 5.06964L84.474 5.56607L84.474 5.56607L84.5336 5.06964ZM83.8461 4.94817L83.6399 5.40368L83.6399 5.40369L83.8461 4.94817ZM83.5735 4.74997L83.2038 5.08656L83.2038 5.08656L83.5735 4.74997ZM83.246 4.1334L83.6998 3.92357L83.6998 3.92357L83.246 4.1334ZM83.0154 3.63464L83.4692 3.42481L83.4692 3.42481L83.0154 3.63464ZM83.0044 3.61082L83.4582 3.40099L83.4579 3.40026L83.0044 3.61082ZM83.0043 3.61074L82.5505 3.82056L82.5508 3.82129L83.0043 3.61074ZM82.2478 2.06819L81.8147 2.31801L81.8147 2.31801L82.2478 2.06819ZM80.0391 1.63571C80.4088 1.45477 80.8414 1.45477 81.2112 1.63571L81.6507 0.737493C81.0037 0.42084 80.2466 0.42084 79.5995 0.737492L80.0391 1.63571ZM79.4356 2.31801C79.6426 1.95913 79.8261 1.73995 80.0391 1.63571L79.5995 0.737492C79.1026 0.98068 78.794 1.42884 78.5694 1.81837L79.4356 2.31801ZM78.6997 3.82066C79.0026 3.16554 79.2309 2.67296 79.4356 2.31801L78.5694 1.81837C78.3368 2.2216 78.0871 2.76277 77.792 3.40102L78.6997 3.82066ZM78.6887 3.84446L78.6997 3.82067L77.792 3.40101L77.781 3.4248L78.6887 3.84446ZM78.4581 4.34322L78.6887 3.84446L77.781 3.42481L77.5504 3.92357L78.4581 4.34322ZM78.0465 5.08656C78.1854 4.934 78.2778 4.73326 78.4581 4.34322L77.5504 3.92357C77.4514 4.13787 77.3936 4.25926 77.3528 4.33634C77.3333 4.37328 77.3215 4.39268 77.3147 4.40289C77.3093 4.41108 77.3074 4.4129 77.307 4.41338L78.0465 5.08656ZM77.6103 5.40369C77.7758 5.32879 77.9242 5.22087 78.0465 5.08656L77.307 4.41338C77.2764 4.44696 77.2393 4.47394 77.198 4.49266L77.6103 5.40369ZM76.7763 5.56607C77.2029 5.5148 77.4224 5.48876 77.6103 5.40369L77.198 4.49266C77.1974 4.49293 77.1951 4.49412 77.1856 4.49676C77.1738 4.50004 77.1517 4.5053 77.1105 4.5125C77.0246 4.52752 76.8914 4.54504 76.6569 4.57321L76.7763 5.56607ZM76.3038 5.62285L76.7763 5.56607L76.6569 4.57321L76.1844 4.62999L76.3038 5.62285ZM76.2778 5.62596L76.3038 5.62285L76.1845 4.62999L76.1585 4.6331L76.2778 5.62596ZM76.2802 5.62567L76.2802 5.62567L76.1562 4.63339L76.1561 4.6334L76.2802 5.62567ZM74.695 5.8525C75.0791 5.77048 75.5937 5.70816 76.2778 5.62596L76.1585 4.63311C75.4928 4.71309 74.9252 4.78081 74.4862 4.87453L74.695 5.8525ZM73.8863 6.20395C74.0499 6.0388 74.3062 5.93548 74.695 5.8525L74.4862 4.87453C74.0581 4.96591 73.5551 5.11741 73.176 5.50006L73.8863 6.20395ZM73.5085 7.29273C73.463 6.89131 73.6019 6.4909 73.8863 6.20395L73.176 5.50006C72.6783 6.00223 72.4352 6.70295 72.5149 7.40542L73.5085 7.29273ZM73.9257 8.06952C73.6719 7.7636 73.5347 7.52375 73.5085 7.29273L72.5149 7.40542C72.5756 7.9407 72.8766 8.37117 73.1561 8.70803L73.9257 8.06952ZM75.0282 9.22774C74.542 8.73952 74.1766 8.37187 73.9257 8.06952L73.1561 8.70803C73.4428 9.05352 73.8465 9.45826 74.3196 9.93335L75.0282 9.22774ZM75.0466 9.24624L75.0282 9.22774L74.3196 9.93336L74.338 9.95186L75.0466 9.24624ZM75.7053 9.90775L75.0466 9.24624L74.338 9.95185L74.9967 10.6134L75.7053 9.90775ZM76.3036 10.61C76.206 10.41 76.0358 10.2396 75.7053 9.90775L74.9967 10.6134C75.1783 10.7958 75.2808 10.9011 75.3441 10.9724C75.3744 11.0066 75.3897 11.0262 75.3976 11.0371C75.4038 11.0459 75.4048 11.0484 75.405 11.0487L76.3036 10.61ZM76.4386 11.1745C76.4356 10.9787 76.3895 10.7859 76.3036 10.61L75.405 11.0487C75.4265 11.0927 75.438 11.1409 75.4387 11.1898L76.4386 11.1745ZM76.2228 12.0714C76.3674 11.626 76.442 11.397 76.4386 11.1745L75.4387 11.1898C75.4387 11.1902 75.439 11.1928 75.4373 11.2035C75.4353 11.2168 75.4306 11.2412 75.419 11.2855C75.3948 11.3776 75.3511 11.518 75.2716 11.7628L76.2228 12.0714ZM76.0479 12.6105L76.2228 12.0714L75.2716 11.7628L75.0968 12.3019L76.0479 12.6105ZM76.0398 12.6355L76.0479 12.6105L75.0968 12.3019L75.0886 12.3269L76.0398 12.6355ZM75.4944 14.4486C75.5974 14.0006 75.787 13.4146 76.0398 12.6355L75.0886 12.3269C74.8416 13.0884 74.635 13.7235 74.5198 14.2245L75.4944 14.4486ZM75.4714 15.443C75.3743 15.2136 75.3904 14.9007 75.4944 14.4486L74.5198 14.2245C74.4115 14.6957 74.3195 15.287 74.5505 15.8327L75.4714 15.443ZM76.4105 16.225C75.9894 16.1316 75.6395 15.8402 75.4714 15.443L74.5505 15.8327C74.8447 16.5279 75.4569 17.0378 76.1938 17.2013L76.4105 16.225ZM77.3843 16.0224C76.9585 16.2065 76.6537 16.279 76.4105 16.225L76.1938 17.2013C76.7723 17.3296 77.3373 17.1322 77.7811 16.9404L77.3843 16.0224ZM79.0686 15.1579C78.3482 15.5475 77.8062 15.8401 77.3843 16.0224L77.7811 16.9404C78.2529 16.7364 78.8402 16.4183 79.5443 16.0376L79.0686 15.1579ZM79.0656 15.1596L79.0655 15.1596L79.5474 16.0359L79.5475 16.0358L79.0656 15.1596ZM79.0919 15.1454L79.0687 15.1579L79.5443 16.0375L79.5675 16.025L79.0919 15.1454ZM79.6104 14.865L79.0919 15.1454L79.5675 16.025L80.086 15.7446L79.6104 14.865ZM80.3625 14.5248C80.1656 14.5644 79.9771 14.6667 79.6104 14.865L80.086 15.7446C80.2875 15.6357 80.4028 15.5749 80.4792 15.5387C80.5157 15.5213 80.5361 15.5131 80.5473 15.509C80.5562 15.5058 80.5587 15.5054 80.5595 15.5053L80.3625 14.5248ZM80.8878 14.5248C80.7144 14.49 80.5358 14.49 80.3625 14.5248L80.5595 15.5053C80.6028 15.4965 80.6474 15.4965 80.6908 15.5053L80.8878 14.5248ZM81.6399 14.865C81.2731 14.6667 81.0847 14.5644 80.8878 14.5248L80.6908 15.5053C80.6915 15.5054 80.694 15.5058 80.703 15.509C80.7141 15.5131 80.7345 15.5213 80.7711 15.5387C80.8475 15.5749 80.9627 15.6357 81.1642 15.7446L81.6399 14.865ZM82.1584 15.1454L81.6399 14.865L81.1642 15.7446L81.6827 16.025L82.1584 15.1454ZM82.1814 15.1578L82.1584 15.1454L81.6827 16.025L81.7057 16.0374L82.1814 15.1578ZM82.1864 15.1606L82.1864 15.1605L81.7007 16.0347L81.7008 16.0347L82.1864 15.1606ZM83.8659 16.0224C83.444 15.84 82.902 15.5475 82.1815 15.1578L81.7058 16.0375C82.41 16.4183 82.9973 16.7364 83.4692 16.9404L83.8659 16.0224ZM84.8398 16.225C84.5966 16.279 84.2917 16.2065 83.8659 16.0224L83.4692 16.9404C83.913 17.1322 84.4779 17.3296 85.0564 17.2013L84.8398 16.225ZM85.7788 15.443C85.6107 15.8402 85.2609 16.1316 84.8398 16.225L85.0564 17.2013C85.7933 17.0378 86.4056 16.5279 86.6998 15.8327L85.7788 15.443ZM85.7559 14.4486C85.8598 14.9007 85.8759 15.2136 85.7788 15.443L86.6998 15.8327C86.9307 15.287 86.8388 14.6957 86.7304 14.2245L85.7559 14.4486ZM85.2104 12.6355C85.4632 13.4146 85.6528 14.0006 85.7559 14.4486L86.7304 14.2245C86.6152 13.7235 86.4087 13.0884 86.1616 12.3269L85.2104 12.6355ZM85.2117 12.6393L85.2117 12.6393L86.1604 12.3231L86.1604 12.3231L85.2117 12.6393ZM85.2023 12.6105L85.2104 12.6355L86.1616 12.3269L86.1535 12.3018L85.2023 12.6105ZM85.0274 12.0714L85.2023 12.6105L86.1535 12.3019L85.9786 11.7628L85.0274 12.0714ZM84.8116 11.1745C84.8082 11.397 84.8829 11.626 85.0274 12.0714L85.9786 11.7628C85.8992 11.518 85.8555 11.3776 85.8313 11.2855C85.8197 11.2412 85.8149 11.2168 85.8129 11.2035C85.8113 11.1928 85.8115 11.1902 85.8115 11.1898L84.8116 11.1745ZM84.9466 10.61C84.8607 10.7859 84.8146 10.9787 84.8116 11.1745L85.8115 11.1898C85.8123 11.1409 85.8238 11.0927 85.8453 11.0487L84.9466 10.61ZM85.5449 9.90775C85.2145 10.2396 85.0443 10.41 84.9466 10.61L85.8453 11.0487C85.8454 11.0484 85.8464 11.0459 85.8527 11.0371C85.8605 11.0262 85.8758 11.0066 85.9062 10.9724C85.9694 10.9011 86.0719 10.7958 86.2535 10.6134L85.5449 9.90775ZM86.2036 9.24624L85.5449 9.90775L86.2535 10.6134L86.9122 9.95185L86.2036 9.24624ZM86.222 9.22777L86.2036 9.24624L86.9123 9.95185L86.9307 9.93337L86.222 9.22777ZM87.3245 8.06952C87.0737 8.37187 86.7082 8.73953 86.2221 9.22776L86.9306 9.93338C87.4038 9.45827 87.8075 9.05353 88.0941 8.70803L87.3245 8.06952ZM87.7417 7.29273C87.7155 7.52375 87.5783 7.7636 87.3245 8.06952L88.0941 8.70803C88.3736 8.37117 88.6747 7.9407 88.7354 7.40543L87.7417 7.29273ZM87.364 6.20395C87.6483 6.4909 87.7873 6.89131 87.7417 7.29273L88.7354 7.40542C88.815 6.70295 88.5719 6.00223 88.0743 5.50006L87.364 6.20395ZM86.5553 5.8525C86.944 5.93548 87.2003 6.0388 87.364 6.20395L88.0743 5.50006C87.6951 5.11741 87.1921 4.96591 86.7641 4.87453L86.5553 5.8525ZM84.9724 5.62596C85.6565 5.70816 86.1711 5.77048 86.5553 5.8525L86.7641 4.87453C86.325 4.78081 85.7574 4.71309 85.0917 4.6331L84.9724 5.62596ZM84.9465 5.62285L84.9724 5.62596L85.0917 4.6331L85.0658 4.62999L84.9465 5.62285ZM84.474 5.56607L84.9465 5.62285L85.0658 4.62999L84.5933 4.57321L84.474 5.56607ZM83.6399 5.40369C83.8279 5.48876 84.0474 5.5148 84.474 5.56607L84.5933 4.57321C84.3589 4.54504 84.2256 4.52752 84.1397 4.5125C84.0985 4.5053 84.0764 4.50004 84.0646 4.49676C84.0552 4.49412 84.0529 4.49293 84.0523 4.49266L83.6399 5.40369ZM83.2038 5.08656C83.326 5.22087 83.4745 5.32879 83.6399 5.40368L84.0523 4.49266C84.0109 4.47394 83.9738 4.44696 83.9432 4.41338L83.2038 5.08656ZM82.7921 4.34322C82.9724 4.73325 83.0649 4.934 83.2038 5.08656L83.9432 4.41338C83.9428 4.4129 83.941 4.41108 83.9355 4.40289C83.9288 4.39268 83.917 4.37328 83.8974 4.33634C83.8566 4.25926 83.7989 4.13788 83.6998 3.92357L82.7921 4.34322ZM82.5615 3.84446L82.7921 4.34322L83.6998 3.92357L83.4692 3.42481L82.5615 3.84446ZM82.5505 3.82064L82.5615 3.84446L83.4692 3.42481L83.4582 3.401L82.5505 3.82064ZM82.5508 3.82129L82.5509 3.82137L83.4579 3.40026L83.4578 3.40018L82.5508 3.82129ZM81.8147 2.31801C82.0194 2.67294 82.2476 3.16549 82.5505 3.82056L83.4582 3.40092C83.1631 2.76272 82.9135 2.22158 82.6809 1.81837L81.8147 2.31801ZM81.2112 1.63571C81.4242 1.73995 81.6077 1.95913 81.8147 2.31801L82.6809 1.81837C82.4562 1.42884 82.1477 0.980681 81.6507 0.737493L81.2112 1.63571Z"/><path fill="#312e81" d="M103.819 1.1866L103.6 0.737492L103.6 0.737492L103.819 1.1866ZM105.431 1.1866L105.211 1.63571L105.211 1.63571L105.431 1.1866ZM103.002 2.06819L103.436 2.31801L103.436 2.31801L103.002 2.06819ZM102.246 3.61084L102.7 3.82067L102.7 3.82066L102.246 3.61084ZM102.235 3.63463L101.781 3.4248L101.781 3.42481L102.235 3.63463ZM102.004 4.1334L101.55 3.92357L101.55 3.92357L102.004 4.1334ZM101.677 4.74997L102.046 5.08656L102.046 5.08656L101.677 4.74997ZM101.404 4.94817L101.61 5.40369L101.61 5.40369L101.404 4.94817ZM100.717 5.06964L100.776 5.56607L100.776 5.56607L100.717 5.06964ZM100.244 5.12642L100.304 5.62285L100.304 5.62285L100.244 5.12642ZM100.218 5.12953L100.159 4.6331L100.156 4.63339L100.218 5.12953ZM100.218 5.12954L100.278 5.62597L100.28 5.62567L100.218 5.12954ZM98.5906 5.36351L98.4862 4.87453L98.4862 4.87453L98.5906 5.36351ZM97.5311 5.852L97.176 5.50006L97.176 5.50006L97.5311 5.852ZM97.0117 7.34908L96.5149 7.40542L96.5149 7.40542L97.0117 7.34908ZM97.5409 8.38877L97.1561 8.70803L97.1561 8.70803L97.5409 8.38877ZM98.6739 9.58055L98.3196 9.93335L98.3196 9.93336L98.6739 9.58055ZM98.6923 9.59905L99.0466 9.24624L99.0466 9.24624L98.6923 9.59905ZM99.351 10.2606L98.9967 10.6134L98.9967 10.6134L99.351 10.2606ZM99.8543 10.8294L100.304 10.61L100.304 10.61L99.8543 10.8294ZM99.9387 11.1821L99.4387 11.1898L99.4387 11.1898L99.9387 11.1821ZM99.7472 11.9171L99.2716 11.7628L99.2716 11.7628L99.7472 11.9171ZM99.5724 12.4562L99.0968 12.3019L99.0968 12.3019L99.5724 12.4562ZM99.5642 12.4812L100.04 12.6355L100.04 12.6355L99.5642 12.4812ZM99.0071 14.3365L99.4944 14.4486L99.4944 14.4486L99.0071 14.3365ZM99.0109 15.6379L99.4714 15.443L99.4714 15.443L99.0109 15.6379ZM100.302 16.7131L100.194 17.2013L100.194 17.2013L100.302 16.7131ZM101.583 16.4814L101.781 16.9404L101.781 16.9404L101.583 16.4814ZM103.306 15.5977L103.544 16.0376L103.547 16.0359L103.306 15.5977ZM103.307 15.5977L103.069 15.1579L103.066 15.1596L103.307 15.5977ZM103.33 15.5852L103.568 16.025L103.568 16.025L103.33 15.5852ZM103.848 15.3048L104.086 15.7446L104.086 15.7446L103.848 15.3048ZM104.461 15.015L104.362 14.5248L104.362 14.5248L104.461 15.015ZM104.789 15.015L104.888 14.5248L104.888 14.5248L104.789 15.015ZM105.402 15.3048L105.64 14.865L105.64 14.865L105.402 15.3048ZM105.921 15.5852L106.158 15.1454L106.158 15.1454L105.921 15.5852ZM105.944 15.5976L106.186 15.1605L106.181 15.1578L105.944 15.5976ZM105.944 15.5977L105.701 16.0348L105.706 16.0375L105.944 15.5977ZM107.668 16.4814L107.469 16.9404L107.469 16.9404L107.668 16.4814ZM108.948 16.7131L108.84 16.225L108.84 16.225L108.948 16.7131ZM110.239 15.6379L110.7 15.8327L110.7 15.8327L110.239 15.6379ZM110.243 14.3365L110.73 14.2245L110.73 14.2245L110.243 14.3365ZM109.686 12.4812L110.162 12.3269L110.16 12.3231L109.686 12.4812ZM109.686 12.4812L109.21 12.6355L109.212 12.6393L109.686 12.4812ZM109.678 12.4562L109.202 12.6105L109.202 12.6105L109.678 12.4562ZM109.503 11.9171L109.027 12.0714L109.027 12.0714L109.503 11.9171ZM109.312 11.1821L109.812 11.1898L109.812 11.1898L109.312 11.1821ZM109.396 10.8294L108.947 10.61L108.947 10.61L109.396 10.8294ZM109.899 10.2606L110.254 10.6134L110.254 10.6134L109.899 10.2606ZM110.558 9.59905L110.912 9.95185L110.912 9.95185L110.558 9.59905ZM110.576 9.58057L110.222 9.22776L110.222 9.22777L110.576 9.58057ZM111.709 8.38877L111.325 8.06952L111.325 8.06952L111.709 8.38877ZM112.239 7.34908L112.735 7.40543L112.735 7.40542L112.239 7.34908ZM111.719 5.852L111.364 6.20395L111.364 6.20395L111.719 5.852ZM110.66 5.36351L110.764 4.87453L110.764 4.87453L110.66 5.36351ZM109.032 5.12953L109.092 4.6331L109.092 4.6331L109.032 5.12953ZM109.006 5.12642L108.946 5.62285L108.946 5.62285L109.006 5.12642ZM108.534 5.06964L108.474 5.56607L108.474 5.56607L108.534 5.06964ZM107.846 4.94817L107.64 5.40368L107.64 5.40369L107.846 4.94817ZM107.574 4.74997L107.204 5.08656L107.204 5.08656L107.574 4.74997ZM107.246 4.1334L107.7 3.92357L107.7 3.92357L107.246 4.1334ZM107.015 3.63464L107.469 3.42481L107.469 3.42481L107.015 3.63464ZM107.004 3.61082L107.458 3.40099L107.458 3.40026L107.004 3.61082ZM107.004 3.61074L106.55 3.82056L106.551 3.82129L107.004 3.61074ZM106.248 2.06819L105.815 2.31801L105.815 2.31801L106.248 2.06819ZM104.039 1.63571C104.409 1.45477 104.841 1.45477 105.211 1.63571L105.651 0.737493C105.004 0.42084 104.247 0.42084 103.6 0.737492L104.039 1.63571ZM103.436 2.31801C103.643 1.95913 103.826 1.73995 104.039 1.63571L103.6 0.737492C103.103 0.98068 102.794 1.42884 102.569 1.81837L103.436 2.31801ZM102.7 3.82066C103.003 3.16554 103.231 2.67296 103.436 2.31801L102.569 1.81837C102.337 2.2216 102.087 2.76277 101.792 3.40102L102.7 3.82066ZM102.689 3.84446L102.7 3.82067L101.792 3.40101L101.781 3.4248L102.689 3.84446ZM102.458 4.34322L102.689 3.84446L101.781 3.42481L101.55 3.92357L102.458 4.34322ZM102.046 5.08656C102.185 4.934 102.278 4.73326 102.458 4.34322L101.55 3.92357C101.451 4.13787 101.394 4.25926 101.353 4.33634C101.333 4.37328 101.321 4.39268 101.315 4.40289C101.309 4.41108 101.307 4.4129 101.307 4.41338L102.046 5.08656ZM101.61 5.40369C101.776 5.32879 101.924 5.22087 102.046 5.08656L101.307 4.41338C101.276 4.44696 101.239 4.47394 101.198 4.49266L101.61 5.40369ZM100.776 5.56607C101.203 5.5148 101.422 5.48876 101.61 5.40369L101.198 4.49266C101.197 4.49293 101.195 4.49412 101.186 4.49676C101.174 4.50004 101.152 4.5053 101.111 4.5125C101.025 4.52752 100.891 4.54504 100.657 4.57321L100.776 5.56607ZM100.304 5.62285L100.776 5.56607L100.657 4.57321L100.184 4.62999L100.304 5.62285ZM100.278 5.62596L100.304 5.62285L100.184 4.62999L100.159 4.6331L100.278 5.62596ZM100.28 5.62567L100.28 5.62567L100.156 4.63339L100.156 4.6334L100.28 5.62567ZM98.695 5.8525C99.0791 5.77048 99.5937 5.70816 100.278 5.62596L100.159 4.63311C99.4928 4.71309 98.9252 4.78081 98.4862 4.87453L98.695 5.8525ZM97.8863 6.20395C98.0499 6.0388 98.3062 5.93548 98.695 5.8525L98.4862 4.87453C98.0581 4.96591 97.5551 5.11741 97.176 5.50006L97.8863 6.20395ZM97.5085 7.29273C97.463 6.89131 97.6019 6.4909 97.8863 6.20395L97.176 5.50006C96.6783 6.00223 96.4352 6.70295 96.5149 7.40542L97.5085 7.29273ZM97.9257 8.06952C97.6719 7.7636 97.5347 7.52375 97.5085 7.29273L96.5149 7.40542C96.5756 7.9407 96.8766 8.37117 97.1561 8.70803L97.9257 8.06952ZM99.0282 9.22774C98.542 8.73952 98.1766 8.37187 97.9257 8.06952L97.1561 8.70803C97.4428 9.05352 97.8465 9.45826 98.3196 9.93335L99.0282 9.22774ZM99.0466 9.24624L99.0282 9.22774L98.3196 9.93336L98.338 9.95186L99.0466 9.24624ZM99.7053 9.90775L99.0466 9.24624L98.338 9.95185L98.9967 10.6134L99.7053 9.90775ZM100.304 10.61C100.206 10.41 100.036 10.2396 99.7053 9.90775L98.9967 10.6134C99.1783 10.7958 99.2808 10.9011 99.3441 10.9724C99.3744 11.0066 99.3897 11.0262 99.3976 11.0371C99.4038 11.0459 99.4048 11.0484 99.405 11.0487L100.304 10.61ZM100.439 11.1745C100.436 10.9787 100.39 10.7859 100.304 10.61L99.405 11.0487C99.4265 11.0927 99.438 11.1409 99.4387 11.1898L100.439 11.1745ZM100.223 12.0714C100.367 11.626 100.442 11.397 100.439 11.1745L99.4387 11.1898C99.4387 11.1902 99.439 11.1928 99.4373 11.2035C99.4353 11.2168 99.4306 11.2412 99.419 11.2855C99.3948 11.3776 99.3511 11.518 99.2716 11.7628L100.223 12.0714ZM100.048 12.6105L100.223 12.0714L99.2716 11.7628L99.0968 12.3019L100.048 12.6105ZM100.04 12.6355L100.048 12.6105L99.0968 12.3019L99.0886 12.3269L100.04 12.6355ZM99.4944 14.4486C99.5974 14.0006 99.787 13.4146 100.04 12.6355L99.0886 12.3269C98.8416 13.0884 98.635 13.7235 98.5198 14.2245L99.4944 14.4486ZM99.4714 15.443C99.3743 15.2136 99.3904 14.9007 99.4944 14.4486L98.5198 14.2245C98.4115 14.6957 98.3195 15.287 98.5505 15.8327L99.4714 15.443ZM100.41 16.225C99.9894 16.1316 99.6395 15.8402 99.4714 15.443L98.5505 15.8327C98.8447 16.5279 99.4569 17.0378 100.194 17.2013L100.41 16.225ZM101.384 16.0224C100.958 16.2065 100.654 16.279 100.41 16.225L100.194 17.2013C100.772 17.3296 101.337 17.1322 101.781 16.9404L101.384 16.0224ZM103.069 15.1579C102.348 15.5475 101.806 15.8401 101.384 16.0224L101.781 16.9404C102.253 16.7364 102.84 16.4183 103.544 16.0376L103.069 15.1579ZM103.066 15.1596L103.066 15.1596L103.547 16.0359L103.547 16.0358L103.066 15.1596ZM103.092 15.1454L103.069 15.1579L103.544 16.0375L103.568 16.025L103.092 15.1454ZM103.61 14.865L103.092 15.1454L103.568 16.025L104.086 15.7446L103.61 14.865ZM104.362 14.5248C104.166 14.5644 103.977 14.6667 103.61 14.865L104.086 15.7446C104.288 15.6357 104.403 15.5749 104.479 15.5387C104.516 15.5213 104.536 15.5131 104.547 15.509C104.556 15.5058 104.559 15.5054 104.559 15.5053L104.362 14.5248ZM104.888 14.5248C104.714 14.49 104.536 14.49 104.362 14.5248L104.559 15.5053C104.603 15.4965 104.647 15.4965 104.691 15.5053L104.888 14.5248ZM105.64 14.865C105.273 14.6667 105.085 14.5644 104.888 14.5248L104.691 15.5053C104.692 15.5054 104.694 15.5058 104.703 15.509C104.714 15.5131 104.735 15.5213 104.771 15.5387C104.847 15.5749 104.963 15.6357 105.164 15.7446L105.64 14.865ZM106.158 15.1454L105.64 14.865L105.164 15.7446L105.683 16.025L106.158 15.1454ZM106.181 15.1578L106.158 15.1454L105.683 16.025L105.706 16.0374L106.181 15.1578ZM106.186 15.1606L106.186 15.1605L105.701 16.0347L105.701 16.0347L106.186 15.1606ZM107.866 16.0224C107.444 15.84 106.902 15.5475 106.181 15.1578L105.706 16.0375C106.41 16.4183 106.997 16.7364 107.469 16.9404L107.866 16.0224ZM108.84 16.225C108.597 16.279 108.292 16.2065 107.866 16.0224L107.469 16.9404C107.913 17.1322 108.478 17.3296 109.056 17.2013L108.84 16.225ZM109.779 15.443C109.611 15.8402 109.261 16.1316 108.84 16.225L109.056 17.2013C109.793 17.0378 110.406 16.5279 110.7 15.8327L109.779 15.443ZM109.756 14.4486C109.86 14.9007 109.876 15.2136 109.779 15.443L110.7 15.8327C110.931 15.287 110.839 14.6957 110.73 14.2245L109.756 14.4486ZM109.21 12.6355C109.463 13.4146 109.653 14.0006 109.756 14.4486L110.73 14.2245C110.615 13.7235 110.409 13.0884 110.162 12.3269L109.21 12.6355ZM109.212 12.6393L109.212 12.6393L110.16 12.3231L110.16 12.3231L109.212 12.6393ZM109.202 12.6105L109.21 12.6355L110.162 12.3269L110.153 12.3018L109.202 12.6105ZM109.027 12.0714L109.202 12.6105L110.153 12.3019L109.979 11.7628L109.027 12.0714ZM108.812 11.1745C108.808 11.397 108.883 11.626 109.027 12.0714L109.979 11.7628C109.899 11.518 109.855 11.3776 109.831 11.2855C109.82 11.2412 109.815 11.2168 109.813 11.2035C109.811 11.1928 109.812 11.1902 109.812 11.1898L108.812 11.1745ZM108.947 10.61C108.861 10.7859 108.815 10.9787 108.812 11.1745L109.812 11.1898C109.812 11.1409 109.824 11.0927 109.845 11.0487L108.947 10.61ZM109.545 9.90775C109.214 10.2396 109.044 10.41 108.947 10.61L109.845 11.0487C109.845 11.0484 109.846 11.0459 109.853 11.0371C109.861 11.0262 109.876 11.0066 109.906 10.9724C109.969 10.9011 110.072 10.7958 110.254 10.6134L109.545 9.90775ZM110.204 9.24624L109.545 9.90775L110.254 10.6134L110.912 9.95185L110.204 9.24624ZM110.222 9.22777L110.204 9.24624L110.912 9.95185L110.931 9.93337L110.222 9.22777ZM111.325 8.06952C111.074 8.37187 110.708 8.73953 110.222 9.22776L110.931 9.93338C111.404 9.45827 111.807 9.05353 112.094 8.70803L111.325 8.06952ZM111.742 7.29273C111.716 7.52375 111.578 7.7636 111.325 8.06952L112.094 8.70803C112.374 8.37117 112.675 7.9407 112.735 7.40543L111.742 7.29273ZM111.364 6.20395C111.648 6.4909 111.787 6.89131 111.742 7.29273L112.735 7.40542C112.815 6.70295 112.572 6.00223 112.074 5.50006L111.364 6.20395ZM110.555 5.8525C110.944 5.93548 111.2 6.0388 111.364 6.20395L112.074 5.50006C111.695 5.11741 111.192 4.96591 110.764 4.87453L110.555 5.8525ZM108.972 5.62596C109.656 5.70816 110.171 5.77048 110.555 5.8525L110.764 4.87453C110.325 4.78081 109.757 4.71309 109.092 4.6331L108.972 5.62596ZM108.946 5.62285L108.972 5.62596L109.092 4.6331L109.066 4.62999L108.946 5.62285ZM108.474 5.56607L108.946 5.62285L109.066 4.62999L108.593 4.57321L108.474 5.56607ZM107.64 5.40369C107.828 5.48876 108.047 5.5148 108.474 5.56607L108.593 4.57321C108.359 4.54504 108.226 4.52752 108.14 4.5125C108.099 4.5053 108.076 4.50004 108.065 4.49676C108.055 4.49412 108.053 4.49293 108.052 4.49266L107.64 5.40369ZM107.204 5.08656C107.326 5.22087 107.474 5.32879 107.64 5.40368L108.052 4.49266C108.011 4.47394 107.974 4.44696 107.943 4.41338L107.204 5.08656ZM106.792 4.34322C106.972 4.73325 107.065 4.934 107.204 5.08656L107.943 4.41338C107.943 4.4129 107.941 4.41108 107.936 4.40289C107.929 4.39268 107.917 4.37328 107.897 4.33634C107.857 4.25926 107.799 4.13788 107.7 3.92357L106.792 4.34322ZM106.562 3.84446L106.792 4.34322L107.7 3.92357L107.469 3.42481L106.562 3.84446ZM106.551 3.82064L106.562 3.84446L107.469 3.42481L107.458 3.401L106.551 3.82064ZM106.551 3.82129L106.551 3.82137L107.458 3.40026L107.458 3.40018L106.551 3.82129ZM105.815 2.31801C106.019 2.67294 106.248 3.16549 106.55 3.82056L107.458 3.40092C107.163 2.76272 106.913 2.22158 106.681 1.81837L105.815 2.31801ZM105.211 1.63571C105.424 1.73995 105.608 1.95913 105.815 2.31801L106.681 1.81837C106.456 1.42884 106.148 0.980681 105.651 0.737493L105.211 1.63571Z"/></svg>