<?xml version="1.0"?>
<svg xmlns="http://www.w3.org/2000/svg" viewBox="0 0 64 64" width="512" height="512"><g id="_15-confetti" data-name="15-confetti"><path d="M27.27,50c-.06,0-6.8-2-10.56-5.75S13,34.07,13,34a1,1,0,0,0-1.94-.35l-11,29a1,1,0,0,0,.26,1.08A1,1,0,0,0,1,64a1,1,0,0,0,.42-.09l26-12A1,1,0,0,0,27.27,50ZM8.52,46a22.25,22.25,0,0,0,5.16,10.06L7.73,58.79,6.11,52.34ZM4.87,55.61l1,4L2.8,61.07Zm10.72-.44A20.91,20.91,0,0,1,10,42.09l1.5-4a15.43,15.43,0,0,0,3.79,7.58,27.06,27.06,0,0,0,9,5.42Z"/><path d="M11.87,12.32,11,16.81a1,1,0,0,0,1.55,1L16,15.43l3.43,2.39A1,1,0,0,0,20,18a1,1,0,0,0,.54-.16,1,1,0,0,0,.44-1l-.85-4.49L22.71,9.7A1,1,0,0,0,22.14,8L18.58,7.5,16.92,3.61a1,1,0,0,0-1.84,0L13.42,7.5,9.86,8A1,1,0,0,0,9.29,9.7Zm2.39-2.93A1,1,0,0,0,15,8.8l1-2.26L17,8.8a1,1,0,0,0,.77.59l2.16.32-1.56,1.58a1,1,0,0,0-.27.89l.49,2.6-2-1.39a1,1,0,0,0-1.14,0l-2,1.39.49-2.6a1,1,0,0,0-.27-.89L12.1,9.71Z"/><path d="M63.14,45.5,59.58,45,57.92,41.1a1,1,0,0,0-1.84,0L54.42,45l-3.56.52a1,1,0,0,0-.57,1.69l2.58,2.62L52,54.3a1,1,0,0,0,1.55,1L57,52.92l3.43,2.39a1,1,0,0,0,.57.18,1,1,0,0,0,.54-.16,1,1,0,0,0,.44-1l-.85-4.49,2.58-2.62a1,1,0,0,0-.57-1.69Zm-3.8,3.28a1,1,0,0,0-.27.89l.49,2.6-2-1.39a1,1,0,0,0-1.14,0l-2,1.39.49-2.6a1,1,0,0,0-.27-.89L53.1,47.2l2.16-.32a1,1,0,0,0,.77-.59L57,44l1,2.26a1,1,0,0,0,.77.59l2.16.32Z"/><path d="M30.6,8.92l4.52,2,2,4.52a1,1,0,0,0,1.84,0l2-4.52,4.52-2a1,1,0,0,0,0-1.84l-4.52-2L38.92.6a1,1,0,0,0-1.84,0l-2,4.52-4.52,2a1,1,0,0,0,0,1.84ZM36.28,6.8a1.09,1.09,0,0,0,.52-.52L38,3.51l1.2,2.77a1.09,1.09,0,0,0,.52.52L42.49,8,39.72,9.2a1.09,1.09,0,0,0-.52.52L38,12.49,36.8,9.72a1.09,1.09,0,0,0-.52-.52L33.51,8Z"/><path d="M56.28,31a1,1,0,0,0,0-1.84l-4.52-2-2-4.52a1,1,0,0,0-1.84,0l-2,4.52-4.52,2a1,1,0,0,0,0,1.84L46,33l2,4.52a1,1,0,0,0,1.84,0l2-4.52Zm-6.2.8-1.2,2.77-1.21-2.77a1,1,0,0,0-.51-.51l-2.77-1.21,2.77-1.2a1,1,0,0,0,.51-.52l1.21-2.77,1.2,2.77a1,1,0,0,0,.52.52l2.77,1.2L50.6,31.33A1,1,0,0,0,50.08,31.84Z"/><path d="M14.73,37A.84.84,0,0,0,15,37a1,1,0,0,0,1-.73,46.21,46.21,0,0,0,1-16.38,1,1,0,1,0-2,.22,45.37,45.37,0,0,1-1,15.62A1,1,0,0,0,14.73,37Z"/><path d="M46,43.11a1,1,0,0,0-.88-1.1c-9.26-1-18.28,4.9-18.66,5.16A1,1,0,0,0,27,49a.94.94,0,0,0,.55-.17c.09-.06,8.8-5.79,17.34-4.84A1,1,0,0,0,46,43.11Z"/><path d="M16.33,39.74A1,1,0,0,0,17,40a1,1,0,0,0,.74-.33C18.16,39.21,28,28.27,29,15.08a1,1,0,1,0-2-.16c-1,12.5-10.64,23.3-10.74,23.41A1,1,0,0,0,16.33,39.74Z"/><path d="M38.86,35c-7.25,1-13.31,7-13.57,7.28a1,1,0,0,0,0,1.42,1,1,0,0,0,1.42,0c.05-.06,5.85-5.78,12.43-6.72a1,1,0,1,0-.28-2Z"/><path d="M42.94,23.65a1,1,0,0,0-1.29-.59C33.52,26.11,20.8,39.74,20.27,40.32A1,1,0,0,0,21,42a1,1,0,0,0,.73-.32c.13-.14,12.93-13.86,20.62-16.74A1,1,0,0,0,42.94,23.65Z"/><rect x="22" y="44" width="2" height="2"/><rect x="17" y="42" width="2" height="2"/><path d="M54.29,19.71A1,1,0,0,0,55,20h.16a1,1,0,0,0,.73-.54l2-4a1,1,0,0,0-.34-1.28l-3-2a1,1,0,0,0-1.1,0l-3,2a1,1,0,0,0-.45.73,1,1,0,0,0,.29.81ZM54,14.2l1.71,1.14-1,2-2.16-2.15Z"/><path d="M36.6,58.2l-4-3a1,1,0,0,0-1.31.09l-2,2a1,1,0,0,0,0,1.42l3,3A1,1,0,0,0,33,62a.92.92,0,0,0,.55-.17l3-2A1,1,0,0,0,37,59,1,1,0,0,0,36.6,58.2Zm-3.47,1.51L31.41,58l.68-.68L34.27,59Z"/><path d="M6.11,28.45A1,1,0,0,0,7,29a1,1,0,0,0,.24,0l4-1a1,1,0,0,0,.67-.55,1,1,0,0,0,0-.87l-2-4A1,1,0,0,0,8.76,22l-4,1a1,1,0,0,0-.67.55,1,1,0,0,0,0,.87Zm2.35-4.29,1.09,2.17-2,.51L6.45,24.67Z"/><path d="M44,56a1,1,0,0,0-1,1v2a1,1,0,0,0,2,0V57A1,1,0,0,0,44,56Z"/><path d="M44,50a1,1,0,0,0-1,1v2a1,1,0,0,0,2,0V51A1,1,0,0,0,44,50Z"/><path d="M42,54H40a1,1,0,0,0,0,2h2a1,1,0,0,0,0-2Z"/><path d="M48,54H46a1,1,0,0,0,0,2h2a1,1,0,0,0,0-2Z"/><path d="M59,6a1,1,0,0,0-1,1V9a1,1,0,0,0,2,0V7A1,1,0,0,0,59,6Z"/><path d="M59,4a1,1,0,0,0,1-1V1a1,1,0,0,0-2,0V3A1,1,0,0,0,59,4Z"/><path d="M55,6h2a1,1,0,0,0,0-2H55a1,1,0,0,0,0,2Z"/><path d="M61,6h2a1,1,0,0,0,0-2H61a1,1,0,0,0,0,2Z"/></g></svg>
