<svg height="512" viewBox="0 0 96 96" width="512" xmlns="http://www.w3.org/2000/svg"><g id="Layer_4"><g><path d="m25.583 71.319h41.948v-1.497c0-3.013-.838-5.834-2.275-8.26l6.198 6.73c.082.09 4.256 3.473 4.256 3.473l6.039 12.057c.572 1.142 1.735 1.807 2.952 1.805.497 0 1.003-.109 1.482-.345 1.619-.826 2.281-2.806 1.476-4.418l-5.914-11.806c-2.504-6.03-7.326-20.747-7.326-20.747-.28-1.467-1.614-2.496-3.104-2.356l-2.374.201c-2.931.246-5.62 1.592-7.572 3.79l-1.593 1.797c-.979 1.103-.979 2.765.019 3.886l.849.922c-2.255-1.602-4.923-2.658-7.817-2.937v-2.871c0-.016-.009-.029-.009-.046 4.151-2.737 8.16-7.432 8.585-13.111 0 0-.043-1.417-.076-1.54.159-1.536-.027-7.196-4.865-9.481-.591-.279-1.383-.583-2.247-.914-1.35-.516-4.486-1.717-4.916-2.487-.042-.787-.695-1.415-1.495-1.415-.827 0-1.497.67-1.497 1.497 0 .127.165 5.784-3.454 8.707-5.248 4.24-14.729 2.533-14.824 2.516-.25-.048-.489-.013-.715.058-.039-1.562-.062-2.574-.062-2.602 0-10.235 8.318-18.561 18.542-18.561 4.939 0 9.601 1.931 13.122 5.431 3.507 3.529 5.439 8.191 5.441 13.065 0 0-.241 5.656-.623 12.484-.046.826.585 1.532 1.411 1.579.834.086 1.532-.587 1.578-1.411.383-6.852.625-12.523.626-12.587 0-5.735-2.241-11.147-6.316-15.246-4.092-4.067-9.504-6.308-15.239-6.308-11.874 0-21.535 9.668-21.535 21.585.003.133.287 13.24.707 19.913.05.793.709 1.403 1.492 1.403.032 0 1.622-.134 1.495-1.59-.337-3.857-.44-9.914-.563-14.304.029.007 1.323.257 2.956.371.44 5.5 4.75 10.02 8.859 12.744-.014.084-.05 3.26-.05 3.26-1.617.275-3.153.814-4.594 1.546-.065-.775-.409-1.508-.988-2.051-.758-.705-1.816-1.006-2.828-.783l-1.298.275c-1.004.224-1.927.709-2.678 1.409l-6.201 5.891c-.696-.102-1.428.05-1.936.524l-9.274 8.581c-1.727 1.618-1.817 4.338-.201 6.065l2.812 3.005c.439.47 1.06.739 1.703.739.594 0 1.161-.224 1.594-.629l10.404-9.645c-.029.383-.087 2.639-.087 2.639zm59.259 11.285c-.157.084-.345.023-.418-.123l-5.289-10.561.549-.274 5.296 10.557c.074.148.004.329-.138.401zm-6.398-13.684-.937.47-3.632-2.941-.419-.61 2.153-3.679c.277.625 1.7 4.031 2.835 6.76zm-14.839-16.986c1.439-1.621 3.422-2.615 5.584-2.797l2.322-.121 3.088 10.45c-.336.14-.648.327-.911.584l-1.928-2.69c-.482-.676-1.417-.828-2.088-.345-.672.481-.827 1.415-.345 2.087l2.579 3.599-.633 1-9.262-9.97zm-30.244-14.121c3.567-.089 8.041-.825 11.369-3.528 2.317-1.882 3.748-4.448 4.301-7.631 1.205.668 2.66 1.238 4.111 1.794.784.3 1.506.573 2.04.824 3.31 1.565 3.219 5.724 3.183 6.367-.02.097.044 1.834.044 1.834-.548 7.281-9.186 12.835-12.544 12.835-2.316 0-11.775-5.494-12.504-12.495zm7.416 18.751 1.37-.115v-4.269c1.533.726 2.866 1.122 3.719 1.122 1.116 0 2.497-.356 3.964-.988v4.209l1.49.008c6.783.033 12.389 5.199 13.134 11.794h-35.794c.236-2.091.971-4.078 2.152-5.818l1.78-1.693c.437-.408.797-.89 1.084-1.413 2.028-1.625 4.472-2.614 7.101-2.837zm-11.957-.232c.352-.329.795-.561 1.263-.666l1.281-.271.215.197h.002l-.214 1.46c-.089.606-.379 1.167-.827 1.584l-5.581 5.304-1.952-2.085zm-15.119 19.358-2.36-2.524c-.488-.522-.461-1.345.061-1.832l3.653-3.418 3.247 3.469zm6.799-6.338-3.246-3.47 2.922-2.671 3.247 3.469z"/></g></g></svg>