<svg id="Capa_1" enable-background="new 0 0 512 512" height="512" viewBox="0 0 512 512" width="512" xmlns="http://www.w3.org/2000/svg"><g><path d="m325.563 512c-64.953 0-95.032-10.104-121.74-24.383-79.789-.201-134.943-13.004-147.721-34.337-3.756-6.27-3.935-13.261-.506-19.688.005-.009.01-.018.015-.026 11.689-21.84 27.098-45.038 44.561-67.087 2.571-3.248 7.289-3.794 10.536-1.224 3.247 2.572 3.795 7.289 1.223 10.536-13.734 17.342-24.365 33.108-32.296 46.062 13.467-.773 30.069 2.687 44.822 8.231 30.22 11.356 49.784 22.952 67.045 33.183 6.041 3.579 11.772 6.977 17.582 10.141.152.076.301.157.447.243 25.837 14.006 53.353 23.349 116.032 23.349 14.601 0 28.76-.533 42.085-1.586 4.131-.312 7.741 2.757 8.067 6.886.326 4.13-2.757 7.741-6.886 8.067-13.716 1.083-28.273 1.633-43.266 1.633zm-256.729-71.354c-.968 1.81-.931 3.145.137 4.926 6.842 11.423 43.146 23.609 107.836 26.438-15.085-8.839-32.628-18.49-57.626-27.885-28.532-10.722-47.935-7.968-50.343-3.484-.002.002-.003.004-.004.005zm333.563 65.587c-3.582 0-6.75-2.574-7.381-6.224-.706-4.081 2.031-7.962 6.112-8.668 17.305-2.991 26.21-6.197 29.915-8.062-29.917-110.107-83.573-223.389-128.416-270.883-4.717-3.498-9.345-6.868-12.837-9.394-4.794 6.127-12.954 15.408-22.797 21.971 6.418 3.137 10.542 5.289 14.007 8.418 7.286 6.581 9.733 16.069 6.389 24.764-3.359 8.73-11.657 14.371-21.139 14.371-.242 0-12.043-.214-25.665-4.123-35.809 16.228-72.518 44.239-106.329 81.163-2.797 3.055-7.541 3.264-10.596.466-3.055-2.797-3.264-7.541-.466-10.597 31.372-34.259 65.307-61.217 98.991-78.749-8.299-4.917-15.625-11.872-19.616-21.708-3.922-9.667-2.205-27.863 6.007-41.007-6.698-15.204-6.697-31.387-6.697-39.473v-45.201c-28.066-7.563-32.451-25.422-32.451-35.83 0-11.143 6.551-21.925 16.689-27.469 8.311-4.546 17.66-5.061 26.471-1.627 7.662-9.326 19.86-15.873 37.921-15.873 1.479 0 2.925.036 4.339.108 4.017-20.321 23.295-32.606 52.311-32.606 22.695 0 40.32 9.126 45.996 23.816 1.467 3.797 2.619 9.98 4.077 17.811 1.679 9.013 4.076 21.878 7.497 31.567.171.374.311.761.418 1.154 1.876 5.044 4.049 9.097 6.566 11.079.227.179.454.356.682.532.093.068.184.138.272.21 11.152 8.562 22.943 13.834 34.356 18.938 6.855 3.065 13.331 5.961 19.357 9.431 3.933 2.265 14.381 8.279 31.74 84.835 2.655 11.708-2.04 22.979-12.255 29.413-9.275 5.845-20.669 6.057-29.228.775-.242 25.299-1.06 50.893-2.44 76.293-.225 4.135-3.768 7.276-7.896 7.082-4.136-.225-7.307-3.76-7.082-7.896 1.595-29.347 2.432-58.954 2.491-88.053-6.748-6.23-13.493-12.894-18.109-17.537-2.713 3.266-5.707 6.847-9.004 10.792-2.514 3.008-5.216 6.24-8.12 9.722-7.47 8.957-15.694 13.832-24.443 14.49-.94.068-1.877.089-2.807.061 15.612 22.699 31.614 51.218 47.296 84.423 23.985 50.787 45.292 109.075 59.995 164.127.68 2.545.229 5.235-1.269 7.576-3.962 6.189-17.947 11.398-41.567 15.482-.431.074-.861.11-1.285.11zm-154.628-251.349c7.973 2.005 15.151 2.644 18.48 2.644 3.914 0 6.254-2.458 7.139-4.758.644-1.674 1.183-4.97-2.443-8.245-2.275-2.055-6.005-3.869-12.776-7.163-1.278-.621-2.656-1.292-4.145-2.022-3.516 5.007-5.61 11.549-6.255 19.544zm-29.786-42.111c-2.93 8.209-2.981 16.952-1.515 20.567 3.011 7.422 9.443 12.661 16.782 16.317 1.111-8.157 3.55-15.227 7.298-21.16-2.575-1.354-5.354-2.842-8.356-4.486-5.762-3.156-10.429-6.996-14.209-11.238zm70.145-27.702c1.549 0 3.073.479 4.353 1.391 1.206.86 29.651 21.162 38.862 29.332 3.049 2.703 6.262 3.941 9.568 3.702 4.485-.337 9.343-3.498 14.048-9.14 2.907-3.486 5.613-6.723 8.13-9.734 27.461-32.854 30.969-37.339 30.969-44.793 0-2.635-2.133-4.036-3.405-4.637-2.561-1.21-5.607-1.11-7.244.235-4.054 3.335-29.725 26.746-39.273 35.485-2.648 2.425-6.64 2.632-9.525.496 0 0-9.777-7.236-19.794-14.656-.087-.062-.173-.125-.258-.191-5.797-4.294-11.648-8.629-15.703-11.639-8.976-6.66-20.26-7.923-37.942-7.923-4.142 0-7.5-3.357-7.5-7.5s3.358-7.5 7.5-7.5c16.818 0 28.118-6.055 28.118-15.067v-35.518c-2.811 3.944-6.237 7.597-10.256 10.912-15.569 12.845-39.522 19.475-61.897 17.599v42.575c0 12.301 1.034 25.338 6.582 36.055.263.394.485.809.667 1.237 3.365 6.003 8.24 11.212 15.271 15.063 4.073 2.231 7.728 4.169 11.014 5.87 13.385-4.451 27.092-21.669 31.449-28.279 1.121-1.7 2.888-2.875 4.89-3.248.456-.085.917-.127 1.376-.127zm126.207 23.133c3.288 2.98 6.475 5.743 9.272 7.956 4.335 3.431 10.288 2.44 14.263-.065 2.269-1.429 7.344-5.58 5.644-13.305-1.232-3.349-9.82-11.947-18.605-20.215-1.682 4.2-4.137 8.054-7.269 11.299-3.091 3.203-6.683 5.705-10.677 7.467 2.377 2.264 4.815 4.544 7.204 6.712.057.05.113.1.168.151zm29.157-5.515c.001.005.002.01.003.016-.001-.004-.001-.008-.002-.012 0-.001 0-.003-.001-.004zm-50.329-14.906c.46.464.948.956 1.461 1.471 4.89-.559 9.075-2.534 12.223-5.796 3.158-3.273 5.12-7.672 5.584-12.381-.366-.334-.724-.658-1.071-.975-1.376-1.251-2.738-2.488-4.072-3.705-2.05 5.416-6.209 11.5-14.125 21.386zm32.069-25.334c3.991 3.644 7.593 6.965 10.819 10.005-10.292-38.09-16.318-44.218-17.25-44.972-5.341-3.066-11.443-5.794-17.9-8.682-9.258-4.14-19.47-8.706-29.579-15.247-13.74 31.65-31.198 52.502-40.607 62.308 2.974 2.201 5.694 4.216 7.857 5.817 9.604-8.772 31.212-28.465 35.31-31.835 6.175-5.08 15.273-5.948 23.178-2.215 2.837 1.34 5.242 3.144 7.137 5.293 4.417 4.415 10.657 10.086 17.252 16.081 1.187 1.078 2.34 2.129 3.465 3.155.108.095.214.192.318.292zm-129.996-20.235c4.392 1.572 8.596 3.723 12.559 6.663 2.048 1.521 4.555 3.38 7.282 5.4v-34.33c-3.654 1.555-7.358 2.759-11.05 3.479-.132 6.73-2.969 13.456-8.791 18.788zm34.84-30.578v32.015c8.903-11.251 20.007-27.899 29.004-49.658-1.136-1.307-2.192-2.764-3.179-4.358-6.166 6.34-15.36 14.958-25.825 22.001zm88.812 15.897c.003.001.006.003.009.005-.003-.002-.006-.004-.009-.005zm-149.19-92.655c23.46 6.331 34.333 24.267 34.333 41.163v31.989c16.596-4.748 35.994-23.064 45.383-33.396-2.762-8.778-4.859-19.148-6.929-30.26-1.212-6.505-2.356-12.649-3.323-15.151-3.286-8.507-16.148-14.223-32.003-14.223-12.86 0-33.598 2.743-37.461 19.878zm-52.82 65.992c18.958 1.985 39.35-3.39 52.352-14.114 8.754-7.222 13.491-16.18 14.103-26.658-4.574-5.633-11.984-10.055-22.508-11.795-.292-.029-.577-.074-.858-.135-2.918-.436-6.068-.668-9.458-.668-31.205 0-33.63 25.259-33.63 33v20.37zm-15.853-39.702c-3.331 0-6.001 1.057-7.711 1.992-5.398 2.952-8.887 8.568-8.887 14.309 0 3.748.001 14.171 17.451 20.169v-17.138c0-6.193.997-12.68 3.218-18.808-1.441-.371-2.803-.524-4.071-.524z"/></g></svg>