<svg id="Capa_1" enable-background="new 0 0 512 512" height="512" viewBox="0 0 512 512" width="512" xmlns="http://www.w3.org/2000/svg"><g><g><path d="m186.051 237.49v12c0 4.143 3.358 7.5 7.5 7.5s7.5-3.357 7.5-7.5v-12c0-4.143-3.358-7.5-7.5-7.5s-7.5 3.357-7.5 7.5z"/><path d="m310.949 237.49v12c0 4.143 3.358 7.5 7.5 7.5s7.5-3.357 7.5-7.5v-12c0-4.143-3.358-7.5-7.5-7.5s-7.5 3.357-7.5 7.5z"/><path d="m266.81 244.205c-5.724 6.569-15.9 6.564-21.62 0-2.722-3.122-7.459-3.447-10.582-.727-3.123 2.722-3.448 7.459-.727 10.582 11.703 13.428 32.545 13.416 44.237 0 2.721-3.123 2.396-7.86-.727-10.582-3.122-2.721-7.86-2.396-10.581.727z"/><path d="m489.753 70.133c-41.13-9.872-83.725-1.632-117.895 22.573-5.22-4.763-10.339-8.104-19.751-8.458-2.304-6.282-6.82-11.632-12.823-14.957-25.367-14.049-54.161-21.475-83.269-21.475-23.293 0-46.424 4.701-67.916 13.93-3.806 1.635-5.566 6.045-3.932 9.851 1.635 3.806 6.045 5.566 9.851 3.932 19.902-8.547 41.054-12.713 61.997-12.713 26.573 0 52.854 6.776 76.002 19.597 3.768 2.087 6.284 5.864 6.728 10.104.4 3.818 3.619 6.718 7.459 6.718l3.381-.023c4.688 0 7.627.496 10.675 3.205 20.156 17.92 35.413 40.888 44.122 66.416.639 1.876.484 3.862-.323 5.592h-1.932c-10.822 0-20.996-4.214-28.648-11.866l-49.056-49.057c-2.929-2.93-7.678-2.929-10.606 0-39.286 39.287-91.52 60.923-147.08 60.923h-58.795c-.808-1.729-.966-3.717-.329-5.585 11.043-32.376 32.806-60.673 61.279-79.677 3.445-2.3 4.374-6.957 2.075-10.402-2.3-3.445-6.956-4.375-10.402-2.075-7.219 4.818-14.038 10.187-20.414 16.025-34.171-24.21-76.771-32.453-117.902-22.578-15.873 3.81-25.485 19.957-21.248 35.769l13.209 49.3c5.073 18.934 27.046 27.752 43.641 17.245 11.944-7.563 24.846-13.042 38.497-16.364-1.04 2.613-2.024 5.25-2.933 7.916-1.185 3.474-1.514 7.201-.869 10.966-22.226 3.418-39.301 22.672-39.301 45.839 0 25.433 20.58 46.142 45.961 46.368 14.854 48.751 51.865 87.93 99.253 105.759-20.942 17.281-33.465 43.297-33.465 71.015v12.736c0 4.143 3.358 7.5 7.5 7.5h167.014c4.143 0 7.5-3.357 7.5-7.5v-12.736c0-27.664-12.531-53.722-33.464-71.011 9.852-3.693 19.367-8.323 28.392-13.894 3.524-2.175 4.618-6.796 2.442-10.321-2.176-3.524-6.797-4.618-10.321-2.442-23.413 14.451-50.405 22.09-78.058 22.09-82.09 0-148.875-66.786-148.875-148.877 0-10.114 1.038-20.199 3.062-30.066h56.551c55.494 0 110.247-20.75 152.295-60.101l43.841 43.842c10.412 10.411 24.232 16.171 38.944 16.251 2.023 9.863 3.06 19.951 3.06 30.074-.001 41.494-17.53 81.427-48.092 109.559-3.048 2.806-3.244 7.55-.439 10.598 2.811 3.052 7.555 3.24 10.597.439 21.646-19.925 37.34-45.233 45.787-72.913 25.41-.192 46.024-20.915 46.024-46.37 0-23.168-17.076-42.422-39.302-45.84.638-3.733.325-7.453-.872-10.97-.91-2.668-1.906-5.302-2.946-7.917 13.657 3.322 26.565 8.802 38.514 16.369 16.611 10.515 38.576 1.662 43.641-17.245l13.21-49.3c4.233-15.794-5.359-31.954-21.246-35.768zm-421.508 150.671c0-15.67 11.545-28.693 26.576-31.011-1.792 9.775-2.697 19.727-2.697 29.699 0 11.087 1.113 21.917 3.221 32.392-15.284-2.094-27.1-15.229-27.1-31.08zm129.93 223.143v5.236h-18.182v-5.236c0-2.946.179-5.867.51-8.755 5.832 2.041 11.753 3.87 17.732 5.429-.04 1.109-.06 2.219-.06 3.326zm133.833 0v5.236h-18.182v-5.236c0-1.106-.02-2.217-.06-3.326 5.979-1.559 11.899-3.388 17.73-5.428.332 2.888.512 5.809.512 8.754zm-115.656-65.438c12.701 3.167 25.979 4.86 39.647 4.86 13.451 0 26.759-1.649 39.651-4.856 15.655 9.711 27.126 24.708 32.656 41.912-7.893 2.84-15.987 5.23-24.15 7.112-3.698.854-6.177 4.334-5.772 8.108.293 2.738.442 5.531.442 8.302v5.236h-85.651v-5.236c0-2.771.149-5.563.442-8.302.405-3.774-2.074-7.255-5.772-8.108-8.165-1.883-16.263-4.274-24.16-7.115 5.524-17.216 16.997-32.197 32.667-41.913zm-112.199-239.294c-19.461 3.136-37.719 10.042-54.326 20.558-7.993 5.061-18.661.756-21.128-8.454l-13.209-49.299c-2.034-7.587 2.536-15.447 10.259-17.301 36.051-8.656 73.353-1.802 103.625 18.767-9.871 10.784-18.365 22.808-25.221 35.729zm313.029 50.578c15.029 2.32 26.573 15.342 26.573 31.011 0 15.868-11.841 29.014-27.15 31.086 2.15-10.598 3.271-21.447 3.271-32.398 0-9.977-.905-19.929-2.694-29.699zm79.329-87.773-13.21 49.299c-2.475 9.233-13.161 13.502-21.127 8.454-16.602-10.513-34.855-17.418-54.309-20.556-6.841-12.929-15.319-24.955-25.211-35.75 30.267-20.554 67.555-27.401 103.598-18.749 7.687 1.846 12.302 9.678 10.259 17.302z"/></g></g></svg>