<svg version="1.1" id="Capa_1" xmlns="http://www.w3.org/2000/svg" xmlns:xlink="http://www.w3.org/1999/xlink" x="0px" y="0px" viewBox="0 0 512 512" style="enable-background:new 0 0 512 512;" xml:space="preserve">
<g>
	<path style="fill:none;stroke:#000000;stroke-width:15;stroke-linecap:round;stroke-linejoin:round;stroke-miterlimit:10;" d="&#10;&#9;&#9;M122.652,237.229c0-18.382,14.902-33.284,33.284-33.284h194.783c18.382,0,33.284,14.902,33.284,33.284V348.44&#10;&#9;&#9;c0,18.382-14.902,33.284-33.284,33.284H155.937c-18.382,0-33.284-14.902-33.284-33.284v-75.923"/>
	<path style="fill:none;stroke:#000000;stroke-width:15;stroke-linecap:round;stroke-linejoin:round;stroke-miterlimit:10;" d="&#10;&#9;&#9;M305.776,203.944H98.897c-9.016,0-16.325-7.309-16.325-16.325v0c0-9.016,7.309-16.325,16.325-16.325h206.879&#10;&#9;&#9;c9.016,0,16.325,7.309,16.325,16.325v0C322.102,196.635,314.793,203.944,305.776,203.944z"/>
	<path style="fill:none;stroke:#000000;stroke-width:15;stroke-linecap:round;stroke-linejoin:round;stroke-miterlimit:10;" d="&#10;&#9;&#9;M400.668,88.568C392.554,42.504,352.331,7.5,303.941,7.5c-50.16,0-91.54,37.6-97.48,86.15"/>
	<path style="fill:none;stroke:#000000;stroke-width:15;stroke-linecap:round;stroke-linejoin:round;stroke-miterlimit:10;" d="&#10;&#9;&#9;M303.941,203.94c47.993,0,87.954-34.425,96.521-79.937"/>
	<path style="fill:none;stroke:#000000;stroke-width:15;stroke-linecap:round;stroke-linejoin:round;stroke-miterlimit:10;" d="&#10;&#9;&#9;M303.939,125.634c-10.979,0-19.911-8.933-19.911-19.912s8.932-19.912,19.911-19.912s19.912,8.933,19.912,19.912&#10;&#9;&#9;S314.918,125.634,303.939,125.634z"/>
	<path style="fill:none;stroke:#000000;stroke-width:15;stroke-linecap:round;stroke-linejoin:round;stroke-miterlimit:10;" d="&#10;&#9;&#9;M93.761,203.11c-48.21-6.25-85.45-47.47-85.45-97.39c0-54.24,43.98-98.22,98.22-98.22c50.16,0,91.54,37.6,97.49,86.15"/>
	
		<circle style="fill:none;stroke:#000000;stroke-width:15;stroke-linecap:round;stroke-linejoin:round;stroke-miterlimit:10;" cx="106.536" cy="105.722" r="19.912"/>
	<path style="fill:none;stroke:#000000;stroke-width:15;stroke-linecap:round;stroke-linejoin:round;stroke-miterlimit:10;" d="&#10;&#9;&#9;M250.96,171.294h-92.404v-62.42c0-8.406,6.815-15.221,15.221-15.221h61.963c8.406,0,15.221,6.815,15.221,15.221V171.294z"/>
	
		<line style="fill:none;stroke:#000000;stroke-width:15;stroke-linecap:round;stroke-linejoin:round;stroke-miterlimit:10;" x1="122.652" y1="237.229" x2="76.458" y2="237.229"/>
	<path style="fill:none;stroke:#000000;stroke-width:15;stroke-linecap:round;stroke-linejoin:round;stroke-miterlimit:10;" d="&#10;&#9;&#9;M384.003,247.042h19.398c5.751,0,10.413,4.662,10.413,10.413v70.758c0,5.751-4.662,10.413-10.413,10.413h-19.398V247.042z"/>
	<path style="fill:none;stroke:#000000;stroke-width:15;stroke-linecap:round;stroke-linejoin:round;stroke-miterlimit:10;" d="&#10;&#9;&#9;M487.311,232.491l-73.496,37.447v45.792l73.496,37.447c7.494,3.818,16.378-1.626,16.378-10.037V242.528&#10;&#9;&#9;C503.689,234.117,494.805,228.673,487.311,232.491z"/>
	<path style="fill:none;stroke:#000000;stroke-width:15;stroke-linecap:round;stroke-linejoin:round;stroke-miterlimit:10;" d="&#10;&#9;&#9;M191.045,381.725h119.831v26.095c0,11.44-9.274,20.714-20.714,20.714h-58.275c-11.44,0-20.714-9.274-20.714-20.714v0l-2.033-0.702&#10;&#9;&#9;C198.311,403.377,191.045,393.181,191.045,381.725L191.045,381.725z"/>
	
		<line style="fill:none;stroke:#000000;stroke-width:15;stroke-linecap:round;stroke-linejoin:round;stroke-miterlimit:10;" x1="187.954" y1="428.533" x2="330.356" y2="428.533"/>
	<path style="fill:none;stroke:#000000;stroke-width:15;stroke-linecap:round;stroke-linejoin:round;stroke-miterlimit:10;" d="&#10;&#9;&#9;M243.979,428.533h30.352v60.915c0,8.313-6.739,15.052-15.052,15.052h-0.248c-8.313,0-15.052-6.739-15.052-15.052V428.533z"/>
	<path style="fill:none;stroke:#000000;stroke-width:15;stroke-linecap:round;stroke-linejoin:round;stroke-miterlimit:10;" d="&#10;&#9;&#9;M215.929,428.533h28.05l-42.263,68.784c-2.741,4.462-7.618,7.183-12.874,7.183h0c-11.785,0-19.021-12.841-12.874-22.846&#10;&#9;&#9;l28.806-46.882C207.156,430.895,211.379,428.533,215.929,428.533z"/>
	<path style="fill:none;stroke:#000000;stroke-width:15;stroke-linecap:round;stroke-linejoin:round;stroke-miterlimit:10;" d="&#10;&#9;&#9;M302.381,428.533h-28.05l42.263,68.784c2.741,4.462,7.618,7.183,12.874,7.183h0c11.785,0,19.021-12.841,12.874-22.846&#10;&#9;&#9;l-28.806-46.882C311.154,430.895,306.931,428.533,302.381,428.533z"/>
	
		<circle style="fill:none;stroke:#000000;stroke-width:15;stroke-linecap:round;stroke-linejoin:round;stroke-miterlimit:10;" cx="175.405" cy="321.778" r="16.849"/>
	
		<polyline style="fill:none;stroke:#000000;stroke-width:15;stroke-linecap:round;stroke-linejoin:round;stroke-miterlimit:10;" points="&#10;&#9;&#9;286.263,324.277 286.263,285.581 324.958,285.581 &#9;"/>
	<path style="fill:none;stroke:#000000;stroke-width:15;stroke-linecap:round;stroke-linejoin:round;stroke-miterlimit:10;" d="&#10;&#9;&#9;M339.005,351.385h-66.789c-7.213,0-13.061-5.848-13.061-13.061v-66.789c0-7.213,5.848-13.061,13.061-13.061h66.789&#10;&#9;&#9;c7.213,0,13.061,5.848,13.061,13.061v66.789C352.066,345.537,346.218,351.385,339.005,351.385z"/>
</g>
<g>
</g>
<g>
</g>
<g>
</g>
<g>
</g>
<g>
</g>
<g>
</g>
<g>
</g>
<g>
</g>
<g>
</g>
<g>
</g>
<g>
</g>
<g>
</g>
<g>
</g>
<g>
</g>
<g>
</g>
</svg>