<svg xmlns="http://www.w3.org/2000/svg" version="1.1" xmlns:xlink="http://www.w3.org/1999/xlink" xmlns:svgjs="http://svgjs.com/svgjs" width="512" height="512" x="0" y="0" viewBox="0 0 512 512" style="enable-background:new 0 0 512 512" xml:space="preserve"><g><path d="m199.337 330.045-91.52-91.52a67.625 67.625 0 0 1-8.454-10.302c-7.242-10.878-11.121-23.635-11.1-36.998.03-17.868 7.04-34.644 19.716-47.24 12.403-12.312 28.958-19.1 46.644-19.1 18.251 0 35.422 7.121 48.341 20.039l45.967 45.967a10.102 10.102 0 0 0 14.292 0l46.745-46.745c12.605-12.605 29.362-19.544 47.189-19.544 17.908 0 34.725 7 47.351 19.716 13.878 13.979 20.181 32.735 18.948 51.199m-10.879 32.676a68.506 68.506 0 0 1-9.01 11.11l-90.813 90.813-24.382 24.382-25.15 25.15c-3.949 3.949-10.343 3.949-14.282 0l-25.221-25.221m-27.23 21.343 36.341 36.341c12.838 12.838 33.655 12.838 46.492 0l36.281-36.281 24.635-24.635 87.611-87.611a102.472 102.472 0 0 0 15.504-19.857M426.71 117.999c.73.69 1.46 1.4 2.17 2.12 24.37 24.54 33.31 58.55 27.2 90.27m-284.23 140.75-40.3-40.31m-24.75-24.75-23.27-23.27a101.031 101.031 0 0 1-14.95-19.01c-6.33-10.39-10.6-21.69-12.83-33.29-6.14-31.92 3.2-66.24 28.04-90.9 39.63-39.36 103.96-38.47 143.45 1.03l28.84 28.83 29.61-29.6c30.26-30.27 74.95-37.33 111.94-21.18" style="stroke-width:15;stroke-linecap:round;stroke-linejoin:round;stroke-miterlimit:10;" fill="none" stroke="#000000" stroke-width="15" stroke-linecap="round" stroke-linejoin="round" stroke-miterlimit="10" data-original="#000000"></path><path d="M312.754 330.114c-12.969-10.765-24.371-21.305-32.365-28.985 8.973-8.621 22.236-20.845 37.196-32.948 45.202-36.567 68.021-42.026 77.6-42.026 41.341 0 74.974 33.633 74.974 74.974s-33.633 74.974-74.974 74.974c-7.823 0-24.484-3.651-54.949-24.904M55.778 210.483C26.674 230.144 7.5 263.439 7.5 301.129c0 60.277 49.039 109.315 109.315 109.315 25.495 0 58.037-16.322 99.485-49.901 16.186-13.112 30.266-26.117 39.7-35.207 7.978 7.687 19.286 18.176 32.373 29.16" style="stroke-width:15;stroke-linecap:round;stroke-linejoin:round;stroke-miterlimit:10;" fill="none" stroke="#000000" stroke-width="15" stroke-linecap="round" stroke-linejoin="round" stroke-miterlimit="10" data-original="#000000"></path><path d="M99.367 228.227a74.854 74.854 0 0 1 17.448-2.071c9.579 0 32.397 5.46 77.599 42.026 14.962 12.104 28.226 24.33 37.199 32.95-8.904 8.556-22.046 20.669-36.931 32.729-45.369 36.755-68.261 42.243-77.867 42.243-41.341 0-74.974-33.633-74.974-74.974 0-22.984 10.405-43.574 26.741-57.338M88.41 195.559c9.07-2.44 18.58-3.75 28.4-3.75 25.5 0 58.04 16.33 99.49 49.91 16.19 13.11 30.27 26.11 39.7 35.2 9.43-9.09 23.51-22.09 39.7-35.2 41.45-33.58 73.99-49.91 99.48-49.91 60.28 0 109.32 49.04 109.32 109.32 0 51.44-35.72 94.7-83.66 106.27M315.6 375.829c27.64 19.99 50.85 31.19 70.33 33.94M256 276.923l24.389 24.206M231.613 301.131 256 325.336" style="stroke-width:15;stroke-linecap:round;stroke-linejoin:round;stroke-miterlimit:10;" fill="none" stroke="#000000" stroke-width="15" stroke-linecap="round" stroke-linejoin="round" stroke-miterlimit="10" data-original="#000000"></path></g></svg>