<?xml version="1.0" encoding="iso-8859-1"?>
<!-- Generator: Adobe Illustrator 19.0.0, SVG Export Plug-In . SVG Version: 6.00 Build 0)  -->
<svg version="1.1" id="Capa_1" xmlns="http://www.w3.org/2000/svg" xmlns:xlink="http://www.w3.org/1999/xlink" x="0px" y="0px"
	 viewBox="0 0 512 512" style="enable-background:new 0 0 512 512;" xml:space="preserve">
<g>
	<g>
		<path d="M340.929,162.932c-4.147-0.618-8.008,2.235-8.629,6.381c-5.65,37.69-38.701,66.112-76.88,66.112
			c-42.866,0-77.741-34.875-77.741-77.742s34.875-77.742,77.741-77.742c19.804,0,38.669,7.449,53.116,20.975
			c3.061,2.865,7.864,2.707,10.727-0.353c2.865-3.06,2.707-7.863-0.353-10.727c-17.27-16.169-39.82-25.074-63.49-25.074
			c-51.236,0-92.919,41.683-92.919,92.92c0,51.236,41.683,92.921,92.92,92.921c22.391,0,44.022-8.077,60.907-22.745
			c16.714-14.518,27.717-34.51,30.982-56.297C347.931,167.417,345.075,163.554,340.929,162.932z"/>
	</g>
</g>
<g>
	<g>
		<path d="M511.492,157.624V7.589c0-4.192-3.397-7.589-7.589-7.589H69.219c-4.192,0-7.589,3.397-7.589,7.589
			s3.397,7.589,7.589,7.589h179.194v22.697c-60.414,3.497-108.977,51.881-112.761,112.219H15.683V7.589
			C15.683,3.397,12.286,0,8.094,0S0.505,3.397,0.505,7.589v300.187c0,4.192,3.397,7.589,7.589,7.589h495.81
			c4.192,0,7.589-3.397,7.589-7.589V157.742c0-0.019,0.002-0.039,0.002-0.059S511.492,157.643,511.492,157.624z M248.413,300.187
			H15.683V165.272h119.969c3.784,60.338,52.347,108.721,112.761,112.218V300.187z M496.314,300.187H263.59v-22.771
			c59.875-4.045,107.842-52.194,111.602-112.144h121.122V300.187z M369.006,150.094c-0.195,0-0.386,0.015-0.578,0.029
			c-0.191-0.014-0.382-0.029-0.578-0.029c-4.192,0-7.589,3.397-7.589,7.589c0,57.808-47.03,104.839-104.84,104.839
			c-57.792,0-104.812-47.005-104.839-104.792c0-0.016,0.002-0.031,0.002-0.047s-0.002-0.031-0.002-0.047
			c0.025-57.788,47.045-104.793,104.838-104.793c30.608,0,59.612,13.331,79.574,36.575c2.731,3.178,7.523,3.545,10.701,0.813
			c3.179-2.73,3.544-7.522,0.813-10.701c-21.064-24.527-50.928-39.401-82.918-41.575V15.178h232.724v134.916H369.006z"/>
	</g>
</g>
<g>
	<g>
		<path d="M443.227,63.785c-2.149-3.599-6.811-4.77-10.407-2.621l-115.791,69.214c-3.598,2.15-4.771,6.81-2.621,10.407
			c1.421,2.379,3.939,3.696,6.52,3.696c1.326,0,2.667-0.347,3.887-1.076l115.791-69.214
			C444.205,72.042,445.377,67.383,443.227,63.785z"/>
	</g>
</g>
<g>
	<g>
		<path d="M473.533,428.289h-29.968v-37.375c0-17.18-13.977-31.158-31.158-31.158h-16.432c-4.192,0-7.589,3.397-7.589,7.589
			c0,4.192,3.397,7.589,7.589,7.589h16.432c8.811,0,15.98,7.169,15.98,15.98v37.375h-29.968c-9.409,0-17.851,4.198-23.569,10.814
			c-5.718-6.616-14.16-10.814-23.569-10.814h-29.968v-37.375c0-8.811,7.169-15.98,15.98-15.98c4.192,0,7.589-3.397,7.589-7.589
			c0-4.192-3.397-7.589-7.589-7.589c-9.409,0-17.851,4.198-23.569,10.814c-5.718-6.616-14.16-10.814-23.569-10.814H269.83
			c-4.192,0-7.589,3.397-7.589,7.589c0,4.192,3.397,7.589,7.589,7.589h20.324c8.811,0,15.98,7.169,15.98,15.98v37.375h-29.968
			c-9.409,0-17.851,4.198-23.569,10.814c-5.718-6.616-14.16-10.814-23.569-10.814h-29.967v-37.375c0-8.811,7.169-15.98,15.98-15.98
			c4.192,0,7.589-3.397,7.589-7.589c0-4.192-3.397-7.589-7.589-7.589c-9.409,0-17.851,4.198-23.569,10.814
			c-5.718-6.616-14.16-10.814-23.569-10.814h-17.472c-4.192,0-7.589,3.397-7.589,7.589c0,4.192,3.397,7.589,7.589,7.589h17.472
			c8.811,0,15.98,7.169,15.98,15.98v37.375h-29.968c-9.409,0-17.851,4.198-23.569,10.814c-5.718-6.616-14.16-10.814-23.569-10.814
			H76.808v-37.375c0-8.811,7.169-15.98,15.981-15.98c4.192,0,7.589-3.397,7.589-7.589c0-4.192-3.397-7.589-7.589-7.589
			c-17.18,0-31.159,13.977-31.159,31.158v37.375H31.663c-17.18,0-31.158,13.978-31.158,31.159v44.963
			c0,4.192,3.397,7.589,7.589,7.589h122.252h122.252H374.85h122.252c4.192,0,7.589-3.397,7.589-7.589v-44.964
			C504.691,442.267,490.714,428.289,473.533,428.289z M15.683,496.822v-37.375c0-8.812,7.169-15.981,15.98-15.981h75.113
			c8.811,0,15.98,7.169,15.98,15.981v37.375H15.683z M137.934,496.822v-37.375c0-8.812,7.169-15.981,15.98-15.981h75.113
			c8.811,0,15.98,7.169,15.98,15.981v37.375H137.934z M260.186,496.822v-37.375c0-8.812,7.169-15.981,15.98-15.981h75.114
			c8.811,0,15.98,7.169,15.98,15.981v37.375H260.186z M489.513,496.822L489.513,496.822H382.44v-37.375
			c0-8.812,7.169-15.981,15.98-15.981h75.113c8.811,0,15.98,7.169,15.98,15.981V496.822z"/>
	</g>
</g>
<g>
	<g>
		<path d="M282.32,191.137h-39.228v-3.387c0-14.675,44.73-24.553,44.73-55.031c0-17.92-15.239-28.645-31.607-28.645
			c-15.661,0-30.336,9.878-30.337,25.963c0,7.62,3.528,9.878,8.326,9.878c6.067,0,9.594-3.386,9.594-6.772
			c0-8.748,5.644-12.417,12.558-12.417c9.313,0,13.123,6.772,13.123,12.557c0,19.896-45.434,31.89-45.434,54.466v13.687
			c0,3.528,4.797,5.786,8.042,5.786h50.234c3.104,0,5.785-3.95,5.785-8.184C288.105,194.806,285.424,191.137,282.32,191.137z"/>
	</g>
</g>
<g>
</g>
<g>
</g>
<g>
</g>
<g>
</g>
<g>
</g>
<g>
</g>
<g>
</g>
<g>
</g>
<g>
</g>
<g>
</g>
<g>
</g>
<g>
</g>
<g>
</g>
<g>
</g>
<g>
</g>
</svg>
