<svg id="Layer_2" height="512" viewBox="0 0 100 100" width="512" xmlns="http://www.w3.org/2000/svg" data-name="Layer 2"><path d="m6.74 97h86.52a2 2 0 0 0 2-2v-9.87a16.18 16.18 0 0 0 -6.61-13c-7.84-5.73-14.27-9.07-19.56-10.13a1.9 1.9 0 0 0 -.54-.72l-4.75-3.9a2 2 0 0 0 -2.62.07l-11.18 10.2-11.18-10.23a2 2 0 0 0 -2.62-.07l-4.75 3.9a1.9 1.9 0 0 0 -.54.72c-5.29 1.09-11.72 4.43-19.55 10.17a16.16 16.16 0 0 0 -6.62 13v9.86a2 2 0 0 0 2 2zm43.26-24.06 5.41 4.44-2.89 3.62h-5l-2.89-3.64zm-2.08 12.06h4.16l2.92 8h-10zm43.34.11v7.89h-32l-3.5-9.62 2.75-3.47 1.12.92a2 2 0 0 0 1.27.46 2.24 2.24 0 0 0 .51-.07 2 2 0 0 0 1.35-1.22l5.47-14.13c4.68 1 10.74 4.14 18 9.49a12.14 12.14 0 0 1 5.03 9.77zm-28.66-23.57 2.3 1.88-4.9 12.58-7-5.72zm-25.2 0 9.6 8.73-7 5.73-4.9-12.58zm-28.66 23.59a12.14 12.14 0 0 1 5-9.76c7.31-5.35 13.37-8.53 18-9.49l5.5 14.12a2 2 0 0 0 1.36 1.21 2.24 2.24 0 0 0 .51.07 2 2 0 0 0 1.27-.46l1.12-.92 2.75 3.47-3.5 9.63h-32z"/><path d="m29.31 26.42a26.53 26.53 0 0 0 1.74 10.75 26.19 26.19 0 0 0 1.54 10.39c2.24 6 11.22 12.62 16.28 13.22h2.33c5-.6 14-7.24 16.29-13.22a26.14 26.14 0 0 0 1.51-10.78v-1.72c1.2-2.75 2.61-10 1.69-14.17-.23-1.7-2.56-15.66-18.84-17.64-12.51-1.52-16.45 4.4-19 8.32a13.92 13.92 0 0 1 -2.12 2.72c-3.8 3.2-6.53 5.93-6.64 6a2 2 0 0 0 -.59 1.5 2 2 0 0 0 .72 1.45 25.93 25.93 0 0 0 5.09 3.18zm34.44 19.73c-1.66 4.38-9.16 10.11-12.92 10.64h-1.59c-3.76-.53-11.24-6.26-12.91-10.64a22.26 22.26 0 0 1 -1.26-9.07v-.08a.19.19 0 0 0 0-.08s.34-5.62 3.75-7.79a26.64 26.64 0 0 0 6 0c7.78-1 12.07-3.66 13.94-5.18 2.54 1.48 4.5 4.94 6.26 10.94v2a2.09 2.09 0 0 0 0 .25 22.37 22.37 0 0 1 -1.27 9.01zm-30.47-28.8a16.76 16.76 0 0 0 2.87-3.56c2.42-3.66 5.17-7.79 15.24-6.57 14 1.7 15.3 13.69 15.35 14.2a2.51 2.51 0 0 0 0 .27 18.45 18.45 0 0 1 -.06 6.06c-1.66-3.66-4-6.78-7.65-8.09a2.05 2.05 0 0 0 -2.19.58s-3.36 3.76-12.51 4.89a22.35 22.35 0 0 1 -5.66 0 2 2 0 0 0 -1.15.2 10.16 10.16 0 0 0 -4.17 3.95 26 26 0 0 1 0-3.92 2 2 0 0 0 -1.22-2 27.07 27.07 0 0 1 -3.54-1.82c1.17-1.11 2.8-2.6 4.69-4.19z"/></svg>