<?xml version="1.0" encoding="UTF-8" standalone="no"?>
<!-- Created with Inkscape (http://www.inkscape.org/) -->

<svg
   version="1.1"
   id="svg891"
   xml:space="preserve"
   width="682.66669"
   height="682.66669"
   viewBox="0 0 682.66669 682.66669"
   xmlns="http://www.w3.org/2000/svg"
   xmlns:svg="http://www.w3.org/2000/svg"><defs
     id="defs895"><clipPath
       clipPathUnits="userSpaceOnUse"
       id="clipPath905"><path
         d="M 0,512 H 512 V 0 H 0 Z"
         id="path903" /></clipPath></defs><g
     id="g897"
     transform="matrix(1.3333333,0,0,-1.3333333,0,682.66667)"><g
       id="g899"><g
         id="g901"
         clip-path="url(#clipPath905)"><g
           id="g907"
           transform="translate(193.6118,368.8174)"><path
             d="m 0,0 c 1.745,-3.313 3.61,-6.604 5.601,-9.86 42.562,-18.696 71.012,-18.696 113.574,0 40.88,65.76 28.674,145.543 28.674,145.543 h -23.082 c 0,0 13.147,-79.783 -62.379,-79.783 -75.526,0 -62.379,79.783 -62.379,79.783 h -23.081 c 0,0 -6.774,-46.831 8.142,-98.307"
             style="fill:none;stroke:#000000;stroke-width:15;stroke-linecap:round;stroke-linejoin:round;stroke-miterlimit:10;stroke-dasharray:none;stroke-opacity:1"
             id="path909" /></g><g
           id="g911"
           transform="translate(405.0205,358.957)"><path
             d="M 0,0 9.486,-21.483 26.831,-30.969 9.486,-40.456 0,-61.938 l -9.486,21.482 -17.346,9.487 17.346,9.486 z"
             style="fill:none;stroke:#000000;stroke-width:15;stroke-linecap:round;stroke-linejoin:round;stroke-miterlimit:10;stroke-dasharray:none;stroke-opacity:1"
             id="path913" /></g><g
           id="g915"
           transform="translate(344.7183,82.6846)"><path
             d="m 0,0 c 4.062,-16.492 8.376,-33.031 12.941,-49.381 -31.619,-17.559 -68.971,-26.5 -101.394,-25.957 -59.113,0 -101.925,25.957 -101.925,25.957 41.845,149.869 62.815,316.243 62.815,316.243"
             style="fill:none;stroke:#000000;stroke-width:15;stroke-linecap:round;stroke-linejoin:round;stroke-miterlimit:10;stroke-dasharray:none;stroke-opacity:1"
             id="path917" /></g><g
           id="g919"
           transform="translate(295.0942,348.9185)"><path
             d="M 0,0 C 0,0 13.573,-108.571 40.933,-229.423"
             style="fill:none;stroke:#000000;stroke-width:15;stroke-linecap:round;stroke-linejoin:round;stroke-miterlimit:10;stroke-dasharray:none;stroke-opacity:1"
             id="path921" /></g><g
           id="g923"
           transform="translate(313.1035,358.957)"><path
             d="m 0,0 c 0,0 65.212,-129.957 155.212,-257.957 0,0 -32.316,-46 -113.919,-54.549"
             style="fill:none;stroke:#000000;stroke-width:15;stroke-linecap:round;stroke-linejoin:round;stroke-miterlimit:10;stroke-dasharray:none;stroke-opacity:1"
             id="path925" /></g><g
           id="g927"
           transform="translate(113.0693,206.3887)"><path
             d="M 0,0 C 52.417,85.358 86.144,152.568 86.144,152.568"
             style="fill:none;stroke:#000000;stroke-width:15;stroke-linecap:round;stroke-linejoin:round;stroke-miterlimit:10;stroke-dasharray:none;stroke-opacity:1"
             id="path929" /></g><g
           id="g931"
           transform="translate(157.9189,46.4507)"><path
             d="m 0,0 c -81.919,8.549 -113.919,54.549 -113.919,54.549 16.193,23.03 31.584,46.123 45.936,68.512"
             style="fill:none;stroke:#000000;stroke-width:15;stroke-linecap:round;stroke-linejoin:round;stroke-miterlimit:10;stroke-dasharray:none;stroke-opacity:1"
             id="path933" /></g><g
           id="g935"
           transform="translate(170.5396,504.5)"><path
             d="m 0,0 c 0,0 -12.621,-39.5 -52.873,-58.167 0,0 22,-31.177 58.622,-31.177"
             style="fill:none;stroke:#000000;stroke-width:15;stroke-linecap:round;stroke-linejoin:round;stroke-miterlimit:10;stroke-dasharray:none;stroke-opacity:1"
             id="path937" /></g><g
           id="g939"
           transform="translate(341.7769,504.5)"><path
             d="m 0,0 c 0,0 12.621,-39.5 52.873,-58.167 0,0 -22,-31.177 -58.622,-31.177"
             style="fill:none;stroke:#000000;stroke-width:15;stroke-linecap:round;stroke-linejoin:round;stroke-miterlimit:10;stroke-dasharray:none;stroke-opacity:1"
             id="path941" /></g><g
           id="g943"
           transform="translate(193.6211,504.5)"><path
             d="m 0,0 c 0,-21.659 15.441,-28.463 38.002,-42.58 22.291,-13.946 24.377,-37.202 24.377,-37.202 0,0 2.086,23.256 24.377,37.202 22.561,14.117 38.002,20.921 38.002,42.58"
             style="fill:none;stroke:#000000;stroke-width:15;stroke-linecap:round;stroke-linejoin:round;stroke-miterlimit:10;stroke-dasharray:none;stroke-opacity:1"
             id="path945" /></g><g
           id="g947"
           transform="translate(100.064,232.6084)"><path
             d="M 0,0 13.176,-29.84 37.269,-43.017 13.176,-56.193 0,-86.033 l -13.177,29.84 -24.093,13.176 24.093,13.177 z"
             style="fill:none;stroke:#000000;stroke-width:15;stroke-linecap:round;stroke-linejoin:round;stroke-miterlimit:10;stroke-dasharray:none;stroke-opacity:1"
             id="path949" /></g></g></g></g></svg>
