<?xml version="1.0" encoding="UTF-8" standalone="no"?>
<!-- Created with Inkscape (http://www.inkscape.org/) -->

<svg
   version="1.1"
   id="svg3969"
   xml:space="preserve"
   width="682.66669"
   height="682.66669"
   viewBox="0 0 682.66669 682.66669"
   xmlns="http://www.w3.org/2000/svg"
   xmlns:svg="http://www.w3.org/2000/svg"><defs
     id="defs3973"><clipPath
       clipPathUnits="userSpaceOnUse"
       id="clipPath3983"><path
         d="M 0,512 H 512 V 0 H 0 Z"
         id="path3981" /></clipPath></defs><g
     id="g3975"
     transform="matrix(1.3333333,0,0,-1.3333333,0,682.66667)"><g
       id="g3977"><g
         id="g3979"
         clip-path="url(#clipPath3983)"><g
           id="g3985"
           transform="translate(311.3125,432.5532)"><path
             d="m 0,0 -190.444,69.316 c -22.538,8.203 -47.459,-3.418 -55.662,-25.956 l -42.269,-116.132 c -12.785,-35.126 -8.91,-74.158 10.532,-106.084 l 41.569,-68.261 c 14.086,-23.131 42.324,-33.408 67.982,-24.743 l 75.721,25.57 c 35.415,11.96 63.473,39.37 76.258,74.495 L 25.956,-55.663 C 34.159,-33.125 22.538,-8.203 0,0 Z"
             style="fill:none;stroke:#000000;stroke-width:15;stroke-linecap:round;stroke-linejoin:round;stroke-miterlimit:10;stroke-dasharray:none;stroke-opacity:1"
             id="path3987" /></g><g
           id="g3989"
           transform="translate(146.7744,276.7676)"><path
             d="m 0,0 c -23.105,8.41 -42.46,21.119 -55.925,35.431 -7.567,-31.742 9.667,-64.81 41.072,-76.241 31.405,-11.43 65.862,2.824 80.47,32.003 C 46.102,-11.115 23.106,-8.41 0,0 Z"
             style="fill:none;stroke:#000000;stroke-width:15;stroke-linecap:round;stroke-linejoin:round;stroke-miterlimit:10;stroke-dasharray:none;stroke-opacity:1"
             id="path3991" /></g><g
           id="g3993"
           transform="translate(144.3242,354.6855)"><path
             d="m 0,0 c -2.524,10.089 -10.593,19.261 -22.255,23.505 -11.662,4.245 -23.738,2.406 -32.158,-3.701"
             style="fill:none;stroke:#000000;stroke-width:15;stroke-linecap:round;stroke-linejoin:round;stroke-miterlimit:10;stroke-dasharray:none;stroke-opacity:1"
             id="path3995" /></g><g
           id="g3997"
           transform="translate(253.1489,315.0762)"><path
             d="m 0,0 c -2.524,10.09 -10.593,19.261 -22.255,23.505 -11.662,4.245 -23.738,2.406 -32.158,-3.7"
             style="fill:none;stroke:#000000;stroke-width:15;stroke-linecap:round;stroke-linejoin:round;stroke-miterlimit:10;stroke-dasharray:none;stroke-opacity:1"
             id="path3999" /></g><g
           id="g4001"
           transform="translate(93.0122,404.1719)"><path
             d="M 0,0 C 0,0 27.832,12.978 68.641,-1.875"
             style="fill:none;stroke:#000000;stroke-width:15;stroke-linecap:round;stroke-linejoin:round;stroke-miterlimit:10;stroke-dasharray:none;stroke-opacity:1"
             id="path4003" /></g><g
           id="g4005"
           transform="translate(269.853,339.8071)"><path
             d="M 0,0 C 0,0 -12.978,27.831 -53.788,42.685"
             style="fill:none;stroke:#000000;stroke-width:15;stroke-linecap:round;stroke-linejoin:round;stroke-miterlimit:10;stroke-dasharray:none;stroke-opacity:1"
             id="path4007" /></g><g
           id="g4009"
           transform="translate(203.5972,147.4399)"><path
             d="m 0,0 13.403,-36.825 c 12.785,-35.125 40.843,-62.534 76.258,-74.494 l 75.721,-25.571 c 25.659,-8.665 53.896,1.613 67.982,24.744 l 41.569,68.26 c 19.442,31.926 23.317,70.959 10.533,106.084 l -42.269,116.133 c -8.203,22.538 -33.124,34.159 -55.663,25.956 l -33.595,-12.228"
             style="fill:none;stroke:#000000;stroke-width:15;stroke-linecap:round;stroke-linejoin:round;stroke-miterlimit:10;stroke-dasharray:none;stroke-opacity:1"
             id="path4011" /></g><g
           id="g4013"
           transform="translate(370.1763,113.0215)"><path
             d="M 0,0 C 23.106,8.41 46.102,11.115 65.617,8.807 51.009,37.986 16.552,52.24 -14.853,40.81 -46.258,29.379 -63.492,-3.689 -55.925,-35.431 -42.46,-21.119 -23.105,-8.41 0,0 Z"
             style="fill:none;stroke:#000000;stroke-width:15;stroke-linecap:round;stroke-linejoin:round;stroke-miterlimit:10;stroke-dasharray:none;stroke-opacity:1"
             id="path4015" /></g><g
           id="g4017"
           transform="translate(258.4438,171.8735)"><path
             d="M 0,0 C 9.717,-3.708 21.856,-2.344 32.014,4.786 42.171,11.917 47.578,22.87 47.393,33.269"
             style="fill:none;stroke:#000000;stroke-width:15;stroke-linecap:round;stroke-linejoin:round;stroke-miterlimit:10;stroke-dasharray:none;stroke-opacity:1"
             id="path4019" /></g><g
           id="g4021"
           transform="translate(417.9395,229.9253)"><path
             d="m 0,0 c -5.061,-9.086 -15.236,-15.845 -27.601,-16.912 -12.364,-1.067 -23.547,3.849 -30.089,11.934"
             style="fill:none;stroke:#000000;stroke-width:15;stroke-linecap:round;stroke-linejoin:round;stroke-miterlimit:10;stroke-dasharray:none;stroke-opacity:1"
             id="path4023" /></g><g
           id="g4025"
           transform="translate(418.9878,254.0288)"><path
             d="M 0,0 C 0,0 -27.832,12.978 -68.641,-1.875"
             style="fill:none;stroke:#000000;stroke-width:15;stroke-linecap:round;stroke-linejoin:round;stroke-miterlimit:10;stroke-dasharray:none;stroke-opacity:1"
             id="path4027" /></g></g></g></g></svg>
