<svg height="512" viewBox="0 0 512 512" width="512" xmlns="http://www.w3.org/2000/svg" xmlns:xlink="http://www.w3.org/1999/xlink"><clipPath id="clip-path"><rect height="400.61" rx="8.36" width="450" x="32.87" y="58.58"/></clipPath><g id="Bug"><g clip-path="url(#clip-path)"><rect fill="#efbd42" height="400.61" rx="8.36" width="450" x="32.87" y="58.58"/><path d="m9.52 31.27h482.96v85.18h-482.96z" fill="#917eec"/></g><rect fill="#efefef" height="12.1" rx="2.7" width="86.78" x="371.84" y="76.33"/><g fill="#2d1929"><circle cx="256.17" cy="212.84" r="36.42"/><path d="m253.42 192.94a69.49 69.49 0 0 0 -34.92-35.71 3 3 0 0 1 2.5-5.45 75.43 75.43 0 0 1 35.12 33 63.58 63.58 0 0 1 38.13-31.67 3 3 0 1 1 1.74 5.74 58 58 0 0 0 -37 34 3 3 0 0 1 -5.57.09z"/><path d="m138.67 395a5 5 0 0 1 -4.29-7.56l17-28.53a26.83 26.83 0 0 1 21.15-13l32.41-2.3a16.89 16.89 0 0 0 15.64-16.79v-53.65a16.88 16.88 0 0 0 -2.17-8.27l-26.7-47.29a16.85 16.85 0 0 0 -14.71-8.56h-28.1a5 5 0 0 1 0-10h28.1a26.86 26.86 0 0 1 23.37 13.64l26.73 47.31a26.88 26.88 0 0 1 3.47 13.19v53.59a26.92 26.92 0 0 1 -24.93 26.76l-32.41 2.31a16.84 16.84 0 0 0 -13.23 8.15l-17 28.53a5 5 0 0 1 -4.33 2.47z"/><path d="m194.7 285.19c-1 0 2.15.86-39.87-11.7a5 5 0 0 0 -3.64.29l-22.78 10.91a5 5 0 1 1 -4.32-9l22.78-10.92a15.05 15.05 0 0 1 10.82-.85l38.44 11.48a5 5 0 0 1 -1.43 9.8z"/><path d="m375.93 395a5 5 0 0 1 -4.3-2.45l-17-28.53a16.82 16.82 0 0 0 -13.27-8.18l-32.36-2.32a26.92 26.92 0 0 1 -25-26.76v-53.59a26.88 26.88 0 0 1 3.5-13.17l26.69-47.29a26.87 26.87 0 0 1 23.37-13.64h28.14a5 5 0 0 1 0 10h-28.14a16.86 16.86 0 0 0 -14.66 8.56l-26.69 47.27a16.78 16.78 0 0 0 -2.18 8.27v53.59a16.89 16.89 0 0 0 15.64 16.79l32.41 2.3a26.86 26.86 0 0 1 21.16 13l17 28.53a5 5 0 0 1 -4.31 7.62z"/><path d="m319.9 285.19a5 5 0 0 1 -1.43-9.8l38.44-11.48a15.09 15.09 0 0 1 10.83.85l22.78 10.92a5 5 0 1 1 -4.33 9l-22.78-10.91a5 5 0 0 0 -3.64-.29c-42.11 12.59-38.83 11.71-39.87 11.71z"/></g><circle cx="256.17" cy="298.24" fill="#e73f46" r="86.02"/><path d="m248.57 250.09h15.2v96.29h-15.2z" fill="#efefef" transform="matrix(.707 .707 -.707 .707 285.92 -93.79)"/><path d="m248.57 250.09h15.2v96.29h-15.2z" fill="#efefef" transform="matrix(-.707 .707 -.707 -.707 648.2 327.99)"/><path d="m222.48 243.23a30.94 30.94 0 0 0 -7.67-20.42 86.27 86.27 0 0 0 -39.73 46.73c20.42 12.76 47.4-1.84 47.4-26.31z" fill="#cc3745"/><path d="m261.58 347.53a31 31 0 0 0 -30.94 32.87 86.17 86.17 0 0 0 61.85-4.19 31 31 0 0 0 -30.91-28.68z" fill="#cc3745"/><path d="m325.87 247.87a31 31 0 0 0 16 57.36 85.47 85.47 0 0 0 -16-57.36z" fill="#cc3745"/><circle cx="321.83" cy="82.68" fill="#efefef" r="10.65"/></g></svg>