<svg height="512" viewBox="0 0 512 512" width="512" xmlns="http://www.w3.org/2000/svg" xmlns:xlink="http://www.w3.org/1999/xlink"><clipPath id="clip-path"><path d="m122.61 160.59h55.14v110.45h-55.14z"/></clipPath><clipPath id="clip-path-2"><rect height="154.02" rx="8.36" width="190.55" x="268.14" y="102.13"/></clipPath><g id="Developer"><path d="m265 407.09c-2.64-9.24-12.15-87.28-20.78-119.65s-52.1-46-52.1-46l11.58 118.35 6.87 109.35h146.91l6.34-30.25s-96.17-22.55-98.82-31.8z" fill="#e73f46"/><g clip-path="url(#clip-path)"><path d="m122.61 160.59h55.14v110.45h-55.14z" fill="#f5b493"/><path d="m123.27 172.32c5.26 31.62 28.56 54.73 59.6 62.07v-40.94z" fill="#eba284"/></g><path d="m150.07 231.67c-37.15-1-61 10.44-72.13 16.91-11.56 6.74-17.07 12.69-18.5 14.27-16.11 17.87-17.65 40.41-18.49 56-7.45 136.94-6.61 147.76 20.78 156.26 34.25 10.63 63.47 6.39 107.1.38 10.92-1.5 32.76-4.49 62.71-8.47l-11.28-40.85-112.73-10q7.55-45.47 15.08-90.94a129.9 129.9 0 0 0 16.06-27.46c4.55-10.51 10.27-34.37 11.4-66.1z" fill="#e73f46"/><path d="m160.44 234.82s53.07 4.84 67.94 30.27 15.84 195.76 15.84 195.76l-160.65 7.71 3.64-170.33z" fill="#e73f46"/><path d="m122.61 234.87s14 31.68 29.57 31.15 25.57-28.63 25.57-28.63-26.32-20.72-55.14-2.52z" fill="#f5b493"/><path d="m122.61 215.68a9.7 9.7 0 0 0 -8.34 5.95c-2.38 5.81-7.48 14.89-7.48 14.89s14.21 48 21.88 50.37 21.51-20.89 21.51-20.89a58.41 58.41 0 0 1 -27.57-50.32z" fill="#e73f46"/><path d="m177.75 219.69s4.46.18 6.23 3.88 8.14 17.28 8.14 17.28-8 35.47-17.22 41-22.72-15.85-22.72-15.85 22.07-11.26 25.57-46.31z" fill="#e73f46"/><path d="m106.79 236.52a95.1 95.1 0 0 0 11.57 38.22c3.42 6.09 12.18 21.73 19.82 20.34 9.2-1.67 17.79-32.86 14-24.31.1 0 0 0-14.79 18.76a148.84 148.84 0 0 1 -30.6-53.01z" fill="#cc3745"/><path d="m152.8 269.89c.55 1 12.46 23 21.66 20.79 1.91-.47 4.83-2.25 10.22-18.85a203.08 203.08 0 0 0 7.44-31l-18.54 44.72z" fill="#cc3745"/><path d="m154.85 280.89s-7.31 33.14 6.08 68.21 10.57 119.46 10.57 119.46h5.64s3.52-68.21-6.35-100.58-18.14-61.66-15.94-87.09z" fill="#cc3745"/><path d="m228 292-2.79 51q6.44 65.32 12.86 130.64l9.69-2.7-17.63-128.01q-1.08-25.48-2.13-50.93z" fill="#cc3745"/><path d="m159.14 468.68 21-.91s11.78-1.83 18.3-9.58 17.55 8 23.06 7.8-4.56-15.55-4.56-15.55 12.15 15.22 17.45 15-6-19.22-6-19.22 12.15 19 17.08 17.8-9.86-26.6-16.56-31.36-36.77 1.06-36.77 1.06l-32 .88s-8.23 18.49-1 34.08z" fill="#f5b493"/><path d="m148.46 430.19s-3.64 35.17 0 48.05l16.84-3.31s-4.05-29.95-1.4-40.34z" fill="#e73f46"/><path d="m144 430.19s-1.4 20.43 2.91 34.35l1.56-34.35z" fill="#cc3745"/><path d="m87.21 298.23a60.59 60.59 0 0 1 6.84 47.59l-.79 73.71 66.85 15.06-58.11-21.93q-.27-32.84-.53-65.68c4.08-17.75-.78-36.5-14.26-48.75z" fill="#cc3745"/><circle cx="155.22" cy="440.8" fill="#efbd42" r="4.89"/><path d="m95.55 414.86s-18.32 11.14-24.66 27.48c0 0 19.73-19.73 32.59-23.6z" fill="#cc3745"/><path d="m265 407.09s-13.87 9.71-18.56 21.91l26.71-16.33z" fill="#cc3745"/><path d="m227.44 143.54c-1.51-12-4.4-19.33-5.12-27.2-1.79-19.44.34-34.29-13.55-47.53a67.55 67.55 0 0 0 -14.69-12.81c-20-14.63-53.18-15-75.59 1.78-25.81 19.39-25.49 52.69-25.42 60.96.37 38.63 27.2 64.55 38.91 74.08a98.94 98.94 0 0 0 21.15 15.46c8.59 4.57 31.61 16.79 48.2 6.1 4.34-2.79 10.29-9.8 17.31-26.21 9.07-21.17 10.3-32.6 8.8-44.63z" fill="#f5b493"/><g fill="#2d1929"><path d="m194.27 160.15c4-2.26 6.12-4.57 6.17-6.86.05-2.78-3-4.57-5.91-7.88-3.73-4.19-6.24-9.68-7.47-16.32a.51.51 0 0 1 .41-.58.5.5 0 0 1 .58.4c3.25 17.71 13.51 18.44 13.39 24.4-.06 2.67-2.31 5.27-6.69 7.72a.5.5 0 0 1 -.48-.88z"/><path d="m208.64 137.74c-2.83.24-5.42-3.11-5.79-7.49s1.63-8.1 4.46-8.34 5.42 3.12 5.79 7.49-1.63 8.11-4.46 8.34z"/><path d="m164.59 141.43c-2.83.23-5.42-3.12-5.78-7.49s1.63-8.11 4.46-8.35 5.42 3.12 5.78 7.49-1.63 8.11-4.46 8.35z"/><path d="m187.86 184.36c-5.6 0-15.29-1.33-20.92-9.68a.5.5 0 0 1 .13-.7.51.51 0 0 1 .7.14c7.87 11.67 24.1 9 24.27 9a.5.5 0 0 1 .17 1 29 29 0 0 1 -4.35.24z"/><path d="m191.37 107.31a1 1 0 0 1 -.65-1.75c.11-.1 11.33-9.55 24.06-2.29a1 1 0 0 1 -1 1.74c-11.48-6.55-21.34 1.71-21.76 2.06a1 1 0 0 1 -.65.24z"/><path d="m147.92 111.24a1 1 0 0 1 -.73-1.68c9.91-10.78 23.47-5.18 23.61-5.13a1 1 0 0 1 -.78 1.85c-.51-.22-12.42-5.09-21.36 4.64a1 1 0 0 1 -.74.32z"/></g><path d="m447.47 478.8h-175.61a4.16 4.16 0 0 1 -4.13-4.71l18.79-143.72a4.17 4.17 0 0 1 4.14-3.63h180.62a4.17 4.17 0 0 1 4.11 4.85l-23.81 143.72a4.16 4.16 0 0 1 -4.11 3.49z" fill="#287eef"/><path d="m291.83 478.8h-134.56a4.17 4.17 0 0 1 -4.17-4.17v-1.7a4.16 4.16 0 0 1 4-4.16l134.55-5.77a4.17 4.17 0 0 1 4.35 4.16v7.51a4.17 4.17 0 0 1 -4.17 4.13z" fill="#287eef"/><path d="m378.63 423.84a21.07 21.07 0 1 1 21.07-21.07 21.09 21.09 0 0 1 -21.07 21.07zm0-40.14a19.07 19.07 0 1 0 19.07 19.07 19.09 19.09 0 0 0 -19.07-19.07z" fill="#efefef"/><path d="m269.05 463.93s.18 13.11 6.79 14.87h-6.26c-5.26-3.75-5.03-10.58-.53-14.87z" fill="#2d1929"/><path d="m136.33 113.3c-4.28 3.59-11.88 8.34-25.1 9.78q6.31 31.23 12.64 62.47c-2.74-1.51-56.05-32-55.8-81.64.3-59.26 62.08-88 109.48-63.54a40 40 0 0 1 46.24 24.31c7.21 17.92-1.14 34.32-2.47 36.83-6.07-18.4-18.77-32.94-35.58-42.11a40.27 40.27 0 0 0 -20.35 7.4c-16.64 12.38-12.69 32.77-29.06 46.5z" fill="#2d1929"/><path d="m112.8 156.88c-8.69 3.51-19.2-2.21-23.46-12.77s-.68-22 8-25.48 19.19 2.21 23.46 12.76.69 21.97-8 25.49z" fill="#f5b493"/><path d="m113.62 146.79c-.06 0-5.73-.85-6.25-6.34-.32-3.45 4.1-4.78 5.8-5.16-1.08-2.28-5.53-10.74-11.75-10.4-5.84.28-5.66 6.87-5.65 7.15a.5.5 0 0 1 -.48.52.53.53 0 0 1 -.52-.48c0-.08-.23-7.86 6.6-8.19 7.89-.39 12.78 11.09 13 11.58a.5.5 0 0 1 -.38.69c-.06 0-5.91 1-5.6 4.2.44 4.69 5.18 5.41 5.38 5.44a.5.5 0 0 1 -.15.99z" fill="#2d1929"/><g clip-path="url(#clip-path-2)"><rect fill="#efefef" height="154.02" rx="8.36" width="190.55" x="268.14" y="102.13"/><path d="m258.26 91.63h204.51v32.75h-204.51z" fill="#40c2d6"/></g><path d="m322.46 181.45 22-16.33a4 4 0 0 0 1.63-3.23v-1a1.1 1.1 0 0 0 -1.76-.88l-28.37 21.1a1.37 1.37 0 0 0 0 2.2l28.23 21a1.19 1.19 0 0 0 1.9-1v-1.31a3.15 3.15 0 0 0 -1.28-2.53l-22.31-16.59a.89.89 0 0 1 -.04-1.43z" fill="#2d1929"/><path d="m404.37 181.45-22-16.33a4 4 0 0 1 -1.63-3.23v-1a1.1 1.1 0 0 1 1.76-.88l28.37 21.1a1.37 1.37 0 0 1 0 2.2l-28.23 21a1.19 1.19 0 0 1 -1.9-1v-1.31a3.15 3.15 0 0 1 1.28-2.53l22.31-16.59a.89.89 0 0 0 .04-1.43z" fill="#2d1929"/><path d="m350.92 219.6a2 2 0 0 1 -2.08-2c0-.23 0-.47 23.84-63.71 1.16-2.93 5.31-3.19 5.31-.37 0 .34 0 .41-23.78 63.72a3.78 3.78 0 0 1 -3.29 2.36z" fill="#2d1929"/><rect fill="#efefef" height="7.75" rx="3.67" width="40.15" x="282.45" y="110.22"/></g></svg>