<svg id="Layer_1" viewBox="0 0 512 512" xmlns="http://www.w3.org/2000/svg" data-name="Layer 1"><path d="m280.9 273.0494c-1.8941-4.38-6.79-3.43-7.43-3.21-41.89 14.41-73.43 39.01-93.77 73.1a6.0475 6.0475 0 0 0 1.4 7.76c50.6262 41.33 111.4009 22.61 122.47 16.3a6.3681 6.3681 0 0 0 3.42-6.65c-3.52-17.51-21.09-75.7394-26.09-87.3zm-88.06 71.49c18.24-28.2 44.2-48.31 79.33-61.48 8.5 20.16 15.92 45.35 22.07 74.85-18.1139 8.0806-64.7939 13.7206-101.4-13.3694z"/><path d="m371.16 268.9693c-16.7938-5.94-41.668-9.5721-73.53-5.05-2.184.31-6.324 3.13-4.8 7.81 10.4224 32.012 17.7907 58.9653 22.01 80.13.631 3.1651 4.996 6.72 9.29 3.81 6.6519-4.5078 43.316-30.66 51.07-80.03a6.0528 6.0528 0 0 0 -4.04-6.67zm-46.46 71.3c-4.02-18.33-10.16-40.34-18.23-65.41 6.23-.69 33.1361-3.07 55.92 3.96a109.3814 109.3814 0 0 1 -37.69 61.4507z"/><path d="m270.09 261.9092c2.706-.86 6.066-4.88 3.15-9.11-3.1028-4.5009-11.732-18.619-11.82-18.78a5.9689 5.9689 0 0 0 -7-2.9c-35.1053 10.4254-73.18 15.89-113.24 16a5.9982 5.9982 0 0 0 -5.98 5.99c-.02 13.43 1.1366 48.6441 30.45 82.98 3.5259 4.13 8.57.98 9.61-.63 23.8177-36.8668 54.8926-60.8592 94.83-73.55zm-100.28 60.1508a110.532 110.532 0 0 1 -22.47-63c53.666-1.07 89.42-10.39 105.98-15.11 1.73 2.91 3.63 5.96 5.64 9.05-49.5539 17.47-77.72 52.7393-89.15 69.06z"/><path d="m278.77 223.02a6.0361 6.0361 0 0 0 -3.52 7.62c1.72 4.75 9.0116 19.8372 10.52 22.96a6.13 6.13 0 0 0 6.73 3.77c40.6263-4.78 77.85 3.68 78.29 3.68 4.6663 0 6.03-4.23 6.01-6.04-.1-13.85-1.5194-41.6-26.79-74.86-3.0639-4.0326-7.7639-1.84-9.28-.06-15.8378 18.5963-36.47 33.22-61.96 42.93zm66.23-29.6a108.399 108.399 0 0 1 19.49 54.26c-14.11-2.51-43.6639-5.56-69.39-2.83-1.16-2.56-5.48-11.09-6.33-12.91 22.29-9.3106 41.2-22.27 56.23-38.52z"/><path d="m143.65 238.56c40.79-.6439 76.9665-5.3822 107.32-14.79 5.3561-1.66 4.34-7.34 3.36-8.91-19.55-31.49-34.704-54.28-43.89-65.86a6.2156 6.2156 0 0 0 -7.34-1.67c-51.7444 25.9911-62.8816 71.786-65.41 84.01-1.0939 5.29 4.1886 7.2476 5.96 7.22zm60.38-78.2c8.32 11.14 20.73 29.84 35.9 54.08-25.71 6.95-55.55 10.97-88.69 11.95a109.7027 109.7027 0 0 1 52.79-66.0306z"/><path d="m266.87 214.6a5.8092 5.8092 0 0 0 7.43 2.64c27.972-11.2649 49.13-25.71 62.65-43.5a5.9619 5.9619 0 0 0 -.7-8.02c-43.0837-39.37-95.6709-30.5287-108.61-27.23a6.0728 6.0728 0 0 0 -3.58 9.23c19.3928 28.1087 33.3092 50.9 42.81 66.88zm57-43.78c-11.39 13.11-27.93 24.31-49.18 33.3-8.39-14.45-20.36-33.16-35.58-55.62 35.2161-4.99 66.59 7.37 84.76 22.3194z"/><path d="m396.825 256a140.8185 140.8185 0 1 0 -60.5311 115.695l-6.4646-10.1857a128.9833 128.9833 0 1 1 5.7037-4.233l7.8891 9.1275a140.566 140.566 0 0 0 53.4029-110.4038z"/><path d="m413.5728 106.5757 8.3525-8.6245q-4.1476-4.34-8.6167-8.3623l-8.3438 8.6333q4.4773 3.999 8.608 8.3535z"/><path d="m427.8052 104.4629-9.4 7.4614a142.3046 142.3046 0 0 1 34.6347 93.07v102.0111c0 79.3349-65.2646 143.8779-145.4863 143.8779h-103.1063a145.8293 145.8293 0 0 1 -129.1211-77.6357l-10.3672 6.0551a157.8426 157.8426 0 0 0 139.4883 83.5806h103.1064c86.8379 0 157.4863-69.9268 157.4863-155.8779v-102.0108a154.2409 154.2409 0 0 0 -37.2348-100.5317z"/><path d="m58.96 307.0054v-102.0108c0-79.3349 65.2656-143.8779 145.4873-143.8779h103.1064a145.7951 145.7951 0 0 1 91.938 32.4561l7.1338-9.6509a157.7341 157.7341 0 0 0 -99.0718-34.8052h-103.1064c-86.8389 0-157.4873 69.9268-157.4873 155.8779v102.0108a153.6327 153.6327 0 0 0 14.09 64.4218l11.1-4.5922a141.7 141.7 0 0 1 -13.19-59.8296z"/></svg>