<svg id="Layer_1" viewBox="0 0 512 512" xmlns="http://www.w3.org/2000/svg" data-name="Layer 1"><path d="m366.4629 278.2854c-4.8863-5.1133-8.7364-9.1509-9.3868-11.3462-.8957-3.0183 6.4084-12.3261 16.585-25.2317 16.2046-20.5489 28.5885-36.6543 28.9131-50.1179.5349-4.085-1.0244-13.0833-17.5342-13.0833-.1008 0-50.0974.4094-52.5361 1.363-4.44 1.6675-6.76 6.7054-11.8423 17.7434-19.4439 42.2271-32.3786 49.9312-32.9453 50.2542-3.4951-6.47-2.2934-19.075-1.6865-28.249 1.2436-18.8155 1.6967-31.7139-3.1407-38.4741-6.6206-10.285-34.1128-11.427-50.0489-9.7056-11.9907 1.2944-26.9917 4.9641-30.3628 15.094a6.0048 6.0048 0 0 0 4.3113 7.7394c5.78 1.6568 9.2637 3.5926 10.2649 5.2923 2.8277 4.7876 4.1934 30.2935 1.5542 42.7517-.08.3721-.694 4.484-1.9658 6.5022-3.5057-1.6-8.2847-8.1732-12.6025-14.579l-9.44 7.4645c22.0276 32.4245 33.2992 17.451 35.7733 2.978 2.684-12.8637 2.2509-42.2363-2.9546-51.1655a18.9482 18.9482 0 0 0 -7.753-7.0281c17.4286-6.6868 49.6759-3.5031 53.1407 1.1644 1.1609 1.5639 3.1411 2.5583 1.25 31.1745-.6181 9.3528-1.1518 17.43-.3169 22.9365 3.3391 22.0164 15.5564 22.636 26.8277 10.8416 15.4111-16.1267 24.79-36.4951 30.9951-49.9732a124.3831 124.3831 0 0 1 5.5972-11.309c.3363-.0132 49.8691-1.4115 53.4213-.1485-.0126 1.4436-.5522 6.66-6.6162 16.374-5.1347 8.2266-12.5522 17.6326-19.7251 26.7288-24.5379 31.1156-24.5817 33.327-6.3671 52.3872 5.1 5.3436 31.97 29.3977 33.3969 38.0076-8.4339 5.7563-46.0078 4.685-50.9975 3.9035-14.3361-2.78-26.3423-22.6079-31.9463-27.2121-6.7373-7.1384-13.2056-10.2214-19.2266-9.1658-8.3076 1.4566-11.72 10.0664-12.2422 11.38-2.6242 6.59-2.9173 17.988-3.9936 22.77-1.6587.5432-6.7144 1.7708-19.2 2.1209-36.8765 1.0251-64.1973-24.3965-80.5924-45.8885-20.6743-27.3886-48.8589-77.9162-52.1049-90.7617 8.9316-2.3672 39.6762-2.146 46.5747-.0976 2.6515 3.8119 8.9177 21.3033 22.26 42.6235l10.34-6.1118a280.0738 280.0738 0 0 1 -18.347-34.8877c-3.002-6.7661-4.8858-9.7666-7.1983-11.4663-6.9751-5.1279-48.01-4.4705-58.3608-1.1138-12.2274 3.968-6.7058 15.6057-3.5454 23.0369 9.5569 22.4763 34.2833 64.1228 50.8218 86.0324 25.9775 34.053 57.247 51.5638 90.4878 50.63 21.91-.6143 26.2837-3.7622 27.9356-5.9116 4.58-4.7019 3.22-19.2371 6.0478-26.4766 1.1943-2.79 2.4624-3.93 3.19-4.0579.28-.0518 2.9669-.3136 8.7131 5.8887 10.0486 10.8465 21.241 27.18 38.1023 30.45 3.072.5959 48.82 3.5727 61.1567-6.6009a10.5993 10.5993 0 0 0 4.19-8.3557c-.0011-11.0209-12.6436-23.7426-36.8707-47.1141z"/><path d="m413.5728 106.5757 8.3525-8.6245q-4.1476-4.34-8.6167-8.3623l-8.3438 8.6333q4.4773 3.999 8.608 8.3535z"/><path d="m427.8052 104.4629-9.4 7.4614a142.3046 142.3046 0 0 1 34.6347 93.07v102.0111c0 79.3349-65.2646 143.8779-145.4863 143.8779h-103.1063a145.8293 145.8293 0 0 1 -129.1211-77.6357l-10.3672 6.0551a157.8426 157.8426 0 0 0 139.4883 83.5806h103.1064c86.8379 0 157.4863-69.9268 157.4863-155.8779v-102.0108a154.2409 154.2409 0 0 0 -37.2348-100.5317z"/><path d="m58.96 307.0054v-102.0108c0-79.3349 65.2656-143.8779 145.4873-143.8779h103.1064a145.7951 145.7951 0 0 1 91.938 32.4561l7.1338-9.6509a157.7341 157.7341 0 0 0 -99.0718-34.8052h-103.1064c-86.8389 0-157.4873 69.9268-157.4873 155.8779v102.0108a153.6327 153.6327 0 0 0 14.09 64.4218l11.1-4.5922a141.7 141.7 0 0 1 -13.19-59.8296z"/></svg>