<svg xmlns="http://www.w3.org/2000/svg" id="Layer_1" width="512" height="512" data-name="Layer 1" viewBox="0 0 512 512"><g fill="#000"><path d="m313.8193 460.95h-103.0993a157.7983 157.7983 0 0 1 -136.6-78.31.01.01 0 0 1 -.0107-.01l-2.9793-5.13a.0774.0774 0 0 1 -.01-.04c0-.01.01-.03.02-.03l10.29-5.99h.04c.01 0 .02.01.03.02l2.99 5.15a146.3585 146.3585 0 0 0 126.23 72.34h103.1a145.4011 145.4011 0 0 0 102.88-42.19 142.1973 142.1973 0 0 0 42.61-101.69v-102.01a141.361 141.361 0 0 0 -30.8-88.48l-3.69-4.67c-.01-.01-.01-.02-.01-.04 0-.01.01-.02.0205-.03l9.34-7.38c.02-.02.05-.01.07.01l3.69 4.67a154.1678 154.1678 0 0 1 33.3795 95.92v102.01a153.4231 153.4231 0 0 1 -12.4 60.67 156.08 156.08 0 0 1 -14.53 26.48 157.8022 157.8022 0 0 1 -130.5606 68.73zm-246.5993-91.42a.0548.0548 0 0 1 -.05-.03l-2.27-5.5a153.2861 153.2861 0 0 1 -11.67-58.93v-102.01a153.24 153.24 0 0 1 12.4-60.67 155.2612 155.2612 0 0 1 14.53-26.48 157.8022 157.8022 0 0 1 130.56-68.73h103.1a157.8759 157.8759 0 0 1 94.36 31.1l4.77 3.55a.05.05 0 0 1 .01.07l-7.09 9.55c-.0107.01-.02.02-.03.02-.0205.01-.03 0-.04-.01l-4.78-3.54a145.2432 145.2432 0 0 0 -87.2-28.74h-103.1a145.36 145.36 0 0 0 -102.87 42.19 142.15 142.15 0 0 0 -42.62 101.69v102.01a141.4673 141.4673 0 0 0 10.76 54.35l2.27 5.5a.0189.0189 0 0 1 0 .03.0267.0267 0 0 1 -.03.03l-10.99 4.55zm352.73-265.03c-.0107 0-.02-.01-.03-.02l-8.55-8.28a.0473.0473 0 0 1 0-.07l8.29-8.54a.0485.0485 0 0 1 .0693-.01l4.2707 4.15h.01l4.26 4.14c.0108.01.0205.02.0205.03a.05.05 0 0 1 -.0205.04l-8.2793 8.54a.0816.0816 0 0 1 -.0407.02z"/><path d="m213.8857 362.6431a161.1151 161.1151 0 0 1 -84.3984-24.0913 6 6 0 0 1 4.3516-10.9712 60.809 60.809 0 0 0 11.792.7431 102.7608 102.7608 0 0 0 49.1523-12.7592 59.6687 59.6687 0 0 1 -39.2891-37.7032 6 6 0 0 1 4.2256-7.7275 57.7884 57.7884 0 0 1 -22.6816-45.6851v-.8587a6 6 0 0 1 9.165-5.0971q.5683.3522 1.1533.6865a57.5591 57.5591 0 0 1 -1.7793-60.3223 6 6 0 0 1 9.834-.9277c24.0606 28.6855 59.3643 47.12 97.7793 51.3022a39.4014 39.4014 0 0 1 -.3759-5.3842c0-32.1812 26.7216-58.3628 59.5673-58.3628 15.8008 0 30.1534 5.5547 40.8086 15.7163a108.1079 108.1079 0 0 0 28.7588-11.4736 6 6 0 0 1 8.6973 7.1 58.1713 58.1713 0 0 1 -8.334 16.0439q3.7324-1.3023 7.0879-2.8193a6 6 0 0 1 7.2588 9.083 137.2265 137.2265 0 0 1 -25.5733 25.9682v3.8951c0 37.3271-14.7754 75.0869-40.5361 103.5971-20.6309 22.8315-57.6172 50.0478-116.6641 50.0478zm-55.9511-23.01a149.64 149.64 0 0 0 55.9511 11.01c90.8887 0 145.2-72.0191 145.2-141.6455v-6.8676a6.0009 6.0009 0 0 1 2.4151-4.8115 129.0437 129.0437 0 0 0 11.0937-9.2408q-4.7607 1.0811-9.9834 1.9453a6 6 0 0 1 -4.2939-10.9213 57.53 57.53 0 0 0 12.2519-10.7349 123.5708 123.5708 0 0 1 -18.0576 5.2949 5.9974 5.9974 0 0 1 -5.6582-1.8c-8.5556-9.2715-20.7978-14.3774-34.4717-14.3774-26.2285 0-47.5673 20.7983-47.5673 46.3628a42.4881 42.4881 0 0 0 1.2285 8.9765c.125.604.2529 1.2212.3808 1.857a6 6 0 0 1 -6.2324 7.1738c-41.4238-2.4214-80.166-20.2246-107.7275-49.22a44.8659 44.8659 0 0 0 -2.5616 14.9028c0 15.481 7.8526 29.9736 20.4932 37.8228a6 6 0 0 1 -3.165 11.0971 52.5628 52.5628 0 0 1 -17.2549-2.959c3.7236 17.8155 18.1553 32.4434 36.4473 35.6885a6 6 0 0 1 .121 11.793 78.61 78.61 0 0 1 -14.9931 1.8315h-.6553a47.5281 47.5281 0 0 0 40.3994 23.1944 6 6 0 0 1 3.6213 10.7845 116.3445 116.3445 0 0 1 -56.9814 22.8428z"/></g></svg>