<svg xmlns="http://www.w3.org/2000/svg" id="Layer_1" width="512" height="512" data-name="Layer 1" viewBox="0 0 512 512"><g fill="#000"><path d="m312.6494 460.95h-103.0994a157.818 157.818 0 0 1 -136.6-78.3.01.01 0 0 0 -.0107-.01l-2.98-5.15c-.02-.02-.01-.05.01-.07l10.29-5.98h.04c.01 0 .03.01.03.02l2.9892 5.15a146.3413 146.3413 0 0 0 126.2115 72.34h103.1194a145.3989 145.3989 0 0 0 102.87-42.19 142.1636 142.1636 0 0 0 42.62-101.69v-102.01a141.3821 141.3821 0 0 0 -30.8-88.48l-3.69-4.67c-.01-.01-.01-.02-.01-.04 0-.01.01-.02.0206-.03l9.34-7.38a.0484.0484 0 0 1 .0693.01l3.69 4.67a154.1685 154.1685 0 0 1 33.3807 95.92v102.01a153.4214 153.4214 0 0 1 -12.4 60.67 156.08 156.08 0 0 1 -14.53 26.48 157.8022 157.8022 0 0 1 -130.5606 68.73zm-246.5994-91.42h-.02c-.02-.01-.03-.02-.03-.03l-2.27-5.5a153.2861 153.2861 0 0 1 -11.67-58.93v-102.01a153.4274 153.4274 0 0 1 12.4-60.67 155.2676 155.2676 0 0 1 14.53-26.48 157.8022 157.8022 0 0 1 130.56-68.73h103.1a157.8174 157.8174 0 0 1 94.35 31.1l4.78 3.55c.01.01.0195.02.0195.03a.0612.0612 0 0 1 -.01.04l-7.09 9.55a.053.053 0 0 1 -.04.02.037.037 0 0 1 -.03-.01l-4.78-3.54a145.2435 145.2435 0 0 0 -87.2-28.74h-103.0995a145.3168 145.3168 0 0 0 -102.87 42.19 142.1668 142.1668 0 0 0 -42.62 101.69v102.01a141.485 141.485 0 0 0 10.76 54.35l2.27 5.49c.01.02.01.03 0 .04 0 .01-.01.02-.03.03l-11 4.55zm352.73-265.03c-.0108 0-.0205-.01-.03-.02l-8.55-8.28c-.0107-.01-.0107-.02-.0107-.04a.0348.0348 0 0 1 .0107-.03l8.2793-8.55a.061.061 0 0 1 .08 0l8.54 8.29a.0473.0473 0 0 1 0 .07l-8.28 8.54a.0754.0754 0 0 1 -.0393.02z"/><path d="m185.5 320.06a65.7335 65.7335 0 1 1 25.69-5.18 65.6247 65.6247 0 0 1 -25.69 5.18zm0-120a54.013 54.013 0 1 0 38.18 15.82 53.6877 53.6877 0 0 0 -38.18-15.82z"/><path d="m336.7 320.06a65.734 65.734 0 1 1 25.6894-5.18 65.6211 65.6211 0 0 1 -25.6894 5.18zm0-120a54.013 54.013 0 1 0 38.18 15.82 53.7268 53.7268 0 0 0 -38.18-15.82z"/></g></svg>