<svg id="Layer_1" viewBox="0 0 512 512" xmlns="http://www.w3.org/2000/svg" data-name="Layer 1"><path d="m318.81 313.3242h-63.7656c-12.1884 0-15.8593-4.6545-17.6962-8.7095-2.7735-6.12-2.7706-15.1933-2.7686-23.9675v-16.1628h82.34c22.1377 0 40.1475-17.4261 40.1475-38.8455 0-21.3308-18.01-38.6846-40.1475-38.6846h-81.2596v-24.4018c0-22.4841-17.0713-40.7764-38.0557-40.7764-20.2109 0-42.8164 17.4385-42.8164 40.7764v117.3425a146.5875 146.5875 0 0 0 4.0955 35.3118l11.5283-2.84a136.9345 136.9345 0 0 1 -3.6238-32.4718v-117.3425c0-16.2061 16.5654-28.7764 30.8164-28.7764 14.3672 0 26.0557 12.9092 26.0557 28.7764v30.4018a6 6 0 0 0 6 6h87.26c15.5205 0 28.1475 11.9707 28.1475 26.6846 0 14.8028-12.627 26.8455-28.1475 26.8455h-88.34a6 6 0 0 0 -6 6v22.1628c-.002 10.052-.0049 20.44 3.8389 28.92 4.7353 10.4549 14.3672 15.7566 28.6259 15.7566h63.9642a26.1043 26.1043 0 0 1 26.1983 25.4594c.2761 15.8624-10.7659 27.44-26.0506 27.44h-64.1123c-28.1826 0-62.1992-12.2527-78.55-48.101l-10.7856 4.9115c15.6912 34.6612 47.4055 55.19 89.3359 55.19h64.1123c21.8553 0 38.2967-16.9531 38.053-39.35-.2273-20.8755-17.5235-37.5495-38.4-37.5495z"/><path d="m413.5728 106.5757 8.3525-8.6245q-4.1476-4.34-8.6167-8.3623l-8.3438 8.6333q4.4773 3.999 8.608 8.3535z"/><path d="m427.8052 104.4629-9.4 7.4614a142.3046 142.3046 0 0 1 34.6347 93.07v102.0111c0 79.3349-65.2646 143.8779-145.4863 143.8779h-103.1063a145.8293 145.8293 0 0 1 -129.1211-77.6357l-10.3672 6.0551a157.8426 157.8426 0 0 0 139.4883 83.5806h103.1064c86.8379 0 157.4863-69.9268 157.4863-155.8779v-102.0108a154.2409 154.2409 0 0 0 -37.2348-100.5317z"/><path d="m58.96 307.0054v-102.0108c0-79.3349 65.2656-143.8779 145.4873-143.8779h103.1064a145.7951 145.7951 0 0 1 91.938 32.4561l7.1338-9.6509a157.7341 157.7341 0 0 0 -99.0718-34.8052h-103.1064c-86.8389 0-157.4873 69.9268-157.4873 155.8779v102.0108a153.6327 153.6327 0 0 0 14.09 64.4218l11.1-4.5922a141.7 141.7 0 0 1 -13.19-59.8296z"/></svg>