<svg id="Layer_1" viewBox="0 0 512 512" xmlns="http://www.w3.org/2000/svg" data-name="Layer 1"><path d="m316.48 198.7105h-35.4719v-14.5154c0-5.5066 2.7012-5.9678 5.2325-5.9678h29.375a6 6 0 0 0 6-6v-44.4507a6 6 0 0 0 -6-6h-39.7442c-17.4211 0-33.9365 5.0861-45.2949 17.357l7.9026 9.3081c7.0735-8.2666 18.6118-14.6651 37.3923-14.6651h33.7442v32.4507h-23.375c-10.4688 0-17.2325 7.0528-17.2325 17.9678v20.5154a6 6 0 0 0 6 6h34.9453l-3.3085 39.2895h-33.3649a6 6 0 0 0 -6 6v122.2234h-39.84v-122.2234a6 6 0 0 0 -6-6h-19.92v-39.2895h19.92a6 6 0 0 0 6-6v-23.08c0-5.7536.92-18.1786 7.864-28.9262l-11.0147-5.0888c-5.1726 8.733-8.3933 19.9317-8.8493 34.015v17.08h-19.92a6 6 0 0 0 -6 6v51.2895a6 6 0 0 0 6 6h19.92v122.2234a6 6 0 0 0 6 6h51.84a6 6 0 0 0 6-6v-122.2234h32.881a6 6 0 0 0 5.979-5.4966l4.3186-51.2893a6 6 0 0 0 -5.9786-6.5036z"/><path d="m413.5728 106.5757 8.3525-8.6245q-4.1476-4.34-8.6167-8.3623l-8.3438 8.6333q4.4773 3.999 8.608 8.3535z"/><path d="m427.8052 104.4629-9.4 7.4614a142.3046 142.3046 0 0 1 34.6347 93.07v102.0111c0 79.3349-65.2646 143.8779-145.4863 143.8779h-103.1063a145.8293 145.8293 0 0 1 -129.1211-77.6357l-10.3672 6.0551a157.8426 157.8426 0 0 0 139.4883 83.5806h103.1064c86.8379 0 157.4863-69.9268 157.4863-155.8779v-102.0108a154.2409 154.2409 0 0 0 -37.2348-100.5317z"/><path d="m58.96 307.0054v-102.0108c0-79.3349 65.2656-143.8779 145.4873-143.8779h103.1064a145.7951 145.7951 0 0 1 91.938 32.4561l7.1338-9.6509a157.7341 157.7341 0 0 0 -99.0718-34.8052h-103.1064c-86.8389 0-157.4873 69.9268-157.4873 155.8779v102.0108a153.6327 153.6327 0 0 0 14.09 64.4218l11.1-4.5922a141.7 141.7 0 0 1 -13.19-59.8296z"/></svg>