<svg id="Layer_1" viewBox="0 0 512 512" xmlns="http://www.w3.org/2000/svg" data-name="Layer 1"><path d="m384.2791 282.7189c15.1755-56.0672-21.8421-129.6144-95.0644-147.6516l-3.3677 11.5335c97.4471 23.5616 91.6281 117.2574 86.3094 134.8684a6.5558 6.5558 0 0 0 .438 4.822c29.9159 54.095-36.5471 115.6867-89.8518 84.1562a5.8907 5.8907 0 0 0 -3.9464-.7255c-87.3555 14.1506-153.6585-61.3835-136.9606-135.45a6.0442 6.0442 0 0 0 -.6524-4.31l-.037-.0648c-30.2827-51.18 21.8062-121.0621 93.3612-85.3055a4.4363 4.4363 0 0 0 2.2149.365c12.6778-1.8086 25.4587-2.8456 42.2849.1991l1.448-11.9378c-17.0563-2.9926-30.1208-2.1572-42.6593-.5229-68.9142-39.4409-144.5578 34.3486-108.1585 101.249-14.7622 73.6178 44.6846 160.4681 149.2255 147.9332 71.2485 33.6917 135.3471-40.0172 105.4162-99.1583z"/><path d="m180.6942 219.7705c0 46.1567 51.8362 49.9062 82.9976 58.34l2.5871-12.02c-30.31-7.9946-73.5847-10.3171-73.5847-46.32 0-33.3216 41.0828-41.0145 63.3516-41.0145 43.7695 0 56.0278 22.9671 56.4238 23.6175 8.9229 14.6648-5.5193 27.3169-16.7842 19.1767-9.2593-6.6975-8.3994-28.2951-43.1074-28.2951-23.3042 0-35.4736 11.1675-35.4736 23.0964 0 20.6121 27.247 19.5505 70.1816 32.2532 31.0991 9.1994 35.5791 26.5425 35.5791 39.5517 0 24.6648-22.5925 46.1448-66.8193 46.1448-46.8076 0-66.8184-25.7656-66.8184-42.7256 0-10.0442 14.4363-11.7318 19.5713-7.3842 7.45 6.3081 7.6079 23.6718 25.9746 30.9179 49.348 19.4615 86.2708-30.07 40.3948-46.3238l-5.05 11.2555c34.1616 11.5141-1.06 35.69-30.9423 23.905-13.6163-5.3721-12.8426-21.7142-22.9073-29.1621-14.2922-10.5674-39.041-2.9256-39.041 16.7917 0 19.9988 20.7083 54.7256 78.8184 54.7256 59.1257 0 78.8193-33.614 78.8193-58.1448 0-37.32-33.56-47.9187-44.1748-51.0588-47.78-14.1355-61.5859-12.9346-61.5859-20.7461 0-5.6738 8.9282-11.0964 23.4736-11.0964 28.0806 0 23.1887 15.4807 36.0772 26.02 17.4406 14.2615 51.7514-6.0693 34.0664-35.1384-7.6368-12.5439-27.1875-29.38-66.6758-29.38-58.0619-.0007-75.3517 31.0308-75.3517 53.0138z"/><path d="m413.5728 106.5757 8.3525-8.6245q-4.1476-4.34-8.6167-8.3623l-8.3438 8.6333q4.4773 3.999 8.608 8.3535z"/><path d="m427.8052 104.4629-9.4 7.4614a142.3046 142.3046 0 0 1 34.6347 93.07v102.0111c0 79.3349-65.2646 143.8779-145.4863 143.8779h-103.1063a145.8293 145.8293 0 0 1 -129.1211-77.6357l-10.3672 6.0551a157.8426 157.8426 0 0 0 139.4883 83.5806h103.1064c86.8379 0 157.4863-69.9268 157.4863-155.8779v-102.0108a154.2409 154.2409 0 0 0 -37.2348-100.5317z"/><path d="m58.96 307.0054v-102.0108c0-79.3349 65.2656-143.8779 145.4873-143.8779h103.1064a145.7951 145.7951 0 0 1 91.938 32.4561l7.1338-9.6509a157.7341 157.7341 0 0 0 -99.0718-34.8052h-103.1064c-86.8389 0-157.4873 69.9268-157.4873 155.8779v102.0108a153.6327 153.6327 0 0 0 14.09 64.4218l11.1-4.5922a141.7 141.7 0 0 1 -13.19-59.8296z"/></svg>