<svg id="Layer_1" height="512" viewBox="0 0 512 512" width="512" xmlns="http://www.w3.org/2000/svg" data-name="Layer 1"><g fill="rgb(0,0,0)"><path d="m312.6494 448.8h-103.0994a157.818 157.818 0 0 1 -136.6-78.3.01.01 0 0 0 -.0107-.01l-2.98-5.15c-.02-.02-.01-.05.01-.07l10.29-5.98h.04c.01 0 .03.01.03.02l2.9892 5.15a146.3413 146.3413 0 0 0 126.2115 72.34h103.1194a145.3989 145.3989 0 0 0 102.87-42.19 142.1645 142.1645 0 0 0 42.62-101.69v-102.01a141.3832 141.3832 0 0 0 -30.8-88.48l-3.69-4.67a.0607.0607 0 0 1 -.01-.04c0-.01.01-.02.0206-.03l9.34-7.38a.0484.0484 0 0 1 .0693.01l3.69 4.67a154.1685 154.1685 0 0 1 33.38 95.92v102.01a153.4214 153.4214 0 0 1 -12.3993 60.67 156.08 156.08 0 0 1 -14.53 26.48 157.8735 157.8735 0 0 1 -130.5606 68.73zm-246.5994-91.42h-.02c-.02-.01-.03-.02-.03-.03l-2.27-5.5a153.2861 153.2861 0 0 1 -11.67-58.93v-102.01a153.4268 153.4268 0 0 1 12.4-60.67 155.2676 155.2676 0 0 1 14.53-26.48 157.8022 157.8022 0 0 1 130.56-68.73h103.1a157.8174 157.8174 0 0 1 94.35 31.1l4.78 3.55c.01.01.0195.02.0195.03a.0619.0619 0 0 1 -.01.04l-7.0895 9.55a.053.053 0 0 1 -.04.02.037.037 0 0 1 -.03-.01l-4.78-3.54a145.24 145.24 0 0 0 -87.2-28.74h-103.1a145.3184 145.3184 0 0 0 -102.87 42.19 142.1685 142.1685 0 0 0 -42.62 101.69v102.01a141.4347 141.4347 0 0 0 10.76 54.34l2.27 5.5a.0521.0521 0 0 1 -.03.07l-11 4.55zm352.73-265.03c-.0108 0-.0205-.01-.03-.02l-8.55-8.28c-.0107-.01-.0107-.02-.0107-.04a.0348.0348 0 0 1 .0107-.03l8.2793-8.55a.061.061 0 0 1 .08 0l8.54 8.29a.0479.0479 0 0 1 0 .07l-8.28 8.54a.0754.0754 0 0 1 -.039.02z"/><path d="m282.43 376.14c-12.1 0-20.25-2.14-28.22-4.5195l-.5-.18c-9.74-3.86-17.86-8.51-24.1407-13.83a53.6982 53.6982 0 0 1 -14.59-19.28l-.1-.26c-3.17-8.43-3.83-18.23-3.85-30.34v-83.7505h-27.6893a6.0092 6.0092 0 0 1 -6-6v-35.9a6.0142 6.0142 0 0 1 4.4405-5.8c9.2392-2.44 19.8691-7.66 25.2793-12.42.98-.84 1.94-1.75 2.86-2.69l4.16-4.25a.0475.0475 0 0 1 .0693 0l8.5108 8.32c.01.01.01.02.01.04a.0382.0382 0 0 1 -.01.03l-4.16 4.25c-1.17 1.19-2.37 2.32-3.58 3.37-6.33 5.42-15.41 10.25-25.58 13.6v25.45h27.7a6.008 6.008 0 0 1 6 6v89.75c-.02 12.55.88 20.31 3.01 25.96a41.6408 41.6408 0 0 0 11.28 14.77c5.14 4.37 12.2392 8.42 20.55 11.73 8.06 2.36 14.15 3.92 24.82 3.95 10.6894-.01 18.4492-.95 25.9394-3.18l.54-.13c5.95-1.16 13.26-3.93 23.68-8.97v-25.73a67.808 67.808 0 0 1 -31.1494 8.12h-.15a43.7119 43.7119 0 0 1 -21.81-5.9l-.11-.07a29.5581 29.5581 0 0 1 -12-14.02c-1.3994-3.57-1.71-7.45-1.95-11.79-.22-4.63-.22-10.25-.22-17.36v-66.28a5.9914 5.9914 0 0 1 6-6h51.0201v-34.16h-51.02a5.9923 5.9923 0 0 1 -6-6v-52.98h-24.24c-1.98 12.36-4.67 21.64-8.47 29.19-.56 1.1-1.12 2.16-1.66 3.16l-2.85 5.23c0 .01-.01.02-.03.02h-.03l-10.45-5.69-.03-.03c0-.02 0-.03.01-.04l2.84-5.23c.52-.94 1.02-1.9 1.49-2.83 3.62-7.12 6.25-17.12 8.05-30.58a6.0137 6.0137 0 0 1 5.95-5.2h35.42a6.0082 6.0082 0 0 1 6 6v52.98h51.02a6.01 6.01 0 0 1 6 6v46.16a5.9931 5.9931 0 0 1 -6 6h-51.02v59.83c0 6.89-.01 12.85.21 17.23.17 4.16.68 6.99 1.08 7.87a17.8333 17.8333 0 0 0 6.98 8.19 31.1691 31.1691 0 0 0 15.97 4.3h.0195c11.17 0 22.82-4.05 33.67-11.72a6.0968 6.0968 0 0 1 6.2207-.43 5.9625 5.9625 0 0 1 3.2393 5.33v40.17a6.03 6.03 0 0 1 -3.34 5.38c-9.6 4.73-19.8 9.53-29.71 11.56-8.46 2.49-17.41 3.59-29.02 3.59h-.09a2.53 2.53 0 0 1 -.2695.01z"/></g></svg>