<svg id="Layer_1" viewBox="0 0 512 512" xmlns="http://www.w3.org/2000/svg" data-name="Layer 1"><path d="m368.3911 219.7437c-21.4639-.317-20.5054-2.2327-23.2783-21.2275-2.5689-17.5964-4.9067-22.3573-8.5693-28.9595-14.9378-26.9257-45.4082-45.9782-69.17-47.5033-15.16-.9729-60.7636-.0959-60.7636-.0959-28.5357.8973-49.9529 11.564-64.7764 26.3932l8.0251 9.1412c13.1326-13.7115 32.1194-23.5344 56.7513-23.5344 0 0 44.4995-1.3626 59.249 0 18.5469 1.7134 48.9043 20.3538 59.9287 40.9214 3.1328 5.845 5.7947 9.6213 7.4619 25.4551 2.9961 28.4569 12.116 31.4021 34.7139 31.4021 13.6723 0 15.9414 2.3349 15.9414 6.8589 0 16.596-.8789 64.79-.8789 64.79 0 49.8461-47.2 75.0205-78.5342 75.0205h-96.9932c-42.9423 0-78.5586-33.6394-79.4238-75v-94.509c0-14.8657 5.9028-32.2654 17.5-46.555l-9.9434-7.09c-13.2214 16.3912-19.5569 36.2981-19.5569 53.6452l.0029 94.76c1 47.8332 42.0118 86.7485 91.4209 86.7485h96.9932c43.0339 0 90.5342-33.2143 90.5342-86.9346 0 0 .8994-48.16.8994-66.3357.0003-11.344-8.0793-17.1039-27.5339-17.3912z"/><path d="m208.3892 231.084h47.1608c12.14 0 22.0166-9.5713 22.0166-21.3362s-9.877-21.3354-22.0166-21.3354h-47.1608c-11.73 0-22.0176 9.97-22.0176 21.3354 0 11.7649 9.8769 21.3362 22.0176 21.3362zm0-30.6716h47.1608c5.5234 0 10.0166 4.1877 10.0166 9.3354s-4.4932 9.3362-10.0166 9.3362h-47.1608c-5.5235 0-10.0176-4.1882-10.0176-9.3362 0-4.7114 4.9619-9.3354 10.0176-9.3354z"/><path d="m208.3892 323.9493h95.2119c12.14 0 22.0166-9.5708 22.0166-21.3348s-9.877-21.3361-22.0166-21.3361h-95.2119c-12.1407 0-22.0176 9.5712-22.0176 21.3361s9.8769 21.3348 22.0176 21.3348zm0-30.6709h95.2119c5.5234 0 10.0166 4.1882 10.0166 9.3361s-4.4932 9.3348-10.0166 9.3348h-95.2119c-5.5235 0-10.0176-4.1875-10.0176-9.3348s4.4941-9.3361 10.0176-9.3361z"/><path d="m413.5728 106.5757 8.3525-8.6245q-4.1476-4.34-8.6167-8.3623l-8.3438 8.6333q4.4773 3.999 8.608 8.3535z"/><path d="m427.8052 104.4629-9.4 7.4614a142.3046 142.3046 0 0 1 34.6347 93.07v102.0111c0 79.3349-65.2646 143.8779-145.4863 143.8779h-103.1063a145.8293 145.8293 0 0 1 -129.1211-77.6357l-10.3672 6.0551a157.8426 157.8426 0 0 0 139.4883 83.5806h103.1064c86.8379 0 157.4863-69.9268 157.4863-155.8779v-102.0108a154.2409 154.2409 0 0 0 -37.2348-100.5317z"/><path d="m58.96 307.0054v-102.0108c0-79.3349 65.2656-143.8779 145.4873-143.8779h103.1064a145.7951 145.7951 0 0 1 91.938 32.4561l7.1338-9.6509a157.7341 157.7341 0 0 0 -99.0718-34.8052h-103.1064c-86.8389 0-157.4873 69.9268-157.4873 155.8779v102.0108a153.6327 153.6327 0 0 0 14.09 64.4218l11.1-4.5922a141.7 141.7 0 0 1 -13.19-59.8296z"/></svg>