<svg id="Layer_1" viewBox="0 0 512 512" xmlns="http://www.w3.org/2000/svg" data-name="Layer 1"><path d="m281.8356 307.2175c-15.3838 0-28.7383-7.5469-32.7617-14.8433a6.006 6.006 0 0 0 -11.0234 1.252c-.3868 1.3559-9.4356 33.0962-11.2471 40.2095-4.5029 14.935-14.5928 30.22-20.89 38.6923-1.1992-10.4834-2.0166-28.8838 2.9834-43.7207.2776-.8139 3.6551-12.7175 20.0205-80.8442a5.9977 5.9977 0 0 0 -.58-4.2979 46.6743 46.6743 0 0 1 -4.4373-20.1772c0-37.8552 38.1123-41.9673 38.1123-16.2363 0 12.2778-9.2976 31.8419-13.6407 50.65-6.693 24.269 18.4314 42.2281 43.1514 33.3717l-2.3242-12.1693c-16.9373 6.9055-33.5425-2.7618-29.2344-18.1014.4915-1.7294.6765-4.3093 6.5527-21.9716 2.3353-7.02 22.7181-59.9991-19.2412-59.9991-20.1679 0-35.3759 19.1119-35.3759 44.4561a60.237 60.237 0 0 0 4.8535 23.7363c-2.7578 11.459-16.16 67.042-19.2715 77.8809-7.8613 23.4834-3.3477 52.22-1.9385 58.2881.8638 6.9018 10.0637 9.4143 14.1738 3.5683 3.9766-4.44 21.794-27.0239 28.6182-49.8027.0244-.083.0479-.1665.0693-.251 1.0713-4.2378 5.2569-19.0962 8.1924-29.456 8.8291 7.1533 21.9942 11.7656 35.2383 11.7656 50.4807 0 84.1587-41.0667 88.4695-94.9658l-11.9194-1.2625c-3.7556 50.1065-34.1747 84.2282-76.55 84.2282z"/><path d="m358.7387 215.6626c3.2424-.1054 10.8386-.3146 12.0117-.347a88.0854 88.0854 0 0 0 -.4668-11.9882l-12.0671.4672a72.1237 72.1237 0 0 1 .5222 11.868z"/><path d="m332.7643 208.9611c0-37.9077-27.4521-62.4018-69.9365-62.4018-52.4209 0-82.0322 38.5028-82.0322 76.9287 0 22.73 12.3471 33.12 13.4287 34.7822-.0764.6366-3.3191 11.9685-3.5244 12.6079-17.085-7.104-27.28-26.0864-27.28-50.8086 0-33.9182 28.97-86.2929 103.7275-86.2929 49.991 0 82.4439 30.3589 89.9563 63.7376l11.584-3.6348c-9.581-41.5953-50.9824-72.1028-101.54-72.1028-73.5913 0-115.7275 50.0578-115.7275 98.2929 0 29.729 12.95 52.8457 34.6514 61.88a11.2479 11.2479 0 0 0 15.9814-7.1782c.9441-2.8789 2.6226-9.4938 3.39-11.7681 2.2-6.5786-.2378-10.8921-3.9043-14.5713-5.8008-6.6264-8.7422-15.0185-8.7422-24.9443 0-31.4761 24.5449-64.9287 70.0322-64.9287 35.7363 0 57.9365 19.313 57.9365 50.4018 0 39.3726-13.1931 59.9051-27.3572 68.084l7.981 9.1239c18.8548-12.9954 31.3753-41.9166 31.3753-77.2075z"/><path d="m418.6724 106.5757 8.3525-8.6245q-4.1476-4.34-8.6167-8.3623l-8.3437 8.6333q4.4772 3.999 8.6079 8.3535z"/><path d="m432.9048 104.4629-9.4 7.4614a142.3046 142.3046 0 0 1 34.6347 93.07v102.0111c0 79.3349-65.2646 143.8779-145.4863 143.8779h-103.1063a145.8293 145.8293 0 0 1 -129.1211-77.6357l-10.3672 6.0551a157.8426 157.8426 0 0 0 139.4883 83.5806h103.1064c86.8379 0 157.4863-69.9268 157.4863-155.8779v-102.0108a154.24 154.24 0 0 0 -37.2348-100.5317z"/><path d="m64.06 307.0054v-102.0108c0-79.3349 65.2656-143.8779 145.4873-143.8779h103.106a145.7951 145.7951 0 0 1 91.938 32.4561l7.1338-9.6509a157.7341 157.7341 0 0 0 -99.0718-34.8052h-103.1064c-86.8389 0-157.4869 69.9268-157.4869 155.8779v102.0108a153.6312 153.6312 0 0 0 14.09 64.4218l11.1-4.5922a141.7 141.7 0 0 1 -13.19-59.8296z"/></svg>