<svg id="Layer_1" viewBox="0 0 512 512" xmlns="http://www.w3.org/2000/svg" data-name="Layer 1"><path d="m336.9906 187.19c-4.625-40.1-47.2129-44.44-55.7-44.44h-90.7106a5.9907 5.9907 0 0 0 -5.84 4.65l-40.32 175.31a6.0067 6.0067 0 0 0 5.85 7.34h31.71l-7.32 31.8594a5.994 5.994 0 0 0 5.85 7.34h53.16a5.9994 5.9994 0 0 0 5.85-4.68l12.05-53.5h34.25c28.2644 0 68.5974-14.1777 79.9-62.26 5.3392-21.6029 1.4449-48.3148-28.7294-61.6194zm17.0594 58.81c-.2671 1.1382-9.8909 53.07-68.23 53.07h-39.05a5.9835 5.9835 0 0 0 -5.85 4.68l-12.05 53.5h-40.83l6.25-27.2h9.14a6.0026 6.0026 0 0 0 5.86-4.68l12.04-53.51h34.26c24.1577 0 44.7066-8.9917 59.1978-23.6114l-7.94-9.32c-11.886 12.3033-29.2339 20.9314-51.2578 20.9314h-39.06a6.01 6.01 0 0 0 -5.85 4.68l-12.05 53.51h-40.82l37.55-163.3h85.93c48.3494 0 54.6392 48.4282 29.6445 79.54l10.3233 6.5572a79.9211 79.9211 0 0 0 15.8427-40.2572c20.1084 11.2479 20.2722 31.9339 16.9495 45.41z"/><path d="m265.5385 178.46h-26.2027a6 6 0 0 0 -5.833 4.5938l-11.59 48.0791a6.0028 6.0028 0 0 0 5.833 7.4063h25.1948c24.4592 0 37.2422-21.9737 37.2422-36.3262.0002-16.2667-13.1321-23.753-24.6443-23.753zm-12.5977 48.08h-17.5767l8.6973-36.0792h21.4771c3.7807 0 12.6445 1.6695 12.6445 11.753 0 12.148-11.3582 24.3262-25.2422 24.3262z"/><path d="m413.5728 106.5757 8.3525-8.6245q-4.1476-4.34-8.6167-8.3623l-8.3438 8.6333q4.4773 3.999 8.608 8.3535z"/><path d="m427.8052 104.4629-9.4 7.4614a142.3046 142.3046 0 0 1 34.6347 93.07v102.0111c0 79.3349-65.2646 143.8779-145.4863 143.8779h-103.1063a145.8293 145.8293 0 0 1 -129.1211-77.6357l-10.3672 6.0551a157.8426 157.8426 0 0 0 139.4883 83.5806h103.1064c86.8379 0 157.4863-69.9268 157.4863-155.8779v-102.0108a154.2409 154.2409 0 0 0 -37.2348-100.5317z"/><path d="m58.96 307.0054v-102.0108c0-79.3349 65.2656-143.8779 145.4873-143.8779h103.1064a145.7951 145.7951 0 0 1 91.938 32.4561l7.1338-9.6509a157.7341 157.7341 0 0 0 -99.0718-34.8052h-103.1064c-86.8389 0-157.4873 69.9268-157.4873 155.8779v102.0108a153.6327 153.6327 0 0 0 14.09 64.4218l11.1-4.5922a141.7 141.7 0 0 1 -13.19-59.8296z"/></svg>