<svg id="Layer_1" viewBox="0 0 512 512" xmlns="http://www.w3.org/2000/svg" data-name="Layer 1"><path d="m344.9026 357.3187c-4.6563-1.2652-16.3369-5.9185-22.082-13.6973a122.5194 122.5194 0 0 0 51.4794-100.3214c0-67.4836-52.5-121.5332-117.8886-121.5332-63.4343 0-115.4114 51.1672-118.5962 115.292l11.9653 1.1233c2.6148-58.03 49.4409-104.4153 106.6309-104.4153 58.3877.0001 105.8886 49.1363 105.8886 109.5332a110.54 110.54 0 0 1 -50.6142 93.3735 6.0016 6.0016 0 0 0 -2.3359 7.2281c5.3017 13.5556 20.3945 20.7094 27.99 23.5405v10.1779c-30.2383 3.67-42.1641-10.458-49.7959-25a6 6 0 0 0 -7.0274-2.9619c-51.7698 15.4419-129.594-22.5471-130.8266-104.3922l-11.99.7762c1.6743 87.2957 82.9643 130.4965 141.5815 116.3728 13.8706 23.1772 34.6545 31.5876 65.0869 26.2905a6 6 0 0 0 4.9717-5.9111v-19.6827a6.0124 6.0124 0 0 0 -4.4375-5.7929z"/><path d="m270.4905 334.7645a6.0033 6.0033 0 0 0 4.0459-8.85c-8.5557-15.0513-19.99-20.502-26.7578-22.4673v-12.1915c17.8994.8022 34.2246 8.3032 45.4414 21.0488a6.0056 6.0056 0 0 0 9.333-.4028c11.3887-15.4419 17.2851-35.5108 16.61-56.52l-.0322-22.5015c.9993-24.0918-6.4336-44.9252-18.49-59.5733-1.2661.8616-7.4866 5.0955-9.9128 6.7465 9.6845 11.5368 16.4028 28.9928 16.4028 52.7125l.0322 22.7261c0 4.3325 1.0325 23.8853-10.3633 43.353-14.5166-13.2768-34.2207-20.3545-55.2343-19.6079a6 6 0 0 0 -5.7871 5.9961v23.1074a5.9393 5.9393 0 0 0 5.62 5.9878c.4414.0332 8.9853.794 17.1494 9.774-36.2029.9348-53.1292-36.4839-52.9414-65.9673.0268-28.7986.0266-27.1319.0234-27.2866-.9536-40.2226 24.5147-67.9844 50.7813-67.9844 10.291 0 21.1767 4.2065 30.216 12.8249l7.222-9.5454c-10.65-9.7024-23.7334-15.2795-37.438-15.2795-32.8267 0-63.8687 32.7876-62.7793 80.1933l-.0254 27.0337c-.2755 43.252 28.6776 86.2582 76.8842 76.6734z"/><path d="m413.5728 106.5757 8.3525-8.6245q-4.1476-4.34-8.6167-8.3623l-8.3438 8.6333q4.4773 3.999 8.608 8.3535z"/><path d="m427.8052 104.4629-9.4 7.4614a142.3046 142.3046 0 0 1 34.6347 93.07v102.0111c0 79.3349-65.2646 143.8779-145.4863 143.8779h-103.1063a145.8293 145.8293 0 0 1 -129.1211-77.6357l-10.3672 6.0551a157.8426 157.8426 0 0 0 139.4883 83.5806h103.1064c86.8379 0 157.4863-69.9268 157.4863-155.8779v-102.0108a154.2409 154.2409 0 0 0 -37.2348-100.5317z"/><path d="m58.96 307.0054v-102.0108c0-79.3349 65.2656-143.8779 145.4873-143.8779h103.1064a145.7951 145.7951 0 0 1 91.938 32.4561l7.1338-9.6509a157.7341 157.7341 0 0 0 -99.0718-34.8052h-103.1064c-86.8389 0-157.4873 69.9268-157.4873 155.8779v102.0108a153.6327 153.6327 0 0 0 14.09 64.4218l11.1-4.5922a141.7 141.7 0 0 1 -13.19-59.8296z"/></svg>