<svg id="Layer_1" viewBox="0 0 512 512" xmlns="http://www.w3.org/2000/svg" data-name="Layer 1"><path d="m301.1064 256.038c2.5732.0459 19.39 3.0327 34.16 5.8931a6.0032 6.0032 0 0 0 6.2422-9.0479c-3.64-5.8823-16.44-25.0737-28.3252-25.08h-.0078c-14.1709 0-17.6308 19.1108-17.9785 21.29a5.9926 5.9926 0 0 0 5.9093 6.9448zm12.07-16.2353h.001c1.7842.0009 5.4052 3.0527 9.333 7.5185-4.7432-.8628-9.6826-1.728-13.6865-2.3535 1.2044-2.8428 2.804-5.165 4.3528-5.165z"/><path d="m359.6347 161.4223c-13.043-18.031-41.2427-21.6638-47.2656-21.667l-28.7168-.0151c-14.251-18.5058-35.2966-17.9707-37.5938-17.9707-28.3354 0-28.46 14.5218-28.3564 23.9462.0171 1.6581.0137-1.8313-.0059 35.1055l-7.665 7.605-47.4512-.0254c-6.0312 0-19.7751 15.4124-19.7861 35.0532-.0015 2.7888.3013 51.5513 21.1789 80.4074l10.2757-6.2314c-19.1922-25.3167-19.4546-73.5354-19.4546-74.1691a30.6022 30.6022 0 0 1 9.8847-23.0591c39.8842.0216 46.3641.0252 47.8226.0258a5.9923 5.9923 0 0 0 4.224-1.74l11.1959-11.1074a6.0113 6.0113 0 0 0 1.7741-4.2614c.0228-44.1883-.4619-44.3377 1.5557-46.3755 1.1738-1.1861 4.6582-3.1743 14.8086-3.1743 25.0418 0 27.1963 17.966 34.459 17.9692l31.8447.0166c.544 0 26.5191 1.4579 37.5488 16.7007 5.2491 7.2539 17.5391 24.2412 17.4932 109.8271-.0329 62.9993-23.08 95.5012-46.1894 99.9727l-27.9082-.0147c-14.2581-.0073-33.59-4.8466-33.5743-33.3393.01-18.3511 19.2237-23.1 29.3262-24.3277l-.0029 6.2769c-4.5664-.3438-9.1172.1865-12.876 3.0151-15.8332 11.9124-.8806 38.142 8.5264 38.1455l27.542.0147c18.5437 0 19.7812-19.9675 19.7812-20.5225l.0127-23.9345c.0122-21.3894-21.8325-30.8011-40.4111-30.8111-17.62-.01-30.72-23.9668-30.8457-24.2007a6.0051 6.0051 0 0 0 -11.292 2.8238l-.0156 28.5349c-2.3689 6.4785-13.9953 17.7893-51.69 12.5119a33.7741 33.7741 0 0 1 -19.7739-10.3968l-7.39 9.5721a44.8685 44.8685 0 0 0 25.436 12.7c51.407 7.94 65.4155-15.8269 65.418-23.8515l.0058-10.8926c7.1865 7.6118 17.5127 15.1924 30.1416 15.1992 20.8657.0113 28.4219 10.874 28.417 18.8042 0 0 .1 22.3164-.0127 23.731-.5877 7.403-5.297 8.7329-7.7754 8.7329l-25.3808-.0137c-9.2227-8.5154-4.3936-15.8694-3.48-16.5571 1.9472-1.4649 8.15-.228 10.4863.2363a6.002 6.002 0 0 0 7.1719-5.8808l.0107-19.6612a6 6 0 0 0 -6.0244-6.0034c-16.373 0-47.29 7.6782-47.3057 36.749-.018 33.1389 21.7915 45.3334 45.5684 45.3457 2.5867.0015 28.374.0152 28.4062.0152 4.5 0 57.6438-10.2859 57.6973-111.9673.0483-89.4744-13.3375-107.9754-19.7701-116.8665z"/><path d="m157.454 185.0126 41.8077.0225h.0029a6 6 0 0 0 4.2181-1.7328l10.0383-9.9215a6.001 6.001 0 0 0 1.7826-4.2652l.0215-41.3628a6.005 6.005 0 0 0 -10.2177-4.27l-51.8682 51.2622a6.0049 6.0049 0 0 0 4.2148 10.2676zm45.8633-42.89-.0127 24.4824-6.5039 6.4282-24.7451-.0132z"/><path d="m418.6724 106.5757 8.3525-8.6245q-4.1476-4.34-8.6167-8.3623l-8.3437 8.6333q4.4772 3.999 8.6079 8.3535z"/><path d="m432.9048 104.4629-9.4 7.4614a142.3046 142.3046 0 0 1 34.6347 93.07v102.0111c0 79.3349-65.2646 143.8779-145.4863 143.8779h-103.1063a145.8293 145.8293 0 0 1 -129.1211-77.6357l-10.3672 6.0551a157.8426 157.8426 0 0 0 139.4883 83.5806h103.1064c86.8379 0 157.4863-69.9268 157.4863-155.8779v-102.0108a154.24 154.24 0 0 0 -37.2348-100.5317z"/><path d="m64.06 307.0054v-102.0108c0-79.3349 65.2656-143.8779 145.4873-143.8779h103.106a145.7951 145.7951 0 0 1 91.938 32.4561l7.1338-9.6509a157.7341 157.7341 0 0 0 -99.0718-34.8052h-103.1064c-86.8389 0-157.4869 69.9268-157.4869 155.8779v102.0108a153.6312 153.6312 0 0 0 14.09 64.4218l11.1-4.5922a141.7 141.7 0 0 1 -13.19-59.8296z"/></svg>