<svg id="Layer_1" viewBox="0 0 512 512" xmlns="http://www.w3.org/2000/svg" data-name="Layer 1"><path d="m344.907 189.3772c-.1 0 2.02-10.4331-9.3789-10.4331-2.458 0 6.5166-5.8509-132.5967 83.9575a6 6 0 0 0 -2.4922 6.769l18.1084 60.2194c1.8608 6.1853 11.0444 5.4919 11.7158-1.1221l3.6485-35.9468c118.5419-108.2122 110.4672-100.765 110.9951-103.4439zm-120.7783 96.126a6.0048 6.0048 0 0 0 -1.9249 3.8256c-.1494 1.4683-.8378 8.2608-.8378 8.2608l-8.136-27.0532c44.1465-28.4971 73.3213-47.2818 92.2979-59.461-16.7635 15.377-42.4998 38.9199-81.3992 74.4278z"/><path d="m376.66 140.98c-1.8008 0 5.3723-3.0349-246.15 92.06a14.6392 14.6392 0 0 0 .6641 27.7959l56.0439 17.6636 22.8389 69.6a15.2475 15.2475 0 0 0 25.0937 6.1465l29.7334-28.2276 1.1455.8408 7.07-9.6963-5.1577-3.7861a6.042 6.042 0 0 0 -7.6817.4849l-33.3017 31.6167c-1.2491 1.1489-4.25 2.0658-5.5411-1.2466l-23.7578-72.3994a6 6 0 0 0 -3.8974-3.8521l-58.91-18.5669c-2.34-.8208-3.1484-3.9382-.0107-5.1821 183.3632-69.3232 234.0937-88.2422 242.247-91.0879a2.8752 2.8752 0 0 1 2.127 2.7984c-.6572 6.3217-24.7363 121.6875-40.74 197.5927-2.07 9.0767-9.8809 4.371-10.2608 4.09l-48.6426-35.71-7.0925 9.6794 48.5759 35.6616c8.011 6.1474 25.1617 6.3073 29.1407-11.1494 6.7734-32.1226 40.581-192.7 40.9892-199.33.6768-10.9374-9.3706-15.7961-14.5253-15.7961z"/><path d="m413.5728 106.5757 8.3525-8.6245q-4.1476-4.34-8.6167-8.3623l-8.3438 8.6333q4.4773 3.999 8.608 8.3535z"/><path d="m427.8052 104.4629-9.4 7.4614a142.3046 142.3046 0 0 1 34.6347 93.07v102.0111c0 79.3349-65.2646 143.8779-145.4863 143.8779h-103.1063a145.8293 145.8293 0 0 1 -129.1211-77.6357l-10.3672 6.0551a157.8426 157.8426 0 0 0 139.4883 83.5806h103.1064c86.8379 0 157.4863-69.9268 157.4863-155.8779v-102.0108a154.2409 154.2409 0 0 0 -37.2348-100.5317z"/><path d="m58.96 307.0054v-102.0108c0-79.3349 65.2656-143.8779 145.4873-143.8779h103.1064a145.7951 145.7951 0 0 1 91.938 32.4561l7.1338-9.6509a157.7341 157.7341 0 0 0 -99.0718-34.8052h-103.1064c-86.8389 0-157.4873 69.9268-157.4873 155.8779v102.0108a153.6327 153.6327 0 0 0 14.09 64.4218l11.1-4.5922a141.7 141.7 0 0 1 -13.19-59.8296z"/></svg>