<svg id="Layer_1" viewBox="0 0 512 512" xmlns="http://www.w3.org/2000/svg" data-name="Layer 1"><path d="m355.7535 326.1a6.0026 6.0026 0 0 0 -9.61-3.3623c-28.4231 22.8249-77.031-10.4911-77.8369-10.9663-14.1533-8.3423-28.7256-16.9317-45.2617-19.0059 19.9837-24.3255 116.6165-130.3441 117.8082-133.8744.46-1.3618.2282-1.6792 2.8535-22.4727 1.1594-7.358-4.8342-12.0566-12.4456-10.1444-36.7483 6.562-62.8027 6.8692-81.531 4.4752l-.8635 12.275c18.22 2.1381 44.8364 2.1271 82.4963-4.575-.6247 5.1175-1.3161 11.092-1.93 16.0351-3.39 3.9087-14.8926 16.8086-27.9581 31.4629-26.6826 29.9258-63.2246 70.91-86.15 97.3448-5.2089 6.1768-5.7469 7.5794-5.7471 14.998a5.99 5.99 0 0 0 5.9787 6.0048c16.42-.0074 31.1064 8.6494 46.656 17.8145 1.9971 1.1773 46.2818 32.732 82.8086 15.397.2256 14.8036-7.3088 43.2553-32.5576 40.4785-31.8017-3.6978-64.3081-34.7387-81.2275-43.101-21.0186-10.3863-38.44-10.9261-64.252-10.8995 0 0-.2773-21.4 0-22.2651a12.1261 12.1261 0 0 1 1.4287-3.272c27.2955-37.6849 63.54-74.1591 102.7559-117.7622a6.0051 6.0051 0 0 0 -5.6064-9.9018c-48.0215 9.3354-60.4971.5239-63.1748-2.3994-4.5957-5.0147 4.73-26.3272 12.3095-34.6084 1.24.3026 8.563 4.9567 25.4456 7.9694.3835-1.7685 2.0071-9.2551 2.6181-12.0687a101.1339 101.1339 0 0 1 -22.0639-6.4143c-5.9082-2.5309-11.0271-1.4327-13.67 1.1806-8.249 8.1567-25.6992 38.7211-13.4863 52.0488 6.3564 6.9365 21.49 13.5356 57.3213 8.8613-55.0243 61.5049-91.7247 105.3775-92.2535 106.1616a27.9837 27.9837 0 0 0 -3.4414 7.8794c-.3135 1.244-.271 26.7044 0 27.78 1.6445 6.5034 6.0283 8.811 9.2832 8.811 24.79-.0061 41.5959-.1635 61.47 9.6568 15.6433 7.73 55.2973 44.5273 89.8672 44.5273 32.8737-.0011 45.6286-38.8869 39.9665-64.0686z"/><path d="m413.5728 106.5757 8.3525-8.6245q-4.1476-4.34-8.6167-8.3623l-8.3438 8.6333q4.4773 3.999 8.608 8.3535z"/><path d="m427.8052 104.4629-9.4 7.4614a142.3046 142.3046 0 0 1 34.6347 93.07v102.0111c0 79.3349-65.2646 143.8779-145.4863 143.8779h-103.1063a145.8293 145.8293 0 0 1 -129.1211-77.6357l-10.3672 6.0551a157.8426 157.8426 0 0 0 139.4883 83.5806h103.1064c86.8379 0 157.4863-69.9268 157.4863-155.8779v-102.0108a154.2409 154.2409 0 0 0 -37.2348-100.5317z"/><path d="m58.96 307.0054v-102.0108c0-79.3349 65.2656-143.8779 145.4873-143.8779h103.1064a145.7951 145.7951 0 0 1 91.938 32.4561l7.1338-9.6509a157.7341 157.7341 0 0 0 -99.0718-34.8052h-103.1064c-86.8389 0-157.4873 69.9268-157.4873 155.8779v102.0108a153.6327 153.6327 0 0 0 14.09 64.4218l11.1-4.5922a141.7 141.7 0 0 1 -13.19-59.8296z"/></svg>