<svg id="Layer_1" viewBox="0 0 512 512" xmlns="http://www.w3.org/2000/svg" data-name="Layer 1"><path d="m413.5728 106.5757 8.3525-8.6245q-4.1476-4.34-8.6167-8.3623l-8.3438 8.6333q4.4773 3.999 8.608 8.3535z"/><path d="m427.8052 104.4629-9.4 7.4614a142.3046 142.3046 0 0 1 34.6347 93.07v102.0111c0 79.3349-65.2646 143.8779-145.4863 143.8779h-103.1063a145.8293 145.8293 0 0 1 -129.1211-77.6357l-10.3672 6.0551a157.8426 157.8426 0 0 0 139.4883 83.5806h103.1064c86.8379 0 157.4863-69.9268 157.4863-155.8779v-102.0108a154.2409 154.2409 0 0 0 -37.2348-100.5317z"/><path d="m58.96 307.0054v-102.0108c0-79.3349 65.2656-143.8779 145.4873-143.8779h103.1064a145.7951 145.7951 0 0 1 91.938 32.4561l7.1338-9.6509a157.7341 157.7341 0 0 0 -99.0718-34.8052h-103.1064c-86.8389 0-157.4873 69.9268-157.4873 155.8779v102.0108a153.6327 153.6327 0 0 0 14.09 64.4218l11.1-4.5922a141.7 141.7 0 0 1 -13.19-59.8296z"/><path d="m195.8989 304.7415h25.92a6 6 0 0 0 6-6v-82.03a6 6 0 0 0 -6-6h-25.92a6 6 0 0 0 -6 6v82.03a6 6 0 0 0 6 6zm6-85.4829h13.92v73.4829h-13.92z"/><path d="m141.5483 282.1941h16a6 6 0 0 0 6-6v-38.1577a6 6 0 0 0 -6-6h-16a6 6 0 0 0 -6 6v38.1577a6 6 0 0 0 6 6zm6-38.1577h4v26.1577h-4z"/><path d="m179.3794 173.0662h-23.7012a6 6 0 0 0 -6 6v30.4223h-30.7793a6 6 0 0 0 -6 6v83.253a6 6 0 0 0 6 6h60.4805a6 6 0 0 0 6-6v-119.6753a6 6 0 0 0 -6-6zm-6 119.6753h-48.4805v-71.253h30.7793a6 6 0 0 0 6-6v-30.4223h11.7012z"/><path d="m366.5405 229.8059h-16a6 6 0 0 0 -6 6v38.1573a6 6 0 0 0 6 6h16a6 6 0 0 0 6-6v-38.1573a6 6 0 0 0 -6-6zm-6 38.1573h-4v-26.1573h4z"/><path d="m393.1011 207.2586h-68.2a6 6 0 0 0 -6 6v83.2519a6 6 0 0 0 6 6h35.4726v1.0088h-36.3937a6 6 0 0 0 -6 6v23.4146a6 6 0 0 0 6 6h69.1211a6 6 0 0 0 6-6v-119.6753a6 6 0 0 0 -6-6zm-6 119.6753h-57.1211v-11.4146h36.3935a6 6 0 0 0 6-6v-13.0088a6 6 0 0 0 -6-6h-35.4726v-71.2519h56.2z"/><path d="m281.8208 229.8059h-16a6 6 0 0 0 -6 6v38.1573a6 6 0 0 0 6 6h16a6 6 0 0 0 6-6v-38.1573a6 6 0 0 0 -6-6zm-6 38.1573h-4v-26.1573h4z"/><path d="m232.3394 309.5193v23.4146a6 6 0 0 0 6 6h69.12a6 6 0 0 0 6-6v-119.6753a6 6 0 0 0 -6-6h-68.1994a6 6 0 0 0 -6 6v83.2519a6 6 0 0 0 6 6h35.4726v1.0088h-36.3932a6 6 0 0 0 -6 6zm12.9206-19.0088v-71.2519h56.2v107.6753h-57.12v-11.4146h36.3935a6 6 0 0 0 6-6v-13.0088a6 6 0 0 0 -6-6z"/><path d="m221.819 173.0661h-25.92a6 6 0 0 0 -6 6v19.6455h12v-13.6455h13.92v13.6455h12v-19.6455a6 6 0 0 0 -6-6z"/></svg>