<svg id="Layer_1" viewBox="0 0 512 512" xmlns="http://www.w3.org/2000/svg" data-name="Layer 1"><path d="m384.9214 216.3162-33.2872 5.4411c-3.7831 3.5111-2.28 2.0479-6.3282 6.1726l16.0487-71.749a5.958 5.958 0 0 0 -5.6643-7.23l-26.0013-.8314a5.991 5.991 0 0 0 -6.0418 4.6145l-39.2511 169.6793a5.9694 5.9694 0 0 0 6.7716 7.2043l26.9863-4.1653a5.978 5.978 0 0 0 4.935-4.5906l.8917-3.9931.9435 3.2462a6.0015 6.0015 0 0 0 6.69 4.23l27.4527-4.2406a5.9452 5.9452 0 0 0 4.77-7.7491l-14.9361-44.58 6.5283-6.5518-8.5236-8.3709-9.1269 9.1594a5.9082 5.9082 0 0 0 -1.4251 6.0518l13.8607 41.3724-15.2226 2.3514-4.7157-16.223c-1.7446-6.0019-2.8481-8.5561-7.0432-8.5561-3.7549 0-5.5419 2.9969-6.88 8.9883l-4.0943 18.3309-14.1865 2.19 36.168-156.3534 13.834.4422-19.0561 85.1929c-1.3082 5.8484 5.9444 9.727 10.1588 5.4329 19.2058-19.5691 17.7514-18.0947 18.0028-18.3279l11.4717-1.8753-16.1766 16.2342 8.5776 8.3169 29.1152-29.2184a5.9483 5.9483 0 0 0 -5.246-10.0454z"/><path d="m126.2523 363.3193a6.0042 6.0042 0 0 1 -5.64-8.07l61.89-168.37a6.0236 6.0236 0 0 1 4.62-3.85l15.07-2.59a6.0209 6.0209 0 0 1 7.02 5.88c.8764 167.662.79 149.2805.79 155.46a5.9558 5.9558 0 0 1 -4.72 5.86c-1.1443.2489-5.3194 1.3137-24.95 4.39a6.0184 6.0184 0 0 1 -6.93-5.93v-21.3093l-8.58 1.56c-10.2793 28.3956-8.8421 24.2932-9.83 27.55a6.0361 6.0361 0 0 1 -3.69 3.88c-4.2744 1.5444-24.4816 5.5393-25.05 5.5393zm66.32-169.05-56.94 154.9 8.82-1.8 10.27-28.36a6.0044 6.0044 0 0 1 4.57-3.86l19.04-3.45a6.0012 6.0012 0 0 1 7.07 5.9v21.47l12.6-2.17-.76-143.43z"/><path d="m190.0342 242.0913-14.842 48.438 9.3-1.26c.0589-.02 1.7134 11.89 1.62 11.89-20.0982 2.7351-18.7642 2.58-19.4 2.58a5.9936 5.9936 0 0 1 -5.74-7.76l17.6238-57.5343z"/><path d="m261.6446 252.2662c1.3264-1.3279 6.2617-2.2175 13.718.1777a5.1745 5.1745 0 0 0 5.2266-1.23l15.1625-14.9974a5.1491 5.1491 0 0 0 -2.3525-8.6466c-59.0477-14.9825-66.7989 22.0972-66.9763 23.1006-4.7307 26.1966 25.6222 38.0773 22.7 49.8687-.4883 2.0313-8.7135 9.6574-22.6945 6.6694a5.1572 5.1572 0 0 0 -5.0732 1.81l-14.2429 17.6121a6.0063 6.0063 0 0 0 4.2409 9.7651c31.2355 2.2939 67.2073-5.5652 73.6759-34.6739 6.2491-26.4919-17.6615-38.7304-23.3845-49.4557zm11.69 46.7642c-2.5932 11.5885-21.1314 28.947-49.8262 26.41l4.541-5.6152c12.5334 2.6751 30.5147-6.3371 32.7207-16.3994 5.2538-21.2032-26.108-30.8569-22.539-50.6226 2.7983-12.4718 23.661-20.8518 40.456-16.5864l-3.5781 3.5391c-1.8731-.6034-20.9567-3.8149-24.9873 8.9389-6.4993 15.19 28.9632 26.163 23.2133 50.3352z"/><path d="m413.5728 106.5757 8.3525-8.6245q-4.1476-4.34-8.6167-8.3623l-8.3438 8.6333q4.4773 3.999 8.608 8.3535z"/><path d="m427.8052 104.4629-9.4 7.4614a142.3046 142.3046 0 0 1 34.6347 93.07v102.0111c0 79.3349-65.2646 143.8779-145.4863 143.8779h-103.1063a145.8293 145.8293 0 0 1 -129.1211-77.6357l-10.3672 6.0551a157.8426 157.8426 0 0 0 139.4883 83.5806h103.1064c86.8379 0 157.4863-69.9268 157.4863-155.8779v-102.0108a154.2409 154.2409 0 0 0 -37.2348-100.5317z"/><path d="m58.96 307.0054v-102.0108c0-79.3349 65.2656-143.8779 145.4873-143.8779h103.1064a145.7951 145.7951 0 0 1 91.938 32.4561l7.1338-9.6509a157.7341 157.7341 0 0 0 -99.0718-34.8052h-103.1064c-86.8389 0-157.4873 69.9268-157.4873 155.8779v102.0108a153.6327 153.6327 0 0 0 14.09 64.4218l11.1-4.5922a141.7 141.7 0 0 1 -13.19-59.8296z"/></svg>