<svg id="Layer_1" viewBox="0 0 512 512" xmlns="http://www.w3.org/2000/svg" data-name="Layer 1"><path d="m373.7966 136.455c-1.542-7.3555-6.5943-13-14.11-14.1817-23.7553-3.7348-40.4477 18.9331-41.4043 19.8789-9.6088 9.5039-36.853 39.88-66.7148 80.1983l9.9585 7.5293c29.8135-39.9683 56.92-70.1641 65.5952-79.61.5371-.585 14.03-18.6807 29.9531-16.2832 2.7984.4214 4.7769 2.9126 4.9141 4.6445.5825 7.3521 5.917 170.1739-51.8125 218.212-18.8154 15.7167-49.1748 23.8066-77.34 20.61-20.4854-2.3242-37.28-10.1172-47.7393-22.0664 18.6431-41.8994 45.9048-83.9614 71.7671-119.2061l-10.1109-7.27c-26.8061 36.8272-55.05 81.0733-74.1289 125.0313a5.9977 5.9977 0 0 0 .7237 6.0146c12.2168 16.1055 32.8613 26.5723 58.1357 29.4209 34.8779 3.9317 68.1421-7.81 86.377-23.3164 64.0608-54.4723 56.5027-226.9029 55.9363-229.606z"/><path d="m236.0319 155.9447c-9.7036 5.4331-71.3183 24.873-92.4018 78.4009-18.0435 45.8091 10.4936 101.4263 10.4936 101.4263a6 6 0 0 0 11.0132.24l78.8736-172.124c2.3222-5.0687-3.1138-10.6668-7.9786-7.9432zm-76.02 162.4458c-12.2695-30.1831-14.0234-56.9482-5.1943-79.7046 10.0176-25.8169 34.043-47.6455 71.5107-65.0156z"/><path d="m413.5728 106.5757 8.3525-8.6245q-4.1476-4.34-8.6167-8.3623l-8.3438 8.6333q4.4773 3.999 8.608 8.3535z"/><path d="m427.8052 104.4629-9.4 7.4614a142.3046 142.3046 0 0 1 34.6347 93.07v102.0111c0 79.3349-65.2646 143.8779-145.4863 143.8779h-103.1063a145.8293 145.8293 0 0 1 -129.1211-77.6357l-10.3672 6.0551a157.8426 157.8426 0 0 0 139.4883 83.5806h103.1064c86.8379 0 157.4863-69.9268 157.4863-155.8779v-102.0108a154.2409 154.2409 0 0 0 -37.2348-100.5317z"/><path d="m58.96 307.0054v-102.0108c0-79.3349 65.2656-143.8779 145.4873-143.8779h103.1064a145.7951 145.7951 0 0 1 91.938 32.4561l7.1338-9.6509a157.7341 157.7341 0 0 0 -99.0718-34.8052h-103.1064c-86.8389 0-157.4873 69.9268-157.4873 155.8779v102.0108a153.6327 153.6327 0 0 0 14.09 64.4218l11.1-4.5922a141.7 141.7 0 0 1 -13.19-59.8296z"/></svg>