<svg id="Layer_1" viewBox="0 0 512 512" xmlns="http://www.w3.org/2000/svg" data-name="Layer 1"><path d="m413.5728 106.5757 8.3525-8.6245q-4.1476-4.34-8.6167-8.3623l-8.3438 8.6333q4.4773 3.999 8.608 8.3535z"/><path d="m427.8052 104.4629-9.4 7.4614a142.3046 142.3046 0 0 1 34.6347 93.07v102.0111c0 79.3349-65.2646 143.8779-145.4863 143.8779h-103.1063a145.8293 145.8293 0 0 1 -129.1211-77.6357l-10.3672 6.0551a157.8426 157.8426 0 0 0 139.4883 83.5806h103.1064c86.8379 0 157.4863-69.9268 157.4863-155.8779v-102.0108a154.2409 154.2409 0 0 0 -37.2348-100.5317z"/><path d="m58.96 307.0054v-102.0108c0-79.3349 65.2656-143.8779 145.4873-143.8779h103.1064a145.7951 145.7951 0 0 1 91.938 32.4561l7.1338-9.6509a157.7341 157.7341 0 0 0 -99.0718-34.8052h-103.1064c-86.8389 0-157.4873 69.9268-157.4873 155.8779v102.0108a153.6327 153.6327 0 0 0 14.09 64.4218l11.1-4.5922a141.7 141.7 0 0 1 -13.19-59.8296z"/><path d="m163.2377 191.9568c-5.0127 1.6351-17.1316 9.1442-12.7364 24.274 3.2906 10.3162 13.5539 15.8245 23.8164 12.6118 25.1-7.4242 98.73-17.6605 159.14 16.04 11.0809 6.4094 21.8419.28 26.1474-6.8354a19.0465 19.0465 0 0 0 -6.9638-26.478c-76.6704-43.2347-164.8313-27.08-189.4036-19.6124zm176.0654 42.4458c-62.5759-34.9094-138.6368-25.8675-168.3887-17.0673-9.1662 2.7843-13.3577-10.6105-4.0615-13.9351 28.5981-8.6671 110.527-20.4627 179.833 18.5869 8.2803 4.977 1.1176 17.2002-7.3828 12.4155z"/><path d="m317.6555 301.5408c-7.8872-4.855-54.3317-36.5841-141.337-16.5947-8.1362 1.959-12.5581 9.7355-11.1338 17.6523a14.6885 14.6885 0 0 0 17.7588 11.2491c45.0831-10.18 85.8448-7.3367 119.3233 13.2588 2.2827 1.3837 13.7884 6.0073 20.4844-5.1988 6.334-11.0675-2.7896-18.9253-5.0957-20.3667zm-9.1543 15.312c-18.3742-11.292-58.2412-30.506-128.2012-14.7109-3.7875.8551-4.7184-4.7146-1.2168-5.5181 71.8864-16.4954 113.3257 3.4676 132.2314 15.105 3.2117 2.0073.6434 7.0854-2.8134 5.124z"/><path d="m334.1078 259.4832c-22.6213-12.7852-79.7421-41.4934-162.7412-19.5024-3.9394 1.0469-14.9338 7.9454-11.5225 21.27 2.54 9.2317 11.48 14.4964 21.1856 11.5913 51.5315-15.0065 104.1346-2.7992 135.5742 16.103 8.2772 4.8857 18.3406 2.5361 23.2138-5.7685 3.0223-4.769 5.5003-17.3452-5.7099-23.6934zm-11.32 19.1777c-33.6386-20.0348-89.6107-33.5029-145.1993-17.3149-6.528 1.9535-8.993-7.2257-2.7871-9.8608 24.8187-6.5367 88.0805-23.9908 153.1172 18.2841 5.9336 3.8572.484 12.236-5.1311 8.8916z"/><path d="m341.4137 142.7991-7.7622 9.1567a131.2926 131.2926 0 0 1 50.854 104.0442c0 72.0537-57.6475 130.6733-128.5061 130.6733s-128.5049-58.6198-128.5049-130.6733 57.6475-130.6731 128.5049-130.6731a126.2877 126.2877 0 0 1 71.9055 22.4231l6.3394-10.1963a138.2083 138.2083 0 0 0 -78.2449-24.2263c-77.4746 0-140.5049 64.0029-140.5049 142.6729s63.03 142.6733 140.5049 142.6733 140.5061-64.0036 140.5061-142.6736a143.28 143.28 0 0 0 -55.0918-113.2009z"/></svg>