<svg id="Layer_1" viewBox="0 0 512 512" xmlns="http://www.w3.org/2000/svg" data-name="Layer 1"><path d="m413.5728 106.5757 8.3525-8.6245q-4.1476-4.34-8.6167-8.3623l-8.3438 8.6333q4.4773 3.999 8.608 8.3535z"/><path d="m427.8052 104.4629-9.4 7.4614a142.3046 142.3046 0 0 1 34.6347 93.07v102.0111c0 79.3349-65.2646 143.8779-145.4863 143.8779h-103.1063a145.8293 145.8293 0 0 1 -129.1211-77.6357l-10.3672 6.0551a157.8426 157.8426 0 0 0 139.4883 83.5806h103.1064c86.8379 0 157.4863-69.9268 157.4863-155.8779v-102.0108a154.2409 154.2409 0 0 0 -37.2348-100.5317z"/><path d="m58.96 307.0054v-102.0108c0-79.3349 65.2656-143.8779 145.4873-143.8779h103.1064a145.7951 145.7951 0 0 1 91.938 32.4561l7.1338-9.6509a157.7341 157.7341 0 0 0 -99.0718-34.8052h-103.1064c-86.8389 0-157.4873 69.9268-157.4873 155.8779v102.0108a153.6327 153.6327 0 0 0 14.09 64.4218l11.1-4.5922a141.7 141.7 0 0 1 -13.19-59.8296z"/><path d="m303.6118 177.6c15.6846.0042 27.5122-11.8234 27.5083-27.5073a27.5115 27.5115 0 1 0 -27.5083 27.5073zm-15.3628-29.5224a15.5036 15.5036 0 1 1 17.391 17.3933 15.5469 15.5469 0 0 1 -17.391-17.3933z"/><path d="m206.1357 177.51a27.502 27.502 0 1 0 -25.1665-25.17 27.5292 27.5292 0 0 0 25.1665 25.17zm-.081-42.74a15.5058 15.5058 0 1 1 1.1333 30.79 14.8676 14.8676 0 0 1 -14.2693-14.27 15.4778 15.4778 0 0 1 13.136-16.52z"/><path d="m320.28 185.2s-32.16 32.525-64.279 32.525c-32.1211 0-64.28-32.5254-64.28-32.5254a6 6 0 0 0 -9.9288 4.5325l-.0388 97.0715h11.1626c-.0842-29.5705-.0154-60.5434.4151-84.3315 12.3242 10.6777 34.8222 26.1885 62.4375 27.2534l.2314.0088.2314-.0088c27.6153-1.0649 50.1143-16.5757 62.4385-27.2534 1.02 56.3276.0108 152.8438-.2558 175.9922-2.0743.1909-19.71-.0288-23.7061-.34l.345-133.8882a5.9987 5.9987 0 0 0 -8.6988-5.3721l-.15.0757a64.7764 64.7764 0 0 1 -60.4072 0l-.0178-.009a5.9966 5.9966 0 0 0 -8.6983 5.4419c.3967 26.3413 1.3264 98.5231.2122 133.7512-4.001.3115-21.6319.5317-23.7061.3408-.1438-12.4861-.5034-46.32-.6443-83.6763h-11.1927l-.0354 88.61a6 6 0 0 0 6.0214 6.0025l35.2732-.127a5.9886 5.9886 0 0 0 5.9719-5.9547c.1294-23.3958.5728-108.9913.2642-129.8058a75.5083 75.5083 0 0 0 53.5108-.0005c-.3086 20.8133.135 106.396.2641 129.8a5.9951 5.9951 0 0 0 5.9785 5.9607l35.2666.1272a6 6 0 0 0 6.0215-6.0025l-.0781-193.6657a6 6 0 0 0 -9.9287-4.5325z"/></svg>