<svg id="Layer_1" viewBox="0 0 512 512" xmlns="http://www.w3.org/2000/svg" data-name="Layer 1"><path d="m388.9507 315.9539c-2.7178-5.1074-8.125-6.7773-13.85-8.5449-9.2832-2.8672-21.9966-6.7929-34.4727-26.0058-7.063-10.877-7.5278-14.126-2.7632-19.3155 3.5779-3.8982 21.9434-3.5881 25.4082-16.084 1.6118-5.8125.9219-10.4814-2.0508-13.88-6.4633-7.389-19.8918-4.0357-29.6689-2.9629.63-23.4436 3.9226-44.9934-10.0869-66.0733-13.7264-20.6531-38.7716-33.2068-65.4664-32.7439-26.6636-.44-51.7393 12.09-65.4668 32.7441a61.8757 61.8757 0 0 0 -9.45 23.64c2.1944.6374 9.2532 2.6884 11.6138 3.3806a50.7809 50.7809 0 0 1 7.83-20.3782c7.5984-11.4329 23.4031-26.5168 55.5816-27.3867 22.6723-.3887 43.8623 10.082 55.3637 27.3867 12.7845 19.2361 7.9942 40.2712 7.9942 65.4072a6 6 0 0 0 4.5708 5.8272c8.2219 2.0195 25.948-4.1218 28.061-.9785.18.2673.0689 1.1611-.3887 2.81-1.0549 3.8037-16.5207 4.4617-22.684 11.1748-12.0181 13.0908-4.1827 25.1563 1.538 33.9668 14.8448 22.86 31.2149 27.916 40.9961 30.9365 2.5.7715 6.3167 1.9134 6.7974 2.7168.6751 1.1277.8711 1.8265.7871 2.0772-.7356 2.1987-9.5942 2.9267-13.4858 3.5342-7.4263 1.1582-13.8394 2.1582-17.5542 5.9482-4.8826 4.9819-3.2 12.9741-4.3389 15.3438-2.8518 1.84-14.7507-2.6636-21.65-2.2422-27.0293 1.6237-38.8159 23.416-66.1152 23.416-27.3474 0-39.0515-21.79-66.1153-23.416-6.7956-.4151-18.84 4.0564-21.65 2.2422-1.1463-2.3838.5461-10.3616-4.3389-15.3438-3.7149-3.79-10.1279-4.79-17.5542-5.9482-3.8916-.6075-12.75-1.3362-13.4859-3.5342-.0837-.2507.1121-.9492.7862-2.0752.4822-.8054 4.2988-1.9473 6.7983-2.7188 9.7813-3.0214 26.1519-8.0781 40.9961-30.9365 5.7207-8.8105 13.5562-20.876 1.5376-33.9678-6.1723-6.7219-21.6274-7.3654-22.6836-11.1738-.4575-1.6494-.5683-2.5432-.3887-2.81 2.5276-3.762 20.8987 2.74 28.0611.9785a6 6 0 0 0 4.5708-5.8272c0-14.1-1.5183-26.9348-.5728-38.8923h-12.0345c-.7215 10.6658.2146 21.5928.5195 32.9158-9.4256-1.0342-23.147-4.4917-29.6685 2.9629-2.9726 3.3984-3.6626 8.0673-2.0508 13.88 2.2632 8.1622 10.6705 10.7266 17.4258 12.7862 16.8926 5.1518 10.9971 13.7156 5.2193 22.6133-12.4756 19.2119-25.19 23.1386-34.4727 26.0058-5.7246 1.7676-11.1313 3.4385-13.8491 8.544-2.5684 4.8252-2.9053 9.2041-1.001 13.0146 5.5725 11.1494 28.2752 9.2307 33.1812 12.5147 1.0446 2.73-.6936 11.4358 5.4121 16.3144 8.64 6.9011 22.2339.07 28.5229.4346 22.8738 1.3743 35.6861 23.4375 66.835 23.4375 31.0813 0 43.978-22.0652 66.8349-23.4375 6.2542-.3721 19.8826 6.4673 28.5235-.4346 5.8467-4.6721 4.4306-12.5835 5.3774-16.2761 1.5569-1.0237 7.3006-1.92 10.7725-2.4612 9.2773-1.4473 18.8706-2.9443 22.4429-10.0918 1.9042-3.8105 1.5673-8.1894-1.0005-13.0137z"/><path d="m413.5728 106.5757 8.3525-8.6245q-4.1476-4.34-8.6167-8.3623l-8.3438 8.6333q4.4773 3.999 8.608 8.3535z"/><path d="m427.8052 104.4629-9.4 7.4614a142.3046 142.3046 0 0 1 34.6347 93.07v102.0111c0 79.3349-65.2646 143.8779-145.4863 143.8779h-103.1063a145.8293 145.8293 0 0 1 -129.1211-77.6357l-10.3672 6.0551a157.8426 157.8426 0 0 0 139.4883 83.5806h103.1064c86.8379 0 157.4863-69.9268 157.4863-155.8779v-102.0108a154.2409 154.2409 0 0 0 -37.2348-100.5317z"/><path d="m58.96 307.0054v-102.0108c0-79.3349 65.2656-143.8779 145.4873-143.8779h103.1064a145.7951 145.7951 0 0 1 91.938 32.4561l7.1338-9.6509a157.7341 157.7341 0 0 0 -99.0718-34.8052h-103.1064c-86.8389 0-157.4873 69.9268-157.4873 155.8779v102.0108a153.6327 153.6327 0 0 0 14.09 64.4218l11.1-4.5922a141.7 141.7 0 0 1 -13.19-59.8296z"/></svg>