<svg id="Layer_1" viewBox="0 0 512 512" xmlns="http://www.w3.org/2000/svg" data-name="Layer 1"><path d="m304.2962 127.5754-4.0183 11.3169c48.7388 14.72 84.4192 59.52 84.4192 113.2383 0 65.7363-54.2837 119.2168-121.0073 119.2168-20.0318 0-39.74-4.9658-58.5767-14.7607a6.006 6.006 0 0 0 -4.5693-.4l-59.4449 18.71 19.3916-55.6093a6.0013 6.0013 0 0 0 -.51-5.045 120.0811 120.0811 0 0 1 -17.2993-61.2529c0-65.7373 54.2841-119.2178 121.082-119.2178a120.9123 120.9123 0 0 1 29.6688 3.271l2.0509-11.8339a133.7059 133.7059 0 0 0 -31.7934-3.4371c-73.2312 0-133.0083 58.2481-133.0083 131.2178a131.73 131.73 0 0 0 17.5693 64.9531l-22.4189 64.2911a5.9865 5.9865 0 0 0 7.4668 7.6992l68.5076-21.5629a137.4413 137.4413 0 0 0 61.884 14.9774c73.2307 0 133.0073-58.2485 133.0073-131.2168-.0002-58.6684-38.763-108.1245-92.4011-124.5552z"/><path d="m150.553 252.1306a107.5283 107.5283 0 0 0 20.0733 62.81l-11.9971 36.5194a6.0041 6.0041 0 0 0 7.478 7.6035l38.8374-12.0468a114.2116 114.2116 0 0 0 164.0313-52.0289l-10.7672-5.32a102.2028 102.2028 0 0 1 -149.1547 45.7587 6.0017 6.0017 0 0 0 -5.0307-.6885l-30.3633 9.419 9.3306-28.4033a6 6 0 0 0 -.9131-5.49 95.704 95.704 0 0 1 -19.524-58.1328c0-54.8594 45.37-99.4912 101.1368-99.4912 55.4292 0 101.1865 44.6719 102 99.4912a97.6328 97.6328 0 0 1 -5.08 31.1431l11.58 3.1553a109.818 109.818 0 0 0 5.5-34.3873c-.9107-61.4277-52.05-111.4023-113.999-111.4023-62.3853-.0003-113.1383 50.0144-113.1383 111.4909z"/><path d="m328.7108 275.073c-.1-.0635-27.1319-15.3428-33.792-13.9629-4.36.9024-6.1787 3.7588-7.7837 6.2793a59.4765 59.4765 0 0 1 -7.2774 9.2871c-.84.07-5.8178-.0664-19.9521-10.6865-7.2276-5.4317-18.9356-17.5186-19.8462-22.0693a33.4965 33.4965 0 0 0 9.1885-12.3536c1.96-4.5893 2.4977-5.1728-9.5132-33.038-5.6843-13.1646-24.1047-10.587-32.145-2.8a39.49 39.49 0 0 0 -12.1729 28.125c-.7527 36.733 60.42 93.9375 103.2134 93.9375 9.4653 0 28.1526-5.8725 33.1323-20.5537 1.8404-5.4079 5.6699-16.662-3.0517-22.1649zm-8.3086 18.2988c-2.87 8.4839-16.4823 12.42-21.7754 12.42-37.263 0-91.801-52.9174-91.2129-81.6914a27.7281 27.7281 0 0 1 8.5244-19.7519c3.2257-3.1231 11.21-4.521 12.7305-1.1748 5.7209 15.1274 8.9663 21.3877 9.5639 23.6328-3.9635 9.06-10.1587 8.3154-10.229 16.457-.1162 13.3008 24.4444 32.1338 24.6934 32.32 14.7255 11.0635 29.0748 18.26 36.5806 8.53a64.3125 64.3125 0 0 0 8.3134-10.8017c4.9483 1.66 17.8028 8.1191 24.5757 11.8418.4732 1.643-1.2016 6.5649-1.7646 8.2182z"/><path d="m418.6724 106.5757 8.3525-8.6245q-4.1476-4.34-8.6167-8.3623l-8.3437 8.6333q4.4772 3.999 8.6079 8.3535z"/><path d="m432.9048 104.4629-9.4 7.4614a142.3046 142.3046 0 0 1 34.6347 93.07v102.0111c0 79.3349-65.2646 143.8779-145.4863 143.8779h-103.1063a145.8293 145.8293 0 0 1 -129.1211-77.6357l-10.3672 6.0551a157.8426 157.8426 0 0 0 139.4883 83.5806h103.1064c86.8379 0 157.4863-69.9268 157.4863-155.8779v-102.0108a154.24 154.24 0 0 0 -37.2348-100.5317z"/><path d="m64.06 307.0054v-102.0108c0-79.3349 65.2656-143.8779 145.4873-143.8779h103.106a145.7951 145.7951 0 0 1 91.938 32.4561l7.1338-9.6509a157.7341 157.7341 0 0 0 -99.0718-34.8052h-103.1064c-86.8389 0-157.4869 69.9268-157.4869 155.8779v102.0108a153.6312 153.6312 0 0 0 14.09 64.4218l11.1-4.5922a141.7 141.7 0 0 1 -13.19-59.8296z"/></svg>