<svg id="Layer_1" viewBox="0 0 512 512" xmlns="http://www.w3.org/2000/svg" data-name="Layer 1"><path d="m365.6094 210.6885-11.6983 1.62a104.6962 104.6962 0 0 1 2.0313 20.5256c0 25.793-15.72 61.4488-43.1289 97.8238-26.1446 34.6972-49.5322 52.11-55.28 52.11-7.57 0-31.9346-18.1221-57.9912-52.1475-27.6348-36.0859-43.4844-71.7275-43.4844-97.7866 0-57.1264 45.5215-103.6025 101.4756-103.6025 44.4258 0 83.1035 32.9087 94.7959 76.35l11.16-3.6414c-11.8155-42.0671-47.1475-84.7082-105.9561-84.7082-62.57 0-113.4756 51.8589-113.4756 115.6025 0 40.68 32.1387 87.0391 45.957 105.0825 20.9688 27.3819 51.0411 56.8516 67.5186 56.8516 15.1143 0 44.2188-29.4892 64.8643-56.8887 13.6933-18.1738 45.5449-64.7905 45.5449-105.0454a111.0587 111.0587 0 0 0 -2.3331-22.1457z"/><path d="m239.4229 159.927a5.9878 5.9878 0 0 0 -4.5694 5.3355c-.2139 2.5771 1.1514 5.2666 3.627 6.0161 7.8466 2.375 19.3667 23.2551 1.667 33.55-13.9766 8.1294-30.72-5.6148-29.14-16.3164.3745-2.5347-1.5693-4.8609-3.9824-5.7227a6.0055 6.0055 0 0 0 -6.7061 1.9058c-16.47 20.6206-19.7666 49.78-8.2011 72.561 10.5507 20.7832 32.1938 36.3682 56.7148 38.1348 52.5142 3.7827 92.5947-44.2173 71.2744-96.5454-10.1662-24.9539-41.5597-48.2322-80.6842-38.9187zm10.748 123.5386c-20.4688-2.26-38.6094-14.419-47.3535-31.6416-7.5488-14.8706-7.3272-33.11-.05-48.5147 14.3994 20.9243 33.5263 17.5313 43.3252 11.9429 10.27-5.8569 23.9946-24.6787 9.3974-45.4585.7823-.0269 36.8653-2.4785 53.6719 33.97 19.4104 42.0927-19.8045 84.028-58.991 79.7019z"/><path d="m413.5728 106.5757 8.3525-8.6245q-4.1476-4.34-8.6167-8.3623l-8.3438 8.6333q4.4773 3.999 8.608 8.3535z"/><path d="m427.8052 104.4629-9.4 7.4614a142.3046 142.3046 0 0 1 34.6347 93.07v102.0111c0 79.3349-65.2646 143.8779-145.4863 143.8779h-103.1063a145.8293 145.8293 0 0 1 -129.1211-77.6357l-10.3672 6.0551a157.8426 157.8426 0 0 0 139.4883 83.5806h103.1064c86.8379 0 157.4863-69.9268 157.4863-155.8779v-102.0108a154.2409 154.2409 0 0 0 -37.2348-100.5317z"/><path d="m58.96 307.0054v-102.0108c0-79.3349 65.2656-143.8779 145.4873-143.8779h103.1064a145.7951 145.7951 0 0 1 91.938 32.4561l7.1338-9.6509a157.7341 157.7341 0 0 0 -99.0718-34.8052h-103.1064c-86.8389 0-157.4873 69.9268-157.4873 155.8779v102.0108a153.6327 153.6327 0 0 0 14.09 64.4218l11.1-4.5922a141.7 141.7 0 0 1 -13.19-59.8296z"/></svg>