<svg id="Layer_1" viewBox="0 0 512 512" xmlns="http://www.w3.org/2000/svg" data-name="Layer 1"><path d="m346.2243 139.2991c-61.2847 0-76.9009 62.717-76.9009 62.717a6 6 0 0 0 7.2715 7.8242s15.4336-3.7992 17.2749-4.0905c9.7895-1.5491 17.23 14.0509 6.8545 31.7988-14.8657 25.43-23.5 35.5581-27.9512 39.6047a3.6806 3.6806 0 0 1 -5.7568-1.07c-.7969-1.56-14.4771-40.5629-17.8789-67.6184-1.8074-14.3749-7.7574-67.6349-39.6836-67.6349-14.4678 0-31.79 10.1768-47.4048 22.4292l7.0522 9.5847c26.4468-20.8264 39.4-20.0139 40.3526-20.0139 18.0146 0 23.2422 30.63 27.8545 57.6548 1.5722 9.2105 11.9912 81.3374 31.541 81.3374 6.914 0 17.3428-5.7344 42.2627-48.2661l.08-.14c22.7075-49.2957-18.5728-52.8957-26.586-48.312 9.9424-27.337 37.9287-43.8052 61.6182-43.8052 33.5044 0 35.6025 31.091 32.2939 46.2676-19.4188 89.0741-106.9911 152.7555-117.2059 159.2624l-.125.0815c-4.5811 3.0806-24.4146 15.0012-45.5733-19.83l-.0566-.1157c-4.3408-8.602-38.0776-123.584-44.6748-130.1235 0 0-6.9028-12.9-32.7383 4.0317l-3.8418-5.0766a324.2538 324.2538 0 0 1 29.0264-28.2371l-7.895-8.9114a351.5194 351.5194 0 0 0 -33.4624 32.7191 5.99 5.99 0 0 0 -.3067 7.6149l10.2886 13.5966a6.0083 6.0083 0 0 0 8.1318 1.3575c17.7007-11.8395 21.4136-9.5513 21.5327-9.4272 4.4537 4.6281 28.8819 97.2634 43.1954 127.8012 16.7661 35.7708 47.225 33.9971 62.996 24.6084 12.09-7.1975 104.25-75.9575 122.5137-167.1977 3.77-18.8351 1.4009-60.4215-44.0986-60.4215z"/><path d="m413.5728 106.5757 8.3525-8.6245q-4.1476-4.34-8.6167-8.3623l-8.3438 8.6333q4.4773 3.999 8.608 8.3535z"/><path d="m427.8052 104.4629-9.4 7.4614a142.3046 142.3046 0 0 1 34.6347 93.07v102.0111c0 79.3349-65.2646 143.8779-145.4863 143.8779h-103.1063a145.8293 145.8293 0 0 1 -129.1211-77.6357l-10.3672 6.0551a157.8426 157.8426 0 0 0 139.4883 83.5806h103.1064c86.8379 0 157.4863-69.9268 157.4863-155.8779v-102.0108a154.2409 154.2409 0 0 0 -37.2348-100.5317z"/><path d="m58.96 307.0054v-102.0108c0-79.3349 65.2656-143.8779 145.4873-143.8779h103.1064a145.7951 145.7951 0 0 1 91.938 32.4561l7.1338-9.6509a157.7341 157.7341 0 0 0 -99.0718-34.8052h-103.1064c-86.8389 0-157.4873 69.9268-157.4873 155.8779v102.0108a153.6327 153.6327 0 0 0 14.09 64.4218l11.1-4.5922a141.7 141.7 0 0 1 -13.19-59.8296z"/></svg>