<svg id="Layer_1" viewBox="0 0 512 512" xmlns="http://www.w3.org/2000/svg" data-name="Layer 1"><path d="m186.9131 207.2588h-60.48a6 6 0 0 0 -6 6v170.9648a6 6 0 0 0 6 6h60.48a6 6 0 0 0 6-6v-170.9648a6 6 0 0 0 -6-6zm-6 170.9648h-48.48v-158.9648h48.48z"/><path d="m156.6729 121.7764c-19.6446 0-36.24 16.4492-36.24 35.9194s16.5957 35.918 36.24 35.918 36.24-16.4483 36.24-35.918-16.5955-35.9194-36.24-35.9194zm0 59.8374c-13.14 0-24.24-10.9532-24.24-23.918s11.1006-23.9194 24.24-23.9194 24.24 10.9536 24.24 23.9194-11.1004 23.918-24.24 23.918z"/><path d="m320.833 207.2588c-19.0059 0-35.0879 4.9121-45.84 13.6089v-7.6089a6 6 0 0 0 -6-6h-47.52a6 6 0 0 0 -6 6v144.6212h12v-138.6212h35.5205l-.0025 17.6652a6.0047 6.0047 0 0 0 5.1289 5.3544c5.3594.7037 6.9737-3.0566 7.0606-3.2284 6.2607-12.39 23.3471-19.7912 45.6528-19.7912 46.9453 0 57.8447 23.7031 58.7373 64.9341l-.8008 94.0307h-39.8411v-76.9184c0-15.3526 0-51.3052-35.376-51.3052-37.9677 0-37.9677 36.0322-37.9677 49.5967v78.6269h-38.1123v-12.3436h-12v18.3435a6 6 0 0 0 6 6h50.1123a6 6 0 0 0 6-6v-84.6268c0-27.4067 7.038-37.5967 25.9677-37.5967 17.04 0 23.376 10.6528 23.376 39.3052v82.9184a6 6 0 0 0 6 6h51.8858a6 6 0 0 0 6-5.9549l.7529-100.3356c-.8203-37.915-9.8662-76.6743-70.7344-76.6743z"/><path d="m413.5728 106.5757 8.3525-8.6245q-4.1476-4.34-8.6167-8.3623l-8.3438 8.6333q4.4773 3.999 8.608 8.3535z"/><path d="m427.8052 104.4629-9.4 7.4614a142.3046 142.3046 0 0 1 34.6347 93.07v102.0111c0 79.3349-65.2646 143.8779-145.4863 143.8779h-103.1063a145.8293 145.8293 0 0 1 -129.1211-77.6357l-10.3672 6.0551a157.8426 157.8426 0 0 0 139.4883 83.5806h103.1064c86.8379 0 157.4863-69.9268 157.4863-155.8779v-102.0108a154.2409 154.2409 0 0 0 -37.2348-100.5317z"/><path d="m58.96 307.0054v-102.0108c0-79.3349 65.2656-143.8779 145.4873-143.8779h103.1064a145.7951 145.7951 0 0 1 91.938 32.4561l7.1338-9.6509a157.7341 157.7341 0 0 0 -99.0718-34.8052h-103.1064c-86.8389 0-157.4873 69.9268-157.4873 155.8779v102.0108a153.6327 153.6327 0 0 0 14.09 64.4218l11.1-4.5922a141.7 141.7 0 0 1 -13.19-59.8296z"/></svg>