<svg id="Layer_1" viewBox="0 0 512 512" xmlns="http://www.w3.org/2000/svg" data-name="Layer 1"><path d="m274.2285 300.8264c48.4138 0 103.8047-30.8369 103.8047-81.9053 0-33.519-26.8743-61.6821-62.0513-74.4936l-4.6806 10.9985c31.6269 11.2993 54.7319 36.1651 54.7319 63.4951 0 37.8926-42.041 69.9053-91.8047 69.9053-48.9062 0-91.8056-32.666-91.8056-69.9053 0-38.8627 43.84-69.9062 91.8056-69.9062a110.6227 110.6227 0 0 1 30.3631 4.26c.6171-2.5874 2.4572-10.3047 2.7744-11.6285a122.1536 122.1536 0 0 0 -33.1375-4.6313c-56.2685 0-103.8056 37.5088-103.8056 81.9062 0 45.9896 50.5871 81.9051 103.8056 81.9051z"/><path d="m334.69 117.5969h-164.4918a5.9951 5.9951 0 0 0 -3.7822 1.3428 146.058 146.058 0 0 0 -26.6384 28.0513l9.45 7.43a132.9665 132.9665 0 0 1 23.1238-24.8242h162.3386c27.0878 0 49.1259 22.253 49.1259 49.6055v121.9767c-27.8242 27.5175-67.6142 43.2519-109.5869 43.2519-16.8652 0-31.8222-1.9883-44.457-5.9082a5.993 5.993 0 0 0 -4.9131.6143l-61.7031 37.81 6.789-67.3964a5.9955 5.9955 0 0 0 -1.8213-4.9356c-25.3037-24.2217-39.1132-53.8789-39.9384-85.77a109.63 109.63 0 0 1 17.0988-58.5161l-10.4739-5.9175a121.4231 121.4231 0 0 0 -18.6255 64.51c0 .0508.0009.1006.0019.1514.8643 34.249 15.211 66.0537 41.5283 92.1533l-7.7119 76.5576a6.0006 6.0006 0 0 0 9.1045 5.7178l69.74-42.7344c13.1962 3.7588 28.4472 5.6641 45.3808 5.6641 46.0518 0 89.7471-17.71 119.8809-48.5879a5.9978 5.9978 0 0 0 1.706-4.19v-124.45c.0004-33.9706-27.4205-61.6064-61.125-61.6064z"/><path d="m413.5728 106.5757 8.3525-8.6245q-4.1476-4.34-8.6167-8.3623l-8.3438 8.6333q4.4773 3.999 8.608 8.3535z"/><path d="m427.8052 104.4629-9.4 7.4614a142.3046 142.3046 0 0 1 34.6347 93.07v102.0111c0 79.3349-65.2646 143.8779-145.4863 143.8779h-103.1063a145.8293 145.8293 0 0 1 -129.1211-77.6357l-10.3672 6.0551a157.8426 157.8426 0 0 0 139.4883 83.5806h103.1064c86.8379 0 157.4863-69.9268 157.4863-155.8779v-102.0108a154.2409 154.2409 0 0 0 -37.2348-100.5317z"/><path d="m58.96 307.0054v-102.0108c0-79.3349 65.2656-143.8779 145.4873-143.8779h103.1064a145.7951 145.7951 0 0 1 91.938 32.4561l7.1338-9.6509a157.7341 157.7341 0 0 0 -99.0718-34.8052h-103.1064c-86.8389 0-157.4873 69.9268-157.4873 155.8779v102.0108a153.6327 153.6327 0 0 0 14.09 64.4218l11.1-4.5922a141.7 141.7 0 0 1 -13.19-59.8296z"/></svg>