<svg id="Layer_1" viewBox="0 0 512 512" xmlns="http://www.w3.org/2000/svg" data-name="Layer 1"><path d="m386.7664 190.7119c-3.8789-16.7646-17.2422-29.1992-33.2676-30.9668-32.6172-3.9389-65.6016-3.9394-97.5-3.9394-27.2076 0-55.1988.01-82.7178 2.4089l.5366 11.9988c27.1821-2.3987 55.0733-2.4076 82.1812-2.4076 31.5639 0 64.2046 0 96.1284 3.8608 11.0195 1.19 20.2109 9.9273 22.9473 21.751 4.5234 19.8218 4.5234 41.5605 4.5234 62.583s0 42.76-4.5274 62.6c-2.7324 11.8062-11.9238 20.544-22.8671 21.7251-31.5391 3.8692-64.4122 3.8692-96.2046 3.8692-31.5664 0-64.2051 0-96.1289-3.86-11.02-1.19-20.211-9.9277-22.9473-21.7515-4.5234-19.8217-4.5234-41.56-4.5234-62.582s0-42.7612 4.5273-62.6006c2.7324-11.8061 11.9238-20.5434 22.8672-21.7246q3.4124-.4188 6.8462-.7731l-1.9287-11.8667q-3.1547.3366-6.2984.7193c-15.9736 1.7666-29.3 14.1889-33.1845 30.9746-4.8283 21.1569-4.8283 43.5827-4.8283 65.2702s0 44.1123 4.833 65.2876c3.88 16.7651 17.2441 29.2 33.2685 30.9678 32.6172 3.9384 65.6006 3.9384 97.4981 3.9384 32.1264 0 65.3452 0 97.5874-3.9487 15.9746-1.7671 29.2988-14.189 33.1836-30.9751 4.83-21.1577 4.83-43.583 4.83-65.27s-.0006-44.1133-4.8342-65.2886z"/><path d="m232.0569 296.3328 69.9831-37.6128a6 6 0 0 0 0-10.57l-69.9829-37.6114a6 6 0 0 0 -8.8408 5.2851v75.2239a6 6 0 0 0 8.8406 5.2852zm3.1592-70.4728 51.3081 27.5752-51.3081 27.5762z"/><path d="m413.5728 106.5757 8.3525-8.6245q-4.1476-4.34-8.6167-8.3623l-8.3438 8.6333q4.4773 3.999 8.608 8.3535z"/><path d="m427.8052 104.4629-9.4 7.4614a142.3046 142.3046 0 0 1 34.6347 93.07v102.0111c0 79.3349-65.2646 143.8779-145.4863 143.8779h-103.1063a145.8293 145.8293 0 0 1 -129.1211-77.6357l-10.3672 6.0551a157.8426 157.8426 0 0 0 139.4883 83.5806h103.1064c86.8379 0 157.4863-69.9268 157.4863-155.8779v-102.0108a154.2409 154.2409 0 0 0 -37.2348-100.5317z"/><path d="m58.96 307.0054v-102.0108c0-79.3349 65.2656-143.8779 145.4873-143.8779h103.1064a145.7951 145.7951 0 0 1 91.938 32.4561l7.1338-9.6509a157.7341 157.7341 0 0 0 -99.0718-34.8052h-103.1064c-86.8389 0-157.4873 69.9268-157.4873 155.8779v102.0108a153.6327 153.6327 0 0 0 14.09 64.4218l11.1-4.5922a141.7 141.7 0 0 1 -13.19-59.8296z"/></svg>