<svg id="Layer_1" height="512" viewBox="0 0 512 512" width="512" xmlns="http://www.w3.org/2000/svg" data-name="Layer 1"><g fill="rgb(0,0,0)"><path d="m313.8193 465.89h-103.0993a157.7961 157.7961 0 0 1 -136.6-78.31l-.0107-.0108-2.9793-5.1292a.075.075 0 0 1 -.01-.04c.01-.01.02-.0293.0293-.0293l10.2807-5.9807a.079.079 0 0 1 .04-.01c.01 0 .03.01.03.0195l2.99 5.15a146.3585 146.3585 0 0 0 126.23 72.3405h103.1a145.3614 145.3614 0 0 0 102.87-42.19 142.166 142.166 0 0 0 42.62-101.69v-102.01a141.3627 141.3627 0 0 0 -30.8-88.48l-3.69-4.67a.0617.0617 0 0 1 -.01-.04c0-.01.01-.02.0205-.0293l9.34-7.3809c.02-.0195.05-.01.07.0108l3.69 4.67a154.1615 154.1615 0 0 1 33.3795 95.9194v102.01a153.2541 153.2541 0 0 1 -12.4 60.67 156.1079 156.1079 0 0 1 -14.53 26.48 157.874 157.874 0 0 1 -130.5607 68.73zm-246.5993-91.42a.0543.0543 0 0 1 -.05-.03l-2.27-5.5a153.2825 153.2825 0 0 1 -11.67-58.93v-102.01a153.2358 153.2358 0 0 1 12.4-60.67 155.2476 155.2476 0 0 1 14.53-26.48 157.8328 157.8328 0 0 1 130.56-68.73h103.1a157.8711 157.8711 0 0 1 94.36 31.1v.01l4.77 3.54c.01.0108.0195.0205.0195.03a.0614.0614 0 0 1 -.01.04l-7.09 9.55c-.02.0206-.0508.03-.07.01l-4.78-3.54a145.2424 145.2424 0 0 0 -87.2-28.7393h-103.0995a145.3987 145.3987 0 0 0 -102.88 42.19 142.2 142.2 0 0 0 -42.61 101.6893v102.01a141.4652 141.4652 0 0 0 10.7607 54.35l2.27 5.49a.0519.0519 0 0 1 -.03.07l-10.9907 4.55zm352.73-265.03c-.0107 0-.02-.01-.03-.02l-8.55-8.28a.0347.0347 0 0 1 -.0107-.03c0-.02 0-.0293.0107-.04l8.29-8.55a.0862.0862 0 0 1 .0693 0l8.54 8.29a.0479.0479 0 0 1 0 .07l-8.2793 8.54a.08.08 0 0 1 -.04.02z"/><path d="m261.8594 384.68h-.01a5.9823 5.9823 0 0 1 -3-.81l-73.03-42.34a6.0308 6.0308 0 0 1 -2.9892-5.19v-11.7707a.0471.0471 0 0 1 .05-.05h11.9a.0477.0477 0 0 1 .05.05v8.3107l67.04 38.87 67.84-38.8906v-8.29a.0471.0471 0 0 1 .05-.05h11.9a.0477.0477 0 0 1 .05.05v11.7706a5.9881 5.9881 0 0 1 -3.02 5.2l-73.85 42.34a6.0288 6.0288 0 0 1 -2.9808.8z"/><path d="m315.84 333.39a6.0081 6.0081 0 0 1 -3.9-1.4394l-49.67-42.37-49.67 42.3694a6.1339 6.1339 0 0 1 -7.24.42l-76.03-50.9706a6.0063 6.0063 0 0 1 -.46-9.63l47.0195-38.41-47.0195-38.4194a6.007 6.007 0 0 1 .46-9.63l38.16-25.58c.01 0 .02-.01.0293 0a.052.052 0 0 1 .04.02l6.62 9.88c.01.03.01.06-.01.07l-31.4393 21.07 46.44 37.94a6.0136 6.0136 0 0 1 0 9.3l-46.44 37.93 65.54 43.94 50.11-42.75a5.9733 5.9733 0 0 1 7.78 0l50.11 42.75 65.53-43.94-46.43-37.93a6.0136 6.0136 0 0 1 0-9.3l46.43-37.94-65.53-43.93-50.11 42.75a5.973 5.973 0 0 1 -7.78 0l-50.11-42.75-27.37 18.35c-.01.0107-.0293.02-.04.0107-.01 0-.02-.0107-.0293-.02l-6.63-9.89a.0356.0356 0 0 1 -.0107-.03.0535.0535 0 0 1 .02-.04l31.1494-20.87a6.1475 6.1475 0 0 1 7.24.41l49.67 42.38 49.67-42.38a6.1467 6.1467 0 0 1 7.24-.41l76.03 50.96a6.0551 6.0551 0 0 1 2.6494 4.71 5.9933 5.9933 0 0 1 -2.1992 4.92l-47.0108 38.42 47.02 38.41a6.007 6.007 0 0 1 -.46 9.63l-76.0288 50.9693a5.9446 5.9446 0 0 1 -3.34 1.02z"/><path d="m262.27 287.7a5.9262 5.9262 0 0 1 -3.1894-.9307l-76.9-48.33a5.9966 5.9966 0 0 1 0-10.1592l76.9-48.33a6.1023 6.1023 0 0 1 6.38 0l76.8994 48.33a5.9956 5.9956 0 0 1 0 10.1592l-76.9 48.3307a5.93 5.93 0 0 1 -3.19.93zm-65.62-54.3408 65.62 41.25 65.62-41.25-65.62-41.25z"/></g></svg>