<svg id="Layer_1" viewBox="0 0 512 512" xmlns="http://www.w3.org/2000/svg" data-name="Layer 1"><path d="m418.6724 106.5757 8.3525-8.6245q-4.1476-4.34-8.6167-8.3623l-8.3437 8.6333q4.4772 3.999 8.6079 8.3535z"/><path d="m432.9048 104.4629-9.4 7.4614a142.3046 142.3046 0 0 1 34.6347 93.07v102.0111c0 79.3349-65.2646 143.8779-145.4863 143.8779h-103.1063a145.8293 145.8293 0 0 1 -129.1211-77.6357l-10.3672 6.0551a157.8426 157.8426 0 0 0 139.4883 83.5806h103.1064c86.8379 0 157.4863-69.9268 157.4863-155.8779v-102.0108a154.24 154.24 0 0 0 -37.2348-100.5317z"/><path d="m64.06 307.0054v-102.0108c0-79.3349 65.2656-143.8779 145.4873-143.8779h103.106a145.7951 145.7951 0 0 1 91.938 32.4561l7.1338-9.6509a157.7341 157.7341 0 0 0 -99.0718-34.8052h-103.1064c-86.8389 0-157.4869 69.9268-157.4869 155.8779v102.0108a153.6312 153.6312 0 0 0 14.09 64.4218l11.1-4.5922a141.7 141.7 0 0 1 -13.19-59.8296z"/><path d="m301.5742 318.3219c9.6836-3.0693 23.999-8.25 33.0225-14.4453 12.5146-8.5923 15.8808-24.6934 6.61-37.1558-10.0683-13.5346-26.2773-10.5014-39.5078-4.2251-7.53 3.5711-14.8672 7.8267-28.36 9.4668l2.4511 11.6946c14.7491-2.0032 23.26-6.624 31.0528-10.32 7.67-3.6377 17.38-7.9433 24.1943-.08 5.9668 6.8847 3.9639 15.7871-3.2324 20.7275-12.543 8.6123-39.876 15.8233-39.876 15.8233a5.7942 5.7942 0 0 0 -2.5029 9.8266s32.2021 30.1128 39.0693 37.0254c5.6533 5.69 5.3194 11.2 3.4092 16.6582-6.2744 8.2066-16.3975 10.1113-24.2568 2.9483-12.1807-11.1016-36.167-34.6285-38.1192-36.7642h-.001a5.9983 5.9983 0 0 0 -8.8554 0h-.001c-1.9521 2.1357-25.9385 25.6626-38.1191 36.7642-7.8594 7.163-17.9825 5.2583-24.2569-2.9483-1.91-5.4585-2.2441-10.9678 3.4092-16.6582 6.8672-6.9126 39.0693-37.0254 39.0693-37.0254a5.7942 5.7942 0 0 0 -2.5029-9.8266s-27.333-7.211-39.876-15.8233c-7.1963-4.94-9.1992-13.8428-3.2324-20.7275 6.8145-7.8628 16.5244-3.5572 24.1943.08 9.3845 4.4507 23.7255 12.53 51.2129 11.1568l.1416-11.9741c-26.103 1.285-37.5251-5.9051-46.2109-10.024-13.2305-6.2763-29.44-9.3095-39.5078 4.2251-9.27 12.4624-5.9043 28.5635 6.61 37.1558 9.0235 6.1958 23.3389 11.376 33.0225 14.4453-1.2363 1.1558-24.415 22.8145-31.4346 29.88-10.0351 10.1035-11.4424 26.2046-.9355 36.3384 11.0068 10.6172 27.0508 10.9209 38.38.5947 9.289-8.4653 26.28-24.9429 34.4648-33.0591 8.1846 8.1162 25.1758 24.5938 34.4649 33.0591 11.3291 10.3262 27.373 10.0225 38.38-.5947 10.5069-10.1338 9.1-26.2349-.9355-36.3384-7.0195-7.0656-30.1983-28.7243-31.4346-29.8801z"/><path d="m261.1 119.3051c-42.4776 0-76.9117 32.9158-76.9117 73.52s34.4341 73.52 76.9117 73.52 76.9111-32.9158 76.9111-73.52-34.4347-73.52-76.9111-73.52zm0 135.0388c-35.793 0-64.9122-27.5976-64.9122-61.5195s29.1192-61.5195 64.9122-61.5195 64.9111 27.5976 64.9111 61.5195-29.1193 61.5195-64.9111 61.5195z"/><path d="m261.1 158.9062c-19.48 0-35.2715 15.1858-35.2715 33.9184s15.7915 33.9185 35.2715 33.9185 35.2715-15.1858 35.2715-33.9185-15.7915-33.9184-35.2715-33.9184zm0 55.8371c-12.832 0-23.2715-9.833-23.2715-21.9189s10.44-21.9185 23.2715-21.9185 23.2715 9.8325 23.2715 21.9185-10.4394 21.9189-23.2715 21.9189z"/></svg>