<svg id="Layer_1" viewBox="0 0 512 512" xmlns="http://www.w3.org/2000/svg" data-name="Layer 1"><path d="m378.93 274.3677 20.406-.1785a6 6 0 0 0 5.9475-6v-24.8376a6 6 0 0 0 -6-6h-20.3535l-.1823-19.3539a6 6 0 0 0 -6-5.9435h-25.5808a6 6 0 0 0 -6 6v19.2974h-20.0576a6 6 0 0 0 -6 6v24.8384a6 6 0 0 0 5.947 6l20.1106.1775v19.35a6 6 0 0 0 6 6h25.5805a6 6 0 0 0 6-5.9436zm-12.126 13.3486h-13.6371v-19.2963a6 6 0 0 0 -5.9471-6l-20.11-.1775v-12.8909h20.0576a6 6 0 0 0 6-6v-19.2974h13.6367l.1823 19.3539a6 6 0 0 0 6 5.9435h20.2975v12.89l-20.35.178a6 6 0 0 0 -5.9473 5.9434z"/><path d="m295.9416 242.46a5.9434 5.9434 0 0 0 -5.9423-5.1719h-86.1475a6 6 0 0 0 -6 6v30.1963a6 6 0 0 0 6 6h43.8857c-6.414 17.5322-25.1982 25.4727-42.5869 25.4727-25.0566 0-52.0244-15.3467-52.0244-49.0415a47.1691 47.1691 0 0 1 20.8477-39.7483l-7.8926-9.1638c-14.627 10.4782-24.9551 27.23-24.9551 48.9121 0 40.0742 32.208 61.0415 64.0244 61.0415 24.64 0 51.58-13.1524 56.2237-42.5362a6 6 0 0 0 -5.9258-6.9361h-45.5967v-18.1965h74.9248c3.06 21.9707-7.1318 88.5625-80.8291 88.5625-63.583 0-85.2178-56.1013-85.2178-81.8432 0-51.24 44.6748-81.8587 86.0987-81.8584 19.7763 0 36.4492 5.96 51.0459 17.1533l-15.833 14.7783a57.9834 57.9834 0 0 0 -35.2295-11.5058 67.28 67.28 0 0 0 -30.2442 7.2971l4.3272 11.2837a55.0039 55.0039 0 0 1 25.917-6.5808c10.7324 0 20.0927 2.6347 32 12.1208a5.9388 5.9388 0 0 0 7.7226-.3926l24.709-23.0635a6.0723 6.0723 0 0 0 -.4434-9.1474c-20.0752-16.7827-40.9257-23.9431-63.9482-23.9431-49.8467 0-99.0469 35.1145-98.1221 93.8584.9951 63.1821 53.0752 93.8432 97.2178 93.8432 48.2568 0 100.8174-31.8608 91.9941-107.3908z"/><path d="m413.5728 106.5757 8.3525-8.6245q-4.1476-4.34-8.6167-8.3623l-8.3438 8.6333q4.4773 3.999 8.608 8.3535z"/><path d="m427.8052 104.4629-9.4 7.4614a142.3046 142.3046 0 0 1 34.6347 93.07v102.0111c0 79.3349-65.2646 143.8779-145.4863 143.8779h-103.1063a145.8293 145.8293 0 0 1 -129.1211-77.6357l-10.3672 6.0551a157.8426 157.8426 0 0 0 139.4883 83.5806h103.1064c86.8379 0 157.4863-69.9268 157.4863-155.8779v-102.0108a154.2409 154.2409 0 0 0 -37.2348-100.5317z"/><path d="m58.96 307.0054v-102.0108c0-79.3349 65.2656-143.8779 145.4873-143.8779h103.1064a145.7951 145.7951 0 0 1 91.938 32.4561l7.1338-9.6509a157.7341 157.7341 0 0 0 -99.0718-34.8052h-103.1064c-86.8389 0-157.4873 69.9268-157.4873 155.8779v102.0108a153.6327 153.6327 0 0 0 14.09 64.4218l11.1-4.5922a141.7 141.7 0 0 1 -13.19-59.8296z"/></svg>