<svg id="Layer_1" viewBox="0 0 512 512" xmlns="http://www.w3.org/2000/svg" data-name="Layer 1"><path d="m322.4028 118.3575c-28.114 0-50.9048 22.3276-50.9048 49.87s22.7908 49.87 50.9048 49.87 50.905-22.3276 50.905-49.87-22.7907-49.87-50.905-49.87zm0 87.74c-21.4521 0-38.9053-16.9883-38.9053-37.87s17.4532-37.87 38.9053-37.87 38.9053 16.9883 38.9053 37.87-17.4531 37.8697-38.9053 37.8697z"/><path d="m175.4526 142.3287c-18.1536 0-32.87 14.4721-32.87 32.3251s14.7165 32.3248 32.87 32.3248 32.87-14.4722 32.87-32.3248-14.7165-32.3251-32.87-32.3251zm.0005 52.65c-11.5079 0-20.87-9.1181-20.87-20.3252s9.3623-20.3251 20.87-20.3251 20.8691 9.1181 20.8691 20.3251-9.3622 20.3255-20.8691 20.3255z"/><path d="m240.792 134.4223c-21.4948 0-38.92 17.0718-38.92 38.13s17.4251 38.13 38.92 38.13 38.92-17.0713 38.92-38.13-17.4248-38.13-38.92-38.13zm0 64.26c-14.8437 0-26.92-11.7217-26.92-26.13s12.0762-26.13 26.92-26.13 26.92 11.7217 26.92 26.13-12.0757 26.1298-26.9195 26.1298z"/><path d="m369.7445 233.3222c-22.9631-22.4951-60.6872-25.8652-86.93-6.87-16.8-23.8345-50.7459-29.2075-73.98-11.18-24.457-29.7793-76.09-12.9092-76.09 26.29v64.51a6 6 0 0 0 6 6h10.5755v-12h-4.5757v-58.51c0-28.2706 37.3621-39.9288 54.8-18.69l3.7075 4.523a6 6 0 0 0 8.3178.937l4.6148-3.58a39.9021 39.9021 0 0 1 56.82 8.61l3.5024 4.9736a6 6 0 0 0 8.4207 1.4082l4.9267-3.5615c35.0752-25.4273 87.6.01 87.6 43.69v101.77h-110.35v-48.38a6 6 0 0 0 -6-6h-59.34v-21.19a6 6 0 0 0 -6-6h-38.4442v12h32.4443v21.19a6 6 0 0 0 6 6h59.34v48.38a6 6 0 0 0 6 6h122.35a6 6 0 0 0 6-6v-107.77c.0004-18.0698-6.6297-33.73-19.7098-46.5503z"/><path d="m418.6724 106.5757 8.3525-8.6245q-4.1476-4.34-8.6167-8.3623l-8.3437 8.6333q4.4772 3.999 8.6079 8.3535z"/><path d="m432.9048 104.4629-9.4 7.4614a142.3046 142.3046 0 0 1 34.6347 93.07v102.0111c0 79.3349-65.2646 143.8779-145.4863 143.8779h-103.1063a145.8293 145.8293 0 0 1 -129.1211-77.6357l-10.3672 6.0551a157.8426 157.8426 0 0 0 139.4883 83.5806h103.1064c86.8379 0 157.4863-69.9268 157.4863-155.8779v-102.0108a154.24 154.24 0 0 0 -37.2348-100.5317z"/><path d="m64.06 307.0054v-102.0108c0-79.3349 65.2656-143.8779 145.4873-143.8779h103.106a145.7951 145.7951 0 0 1 91.938 32.4561l7.1338-9.6509a157.7341 157.7341 0 0 0 -99.0718-34.8052h-103.1064c-86.8389 0-157.4869 69.9268-157.4869 155.8779v102.0108a153.6312 153.6312 0 0 0 14.09 64.4218l11.1-4.5922a141.7 141.7 0 0 1 -13.19-59.8296z"/></svg>