<svg id="Layer_1" viewBox="0 0 512 512" xmlns="http://www.w3.org/2000/svg" data-name="Layer 1"><path d="m255.999 364.5791c46.26 0 83.7608-37.1309 83.7608-82.9346s-37.501-82.9345-83.7608-82.9345-83.76 37.1313-83.76 82.9345 37.501 82.9346 83.76 82.9346zm0-153.8691c39.5694 0 71.7608 31.8213 71.7608 70.9345s-32.1914 70.9346-71.7608 70.9346-71.7607-31.8213-71.7607-70.9346 32.1917-70.9345 71.7607-70.9345z"/><path d="m256 173.0649a109.8374 109.8374 0 0 0 -71.76 26.48v-58.95a18.96 18.96 0 0 0 -37.92 0v61.0747h12v-61.0749a6.9614 6.9614 0 0 1 13.92 0s0 73.41.01 73.5c.5791 5.0811 6.7793 7.815 10.42 3.7305a97.9074 97.9074 0 0 1 73.33-32.88c53.86 0 97.68 43.38 97.68 96.7s-43.8193 96.7-97.68 96.7-97.68-43.38-97.68-96.7v-71.9758h-12v71.9756c0 59.97 49.1094 108.58 109.68 108.58s109.68-48.61 109.68-108.58-49.11-108.5801-109.68-108.5801z"/><path d="m244.7207 285.92c0-14.8369-12.6406-27.3711-27.6016-27.3711a27.3716 27.3716 0 1 0 27.6016 27.3711zm-43.2012 0a15.3228 15.3228 0 0 1 15.6-15.3711c8.3106 0 15.6016 7.1826 15.6016 15.3711a15.6023 15.6023 0 0 1 -31.2012 0z"/><path d="m413.5728 106.5757 8.3525-8.6245q-4.1476-4.34-8.6167-8.3623l-8.3438 8.6333q4.4773 3.999 8.608 8.3535z"/><path d="m427.8052 104.4629-9.4 7.4614a142.3046 142.3046 0 0 1 34.6347 93.07v102.0111c0 79.3349-65.2646 143.8779-145.4863 143.8779h-103.1063a145.8293 145.8293 0 0 1 -129.1211-77.6357l-10.3672 6.0551a157.8426 157.8426 0 0 0 139.4883 83.5806h103.1064c86.8379 0 157.4863-69.9268 157.4863-155.8779v-102.0108a154.2409 154.2409 0 0 0 -37.2348-100.5317z"/><path d="m58.96 307.0054v-102.0108c0-79.3349 65.2656-143.8779 145.4873-143.8779h103.1064a145.7951 145.7951 0 0 1 91.938 32.4561l7.1338-9.6509a157.7341 157.7341 0 0 0 -99.0718-34.8052h-103.1064c-86.8389 0-157.4873 69.9268-157.4873 155.8779v102.0108a153.6327 153.6327 0 0 0 14.09 64.4218l11.1-4.5922a141.7 141.7 0 0 1 -13.19-59.8296z"/></svg>