<svg id="Layer_1" viewBox="0 0 512 512" xmlns="http://www.w3.org/2000/svg" data-name="Layer 1"><path d="m165.88 309.8712a40.1945 40.1945 0 1 0 40.56 40.1924 40.4232 40.4232 0 0 0 -40.56-40.1924zm0 68.3857a28.1952 28.1952 0 1 1 28.56-28.1933 28.41 28.41 0 0 1 -28.56 28.1933z"/><path d="m131.6339 207.1905a6.1312 6.1312 0 0 0 -6.3139 6.0962v49.856a6.06 6.06 0 0 0 5.811 6.0932c55.5791 1.6426 88.54 32.0552 104.55 64.25l11.15-6.2119c-18.938-37.2778-58.1538-66.4824-109.5117-69.7588v-38.1176c87.1894 3.0654 157.5576 72.6386 160.6923 158.86h-38.6428a111.8316 111.8316 0 0 0 -8.7559-42.8022l-12.0278 4.3222c6.832 15.961 9.624 31.9287 9.0464 44.6514-.148 3.26 2.8306 5.8286 6.0942 5.8286h50.4053c3.4556 0 5.7036-2.8882 6.0957-6.3213 5.2271-45.7799-37.9727-173.9401-178.5928-176.7458z"/><path d="m266.2956 157.1363-6.7735 10.9192c69.7969 41.3113 121.4038 117.02 124.9268 210.2014h-38.125c-3.1651-112.6416-95.1787-203.6869-209.0039-206.7856v-37.592c40.3681-.0228 80.1548 10.8239 115.6235 30.4079l5.8872-11.2872c-34.86-18.56-77.02-30.3906-127.27-31.2566a6.1124 6.1124 0 0 0 -6.2407 6.0984v49.3712a6.113 6.113 0 0 0 5.934 6.0976c157.917 5.24 204.12 141.0455 203.2354 201.0176a6.0078 6.0078 0 0 0 6.0977 5.9287h49.9043c3.4262 0 5.8774-2.8266 6.0986-6.2451 4.0063-62.0054-33.3091-170.8918-130.2944-226.8755z"/><path d="m418.6724 106.5757 8.3525-8.6245q-4.1476-4.34-8.6167-8.3623l-8.3437 8.6333q4.4772 3.999 8.6079 8.3535z"/><path d="m432.9048 104.4629-9.4 7.4614a142.3046 142.3046 0 0 1 34.6347 93.07v102.0111c0 79.3349-65.2646 143.8779-145.4863 143.8779h-103.1063a145.8293 145.8293 0 0 1 -129.1211-77.6357l-10.3672 6.0551a157.8426 157.8426 0 0 0 139.4883 83.5806h103.1064c86.8379 0 157.4863-69.9268 157.4863-155.8779v-102.0108a154.24 154.24 0 0 0 -37.2348-100.5317z"/><path d="m64.06 307.0054v-102.0108c0-79.3349 65.2656-143.8779 145.4873-143.8779h103.106a145.7951 145.7951 0 0 1 91.938 32.4561l7.1338-9.6509a157.7341 157.7341 0 0 0 -99.0718-34.8052h-103.1064c-86.8389 0-157.4869 69.9268-157.4869 155.8779v102.0108a153.6312 153.6312 0 0 0 14.09 64.4218l11.1-4.5922a141.7 141.7 0 0 1 -13.19-59.8296z"/></svg>