<svg id="Layer_1" viewBox="0 0 512 512" xmlns="http://www.w3.org/2000/svg" data-name="Layer 1"><path d="m192.1975 276.3587c-1.4739 0-10.53.0054-11.9551-.001.0039 4.0708.0052 8.083.0032 11.9971l11.9678-.06c-.002-3.8995-.0076-7.8902-.0159-11.9361z"/><path d="m362.1127 357.2982c1.9995-13.32 12.4951-29.93 5.4047-41.8633-4.3686-7.354-17.278-12.1416-23.2382-7.57-7.6912 5.9023-3.3323 21.7407-8.2652 31.4551-10.1179 19.92-102.8386 24.6166-112.028 10.1318-4.1092-8.7578-2.8062-65.58-.3934-83.44 26.0633.3321 56.1687-7.603 72.0245 1.51 8.5324 5.5376 2.61 27.33 22.85 28.2705 4.8652.2315 7.7368-1.76 9.2944-3.4639 6.1448-6.7255 1.5266-15.09 1.2705-38.1142-.0693-6.2266-.1479-13.2832.06-19.0039.3955-10.9322 3.623-24.3369-3.8872-30.2676-2.1309-1.6836-5.91-3.2832-11.814-1.34-16.38 5.3916-8.08 24.7529-14.4639 28.9423-8.9006 5.9336-52.9035 4.1983-74.799 1.43-3.0047-24.2461-8.44-54.1455-.0367-72.5449 8.8628-9.9331 96.8741-8.1211 104.1683 5.3438 3.7309 6.8535-.262 22.2968 11.7509 25.2509 5.9287 1.375 9.6822-.5537 11.7857-2.414 8.8266-7.8033 3.397-27.0171 3.397-37.6846 0-7.43 6.0632-14.8867 1.999-23.1895-4.7818-9.7714-15.3184-7.3476-19.8184-6.3134-31.68 7.2949-165.5539 2.8886-167.8472 2.6591-6.2014-.622-17.7448-1.7773-21.6623 8.4229-1.7083 4.4482-1.6572 8.3564.1518 11.6152 5.3025 9.5523 22.2859 6.8511 26.02 11.4473 2.1626 2.6553 4.9089 12.77 5.6348 18.9951.2246 4.7583.5561 50.419.6291 92.79l11.9453-.0874c-.1313-44.9073-.5673-93.1534-.6157-93.7227-.2624-3.1509-3.3181-20.1606-8.445-25.7412-4.2046-4.9922-11.01-6.3057-17.0235-7.4658-8.635-1.667-7.7287-1.8784-7.095-3.5274s5.8274-1.1289 9.2644-.7861c.1011.01 123.2227 4.7661 168.733-2.2871 3.52-.5459 8.5427-2.3711 9.35-.7227 1.1308 2.3086-3.2207 9.3262-3.2207 17.9141 0 7.7524 3.1914 25.0029.7475 28.5654-2.4538.0874-.6174-12.1474-5.2358-19.625-12.1931-21.5786-116.1701-24.677-125.4444-4.607-10.9007 23.5913-3.1438 59.5327-.5181 83.664a6 6 0 0 0 5.0432 5.2793c9.09 1.4131 72.5811 8.2246 87.8535-2.71 7.3326-4.9014 7.9043-12.9688 8.3228-18.8692.48-6.7641.9055-8.101 3.8159-8.8066.9512 3.6948-.4519 13.73-.6782 19.958-.2173 6.0049-.1372 13.2119-.0669 19.5713.12 10.76-.144 10.3428 1.1177 19.5029.4165 3.0244 1.081 7.8467.7563 9.95-3.5971-.1875-4.3-1.1826-6.104-8.3554-1.42-5.6465-3.3647-13.379-10.8559-18.1192-19.6436-12.4868-57.0249-1.8418-82.8592-3.4873a6.0192 6.0192 0 0 0 -6.0993 4.1729c-3.2044 10.0966-6.6348 83.2285.3693 97.0185 11.88 23.37 118.575 18.8242 133.3562-10.2764 3.1778-6.2568 3.7613-13.7519 4.23-19.7744.1587-2.0332-.8293-5.6352.7115-6.6113 1.9672-1.2466 4.5815 1.5732 5.5463 3.1963 3.3435 5.6279-5.1555 21.5474-6.9878 34.1689-1.1147 7.878 2.7715 19.1192-.583 22.003-1.8286 1.5713-4.4868.958-10.1147-.8155a48.3554 48.3554 0 0 0 -9.84-2.3271c-5.471-.4487-143.7349-1.1948-160.6265 1.0351-17.3892 2.2935-14.7053.2813-14.4827-.0029 1.2178-1.5615 6.15-2.0976 10.1138-2.5293 6.2664-.6816 13.3689-1.4541 18.2214-6.2314 3.2625-3.211 7.8128-16.2149 8.6973-23.1836.4832-3.646.6624-22.9629.6816-47.3213-.341 0-11.5339-.0147-11.9758-.0147-.04 24-.2124 42.8228-.6059 45.792a58.8357 58.8357 0 0 1 -5.4124 16.3565c-5.1541 4.3789-21.8328.33-29.1821 9.751-2.6053 3.3408-3.5481 7.7646-2.8023 13.1513 1.47 10.6148 26.2591 6.4 28.3167 6.1289 16.9092-2.2285 155.2495-1.205 157.9787-.9814 7.6114.75 19.2051 8.59 28.856.292 9.3221-8.0143 3.9383-20.9293 4.6593-29.5367z"/><path d="m413.5728 106.5757 8.3525-8.6245q-4.1476-4.34-8.6167-8.3623l-8.3438 8.6333q4.4773 3.999 8.608 8.3535z"/><path d="m427.8052 104.4629-9.4 7.4614a142.3046 142.3046 0 0 1 34.6347 93.07v102.0111c0 79.3349-65.2646 143.8779-145.4863 143.8779h-103.1063a145.8293 145.8293 0 0 1 -129.1211-77.6357l-10.3672 6.0551a157.8426 157.8426 0 0 0 139.4883 83.5806h103.1064c86.8379 0 157.4863-69.9268 157.4863-155.8779v-102.0108a154.2409 154.2409 0 0 0 -37.2348-100.5317z"/><path d="m58.96 307.0054v-102.0108c0-79.3349 65.2656-143.8779 145.4873-143.8779h103.1064a145.7951 145.7951 0 0 1 91.938 32.4561l7.1338-9.6509a157.7341 157.7341 0 0 0 -99.0718-34.8052h-103.1064c-86.8389 0-157.4873 69.9268-157.4873 155.8779v102.0108a153.6327 153.6327 0 0 0 14.09 64.4218l11.1-4.5922a141.7 141.7 0 0 1 -13.19-59.8296z"/></svg>