<svg id="Layer_1" viewBox="0 0 512 512" xmlns="http://www.w3.org/2000/svg" data-name="Layer 1"><path d="m413.5728 106.5757 8.3525-8.6245q-4.1476-4.34-8.6167-8.3623l-8.3438 8.6333q4.4773 3.999 8.608 8.3535z"/><path d="m427.8052 104.4629-9.4 7.4614a142.3046 142.3046 0 0 1 34.6347 93.07v102.0111c0 79.3349-65.2646 143.8779-145.4863 143.8779h-103.1063a145.8293 145.8293 0 0 1 -129.1211-77.6357l-10.3672 6.0551a157.8426 157.8426 0 0 0 139.4883 83.5806h103.1064c86.8379 0 157.4863-69.9268 157.4863-155.8779v-102.0108a154.2409 154.2409 0 0 0 -37.2348-100.5317z"/><path d="m58.96 307.0054v-102.0108c0-79.3349 65.2656-143.8779 145.4873-143.8779h103.1064a145.7951 145.7951 0 0 1 91.938 32.4561l7.1338-9.6509a157.7341 157.7341 0 0 0 -99.0718-34.8052h-103.1064c-86.8389 0-157.4873 69.9268-157.4873 155.8779v102.0108a153.6327 153.6327 0 0 0 14.09 64.4218l11.1-4.5922a141.7 141.7 0 0 1 -13.19-59.8296z"/><path d="m289.26 226.0933a23.0969 23.0969 0 1 0 0-46.1924c-11.68 0-22.1123 10.1142-23.2549 22.5469l-.0254.2734v.2754a23.2154 23.2154 0 0 0 23.2803 23.0967zm0-34.1924a11.0977 11.0977 0 1 1 -11.2774 11.37c.6995-6.0878 5.9066-11.37 11.2774-11.37z"/><path d="m225.32 226.0933a23.0969 23.0969 0 1 0 0-46.1924c-12.2724 0-22.0527 9.4824-23.2548 22.5459l-.0254.2744v.2754a23.2153 23.2153 0 0 0 23.2802 23.0967zm0-34.1924a11.0977 11.0977 0 1 1 -11.2773 11.3633c.7303-6.7061 5.3348-11.3633 11.2773-11.3633z"/><path d="m333.41 271.3433h-154.84a6.0082 6.0082 0 0 1 -6-6l.01-20.4h11.99v14.4h142.84l.01-14.4h11.99v20.2967a5.9568 5.9568 0 0 1 -6 6.1037z"/><path d="m357.1021 166.6587-9.2334 7.6675a120.9772 120.9772 0 0 1 31.7313 81.6738c0 67.3936-55.4463 122.2227-123.6 122.2227s-123.6-54.8291-123.6-122.2227 55.4473-122.2227 123.6006-122.2227a123.9076 123.9076 0 0 1 86.959 35.4541l7.9668-8.9785a135.86 135.86 0 0 0 -94.9258-38.476c-74.7706 0-135.6006 60.2131-135.6006 134.2231s60.83 134.2231 135.6006 134.2231 135.5994-60.2131 135.5994-134.2231a132.9106 132.9106 0 0 0 -34.4979-89.3413z"/><path d="m352.8984 238.9a6 6 0 0 0 -6-6h-181.377a6 6 0 0 0 -6 6s-.1308 11.1748-.1318 21.1137h12.0176c.0156-7.4741.1142-15.1137.1142-15.1137h169.377s.2627 20.3378 0 27.11c-1.68 43.3638-40.5088 77.13-84.6885 77.146-44.18-.0161-83.0088-33.7822-84.6885-77.146-.0585-1.5168-.0908-3.7168-.1054-6.2143l-12 .9016c.02 2.2844.0537 4.2841.1054 5.7585 1.7637 49.8081 46.1114 88.6841 96.6885 88.7 50.5772-.0161 94.9248-38.8921 96.6885-88.7.2969-8.3838 0-33.5558 0-33.5558z"/></svg>