<svg id="Layer_1" viewBox="0 0 512 512" xmlns="http://www.w3.org/2000/svg" data-name="Layer 1"><path d="m418.6724 106.5757 8.3525-8.6245q-4.1476-4.34-8.6167-8.3623l-8.3437 8.6333q4.4772 3.999 8.6079 8.3535z"/><path d="m432.9048 104.4629-9.4 7.4614a142.3046 142.3046 0 0 1 34.6347 93.07v102.0111c0 79.3349-65.2646 143.8779-145.4863 143.8779h-103.1063a145.8293 145.8293 0 0 1 -129.1211-77.6357l-10.3672 6.0551a157.8426 157.8426 0 0 0 139.4883 83.5806h103.1064c86.8379 0 157.4863-69.9268 157.4863-155.8779v-102.0108a154.24 154.24 0 0 0 -37.2348-100.5317z"/><path d="m64.06 307.0054v-102.0108c0-79.3349 65.2656-143.8779 145.4873-143.8779h103.106a145.7951 145.7951 0 0 1 91.938 32.4561l7.1338-9.6509a157.7341 157.7341 0 0 0 -99.0718-34.8052h-103.1064c-86.8389 0-157.4869 69.9268-157.4869 155.8779v102.0108a153.6312 153.6312 0 0 0 14.09 64.4218l11.1-4.5922a141.7 141.7 0 0 1 -13.19-59.8296z"/><path d="m324.5684 113.2285h-126.9375c-44.5371 0-80.7715 35.3613-80.7715 78.8262v127.8916c0 43.4639 36.2344 78.8252 80.7715 78.8252h126.9375c44.5371 0 80.7714-35.3613 80.7714-78.8252v-127.8916c.0002-43.4647-36.2343-78.8262-80.7714-78.8262zm68.7716 206.7178c0 36.8476-30.8505 66.8252-68.7714 66.8252h-126.9377c-37.9209 0-68.7715-29.9776-68.7715-66.8252v-127.8916c0-36.8477 30.8506-66.8262 68.7715-66.8262h126.9375c37.9209 0 68.7714 29.9785 68.7714 66.8262z"/><path d="m314.4961 134.416h-106.793c-37.9951 0-68.9062 30.1768-68.9062 67.2686v108.6318c0 37.0918 30.9111 67.2686 68.9062 67.2686h106.793c37.9941 0 68.9053-30.1768 68.9053-67.2686v-108.6318c0-37.0918-30.9114-67.2686-68.9053-67.2686zm56.9053 175.9c0 30.4756-25.5274 55.2686-56.9053 55.2686h-106.793c-31.3779 0-56.9062-24.793-56.9062-55.2686v-108.6314c0-30.4756 25.5283-55.2686 56.9062-55.2686h106.793c31.3779 0 56.9053 24.793 56.9053 55.2686z"/><path d="m261.1 175.4941c-45.4892 0-82.4971 36.1153-82.4971 80.5059s37.0071 80.5059 82.4971 80.5059 82.4957-36.1153 82.4957-80.5059-37.0078-80.5059-82.4957-80.5059zm0 149.0118c-38.8721 0-70.4971-30.7315-70.4971-68.5059s31.625-68.5059 70.4971-68.5059 70.4957 30.7315 70.4957 68.5059-31.624 68.5059-70.4957 68.5059z"/><path d="m261.1 196.7813c-33.4375 0-60.6406 26.5654-60.6406 59.2187s27.2031 59.2188 60.6406 59.2188 60.64-26.5655 60.64-59.2188-27.2039-59.2187-60.64-59.2187zm0 106.4375c-26.82 0-48.6406-21.1827-48.6406-47.2188s21.82-47.2187 48.6406-47.2187 48.64 21.1826 48.64 47.2187-21.82 47.2188-48.64 47.2188z"/><path d="m318.958 184.874a21 21 0 1 0 21-21 21.0242 21.0242 0 0 0 -21 21zm30 0a9 9 0 1 1 -9-9 9.01 9.01 0 0 1 9 9z"/></svg>