<svg id="Layer_1" viewBox="0 0 512 512" xmlns="http://www.w3.org/2000/svg" data-name="Layer 1"><path d="m262.1984 186.852c-.6649-5.6342-.5383-20.1435 12.5215-35.2656a55.7665 55.7665 0 0 1 27.063-16.7949c-.6772 18.0039-12.0306 30.8755-15.7193 35.6553l9.5 7.331c7.2919-9.4511 20.6011-26.5591 17.9141-50.666a5.9829 5.9829 0 0 0 -6.3892-5.3193c-14.2695 1.0156-31.2969 10.0351-41.4487 21.9472-8.4321 9.2871-17.4873 26.4815-15.3584 44.5186z"/><path d="m361.8034 309.67c-.2989-.1152-29.8521-11.8711-30.6534-47.0186.0352-29.8837 24.0889-43.57 24.2813-43.6738a6.0018 6.0018 0 0 0 2.34-8.6543 60.2425 60.2425 0 0 0 -25.6206-22.1172l-6.0087 10.4339a48.3928 48.3928 0 0 1 18.1311 13.5669c-8.9546 6.9825-25.1231 23.36-25.1231 50.5108 0 37.7788 30.0462 53.9531 33.336 55.7519-5.2837 15.5606-14.3793 29.8184-15.0423 30.4917-.0163.0166-19.5285 29.2339-33.8562 29.2339-15.2392 0-21.1931-10.3389-42.2646-10.3389-20.3828 0-26.8459 9.564-41.7007 10.3467-13.53.6953-24.8432-14.4863-35.25-30.0771-23.0752-35.2422-36.4857-87.8809-16.1562-123.8076 10.3652-18.3155 28.5254-29.6934 47.393-29.6934 15.1364 0 30.1211 11.2 42.2637 11.2 15.3932 0 31.32-18.9028 62.4276-9.3452l2.5665-11.7349c-34.3784-10.0625-54.7017 9.08-64.9941 9.08-8.509 0-24.66-11.2-42.2637-11.2-23.1841 0-45.3457 13.7109-57.8369 35.7832-22.5666 39.8814-8.8995 100.0625 16.66 136.44 9.4653 14.1807 23.6435 35.377 44.2885 35.376 17.8055 0 24.7129-10.3682 42.6021-10.3682 18.2328 0 23.363 10.3389 42.2646 10.3389 20.7457 0 33.5308-19.1553 43.8042-34.5469-.1 0 18.26-29.4311 18.26-40.3769a6 6 0 0 0 -3.8481-5.6009z"/><path d="m413.5728 106.5757 8.3525-8.6245q-4.1476-4.34-8.6167-8.3623l-8.3438 8.6333q4.4773 3.999 8.608 8.3535z"/><path d="m427.8052 104.4629-9.4 7.4614a142.3046 142.3046 0 0 1 34.6347 93.07v102.0111c0 79.3349-65.2646 143.8779-145.4863 143.8779h-103.1063a145.8293 145.8293 0 0 1 -129.1211-77.6357l-10.3672 6.0551a157.8426 157.8426 0 0 0 139.4883 83.5806h103.1064c86.8379 0 157.4863-69.9268 157.4863-155.8779v-102.0108a154.2409 154.2409 0 0 0 -37.2348-100.5317z"/><path d="m58.96 307.0054v-102.0108c0-79.3349 65.2656-143.8779 145.4873-143.8779h103.1064a145.7951 145.7951 0 0 1 91.938 32.4561l7.1338-9.6509a157.7341 157.7341 0 0 0 -99.0718-34.8052h-103.1064c-86.8389 0-157.4873 69.9268-157.4873 155.8779v102.0108a153.6327 153.6327 0 0 0 14.09 64.4218l11.1-4.5922a141.7 141.7 0 0 1 -13.19-59.8296z"/></svg>