<?xml version="1.0" encoding="utf-8"?>
<!-- Generator: Adobe Illustrator 27.4.1, SVG Export Plug-In . SVG Version: 6.00 Build 0)  -->
<svg version="1.1" id="Layer_1" xmlns="http://www.w3.org/2000/svg" xmlns:xlink="http://www.w3.org/1999/xlink" x="0px" y="0px"
	 viewBox="0 0 512 512" style="enable-background:new 0 0 512 512;" xml:space="preserve">
<path d="M413.6,106.6l8.4-8.6c-2.8-2.9-5.6-5.7-8.6-8.4l-8.3,8.6C407.9,100.9,410.8,103.7,413.6,106.6z"/>
<path d="M427.8,104.5l-9.4,7.5c22.3,25.9,34.6,58.9,34.6,93.1v102c0,79.3-65.3,143.9-145.5,143.9H204.4
	c-54.1,0.1-103.8-29.8-129.1-77.6L65,379.3c27.5,51.5,81.1,83.7,139.5,83.6h103.1C394.4,462.9,465,393,465,307V205
	C465,168.1,451.8,132.4,427.8,104.5L427.8,104.5z"/>
<path d="M59,307V205c0-79.3,65.3-143.9,145.5-143.9h103.1c33.5-0.1,65.9,11.4,91.9,32.5l7.1-9.7c-28.1-22.6-63-34.9-99.1-34.8H204.4
	C117.6,49.1,47,119,47,205v102c0,22.2,4.8,44.2,14.1,64.4l11.1-4.6C63.4,348.1,58.9,327.7,59,307L59,307z"/>
<path d="M358.7,334.3c-0.3,0-0.5,0-0.8,0H154.1c-4.3,0-7.8-3.5-7.8-7.8V194.8l104.6,90.7c1.5,1.3,3.3,1.9,5.1,1.9
	c1.8,0,3.7-0.6,5.1-1.9l104.6-90.7v131.8c0,0.7-0.1,1.4-0.3,2.1l11.6,11.6c2.8-3.9,4.4-8.6,4.4-13.6V185.5c0-13-10.5-23.5-23.5-23.5
	H154.1c-13,0-23.5,10.5-23.5,23.5v141.1c0,13,10.5,23.5,23.5,23.5h203.8c4.7,0,9.1-1.4,12.8-3.8L358.7,334.3z M154.1,177.6h203.8
	c1.1,0,2.1,0.2,3,0.6L256,269.1l-104.9-90.9C152,177.8,153,177.6,154.1,177.6z"/>
</svg>
