<?xml version="1.0" encoding="utf-8"?>
<!-- Generator: Adobe Illustrator 27.4.1, SVG Export Plug-In . SVG Version: 6.00 Build 0)  -->
<svg version="1.1" id="Layer_1" xmlns="http://www.w3.org/2000/svg" xmlns:xlink="http://www.w3.org/1999/xlink" x="0px" y="0px"
	 viewBox="0 0 512 512" style="enable-background:new 0 0 512 512;" xml:space="preserve">
<path d="M413.6,106.6l8.4-8.6c-2.8-2.9-5.6-5.7-8.6-8.4l-8.3,8.6C407.9,100.9,410.8,103.7,413.6,106.6z"/>
<path d="M427.8,104.5l-9.4,7.5c22.3,25.9,34.6,58.9,34.6,93.1v102c0,79.3-65.3,143.9-145.5,143.9H204.4
	c-54.1,0.1-103.8-29.8-129.1-77.6L65,379.3c27.5,51.5,81.1,83.7,139.5,83.6h103.1C394.4,462.9,465,393,465,307V205
	C465,168.1,451.8,132.4,427.8,104.5L427.8,104.5z"/>
<path d="M59,307V205c0-79.3,65.3-143.9,145.5-143.9h103.1c33.5-0.1,65.9,11.4,91.9,32.5l7.1-9.7c-28.1-22.6-63-34.9-99.1-34.8H204.4
	C117.6,49.1,47,119,47,205v102c0,22.2,4.8,44.2,14.1,64.4l11.1-4.6C63.4,348.1,58.9,327.7,59,307L59,307z"/>
<g>
	<g>
		<path d="M266.2,190.2c13.9,2.3,26.5,8.9,36.6,19s16.6,22.7,19,36.6c0.6,3.5,3.6,5.9,7.1,5.9c0.4,0,0.8-0.1,1.2-0.1
			c3.9-0.6,6.5-4.3,5.9-8.3c-2.9-16.8-10.8-32.1-23-44.3s-27.5-20.1-44.3-23c-3.9-0.6-7.6,2-8.3,5.8
			C259.7,185.8,262.2,189.5,266.2,190.2z"/>
		<path d="M381.3,241.2c-4.7-27.7-17.8-52.9-37.8-72.9c-20-20-45.2-33.1-72.9-37.8c-3.9-0.7-7.5,2-8.2,5.8c-0.6,3.9,2,7.6,5.9,8.3
			c24.7,4.2,47.2,15.9,65.2,33.8c17.9,17.9,29.6,40.5,33.8,65.2c0.6,3.5,3.6,5.9,7.1,5.9c0.4,0,0.8-0.1,1.2-0.1
			C379.3,248.8,382,245.1,381.3,241.2z"/>
	</g>
</g>
<path d="M358,315.2L328.9,286c-5.1-5.4-11.3-8.2-17.9-8.2c-6.5,0-12.8,2.8-18.1,8.2l-16.8,16.7c-1.4-0.7-2.8-1.4-4.1-2.1
	c-1.9-1-3.7-1.9-5.2-2.8c-15.7-10-30-23-43.6-39.8c-6.6-8.4-11.1-15.4-14.3-22.6c4.3-4,8.4-8.1,12.3-12.1c1.5-1.5,3-3,4.5-4.5
	c11.1-11.1,11.1-25.6,0-36.7l-14.5-14.5c-1.6-1.6-3.3-3.3-4.9-5c-3.2-3.3-6.5-6.7-10-9.9c-5.1-5.1-11.3-7.8-17.8-7.8
	s-12.7,2.7-18,7.8c-0.1,0.1-0.1,0.1-0.1,0.1l-18,18.2c-6.8,6.8-10.7,15.1-11.5,24.7c-1.3,15.5,3.3,29.9,6.8,39.3
	c8.6,23.2,21.4,44.6,40.6,67.7c22.4,26.7,49.1,48,79.6,63.3l10.7-10.7c-0.3-0.1-0.6-0.3-0.9-0.4c-30-14.5-56.4-35.2-78.3-61.3
	c-18.1-21.8-30.2-41.9-38.2-63.6c-4.9-13.2-6.7-23.5-5.9-33.2c0.5-6.2,2.9-11.3,7.3-15.7l18.1-18.1c2.6-2.4,5.4-3.8,8.1-3.8
	c3.3,0,6,2,7.7,3.7c0.1,0.1,0.1,0.1,0.2,0.2c3.2,3,6.3,6.2,9.5,9.5c1.6,1.7,3.3,3.4,5,5.1l14.5,14.5c5.6,5.6,5.6,10.8,0,16.4
	c-1.5,1.5-3,3.1-4.6,4.6c-4.5,4.6-8.7,8.8-13.3,12.9c-0.1,0.1-0.2,0.2-0.3,0.3c-4.6,4.6-3.7,9-2.8,12c0.1,0.2,0.1,0.3,0.2,0.5
	c3.8,9.1,9.1,17.7,17.1,27.9l0.1,0.1c14.6,18,30.1,32.1,47.1,42.8c2.2,1.4,4.4,2.5,6.5,3.6c1.9,1,3.7,1.9,5.2,2.8
	c0.2,0.1,0.4,0.3,0.6,0.4c1.8,0.9,3.5,1.3,5.2,1.3c4.4,0,7.2-2.8,8.1-3.7l18.1-18.1c1.8-1.8,4.7-4,8-4c3.3,0,6,2.1,7.6,3.9
	c0.1,0.1,0.1,0.1,0.1,0.1l29.2,29.2c5.5,5.4,5.5,11,0.1,16.6c-2.1,2.2-4.2,4.2-6.5,6.5c-3.4,3.3-6.9,6.7-10.2,10.6
	c-5.4,5.7-11.7,8.4-19.9,8.4c-0.8,0-1.6,0-2.4-0.1c-5.6-0.4-11-1.4-16.1-2.7L281.3,376c8.1,2.7,17.1,4.9,26.6,5.5
	c1.1,0.1,2.3,0.1,3.3,0.1c12.2,0,22.5-4.4,30.6-13.1c0.1-0.1,0.2-0.2,0.2-0.3c2.8-3.3,5.9-6.4,9.3-9.6c2.3-2.2,4.6-4.5,6.9-6.8
	c5.2-5.5,8-11.8,8-18.3C366.2,326.8,363.4,320.5,358,315.2z"/>
</svg>
