<?xml version="1.0" encoding="utf-8"?>
<!-- Generator: Adobe Illustrator 27.4.1, SVG Export Plug-In . SVG Version: 6.00 Build 0)  -->
<svg version="1.1" id="Layer_1" xmlns="http://www.w3.org/2000/svg" xmlns:xlink="http://www.w3.org/1999/xlink" x="0px" y="0px"
	 viewBox="0 0 512 512" style="enable-background:new 0 0 512 512;" xml:space="preserve">
<path d="M413.6,106.6l8.4-8.6c-2.8-2.9-5.6-5.7-8.6-8.4l-8.3,8.6C407.9,100.9,410.8,103.7,413.6,106.6z"/>
<path d="M427.8,104.5l-9.4,7.5c22.3,25.9,34.6,58.9,34.6,93.1v102c0,79.3-65.3,143.9-145.5,143.9H204.4
	c-54.1,0.1-103.8-29.8-129.1-77.6L65,379.3c27.5,51.5,81.1,83.7,139.5,83.6h103.1C394.4,462.9,465,393,465,307V205
	C465,168.1,451.8,132.4,427.8,104.5L427.8,104.5z"/>
<path d="M59,307V205c0-79.3,65.3-143.9,145.5-143.9h103.1c33.5-0.1,65.9,11.4,91.9,32.5l7.1-9.7c-28.1-22.6-63-34.9-99.1-34.8H204.4
	C117.6,49.1,47,119,47,205v102c0,22.2,4.8,44.2,14.1,64.4l11.1-4.6C63.4,348.1,58.9,327.7,59,307L59,307z"/>
<path d="M364.1,192.8c-37.5-66.2-129.1-82.4-187.1-34.1c-3,2.9-7.8,5.1-7.9,9.7c0,3.5,2.8,6.4,6.4,6.4c1.6,0,3.2-0.6,4.3-1.7
	c13.5-12.5,30.2-21.4,47.5-25.9c-11,13.7-19.6,35.1-24.4,61.2c-23.3-5.4-38.4-13.1-45.9-18.2c-2.4-1.5-6-1.2-7.9,1.1
	c-51.6,80.9,11.1,191.6,107,190.1C352.1,382.3,413.1,273.9,364.1,192.8L364.1,192.8z M349.8,193.4c-8.3,4.7-22.1,10.5-40.5,14.8
	c-4.8-26.1-13.4-47.5-24.5-61.2C310.9,153.4,335.5,171.3,349.8,193.4z M256.1,143.3c15.9,0,33.1,26.2,40.7,67.4
	c-23.4,4.4-57.9,4.4-81.3,0C223,169.5,240.2,143.3,256.1,143.3z M213.5,223.4c24.6,4.6,60.5,4.6,85.2,0c2.7,21.5,3,46-0.4,68
	c-27.7,5.1-56.7,5.1-84.4,0C210.9,270.7,210.7,244.3,213.5,223.4L213.5,223.4z M156.1,204.5c9.6,5.5,24.8,11.9,44.9,16.4
	c-2.8,21.2-2.9,46.3-0.3,67.6c-19.7-4.8-38.7-12.2-56.5-22.1C142.2,245.6,146,224.2,156.1,204.5L156.1,204.5z M146.8,282.2
	c17.8,8.9,36.6,15.6,55.9,19.8c4.7,26.6,13.4,48.6,24.5,62.6C187.7,354.9,155.1,320.2,146.8,282.2z M255.2,368.4
	c-15.1-1-31.3-25.4-39-63.8c26.2,4.3,53.5,4.3,79.7,0c-2,9.6-4.5,19.2-7.8,28.5c-1.3,3.3,0.4,7,3.7,8.2c3.3,1.3,7-0.4,8.2-3.7
	c4.1-11.6,7.2-23.6,9.4-35.7c19.5-4.3,38.4-11,56.4-20.1C354.7,332.6,304.8,370,255.2,368.4L255.2,368.4z M311.4,288.5
	c3-22,2.6-46.1-0.2-67.6c20.2-4.6,35.5-11,45-16.5c9.7,19,13.9,40.5,12,61.9C350.3,276.2,331.2,283.7,311.4,288.5L311.4,288.5z"/>
</svg>
