<svg height="512" viewBox="0 0 512 512" width="512" xmlns="http://www.w3.org/2000/svg"><g id="Deodorant"><path d="m170.34 64.65s-28.13 38.71-40.47 82.5 26.93 57.59 13.47 89.67 17.06 50.73 72.66 56.35 122-4.33 130.67-40.61-33-44.51-25.17-67.68 6.5-82.29-16.23-103.72-134.93-16.51-134.93-16.51z" fill="#383333"/><path d="m183.83 231.36h-.11a.48.48 0 0 1 -.37-.59c4-17.9-8-27.4-19.7-36.58a110.43 110.43 0 0 1 -12-10.37c-13.36-14.19.06-36.68.19-36.91a.5.5 0 0 1 .69-.16.49.49 0 0 1 .17.68c-.13.22-13.16 22.07-.32 35.7a107.73 107.73 0 0 0 11.85 10.27c11.92 9.38 24.24 19.08 20 37.59a.5.5 0 0 1 -.4.37z" fill="#fff"/><path d="m301.87 254.78a.5.5 0 0 1 -.34-.13.49.49 0 0 1 0-.7c12.42-13.59 6.84-23.94-.87-38.26-1.69-3.15-3.44-6.4-5.12-9.91-9.37-19.61 13.9-40.66 14.13-40.87a.5.5 0 0 1 .67.75c-.23.2-22.95 20.76-13.9 39.68 1.67 3.5 3.42 6.74 5.1 9.88 7.61 14.13 13.62 25.29.73 39.4a.5.5 0 0 1 -.4.16z" fill="#fff"/><path d="m354 442.86 4.9-12.9a2 2 0 0 1 3.68.09l4.27 13a1.92 1.92 0 0 0 1.24 1.24l8.92 3a2 2 0 0 1 0 3.69l-9.15 3.27a2 2 0 0 0 -1.19 1.22l-4.91 14.81a2 2 0 0 1 -3.72-.07l-4.27-14.69a1.93 1.93 0 0 0 -1.2-1.29l-9-3.29a2 2 0 0 1 0-3.67l9.23-3.24a1.94 1.94 0 0 0 1.2-1.17z" fill="#ffb833"/><path d="m83.33 121.47 4.89-12.89a2 2 0 0 1 3.68.09l4.27 13a1.92 1.92 0 0 0 1.24 1.24l8.92 3a2 2 0 0 1 0 3.69l-9.15 3.27a2 2 0 0 0 -1.18 1.19l-4.9 14.81a2 2 0 0 1 -3.73-.07l-4.27-14.69a1.93 1.93 0 0 0 -1.2-1.29l-9-3.29a2 2 0 0 1 0-3.67l9.23-3.24a2 2 0 0 0 1.2-1.15z" fill="#ffb833"/><path d="m359.14 121.9 6.08-16a2.43 2.43 0 0 1 4.57.11l5.31 16.17a2.41 2.41 0 0 0 1.54 1.54l11.09 3.68a2.42 2.42 0 0 1 0 4.58l-11.32 4.02a2.4 2.4 0 0 0 -1.48 1.52l-6.1 18.4a2.42 2.42 0 0 1 -4.62-.08l-5.31-18.24a2.4 2.4 0 0 0 -1.5-1.6l-11.22-4.09a2.42 2.42 0 0 1 0-4.56l11.47-4a2.43 2.43 0 0 0 1.49-1.45z" fill="#ffb833"/><path d="m166.09 144.23c-.84-.78-5.41-4.88-11.79-4.25-.94.09-4.65.45-7.11 2.86-6.36 6.25-3.41 25.42 8 30.09 6.35 2.61 13-.28 15.19-1.38q-2.17-13.66-4.29-27.32z" fill="#d17352"/><path d="m298.89 141c.8-.82 5.16-5.13 11.57-4.81.94 0 4.67.23 7.24 2.52 6.65 5.93 4.63 25.22-6.5 30.43-6.22 2.91-13 .34-15.24-.65q1.46-13.71 2.93-27.49z" fill="#d17352"/><path d="m159.49 166.81a.39.39 0 0 1 -.26-.09c-2.86-2.64-4.19-5.4-4-8.23.29-3.52 2.91-6.18 4.4-7.43l-9.58.67a.35.35 0 0 1 -.4-.34.37.37 0 0 1 .35-.4l10.84-.77a.38.38 0 0 1 .23.69c-.05 0-4.73 3.16-5.09 7.65-.21 2.58 1 5.14 3.72 7.6a.38.38 0 0 1 0 .53.36.36 0 0 1 -.21.12z" fill="#383333"/><path d="m306.17 163.28a.36.36 0 0 1 -.27-.11.38.38 0 0 1 0-.53c2.56-2.59 3.68-5.2 3.35-7.77-.58-4.47-5.4-7.37-5.45-7.39a.38.38 0 0 1 -.17-.43.42.42 0 0 1 .37-.27l10.86.24a.37.37 0 0 1 .37.38.39.39 0 0 1 -.38.37l-9.6-.21c1.55 1.17 4.3 3.7 4.75 7.21.37 2.81-.83 5.64-3.56 8.4a.34.34 0 0 1 -.27.11z" fill="#383333"/><circle cx="231.93" cy="122.7" fill="#d89071" r="77.47"/><path d="m205.44 190.85c4.06 24.79-1.21 37.33-7.8 44.18-14 14.52-32.38 7.42-44.82 20.14-15.94 16.29-3.56 48.24 3.25 83.15 5.56 28.54 9.57 70.17.64 124.08a220 220 0 0 0 56.07 12.06 225.16 225.16 0 0 0 102.64-16.14 373.71 373.71 0 0 1 -8-95.31c2.75-57.77 18.76-98.41-1.95-115.64-11.72-9.75-24.93-3.31-37.67-16.24-12.12-12.29-13.12-31.25-11.86-46-1.68-1.41-12.07-9.86-27-8a35.89 35.89 0 0 0 -23.5 13.72z" fill="#d89071"/><path d="m154.46 125.59c5.15 44.31 28.72 78.79 60.46 87.29a63.47 63.47 0 0 0 32.25-.09c32.17-8.5 56.25-42.33 62.81-85.77.02-.02-106.98-69.42-155.52-1.43z" fill="#d89071"/><path d="m185 129.24a25.25 25.25 0 0 1 14.39-5.09c3.52-.17 8.29-.4 9.83 2.33a3.86 3.86 0 0 1 0 3.9c-1.6 2.25-5.81.35-12.53.45-8.85.13-14.52 3.63-15.14 2.37-.44-.91 2.35-3.09 3.45-3.96z" fill="#383333"/><path d="m275.5 127.66a25.34 25.34 0 0 0 -14.7-4.1c-3.53.07-8.31.16-9.66 3a3.87 3.87 0 0 0 .27 3.88c1.75 2.15 5.82 0 12.53-.39 8.84-.47 14.74 2.63 15.26 1.34.38-.95-2.55-2.94-3.7-3.73z" fill="#383333"/><path d="m230.27 161.44c-3.24 0-6.83-.4-7.58-2.09-1.26-2.82 4-16 4.62-17.55a.5.5 0 1 1 .93.37c-2.23 5.52-5.45 15-4.64 16.78s7.66 1.66 11.82 1.21a.5.5 0 0 1 .55.44.5.5 0 0 1 -.45.55 50.43 50.43 0 0 1 -5.25.29z" fill="#383333"/><path d="m265.74 149.53a6.55 6.55 0 1 1 -.79-9.21 6.56 6.56 0 0 1 .79 9.21z" fill="#383333" fill-rule="evenodd"/><path d="m271.48 140.69c-.15-.12-1.38 2.13-3 2-1.22-.09-1.56-1.42-3.14-2.55a7.9 7.9 0 0 0 -4.65-1.37 16.29 16.29 0 0 0 2.73 3.75c1.54 1.59 2.52 2.62 3.83 2.6 2.62-.02 4.42-4.28 4.23-4.43z" fill="#383333" fill-rule="evenodd"/><path d="m203.43 150.33a6.55 6.55 0 1 1 .8-9.22 6.56 6.56 0 0 1 -.8 9.22z" fill="#383333" fill-rule="evenodd"/><path d="m188.46 140.69c.15-.12 1.38 2.13 3 2 1.22-.09 1.56-1.42 3.14-2.55a7.9 7.9 0 0 1 4.65-1.37 16.29 16.29 0 0 1 -2.73 3.75c-1.54 1.59-2.52 2.62-3.83 2.6-2.62-.02-4.42-4.28-4.23-4.43z" fill="#383333" fill-rule="evenodd"/><ellipse cx="191.03" cy="164.11" fill="#d17352" rx="9.99" ry="6.28" transform="matrix(1 -.024 .024 1 -3.9 4.65)"/><ellipse cx="269.99" cy="162.16" fill="#d17352" rx="9.99" ry="6.28" transform="matrix(1 -.024 .024 1 -3.83 6.55)"/><path d="m231.56 214.92a68.42 68.42 0 0 1 -25-4.6.51.51 0 0 1 -.26-.66.5.5 0 0 1 .66-.25c.25.1 24.55 10.59 49.68-.76a.5.5 0 0 1 .66.25.51.51 0 0 1 -.25.66 61.74 61.74 0 0 1 -25.49 5.36z" fill="#383333"/><path d="m229.22 185.26h-.12a9.3 9.3 0 0 1 -5-1.53.37.37 0 1 1 .41-.62 8.61 8.61 0 0 0 4.58 1.4 8.72 8.72 0 0 0 4.81-1.41.38.38 0 0 1 .52.11.36.36 0 0 1 -.11.52 9.36 9.36 0 0 1 -5.09 1.53z" fill="#383333"/><path d="m189.46 243.49a118 118 0 0 0 -14.62 1.3 112.56 112.56 0 0 0 -18.19 4.21c-15.58 5.41-23.24 33.31-27 45.8a448.31 448.31 0 0 1 -30.65 75.86l38.48 19c14.14-13.41 50.07-51.28 54.25-107.51a147.44 147.44 0 0 0 -2.27-38.66z" fill="#ffb833"/><path d="m284.38 239.89c7.72 0 25.24 1.13 38.43 13.74 1.18 1.12 4.72 4.64 9.26 12.51 10.6 18.39 11.43 34.24 14.6 51.08a218 218 0 0 0 13.64 44.78l-25.15 23.47a17.45 17.45 0 0 1 -2.93 0c-17-1.5-27.79-29.21-39-58.79-6.09-16.14-9.14-24.21-10.91-35.08a131.69 131.69 0 0 1 2.06-51.71z" fill="#ffb833"/><path d="m75 263.73c.68 13.08 7.3 127.53 43.32 133.48 9 1.48 16.13-4.39 16.44-4.66 28.82-24.41-25.4-129.48-31.26-140.65z" fill="#ffb833"/><path d="m270.66 228.3s-58.22 3.17-71.87-1.46c0 0-6.27 11.91-17.54 15.35s-14.35 3.88-18.74 5.11-2.69 30.8-3.67 38.3-6 15.15-7.31 33.57 7.07 34.43 7.39 56-2.6 69-11 94.36c0 0 110.7 31.18 172.45-7.15 0 0-8.09-49.69-9.07-74.7s4.78-52.3 4.67-66.92-7.92-32.43-9.86-44.63 1.18-29.23-1.16-32.15-23-4.38-27.79-6.7-6.5-8.98-6.5-8.98z" fill="#ffb833"/><circle cx="91.84" cy="205.93" fill="#ffdb99" r="21.13"/><path d="m70.75 211.35 39.25 6.65a2.44 2.44 0 0 0 2.81-2l1-6a2.44 2.44 0 0 0 -2-2.81 130.36 130.36 0 0 1 -39.25-6.6 2.49 2.49 0 0 0 -1.82.42 2.42 2.42 0 0 0 -1 1.58l-1 6a2.43 2.43 0 0 0 2.01 2.76z" fill="#ff535c"/><path d="m64.91 247a49.44 49.44 0 0 1 -2.91-14.93 2.6 2.6 0 0 1 0-.56l2.91-17.29a10.53 10.53 0 0 1 12.15-8.65l28.83 4.84a10.54 10.54 0 0 1 8.65 12.15l-2.83 16.84a2.6 2.6 0 0 1 -.14.53 50.3 50.3 0 0 1 -7.82 13.58c-5.51 6.46.16 16.06.84 27.88a2.88 2.88 0 0 1 0 .59l-.71 4.21a10.56 10.56 0 0 1 -12.15 8.66l-28.85-4.85a10.55 10.55 0 0 1 -8.65-12.15l.78-4.64a2.43 2.43 0 0 1 .17-.6c4.55-10.7 12.82-17.83 9.73-25.61z" fill="#ff8d93"/><ellipse cx="91.03" cy="210.78" fill="#ff535c" rx="4.92" ry="22.34" transform="matrix(.166 -.986 .986 .166 -131.93 265.6)"/><ellipse cx="84.4" cy="250.21" fill="#ff535c" rx="22.83" ry="12.61" transform="matrix(.166 -.986 .986 .166 -176.34 291.96)"/><path d="m65 247.27s.65-5.88 2.77-7.17 9-3.55 9-8.2-8.33-1.53-8.33-1.53 9.82-5.17 8.48-8.19-7.47-1.85-7.47-1.85 7.6-3.48 7.43-7.2-7.6-.76-7.6-.76 7.33-3.38 6.23-6.09-10.08-2-14.19 2.13.24 7.15.24 7.15-3.4 3.77.32 6.34a8.09 8.09 0 0 0 -1.47 3.65 8.84 8.84 0 0 0 2 6.61c-2.86 4.57-3.15 9.64-.74 12.73a7.68 7.68 0 0 0 3.33 2.38z" fill="#d89071"/><path d="m62.66 233.06a.41.41 0 0 1 -.3-.14.39.39 0 0 1 .06-.53 19 19 0 0 1 7.58-3 .37.37 0 0 1 .15.73 18.65 18.65 0 0 0 -7.26 2.88.4.4 0 0 1 -.23.06z" fill="#383333"/><path d="m62 222.27a.37.37 0 0 1 -.08-.74c.3-.06 7.23-1.51 7.59-1.57a.38.38 0 0 1 .43.31.36.36 0 0 1 -.31.43l-7.63 1.56z" fill="#383333"/><path d="m61.64 215.94a.39.39 0 0 1 -.34-.22.37.37 0 0 1 .18-.5c.25-.12 6.21-2.84 8.45-3.46a.37.37 0 1 1 .2.72c-2.18.61-8.28 3.39-8.34 3.42a.42.42 0 0 1 -.15.04z" fill="#383333"/><path d="m311.62 368.92a.5.5 0 0 1 -.5-.5c0-.25.2-24.75 4.32-42.49 4.06-17.47-5.35-32.34-5.45-32.49a.5.5 0 0 1 .84-.54c.1.15 9.74 15.37 5.58 33.26-4.09 17.63-4.29 42-4.29 42.26a.5.5 0 0 1 -.5.5z" fill="#383333"/><path d="m158.8 368.92a.5.5 0 0 1 -.5-.5c0-.24-.2-24.63-4.29-42.26-4.16-17.89 5.48-33.11 5.58-33.26a.5.5 0 0 1 .84.54c-.1.15-9.51 15-5.45 32.49 4.12 17.74 4.32 42.24 4.32 42.49a.5.5 0 0 1 -.5.5z" fill="#383333"/><path d="m217.37 170.4 23.71.24a11.86 11.86 0 0 1 -23.71-.24z" fill="#fff"/><path d="m150.06 141s3.09-1 4.4 3.26 4.36 14 9.48 13.57c1.7-.14-5.77-15.4-1.59-31.6.62-2.38 3.62-13.06 13-20.7 9.85-8 18.3-5.83 27.28-9.75s20-14.65 25.66-46.12a60.81 60.81 0 0 0 8.77 24c4.29 6.71 9.15 11.13 32.81 28.26 22.22 16.09 26.42 18.33 29.39 25.68 4.93 12.17.74 24.48 3.54 24.91 3.89.61 3.07-15.6 10.12-16 0 0 3.57-27.83-4.19-49s-38.21-51.16-64.28-49.7-34.45-3.66-50.58 7.42-54.15 36.71-43.81 95.77z" fill="#383333"/><path d="m153.24 142s-6.51-61.45 42.39-84.52 104.11 3.36 114.37 80.43a5.4 5.4 0 0 1 6.27-.2 98.42 98.42 0 0 0 -3.83-43.24c-2.84-8.72-15.49-43.27-49.7-57.17-38.2-15.51-87.31 1.22-108.16 38-16.5 29.11-9 59.59-6.89 67.1z" fill="#ffb833"/><g fill="#fff"><path d="m181.51 91.4a.5.5 0 0 1 -.07-1c23.16-3.17 33.95-26 34.05-26.22a.52.52 0 0 1 .67-.25.5.5 0 0 1 .24.67c-.11.23-11.13 23.55-34.82 26.79z"/><path d="m170.34 87.46a.51.51 0 0 1 -.5-.44.5.5 0 0 1 .45-.55c9.38-1 28.52-13.72 28.71-13.85a.5.5 0 1 1 .56.83c-.79.53-19.54 13-29.17 14z"/><path d="m280 98.29h-.08c-10.59-1.59-20.71-10.73-27.33-18.11a122.54 122.54 0 0 1 -11.92-15.75.51.51 0 0 1 .17-.69.5.5 0 0 1 .69.17 120.1 120.1 0 0 0 11.82 15.61c6.5 7.26 16.42 16.24 26.72 17.78a.5.5 0 0 1 -.07 1z"/><path d="m287.08 91.4c-11.74-.65-29.77-17.29-30.53-18a.51.51 0 0 1 0-.71.5.5 0 0 1 .71 0c.19.17 18.52 17.1 29.9 17.73a.5.5 0 0 1 0 1z"/><path d="m160.35 75.53a2.46 2.46 0 0 1 -1.55-.53 2.5 2.5 0 0 1 -.4-3.51 135.73 135.73 0 0 1 16.8-17c13.63-11.61 26.61-18 38.59-19a2.5 2.5 0 0 1 .41 5c-26.2 2.11-51.63 33.78-51.89 34.1a2.49 2.49 0 0 1 -1.96.94z"/><path d="m217.37 209.36h-.26c-21.73-2.3-34.08-22.32-34.59-23.17a2.5 2.5 0 1 1 4.27-2.59c.16.25 11.65 18.75 30.84 20.78a2.5 2.5 0 0 1 -.26 5z"/><path d="m230.25 202.83c-4.36 0-3.71 6.76.63 6.76s3.71-6.76-.63-6.76z"/><path d="m155.54 83c-4.36 0-3.71 6.76.63 6.76s3.72-6.76-.63-6.76z"/></g><path d="m400.49 269.48s6.5-9.27 9.33-12.55-4.33-18 2-19.62 13 10.33 21.5 6.67 21.33 3.33 21.83 7-14.66 16.5-15.33 22.16-3.33 9.84-14.67 10-24.66-13.66-24.66-13.66z" fill="#d89071"/><path d="m427.36 282.77c-5.67 11.81-56 114.82-91.5 106.39-8.86-2.1-13.19-10.27-13.38-10.64-17.15-33.65 73.45-109.62 83.17-117.66z" fill="#ffb833"/><path d="m441.78 262.56a23.79 23.79 0 0 0 6.53-33 23.79 23.79 0 0 0 -33-6.53l-11.89 8a2.32 2.32 0 0 0 -.63 3.21l23.7 35.38a2.68 2.68 0 0 0 3.73.74z" fill="#ff8d93"/><path d="m433.61 281.74s2.65-5.3 1.57-7.53-5.63-7.86-3.16-11.8 7.82 3.23 7.82 3.23-5.45-9.67-2.69-11.48 7.29 2.5 7.29 2.5-4.5-7.05-2.34-10.08 6.8 3.48 6.8 3.48-4.33-6.81-1.94-8.5 9.54 3.81 10.77 9.49-4.07 5.88-4.07 5.88.81 5-3.71 5.15a8.24 8.24 0 0 1 -.74 3.87 8.9 8.9 0 0 1 -5.28 4.46c-.08 5.38-2.58 9.8-6.28 11.09a7.65 7.65 0 0 1 -4.04.24z" fill="#d89071"/><path d="m443.52 271.14a.38.38 0 0 1 -.36-.25 18.5 18.5 0 0 0 -4.53-6.36.37.37 0 1 1 .52-.54 18.82 18.82 0 0 1 4.72 6.66.37.37 0 0 1 -.23.47z" fill="#383333"/><path d="m450 262.45a.37.37 0 0 1 -.26-.1c-1.46-1.44-5.29-5.22-5.51-5.41a.38.38 0 0 1 0-.53.37.37 0 0 1 .53 0c.27.24 5.31 5.22 5.53 5.43a.38.38 0 0 1 0 .53.35.35 0 0 1 -.29.08z" fill="#383333"/><path d="m453.66 257.3a.37.37 0 0 1 -.32-.17c0-.06-3.65-5.7-5.15-7.39a.38.38 0 1 1 .56-.5c1.54 1.74 5.07 7.25 5.22 7.49a.37.37 0 0 1 -.11.51.36.36 0 0 1 -.2.06z" fill="#383333"/><path d="m330 365.71a.5.5 0 0 1 -.48-.52c0-.33 1.49-32.51 16.85-48.32a.5.5 0 0 1 .71 0 .51.51 0 0 1 0 .71c-15.1 15.53-16.56 47.34-16.57 47.66a.5.5 0 0 1 -.51.47z" fill="#383333"/><path d="m140.49 374.31h-.15a.51.51 0 0 1 -.33-.63c5.58-18.36-12.86-68.53-13-69a.5.5 0 0 1 .93-.35c.77 2.08 18.74 51 13.07 69.69a.51.51 0 0 1 -.52.29z" fill="#383333"/><path d="m113 383.81a2.49 2.49 0 0 1 -1.44-.46c-14.86-10.47-22.64-55-23-56.88a2.5 2.5 0 0 1 4.93-.85c2.11 12.31 10 45.94 20.92 53.65a2.5 2.5 0 0 1 -1.44 4.54z" fill="#fff"/><path d="m346.67 384a2.51 2.51 0 0 1 -.39-5c9.72-1.51 28.71-24.12 35.21-32.7a2.5 2.5 0 0 1 4 3c-2.52 3.32-25 32.53-38.43 34.63z" fill="#fff"/><path d="m162.65 446.31a2.4 2.4 0 0 1 -.82-.14 2.5 2.5 0 0 1 -1.54-3.18c9.1-26.23 2.75-68.38 2.68-68.8a2.5 2.5 0 1 1 4.94-.76 230.92 230.92 0 0 1 2.17 25.12c.64 19-1.06 34.53-5.06 46.08a2.51 2.51 0 0 1 -2.37 1.68z" fill="#fff"/><path d="m160.58 454.09c-4.47 0-3.81 6.94.65 6.94s3.77-6.94-.65-6.94z" fill="#fff"/><path d="m124.08 384.09c-4.47 0-3.81 6.94.65 6.94s3.81-6.94-.65-6.94z" fill="#fff"/><path d="m389.83 329c-4.47 0-3.81 6.93.65 6.93s3.81-6.93-.65-6.93z" fill="#fff"/><path d="m330 279.64a2.51 2.51 0 0 1 -2.42-1.86c-7-26.48-30.2-28.09-31.19-28.14a2.5 2.5 0 1 1 .27-5c.27 0 27.86 1.77 35.76 31.86a2.5 2.5 0 0 1 -1.79 3.05 2.27 2.27 0 0 1 -.63.09z" fill="#fff"/><path d="m332.5 293.34c-4.48 0-3.81 6.94.64 6.94s3.86-6.94-.64-6.94z" fill="#fff"/></g></svg>