<svg height="512" viewBox="0 0 512 512" width="512" xmlns="http://www.w3.org/2000/svg"><g id="Eyelash_Curler" data-name="Eyelash Curler"><path d="m126.83 301.16 5.11-13.46a2 2 0 0 1 3.84.09l4.47 13.59a2.06 2.06 0 0 0 1.29 1.3l9.32 3.09a2 2 0 0 1 0 3.85l-9.51 3.38a2 2 0 0 0 -1.25 1.28l-5.1 15.5a2 2 0 0 1 -3.89-.07l-4.46-15.35a2 2 0 0 0 -1.26-1.35l-9.43-3.43a2 2 0 0 1 0-3.84l9.64-3.38a2 2 0 0 0 1.23-1.2z" fill="#ffb833"/><path d="m393.13 158.81 5.12-13.46a2 2 0 0 1 3.84.09l4.46 13.56a2.06 2.06 0 0 0 1.29 1.3l9.32 3.09a2 2 0 0 1 0 3.85l-9.56 3.41a2 2 0 0 0 -1.2 1.35l-5.12 15.47a2 2 0 0 1 -3.89-.07l-4.46-15.4a2 2 0 0 0 -1.26-1.35l-9.43-3.43a2 2 0 0 1 0-3.84l9.66-3.38a2 2 0 0 0 1.23-1.19z" fill="#ffb833"/><path d="m106.4 48.05 6.36-16.73a2.53 2.53 0 0 1 4.77.11l5.54 16.89a2.53 2.53 0 0 0 1.61 1.61l11.58 3.84a2.53 2.53 0 0 1 .06 4.79l-11.88 4.24a2.55 2.55 0 0 0 -1.55 1.59l-6.36 19.22a2.53 2.53 0 0 1 -4.84-.09l-5.54-19.07a2.48 2.48 0 0 0 -1.56-1.67l-11.72-4.27a2.53 2.53 0 0 1 0-4.77l12-4.2a2.51 2.51 0 0 0 1.53-1.49z" fill="#ffb833"/><path d="m337.46 139.49a286.68 286.68 0 0 0 -181.85 26.94l-10.67-72a345.54 345.54 0 0 1 181.85-26.98z" fill="#ff8d93"/><path d="m158.19 190.79a7 7 0 0 1 -3.31-13.17 285.09 285.09 0 0 1 196.24-27.32 7 7 0 1 1 -3 13.68 271.09 271.09 0 0 0 -186.63 26 7 7 0 0 1 -3.3.81z" fill="#ff8d93"/><path d="m222.5 376.47a10 10 0 0 1 -9.88-8.54l-9.62-64.74a33.48 33.48 0 0 1 28.2-38l25.68-3.8a10 10 0 0 1 2.93 19.78l-25.65 3.83a13.5 13.5 0 0 0 -11.35 15.3l9.6 64.74a10 10 0 0 1 -8.41 11.32 10.64 10.64 0 0 1 -1.5.11z" fill="#00ccc1"/><path d="m339.24 359.17a10 10 0 0 1 -9.87-8.54l-9.6-64.73a13.48 13.48 0 0 0 -15.29-11.35l-25.68 3.8a10 10 0 0 1 -2.93-19.78l25.67-3.81a33.52 33.52 0 0 1 38 28.21l9.59 64.73a10 10 0 0 1 -8.43 11.36 10.53 10.53 0 0 1 -1.46.11z" fill="#00ccc1"/><path d="m198.67 488.29a48.4 48.4 0 0 1 -47.78-41.29l-6.67-45a48.39 48.39 0 0 1 40.78-54.84l1.36-.2a48.37 48.37 0 0 1 54.89 40.72l6.67 45a48.35 48.35 0 0 1 -40.73 54.9l-1.36.2a49 49 0 0 1 -7.16.51zm-5.26-121.86a28.07 28.07 0 0 0 -4.17.31l-1.36.2a28.37 28.37 0 0 0 -23.88 32.18l6.66 45a28.37 28.37 0 0 0 32.19 23.88l1.36-.2a28.32 28.32 0 0 0 23.87-32.18l-6.66-45a28.38 28.38 0 0 0 -28.01-24.19z" fill="#ff8d93"/><path d="m380.54 462.08a48.41 48.41 0 0 1 -47.78-41.26l-6.66-45a48.39 48.39 0 0 1 40.72-54.9l1.36-.2a48.34 48.34 0 0 1 54.9 40.73l6.66 45a48.32 48.32 0 0 1 -40.74 54.9l-1.35.2a47.79 47.79 0 0 1 -7.11.53zm-5.22-121.87a30 30 0 0 0 -4.21.31l-1.36.21a28.36 28.36 0 0 0 -23.87 32.18l6.66 45a28.39 28.39 0 0 0 32.19 23.88l1.35-.2a28.35 28.35 0 0 0 23.92-32.2l-6.67-45a28.35 28.35 0 0 0 -28-24.19z" fill="#ff8d93"/><path d="m337.46 139.49a83.55 83.55 0 0 1 -70.4 94.89l-6.48 1a83.54 83.54 0 0 1 -94.9-70.4l-12.36-83.48a8.54 8.54 0 0 0 -9.7-7.2l-.76.12a11 11 0 0 0 -9.31 12.58l12 80.95a103.91 103.91 0 0 0 118 87.56l6.48-1a103.91 103.91 0 0 0 87.56-118l-12.08-81.62a10.38 10.38 0 0 0 -11.79-8.75 10 10 0 0 0 -8.41 11.33z" fill="#00ccc1"/><circle cx="268.03" cy="263.9" fill="#ff8d93" r="33.25"/><g fill="#fff"><path d="m168.48 97.56a2.5 2.5 0 0 1 -.94-4.82c.48-.2 48.83-19.62 91.33-19.75a2.5 2.5 0 0 1 0 5c-41.55.12-89 19.19-89.47 19.38a2.39 2.39 0 0 1 -.92.19z"/><path d="m161.68 192.89a2.49 2.49 0 0 1 -2.26-1.45c-8.13-17.47-17.84-89.32-18.25-92.37a2.5 2.5 0 0 1 5-.67c.1.74 10 74.15 17.83 90.93a2.51 2.51 0 0 1 -1.21 3.33 2.63 2.63 0 0 1 -1.11.23z"/><path d="m242.75 270.14a2.5 2.5 0 0 1 -2.48-2.23 29.42 29.42 0 0 1 6.2-20.19c5.24-6.41 13.34-10.16 24.06-11.16a2.51 2.51 0 0 1 2.72 2.26 2.49 2.49 0 0 1 -2.26 2.72c-9.34.87-16.28 4-20.65 9.35a24.46 24.46 0 0 0 -5.1 16.48 2.49 2.49 0 0 1 -2.21 2.75z"/><path d="m188.68 172.22a2.5 2.5 0 0 1 -1-4.78 237.21 237.21 0 0 1 44.26-13.77 2.5 2.5 0 1 1 1 4.9 231.49 231.49 0 0 0 -43.24 13.43 2.62 2.62 0 0 1 -1.02.22z"/><path d="m334.16 204.72a2.48 2.48 0 0 1 -1.76-.72 2.51 2.51 0 0 1 0-3.54c25.54-25.81 11.26-84.36 11.11-84.95a2.5 2.5 0 1 1 4.85-1.22 169.38 169.38 0 0 1 4.26 34c.57 25.17-5 43.9-16.67 55.65a2.5 2.5 0 0 1 -1.79.78z"/><path d="m212.35 318.46a2.49 2.49 0 0 1 -2.44-2c-.27-1.29-6.3-31.64 8.69-38.67a2.5 2.5 0 0 1 2.12 4.53c-9.51 4.46-7.49 25.43-5.91 33.13a2.51 2.51 0 0 1 -1.95 3 2.21 2.21 0 0 1 -.51.01z"/><path d="m330.77 294.4a2.49 2.49 0 0 1 -2.47-2.13c-1.54-10.37-4.81-16.11-7.28-19.09-2.6-3.14-4.87-3.94-4.9-3.94a2.52 2.52 0 0 1 -1.59-3.14 2.49 2.49 0 0 1 3.08-1.64c.5.15 12.21 4 15.64 27.08a2.52 2.52 0 0 1 -2.11 2.84z"/><path d="m154.21 403.76a2.5 2.5 0 0 1 -2.46-2.05c-.14-.79-3.32-19.37 7.15-33.23 6.1-8.07 15.51-12.79 27.95-14a2.5 2.5 0 0 1 .49 5c-11 1.08-19.2 5.13-24.43 12-9.16 12.09-6.26 29.18-6.23 29.36a2.5 2.5 0 0 1 -2 2.89 2.12 2.12 0 0 1 -.47.03z"/><path d="m198.06 481.75a59.44 59.44 0 0 1 -13.41-1.46 2.5 2.5 0 0 1 1.27-4.84 55.4 55.4 0 0 0 18.69 1c12.91-1.64 21.83-8.15 26.51-19.34a2.5 2.5 0 1 1 4.61 1.92c-7.96 19.03-25.4 22.72-37.67 22.72z"/><path d="m336 366.74a2.56 2.56 0 0 1 -.39 0 2.51 2.51 0 0 1 -2.09-2.86c.06-.38 6.4-38.3 43.24-36a2.5 2.5 0 1 1 -.31 5c-13.5-.84-24 4.15-31.1 14.86a48 48 0 0 0 -6.89 16.91 2.5 2.5 0 0 1 -2.46 2.09z"/><path d="m403.46 447.49a2.5 2.5 0 0 1 -1.42-4.56c10.81-7.42 16.28-18.33 16.26-32.43a60.13 60.13 0 0 0 -3.42-19.5 2.5 2.5 0 0 1 4.64-1.84c.15.38 14.57 37.89-14.65 57.93a2.47 2.47 0 0 1 -1.41.4z"/><path d="m384.85 448.21c-4.5.67-2.8 7.55 1.69 6.88s2.8-7.55-1.69-6.88z"/><path d="m411.91 364.62c-4.5.67-2.8 7.55 1.69 6.89s2.8-7.51-1.69-6.89z"/><path d="m393.32 331.71c-4.51.67-2.81 7.55 1.68 6.88s2.8-7.59-1.68-6.88z"/><path d="m337.16 383.25c-4.51.66-2.81 7.54 1.68 6.88s2.8-7.55-1.68-6.88z"/><path d="m333.19 306.16c-4.5.66-2.8 7.54 1.69 6.88s2.8-7.55-1.69-6.88z"/><path d="m283.15 241.54c-4.51.67-2.81 7.55 1.68 6.89s2.81-7.55-1.68-6.89z"/><path d="m250.72 279.62c-4.51.66-2.81 7.55 1.68 6.88s2.8-7.5-1.68-6.88z"/><path d="m215 330.19c-4.51.66-2.8 7.54 1.68 6.88s2.8-7.55-1.68-6.88z"/><path d="m204.29 355.55c-4.51.67-2.8 7.55 1.68 6.89s2.81-7.55-1.68-6.89z"/><path d="m154.9 418.09c-4.5.67-2.8 7.55 1.69 6.89s2.8-7.55-1.69-6.89z"/><path d="m169 462c-4.51.67-2.8 7.55 1.68 6.89s2.76-7.58-1.68-6.89z"/><path d="m235.43 438.4c-4.51.67-2.8 7.55 1.68 6.89s2.81-7.55-1.68-6.89z"/><path d="m318.09 215.78c-4.51.67-2.8 7.55 1.68 6.89s2.81-7.55-1.68-6.89z"/><path d="m340.85 89.28c-4.51.66-2.8 7.55 1.68 6.88s2.81-7.55-1.68-6.88z"/><path d="m251.05 149.91c-4.51.67-2.8 7.55 1.68 6.89s2.81-7.55-1.68-6.89z"/><path d="m176.64 170.89c-4.51.66-2.8 7.54 1.68 6.88s2.81-7.55-1.68-6.88z"/><path d="m169.51 201.44c-4.51.67-2.81 7.55 1.68 6.88s2.81-7.54-1.68-6.88z"/><path d="m141.1 81.48c-4.51.67-2.8 7.55 1.68 6.89s2.81-7.55-1.68-6.89z"/><path d="m274.58 70.28c-4.5.67-2.8 7.55 1.68 6.89s2.81-7.55-1.68-6.89z"/></g></g></svg>