<svg height="512" viewBox="0 0 512 512" width="512" xmlns="http://www.w3.org/2000/svg"><g id="Eyelashes"><path d="m58.69 374.32-5.26-13.85a2.09 2.09 0 0 0 -4 .09l-4.59 14a2.11 2.11 0 0 1 -1.33 1.34l-9.51 3.16a2.1 2.1 0 0 0 0 4l9.83 3.51a2.09 2.09 0 0 1 1.17 1.28l5.27 15.91a2.09 2.09 0 0 0 4-.07l4.63-15.79a2.08 2.08 0 0 1 1.29-1.39l9.7-3.53a2.1 2.1 0 0 0 0-4l-9.89-3.43a2.06 2.06 0 0 1 -1.31-1.23z" fill="#ffb833"/><path d="m470 114-5.26-13.85a2.09 2.09 0 0 0 -3.95.09l-4.59 14a2.1 2.1 0 0 1 -1.33 1.33l-9.59 3.18a2.09 2.09 0 0 0 0 4l9.83 3.51a2.12 2.12 0 0 1 1.28 1.32l5.27 15.91a2.09 2.09 0 0 0 4-.07l4.59-15.79a2.13 2.13 0 0 1 1.29-1.39l9.71-3.53a2.1 2.1 0 0 0 0-4l-9.91-3.47a2.11 2.11 0 0 1 -1.34-1.24z" fill="#ffb833"/><path d="m216 87.31-6.5-17.21a2.61 2.61 0 0 0 -4.91.11l-5.7 17.38a2.61 2.61 0 0 1 -1.66 1.66l-11.91 4a2.6 2.6 0 0 0 -.06 4.92l12.22 4.37a2.6 2.6 0 0 1 1.59 1.63l6.55 19.78a2.61 2.61 0 0 0 5-.09l5.7-19.63a2.63 2.63 0 0 1 1.61-1.72l12.07-4.44a2.6 2.6 0 0 0 0-4.9l-12.32-4.32a2.63 2.63 0 0 1 -1.68-1.54z" fill="#ffb833"/><path d="m322 408.1-6.54-17.22a2.6 2.6 0 0 0 -4.91.12l-5.7 17.37a2.61 2.61 0 0 1 -1.66 1.66l-11.91 4a2.61 2.61 0 0 0 -.06 4.93l12.22 4.36a2.59 2.59 0 0 1 1.59 1.64l6.55 19.77a2.6 2.6 0 0 0 5-.09l5.7-19.62a2.59 2.59 0 0 1 1.61-1.72l12.06-4.39a2.61 2.61 0 0 0 0-4.91l-12.32-4.32a2.58 2.58 0 0 1 -1.63-1.58z" fill="#ffb833"/><rect fill="#ff8d93" height="230.71" rx="25.55" transform="matrix(.979 -.203 .203 .979 -47.91 58.92)" width="382.07" x="71.54" y="147.13"/><rect fill="#00ccc1" height="115.26" rx="19.48" transform="matrix(.979 -.203 .203 .979 -43.73 57.59)" width="314.5" x="100.96" y="183.82"/><path d="m323.66 240c-25.14 0-42.83-16.15-43.7-17a2.5 2.5 0 1 1 3.4-3.66c1 .89 23.72 21.67 53.83 13.89 26.92-6.94 37.67-31.21 38.81-34a2.5 2.5 0 0 1 4.62 1.92c-2 4.86-13.52 29.49-42.18 36.89a59.28 59.28 0 0 1 -14.78 1.96z" fill="#383333"/><path d="m284.93 224.75c-1 2.19-5.29 9.53-21 14.12a.57.57 0 0 0 .11 1.11c5.88.36 18.92-.26 26.77-11.36a.57.57 0 0 0 -.15-.81l-4.9-3.29a.57.57 0 0 0 -.83.23z" fill="#383333"/><path d="m298.1 232.37a27.43 27.43 0 0 1 -19.9 14.5.57.57 0 0 0 0 1.13 27.6 27.6 0 0 0 10.54-.82 28.76 28.76 0 0 0 15.93-11.79.56.56 0 0 0 -.25-.83l-5.6-2.45a.56.56 0 0 0 -.72.26z" fill="#383333"/><path d="m309 235.63a.56.56 0 0 0 -.68.49 22.54 22.54 0 0 1 -2.2 7.87 23.75 23.75 0 0 1 -10.32 10.36.56.56 0 0 0 .32 1.06 21.21 21.21 0 0 0 5.43-1.28c9.73-3.71 13.56-13.43 14.55-16.39a.57.57 0 0 0 -.43-.74z" fill="#383333"/><path d="m319.9 237a.58.58 0 0 0 -.58.64 22.27 22.27 0 0 1 -.58 7.78 24.22 24.22 0 0 1 -8.74 12.92.57.57 0 0 0 .55 1 24.59 24.59 0 0 0 16.37-21.54.57.57 0 0 0 -.56-.6z" fill="#383333"/><path d="m373.13 208.58c1.57 1.54 7.46 6.08 21.59 5a.57.57 0 0 1 .28 1.08c-4.93 2.2-15.66 5.55-25.52-1a.57.57 0 0 1 -.15-.8l2.94-4.21a.57.57 0 0 1 .86-.07z" fill="#383333"/><path d="m364.63 219.14a24.46 24.46 0 0 0 20.74 5.69.57.57 0 0 1 .38 1.07 24.55 24.55 0 0 1 -8.62 2.5 25.71 25.71 0 0 1 -17-4.62.57.57 0 0 1 -.07-.87l3.78-3.75a.56.56 0 0 1 .79-.02z" fill="#383333"/><path d="m355.51 226.56a.57.57 0 0 1 .81.22 20 20 0 0 0 4.31 5.74 20.89 20.89 0 0 0 11.52 5.22.57.57 0 0 1 .06 1.12 19.09 19.09 0 0 1 -4.56.59c-9.15.05-15.4-6.65-17.23-8.85a.56.56 0 0 1 .13-.84z" fill="#383333"/><path d="m343.86 233.25a.57.57 0 0 1 .75.41 21.12 21.12 0 0 0 2.76 6.67 22.46 22.46 0 0 0 11.23 8.77.57.57 0 0 1 -.23 1.1 22.83 22.83 0 0 1 -20.37-14.2.55.55 0 0 1 .34-.74z" fill="#383333"/><path d="m329.23 237.65a.56.56 0 0 0 -.42.73 47.37 47.37 0 0 1 2.29 20.08.56.56 0 0 0 1.08.28 40.93 40.93 0 0 0 3.2-21.81.57.57 0 0 0 -.69-.48z" fill="#383333"/><path d="m174.62 271c-24.08 0-40.49-14.55-43.85-17.79a2.5 2.5 0 0 1 3.47-3.6c2.14 2.07 21.66 20 49.13 15.69 30.7-4.86 43.32-33 43.84-34.19a2.5 2.5 0 0 1 4.58 2c-.57 1.3-14.27 31.84-47.64 37.13a61.08 61.08 0 0 1 -9.53.76z" fill="#383333"/><path d="m227.9 236.6c1.76 1.62 8.65 6.64 24.88 4.59a.57.57 0 0 1 .34 1.06c-5.25 2.67-17.46 7.3-29.08.24a.57.57 0 0 1 -.19-.8l3.19-5a.56.56 0 0 1 .86-.09z" fill="#383333"/><path d="m218.86 248.84a27.44 27.44 0 0 0 24 5.37.57.57 0 0 1 .44 1 27.42 27.42 0 0 1 -10 3.44 28.75 28.75 0 0 1 -19.3-4.42.57.57 0 0 1 -.1-.86l4.16-4.48a.56.56 0 0 1 .8-.05z" fill="#383333"/><path d="m210.17 256.16a.56.56 0 0 1 .82.19 22.59 22.59 0 0 0 5.15 6.34 23.68 23.68 0 0 0 13.59 5.38.57.57 0 0 1 .13 1.11 21.58 21.58 0 0 1 -5.49 1c-10.4.48-17.79-6.92-19.88-9.24a.57.57 0 0 1 .1-.84z" fill="#383333"/><path d="m200.7 261.78a.57.57 0 0 1 .79.34 22.71 22.71 0 0 0 3.63 6.91 24.21 24.21 0 0 0 13.17 8.36.57.57 0 0 1 -.11 1.12 24.6 24.6 0 0 1 -23.59-13.23.57.57 0 0 1 .27-.78z" fill="#383333"/><path d="m140.56 256.91c-.82 2-4.42 8.55-17.83 13.15a.57.57 0 0 0 .18 1.11c5.39.05 16.58-1.15 23-11a.57.57 0 0 0 -.18-.8l-4.37-2.69a.56.56 0 0 0 -.8.23z" fill="#383333"/><path d="m152.56 263.21a24.45 24.45 0 0 1 -16.75 13.49.57.57 0 0 0 .08 1.12 24.51 24.51 0 0 0 8.9-1.14 25.65 25.65 0 0 0 13.73-11 .58.58 0 0 0 -.28-.83l-5-1.93a.56.56 0 0 0 -.68.29z" fill="#383333"/><path d="m163.89 266.38a.57.57 0 0 0 -.66.52 20 20 0 0 1 -1.67 7 21 21 0 0 1 -8.48 9.38.57.57 0 0 0 .39 1.05 19.11 19.11 0 0 0 4.41-1.28c8.42-3.6 11.48-12.24 12.29-15a.57.57 0 0 0 -.46-.72z" fill="#383333"/><path d="m177.23 267.88a.57.57 0 0 0 -.52.67 21 21 0 0 1 .12 7.22 22.47 22.47 0 0 1 -6.8 12.52.56.56 0 0 0 .65.91 22.82 22.82 0 0 0 13-21.15.56.56 0 0 0 -.6-.56z" fill="#383333"/><path d="m192.41 266.08a.56.56 0 0 1 .67.51 47.88 47.88 0 0 0 5.9 19.32.57.57 0 0 1 -.88.7 40.8 40.8 0 0 1 -11.62-18.74.57.57 0 0 1 .44-.71z" fill="#383333"/><rect fill="#ff535c" height="6.89" rx="3.29" transform="matrix(.979 -.203 .203 .979 -29.55 53.09)" width="78.86" x="203.98" y="166.8"/><path d="m275.77 323.94a11.7 11.7 0 0 0 -10.91-7.23 10.69 10.69 0 0 0 -7.65 3.91c-3.27 4.38-1.35 10.3-.55 12.79 4.28 13.19 21.61 17.79 24.31 18.47 4.62-3.65 15.13-13 15.93-26.22.19-3.14.57-9.56-3.47-12.26-3.59-2.4-8.9-.66-11.92 1.41a14.32 14.32 0 0 0 -5.74 9.13z" fill="#ff535c"/><circle cx="236.8" cy="341.74" fill="#ff535c" r="7.94"/><circle cx="317.8" cy="324.91" fill="#ff535c" r="7.94"/><g fill="#fff"><path d="m82 263.94a2.51 2.51 0 0 1 -2.45-2l-9.55-45.94a18.11 18.11 0 0 1 14-21.39l48.12-10a2.5 2.5 0 0 1 1 4.9l-48.13 10a13.11 13.11 0 0 0 -10.06 15.49l9.55 45.92a2.5 2.5 0 0 1 -1.94 2.95 2.29 2.29 0 0 1 -.54.07z"/><path d="m121 396.66a16.59 16.59 0 0 1 -16.2-13.21l-9.29-44.72a2.5 2.5 0 1 1 4.89-1l9.3 44.72a11.56 11.56 0 0 0 13.69 9l39.09-8.12a2.5 2.5 0 1 1 1 4.89l-39.1 8.13a17.06 17.06 0 0 1 -3.38.31z"/><path d="m428.62 191.91a2.51 2.51 0 0 1 -2.45-2l-9.54-45.91a13.08 13.08 0 0 0 -15.47-10.15l-48.13 10a2.5 2.5 0 0 1 -1-4.9l48.13-10a18.06 18.06 0 0 1 21.38 14l9.55 45.91a2.51 2.51 0 0 1 -1.94 3 2.94 2.94 0 0 1 -.53.05z"/><path d="m403.85 338.19a2.5 2.5 0 0 1 -.5-4.95l39.09-8.13a11.56 11.56 0 0 0 9-13.68l-9.29-44.73a2.5 2.5 0 1 1 4.89-1l9.3 44.72a16.58 16.58 0 0 1 -12.88 19.58l-39.1 8.12a2.22 2.22 0 0 1 -.51.07z"/><path d="m109.51 263.47a2.51 2.51 0 0 1 -2.45-2l-5.37-25.84a15.45 15.45 0 0 1 12-18.25l39.65-8.24a2.5 2.5 0 0 1 1 4.9l-39.64 8.24a10.43 10.43 0 0 0 -8.09 12.33l5.39 25.85a2.5 2.5 0 0 1 -1.94 3 2.22 2.22 0 0 1 -.55.01z"/><path d="m381.51 267.91a2.5 2.5 0 0 1 -.5-5l22.84-4.75a8.75 8.75 0 0 0 6.78-10.34l-5.63-27.28a2.5 2.5 0 1 1 4.89-1l5.68 27.33a13.77 13.77 0 0 1 -10.66 16.25l-22.91 4.73a2.37 2.37 0 0 1 -.49.06z"/><path d="m158.6 314.23a2.5 2.5 0 0 1 -.51-5l54-11.23a2.5 2.5 0 1 1 1 4.9l-54 11.23a2.94 2.94 0 0 1 -.49.1z"/><path d="m247.94 194.54a2.5 2.5 0 0 1 -.51-4.95l70.67-14.68a2.5 2.5 0 1 1 1 4.89l-70.67 14.69a2.21 2.21 0 0 1 -.49.05z"/><path d="m330.7 171.79c-3.77.79-2 6.52 1.76 5.74s2.01-6.53-1.76-5.74z"/><path d="m232.71 191.57c-3.78.78-2 6.52 1.76 5.74s2-6.52-1.76-5.74z"/><path d="m167.24 206.93c-3.77.79-2 6.52 1.76 5.74s2-6.52-1.76-5.74z"/><path d="m111.5 271.92c-3.77.78-2 6.52 1.76 5.74s2-6.52-1.76-5.74z"/><path d="m140.87 311.59c-3.77.78-2 6.52 1.76 5.73s2-6.51-1.76-5.73z"/><path d="m228.41 295.16c-3.77.78-2 6.51 1.76 5.73s2.01-6.52-1.76-5.73z"/><path d="m361.73 267.45c-3.77.79-2 6.52 1.76 5.74s2-6.52-1.76-5.74z"/><path d="m402.59 201.45c-3.77.79-2 6.52 1.76 5.74s2-6.52-1.76-5.74z"/><path d="m330.27 144.3c-3.77.79-2 6.52 1.76 5.74s1.97-6.52-1.76-5.74z"/><path d="m432.92 203.36c-3.78.79-2 6.52 1.76 5.74s2-6.52-1.76-5.74z"/><path d="m437.37 241.76c-3.77.78-2 6.51 1.76 5.73s2.01-6.49-1.76-5.73z"/><path d="m379.74 340c-3.77.79-2 6.52 1.76 5.74s2-6.53-1.76-5.74z"/><path d="m183.07 379.1c-3.78.79-2 6.52 1.76 5.74s2-6.52-1.76-5.74z"/><path d="m91.19 312.52c-3.78.79-2 6.52 1.76 5.74s2.05-6.52-1.76-5.74z"/><path d="m83.71 276.52c-3.78.79-2 6.52 1.75 5.74s2.01-6.52-1.75-5.74z"/><path d="m151.6 179.67c-3.77.79-2 6.52 1.76 5.74s2-6.52-1.76-5.74z"/></g></g></svg>