<svg height="512" viewBox="0 0 512 512" width="512" xmlns="http://www.w3.org/2000/svg" xmlns:xlink="http://www.w3.org/1999/xlink"><clipPath id="clip-path"><rect height="188.4" rx="18.32" transform="matrix(.978 -.207 .207 .978 -27.06 50.54)" width="195.73" x="129.65" y="60.11"/></clipPath><g id="Eyeshadow"><path d="m109.25 348.17 5-13a2 2 0 0 1 3.72.08l4.32 13.17a2 2 0 0 0 1.26 1.26l9 3a2 2 0 0 1 0 3.73l-9.26 3.31a2 2 0 0 0 -1.21 1.24l-5 15a2 2 0 0 1 -3.77-.07l-4.25-14.89a2 2 0 0 0 -1.22-1.3l-9.14-3.33a2 2 0 0 1 0-3.72l9.34-3.27a2 2 0 0 0 1.21-1.21z" fill="#ffb833"/><path d="m359 85.71 5-13a2 2 0 0 1 3.72.08l4.28 13.13a2 2 0 0 0 1.25 1.25l9 3a2 2 0 0 1 0 3.73l-9.26 3.31a2 2 0 0 0 -1.21 1.24l-5 15a2 2 0 0 1 -3.77-.07l-4.21-14.89a2 2 0 0 0 -1.22-1.3l-9.14-3.33a2 2 0 0 1 0-3.72l9.34-3.27a2 2 0 0 0 1.22-1.16z" fill="#ffb833"/><path d="m72.35 183.16 6.16-16.22a2.45 2.45 0 0 1 4.62.11l5.38 16.37a2.43 2.43 0 0 0 1.55 1.58l11.23 3.72a2.45 2.45 0 0 1 0 4.64l-11.51 4.11a2.47 2.47 0 0 0 -1.5 1.54l-6.17 18.63a2.45 2.45 0 0 1 -4.68-.08l-5.37-18.49a2.46 2.46 0 0 0 -1.52-1.62l-11.36-4.14a2.46 2.46 0 0 1 0-4.62l11.61-4.07a2.48 2.48 0 0 0 1.56-1.46z" fill="#ffb833"/><path d="m391.26 166.21h24.47v184.65h-24.47z" fill="#ff8d93" transform="matrix(.977 -.215 .215 .977 -46.08 92.62)"/><ellipse cx="380.77" cy="155.09" fill="#ffdb99" rx="24.18" ry="30.23" transform="matrix(.977 -.215 .215 .977 -24.41 85.33)"/><ellipse cx="425.55" cy="358.91" fill="#ffdb99" rx="24.18" ry="30.23" transform="matrix(.977 -.215 .215 .977 -67.11 99.7)"/><path d="m411.21 373.28a2.5 2.5 0 0 1 -2.34-1.61 52.4 52.4 0 0 1 -2.93-14.51c-.52-10.72 3.27-18.36 11-22.1a2.5 2.5 0 1 1 2.18 4.5c-14.16 6.89-5.62 30.11-5.53 30.34a2.51 2.51 0 0 1 -1.46 3.22 2.48 2.48 0 0 1 -.92.16z" fill="#fff"/><path d="m407.47 292a2.52 2.52 0 0 1 -2.44-2l-18.13-82.54a2.5 2.5 0 1 1 4.88-1.07l18.14 82.53a2.51 2.51 0 0 1 -1.91 3 2.48 2.48 0 0 1 -.54.08z" fill="#fff"/><path d="m362 156.86a2.49 2.49 0 0 1 -2.5-2.46c-.13-8.18 3.6-24.27 18.67-26.69a2.5 2.5 0 1 1 .79 4.94c-6 1-10.25 4.78-12.62 11.35a32.89 32.89 0 0 0 -1.84 10.32 2.52 2.52 0 0 1 -2.47 2.54z" fill="#fff"/><path d="m388.5 132.57c-4.31 1-2.21 7.49 2.09 6.55s2.2-7.49-2.09-6.55z" fill="#fff"/><path d="m369.49 164c-4.31.95-2.21 7.49 2.09 6.54s2.2-7.46-2.09-6.54z" fill="#fff"/><path d="m386.44 190.59c-4.32.95-2.21 7.49 2.08 6.55s2.21-7.49-2.08-6.55z" fill="#fff"/><path d="m409.71 302.64c-4.31.94-2.21 7.48 2.09 6.54s2.2-7.49-2.09-6.54z" fill="#fff"/><path d="m428 333.64c-4.31.94-2.21 7.48 2.09 6.54s2.17-7.49-2.09-6.54z" fill="#fff"/><path d="m419.67 375.52c-4.32 1-2.21 7.49 2.08 6.55s2.25-7.49-2.08-6.55z" fill="#fff"/><rect fill="#ff8d93" height="212.58" rx="27.66" transform="matrix(.978 -.207 .207 .978 -27.06 50.54)" width="219.91" x="117.56" y="48.02"/><rect fill="#ff535c" height="212.58" rx="27.66" transform="matrix(.978 -.207 .207 .978 -68.7 64.03)" width="219.91" x="161.1" y="253.4"/><g clip-path="url(#clip-path)"><rect fill="#00ccc1" height="188.4" rx="18.32" transform="matrix(.978 -.207 .207 .978 -27.06 50.54)" width="195.73" x="129.65" y="60.11"/><g fill="#aaeeea"><path d="m289.57 10.09-176.66 253.34 12 8.93 176.3-242.33z"/><path d="m329.36 44.45-182.23 234.61 16.17 8.06 169.26-221.97z"/></g></g><rect fill="#ff8d93" height="190.6" rx="19.42" transform="matrix(.978 -.207 .207 .978 -68.7 64.03)" width="197.93" x="172.09" y="264.39"/><rect fill="#ffdb99" height="63.7" rx="11.67" transform="matrix(.978 -.207 .207 .978 -65.13 53.5)" width="62.29" x="191.46" y="305.55"/><rect fill="#ff1a26" height="63.7" rx="11.67" transform="matrix(.978 -.207 .207 .978 -59.76 70.08)" width="62.29" x="273.19" y="288.22"/><rect fill="#ff1a26" height="63.7" rx="11.67" transform="matrix(.978 -.207 .207 .978 -80.54 58.5)" width="62.29" x="207.57" y="381.55"/><rect fill="#ffdb99" height="63.7" rx="11.67" transform="matrix(.978 -.207 .207 .978 -75.17 75.07)" width="62.29" x="289.3" y="364.22"/><g fill="#fff"><path d="m121.58 129a2.48 2.48 0 0 1 -2.44-2l-5.28-24.87a18.06 18.06 0 0 1 13.92-21.41l27.72-5.87a2.5 2.5 0 0 1 1 4.89l-27.72 5.87a13.07 13.07 0 0 0 -10.07 15.48l5.29 24.91a2.52 2.52 0 0 1 -1.93 3 3.15 3.15 0 0 1 -.49 0z"/><path d="m142.82 229.19a2.5 2.5 0 0 1 -2.44-2l-11-52.08a2.5 2.5 0 1 1 4.89-1l11 52.08a2.5 2.5 0 0 1 -1.93 3 2.31 2.31 0 0 1 -.52 0z"/><path d="m331 173.16a2.5 2.5 0 0 1 -2.44-2l-20.3-95.84a2.5 2.5 0 0 1 4.89-1l20.32 95.86a2.5 2.5 0 0 1 -1.93 3 2.31 2.31 0 0 1 -.54-.02z"/><path d="m164.91 333.41a2.51 2.51 0 0 1 -2.44-2l-4.47-20.89a19.74 19.74 0 0 1 15.23-23.42l37-7.85a2.5 2.5 0 1 1 1 4.89l-37 7.85a14.75 14.75 0 0 0 -11.37 17.49l4.43 20.91a2.49 2.49 0 0 1 -1.92 3 2.39 2.39 0 0 1 -.46.02z"/><path d="m186.74 436.34a2.51 2.51 0 0 1 -2.45-2l-10.68-50.34a2.5 2.5 0 1 1 4.89-1l10.68 50.4a2.49 2.49 0 0 1 -1.92 3 2.37 2.37 0 0 1 -.52-.06z"/><path d="m254.1 463.2a2.5 2.5 0 0 1 -.52-4.95l69.48-14.73a2.5 2.5 0 0 1 1 4.9l-69.48 14.73a3.05 3.05 0 0 1 -.48.05z"/><path d="m378.47 391.66a2.51 2.51 0 0 1 -2.45-2l-21-99.07a2.5 2.5 0 1 1 4.89-1l21 99.07a2.49 2.49 0 0 1 -1.92 3 2.37 2.37 0 0 1 -.52 0z"/><path d="m197.64 339.58a2.51 2.51 0 0 1 -2.44-2l-2.39-11.26a11.38 11.38 0 0 1 8.77-13.49l18-3.82a2.5 2.5 0 1 1 1 4.89l-18 3.82a6.27 6.27 0 0 0 -4 2.76 6.35 6.35 0 0 0 -.9 4.8l2.39 11.26a2.49 2.49 0 0 1 -1.93 3 2.31 2.31 0 0 1 -.5.04z"/><path d="m213.58 414.74a2.51 2.51 0 0 1 -2.45-2l-2.38-11.25a11.38 11.38 0 0 1 8.77-13.5l18-3.81a2.5 2.5 0 0 1 1 4.89l-18 3.82a6.37 6.37 0 0 0 -4.91 7.56l2.39 11.27a2.49 2.49 0 0 1 -1.92 3 2.37 2.37 0 0 1 -.5.02z"/><path d="m278.48 319.75a2.5 2.5 0 0 1 -2.45-2l-2.38-11.26a11.38 11.38 0 0 1 8.77-13.49l18-3.82a2.5 2.5 0 1 1 1 4.89l-18 3.82a6.38 6.38 0 0 0 -4.92 7.56l2.39 11.26a2.52 2.52 0 0 1 -1.93 3 3.15 3.15 0 0 1 -.48.04z"/><path d="m295 397.48a2.5 2.5 0 0 1 -2.45-2l-2.38-11.26a11.39 11.39 0 0 1 8.77-13.49l18-3.82a2.5 2.5 0 0 1 1 4.9l-18 3.81a6.39 6.39 0 0 0 -4.91 7.57l2.38 11.25a2.5 2.5 0 0 1 -1.92 3 2.35 2.35 0 0 1 -.49.04z"/><path d="m353.73 272.6c-4.32.91-2.26 7.46 2 6.55s2.27-7.47-2-6.55z"/><path d="m382.37 407.69c-4.32.92-2.26 7.47 2 6.56s2.3-7.47-2-6.56z"/><path d="m340.87 438.67c-4.32.92-2.26 7.47 2 6.56s2.3-7.47-2-6.56z"/><path d="m239 460.61c-4.32.92-2.26 7.47 2 6.56s2.27-7.47-2-6.56z"/><path d="m298.8 408.27c-4.32.91-2.27 7.47 2 6.56s2.3-7.47-2-6.56z"/><path d="m329.64 365.09c-4.32.92-2.26 7.47 2 6.56s2.3-7.47-2-6.56z"/><path d="m217.28 424.88c-4.32.91-2.26 7.47 2 6.55s2.3-7.43-2-6.55z"/><path d="m187.93 446.56c-4.32.92-2.26 7.47 2 6.56s2.3-7.47-2-6.56z"/><path d="m246.47 383.4c-4.32.91-2.26 7.47 2 6.55s2.3-7.46-2-6.55z"/><path d="m170.14 357.9c-4.32.91-2.26 7.47 2 6.56s2.3-7.46-2-6.56z"/><path d="m199.63 348c-4.32.92-2.27 7.47 2 6.56s2.3-7.56-2-6.56z"/><path d="m233.59 306.8c-4.32.92-2.26 7.47 2 6.56s2.3-7.47-2-6.56z"/><path d="m283.22 326.87c-4.32.91-2.26 7.47 2 6.56s2.3-7.43-2-6.56z"/><path d="m313.21 287.57c-4.32.92-2.27 7.47 2 6.56s2.3-7.47-2-6.56z"/><path d="m228.77 274.55c-4.32.92-2.26 7.47 2 6.56s2.3-7.47-2-6.56z"/><path d="m145.25 240.49c-4.32.92-2.26 7.47 2 6.56s2.3-7.47-2-6.56z"/><path d="m123.78 145.55c-4.32.92-2.26 7.47 2 6.56s2.3-7.47-2-6.56z"/><path d="m175.66 70c-4.32.92-2.26 7.47 2 6.56s2.34-7.45-2-6.56z"/><path d="m304.21 54.87c-4.32.92-2.26 7.47 2 6.56s2.3-7.43-2-6.56z"/><path d="m334.13 189.69c-4.31.92-2.26 7.47 2 6.56s2.31-7.47-2-6.56z"/></g></g></svg>