<svg xmlns="http://www.w3.org/2000/svg" xmlns:xlink="http://www.w3.org/1999/xlink" id="Foundation_1_" width="512" height="512" x="0" y="0" version="1.1" viewBox="0 0 512 512" style="enable-background:new 0 0 512 512" xml:space="preserve"><style type="text/css">.st0{fill:#ff8d93}.st1{fill:#ff535c}.st2{fill:#ffdb99}.st3{fill:#ffb833}.st4{fill:#fff}.st5{clip-path:url(#SVGID_2_)}.st6{fill:#ffb08d}</style><g id="Foundation"><path d="M144.1,31h43.4l0,0v100.6l0,0h-71.1l0,0v-73C116.5,43.4,128.9,31,144.1,31z" class="st0"/><path d="M160.3,31h53.8c4.5,0,8.1,3.6,8.1,8.1V48c0,4.5-3.6,8.1-8.1,8.1h-53.8c-4.5,0-8.1-3.6-8.1-8.1v-8.9 C152.2,34.6,155.8,31,160.3,31z" class="st0"/><path d="M109,85.7h86.4c5.2,0,9.3,4.2,9.3,9.3v65c0,5.2-4.2,9.3-9.3,9.3H109c-5.2,0-9.3-4.2-9.3-9.3V95 C99.7,89.9,103.8,85.7,109,85.7z" class="st1"/><path d="M79.5,154.5h145.4c18.8,0,34.1,15.2,34.1,34.1v226.6c0,18.8-15.2,34.1-34.1,34.1H79.5 c-18.8,0-34.1-15.2-34.1-34.1V188.6C45.4,169.8,60.7,154.5,79.5,154.5z" class="st0"/><path d="M57.8,432.6h188.9c6.8,0,12.3,5.5,12.3,12.3v23.7c0,6.8-5.5,12.3-12.3,12.3H57.8c-6.8,0-12.3-5.5-12.3-12.3 V445C45.4,438.2,50.9,432.6,57.8,432.6z" class="st1"/><ellipse cx="150.4" cy="301.9" class="st2" rx="82.7" ry="115.5"/><path d="M108.6,328h83.7c1.3,0,2.3,1,2.3,2.3v1.2c0,1.3-1,2.3-2.3,2.3h-83.7c-1.3,0-2.3-1-2.3-2.3v-1.2 C106.3,329,107.3,328,108.6,328z" class="st3"/><path d="M108.6,349h83.7c1.3,0,2.3,1,2.3,2.3v1.2c0,1.3-1,2.3-2.3,2.3h-83.7c-1.3,0-2.3-1-2.3-2.3v-1.2 C106.3,350,107.3,349,108.6,349z" class="st3"/><path d="M134.4,242.3h32c7.9,0,14.3,6.4,14.3,14.3v31c0,7.9-6.4,14.3-14.3,14.3h-32c-7.9,0-14.3-6.4-14.3-14.3v-31 C120.1,248.7,126.5,242.3,134.4,242.3z" class="st3"/><path d="M131.7,70.1c-1.4,0-2.5-1.1-2.5-2.5c0,0,0,0,0,0v-6.3c0-11.2,9.1-20.2,20.2-20.2h19.6c1.4,0,2.5,1.1,2.5,2.5 s-1.1,2.5-2.5,2.5h-19.6c-8.4,0-15.2,6.8-15.2,15.2v6.3C134.2,69,133.1,70.1,131.7,70.1z" class="st4"/><path d="M107.4,134.2c-1.4,0-2.5-1.1-2.5-2.5v-28.1c0-1.4,1.1-2.5,2.5-2.5s2.5,1.1,2.5,2.5v28.1 C109.9,133,108.8,134.2,107.4,134.2z" class="st4"/><path d="M58.2,223.7c-1.4,0-2.5-1.1-2.5-2.5v-31.9c0-14.2,11.5-25.7,25.7-25.7h47.1c1.4,0,2.5,1.1,2.5,2.5 s-1.1,2.5-2.5,2.5H81.4c-11.4,0-20.7,9.3-20.7,20.7v31.9C60.7,222.6,59.6,223.7,58.2,223.7z" class="st4"/><path d="M54.5,389.9c-1.4,0-2.5-1.1-2.5-2.5v-79.9c0-1.4,1.1-2.5,2.5-2.5s2.5,1.1,2.5,2.5v79.9 C57,388.8,55.9,389.9,54.5,389.9z" class="st4"/><path d="M54.5,465.4c-1.4,0-2.5-1.1-2.5-2.5v-10.1c0-7.5,6.1-13.5,13.5-13.5h48.9c1.4,0,2.5,1.1,2.5,2.5 c0,1.4-1.1,2.5-2.5,2.5H65.5c-4.7,0-8.5,3.8-8.5,8.5v10.1C57,464.3,55.9,465.4,54.5,465.4z" class="st4"/><path d="M249.2,389.9c-1.4,0-2.5-1.1-2.5-2.5V226.8c0-1.4,1.1-2.5,2.5-2.5s2.5,1.1,2.5,2.5v160.6 C251.7,388.8,250.5,389.9,249.2,389.9C249.2,389.9,249.2,389.9,249.2,389.9z" class="st4"/><path d="M238.5,472.8h-16.7c-1.4,0-2.5-1.1-2.5-2.5c0-1.4,1.1-2.5,2.5-2.5h16.7c4.5,0,8.1-3.6,8.1-8.1v-8.5 c0-1.4,1.1-2.5,2.5-2.5s2.5,1.1,2.5,2.5v8.5C251.6,466.9,245.8,472.8,238.5,472.8z" class="st4"/><path d="M188.4,40.7c-5,0-4.2,7.7,0.7,7.7S193.3,40.7,188.4,40.7z" class="st4"/><path d="M132.3,77.3c-5,0-4.2,7.7,0.7,7.7S137.3,77.3,132.3,77.3z" class="st4"/><path d="M108.2,140c-5,0-4.2,7.7,0.7,7.7S113.1,140,108.2,140z" class="st4"/><path d="M147.6,162c-5,0-4.2,7.7,0.7,7.7S152.5,162,147.6,162z" class="st4"/><path d="M58.2,241.6c-5,0-4.2,7.7,0.7,7.7S63.2,241.6,58.2,241.6z" class="st4"/><path d="M56.8,280.2c-5,0-4.2,7.7,0.7,7.7S61.8,280.2,56.8,280.2z" class="st4"/><path d="M56.8,405.1c-5,0-4.2,7.7,0.7,7.7S61.8,405.1,56.8,405.1z" class="st4"/><path d="M134,439.2c-5,0-4.2,7.7,0.7,7.7S138.9,439.2,134,439.2z" class="st4"/><path d="M195.3,468.6c-5,0-4.2,7.7,0.7,7.7S200.3,468.6,195.3,468.6z" class="st4"/><path d="M241.1,436.5c-5,0-4.2,7.7,0.7,7.7S246.1,436.5,241.1,436.5z" class="st4"/><path d="M249.7,406.5c-5,0-4.2,7.7,0.7,7.7S254.7,406.5,249.7,406.5z" class="st4"/><path d="M65.4,470c-5,0-4.2,7.7,0.7,7.7S70.4,470,65.4,470z" class="st4"/><path d="M247,197.8c-5,0-4.2,7.7,0.7,7.7S251.9,197.8,247,197.8z" class="st4"/><path d="M197.1,145c-1.4,0-2.5-1.1-2.5-2.5c0,0,0,0,0,0v-25c0-1.4,1.1-2.5,2.5-2.5s2.5,1.1,2.5,2.5v25 C199.6,143.9,198.5,145,197.1,145C197.1,145,197.1,145,197.1,145z" class="st4"/><path d="M193.9,94.2c-5,0-4.2,7.7,0.7,7.7S198.9,94.2,193.9,94.2z" class="st4"/><g><defs><path id="SVGID_1_" d="M464.7,296.2C458,321.3,433.4,341,411,350c-3.5,1.4-42.3,16.5-71.4,0.2c-56.8-31.7-48.4-167.5-4.1-186.1 C379.4,145.8,481.6,232.5,464.7,296.2z"/></defs><clipPath id="SVGID_2_"><use xlink:href="#SVGID_1_" style="overflow:visible"/></clipPath><g class="st5"><path d="M464.7,296.2C458,321.3,433.4,341,411,350c-3.5,1.4-42.3,16.5-71.4,0.2c-56.8-31.7-48.4-167.5-4.1-186.1 C379.4,145.8,481.6,232.5,464.7,296.2z" class="st6"/><path d="M309.5,184.8c0,0-25.5,71.9-12.3,85.7c13.2,13.8,20.5-12.3,29.1-11.8s3.8,32,18,34.6s3.7-59.8,9.8-65.3 s18.7-2.2,17.3-16.4s5.7-22.3,18.9-14.5s19.9-1.8,19.5-8.9s-49-35.4-72-30S309.5,184.8,309.5,184.8z" class="st2"/></g></g><path d="M306.4,237.6c-0.2,0-0.3,0-0.5,0c-1.4-0.3-2.3-1.6-2-2.9c0,0,0,0,0,0c0.5-2.7,12.9-66.8,42.9-66.8h0.3 c1.4,0,2.5,1.1,2.5,2.5s-1.1,2.5-2.5,2.5h-0.3c-13.2,0-22.7,16.6-28.4,30.6c-4.1,10.4-7.3,21.2-9.6,32.1 C308.7,236.8,307.6,237.6,306.4,237.6z" class="st4"/><path d="M374.3,350.9c-9.4,0-18.6-2.6-26.6-7.6c-8.1-5-14.9-11.9-19.8-20.1c-0.6-1.2-0.2-2.7,1-3.4 c1.2-0.6,2.7-0.2,3.3,1c4.6,7.4,10.8,13.7,18.2,18.3c16,9.7,34.5,9,55-2.2c1.2-0.7,2.7-0.3,3.4,0.9c0.7,1.2,0.3,2.7-0.9,3.4 c0,0-0.1,0-0.1,0.1C398.8,346.4,387,350.9,374.3,350.9z" class="st4"/><path d="M456.1,275.7c-1.4,0-2.5-1.1-2.5-2.5c0-9-14.1-33.6-19.6-42.3c-0.7-1.2-0.4-2.7,0.8-3.4 c1.2-0.7,2.7-0.4,3.5,0.8c0,0.1,5.1,8.2,10.1,17.6c6.8,12.9,10.3,22.1,10.3,27.4C458.6,274.6,457.5,275.7,456.1,275.7z" class="st4"/><path d="M454.6,291.6c-5,0-4.2,7.7,0.7,7.7S459.6,291.6,454.6,291.6z" class="st4"/><path d="M419.1,208.9c-5,0-4.2,7.7,0.7,7.7S424.1,208.9,419.1,208.9z" class="st4"/><path d="M365.3,168.9c-5,0-4.2,7.7,0.7,7.7S370.2,168.9,365.3,168.9z" class="st4"/><path d="M308.1,252.2c-5,0-4.2,7.7,0.7,7.7S313,252.2,308.1,252.2z" class="st4"/><path d="M322,301.6c-5,0-4.2,7.7,0.7,7.7S326.9,301.6,322,301.6z" class="st4"/><path d="M422.4,326.5c-5,0-4.2,7.7,0.7,7.7S427.4,326.5,422.4,326.5z" class="st4"/></g><path d="M350.1,411l-5.6-14.7c-0.4-1.1-1.7-1.7-2.9-1.3c-0.6,0.2-1.1,0.7-1.3,1.4l-4.9,14.8c-0.2,0.7-0.7,1.2-1.4,1.4 l-10.2,3.4c-1.2,0.4-1.8,1.6-1.4,2.8c0.2,0.7,0.7,1.2,1.4,1.4l10.4,3.7c0.6,0.2,1.1,0.7,1.4,1.4l5.6,16.9c0.4,1.2,1.6,1.8,2.8,1.4 c0.7-0.2,1.2-0.8,1.4-1.5l4.9-16.8c0.2-0.7,0.7-1.2,1.4-1.4l10.3-3.8c1.2-0.4,1.8-1.7,1.3-2.8c-0.2-0.6-0.7-1.1-1.3-1.3l-10.5-3.7 C350.8,412.2,350.3,411.7,350.1,411z" class="st3"/><path d="M446.8,92.7L441.2,78c-0.4-1.1-1.7-1.7-2.9-1.3c-0.6,0.2-1.1,0.8-1.3,1.4L432.1,93c-0.2,0.7-0.8,1.2-1.4,1.4 l-10.2,3.4c-1.2,0.4-1.8,1.7-1.4,2.8c0.2,0.6,0.7,1.2,1.4,1.4l10.4,3.7c0.6,0.2,1.1,0.7,1.4,1.4l5.6,16.9c0.4,1.2,1.6,1.8,2.8,1.4 c0.7-0.2,1.2-0.8,1.4-1.5l4.9-16.8c0.2-0.7,0.7-1.2,1.4-1.5l10.3-3.8c1.2-0.4,1.8-1.7,1.3-2.8c-0.2-0.6-0.7-1.1-1.3-1.3L448.1,94 C447.5,93.8,447,93.3,446.8,92.7z" class="st3"/><path d="M275.1,96.9l-6.9-18.2c-0.5-1.4-2.1-2.1-3.6-1.6c-0.8,0.3-1.4,0.9-1.6,1.7l-6,18.4c-0.3,0.8-0.9,1.5-1.8,1.8 l-12.7,4.2c-1.4,0.5-2.2,2-1.8,3.5c0.3,0.8,0.9,1.4,1.7,1.7l13,4.6c0.8,0.3,1.4,0.9,1.7,1.7l6.9,21c0.5,1.4,2,2.2,3.5,1.8 c0.9-0.3,1.5-1,1.8-1.8l6.1-20.9c0.2-0.8,0.9-1.5,1.7-1.8l12.8-4.7c1.4-0.5,2.2-2.1,1.7-3.5c-0.3-0.8-0.9-1.4-1.7-1.7l-13.1-4.6 C276,98.2,275.4,97.6,275.1,96.9z" class="st3"/></svg>