<svg height="512" viewBox="0 0 512 512" width="512" xmlns="http://www.w3.org/2000/svg"><g id="Hair_Comb" data-name="Hair Comb"><path d="m101.43 143.44 5.57-14.56a2.2 2.2 0 0 1 4.15.09l4.82 14.7a2.21 2.21 0 0 0 1.4 1.41l10.08 3.34a2.2 2.2 0 0 1 0 4.16l-10.33 3.7a2.16 2.16 0 0 0 -1.35 1.38l-5.54 16.73a2.21 2.21 0 0 1 -4.21-.08l-4.82-16.6a2.21 2.21 0 0 0 -1.36-1.45l-10.2-3.72a2.2 2.2 0 0 1 0-4.15l10.42-3.66a2.15 2.15 0 0 0 1.37-1.29z" fill="#ffb833"/><path d="m81.07 413.76 5.53-14.56a2.21 2.21 0 0 1 4.16.09l4.82 14.71a2.21 2.21 0 0 0 1.42 1.4l10.08 3.34a2.21 2.21 0 0 1 0 4.17l-10.31 3.69a2.25 2.25 0 0 0 -1.35 1.4l-5.54 16.73a2.2 2.2 0 0 1 -4.2-.07l-4.83-16.66a2.19 2.19 0 0 0 -1.36-1.45l-10.2-3.72a2.2 2.2 0 0 1 0-4.15l10.42-3.65a2.22 2.22 0 0 0 1.36-1.27z" fill="#ffb833"/><path d="m342.37 121.93 6.88-18.1a2.74 2.74 0 0 1 5.16.12l6 18.27a2.74 2.74 0 0 0 1.74 1.74l12.53 4.16a2.73 2.73 0 0 1 .06 5.17l-12.84 4.59a2.71 2.71 0 0 0 -1.68 1.72l-6.89 20.79a2.73 2.73 0 0 1 -5.22-.1l-6-20.63a2.75 2.75 0 0 0 -1.69-1.81l-12.67-4.61a2.74 2.74 0 0 1 0-5.16l13-4.54a2.74 2.74 0 0 0 1.62-1.61z" fill="#ffb833"/><path d="m264.77 274.93a34.15 34.15 0 0 1 -41.77-19.77l-68-167.49a34.16 34.16 0 0 1 21.54-45.48l29.39-9.11a34.15 34.15 0 0 1 43.48 25.33l38.59 176.59a34.16 34.16 0 0 1 -23.23 39.93z" fill="#ff8d93"/><rect fill="#00ccc1" height="177.42" rx="8.33" transform="matrix(.937 -.349 .349 .937 -122.26 93.45)" width="19.16" x="188.89" y="297.64"/><rect fill="#00ccc1" height="177.42" rx="8.33" transform="matrix(.955 -.296 .296 .955 -100.69 85.99)" width="19.16" x="223.99" y="286.76"/><rect fill="#00ccc1" height="177.42" rx="8.33" transform="matrix(.955 -.296 .296 .955 -95.6 96.51)" width="19.16" x="261.29" y="275.2"/><rect fill="#00ccc1" height="177.42" rx="8.33" transform="matrix(.955 -.296 .296 .955 -90.5 107.04)" width="19.16" x="298.6" y="263.64"/><rect fill="#00ccc1" height="177.42" rx="8.33" transform="matrix(.955 -.296 .296 .955 -85.41 117.56)" width="19.16" x="335.9" y="252.08"/><rect fill="#00ccc1" height="177.42" rx="8.33" transform="matrix(.969 -.249 .249 .969 -70.07 104.97)" width="19.16" x="371" y="241.19"/><path d="m298.76 215.38-99.51 30.85c-52.7 16.34-81.4 70.71-62.33 118.11l43.37 107.84c3 7.37 11.59 11.1 19.78 8.56a7.64 7.64 0 0 0 4.84-10.11l-29-73.35a67.2 67.2 0 0 1 42.59-88.87l98.54-30.54a70 70 0 0 1 55.11 5.48 68.06 68.06 0 0 1 33.26 44.57l17.2 75.22a7.65 7.65 0 0 0 9.72 5.6c8.19-2.54 13.19-10.49 11.47-18.24l-24.86-111.93c-11.27-50.7-66.6-79.79-120.18-63.19z" fill="#ff8d93"/><ellipse cx="209.28" cy="98.63" fill="#ffb833" rx="19.54" ry="30.46" transform="matrix(.955 -.296 .296 .955 -19.82 66.38)"/><circle cx="158.46" cy="318.08" fill="#ffb833" r="11.66"/><circle cx="219.69" cy="270.52" fill="#ffb833" r="11.66"/><circle cx="294.29" cy="247.39" fill="#ffb833" r="11.66"/><circle cx="373.66" cy="251.38" fill="#ffb833" r="11.66"/><g fill="#fff"><path d="m201.22 174a2.5 2.5 0 0 1 -2.25-1.4c-1.31-2.66-32.09-65.54-32.14-89.3-.05-24.87 22.21-34 22.43-34.06a2.5 2.5 0 1 1 1.85 4.64c-.83.33-19.32 8-19.28 29.41 0 22.61 31.31 86.46 31.63 87.11a2.49 2.49 0 0 1 -1.14 3.34 2.43 2.43 0 0 1 -1.1.26z"/><path d="m146.37 367.05a2.5 2.5 0 0 1 -2.38-1.76 86.57 86.57 0 0 1 -.92-49c9.36-33.45 36.71-49.93 44.87-54.18a2.5 2.5 0 1 1 2.31 4.43c-7.71 4-33.55 19.58-42.37 51.09a81.63 81.63 0 0 0 .88 46.15 2.5 2.5 0 0 1 -1.64 3.13 2.78 2.78 0 0 1 -.75.14z"/><path d="m152.87 380.93c-4.91 1.52-1.83 8.91 3.07 7.39s1.82-8.91-3.07-7.39z"/><path d="m201.16 255.24c-4.91 1.52-1.82 8.91 3.07 7.39s1.83-8.91-3.07-7.39z"/><path d="m207.49 188.29c-4.91 1.52-1.83 8.91 3.07 7.39s1.82-8.91-3.07-7.39z"/><path d="m205.91 39.54c-4.91 1.53-1.82 8.91 3.07 7.4s1.83-8.94-3.07-7.4z"/><path d="m397.24 258.77a2.49 2.49 0 0 1 -2.16-1.24c-16.31-27.94-47.8-32.47-48.08-32.53a2.5 2.5 0 1 1 .66-5c1.39.19 34.24 4.92 51.77 34.95a2.5 2.5 0 0 1 -2.16 3.76z"/><path d="m407.84 271c-4.91 1.52-1.83 8.91 3.07 7.39s1.82-8.9-3.07-7.39z"/><path d="m326.43 218c-4.92 1.52-1.83 8.91 3.06 7.39s1.83-8.89-3.06-7.39z"/><path d="m215.28 434.05a2.5 2.5 0 0 1 -2.33-1.61l-25.95-68.18a2.5 2.5 0 1 1 4.67-1.78l26 68.18a2.5 2.5 0 0 1 -1.45 3.22 2.31 2.31 0 0 1 -.94.17z"/><path d="m244.42 413a2.5 2.5 0 0 1 -2.38-1.76l-15.21-49a2.5 2.5 0 1 1 4.78-1.48l15.2 49a2.5 2.5 0 0 1 -1.65 3.13 2.33 2.33 0 0 1 -.74.11z"/><path d="m220.49 447c-4.91 1.53-1.82 8.91 3.07 7.4s1.83-8.89-3.07-7.4z"/><path d="m248.45 425.92c-4.91 1.52-1.82 8.91 3.07 7.39s1.83-8.91-3.07-7.39z"/><path d="m222.74 335.2c-4.91 1.53-1.83 8.91 3.07 7.4s1.82-8.91-3.07-7.4z"/><path d="m181.91 345.85c-4.91 1.53-1.82 8.91 3.07 7.4s1.83-8.91-3.07-7.4z"/></g></g></svg>