<svg xmlns="http://www.w3.org/2000/svg" xmlns:xlink="http://www.w3.org/1999/xlink" id="Lipstick_1_" width="512" height="512" x="0" y="0" version="1.1" viewBox="0 0 512 512" style="enable-background:new 0 0 512 512" xml:space="preserve"><style type="text/css">.st0{clip-path:url(#SVGID_2_)}.st1{fill:#ff8d93}.st2{fill:#00ccc1}.st3{fill:#ffdb99}.st4{fill:#fff}.st5{clip-path:url(#SVGID_4_)}.st6{fill:#ff1a26}.st7{fill:#ffb833}</style><g id="Lipstick"><g><defs><rect id="SVGID_1_" width="161.2" height="276.7" x="276.8" y="146.8" transform="matrix(0.9938 -0.1113 0.1113 0.9938 -29.5139 41.55)"/></defs><clipPath id="SVGID_2_"><use xlink:href="#SVGID_1_" style="overflow:visible"/></clipPath><g class="st0"><rect width="161.2" height="276.7" x="276.8" y="146.8" class="st1" transform="matrix(0.9938 -0.1113 0.1113 0.9938 -29.5139 41.55)"/><polygon points="429.2 218.3 467.8 198 460.4 241 491.6 271.4 448.5 277.7 429.2 316.7 409.9 277.7 366.8 271.4 398 241 390.6 198" class="st2"/></g></g><ellipse cx="372.8" cy="422.6" class="st1" rx="80.6" ry="34.3" transform="matrix(0.9938 -0.1113 0.1113 0.9938 -44.7215 44.1179)"/><ellipse cx="342" cy="147.6" class="st3" rx="80.6" ry="36.7" transform="matrix(0.9938 -0.1113 0.1113 0.9938 -14.3063 38.9821)"/><path d="M279.7,161.6c-4.3-5-6-11.8-4.5-18.2c0.4-1.3,1.8-2.1,3.1-1.7c1.3,0.4,2.1,1.8,1.7,3.1c-1,4.9,0.3,10,3.6,13.7 c6.8,8.1,25.3,16.6,74.4,11.4c1.4-0.1,2.6,0.9,2.8,2.2c0.1,1.4-0.9,2.6-2.2,2.8C335.5,177.4,294.6,179.5,279.7,161.6z" class="st4"/><path d="M295.9,388.9l-20-178.6c-0.2-1.4,0.8-2.6,2.2-2.8s2.6,0.8,2.8,2.2l20,178.6c0.2,1.4-0.8,2.6-2.2,2.8 C297.3,391.3,296.1,390.2,295.9,388.9z" class="st4"/><path d="M375.7,164.5c-5.2,0-4.4,8.1,0.8,8.1S380.9,164.5,375.7,164.5z" class="st4"/><path d="M285.7,129.3c-5.2,0-4.4,8.1,0.8,8.1S290.9,129.3,285.7,129.3z" class="st4"/><path d="M274.7,191.9c-5.2,0-4.4,8.1,0.8,8.1S279.8,191.9,274.7,191.9z" class="st4"/><path d="M302.8,403.5c-5.2,0-4.4,8.1,0.8,8.1S308,403.5,302.8,403.5z" class="st4"/><g><defs><path id="SVGID_3_" d="M79.8,287.2L59.1,429.6c-1.9,13.1,32.3,28.9,76.3,35.3s81.3,1,83.2-12.1l20.7-142.4L79.8,287.2z"/></defs><clipPath id="SVGID_4_"><use xlink:href="#SVGID_3_" style="overflow:visible"/></clipPath><g class="st5"><path d="M79.8,287.2L59.1,429.6c-1.9,13.1,32.3,28.9,76.3,35.3s81.3,1,83.2-12.1l20.7-142.4L79.8,287.2z" class="st1"/><polygon points="218.5 395.8 253.3 406.1 223.9 427.4 224.8 463.7 195.5 442.3 161.2 454.4 172.5 419.9 150.4 391.1 186.7 391.1 207.3 361.3" class="st2"/></g></g><ellipse cx="159.3" cy="300.1" class="st3" rx="28" ry="80.6" transform="matrix(0.1438 -0.9896 0.9896 0.1438 -160.5813 414.6386)"/><rect width="126.3" height="123.2" x="105.2" y="176.6" class="st1" transform="matrix(0.1438 -0.9896 0.9896 0.1438 -91.5984 370.5563)"/><ellipse cx="159.5" cy="299.2" class="st1" rx="16.8" ry="61.6" transform="matrix(0.1438 -0.9896 0.9896 0.1438 -159.5515 413.987)"/><ellipse cx="177.4" cy="175.7" class="st3" rx="18.3" ry="61.6" transform="matrix(0.1438 -0.9896 0.9896 0.1438 -21.9839 326.024)"/><path d="M218.8,48.7c9.6,1.4,16.3,10.3,15,19.9c0.1,0,0.3-2.4-15.5,109.4c0.1,0-1.1-0.2-79.3-11.2 c0.1,0-0.3,2.3,13.2-93.6c2.6-18.3,19.6-31.1,37.9-28.5l0,0C189.9,44.7,192,44.9,218.8,48.7z" class="st6"/><ellipse cx="177.8" cy="173" class="st6" rx="10.7" ry="40.1" transform="matrix(0.1438 -0.9896 0.9896 0.1438 -18.9702 324.0987)"/><path d="M153.2,149.6c-1.5,0-2.6-1.3-2.5-2.7c0.1-1.6,3.2-39.6,8.5-58.1c5.4-19.2,27.7-34.7,28.7-35.3 c1.1-0.8,2.7-0.5,3.5,0.6s0.5,2.7-0.6,3.5c-0.2,0.2-21.8,15.2-26.7,32.5c-5.1,18-8.3,56.8-8.3,57.1 C155.6,148.6,154.5,149.6,153.2,149.6z" class="st4"/><path d="M112.3,267.5h-0.4c-1.4-0.2-2.3-1.5-2.1-2.9c0.4-2.6-2.2,15.3,9.7-67c0.2-1.4,1.5-2.3,2.9-2.1s2.3,1.5,2.1,2.9 l-9.7,67C114.6,266.6,113.5,267.5,112.3,267.5z" class="st4"/><path d="M72.5,398.2h-0.4c-1.4-0.2-2.3-1.5-2.1-2.8l12.2-84.2c0.2-1.4,1.5-2.3,2.9-2.1c1.4,0.2,2.3,1.5,2.1,2.9 c0.1,0,0.3-1.9-12.3,84.1C74.8,397.3,73.8,398.2,72.5,398.2z" class="st4"/><path d="M69.8,413.6c-5.2,0-4.4,8.1,0.8,8.1C75.8,421.6,75,413.6,69.8,413.6z" class="st4"/><path d="M110.2,279.6c-5.2,0-4.4,8.1,0.8,8.1S115.4,279.6,110.2,279.6z" class="st4"/><path d="M147.1,158.4c-5.2,0-4.4,8.1,0.8,8.1S152.3,158.4,147.1,158.4z" class="st4"/><path d="M203.4,50.5c-5.2,0-4.4,8.1,0.8,8.1S208.6,50.5,203.4,50.5z" class="st4"/></g><g><path d="M30.9,245.3l5.8-15.4c0.8-2,3.7-2,4.4,0.1l5.1,15.6c0.2,0.7,0.8,1.2,1.5,1.5l10.7,3.5c2.1,0.7,2.1,3.7,0,4.4 l-10.9,3.9c-0.7,0.2-1.2,0.8-1.4,1.5L40.2,278c-0.7,2.2-3.8,2.1-4.5-0.1l-5.1-17.6c-0.2-0.7-0.8-1.3-1.5-1.5l-10.8-3.9 c-2.1-0.7-2-3.7,0-4.4l11-3.9C30.1,246.4,30.6,245.9,30.9,245.3z" class="st7"/><path d="M466,247.3l5.9-15.4c0.8-2,3.7-2,4.4,0.1l5.1,15.6c0.2,0.7,0.8,1.2,1.5,1.5l10.7,3.5c2.1,0.7,2.1,3.7,0,4.4 l-10.9,3.9c-0.7,0.2-1.2,0.8-1.4,1.5l-5.9,17.7c-0.7,2.2-3.8,2.1-4.5-0.1l-5.1-17.6c-0.2-0.7-0.7-1.3-1.4-1.5l-10.8-3.9 c-2.1-0.7-2-3.7,0-4.4l11-3.9C465.2,248.4,465.7,247.9,466,247.3z" class="st7"/><path d="M279.1,65.4l7.3-19.1c1-2.5,4.6-2.4,5.5,0.1l6.4,19.3c0.3,0.9,1,1.6,1.8,1.8l13.2,4.4c2.6,0.9,2.6,4.6,0.1,5.5 l-13.6,4.9c-0.8,0.3-1.5,1-1.8,1.8l-7.3,22c-0.9,2.7-4.8,2.6-5.5-0.1l-6.3-21.8c-0.3-0.9-0.9-1.6-1.8-1.9l-13.4-4.9 c-2.6-0.9-2.5-4.5,0-5.5l13.7-4.8C278.1,66.8,278.8,66.2,279.1,65.4z" class="st7"/></g></svg>