<svg xmlns="http://www.w3.org/2000/svg" xmlns:xlink="http://www.w3.org/1999/xlink" id="Mascara_1_" width="512" height="512" x="0" y="0" version="1.1" viewBox="0 0 512 512" style="enable-background:new 0 0 512 512" xml:space="preserve"><style type="text/css">.st0{fill:#00ccc1}.st1{clip-path:url(#SVGID_2_)}.st2{fill:#ff8d93}.st3{fill:#ffdb99}.st4{fill:#ff535c}.st5{fill:#fff}.st6{clip-path:url(#SVGID_4_)}.st7{fill:#ffb833}</style><g><g id="Mascara"><path d="M161.5,60.2l58,5.4c1.8,0.2,3.1,1.7,2.9,3.5l-4.7,50.4c-0.2,1.8-1.7,3.1-3.5,2.9l-58-5.4 c-1.8-0.2-3.1-1.7-2.9-3.5l4.7-50.4C158.1,61.3,159.7,60,161.5,60.2z" class="st0"/><g><defs><path id="SVGID_1_" d="M188.4,480.9l-73-6.8c-4.7-0.4-8.2-5.2-7.7-10.8l26.9-327.6c0.5-5.6,4.8-9.9,9.6-9.4l80,7.4 c4.8,0.4,8.3,5.4,7.7,11l-33.9,327C197.4,477.3,193.2,481.4,188.4,480.9z"/></defs><clipPath id="SVGID_2_"><use xlink:href="#SVGID_1_" style="overflow:visible"/></clipPath><g class="st1"><path d="M188.4,480.9l-73-6.8c-4.7-0.4-8.2-5.2-7.7-10.8l26.9-327.6c0.5-5.6,4.8-9.9,9.6-9.4l80,7.4 c4.8,0.4,8.3,5.4,7.7,11l-33.9,327C197.4,477.3,193.2,481.4,188.4,480.9z" class="st2"/><ellipse cx="207" cy="279.7" class="st3" rx="57.8" ry="58.8" transform="matrix(9.254433e-02 -0.9957 0.9957 9.254433e-02 -90.6824 459.8758)"/></g></g><path d="M137.9,112.6l95.2,8.8c4,0.4,6.9,3.9,6.5,7.9l-0.6,6.2c-0.4,4-3.9,6.9-7.9,6.5l-95.2-8.8 c-4-0.4-6.9-3.9-6.5-7.9l0.6-6.2C130.3,115.2,133.9,112.3,137.9,112.6z" class="st4"/><path d="M158.4,65.3l63.2,5.9c2.6,0.2,4.5,2.6,4.3,5.2l-0.1,0.8c-0.2,2.6-2.6,4.5-5.2,4.3l-63.2-5.9 c-2.6-0.2-4.5-2.6-4.3-5.2l0.1-0.8C153.5,67,155.8,65.1,158.4,65.3z" class="st0"/><path d="M157.4,75.6l63.2,5.9c2.6,0.2,4.5,2.6,4.3,5.2l-0.1,0.8c-0.2,2.6-2.6,4.5-5.2,4.3l-63.2-5.9 c-2.6-0.2-4.5-2.6-4.3-5.2l0.1-0.8C152.5,77.3,154.8,75.4,157.4,75.6z" class="st0"/><path d="M156.5,85.9l63.2,5.9c2.6,0.2,4.5,2.6,4.3,5.2l-0.1,0.8c-0.2,2.6-2.6,4.5-5.2,4.3l-63.2-5.9 c-2.6-0.2-4.5-2.6-4.3-5.2l0.1-0.8C151.6,87.6,153.9,85.7,156.5,85.9z" class="st0"/><path d="M187.8,73.5h-0.2l-24.2-2.2c-1.4-0.1-2.4-1.3-2.3-2.7c0.1-1.4,1.3-2.4,2.7-2.3l24.2,2.2 c1.4,0.1,2.4,1.2,2.4,2.6C190.3,72.5,189.2,73.5,187.8,73.5L187.8,73.5z" class="st5"/><path d="M177.6,85.2h-0.2l-15.2-1.4c-1.4-0.1-2.4-1.4-2.3-2.7s1.4-2.4,2.7-2.3l15.2,1.4c1.4,0.1,2.5,1.2,2.4,2.6 S179,85.3,177.6,85.2L177.6,85.2L177.6,85.2z" class="st5"/><path d="M171.2,95H171l-9.8-0.9c-1.4-0.1-2.4-1.3-2.3-2.7c0.1-1.4,1.3-2.4,2.7-2.3l0,0l9.8,0.9 c1.4,0.1,2.4,1.2,2.4,2.6C173.7,94,172.6,95.1,171.2,95z" class="st5"/><path d="M170.7,125.5h-0.2l-30.9-2.9c-1.4-0.1-2.4-1.4-2.3-2.7s1.4-2.4,2.7-2.3l0,0l30.9,2.9c1.4,0.1,2.4,1.2,2.4,2.6 C173.3,124.5,172.1,125.5,170.7,125.5L170.7,125.5z" class="st5"/><path d="M133.7,239h-0.2c-1.4-0.1-2.4-1.3-2.3-2.7l8.5-91.4c0.1-1.4,1.3-2.4,2.7-2.3c1.4,0.1,2.4,1.3,2.3,2.7l0,0 l-8.5,91.4C136.1,238.1,135,239.1,133.7,239z" class="st5"/><path d="M120.9,378.2h-0.2c-1.4-0.1-2.4-1.3-2.3-2.7c0,0,0,0,0,0l7-75.6c0.1-1.4,1.3-2.4,2.7-2.3 c1.4,0.1,2.4,1.3,2.3,2.7l0,0l-7,75.6C123.2,377.2,122.1,378.2,120.9,378.2z" class="st5"/><path d="M134.1,470.2h-0.2l-19.5-1.8c-1.4-0.1-2.4-1.3-2.3-2.7c0,0,0,0,0,0l2.4-25.5c0.1-1.4,1.4-2.4,2.7-2.3 c1.4,0.1,2.4,1.4,2.3,2.7l-2.1,23l17,1.6c1.4,0.1,2.4,1.2,2.4,2.6C136.7,469.2,135.5,470.3,134.1,470.2L134.1,470.2z" class="st5"/><path d="M194.2,447.3H194c-1.4-0.1-2.4-1.3-2.2-2.7l8-85.9c0.1-1.4,1.4-2.4,2.7-2.3c1.4,0.1,2.4,1.4,2.3,2.7l-8,85.9 C196.6,446.3,195.5,447.3,194.2,447.3z" class="st5"/><path d="M213.2,251.2h-0.2c-1.4-0.1-2.4-1.3-2.2-2.7l7.6-82c0.1-1.4,1.3-2.4,2.7-2.3c1.4,0.1,2.4,1.3,2.3,2.7l0,0 l-7.6,82C215.5,250.2,214.5,251.2,213.2,251.2z" class="st5"/><path d="M221.3,145.4c-4.9-0.4-4.8,7.1,0,7.6S226.2,145.8,221.3,145.4z" class="st5"/><path d="M211.1,262.9c-4.9-0.5-4.8,7.1,0,7.6S216,263.4,211.1,262.9z" class="st5"/><path d="M188.9,122c-4.9-0.4-4.8,7.1,0,7.6S193.7,122.4,188.9,122z" class="st5"/><path d="M204.4,68.7c-4.9-0.4-4.8,7.1,0,7.6S209.2,69.2,204.4,68.7z" class="st5"/><path d="M193.4,81.6c-4.9-0.4-4.8,7.1,0,7.6S198.2,82,193.4,81.6z" class="st5"/><path d="M185.9,91.1c-4.9-0.4-4.8,7.1,0,7.6S190.7,91.5,185.9,91.1z" class="st5"/><path d="M134.2,255.4c-4.9-0.4-4.8,7.1,0,7.6S139,255.8,134.2,255.4z" class="st5"/><path d="M119.2,392.9c-4.9-0.5-4.8,7.1,0,7.6S124.1,393.3,119.2,392.9z" class="st5"/><path d="M203.2,332.2c-4.9-0.5-4.8,7.1,0,7.6S208.1,332.6,203.2,332.2z" class="st5"/><path d="M191.7,460.1c-4.9-0.5-4.8,7.1,0,7.6S196.5,460.6,191.7,460.1z" class="st5"/><path d="M152.1,467c-4.9-0.5-4.8,7.1,0,7.6S156.9,467.4,152.1,467z" class="st5"/><path d="M281.2,44.9l9.7-1.8c1.2-0.2,2.4,0.6,2.6,1.8l56.6,310.5c0.2,1.2-0.6,2.4-1.8,2.6l-9.7,1.8 c-1.2,0.2-2.4-0.6-2.6-1.8L279.4,47.5C279.2,46.2,280,45.1,281.2,44.9z" class="st0"/><path d="M271.1,43.3l28.8-5.3c1.2-0.2,2.4,0.6,2.6,1.8l0.1,0.4c0.2,1.2-0.6,2.4-1.8,2.6L272,48.1 c-1.2,0.2-2.4-0.6-2.6-1.8l-0.1-0.4C269.1,44.7,269.9,43.5,271.1,43.3z" class="st0"/><path d="M272.6,51.3l28.8-5.3c1.2-0.2,2.4,0.6,2.6,1.8l0.1,0.4c0.2,1.2-0.6,2.4-1.8,2.6l-28.8,5.3 c-1.2,0.2-2.4-0.6-2.6-1.8l-0.1-0.4C270.5,52.7,271.3,51.6,272.6,51.3z" class="st0"/><path d="M274,59.4l28.8-5.3c1.2-0.2,2.4,0.6,2.6,1.8l0.1,0.4c0.2,1.2-0.6,2.4-1.8,2.6l-28.8,5.3 c-1.2,0.2-2.4-0.6-2.6-1.8l-0.1-0.4C272,60.8,272.8,59.6,274,59.4z" class="st0"/><path d="M275.5,67.4l28.8-5.3c1.2-0.2,2.4,0.6,2.6,1.8l0.1,0.4c0.2,1.2-0.6,2.4-1.8,2.6l-28.8,5.3 c-1.2,0.2-2.4-0.6-2.6-1.8l-0.1-0.4C273.4,68.8,274.3,67.6,275.5,67.4z" class="st0"/><path d="M276.9,75.4l28.8-5.3c1.2-0.2,2.4,0.6,2.6,1.8l0.1,0.4c0.2,1.2-0.6,2.4-1.8,2.6l-28.8,5.3 c-1.2,0.2-2.4-0.6-2.6-1.8l-0.1-0.4C274.9,76.8,275.7,75.7,276.9,75.4z" class="st0"/><path d="M278.4,83.5l28.8-5.3c1.2-0.2,2.4,0.6,2.6,1.8l0.1,0.4c0.2,1.2-0.6,2.4-1.8,2.6l-28.8,5.3 c-1.2,0.2-2.4-0.6-2.6-1.8l-0.1-0.4C276.4,84.9,277.2,83.7,278.4,83.5z" class="st0"/><path d="M279.9,91.5l28.8-5.3c1.2-0.2,2.4,0.6,2.6,1.8l0.1,0.4c0.2,1.2-0.6,2.4-1.8,2.6l-28.8,5.3 c-1.2,0.2-2.4-0.6-2.6-1.8l-0.1-0.4C277.8,92.9,278.7,91.7,279.9,91.5z" class="st0"/><path d="M280.2,99l28.7-5.3c1.2-0.2,2.4,0.6,2.6,1.8l0.1,0.4c0.2,1.2-0.6,2.4-1.8,2.6l-28.7,5.3 c-1.2,0.2-2.4-0.6-2.6-1.8l-0.1-0.4C278.2,100.4,279,99.2,280.2,99z" class="st0"/><path d="M282.8,107.6l28.8-5.3c1.2-0.2,2.4,0.6,2.6,1.8l0.1,0.4c0.2,1.2-0.6,2.4-1.8,2.6l-28.8,5.3 c-1.2,0.2-2.4-0.6-2.6-1.8l-0.1-0.4C280.8,109,281.6,107.8,282.8,107.6z" class="st0"/><path d="M284.3,115.6l28.8-5.3c1.2-0.2,2.4,0.6,2.6,1.8l0.1,0.4c0.2,1.2-0.6,2.4-1.8,2.6l-28.8,5.3 c-1.2,0.2-2.4-0.6-2.6-1.8l-0.1-0.4C282.2,117,283.1,115.8,284.3,115.6z" class="st0"/><path d="M283.5,31.2l0.5-0.1c1.4-0.3,2.7,0.7,3,2.1l3.4,18.7c0.3,1.4-0.7,2.7-2.1,3l-0.5,0.1c-1.4,0.3-2.7-0.7-3-2.1 l-3.4-18.7C281.2,32.8,282.1,31.4,283.5,31.2z" class="st0"/><g><defs><path id="SVGID_3_" d="M398,454.3l-71.7,13.1c-4.4,0.8-8.9-3.4-10.1-9.4l-37.9-180.5c-1.3-6.4,1.4-12.4,6-13.2l81.2-14.8 c4.6-0.8,9.3,3.8,10.3,10.2l28.3,182.2C405.1,448,402.4,453.5,398,454.3z"/></defs><clipPath id="SVGID_4_"><use xlink:href="#SVGID_3_" style="overflow:visible"/></clipPath><g class="st6"><path d="M398,454.3l-71.7,13.1c-4.4,0.8-8.9-3.4-10.1-9.4l-37.9-180.5c-1.3-6.4,1.4-12.4,6-13.2l81.2-14.8 c4.6-0.8,9.3,3.8,10.3,10.2l28.3,182.2C405.1,448,402.4,453.5,398,454.3z" class="st2"/><circle cx="302.3" cy="368.1" r="48" class="st3"/></g></g><path d="M296.4,323c-1.2,0-2.2-0.8-2.5-2l-9.5-48.5c-0.1-0.7,0-1.3,0.4-1.9c0.4-0.5,1-0.9,1.6-1l34.8-6.4 c1.4-0.2,2.7,0.7,2.9,2c0.2,1.3-0.7,2.6-2,2.9l-32.3,5.8l9,46c0.3,1.3-0.6,2.7-2,2.9c0,0,0,0,0,0C296.7,323,296.6,323,296.4,323z" class="st5"/><path d="M317.4,431.4c-1.2,0-2.2-0.8-2.4-2l-10.6-48.2c-0.3-1.4,0.6-2.7,1.9-3c1.4-0.3,2.7,0.6,3,1.9l10.6,48.3 c0.3,1.4-0.6,2.7-1.9,2.9C317.7,431.4,317.6,431.4,317.4,431.4L317.4,431.4z" class="st5"/><path d="M392.9,427.8c-1.2,0-2.3-0.9-2.5-2.1l-16.1-106.6c-0.2-1.4,0.7-2.7,2.1-2.9s2.7,0.7,2.9,2.1L395.4,425 c0.2,1.4-0.7,2.6-2.1,2.8C393.2,427.8,393,427.8,392.9,427.8z" class="st5"/><path d="M315.3,206.4c-1.2,0-2.2-0.9-2.5-2.1l-10.9-59.6c-0.2-1.4,0.7-2.7,2-2.9c1.3-0.2,2.6,0.7,2.9,2l10.9,59.6 c0.2,1.4-0.6,2.7-2,2.9C315.6,206.4,315.4,206.4,315.3,206.4z" class="st5"/><path d="M340.8,257.8c-4.8,0.9-2.7,8.2,2,7.3S345.6,256.9,340.8,257.8z" class="st5"/><path d="M301.4,339.1c-4.8,0.9-2.7,8.2,2,7.3S306.2,338.2,301.4,339.1z" class="st5"/><path d="M369.7,294.9c-4.8,0.9-2.7,8.2,2,7.3S374.5,294.1,369.7,294.9z" class="st5"/><path d="M393.1,437.1c-4.8,0.9-2.7,8.2,2,7.3S397.9,436.2,393.1,437.1z" class="st5"/><path d="M324.5,447.4c-4.8,0.9-2.7,8.2,2,7.3S329.3,446.6,324.5,447.4z" class="st5"/><path d="M318.9,221.9c-4.8,0.9-2.7,8.2,2,7.3S323.7,221.1,318.9,221.9z" class="st5"/><path d="M301.7,124.4c-4.8,0.9-2.7,8.2,2,7.3S306.4,123.5,301.7,124.4z" class="st5"/></g><g><path d="M75.1,145.4l5.1-13.5c0.3-1.1,1.4-1.7,2.5-1.4c0.7,0.2,1.2,0.8,1.4,1.4l4.5,13.6c0.2,0.6,0.7,1.1,1.3,1.3 l9.3,3.1c1.1,0.3,1.7,1.3,1.5,2.4c-0.2,0.7-0.7,1.3-1.4,1.4l-9.6,3.4c-0.6,0.2-1.1,0.7-1.2,1.3l-5.1,15.5 c-0.3,1.1-1.3,1.7-2.4,1.5c-0.7-0.2-1.3-0.8-1.5-1.5L75,158.6c-0.2-0.6-0.7-1.2-1.3-1.3l-9.5-3.5c-1.1-0.3-1.7-1.4-1.4-2.5 c0.2-0.7,0.7-1.2,1.4-1.4l9.7-3.4C74.5,146.3,74.9,145.9,75.1,145.4z" class="st7"/><path d="M423.6,274.1l5.1-13.5c0.3-1.1,1.4-1.7,2.5-1.3c0.7,0.2,1.2,0.7,1.4,1.4l4.5,13.6c0.2,0.6,0.7,1.1,1.3,1.3 l9.4,3.1c1.1,0.3,1.7,1.3,1.5,2.4c-0.2,0.7-0.7,1.3-1.4,1.4l-9.6,3.4c-0.6,0.2-1.1,0.7-1.3,1.3l-5.1,15.5 c-0.3,1.1-1.3,1.7-2.4,1.5c-0.7-0.2-1.3-0.8-1.5-1.5l-4.5-15.4c-0.2-0.6-0.6-1.1-1.3-1.4l-9.4-3.4c-1.1-0.3-1.7-1.4-1.4-2.5 c0.2-0.7,0.7-1.2,1.4-1.4l9.7-3.4C423,275.1,423.4,274.7,423.6,274.1z" class="st7"/><path d="M253,399.1l6.4-16.8c0.5-1.3,2-2,3.3-1.5c0.7,0.3,1.3,0.9,1.5,1.6l5.6,17c0.3,0.7,0.9,1.3,1.6,1.5l11.6,3.9 c1.3,0.4,2.1,1.9,1.6,3.2c-0.2,0.8-0.8,1.3-1.6,1.6l-11.9,4.3c-0.7,0.3-1.3,0.9-1.6,1.6l-6.4,19.2c-0.4,1.3-1.9,2.1-3.2,1.6 c-0.8-0.3-1.4-0.9-1.6-1.7l-5.6-19.1c-0.2-0.8-0.8-1.4-1.6-1.7l-11.8-4.3c-1.3-0.5-2-1.9-1.5-3.3c0.3-0.7,0.8-1.3,1.5-1.5l12-4.2 C252.2,400.4,252.7,399.9,253,399.1z" class="st7"/></g></g></svg>