<svg height="512" viewBox="0 0 512 512" width="512" xmlns="http://www.w3.org/2000/svg"><g id="Nail_Polish" data-name="Nail Polish"><path d="m318.2 432.14 5.35-14.09a2.13 2.13 0 0 1 4 .09l4.67 14.22a2.1 2.1 0 0 0 1.36 1.36l9.75 3.24a2.13 2.13 0 0 1 0 4l-10 3.57a2.13 2.13 0 0 0 -1.31 1.34l-5.36 16.19a2.13 2.13 0 0 1 -4.07-.08l-4.59-15.98a2.14 2.14 0 0 0 -1.32-1.41l-9.88-3.59a2.14 2.14 0 0 1 0-4l10.08-3.54a2.1 2.1 0 0 0 1.32-1.32z" fill="#ffb833"/><path d="m61.48 136.17 5.35-14.1a2.13 2.13 0 0 1 4 .1l4.67 14.22a2.13 2.13 0 0 0 1.35 1.36l9.77 3.25a2.13 2.13 0 0 1 0 4l-10 3.57a2.13 2.13 0 0 0 -1.31 1.34l-5.31 16.21a2.13 2.13 0 0 1 -4.07-.08l-4.66-16.04a2.14 2.14 0 0 0 -1.27-1.43l-9.92-3.57a2.13 2.13 0 0 1 0-4l10.09-3.54a2.18 2.18 0 0 0 1.31-1.29z" fill="#ffb833"/><path d="m288.75 137.22 6.65-17.52a2.66 2.66 0 0 1 5 .12l5.8 17.68a2.65 2.65 0 0 0 1.68 1.68l12.12 4a2.65 2.65 0 0 1 .06 5l-12.43 4.44a2.69 2.69 0 0 0 -1.62 1.66l-6.66 20.13a2.65 2.65 0 0 1 -5.06-.1l-5.8-20a2.65 2.65 0 0 0 -1.64-1.75l-12.26-4.47a2.65 2.65 0 0 1 0-5l12.53-4.4a2.61 2.61 0 0 0 1.63-1.47z" fill="#ffb833"/><rect fill="#ff8d93" height="281.27" rx="20.71" transform="matrix(1 .08 -.08 1 26.84 -12.94)" width="228.63" x="61.14" y="188.95"/><ellipse cx="164.57" cy="465.64" fill="#ff8d93" rx="15.45" ry="100.41" transform="matrix(.08 -.997 .997 .08 -312.71 592.55)"/><ellipse cx="185.32" cy="206.26" fill="#ff8d93" rx="33.36" ry="114.32" transform="matrix(.08 -.997 .997 .08 -35.05 374.54)"/><ellipse cx="176.24" cy="319.82" fill="#ff1a26" rx="130.84" ry="96.46" transform="matrix(.08 -.997 .997 .08 -156.62 469.99)"/><path d="m272.39 327.52-192.3-15.39 7.54-94.22a34.31 34.31 0 0 1 28.45-31.15 289.92 289.92 0 0 1 140 11 34.91 34.91 0 0 1 23.79 35.86z" fill="#ff1a26"/><rect fill="#ff8d93" height="63.39" rx="5.25" transform="matrix(.997 .08 -.08 .997 13.16 -14.59)" width="93.22" x="142.62" y="125.72"/><ellipse cx="186.9" cy="186.57" fill="#ff8d93" rx="6.35" ry="45.1" transform="matrix(.08 -.997 .997 .08 -13.99 358)"/><ellipse cx="191.53" cy="128.74" fill="#ff8d93" rx="8.79" ry="45.85" transform="matrix(.08 -.997 .997 .08 47.92 309.39)"/><rect fill="#ff8d93" height="13.32" rx="6.25" transform="matrix(.997 .08 -.08 .997 12.1 -14.72)" width="104.4" x="138.09" y="137.48"/><rect fill="#ff8d93" height="13.32" rx="6.25" transform="matrix(.997 .08 -.08 .997 13.16 -14.59)" width="104.4" x="137.03" y="150.76"/><g fill="#fff"><path d="m192.57 224.7c-49 0-96-16.64-96.56-16.84a2.5 2.5 0 1 1 1.69-4.7c.63.22 64.16 22.72 119.79 14.9a2.5 2.5 0 1 1 .7 4.95 185.71 185.71 0 0 1 -25.62 1.69z"/><path d="m65.62 366.89h-.2a2.51 2.51 0 0 1 -2.3-2.69l9.7-121.14a2.5 2.5 0 1 1 5 .4l-9.71 121.13a2.5 2.5 0 0 1 -2.49 2.3z"/><path d="m173.25 474.65c-61.33 0-104.94-21.14-105.38-21.36a2.5 2.5 0 1 1 2.21-4.49c.45.22 45.54 22.06 108.35 20.8a2.5 2.5 0 0 1 .05 5c-1.72.03-3.48.05-5.23.05z"/><path d="m277.28 375.09h-.2a2.51 2.51 0 0 1 -2.29-2.7l7.43-92.91a2.5 2.5 0 1 1 5 .39l-7.44 92.92a2.5 2.5 0 0 1 -2.5 2.3z"/><path d="m200.94 139.71a173.51 173.51 0 0 1 -26.27-2.21 206.23 206.23 0 0 1 -23.1-4.87 2.5 2.5 0 0 1 1.38-4.8c.38.1 38.2 10.77 65.86 5.31a2.5 2.5 0 1 1 1 4.91 98.05 98.05 0 0 1 -18.87 1.66z"/><path d="m182.73 160.09a178.48 178.48 0 0 1 -32.91-3.34 2.5 2.5 0 1 1 1-4.89c.19 0 19.67 4.08 38.24 3.06a2.5 2.5 0 1 1 .28 5c-2.19.08-4.41.17-6.61.17z"/><path d="m203.2 154.38c-4.76-.38-4.64 7 .09 7.42s4.64-7.04-.09-7.42z"/><path d="m230.37 130.91c-4.76-.38-4.64 7 .09 7.41s4.64-7.04-.09-7.41z"/><path d="m234.66 215.32c-4.76-.38-4.64 7 .09 7.42s4.64-7.04-.09-7.42z"/><path d="m87.13 193.55c-4.75-.38-4.63 7 .1 7.41s4.64-7.04-.1-7.41z"/><path d="m78.41 222.42c-4.75-.38-4.64 7 .1 7.41s4.63-7.04-.1-7.41z"/><path d="m64.78 379.5c-4.76-.38-4.64 7 .09 7.41s4.64-7.03-.09-7.41z"/><path d="m199.57 466.87c-4.75-.38-4.64 7 .1 7.42s4.63-7.04-.1-7.42z"/><path d="m272.53 387.57c-4.75-.38-4.64 7 .1 7.41s4.64-6.98-.1-7.41z"/><path d="m286.24 251.87c-4.75-.38-4.64 7 .09 7.41s4.67-7.03-.09-7.41z"/><path d="m59.15 436.4c-4.75-.38-4.63 7 .1 7.42s4.64-7.04-.1-7.42z"/></g><ellipse cx="177.81" cy="313.48" fill="#ffb833" rx="50.96" ry="76.72" transform="matrix(.08 -.997 .997 .08 -148.84 465.72)"/><path d="m368.91 85.16h16.06v221.63h-16.06z" fill="#ffb833" transform="matrix(.98 -.197 .197 .98 -31.23 78.12)"/><rect fill="#ff535c" height="159.3" rx="13.06" transform="matrix(.98 -.197 .197 .98 -53.2 84.86)" width="102.27" x="348.67" y="230.09"/><ellipse cx="414.69" cy="383.79" fill="#ff535c" rx="44.92" ry="10.83" transform="matrix(.98 -.197 .197 .98 -67.5 89.25)"/><path d="m353 99.18c-9.66.32-19.18-14.4-18.69-26.3.28-6.71 3.54-7.85 6-18.6 3.18-13.68-.2-20 2.28-21.11 5.55-2.55 33.16 23.79 26.65 47.89-2.08 7.78-8.42 17.86-16.24 18.12z" fill="#ff535c"/><path d="m352.29 293.79a2.5 2.5 0 0 1 -2.45-2l-6.84-34.23a11.68 11.68 0 0 1 9.14-13.73l15-3a2.5 2.5 0 1 1 1 4.9l-15 3a6.66 6.66 0 0 0 -5.21 7.85l6.87 34.22a2.5 2.5 0 0 1 -1.95 2.95 2.89 2.89 0 0 1 -.56.04z" fill="#fff"/><path d="m398.31 392c-15.94 0-25.35-4.37-25.94-4.65a2.5 2.5 0 0 1 2.16-4.51c.2.1 20.53 9.42 52.15-.35a2.5 2.5 0 1 1 1.47 4.78 101 101 0 0 1 -29.84 4.73z" fill="#fff"/><path d="m451.45 341.23a2.49 2.49 0 0 1 -2.44-2l-16-79.37a2.5 2.5 0 1 1 4.9-1l16 79.38a2.5 2.5 0 0 1 -2 2.94 2.12 2.12 0 0 1 -.46.05z" fill="#fff"/><path d="m374.8 187.85a2.51 2.51 0 0 1 -2.45-2l-12-59.53a2.5 2.5 0 0 1 4.9-1l12 59.54a2.5 2.5 0 0 1 -2 2.94 2.83 2.83 0 0 1 -.45.05z" fill="#fff"/><path d="m348.73 91.31a2.51 2.51 0 0 1 -1.26-.34c-10.68-6.24-10.73-19.1-9.27-25a2.5 2.5 0 1 1 4.86 1.2 24.15 24.15 0 0 0 -.34 7.8c.65 5.34 3.1 9.28 7.27 11.72a2.5 2.5 0 0 1 -1.26 4.66z" fill="#fff"/><path d="m345.37 53.12c-4.67.94-2.53 8 2.13 7.1s2.5-8.04-2.13-7.1z" fill="#fff"/><path d="m358.79 106.38c-4.67.94-2.52 8 2.13 7.11s2.53-8.04-2.13-7.11z" fill="#fff"/><path d="m378 199.41c-4.68.94-2.53 8 2.12 7.1s2.57-8.04-2.12-7.1z" fill="#fff"/><path d="m382.84 236.83c-4.67.94-2.52 8 2.13 7.11s2.53-8.04-2.13-7.11z" fill="#fff"/><path d="m354.57 308.8c-4.68.94-2.53 8 2.13 7.11s2.52-8.04-2.13-7.11z" fill="#fff"/><path d="m428.18 237.14c-4.67.94-2.53 8 2.13 7.1s2.52-8.04-2.13-7.1z" fill="#fff"/><path d="m452.39 354.88c-4.67.94-2.53 8 2.13 7.11s2.48-7.99-2.13-7.11z" fill="#fff"/><path d="m440.35 376.05c-4.68.94-2.53 8 2.12 7.1s2.53-8.04-2.12-7.1z" fill="#fff"/><path d="m365.54 366.09c-4.68.94-2.53 8 2.13 7.11s2.52-8.04-2.13-7.11z" fill="#fff"/></g></svg>