<svg xmlns="http://www.w3.org/2000/svg" xmlns:xlink="http://www.w3.org/1999/xlink" id="Layer_1" width="512" height="512" x="0" y="0" version="1.1" viewBox="0 0 512 512" style="enable-background:new 0 0 512 512" xml:space="preserve"><style type="text/css">.st0{fill:#ff535c}.st1{fill:#ff8d93}.st2{fill:#ffdb99}.st3{clip-path:url(#SVGID_2_)}.st4{fill:#00ccc1}.st5{fill:#aaeeea}.st6{clip-path:url(#SVGID_4_)}.st7{fill:#ffb08d}.st8{fill:#fff}.st9{fill:#ffb833}</style><g><g id="Powder"><path d="M184.8,258h31.4c7.2,0,13,5.8,13,13v18.8c0,7.2-5.8,13-13,13h-31.4c-7.2,0-13-5.8-13-13V271 C171.8,263.8,177.6,258,184.8,258z" class="st0"/><ellipse cx="200.5" cy="408.4" class="st0" rx="160.6" ry="58.4"/><rect width="321.2" height="72.6" x="39.9" y="338.4" class="st0"/><ellipse cx="200.5" cy="338.4" class="st1" rx="160.6" ry="58.4"/><ellipse cx="200.5" cy="159.5" class="st1" rx="160.6" ry="114.2"/><ellipse cx="200.5" cy="338.4" class="st2" rx="145.5" ry="43.3"/><g><defs><path id="SVGID_1_" d="M96.3,227.1c-53.7-38.2-53.7-97.1,0-135.3c57.2-40.7,151.3-40.7,208.5,0c53.6,38.1,53.8,97,0,135.3 C247.6,267.8,153.5,267.8,96.3,227.1z"/></defs><clipPath id="SVGID_2_"><use xlink:href="#SVGID_1_" style="overflow:visible"/></clipPath><g class="st3"><path d="M96.3,227.1c-53.7-38.2-53.7-97.1,0-135.3c57.2-40.7,151.3-40.7,208.5,0c53.6,38.1,53.8,97,0,135.3 C247.6,267.8,153.5,267.8,96.3,227.1z" class="st4"/><polygon points="322.3 72.4 34.4 219.2 55 241.2 333.7 80.9 335.1 97.1 72.3 241.2 79.9 257.6 361.1 104.6 346 72.4" class="st5"/></g></g><g><defs><ellipse id="SVGID_3_" cx="360.5" cy="374.7" rx="83" ry="116.1" transform="matrix(0.3952 -0.9186 0.9186 0.3952 -126.1448 557.7924)"/></defs><clipPath id="SVGID_4_"><use xlink:href="#SVGID_3_" style="overflow:visible"/></clipPath><g class="st6"><ellipse cx="360.5" cy="374.7" class="st7" rx="83" ry="116.1" transform="matrix(0.3952 -0.9186 0.9186 0.3952 -126.1448 557.7924)"/><path d="M408.6,289.6c0,0-58.3,107.9-181.5,142.3l59.9,51c0,0,128.8-47.3,174.8-164.2L408.6,289.6z" class="st1"/></g></g><path d="M170.5,45.2h60c5,0,9,4,9,9v7.9c0,5-4,9-9,9h-60c-5,0-9-4-9-9v-7.9C161.5,49.3,165.5,45.2,170.5,45.2z" class="st0"/><path d="M48.1,162c-1.5,0-2.6-1.3-2.5-2.7c0.6-7.8,4.5-22.2,12-36.1c9.8-18.1,29.8-42.9,69.1-58.7 c1.3-0.5,2.7,0.1,3.3,1.4c0.5,1.3-0.1,2.7-1.4,3.3c-72.5,29-77.9,89.9-78,90.5C50.5,160.9,49.4,161.9,48.1,162z" class="st8"/><path d="M282.5,242.6c-2.6,0-3.4-3.5-1.1-4.7c32.9-17.1,52.8-37.8,59.1-61.5c7.3-27.6-6.7-49.8-6.9-50 c-0.8-1.2-0.4-2.7,0.7-3.5c1.2-0.8,2.7-0.4,3.5,0.7c9.5,16.3,12.2,35.6,7.5,53.9c-6.7,25.2-27.4,47-61.7,64.8 C283.3,242.5,282.9,242.6,282.5,242.6z" class="st8"/><path d="M145.4,389.4c-56.4-8.7-89.2-22.9-97.5-42.3c-3-6.7-2.5-14.4,1.3-20.6c0.8-1.1,2.3-1.5,3.5-0.7 c1.2,0.8,1.5,2.4,0.6,3.6c-2.9,4.9-3.2,10.8-0.8,15.9c5.3,12.1,25.8,28.8,93.6,39.2c1.4,0.1,2.4,1.3,2.3,2.7 c-0.1,1.4-1.3,2.4-2.7,2.3C145.8,389.4,145.9,389.5,145.4,389.4z" class="st8"/><path d="M48.5,410.9c-1.4,0-2.5-1.1-2.5-2.5v-30.5c0-1.4,1.1-2.5,2.5-2.5s2.5,1.1,2.5,2.5v30.5 C51,409.7,49.9,410.9,48.5,410.9z" class="st8"/><path d="M126.6,455.2c-1.4-0.3-2.3-1.6-2-2.9c0.3-1.4,1.6-2.3,2.9-2c40.1,6.9,95.6,10.4,134.8,0.1 c1.3-0.4,2.7,0.4,3.1,1.8c0.4,1.3-0.4,2.7-1.8,3.1C223.6,465.6,167.4,462,126.6,455.2z" class="st8"/><path d="M251.7,292.2c-1.9,0-28.2-5.5-88.1-2c-1.4,0.1-2.6-0.9-2.7-2.3c-0.1-1.4,0.9-2.6,2.3-2.7 c0.5,0,53.1-3.5,88.9,2.1c1.4,0.1,2.4,1.3,2.3,2.7C254.3,291.3,253.1,292.3,251.7,292.2L251.7,292.2z" class="st8"/><path d="M396.4,309.7c-68-28.1-112.1-0.5-112.5-0.2c-1.2,0.7-2.7,0.4-3.5-0.8c-0.7-1.2-0.4-2.7,0.8-3.5 c0.5-0.3,11.9-7.5,32.1-11.2c18.5-3.4,48.4-4.2,85.1,11c1.3,0.5,1.9,2,1.3,3.3C399.1,309.6,397.7,310.2,396.4,309.7z" class="st8"/><path d="M373.7,458.5c-2.7,0-4.3-0.1-4.5-0.1c-1.4-0.1-2.5-1.2-2.4-2.6c0.1-1.4,1.2-2.5,2.6-2.4 c0.5,0,55.3,2,76.6-20.2c1-1,2.5-1,3.5-0.1c1,1,1,2.5,0.1,3.5l0,0C432.9,454.2,397.9,458.5,373.7,458.5z" class="st8"/><path d="M295.4,413.8c-2.6,0-3.5-3.5-1.2-4.7c0.5-0.3,52.2-28.3,72.9-60.5c0.7-1.2,2.3-1.5,3.5-0.8 c1.2,0.7,1.5,2.3,0.8,3.5c-15.7,24.5-49.2,48.1-74.8,62.3C296.3,413.7,295.9,413.8,295.4,413.8z" class="st8"/><path d="M381.9,335.2c-5.3,0-4.5,8.2,0.8,8.2S387.2,335.2,381.9,335.2z" class="st8"/><path d="M412,312.8c-5.3,0-4.5,8.2,0.8,8.2S417.3,312.8,412,312.8z" class="st8"/><path d="M272.6,314.5c-5.3,0-4.5,8.2,0.8,8.2S277.9,314.5,272.6,314.5z" class="st8"/><path d="M455.1,414.3c-5.3,0-4.5,8.2,0.8,8.2S460.4,414.3,455.1,414.3z" class="st8"/><path d="M347.6,443.9c-5.3,0-4.5,8.2,0.8,8.2S352.9,443.9,347.6,443.9z" class="st8"/><path d="M282.7,446.2c-5.3,0-4.5,8.2,0.8,8.2S287.9,446.2,282.7,446.2z" class="st8"/><path d="M109.6,443.3c-5.3,0-4.5,8.2,0.8,8.2S114.9,443.3,109.6,443.3z" class="st8"/><path d="M162.7,384.8c-5.3,0-4.5,8.2,0.8,8.2S168,384.8,162.7,384.8z" class="st8"/><path d="M47.6,361.2c-5.3,0-4.5,8.2,0.8,8.2S52.8,361.2,47.6,361.2z" class="st8"/><path d="M66.5,309.8c-5.3,0-4.5,8.2,0.8,8.2S71.7,309.8,66.5,309.8z" class="st8"/><path d="M140.9,287.3c-5.3,0-4.5,8.2,0.8,8.2S146.2,287.3,140.9,287.3z" class="st8"/><path d="M269.1,290.3c-5.3,0-4.5,8.2,0.8,8.2S274.4,290.3,269.1,290.3z" class="st8"/><path d="M262,247.2c-5.3,0-4.5,8.2,0.8,8.2S267.2,247.2,262,247.2z" class="st8"/><path d="M325.2,103.6c-5.3,0-4.5,8.2,0.8,8.2S330.4,103.6,325.2,103.6z" class="st8"/><path d="M146.2,57.6c-5.3,0-4.5,8.2,0.8,8.2S151.5,57.6,146.2,57.6z" class="st8"/><path d="M53.5,178.7c-5.3,0-4.5,8.2,0.8,8.2S58.7,178.7,53.5,178.7z" class="st8"/></g><path d="M52.4,262.3l5.2-13.8c0.7-1.8,3.3-1.8,3.9,0.1l4.6,13.9c0.2,0.6,0.7,1.1,1.3,1.3L77,267c1.9,0.6,1.9,3.3,0,3.9 l-9.8,3.5c-0.6,0.2-1.1,0.7-1.3,1.3l-5.2,15.8c-0.6,2-3.5,1.9-4-0.1l-4.6-15.7c-0.2-0.6-0.7-1.2-1.3-1.4l-9.7-3.5 c-1.8-0.7-1.8-3.3,0-3.9l9.9-3.5C51.7,263.4,52.2,262.9,52.4,262.3z" class="st9"/><path d="M396.5,239.4l5.2-13.8c0.7-1.8,3.3-1.8,3.9,0.1l4.6,13.9c0.2,0.6,0.7,1.1,1.3,1.3l9.5,3.2 c1.9,0.6,1.9,3.3,0,3.9l-9.8,3.5c-0.6,0.2-1.1,0.7-1.3,1.3l-5.2,15.8c-0.6,2-3.5,1.9-4-0.1l-4.5-15.7c-0.2-0.6-0.7-1.2-1.3-1.4 l-9.6-3.5c-1.8-0.7-1.8-3.3,0-3.9l9.9-3.5C395.8,240.4,396.2,239.9,396.5,239.4z" class="st9"/><path d="M394.8,64l6.5-17.1c0.9-2.3,4.1-2.2,4.9,0.1l5.7,17.3c0.3,0.8,0.9,1.4,1.6,1.7l11.9,3.9c2.3,0.8,2.4,4.1,0,4.9 l-12.1,4.3c-0.7,0.3-1.3,0.9-1.6,1.6l-6.5,19.7c-0.8,2.4-4.2,2.4-5-0.1l-5.7-19.5c-0.2-0.8-0.8-1.4-1.6-1.7l-12-4.4 c-2.3-0.8-2.3-4.1,0-4.9l12.2-4.3C393.9,65.3,394.5,64.7,394.8,64z" class="st9"/></g></svg>