<?xml version="1.0" encoding="UTF-8"?>
<svg xmlns="http://www.w3.org/2000/svg" viewBox="0 0 512 512" width="512" height="512"><defs><style>.cls-1{fill:#ff8c5f;}.cls-10,.cls-2,.cls-6,.cls-9{fill:none;stroke-linecap:round;stroke-linejoin:round;}.cls-2,.cls-6,.cls-9{stroke:#383333;}.cls-2{stroke-width:0.75px;}.cls-3{fill:#ffb08d;}.cls-4{fill:#ff832f;}.cls-5,.cls-7{fill:#383333;}.cls-6,.cls-7{fill-rule:evenodd;}.cls-8{fill:#fff;}.cls-10{stroke:#fff;}.cls-11{fill:#ffb833;}.cls-12{fill:#aaeeea;}.cls-13{fill:#00ccc1;}.cls-14{fill:#fff3e3;}</style></defs><g id="Protection"><path class="cls-1" d="M449.44,135c.73-.71,4.72-4.46,10.42-4,.83.06,4.15.3,6.39,2.4,5.8,5.43,3.58,22.57-6.45,27-5.6,2.46-11.55,0-13.56-.9Q447.85,147.2,449.44,135Z"/><path class="cls-2" d="M463.87,141l-9.67-.45s9.84,6.13,1.6,14.08"/><path class="cls-1" d="M329.72,135c-.73-.71-4.72-4.46-10.42-4-.83.06-4.15.3-6.39,2.4-5.81,5.43-3.58,22.57,6.44,27,5.61,2.46,11.56,0,13.57-.9Q331.32,147.2,329.72,135Z"/><path class="cls-2" d="M315.28,141l9.68-.45s-9.85,6.13-1.61,14.08"/><circle class="cls-3" cx="389.32" cy="124.32" r="68.47"/><path class="cls-3" d="M411.23,179.36c-.42,9.45.43,23.48,8.27,36.71,11.91,20.07,28.2,18.45,40.23,31.73,19.62,21.68-2,49.94-8.31,136.16-2.93,40.23-2.39,91.42-2.39,91.42h0s-118.61,17.9-191.6-5.17c0,0,29.51-121.73,31.65-172.68,1.07-25.52,3.68-73.65,29.05-84.25,15.19-6.34,33.11,3.16,44.91-8.28,7.85-7.61,8.22-19.85,7.61-28Z"/><path class="cls-4" d="M459.73,247.8c19.62,21.68-2,49.94-8.31,136.16-2.93,40.23-2.39,91.42-2.39,91.42s-118.61,17.9-191.6-5.17c0,0,29.51-121.73,31.65-172.68,1.07-25.52,3.68-73.65,29.05-84.25,8.63-3.6,18.14-2.09,26.9-2.21h0c1.67,4.08,10.58,24.82,33.51,34,20.28,8.09,43.87,4.08,61.7-10.21h0C447.08,238.43,453.9,241.37,459.73,247.8Z"/><path class="cls-3" d="M453.79,147.41s-14.6,54-58.64,58.58-65.75-39.16-72-64C323.16,142,414.63,93.89,453.79,147.41Z"/><path class="cls-4" d="M456.24,244.43s19.73,12.23,23.05,45.81S494.23,410,494.23,410L445,415s-27.68-90.41-29.34-117.17S427.65,246.59,456.24,244.43Z"/><path class="cls-4" d="M322.6,420.38s162-33.42,171.59-10.2-18.68,60-171.59,41.91a72.91,72.91,0,0,1,0-31.71Z"/><path class="cls-5" d="M347.48,126.78a21.37,21.37,0,0,1,12.31-4c3-.08,7-.17,8.3,2.17a3.3,3.3,0,0,1-.08,3.31c-1.41,1.88-4.94.18-10.64.13-7.52-.07-12.4,2.78-12.89,1.7C344.12,129.29,346.53,127.49,347.48,126.78Z"/><path class="cls-5" d="M433.9,128a21.44,21.44,0,0,0-11.58-5.81c-2.95-.52-6.94-1.22-8.53.91a3.32,3.32,0,0,0-.41,3.29c1.11,2.07,4.86.91,10.51,1.71,7.44,1.05,11.84,4.59,12.49,3.6C436.85,131,434.73,128.84,433.9,128Z"/><path class="cls-6" d="M392.21,142.67s5.25,12.15,4.28,14.47-10.43,1.53-10.43,1.53"/><path class="cls-2" d="M394.08,179.59s-4.75,1.78-8.61-.07"/><ellipse class="cls-1" cx="350.49" cy="163.13" rx="5.19" ry="8.33" transform="matrix(0.02, -1, 1, 0.02, 181.39, 510.77)"/><ellipse class="cls-1" cx="428.5" cy="164.46" rx="5.19" ry="8.33" transform="translate(256.72 590.08) rotate(-89.02)"/><path class="cls-7" d="M366.26,150.8a6.18,6.18,0,1,1,.55-8.73A6.22,6.22,0,0,1,366.26,150.8Z"/><path class="cls-7" d="M424.62,152.47a6.19,6.19,0,1,1,0-8.74A6.2,6.2,0,0,1,424.62,152.47Z"/><path class="cls-8" d="M402.6,166.29a51,51,0,0,1-25.6,0,13.23,13.23,0,0,0,25.6,0Z"/><path class="cls-6" d="M413.1,200.88s-25,12.13-46.76,0"/><path class="cls-9" d="M430.57,287.29a83.13,83.13,0,0,0-7,35.8c.35,9.58,2.41,16.36,4,22.14a281.6,281.6,0,0,1,8.86,55.36"/><path class="cls-4" d="M359.77,206.27s16.41,11,34.31,10.8,24.18-5.17,27.32-4.06,19,21.28,29.42,27.52c0,0-42.71,26.73-43.81,26.73s-81-56-81-56,17.8-.36,22.37-1.13S359.77,206.27,359.77,206.27Z"/><path class="cls-9" d="M383.57,450.67s42,3.73,65.48,1.77"/><path class="cls-9" d="M383.76,412.84s45.57-16.2,85.8-10.87"/><path class="cls-5" d="M317.71,131.13s2.74,1.88,5.45,10.87,4.13,9.68,5.24.67S325,122.14,325,122.14s14.73-11.45,17.21-27.78,15-24.76,54.44-22.42,39.37,19.93,43,29.62,11.63,19.37,12.74,21.17-7.2,13.17-2.91,24.85c0,0,6.75-17,9.64-16.68a29.28,29.28,0,0,1,4.92,1s3.21-40.28-10.17-53.56l8.94,2.58s-5.49-5.53-16.49-10.7-28.53-28.42-43.48-33.95-26.38-4.06-26.38-4.06a28.33,28.33,0,0,1,11.44,7.93A27.06,27.06,0,0,1,391,44.73c-13.18-.5-22.69,2.49-29.2,4.42-14.95,4.43-32.66,19.56-32.66,19.56l9.78-1.84s-12.71,8.3-18.07,21S317.71,131.13,317.71,131.13Z"/><path class="cls-5" d="M328.47,76.16s-10.3,8.24-13.19,21.66-3.11,31.49,3.58,34.56,3.22-8.06,3.22-8.06L325,100.91l6.26-10.36Z"/><path class="cls-10" d="M338.18,87s-6,17.35-13.22,21.22"/><path class="cls-10" d="M349.81,61.89s19.19-8.68,34.13-4.06l-4.24-5.72s23.26,2.58,33.4,9.78,23.35,10,23.35,10"/><path class="cls-10" d="M444,87s11,13.47,13.82,25.93"/><path class="cls-10" d="M329,89.52s-1.93,8.58-6.71,10.93"/><path class="cls-10" d="M457.78,92s3.2,9.41,3,13.1"/><rect class="cls-11" x="285.32" y="33.77" width="3.61" height="19.31" rx="1.63" transform="translate(53.39 215.75) rotate(-45)"/><rect class="cls-11" x="285.32" y="33.77" width="3.61" height="19.31" rx="1.63" transform="translate(459.44 277.16) rotate(-135)"/><rect class="cls-11" x="255.36" y="127.73" width="4.58" height="24.51" rx="1.73" transform="translate(-23.52 223.19) rotate(-45)"/><rect class="cls-11" x="255.36" y="127.73" width="4.58" height="24.51" rx="1.73" transform="translate(340.85 421.16) rotate(-135)"/><rect class="cls-11" x="458.51" y="186.12" width="4.58" height="24.51" rx="1.73" transform="translate(-5.31 383.94) rotate(-45)"/><rect class="cls-11" x="458.51" y="186.12" width="4.58" height="24.51" rx="1.73" transform="translate(646.36 664.49) rotate(-135)"/><rect class="cls-12" x="14.12" y="188.09" width="337.23" height="254.19" rx="20.87"/><circle class="cls-13" cx="46.65" cy="215.07" r="7.52"/><circle class="cls-13" cx="78.48" cy="215.07" r="7.52"/><circle class="cls-13" cx="110.31" cy="215.07" r="7.52"/><rect class="cls-14" x="107.82" y="279.43" width="149.83" height="132.12" rx="13"/><path class="cls-14" d="M205.18,326.53H160.29A23.34,23.34,0,0,1,137,303.21V263.76a23.34,23.34,0,0,1,23.31-23.32h44.89a23.34,23.34,0,0,1,23.32,23.32v39.45A23.34,23.34,0,0,1,205.18,326.53Zm-44.89-75a12.25,12.25,0,0,0-12.24,12.25v39.45a12.25,12.25,0,0,0,12.24,12.25h44.89a12.26,12.26,0,0,0,12.25-12.25V263.76a12.26,12.26,0,0,0-12.25-12.25Z"/><circle class="cls-13" cx="182.74" cy="337.8" r="16.81"/><rect class="cls-13" x="178.17" y="347.98" width="9.13" height="31.36" rx="4.12"/><path class="cls-3" d="M372.13,415a122.18,122.18,0,0,1-27.31,0c-13.28-1.77-16.79-2.52-16.79,0s6.23,9.44,17.44,9.72c0,0-9.87,8.81-19.65,12.5s-35.06,3-37.83,5.09,1.48,5.79,6.83,8,49.82,7.34,62.37,4.41a205.14,205.14,0,0,1,26.38-4,61.38,61.38,0,0,0,2.26-9.6,64.74,64.74,0,0,0-2.07-28.23Z"/><path class="cls-3" d="M200.17,172.4c-5.27-1-10.24,6.88-11.68,9.17-5.92,9.37-7.14,22.31-4.26,23,3.19.8,13.55-16.85,13.55-16.85-.49,1.09-7.08,16.16-1.68,21.4a3,3,0,0,0,1.83,1c4.67.36,9.26-15,11-21.49-.33,8.28-.65,24.1,2.2,24.57,3,.5,8.18-16.35,10.42-24.1-1,15.07.38,18.92,2,19.31,4.63,1.15,14.11-23.65,11.89-30.16-1.5-4.4-11.19,0-11.19,0s-5.09-5.9-10.28-2.4a7,7,0,0,0-8.89.6C204.14,174.94,202.54,172.85,200.17,172.4Z"/><path class="cls-2" d="M197.78,187.75s2.61-7,7.29-11.25"/><path class="cls-2" d="M209,188.68s1.67-10,5-12.78"/><path class="cls-2" d="M224.24,178.3s-1.21,6-2.66,10.85"/></g></svg>
