<?xml version="1.0" encoding="UTF-8"?>
<svg xmlns="http://www.w3.org/2000/svg" viewBox="0 0 512 512" width="512" height="512"><defs><style>.cls-1{fill:#ffdb99;}.cls-2{fill:#aaeeea;}.cls-3{fill:#00ccc1;}.cls-4{fill:#ffb833;}.cls-5{fill:#ffc871;}.cls-11,.cls-12,.cls-6,.cls-8{fill:none;stroke-linecap:round;stroke-linejoin:round;}.cls-6,.cls-8{stroke:#383333;}.cls-6{stroke-width:0.75px;}.cls-7,.cls-9{fill:#383333;}.cls-12,.cls-8,.cls-9{fill-rule:evenodd;}.cls-10{fill:#ff832f;}.cls-11{stroke:#00ccc1;stroke-width:8px;}.cls-12{stroke:#fff;}</style></defs><g id="Warning"><path class="cls-1" d="M96.29,292.53S85.45,276.81,78.66,270,64.5,258.46,61.52,259.26s4.75,9.18,4.75,9.18A66.24,66.24,0,0,1,48,260.51c-8.37-5.53-13.78-11.67-17.29-9.1S38.15,275.73,49,285.49s22.14,17.53,28.31,27C77.33,312.49,97.58,305.52,96.29,292.53Z"/><path class="cls-1" d="M64.16,298.43A75.76,75.76,0,0,1,82,331.22l5.25,20.48,34-14.92S106.63,300.5,91,285.09Z"/><path class="cls-1" d="M410.25,297.62S422.54,283,430,276.86s15.19-10.13,18.08-9-5.6,8.67-5.6,8.67a66,66,0,0,0,19-6.14c8.86-4.7,14.83-10.31,18.08-7.42s-9.76,23.51-21.51,32.19-23.71,15.34-30.76,24.17C427.22,319.29,407.73,310.42,410.25,297.62Z"/><path class="cls-1" d="M441.67,306.55a75.85,75.85,0,0,0-20.88,30.95l-7.17,19.88-32.44-18.09s18-34.72,35.09-48.57Z"/><rect class="cls-2" x="30.07" y="71.87" width="125.29" height="109.49" rx="54.74"/><path class="cls-2" d="M109.29,171s5.4,24.2,25.11,26a1,1,0,0,0,1-1.35c-2-4.48-7-18.5.68-29.79Z"/><circle class="cls-3" cx="58.56" cy="126.62" r="9.18"/><circle class="cls-3" cx="92.71" cy="126.62" r="9.18"/><circle class="cls-3" cx="126.86" cy="126.62" r="9.18"/><rect class="cls-4" x="174.23" y="62.41" width="3.23" height="17.31" rx="1.62" transform="translate(1.26 145.15) rotate(-45)"/><rect class="cls-4" x="174.23" y="62.41" width="3.23" height="17.31" rx="1.62" transform="translate(249.94 245.65) rotate(-135)"/><rect class="cls-4" x="360.63" y="264.01" width="3.23" height="17.31" rx="1.62" transform="translate(-86.7 336.01) rotate(-45)"/><rect class="cls-4" x="360.63" y="264.01" width="3.23" height="17.31" rx="1.62" transform="translate(425.59 721.61) rotate(-135)"/><rect class="cls-4" x="127.87" y="234.21" width="4.1" height="21.97" rx="1.73" transform="translate(-135.33 163.68) rotate(-45)"/><rect class="cls-4" x="127.87" y="234.21" width="4.1" height="21.97" rx="1.73" transform="translate(48.4 510.45) rotate(-135)"/><rect class="cls-4" x="355.12" y="91.88" width="4.1" height="21.97" rx="1.73" transform="translate(31.88 282.69) rotate(-45)"/><rect class="cls-4" x="355.12" y="91.88" width="4.1" height="21.97" rx="1.73" transform="translate(537 428.16) rotate(-135)"/><path class="cls-1" d="M266,218.51s-.1,16.7,4.11,25,25.38,8.8,41.69,21.51-3,52.32-.78,168.38c0,0-91.64,15.64-139.23,0,0,0,10.18-69.11,6.72-117.36s4.69-54.77,14.79-59,34.23-10.43,36.52-15.64,4.23-22.9,4.23-22.9Z"/><path class="cls-5" d="M196.85,164.08a12.84,12.84,0,0,0-9.56-3.71,9.83,9.83,0,0,0-5.86,2.2c-5.33,5-3.29,20.7,5.91,24.74,5.14,2.26,10.6,0,12.44-.82Q198.31,175.29,196.85,164.08Z"/><path class="cls-6" d="M183.61,169.59l8.87-.41s-9,5.62-1.47,12.92"/><path class="cls-5" d="M306.67,164.08a12.84,12.84,0,0,1,9.56-3.71,9.83,9.83,0,0,1,5.86,2.2c5.33,5,3.29,20.7-5.91,24.74-5.14,2.26-10.6,0-12.44-.82Q305.21,175.29,306.67,164.08Z"/><path class="cls-6" d="M319.91,169.59l-8.87-.41s9,5.62,1.47,12.92"/><circle class="cls-1" cx="251.05" cy="157.74" r="60.76"/><path class="cls-1" d="M311.77,155.33c-.26,7.1-2.22,42.74-29.51,63.22-5,3.76-15.24,11.22-29.61,11.77-26.52,1-44.17-22.38-47.69-27-12.29-16.28-14.22-33.68-14.55-41.82C190.41,161.45,257.36,114.7,311.77,155.33Z"/><path class="cls-7" d="M210.9,158.28A19.39,19.39,0,0,1,222,154.65c2.7-.07,6.36-.15,7.48,2a3,3,0,0,1-.07,3c-1.27,1.7-4.45.16-9.6.11-6.78-.06-11.19,2.51-11.64,1.54C207.87,160.55,210.05,158.92,210.9,158.28Z"/><path class="cls-7" d="M289,158.05a19.43,19.43,0,0,0-11.17-3.47c-2.7,0-6.36-.06-7.46,2.07a3,3,0,0,0,.12,3c1.29,1.68,4.45.09,9.6,0,6.78-.16,11.22,2.35,11.66,1.37C292.08,160.27,289.88,158.68,289,158.05Z"/><path class="cls-8" d="M249.7,169.16s-4.74,11-3.87,13.06,9.41,1.38,9.41,1.38"/><path class="cls-6" d="M252.49,203.21s-4.29,1.61-7.77-.06"/><ellipse class="cls-5" cx="213.62" cy="191.08" rx="4.68" ry="7.51" transform="translate(18.91 401.4) rotate(-89.02)"/><ellipse class="cls-5" cx="284.02" cy="192.29" rx="4.68" ry="7.51" transform="translate(86.9 472.97) rotate(-89.02)"/><path class="cls-9" d="M228,176.31a5.58,5.58,0,1,1,.49-7.87A5.6,5.6,0,0,1,228,176.31Z"/><path class="cls-9" d="M280.64,177.82a5.59,5.59,0,1,1,0-7.89A5.6,5.6,0,0,1,280.64,177.82Z"/><path class="cls-10" d="M332.65,273.6c-2.52-2.47-5.39-4.25-10.27-7.21a111.55,111.55,0,0,0-37.26-14.22c-2.37-.83-4.59-1.63-6.56-2.46,0,0-6.87,11.66-25.6,11.17-14.63-.38-26.83-9.86-31.47-14-1.82.79-3.84,1.57-5.94,2.34l0-.44a236.61,236.61,0,0,1-25.79,7,58.5,58.5,0,0,0-9.41,2.57,31.3,31.3,0,0,0-14.39,7.86c-16.35,16.29-5.71,47.63-1.46,82.44,2.46,20.22,3.71,49.25-2.61,85.61q9.74,2.67,20.14,4.82c55.15,11.31,105.66,6.28,146.36-3.35A381.15,381.15,0,0,1,333,353.55C338.47,321.13,348.38,289,332.65,273.6Z"/><path class="cls-10" d="M75.62,318.83c10.66,45.33,29.11,106.44,52.44,106.68,8.78.09,20.15-8.41,23.6-18.68,3.74-11.16-2.57-22.12-8.69-33-8.43-15-20.36-36.91-35.28-66.32a95.1,95.1,0,0,0-12.56,2.89A94.09,94.09,0,0,0,75.62,318.83Z"/><path class="cls-10" d="M428.32,325.77C413.39,369.88,389.2,429,366,427c-8.75-.75-19.26-10.29-21.71-20.85-2.66-11.46,4.67-21.77,11.8-32.05,9.82-14.15,23.79-34.8,41.44-62.65a92.85,92.85,0,0,1,12.22,4.07A94.17,94.17,0,0,1,428.32,325.77Z"/><path class="cls-8" d="M266.47,227.55s-16.89,6.17-33.45-1"/><path class="cls-10" d="M173.9,261.74A39,39,0,0,0,150,291.2c-4.11,22.74-35.77,103.85-35.77,103.85l35,17.22s27-27.48,34-63.82C183.23,348.45,195.47,295.81,173.9,261.74Z"/><path class="cls-10" d="M317.42,264.63a39,39,0,0,1,25.05,28.51c5,22.56,39.78,102.38,39.78,102.38l-34.32,18.56s-28-26.41-36.45-62.44C311.48,351.64,297.19,299.51,317.42,264.63Z"/><path class="cls-9" d="M257.06,99.24c-17.61,2.64-30.41,30-42.05,37.49-3.93,2.51-8.48,5.21-8.48,5.21a56.59,56.59,0,0,1-6.19,3.59c-9.64,6.06-4,34.13-6.61,34.72-1.32.29-5.38-7.45-8.31-20.54-3.2-14.32-9.18-41.09,5.85-61.49A52.59,52.59,0,0,1,205,85.51,55.66,55.66,0,0,1,231.7,77c22.45-1.73,39.57,9.73,45,13.69,4-.36,25.84-2,36.52,11.74,6.68,8.62,5.65,19.11,3.58,40.09-1.69,17.14-6.06,34.12-8.07,33.89-.61-.07-.8-4.12-2-12.09-2.47-16.19-4.3-19.53-5.3-21.1-2.82-4.48-4.09-2.56-10.75-9.46A97.4,97.4,0,0,1,274,110c-1.8-3.49-3.09-6.47-3.91-8.47C264.36,98.84,260,98.8,257.06,99.24Z"/><path class="cls-8" d="M174.42,272.67S181,270.31,166,390.31"/><path class="cls-8" d="M325,281.65s-1.85,79.23,3.74,108.71"/><path class="cls-8" d="M357.06,399.07s-1-24.61,10.4-41.69"/><path class="cls-8" d="M130.54,351.7s14.05,29.19,10,46.15"/><path class="cls-11" d="M400.7,240.32H341.46a14.72,14.72,0,0,1-12.75-22.09l29.62-51.31L388,115.61a14.73,14.73,0,0,1,25.5,0l29.63,51.31,29.62,51.31A14.73,14.73,0,0,1,460,240.32Z"/><path class="cls-2" d="M401.73,210.37h-2.06a5,5,0,0,1-5-4.82L392,143.2a5,5,0,0,1,5-5.24h7.32a5,5,0,0,1,5,5.24l-2.63,62.35A5,5,0,0,1,401.73,210.37Z"/><circle class="cls-2" cx="400.7" cy="221.58" r="8.25"/><path class="cls-12" d="M258.67,93.82s-19.46-1.5-28.8,7-19.72,33.63-37.39,31.92"/><path class="cls-12" d="M221.14,90.64s-12.7,22.25-28.66,24.45"/><path class="cls-12" d="M280.92,102.86S290.7,131,308.06,134.4"/><path class="cls-12" d="M298.53,104.58s4,15.89,15.83,18.33"/><path class="cls-8" d="M240.05,194.47a9.63,9.63,0,0,0,9.42,5.46c5.19-.47,7.58-5.22,7.69-5.46"/></g></svg>
