<?xml version="1.0" encoding="UTF-8"?>
<svg xmlns="http://www.w3.org/2000/svg" viewBox="0 0 512 512" width="512" height="512"><defs><style>.cls-1{fill:#aaeeea;}.cls-11,.cls-13,.cls-2,.cls-6,.cls-7{fill:none;stroke-linecap:round;stroke-linejoin:round;}.cls-2{stroke:#00ccc1;stroke-width:2px;}.cls-3{fill:#00ccc1;}.cls-14,.cls-4{fill:#383333;}.cls-5{fill:#d89071;}.cls-11,.cls-6,.cls-7{stroke:#383333;}.cls-6{stroke-width:0.75px;}.cls-14,.cls-7{fill-rule:evenodd;}.cls-8{fill:#d17352;}.cls-9{fill:#fff;}.cls-10{fill:#ffb833;}.cls-12{fill:#ff535c;}.cls-13{stroke:#fff;}</style></defs><g id="Analysis"><rect class="cls-1" x="16.6" y="33.65" width="269.13" height="323.75" rx="20.43"/><polyline class="cls-2" points="59.12 88.34 59.12 315.4 254.84 315.4"/><rect class="cls-3" x="78.45" y="174.52" width="33.98" height="127.11"/><rect class="cls-3" x="135.2" y="141.91" width="33.98" height="159.71"/><rect class="cls-3" x="191.6" y="117.07" width="33.98" height="184.55"/><path class="cls-4" d="M271.57,171s-40.66,80.09,19.87,87,66.22-80.12,56.71-95.25S271.57,171,271.57,171Z"/><circle class="cls-5" cx="331.6" cy="127.74" r="74.01"/><path class="cls-5" d="M314.82,181.21c1.53,12.26,1.73,30.25-9.18,43.08-10.72,12.61-22.44,8.62-33.43,17.18-23.55,18.34-6.44,65.18-5.86,127.29a363.27,363.27,0,0,1-11.89,94.64,212.76,212.76,0,0,0,162.59-6.12A287.13,287.13,0,0,1,405,403.42c-10.37-83.6,19-153.71-5.44-167.86-8.6-5-19.73-.4-29.47-10.74-6-6.39-7.74-14.54-9.52-22.43a80.16,80.16,0,0,1-1-29.56Z"/><path class="cls-5" d="M257.59,86.08c-8.71,55.1,0,102.23,26.34,115.83,6.62,3.42,13.51,4.29,19.07,5,36.37,4.3,64.94-14.15,76.54-22.74C379.54,184.12,349.91-8.56,257.59,86.08Z"/><path class="cls-5" d="M377.57,121.2c.79-.78,5.12-4.85,11.33-4.4.9.07,4.51.34,7,2.61,6.31,5.91,3.89,24.55-7,29.34-6.1,2.68-12.57,0-14.75-1Z"/><path class="cls-6" d="M393.26,127.73l-10.52-.48s10.71,6.66,1.75,15.32"/><path class="cls-4" d="M347.84,112.76a22.91,22.91,0,0,0-13.17-4.31c-3.21-.08-7.54-.18-8.88,2.33a3.51,3.51,0,0,0,.09,3.54c1.5,2,5.28.19,11.38.14,8-.08,13.26,3,13.79,1.82C351.44,115.44,348.86,113.52,347.84,112.76Z"/><path class="cls-4" d="M265.65,113.3a23,23,0,0,1,13.25-4c3.21,0,7.55,0,8.83,2.51a3.49,3.49,0,0,1-.15,3.53c-1.55,2-5.29.09-11.39-.08-8-.23-13.32,2.71-13.82,1.55C262,115.92,264.62,114,265.65,113.3Z"/><path class="cls-7" d="M300,129.76s-5.61,13-4.58,15.48,11.16,1.63,11.16,1.63"/><path class="cls-6" d="M299,176.78s5.09,1.91,9.22-.07"/><ellipse class="cls-8" cx="344.62" cy="151.64" rx="8.91" ry="5.55" transform="translate(-2.55 5.93) rotate(-0.98)"/><ellipse class="cls-8" cx="271.57" cy="153.94" rx="8.91" ry="5.55" transform="translate(-2.6 4.67) rotate(-0.98)"/><path class="cls-9" d="M291.44,159.49a20.78,20.78,0,0,0,25.5,0c.44,7.35-5.51,13.28-12.75,13.62C295.68,173.5,291.58,163.48,291.44,159.49Z"/><path class="cls-5" d="M296.26,233.66c-10.31-.09-26.43,1.5-37.88,12.6-11.07,10.73-12.5,25.23-13.77,34.66-2.77,20.59-9.26,50-25.82,88.52L257.53,379S311.9,292.94,296.26,233.66Z"/><path class="cls-5" d="M135.2,351.77C197,378.53,247,393.92,257.53,379c3.7-5.27,1.39-12.69.85-14.45C251.67,343,212.65,331.66,162,333.42Z"/><path class="cls-5" d="M139.2,353.5s-53.36-19.06-52.6-22.37,1.79-5.86,17.59-3.82,26.76,2.8,36.95.76,22.94,5.17,22.94,5.17S154.33,352.67,139.2,353.5Z"/><path class="cls-10" d="M216.78,87V63.24a2,2,0,1,1,4-.05V87.06a2,2,0,1,1-4,0Z"/><path class="cls-10" d="M206.85,77.14a2,2,0,1,1,.05-4h23.78a2,2,0,1,1,0,4Z"/><path class="cls-10" d="M191.6,416.4a1.54,1.54,0,0,1-1.53-1.53v-18.2a1.54,1.54,0,1,1,3.07,0v18.2A1.54,1.54,0,0,1,191.6,416.4Z"/><path class="cls-10" d="M182.5,407.3a1.54,1.54,0,0,1,0-3.07h18.2a1.54,1.54,0,1,1,0,3.07Z"/><path class="cls-10" d="M449.22,191.12a1.53,1.53,0,0,1-1.53-1.53v-18.2a1.54,1.54,0,1,1,3.07,0v18.2A1.54,1.54,0,0,1,449.22,191.12Z"/><path class="cls-10" d="M440.12,182a1.54,1.54,0,0,1,0-3.07h18.2a1.54,1.54,0,1,1,0,3.07Z"/><path class="cls-11" d="M348.15,199.89s-17.41,9.05-34.22,7.61"/><path class="cls-5" d="M379.54,230.9s32.26-.78,43.13,22,17,115.19,17,115.19c-1.53,6.62-4.71,9.8-6.45,11.22-8.76,7.09-25.46,4.94-39.95-7.14Q386.41,301.52,379.54,230.9Z"/><path class="cls-5" d="M443.64,264.34c-4.2,9.82-10.39,24.53-17.57,42.58-19.67,49.44-22.5,62.78-16.07,70.27,5,5.85,14.61,6.94,21.1,5.65,36.21-7.16,43-101.22,43.22-105.15a54.24,54.24,0,0,0-30.68-13.35Z"/><path class="cls-10" d="M364.4,209.05s-25.66,13.42-59,9c0,0,.17,9-19.71,14.27S262,243.19,262,243.19s4.45,26,0,40.62-8.47,27.18-2.38,46.55,2.69,97.53-9.54,133.55c0,0,101.94,44.17,172.62-9.52,0,0-32.92-103.28-23.39-159.71,0,0,9.79-52.6,8.86-56.82s-25.9-7.4-30.49-10S364.4,209.05,364.4,209.05Z"/><path class="cls-1" d="M453.72,227H487a0,0,0,0,1,0,0V349.56a15.63,15.63,0,0,1-15.63,15.63h-1.87a15.8,15.8,0,0,1-15.8-15.8V227a0,0,0,0,1,0,0Z"/><rect class="cls-1" x="449.22" y="221.77" width="42.31" height="11.65" rx="5.5"/><path class="cls-12" d="M467.1,274.45c-2.23-4.33-6.08-5.14-9.3-4.92v78.92a12.68,12.68,0,0,0,12.66,12.66A12.5,12.5,0,0,0,483,348.63V276.8C477.37,278.46,469.74,279.57,467.1,274.45Z"/><path class="cls-5" d="M443.07,265.66s3.65-13.62,6.15-16.85,15.08-8,16.86-6-5.35,7.44-8.28,11.18-4.08,13.8-4.08,13.8S444.27,270.4,443.07,265.66Z"/><path class="cls-5" d="M487,274.24s-.34-5.41-2.22-6.68-8.07-3.62-7.93-7.88,7.68-1,7.68-1-8.76-5.15-7.41-7.85,6.91-1.37,6.91-1.37-6.8-3.51-6.49-6.9,7-.38,7-.38-6.56-3.39-5.44-5.83,9.3-1.38,12.89,2.55-.52,6.53-.52,6.53,2.94,3.59-.56,5.78a7.53,7.53,0,0,1,1.19,3.4,8.12,8.12,0,0,1-2.13,6c2.42,4.3,2.47,8.94.14,11.67A7.09,7.09,0,0,1,487,274.24Z"/><path class="cls-6" d="M489.75,261a17.07,17.07,0,0,0-6.65-3"/><path class="cls-6" d="M490.85,251.17s-6.54-1.69-6.86-1.75"/><path class="cls-6" d="M491.41,245.39s-5.51-2.84-7.53-3.5"/><path class="cls-4" d="M302.59,67.35s-9.95,35.69-46.7,31.36c0,0-16.67-54.81,45-49.71a74.52,74.52,0,0,1,29.67-15.63c19.85-5.13,42.77-1.88,58.78,9.18,45.39,31.33,34,124.49,12.75,146.11-1.63,1.66-5.08,4.71-5.31,9.23-.71,13.93,30.51,25.32,36.4,37.12,7.13,14.31-5.69,33.5-5.69,33.5s-7.31-29.22-20.61-28-6.82,30.25-32.82,40.44-45.38,3.57-45.38,3.57S369,258.92,364.4,235s-22.26-41.2-10.88-58.3,17-28.27,22.79-28,13.78,6.08,20-7.12,1.77-23.57-5-25-10.92,5.36-14.47,10.71-9.82,2.46-7.11-5.7,2.13-22.34.6-26.93S306.78,100,302.59,67.35Z"/><path class="cls-11" d="M411.29,361.11s-1.16-26.62,20.57-68.57"/><path class="cls-11" d="M229.78,341.26s20.28,11.28,24.05,22.49"/><path class="cls-13" d="M313.93,62.59s25.2,33.31,65.61,17"/><path class="cls-13" d="M342.82,67.69s31.9,15.63,50.44,1.7"/><path class="cls-13" d="M295.27,63.24s-12.18,25.7-32.61,25.1"/><path class="cls-13" d="M382.74,167.93s-20.2,21.07-8.65,41.12,17,45.67,0,55.29"/><path class="cls-13" d="M393.26,213.13s27.38,17.77,29.41,28.76"/><path class="cls-13" d="M408,96.57s8.93,47.24-6.36,65.59"/><path class="cls-13" d="M275.23,203.77s-10,20.28,6.22,23.82"/><path class="cls-14" d="M335.58,137.41a6.56,6.56,0,1,1-.43-9.26A6.57,6.57,0,0,1,335.58,137.41Z"/><path class="cls-14" d="M341.67,128.78c-.14-.12-1.46,2.09-3.11,1.9-1.22-.14-1.51-1.48-3-2.68a7.83,7.83,0,0,0-4.6-1.56,16.54,16.54,0,0,0,2.58,3.87c1.47,1.65,2.42,2.72,3.73,2.75C339.89,133.14,341.86,129,341.67,128.78Z"/><path class="cls-14" d="M279.17,138.38a6.56,6.56,0,1,1,.11-9.27A6.58,6.58,0,0,1,279.17,138.38Z"/><path class="cls-14" d="M263.5,129.85c.14-.13,1.53,2,3.17,1.79,1.21-.18,1.46-1.53,2.95-2.78a7.87,7.87,0,0,1,4.55-1.71,17.27,17.27,0,0,1-2.45,3.95c-1.42,1.7-2.33,2.79-3.64,2.88C265.43,134.15,263.31,130,263.5,129.85Z"/></g></svg>
