<?xml version="1.0" encoding="UTF-8"?>
<svg xmlns="http://www.w3.org/2000/svg" viewBox="0 0 512 512" width="512" height="512"><defs><style>.cls-1{fill:#ffb833;}.cls-2{fill:#ffdb99;}.cls-12,.cls-14,.cls-3,.cls-5{fill:none;stroke-linecap:round;stroke-linejoin:round;}.cls-12,.cls-3,.cls-5{stroke:#383333;}.cls-3{stroke-width:0.75px;}.cls-4,.cls-7{fill:#383333;}.cls-14,.cls-5,.cls-7{fill-rule:evenodd;}.cls-6{fill:#ffc871;}.cls-8{fill:#fff3e3;}.cls-9{fill:#aaeeea;}.cls-10{fill:#00ccc1;}.cls-11{fill:#00b5a8;}.cls-13{fill:#ff535c;}.cls-14{stroke:#fff;}.cls-15{fill:#fff;}</style></defs><g id="Anatomy"><path class="cls-1" d="M253.61,56.14V32.6a2,2,0,0,1,1.33-2,2,2,0,0,1,2.67,1.88V56.21a2,2,0,0,1-2.67,1.89A2,2,0,0,1,253.61,56.14Z"/><path class="cls-1" d="M243.77,46.37a2,2,0,0,1-1.89-2.67,2,2,0,0,1,2-1.32h23.53a2,2,0,0,1,2,1.32,2,2,0,0,1-1.88,2.67Z"/><path class="cls-1" d="M242.62,211.05a1.52,1.52,0,0,1-1.52-1.52V191.48a1.53,1.53,0,0,1,3.05,0v18.05A1.53,1.53,0,0,1,242.62,211.05Z"/><path class="cls-1" d="M233.6,202a1.53,1.53,0,0,1,0-3.05h18.05a1.53,1.53,0,0,1,0,3.05Z"/><path class="cls-1" d="M45.72,227.72a1.52,1.52,0,0,1-1.52-1.52V208.14a1.52,1.52,0,0,1,3,0V226.2A1.52,1.52,0,0,1,45.72,227.72Z"/><path class="cls-1" d="M36.69,218.69a1.52,1.52,0,0,1,0-3H54.74a1.52,1.52,0,1,1,0,3Z"/><circle class="cls-2" cx="147.06" cy="127.09" r="73.42"/><path class="cls-2" d="M165,179.08c-3,13.53-4.86,32.43,5.53,46.11,8.09,10.66,16.69,8.92,26,15.9,26,19.42,8.19,69.29,13.73,139.47a353.61,353.61,0,0,0,13.73,73A133.11,133.11,0,0,1,65,445.6a155.46,155.46,0,0,0,10.84-30.36c14.57-59.93-8.44-123.83,3.58-158.92,2.19-6.39,4.93-14.41,12.46-20.59,7.73-6.35,13.56-5.08,19.51-11.93,4.6-5.28,5.53-11.1,6.91-20.47a99.08,99.08,0,0,0-.87-33.17Z"/><path class="cls-2" d="M220.47,85.76c8.64,54.66,0,101.41-26.12,114.9-6.57,3.39-13.41,4.26-18.92,4.91-36.08,4.27-64.42-14-75.93-22.55C99.5,183,128.9-8.12,220.47,85.76Z"/><path class="cls-2" d="M101.46,120.6c-.79-.77-5.08-4.81-11.24-4.36-.9.07-4.48.33-6.89,2.59-6.26,5.86-3.86,24.35,7,29.1,6,2.65,12.47,0,14.63-1Z"/><path class="cls-3" d="M85.89,127.08l10.44-.48s-10.62,6.61-1.73,15.19"/><path class="cls-4" d="M134.16,112.23A22.72,22.72,0,0,1,147.23,108c3.18-.08,7.48-.19,8.81,2.31a3.5,3.5,0,0,1-.09,3.51c-1.49,2-5.24.19-11.29.13-8-.07-13.16,3-13.68,1.81C130.6,114.89,133.15,113,134.16,112.23Z"/><path class="cls-4" d="M212.48,112.77a22.69,22.69,0,0,0-13.15-4c-3.18,0-7.48,0-8.76,2.48a3.48,3.48,0,0,0,.16,3.51c1.53,2,5.24.09,11.29-.08,8-.23,13.21,2.69,13.71,1.53C216.1,115.36,213.5,113.5,212.48,112.77Z"/><path class="cls-5" d="M178.42,129.09S184,142,183,144.45s-11.07,1.62-11.07,1.62"/><path class="cls-3" d="M182.07,174.84s-5,1.89-9.15-.07"/><ellipse class="cls-6" cx="134.15" cy="150.8" rx="5.5" ry="8.84" transform="translate(-18.93 282.34) rotate(-89.02)"/><ellipse class="cls-6" cx="206.61" cy="153.08" rx="5.5" ry="8.84" transform="translate(50.01 357.03) rotate(-89.02)"/><path class="cls-7" d="M153.63,138.11a6.51,6.51,0,1,1,.42-9.19A6.53,6.53,0,0,1,153.63,138.11Z"/><path class="cls-7" d="M138.38,129.13c.14-.13,1.44,2.06,3.08,1.88,1.21-.14,1.5-1.47,3-2.66a7.69,7.69,0,0,1,4.56-1.54,16.8,16.8,0,0,1-2.56,3.83c-1.46,1.64-2.4,2.7-3.7,2.73C140.14,133.45,138.19,129.29,138.38,129.13Z"/><path class="cls-7" d="M207.29,138.54a6.51,6.51,0,1,1-.11-9.2A6.53,6.53,0,0,1,207.29,138.54Z"/><path class="cls-7" d="M213.62,130.18c-.13-.12-1.51,2-3.15,1.78-1.2-.18-1.44-1.52-2.92-2.76a7.76,7.76,0,0,0-4.51-1.69,16.76,16.76,0,0,0,2.43,3.91c1.41,1.69,2.31,2.78,3.61,2.86C211.71,134.45,213.81,130.35,213.62,130.18Z"/><path class="cls-2" d="M101.57,230.27s-27.73,4.55-40,22.26-29.27,88.88-29.27,88.88l39,12.29a444.87,444.87,0,0,0,21-66.48A446.42,446.42,0,0,0,101.57,230.27Z"/><path class="cls-2" d="M179.79,233s18.61,3.8,33.92,16.26S247.27,353.7,247.27,353.7l-45.75,18.43S154.22,260.14,179.79,233Z"/><path class="cls-8" d="M113.37,210.22s33.93,7.76,56.91,2.36c0,0,4.63,13.39,9.92,17.69s19.77,7.59,32.93,16.36,27.37,76.51,27.37,76.51a95.13,95.13,0,0,1-25,13.75s3.7,80.63,14.15,115.69c0,0-82.58,66.57-168.53-5.73,0,0,20.81-63.54,14.95-117.22s-4.76-84.6,0-90,28.53-12,32.83-15.39S113.37,210.22,113.37,210.22Z"/><path class="cls-8" d="M38.5,317.25l41.73,12.38,4.48-95.16s-19.2,7.15-28,20.95S38.5,317.25,38.5,317.25Z"/><path class="cls-5" d="M129.14,198.29s20.06,7.1,34,7.91"/><rect class="cls-9" x="281.52" y="87.12" width="200.21" height="289.44"/><rect class="cls-10" x="281.52" y="68.11" width="200.21" height="49.89"/><ellipse class="cls-10" cx="381.63" cy="68.11" rx="100.11" ry="16.52"/><ellipse class="cls-10" cx="381.63" cy="117.99" rx="100.11" ry="16.52"/><rect class="cls-10" x="281.52" y="362.71" width="200.21" height="49.89"/><ellipse class="cls-11" cx="381.63" cy="362.71" rx="100.11" ry="16.52"/><ellipse class="cls-10" cx="381.63" cy="412.59" rx="100.11" ry="16.52"/><path class="cls-8" d="M328.52,248.91s5.93-2.88,9.17-17.77,10.57-47.65,61.92-42.76,58.61,34.73,61.15,56.9S444.22,291.73,433.15,295s-39.9,10.17-44.42,7.62-9.46-8.22-12.82-5.55-12.81,23-18.46,23.33-46.64-8.93-48.7-14.6,7-16.83,9.13-23.37,4.13-18.19,2.18-24.86S321.8,251.36,328.52,248.91Z"/><path class="cls-4" d="M365.21,257.37c-6.78,5.84-20.94.65-21.95-5.24s-.31-9.19-.9-14.35,6.38-9.79,6.38-9.79c5-4.93,17.12,6,20.3,10.82S372,251.53,365.21,257.37Z"/><path class="cls-12" d="M315.68,287.32s20.95,12.06,29.59,10.68,12.48-15.53,12.48-15.53-25.32,1-37.31-12"/><path class="cls-12" d="M321.1,271.18s-3,7.92-1,8.83,6.22-3.76,6.22-3.76-2.21,6,.58,7.5,5.95-4.48,5.95-4.48-1.28,6.72,1.34,7.53,5.74-6.21,5.74-6.21-.73,8.4,2.48,8.51,6.06-7,6.06-7"/><path class="cls-12" d="M316.62,287.85s2-7.93,5.18-7,.47,9.94.47,9.94,2.41-7,5.38-6.3-.22,8.74-.22,8.74,3.76-6.29,7.18-5.05-.13,7.89-.13,7.89,4-6.87,6.88-6.11.69,8,.69,8"/><path class="cls-12" d="M378.36,232.63s5.38,4.18,5.84,7.92-4.52,9.92-4.52,9.92"/><path class="cls-12" d="M389.16,246.09s.78,6.44-3,9.25"/><path class="cls-12" d="M362.2,268.05s11.7.07,11.47,5.39-7.74,14.8-7.74,14.8"/><path class="cls-12" d="M374.16,269.29s4.78,1.45,4,5.69"/><path class="cls-12" d="M439.67,284.81s-5.85,8.8-12.14,8.19"/><path class="cls-12" d="M451.83,258.76s-4.3,17.44-9.29,21"/><circle class="cls-10" cx="322.34" cy="172.51" r="6.66"/><circle class="cls-10" cx="417.77" cy="323.27" r="7.75"/><circle class="cls-10" cx="439.94" cy="164.76" r="14.41"/><path class="cls-12" d="M281.52,68.11s107.77,38.25,200.21,0"/><path class="cls-1" d="M232.16,420.28l-89.8-4.9C135,415,129.87,409,131.05,402l25.79-154.31c1.17-7,8-11,15.06-9l86.52,24.58c5.51,1.56,9.09,7.7,8.08,13.74L244.27,409.92C243.27,416,237.88,420.6,232.16,420.28Z"/><path class="cls-2" d="M141.85,321.44c-12.54,1.72-30.33,4-51.83,6.07-36.72,3.57-52.47,3.58-57.74,13.9-3.78,7.42-1,17.91,3.9,24,13.68,17.06,54,12.56,101.07-9.18Q139.55,338.84,141.85,321.44Z"/><path class="cls-2" d="M129.71,325.57s8.27-18.45,16-21.27,22.58-8.39,25.11-5-16.18,12.62-16.18,12.62,16.39-5.54,17.54-2.34S155,323.14,155,323.14s4.43-1.63,9.13-2.87c1.8-.48,10.12-2.15,10.76-.6.4,1-2.06,3.62-15.67,11.21,3-1.08,9.73-3.14,11.79-.41a.94.94,0,0,1,.26.43c.68,3.07-18.17,9.48-20.45,15.74-2.39,6.57-9.35,9.29-16,10.71C134.83,357.35,123.81,334.17,129.71,325.57Z"/><rect class="cls-13" x="204.36" y="249.57" width="37.74" height="16.45" rx="2.81" transform="translate(69.19 -46.44) rotate(14.04)"/><path class="cls-4" d="M163.12,65.35s2.6,20.17-24.76,36.13S114,150.13,121.88,164.37s1.51,24.1-2.78,25.11,6.57-4.55-.51-16.43-14.92-14-14.16-29.77-1.62-28.73-14.21-27-12.25,23.86-4.33,30,18.29,1.39,21.32,18.16,8.6,24.1,12.64,30.42S76,207.26,70.56,178.61,50.05,123.1,65,101.48,79,65,96.33,49.17s54.81-13,67.78,2.42c0,0,17.18-11,44.23,2.08s15.37,58.94,15.37,58.94S202.43,67.38,163.12,65.35Z"/><path class="cls-4" d="M79.92,87.12S45.37,90.32,38.5,73.79s1-24.25,20.08-33.79S96.33,68.11,96.33,68.11,93.33,84.1,79.92,87.12Z"/><path class="cls-3" d="M153,334.84s3.8-3.45,7.7-4.45"/><path class="cls-3" d="M149.56,326.12s1.14-1.53,5.43-3"/><path class="cls-3" d="M147.16,314.62a57.35,57.35,0,0,1,7.5-2.72"/><path class="cls-5" d="M38.5,336.7s12.83-8.92,37.45-8.34"/><path class="cls-14" d="M168.9,62.91s37.41-6.15,49.8,26.71"/><path class="cls-14" d="M83.2,94.34s33.14,3.84,51-18.3"/><path class="cls-14" d="M79.92,108.75s39.62,16.94,58.44-34.3"/><path class="cls-14" d="M72.47,124s-5.58,30,7.45,37.42"/><path class="cls-14" d="M54.12,56.25s8.79-15.17,17.17-8.59A29.93,29.93,0,0,1,81.68,62.45"/><path class="cls-14" d="M58.58,59.82s-16.08,4-11.53,10.34S71.29,76,71.29,76"/><path class="cls-14" d="M82.44,150.8s2.23,20.22,22.47,16.94"/><path class="cls-14" d="M75.6,168.1s7.41,28,33.54,18.85"/><path class="cls-5" d="M129.33,332.51s-1.45-5.91,1.68-9.63"/><path class="cls-15" d="M164.09,158.58h23.43s-.16,13.46-10,13.62S164.09,158.58,164.09,158.58Z"/></g></svg>
