<?xml version="1.0" encoding="UTF-8"?>
<svg xmlns="http://www.w3.org/2000/svg" viewBox="0 0 512 512" width="512" height="512"><defs><style>.cls-1{fill:#d89071;}.cls-2{fill:#d17352;}.cls-12,.cls-13,.cls-3,.cls-5,.cls-9{fill:none;stroke-linecap:round;stroke-linejoin:round;}.cls-3,.cls-5,.cls-9{stroke:#383333;}.cls-3{stroke-width:0.75px;}.cls-4,.cls-6{fill:#383333;}.cls-5,.cls-6{fill-rule:evenodd;}.cls-7{fill:#fff3e3;}.cls-8{fill:#ffb833;}.cls-10{fill:#aaeeea;}.cls-11{fill:#00ccc1;}.cls-12,.cls-13{stroke:#fff3e3;}.cls-12{stroke-width:4px;}</style></defs><g id="Chemical_Reaction" data-name="Chemical Reaction"><path class="cls-1" d="M345.64,275.84c-.08,3.48,4.57,8.53,26.26,15.16,2.88-10.65,7.5-17.26,11.25-21.36,4.64-5.07,7.19-5.46,13.05-12.23,4.55-5.27,11.88-15.27,9.45-18.27-.92-1.14-3-.91-4.73-.65-13.89,2-20.26,7.64-33.75,12.23-7.21,2.45-11.19,2.83-13.86,6.85-1.43,2.15-1.22,3.44-3.75,9.46C346.81,273.55,345.68,274.15,345.64,275.84Z"/><path class="cls-2" d="M267.65,135.24c.81-.8,5.24-5,11.59-4.5.92.07,4.62.34,7.11,2.67,6.45,6,4,25.11-7.17,30-6.24,2.74-12.86,0-15.09-1Q265.86,148.83,267.65,135.24Z"/><path class="cls-3" d="M283.7,141.92l-10.76-.49s10.95,6.81,1.79,15.67"/><path class="cls-2" d="M135.83,135.24c-.81-.8-5.25-5-11.59-4.5-.93.07-4.62.34-7.11,2.67-6.46,6-4,25.11,7.17,30,6.23,2.74,12.85,0,15.09-1Q137.6,148.83,135.83,135.24Z"/><path class="cls-3" d="M119.77,141.92l10.76-.49s-11,6.81-1.78,15.67"/><circle class="cls-1" cx="201.26" cy="123.97" r="75.72"/><path class="cls-1" d="M277,131.2c-5.83,38-27.77,68.21-57.62,77.14a65.46,65.46,0,0,1-35.77.54c-29.45-8.17-51.51-38.08-56.9-76.23,3.9-41.77,40.06-72.64,79.48-70.45C242.16,64.2,272.87,93.31,277,131.2Z"/><path class="cls-1" d="M217.87,193.23c-.34,7.89.45,19.57,7.68,29.33,12.46,16.82,31.69,11.23,46,22.76,20.06,16.15,11.75,50.79,9.9,97.47a495.58,495.58,0,0,0,9.23,115.29,269.82,269.82,0,0,1-164.26,3.29c1.71-9.31,3.85-22.7,5.27-38.92a432.11,432.11,0,0,0,.79-62.3c-4.2-80.3-20.69-101.28-4.81-115.07,15.6-13.54,41.31-14.89,48.52-23.69s4-32,4-32S207.38,179.28,217.87,193.23Z"/><path class="cls-4" d="M246.75,120.83a25.07,25.07,0,0,0-14.39-4.7c-3.49-.09-8.23-.2-9.69,2.54a3.83,3.83,0,0,0,.1,3.87c1.64,2.2,5.76.21,12.43.15,8.77-.08,14.48,3.24,15.06,2C250.67,123.76,247.86,121.66,246.75,120.83Z"/><path class="cls-4" d="M157,121.43A25,25,0,0,1,171.47,117c3.5,0,8.24,0,9.65,2.73a3.84,3.84,0,0,1-.17,3.86c-1.69,2.17-5.77.1-12.44-.09-8.77-.26-14.54,3-15.09,1.69C153,124.28,155.88,122.23,157,121.43Z"/><path class="cls-5" d="M201.36,134.56s6.13,14.2,5,16.91-12.18,1.78-12.18,1.78"/><path class="cls-3" d="M196.22,180.48s5.56,2.08,10.07-.08"/><ellipse class="cls-2" cx="243.23" cy="163.29" rx="9.73" ry="6.06" transform="translate(-2.76 4.19) rotate(-0.98)"/><ellipse class="cls-2" cx="163.47" cy="165.8" rx="9.73" ry="6.06" transform="translate(-2.82 2.82) rotate(-0.98)"/><path class="cls-6" d="M234.55,146a6.78,6.78,0,1,1-.6-9.57A6.82,6.82,0,0,1,234.55,146Z"/><path class="cls-6" d="M175.26,147.42a6.78,6.78,0,1,1,.59-9.56A6.8,6.8,0,0,1,175.26,147.42Z"/><path class="cls-7" d="M251.75,236.84s26.77,4.94,38.9,20.22,39.54,107.85,39.54,107.85l-39.22,18s-35.82-61.56-39.42-98S251.75,236.84,251.75,236.84Z"/><path class="cls-5" d="M219.35,208.34S198.6,215,180.57,208"/><path class="cls-8" d="M168,226.82s5.29,30.37,33.3,33.84S240,233.45,240,233.45,266.87,238.79,277,246s4.49,119.54,9.44,155.66,13.36,53.44,13.36,53.44-76.67,47.3-178.85,7.82c0,0,17.23-97.26,5.76-159.91s1.23-59.81,8-63.87S168,226.82,168,226.82Z"/><path class="cls-7" d="M348.17,269.64a716.93,716.93,0,0,1-45.39,79.09c-7.07,10.61-16.48,23.72-11.81,34.15,4.26,9.51,18.79,13.69,28,12.74,37.44-3.91,53.92-100.12,55.72-111.15Q361.42,277.06,348.17,269.64Z"/><path class="cls-8" d="M306.36,75.16V52.51a2,2,0,0,1,1.64-2,1.94,1.94,0,0,1,2.23,1.91V75.29A1.94,1.94,0,0,1,308,77.2,2,2,0,0,1,306.36,75.16Z"/><path class="cls-8" d="M296.84,65.77a1.94,1.94,0,0,1-1.91-2.23A2,2,0,0,1,297,61.9h22.62a2,2,0,0,1,2.05,1.64,1.94,1.94,0,0,1-1.91,2.23Z"/><path class="cls-8" d="M119.77,227.76a1.47,1.47,0,0,1-1.47-1.47V208.82a1.47,1.47,0,0,1,2.94,0v17.47A1.47,1.47,0,0,1,119.77,227.76Z"/><path class="cls-8" d="M111,219a1.48,1.48,0,1,1,0-2.95H128.5a1.48,1.48,0,1,1,0,2.95Z"/><path class="cls-8" d="M278.62,225a1.47,1.47,0,0,1-1.47-1.47V206a1.47,1.47,0,1,1,2.94,0v17.47A1.47,1.47,0,0,1,278.62,225Z"/><path class="cls-8" d="M269.89,216.22a1.48,1.48,0,1,1,0-2.95h17.46a1.48,1.48,0,1,1,0,2.95Z"/><path class="cls-7" d="M179.39,214.65a15.94,15.94,0,0,0-7.1.6c-5.6,1.87-7.59,6.39-11.62,10.4s-7.17,4.4-16.51,8.44c0,0-14,6.06-24.48,13.09-20.09,13.49-1.83,71.27,1.89,127.48a344.07,344.07,0,0,1-6.52,92,138.69,138.69,0,0,0,87.07,12s.37-37.41-.73-78.37c-1.48-55.39-3.32-83-9.53-99.65-5.28-14.1-13.5-30.07-14.68-55.28A131.23,131.23,0,0,1,179.39,214.65Z"/><path class="cls-7" d="M131.36,243.22c15.08.7,25.78,24.83,29.68,39.79,4.25,16.29-.73,17.22.49,50.88,0,0,.23,6.35,5,54h0l-42.59,6.87a334.35,334.35,0,0,1-12.28-36.93c-9.34-34.64-20.72-76.9-.49-102.25C113.47,252.69,121.4,242.76,131.36,243.22Z"/><path class="cls-7" d="M223.73,219.85s.42,6.78,7.76,17-3.43,33.17,0,63.78S250,473.53,250,473.53s35.78-.7,58.29-20.27c0,0-22.51-61.15-21-112s-1.06-86.09-5.67-92.38-23.2-12.32-32.65-17S229.19,211.82,223.73,219.85Z"/><path class="cls-9" d="M159.4,226.82a338,338,0,0,0-2.28,44.94q.12,6.89.49,13.45l15.66.25q-4.53,5.25-9.05,10.52a109.24,109.24,0,0,0,7.83,11.74,111.72,111.72,0,0,0,24.46,23.48"/><path class="cls-9" d="M243.49,228.2a254.61,254.61,0,0,1,10,45.27L242,281.54l9.78,8.81L236.62,331.2"/><path class="cls-9" d="M139,279s16,18.25,17.27,40a187,187,0,0,0,7.48,40.86"/><path class="cls-1" d="M221,324.22s10.05-9.41,17.29-12.34,22.63-.88,30.13-2.85,13-5.15,14.74-3-7.75,16.4-19.19,22.37-22.38,17.7-22.38,17.7S220.08,332,221,324.22Z"/><path class="cls-9" d="M287,284s-2,77.46,2,95.41"/><path class="cls-9" d="M308.3,368.66s1.06-29.26,9.46-43.51"/><circle class="cls-10" cx="360.83" cy="211.13" r="51.29"/><rect class="cls-10" x="348.77" y="104.6" width="24.14" height="72.41"/><path class="cls-10" d="M348.08,100h25.52a3.88,3.88,0,0,1,3.88,3.88v2.28a3.88,3.88,0,0,1-3.87,3.88H348.08a3.87,3.87,0,0,1-3.87-3.87v-2.28A3.87,3.87,0,0,1,348.08,100Z"/><path class="cls-11" d="M369.7,204c-11.5,3.18-18.35-9.54-23-20.3-1.84-4.26-5.64-6.57-9.56-7.81a42.49,42.49,0,1,0,65.36,27C392.93,196.73,379.22,201.37,369.7,204Z"/><circle class="cls-11" cx="362.5" cy="152.45" r="4.79"/><circle class="cls-11" cx="374.65" cy="183.25" r="7.37"/><circle class="cls-10" cx="357.4" cy="79.98" r="7.85"/><circle class="cls-10" cx="384.1" cy="64.19" r="5.49"/><circle class="cls-10" cx="370.54" cy="40.78" r="9.78"/><path class="cls-7" d="M227,319a716.43,716.43,0,0,1-77.15,48.61c-11.21,6.05-25.67,13.23-26.43,24.64-.69,10.39,10.19,20.89,18.76,24.36,34.91,14.09,94.54-63.19,101.3-72.09Z"/><path class="cls-9" d="M123.43,392.25s8.54,24.88,28,26.07,50.78-28,50.78-28"/><path class="cls-9" d="M139,379.39a106.55,106.55,0,0,1,30.07-22.61,162.47,162.47,0,0,0,29.53-18.32"/><circle class="cls-12" cx="172.8" cy="141.91" r="21.38"/><circle class="cls-12" cx="233.5" cy="141.91" r="21.38"/><path class="cls-4" d="M118.89,132.17A4.13,4.13,0,0,1,124,135c1.28,3.91,3.42,18.33,8.56,14.24,0,0,1.59-.54,2.57-21.58S133.89,101,156.88,98.33s34.33.73,43.46-9.54,11.33-27.16,18.92-30.09,34.62,19.32,44.83,44c9,21.82,3.78,46.21,6.7,46.39,1.77.11,5-8.51,5.22-9.21,1.29-3.52,2.47-8.33,4.34-8.5a11.2,11.2,0,0,1,3.09.3l.55.14c1-4.13,6.86-29.46-9.12-53.66-17.12-25.92-45.37-29.51-49.25-29.94C225.62,48.25,116.85,11.16,118.89,132.17Z"/><line class="cls-12" x1="194.18" y1="140.54" x2="212.12" y2="140.54"/><line class="cls-12" x1="127.56" y1="140.54" x2="151.42" y2="140.54"/><line class="cls-12" x1="255.54" y1="140.54" x2="276.01" y2="140.54"/><path class="cls-13" d="M203.15,60.57s-11.7,31.64-49.41,28.71"/><path class="cls-13" d="M181.56,65.13s-22.81,23.49-48.9,19.58"/><path class="cls-13" d="M243.23,63.84s23.73,18.1,26.66,40.85"/><path class="cls-13" d="M272.94,93.19s7.21,14.32,5.38,27.34"/><path class="cls-13" d="M132.66,99.43s-3.64,11.25-2.13,18.83"/><path class="cls-13" d="M126.5,107.38s-3.84,16-1.35,21.89"/><path class="cls-7" d="M184.87,169.35a99.91,99.91,0,0,0,19.71,1,99,99,0,0,0,15.28-1.95c-5.88,7.9-15.2,11.62-23.43,9.46A20.82,20.82,0,0,1,184.87,169.35Z"/></g></svg>
