<svg xmlns="http://www.w3.org/2000/svg" width="512" height="512" viewBox="0 0 512 512"><defs><style>.cls-1{fill:#ffdb99}.cls-2{fill:#ffb833}.cls-3{fill:#ffc871}.cls-12,.cls-4,.cls-6,.cls-9{fill:none;stroke-linecap:round;stroke-linejoin:round}.cls-4,.cls-6,.cls-9{stroke:#383333}.cls-4{stroke-width:.75px}.cls-11,.cls-5{fill:#383333}.cls-11,.cls-6{fill-rule:evenodd}.cls-7{fill:#ff535c}.cls-8{fill:#00ccc1}.cls-10{fill:#aaeeea}.cls-12{stroke:#fff}.cls-13{fill:#fff3e3}</style></defs><g id="Iot"><path d="M413.34,359.08s15.67-8.27,29.32-9.51S465,342.13,466,338.9s-57.17,0-57.17,0L399,348.27Z" class="cls-1"/><path d="M163,232.8s-27.16,5-39.47,20.52S83.38,362.75,83.38,362.75c.35,3.44,1.57,9.82,6.54,14,8.75,7.28,22.82,2.36,26.25,1.16,37.58-13.13,45.78-85.46,47-96.28A209.81,209.81,0,0,0,163,232.8Z" class="cls-1"/><path d="M321.88,203.31a1.5,1.5,0,0,1-1.49-1.5V184.09a1.5,1.5,0,1,1,3,0v17.72A1.5,1.5,0,0,1,321.88,203.31Z" class="cls-2"/><path d="M313,194.44a1.5,1.5,0,0,1,0-3h17.73a1.5,1.5,0,0,1,0,3Z" class="cls-2"/><path d="M134.35,221.08a1.5,1.5,0,0,1-1.5-1.5V201.86a1.5,1.5,0,1,1,3,0v17.72A1.5,1.5,0,0,1,134.35,221.08Z" class="cls-2"/><path d="M125.48,212.21a1.5,1.5,0,0,1,0-3h17.73a1.5,1.5,0,0,1,0,3Z" class="cls-2"/><path d="M342.4,432.44a1.49,1.49,0,0,1-1.49-1.49V413.22a1.5,1.5,0,0,1,3,0V431A1.5,1.5,0,0,1,342.4,432.44Z" class="cls-2"/><path d="M333.54,423.58a1.5,1.5,0,0,1,0-3h17.72a1.5,1.5,0,1,1,0,3Z" class="cls-2"/><path d="M420.76,355.9C360.6,382,311.88,397,301.61,382.38c-3.55-5.06-1.44-12-.82-14.07,6.79-22.46,48.11-34.39,102.24-32.56Z" class="cls-1"/><path d="M278.94,132.53c.82-.8,5.32-5,11.76-4.56.94.07,4.69.34,7.21,2.71,6.55,6.13,4,25.48-7.27,30.45-6.33,2.78-13.05,0-15.32-1Q277.14,146.32,278.94,132.53Z" class="cls-3"/><path d="M295.23,139.32l-10.92-.51s11.11,6.92,1.81,15.9" class="cls-4"/><path d="M145.18,132.53c-.83-.8-5.32-5-11.76-4.56-.94.07-4.69.34-7.22,2.71-6.55,6.13-4,25.48,7.28,30.45,6.32,2.78,13.05,0,15.31-1Q147,146.32,145.18,132.53Z" class="cls-3"/><path d="M128.89,139.32l10.92-.51s-11.12,6.92-1.81,15.9" class="cls-4"/><circle cx="211.57" cy="121.1" r="76.83" class="cls-1"/><path d="M288.4,128.44c-5.92,38.55-28.18,69.21-58.47,78.27a66.32,66.32,0,0,1-36.29.55c-29.89-8.29-52.27-38.64-57.74-77.35,3.95-42.39,40.65-73.71,80.65-71.49C253.07,60.45,284.24,90,288.4,128.44Z" class="cls-1"/><path d="M235,185.5c-1.6,7.9-2.71,20,3.31,30.78,10,18,30.05,14.93,44.61,27.95,20.3,18.15,11.92,51.41,10,98.91a502.54,502.54,0,0,0,9.37,117,273.88,273.88,0,0,1-166.68,3.35c1.74-9.45,3.91-23,5.35-39.5a437.72,437.72,0,0,0,.8-63.22c-4.26-81.48-21-102.77-4.87-116.76,15.82-13.74,41.91-15.11,49.23-24s4-32.52,4-32.52A86.1,86.1,0,0,1,235,185.5Z" class="cls-1"/><path d="M257.73,117.92a25.38,25.38,0,0,0-14.59-4.78c-3.55-.08-8.36-.2-9.84,2.58a3.85,3.85,0,0,0,.1,3.92c1.66,2.24,5.85.22,12.61.16,8.91-.08,14.69,3.29,15.28,2C261.71,120.89,258.86,118.76,257.73,117.92Z" class="cls-5"/><path d="M166.66,118.52A25.43,25.43,0,0,1,181.35,114c3.55,0,8.36,0,9.78,2.77a3.88,3.88,0,0,1-.17,3.92c-1.71,2.2-5.85.1-12.61-.09-8.91-.26-14.76,3-15.32,1.72C162.62,121.41,165.52,119.34,166.66,118.52Z" class="cls-5"/><path d="M211.68,131.85s6.22,14.4,5.07,17.15-12.36,1.81-12.36,1.81" class="cls-6"/><path d="M206.46,178.44s5.64,2.11,10.22-.08" class="cls-4"/><ellipse cx="254.16" cy="161" class="cls-3" rx="9.87" ry="6.15" transform="translate(-2.72 4.38) rotate(-0.98)"/><ellipse cx="173.22" cy="163.54" class="cls-3" rx="9.87" ry="6.15" transform="matrix(1, -0.02, 0.02, 1, -2.78, 2.99)"/><path d="M262.81,235.63s27.15,5,39.47,20.52S342.4,365.58,342.4,365.58a25,25,0,0,1-6.54,14c-7.65,7.85-20.89,9.61-33.25,4.28-13.36-18.12-35.35-52.24-40-99.4C259,247.48,262.81,235.63,262.81,235.63Z" class="cls-1"/><path d="M229.93,206.71s-21.06,6.78-39.35-.39" class="cls-6"/><path d="M177.78,225.46c1.95,3.13,10.78,16.5,28,20.71,25.15,6.14,44.24-13.07,45.11-14,0,0,27.24,5.42,37.49,12.74s4.55,121.3,9.57,158,13.56,54.23,13.56,54.23-77.79,48-181.48,7.93c0,0,17.48-98.68,5.85-162.26S137.15,242.1,144,238,177.78,225.46,177.78,225.46Z" class="cls-7"/><path d="M278.7,240s22.41,6.79,31.1,23.91,22.85,70.16,22.85,70.16-20.62,24.53-50.9,25C281.75,359.08,255.31,259.07,278.7,240Z" class="cls-7"/><path d="M147.07,237.21S124.67,244,116,261.13s-22.85,70.15-22.85,70.15,20.62,24.54,50.9,25C144,356.25,170.47,256.24,147.07,237.21Z" class="cls-7"/><path d="M54.53,251.36c-.12,15.35-.16,116.61,37.4,128.08,6.07,1.85,17.58,2.73,23.5-3.47,7.64-8,2.34-24-7.94-53.45C97.78,294.69,89.11,270.56,82,251Z" class="cls-1"/><path d="M83.4,256.32s6.73-12.72,5.9-21.46-8.1-13-8.1-13-.14-25.94-3.71-27.32-6.59,25-6.59,25-5.63-3.58-7.69,2.33c0,0-5.49-3.06-7.27,3.55,0,0-5.36-.49-6.18,4.57S51,252.62,56.9,256.32,79,260.72,83.4,256.32Z" class="cls-1"/><path d="M54.52,234.15s6.64,7.45,9.74,5.71-8.32-14.46-8.32-14.46" class="cls-4"/><path d="M64.55,237.6s2.81,1.43,3.89-.39-5.23-15.36-5.23-15.36" class="cls-4"/><path d="M81.2,221.85s-15.49,8.59-13.75,10.24,6.37,2,9.76.71,2,3.67-2.95,10" class="cls-4"/><path d="M68.56,236.47s3.6,2.08,4.43-2.89" class="cls-4"/><line x1="70.9" x2="72.25" y1="219.52" y2="226.92" class="cls-4"/><path d="M29.14,134.71A35.66,35.66,0,1,0,64.8,99.06,35.66,35.66,0,0,0,29.14,134.71Zm15.08,0A20.58,20.58,0,1,1,64.8,155.29,20.57,20.57,0,0,1,44.22,134.71Z" class="cls-8"/><rect width="17.56" height="20.75" x="56.02" y="87.11" class="cls-8" rx="2.31" transform="translate(129.59 194.96) rotate(-180)"/><rect width="17.56" height="20.75" x="56.02" y="159.99" class="cls-8" rx="2.31" transform="translate(129.59 340.73) rotate(-180)"/><rect width="17.56" height="20.75" x="19.57" y="123.55" class="cls-8" rx="2.31" transform="translate(162.28 105.57) rotate(90)"/><rect width="17.56" height="20.75" x="92.46" y="123.55" class="cls-8" rx="2.31" transform="translate(235.16 32.69) rotate(90)"/><rect width="17.56" height="20.75" x="30.25" y="149.32" class="cls-8" rx="2.31" transform="translate(124.35 19.18) rotate(45)"/><rect width="17.56" height="20.75" x="81.78" y="97.78" class="cls-8" rx="2.31" transform="translate(103 -32.36) rotate(45)"/><rect width="17.56" height="20.75" x="30.25" y="97.78" class="cls-8" rx="2.31" transform="translate(143.1 157.04) rotate(135)"/><rect width="17.56" height="20.75" x="81.78" y="149.32" class="cls-8" rx="2.31" transform="translate(267.52 208.57) rotate(135)"/><polyline points="365.01 138.81 431.07 130.14 408.83 195.43" class="cls-9"/><circle cx="407.8" cy="192.75" r="10.08" class="cls-10"/><circle cx="431.07" cy="130.14" r="11.76" class="cls-8"/><line x1="362.54" x2="393.97" y1="130.44" y2="98.2" class="cls-9"/><circle cx="360.89" cy="136.17" r="13.83" class="cls-10"/><circle cx="396" cy="95.14" r="7.7" class="cls-8"/><path d="M247.09,140.27a6.88,6.88,0,1,1-.6-9.7A6.89,6.89,0,0,1,247.09,140.27Z" class="cls-11"/><path d="M186.93,141.77a6.88,6.88,0,1,1,.6-9.7A6.89,6.89,0,0,1,186.93,141.77Z" class="cls-11"/><path d="M222.75,60.65s-8.19-11.91-22.34-7.2S184,114.27,141.83,111c0,0-1.49,14.5,0,22.88s-3.8,13.85-7.48,3.43-8.15-6.67-8.15-6.67S119.49-5.62,226.72,40.55c0,0,40.72-14.24,57.59,9.92s13.6,80.21,13.6,80.21-3.55-1.27-6.41.59-2.73,9.57-7.86,11.8-1.82-30-1.82-30-13.4-1.08-15.64-16.72S244.09,50,222.75,60.65Z" class="cls-5"/><path d="M230.85,55.11s13.41-9.27,24.83,4.13,17.54,53.62,37.89,47.17" class="cls-12"/><path d="M270.4,72.81s10.43,26.48,21.85,17.54" class="cls-12"/><path d="M212.15,47.25s-19.56-3-29.06,6.2-12,49.84-43.28,44" class="cls-12"/><path d="M168.39,69.09S153.49,90,137.86,82.5" class="cls-12"/><ellipse cx="211.66" cy="167.79" class="cls-13" rx="13.73" ry="6.79"/><path d="M137.69,269.9s3.29,48.12,2.2,83.33" class="cls-6"/><path d="M288.4,269.9s1.75,65.48,7.26,86.35" class="cls-6"/><path d="M240.64,240A20.62,20.62,0,0,0,251,228.58S278.93,239.15,286,243s-21.34,16.52-21.34,16.52L250.88,261Z" class="cls-7"/><path d="M312.85,369.93s12.21-23.7,22.49-27.36" class="cls-6"/><path d="M413.34,359.08s15.67-8.27,29.32-9.51S465,342.13,466,338.9s-57.17,0-57.17,0L399,348.27Z" class="cls-1"/><rect width="134.52" height="95.53" x="345.1" y="242.52" class="cls-8" rx="4.87"/><path d="M349.93,328.31a.8.8,0,0,1-.86-.72v-80.8a.8.8,0,0,1,.86-.72H474.79a.8.8,0,0,1,.86.72v80.8a.8.8,0,0,1-.86.72Z" class="cls-10"/><rect width="163.32" height="9.61" x="330.7" y="334.51" class="cls-8" rx="2.68"/><path d="M463,302.33c-1.4-5-5.6-10.19-17.27-8.89a47.56,47.56,0,0,0-3.52-13.15c-1.3-3-6.55-12.86-17.77-15.73-7.2-1.84-18-1.07-24.18,6.71a18.77,18.77,0,0,0-1.25,1.8,12.07,12.07,0,0,0-18.08,15.76,14.88,14.88,0,0,0-11.34,8.24,9.33,9.33,0,0,0,8.3,13.59h78.75A6.58,6.58,0,0,0,463,302.33Z" class="cls-13"/></g></svg>