<?xml version="1.0" encoding="UTF-8"?>
<svg xmlns="http://www.w3.org/2000/svg" viewBox="0 0 512 512" width="512" height="512"><defs><style>.cls-1{fill:#383333;}.cls-2{fill:#ffb08d;}.cls-13,.cls-14,.cls-15,.cls-3,.cls-7{fill:none;stroke-linecap:round;stroke-linejoin:round;}.cls-14,.cls-3,.cls-7{stroke:#383333;}.cls-3{stroke-width:0.75px;}.cls-4{fill:#ffb833;}.cls-5{fill:#ff8c5f;}.cls-6{fill:#ff535c;}.cls-10,.cls-7,.cls-8{fill-rule:evenodd;}.cls-8,.cls-9{fill:#00ccc1;}.cls-10,.cls-12{fill:#aaeeea;}.cls-11{fill:#fff;}.cls-13{stroke:#00ccc1;stroke-width:2px;}.cls-15{stroke:#fff;}</style></defs><g id="Virtual_Reality" data-name="Virtual Reality"><path class="cls-1" d="M386.41,259.61c-2.52-31.1-43.67-34.13-38.24-62.4s2.12-61.09-3-74.47S199,100.55,179.11,140.8c0,0,8.06,7.81-2.89,38.17S183,206.8,182,228s-46.13,51,49.37,65.13S388.94,290.7,386.41,259.61Z"/><path class="cls-2" d="M212.57,233.48c-8.32,2-20.58,6.08-31.65,15.73-18.62,16.24-18.65,34.84-36.35,64.13a190,190,0,0,1-27.77,35.41l30.29,22.65a211.3,211.3,0,0,0,27.1-23.9c10.45-10.95,24-25.1,32.48-45.06C218.08,275.69,215.78,249.57,212.57,233.48Z"/><path class="cls-2" d="M98.78,263.87c.72,6.4,10.19,87.31,27.52,102.82,2.56,2.29,8.22,7.36,15.2,6.6,6.41-.69,10.51-6,11.78-7.57,9.47-12.14,2.64-30,1.9-31.84-8.53-29.15-25.09-63-30.69-74.15a58.46,58.46,0,0,0-25.71,4.14Z"/><path class="cls-2" d="M324.22,233.48c8.32,2,20.58,6.08,31.66,15.73,18.61,16.24,18.64,34.84,36.35,64.13A189.12,189.12,0,0,0,420,348.75L389.7,371.4a211.32,211.32,0,0,1-27.09-23.9c-10.46-10.95-24-25.1-32.48-45.06C318.72,275.69,321,249.57,324.22,233.48Z"/><path class="cls-2" d="M438,263.87c-.73,6.4-10.19,87.31-27.52,102.82-2.57,2.29-8.23,7.36-15.2,6.6-6.41-.69-10.52-6-11.78-7.57-9.47-12.14-2.64-30-1.9-31.84,8.53-29.15,25.09-63,30.69-74.15A58.53,58.53,0,0,1,438,263.87Z"/><path class="cls-2" d="M420,226.49s4.79-20.36,8.15-20-.5,21.71,1.52,21.54,10.94-21.47,13.46-19.32-5.22,22-3.37,22.18,12.79-12.12,14.81-10.77-9.93,18.51-8.58,19.18,8.92-4.37,11.61-3.19-8.07,8.75-11.27,13.12-5.72,16-9.76,17.17-24.24.67-26.93-9.59-.84-15.55-3.7-20.14-4.21-5.61,0-6.62,9.42,8,11.61,6.62S420,226.49,420,226.49Z"/><path class="cls-2" d="M422.16,218.45c-.39,1.52-3.52,13.58-5.37,15.87-.26.32-1,1.18-1.72,1.09-.52-.06-.72-.51-1.4-.9a3.55,3.55,0,0,0-2-.44l4.23,8.08,6.27-1.65,2.18-10.2Z"/><path class="cls-3" d="M422.09,231.88s15,4.26,20,10.27"/><path class="cls-3" d="M415.07,235.41a21.65,21.65,0,0,1,4.93,8.92"/><path class="cls-2" d="M116.14,229.72s-4.79-20.36-8.15-20,.5,21.71-1.52,21.55S95.53,209.77,93,211.92s5.22,22,3.36,22.18S83.58,222,81.56,223.33s9.93,18.51,8.59,19.18-8.92-4.37-11.62-3.2,8.08,8.76,11.28,13.13,5.72,16,9.76,17.17,24.24.67,26.93-9.59.84-15.55,3.7-20.15,4.21-5.6,0-6.61-9.42,8-11.61,6.61S116.14,229.72,116.14,229.72Z"/><path class="cls-2" d="M114,221.68c.4,1.51,3.53,13.57,5.38,15.87.26.32,1,1.18,1.72,1.09.52-.06.72-.51,1.4-.91a3.6,3.6,0,0,1,2-.43l-4.23,8.07L114,243.73l-2.18-10.2Z"/><path class="cls-3" d="M114.05,235.11s-15,4.26-20,10.26"/><path class="cls-3" d="M121.07,238.64a21.65,21.65,0,0,0-4.93,8.92"/><path class="cls-4" d="M137.37,428.68V410.76a1.52,1.52,0,1,1,3-.05v18a1.52,1.52,0,1,1-3-.05Z"/><path class="cls-4" d="M129.87,421.24a1.52,1.52,0,1,1,.06-3h17.92a1.55,1.55,0,0,1,1.44.88,1.53,1.53,0,0,1-1.39,2.16Z"/><path class="cls-4" d="M369.28,404.59V386.68a1.56,1.56,0,0,1,.88-1.45,1.53,1.53,0,0,1,2.16,1.39v18a1.52,1.52,0,1,1-3-.06Z"/><path class="cls-4" d="M361.79,397.16a1.53,1.53,0,1,1,0-3.05h17.92a1.53,1.53,0,1,1,.06,3.05Z"/><path class="cls-4" d="M385,120.46V102.55a1.52,1.52,0,1,1,3-.06v18a1.52,1.52,0,1,1-3-.06Z"/><path class="cls-4" d="M377.47,113a1.53,1.53,0,1,1,.06-3h17.92a1.53,1.53,0,1,1,.05,3Z"/><path class="cls-5" d="M197.09,132.52c-.82-.8-5.27-5-11.64-4.52-.93.07-4.64.34-7.14,2.68-6.48,6.06-4,25.21,7.2,30.13,6.26,2.74,12.91,0,15.15-1Z"/><path class="cls-5" d="M329.4,132.52c.81-.8,5.26-5,11.63-4.52.93.07,4.64.34,7.14,2.68,6.48,6.06,4,25.21-7.2,30.13-6.26,2.74-12.91,0-15.15-1Q327.61,146.15,329.4,132.52Z"/><path class="cls-3" d="M181,139.23l10.8-.5s-11,6.84-1.79,15.73"/><path class="cls-3" d="M345.13,139.23l-10.81-.5s11,6.84,1.79,15.73"/><circle class="cls-2" cx="263.72" cy="121.21" r="76"/><path class="cls-2" d="M187.72,128.47c5.86,38.13,27.88,68.46,57.84,77.42a65.63,65.63,0,0,0,35.9.54c29.57-8.19,51.7-38.22,57.12-76.51C334.67,88,298.37,57,258.8,59.21,222.67,61.21,191.84,90.43,187.72,128.47Z"/><path class="cls-2" d="M343.13,457.51c4.54-2.72,8.1-5.16,10.57-6.93-14.75-35.33-17.5-64-17.44-83.1C336.43,310.8,361.41,266.11,339,243a35.18,35.18,0,0,0-12.89-8.29h0a129.1,129.1,0,0,0-25.7-9c-5.1-1.92-9.25-4-11.54-6.76-7.24-8.83-4-32.17-4-32.17s-27.32-10.1-37.85,3.9c.23,8.85-1,20.86-8.59,30.74a31.39,31.39,0,0,1-8.3,7.6l-.08-.05c-5.45,1.12-11.32,2.57-17.51,4.47-5.82,1.79-8.83,2.64-12.23,4.22a60.65,60.65,0,0,0-16.94,12.82c-9.34,10.14-11.23,52,6.5,104A135.5,135.5,0,0,1,176.22,455,158.69,158.69,0,0,0,260,480.29,156.7,156.7,0,0,0,322.33,468a68.12,68.12,0,0,0,20.85-10.21Z"/><path class="cls-1" d="M218.06,118.06a25.11,25.11,0,0,1,14.44-4.72c3.51-.09,8.26-.2,9.73,2.55a3.83,3.83,0,0,1-.1,3.88c-1.64,2.2-5.78.21-12.47.15-8.81-.08-14.54,3.26-15.12,2C214.12,121,217,118.89,218.06,118.06Z"/><path class="cls-1" d="M308.15,118.65a25.16,25.16,0,0,0-14.53-4.43c-3.52,0-8.27,0-9.68,2.74a3.81,3.81,0,0,0,.17,3.87c1.69,2.18,5.79.1,12.48-.09,8.8-.25,14.59,3,15.15,1.7C312.14,121.52,309.27,119.46,308.15,118.65Z"/><path class="cls-6" d="M238.59,214.56s28.78,3.28,50.49-2.78a18.44,18.44,0,0,0,2.41,5.63c5.08,7.77,14.54,8.64,36.1,16.28,4.25,1.5,8.41,2.42,10.52,6.1,2.47,4.3.87,9.43.34,11.44-3.51,13.23,4.16,26.74,7.4,37,7,22.19-1.6,45.17-4.37,69.34-2.48,21.54-1.36,53,16.15,94.25A168.2,168.2,0,0,1,295,478.77C234.36,491,185.6,465,171.16,456.56c12.51-26.4,15.87-48.35,16.56-63.64.72-15.74-1-33.3-2.76-51.81-2.65-27.42-4.8-30.67-3.37-44.44,2-19.17,7.21-21.94,5.72-37.69-.46-4.94-1.61-11.4,2.19-16.58,3.43-4.68,9.35-6.22,13.83-6.79,12.18-5.16,20.38-8.24,25.66-9.69a12.8,12.8,0,0,0,5.95-3.21A13.77,13.77,0,0,0,238.59,214.56Z"/><ellipse class="cls-5" cx="221.58" cy="162.26" rx="9.76" ry="6.08" transform="translate(-3.59 5.02) rotate(-1.29)"/><ellipse class="cls-5" cx="301.67" cy="161.6" rx="9.76" ry="6.08" transform="translate(-3.55 6.82) rotate(-1.29)"/><path class="cls-7" d="M245.56,205.89a72.84,72.84,0,0,0,38.93-.38"/><path class="cls-3" d="M259.56,182.54a10.11,10.11,0,0,0,5.11,1.51,10.26,10.26,0,0,0,5.56-1.51"/><path class="cls-1" d="M181.62,128.76s3.51-1.1,4.75,3.32,2.63,13,6.79,12.12-11.74-59.13,43.3-85.1c0,0,11.78,27.54,36.35,35.62s31.3.79,37,7,6.26,23.58,16,27,4.5,19.31,8.5,18.68,4.64-16.16,7-17.54,6.82.87,6.82.87-2.42-21.49-3-42.36S296.75,6.86,242.71,43.55c0,0-33.52-8.75-49,10.77S186.1,105.55,181.62,128.76Z"/><path class="cls-8" d="M314.49,164.14a402,402,0,0,1-47.4,3.28,401,401,0,0,1-55.28-3.28,13.38,13.38,0,0,1-9.25-3.83,13.06,13.06,0,0,1-3.83-9.26V131.56a13.07,13.07,0,0,1,13.08-13.08c19.52,1.39,40.53,2.09,62.85,1.73,13.84-.22,27.13-.83,39.83-1.73a13.33,13.33,0,0,1,9.25,3.83,13,13,0,0,1,3.84,9.25v19.49A13.09,13.09,0,0,1,314.49,164.14Z"/><rect class="cls-9" x="175.2" y="126.28" width="29.79" height="15.22" rx="4.34" transform="matrix(1, 0.07, -0.07, 1, 9.11, -12.08)"/><rect class="cls-9" x="321.11" y="126.28" width="29.79" height="15.22" rx="4.34" transform="translate(674.86 260.4) rotate(178.75)"/><path class="cls-10" d="M263.16,162.39a398.13,398.13,0,0,1-50.7-3.26,4.63,4.63,0,0,0-.65,0,8.26,8.26,0,0,1-5.68-2.35,8,8,0,0,1-2.36-5.69V131.56a8,8,0,0,1,7.89-8c17.07,1.21,34.39,1.82,51.5,1.82,3.84,0,7.74,0,11.58-.09,13.26-.21,26.68-.79,39.9-1.73a8.22,8.22,0,0,1,5.53,2.35,8,8,0,0,1,2.36,5.68v19.49a8.05,8.05,0,0,1-8,8,4.63,4.63,0,0,0-.65,0,395.9,395.9,0,0,1-46.8,3.24Z"/><path class="cls-11" d="M251.35,169.82h28.91a16.49,16.49,0,0,1-5.05,7.45c-.5.41-7.7,6.14-15.53,2.77C253.29,177.29,251.55,170.64,251.35,169.82Z"/><circle class="cls-9" cx="435.4" cy="151.71" r="23.75"/><circle class="cls-12" cx="98.78" cy="138.73" r="40.11"/><ellipse class="cls-13" cx="96.12" cy="144" rx="62.13" ry="18.39"/><circle class="cls-12" cx="441.63" cy="434.01" r="38.37"/><path class="cls-14" d="M146.79,309.55s9.39,22.72,7.87,40.64"/><path class="cls-14" d="M390,309.54s-9.65,29.29-5.35,44.19"/><path class="cls-15" d="M255.64,59.1s11.11,25.77,37.62,28.55,34.84,17.79,35.59,30.1"/><path class="cls-15" d="M283.5,67.7s28.69,23,49.39,10.86"/><path class="cls-15" d="M332.89,89.68s7.35,14.5,6.83,28.07"/><path class="cls-15" d="M221.58,58s-36.39,16.53-33.86,63.25"/><path class="cls-15" d="M334.32,181.1s-12.2,20.91,0,38.83,34.25,15.4,36.48,29.54"/><path class="cls-15" d="M313.46,196s-11.34,19.94,7.58,28.52"/><path class="cls-15" d="M193.29,169.82s2.94,5.68-3.2,18.55,20.37,18.68,16.58,34.59"/><path class="cls-15" d="M217.78,201.25s10.85,5.05,6.31,18.93"/></g></svg>
