<svg xmlns="http://www.w3.org/2000/svg" width="512" height="512" viewBox="0 0 512 512"><defs><style>.cls-1{fill:#aaeeea}.cls-2{fill:#00ccc1}.cls-13,.cls-14,.cls-3,.cls-7,.cls-9{fill:none;stroke-linecap:round;stroke-linejoin:round}.cls-3{stroke:#00ccc1;stroke-width:2px}.cls-4{fill:#fff3e3}.cls-5{fill:#ffb833}.cls-6{fill:#ff8c5f}.cls-13,.cls-7,.cls-9{stroke:#383333}.cls-7{stroke-width:.75px}.cls-8{fill:#ffb08d}.cls-10,.cls-9{fill-rule:evenodd}.cls-10,.cls-11{fill:#383333}.cls-12{fill:#ff535c}.cls-14{stroke:#fff}</style></defs><g id="Webcam"><rect width="314.18" height="248.24" x="39.42" y="72.98" class="cls-1" rx="20.45" transform="translate(393.01 394.21) rotate(-180)"/><rect width="23.46" height="24.13" x="237.65" y="147.68" class="cls-2" rx="7"/><line x1="273.26" x2="348.8" y1="159.98" y2="159.98" class="cls-3"/><rect width="23.46" height="24.13" x="237.65" y="190.59" class="cls-2" rx="7"/><line x1="273.26" x2="348.8" y1="202.88" y2="202.88" class="cls-3"/><rect width="23.46" height="24.13" x="237.65" y="233.49" class="cls-2" rx="7"/><line x1="273.26" x2="348.8" y1="245.79" y2="245.79" class="cls-3"/><rect width="170.26" height="140.28" x="56.96" y="136.14" class="cls-2" rx="12.64" transform="translate(284.17 412.56) rotate(-180)"/><circle cx="66.18" cy="95.52" r="8.24" class="cls-2"/><circle cx="109.57" cy="95.52" r="8.24" class="cls-2"/><circle cx="152.97" cy="95.52" r="8.24" class="cls-2"/><circle cx="137.97" cy="190.2" r="24.95" class="cls-4"/><path d="M103.38,276.42s3.42-74.18,38.71-75,34.82,75,34.82,75Z" class="cls-4"/><path d="M253.65,64.49V41.27A2,2,0,0,1,255,39.33a2,2,0,0,1,2.62,1.86V64.57A2,2,0,0,1,255,66.43,2,2,0,0,1,253.65,64.49Z" class="cls-5"/><path d="M243.93,54.85a2,2,0,0,1-1.86-2.62,2,2,0,0,1,2-1.32h23.19a2,2,0,0,1,2,1.32,2,2,0,0,1-1.87,2.62Z" class="cls-5"/><path d="M253.34,419.57a1.51,1.51,0,0,1-1.51-1.5V400.25a1.51,1.51,0,1,1,3,0v17.82A1.5,1.5,0,0,1,253.34,419.57Z" class="cls-5"/><path d="M244.42,410.66a1.5,1.5,0,0,1,0-3h17.83a1.5,1.5,0,0,1,0,3Z" class="cls-5"/><path d="M465.59,217.24a1.51,1.51,0,0,1-1.5-1.51V197.91a1.5,1.5,0,0,1,3,0v17.82A1.51,1.51,0,0,1,465.59,217.24Z" class="cls-5"/><path d="M456.68,208.33a1.51,1.51,0,0,1,0-3H474.5a1.51,1.51,0,1,1,0,3Z" class="cls-5"/><path d="M443.2,131.07c.83-.8,5.35-5.06,11.82-4.58,1,.07,4.72.34,7.26,2.72,6.59,6.16,4.07,25.62-7.32,30.62-6.36,2.8-13.12,0-15.39-1Z" class="cls-6"/><path d="M308.7,131.07c-.83-.8-5.35-5.06-11.83-4.58-.94.07-4.71.34-7.25,2.72-6.59,6.16-4.07,25.62,7.31,30.62,6.36,2.8,13.12,0,15.4-1Z" class="cls-6"/><path d="M292.31,137.9l11-.51s-11.18,7-1.83,16" class="cls-7"/><path d="M459.88,137.9l-11-.51s11.18,7,1.82,16" class="cls-7"/><circle cx="375.46" cy="119.58" r="77.26" class="cls-8"/><path d="M452.72,127c-6,38.77-28.35,69.59-58.8,78.7a66.65,66.65,0,0,1-36.5.56c-30.05-8.34-52.55-38.86-58.06-77.79,4-42.62,40.88-74.11,81.1-71.88C417.19,58.59,448.53,88.29,452.72,127Z" class="cls-8"/><path d="M395.62,189.48c-1.29,6.59-2.12,16.48,2.66,25.62,9.86,18.85,33,14.69,48.91,28.3,20.19,17.29,12,50.57,10.1,99.45a505.81,505.81,0,0,0,9.42,117.63,275.39,275.39,0,0,1-167.6,3.37c1.75-9.5,3.93-23.17,5.38-39.72a439.69,439.69,0,0,0,.8-63.57c-4.22-80.75-19.93-102-4.9-117.41,14.69-15.07,39-4.29,48.64-22.39h0s2.48-8.36,3-10.31c1.07-4.09,2-11.86-2-25a62.22,62.22,0,0,1,19.13-2.56A63,63,0,0,1,395.62,189.48Z" class="cls-8"/><path d="M373.48,130.39s-6.25,14.48-5.1,17.25,12.43,1.82,12.43,1.82" class="cls-9"/><path d="M370.32,177.23s5.67,2.13,10.27-.08" class="cls-7"/><ellipse cx="418.28" cy="159.7" class="cls-6" rx="9.93" ry="6.18" transform="matrix(1, -0.02, 0.02, 1, -2.67, 7.19)"/><ellipse cx="336.9" cy="162.26" class="cls-6" rx="9.93" ry="6.18" transform="translate(-2.73 5.8) rotate(-0.98)"/><path d="M409.42,142a6.92,6.92,0,1,1-.6-9.76A6.94,6.94,0,0,1,409.42,142Z" class="cls-10"/><path d="M348.93,143.51a6.92,6.92,0,1,1,.61-9.76A6.94,6.94,0,0,1,348.93,143.51Z" class="cls-10"/><path d="M358.29,163.86c5.6.2,11.37.32,17.3.33q10,0,19.31-.33c-5.7,9-15.77,13.17-24.37,10.67C362.78,172.28,359.08,165.42,358.29,163.86Z" class="cls-4"/><path d="M420.58,119.86a22.42,22.42,0,0,0-12.9-4.22c-3.14-.08-7.39-.18-8.7,2.28a3.43,3.43,0,0,0,.09,3.46c1.47,2,5.17.19,11.15.14,7.87-.08,13,2.91,13.5,1.78C424.1,122.48,421.57,120.6,420.58,119.86Z" class="cls-11"/><path d="M330.22,119.74a22.47,22.47,0,0,1,13-4c3.14,0,7.39,0,8.65,2.46a3.43,3.43,0,0,1-.15,3.46c-1.51,1.94-5.18.09-11.15-.08-7.87-.23-13.05,2.65-13.54,1.51C326.65,122.3,329.21,120.46,330.22,119.74Z" class="cls-11"/><path d="M324.08,233.49c-10.11,1.24-25.1,4.8-36.95,16.22-11.56,11.16-9.43,19.49-22.3,62.24-9.92,33-15.67,42.93-9.31,53.91a29.52,29.52,0,0,0,22.15,14.27c21.24,1.81,37.59-25.21,42.86-33.91C346.47,303.35,330.14,250.55,324.08,233.49Z" class="cls-8"/><path d="M412.93,228.31s-8.33,22.4-32.56,27.39-41-25.9-41-25.9-32,5-36.81,9.53,10.13,174.45-10.25,226.37c0,0,84.14,36.6,181.31-5.33,0,0-15.22-79.79-15.27-136.74s-4.57-78.24-9.71-82.86S416.51,230.14,412.93,228.31Z" class="cls-12"/><path d="M428.21,233.49c8.78,2.41,34.29,10.61,43,32.53,2.29,5.78,2.86,11.13,1.12,31-3.86,44-5.79,66-17.31,72.55-13.67,7.79-36.37,1-39.27-8.32-1.26-4.06,3.89-6.56,4.33-13.64,1.23-20,1.85-30,.33-38.61C418,295.32,417.85,272.73,428.21,233.49Z" class="cls-8"/><path d="M310.92,235.74s-20.35,5.82-28.5,16.64S256.34,339,256.34,339s31.24,13.56,62.85,11.23C319.19,350.22,331.94,234.09,310.92,235.74Z" class="cls-12"/><path d="M424.34,231.81s34,3.93,47.27,26.89-4.32,86.13-4.32,86.13-32-.27-47.59-7.92C419.7,336.91,393.7,240.86,424.34,231.81Z" class="cls-12"/><path d="M355.63,403c15.09-10.68,26.84-20.34,35.11-27.51,1.42-1.22,38.45-33.35,46.59-28.62a26.91,26.91,0,0,0,6.92,3,21.62,21.62,0,0,0,5,.65,18,18,0,0,0,2-.1c7.88-.78,11.26-6.34,13.42-5,1.22.73,1.21,3.17-.25,11-1.29,6.93-3.11,14.79-3.83,16.81-3.62,10.2-37.55,36.14-91.85,54.91Z" class="cls-8"/><path d="M376,425.5a36.69,36.69,0,0,1-17.64,4.21,35.46,35.46,0,0,1-9.57-1.62c-22.27-6.6-33.41-9.89-33.28-13.64.21-5.65,24.31-8.73,38.94-9,10.86-.19,22.23-.26,25.13,6C381.83,416.27,378.05,422.57,376,425.5Z" class="cls-8"/><path d="M298.18,308.29s-44.12,33.16-44.83,52.19,35.56,47.52,62.18-10Z" class="cls-8"/><rect width="33.94" height="45.59" x="322.14" y="345.89" class="cls-1" transform="translate(678.22 737.38) rotate(-180)"/><circle cx="339.11" cy="322.18" r="48.67" class="cls-2"/><rect width="37.36" height="59.65" x="320.43" y="262.53" class="cls-1" rx="8.46" transform="translate(678.22 584.71) rotate(-180)"/><circle cx="339.11" cy="322.18" r="34.07" class="cls-4"/><circle cx="339.11" cy="322.18" r="27.08" class="cls-1"/><path d="M304.67,379.84h68.89a6.49,6.49,0,0,1,6.49,6.49v.5a26,26,0,0,1-26,26H324.63a26.46,26.46,0,0,1-26.46-26.46v0a6.49,6.49,0,0,1,6.49-6.49Z" class="cls-2" transform="translate(678.22 792.62) rotate(-180)"/><circle cx="339.79" cy="322.1" r="13.81" class="cls-11"/><path d="M317.32,288.11s-9.23-7.53-14.35-7.28-2.87,7.28-2.87,7.28-8.55-2.66-6.08,6.32c0,0-6.9.63-2.91,7.62,0,0-3.61,2.49-3,6.24s6.49,10.85,12.73,11.48-2.75-10.49-2.75-10.49,5.87,5.37,9.74,4.25-5.37-11.36-5.37-11.36,8.49,7.11,11.11,4.68-6.49-13.74-6.49-13.74,8.24,5.07,11.11,3.69S321.69,291.27,317.32,288.11Z" class="cls-8"/><path d="M307.55,293.11s-5.15-4.64-7.45-5" class="cls-7"/><path d="M303.36,302.88s-7-7.66-9.34-8.45" class="cls-7"/><path d="M298.69,309.79s-5.45-7.24-7.58-7.74" class="cls-7"/><path d="M450,356.25s-18.24-7.6-30.21-2.95" class="cls-9"/><path d="M424.69,262.53s-3.5,13.63-5.16,40.35.17,34,.17,34" class="cls-9"/><path d="M262.82,341.46s-7.94,9.22-8.7,14.79" class="cls-9"/><path d="M353.6,205s15.38,7.67,40.32.64" class="cls-13"/><path d="M380.46,56.55S369,46.89,358.73,58.62s-7.43,54-55.43,55c0,0,6.9,28.78,3.41,32.78s-8.6-10.34-10.32-15-5.47-3.19-5.47-3.19l-1.35-15.46s-14-.49-14-24.46c0,0,11.32,9.66,19.3-13s54.25-61.24,88.86-37.28c0,0,34.09-7.32,55.82,13s14.06,54.25,32,50.25c0,0-5.31,12.67-13.31,12.82,0,0-3,27.78-9.15,28.28s-4.74-31.78-4.74-31.78S424.3,115.94,415.5,98,408.91,39.68,380.46,56.55Z" class="cls-11"/><path d="M373.6,47.38s-15.66-7.24-29.26,7S325.51,112,290.07,98.55" class="cls-14"/><path d="M290.07,92.81s19.22,4.24,31.45-23.71" class="cls-14"/><path d="M392.73,47.71s19.82-6.32,25.55,11.65,5.25,51.92,36.11,44.26" class="cls-14"/><path d="M430.34,66s-2.48,35.07,24.05,27" class="cls-14"/></g></svg>