<?xml version="1.0" encoding="UTF-8"?>
<svg xmlns="http://www.w3.org/2000/svg" xmlns:xlink="http://www.w3.org/1999/xlink" version="1.1" id="Mirror_1_" x="0px" y="0px" viewBox="0 0 512 512" style="enable-background:new 0 0 512 512;" xml:space="preserve" width="512" height="512">
<style type="text/css">
	.st0{clip-path:url(#SVGID_2_);}
	.st1{fill:#FF8D93;}
	.st2{fill:#FF535C;}
	.st3{clip-path:url(#SVGID_4_);}
	.st4{fill:#00CCC1;}
	.st5{fill:#AAEEEA;}
	.st6{fill:#FFFFFF;}
	.st7{fill:#FFB833;}
</style>
<g>
	<g id="Mirror">
		<g>
			<defs>
				<path id="SVGID_1_" d="M140.1,478.1L140.1,478.1c20.7,8.3,43.1-1.8,49.5-21.3l43.2-130.9c3.7-11.1-5.3-24.5-19.8-30.3l0,0      c-14.5-5.8-30.2-2.3-35.2,8.3l-58.8,124.7C110.1,447.1,119.4,469.8,140.1,478.1z"/>
			</defs>
			<clipPath id="SVGID_2_">
				<use xlink:href="#SVGID_1_" style="overflow:visible;"/>
			</clipPath>
			<g class="st0">
				<path class="st1" d="M140.1,478.1L140.1,478.1c20.7,8.3,43.1-1.8,49.5-21.3l43.2-130.9c3.7-11.1-5.3-24.5-19.8-30.3l0,0      c-14.5-5.8-30.2-2.3-35.2,8.3l-58.8,124.7C110.1,447.1,119.4,469.8,140.1,478.1z"/>
				<polygon class="st2" points="161.2,333.5 149.4,319.6 145.6,337.4 128.8,344.4 144.5,353.5 145.9,371.6 159.5,359.5       177.2,363.7 169.8,347.1 179.3,331.6     "/>
				<polygon class="st2" points="192.7,409.8 168.2,401.6 176.6,426.1 161.2,446.9 187.1,446.5 202.1,467.6 209.7,442.8       234.4,435.1 213.2,420.2 213.4,394.3     "/>
			</g>
		</g>
		<path class="st1" d="M198.4,332L198.4,332c58.1,23.2,124.3-1.7,152.8-57.3l31.9-62.3c30.5-59.6,6.9-132.6-52.7-163.1    c-3.4-1.7-6.8-3.3-10.3-4.7L308,39.7c-62.2-24.8-132.7,5.5-157.4,67.7c-1.4,3.5-2.6,7-3.7,10.6l-19.8,67.2    C109.4,245.2,140.3,308.8,198.4,332z"/>
		<g>
			<defs>
				<path id="SVGID_3_" d="M205.8,313.5c48.5,19.4,103.9-1.4,127.7-47.9l31.9-62.3c25.5-49.8,5.8-110.8-44-136.3      c-2.8-1.4-5.7-2.8-8.6-3.9l-12.1-4.8c-51.9-20.7-110.9,4.6-131.6,56.5c-1.2,2.9-2.2,5.9-3.1,9l-19.8,67.2      C131.4,240.9,157.2,294.1,205.8,313.5L205.8,313.5z"/>
			</defs>
			<clipPath id="SVGID_4_">
				<use xlink:href="#SVGID_3_" style="overflow:visible;"/>
			</clipPath>
			<g class="st3">
				<path class="st4" d="M205.8,313.5c48.5,19.4,103.9-1.4,127.7-47.9l31.9-62.3c25.5-49.8,5.8-110.8-44-136.3      c-2.8-1.4-5.7-2.8-8.6-3.9l-12.1-4.8c-51.9-20.7-110.9,4.6-131.6,56.5c-1.2,2.9-2.2,5.9-3.1,9l-19.8,67.2      C131.4,240.9,157.2,294.1,205.8,313.5L205.8,313.5z"/>
				<polygon class="st5" points="196.1,46.8 358.8,321.1 334.9,334.5 188.6,65.6 177.8,77.7 323.6,333.8 305.1,340.7 164.8,96.1       160.8,66.7     "/>
			</g>
		</g>
		<path class="st6" d="M384.2,146c-1.3,0-2.4-1-2.5-2.3c-1.7-12.2-5.2-24.1-10.6-35.2c-11.9-25-30.5-42.4-55.2-51.8    c-1.3-0.5-1.9-1.9-1.5-3.2s1.9-1.9,3.2-1.5c32.4,12.3,49.4,36.4,58,54.5c9.3,19.5,10.9,36,11,36.7c0.1,1.4-0.9,2.6-2.2,2.7    L384.2,146z"/>
		<path class="st6" d="M255.4,333.4c-2.4,0-4.9-0.1-7.3-0.4c-1.4-0.2-2.4-1.4-2.2-2.8c0.2-1.4,1.4-2.4,2.8-2.2    c40.6,5,79.3-36.9,79.7-37.3c0.9-1,2.5-1.1,3.5-0.2s1.1,2.5,0.2,3.5l0,0c-7.7,8.1-16.2,15.2-25.5,21.4    C289,327.3,271.5,333.4,255.4,333.4z"/>
		<path class="st6" d="M153.1,131.5c-0.2,0-0.5,0-0.7-0.1c-1.3-0.4-2.1-1.8-1.7-3.1c0,0,0,0,0,0C167.1,73.7,205.3,57,207,56.4    c1.3-0.6,2.7,0,3.3,1.2s0,2.7-1.2,3.3c0,0-0.1,0-0.1,0.1c-0.5,0.2-37.8,16.6-53.4,68.7C155.2,130.7,154.2,131.4,153.1,131.5z"/>
		<path class="st6" d="M191.8,429.3c-0.3,0-0.5,0-0.8-0.1c-1.3-0.4-2-1.8-1.6-3.2l20.8-63c0.4-1.3,1.8-2,3.2-1.6s2,1.8,1.6,3.2    l-20.8,63C193.8,428.6,192.9,429.3,191.8,429.3z"/>
		<path class="st6" d="M155.5,475.9c-1.6,0-35.9-0.5-36.6-36.4c0-1.4,1.1-2.5,2.4-2.5h0.1c1.4,0,2.5,1.1,2.5,2.5    c0.6,31.6,30.3,31.6,31.6,31.5c1.4,0,2.5,1.1,2.5,2.5C158,474.7,156.9,475.9,155.5,475.9C155.6,475.9,155.6,475.9,155.5,475.9    L155.5,475.9z"/>
		<path class="st6" d="M148.5,384.7c-0.4,0-0.7-0.1-1.1-0.2c-1.2-0.6-1.8-2.1-1.2-3.3l21.4-45.6c0.5-1.3,2-1.9,3.3-1.3    c1.3,0.5,1.9,2,1.3,3.3c0,0.1,0,0.1-0.1,0.2l-21.4,45.6C150.3,384.1,149.5,384.7,148.5,384.7z"/>
		<path class="st6" d="M147.2,279.1c-0.6,0-1.3-0.2-1.7-0.7c-6.5-6.3-11.3-15.8-13.7-27.4c-1.1-5.2-1.7-10.4-1.7-15.7    c0.1-1.4,1.2-2.4,2.6-2.4c1.4,0,2.5,1.1,2.5,2.5c0,0,0,0,0,0c0,0.3-0.2,25.7,13.9,39.4c1,1,1,2.5,0,3.5    C148.6,278.9,147.9,279.2,147.2,279.1L147.2,279.1z"/>
		<path class="st6" d="M133.9,210.3c4.1,1.6,1,7.8-3.1,6.2S129.7,208.6,133.9,210.3z"/>
		<path class="st6" d="M159.6,285.4c4.1,1.6,1,7.8-3.2,6.2S155.5,283.7,159.6,285.4z"/>
		<path class="st6" d="M227.9,325c4.1,1.6,1,7.8-3.1,6.2S223.8,323.3,227.9,325z"/>
		<path class="st6" d="M180.3,316.7c4.1,1.6,1,7.8-3.2,6.2S176.2,315.1,180.3,316.7z"/>
		<path class="st6" d="M141.5,399.3c4.1,1.6,1,7.8-3.1,6.2S137.4,397.6,141.5,399.3z"/>
		<path class="st6" d="M174.5,464.8c4.1,1.6,1,7.8-3.2,6.2S170.3,463.1,174.5,464.8z"/>
		<path class="st6" d="M343.8,268.3c4.1,1.6,1,7.8-3.1,6.2S339.6,266.7,343.8,268.3z"/>
		<path class="st6" d="M389.3,163.8c4.1,1.6,1,7.8-3.2,6.2S385.2,162.1,389.3,163.8z"/>
		<path class="st6" d="M302.4,44.4c4.1,1.7,1,7.8-3.1,6.2S298.3,42.8,302.4,44.4z"/>
		<path class="st6" d="M231.4,45c4.1,1.7,1,7.8-3.1,6.2S227.3,43.4,231.4,45z"/>
		<path class="st6" d="M148,147.9c4.1,1.7,1,7.8-3.1,6.2S143.9,146.2,148,147.9z"/>
	</g>
	<path class="st7" d="M265.7,409.7l-5-13.2c-0.4-1-1.6-1.5-2.6-1.1c-0.5,0.2-1,0.7-1.2,1.2l-4.4,13.3c-0.2,0.6-0.7,1.1-1.3,1.3   l-9.1,3c-1,0.4-1.6,1.5-1.2,2.6c0.2,0.6,0.6,1,1.2,1.2l9.3,3.3c0.6,0.2,1,0.7,1.2,1.2l5,15.1c0.4,1,1.5,1.6,2.5,1.3   c0.6-0.2,1.1-0.7,1.3-1.3l4.4-15c0.2-0.6,0.6-1.1,1.2-1.3l9.2-3.4c1-0.4,1.6-1.5,1.2-2.6c-0.2-0.5-0.6-1-1.2-1.2l-9.4-3.3   C266.4,410.7,265.9,410.3,265.7,409.7z"/>
	<path class="st7" d="M384.2,309l-5-13.2c-0.4-1-1.6-1.5-2.6-1.1c-0.6,0.2-1,0.7-1.2,1.2l-4.4,13.3c-0.2,0.6-0.7,1.1-1.3,1.3l-9.1,3   c-1,0.4-1.6,1.5-1.2,2.6c0.2,0.6,0.6,1,1.2,1.2l9.3,3.3c0.6,0.2,1,0.7,1.2,1.2l5,15.1c0.4,1,1.5,1.6,2.5,1.2   c0.6-0.2,1.1-0.7,1.3-1.3l4.4-15c0.2-0.6,0.6-1.1,1.2-1.3l9.2-3.4c1-0.4,1.6-1.5,1.2-2.6c-0.2-0.5-0.6-1-1.2-1.2l-9.4-3.3   C384.8,310,384.4,309.5,384.2,309z"/>
	<path class="st7" d="M146.4,49l-6.2-16.4c-0.5-1.3-1.9-1.9-3.2-1.4c-0.7,0.3-1.2,0.8-1.5,1.5l-5.4,16.5c-0.3,0.7-0.8,1.3-1.6,1.6   l-11.3,3.7c-1.3,0.4-2,1.8-1.6,3.1c0.2,0.7,0.8,1.3,1.5,1.5l11.6,4.2c0.7,0.3,1.3,0.8,1.5,1.5l6.2,18.8c0.4,1.3,1.8,2,3.1,1.6   c0.8-0.3,1.4-0.9,1.6-1.7l5.4-18.7c0.2-0.8,0.8-1.4,1.5-1.6l11.5-4.2c1.3-0.5,2-1.9,1.5-3.1c-0.2-0.7-0.8-1.3-1.5-1.5L148,50.4   C147.3,50.2,146.7,49.7,146.4,49z"/>
</g>
</svg>
