<svg height="512" viewBox="0 0 512 512" width="512" xmlns="http://www.w3.org/2000/svg"><g id="Non_Alcohol_Cosmetic" data-name="Non Alcohol Cosmetic"><path d="m275.11 74.14 5.46-14.38a2.18 2.18 0 0 1 4.1.1l4.76 14.51a2.18 2.18 0 0 0 1.38 1.38l9.95 3.3a2.17 2.17 0 0 1 .05 4.11l-10.2 3.65a2.14 2.14 0 0 0 -1.33 1.36l-5.47 16.51a2.17 2.17 0 0 1 -4.15-.08l-4.76-16.38a2.19 2.19 0 0 0 -1.34-1.44l-10.07-3.66a2.18 2.18 0 0 1 0-4.1l10.29-3.6a2.16 2.16 0 0 0 1.33-1.28z" fill="#ffb833"/><path d="m425.09 326.13 5.46-14.38a2.18 2.18 0 0 1 4.1.1l4.76 14.51a2.18 2.18 0 0 0 1.38 1.38l9.95 3.3a2.18 2.18 0 0 1 .05 4.11l-10.2 3.64a2.18 2.18 0 0 0 -1.33 1.37l-5.47 16.51a2.17 2.17 0 0 1 -4.15-.08l-4.76-16.38a2.23 2.23 0 0 0 -1.35-1.44l-10.06-3.66a2.18 2.18 0 0 1 0-4.1l10.29-3.6a2.21 2.21 0 0 0 1.33-1.28z" fill="#ffb833"/><path d="m67.63 107 6.79-17.86a2.7 2.7 0 0 1 5.09.12l5.92 18a2.69 2.69 0 0 0 1.71 1.74l12.37 4.1a2.7 2.7 0 0 1 0 5.11l-12.67 4.52a2.71 2.71 0 0 0 -1.65 1.7l-6.8 20.52a2.7 2.7 0 0 1 -5.16-.1l-5.91-20.36a2.7 2.7 0 0 0 -1.67-1.78l-12.51-4.56a2.7 2.7 0 0 1 0-5.08l12.86-4.53a2.67 2.67 0 0 0 1.63-1.54z" fill="#ffb833"/><rect fill="#ff535c" height="87.26" rx="15.55" width="288.55" x="109.64" y="134.9"/><path d="m370.42 481.2h-233a12.66 12.66 0 0 1 -12.64-11.91l-14.34-241.17a12.66 12.66 0 0 1 12.64-13.42h261.67a12.66 12.66 0 0 1 12.64 13.42l-14.33 241.17a12.66 12.66 0 0 1 -12.64 11.91z" fill="#ff8d93"/><rect fill="#ffdb99" height="161.55" rx="5.16" width="187.53" x="160.15" y="250.86"/><path d="m235.63 310.86 11.25-28.11a5.09 5.09 0 0 1 9.12-.75l15.47 26a5.07 5.07 0 0 0 4 2.48l30.21 2a5.09 5.09 0 0 1 3.49 8.43l-20 22.76a5.09 5.09 0 0 0 -1.11 4.6l7.42 29.36a5.08 5.08 0 0 1 -6.94 5.92l-27.81-12a5.12 5.12 0 0 0 -4.73.45l-25.62 16.13a5.09 5.09 0 0 1 -7.78-4.78l2.78-30.15a5.1 5.1 0 0 0 -1.8-4.38l-23.26-19.38a5.09 5.09 0 0 1 2.14-8.88l29.54-6.62a5.1 5.1 0 0 0 3.63-3.08z" fill="#ffb833"/><path d="m395 37.86a17.57 17.57 0 0 0 -27.68.18c-70.78 91.43-80.74 180.51-45.24 215.7 28.11 27.87 90.25 27.37 118.4-.83 35.63-35.71 25.99-125.09-45.48-215.05z" fill="#aaeeea"/><path d="m357.06 226.85c-20.36 0-36.92-20.62-36.92-46s16.56-45.95 36.92-45.95 36.94 20.66 36.94 45.99-16.59 45.96-36.94 45.96zm0-84.91c-16.5 0-29.92 17.48-29.92 38.95s13.42 39 29.92 39 29.91-17.48 29.91-39-13.42-38.95-29.91-38.95z" fill="#00ccc1"/><path d="m406.06 144.87a13.51 13.51 0 1 1 13.51-13.5 13.52 13.52 0 0 1 -13.51 13.5zm0-22a8.51 8.51 0 1 0 8.51 8.51 8.51 8.51 0 0 0 -8.51-8.52z" fill="#00ccc1"/><path d="m434.75 228.2a13.51 13.51 0 1 1 13.5-13.5 13.52 13.52 0 0 1 -13.5 13.5zm0-22a8.51 8.51 0 1 0 8.5 8.51 8.52 8.52 0 0 0 -8.5-8.52z" fill="#00ccc1"/><path d="m402.65 228.2a2.42 2.42 0 0 1 -.74-.11 2.49 2.49 0 0 1 -1.64-3.13l29.48-94.34a2.5 2.5 0 1 1 4.77 1.49l-29.52 94.34a2.5 2.5 0 0 1 -2.35 1.75z" fill="#00ccc1"/><g fill="#fff"><path d="m122.92 183.39a2.5 2.5 0 0 1 -2.5-2.5v-22.76a14.5 14.5 0 0 1 14.48-14.49h58.38a2.5 2.5 0 0 1 0 5h-58.38a9.5 9.5 0 0 0 -9.48 9.49v22.76a2.5 2.5 0 0 1 -2.5 2.5z"/><path d="m132.35 376.23a2.5 2.5 0 0 1 -2.5-2.36l-6.29-117.53a2.5 2.5 0 0 1 5-.27l6.29 117.53a2.5 2.5 0 0 1 -2.37 2.63z"/><path d="m216.47 468.21h-56.82a20.41 20.41 0 0 1 -20.38-18.47l-3.12-31.74a2.5 2.5 0 0 1 5-.49l3.12 31.74a15.42 15.42 0 0 0 15.4 14h56.82a2.5 2.5 0 0 1 0 5z"/><path d="m372.13 444.24h-.13a2.5 2.5 0 0 1 -2.35-2.64l5.5-93.79a2.5 2.5 0 0 1 5 .3l-5.51 93.78a2.51 2.51 0 0 1 -2.51 2.35z"/><path d="m332.42 119.56a2.5 2.5 0 0 1 -2.25-3.57c.93-2 23.05-48.69 40.14-66.69a2.5 2.5 0 0 1 3.63 3.44c-16.54 17.42-39 64.9-39.25 65.38a2.51 2.51 0 0 1 -2.27 1.44z"/><path d="m380.48 268.07c-18.58 0-39.26-4.27-54-19.48-11.81-12.17-14.11-25.46-14.2-26a2.5 2.5 0 1 1 4.93-.81 49.34 49.34 0 0 0 13.05 23.54c14.35 14.68 37.46 20.4 66.84 16.68a2.5 2.5 0 1 1 .63 5 137.17 137.17 0 0 1 -17.25 1.07z"/><path d="m415.77 251.53c-5.28 0-4.49 8.17.76 8.17s4.47-8.17-.76-8.17z"/><path d="m312 192c-5.28 0-4.5 8.17.76 8.17s4.49-8.17-.76-8.17z"/><path d="m324.38 128.89c-5.28 0-4.49 8.17.76 8.17s4.5-8.17-.76-8.17z"/><path d="m382.16 36.91c-5.27 0-4.49 8.17.76 8.17s4.5-8.17-.76-8.17z"/><path d="m450.94 194.48a2.5 2.5 0 0 1 -2.5-2.48c-.47-44.5-22.49-87.52-22.72-87.95a2.5 2.5 0 1 1 4.44-2.3c.23.44 22.8 44.52 23.28 90.2a2.51 2.51 0 0 1 -2.47 2.53z"/><path d="m414 78.18c-5.27 0-4.49 8.17.76 8.17s4.5-8.17-.76-8.17z"/><path d="m216.09 143.23c-5.28 0-4.5 8.18.76 8.18s4.49-8.18-.76-8.18z"/><path d="m122.54 197.09c-5.28 0-4.5 8.17.76 8.17s4.49-8.17-.76-8.17z"/><path d="m123.32 228.53c-5.28 0-4.49 8.18.76 8.18s4.5-8.18-.76-8.18z"/><path d="m135.11 388.32c-5.27 0-4.49 8.17.76 8.17s4.5-8.17-.76-8.17z"/><path d="m238.89 460.84c-5.28 0-4.5 8.18.76 8.18s4.49-8.18-.76-8.18z"/><path d="m376.27 315.8c-5.28 0-4.5 8.17.76 8.17s4.49-8.17-.76-8.17z"/><path d="m369.19 460.84c-5.28 0-4.49 8.18.76 8.18s4.5-8.18-.76-8.18z"/></g></g></svg>