<svg height="512" viewBox="0 0 512 512" width="512" xmlns="http://www.w3.org/2000/svg" xmlns:xlink="http://www.w3.org/1999/xlink"><clipPath id="clip-path"><rect height="219.62" rx="15.61" transform="matrix(.954 .301 -.301 .954 88.73 -98.55)" width="31.21" x="348.56" y="128.85"/></clipPath><g id="Serum"><path d="m74.72 153 4.9-12.9a2 2 0 0 1 3.68.09l4.27 13a2 2 0 0 0 1.24 1.24l8.93 3a2 2 0 0 1 .05 3.69l-9.16 3.27a1.92 1.92 0 0 0 -1.19 1.22l-4.91 14.82a2 2 0 0 1 -3.73-.06l-4.27-14.71a2 2 0 0 0 -1.21-1.29l-9-3.29a2 2 0 0 1 0-3.68l9.23-3.24a2 2 0 0 0 1.17-1.16z" fill="#ffb833"/><path d="m420.6 294.92 4.9-12.9a2 2 0 0 1 3.68.08l4.27 13a2 2 0 0 0 1.24 1.25l8.93 3a2 2 0 0 1 0 3.69l-9.15 3.27a2 2 0 0 0 -1.2 1.23l-4.9 14.82a2 2 0 0 1 -3.73-.07l-4.28-14.71a2 2 0 0 0 -1.2-1.29l-9-3.29a2 2 0 0 1 0-3.67l9.24-3.24a2 2 0 0 0 1.2-1.17z" fill="#ffb833"/><path d="m298 116.1 6.09-16a2.42 2.42 0 0 1 4.57.1l5.34 16.16a2.43 2.43 0 0 0 1.55 1.54l11.09 3.68a2.43 2.43 0 0 1 .06 4.59l-11.38 4.06a2.48 2.48 0 0 0 -1.49 1.53l-6.1 18.42a2.42 2.42 0 0 1 -4.63-.09l-5.31-18.28a2.42 2.42 0 0 0 -1.5-1.6l-11.29-4.09a2.43 2.43 0 0 1 0-4.57l11.48-4a2.43 2.43 0 0 0 1.52-1.45z" fill="#ffb833"/><path d="m373.5 342a4 4 0 0 0 -6.22.14c-21.26 27.11-23.46 54.15-12.49 64.56 8.63 8.18 27.24 7.8 35.3-.78 10.19-10.87 6.07-37.55-16.59-63.92z" fill="#ffb833"/><path d="m357.6 397a2.5 2.5 0 0 1 -2.13-1.2c-3.44-5.61-3.09-14.64 1-26.82a116.59 116.59 0 0 1 6.94-16.14 2.5 2.5 0 1 1 4.4 2.37c-4.08 7.58-13.5 29.2-8.12 38a2.5 2.5 0 0 1 -2.09 3.79z" fill="#fff"/><path d="m371.43 399.69c-4.37 0-3.72 6.76.63 6.76s3.72-6.76-.63-6.76z" fill="#fff"/><g clip-path="url(#clip-path)"><rect fill="#ffdb99" height="219.62" rx="15.61" transform="matrix(.954 .301 -.301 .954 88.73 -98.55)" width="31.21" x="348.56" y="128.85"/><path d="m320.2 290.39s15.81-2.83 21.66 9.75 22.31 3.8 22.31 3.8l-18.9 52.19-25.07-7.32-8.09-33.16z" fill="#ffb833"/></g><rect fill="#ff535c" height="66.32" rx="11.5" transform="matrix(.954 .301 -.301 .954 57.98 -113.93)" width="90.71" x="353.34" y="98.01"/><rect fill="#ff535c" height="94.86" rx="24.38" transform="matrix(.954 .301 -.301 .954 42.96 -121.34)" width="48.77" x="390.86" y="31.31"/><path d="m430 107.07h-.14l-45-13.2a.5.5 0 1 1 .28-.95l45 13.19a.5.5 0 0 1 .34.62.49.49 0 0 1 -.48.34z" fill="#383333"/><path d="m365.65 138.53h-.14a.5.5 0 0 1 -.34-.62l10-34.39a.5.5 0 0 1 .62-.34.51.51 0 0 1 .34.62l-10 34.39a.5.5 0 0 1 -.48.34z" fill="#383333"/><path d="m380.05 144.92h-.13a.51.51 0 0 1 -.35-.62l10-34.38a.5.5 0 0 1 1 .28l-10 34.38a.51.51 0 0 1 -.52.34z" fill="#383333"/><path d="m393.69 148.43h-.14a.51.51 0 0 1 -.34-.62l10-34.38a.5.5 0 0 1 1 .28l-10 34.38a.49.49 0 0 1 -.52.34z" fill="#383333"/><path d="m407.54 153.46h-.14a.5.5 0 0 1 -.34-.62l10-34.38a.5.5 0 0 1 .62-.34.49.49 0 0 1 .34.62l-10.02 34.36a.51.51 0 0 1 -.46.36z" fill="#383333"/><path d="m420.75 159a.4.4 0 0 1 -.15 0 .5.5 0 0 1 -.32-.63l11.46-34.62a.49.49 0 0 1 .63-.32.5.5 0 0 1 .32.63l-11.46 34.62a.51.51 0 0 1 -.48.32z" fill="#383333"/><path d="m357.28 136.54a2.64 2.64 0 0 1 -.78-.12 2.5 2.5 0 0 1 -1.6-3.15l10.24-31.38a2.5 2.5 0 1 1 4.75 1.55l-10.24 31.38a2.49 2.49 0 0 1 -2.37 1.72z" fill="#fff"/><path d="m400.28 71.28a3.27 3.27 0 0 1 -.44 0 2.5 2.5 0 0 1 -2-2.9c.16-.89 4-21.9 15.06-29.41a15 15 0 0 1 11.81-2.35 2.5 2.5 0 1 1 -1 4.9 9.92 9.92 0 0 0 -8 1.59c-9.34 6.31-12.91 25.94-12.95 26.14a2.5 2.5 0 0 1 -2.48 2.03z" fill="#fff"/><path d="m348.31 267.89a2.62 2.62 0 0 1 -.72-.11 2.5 2.5 0 0 1 -1.67-3.11l23.52-78a2.5 2.5 0 0 1 4.79 1.44l-23.52 78a2.51 2.51 0 0 1 -2.4 1.78z" fill="#fff"/><path d="m343.39 275.58c-4.37 0-3.72 6.76.63 6.76s3.72-6.76-.63-6.76z" fill="#fff"/><path d="m377.28 169.76c-4.36 0-3.72 6.76.63 6.76s3.72-6.76-.63-6.76z" fill="#fff"/><path d="m354.61 140.5c-4.37 0-3.72 6.76.62 6.76s3.77-6.76-.62-6.76z" fill="#fff"/><path d="m396.06 77.34c-4.37 0-3.72 6.76.63 6.76s3.71-6.76-.63-6.76z" fill="#fff"/><path d="m435.31 41.74c-4.36 0-3.71 6.76.63 6.76s3.72-6.76-.63-6.76z" fill="#fff"/><path d="m372.65 91.49c-4.37 0-3.72 6.76.63 6.76s3.72-6.76-.63-6.76z" fill="#fff"/><path d="m172.46 191.29h49.89a74.74 74.74 0 0 1 74.75 74.71v189.24a26.38 26.38 0 0 1 -26.38 26.38h-145.26a26.38 26.38 0 0 1 -26.38-26.38v-190.57a73.38 73.38 0 0 1 73.38-73.38z" fill="#ff8d93"/><rect fill="#ff8d93" height="77.25" rx="2.9" width="97.53" x="149.32" y="149.75"/><rect fill="#ff8d93" height="7.8" rx="3.9" width="105.28" x="145.45" y="157.59"/><rect fill="#ff8d93" height="7.8" rx="3.9" width="105.28" x="145.45" y="169.46"/><path d="m252.53 445.85h-108.88a24 24 0 0 1 -24-24v-145.18a24.08 24.08 0 0 1 11.91-20.74 130 130 0 0 1 133.21.12 24 24 0 0 1 11.78 20.66v145.13a24 24 0 0 1 -24.02 24.01z" fill="#ffdb99"/><path d="m196.18 295c-4.2-8.62-11.51-13.75-18.28-13-6.37.7-10.88 6.44-12.68 10.73-7.22 17.17 12.34 52.12 34.47 51.27 22-.79 39.07-36.57 30.56-54-2.25-4.59-7.45-10.28-14.31-10.73-7.66-.43-15.65 5.73-19.76 15.73z" fill="#ffb833"/><rect fill="#ffb833" height="9.75" rx="4.88" width="97.53" x="149.32" y="359.65"/><rect fill="#ffb833" height="9.75" rx="4.88" width="97.53" x="149.32" y="387.61"/><g fill="#fff"><path d="m200.71 159.39h-39.5a2.5 2.5 0 0 1 0-5h39.5a2.5 2.5 0 1 1 0 5z"/><path d="m200.71 177.6h-39.5a2.5 2.5 0 0 1 0-5h39.5a2.5 2.5 0 0 1 0 5z"/><path d="m106.14 273.79h-.21a2.5 2.5 0 0 1 -2.29-2.69 114.94 114.94 0 0 1 8.7-33.17c9.8-22.36 25.7-35 46-36.42a2.5 2.5 0 1 1 .36 5c-18.56 1.32-32.59 12.49-41.7 33.3a111.89 111.89 0 0 0 -8.35 31.68 2.49 2.49 0 0 1 -2.51 2.3z"/><path d="m108.21 432.76a2.5 2.5 0 0 1 -2.5-2.5v-86.2a2.5 2.5 0 0 1 5 0v86.2a2.5 2.5 0 0 1 -2.5 2.5z"/><path d="m287 435a2.5 2.5 0 0 1 -2.5-2.5v-147.24a2.5 2.5 0 0 1 5 0v147.2a2.49 2.49 0 0 1 -2.5 2.54z"/><path d="m232.48 476.33h-68.78a2.5 2.5 0 0 1 0-5h68.78a2.5 2.5 0 0 1 0 5z"/><path d="m285.57 258.64c-4.36 0-3.72 6.76.63 6.76s3.72-6.76-.63-6.76z"/><path d="m285.57 449.32c-4.36 0-3.72 6.76.63 6.76s3.72-6.76-.63-6.76z"/><path d="m250 470.77c-4.36 0-3.72 6.76.63 6.76s3.69-6.76-.63-6.76z"/><path d="m147.07 470.29c-4.36 0-3.71 6.76.63 6.76s3.72-6.76-.63-6.76z"/><path d="m107.57 446.39c-4.36 0-3.72 6.76.63 6.76s3.72-6.76-.63-6.76z"/><path d="m106.6 319.11c-4.37 0-3.72 6.76.63 6.76s3.71-6.76-.63-6.76z"/><path d="m106.6 283c-4.37 0-3.72 6.76.63 6.76s3.71-6.76-.63-6.76z"/><path d="m170 197.19c-4.36 0-3.71 6.76.63 6.76s3.71-6.76-.63-6.76z"/><path d="m214.05 172.21c-4.37 0-3.72 6.76.63 6.76s3.71-6.76-.63-6.76z"/><path d="m213.72 153.51c-4.36 0-3.72 6.76.63 6.76s3.72-6.76-.63-6.76z"/></g></g></svg>