<svg height="512" viewBox="0 0 512 512" width="512" xmlns="http://www.w3.org/2000/svg"><g id="Sun_Cream" data-name="Sun Cream"><path d="m430.76 124.91-5.36-14.09a2.13 2.13 0 0 0 -4 .09l-4.67 14.23a2.13 2.13 0 0 1 -1.35 1.36l-9.76 3.24a2.13 2.13 0 0 0 -.05 4l10 3.57a2.14 2.14 0 0 1 1.3 1.34l5.37 16.2a2.13 2.13 0 0 0 4.07-.08l4.69-16.04a2.16 2.16 0 0 1 1.32-1.41l9.87-3.59a2.14 2.14 0 0 0 0-4l-10.09-3.54a2.12 2.12 0 0 1 -1.34-1.28z" fill="#ffb833"/><path d="m95.06 321.37-5.36-14.09a2.13 2.13 0 0 0 -4 .09l-4.7 14.23a2.13 2.13 0 0 1 -1.34 1.4l-9.76 3.2a2.13 2.13 0 0 0 -.05 4l10 3.57a2.14 2.14 0 0 1 1.3 1.34l5.37 16.2a2.13 2.13 0 0 0 4.07-.08l4.67-16.07a2.16 2.16 0 0 1 1.32-1.41l9.87-3.59a2.14 2.14 0 0 0 0-4l-10.09-3.54a2.12 2.12 0 0 1 -1.3-1.25z" fill="#ffb833"/><path d="m173.88 74-6.66-17.52a2.65 2.65 0 0 0 -5 .11l-5.81 17.69a2.67 2.67 0 0 1 -1.67 1.72l-12.13 4a2.65 2.65 0 0 0 -.06 5l12.45 4.44a2.66 2.66 0 0 1 1.63 1.66l6.66 20.13a2.65 2.65 0 0 0 5.06-.09l5.81-20a2.59 2.59 0 0 1 1.64-1.75l12.25-4.39a2.65 2.65 0 0 0 0-5l-12.54-4.4a2.63 2.63 0 0 1 -1.63-1.6z" fill="#ffb833"/><rect fill="#00ccc1" height="102.92" rx="19.71" transform="matrix(-.986 -.167 .167 -.986 582.79 223.52)" width="98.21" x="251.71" y="35.73"/><path d="m148.44 450.58 175.89 29.88a20.37 20.37 0 0 0 23.2-15.26l50.08-205.53a122.3 122.3 0 0 0 -98.34-149.53 126.92 126.92 0 0 0 -147.58 112.78l-20.11 205.6a20.36 20.36 0 0 0 16.86 22.06z" fill="#ff8d93"/><path d="m197.21 414.38 93.38 15.87a30.56 30.56 0 0 0 35.24-25l29.75-175.15a30.44 30.44 0 0 0 -5.58-23.38c-10-13.42-30.19-33.81-62.76-39.34-4.42-.75-40.2-6.19-72.62 16.4a30.48 30.48 0 0 0 -12.62 19.91l-29.8 175.45a30.55 30.55 0 0 0 25.01 35.24z" fill="#ffdb99"/><circle cx="270.28" cy="266.48" fill="#ffb833" r="35.26"/><path d="m280.42 228.84-9.36-1.59a2.61 2.61 0 0 1 -1.68-4.1l7.23-10a2.6 2.6 0 0 1 4.68 1.06l2.13 11.61a2.61 2.61 0 0 1 -3 3.02z" fill="#ffb833"/><path d="m303.75 245-5-8.05a2.61 2.61 0 0 1 1.94-4l12.3-1.27a2.61 2.61 0 0 1 2.33 4.2l-7.32 9.31a2.61 2.61 0 0 1 -4.25-.19z" fill="#ffb833"/><path d="m308.78 274.69 1.86-9.31a2.62 2.62 0 0 1 4.15-1.56l9.81 7.53a2.61 2.61 0 0 1 -1.19 4.65l-11.68 1.79a2.61 2.61 0 0 1 -2.95-3.1z" fill="#ffb833"/><path d="m295.68 298.49 6.42-7a2.62 2.62 0 0 1 4.36.82l4.54 11.52a2.61 2.61 0 0 1 -3.43 3.36l-10.91-4.52a2.62 2.62 0 0 1 -.98-4.18z" fill="#ffb833"/><path d="m272.52 306.78 9.41-1.29a2.61 2.61 0 0 1 2.83 3.41l-3.89 11.73a2.61 2.61 0 0 1 -4.79.4l-5.51-10.45a2.6 2.6 0 0 1 1.95-3.8z" fill="#ffb833"/><path d="m248.26 300 8.49 4.24a2.61 2.61 0 0 1 .42 4.41l-9.83 7.5a2.61 2.61 0 0 1 -4.18-2.37l1.34-11.78a2.62 2.62 0 0 1 3.76-2z" fill="#ffb833"/><path d="m233.19 281 4.31 8.46a2.61 2.61 0 0 1 -2.29 3.79l-12.36.18a2.61 2.61 0 0 1 -1.95-4.39l8.06-8.64a2.6 2.6 0 0 1 4.23.6z" fill="#ffb833"/><path d="m232.19 254.67-1.05 9.44a2.61 2.61 0 0 1 -4 1.91l-10.42-6.64a2.61 2.61 0 0 1 .79-4.74l11.49-2.79a2.61 2.61 0 0 1 3.19 2.82z" fill="#ffb833"/><path d="m249.18 231.67-7.49 5.83a2.61 2.61 0 0 1 -4.16-1.52l-2.53-12.11a2.62 2.62 0 0 1 4-2.74l10 6.27a2.61 2.61 0 0 1 .18 4.27z" fill="#ffb833"/><rect fill="#ffb833" height="7.42" rx="3" transform="matrix(-.986 -.167 .167 -.986 455.22 718.2)" width="88.24" x="213.77" y="336.2"/><rect fill="#ffb833" height="7.42" rx="3" transform="matrix(-.986 -.167 .167 -.986 441.07 773.1)" width="88.24" x="209.01" y="364.24"/><path d="m354.14 66.58h-.08l-96.68-16.43a.5.5 0 0 1 -.41-.58.5.5 0 0 1 .57-.41l96.69 16.43a.5.5 0 0 1 .41.57.51.51 0 0 1 -.5.42z" fill="#383333"/><path d="m313.1 69a7.14 7.14 0 0 1 -1.12-.09l-15.66-2.66a6.6 6.6 0 0 1 -4.29-2.7 6.53 6.53 0 0 1 -1.13-4.94l1-5.91a6.61 6.61 0 0 1 7.64-5.42l15.66 2.72a6.64 6.64 0 0 1 5.43 7.64l-1 5.9a6.62 6.62 0 0 1 -6.53 5.46zm-14.68-20.81a5.63 5.63 0 0 0 -5.53 4.69l-1 5.9a5.64 5.64 0 0 0 4.61 6.49l15.66 2.66a5.63 5.63 0 0 0 6.49-4.6l1-5.91a5.64 5.64 0 0 0 -4.6-6.49l-15.67-2.66a6 6 0 0 0 -.96-.08z" fill="#383333"/><g fill="#fff"><path d="m389.33 227.37a2.5 2.5 0 0 1 -2.49-2.33c0-.63-4.63-62.72-46.09-84.2a2.5 2.5 0 0 1 2.25-4.44c18.27 9.46 32.5 27.76 41.16 52.93a150.18 150.18 0 0 1 7.63 35.38 2.51 2.51 0 0 1 -2.33 2.66z"/><path d="m348.9 417.45a2.54 2.54 0 0 1 -.61-.07 2.5 2.5 0 0 1 -1.82-3l21.46-85.71a2.5 2.5 0 0 1 4.85 1.22l-21.46 85.7a2.49 2.49 0 0 1 -2.42 1.86z"/><path d="m219.05 454.36a2.63 2.63 0 0 1 -.49-.05l-58.82-11.71a18 18 0 0 1 -14.5-18.05l.59-29a2.47 2.47 0 0 1 2.55-2.45 2.5 2.5 0 0 1 2.45 2.56l-.6 29a13 13 0 0 0 10.49 13.05l58.81 11.7a2.5 2.5 0 0 1 -.48 5z"/><path d="m164.9 219.33a2.92 2.92 0 0 1 -.5-.05 2.5 2.5 0 0 1 -2-2.95c9.88-48.2 41.85-68.85 43.21-69.71a2.5 2.5 0 0 1 2.67 4.23c-.39.24-31.56 20.52-41 66.48a2.5 2.5 0 0 1 -2.38 2z"/><path d="m339.68 102.48a2.15 2.15 0 0 1 -.43 0 2.49 2.49 0 0 1 -2-2.88l6.63-39a2.5 2.5 0 0 1 4.93.84l-6.63 39a2.5 2.5 0 0 1 -2.5 2.04z"/><path d="m338.84 45.73c5.46.93 3.21 9.24-2.22 8.32s-3.22-9.24 2.22-8.32z"/><path d="m337 110.65c5.46.93 3.21 9.24-2.22 8.32s-3.2-9.24 2.22-8.32z"/><path d="m325.51 125.42c5.46.93 3.21 9.25-2.22 8.32s-3.21-9.24 2.22-8.32z"/><path d="m385.45 257.5c5.46.92 3.22 9.24-2.22 8.32s-3.23-9.25 2.22-8.32z"/><path d="m376.18 297.32c5.46.93 3.21 9.24-2.22 8.32s-3.21-9.24 2.22-8.32z"/><path d="m342.82 434.66c5.45.93 3.21 9.24-2.23 8.32s-3.21-9.24 2.23-8.32z"/><path d="m255.13 452.38c5.46.93 3.21 9.24-2.22 8.32s-3.21-9.24 2.22-8.32z"/><path d="m155.06 365.76c5.46.93 3.21 9.24-2.22 8.32s-3.21-9.24 2.22-8.32z"/><path d="m162.15 242.77c5.46.93 3.21 9.25-2.22 8.32s-3.21-9.24 2.22-8.32z"/><path d="m229.49 130.65c5.46.93 3.22 9.24-2.22 8.32s-3.21-9.24 2.22-8.32z"/><path d="m258.6 86.41a2 2 0 0 1 -.42 0 2.5 2.5 0 0 1 -2.05-2.88l4.06-23.88a2.5 2.5 0 0 1 4.93.84l-4.06 23.88a2.49 2.49 0 0 1 -2.46 2.04z"/><path d="m274 38.48c5.46.93 3.21 9.24-2.22 8.32s-3.21-9.24 2.22-8.32z"/></g></g></svg>