<svg height="512" viewBox="0 0 512 512" width="512" xmlns="http://www.w3.org/2000/svg" xmlns:xlink="http://www.w3.org/1999/xlink"><clipPath id="a"><path d="m86.92 204.88h37.24v76.92h-37.24z"/></clipPath><clipPath id="b"><path d="m380.17 208.35h37.24v76.92h-37.24z" transform="matrix(-1 0 0 -1 797.57 493.61)"/></clipPath><path d="m177.34 293.56c-5.8-16.57-18.8-22.05-18.8-22.05v58.65l15.35 84.65 11.72.06s-2.46-104.74-8.27-121.31z" fill="#1573d8"/><circle cx="435.58" cy="225.65" fill="#e73f46" r="23.26"/><path d="m392.48 261.68c-20.07 83.87-23.34 111.71-42.8 122.71-3.1 1.75-8.63 4.2-28.82 3.49a246.23 246.23 0 0 1 -71.61-13.54l3.67-28.42 71-1.71c13.68-33.08 16.51-47.83 19.94-54.58 5.14-10.12 17.35-21.79 48.62-27.95z" fill="#917eec"/><path d="m268 345.59-17.28-1.25s-13.05-2.29-18-1.15c-8 1.84-15.35 5.83-14.9 7.53s8.76-1.33 12.25 2.65c4.2 4.77-3.57 14-.19 19.8 2 3.37 8 6 25.44 3.19l10.92 3.19a92.59 92.59 0 0 0 1.76-33.96z" fill="#f5b493"/><g clip-path="url(#a)"><path d="m86.92 204.88h37.24v76.92h-37.24z" fill="#955d43"/><path d="m89.76 215.19a39.78 39.78 0 0 0 6.77 20.73c10.52 15.31 28.43 17 31.1 17.24v-26.41z" fill="#834a27"/></g><g clip-path="url(#b)"><path d="m380.17 208.35h37.24v76.92h-37.24z" fill="#f5b493" transform="matrix(-1 0 0 -1 797.57 493.61)"/><path d="m414.56 218.65a39.54 39.54 0 0 1 -6.77 20.73c-10.52 15.32-28.42 17-31.09 17.25v-26.42z" fill="#eba284"/></g><path d="m151.88 221.62c-5 11.7-9.24 16.69-12.33 18.68-11.83 7.62-28.23-1.09-34.35-4.34a70.75 70.75 0 0 1 -15.08-11c-8.34-6.79-27.46-25.26-27.72-52.79-.06-5.89-.28-29.63 18.11-43.42 16-12 39.62-11.7 53.87-1.27a48.1 48.1 0 0 1 10.47 9.11c9.9 9.44 8.38 20 9.66 33.87.51 5.61 2.57 10.82 3.64 19.39s.2 16.65-6.27 31.77z" fill="#955d43"/><g fill="#2d1929"><path d="m134.44 201.53c2.84-1.59 4.29-3.19 4.33-4.77.07-3.62-7.18-4.43-9.53-17.21a.5.5 0 0 1 .4-.59.49.49 0 0 1 .58.41c2.37 12.86 9.64 12.91 9.55 17.41 0 2-1.67 3.85-4.84 5.62a.5.5 0 0 1 -.49-.87z"/><path d="m144.76 185.68c-2 .17-3.87-2.22-4.13-5.33s1.17-5.78 3.18-5.95 3.86 2.22 4.12 5.34-1.16 5.78-3.17 5.94z"/><path d="m113.37 188.31c-2 .17-3.87-2.22-4.13-5.34s1.17-5.78 3.18-5.94 3.86 2.22 4.13 5.33-1.17 5.78-3.18 5.95z"/><path d="m130 219.05c-4 0-11-1-15-7a.5.5 0 0 1 .13-.7.51.51 0 0 1 .7.14c5.55 8.23 17 6.35 17.15 6.33a.5.5 0 0 1 .58.41.49.49 0 0 1 -.41.57 20.11 20.11 0 0 1 -3.15.25z"/><path d="m132.45 164.28a1 1 0 0 1 -.65-1.75c.08-.07 8.23-6.93 17.47-1.66a1 1 0 1 1 -1 1.74c-8-4.57-14.89 1.19-15.18 1.43a1 1 0 0 1 -.64.24z"/><path d="m101.18 165.91a1 1 0 0 1 -.63-1.77c8.29-6.68 17.43-1.21 17.52-1.15a1 1 0 1 1 -1 1.7c-.32-.19-8-4.78-15.21 1a1 1 0 0 1 -.68.22z"/></g><path d="m58.45 414.52s-8.84-102.32 0-127.14c10.68-30 64.47-35.39 85.83-19.16 4.76 3.62 8.71 8.84 16.18 40 9.9 41.39 13.88 77.93 16.88 106.26z" fill="#86ebf9"/><path d="m91.88 261.65c-5 .85-35.79 6.6-46.42 30.89-2 4.66-5.4 14.73 0 37.84 5.24 22.41 14.84 63.5 44.84 78.62a494.58 494.58 0 0 0 127.1-27.61q-3.72-13.86-7.45-27.71l-114.12 2.91z" fill="#287eef"/><path d="m441.93 175.61c-.26 27.53-19.38 46-27.73 52.79a70.21 70.21 0 0 1 -15.07 11c-6.13 3.26-22.53 12-34.35 4.35-3.09-2-7.34-7-12.34-18.68-6.46-15.12-7.34-23.23-6.27-31.81s3.13-13.77 3.65-19.38c1.27-13.86-.25-24.43 9.66-33.88a48 48 0 0 1 10.46-9.11c14.26-10.42 37.9-10.71 53.87 1.27 18.4 13.84 18.19 37.56 18.12 43.45z" fill="#f5b493"/><path d="m369.39 205.87c-3.16-1.77-4.79-3.66-4.83-5.62-.09-4.52 7.18-4.56 9.54-17.42a.5.5 0 0 1 1 .18c-2.36 12.8-9.61 13.59-9.53 17.22 0 1.58 1.49 3.18 4.32 4.77a.5.5 0 0 1 -.5.87z" fill="#2d1929"/><path d="m363.69 183.81c-.26 3.12-2.1 5.51-4.12 5.34s-3.44-2.83-3.18-6 2.11-5.5 4.12-5.33 3.49 2.88 3.18 5.99z" fill="#2d1929"/><path d="m395.08 186.44c-.26 3.12-2.1 5.51-4.12 5.34s-3.44-2.83-3.18-5.95 2.11-5.51 4.12-5.34 3.44 2.83 3.18 5.95z" fill="#2d1929"/><path d="m371.87 167.75a1 1 0 0 1 -.65-.24c-.29-.25-7.18-6-15.17-1.43a1 1 0 0 1 -1.37-.38 1 1 0 0 1 .37-1.36c9.24-5.28 17.4 1.58 17.48 1.65a1 1 0 0 1 -.66 1.76z" fill="#2d1929"/><path d="m402.91 170.35a1 1 0 0 1 -.72-.3c-6.43-6.64-14.89-2.9-15-2.86a1 1 0 0 1 -.83-1.82c.1 0 9.84-4.36 17.24 3.29a1 1 0 0 1 -.69 1.69z" fill="#2d1929"/><path d="m450.27 414.52c-.33-13.94-.85-37.78-1.27-67.69-.64-45.37 1.6-57.86-8.74-69.43-18.15-20.31-60.16-22.54-81.84 2.62-11.46 13.3-12.61 29.27-13.35 38-2.08 24.37-6.29 54.9-13.69 96.51z" fill="#917eec"/><path d="m86.92 262.68s12.08 15.89 24.34 14.14 12.9-16.53 12.9-16.53-22.57-9.56-37.24 2.39z" fill="#955d43"/><path d="m86.92 249.45s-5.79 1.55-6.92 7.22-3.24 7.63-1.28 11.33 20.45 25.55 26.82 25.55 7.45-17.1 7.45-17.1-19.26-.21-26.07-27z" fill="#86ebf9"/><path d="m113 276.46a40.86 40.86 0 0 0 11-25.26c2.52-.33 4.13.89 5.61 2.84a27.3 27.3 0 0 1 4 8.65s-2.3 40.55-20.61 13.77z" fill="#86ebf9"/><path d="m79.41 259.24a131.48 131.48 0 0 0 -30.16 18.16 63.64 63.64 0 0 0 -9.17 8.3c-11.27 13.36-8 33.86-4.81 52 5.48 31.35 10.49 57 14.56 76.86h80.78s-1.07-46.87-7.3-62.59-18.68-60.82-43.9-92.73z" fill="#287eef"/><path d="m132.36 258.48c4.62 51.37 9.38 104.79 13.92 156l32.81.29a350.73 350.73 0 0 1 -7.28-67c-.3-27.84 2.72-66.46-11.56-75.4a227.6 227.6 0 0 0 -27.89-13.89z" fill="#287eef"/><path d="m380.17 264.65s0 18.07 12.31 17.74 24.93-18.48 24.93-18.48-20.96-13.22-37.24.74z" fill="#f5b493"/><path d="m380.17 253a6 6 0 0 0 -3 .58c-2.29 1.15-2.92 3.61-4.93 8.78-1.86 4.8-2 4.42-2.42 5.88-2.24 7.61 2.09 16.79 6.53 20.38 6.07 4.93 13.62-6.23 13.62-6.23a43.53 43.53 0 0 1 -9.8-29.39z" fill="#917eec"/><path d="m390 282.39s18.14-4.6 27.42-29.39c0 0 3.85.06 5.33 5.25s3 9.45 3 9.45-13.55 24.54-24.63 27.49-11.12-12.8-11.12-12.8z" fill="#917eec"/><path d="m425.7 267.7s28.42 6.31 38 30.28 18.56 116.83 18.56 116.83l-40.55-.31q-8-73.41-16.01-146.8z" fill="#917eec"/><path d="m98.53 289.76s4.42 5 8.51 3.45 5.96-15.13 5.96-15.13 5.12 8.51 11.17 7.51 8.83-17.21 8.83-17.21-1.09 16.72-6.75 19.67-12.69-7.1-12.69-7.1-1.23 11.78-5 14.61-10.03-5.8-10.03-5.8z" fill="#40c2d6"/><path d="m70.2 310.13 22.58 50.07a35.87 35.87 0 0 0 -11.74 21c8.67-16.14 24.96-25.2 43.12-25.34a54.45 54.45 0 0 0 -26.16.14z" fill="#1573d8"/><path d="m45.58 352.16a149.58 149.58 0 0 0 18.7 40.67c6 9.08 9.61 12.17 13.65 14.16 7.33 3.59 14.76 2.77 29.32 1a194.34 194.34 0 0 0 22.75-4.21c.19 3.58.39 7.16.58 10.74h-69.58s-11.15-37.08-15.42-62.36z" fill="#1573d8"/><path d="m141 355.43 30.92-.79s-15.73-5.06-30.92.79z" fill="#1573d8"/><path d="m145 401.44 1.29 13.08 32.89.35-3.18-20.69z" fill="#1573d8"/><path d="m73 184s8.75 2.22 10.45-15.35-.77-30.7 10.07-31 18.6 7.55 30.64.82 22-1.7 27.78 9.41c9.23-12.72 10.4-28.12 3.3-38.31-1.45-2.07-6.07-8-14-9.84-11.24-2.73-19.24 5.27-33.94 13.41-31.08 17.16-44.6 8.66-55.15 23.47-8.5 11.93-6.38 26.8-5.42 33.49 4.69 32.8 35.68 49.71 40.19 52.08z" fill="#2d1929"/><path d="m76.46 199.32c-6.2 2.5-13.69-1.57-16.73-9.1s-.48-15.65 5.71-18.16 13.68 1.58 16.73 9.1.48 15.66-5.71 18.16z" fill="#955d43"/><path d="m77 192.27s-4.19-.62-4.57-4.64c-.24-2.46 2.72-3.46 4.07-3.79-.88-1.81-3.92-7.38-8.16-7.17-4 .19-3.9 4.75-3.89 5a.5.5 0 0 1 -.48.51.49.49 0 0 1 -.52-.47c-.08-2 .83-5.8 4.84-6 5.71-.25 9.24 8 9.39 8.34a.51.51 0 0 1 -.39.69s-4.07.66-3.87 2.84c.31 3.22 3.58 3.72 3.72 3.74a.5.5 0 0 1 -.14.95z" fill="#2d1929"/><path d="m400.83 132.92s-9.61 3-16 14-33.69 10.14-33.69 10.14-.62-36 12.59-43.13a22.74 22.74 0 0 1 24 1.23s32.59-14.53 54.19.9 38.08 104.94-24.51 109.59c16.75-27.75 16.59-39.65 12.23-45.17-3.86-4.86-9.34-2.59-16.39-9.89s-9.16-17.41-10.83-25.4a81.08 81.08 0 0 1 -1.59-12.27z" fill="#e73f46"/><path d="m444.59 193.69c-3 7.53-10.53 11.6-16.72 9.1s-8.75-10.64-5.71-18.16 10.53-11.6 16.72-9.1 8.75 10.63 5.71 18.16z" fill="#f5b493"/><path d="m427.17 194.75c.14 0 3.41-.52 3.71-3.75.21-2.17-3.82-2.83-3.87-2.84a.49.49 0 0 1 -.38-.68c.15-.36 3.66-8.6 9.39-8.35 4 .2 4.92 4 4.84 6a.5.5 0 0 1 -.52.48.5.5 0 0 1 -.48-.52c0-.19.13-4.75-3.89-5-4.24-.22-7.28 5.37-8.16 7.18 1.35.32 4.3 1.33 4.07 3.79-.38 4-4.53 4.63-4.57 4.64a.5.5 0 0 1 -.14-.95z" fill="#2d1929"/><path d="m351.05 291.49-5.26 18.23c-10.27 10.36-14.06 25.2-6.53 38.41l-3.3 39.6 8.72-39.6c-8.1-11.16-6.33-25.06 2.3-35.37z" fill="#6d5fde"/><path d="m430.63 310.14 4.95 56.13-2.48 48.25h7.12l1.72-48.58z" fill="#6d5fde"/><path d="m193.24 354.1 13.67-2.1a29.66 29.66 0 0 1 15.27-7.63c2.51-.37 5.08-.72 7 .8 2.66 2.15 1.24 5.84 3.94 8 1.15.92 2.11.82 7.45.86 10.44.09 12 .53 12.43 1.45.25.61.1 1.75-2.2 4a3 3 0 0 1 -1.29 5.51 3.43 3.43 0 0 1 -1.48 5.83c.84 4.08 4.32 1.3 4.39 1.41s-8.14 7.72-19.42 9.42a51.6 51.6 0 0 1 -15.27-.24l-16.91 5.59a56.65 56.65 0 0 1 -7.58-32.9z" fill="#955d43"/><path d="m371.28 216.89 20.15-4.11c-1.75 8.22-8.55 12.61-13.51 11.37-4.5-1.15-6.44-6.65-6.64-7.26z" fill="#eaeaea"/><path d="m226.91 344.93s-11.78 5.35-9.06 7.68 16.61-.3 22.31-2.92-1.16-7.41-13.25-4.76z" fill="#f5b493"/><path d="m323.92 344.21 3.52 24.53 3.94-43.55z" fill="#6d5fde"/><path d="m369.84 268.24s.12 24.65 5.05 25.31 15.11-9.55 15.11-9.55-11.65 5.66-13.79 5.25-6.37-21.01-6.37-21.01z" fill="#6d5fde"/><path d="m391.55 284.69s2.38 14.93 11.25 12.64 22.9-29.63 22.9-29.63-18.14 25.91-22.58 25.88-11.57-8.89-11.57-8.89z" fill="#6d5fde"/><path d="m402.06 380.39c-6.41-4.68-45.56 4.93-54.18 1.48s-3.2-33.74-3.2-33.74l-4.21 9.92c-2.27 16.3-5.25 34.89-9.09 56.47h108.84s-52.94-4.58-60.3-11 28.54-18.45 22.14-23.13z" fill="#6d5fde"/><path d="m197.18 304.55q7.27 10.14 14.53 20.29l-8.37-23.74z" fill="#86ebf9"/><path d="m234.69 297.57q1.2 13.95 2.38 27.91 2.6-14.16 5.18-28.32z" fill="#86ebf9"/><path d="m271.3 307.75-20.19 19.7 25.61-12.07z" fill="#86ebf9"/><circle cx="256.93" cy="236.35" fill="#d7981a" r="39.4"/><circle cx="249.78" cy="236.68" fill="#efbd42" r="39.4"/><path d="m235.72 226.17c-.34-7.25 4.77-11.92 11.63-13.08l-.24-5.06a1.35 1.35 0 0 1 2.7-.13l.23 4.95a13.47 13.47 0 0 1 7.25 1.84 11.49 11.49 0 0 1 5.46 9.13c.13 2.81-1.45 4.35-3.81 4.46a2 2 0 0 1 -1.9-2c-.34-6.48-2.59-9.82-6.85-10l.84 18c3.5 1.83 5.82 3.14 7 3.91 3.21 2.07 5.59 4.81 5.78 9 .35 7.34-4.74 11.9-11.59 13.07l.24 5.06a1.35 1.35 0 1 1 -2.7.12l-.23-4.9a13.84 13.84 0 0 1 -7.25-1.88c-5.77-3.37-8-13.29-1.65-13.59a2 2 0 0 1 1.9 2 15.13 15.13 0 0 0 2.13 7.14 6 6 0 0 0 4.72 3.05l-.78-16.89c-6.26-3.68-12.58-7.26-12.9-14.23m12.53 6.43-.74-16a7.49 7.49 0 0 0 -4.94 7.51c.18 4 2.48 6.53 5.68 8.48m3.83 24.19a8 8 0 0 0 4.87-7.51c-.14-3-2.42-5.18-5.55-7.17z" fill="#eaeaea"/><path d="m230.18 352.87c7.82 1.93 13.13 1.54 16.61.77 2.54-.57 8.14-1.45 8.86 1.06.66 2.3-2.48 3.59-4.89 4.75 0 0 3.5-1 4.27 0s1.31 3.7-5.56 5.51c0 0 1.87-.25 4.05-.41s3.27 4.31-5.53 6.24c0 0 4.76-1.64 5 0s-4.39 5.42-8.71 7-8.47-8-8.47-8z" fill="#955d43"/><path d="m240.54 361.71a.5.5 0 0 1 .09-1c4.27.39 9.9-1.71 10-1.73a.5.5 0 1 1 .36.94 26.85 26.85 0 0 1 -10.45 1.79z" fill="#2d1929"/><path d="m242.17 367.1a.5.5 0 0 1 -.48-.52.49.49 0 0 1 .52-.48c2.94.11 7.63-1.75 7.67-1.77a.5.5 0 0 1 .38.93c-2.13.85-5.76 1.94-8.09 1.84z" fill="#2d1929"/><path d="m243 372.46a.5.5 0 0 1 0-1 38.45 38.45 0 0 0 7-1.7.5.5 0 1 1 .32.94 34.78 34.78 0 0 1 -7.32 1.76z" fill="#2d1929"/></svg>