<svg height="512" viewBox="0 0 512 512" width="512" xmlns="http://www.w3.org/2000/svg" xmlns:xlink="http://www.w3.org/1999/xlink"><clipPath id="a"><path d="m161.87 173.99h52.24v99.8h-52.24z"/></clipPath><path d="m254.64 122.61 13.76 65.47 17.43 25.92c-29.88 25.45-51.42 29-66.17 26.69 0 0-3.18-.49-37.92-10.38.1 0-.44 2 14.84-68.58z" fill="#2d1929"/><path d="m280.54 252.17c-14.89-36.53-53.33-27.57-53.33-27.57l21.79 257.64h43.82s1.75-195.68-12.28-230.07z" fill="#e73f46"/><g clip-path="url(#a)"><path d="m161.87 173.99h52.24v99.8h-52.24z" fill="#f5b493"/><path d="m164.24 172.31c8.13 25.71 27.56 45.86 55.44 48.95l-.05-45.15-59.72-21.11q2.16 8.65 4.33 17.31z" fill="#eba284"/></g><path d="m253 182.08c-7.61 15.8-13.76 22.42-18.14 25-16.76 9.77-38.82-3.24-47.06-8.1a97 97 0 0 1 -20.09-16.11c-11.08-9.87-36.29-36.5-35-74.44.29-8.12 1.44-40.84 27.64-58.72 22.74-15.52 55.3-13.68 74.29 1.56a66.85 66.85 0 0 1 13.87 13.2c13.05 13.61 10.32 28.1 11.22 47.26.36 7.76 2.88 15.07 3.83 26.94s-.76 22.96-10.56 43.41z" fill="#f5b493"/><g fill="#2d1929"><path d="m230.26 153.49c4.07-2.05 6.2-4.22 6.35-6.46.34-5.14-9.62-6.6-12.07-24.35a.5.5 0 1 1 1-.13c2.46 17.89 12.46 18.45 12.07 24.54-.17 2.62-2.5 5.08-6.9 7.29a.5.5 0 0 1 -.45-.89z"/><path d="m245.35 132.12c-2.78.11-5.18-3.3-5.35-7.61s2-7.89 4.75-8 5.18 3.29 5.35 7.6-1.96 7.89-4.75 8.01z"/><path d="m202 133.81c-2.79.11-5.19-3.3-5.36-7.61s2-7.89 4.75-8 5.18 3.3 5.35 7.61-2.01 7.89-4.74 8z"/><path d="m224.44 177c-5.09 0-16-1.16-21.66-10.47a.49.49 0 0 1 .17-.68.5.5 0 0 1 .69.16c7.21 11.79 23.26 9.89 23.43 9.87a.5.5 0 0 1 .12 1 23.37 23.37 0 0 1 -2.75.12z"/><path d="m229.78 101.5a1 1 0 0 1 -.62-1.78c.12-.09 11.56-8.88 23.74-1.19a1 1 0 0 1 -1.07 1.69c-11-6.93-21 .74-21.43 1.07a1 1 0 0 1 -.62.21z"/><path d="m187.41 108.46a1 1 0 0 1 -.78-1.62c8.89-11.34 22.62-6.9 22.76-6.85a1 1 0 0 1 .63 1.26 1 1 0 0 1 -1.27.64c-.51-.18-12.54-4-20.55 6.18a1 1 0 0 1 -.79.39z"/></g><path d="m180 238.71s61.86-21.44 81.07-4.55-5.33 210.52-5.33 210.52h-160.66l19.67-168.29z" fill="#e73f46"/><path d="m161.82 225.63a39.6 39.6 0 0 0 8.65 22.54c2.45 3 9.7 11.86 18.68 11.86 10.7 0 22.16-12.63 24.93-31.52-16.08-10.39-35.3-10.88-52.26-2.88z" fill="#f5b493"/><path d="m218.48 225.88c13.77-2.73 30.16-3.22 41.49 6.56 22.5 19.42 8.37 65 4.55 137.8a689.3 689.3 0 0 0 3.29 112h-177.43a733.92 733.92 0 0 1 .62-172.42l133.14-29.18z" fill="#e73f46"/><path d="m154.06 222.12c-13.08.57-33.68 3.51-52.63 16.9-5.9 4.17-22.12 16.74-45.05 87.5-26.23 80.92-17.5 103-11.26 113.49 2.81 4.74 7.15 11.86 15.59 16.46 21.9 11.93 56.94-1 89.23-32.06l8.67-177.76q-2.28-12.25-4.55-24.53z" fill="#e73f46"/><path d="m161.82 212.49a9.33 9.33 0 0 0 -4.94 2.59c-1.65 1.73-1.63 3.28-3.35 4.86a8.33 8.33 0 0 1 -4.4 2 170.34 170.34 0 0 0 6.63 44.06l12.59-9 18.8 23.78 17.21-20.78 12.73 10.07a142.58 142.58 0 0 0 10.12-45.7 5.9 5.9 0 0 1 -2.17-.6c-3.13-1.58-2.41-5-5.25-6.71-2.22-1.31-5.71-1-5.71-1s-10.64 33.79-24.93 43.94c0 0-21.85-14.16-27.33-47.51z" fill="#eaeaea"/><path d="m468.57 482.89h-124.67a2.62 2.62 0 0 1 -2.6-3.54l5.21-18.68a4.33 4.33 0 0 1 4-2.9h111.43a4.33 4.33 0 0 1 4 2.9l5.21 18.68a2.62 2.62 0 0 1 -2.58 3.54z" fill="#287eef"/><rect fill="#287eef" height="23.39" rx="5.67" width="102.66" x="355.55" y="446.94"/><circle cx="399.91" cy="390.09" fill="#d7981a" r="39.96"/><circle cx="407.66" cy="390.69" fill="#efbd42" r="39.96"/><path d="m393.91 379.39c0-7.36 5.4-11.85 12.39-12.71v-5.13a1.37 1.37 0 0 1 2.74 0v5a13.76 13.76 0 0 1 7.27 2.21 11.66 11.66 0 0 1 5.1 9.5c0 2.85-1.68 4.34-4.07 4.34a2 2 0 0 1 -1.83-2.13c0-6.58-2.17-10.08-6.47-10.49v18.29c3.46 2 5.75 3.46 6.92 4.29 3.16 2.24 5.44 5.13 5.45 9.43 0 7.45-5.36 11.84-12.36 12.71v5.13a1.37 1.37 0 0 1 -2.74 0v-5a14.05 14.05 0 0 1 -7.27-2.24c-5.68-3.68-7.52-13.84-1-13.84a2 2 0 0 1 1.82 2.13 15.42 15.42 0 0 0 1.83 7.34 6.06 6.06 0 0 0 4.64 3.3v-17.12c-6.17-4-12.41-7.93-12.41-15m12.4 7.1v-16.25a7.6 7.6 0 0 0 -5.36 7.38c0 4.07 2.2 6.73 5.36 8.86m2.75 24.68a8 8 0 0 0 5.28-7.38c0-3-2.2-5.36-5.28-7.52z" fill="#eaeaea"/><path d="m259.48 269.34 3.57 37.25c14.77 22.56 13.38 49.54 0 72.34l7.8 103.31h-12.53l-3.68-103.47s18.78-42.29 4.28-71.75z" fill="#cc3745"/><path d="m133.25 373c-.59 1.62-7 19.67 4 34.61a35 35 0 0 0 17.39 12.34l50.79-36.76q-3.31-14.85-6.62-29.71z" fill="#f5b493"/><rect fill="#287eef" height="64.06" rx="4.88" transform="matrix(.887 -.462 .462 .887 -111.72 177.96)" width="51.78" x="281.51" y="284.99"/><path d="m275.4 282.3h34.82v13.46h-34.82z" fill="#287eef" transform="matrix(.887 -.462 .462 .887 -100.43 168.05)"/><path d="m304.79 338.69h34.82v13.46h-34.82z" fill="#287eef" transform="matrix(.887 -.462 .462 .887 -123.17 188.01)"/><rect fill="#287eef" height="13.23" rx="5.09" transform="matrix(.887 -.462 .462 .887 -96.49 164.58)" width="51.78" x="261.82" y="272.63"/><rect fill="#287eef" height="13.23" rx="5.09" transform="matrix(.887 -.462 .462 .887 -126.92 191.31)" width="51.78" x="301.16" y="348.11"/><path d="m298.47 328.33-118.61 65.46a6 6 0 0 1 -8.14-2.46l-3-5.74a5.94 5.94 0 0 1 2.65-8.07l121.63-59.72a5.94 5.94 0 0 1 5.49 10.53z" fill="#287eef"/><path d="m133.25 373 41.55-15.63a170.49 170.49 0 0 1 17.2-12.48c6.64-4.22 9.15-5.14 11.87-5.53 5-.74 9 .57 14.76 2.44 6.28 2.05 9.44 3.08 12 6.26 1.82 2.27 2.41 5.12 3.59 10.82 1.36 6.63 2.06 10.28-.08 13.24a7.82 7.82 0 0 1 -5.31 3.24 6 6 0 0 1 -3.53-.75s-3.39 9-8.95 4.16c0 0-2.23 7.57-7.84 2.94 0 0-.26 3.88-2.72 5-3.73 1.64-11.21-4.5-14.35-7.07a38.13 38.13 0 0 0 -11.68-6.41l-10.13 5.69z" fill="#f5b493"/><path d="m225.26 375.11a.49.49 0 0 1 -.5-.49 54.74 54.74 0 0 0 -3.76-19.06.5.5 0 0 1 .92-.41 56.35 56.35 0 0 1 3.89 19.45.51.51 0 0 1 -.55.51z" fill="#2d1929"/><path d="m216.31 379.27a.5.5 0 0 1 -.5-.46c-.61-6.55-3.81-15.6-3.85-15.69a.5.5 0 0 1 .95-.34c0 .1 3.27 9.26 3.9 15.94a.51.51 0 0 1 -.5.55z" fill="#2d1929"/><path d="m208.47 382.21a.49.49 0 0 1 -.49-.41c-1-5.24-6.15-12.8-6.2-12.88a.5.5 0 0 1 .82-.56c.22.31 5.37 7.81 6.36 13.26a.5.5 0 0 1 -.49.59z" fill="#2d1929"/><path d="m152.81 365.63a84.12 84.12 0 0 0 19.87 41.26l-21.87 23.7-46.13-22.42 1.95-33.56z" fill="#e73f46"/><path d="m118.32 294.9-20.32 75.8c-15.94 4.84-28.43 17.38-32.1 34.54 8.55-14.7 21.87-25 38.17-28.91l48.78-10.7-45.75 2.9q5.6-36.81 11.22-73.63z" fill="#cc3745"/><path d="m88.19 460.08s33.17-10.26 84.49-53.19c0 0-17.51 43.95-4.53 57.37s37.18 18 37.18 18h-115z" fill="#cc3745"/><path d="m378.66 303.04 12.13 36.11-3.47-38.62z" fill="#86ebf9"/><path d="m435.15 303.62-8.52 32.44 15.49-29.9z" fill="#86ebf9"/><path d="m469.19 331.41-27.29 21.52 30.75-15.58z" fill="#86ebf9"/><path d="m231.08 58.34a119.71 119.71 0 0 1 -19.76 30.58c-10.25 11.49-28.29 31.73-44.76 28.64-3.49-.65-8.81-2.71-13.07.09s-4.75 8.35-4.83 9.24c-.74 7.84 5.21 14.1 6.9 16.61 19.05 28.3 9 66.39 8.49 68.31-2 7-6.31 18.45-17.23 30.58a67.57 67.57 0 0 1 -59.5-35l16.68-17.27a271.13 271.13 0 0 1 -.18-45.41c3.12-38.9 6.1-76.09 31.14-96.75 35.9-29.62 94.82-6.79 99.71-4.82 3.18.24 18.18 1.69 25.21 13 3.9 6.27 3.8 13.11 3.7 20 0 0-.07 5-4.13 24.37 0-.01-4.16-39.94-28.37-42.17z" fill="#2d1929"/><path d="m150.41 146.71c-8.68 3.07-18.75-3-22.48-13.56s.3-21.6 9-24.67 18.75 3 22.48 13.56-.31 21.6-9 24.67z" fill="#f5b493"/><path d="m151.66 136.84c-.06 0-5.59-1.08-5.86-6.5-.17-3.4 4.22-4.51 5.92-4.81-2-4.74-5.93-10.72-11.07-10.72-5.74 0-5.86 6.49-5.86 6.77a.5.5 0 0 1 -1 0c0-.08.12-7.73 6.85-7.76 7.71 0 12 11.45 12.21 11.94a.5.5 0 0 1 -.42.67c-.06 0-5.83.69-5.67 3.87.23 4.62 4.84 5.53 5 5.57a.5.5 0 0 1 -.1.97z" fill="#2d1929"/><path d="m198.24 146.08a22.55 22.55 0 1 1 22.55-22.54 22.57 22.57 0 0 1 -22.55 22.54zm0-43.09a20.55 20.55 0 1 0 20.55 20.55 20.57 20.57 0 0 0 -20.55-20.54z" fill="#fff"/><path d="m250.11 146.08a22.55 22.55 0 1 1 22.55-22.54 22.57 22.57 0 0 1 -22.55 22.54zm0-43.09a20.55 20.55 0 1 0 20.55 20.55 20.57 20.57 0 0 0 -20.55-20.54z" fill="#fff"/><path d="m228.56 124.54h-8.77a1 1 0 0 1 0-2h8.77a1 1 0 0 1 0 2z" fill="#fff"/><path d="m177.87 117.51c-.17 0 1.74.4-27.35-5.93a1 1 0 0 1 -.76-1.18 1 1 0 0 1 1.19-.77l27.13 5.91a1 1 0 0 1 -.21 1.97z" fill="#fff"/></svg>