<svg height="512" viewBox="0 0 512 512" width="512" xmlns="http://www.w3.org/2000/svg" xmlns:xlink="http://www.w3.org/1999/xlink"><clipPath id="a"><path d="m33 240.39c-4 2 .06 23.35 9 47.71s19.68 43.25 24 42.18l60.32-14.81-37.77-102.87z"/></clipPath><path d="m157.53 401.23-11.53 5.58a29.6 29.6 0 0 1 -39.55-13.69l-34.66-71.42a4.62 4.62 0 0 1 2.14-6.18l25.73-12.52a4.62 4.62 0 0 1 6 1.78l53.82 89.88a4.63 4.63 0 0 1 -1.95 6.57z" fill="#e73f46"/><g clip-path="url(#a)"><path d="m33 240.39c-4 2 .06 23.35 9 47.71s19.68 43.25 24 42.18l60.32-14.81-37.77-102.87z" fill="#e73f46"/><g fill="#2d1929"><path d="m28.42 260.71a5.14 5.14 0 0 1 -4.81-3.36l-.24-.66a5.13 5.13 0 0 1 3-6.57l27.51-10.12a5.11 5.11 0 0 1 6.57 3l.24.65a5.12 5.12 0 0 1 -3 6.58c-29.92 11.05-27.98 10.48-29.27 10.48zm27.23-20c-1 0 .94-.61-28.89 10.36a4.12 4.12 0 0 0 -2.45 5.29l.24.65a4.12 4.12 0 0 0 5.29 2.45c29.39-10.81 27.37-10.1 27.47-10.1a4.12 4.12 0 0 0 2.45-5.29l-.25-.66a4.11 4.11 0 0 0 -3.86-2.71z"/><path d="m29.5 273.35-.25-.66a5.14 5.14 0 0 1 3-6.58l27.51-10.11a5.13 5.13 0 0 1 6.57 3l.25.66a5.13 5.13 0 0 1 -3 6.58c.1 0-.67.24-27.47 10.09a5.11 5.11 0 0 1 -6.61-2.98zm32-16.65c-1.05 0 1-.62-28.88 10.35a4.14 4.14 0 0 0 -2.45 5.29l.25.66a4.12 4.12 0 0 0 5.28 2.45l27.47-10.1a4.13 4.13 0 0 0 2.45-5.29l-.24-.66a4.14 4.14 0 0 0 -3.86-2.7z"/><path d="m39.88 291.88a5.12 5.12 0 0 1 -4.8-3.35l-.24-.66a5.12 5.12 0 0 1 3-6.57l27.46-10.1a5.12 5.12 0 0 1 6.58 3l.24.65a5.12 5.12 0 0 1 -3 6.58c-29.86 11.02-27.94 10.45-29.24 10.45zm27.23-20c-1 0 1-.62-28.89 10.36a4.11 4.11 0 0 0 -2.44 5.28l.24.66a4.12 4.12 0 0 0 5.29 2.45c29.39-10.81 27.36-10.1 27.46-10.1a4.12 4.12 0 0 0 2.45-5.29l-.24-.66a4.13 4.13 0 0 0 -3.87-2.7z"/></g></g><path d="m74.9 328.1 38.98-9.57 8.3 13.87-41.17 8.28z" fill="#cc3745"/><ellipse cx="107.46" cy="264.03" fill="#efbd42" rx="14.36" ry="54.8" transform="matrix(.939 -.345 .345 .939 -84.52 53.31)"/><path d="m303.41 301.79c-59.34-7.59-119.23-2.5-177.6 10.66l-35.74-97.19c54.67-24.51 104.49-59.14 142.21-106.94z" fill="#287eef"/><path d="m99.85 266.83c9.9 26.92 21.53 47.35 26 45.62s0-24.79-9.83-51.55-21.43-47.2-25.91-45.64-.11 24.65 9.74 51.57z" fill="#287eef"/><path d="m245.72 283.09c-9.59 4.78-81.62 12.6-103.67 16.43a51.84 51.84 0 0 1 -29.79-4c5.8 11.21 10.93 17.92 13.55 16.9 56.76-12.79 115.76-18.14 174.71-11l-51.52-53.42s6.31 30.3-3.28 35.09z" fill="#1573d8"/><ellipse cx="267.84" cy="205.06" fill="#efbd42" rx="36.2" ry="103.07" transform="matrix(.939 -.345 .345 .939 -54.31 105.04)"/><path d="m300.8 294.68c-11 4-39.71-25-59.83-79.74s-17-95.48-6.08-99.51 39.71 25 59.83 79.75 17.04 95.47 6.08 99.5z" fill="#e73f46"/><path d="m283.85 224.2-29.23 21.69a238.4 238.4 0 0 1 -23.31-63.37l36.33-2.41z" fill="#1573d8"/><ellipse cx="275.74" cy="202.15" fill="#efbd42" rx="7.43" ry="23.49" transform="matrix(.94 -.35 .35 .94 -52.82 107.58)"/><rect fill="#efbd42" height="88.94" rx="10.62" transform="matrix(.964 .267 -.267 .964 113.65 -52.36)" width="108.85" x="195.33" y="348.11"/><path d="m234.59 370.64a5.63 5.63 0 0 1 9.45-2.45l24 24.39a5.64 5.64 0 0 1 -2.6 9.41l-33.13 8.59a5.63 5.63 0 0 1 -6.85-6.95c.08-.25 9.54-34.34 9.13-32.99z" fill="#917eec"/><path d="m89.53 165.5a113.73 113.73 0 0 1 82.6-85.07l-12.91-16.13 68.32 6.45-29.77 56.3-13.77-22.95c-37.86 9.49-70.28 31.02-94.47 61.4z" fill="#efbd42"/><circle cx="387.69" cy="142.31" fill="#e73f46" r="66.46"/><circle cx="400.25" cy="145.44" fill="#efbd42" r="66.46"/><path d="m380.83 123.09c2-12.07 12.13-17.94 23.84-17.41l1.42-8.42a2.28 2.28 0 1 1 4.49.75l-1.38 8.24a22.89 22.89 0 0 1 11.3 5.62 19.38 19.38 0 0 1 5.73 17c-.79 4.67-3.94 6.65-7.87 6a3.29 3.29 0 0 1 -2.41-4c1.76-10.81-.77-17.14-7.7-19l-5.06 30c5.12 4.26 8.47 7.26 10.17 9 4.56 4.55 7.5 9.92 6.31 17-1.44 8.55-6.61 13.7-13.34 16a27.54 27.54 0 0 1 -10.44 1.45l-1.42 8.42a2.28 2.28 0 1 1 -4.49-.76l1.37-8.17a23.38 23.38 0 0 1 -11.29-5.81 19.27 19.27 0 0 1 -5.87-11.57 17.13 17.13 0 0 1 .07-5.44c.77-4.56 4-6.64 7.94-6a3.3 3.3 0 0 1 2.41 4 25.48 25.48 0 0 0 1 12.54 10.05 10.05 0 0 0 6.7 6.71l4.69-28.09c-9-8.27-18.14-16.44-16.18-28.06m18.37 15.09 4.49-26.64a12.65 12.65 0 0 0 -10.84 10.62c-1.12 6.67 1.76 11.65 6.35 16m-2.34 41.24a13.43 13.43 0 0 0 10.71-10.64c.84-5-2.13-9.41-6.59-13.81z" fill="#eaeaea"/><g fill="#86ebf9"><path d="m368.26 220.03-16.27 69.93 11.83 4.03z"/><path d="m412.57 227.16 22 67.06 10.63-5.74z"/><path d="m447.38 208.78 34.07 15.5-6.09 11.12z"/></g></svg>