<svg height="512" viewBox="0 0 512 512" width="512" xmlns="http://www.w3.org/2000/svg"><path d="m193.76 217.4c-22.57-.12-29.86-22.06-27.91-44.51a37.56 37.56 0 0 1 .84-5.87c1-15.8 1.39-22.83 3.56-45.42-21.92 4.46-34.5 6.65-41.79 15.79-1.77 2.2-6.08 9.25-5.05 15.69a5.92 5.92 0 0 0 1.27 3.33 6.64 6.64 0 0 0 3.8 1c5.15-.1 10.79-6.43 14.23-10.36 2.79-3.18 5.19-5.92 9.57-5.92a9 9 0 0 1 4.22 1.07c3.39 1.85 5.31 5.5 4.37 10.76-1.56 8.78-10.91 28.55-29.84 33.65-8.62 2.28-19.08 1.57-27.15-3.35-17.66-10.61-18.59-38-8.37-56 7.16-12.94 22.09-23.8 35.51-29.5 6.68-2.84 13-5.53 49.32-11.42.6-.1 11.38-1.56 12-1.65 21.18-2.86 23.47-3.28 29.56-6.33 12.59-6.31 15-11.18 15.2-13.58a5.3 5.3 0 0 0 -2.78-5.31c-4.84-2.86-14.62-1.72-18.28 1.33-1.13.93-1.51 2-2 3.69-2.11 6.67-6.27 8.07-9.39 8.07-9.16 0-13.11-12.27-9.86-21.05 4.38-12.12 22.56-19.36 37.65-19.36 19.29 0 33.49 10.8 37.76 26.42 2.62 9.6.44 21.06-9.78 32.44-7 7.76-19.34 12.82-29.3 16a32.66 32.66 0 0 1 -7.83 2.35c-6.34 1.76-12.82 3.27-18.74 4.62-3.3 23.65-5.75 49.54-6.14 56.24-.51 8.63 2.4 16.36 4.19 17.31h.1c.92-.21 5.11-1.63 14.53-10.55a30.64 30.64 0 0 1 .46-5.42c1.24-11.63 5.37-24.51 6.09-30.88-2.87-7 2.53-15.3 10.84-15.75 16.66-.86 23.44 8.45 20.92 19.32-2 8.67-2.9 11.83-4.7 19.84a71.76 71.76 0 0 0 -.55 13.52 42.17 42.17 0 0 0 3.35-3c1.17-13.2 7.9-27.57 9.59-35.68-2.22-7.32 4-14.53 11.72-14.53 6.46.1 13.44 1.57 17.48 6.61a27 27 0 0 1 18.06-4.74c5.67.6 10.88 3.19 13.7 8.16 18.87-11 40.95 1.73 30.93 21.43-2.87 5.74-8.16 15.12-11 22.31-.38 1.78-1.41 3.07-1.62 5.6a16.77 16.77 0 0 0 7.37-3.6c.66-7.59 3.38-12.85 6.59-18.27 1.81-3.21 5.09-6.65 10-10.52a44.05 44.05 0 0 1 17.68-8.29 40.49 40.49 0 0 1 21.38 1.09c5.55 1.74 11.84 4.61 15.55 9.12 5.64 6.74 5.9 14.93.69 21.93a28.9 28.9 0 0 1 -5.69 5.48 30.5 30.5 0 0 1 -9.21 4.57 10.31 10.31 0 0 1 -1.29 15c-14.23 12-35.34 11-46.56 2.22-8.31 7.81-17.24 10.92-24.28 10.8-12.5-.22-23.4-7.33-25-19.72a12.3 12.3 0 0 1 -2.78 1.55c-8.33 3.25-17.77 2.05-22.08-5.88a12.47 12.47 0 0 1 -4.87 4.34 24.14 24.14 0 0 1 -14.53 2 46.82 46.82 0 0 1 -5.35 3.33c-3.76 2.05-10.77 5.86-18.77 5.86a22.32 22.32 0 0 1 -14.55-5.18c-8.69 10.33-19.61 17.93-33.04 17.8z" fill="#86ebf9"/><path d="m241.1 137.35c-9.13 0-16.45-10-14.48-19.27 1.38-6.53 7.09-11.76 18.07-11.76 5.67 0 9.85 1.68 12.42 5a11.57 11.57 0 0 1 1.95 10.16c-1.8 6.97-10.41 15.87-17.96 15.87z" fill="#86ebf9"/><path d="m149.66 104.89c.08-1.92 1.13-3.82 3.27-5.53a24.07 24.07 0 0 1 10.5-4.16c3.52-.62 28.06-2.81 47.72-3l2-.08c3.27-.26 8.2-.88 9.32-6.31.3-1.47 1.89-2.5 3.83-2.59 3.52.19 5.75 1.64 6.6 4.27.77 7-8 9.45-14.95 10-.81.08-7.89 0-21.2.57a8.64 8.64 0 0 1 .27 3.72c-.8 6.29-4.2 27.29-7.16 63.34a75.37 75.37 0 0 0 .15 15.11c.35 2.81 1 4.38 1.77 4.75 1.45.69 1.64 3.19-.34 4.71-2.89 2.15-7.5 4-10.88 2.72a7.27 7.27 0 0 1 -4-4.47c-2.41-6.11-2-17-1.32-23.5.17-2.35.45-7.8 1.08-16.2 2.25-34.18 4.94-45.16 3.74-49-6.48.43-10.22.86-11.2 1-3 .5-8.09 1.64-8.43 7.38a3.7 3.7 0 0 1 -3.21 3.12c-3.49.32-5.88-.77-7.18-3.31a7.42 7.42 0 0 1 -.33-2.44" fill="#287eef"/><path d="m363.89 162.21c1.18-2.15 3.8-4.87 7.87-8.07a35.58 35.58 0 0 1 14.24-6.66 32 32 0 0 1 16.92.9c5.55 1.75 9.38 4 11.55 6.46 3.13 3.74 3.19 7.52.38 11.3a21 21 0 0 1 -4 3.78 26.3 26.3 0 0 1 -8.9 3.91 41.71 41.71 0 0 1 -27.66-1.78 21.28 21.28 0 0 0 -1.42 11.63c.85 4.08 3.29 6.61 7.5 7.73 5.21 1.38 10.3 0 15.37-4.3 2.66-2.09 6.32-.08 4.86 2a2.35 2.35 0 0 1 -.49.58 27.94 27.94 0 0 1 -13 6.32c-9 1.75-20.08.07-25.75-7.19a17.13 17.13 0 0 1 -3-11c.36-6.45 2.74-10.88 5.55-15.61m12.63 5.37a25.94 25.94 0 0 0 15.12 2.23c5.81-.83 10.35-3.89 12.59-7.09 2.95-4.2 1.81-7.18-3.44-8.82a14.21 14.21 0 0 0 -8.47.17c-7.09 2.54-11.9 6.99-15.82 13.51z" fill="#287eef"/><path d="m231.58 132.29a3.73 3.73 0 0 1 3.45-2.8c9.58-.49 13.55 2.61 12.11 8.82-2.87 12.59-6.83 25.71-6.7 35.64 0 2.7.44 4.26 1.15 4.7a1.9 1.9 0 0 1 .81 2.15 3.44 3.44 0 0 1 -1.63 2.26c-3.08 1.68-7.77 3-10.9 1.37-2.76-1.74-4.1-5.37-4.07-10.9.34-9.8 2.45-16.58 5.82-31.85.81-4.33 1-6.93.43-7.67a1.91 1.91 0 0 1 -.47-1.72m3.42-16.47c.66-3.12 3.72-4.82 9.08-5 5.19-.13 7.43 1.4 6.65 4.47-1.05 4.11-6.8 9.27-9.5 9.39-2.3.09-4.64-2-5.79-4.71a6.25 6.25 0 0 1 -.44-4.19" fill="#287eef"/><path d="m271.9 130.44a3.78 3.78 0 0 1 3.1-1.44c9.58.31 13.27 3.68 11.3 9.64-2.34 7.15-4.9 14.18-6.07 18 5.63-12.44 15.7-27.26 29.28-25.86 6.15.65 10.17 4.63 6.75 12.9q-5 11.4-7.45 17.87c6.47-13 18.34-28.83 32.62-26.36 6.1 1.06 9.74 5.32 6 12.77-4.16 8.28-11.34 20.62-13.47 29.75-.62 2.58-.61 4.12-.09 4.66a1.72 1.72 0 0 1 .21 2.1 3.26 3.26 0 0 1 -2 1.77 15 15 0 0 1 -6.41.59c-11.76-1.52-1.95-21.19 3.55-31.76 1.94-3.83 3.57-7 4.7-9.48 1.36-3 1.43-4.58.23-4.77-2.31-.36-6 2-10.87 7.44-10.32 11.23-16.6 30.8-17.39 32.2a2.27 2.27 0 0 1 -.11.73 3.62 3.62 0 0 1 -2 1.92 14.67 14.67 0 0 1 -6.33 1c-11.83-.72-3.33-21.54 1.28-32.38 1.67-4 3.05-7.37 4-9.93 1.15-3.1 1.11-4.74-.1-4.84-2.32-.2-5.83 2.5-10.29 8.28-5.27 6.75-10.24 17.7-14.66 32.78 1 1.31-.1 3.09-1.59 3.84-3.18 1.42-7.94 2.28-10.92.44a6.75 6.75 0 0 1 -2.92-4.87c-.67-3.54-.13-8.89 1.68-16 2.18-8.6 9.16-25.87 7.8-28.29a2.08 2.08 0 0 1 .15-2.75" fill="#287eef"/><path d="m204.34 191.94c-11.23 2.17-15.38-15.33-14.5-26.89s-13.38-1-13.29-1l-1.36.28c-.49.1-6.87 40.28 18.73 40.41 24.57.47 39.48-36.57 40-36.58-.29-.09-18.59 21.47-29.58 23.78z" fill="#287eef"/><path d="m242.4 158.3c-.09 0-3.54 25.15 4.17 25.89 7.54.7 18.58-13.68 18.7-13.63 1.26 1.86 2.51 3.73 3.75 5.59a38.78 38.78 0 0 1 -12.34 10.85c-4.06 2.2-13.08 7.56-21.15 4-8.57-3.72-10.81-15.22-9.38-22.39.45-2.27 1.24-5.86 4.72-8.41 4.93-3.52 11.55-1.9 11.53-1.9z" fill="#287eef"/><path d="m335.72 172.43c-3 6.91-2.12 13.07 1.39 15.26 2.95 1.82 7.13.55 9.26-.07 11-3.18 16.42-13.43 18-16.86l1.64 2.41c-7.05 16.64-19.42 27.44-31.06 27.57-.66 0-8.46 0-13.29-5-6.79-7-2.33-18.67 0-24.06 2.11-5.1 3.95-5.81 5-6 2.85-.47 6.53 2.25 9.06 6.75z" fill="#287eef"/><path d="m191.62 104.19c-38.11 9-58 8.93-69.87 23.81-1.54 1.92-8.51 11.74-6.81 22.39.88 5.67 3.5 8 4.3 8.61 3.73 3 8.56 3 9.85 2.93 12.47-.53 21.88-17 23.3-16.24s-5.39 23.69-23.59 28.59c-1 .23-11.58 3-20.46-2.39-13.72-8.24-13.16-30.76-5.35-44.45 8.12-14.72 26.74-23.76 30.26-25.32 6.45-2.71 10.94-5.24 48.46-11.33 29.21-4.05 35.27-4.35 43.14-8.33 3-1.57 19.74-9 20.79-21a14 14 0 0 0 -7-13.37c-8.43-5-22.12-2.86-28.12 2.14-5.06 4.16-4.5 9.82-6 9.78s-3.46-5.06-1.78-9.54c3.42-9.47 24.96-17.47 41.41-11.93 14.23 4.75 17.25 16.52 17.76 18.37 3.16 12.25-5.77 22-8 24.47-12.42 12.82-42.73 18.11-62.29 22.81z" fill="#287eef"/><path d="m178.82 463.57c-9.08-2.29-14-9.38-13.68-18 .12-6.77.48-21.65 1-42.08-6.48 16.8-10.22 29.8-11.74 40.81l-.49 4c-.57 4.13-4.12 6.24-7.44 4.91-8.5-3.34-13.09-10.54-13-18.38 0-2.28.92-72.72.81-73.95-.36-6.68-2.82-15.12-5.18-17.72-2-2.26-6.33-2.09-9.07-.77-4.41 2.16-6 8.41-6.89 12.15-.67 2.7-1.43 5.77-4.71 5.77a4 4 0 0 1 -1.78-.44c-1.5-.78-2.38-2.36-3-5.27-1-5.12-1-15.78 5.27-23.22 8.09-9.69 25.12-11.69 35.72-1.36s9.76 27.12 9.59 29.5a137.63 137.63 0 0 1 -.35 15.23c-.12 2.75-.35 11.77-.68 26.44 3.49-10.77 8.27-26.51 9.79-37.68a90.46 90.46 0 0 0 .82-14.28 7.68 7.68 0 0 1 -.22-3.84c.49-2 1.33-4.43 3.49-5.61 3.59-2 10.31-1.07 13.65 2 5.6 5.27 7.47 17.38 5.88 38.11-.13 2.86-.45 12.28-.94 28.06 3.81-12.16 8.63-28.1 10.35-40.7.07-1.23.77-15.21-1.75-25.28-2.22-8.95-2.84-13.42-.62-16.26 1.49-1.91 3.73-2.4 6.13-2 2.62.36 4.69 2.83 9.54 8.89 4 5 14 17.9 20.18 16.94 2.73-.44 3.5-1.77 3.87-2.89 1.3-3.89-1.18-10-2.29-11.15-3.11-2.76-1.53-7.65 3.31-7.65s13.22 4.94 14.61 18.15c1.78 16.64-20 32-36.68 19.53-5.06 29.4-21.69 55.5-26.37 92.48-.61 4.19-3.95 6.4-7.13 5.56z" fill="#86ebf9"/><path d="m291.77 480.74a11.84 11.84 0 0 1 -8-2.81c-9.7-8.61-3-33.4 5.38-64.78.93-3.46 2.14-7.91 2.78-11.67-3.12 2.38-6.54 6.27-10.92 7.74-4.45 8.14-9.74 14.49-15.4 18.52-1.38 13-7.05 29-17.23 37.39-12.07 9.78-24.59 7.68-33.29-3-13.36-16.42-7.9-52.62 7.38-67.71a29.19 29.19 0 0 1 .45-8.16c1.71-8.13 8.09-16.54 16.69-16.54a14.84 14.84 0 0 1 8.92 3.1c4.74 3.63 8.17 10.71 9.73 20 3.29 3.76 5.6 8.94 6.88 15.44a33.64 33.64 0 0 0 2.86-2.71c-6.28-6-9.27-17.37-6-26 4.69-12.31 20-13.87 25.75-6.22 2.21 2.95 3.09 7.44 2.67 12.61 6.41-4.76 14.94-4.62 19 2.36a13.05 13.05 0 0 1 1.82 2.84c4.25 8.19-.36 25-4.82 41.29-2.14 7.78-5.26 19.17-4.92 23.2 4.34-1.53 9.59-11.52 13.48-25.82 1.64-11.72-2.06 13.6 6.47-39.34-.24-1.44.62-5.83 1.48-27.7.36-9.35.4-14.83 1.85-22.06 1.23-6.07 2.49-12.29 6.12-17.53 5.12-7.46 14.82-11.41 23.84-7.39 13.2 5.86 15 22.89 15.21 24.81a37.31 37.31 0 0 1 -2.2 15.4 85.75 85.75 0 0 1 -5.33 12.15c5.88-1.79 11.55 2.63 12.53 8.67.51 3.21-.35 6.89-2.5 10.65-1.88 4.08-6.15 8.69-13 14.09-2.73 2.11-5.41 4.17-8.12 6.11a122.17 122.17 0 0 0 5.49 12.86c2.3 3.25 3.65 4.86 5 5.14a4.49 4.49 0 0 1 1.1 0c2.12-.41 8.47-2.8 20.13-16.46 10.86-12.76 10.75-17.06 14.65-17.06a3.76 3.76 0 0 1 3.57 2.64c1.16 3.79-7.72 19.88-15.82 30.4-.23.31.12-.17-1 1.25-13.22 16.11-24 24-33 24.14a8.57 8.57 0 0 1 -6.53-1.48c-5.51-3.15-8-8.95-9.23-15.23-.21 2.31-.6 7.91-.21 10.17 2.9 2.79 1.74 8-1.2 10.87-4.71 4.43-11.81 7.68-16.62 3.26-5.29 10.7-14.01 22.57-25.89 22.57zm-60.64-62.12a61.5 61.5 0 0 0 -1.75 10.05 61 61 0 0 0 -1 10.42c-.11 12.13 3.23 16.35 4.77 16.42 2.16 0 5.45-3.67 8.54-14a67 67 0 0 0 2.3-10.7c-4.57-2.12-9.09-6.47-12.86-12.19zm121.58-84.35c-1.31 0-3 11.28-3.29 13.17-1.83 11-1.65 9.07-3.9 22.67a162.75 162.75 0 0 0 8.09-15c1.05-2.29 3.25-7.07 2.84-12.6-.29-4-1.49-7.25-2.92-8a1.9 1.9 0 0 0 -.82-.24z" fill="#86ebf9"/><g fill="#287eef"><path d="m135.45 345.73a9.5 9.5 0 0 1 5.82-1.13c7.61.73 10.64 12.51 9 35-.17 4.21-.6 22-1.26 52.83 3.78-14.87 14.91-42.84 17.68-63.31a92.4 92.4 0 0 0 .83-15.51 4.06 4.06 0 0 1 -.3-2.23c.44-1.8 1-2.89 1.7-3.27a6.52 6.52 0 0 1 3.79-.56 9.38 9.38 0 0 1 5.56 2.07c4.65 4.37 6.18 16.25 4.74 35.15-.22 4.49-.83 23.49-1.81 56.32 3.87-15.72 15.65-46.93 18.54-68.31 1.64-12.16.65-18.18.83-19.52a3.39 3.39 0 0 1 1.69-2.75 4.47 4.47 0 0 1 4.58.08c2.68 2.28 3.56 7.25 2.54 14.84-4.25 31.75-22.1 57.86-27.11 97.27-.25 1.74-1.33 2.76-2.55 2.44-7.33-1.85-11.14-7.34-10.92-14.34.15-8.1.66-29.35 1.57-64.32-9.53 27.18-17.06 41.59-20.13 66.49-.22 1.6-1.26 2.41-2.43 1.94-6.88-2.7-10.76-8.38-10.65-14.91.1-5.33.69-58.68.75-62.81a117.43 117.43 0 0 0 -.72-20.6c-.49-3.24-1.11-5.18-1.75-5.75a3.37 3.37 0 0 1 0-5.09"/><path d="m369.45 385.17a5.81 5.81 0 0 0 -3-2.91 3.09 3.09 0 0 0 -.75 0 3.36 3.36 0 0 0 -2.3 2.69c-.76 4.43-14.39 12-26.72 21.38q4.64-28.71 9.23-55.85c1.23-7.5-2.23-11.79-10.74-11.64a3.24 3.24 0 0 0 -2.8 2.07 3.84 3.84 0 0 0 0 3.69c.38.83.22 3.67-.43 8.76-5.54 34.46-9.5 59.16-11.73 72.65-1.5 7.59-3.77 21.76-2.52 29.45.56 4.33 3 7.14 7.2 5.86a16.58 16.58 0 0 0 6.63-4 5.72 5.72 0 0 0 1.71-3.25c.2-1.28-.07-2.16-.75-2.55s-1.07-2.29-1-5.73c.06-8.17 1.66-17.5 2.85-24.71 4.17-.38 5.45 35.65 17.77 30.5a15.75 15.75 0 0 0 6.35-5.16c3.65-4.74 4.53-8 4.78-9.5.3-1.79-.21-2.92-1.3-2.47l-1 .49c-3.09 1.23-7.75-5.94-14.11-23.6 3.42-2.34 6.82-4.94 10.28-7.61 5.26-4.1 15.37-12.64 12.35-18.56z"/><path d="m214.36 421c3-9.2 7.14-16 12.45-20.48 9.37-7.88 20.16-9.32 28.44-.44 3.58 3.91 5.86 9.76 6.87 17.5a72 72 0 0 1 -4.43 32.51c-3.1 7.64-7 13.51-11.62 17.33-10.31 8.34-20.57 6.77-28.11-2.51-8.81-10.83-7.83-30.59-3.6-43.91m10.32 23.21c-.11 13.05 3.59 19.89 8.28 20.1s8.86-5.31 12.23-16.59a69.55 69.55 0 0 0 2.68-13.63 67.06 67.06 0 0 0 1.06-13.73q-.44-17.29-7.56-17.48c-4.69-.1-10.21 6.44-13.7 19.58a64.13 64.13 0 0 0 -1.94 10.93 61 61 0 0 0 -1 10.82"/><path d="m299.1 391.47c-4.17.34-6.88 2.45-9.8 5.52-.06.06-.08.1-.09.1-4.72 5.42-9.23 6-9.23 6-1.69.22-4 .52-6-1.33-2.36-2.21-4.55-7.86-5.25-7.86-1.71 0-3 2.05-3.21 3.69.56 7.28 7.17 14.61 13.29 13.51 5.61-1 10.51-9 14.86-9.32 3.09-.23 3.23 4.1 2.79 7.19-.67 3.15-1.68 5.18-1.95 7-.38 2.64.54 3.8 2.79 3.52a10.71 10.71 0 0 0 6.88-4.59 23.32 23.32 0 0 0 3.63-9.38c1.02-7-1.55-14.64-8.71-14.05z"/><path d="m108.37 361.71c1.43.54 1.41-13.3 10.08-17.53 3.89-1.89 10-2.13 13.39 1.61 3.26 3.59 5.76 13.15 6.13 20a4.6 4.6 0 0 0 .77 2.8c2.72 3.41 11.87-3.94 11.88-4 .08-.88 1.24-17.21-8.48-26.8a20.36 20.36 0 0 0 -16.14-5.79c-2 .12-9.19.88-14.18 6.85-7.16 8.44-4.82 22.15-3.45 22.86z"/><path d="m199.75 372.76s.95-15.36-1.84-26.55-2.67-14.39 1.36-13.75 18.77 27.68 30.85 25.83 6.3-17.9 3.5-20.39 10-2.75 11.7 13.61c1.78 16.55-26.71 33.82-40.58 3.11q-2.49 9.12-4.99 18.14z"/><path d="m254.78 419.13c2.42-17.41-1.54-33-8.47-38.31a10.34 10.34 0 0 0 -12.41-.5 19.64 19.64 0 0 0 -7.36 11.77c-2.87 13.62 7.72 35.62 19.42 40.72 13.11 5.83 29.74-9 38.52-35.87-1.52-.3-3-.62-4.56-.95-1.27 4-3.88 11-8.81 16.73-.6.7-13.53 15.43-25.31 6.58-6.49-4.88-12.09-16.6-10.48-23.48a7.05 7.05 0 0 1 3.17-4.68c3.63-1.8 7.66 4.4 9.4 7 4.58 7 6.24 15.57 6.89 20.99z"/><path d="m293.65 400.7c5-2.83.64 12.68-.88 18.34-7.73 28.8-14.56 54.13-6.55 61.24 3 2.63 7.14 1.84 8.46 1.58 10.93-2.19 21.47-18.9 26.43-40.39-.74-2.28-1.47-4.58-2.21-6.89-1.24 4.67-7.38 27.71-17.09 29.85a3.36 3.36 0 0 1 -2.5-.08c-7.19-4.83 15.55-53.25 8.66-66.53-.41-.83-1.53-3.11-3.77-3.71-4.41-1.18-9.61 5.37-10.55 6.59z"/><path d="m272.68 409.8a37.55 37.55 0 0 0 3.69-5.79c.59-1.14 5.7-11 3.6-14.2-.92-1.41-3-1.12-4.22-.42-3 1.7-4.63 8.86-1.54 14l-2.63 4a9.3 9.3 0 0 1 -4.18-3.76 21.35 21.35 0 0 1 -1.93-17.74c3.64-9.56 15.36-10.65 19.37-5.32 3.85 5.15 2.56 19-6.63 31.32-1.84-.66-3.69-1.37-5.53-2.09z"/><path d="m325.1 394.94c2.34-31.77 1.15-37.66 3.31-48.44 1.19-5.85 2.33-11.53 5.54-16.16 3.93-5.73 11.66-9.54 19.33-6.13 11.41 5.08 13 20.9 13 21.78 1.64 19.57-20.64 47.52-34.22 61.67.3-2.4.6-4.78.91-7.17 4.69-6.46 16.84-23.44 23.93-38.69 1.36-3 3.64-8.19 3.17-14.43-.09-1.24-.65-8.72-4.83-11a5 5 0 0 0 -4-.42c-3.67 1.46-4.07 8.32-6.69 23.14-1.55 9.23-2.41 13.91-3.55 16.91-2.31 5.76-6.74 12.61-15.9 18.94z"/><path d="m361.31 399.55c6.94-5.36 10.78-12.27 10-17.08a7.05 7.05 0 0 0 -5.18-5.87c-9.73-2.36-24.88 29.08-25.83 31.56 1.12 1.36 2.23 2.7 3.35 4 3.11-7.43 15.09-34.89 19.65-28.28 2 2.95-2.13 12.62-7.13 14.77 1.73.35 3.43.64 5.14.9z"/><path d="m338.36 431.23c.25 5.29 1.51 16.06 8.15 19.67 13.47 6.91 34.82-21.83 36-22.91 10.55-13.72 15.8-26.92 15.18-27.13-.45-.15-3.67 5.83-11.38 15.21 0-.05-14.6 18-23.62 18.37-3.73.23-5.89-2.51-9-7-4.23-6-4.42-6.81-5.45-6.77-4.82 0-9.88 10.51-9.88 10.56z"/></g><path d="m269.68 288.54c-10.16-9.26-4.28-32.37 8.38-41.14 7.79-5.41 17.43-7 24.36-.45 10.26 9.86 3.24 34.25-10.19 42.48-7.75 4.67-16.17 4.93-22.55-.89zm20.57-35.54c-2.29 0-6 3.53-8.54 10.29a30.41 30.41 0 0 0 -1.65 6.11 26.69 26.69 0 0 0 -1 5.69c-.3 5.19 1 7.13 1.53 7.72a1.68 1.68 0 0 0 1.3.6c4.23 0 8-9.65 9.08-13.82.66-3.08 1.45-4.86 1.63-8.87.25-5.18-.76-6.82-1.2-7.29a1.41 1.41 0 0 0 -1.15-.43c.01-3.25.01-3.38 0 0z" fill="#86ebf9"/><path d="m245.83 310.08c-21.28 0-14.37-30.85-10.71-51.39h-1.63a4.82 4.82 0 0 1 -4.6-5.59 5.74 5.74 0 0 1 5.39-5h2.64c.54-3.44 3-18.11 2.74-21.54a5.45 5.45 0 0 1 -.07-5.39 5.61 5.61 0 0 1 4.92-3.4c5.23 0 9.2 1.48 11.79 4.41.05 0 .1.12.15.18 2.27 3.12 2.61 6.48 2.08 10.2-.8 5.51-1.45 9.68-2.69 15.52h7.16a4.49 4.49 0 0 1 3.48 1.6c2.72 3.31-.08 9-4.54 9h-8.35c-1.55 6.8-5.61 27.38-5.93 34.34-.24 5.16.77 5.93.78 5.94a.35.35 0 0 0 .14 0c1.16 0 1.76-.69 2.56-4.91a5.58 5.58 0 0 1 5.32-4.46c4.2 0 6 2 6.77 3.66 1.27 2.48.36 5.54-1.15 7.92a18.34 18.34 0 0 1 -16.25 8.91z" fill="#86ebf9"/><path d="m231.33 295.16a2.46 2.46 0 0 1 .74-1.93l12.66-12.23a2.45 2.45 0 0 1 4.12 2.12c-.71 4.87-1 10.73-.1 12.52a1.54 1.54 0 0 0 .27.45c2.39-.1 2.07-3.36 3.25-8 2.5-9.69 10.63-20.31 20.93-22.37a2.46 2.46 0 0 1 2.91 2l1.17 7.9a2.45 2.45 0 0 1 -3.79 2.4c-.75-.51-1.92-1.14-2.75-.74-1.44.68-2 4.15-2.58 7.81-.91 5.68-2 12.74-7.27 18.19-4.06 4.23-9.82 6.87-15 6.87-8.42.11-13.99-6.63-14.56-14.99z" fill="#86ebf9"/><path d="m274.55 256.39a12.64 12.64 0 0 1 -.14-8.35c1.82-5.35 8-10.72 14.65-10.72a16.58 16.58 0 0 1 7.93 2.29c6.28 3.39 8.3 9.8 8.95 13.32a2.46 2.46 0 0 1 -3.5 2.64c-7.93-3.9-11.23-4.57-12.52-4.6a10.05 10.05 0 0 0 2.52 4c3.7 3.61 10.36 2.87 15 .43s7.64-6.37 9.3-8.51c1.09-1.41 1.75-2.26 3.1-2.26a2.54 2.54 0 0 1 2.52 2.59c0 2.46-4.9 11.92-12.31 17-13.23 9.24-31.83 2.87-35.5-7.83z" fill="#86ebf9"/><path d="m198 261.36c-2.64 0-16.43-5-27.81-4.69-13.6.45-33.56-7.59-34.65-14.93-.48-3.18 3.1-6 10.35-8.23 16.17-4.93 40.8 12.59 53.7 23.53a2.45 2.45 0 0 1 -1.59 4.32z" fill="#86ebf9"/><path d="m159.67 295.23c-6.52 0-11.66-2.23-12.5-5.41-.38-1.45-.28-5.4 8.9-10.58 12.12-6.84 30.17-3.66 43.18 1.17a2.46 2.46 0 0 1 .07 4.57c-4.64 1.89-15.4 2.7-25.72 7.22a34.23 34.23 0 0 1 -13.93 3.03z" fill="#86ebf9"/><path d="m337.22 261.36a2.46 2.46 0 0 1 -1.59-4.32c12.91-11 37.53-28.45 53.7-23.53 7.25 2.21 10.83 5.05 10.36 8.23-1 6.85-19.26 14.95-33.64 14.95-1 0-1.13 0-2.13 0-10.92-.03-24.24 4.67-26.7 4.67z" fill="#86ebf9"/><path d="m375.58 295.23a35.17 35.17 0 0 1 -13.93-3c-10.37-4.54-21-5.29-25.71-7.22a2.45 2.45 0 0 1 .07-4.56c13-4.82 31-8 43.17-1.18 9.18 5.18 9.28 9.13 8.9 10.58-.84 3.15-5.98 5.38-12.5 5.38z" fill="#86ebf9"/><path d="m272.05 284.77c5.57 5.08 12.85 4.69 19.61.61 6.37-3.9 10.81-11.34 12.76-18.63 5.53-20.64-9.37-29.62-24.25-19.3-6.3 4.37-10.32 12-11.83 19.34-1.26 6.21-.97 13.71 3.71 17.98zm8.08-24.36c3-7.84 7.34-11.87 10.83-11.87s5.14 3.48 4.81 10.28a32.2 32.2 0 0 1 -1.39 7.94l-.31 1.42c-1.37 5.49-5.59 15.66-11.45 15.67-3.29 0-5.71-3.59-5.28-10.89a29.94 29.94 0 0 1 1.06-6.18 31.55 31.55 0 0 1 1.73-6.37z" fill="#287eef"/><path d="m257.14 290.09a3.14 3.14 0 0 0 -2.92 2.46c-.68 3.64-1.49 6.9-5 6.91-2.55 0-3.64-2.79-3.38-8.53.35-7.32 4.61-29 6.44-36.67h10.29a3.41 3.41 0 0 0 3.1-2.81 2.17 2.17 0 0 0 -2-2.84h-10.17c1.72-7.4 2.63-13.59 3.37-18.67 1.07-7.11-2.87-11.64-11.65-11.64-1.12 0-2 .71-2.71 2a3 3 0 0 0 .18 3.38c.87 2.13-2.46 21.72-2.95 24.92h-4.74c-2.11 0-3.94 2.87-2.45 4.8a2.08 2.08 0 0 0 1.65.86h4.56c-4 22.57-10.75 51.44 7.82 51.4a15.93 15.93 0 0 0 14.11-7.76c2.7-4.26 1.31-7.82-3.55-7.81z" fill="#287eef"/><path d="m234.49 293c.44 6.39 4 11.23 9.25 12.48 5.64 1.35 12.18-1.7 16.1-5.79 8.69-9.05 4.9-23.82 10.56-26.52 1.88-.89 3.83 0 5.17.92-.39-2.6-.78-5.24-1.17-7.9-9.27 1.86-16.79 11.83-19 20.58-1 4-.91 7.61-3.26 9.06a4.28 4.28 0 0 1 -3.11.62 3 3 0 0 1 -1.73-1.71c-1.63-3.34-.27-12.89-.12-13.95z" fill="#287eef"/><path d="m304.24 251.41c-.42-2.28-1.91-8.48-7.7-11.6-2-1.05-6.4-3.45-11.78-.78-.54.26-5.62 2.86-7.31 7.83-4.21 12.4 17.08 23.73 32 13.46 7.62-5.27 11.69-14.81 11.2-15.15s-4.27 6.8-11.29 10.48c-6.13 3.21-13.65 3.28-17.89-.85-2.13-2.07-4.18-5.94-3-7.5 1.08-1.38 4.88-1.24 15.77 4.11z" fill="#287eef"/><path d="m198.75 257c-6.4-1.25-16.74-4.7-26.7-4.7-1 0-1.25 0-2.13 0-14.53 0-30.53-8.25-31.21-12.86-.21-1.38 2.38-3.62 8.64-5.52 15.13-4.63 39.26 12.74 51.4 23.08z" fill="#287eef"/><path d="m150.26 287.24c-.28-1 1-4 7.73-7.83 11.39-6.43 28.86-3.22 41.12 1.34-4.35 1.78-15.15 2.59-25.78 7.24-11.96 5.24-22.33 2.13-23.07-.75z" fill="#287eef"/><path d="m337.93 257c12-10.21 36.24-27.67 51.4-23 6.26 1.9 8.85 4.15 8.65 5.52-.69 4.61-16.69 12.86-31.22 12.86-.94 0-1.1 0-2.13 0-9.96-.13-20.32 3.32-26.7 4.62z" fill="#287eef"/><path d="m363.35 288c-10.59-4.63-21.41-5.46-25.77-7.24 12.24-4.54 29.68-7.79 41.11-1.34 6.74 3.81 8 6.79 7.73 7.83-.75 2.87-11.12 5.97-23.07.75z" fill="#287eef"/></svg>