<svg height="512" viewBox="0 0 512 512" width="512" xmlns="http://www.w3.org/2000/svg" xmlns:xlink="http://www.w3.org/1999/xlink"><clipPath id="a"><path d="m425.79 451h-338.93c-7 0-12.76-5.07-13.32-11.65l-25.19-296.35c-.62-7.37 5.52-13.69 13.32-13.69h389.33c7.8 0 13.95 6.32 13.32 13.69l-25.22 296.31c-.56 6.58-6.35 11.69-13.31 11.69z"/></clipPath><clipPath id="b"><path d="m395 454.58a66.79 66.79 0 1 1 66.79-66.79 66.87 66.87 0 0 1 -66.79 66.79z"/></clipPath><g clip-path="url(#a)"><path d="m425.79 451h-338.93c-7 0-12.76-5.07-13.32-11.65l-25.19-296.35c-.62-7.37 5.52-13.69 13.32-13.69h389.33c7.8 0 13.95 6.32 13.32 13.69l-25.22 296.31c-.56 6.58-6.35 11.69-13.31 11.69z" fill="#1573d8"/><path d="m86.86 439.71c-1.18 0-2.06-.71-2.11-1.35-27.09-318.7-25.42-296.46-24.87-297.06a2.37 2.37 0 0 1 1.79-.71h389.33a2.37 2.37 0 0 1 1.79.71c.55.6 2.23-21.65-24.87 297.06-.05.64-.93 1.35-2.1 1.35z" fill="#287eef"/><path d="m460.24 264.12c-216.24 18.21-202.24 17.12-203.82 16.99l-200.31-17a12 12 0 0 1 -11-11.91v-35.55a12 12 0 0 1 12-12h402.13a12 12 0 0 1 12 12v35.55a12 12 0 0 1 -11 11.92z" fill="#1573d8"/></g><path d="m453.6 240.26-197.44 26.06a23.91 23.91 0 0 1 -6.38 0l-190.78-26c-10.65-1.45-18.8-9.76-19.53-19.94l-8-111.67c-.9-12.5 9.55-23.11 22.77-23.11h404.27c13.21 0 23.66 10.61 22.76 23.11l-8 111.59c-.78 10.22-8.98 18.55-19.67 19.96z" fill="#287eef"/><path d="m357.63 98.6a5.47 5.47 0 0 1 -4.14-1.88c-9.85-11.28-37.37-38.15-80-43.92-65.34-8.8-110.49 38.57-115.43 44a5.5 5.5 0 0 1 -8.15-7.39c5.33-5.88 54.14-57.11 125.09-47.51 44.66 6 73.55 32.41 86.8 47.59a5.5 5.5 0 0 1 -4.17 9.11z" fill="#287eef"/><g fill="#efbd42"><path d="m140.4 69.65h30.7a0 0 0 0 1 0 0v15.95a0 0 0 0 1 0 0h-42.48a0 0 0 0 1 0 0v-4.17a11.77 11.77 0 0 1 11.78-11.78z"/><path d="m341.55 69.65h42.45a0 0 0 0 1 0 0v15.95a0 0 0 0 1 0 0h-30.7a11.77 11.77 0 0 1 -11.77-11.77v-4.18a0 0 0 0 1 .02 0z" transform="matrix(-1 0 0 -1 725.57 155.26)"/><rect height="68.07" rx="7.21" width="57.38" x="227.52" y="238.05"/></g><path d="m227.52 262.24h57.38v11.25h-57.38z" fill="#d7981a"/><rect fill="#efbd42" height="24.19" rx="5.63" width="76.23" x="218.1" y="238.05"/><path d="m452.37 96.85s-27.66 113.26-89.59 133.51c0 0 75.34 3.75 89.59-18s0-115.51 0-115.51z" fill="#1573d8"/><path d="m64.39 96.85s27.67 113.26 89.61 133.51c0 0-75.33 3.75-89.59-18s-.02-115.51-.02-115.51z" fill="#1573d8"/><circle cx="395.03" cy="387.79" fill="#e73f46" r="80.29"/><g clip-path="url(#b)"><path d="m395 454.58a66.79 66.79 0 1 1 66.79-66.79 66.87 66.87 0 0 1 -66.79 66.79z" fill="#c6c6c6"/><path d="m407.12 454.58a66.79 66.79 0 1 1 66.79-66.79 66.88 66.88 0 0 1 -66.79 66.79z" fill="#eaeaea"/></g><path d="m436.06 390.29h-41.06a2.5 2.5 0 0 1 -2.5-2.5v-48.23a2.5 2.5 0 1 1 5 0v45.73h38.53a2.5 2.5 0 0 1 0 5z" fill="#2d1929"/></svg>