<?xml version="1.0" encoding="UTF-8"?>
<svg xmlns="http://www.w3.org/2000/svg" viewBox="0 0 512 512" width="512" height="512"><defs><style>.cls-1{fill:#ffb833;}.cls-2{fill:#ffdb99;}.cls-13,.cls-3{fill:#383333;}.cls-4{fill:#aaeeea;}.cls-11,.cls-12,.cls-5,.cls-8,.cls-9{fill:none;stroke-linecap:round;stroke-linejoin:round;}.cls-5{stroke:#00ccc1;stroke-width:3px;}.cls-6{fill:#00ccc1;}.cls-7{fill:#ffc871;}.cls-11,.cls-8,.cls-9{stroke:#383333;}.cls-8{stroke-width:0.75px;}.cls-10,.cls-13,.cls-9{fill-rule:evenodd;}.cls-10{fill:#fff;}.cls-12{stroke:#fff;}</style></defs><g id="Copy_Writig" data-name="Copy Writig"><rect class="cls-1" x="408.72" y="72.79" width="3.04" height="16.26" rx="1.52" transform="translate(62.94 313.78) rotate(-45)"/><rect class="cls-1" x="408.72" y="72.79" width="3.04" height="16.26" rx="1.52" transform="translate(643.1 428.21) rotate(-135)"/><rect class="cls-1" x="215.61" y="62.61" width="3.85" height="20.64" rx="1.73" transform="translate(12.15 175.18) rotate(-45)"/><rect class="cls-1" x="215.61" y="62.61" width="3.85" height="20.64" rx="1.73" transform="translate(319.8 278.31) rotate(-135)"/><rect class="cls-1" x="310.71" y="168.1" width="3.85" height="20.64" rx="1.73" transform="translate(-34.59 273.32) rotate(-45)"/><rect class="cls-1" x="310.71" y="168.1" width="3.85" height="20.64" rx="1.73" transform="translate(407.54 525.64) rotate(-135)"/><path class="cls-1" d="M255.25,273.41A73.69,73.69,0,0,1,274.92,280c5.39,2.72,11.76,7.31,24.29,16.36,2.78,2,4.19,3,6.88,5,11.42,8.58,30.2,20.87,62.35,36.9,0,0-1.31,14.68-13.06,23.16-6.86,4.95-16.35,7.36-35.78,3.72-15.36-2.88-43.18-10.67-75.46-35.39Q249.69,301.57,255.25,273.41Z"/><path class="cls-2" d="M362.58,252.1s-1.06-22.48.22-30.22,8.77-14.86,10.28-21.47.57-10.88-2.75-11.56a6.09,6.09,0,0,0-1-7.4,6,6,0,0,0-5.83-1.15,5.73,5.73,0,0,0,.79-6.15c-1.37-2.43-4.61-2.5-4.83-2.5-3.84,0-12.56,8.82-9.66,6.29h0s-3.32-34-8.19-33.35-2.13,31.64-5.09,39.56-7.39,15.88-5.44,29.5.87,42.16.87,42.16S355.57,257.14,362.58,252.1Z"/><path class="cls-3" d="M146.16,194a76.27,76.27,0,0,0-1.4,14.22c0,8.26-.09,24.7,8.49,34.24,15.74,17.51,58.81,9.68,66.12-8.49a14.47,14.47,0,0,0,1.08-7.3C217.52,203.74,152.5,194.8,146.16,194Z"/><path class="cls-3" d="M258.42,199.29a76.19,76.19,0,0,1,1.39,14.21c0,7.61.11,26.42-8.48,34.24-17.46,15.88-70.8-13.5-70.07-15.78.12-.38,1.74-.1,2.87,0C193.37,232.76,213.91,225.73,258.42,199.29Z"/><path class="cls-3" d="M147.62,129s-22.82-16-39-7.62,1.49,24.48-1.31,34.12S97.86,180.36,108,194s23.79,21.64,39.45,18.26S147.62,129,147.62,129Z"/><rect class="cls-4" x="291.08" y="31.2" width="91.79" height="106.2" rx="4.34" transform="translate(673.96 168.61) rotate(-180)"/><line class="cls-5" x1="366.18" y1="62.71" x2="307.78" y2="62.71"/><line class="cls-5" x1="366.18" y1="79.64" x2="307.78" y2="79.64"/><line class="cls-5" x1="366.18" y1="96.56" x2="307.78" y2="96.56"/><line class="cls-5" x1="366.18" y1="113.48" x2="307.78" y2="113.48"/><path class="cls-6" d="M291.08,53.92,313.72,31.2V47.45a6.47,6.47,0,0,1-6.47,6.47Z"/><path class="cls-1" d="M161.63,278.84c-27.53,3.47-38.13,16.48-41.08,20.56-6.74,9.32-9.26,21.49-14.17,45.15-.35,1.71-.9,4.43-2.51,13.66-9.24,53-10,71.07-8.93,87.2.12,1.82.24,3.27.3,3.95l19.6.14A157.86,157.86,0,0,0,132,427.56c17.36-26.87,23-53.64,24.91-71.28Q159.26,317.55,161.63,278.84Z"/><path class="cls-2" d="M196,239.35s-.44,16.84-4.95,25.08-25.87,8-42.71,20.32,1.35,52.83-4.7,169.7c0,0,91.83,18.76,140.31,4.54,0,0-8-70-3-118.48s-2.94-55.35-13-59.95-34.16-11.63-36.29-17-3.52-23.21-3.52-23.21Z"/><path class="cls-7" d="M267.94,184.66a13,13,0,0,1,9.78-3.48,10,10,0,0,1,5.87,2.39c5.24,5.2,2.73,21.05-6.69,24.87-5.27,2.14-10.73-.28-12.57-1.19Q266.15,196,267.94,184.66Z"/><path class="cls-8" d="M281.18,190.61l-9-.67s9,5.95,1.12,13.12"/><path class="cls-7" d="M156.83,181.52a13,13,0,0,0-9.57-4,10,10,0,0,0-6,2.06c-5.53,4.89-3.92,20.85,5.27,25.21,5.14,2.43,10.73.33,12.62-.49Q158,192.9,156.83,181.52Z"/><path class="cls-8" d="M143.27,186.71l9-.16s-9.29,5.43-1.85,13"/><circle class="cls-2" cx="212.03" cy="176.61" r="63.4"/><path class="cls-2" d="M148.79,172c0,7.42.87,44.66,28.65,66.94,5.1,4.09,15.5,12.21,30.48,13.27,27.62,1.94,46.82-21.85,50.65-26.6,13.36-16.57,16-34.65,16.58-43.12C275.15,182.53,206.9,131.51,148.79,172Z"/><path class="cls-3" d="M255.79,174.13A20.19,20.19,0,0,0,244.32,170c-2.81-.16-6.63-.37-7.87,1.8a3.08,3.08,0,0,0,0,3.12c1.27,1.81,4.64.32,10,.44,7.08.16,11.59,3,12.09,2C258.88,176.59,256.66,174.82,255.79,174.13Z"/><path class="cls-3" d="M174.26,173.52A20.09,20.09,0,0,1,186,170.27c2.82.06,6.64.15,7.71,2.41a3.1,3.1,0,0,1-.22,3.11c-1.41,1.71-4.65,0-10-.35-7.06-.39-11.78,2.07-12.2,1C171,175.73,173.34,174.14,174.26,173.52Z"/><path class="cls-9" d="M215,184.17s4.57,11.59,3.59,13.75-9.86,1.12-9.86,1.12"/><ellipse class="cls-7" cx="251.98" cy="204.19" rx="4.88" ry="7.84" transform="translate(43.99 453.03) rotate(-89.13)"/><ellipse class="cls-7" cx="178.52" cy="203.07" rx="4.88" ry="7.84" transform="translate(-27.24 378.49) rotate(-89.13)"/><path class="cls-1" d="M246.2,272.09c-4,11.2-10.52,15.65-13.17,17.18-14.37,8.31-37.56,2.19-54.41-17.58,0,0-36.19,7.65-40.1,21.83s9,124.81-5.64,174.3c0,0,75.88,25.78,164.74-6.86-2.33-7.9-4.47-16.33-6.3-25.28a306,306,0,0,1-5.9-71.76c.5-1.11,1.17-2.69,1.9-4.61,1.89-5,17.33-46.15-3.2-70.78C273.15,275.38,255.69,272.66,246.2,272.09Z"/><path class="cls-1" d="M364.51,226.18c1.68,11,15.9,106.61-2,125.9-7.73,8.34-15.69,8.51-15.69,8.51-10.85.39-18.92-10.16-19.69-11.18-10.82-14.56-2.29-33.37,2.35-64.17a267.57,267.57,0,0,0,2.18-59.46,85.72,85.72,0,0,1,32.84.4Z"/><path class="cls-1" d="M233.55,260.85a4.49,4.49,0,0,0-5.63-1.61c-9.62,4.39-16.41,4.06-21.13,2.54-6.9-2.22-11-7.52-15-5.66-3.72,1.72-1.56,7.09-6.91,11.49-4,3.32-10.93,5.21-10.93,5.21l19,19.35,49.91,5.06,12.37-22.43s-12.26-4.08-16.81-8.17A30.27,30.27,0,0,1,233.55,260.85Z"/><path class="cls-8" d="M334.05,190.41s5.05-4.84,11-4.85,10.25.69,9.59,3.32-7.1,4.43-10.25,5.8-4.47,7.13-4.47,7.13"/><line class="cls-8" x1="352.34" y1="178.5" x2="347.63" y2="185.02"/><line class="cls-8" x1="363.49" y1="180.3" x2="354.67" y2="188.88"/><path class="cls-8" d="M370.33,188.85s-10.69,7.48-15.37,7.4-2.84-4.84-2.84-4.84"/><path class="cls-8" d="M373.78,195s-12.89,9.41-15.75,7.67-1.88-6.57-1.88-6.57"/><path class="cls-10" d="M224.75,207.41l-23.2.51s2.61,6.93,9.85,8S224.75,207.41,224.75,207.41Z"/><path class="cls-8" d="M229,248.81s-17.08,6.79-33.89.66"/><path class="cls-11" d="M280.74,308.62a49.68,49.68,0,0,1,9.36,19.31,51.14,51.14,0,0,1-2.92,31.6"/><path class="cls-11" d="M324.15,313.7s-9,18.32,3,35.71"/><path class="cls-6" d="M172.08,456.76l-.76-11.66-45.78,3,.77,11.66a22.93,22.93,0,0,0,24.39,21.38h0A22.93,22.93,0,0,0,172.08,456.76Z"/><path class="cls-4" d="M117.16,273.35A24.81,24.81,0,0,0,116,276c-.15.41-.25.84-.37,1.27Z"/><path class="cls-4" d="M171.32,445.1,160.59,282a23,23,0,0,0-.77-4.59c0-.13-.09-.25-.12-.38a3.7,3.7,0,0,1-.79,2.8c-2.89,3.47-9.68,10-20.39,10.81-11.09.81-18.94-5.1-22.32-8.28a3.69,3.69,0,0,1-1.13-2.46,22.19,22.19,0,0,0-.25,5.11l10.72,163.08h0l45.78-3Z"/><path class="cls-4" d="M159.17,275.44a22.77,22.77,0,0,0-2.59-4.91Z"/><path class="cls-6" d="M116.2,282.38c3.38,3.18,11.23,9.09,22.32,8.28,10.71-.79,17.5-7.34,20.39-10.81a3.7,3.7,0,0,0,.79-2.8,3.92,3.92,0,0,0-.39-1.33l-.14-.28-2.59-4.91q-9.08-17.19-18.13-34.38a4,4,0,0,1-7.41,1.18l-13.88,36-1.5,3.92-.39,1a3.6,3.6,0,0,0-.2,1.65A3.69,3.69,0,0,0,116.2,282.38Z"/><path class="cls-3" d="M134.8,239.43a4,4,0,0,0,3.65-3.28,4.3,4.3,0,0,0,.06-1l-.6-9.24a4,4,0,0,0-7.95.52l.61,9.24a4,4,0,0,0,4.23,3.71Z"/><path class="cls-3" d="M192.52,122.09a56.91,56.91,0,0,1-10.09,35.55c-14.89,21-39,23.23-42.48,23.49,0,0-3.44-38.41,8.84-62.11s40.08-7.9,40.08-7.9c21-13.11,46-15.92,64.37-5.16,23.59,13.8,31.62,47.18,26.18,68.8-2.45,9.74-8.05,18.77-9.21,36.86a100.65,100.65,0,0,0,.87,21.07,30.71,30.71,0,0,1-8.33-11.41c-3.63-8.89-1.47-16.85,0-24.58,2.48-13.12,6-31.76.43-46.52S244,127.85,239.92,125.6C218.24,113.68,196.37,120.77,192.52,122.09Z"/><path class="cls-8" d="M208.69,220.26a9.12,9.12,0,0,0,8.85-.88"/><path class="cls-2" d="M130.48,356.77s12.64-28.34,18.32-38.8S163,298.7,167.32,298.25s0,11.5,0,11.5,6.35-3.42,4.48,7.47c0,0,5.83-1.79,2.09,11.21,0,0,3.44-1.05,2.54,5.38s-1.34,13.36-12.4,23a41.06,41.06,0,0,0-13.14,21.85S129.64,367.93,130.48,356.77Z"/><path class="cls-2" d="M134.93,350.29s8.51-45.45,12.1-45.45,3.11,14.88,2.11,19S140.05,347.1,134.93,350.29Z"/><path class="cls-1" d="M131.74,348.56c5.16,1,10.78,2.41,16.75,4.24,5.66,1.74,10.84,3.64,15.51,5.56-3.32,9.6-8.65,25.82-14.05,46.38-10.48,39.92-11.1,57.68-24.14,63.2-9.29,3.92-22.09.45-28.09-7-3-3.79-7.57-12.68,8.34-55.74A437.94,437.94,0,0,1,131.74,348.56Z"/><path class="cls-11" d="M100.8,430.92s11.18-44.86,23.83-68.67"/><path class="cls-8" d="M159.72,318s3.75-5.77,7.6-8.23"/><path class="cls-8" d="M163.52,326.6s4.82-7.5,8.28-9.38"/><path class="cls-8" d="M173.89,328.43s-3.9,6.23-5.36,7.25"/><path class="cls-12" d="M176.07,123.19s1.76,32.59-17.33,42.83"/><path class="cls-12" d="M161.36,135.26s-3.28,19.31-12.57,26.33"/><path class="cls-12" d="M206.6,113.44s16-5.17,39.25,1.19,28.15,36.43,26.36,48.72"/><path class="cls-12" d="M133.27,136.43s-12.87-7.32-16.53,0,10.68,20.48,5.27,32.77-7.61,26.48,1,27.21"/><path class="cls-12" d="M130,178.42s-3.3,23.79,13.32,27.47"/><path class="cls-12" d="M152.26,217.33s3.45,25.46,21.71,27.36"/><path class="cls-12" d="M253.68,235.32a22.56,22.56,0,0,1-14.93,11.85"/><path class="cls-13" d="M246.8,192.65a5.7,5.7,0,1,1-.5-8A5.72,5.72,0,0,1,246.8,192.65Z"/><path class="cls-13" d="M252,185.07c-.13-.11-1.24,1.83-2.68,1.69-1.06-.1-1.33-1.27-2.67-2.29a6.88,6.88,0,0,0-4-1.28,14.62,14.62,0,0,0,2.29,3.32c1.31,1.41,2.14,2.32,3.28,2.34C250.48,188.88,252.13,185.21,252,185.07Z"/><path class="cls-13" d="M193.07,192.88a5.7,5.7,0,1,1,0-8A5.72,5.72,0,0,1,193.07,192.88Z"/><path class="cls-13" d="M179.34,185.7c.12-.12,1.36,1.74,2.78,1.51,1-.17,1.25-1.35,2.52-2.46a6.83,6.83,0,0,1,3.93-1.54,14.55,14.55,0,0,1-2.08,3.46c-1.2,1.5-2,2.46-3.11,2.55C181.08,189.4,179.19,185.85,179.34,185.7Z"/></g></svg>
