<?xml version="1.0" encoding="UTF-8"?>
<svg xmlns="http://www.w3.org/2000/svg" viewBox="0 0 512 512" width="512" height="512"><defs><style>.cls-1,.cls-7{fill:#383333;}.cls-2{fill:#aaeeea;}.cls-3{fill:#d17352;}.cls-10,.cls-11,.cls-13,.cls-14,.cls-4,.cls-6{fill:none;stroke-linecap:round;stroke-linejoin:round;}.cls-13,.cls-4,.cls-6{stroke:#383333;}.cls-4{stroke-width:0.75px;}.cls-5{fill:#d89071;}.cls-6,.cls-7{fill-rule:evenodd;}.cls-8{fill:#ffb833;}.cls-9{fill:#fff;}.cls-10,.cls-11{stroke:#00ccc1;}.cls-10{stroke-width:4px;}.cls-11{stroke-width:9px;}.cls-12{fill:#00ccc1;}.cls-14{stroke:#fff;}</style></defs><g id="Ecommerce"><path class="cls-1" d="M112.92,126.49s-28.27,13.15-24.67,91.26S57.91,343.17,57.91,343.17s30,25,88,23.56S297,322.09,297,322.09,266,161.71,214.9,119.77l-25.71,38.8Z"/><rect class="cls-2" x="238.78" y="31" width="116.47" height="101.78" rx="49.48" transform="translate(594.04 163.78) rotate(-180)"/><path class="cls-2" d="M281.61,123.12s-5,22.5-23.34,24.14a.89.89,0,0,1-.89-1.26c1.83-4.16,6.54-17.19-.64-27.69Z"/><path class="cls-3" d="M116.43,200.62a13.51,13.51,0,0,0-10.49-2.5,10.27,10.27,0,0,0-5.79,3.13c-4.84,5.94-.47,22,9.69,24.93,5.68,1.62,11-1.48,12.84-2.63Q119.56,212.08,116.43,200.62Z"/><path class="cls-4" d="M103.42,208.25l9.19-1.7s-8.61,7.15.31,13.67"/><path class="cls-3" d="M230.86,185a13.52,13.52,0,0,1,9.42-5.23,10.41,10.41,0,0,1,6.43,1.46c6.25,4.43,6.37,21.1-2.64,26.63-5,3.08-11,1.54-13.08.91Q230.93,196.84,230.86,185Z"/><path class="cls-4" d="M245.44,188.8l-9.31.84s10.21,4.57,3.38,13.25"/><circle class="cls-5" cx="172" cy="186.28" r="63.9"/><path class="cls-5" d="M234.91,175.11c.75,7.44,3.79,44.85-21.73,70.08-4.69,4.64-14.26,13.86-29.16,16.48-27.49,4.83-49.21-17-53.55-21.37-15.12-15.21-19.62-33.07-21.12-41.5C109.35,198.8,172.44,140.54,234.91,175.11Z"/><path class="cls-1" d="M130.25,192.58a20.26,20.26,0,0,1,11.06-5.38c2.8-.45,6.6-1.06,8.08,1a3.12,3.12,0,0,1,.35,3.12c-1.08,1.95-4.62.81-10,1.49-7.07.91-11.3,4.21-11.9,3.26C127.41,195.37,129.45,193.36,130.25,192.58Z"/><path class="cls-1" d="M211.6,181.2a20.28,20.28,0,0,0-12.13-2c-2.82.36-6.64.84-7.48,3.22a3.12,3.12,0,0,0,.55,3.09c1.59,1.57,4.66-.53,10-1.39,7-1.13,12,.84,12.34-.24C215.11,183.07,212.59,181.73,211.6,181.2Z"/><path class="cls-6" d="M172.22,198.38s-3.37,12.09-2.17,14.15,10,.1,10,.1"/><ellipse class="cls-3" cx="208.9" cy="213.66" rx="7.41" ry="5.14" transform="translate(-27.05 30.31) rotate(-7.8)"/><ellipse class="cls-3" cx="141.11" cy="222.94" rx="7.41" ry="5.14" transform="translate(-28.94 21.2) rotate(-7.8)"/><path class="cls-4" d="M174.25,233.68s5.55.79,8.53-1.17"/><path class="cls-7" d="M205.2,202.33a5.87,5.87,0,1,1-1.63-8.13A5.89,5.89,0,0,1,205.2,202.33Z"/><path class="cls-7" d="M209.42,193.88c-.14-.1-1,2-2.5,2.09-1.09.05-1.53-1.1-3-2a7.08,7.08,0,0,0-4.28-.75,15,15,0,0,0,2.81,3.07c1.53,1.26,2.51,2.08,3.68,1.93C208.43,198,209.61,194,209.42,193.88Z"/><path class="cls-5" d="M165,250.18s-2.74,31.8-8.91,36.26-40.52,12.51-48,27.94S92.7,420.52,92.7,420.52s76.11,12,128.9,6.47,66.51-6.47,66.51-6.47-24.2-110.26-37-124.14-44.64,5.43-56.72-50.25Z"/><path class="cls-3" d="M330.45,198.68l-25.2,166.6-54.1-6.1,42.68-168.93q10.55,2.72,21.7,5.24Q323.09,197.19,330.45,198.68Z"/><path class="cls-8" d="M251.15,296.38c12.76,13.88,37,124.14,37,124.14s-13.71,1-66.51,6.47-128.9-6.47-128.9-6.47,7.89-90.72,15.4-106.14c4.53-9.31,18.82-15.93,30.8-20.7,0,0,22,33.21,52.91,28.41s34.85-33.94,34.85-33.94C236.31,290.58,245.57,290.3,251.15,296.38Z"/><path class="cls-8" d="M124.24,382.25l-10.28,89s31.88,10.84,118.78,6.7h0L263.6,372,146.35,349.5Z"/><path class="cls-1" d="M194.18,142.45c18.19,16.52,20.39,35,35.48,38.74,6.34,1.6,12.19-.09,15.78-1.5,0,0-6.27-43-34.55-63s-49.62,1.8-49.62,1.8-38.54-7.2-51.92,12.08-9.2,70.71-9.2,70.71,25.07-6.86,33.58-18.73c9.11-12.71.74-26.49,9.54-39.38,6.7-9.82,18.6-13.52,27.94-15.08A78.37,78.37,0,0,1,194.18,142.45Z"/><path class="cls-9" d="M186.8,218.64l-25.45,5.86s7.14,7.72,15.92,5.38S186.8,218.64,186.8,218.64Z"/><path class="cls-7" d="M133.62,206.05c.17-.32,2.5,1.52,4.69.61,1.22-.51,1.36-1.38,2.71-2.47a7.05,7.05,0,0,1,4.14-1.48c.46.2,1,.5,1,.89,0,.61-1.36.87-2.75,1.64-2.74,1.51-2.55,3.28-4.27,3.76C136.55,209.72,133.41,206.43,133.62,206.05Z"/><path class="cls-7" d="M142.39,203.36l-2.84,5.44h0c2.34-3.33,4.34-4.09,5.75-4.16,3.16-.17,4.54,1.52,8.6,1.56.58,0,1.06,0,1.34-.06C147.25,201.86,143.88,202.05,142.39,203.36Z"/><path class="cls-3" d="M337.77,163.58a52,52,0,0,1,0,23.4c-2.95,12.85-5.2,16.45-11.15,16.45s-31-6.64-32-9.25-1-20-3-25.88-10.15-14.5-7.58-16.62,13.5,1.86,16.07,9.84,26.74-5.13,30.34-4.68S337.77,163.58,337.77,163.58Z"/><ellipse class="cls-10" cx="312.02" cy="56.07" rx="9.68" ry="11.31"/><ellipse class="cls-10" cx="278.42" cy="103.54" rx="9.68" ry="11.31"/><line class="cls-10" x1="283.54" y1="52.64" x2="309.24" y2="114.86"/><rect class="cls-8" x="214.43" y="34.83" width="3.7" height="19.84" rx="1.63" transform="translate(337.57 229.33) rotate(-135)"/><rect class="cls-8" x="214.43" y="34.83" width="3.7" height="19.84" rx="1.63" transform="translate(31.7 166.04) rotate(-45)"/><rect class="cls-8" x="386.78" y="128.27" width="4.7" height="25.18" rx="1.73" transform="translate(564.68 515.62) rotate(-135)"/><rect class="cls-8" x="386.78" y="128.27" width="4.7" height="25.18" rx="1.73" transform="translate(14.37 316.41) rotate(-45)"/><rect class="cls-8" x="167.44" y="71.16" width="4.7" height="25.18" rx="1.73" transform="translate(230.64 263.03) rotate(-135)"/><rect class="cls-8" x="167.44" y="71.16" width="4.7" height="25.18" rx="1.73" transform="translate(-9.49 144.59) rotate(-45)"/><rect class="cls-11" x="262.76" y="168.3" width="117.75" height="109.27" rx="32.31" transform="translate(643.28 445.86) rotate(-180)"/><path class="cls-2" d="M203.13,481h237A13.94,13.94,0,0,0,454,465.89L434.81,237a13.94,13.94,0,0,0-13.89-12.77H222.36A13.94,13.94,0,0,0,208.47,237L189.24,465.89A13.94,13.94,0,0,0,203.13,481Z"/><path class="cls-12" d="M347.38,321.34l-10.53-33.88A8.38,8.38,0,0,0,322,285.11l-20.49,29a8.38,8.38,0,0,1-6.94,3.54l-35.47-.46a8.37,8.37,0,0,0-6.82,13.38L273.52,359a8.39,8.39,0,0,1,1.22,7.7l-11.39,33.59A8.37,8.37,0,0,0,274,410.88l33.6-11.39a8.36,8.36,0,0,1,7.7,1.22l28.43,21.22a8.38,8.38,0,0,0,13.38-6.82l-.46-35.47a8.39,8.39,0,0,1,3.54-6.95l29-20.48a8.37,8.37,0,0,0-2.35-14.83l-33.87-10.53A8.39,8.39,0,0,1,347.38,321.34Z"/><path class="cls-5" d="M327.7,151.76c4.54-.86,8.82,5.92,10.07,7.9,5.1,8.07,6.15,19.23,3.67,19.85-2.75.69-11.68-14.53-11.68-14.53.42,1,6.1,13.93,1.45,18.45a2.56,2.56,0,0,1-1.58.88c-4,.31-8-13-9.51-18.52.29,7.14.56,20.77-1.89,21.18-2.6.43-7.05-14.09-9-20.77.84,13-.32,16.3-1.69,16.64-4,1-12.16-20.39-10.24-26,1.29-3.79,9.64,0,9.64,0s4.39-5.08,8.87-2.07a6,6,0,0,1,7.66.52C324.27,153.94,325.66,152.14,327.7,151.76Z"/><path class="cls-4" d="M329.76,165s-2.25-6.06-6.28-9.69"/><path class="cls-4" d="M320.12,165.79s-1.44-8.61-4.3-11"/><path class="cls-4" d="M307,156.84s1,5.16,2.29,9.36"/><path class="cls-5" d="M278,417.3s22.84-2.71,37.35-8.64,19.16-7.58,20.55-4.53-11.21,10.68-11.21,10.68,15.17.51,24.69-2.45,14.34-4.73,16.2-2.16-9.31,8.88-9.31,8.88,8.32-3.68,13.72-4,0,7.82-10.69,11.69c0,0,9.81-4.64,12.24-1.94s-6.53,8.13-11.68,10c0,0,12.85-1.49,12.29,1.87s-28.85,12.93-45.36,13.18-44.39,4.31-44.39,4.31S271.39,425.8,278,417.3Z"/><path class="cls-4" d="M338.29,423.86s14.17-.65,20.2-5.68"/><path class="cls-4" d="M341.51,432.26s12.74-3,21.53-7"/><path class="cls-4" d="M343.4,440s11-1.83,17.15-5.16"/><path class="cls-5" d="M97.5,428c12.43-16.18,48.7-10.5,61.71-8.74,27.67,3.74,67.7,5.66,122.32-2.45a134.39,134.39,0,0,1,7.52,36.51c-8.78,1.88-152,31.87-180.07,10.81-16.27-12.2-16.1-23.79-16.1-23.79A21.2,21.2,0,0,1,97.5,428Z"/><path class="cls-8" d="M153.35,418.39a87,87,0,0,0-21.46,14C115.4,447.09,110.4,463.21,102.65,462c-3.76-.61-5.91-4.93-7.89-8.92C88.17,439.77,91,425.85,92,420.82c3.39-17.2,6.32-38.83,9.25-67.54l40.2,27.94Z"/><path class="cls-13" d="M141.11,352.59a30.75,30.75,0,0,0-4.53,15.26c-.27,13.33,8.62,22.08,10.29,23.66l6.48,26.88"/><path class="cls-14" d="M133.61,131s-3.9,48.73-30.19,55.72"/><path class="cls-14" d="M115.7,140.86S109.45,165,98.18,168.3"/><path class="cls-14" d="M191.81,122.38s17.89,13.09,23.09,26.46,17,19.9,23.88,20.49"/><path class="cls-14" d="M106.94,243.28s-2.55,57.55-24.15,94"/><path class="cls-14" d="M127.79,250.18s4.52,21.45-5.84,40.1"/></g></svg>
