<?xml version="1.0" encoding="UTF-8"?>
<svg xmlns="http://www.w3.org/2000/svg" viewBox="0 0 512 512" width="512" height="512"><defs><style>.cls-1{fill:#aaeeea;}.cls-2{fill:#00ccc1;}.cls-3{fill:#ffb833;}.cls-4{fill:#d89071;}.cls-10,.cls-11,.cls-14,.cls-5,.cls-8{fill:none;stroke-linecap:round;stroke-linejoin:round;}.cls-10,.cls-11,.cls-5,.cls-8{stroke:#383333;}.cls-11,.cls-5{stroke-width:0.75px;}.cls-6{fill:#ff832f;}.cls-12,.cls-7{fill:#383333;}.cls-11,.cls-12,.cls-8{fill-rule:evenodd;}.cls-9{fill:#d17352;}.cls-13{fill:#fff;}.cls-14{stroke:#fff;}</style></defs><g id="Repair"><rect class="cls-1" x="218.45" y="72.73" width="267.7" height="201.79" rx="20.87" transform="translate(704.61 347.26) rotate(-180)"/><circle class="cls-2" cx="460.34" cy="94.15" r="5.97"/><circle class="cls-2" cx="435.07" cy="94.15" r="5.97"/><circle class="cls-2" cx="409.8" cy="94.15" r="5.97"/><rect class="cls-3" x="358.31" y="43.34" width="3.37" height="18.06" rx="1.63" transform="translate(68.41 269.89) rotate(-45)"/><rect class="cls-3" x="358.31" y="43.34" width="3.37" height="18.06" rx="1.63" transform="translate(577.52 343.95) rotate(-135)"/><rect class="cls-3" x="388.81" y="310.87" width="4.28" height="22.92" rx="1.73" transform="translate(-113.41 370.85) rotate(-45)"/><rect class="cls-3" x="388.81" y="310.87" width="4.28" height="22.92" rx="1.73" transform="translate(439.47 826.69) rotate(-135)"/><rect class="cls-3" x="106.15" y="73.9" width="4.28" height="22.92" rx="1.73" transform="translate(-28.64 101.57) rotate(-45)"/><rect class="cls-3" x="106.15" y="73.9" width="4.28" height="22.92" rx="1.73" transform="translate(124.5 222.29) rotate(-135)"/><path class="cls-4" d="M39.74,251.06s6.58-43,7-48.56S35.39,173.05,38.65,169s12.75,18.17,14,18.21-5.11-26.4-1.61-28.6S61.67,184,62.76,182.35s1.16-25.47,5.8-25.32,1.89,23.43,2.61,24.5,8.07-5.95,14.26-2.21,4.33,9.77,2.51,10.61-1.82-3.3-6.17-4.32-7.09,4.38-6.49,7.16,4,5.12,6.85,4.19,3.2-9,7.45-6.87.53,10.89-4.08,14.82-7.87,8.55-8.63,14.22-2.2,31-2.2,31S53.73,259.68,39.74,251.06Z"/><path class="cls-5" d="M53.51,192.17s8.54-5.5,16.66-6.77"/><path class="cls-5" d="M76.73,197.11s-4.38,1.53-7.09,7.44"/><path class="cls-6" d="M210.76,269.34c32.12-7.88,51.13-2.22,62.64,4.64,12.09,7.21,16,15.81,35.71,33.12A268.43,268.43,0,0,0,343.79,333l12.42,27.6a48,48,0,0,1-8.11,4.83c-3.14,1.47-16.5,7.3-39.51,2.24-18.93-4.16-34.19-15.86-64.72-39.27,0,0-22.63-17.51-30.15-36.57a46.38,46.38,0,0,1-1.48-4.47A50.6,50.6,0,0,1,210.76,269.34Z"/><path class="cls-6" d="M286.21,226.09c2.11,16,18.62,135.31,56.06,138.9,1,.1,8.43.69,14.12-4.21,25.86-22.29-27.36-120.69-36.54-137.44a51.17,51.17,0,0,0-33.64,2.75Z"/><path class="cls-6" d="M151,260.74s-29.1-.61-43.73,8.64-76.37,86.44-76.37,86.44l24.57,28.1A164.5,164.5,0,0,0,76.1,373C98.34,359.07,110.9,343.85,127,324c22-27.12,24.28-38,25.2-45.28A50.53,50.53,0,0,0,151,260.74Z"/><path class="cls-6" d="M76.38,235.54c1.73,14.86,15,135.5-21,148.38-1.08.39-8,2.76-14.72-.5-31.07-15.07-4.48-125.26.07-143.65a73.83,73.83,0,0,1,35.61-4.23Z"/><rect class="cls-3" x="248.69" y="96.75" width="56.81" height="302.32" rx="21.89" transform="translate(613.61 406.01) rotate(163.35)"/><path class="cls-3" d="M191.09,45.15l7.6,25.39,43.2,26.2,34.57-35.36L269,36.29a3.26,3.26,0,0,1,5.15-3.49,62.69,62.69,0,1,1-88.33,11.4A3,3,0,0,1,191.09,45.15Z"/><path class="cls-4" d="M163.46,228.94s2.72,26.43-.94,32.61-21.93,11-21.93,11l19.1,24.36,65.59-8.56,5.24-23.76s-13.83-2.62-18-3.3-8.85-24.77-8.85-24.77l-30-8.87Z"/><circle class="cls-4" cx="184.63" cy="173.63" r="60.25"/><path class="cls-4" d="M160.35,228.77s30.6,22.31,63.8,1.87,16.33-88.81,16.33-88.81-25.25-32.13-53.43-24.6S159.24,174,159.24,174Z"/><path class="cls-7" d="M173,167.7a18,18,0,0,1,9.71-5c2.49-.45,5.85-1.07,7.2.71a2.78,2.78,0,0,1,.37,2.77c-.92,1.75-4.09.8-8.84,1.52-6.26.94-9.95,3.95-10.51,3.12C170.48,170.23,172.25,168.41,173,167.7Z"/><path class="cls-7" d="M237.68,161.61a18.11,18.11,0,0,0-10.41-3.3c-2.52,0-5.94-.1-7,1.89a2.76,2.76,0,0,0,.1,2.79c1.19,1.58,4.16.12,9,0,6.33-.11,10.46,2.25,10.87,1.34C240.53,163.7,238.48,162.2,237.68,161.61Z"/><path class="cls-8" d="M209.38,175.65s6,9.42,5.48,11.48-8.48,2.66-8.48,2.66"/><ellipse class="cls-9" cx="174.66" cy="200.05" rx="7.02" ry="4.37" transform="translate(-26.35 26.49) rotate(-8.07)"/><ellipse class="cls-9" cx="233.57" cy="191.54" rx="7.02" ry="4.37" transform="matrix(0.99, -0.14, 0.14, 0.99, -24.57, 34.68)"/><path class="cls-9" d="M151.2,176.07a12,12,0,0,0-8.84-3.68,9.16,9.16,0,0,0-5.52,1.92c-5.08,4.53-3.54,19.26,5,23.24,4.74,2.22,9.89.27,11.63-.49Q152.32,186.56,151.2,176.07Z"/><path class="cls-5" d="M138.72,180.91l8.29-.18s-8.56,5-1.67,12"/><path class="cls-6" d="M167.57,254.32s22.92,3.94,41.52-5.42a36.57,36.57,0,0,0,1.22,4.46,20,20,0,0,0,3.52,5.27c9.4,9.8,24.33,3.86,33.18,7.07,19.4,7,16,61,15.52,116.1-.18,21.83,0,54.37,2.07,94.54A491.46,491.46,0,0,1,198.05,482a491.37,491.37,0,0,1-102.05-9c4.5-20.6,8.58-42.54,12-65.72a952.56,952.56,0,0,0,9.55-109Z"/><path class="cls-10" d="M176.91,234.7s16,6.11,27.14,3.78"/><path class="cls-11" d="M205.83,213.4a7.08,7.08,0,0,0,4.56,1.34,7,7,0,0,0,4-1.62"/><path class="cls-12" d="M194.66,183.1a5.4,5.4,0,1,1-.52-7.61A5.42,5.42,0,0,1,194.66,183.1Z"/><path class="cls-12" d="M233,178.67a5.4,5.4,0,1,1-1-7.57A5.41,5.41,0,0,1,233,178.67Z"/><path class="cls-7" d="M249.33,121s7.36,21.36-10.21,25.63-24.73-12.81-24.73-12.81-3,9.73-12.38,11.39-13.21-11-13.21-11-4.5,27.48-33,24.18c0,0,8.71,21.64-3.3,30.08,0,0-.49-10.43-1.88-12.86s-9.22-4.53-12.86-1.89-4.93,10.39-3,14.75,5.56,10.13,11.26,10.2,7.49,20.78,18.86,32.94c0,0-1.94.93-11.43-3.9s-31.09-23.21-32.51-61c0,0-12.58,7.05-17.56-9.56s16.85-22.55,16.85-22.55-9.73-15.67,2.13-25.16,21.34,1.42,21.34,1.42,1.69-29,31.12-13c0,0,14.95-16.38,30.38-11.4s9.71,18.52,9.71,18.52S243.4,92,249.33,121Z"/><path class="cls-6" d="M179.86,255.14s-12.22.18-18.45-4.92c0,0-3.81,8.3-12.95,10.7s-16.78,13.62-16.78,13.62S142.6,288.67,142.84,289s12,2.85,12,2.85l24-24.56Z"/><path class="cls-10" d="M80.2,296.72s-1.42,40.72-15.44,57.34"/><path class="cls-10" d="M120.05,291.87Q118,315.45,115.9,339"/><path class="cls-4" d="M261,205c.42-3.23,8.38-1.84,11-1.3-3.49-.79-16.8-4-16.65-7.51.16-4,10.16-2.58,10.16-2.58a71.22,71.22,0,0,1-6.58-3.12c-1.87-1-5.61-3.86-5.18-5.26.68-2.19,11.93-1.35,21.16,1,5.81,1.47,22.69,6,36.39,21.89a68.88,68.88,0,0,1,13.59,24.73c-12.17,4.26-17.59,2.63-20.28.32-2-1.69-2.24-3.54-5.25-5.88-3.57-2.79-7-3.18-11.35-4-8.75-1.69-20-5-19.86-6.72.15-1.56,9.69-2.45,9.69-2.45S260.53,208.9,261,205Z"/><path class="cls-5" d="M280.14,195.62a95.25,95.25,0,0,0-14.59-2"/><path class="cls-5" d="M281.9,204s-7.5-.57-12-.81"/><path class="cls-5" d="M286.83,215s-7.18-1.47-10.37-1.31"/><path class="cls-13" d="M220,200.05h-22.3c.8,5.44,4.37,9.79,9,11a10.92,10.92,0,0,0,9.14-1.66C220.26,206,220,200.49,220,200.05Z"/><path class="cls-14" d="M231.29,118.13s5.24,7.75-1.18,10.91-17.18-7.75-17.18-7.75-3.81,10.92-10.92,11.24-11.43-10.92-11.43-10.92-6.29,16.61-16.26,18"/><path class="cls-14" d="M133.18,196s4.59,18.51,11.87,21.2"/><path class="cls-14" d="M157.08,132.37s-.67,5.69-10.07,7.28-11.45-5.23-11.45-5.23-7.76,6.78-15.35.07"/><path class="cls-2" d="M355,194.92A35.91,35.91,0,1,0,391,159,35.91,35.91,0,0,0,355,194.92Zm15.19,0A20.73,20.73,0,1,1,391,215.65,20.72,20.72,0,0,1,370.23,194.92Z"/><rect class="cls-2" x="382.11" y="146.97" width="17.69" height="20.9" rx="2.31" transform="translate(781.9 314.85) rotate(-180)"/><rect class="cls-2" x="382.11" y="220.38" width="17.69" height="20.9" rx="2.31" transform="translate(781.9 461.66) rotate(-180)"/><rect class="cls-2" x="345.4" y="183.68" width="17.69" height="20.9" rx="2.31" transform="translate(548.37 -160.12) rotate(90)"/><rect class="cls-2" x="418.81" y="183.68" width="17.69" height="20.9" rx="2.31" transform="translate(621.78 -233.53) rotate(90)"/><rect class="cls-2" x="356.15" y="209.63" width="17.69" height="20.9" rx="2.31" transform="translate(262.53 -193.63) rotate(45)"/><rect class="cls-2" x="408.06" y="157.72" width="17.69" height="20.9" rx="2.31" transform="translate(241.03 -245.54) rotate(45)"/><rect class="cls-2" x="356.15" y="157.72" width="17.69" height="20.9" rx="2.31" transform="translate(742.01 29) rotate(135)"/><rect class="cls-2" x="408.06" y="209.63" width="17.69" height="20.9" rx="2.31" transform="translate(867.32 80.91) rotate(135)"/><path class="cls-2" d="M287.51,155.15a28,28,0,1,0,27.95-27.95A28,28,0,0,0,287.51,155.15Zm11.82,0a16.14,16.14,0,1,1,16.13,16.13A16.13,16.13,0,0,1,299.33,155.15Z"/><rect class="cls-2" x="308.58" y="117.83" width="13.77" height="16.27" rx="2.31" transform="translate(630.93 251.93) rotate(-180)"/><rect class="cls-2" x="308.58" y="174.97" width="13.77" height="16.27" rx="2.31" transform="translate(630.93 366.21) rotate(-180)"/><rect class="cls-2" x="280.01" y="146.4" width="13.77" height="16.27" rx="2.31" transform="translate(441.43 -132.36) rotate(90)"/><rect class="cls-2" x="337.15" y="146.4" width="13.77" height="16.27" rx="2.31" transform="translate(498.57 -189.5) rotate(90)"/><rect class="cls-2" x="288.38" y="166.6" width="13.77" height="16.27" rx="2.31" transform="translate(210.04 -157.6) rotate(45)"/><rect class="cls-2" x="328.78" y="126.2" width="13.77" height="16.27" rx="2.31" transform="translate(193.3 -198.01) rotate(45)"/><rect class="cls-2" x="288.38" y="126.2" width="13.77" height="16.27" rx="2.31" transform="translate(599.03 20.54) rotate(135)"/><rect class="cls-2" x="328.78" y="166.6" width="13.77" height="16.27" rx="2.31" transform="translate(696.58 60.94) rotate(135)"/><path class="cls-10" d="M258.14,296.72s2.32,32.57,5.95,46"/></g></svg>
