<?xml version="1.0" encoding="UTF-8"?>
<svg xmlns="http://www.w3.org/2000/svg" xmlns:xlink="http://www.w3.org/1999/xlink" viewBox="0 0 512 512" width="512" height="512"><defs><style>.cls-1,.cls-10,.cls-11,.cls-17,.cls-18,.cls-21,.cls-7,.cls-9{fill:none;}.cls-2{fill:#aaeeea;}.cls-3{fill:#00ccc1;}.cls-4{fill:#ffb833;}.cls-5{fill:#ffdb99;}.cls-20,.cls-6{fill:#383333;}.cls-10,.cls-11,.cls-7,.cls-9{stroke:#383333;}.cls-10,.cls-11,.cls-17,.cls-18,.cls-21,.cls-7,.cls-9{stroke-linecap:round;stroke-linejoin:round;}.cls-11,.cls-20,.cls-7{fill-rule:evenodd;}.cls-8{fill:#ffc871;}.cls-11,.cls-9{stroke-width:0.75px;}.cls-12{clip-path:url(#clip-path);}.cls-13{fill:#ff8d93;}.cls-14{clip-path:url(#clip-path-2);}.cls-15{fill:#ff832f;}.cls-16{fill:#ff535c;}.cls-17{stroke:#00ccc1;stroke-width:3px;}.cls-18{stroke:#fff3e3;stroke-width:4px;}.cls-19{fill:#fff;}.cls-21{stroke:#fff;}</style><clipPath id="clip-path"><path class="cls-1" d="M50.14,332.77H185.67a40.52,40.52,0,0,1,40.52,40.52v37.24a4.14,4.14,0,0,1-4.14,4.14H50.14A4.14,4.14,0,0,1,46,410.52V336.91a4.14,4.14,0,0,1,4.14-4.14Z" transform="translate(353.66 706.66) rotate(166.85)"/></clipPath><clipPath id="clip-path-2"><path class="cls-1" d="M162.46,191.83A57.76,57.76,0,0,0,151.15,193l11.31,56.7-51.58-26.12a57.82,57.82,0,1,0,51.58-31.7Z"/></clipPath></defs><g id="Report"><rect class="cls-2" x="197.99" y="31" width="107.8" height="94.21" rx="47.1"/><path class="cls-2" d="M266.15,116.26s4.64,20.83,21.6,22.34a.83.83,0,0,0,.83-1.16c-1.69-3.85-6.06-15.92.59-25.63Z"/><circle class="cls-3" cx="222.51" cy="78.1" r="7.9"/><circle class="cls-3" cx="251.89" cy="78.1" r="7.9"/><circle class="cls-3" cx="281.27" cy="78.1" r="7.9"/><rect class="cls-4" x="334.37" y="74.23" width="3.43" height="18.36" rx="1.63" transform="translate(39.46 262.08) rotate(-45)"/><rect class="cls-4" x="334.37" y="74.23" width="3.43" height="18.36" rx="1.63" transform="translate(514.75 380.03) rotate(-135)"/><rect class="cls-4" x="160.07" y="101.29" width="4.35" height="23.31" rx="1.73" transform="translate(-32.35 147.81) rotate(-45)"/><rect class="cls-4" x="160.07" y="101.29" width="4.35" height="23.31" rx="1.73" transform="translate(197.1 307.54) rotate(-135)"/><rect class="cls-4" x="287.6" y="202.03" width="4.35" height="23.31" rx="1.73" transform="translate(-66.22 267.49) rotate(-45)"/><rect class="cls-4" x="287.6" y="202.03" width="4.35" height="23.31" rx="1.73" transform="translate(343.59 569.68) rotate(-135)"/><path class="cls-5" d="M392.73,226.26s-2.72,26.5.94,32.69,22,11,22,11l-19.15,24.43-65.76-8.59L325.5,262s13.87-2.63,18.07-3.32,8.88-24.83,8.88-24.83l30.13-8.89Z"/><circle class="cls-5" cx="371.51" cy="170.81" r="60.41"/><path class="cls-5" d="M395.85,226.1s-30.68,22.36-64,1.86-16.37-89-16.37-89,25.31-32.22,53.57-24.66,27.88,57,27.88,57Z"/><path class="cls-6" d="M383.22,164.86a18.1,18.1,0,0,0-9.74-5c-2.49-.46-5.86-1.08-7.22.71a2.78,2.78,0,0,0-.37,2.77c.93,1.76,4.1.81,8.87,1.52,6.27.94,10,4,10.53,3.14C385.69,167.4,383.92,165.58,383.22,164.86Z"/><path class="cls-6" d="M318.32,158.76a18.15,18.15,0,0,1,10.43-3.31c2.54,0,6-.09,7,1.9a2.76,2.76,0,0,1-.09,2.79c-1.2,1.58-4.17.12-9,0-6.34-.11-10.49,2.26-10.9,1.35C315.46,160.86,317.51,159.35,318.32,158.76Z"/><path class="cls-7" d="M346.69,172.84s-6,9.44-5.49,11.51,8.5,2.66,8.5,2.66"/><ellipse class="cls-8" cx="381.5" cy="197.3" rx="4.38" ry="7.04" transform="translate(132.61 547.33) rotate(-81.93)"/><ellipse class="cls-8" cx="322.44" cy="188.77" rx="4.38" ry="7.04" transform="translate(90.29 481.52) rotate(-81.93)"/><path class="cls-5" d="M405,173.25a12.07,12.07,0,0,1,8.86-3.68,9.21,9.21,0,0,1,5.54,1.92c5.1,4.54,3.55,19.31-5,23.3-4.76,2.23-9.92.27-11.67-.49Q403.91,183.78,405,173.25Z"/><path class="cls-9" d="M417.54,178.11l-8.32-.18S417.8,183,410.89,190"/><path class="cls-4" d="M395.16,248.74s6.32,12.26,12.5,14.35,38.55,9.65,48.7,27.93,20.18,113.59,13.72,134.86-108.61,24.36-108.61,24.36-17.87-21-20.52-37.53L414,397.92,377.7,280.75l.05-24.33S384.37,253.69,395.16,248.74Z"/><path class="cls-4" d="M388.61,251.71s-23,3.95-41.63-5.44c0,0-1.66,8.68-4.75,9.76-6,2.09-26.33,8.4-32.79,11.38-19.19,8.85-8.9,60-11.67,112.32a330.34,330.34,0,0,1-15.87,84.4,312.12,312.12,0,0,0,165.63,10.15l-21.06-176Z"/><path class="cls-4" d="M339.09,256.62s-28.88,4.26-41.79,15.84-61.08,98.19-61.08,98.19l29,23.69a167.44,167.44,0,0,0,18.62-14.29c19.67-17.44,29.55-34.58,42.12-56.85,17.21-30.48,17.67-41.59,17.36-49A50.72,50.72,0,0,0,339.09,256.62Z"/><path class="cls-4" d="M259.35,244.28c4.65,15.51,38.6,131.38,5.84,150.06-.91.51-7.42,4.1-14.63,2-32.81-9.76-24.61-121.61-23.1-140.7a51.33,51.33,0,0,1,31.89-11.32Z"/><path class="cls-10" d="M276.8,361.94s2.49-32-2.6-56.42"/><path class="cls-10" d="M379.25,232s-16.09,6.12-27.21,3.79"/><path class="cls-11" d="M350.25,210.68a6.9,6.9,0,0,1-8.58-.27"/><g class="cls-12"><path class="cls-3" d="M50.14,332.77H185.33a40.85,40.85,0,0,1,40.85,40.85v36.9a4.14,4.14,0,0,1-4.14,4.14H50.14A4.14,4.14,0,0,1,46,410.52V336.91a4.14,4.14,0,0,1,4.14-4.14Z" transform="translate(353.66 706.66) rotate(166.85)"/><path class="cls-2" d="M90.59,380.92c5,13.19,3.79,26.65-3.73,34-4,3.93-9.31,5.53-11.29,6.11A33.61,33.61,0,0,1,54.38,420L96.65,439l23.27-5.43-13.48-31.85Z"/></g><path class="cls-2" d="M122,153.35H248.7a1.72,1.72,0,0,1,1.72,1.72v250a1.72,1.72,0,0,1-1.72,1.72H71.18a1.72,1.72,0,0,1-1.72-1.72V205.87A52.52,52.52,0,0,1,122,153.35Z" transform="translate(379.41 516.39) rotate(166.85)"/><path class="cls-13" d="M144.33,185.33a57.91,57.91,0,0,0-40.27,30.59L155.64,242Z"/><g class="cls-14"><path class="cls-4" d="M162.46,191.83A57.76,57.76,0,0,0,151.15,193l11.31,56.7-51.58-26.12a57.82,57.82,0,1,0,51.58-31.7Z"/><polygon class="cls-15" points="166.3 235.67 144.15 310.32 109.88 299.85 85.61 249.65 94.17 213.68 137.48 213.68 166.3 235.67"/><polygon class="cls-16" points="181.74 179.44 162.46 249.65 140.34 225.13 148.84 176.11 181.74 179.44"/></g><path class="cls-17" d="M120.88,333l104.7-27.84"/><path class="cls-17" d="M123.88,352.6l104.71-27.85"/><path class="cls-17" d="M129.56,375.44,234.27,347.6"/><rect class="cls-3" x="63.61" y="184.94" width="28.56" height="36.95" rx="3.98" transform="translate(-44.47 23.22) rotate(-13.23)"/><path class="cls-10" d="M424.52,320.63s.93,57.24,10.46,77.53"/><path class="cls-10" d="M300,296s.94,50.08-1.75,69.46"/><path class="cls-6" d="M354.4,124.63c-17.72-5.3-35.06,17-39.34,13.25-2.95-2.57,2-16,11.9-24a36.25,36.25,0,0,1,15.23-7.14c10.37-2.33,62.61-10.27,84.4,20.41,19.6,27.62,9.69,79.68-34.48,107.09,0,0-5.5-6.45,1.48-12.8s13-25.57,13-25.57,12.08,3.06,14.88-9.88-1.68-16.5-7.54-16.38-6.9.77-9.23,7.18S403.27,187.52,401,187s-2.71-15.36,1.74-23.25,1.75-10.89-3.16-18.35-1.75-12.85-1.75-12.85c-9.05,2.25-21.38,3.59-33-2.06C359.34,127.81,358.84,126,354.4,124.63Z"/><circle class="cls-18" cx="371.51" cy="172.84" r="18.62"/><circle class="cls-18" cx="322.44" cy="167.14" r="18.62"/><path class="cls-18" d="M341.06,167.14s6.79-1.6,11,2.41"/><ellipse class="cls-19" cx="345.2" cy="202.15" rx="6.33" ry="10.95" transform="translate(126.97 537.42) rotate(-87.29)"/><path class="cls-5" d="M376.07,411.79s-19.59-2-29.48-1.17-18.5,3.45-19.86,6.33,10.38,2.38,10.38,2.38a68.22,68.22,0,0,1-18.44,9.11c-9.92,2.9-18.36,3.05-18.68,7.53s24.11,10.34,39,8.29,28.54-5.72,40.1-4.26C379.12,440,387.14,419.43,376.07,411.79Z"/><path class="cls-20" d="M369.11,180.83a5.42,5.42,0,1,1,.51-7.63A5.44,5.44,0,0,1,369.11,180.83Z"/><path class="cls-20" d="M330.62,176.83a5.42,5.42,0,1,1,1-7.6A5.44,5.44,0,0,1,330.62,176.83Z"/><path class="cls-4" d="M370.27,410.43a47.43,47.43,0,0,1,3.33,30.62l26.18-1.43L392.4,406.3Z"/><path class="cls-10" d="M370.67,411.31s58.45-19.52,83.68-11.11"/><path class="cls-10" d="M373.89,439.67s51.22,2.61,69.61.92"/><path class="cls-5" d="M234.78,209c3.76.31,6.7.68,10,2.5,0,0,.58.34,1.12.72,6.2,4.4,9.13,17.69,13.57,32.3.47,1.53.86,2.75,1.08,3.45a6.59,6.59,0,0,1-2.35,2.64,7.16,7.16,0,0,1-3.48,1c-1.2.1-4.64.39-6.85-.65-3.28-1.55-2.8-5.53-5.59-14.18-2.51-7.77-3.75-11.68-7.14-14.43-3.66-3-6.81-2.7-9.36-6.67-.3-.47-2.91-4.62-1.43-6.66C224.82,208.34,225.53,208.26,234.78,209Z"/><path class="cls-21" d="M324.45,125.21s16.19-12.83,28.44-8.78,20.82,12.08,40.57,8.78"/><path class="cls-21" d="M365.67,110.39s20.17,13.61,41.59,10.42"/><path class="cls-21" d="M412.56,135.47s-5.61,24.32,9.77,31.67"/><path class="cls-21" d="M421.06,144.27s-.47,17.37,10.71,20.71"/><path class="cls-21" d="M421.06,197.3s-8.71,19.91-18.28,25.2"/></g></svg>
