<?xml version="1.0" encoding="UTF-8"?>
<svg xmlns="http://www.w3.org/2000/svg" viewBox="0 0 512 512" width="512" height="512"><defs><style>.cls-1,.cls-15{fill:#383333;}.cls-2{fill:#ff8d93;}.cls-3{fill:#aaeeea;}.cls-4{fill:#00ccc1;}.cls-5{fill:#ffb833;}.cls-6{fill:#ffdb99;}.cls-11,.cls-12,.cls-13,.cls-14,.cls-7,.cls-8{fill:none;stroke-linecap:round;stroke-linejoin:round;}.cls-11,.cls-14,.cls-7,.cls-8{stroke:#383333;}.cls-15,.cls-7{fill-rule:evenodd;}.cls-8{stroke-width:0.75px;}.cls-9{fill:#ffc871;}.cls-10{fill:#fff;}.cls-12{stroke:#ff8d93;}.cls-12,.cls-14{stroke-width:4px;}.cls-13{stroke:#fff;}</style></defs><g id="Service"><path class="cls-1" d="M308.74,78.29S349.16,60.3,387,84s29.33,51.6,26.23,72.09,40.25,25,42.57,59.52-7.74,56.18,10.84,70.89.78,68.06-18.19,83.95S337,389.74,295,365.44s-53.27-106.93-22.48-149.83S270.81,97.64,308.74,78.29Z"/><path class="cls-2" d="M260.67,284.59s-25.29,21.3-29.34,41.6S207,466.52,207,466.52l48.83,7.69,25.47-17.43,2.9-96.95-23.49-75.24"/><rect class="cls-3" x="78.31" y="32" width="145.85" height="127.46" rx="49.48"/><path class="cls-3" d="M170.53,147.35s6.29,28.18,29.23,30.23a1.12,1.12,0,0,0,1.12-1.57c-2.29-5.21-8.2-21.53.79-34.68Z"/><circle class="cls-4" cx="111.48" cy="95.73" r="10.68"/><circle class="cls-4" cx="151.24" cy="95.73" r="10.68"/><circle class="cls-4" cx="190.99" cy="95.73" r="10.68"/><rect class="cls-5" x="155.62" y="171.74" width="3.47" height="18.58" rx="1.63" transform="translate(-81.92 164.29) rotate(-45)"/><rect class="cls-5" x="155.62" y="171.74" width="3.47" height="18.58" rx="1.63" transform="translate(140.6 420.3) rotate(-135)"/><rect class="cls-5" x="213.89" y="217.71" width="4.4" height="23.58" rx="1.73" transform="translate(-98.99 220.02) rotate(-45)"/><rect class="cls-5" x="213.89" y="217.71" width="4.4" height="23.58" rx="1.73" transform="translate(206.6 544.58) rotate(-135)"/><rect class="cls-5" x="243.78" y="45.33" width="4.4" height="23.58" rx="1.73" transform="translate(31.65 190.67) rotate(-45)"/><rect class="cls-5" x="243.78" y="45.33" width="4.4" height="23.58" rx="1.73" transform="translate(379.53 271.45) rotate(-135)"/><path class="cls-6" d="M364.05,215.61s.89,32.6,6.32,39.54S398.8,265,398.8,265l-19.37,32.69h-81.2l-10.14-28.08s16.42-5.39,21.41-6.89,6.84-31.55,6.84-31.55l35.16-15.58Z"/><circle class="cls-6" cx="318.89" cy="157.98" r="73.96"/><path class="cls-6" d="M361.57,218.38s-31.37,34.31-76.3,17.83-41.34-102.83-41.34-102.83,22.52-44.83,58.26-42.65,47.33,61.54,47.33,61.54Z"/><path class="cls-1" d="M334.88,151.05A22.22,22.22,0,0,0,322,147.43c-3.1.06-7.29.13-8.48,2.61a3.39,3.39,0,0,0,.23,3.42c1.53,1.88,5.11,0,11-.33,7.77-.41,12.94,2.32,13.4,1.19C338.46,153.5,335.89,151.74,334.88,151.05Z"/><path class="cls-1" d="M252.23,157.69a22.15,22.15,0,0,1,11.71-6.52c3-.66,7.13-1.56,8.86.57a3.43,3.43,0,0,1,.57,3.38c-1.06,2.19-5,1.16-10.79,2.23-7.64,1.41-12,5.27-12.75,4.27C249.31,160.9,251.41,158.6,252.23,157.69Z"/><path class="cls-7" d="M294.86,167.67s-4.89,12.79-3.79,15.15,10.85,1.12,10.85,1.12"/><path class="cls-8" d="M292.64,215.26s5.09,1.29,8.85-1"/><ellipse class="cls-9" cx="330.62" cy="186.41" rx="8.61" ry="5.36" transform="translate(-10.51 20.01) rotate(-3.41)"/><ellipse class="cls-9" cx="264.39" cy="191.48" rx="8.61" ry="5.36" transform="translate(-10.93 16.08) rotate(-3.41)"/><ellipse class="cls-10" cx="296.41" cy="203.18" rx="6.92" ry="8.93"/><path class="cls-11" d="M354.28,224.81s-22.77,16.13-38.75,15.62"/><path class="cls-2" d="M375.55,258.91s50.06,5.89,53.16,38.8S400.07,442.21,416.33,482H249.91a202.72,202.72,0,0,0,13.79-60.83c4.08-61.54-21.33-121.44-3.52-136.27,3.59-3,18.86-12.42,25.8-14.64l7.14-2.27h0s4.11,14.35,32.55,17S372.32,272.63,375.55,258.91Z"/><path class="cls-4" d="M248.31,468.39H96.77a7.17,7.17,0,0,1-7.27-6L73.26,343.71c-.56-4.07,2.86-7.68,7.28-7.68h156a7.15,7.15,0,0,1,7.3,6.2l11.76,118.71C256,464.94,252.63,468.39,248.31,468.39Z"/><path class="cls-2" d="M398.8,265s31.65,9.48,40.94,36.76,8.13,120.75,0,132.94l-40.94-4.65,5.56-112S384.57,286.3,398.8,265Z"/><path class="cls-2" d="M333.89,436.65c39.53-27.78,77.4-38.47,95.59-24,5.91,4.7,12.21,14,10.26,22.06-3.14,12.94-26.47,17.74-49.34,22.44-19.13,3.94-42.35,5.92-43,6h0Q340.66,449.92,333.89,436.65Z"/><path class="cls-1" d="M363.31,161.78a353,353,0,0,1-.78,73.63c-3.67,31.26-9.73,45.44-1.16,61.92,11.94,23,42.33,31.3,44.51,28.25,1.49-2.08-10.83-8.78-14.71-23.22-3.49-13,1.46-26.11,7.74-36.76q5.46-28.91,10.93-57.82h0l-8.12-76.37-13.85-5.09Z"/><path class="cls-2" d="M260.67,90.66S272.89,61.26,329.32,64s64.92,73.79,58.37,100.52l-24.38-2.71L347.05,98.41,296.41,84Z"/><path class="cls-1" d="M267.33,130.15a74,74,0,0,1-23.09,20.25s-13-11.36-.38-44.64a40.67,40.67,0,0,1,15.58-20.14c11.58-7.8,23.93-7,28-6.56,2.55-1.37,27.81-14.48,51.78-2.32,23,11.68,35.2,41.78,26.14,71.44a49,49,0,0,0-4.15,7.72c-7.8,18.19-1.83,34.95-4.2,35.59-1.8.48-7-8.65-9.29-19.45-3.15-14.82.25-27.57,2.9-34.83a66.46,66.46,0,0,0-6-9.53c-18.76-25-50.05-30.21-63.38-31.59A74.42,74.42,0,0,1,267.33,130.15Z"/><ellipse class="cls-2" cx="376.54" cy="165.03" rx="22.26" ry="26.76"/><path class="cls-12" d="M370.66,175.7S358,226.3,300.08,229.5"/><ellipse class="cls-2" cx="302.55" cy="229.72" rx="7.55" ry="4.91"/><ellipse class="cls-4" cx="381.02" cy="165.84" rx="12.64" ry="18.42"/><path class="cls-6" d="M315.12,463.94c-2.59.6-7.81,1.8-11.56,6-2.39,2.7-3.54,5.86-7.14,7.08a1.74,1.74,0,0,1-1.32.06c-2.49-1.11-.65-10.46,5.64-14.3,0,0-6.23,2.64-8,5s-2.84,7.54-5,7.9a4,4,0,0,1-3.54-1c-.52-.57-1.17-1.75-.38-5.25a25.45,25.45,0,0,1,5.43-10.57,23.69,23.69,0,0,0-5.57,5.79c-3.16,4.71-3.26,8.71-6.07,9.4a4,4,0,0,1-3.78-1.15c-.45-.54-.95-1.53-.61-3.78.8-5.23,5.32-11.42,6.93-13.54-3.41,4.17-5.86,7.63-7.5,10.09-1.53,2.3-3.23,5-5.13,4.78a2.86,2.86,0,0,1-1.79-1.2C263.31,466,268,456.87,272.86,451c2.2-2.67,9.68-11.77,22.17-14.33,9.66-2,14.07,1.65,28-1a70.08,70.08,0,0,0,8.89-2.32s15.53,8.91,16.71,23c-4.23,1.16-7.67,2.21-10,2.95-8.67,2.7-10.57,3.72-15.19,4.25C318.58,464,318.65,463.12,315.12,463.94Z"/><rect class="cls-4" x="90.45" y="466.52" width="281.76" height="15.38" rx="4.97"/><path class="cls-11" d="M259.78,322.1s-16.25,28.44,0,51.08c0,0,8.4,62.37-2.76,91.27"/><path class="cls-11" d="M392.87,330.23l-.93,78.17"/><path class="cls-11" d="M332,433.29s46.37-27.21,88-29.15"/><path class="cls-11" d="M348.67,456.25s50.26-6.7,63-3.86"/><circle class="cls-3" cx="161.12" cy="408.4" r="19.46"/><path class="cls-8" d="M278.22,458.09s5.16-6.15,9.42-8.81"/><path class="cls-8" d="M288.46,459.94s4.51-4.78,9-6.26"/><path class="cls-8" d="M300.74,462.81a14.06,14.06,0,0,1,6.14-4.08"/><path class="cls-13" d="M264.39,98s-7,30.35-19.48,38.87"/><path class="cls-13" d="M298.69,86s44.72,15.44,54.31,35.14"/><path class="cls-13" d="M329.32,90.66s24.47,10.85,30.33,23.48"/><path class="cls-13" d="M398.8,111.51a38.29,38.29,0,0,1,5.84,28.75c-3.19,17-7,37.37,15.33,45.84s30.1,38.24,22.65,54.59"/><path class="cls-13" d="M409.84,207.78s-7.21,31,19.08,51.13a70.69,70.69,0,0,1,23.64,80.83"/><path class="cls-13" d="M389.57,202.6s3,32.54-8.55,58.48-9.86,41,4.45,48.84"/><path class="cls-13" d="M282.54,243s-6.39,16.32-4.61,27.33"/><line class="cls-14" x1="35.52" y1="481.99" x2="461.22" y2="481.91"/><path class="cls-15" d="M329.94,172.32a6.94,6.94,0,1,1-1.75-9.65A7,7,0,0,1,329.94,172.32Z"/><path class="cls-15" d="M335.11,162.42c-.17-.12-1.24,2.38-3,2.42-1.29,0-1.78-1.34-3.56-2.38a8.28,8.28,0,0,0-5-1,18,18,0,0,0,3.25,3.69c1.78,1.52,2.92,2.5,4.3,2.36C333.86,167.24,335.33,162.56,335.11,162.42Z"/><path class="cls-15" d="M273.09,177.51a6.94,6.94,0,1,1-1.19-9.73A7,7,0,0,1,273.09,177.51Z"/><path class="cls-15" d="M255.46,170.78c.13-.15,1.89,1.92,3.58,1.43,1.24-.36,1.31-1.81,2.69-3.33a8.32,8.32,0,0,1,4.53-2.43,17.62,17.62,0,0,1-2,4.48c-1.25,2-2.05,3.26-3.41,3.53C258.09,175,255.29,171,255.46,170.78Z"/></g></svg>
