<?xml version="1.0" encoding="UTF-8"?>
<svg xmlns="http://www.w3.org/2000/svg" viewBox="0 0 512 512" width="512" height="512"><defs><style>.cls-1{fill:#fff3e3;}.cls-2{fill:#ffb833;}.cls-3{fill:#d89071;}.cls-4,.cls-8{fill:#383333;}.cls-11,.cls-14,.cls-5,.cls-6,.cls-9{fill:none;stroke-linecap:round;stroke-linejoin:round;}.cls-14,.cls-5,.cls-6,.cls-9{stroke:#383333;}.cls-5,.cls-8{fill-rule:evenodd;}.cls-6{stroke-width:0.75px;}.cls-7{fill:#d17352;}.cls-10{fill:#fff;}.cls-11{stroke:#fff;}.cls-12{fill:#aaeeea;}.cls-13{fill:#00ccc1;}.cls-14{stroke-width:1.5px;}</style></defs><g id="Solution"><path class="cls-1" d="M81.29,276.46,65.55,413.17s74,33.84,133,0l-5.84-149.54-88.11-16.79Z"/><rect class="cls-2" x="70.52" y="161.5" width="3.22" height="17.27" rx="1.61" transform="translate(-99.18 100.83) rotate(-45)"/><rect class="cls-2" x="70.52" y="161.5" width="3.22" height="17.27" rx="1.61" transform="translate(2.83 341.44) rotate(-135)"/><rect class="cls-2" x="242.43" y="60.21" width="3.21" height="17.22" rx="1.61" transform="translate(22.81 192.72) rotate(-45)"/><rect class="cls-2" x="242.43" y="60.21" width="3.21" height="17.22" rx="1.61" transform="translate(367.93 290.05) rotate(-135)"/><rect class="cls-2" x="242.98" y="136.3" width="4.08" height="21.85" rx="1.73" transform="translate(-32.34 216.38) rotate(-45)"/><rect class="cls-2" x="242.98" y="136.3" width="4.08" height="21.85" rx="1.73" transform="translate(314.18 424.59) rotate(-135)"/><rect class="cls-2" x="63.51" y="56.91" width="4.08" height="21.85" rx="1.73" transform="translate(-28.77 66.22) rotate(-45)"/><rect class="cls-2" x="63.51" y="56.91" width="4.08" height="21.85" rx="1.73" transform="translate(63.94 162.15) rotate(-135)"/><path class="cls-3" d="M123.08,160s-.58,21.25-4.12,25.77-18.54,6.43-18.54,6.43l12.64,21.32H166l6.61-18.31s-10.7-3.51-14-4.49-4.46-20.57-4.46-20.57L131.26,160Z"/><circle class="cls-3" cx="145.61" cy="118.28" r="48.21"/><path class="cls-3" d="M120.63,159.52s22,20.87,50.44,8.09,22.15-68.77,22.15-68.77-16.7-28.11-39.84-25S125.43,116,125.43,116Z"/><path class="cls-4" d="M132,111.73a14.43,14.43,0,0,1,8.23-3c2-.11,4.75-.25,5.63,1.31a2.22,2.22,0,0,1,0,2.23c-.91,1.29-3.32.21-7.17.29-5.07.09-8.31,2.1-8.66,1.39C129.81,113.48,131.4,112.22,132,111.73Z"/><path class="cls-4" d="M186.69,113.59a14.46,14.46,0,0,0-7.92-3.7c-2-.3-4.71-.69-5.73.78a2.21,2.21,0,0,0-.22,2.22c.79,1.37,3.29.52,7.11,1,5,.57,8.08,2.87,8.5,2.19C188.73,115.54,187.26,114.14,186.69,113.59Z"/><path class="cls-5" d="M157.71,123.56s3.77,8.09,3.16,9.68-7,1.22-7,1.22"/><path class="cls-6" d="M158.93,155.27s-3.25,1.08-5.8-.27"/><ellipse class="cls-7" cx="129.97" cy="138.14" rx="5.62" ry="3.5" transform="translate(-1.51 1.44) rotate(-0.63)"/><ellipse class="cls-7" cx="182.59" cy="137.56" rx="5.62" ry="3.5" transform="translate(-1.5 2.01) rotate(-0.63)"/><path class="cls-3" d="M118.84,116.76a9.65,9.65,0,0,0-6.63-3.84,7.38,7.38,0,0,0-4.59,1c-4.5,3.07-4.8,14.92,1.53,19,3.53,2.25,7.82,1.23,9.28.81Q118.64,125.2,118.84,116.76Z"/><path class="cls-6" d="M108.43,119.31l6.6.71s-7.32,3.12-2.57,9.37"/><path class="cls-8" d="M144,129.24a4.4,4.4,0,1,1,.21-6.21A4.4,4.4,0,0,1,144,129.24Z"/><path class="cls-8" d="M181.06,130a4.4,4.4,0,1,1-.15-6.22A4.42,4.42,0,0,1,181.06,130Z"/><path class="cls-9" d="M134.37,167.89s12.23,5,19.32,4.44"/><line class="cls-9" x1="185.32" y1="236.36" x2="192.7" y2="276.46"/><path class="cls-3" d="M114.59,190s-6.33,4.3-21.93,5.67S65.93,200.39,55.16,226s-20.7,96.47-20.51,115.6,122.66,39.55,122.66,39.55l5.83-23.27S85,329.79,81.08,321.08s36.55-113.73,36.55-113.73Z"/><path class="cls-1" d="M167.51,193.53a39.86,39.86,0,0,1-27.6,11.2c-17.83-.17-28.44-12.72-29.9-14.5,0,0-35.8-2.55-47.61,16.05s-28.33,88.83-28.33,88.83,13.77,16,47.61,15.48l119.24-36.73,9.89-56.27-25.49-19.28Z"/><path class="cls-9" d="M81.08,321.08S69.56,318,58.93,328.25"/><path class="cls-4" d="M174.87,92.59c1.25-.69,3.06-2.15,4.39-5.57a20,20,0,0,0,5.61,12c4.51,4.46,11.66,6.91,18.09,4.9,1.68-.52,5.85-1.83,7.39-5.45,1.93-4.51-.84-11.2-7.5-15.73a14,14,0,0,0-19.31-15.47,16.81,16.81,0,0,0-4-7.32,16.56,16.56,0,0,0-6.73-4.36,16.84,16.84,0,0,0-11.1.27,12.95,12.95,0,0,0-21.51-.52,20.34,20.34,0,0,0-15-.94,20,20,0,0,0-10,7.59A14.16,14.16,0,0,0,100,82.45a15.39,15.39,0,0,0-3.44,1.33A13.06,13.06,0,0,0,91,88.85C86.5,96.73,93.76,101,93.76,101c-.45.15-7.33,2.6-9.05,9.7A13.86,13.86,0,0,0,90,125c-2.66,9.41-1.12,13.86.89,16.19,2.46,2.83,9.6,5.89,9.6,5.89-2.37,7-.17,14.42,5.11,18.17,6.5,4.61,16.73,3,19.7-2.47,2.36-4.35-.4-10.12-.88-11.13-.79-1.66-2.17-4.53-5-5.65,0,0-.29-.12-3.82-1.18h0a15.57,15.57,0,0,0,.63-3.32,15.87,15.87,0,0,0-1-6.91c-1-.33-7.44-2.57-9.55-8.76-.92-2.69-1.69-8.07,1.27-10.71a6,6,0,0,1,1.56-1c3.08-1.3,7.12,0,9.12,2.38,2.94,3.42,1,8.41,2.16,8.67s3.6-3.81,4.06-8.35c.63-6.21-2.89-11.16-4.49-13.14,8.53-.38,11-3.37,13.07-5.14,4.58-4,1.08-10.26,1.08-10.26s8.3,4.48,12.32-.72,2.2-8.31,2.2-8.31C157.51,91.06,168.7,96,174.87,92.59Z"/><ellipse class="cls-10" cx="157.23" cy="147.23" rx="5.49" ry="7.3" transform="translate(-3.4 290.73) rotate(-84.9)"/><path class="cls-11" d="M200.35,87.61s-8.7,6-16.67-7.38"/><path class="cls-11" d="M172.61,74.47s-1.77,7.23-8.86,6.94-16.11-13.58-16.11-13.58-4.84,9.89-17.38,4.58c0,0,1,13.57-10.63,13"/><path class="cls-11" d="M108.43,98.23s7,5.68,0,11.2"/><path class="cls-11" d="M114,157.06s3.29-8-6.88-9.83"/><rect class="cls-12" x="174.47" y="167.55" width="309.6" height="233.36" rx="20.87" transform="translate(658.54 568.47) rotate(-180)"/><circle class="cls-13" cx="462.92" cy="183.44" r="5.09"/><circle class="cls-13" cx="441.37" cy="183.44" r="5.09"/><circle class="cls-13" cx="419.82" cy="183.44" r="5.09"/><path class="cls-1" d="M337.74,243a15.34,15.34,0,0,1,5.64,1.08V223.59H419a8.92,8.92,0,0,1,8.92,8.92v73.27H404.18a15.42,15.42,0,1,0-30.83,0h-30v-33A15.41,15.41,0,1,1,337.74,243Z"/><path class="cls-13" d="M253.22,223.59h90.16v20.52a15.42,15.42,0,1,0,0,28.66v33H304.93a15.41,15.41,0,1,1-27.56,0H244.31V232.51A8.92,8.92,0,0,1,253.22,223.59Z"/><path class="cls-2" d="M210.86,347.25a15.42,15.42,0,1,0,26.83-6.33l30.05-7.1,7.37-1.74L281.69,360a15.42,15.42,0,1,1,6.55,27.73L294,412.06l-87.75,20.72a8.91,8.91,0,0,1-10.73-6.62l-16.84-71.31Z"/><path class="cls-13" d="M349.27,333.27a15.43,15.43,0,0,0-5.89,1.17V305.78h30a15.42,15.42,0,1,1,30.83,0h23.69V379A8.92,8.92,0,0,1,419,388H343.38v-25a15.42,15.42,0,1,0,5.89-29.66Z"/><path class="cls-3" d="M155.23,355s27.49,3.09,33.09,5.32S210.73,375,210.22,377s-3.6,2.28-5.7,1.56c0,0,5.86,4.34,3.65,6.27S201,384,201,384s2.73,4.13.72,5.47-7-1.63-7-1.63,2.31,4.11-.46,5-10-6.54-16.13-7.37-22.87-.65-27.62-6.07Z"/><path class="cls-3" d="M302.85,159.84c3.81-.72,7.41,5,8.46,6.64,4.29,6.79,5.17,16.16,3.09,16.69-2.32.57-9.82-12.21-9.82-12.21.36.79,5.13,11.71,1.22,15.51a2.14,2.14,0,0,1-1.33.73c-3.38.26-6.71-10.9-8-15.56.24,6,.47,17.46-1.59,17.8S289,177.59,287.33,172c.71,10.91-.27,13.7-1.42,14-3.35.83-10.22-17.13-8.61-21.85,1.09-3.18,8.11,0,8.11,0s3.69-4.27,7.45-1.74a5.06,5.06,0,0,1,6.44.44A5.75,5.75,0,0,1,302.85,159.84Z"/><line class="cls-6" x1="204.52" y1="378.54" x2="189.28" y2="368.14"/><line class="cls-6" x1="201" y1="383.96" x2="186.28" y2="373.97"/><path class="cls-6" d="M194.71,387.8s-10-7.75-14.34-8.84"/><path class="cls-6" d="M304.58,171s-1.89-5.1-5.28-8.15"/><path class="cls-6" d="M296.48,171.64s-1.21-7.24-3.62-9.27"/><path class="cls-6" d="M285.41,164.11s.87,4.34,1.92,7.87"/><path class="cls-14" d="M262.75,462.17s36.9-3.54,38.52-19.19S280,429.7,282,439.15s30.33,2.92,38.89-10.92-1.48-43.17-1.48-43.17l-7.67,9.26"/><path class="cls-14" d="M329.27,390.72l-9.84-6.49"/></g></svg>
