<svg height="512" viewBox="0 0 512 512" width="512" xmlns="http://www.w3.org/2000/svg"><g id="Database"><path d="m30.75 290.65h225.46v77.38h-225.46z" fill="#917eec"/><ellipse cx="143.47" cy="368.03" fill="#917eec" rx="112.73" ry="19.84"/><ellipse cx="143.47" cy="290.65" fill="#40c2d6" rx="112.73" ry="22.56"/><path d="m30.75 199.89h225.46v77.38h-225.46z" fill="#6d5fde"/><ellipse cx="143.47" cy="277.27" fill="#6d5fde" rx="112.73" ry="19.84"/><ellipse cx="143.47" cy="199.89" fill="#40c2d6" rx="112.73" ry="22.56"/><path d="m30.75 108.72h225.46v77.38h-225.46z" fill="#917eec"/><ellipse cx="143.47" cy="186.1" fill="#917eec" rx="112.73" ry="19.84"/><ellipse cx="143.47" cy="108.72" fill="#86ebf9" rx="112.73" ry="22.56"/><path d="m143.47 378c-57.07 0-91.61-7.06-102.08-12a2.94 2.94 0 0 1 -1.59-2.68v-49a2.72 2.72 0 0 1 3.45-2.8c45.32 15.5 155.13 15.5 200.45 0a2.72 2.72 0 0 1 3.45 2.8v49a2.93 2.93 0 0 1 -1.6 2.68c-10.46 4.89-45.01 12-102.08 12z" fill="#6d5fde"/><path d="m143.47 287.19c-57.07 0-91.61-7.06-102.08-12a2.94 2.94 0 0 1 -1.59-2.68v-49a2.72 2.72 0 0 1 3.45-2.8c45.32 15.5 155.13 15.5 200.45 0a2.72 2.72 0 0 1 3.45 2.8v49a2.93 2.93 0 0 1 -1.6 2.68c-10.46 4.94-45.01 12-102.08 12z" fill="#917eec"/><path d="m143.47 196c-57.07 0-91.61-7-102.08-12a2.94 2.94 0 0 1 -1.59-2.68v-49a2.72 2.72 0 0 1 3.45-2.8c45.3 15.49 155.09 15.51 200.45 0a2.72 2.72 0 0 1 3.45 2.8v49a2.93 2.93 0 0 1 -1.6 2.68c-10.46 5-45.01 12-102.08 12z" fill="#6d5fde"/><g fill="#efbd42"><ellipse cx="55.48" cy="161.86" rx="10.02" ry="10.98"/><ellipse cx="55.48" cy="250.15" rx="10.02" ry="10.98"/><ellipse cx="55.48" cy="338.44" rx="10.02" ry="10.98"/></g><path d="m231.47 171a271.58 271.58 0 0 1 -50.89 3.28 6.21 6.21 0 0 1 -5.75-6.13c-.21-3.77 2.56-7 6-6.89a284.18 284.18 0 0 0 48.92-3.17c3.43-.52 6.53 2.29 6.73 6.08a6.39 6.39 0 0 1 -5.01 6.83z" fill="#2d1929"/><path d="m231.47 254.93a272.42 272.42 0 0 1 -50.89 3.29 6.22 6.22 0 0 1 -5.75-6.13c-.21-3.77 2.56-7 6-6.9a285.16 285.16 0 0 0 48.96-3.19c3.43-.52 6.53 2.28 6.73 6.07a6.39 6.39 0 0 1 -5.05 6.86z" fill="#2d1929"/><path d="m231.47 346a272.42 272.42 0 0 1 -50.89 3.29 6.21 6.21 0 0 1 -5.75-6.13c-.21-3.77 2.56-7 6-6.9a284.15 284.15 0 0 0 48.92-3.16c3.43-.52 6.53 2.29 6.73 6.07a6.38 6.38 0 0 1 -5.01 6.83z" fill="#2d1929"/><path d="m425.74 345.41c1.6-5 7.8-26.2-3.16-47.51-10.57-20.55-35.17-37.49-61.38-32.13-27.39 5.6-39 32-40.16 34.62a55.24 55.24 0 0 0 -19.33-9.85c-3.44-1-25.44-6.7-44.64 6.56-15.91 11-24.11 31-21.38 51.48-22.05-1.61-41.41 14.12-44.35 34.84-2.68 19 9 38 28.08 44.47h219.75c24.33-2.91 41.56-22.35 41.58-41.57.01-23.15-24.9-45.87-55.01-40.91z" fill="#86ebf9"/><path d="m384.36 222.26 19.89-16.63-15.16-23.94-23.64 10.92a66.83 66.83 0 0 0 -27.45-15.07l-3.43-25.86h-28.34l-3.43 25.86a66.83 66.83 0 0 0 -27.47 15.07l-23.64-10.92-15.16 23.94 19.89 16.63a67.28 67.28 0 0 0 -.08 39.49l-19.81 16.55 15.16 23.93 23.37-10.79a66.64 66.64 0 0 0 27.79 15.35l3.38 25.46h28.32l3.38-25.46a66.64 66.64 0 0 0 27.79-15.35l23.37 10.79 15.16-23.93-19.81-16.55a67.28 67.28 0 0 0 -.08-39.49zm-64 54.64a34.94 34.94 0 1 1 34.97-34.9 34.94 34.94 0 0 1 -34.94 34.9z" fill="#e73f46"/></g></svg>