<svg height="512" viewBox="0 0 512 512" width="512" xmlns="http://www.w3.org/2000/svg" xmlns:xlink="http://www.w3.org/1999/xlink"><clipPath id="clip-path"><path d="m315.05 251a63.33 63.33 0 0 1 54.95-94.85c40.78 0 71.82 39.09 60.9 79.71a63.22 63.22 0 0 1 -115.85 15.14z"/></clipPath><g id="Search_Engine" data-name="Search Engine"><rect fill="#cc3745" height="139.38" rx="60.37" width="369.41" x="27.2" y="122.04"/><rect fill="#cc3745" height="112.03" rx="46.87" width="328.33" x="27.2" y="137.9"/><rect fill="#efefef" height="112.03" rx="46.87" width="339.7" x="45.33" y="137.9"/><path d="m432.72 330.5a5.48 5.48 0 0 1 -4.77-2.77l-27.63-48.26a5.5 5.5 0 1 1 9.55-5.47l27.62 48.27a5.5 5.5 0 0 1 -4.77 8.23z" fill="#2d1929"/><path d="m476.78 392.08-7.08 4.07c-7 4-15.19 2.77-18.05-2.79l-40.16-77.88c-2.72-5.28.39-12.5 7-16.33 7.14-4.11 14.69-2.53 17.66 2.1l47.23 73.81c3.41 5.27.4 12.99-6.6 17.02z" fill="#40c2d6"/><g fill="#efbd42"><path d="m87.92 167.4a6.66 6.66 0 0 1 3.52-.9c4.78 0 7.61 5.52 8.47 16.61.24 2.09 1.47 11 3.68 26.55 1.1-8.37 5.6-23.25 5.6-32.85a33.5 33.5 0 0 0 -.77-7.32 1.57 1.57 0 0 1 -.37-1c.12-.86.37-1.39.78-1.59a8.05 8.05 0 0 1 5.89.32c3.23 1.84 5.15 7.16 5.85 15.92.24 2.09 1.47 11 3.68 26.55 1.22-9.3 5.61-22.86 5.61-32.81a35.06 35.06 0 0 0 -1.11-8.76 1.31 1.31 0 0 1 .82-1.27 3.69 3.69 0 0 1 2.82-.08c1.84.94 2.79 3.11 2.79 6.51 0 13.55-8.43 27.38-8.43 44.47v2.17a1.37 1.37 0 0 1 -1.35 1.48c-5.13 0-7.56-2.46-8-5.57q-.92-6-4.54-31.05c-3 11.29-6.83 21.74-6.83 33v2.17a1.38 1.38 0 0 1 -1.36 1.48c-5.1 0-7.54-2.45-8-5.53-.39-2.83-.77-5.24-3.44-23.48-1.79-12.12-2-15.38-3.48-19.6-.57-1.6-1.1-2.54-1.55-2.79a1.52 1.52 0 0 1 -.41-2.57"/><path d="m152.25 167.4a6.69 6.69 0 0 1 3.52-.9c4.79 0 7.61 5.52 8.47 16.61.25 2.09 1.48 11 3.68 26.55 1.1-8.37 5.61-23.25 5.61-32.85a33.5 33.5 0 0 0 -.78-7.32 1.63 1.63 0 0 1 -.37-1c.13-.86.37-1.39.78-1.59a8 8 0 0 1 5.89.32c3.24 1.84 5.16 7.16 5.85 15.92.25 2.09 1.48 11 3.69 26.55 1.22-9.3 5.6-22.86 5.6-32.81a35.36 35.36 0 0 0 -1.1-8.76 1.31 1.31 0 0 1 .82-1.27 3.69 3.69 0 0 1 2.82-.08c1.84.94 2.78 3.11 2.78 6.51 0 13.55-8.42 27.38-8.42 44.47v2.17a1.38 1.38 0 0 1 -1.36 1.48c-5.12 0-7.55-2.46-8-5.57q-.93-6-4.54-31.05c-3 11.29-6.84 21.74-6.84 33v2.17a1.37 1.37 0 0 1 -1.35 1.48c-5.1 0-7.55-2.45-8-5.53-.39-2.83-.76-5.24-3.43-23.48-1.8-12.12-2-15.38-3.48-19.6-.57-1.6-1.11-2.54-1.56-2.79a1.53 1.53 0 0 1 -.41-2.57"/><path d="m216.59 167.4a6.66 6.66 0 0 1 3.52-.9c4.79 0 7.61 5.52 8.47 16.61.24 2.09 1.47 11 3.68 26.55 1.1-8.37 5.61-23.25 5.61-32.85a33.5 33.5 0 0 0 -.78-7.32 1.57 1.57 0 0 1 -.37-1c.12-.86.37-1.39.78-1.59a8 8 0 0 1 5.89.32c3.23 1.84 5.16 7.16 5.85 15.92.25 2.09 1.47 11 3.69 26.55 1.22-9.3 5.6-22.86 5.6-32.81a35.36 35.36 0 0 0 -1.1-8.76 1.3 1.3 0 0 1 .81-1.27 3.72 3.72 0 0 1 2.83-.08c1.84.94 2.78 3.11 2.78 6.51 0 13.55-8.43 27.38-8.43 44.47v2.17a1.37 1.37 0 0 1 -1.35 1.48c-5.13 0-7.56-2.46-8-5.57q-.91-6-4.54-31.05c-3 11.29-6.83 21.74-6.83 33v2.17a1.38 1.38 0 0 1 -1.35 1.48c-5.11 0-7.55-2.45-8-5.53-.39-2.83-.76-5.24-3.44-23.48-1.79-12.12-2-15.38-3.48-19.6-.57-1.6-1.1-2.54-1.55-2.79a1.52 1.52 0 0 1 -.41-2.57"/></g><path d="m444.93 196.31 23.34-19.51-17.78-28.09-27.74 12.82a78.53 78.53 0 0 0 -32.24-17.7l-4-30.34h-33.27l-4 30.34a78.47 78.47 0 0 0 -32.24 17.7l-27.74-12.82-17.81 28.09 23.35 19.51a78.9 78.9 0 0 0 -.11 46.35l-23.24 19.42 17.79 28.09 27.42-12.67a78.46 78.46 0 0 0 32.62 18l4 29.88h33.25l4-29.88a78.46 78.46 0 0 0 32.62-18l27.42 12.67 17.78-28.09-23.35-19.42a78.9 78.9 0 0 0 -.07-46.35z" fill="#287eef"/><path d="m315.05 251a63.33 63.33 0 0 1 54.95-94.85c40.78 0 71.82 39.09 60.9 79.71a63.22 63.22 0 0 1 -115.85 15.14z" fill="#86ebf9"/><g clip-path="url(#clip-path)"><path d="m390.51 143.83-79.75 138.9 10.51 5.47 83.82-132.01 13.82 8.73-92.74 135.95 12.61 4.94 94.31-139.05-9.56-29.77z" fill="#efefef"/></g></g></svg>