<svg height="512" viewBox="0 0 512 512" width="512" xmlns="http://www.w3.org/2000/svg"><g id="Setting"><rect fill="#d7981a" height="185.91" rx="12.2" width="270.05" x="196.19" y="192.94"/><rect fill="#efbd42" height="185.91" rx="12.2" width="270.05" x="211.33" y="192.94"/><path d="m247.75 236.67h191.32v4.55h-191.32z" fill="#e73f46"/><path d="m247.75 284.67h191.32v4.55h-191.32z" fill="#e73f46"/><path d="m247.75 332.66h191.32v4.55h-191.32z" fill="#e73f46"/><g fill="#917eec"><path d="m148.87 245.38a93.84 93.84 0 1 0 93.83 93.83 93.83 93.83 0 0 0 -93.83-93.83zm0 131a37.13 37.13 0 1 1 37.13-37.17 37.13 37.13 0 0 1 -37.13 37.13z"/><path d="m175.13 260.89h-52.53l6.42-48.44h39.69z"/><path d="m175.13 416.99h-52.53l6.42 48.45h39.69z"/><path d="m200.76 402.89 28.1-44.38 37.5 31.34-21.24 33.54z"/><path d="m68.87 319.38 28.11-44.38-44.37-20.5-21.23 33.54z"/><path d="m200.76 402.89 28.1-44.38 37.5 31.34-21.24 33.54z"/><path d="m68.87 319.38 28.11-44.38-44.37-20.5-21.23 33.54z"/><path d="m96.98 402.89-28.11-44.38-37.49 31.34 21.23 33.54z"/><path d="m228.86 319.38-28.1-44.38 44.36-20.5 21.24 33.54z"/></g><path d="m148.87 417.88a78.67 78.67 0 1 1 78.67-78.67 78.76 78.76 0 0 1 -78.67 78.67zm0-130.95a52.29 52.29 0 1 0 52.28 52.28 52.34 52.34 0 0 0 -52.28-52.28z" fill="#6d5fde"/><path d="m202.47 71.68a63.39 63.39 0 1 0 63.39 63.38 63.38 63.38 0 0 0 -63.39-63.38zm0 88.46a25.08 25.08 0 1 1 25.08-25.08 25.07 25.07 0 0 1 -25.08 25.08z" fill="#86ebf9"/><path d="m220.22 82.16h-35.49l4.34-32.73h26.81z" fill="#86ebf9"/><path d="m220.22 187.61h-35.49l4.34 32.73h26.81z" fill="#86ebf9"/><path d="m237.53 178.08 18.98-29.98 25.33 21.17-14.34 22.66z" fill="#917eec"/><path d="m148.44 121.67 18.98-29.99-29.97-13.84-14.34 22.65z" fill="#917eec"/><path d="m237.53 178.08 18.98-29.98 25.33 21.17-14.34 22.66z" fill="#86ebf9"/><path d="m148.44 121.67 18.98-29.99-29.97-13.84-14.34 22.65z" fill="#86ebf9"/><path d="m167.42 178.08-18.98-29.98-25.33 21.17 14.34 22.66z" fill="#86ebf9"/><path d="m256.51 121.67-18.98-29.99 29.97-13.84 14.34 22.65z" fill="#86ebf9"/><path d="m202.47 188.21a53.15 53.15 0 1 1 53.15-53.15 53.2 53.2 0 0 1 -53.15 53.15zm0-88.47a35.32 35.32 0 1 0 35.33 35.32 35.37 35.37 0 0 0 -35.33-35.32z" fill="#40c2d6"/><circle cx="401.21" cy="237.73" fill="#1573d8" r="13.78"/><circle cx="357.2" cy="285.89" fill="#1573d8" r="13.78"/><circle cx="407.92" cy="334.94" fill="#1573d8" r="13.78"/></g></svg>