<svg height="512" viewBox="0 0 512 512" width="512" xmlns="http://www.w3.org/2000/svg" xmlns:xlink="http://www.w3.org/1999/xlink"><clipPath id="clip-path"><path d="m357.3 209.05h44.55v76.32h-44.55z"/></clipPath><clipPath id="clip-path-2"><rect height="229.31" rx="8.36" width="247.04" x="31.42" y="135.23"/></clipPath><g id="UI_Design" data-name="UI Design"><g clip-path="url(#clip-path)"><path d="m357.3 209.05h44.55v76.32h-44.55z" fill="#e39c76"/><path d="m351.48 251.82c20.71.05 40.44-10.69 49.33-30l-48.35-.15q-.46 15.07-.98 30.15z" fill="#d48f6e"/></g><path d="m437.38 169.63c-5.05 31.6-30.22 49.54-41 55.91a82.06 82.06 0 0 1 -19.23 10.07c-7.6 2.68-28 9.86-40.24-.93-3.21-2.82-7.22-9.29-10.95-23.6-4.83-18.5-4.44-28-1.73-37.64s6-15.3 7.54-21.66c3.86-15.73 3.93-28.13 16.94-37.27a55.83 55.83 0 0 1 13.6-8.67c18.19-9.53 45.41-5.78 61.71 10.75 18.79 19.03 14.44 46.28 13.36 53.04z" fill="#e39c76"/><g fill="#2d1929"><path d="m348.83 191.85c-3.31-2.57-4.85-5-4.56-7.23.64-5 9.13-4.26 14-18.35a.5.5 0 0 1 .63-.32.51.51 0 0 1 .31.64c-4.93 14.36-13.37 13.89-13.92 18.16-.24 1.85 1.17 4 4.18 6.31a.5.5 0 0 1 -.64.79z"/><path d="m346 165.57c-.84 3.54-3.38 6-5.66 5.43s-3.47-3.85-2.63-7.39 3.37-6 5.66-5.42 3.49 3.81 2.63 7.38z"/><path d="m381.66 174c-.84 3.54-3.37 6-5.66 5.43s-3.47-3.85-2.63-7.39 3.37-6 5.66-5.42 3.46 3.85 2.63 7.38z"/><path d="m358.37 148.37a1 1 0 0 1 -.75-.35c-.3-.33-7.29-8.22-17.39-4.31a1 1 0 0 1 -.72-1.86c11.43-4.43 19.54 4.77 19.62 4.87a1 1 0 0 1 -.76 1.65z"/><path d="m393.91 156a1 1 0 0 1 -.77-.36c-7-8.26-16.91-4.67-17.33-4.52a1 1 0 0 1 -1.28-.58 1 1 0 0 1 .58-1.29c.12 0 11.64-4.25 19.56 5.1a1 1 0 0 1 -.76 1.65z"/></g><path d="m108.62 348.49 10 26.94a277 277 0 0 0 49.24 14.26c32 6.12 51.18 9.79 72.73 3 12-3.78 31.3-19.63 69.47-51.19 9.74-8.05 17.73-14.8 23.19-19.43l24-67.87a113.61 113.61 0 0 0 -23.91 4.2c-29.23 8.45-43.47 25.61-74.82 50.11-21.14 16.52-32.26 25.2-46 31.91-20.36 9.99-53.02 18.74-103.9 8.07z" fill="#917eec"/><path d="m344.73 203.64 23.68-3.54c-1.75 8.65-9.23 13.57-15.19 12.25s-8.35-8.35-8.49-8.71z" fill="#efefef"/><path d="m440.83 272.33c17.29 17 2.62 35.06-14.52 174.91h-137.83s-1.08-35.32-.21-73.54c1.19-52.8.15-68.95 11.43-91 2.52-4.93 3.83-7.45 6.21-10 24.79-26.85 106.97-27.86 134.92-.37z" fill="#917eec"/><path d="m357.3 254.19s-.05 24.31 14.67 25.4 29.87-25.4 29.87-25.4-25.01-10.68-44.54 0z" fill="#e39c76"/><path d="m304.23 290.17-5.73 28.29c-11.44 13.13-13.63 30.61-7.38 46.08l4.21 1.58a46.17 46.17 0 0 1 7.21-46.85q.86-14.55 1.69-29.1z" fill="#6d5fde"/><path d="m129.27 380c9.32 3.09 19.32 1.19 25.69-6.71 155.26-5.25 163.59-16 7.26-32.89l-51.45 24.3c3.3 7.94 10.17 13.14 18.5 15.3z" fill="#6d5fde"/><g clip-path="url(#clip-path-2)"><rect fill="#efefef" height="229.31" rx="8.36" width="247.04" x="31.42" y="135.23"/><path d="m18.61 119.6h265.14v48.76h-265.14z" fill="#287eef"/></g><rect fill="#efefef" height="8.39" rx="2.7" width="59.21" x="210.9" y="147.54"/><path d="m364.65 109.08c-13.25 4.46-23.21 14-29.18 26.22 0 0-1.83-33.27 12.47-41.68s23 0 23 0c27.44-10.52 58.49-2.77 74.44 14.51 21.12 22.87 19.1 63.74-1.09 88.93-14.42 18-34.43 23.4-42.52 25.1a103.47 103.47 0 0 1 3.64-17.16s5-16.71 11.69-21.26a3.46 3.46 0 0 0 1.22-1.47c3.45-7.31-20.16-18.34-27.48-38.17-2.23-6-4-15.68.31-30z" fill="#efbd42"/><path d="m437.32 190.88c-4.79 8.12-14.1 11.52-20.79 7.57s-8.23-13.73-3.44-21.86 14.11-11.52 20.8-7.57 8.22 13.73 3.43 21.86z" fill="#e39c76"/><path d="m417.1 190.17a.51.51 0 0 1 -.5-.51.55.55 0 0 1 .51-.49c.16 0 4.07 0 5-3.73.63-2.54-4-4-4-4a.49.49 0 0 1 -.28-.73c.23-.38 5.7-9.23 12.15-7.93 5.64 1.13 4.48 7.55 4.47 7.62a.5.5 0 0 1 -1-.19c.05-.22 1-5.52-3.68-6.45-4.93-1-9.5 5.11-10.76 7 1.43.57 4.77 2.22 4.08 5-1.09 4.36-5.8 4.41-5.99 4.41z" fill="#2d1929"/><circle cx="452.21" cy="92.23" fill="#efbd42" r="29.21"/><path d="m159.13 250.05a47.91 47.91 0 0 1 47.52-12.47 48 48 0 1 0 -95.82.23 47.9 47.9 0 0 1 48.3 12.24z" fill="#1573d8"/><path d="m145.42 281.77a48 48 0 0 1 -34.59-44 48 48 0 1 0 48.3 79.46 47.78 47.78 0 0 1 -13.71-35.46z" fill="#cc3745"/><path d="m145.42 281.77a47.8 47.8 0 0 1 13.71-31.72 47.92 47.92 0 0 0 -48.3-12.24 48 48 0 0 0 34.59 43.96z" fill="#e73f46"/><path d="m206.65 237.58a48 48 0 0 1 -33.81 44 47.78 47.78 0 0 1 -13.71 35.72 48 48 0 1 0 47.52-79.69z" fill="#86ebf9"/><path d="m159.13 250.05a47.74 47.74 0 0 1 13.71 31.5 48 48 0 0 0 33.81-44 47.91 47.91 0 0 0 -47.52 12.5z" fill="#287eef"/><path d="m172.84 281.55a48.08 48.08 0 0 1 -27.42.22 47.77 47.77 0 0 0 13.71 35.5 47.79 47.79 0 0 0 13.71-35.72z" fill="#efbd42"/><path d="m145.42 281.77a48.08 48.08 0 0 0 27.42-.22 47.74 47.74 0 0 0 -13.71-31.5 47.8 47.8 0 0 0 -13.71 31.72z" fill="#efefef"/><path d="m401.84 254.19s49.68 9 51.7 31.18-5.15 128.16-27.42 145-112.75-45.72-112.75-45.72l6.88-40.93 86.47 20.42-4.88-68.81z" fill="#917eec"/><path d="m117.15 374.07c-.64.25-7.57 2.9-10.66-.28-1.67-1.71-1.49-4.38-1.1-7.39.23-1.68 3.26-23.92 8.09-23.66 1.47.07 3.39 2.26 5.34 11.53 0 0 1.08-12.15 6-10.16 4.56 1.86 4.21 11.74 4.21 11.74s2-9.47 5.42-7.32c3.23 2 3.09 10.28 3.09 10.28s1.47-6.35 4.45-5.2 3.76 18 1.59 22.08c-2.29 4.25-6.34-.11-6.34-.11s-5.59 4.13-7.71-.88a8.09 8.09 0 0 1 -12.38-.63z" fill="#e39c76"/><ellipse cx="100.13" cy="365.27" fill="#e39c76" rx="7.36" ry="5.21"/><path d="m410.67 307-8.83 56-71.37-15.65a343 343 0 0 0 71.37 20.9 47.54 47.54 0 0 1 17.81 28 37.81 37.81 0 0 0 -12.93-30.53q1.98-29.34 3.95-58.72z" fill="#6d5fde"/><path d="m326.57 384.21a210.6 210.6 0 0 0 37.11 27.65c12.32 7.2 22 12.73 36.11 15.19a84.67 84.67 0 0 0 29.86-.23l-2.51 20.42h-93c4.37-2.2 10-5.12 16.56-8.73 8.85-4.88 10.78-5.95 11.46-8.22 2.39-7.99-11.85-14.04-35.59-46.08z" fill="#6d5fde"/><path d="m115.86 373a.5.5 0 0 1 -.5-.57l2.77-20.22a.48.48 0 0 1 .56-.42.5.5 0 0 1 .43.56l-2.77 20.21a.5.5 0 0 1 -.49.44z" fill="#2d1929"/><path d="m129.18 374.38a.51.51 0 0 1 -.5-.5v-18.88a.5.5 0 0 1 .5-.5.5.5 0 0 1 .5.5v18.87a.5.5 0 0 1 -.5.51z" fill="#2d1929"/><path d="m136.69 375.58.3-16.78a.5.5 0 0 1 1 0l-.3 16.77a.5.5 0 0 1 -1 .01z" fill="#2d1929"/><path d="m321.28 395.65-5.78 3.24a6.76 6.76 0 0 1 -9.28-2.76l-56.88-108.4a6.75 6.75 0 0 1 11.78-6.6l62.66 105.17a6.75 6.75 0 0 1 -2.5 9.35z" fill="#2d1929"/><path d="m251.29 284.18c-4.76 1.52-10.3-1-13.16-4.62-3.81-4.88-.39-8.71-4-15.77-3.42-6.75-8.95-8-8.28-10.2.89-3 11.67-4.44 20 0 9.21 4.88 15.36 17 11.86 24.76a11.4 11.4 0 0 1 -6.42 5.83z" fill="#efbd42"/><path d="m341.73 355-22.88-14.23c-1.82-1.73-4.46-4.2-7.72-7.1-7.56-6.72-9.14-7.48-10.59-8-2.41-.81-5.8-.54-12.58 0-9.56.76-10.59 2.17-13.7 7.47-2.68 4.58-5.62 9.44-3.61 12.46a30.4 30.4 0 0 0 4.36 2.57s-3.49 7.47 5 8.3c0 0-2.65 7.16 5.15 8.06 0 0-.87 4.89 2.55 5.89s13.89-5.07 21-2.82 9.49 9.34 9.49 9.34l16.58 14.24z" fill="#e39c76"/><path d="m330 347.69-8.02 32.5 15.71 13.68 13.73-36.75z" fill="#917eec"/><path d="m275 348.68a.5.5 0 0 1 -.45-.71c.19-.43 4.86-10.48 9.45-12.65a.5.5 0 0 1 .67.24.5.5 0 0 1 -.24.66c-4.27 2-8.93 12.07-9 12.17a.49.49 0 0 1 -.43.29z" fill="#2d1929"/><path d="m280 357a.5.5 0 0 1 -.43-.75c.17-.3 4.34-7.5 7.95-9a.49.49 0 0 1 .65.26.5.5 0 0 1 -.27.66c-3.3 1.37-7.42 8.51-7.46 8.58a.51.51 0 0 1 -.44.25z" fill="#2d1929"/><path d="m284.73 364.26c.16-.24 4-5.8 8.09-6.57a.5.5 0 0 1 .18 1c-3.64.69-7.41 6.1-7.45 6.16a.5.5 0 0 1 -.82-.59z" fill="#2d1929"/></g></svg>