<svg height="512" viewBox="0 0 512 512" width="512" xmlns="http://www.w3.org/2000/svg" xmlns:xlink="http://www.w3.org/1999/xlink"><clipPath id="clip-path"><rect height="411.96" rx="21.2" width="450" x="31.02" y="50.6"/></clipPath><g id="Wireframe"><g clip-path="url(#clip-path)"><rect fill="#c6c6c6" height="411.96" rx="21.2" width="450" x="31.02" y="50.6"/><path d="m7.21 33.38h488.33v73.01h-488.33z" fill="#917eec"/></g><path d="m65.51 126.65h145.36v75.1h-145.36z" fill="#efefef"/><path d="m246.61 126.65h197.78v75.1h-197.78z" fill="#86ebf9"/><path d="m444.4 203.25c-.43 0 8.63 3.39-198.32-75.2a1.5 1.5 0 1 1 1.07-2.8l197.78 75.1a1.5 1.5 0 0 1 -.53 2.9z" fill="#2d1929"/><path d="m246.61 203.25a1.5 1.5 0 0 1 -.53-2.9l197.79-75.1a1.5 1.5 0 1 1 1.06 2.8c-207.08 78.64-197.93 75.2-198.32 75.2z" fill="#2d1929"/><circle cx="114.36" cy="273.2" fill="#e73f46" r="48.85"/><circle cx="256.02" cy="273.2" fill="#efefef" r="48.85"/><circle cx="395.55" cy="273.2" fill="#287eef" r="48.85"/><path d="m65.51 342.31h378.89v85.79h-378.89z" fill="#917eec"/><g fill="#efbd42"><circle cx="69.28" cy="80.38" r="10.52"/><circle cx="114.36" cy="80.38" r="10.52"/><circle cx="159.44" cy="80.38" r="10.52"/></g></g></svg>