<svg id="Layer_1" viewBox="0 0 512 512" xmlns="http://www.w3.org/2000/svg" data-name="Layer 1"><path d="m134.1494 334.66a5.9092 5.9092 0 0 1 -5.48-3.55c-23.1588-55.6655 9.0083-91.43 9.0083-91.43l9.8115 6.9073s-25.8986 26.5309-9.7 74.7729l105.8908-30.6802-29.6406-61.13a5.999 5.999 0 0 1 3.7207-8.37c56.83-17.1814 106.8994 14.76 112.67 18.7a6.1267 6.1267 0 0 1 2.6094 6.06 5.9425 5.9425 0 0 1 -4.3195 4.73l-40.49 11.12a6.1642 6.1642 0 0 1 -1.59.21 5.969 5.969 0 0 1 -5.36-3.3l-10.4641-20.7678 10.7133-5.4024 8.2606 16.38 21.96-6.02c-2.66-1.35-40.0388-21.6113-83.71-11.97l29.54 60.93a6.0009 6.0009 0 0 1 -3.7295 8.38l-118.03 34.19a5.9621 5.9621 0 0 1 -1.6709.2402z"/><path d="m144.3468 232.66s14.4432-12.3417 24.8832-16.41l-12.1006-26.11a6.0042 6.0042 0 0 1 4.7606-8.49l37.05-4.27a6.0391 6.0391 0 0 1 6.1093 3.41l10.1006 21.46c129.6408-22.2517 175.36 48.41 175.61 48.79a5.9948 5.9948 0 0 1 -3.3506 9l-118.8893 35.05a5.7856 5.7856 0 0 1 -1.7.25 5.9616 5.9616 0 0 1 -5.39-3.37l-28.107-57.5171 10.7852-5.2662 25.8814 52.964 105.4-31.07c-3.74-4.0608-51-57.6417-162.5909-36.2a6.0819 6.0819 0 0 1 -6.55-3.34l-10.22-21.75-24.5187 2.8293 11.3239 24.4553a5.6343 5.6343 0 0 1 -2.9482 7.5586 103.395 103.395 0 0 0 -27.9706 17.3351z"/><path d="m165.169 295.34a6.0276 6.0276 0 0 1 -5.51-3.6l-.01-.03c-.54-1.3-12.2592-30.2316 23.68-55.21a6.0055 6.0055 0 0 1 8.75 2.32l18.101 36.75a6.0076 6.0076 0 0 1 -3.77 8.43l-39.63 11.11a5.9358 5.9358 0 0 1 -1.611.23zm19.341-44.74c-17.56 14.804-15.1309 30.2-15 31.29l26.71-7.5z"/><path d="m413.5728 106.5757 8.3525-8.6245q-4.1476-4.34-8.6167-8.3623l-8.3438 8.6333q4.4773 3.999 8.608 8.3535z"/><path d="m427.8052 104.4629-9.4 7.4614a142.3046 142.3046 0 0 1 34.6347 93.07v102.0111c0 79.3349-65.2646 143.8779-145.4863 143.8779h-103.1063a145.8293 145.8293 0 0 1 -129.1211-77.6357l-10.3672 6.0551a157.8426 157.8426 0 0 0 139.4883 83.5806h103.1064c86.8379 0 157.4863-69.9268 157.4863-155.8779v-102.0108a154.2409 154.2409 0 0 0 -37.2348-100.5317z"/><path d="m58.96 307.0054v-102.0108c0-79.3349 65.2656-143.8779 145.4873-143.8779h103.1064a145.7951 145.7951 0 0 1 91.938 32.4561l7.1338-9.6509a157.7341 157.7341 0 0 0 -99.0718-34.8052h-103.1064c-86.8389 0-157.4873 69.9268-157.4873 155.8779v102.0108a153.6327 153.6327 0 0 0 14.09 64.4218l11.1-4.5922a141.7 141.7 0 0 1 -13.19-59.8296z"/></svg>