<svg id="Layer_1" viewBox="0 0 512 512" xmlns="http://www.w3.org/2000/svg" data-name="Layer 1"><path d="m334.733 309.0161h-10.614c-6.2263-.0556-10.8913-5.6987-10.8979-12.0781v-33.068h-30.7369a11.3926 11.3926 0 0 1 -10.8982-11.208v-11.288a11.3978 11.3978 0 0 1 10.8982-11.209h30.7369v-33.0669a11.3938 11.3938 0 0 1 10.8979-11.21h10.613a11.3967 11.3967 0 0 1 10.8992 11.209v33.0679h30.7368a11.3963 11.3963 0 0 1 10.8982 11.209v11.2881a11.3976 11.3976 0 0 1 -10.8972 11.2079h-30.7378v33.938a11.3952 11.3952 0 0 1 -10.8982 11.2081zm-9.511-12h8.4092v-39.1461a5.9969 5.9969 0 0 1 6-6h35.635v-9.704h-35.635a6.0059 6.0059 0 0 1 -6-6v-38.2778h-8.41v38.2778a5.999 5.999 0 0 1 -6 6h-35.6352v9.704h35.6351a6.0059 6.0059 0 0 1 6 6v39.068c-.0011.0271 0 .0542.0009.0781z"/><path d="m159.41 319.2571c0 19.59 23.4643 36.7737 50.2136 36.7737s50.2136-17.1841 50.2136-36.7737-23.4643-36.7737-50.2136-36.7737-50.2136 17.1841-50.2136 36.7737zm88.4272 0c0 11.4563-16.6926 24.7737-38.2136 24.7737s-38.2136-13.3174-38.2136-24.7737 16.6926-24.7737 38.2136-24.7737 38.2139 13.3174 38.2139 24.7737z"/><path d="m213.9523 238.9192c20.4658 0 29.8838-20.9375 26.7224-41.1929-4.0884-24.188-20.3621-42.1079-38.6951-42.61-25.0239-.6758-30.1084 25.8481-27.7771 41.0449 3.0975 23.1838 21.2875 42.758 39.7498 42.758zm-12.2966-71.8071c12.3945.3393 24.0688 14.3222 27.1738 32.538 2.1638 14.0347-3.2764 27.2691-14.8772 27.2691-11.1087 0-25.3816-13.8335-27.8555-32.3472l-.0329-.23c-.6602-4.3032-1.782-27.7014 15.5918-27.2299z"/><path d="m280.7118 134.5989h-69.3545c-25.44 0-71.019 20.4441-71.019 61.5639a58.9436 58.9436 0 0 0 17.4294 42.251l9.2083-7.5679a46.97 46.97 0 0 1 -14.6377-34.6831c0-27.9135 31.726-49.5639 59.019-49.5639h67.2566l-13.1553 9.3686c-.1826.0034.1719.0025-5.5532.0025a6.0047 6.0047 0 0 0 -4.6594 9.78c6.4033 7.8921 9.93 18.6929 9.93 30.4126 0 3.0147.5 20.4966-20.5906 36.3672-5.5844 4.1841-12.5344 9.3916-12.3686 17.9.1448 7.4322 5.9172 14.836 18.1655 23.2979 17.5408 12.59 23.4629 23.6528 23.4629 43.8784.0049 1.5054.7166 47.7949-67.6892 47.7949-54.8008 0-69.4221-25.2441-69.4221-40.1606 0-14.6431 17.3752-47.8535 68.5556-47.8535a6.0041 6.0041 0 0 0 5.1255-9.1192c-3.5244-5.791-2.7173-13.4785-2.0424-15.4761a6.0036 6.0036 0 0 0 -5.5245-7.9184c-12.2014-.3252-22.999-4.085-31.4533-10.3362l-5.8648 10.3807a65.7725 65.7725 0 0 0 30.28 11.4623 36.4806 36.4806 0 0 0 .853 9.3047c-50.2092 3.5347-71.9289 38.145-71.9289 59.5557 0 19.3735 17.1487 52.1606 81.4221 52.1606 62.2241 0 79.7661-36.5256 79.6892-59.8545 0-24.1684-7.7273-38.6958-28.5112-53.6006-.6594-.4724-13.023-8.7963-13.1194-13.75-.0479-2.4411 4.2793-5.59 8.9138-9.0771 8.97-6.7923 24.0476-22.417 24.0476-44.9566a63.1943 63.1943 0 0 0 -6.8252-29.1191c.8972-.4023-.5117.5361 17.3091-12.1553 7.8422-5.5841 5.518-20.2889-6.9483-20.2889z"/><path d="m413.5728 106.5757 8.3525-8.6245q-4.1476-4.34-8.6167-8.3623l-8.3438 8.6333q4.4773 3.999 8.608 8.3535z"/><path d="m427.8052 104.4629-9.4 7.4614a142.3046 142.3046 0 0 1 34.6347 93.07v102.0111c0 79.3349-65.2646 143.8779-145.4863 143.8779h-103.1063a145.8293 145.8293 0 0 1 -129.1211-77.6357l-10.3672 6.0551a157.8426 157.8426 0 0 0 139.4883 83.5806h103.1064c86.8379 0 157.4863-69.9268 157.4863-155.8779v-102.0108a154.2409 154.2409 0 0 0 -37.2348-100.5317z"/><path d="m58.96 307.0054v-102.0108c0-79.3349 65.2656-143.8779 145.4873-143.8779h103.1064a145.7951 145.7951 0 0 1 91.938 32.4561l7.1338-9.6509a157.7341 157.7341 0 0 0 -99.0718-34.8052h-103.1064c-86.8389 0-157.4873 69.9268-157.4873 155.8779v102.0108a153.6327 153.6327 0 0 0 14.09 64.4218l11.1-4.5922a141.7 141.7 0 0 1 -13.19-59.8296z"/></svg>