<svg id="Layer_1" viewBox="0 0 512 512" xmlns="http://www.w3.org/2000/svg" data-name="Layer 1"><path d="m413.5728 106.5757 8.3525-8.6245q-4.1476-4.34-8.6167-8.3623l-8.3438 8.6333q4.4773 3.999 8.608 8.3535z"/><path d="m427.8052 104.4629-9.4 7.4614a142.3046 142.3046 0 0 1 34.6347 93.07v102.0111c0 79.3349-65.2646 143.8779-145.4863 143.8779h-103.1063a145.8293 145.8293 0 0 1 -129.1211-77.6357l-10.3672 6.0551a157.8426 157.8426 0 0 0 139.4883 83.5806h103.1064c86.8379 0 157.4863-69.9268 157.4863-155.8779v-102.0108a154.2409 154.2409 0 0 0 -37.2348-100.5317z"/><path d="m58.96 307.0054v-102.0108c0-79.3349 65.2656-143.8779 145.4873-143.8779h103.1064a145.7951 145.7951 0 0 1 91.938 32.4561l7.1338-9.6509a157.7341 157.7341 0 0 0 -99.0718-34.8052h-103.1064c-86.8389 0-157.4873 69.9268-157.4873 155.8779v102.0108a153.6327 153.6327 0 0 0 14.09 64.4218l11.1-4.5922a141.7 141.7 0 0 1 -13.19-59.8296z"/><path d="m242.5605 378.1352c-55.9785 0-101.52-43.3252-101.52-96.5786v-128.2237c0-26.0635 41.76-26.0632 41.76 0v103.3471h12v-103.3471c0-41.936-65.76-42.0131-65.76 0v128.2237c0 60.6074 52.1182 108.5786 113.5205 108.5786 28.8445 0 30.47.13 37.304-.438l-.3684-12.0018c-6.5447.5714-8.0707.4398-36.9361.4398z"/><path d="m382.96 288.3944c0-52.5794-35.9444-102.5942-86.64-102.5942h-53.76c-43.62 0-43.6259 63.29 0 63.29h53.76c8.2139 0 20.8809 16.8779 20.8809 39.3046 0 21.2022-21.4258 38.4512-47.7608 38.4512h-26.88c-26.3349 0-47.7607-20.3164-47.7607-45.289v-16.877h-12v16.8763c0 31.5893 26.8086 57.289 59.7607 57.289h26.88c32.9522 0 59.7608-22.6323 59.7608-50.4512 0-29.3637-17.3594-51.3046-32.8809-51.3046h-53.76c-27.6811 0-27.7167-39.29 0-39.29h53.76c41.1563 0 74.64 40.6406 74.64 90.5942 0 38.5021-27.5733 71.4147-66.1795 84.1282l4.3628 11.1746c41.8093-13.9491 73.8167-49.4465 73.8167-95.3021z"/><path d="m286.3955 376.8767 2.4216 11.7565q5.9344-.9246 11.7005-2.4034l-2.3689-11.7545a111.9674 111.9674 0 0 1 -11.7532 2.4014z"/></svg>