<svg id="Layer_1" viewBox="0 0 512 512" xmlns="http://www.w3.org/2000/svg" data-name="Layer 1"><path d="m332.9405 355.7437c-29.2566 0-60.5606-18.5762-60.5606-59.0743v-31.3159a6.0037 6.0037 0 0 1 8.8848-5.2607l13.082 7.1743 21.4785-7.5723a6.0036 6.0036 0 0 1 7.9952 5.6587v30.4693c-.4244 14.5354 21.5107 12.8554 21.5107-.9253 0-5.5472.2432-24.0959-.0635-30.083a6.0223 6.0223 0 0 1 5.9922-6.3067h39.44a6 6 0 0 1 6 6v30.4693c-.0005 39.8935-32.0747 60.7666-63.7593 60.7666zm-48.5605-80.2564v21.1821c0 32.89 24.9419 47.0743 48.5606 47.0743 25.7207 0 51.7588-16.751 51.7588-48.7666v-24.4693h-27.1759c.6283 17.2929-.078 26.24-.3359 26.24-4.6622 29.8737-45.3672 27.2041-45.3672-.9253v-21.9919l-16.0127 5.6455a5.9952 5.9952 0 0 1 -4.88-.398z"/><path d="m263.2216 156.2563c-29.0144 0-61.8359 17.54-64.1943 56.2536l11.9123 2.0985c1.262-31.8192 27.6807-46.3521 52.282-46.3521 24.4048 0 52.3584 14.4947 52.3584 48.7359v10.1128l-18.2334 6.2392-10.4345-5.5542v-10.7978c0-27.7941-44.712-29.3859-44.712 0v77.0878c0 33.9043-27.0693 49.3466-52.22 49.3466-25.2764 0-52.4805-15.1767-52.4805-48.499v-24.4965h27.7842v23.6489c0 30.0567 45.5948 28.9785 45.5948 0v-72.5174l-12 .0449v72.4725c0 13.2308-21.5948 14.0738-21.5948 0v-29.649a6 6 0 0 0 -6-6h-39.7838a6 6 0 0 0 -6 6v30.4966c0 37.7653 29.9012 60.499 64.4805 60.499 30.3977 0 64.22-19.1444 64.22-61.3466v-77.0878c0-13.5418 20.712-12.0058 20.712 0v14.4009a6.0007 6.0007 0 0 0 3.1806 5.2963l15.9141 8.4712a5.9964 5.9964 0 0 0 4.7617.38l24.7539-8.4712a6 6 0 0 0 4.0576-5.6767v-14.4005c-.0004-41.7798-34.171-60.7359-64.3588-60.7359z"/><path d="m418.6724 106.5757 8.3525-8.6245q-4.1476-4.34-8.6167-8.3623l-8.3437 8.6333q4.4772 3.999 8.6079 8.3535z"/><path d="m432.9048 104.4629-9.4 7.4614a142.3046 142.3046 0 0 1 34.6347 93.07v102.0111c0 79.3349-65.2646 143.8779-145.4863 143.8779h-103.1063a145.8293 145.8293 0 0 1 -129.1211-77.6357l-10.3672 6.0551a157.8426 157.8426 0 0 0 139.4883 83.5806h103.1064c86.8379 0 157.4863-69.9268 157.4863-155.8779v-102.0108a154.24 154.24 0 0 0 -37.2348-100.5317z"/><path d="m64.06 307.0054v-102.0108c0-79.3349 65.2656-143.8779 145.4873-143.8779h103.106a145.7951 145.7951 0 0 1 91.938 32.4561l7.1338-9.6509a157.7341 157.7341 0 0 0 -99.0718-34.8052h-103.1064c-86.8389 0-157.4869 69.9268-157.4869 155.8779v102.0108a153.6312 153.6312 0 0 0 14.09 64.4218l11.1-4.5922a141.7 141.7 0 0 1 -13.19-59.8296z"/></svg>