<svg id="Layer_1" height="512" viewBox="0 0 512 512" width="512" xmlns="http://www.w3.org/2000/svg" data-name="Layer 1"><g fill="rgb(0,0,0)"><path d="m316.37 467.16h-103.11a155.482 155.482 0 0 1 -82.76-23.75 159.145 159.145 0 0 1 -56.9307-61.86.01.01 0 0 1 -.01-.01l-2.73-5.28a.0568.0568 0 0 1 .0195-.07l10.57-5.46a.0737.0737 0 0 1 .04-.01c.02.01.03.02.03.03l2.73 5.28c25.25 48.81 74.6905 79.13 129.03 79.13h103.1212a143.8247 143.8247 0 0 0 102.82-43.08 146.9472 146.9472 0 0 0 42.67-103.99v-104.18a147.6606 147.6606 0 0 0 -23.27-79.75l-3.21-5.01a.0633.0633 0 0 1 .0195-.07l10.02-6.42a.0537.0537 0 0 1 .07.02l3.21 5.01a159.4255 159.4255 0 0 1 25.1505 86.22v104.18a159.44 159.44 0 0 1 -69.44 131.87 157.7511 157.7511 0 0 1 -26.75 14.68 155.2146 155.2146 0 0 1 -61.29 12.52zm-249.06-99.03c-.02 0-.04-.01-.04-.03l-2.02-5.6a159.7547 159.7547 0 0 1 -9.48-54.41v-104.18a159.5272 159.5272 0 0 1 69.44-131.87 157.11 157.11 0 0 1 26.76-14.67 155.0626 155.0626 0 0 1 61.29-12.53h103.13a156.1351 156.1351 0 0 1 105.62 41.15l4.39 4.01c.0108.01.0108.02.0108.04.01.01 0 .02-.0108.03l-8.03 8.78c-.0107.01-.02.02-.03.02 0 0-.03 0-.04-.01l-4.39-4.02a144.3527 144.3527 0 0 0 -97.54-38h-103.11a143.8071 143.8071 0 0 0 -102.83 43.08 146.9874 146.9874 0 0 0 -42.66 103.99v104.18a147.68 147.68 0 0 0 8.77 50.34l2.02 5.6a.0765.0765 0 0 1 -.01.04c0 .01-.01.02-.03.02l-11.19 4.04zm363.76-254.87a.0185.0185 0 0 1 -.0293-.01l-7.67-9.11a.0347.0347 0 0 1 -.0107-.03.0526.0526 0 0 1 .0205-.04l9.1-7.66a.0624.0624 0 0 1 .04-.01c.0108 0 .0205.01.03.02l3.82 4.54c.01 0 .01 0 .01.01l3.84 4.55a.0368.0368 0 0 1 .01.03.0529.0529 0 0 1 -.0195.04l-9.1006 7.66c-.0104.01-.0204.01-.0411.01z"/><path d="m335.66 261.23a5.96 5.96 0 0 1 -3.83-1.38l-87.94-73.12a6.0131 6.0131 0 0 1 -.7695-8.45l14.64-17.55a5.9873 5.9873 0 0 1 8.44-.77l87.8691 73.11a6.0155 6.0155 0 0 1 .78 8.45l-14.5696 17.54a5.9334 5.9334 0 0 1 -4.0606 2.15c-.1794.01-.3694.02-.5594.02zm-79.47-79.88 78.7 65.43 6.9-8.32-78.66-65.44z"/><path d="m323.53 287.36a5.8457 5.8457 0 0 1 -2.53-.57l-103.76-48.27a6.0174 6.0174 0 0 1 -2.9209-7.94l9.5508-20.87a6.0018 6.0018 0 0 1 7.9893-2.94l103.83 48.41a6.0018 6.0018 0 0 1 2.9 7.96l-9.61 20.74a6.0426 6.0426 0 0 1 -5.4492 3.48zm-95.82-57.21 92.91 43.23 4.5694-9.86-92.9194-43.32z"/><path d="m316.0693 316.55a5.9109 5.9109 0 0 1 -1.25-.13l-111.8093-23.52a6.005 6.005 0 0 1 -4.64-7.08l4.66-22.58a5.9994 5.9994 0 0 1 7.1191-4.66l111.8209 23.72a6.0161 6.0161 0 0 1 4.63 7.09l-4.66 22.38a6.0222 6.0222 0 0 1 -5.87 4.78zm-104.7393-34.16 100.08 21.05 2.22-10.64-100.07-21.23z"/><path d="m316.0693 344.21h-113.3793a6.0108 6.0108 0 0 1 -6-6v-23.05a6.0106 6.0106 0 0 1 6-6h113.38a6.0089 6.0089 0 0 1 6 6v23.05a6.009 6.009 0 0 1 -6 6zm-107.38-12h101.38v-11.05h-101.3793z"/><path d="m362.66 390.3h-206.56a5.9916 5.9916 0 0 1 -6-6v-9.77a.0474.0474 0 0 1 .05-.05h11.9a.0469.0469 0 0 1 .05.05v3.78l194.56-.01v-78.65h-10.98v61.97a5.975 5.975 0 0 1 -5.99 6h-160.62a5.9933 5.9933 0 0 1 -6-6v-61.97h-10.97v66.77a.0469.0469 0 0 1 -.05.05h-11.9a.0474.0474 0 0 1 -.05-.05v-72.77a5.9916 5.9916 0 0 1 6-6h22.97a5.9751 5.9751 0 0 1 6 6v61.97h148.62v-61.97a5.9751 5.9751 0 0 1 6-6h22.97a5.9933 5.9933 0 0 1 6 6v90.65a5.9933 5.9933 0 0 1 -6 6z"/><path d="m355.1094 239.72a6.3484 6.3484 0 0 1 -.8692-.06 5.953 5.953 0 0 1 -3.95-2.36l-68.55-92.2a6.0146 6.0146 0 0 1 1.22-8.38l18.43-13.82a5.9988 5.9988 0 0 1 8.41 1.21l68.54 92.21a5.9918 5.9918 0 0 1 -1.21 8.37l-18.4302 13.83a5.9883 5.9883 0 0 1 -3.5906 1.2zm-60.17-96.99 61.38 82.57 8.83-6.62-61.38-82.57z"/></g></svg>