<svg id="Layer_1" viewBox="0 0 512 512" xmlns="http://www.w3.org/2000/svg" data-name="Layer 1"><path d="m243.92 244.7734c22.3327-19.1734 16.7836-80.6734-38.7583-80.6734h-78.7476a6 6 0 0 0 -6 6v170.9644a6 6 0 0 0 6 6h79.5947c1.16 0 2.2938-.0357 3.4143-.09l.0511-12.21c-1.1729.1333-2.3628.2426-3.59.3h-73.47v-158.9644h72.7476c49.9549 0 46.54 61.7261 20.6933 64.0977-7.6133.6064-7.16 11.9814.4761 11.9814 32.68 0 34.2836 70.8653-11.0565 81.59l4.3128 11.8989c50.8417-10.9903 52.3118-83.8194 24.3325-100.8946z"/><path d="m159.437 242.7753c45.781.0034 44.2254.0166 45.2774-.06l.1167-.0078c26.18-1.72 22.6758-48.6885 1.1777-48.6885h-46.5718a6 6 0 0 0 -6 6v36.7568a6 6 0 0 0 6 5.9995zm6-36.7568h40.5718c5.7822 0 8.83 24.0049-1.96 24.7138-.8662.0616.4651.0459-38.6114.044z"/><path d="m206.0088 257.2753h-44.8788a6 6 0 0 0 -6 6v44.4492a6 6 0 0 0 6 6h43.1851c35.2792 0 30.3971-56.4492 1.6937-56.4492zm-1.6933 44.4492h-37.1855v-32.4492h38.8784c13.0026 0 17.4279 32.4492-1.6929 32.4492z"/><path d="m299.2139 201.745h69.12a6 6 0 0 0 6-6v-17.0976a6 6 0 0 0 -6-6h-69.12a6 6 0 0 0 -6 6v17.0976a6 6 0 0 0 6 6zm6-17.0976h57.12v5.0976h-57.12z"/><path d="m335.5367 231.6083c-15.2857-1.2334-33.0357 9.1719-35.8409 30.878a6.0024 6.0024 0 0 0 5.9507 6.7685h50.5152a6 6 0 0 0 5.997-5.8066c.6613-20.459-12.8945-30.7334-26.622-31.8399zm-22.2167 25.6465a21.0717 21.0717 0 0 1 21.2528-13.6848c6.5781.5293 13.4263 4.4688 15.18 13.6846z"/><path d="m391.1 286.2177c.45-3.5942 2.3117-26.2227-6.21-46.4043l-11.3482 3.793c5.1446 11.2329 6.42 24.5083 6.0108 35.8652h-73.9061a6 6 0 0 0 -6 6c0 41.9414 48.81 42.75 61.3657 21.5469l16.9532-.0928c-11.1575 43.2422-103.6775 42-98.63-29.5771 2.7373-38.8233 20.5054-58.5079 52.8115-58.5079 19.7446 0 31.6787 8.2344 38.651 19.61l9.3189-7.793c-8.5041-13.352-23.1026-23.8174-47.97-23.8174-38.6079 0-61.6147 24.74-64.7822 69.6641-6.3377 89.9126 118.8887 91.1191 123.6147 24.8086a5.9994 5.9994 0 0 0 -5.9848-6.4268h-.0332l-27.854.1534a6.0006 6.0006 0 0 0 -5.7159 4.2822c-3.3271 11.1426-35.0866 16.41-39.2636-7.8506h73.019a6 6 0 0 0 5.9532-5.2535z"/><path d="m413.5728 106.5757 8.3525-8.6245q-4.1476-4.34-8.6167-8.3623l-8.3438 8.6333q4.4773 3.999 8.608 8.3535z"/><path d="m427.8052 104.4629-9.4 7.4614a142.3046 142.3046 0 0 1 34.6347 93.07v102.0111c0 79.3349-65.2646 143.8779-145.4863 143.8779h-103.1063a145.8293 145.8293 0 0 1 -129.1211-77.6357l-10.3672 6.0551a157.8426 157.8426 0 0 0 139.4883 83.5806h103.1064c86.8379 0 157.4863-69.9268 157.4863-155.8779v-102.0108a154.2409 154.2409 0 0 0 -37.2348-100.5317z"/><path d="m58.96 307.0054v-102.0108c0-79.3349 65.2656-143.8779 145.4873-143.8779h103.1064a145.7951 145.7951 0 0 1 91.938 32.4561l7.1338-9.6509a157.7341 157.7341 0 0 0 -99.0718-34.8052h-103.1064c-86.8389 0-157.4873 69.9268-157.4873 155.8779v102.0108a153.6327 153.6327 0 0 0 14.09 64.4218l11.1-4.5922a141.7 141.7 0 0 1 -13.19-59.8296z"/></svg>