<svg id="Layer_1" viewBox="0 0 512 512" xmlns="http://www.w3.org/2000/svg" data-name="Layer 1"><path d="m151.1838 209.3646a22.2153 22.2153 0 0 0 -22.19 22.1905v62.85a22.19 22.19 0 0 0 44.3809 0v-62.85a22.2153 22.2153 0 0 0 -22.1909-22.1905zm10.1905 85.0406a10.19 10.19 0 0 1 -20.3809 0v-62.85a10.19 10.19 0 1 1 20.3809 0z"/><path d="m360.8162 209.3646a22.2153 22.2153 0 0 0 -22.19 22.1905v62.85a22.19 22.19 0 0 0 44.3809 0v-62.85a22.2153 22.2153 0 0 0 -22.1909-22.1905zm10.19 85.0406a10.19 10.19 0 0 1 -20.3809 0v-62.85a10.19 10.19 0 1 1 20.3809 0z"/><path d="m329.249 212.5323h-67.8337v12h61.8337v93.5811a10.5661 10.5661 0 0 1 -10.5547 10.5547h-12.958a6 6 0 0 0 -6 6v33.4319a10.1909 10.1909 0 0 1 -20.3818 0v-33.4319a6 6 0 0 0 -6-6h-22.5977a6 6 0 0 0 -6 6v33.4319a10.19 10.19 0 1 1 -20.3808 0v-33.4319a6 6 0 0 0 -6-6h-12.958a10.5661 10.5661 0 0 1 -10.5547-10.5547v-93.5811h64.552v-12h-70.552a6 6 0 0 0 -6 6v99.5811a22.58 22.58 0 0 0 22.5547 22.5547h6.958v27.4319a22.19 22.19 0 1 0 44.3808 0v-27.4319h10.5977v27.4319a22.1909 22.1909 0 0 0 44.3818 0v-27.4319h6.958a22.58 22.58 0 0 0 22.5547-22.5547v-99.5811a6 6 0 0 0 -6-6z"/><path d="m300.9092 146.22 10.63-18.54-10.41-5.97-10.97 19.12a90.5885 90.5885 0 0 0 -68.43 0l-10.97-19.12-10.41 5.97 10.63 18.54c-21.13 12.57-35.02 33.73-35.02 57.67a5.9984 5.9984 0 0 0 6 6h147.97a5.9984 5.9984 0 0 0 6-6c-.0005-23.94-13.8901-45.1-35.02-57.67zm-112.58 51.67c3.54-29.04 32.51-51.77 67.61-51.77 35.11 0 64.08 22.73 67.62 51.77z"/><path d="m222.0706 160.9624a11.9962 11.9962 0 1 0 11.9961 11.9961 11.9961 11.9961 0 0 0 -11.9961-11.9961z"/><path d="m289.8173 160.9623a11.9961 11.9961 0 1 0 11.996 11.996 11.9961 11.9961 0 0 0 -11.996-11.996z"/><path d="m413.5728 106.5757 8.3525-8.6245q-4.1476-4.34-8.6167-8.3623l-8.3438 8.6333q4.4773 3.999 8.608 8.3535z"/><path d="m427.8052 104.4629-9.4 7.4614a142.3046 142.3046 0 0 1 34.6347 93.07v102.0111c0 79.3349-65.2646 143.8779-145.4863 143.8779h-103.1063a145.8293 145.8293 0 0 1 -129.1211-77.6357l-10.3672 6.0551a157.8426 157.8426 0 0 0 139.4883 83.5806h103.1064c86.8379 0 157.4863-69.9268 157.4863-155.8779v-102.0108a154.2409 154.2409 0 0 0 -37.2348-100.5317z"/><path d="m58.96 307.0054v-102.0108c0-79.3349 65.2656-143.8779 145.4873-143.8779h103.1064a145.7951 145.7951 0 0 1 91.938 32.4561l7.1338-9.6509a157.7341 157.7341 0 0 0 -99.0718-34.8052h-103.1064c-86.8389 0-157.4873 69.9268-157.4873 155.8779v102.0108a153.6327 153.6327 0 0 0 14.09 64.4218l11.1-4.5922a141.7 141.7 0 0 1 -13.19-59.8296z"/></svg>