<svg id="Layer_1" viewBox="0 0 512 512" xmlns="http://www.w3.org/2000/svg" data-name="Layer 1"><path d="m356.2217 151.6975h-44.0635a6 6 0 0 0 -6 6v43.5957a6 6 0 0 0 6 6h44.0635a6 6 0 0 0 6-6v-43.5957a6 6 0 0 0 -6-6zm-6 43.5957h-32.0635v-31.5957h32.0635z"/><path d="m256 204.6943c-28.6035 0-51.7915 22.9705-51.7915 51.3059s23.188 51.306 51.7915 51.306 51.7916-22.9705 51.7916-51.3062-23.1875-51.3057-51.7916-51.3057zm0 90.6119c-21.94 0-39.791-17.6324-39.791-39.3057s17.851-39.3062 39.791-39.3062 39.792 17.6328 39.792 39.3062-17.8505 39.3057-39.792 39.3057z"/><path d="m360.5435 223.4993h-38.99a5.99 5.99 0 0 0 -5.5371 8.2881 63.02 63.02 0 0 1 4.832 24.2522c0 35.3427-29.0908 64.0961-64.8476 64.0961s-64.8477-28.7534-64.8477-64.0961a63.0126 63.0126 0 0 1 4.833-24.2522 5.99 5.99 0 0 0 -5.5371-8.2881h-38.9925a6 6 0 0 0 -6 6v105.1425a30.9585 30.9585 0 0 0 31.0557 30.79h74.3778v-12h-74.3778a18.945 18.945 0 0 1 -19.0557-18.79v-99.1425h24.4756l.07-.0188a75.3164 75.3164 0 0 0 -2.85 20.5591c0 42.0268 34.4053 76.0961 76.8477 76.0961s76.8476-34.0693 76.8476-76.0961a75.3089 75.3089 0 0 0 -2.85-20.5586l.0684.0183h24.4766v99.1425a18.9457 18.9457 0 0 1 -19.0557 18.79h-76.5967l-.0214 12h76.6191a30.9585 30.9585 0 0 0 31.0557-30.79v-105.1425a6 6 0 0 0 -5.9999-6z"/><path d="m335.4878 121.7766h-158.9756c-30.94 0-56.1123 24.9331-56.1123 55.58v64.0434h12v-64.0438c0-24.03 19.7891-43.58 44.1123-43.58h158.9756c24.3232 0 44.1123 19.55 44.1123 43.58v157.2871c0 24.03-19.7891 43.58-44.1123 43.58h-158.9756c-24.3232 0-44.1123-19.55-44.1123-43.58v-85.2433h-12v85.2432c0 30.647 25.1719 55.58 56.1123 55.58h158.9756c30.94 0 56.1123-24.9331 56.1123-55.58v-157.287c-.0001-30.6462-25.1719-55.5796-56.1123-55.5796z"/><path d="m413.5728 106.5757 8.3525-8.6245q-4.1476-4.34-8.6167-8.3623l-8.3438 8.6333q4.4773 3.999 8.608 8.3535z"/><path d="m427.8052 104.4629-9.4 7.4614a142.3046 142.3046 0 0 1 34.6347 93.07v102.0111c0 79.3349-65.2646 143.8779-145.4863 143.8779h-103.1063a145.8293 145.8293 0 0 1 -129.1211-77.6357l-10.3672 6.0551a157.8426 157.8426 0 0 0 139.4883 83.5806h103.1064c86.8379 0 157.4863-69.9268 157.4863-155.8779v-102.0108a154.2409 154.2409 0 0 0 -37.2348-100.5317z"/><path d="m58.96 307.0054v-102.0108c0-79.3349 65.2656-143.8779 145.4873-143.8779h103.1064a145.7951 145.7951 0 0 1 91.938 32.4561l7.1338-9.6509a157.7341 157.7341 0 0 0 -99.0718-34.8052h-103.1064c-86.8389 0-157.4873 69.9268-157.4873 155.8779v102.0108a153.6327 153.6327 0 0 0 14.09 64.4218l11.1-4.5922a141.7 141.7 0 0 1 -13.19-59.8296z"/></svg>