<svg id="Layer_1" height="512" viewBox="0 0 512 512" width="512" xmlns="http://www.w3.org/2000/svg" data-name="Layer 1"><g fill="rgb(0,0,0)"><path d="m307.85 462.74h-103.11a157.803 157.803 0 0 1 -136.6-78.31l-2.99-5.15a.0178.0178 0 0 1 0-.0293c0-.0205.01-.03.02-.03l10.29-5.9807c.02-.0205.05-.0107.07.01l2.99 5.1494a146.3326 146.3326 0 0 0 126.22 72.3406h103.11a145.3934 145.3934 0 0 0 102.87-42.19 142.2075 142.2075 0 0 0 42.62-101.69v-102.01a141.4837 141.4837 0 0 0 -30.8-88.48l-3.69-4.67c-.01-.0107-.02-.02-.01-.04a.0367.0367 0 0 1 .01-.03l9.34-7.38c.02-.02.05-.01.07.01l3.69 4.67a154.1672 154.1672 0 0 1 33.38 95.92v102.01a153.4126 153.4126 0 0 1 -12.39 60.67 157.6764 157.6764 0 0 1 -145.09 95.21zm-246.61-91.4207h-.02l-.03-.0293-2.27-5.5a153.3526 153.3526 0 0 1 -11.66-58.9306v-102.0094a153.406 153.406 0 0 1 12.39-60.67 154.9556 154.9556 0 0 1 14.54-26.48 157.8011 157.8011 0 0 1 130.55-68.73h103.11a157.8857 157.8857 0 0 1 94.35 31.1l.01.0108 4.77 3.54c.01.01.01.02.02.0293 0 .0108-.01.03-.01.04l-7.1 9.5507a.0487.0487 0 0 1 -.07.01l-4.77-3.54a145.2869 145.2869 0 0 0 -87.2-28.74h-103.11a145.3768 145.3768 0 0 0 -102.87 42.1892 142.2029 142.2029 0 0 0 -42.62 101.69v102.01a141.6559 141.6559 0 0 0 10.76 54.35l2.27 5.5a.0473.0473 0 0 1 -.02.06l-11 4.55zm352.74-265.0293a.0528.0528 0 0 1 -.04-.0205l-8.54-8.2795a.053.053 0 0 1 -.02-.04c0-.0107.01-.02.02-.03l8.28-8.55a.081.081 0 0 1 .07 0l8.54 8.29a.0474.0474 0 0 1 0 .0693l-8.28 8.54c-.01.01-.02.01-.03.0207z"/><path d="m188.13 304.6h-52.8a5.9992 5.9992 0 0 1 -5.17-9.03l39.72-67.87-29.27-54.49a5.9942 5.9942 0 0 1 5.29-8.84h52.79a6.004 6.004 0 0 1 5.26 3.1094l31.68 57.45a6.0275 6.0275 0 0 1 -.1 5.97l-42.24 70.77a6.0394 6.0394 0 0 1 -5.16 2.9306zm-42.33-12h38.93l38.73-64.9-28.31-51.33h-39.22l26.12 48.61a6.04 6.04 0 0 1 -.11 5.87z"/><path d="m343.8 390.08h-62.39a6.01 6.01 0 0 1 -5.16-2.95l-59.68-100.87a5.9655 5.9655 0 0 1 .02-6.13l93.13-155.58a6.0234 6.0234 0 0 1 5.15-2.92h62.38a6 6 0 0 1 5.15 9.08l-42.45 70.92c-.01.01-.02.02-.03.02a.06.06 0 0 1 -.04-.01l-10.21-6.11a.0458.0458 0 0 1 -.01-.0693l37.01-61.83h-48.4l-89.56 149.6 56.12 94.8493h48.45l-54.32-91.82a5.9884 5.9884 0 0 1 .01-6.13l46.52-77.72a.05.05 0 0 1 .07-.0108l10.21 6.11c.03.01.03.04.02.07l-44.68 74.6508 57.85 97.79a6.0026 6.0026 0 0 1 -5.16 9.0606z"/></g></svg>