<svg id="Layer_1" viewBox="0 0 512 512" xmlns="http://www.w3.org/2000/svg" data-name="Layer 1"><path d="m283.7464 278.949c-14.1979 0-20.9785-14.1486-14.3418-24.5654 5.4539-8.56 34.76-49.1454 39.002-54.9756 10.5819-14.5446 22.3419-10.2846 29.2324-2.5049 1.7833 2.0135 25.6226 25.8865 32.9482 35.2491 11.4013 14.5712-3.2387 24.8912-11.91 27.7138-17.4906 5.6933-66.6287 19.083-74.9308 19.083zm34.59-72.8017c-4.2069 6.09-33.6472 46.9886-38.8555 54.7538-2.3423 3.4923.7777 7.1823 7.2207 5.6944 16.5178-3.8145 51.3545-12.6582 68.2734-18.1435 2.6963-.875 10.3336-3.9786 6.1944-8.8623-7.4086-8.7413-31.8968-34.0781-32.1475-34.334-5.1134-5.2198-7.5209-3.6898-10.6856.8916z"/><path d="m312.6937 363.1932c-5.8937-8.1192-30.9964-49.0432-34.5737-54.8877-7.7319-12.6328 1.2681-28.1021 17.2207-23.9981 11.6969 3.0091 60.7329 18.6275 61.2588 18.7637 14.9186 3.8623 22.6586 12.2323 13.959 25.416-5.4364 8.2385-25.4394 35.35-26.6689 37.0137-6.6011 8.3026-20.8811 11.9026-31.1959-2.3076zm-24.4981-61.4053c3.807 5.848 28.79 46.8941 34.4278 54.666 4.5551 6.28 9.7451 4.75 12.5819.6109.9743-1.4212 20.0776-27.109 25.2091-34.9878 2.0816-3.1961 1.9466-4.2761-1.2259-5.5136-.5312-.2071-55.4206-18.0387-66.8768-20.6447-4.4632-1.0153-6.2932 2.5247-4.1161 5.8692z"/><path d="m229.4622 247.0594c-5.2144-5.7893-45.0129-55.2689-59.2695-74.27-12.5689-16.7522-5.5118-25.6055 6.2041-30.542 13.68-5.7644 54.8975-18.8916 56.6348-19.4746.0381-.0127.0764-.0246.1142-.0371 13.4527-4.4418 27.2227 3.8382 27.5127 21.5507.1175 7.1733.8955 73.6954.8955 90.0743 0 17.5227-21.0455 24.9627-32.0918 12.6987zm7.3252-112.89c-1.8349.6153-42.7811 14.1762-56.2334 19.334-5.1112 1.96-7.71 2.9047-.9668 11.8184 0 0 54.14 68.171 59.0371 73.9883 2.6042 3.093 10.93 2.433 10.93-4.95 0-16.3047-.8955-82.7721-.8955-89.9551-.0003-6.8066-3.7703-12.9266-11.8714-10.235z"/><path d="m137.2474 295.826c.2483-11.3246 4.2653-49.0965 4.2685-49.1416.8926-12.2221 15.3526-17.541 25.8184-11.62 6.1693 3.49 49.8311 25.4863 58.6943 30.44 15.44 8.8187 10.9478 28.3787-2.5517 31.9473-8.4891 2.244-67.1389 14.7472-68.36 14.99-7.8334 1.5567-18.2284-.2433-17.8695-16.6157zm16.1894-47.756c-.1894 1.9356-3.6709 37.57-4.2031 48.3477-.1474 2.9668-.3752 5.4531 5.626 3.7422.5938-.1693 57.5-12.628 66.1416-14.45 1.2072-.3314 6.0222-6.0689-.8281-9.73-8.6533-4.8379-52.2227-26.7933-58.5176-30.3437-3.2571-1.8378-7.9371-1.1853-8.2188 2.4338z"/><path d="m238.2659 389.1365c-2.0839-.7831-33.3258-10.307-45.4257-14.0254-9.3317-2.8677-17.8517-14.1477-8.1214-26.0837 5.3375-6.5475 42.6116-45.5022 48.4807-51.5325v.001c12.169-11.3525 28.729-2.4725 28.3536 10.2783-.2149 7.2976-.8614 59.17-.8614 64.9219 0 21.7173-17.9632 18.1173-22.4258 16.4404zm3.5332-83.2715v.001c-5.7861 5.9434-40.5708 43.0958-46.4531 49.1865-5.245 5.4309-2.0275 7.7709.7823 8.5176 12.4073 3.2972 43.5861 13.6133 45.747 14.1211 4.9032 1.1522 6.82 2.3222 6.82-4.6689 0-6.0335.8575-58.0645.8575-65.2481.0003-3.2609-4.5968-4.7333-7.7537-1.9092z"/><path d="m413.5728 106.5757 8.3525-8.6245q-4.1476-4.34-8.6167-8.3623l-8.3438 8.6333q4.4773 3.999 8.608 8.3535z"/><path d="m427.8052 104.4629-9.4 7.4614a142.3046 142.3046 0 0 1 34.6347 93.07v102.0111c0 79.3349-65.2646 143.8779-145.4863 143.8779h-103.1063a145.8293 145.8293 0 0 1 -129.1211-77.6357l-10.3672 6.0551a157.8426 157.8426 0 0 0 139.4883 83.5806h103.1064c86.8379 0 157.4863-69.9268 157.4863-155.8779v-102.0108a154.2409 154.2409 0 0 0 -37.2348-100.5317z"/><path d="m58.96 307.0054v-102.0108c0-79.3349 65.2656-143.8779 145.4873-143.8779h103.1064a145.7951 145.7951 0 0 1 91.938 32.4561l7.1338-9.6509a157.7341 157.7341 0 0 0 -99.0718-34.8052h-103.1064c-86.8389 0-157.4873 69.9268-157.4873 155.8779v102.0108a153.6327 153.6327 0 0 0 14.09 64.4218l11.1-4.5922a141.7 141.7 0 0 1 -13.19-59.8296z"/></svg>