<svg id="Layer_1" viewBox="0 0 512 512" xmlns="http://www.w3.org/2000/svg" data-name="Layer 1"><path d="m362.9876 206.9264-11.5854 2.1421c7.3042 32.0766.5441 67.6265-63.772 74.168a6.0049 6.0049 0 0 0 -2.7009 10.9746c12.9216 8.5376 8.8418 20.166 11.1171 65.4082a16.066 16.066 0 0 0 4.21 9.7968c-7.035-3.1455-7.05-8.0546-6.9432-9.2314.0425-.2212-.3747-34.2183-1.5307-41.9561-2.42-16.2026-16.4466-13.7441-16.4466-5.9375v50.4463a25.4389 25.4389 0 0 0 3.0821 12.3711c-3.8682-2.28-6.7063-4.0937-7.8528-12.8564-.6831-5.2212-.4817-5.97-.4817-51.6719a6 6 0 0 0 -6-6h-4.3135a6.0053 6.0053 0 0 0 -5.9966 6.2012c.8016 23.8584.26 52.664-2.0058 57.9179a17.4218 17.4218 0 0 1 -6.3963 6.7022 29.7871 29.7871 0 0 0 1.2391-3.501c1.781-7.0625 1.25-48.1416 1.0444-60.5644a6.0065 6.0065 0 0 0 -9.3069-4.9063c-.8054.5322-7.8682 5.5537-7.8682 17.832v37.62c0 3.24-3.4484 5.96-7.2983 7.625a15.6114 15.6114 0 0 0 3.7715-10.19v-28.2161a6.0046 6.0046 0 0 0 -6.7356-5.9551 135.975 135.975 0 0 1 -14.7915.8106c-24.8418 0-26.2927-17.6-32.4263-27.1113 5.3985 6.6757 10.73 15.0434 19.6018 17.5156 12.1175 3.374 25.91 1.956 33.5437-3.4483a5.9985 5.9985 0 0 0 2.5027-4.2949 20.29 20.29 0 0 1 8.5523-14.4062 6.005 6.005 0 0 0 -2.7158-10.9766c-91.1724-9.0376-72.4275-86.5962-54.5479-109.15a5.9992 5.9992 0 0 0 1.0784-5.3359c-4.5466-16.3379-1.3454-28.7686.7078-34.2774 5.2422.5215 17.3037 3.2334 35.8208 16.0254a6.0016 6.0016 0 0 0 5.8293.5547c14.3889-6.3389 53.4746-6.1631 71.0623-1.4092a6.004 6.004 0 0 0 4.79-.7314c15.3252-9.7647 29.5879-15.2715 35.2551-15.1387 1.759 3.5967 4.7634 13.0674 1.335 32.1016a6.0011 6.0011 0 0 0 .5478 3.7656 193.5856 193.5856 0 0 1 13.23 32.4575l11.1934-3.8227a195.1408 195.1408 0 0 0 -12.82-32.2588c4.2146-25.67-1.9885-37.31-4.9116-41.1748a6.0079 6.0079 0 0 0 -2.5742-1.959c-11.9824-4.7471-35.6729 8.4853-45.5059 14.5332-19.6916-4.501-55.5053-4.5166-73.24 1.4277-27.9636-18.5683-43.2488-16.59-44.9463-16.2929a5.999 5.999 0 0 0 -4.2124 2.999c-.42.7578-9.8728 18.2226-3.867 43.5283-21.7226 30.9463-32.8837 109.3154 52.83 124.4922a31.8835 31.8835 0 0 0 -4.3406 10.6474c-21.1824 9.1143-31.2044-8.2592-32.4338-9.8378-6.4012-8.2207-15.1668-19.4815-30.587-16.1788-7.6462 1.5406-11.6316 9.7852-2.3637 16.6768 5.6316 4.0957 10.6079 7.3091 14.3755 17.0195 9.7751 25.4663 32.3757 26.0606 39.2363 26.0606 3.5779 0 6.8608-.14 9.5271-.31v21.6709c0 5.5151-12.94 7.47-12.94 16.2461 0 9.4517 15.9963 9.5527 26.8176 4.5928-.8281 7.3476 5.5691 9.1211 6.5979 9.3662 7.6746 1.8252 20.5742-4.0361 26.4851-14.3682 5.2593 10.3262 21.6482 17.06 28.0681 14.3838 4.7742-1.9907 5.385-6.72 5.0257-9.3281 6.5566 3.03 18.23 3.6772 22.9236.2861.2143-.1553 8.6674-6.1816-3.2422-14.5273-2.6038-1.8233-6.5386-4.58-6.658-6.9531-1.79-35.5914.8206-53.2286-7.0122-65.5323 64.3967-11.5235 69.3318-53.0205 61.9694-86.5571z"/><path d="m413.5728 106.5757 8.3525-8.6245q-4.1476-4.34-8.6167-8.3623l-8.3438 8.6333q4.4773 3.999 8.608 8.3535z"/><path d="m427.8052 104.4629-9.4 7.4614a142.3046 142.3046 0 0 1 34.6347 93.07v102.0111c0 79.3349-65.2646 143.8779-145.4863 143.8779h-103.1063a145.8293 145.8293 0 0 1 -129.1211-77.6357l-10.3672 6.0551a157.8426 157.8426 0 0 0 139.4883 83.5806h103.1064c86.8379 0 157.4863-69.9268 157.4863-155.8779v-102.0108a154.2409 154.2409 0 0 0 -37.2348-100.5317z"/><path d="m58.96 307.0054v-102.0108c0-79.3349 65.2656-143.8779 145.4873-143.8779h103.1064a145.7951 145.7951 0 0 1 91.938 32.4561l7.1338-9.6509a157.7341 157.7341 0 0 0 -99.0718-34.8052h-103.1064c-86.8389 0-157.4873 69.9268-157.4873 155.8779v102.0108a153.6327 153.6327 0 0 0 14.09 64.4218l11.1-4.5922a141.7 141.7 0 0 1 -13.19-59.8296z"/></svg>