<svg id="Layer_1" viewBox="0 0 512 512" xmlns="http://www.w3.org/2000/svg" data-name="Layer 1"><path d="m244.55 264.1947a6.1576 6.1576 0 0 0 -2.5383-6.8056c-37.9938-26.5773-75.8246-12.8616-94.7-5.3366a5.97 5.97 0 0 0 -3.5 3.8643l-22.99 77.9036a6 6 0 0 0 7.6472 7.3917c11.5922-3.85 47.3518-20.6918 83.4623 5.5867 3.1085 2.2621 7.5821.21 8.6993-3.4682 7.5195-24.7612 19.8987-65.8006 23.9195-79.1359zm-33.17 68.3383c-30.4018-20.3612-63.597-9.9213-75.8906-6.0186l19.027-64.4744c24.6234-10.1775 54.09-12.3 77.1934 2.8867-2.374 7.6199-17.8028 59.3113-20.3298 67.6063z"/><path d="m258.1722 268.9739a7.0073 7.0073 0 0 0 -10.04 4.0546l-23.51 75.3509a7.01 7.01 0 0 0 3.3643 8.2489c15.0708 8.1719 42.4518 28.6235 102.0422 5.9219a7.25 7.25 0 0 0 4.4818-4.649l21.6879-73.2629a6.9921 6.9921 0 0 0 -8.4908-8.7555c-53.6897 14.509-74.6592 1.136-89.5354-6.9089zm65.563 83.0493c-50.2373 18.1086-73.1785 3.3667-86.4473-3.95l20.4-65.3828c25.5679 14.8056 56.6421 14.4309 84.4873 7.041z"/><path d="m245.3035 244.0971c3.2064 2.1576 7.6118.1594 8.6974-3.55 7.7978-26.6442 16.2463-53.0692 25.0216-79.41a5.9946 5.9946 0 0 0 -2.8777-7.1989c-15.8168-8.3433-41.2869-26.2071-101.4556-4.517a6.1618 6.1618 0 0 0 -3.8686 3.9309l-24.0259 77.6825a5.9981 5.9981 0 0 0 7.6395 7.46c14.2674-4.8 51.7871-20.6946 90.8693 5.6025zm-63.9336-84.24c50.608-17.2454 71.1965-5.1609 84.6846 2.2051-5.4482 16.2763-16.001 48.7353-21.45 67.6787-25.6081-14.9292-55.2619-15.29-82.9365-6.1807z"/><path d="m291.6582 166.111c-3.1948-2.2546-7.7016-.35-8.8384 3.3914l-23.9223 78.7312a5.9919 5.9919 0 0 0 2.7516 6.9472c17.0891 9.7716 50.4306 26.4389 102.3393 4.3837a5.96 5.96 0 0 0 3.3433-3.7277l23.8218-76.7451a6 6 0 0 0 -7.577-7.4874s-51.7586 22.8475-91.9183-5.4933zm65.033 83.5255c-27.0807 11.6862-58.93 12.486-84.9238-2.4834l20.3144-66.8565c25.2011 15.0688 56.8364 15.1314 84.1817 6.2852z"/><path d="m413.5728 106.5757 8.3525-8.6245q-4.1476-4.34-8.6167-8.3623l-8.3438 8.6333q4.4773 3.999 8.608 8.3535z"/><path d="m427.8052 104.4629-9.4 7.4614a142.3046 142.3046 0 0 1 34.6347 93.07v102.0111c0 79.3349-65.2646 143.8779-145.4863 143.8779h-103.1063a145.8293 145.8293 0 0 1 -129.1211-77.6357l-10.3672 6.0551a157.8426 157.8426 0 0 0 139.4883 83.5806h103.1064c86.8379 0 157.4863-69.9268 157.4863-155.8779v-102.0108a154.2409 154.2409 0 0 0 -37.2348-100.5317z"/><path d="m58.96 307.0054v-102.0108c0-79.3349 65.2656-143.8779 145.4873-143.8779h103.1064a145.7951 145.7951 0 0 1 91.938 32.4561l7.1338-9.6509a157.7341 157.7341 0 0 0 -99.0718-34.8052h-103.1064c-86.8389 0-157.4873 69.9268-157.4873 155.8779v102.0108a153.6327 153.6327 0 0 0 14.09 64.4218l11.1-4.5922a141.7 141.7 0 0 1 -13.19-59.8296z"/></svg>