<svg height="512" viewBox="0 0 512 512" width="512" xmlns="http://www.w3.org/2000/svg"><g id="Chatting"><path d="m214.55 123.22a122.84 122.84 0 0 0 .35 40.06c3.71 21 10.88 28.43 10.64 43.25-.18 10.31-3.95 24.94-20.92 42.54 0 0 113.44 45 195 0 0 0-20.86-15.6-22.84-36.16s16.1-54.64 9.37-80.32z" fill="#383333"/><path d="m232.67 143c-.84-.73-5.43-4.58-11.65-3.76-.9.11-4.52.59-6.84 3-6 6.3-2.49 24.91 8.75 29.1 6.28 2.34 12.64-.7 14.78-1.84z" fill="#ffc871"/><path d="m227 165.36a.48.48 0 0 1 -.33-.13c-2.91-2.5-4.31-5.19-4.18-8 .16-3.26 2.35-5.84 3.8-7.21l-8.92.93a.51.51 0 0 1 -.55-.45.5.5 0 0 1 .44-.55l10.55-1.09a.5.5 0 0 1 .34.9s-4.45 3.2-4.66 7.52c-.12 2.49 1.17 4.91 3.83 7.2a.5.5 0 0 1 -.32.88z"/><path d="m368.59 140.12c.82-.77 5.25-4.79 11.49-4.23.91.08 4.54.41 6.95 2.75 6.26 6.05 3.5 24.79-7.56 29.42-6.19 2.59-12.66-.18-14.84-1.24z" fill="#ffc871"/><path d="m375.19 162.26a.46.46 0 0 1 -.36-.16.5.5 0 0 1 0-.71c2.57-2.39 3.76-4.86 3.54-7.34-.38-4.31-4.92-7.3-5-7.33a.48.48 0 0 1 -.2-.57.47.47 0 0 1 .5-.34l10.59.66a.52.52 0 0 1 .47.54.5.5 0 0 1 -.54.46l-8.95-.56c1.51 1.31 3.8 3.8 4.09 7.05.24 2.8-1.05 5.55-3.86 8.16a.49.49 0 0 1 -.28.14z"/><circle cx="301.13" cy="133.51" fill="#ffdb99" r="75.62"/><path d="m283.59 196.54c1.61 7.84 3 20.79-3 33.11-9.59 19.58-27.89 16.73-39.89 30.85-22 25.87 11.56 68.1 8.28 135.44a201.14 201.14 0 0 1 -14.3 64.72 205.17 205.17 0 0 0 61 17.68c46 5.8 83-5.6 102.25-13.17a245.32 245.32 0 0 1 -12.79-88.79c.49-11.93 1.42-13.16 2.25-29.35 2.75-53.5 8.09-85.54-11.28-95.94-20.32-10.91-45-15.8-50.42-26.71s-5.27-33.11-5.27-33.11-12.75-13.55-36.83 5.27z" fill="#ffdb99"/><path d="m282.75 224.3s17 10.84 43 .08l-1.64-17.14-41.34 1.89z" fill="#ffc871"/><path d="m225.94 141.55c5.1 35.91 27.12 64.79 56.76 73.6a70.78 70.78 0 0 0 45.15-1.88c27.64-10.9 46.58-39.67 48.91-74 0 .02-96.22-64.92-150.82 2.28z" fill="#ffdb99"/><path d="m349.2 130.14a23.12 23.12 0 0 0 -13.2-4.57c-3.23-.13-7.6-.31-9 2.2a3.54 3.54 0 0 0 0 3.56c1.48 2 5.32.29 11.47.34 8.09.06 13.3 3.22 13.85 2.07.45-.84-2.11-2.82-3.12-3.6z" fill="#383333"/><path d="m256.05 133.8a23.16 23.16 0 0 1 12.59-6.05c3.18-.51 7.5-1.19 9.17 1.14a3.53 3.53 0 0 1 .38 3.55c-1.23 2.21-5.24.89-11.35 1.65-8 1-12.84 4.73-13.53 3.65-.49-.74 1.83-3.05 2.74-3.94z" fill="#383333"/><path d="m306.81 163.23c-3.42 0-7.95-.4-8.75-2.42-1.07-2.68 3.89-13.88 4.89-16.1a.75.75 0 0 1 1.37.62c-2.39 5.28-5.48 13.4-4.87 14.93.48 1.2 5.79 1.68 10.46 1.37a.75.75 0 1 1 .1 1.49c-.71.05-1.87.11-3.2.11z"/><path d="m305.41 197.63a15.43 15.43 0 0 1 -4.41-.63.49.49 0 0 1 -.32-.62.5.5 0 0 1 .63-.33s5.06 1.57 8.88-.5a.49.49 0 0 1 .67.21.48.48 0 0 1 -.2.67 10.91 10.91 0 0 1 -5.25 1.2z"/><ellipse cx="342.1" cy="170.94" fill="#ffc871" rx="8.97" ry="5.59"/><ellipse cx="259.37" cy="170.94" fill="#ffc871" rx="8.97" ry="5.59"/><path d="m286.86 69a177.28 177.28 0 0 0 36.14 39 178.36 178.36 0 0 0 65.57 32.75c2.74-35.21-13.92-67.53-41.81-81.67-24.68-12.51-49.3-6.31-56.37-4.26-7.36-1.37-26.26-3.78-44.19 6.66-24.25 14.13-36.75 46-30.08 79.27a27.76 27.76 0 0 0 11.52-1.2c5-1.66 11.8-5.65 22.73-25.17 10.48-18.71 9.35-24.21 17.69-33a52.25 52.25 0 0 1 18.8-12.38z" fill="#383333"/><path d="m272.33 241.63a112.36 112.36 0 0 0 -20.56 6.73 126.23 126.23 0 0 0 -12.41 6.38c-17 10.26-29.6 39.94-35.09 52.82-5.08 11.89-13.46 31.39-25.88 59.56l33.71 28.82s27.26-23.86 42.86-81.29c3.2-9.31 6.27-19.41 9-30.27a383.77 383.77 0 0 0 8.37-42.75z" fill="#ff8d93"/><path d="m356.7 241.63a112.36 112.36 0 0 1 20.56 6.73 126.23 126.23 0 0 1 12.41 6.38c17 10.26 29.6 39.94 35.1 52.82 5.07 11.89 13.45 31.39 25.88 59.56l-33.72 28.82s-27.26-23.86-42.86-81.29c-3.2-9.31-6.27-19.41-9-30.27a388.39 388.39 0 0 1 -8.37-42.75z" fill="#ff8d93"/><path d="m271.09 241.32a37.09 37.09 0 0 0 17.33 15.68 39.94 39.94 0 0 0 22 2c27.87-5.32 31.7-22.66 31.7-22.66s39.06 11.84 48.46 20.71 4.68 70.56-.24 107.23 13.35 98.91 13.35 98.91-85.61 52.64-174.41-5.85c0 0 12.54-29 16.22-52.11s-9.72-77.9-12.3-105c-.35-3.65-3.49-38.69 10.13-47.7a73.62 73.62 0 0 1 6.69-3.75 88.24 88.24 0 0 1 21.07-7.46z" fill="#ff8d93"/><path d="m112 328.22s63.62 92.78 100.1 67.72-76.75-83.52-76.75-83.52z" fill="#ff8d93"/><path d="m447.61 279.84s27.44 109.07-15.48 119.84-11.81-112.82-11.81-112.82z" fill="#ff8d93"/><path d="m116.9 335s-14-14.3-20.23-25.82-16.57-36.13-13.38-40.1 23.13 21.56 30.84 24.22 26.66 22 26.66 22-5.96 20.14-23.89 19.7z" fill="#ffdb99"/><rect fill="#383333" height="10.11" rx="1.22" transform="matrix(.718 .697 -.697 .718 223.05 7.85)" width="85.79" x="58.95" y="273.87"/><path d="m118.47 280s-10.76-4.4-10-1.53 7.19 7 8.67 8.41 4.13 5.06 5.7 5.54-.52-8.13-4.37-12.42z" fill="#ffdb99"/><path d="m83.28 275.91s-2.82-9.73.46-11.6 6 8.07 6 8.07 1.11-3.55 3.5-2.38 3.76 9.47 3.76 9.47 1.2-2.79 3.13-1.13 5.22 11 7.17 12.9-5.43 3.32-5.43 3.32-7.46-4.72-7.66-5.12-10.93-13.53-10.93-13.53z" fill="#ffdb99"/><path d="m420.94 291.81s-6.51-10.78-7.12-19.93 5.7-19.92 5.7-19.92-11.07-34.37-5.74-37.82 14.07 30.86 14.07 30.86-1.42-33.55 4.28-32.73 6.71 33.34 6.71 33.34a8 8 0 0 1 8.44 10.16 9.59 9.59 0 0 1 6.11 2.83c3.45 3.88 1.72 10.45-.53 18.53-2.11 7.59-3.17 11.39-5.76 13.82-5.68 5.37-16.03 5.21-26.16.86z" fill="#ffdb99"/><path d="m430.26 277.24a.24.24 0 0 1 -.24-.2c-.78-3.89-5.67-10.92-5.72-11a.26.26 0 0 1 0-.28.24.24 0 0 1 .27-.1 20.16 20.16 0 0 0 9.21-.73c3-.89 5.06-2.38 5.42-4a1.66 1.66 0 0 0 -.5-1.68c-.54-.47-2-.64-3.46-.82-2.45-.29-5.48-.64-6.94-2.49-2.21-2.81-8.74-3.75-8.81-3.76a.24.24 0 0 1 -.21-.28.25.25 0 0 1 .28-.21c.28 0 6.8 1 9.14 3.94 1.32 1.68 4.24 2 6.59 2.31 1.66.19 3.09.36 3.74.94a2.16 2.16 0 0 1 .66 2.15c-.4 1.8-2.56 3.43-5.77 4.37a21.68 21.68 0 0 1 -8.87.84c1.15 1.69 4.78 7.25 5.47 10.68a.25.25 0 0 1 -.2.29z"/><path d="m429.5 257a.27.27 0 0 1 -.16-.06.25.25 0 0 1 0-.35l9.33-11.06a.26.26 0 0 1 .36 0 .25.25 0 0 1 0 .35l-9.34 11.06a.23.23 0 0 1 -.19.06z"/><path d="m439.49 259.78a.27.27 0 0 1 -.23-.14.27.27 0 0 1 .12-.34l7.79-3.72a.24.24 0 0 1 .33.12.25.25 0 0 1 -.11.33l-7.79 3.72a.23.23 0 0 1 -.11.03z"/><path d="m441.14 266.26a8.89 8.89 0 0 1 -5.52-1.6.25.25 0 0 1 .32-.38c.05 0 4.49 3.58 12.82-.54a.25.25 0 1 1 .22.44 17.73 17.73 0 0 1 -7.84 2.08z"/><path d="m100.18 295.67a.28.28 0 0 1 -.23-.13c-1.46-2.8-3.14-15.5-3.21-16a.25.25 0 0 1 .21-.28.26.26 0 0 1 .28.22c0 .13 1.74 13.15 3.17 15.87a.25.25 0 0 1 -.11.33z"/><path d="m92.73 292.73a.25.25 0 0 1 -.23-.16c-2.12-5.18-3-19.57-3-20.18a.25.25 0 0 1 .24-.26.25.25 0 0 1 .26.24c0 .14.87 14.91 2.95 20a.26.26 0 0 1 -.13.33z"/><path d="m409.43 376.48a.5.5 0 0 1 -.49-.39c-6.43-29.21 8.44-78.81 8.59-79.31a.5.5 0 0 1 .62-.33.49.49 0 0 1 .34.62 287.48 287.48 0 0 0 -6.71 28.45c-2.69 14.63-5.19 35.24-1.87 50.36a.49.49 0 0 1 -.38.59z"/><path d="m242.91 353.79a.51.51 0 0 1 -.36-.15c-6.74-6.91-10.48-14.13-11.12-21.46-.54-6.18 1.22-10.83 3.66-17.28a157.48 157.48 0 0 0 5.21-15.62 139.94 139.94 0 0 0 3.88-20.13.49.49 0 0 1 .56-.44.5.5 0 0 1 .44.55 140.43 140.43 0 0 1 -3.92 20.28 158.2 158.2 0 0 1 -5.26 15.72c-2.49 6.55-4.13 10.88-3.6 16.83.62 7.1 4.26 14.11 10.83 20.86a.49.49 0 0 1 -.35.84z"/><path d="m388.59 356.51a.48.48 0 0 1 -.48-.38c-4.87-20.52 2.69-65.36 2.76-65.81a.51.51 0 0 1 .58-.41.5.5 0 0 1 .41.58c-.08.45-7.6 45.09-2.78 65.41a.5.5 0 0 1 -.37.6z"/><path d="m213.49 369.81a.5.5 0 0 1 -.47-.33c-5.66-15.44-25-23.7-25.22-23.79a.51.51 0 0 1 -.27-.65.5.5 0 0 1 .66-.27c.2.08 20 8.52 25.77 24.37a.51.51 0 0 1 -.3.64z"/><ellipse cx="303.92" cy="185.07" fill="#fff" rx="5.28" ry="7.53"/><path d="m169 115.2s6.92 50.85 0 67.43-62.21 13.24-64.87 15.18-5.58 11.68-19.67 12c0 0 6.91-9.67 3.19-12s-11.17.94-17.29-4.81-13-64.77-9.83-74.34 65.93-12 76.57-12.5 29.28-.8 31.9 9.04z" fill="#37ad36"/><path d="m82.51 109.81s-6.91 50.84 0 67.43 62.22 13.24 64.88 15.18 5.58 11.68 19.67 12c0 0-6.91-9.67-3.19-12s11.17.94 17.28-4.81 13-64.77 9.84-74.34-65.94-12-76.57-12.5-29.25-.77-31.91 9.04z" fill="#ffb833"/><circle cx="109.32" cy="144.55" fill="#383333" r="6.61"/><circle cx="133.01" cy="144.55" fill="#383333" r="6.61"/><circle cx="157.21" cy="144.55" fill="#383333" r="6.61"/><path d="m428.81 130a21.33 21.33 0 0 1 5.42 3.61 22.55 22.55 0 0 1 6.56 11.39 16.72 16.72 0 0 1 4.1-10.51 16.51 16.51 0 0 1 8-4.92 15.52 15.52 0 0 1 -7.38-3.12 16 16 0 0 1 -5.74-9.85 14.19 14.19 0 0 1 -2.47 7.72 14.44 14.44 0 0 1 -8.49 5.68z" fill="#ffb833"/><path d="m160 258.79a21.33 21.33 0 0 1 5.42 3.61 22.57 22.57 0 0 1 6.58 11.32 16.68 16.68 0 0 1 4.11-10.5 16.47 16.47 0 0 1 8-4.92 15.65 15.65 0 0 1 -7.39-3.12 16 16 0 0 1 -5.74-9.85 14.25 14.25 0 0 1 -2.46 7.72 14.48 14.48 0 0 1 -8.52 5.74z" fill="#ffb833"/><path d="m179.73 52.55a27.88 27.88 0 0 1 7.08 4.72 29.5 29.5 0 0 1 8.59 14.81 21.82 21.82 0 0 1 5.37-13.74 21.57 21.57 0 0 1 10.51-6.44 20.35 20.35 0 0 1 -9.66-4.08 21 21 0 0 1 -7.51-12.82 18.45 18.45 0 0 1 -3.22 10 19 19 0 0 1 -11.16 7.55z" fill="#ffb833"/><g fill="#fff"><path d="m372 117.12c-31.29 0-73.26-48.73-73.69-49.23a.49.49 0 0 1 .05-.7.51.51 0 0 1 .71 0c.43.51 43.71 50.72 74.65 48.83a.5.5 0 1 1 .06 1c-.64.08-1.23.1-1.78.1z"/><path d="m373.7 99.17c-9.55 0-20.89-5.31-28.73-9.77a138.51 138.51 0 0 1 -14.83-9.74.5.5 0 1 1 .61-.79c.25.19 25.06 19.3 42.95 19.3a.5.5 0 0 1 .5.5.5.5 0 0 1 -.5.5z"/><path d="m223.06 127.77h-.55a.5.5 0 0 1 -.47-.53.51.51 0 0 1 .53-.47c3.58.24 13-2.29 23.77-30.76 5.06-13.43 23.9-23.91 24.7-24.35a.5.5 0 0 1 .68.2.51.51 0 0 1 -.2.68c-.19.1-19.32 10.74-24.25 23.82-3.59 9.51-13.05 31.41-24.21 31.41z"/><path d="m225.94 106.45h-.09a.51.51 0 0 1 -.41-.58c3.33-19.57 30.4-37 30.67-37.13a.5.5 0 0 1 .54.84c-.27.17-27 17.33-30.22 36.46a.49.49 0 0 1 -.49.41z"/><path d="m370.44 234a.5.5 0 0 1 -.35-.14c-14.4-14.4-6-44.07-5.94-44.37a.5.5 0 1 1 1 .28c-.09.29-8.3 29.4 5.68 43.38a.5.5 0 0 1 0 .71.52.52 0 0 1 -.39.14z"/><path d="m348.9 226.26a.5.5 0 0 1 -.37-.16c-4.89-5.44-2.92-16.59-2.83-17.06a.5.5 0 1 1 1 .18c0 .11-2 11.14 2.59 16.21a.49.49 0 0 1 0 .7.5.5 0 0 1 -.39.13z"/><path d="m234.58 242.13a.55.55 0 0 1 -.34-.13.51.51 0 0 1 0-.71c13.46-15.1-1.34-52.45-1.49-52.83a.5.5 0 0 1 .93-.37 121.68 121.68 0 0 1 5.87 20.91c2.79 15.29 1.24 26.37-4.6 32.92a.51.51 0 0 1 -.37.21z"/><path d="m255.05 234a.48.48 0 0 1 -.28-.08.5.5 0 0 1 -.14-.69c5.12-7.67 1.58-18 1.54-18.08a.5.5 0 0 1 .95-.34c.15.44 3.74 10.88-1.66 19a.49.49 0 0 1 -.41.19z"/></g><path d="m277.41 145.7c.46.18-6.22-5.78-13.05-2.17s-3.54 8.82-8.9 10.88c0 0 5.33 2 7.65-1.9s4.17-10.68 14.3-6.81z" fill="#383333"/><circle cx="270.92" cy="152.73" fill="#fff" r="10.06"/><circle cx="272.07" cy="152.39" fill="#383333" r="7.19"/><circle cx="273.95" cy="148.51" fill="#fff" r="2.09"/><path d="m329.22 144.52c-.43.23 5.52-6.45 12.72-3.65s4.53 8.36 10.09 9.79c0 0-5.07 2.56-7.82-1s-5.37-10.14-14.99-5.14z" fill="#383333"/><circle cx="336.48" cy="150.76" fill="#fff" r="10.06"/><circle cx="335.29" cy="150.56" fill="#383333" r="7.19"/><circle cx="332.98" cy="146.92" fill="#fff" r="2.09"/></g></svg>