<svg height="512" viewBox="0 0 512 512" width="512" xmlns="http://www.w3.org/2000/svg"><g id="Dance"><path d="m330.3 97.24a21.08 21.08 0 0 1 5.29 3.52 22 22 0 0 1 6.4 11 16.23 16.23 0 0 1 4-10.24 16 16 0 0 1 7.84-4.8 15.21 15.21 0 0 1 -7.2-3 15.63 15.63 0 0 1 -5.6-9.61 13.88 13.88 0 0 1 -2.4 7.53 14.14 14.14 0 0 1 -8.33 5.6z" fill="#ffb833"/><path d="m330.3 291.77a20.61 20.61 0 0 1 5.28 3.52 21.94 21.94 0 0 1 6.41 11 16.23 16.23 0 0 1 4-10.24 16 16 0 0 1 7.84-4.8 15.21 15.21 0 0 1 -7.2-3 15.63 15.63 0 0 1 -5.6-9.61 13.83 13.83 0 0 1 -2.4 7.52 14.17 14.17 0 0 1 -8.33 5.61z" fill="#ffb833"/><path d="m118.74 127.24a27.46 27.46 0 0 1 6.91 4.61 28.64 28.64 0 0 1 8.35 14.44 21.3 21.3 0 0 1 5.24-13.4 21 21 0 0 1 10.26-6.28 19.72 19.72 0 0 1 -9.42-4 20.41 20.41 0 0 1 -7.33-12.56 18.17 18.17 0 0 1 -3.14 9.84 18.47 18.47 0 0 1 -10.87 7.35z" fill="#ffb833"/><path d="m269.85 280.46c19.14 7.27 27.09 13.6 30.71 18.24 2.41 3.11 4 5.47 7.69 10 5.61 6.81 7.06 7.48 7.5 11.29.9 7.6-8.34 25.91-18.23 24.32-7.21-1.16-10.82-12.28-11.25-13.68q-8.2-25.09-16.42-50.17z" fill="#ffb833"/><path d="m170 275.86a129.89 129.89 0 0 0 -11 26.94c-3.45 12.2-4 21.42-10.6 34.2a82.92 82.92 0 0 1 -6.4 10.29 96.58 96.58 0 0 0 9.16 5.07c33.43 16.26 68.85 10.11 90.1 3.95l-18.67-69.31z" fill="#37ad36"/><path d="m271.37 278a86.45 86.45 0 0 1 28.88 66.27 38.89 38.89 0 0 1 -6.38 5.47c-11 7.49-22.77 7.18-27.36 7a51.55 51.55 0 0 1 -20.37-5.17q4.74-12.94 9.39-26.25 8.39-23.98 15.84-47.32z" fill="#37ad36"/><path d="m142.42 438.65a25.88 25.88 0 0 1 -8.22 12.74c-7.46 5.95-15.57 4.28-19 10.15-1.88 3.21-1.5 7.15-.48 10.64l52.25 1.69a3.28 3.28 0 0 0 3.27-2.37l7.76-26.88z" fill="#ff1a26"/><path d="m276.22 442.6 11.09 21.32s20.69 20.69 33.28 19 21.54-13.58-7.25-36.12l-10.88-22.32s-25.38 5.76-26.24 18.12z" fill="#ff1a26"/><circle cx="235.27" cy="97.56" fill="#383333" r="41.67"/><path d="m267.37 112c.71 5.41 2.62 13 8.56 18.41 8.17 7.45 16.68 4.15 23.86 11.67 7.63 8 6.22 20.33 6 22.57-2 17.78-18.5 26.39-20 27.13.35-9.78-.94-22.56-9.59-31-5.7-5.58-10.68-5.45-15.56-10.64s-9.23-15.57-4.64-37.14z" fill="#383333"/><g fill="#ff1a26"><ellipse cx="86.49" cy="196.85" rx="7.65" ry="5.11" transform="matrix(.924 -.382 .382 .924 -68.66 47.99)"/><path d="m91.2 169.28h2.07v26.19h-2.07z"/><path d="m91.28 175a18.52 18.52 0 0 0 7.39 1 5.68 5.68 0 0 1 5 2.07.32.32 0 0 0 .56-.24c-.39-4.62-1.74-6.32-3-6.93-.93-.43-1.65-.23-3.14-.39a14.18 14.18 0 0 1 -6.91-2.79c-.01 2.49.05 4.9.1 7.28z"/><ellipse cx="84.9" cy="255.78" rx="7.65" ry="5.11" transform="matrix(.924 -.382 .382 .924 -91.3 51.85)"/><path d="m89.61 228.21h2.07v26.19h-2.07z"/><ellipse cx="107.46" cy="249.7" rx="7.65" ry="5.11" transform="matrix(.924 -.382 .382 .924 -87.27 60.02)"/><path d="m112.17 222.14h2.07v26.19h-2.07z"/><path d="m89.81 236.11 24.38-8.5v-8.19l-24.81 7.01z"/><ellipse cx="380.4" cy="199.98" rx="5.11" ry="7.65" transform="matrix(.38 -.92 .92 .38 50.23 475.08)"/><path d="m373.61 172.41h2.07v26.19h-2.07z"/><path d="m375.6 178.15a18.52 18.52 0 0 1 -7.39 1 5.69 5.69 0 0 0 -5 2.07.32.32 0 0 1 -.56-.23c.4-4.63 1.74-6.33 3-6.94.93-.43 1.65-.23 3.15-.39a14.26 14.26 0 0 0 6.9-2.78c.01 2.45-.05 4.86-.1 7.27z"/><ellipse cx="381.98" cy="258.9" rx="5.11" ry="7.65" transform="matrix(.382 -.924 .924 .382 -3.23 512.96)"/><path d="m375.2 231.33h2.07v26.19h-2.07z"/><ellipse cx="359.42" cy="252.83" rx="5.11" ry="7.65" transform="matrix(.382 -.924 .924 .382 -11.56 488.35)"/><path d="m352.64 225.26h2.07v26.19h-2.07z"/><path d="m377.07 239.23-24.38-8.5v-8.19l24.81 7.01z"/></g><path d="m271.91 91.75a9.46 9.46 0 0 1 7.16-2.32 7.33 7.33 0 0 1 4.2 1.86c3.69 3.87 1.53 15.31-5.37 17.88-3.86 1.44-7.77-.43-9.08-1.13z" fill="#ff8c5f"/><path d="m275.43 105.44a.27.27 0 0 1 -.19-.08.26.26 0 0 1 0-.36c1.66-1.42 2.45-2.92 2.38-4.46-.13-2.69-2.86-4.65-2.89-4.67a.25.25 0 0 1 -.09-.29.26.26 0 0 1 .26-.16l6.48.67a.25.25 0 1 1 0 .5l-5.68-.59a6.93 6.93 0 0 1 2.44 4.51c.08 1.71-.78 3.35-2.55 4.87a.25.25 0 0 1 -.16.06z"/><path d="m186.88 90a9.46 9.46 0 0 0 -7.06-2.6 7.24 7.24 0 0 0 -4.27 1.68c-3.84 3.73-2.15 15.24 4.65 18.08 3.79 1.6 7.77-.11 9.11-.76z" fill="#ff8c5f"/><path d="m182.82 103.54a.23.23 0 0 1 -.17-.07c-1.71-1.59-2.5-3.26-2.35-5a6.91 6.91 0 0 1 2.63-4.4l-5.68.36a.23.23 0 0 1 -.26-.24.24.24 0 0 1 .23-.26l6.5-.42a.27.27 0 0 1 .26.18.26.26 0 0 1 -.1.28s-2.84 1.87-3.08 4.55c-.13 1.54.6 3.07 2.19 4.56a.25.25 0 0 1 0 .35.27.27 0 0 1 -.17.11z"/><circle cx="230.28" cy="85.88" fill="#ffb08d" r="48.12"/><path d="m215.78 126.71c.38 5.37 0 13-4.78 18.73-7.52 9.08-17.84 3.58-26.44 9.79-14.11 10.19-3.47 37.34-7.28 87.83-.87 11.56-2.26 21.06-3.33 27.47a107.92 107.92 0 0 0 35 12c30.53 4.84 55-4.94 65.37-9.88a66 66 0 0 1 -7.91-18.32c-4.59-17.73-.74-34.58 1.94-45.84 3.94-16.47 8.93-27.45 4.17-39.31a17.23 17.23 0 0 0 -2.57-4.33c-7.09-9-18.93-5.21-23.94-15.63-3.63-7.56-2.49-20.15-2.49-20.19a73.45 73.45 0 0 0 -27.69-2.29z" fill="#ffb08d"/><path d="m213.48 141.56s17.6 6.25 30.53 1.1l-.7-10.44-27.45-1.05z" fill="#ff8c5f"/><path d="m278.13 91c-3.25 22.85-17.26 41.23-36.12 46.83a45 45 0 0 1 -28.73-1.19c-17.59-6.94-29.64-25.25-31.12-47.08 0 0 61.22-41.32 95.97 1.44z" fill="#ffb08d"/><path d="m199.69 83.74a14.74 14.74 0 0 1 8.4-2.91c2-.08 4.83-.2 5.72 1.4a2.27 2.27 0 0 1 0 2.27c-.94 1.3-3.38.18-7.3.21-5.15 0-8.46 2.05-8.81 1.32-.28-.53 1.35-1.79 1.99-2.29z" fill="#383333"/><path d="m259 86.07a14.69 14.69 0 0 0 -8-3.85c-2-.32-4.78-.76-5.84.72a2.26 2.26 0 0 0 -.24 2.26c.78 1.41 3.34.57 7.22 1 5.11.63 8.18 3 8.61 2.32.25-.44-1.2-1.89-1.75-2.45z" fill="#383333"/><path d="m226.66 104.82c-.84 0-1.58 0-2-.07a.51.51 0 0 1 -.47-.53.5.5 0 0 1 .54-.47c3 .2 6.33-.1 6.63-.85s-1.3-5.52-3.09-9.49a.49.49 0 0 1 .24-.66.52.52 0 0 1 .67.25c.64 1.42 3.79 8.55 3.11 10.26-.54 1.3-3.45 1.56-5.63 1.56z"/><path d="m229.75 121.34a7 7 0 0 1 -3.3-.76.26.26 0 0 1 -.1-.34.25.25 0 0 1 .34-.1c2.46 1.33 5.67.33 5.71.32a.25.25 0 0 1 .31.16.26.26 0 0 1 -.16.32 10.38 10.38 0 0 1 -2.8.4z"/><ellipse cx="204.21" cy="109.7" fill="#ff8c5f" rx="5.71" ry="3.56"/><ellipse cx="255.91" cy="109.7" fill="#ff8c5f" rx="5.71" ry="3.56"/><path d="m243.43 94.76c-.18-.5 4.8-3.89 9.37-2.73a6.31 6.31 0 0 1 2.51 1.09c2 1.52 2 3.8 4.79 4.07a7.6 7.6 0 0 1 -1.52.32 8.27 8.27 0 0 1 -1.4 0c-1.54-.11-3.06-2.28-4.15-3.15-3.26-2.57-9.4.95-9.6.4z" fill="#383333"/><path d="m214.29 94.93c.26-.47-4.16-4.57-8.85-4.11a6.63 6.63 0 0 0 -2.64.7c-2.23 1.2-2.55 3.46-5.35 3.31a8.11 8.11 0 0 0 1.46.55 8.46 8.46 0 0 0 1.38.24c1.54.13 3.36-1.79 4.57-2.49 3.61-2.13 9.14 2.31 9.43 1.8z" fill="#383333"/><path d="m176.11 255.26c-8 31.82-15.47 65.69-22.07 101.5-5.31 28.81-9.63 56.63-13.14 83.32 1 .65 2.25 1.46 3.75 2.32.29.17 1.81 1.05 3.36 1.81a57.39 57.39 0 0 0 8.46 3.29 58.87 58.87 0 0 0 20.53 1.74 147.35 147.35 0 0 0 15.5-43.69c3-16.65 1-23 5.93-36.93 5.68-16 13.28-21.42 20.52-32.83 7.7-12.14 15.34-31.59 13.28-62.92z" fill="#383333"/><path d="m257.82 242.53s20.43 24 23.52 52 0 63.22 0 63.22q13.85 40.15 27.66 80.33a80.38 80.38 0 0 1 -31.89 10.24 347.79 347.79 0 0 1 -69.91-191.51z" fill="#383333"/><path d="m198.59 151.36s-17.8-.39-30.26 11.77-34.2 71-34.2 71l23.71 14.13 31.62-48.44s17.95-24.51 9.13-48.46z" fill="#ffb08d"/><path d="m252 155.43s19.42 5.57 27.94 18.34 24.92 57.75 24.92 57.75l-23.2 13.38-32.48-39.85s-11.18-30.87 2.82-49.62z" fill="#ffb08d"/><path d="m203.15 150.52s4.39 10.29 19.78 13 26.72-9.64 26.72-9.64 12.34 4.15 18.92 9.24l-3.57 22.66c1.52 2.48 8.16 13.91 4.1 26.44a27.09 27.09 0 0 1 -4.33 8.21 207.84 207.84 0 0 0 12.14 57.36s-50.55 20.21-106.32-2.08l8.91-58.24a27.92 27.92 0 0 1 -5.36-12.07c-2.38-13.6 6.78-24 8.17-25.55l1.35-25.85s7.64-3.63 19.49-3.48z" fill="#ff1a26"/><path d="m173.3 258s9.39 2.34 24.44 11.68 24.39 12.54 32.83 9.35 37.77-21.89 43.85-19.83 2.58 17.55 5.47 22.11.48 4.56-3 7.75-46.33 5-52.72 1.6-15-3-32.37-2.74-25.54 1.14-26-4.1-.52-24.98 7.5-25.82z" fill="#ffb833"/><path d="m216.35 285.33s-8.3 25.09-6.07 42.25 6.07 24.83 6.07 24.83a36.29 36.29 0 0 1 23.11-8.11s-20.67-46.2-11.86-58.36c0 0-.3-8.82-11.25-.61z" fill="#ffb833"/><path d="m218.11 288s7.67 21.46 18.3 32 17.31 13.66 17.31 13.66a31.29 31.29 0 0 1 11.4-17.78s-38.58-20.44-39-33.39c-.04-.03-4.93-5.86-8.01 5.51z" fill="#ffb833"/><path d="m198.13 264.72c-11.24-1.9-20.6-4-27.62-5.7a153.36 153.36 0 0 1 -21.4-7c-11.6-4.75-13.91-7.37-14.92-10-1.93-5.06.5-11.38 2.88-13.88 11.56-12.16 56.59 12.21 78.62 25.11z" fill="#ffb08d"/><path d="m326.24 182.68c-1.49 7.71-13.69 68.49-33.46 68.9-5.74.12-9.78-4.89-10.14-5.34-9.42-12 1.8-40.27 26.59-70.72z" fill="#ffb08d"/><path d="m207.09 248.37s15.88 7.87 21.31 12.08 12.34 10.54 12 12-11.79-5-11.79-5 .4 3.32-2.6 3.55c0 0 .72 1.59-2.24 2.2 0 0 .82 2-2.64 2.48 0 0 1.22 1.23-1.07 2.51s-10.33 1.27-19.64-6.86-7.76-11.08-7.76-11.08z" fill="#ffb08d"/><path d="m308 178s5.29-17 8.59-23 8.46-13.85 9.91-13.71-3.11 12.43-3.11 12.43 3.22-.91 3.92 2c0 0 1.46-1 2.52 1.86 0 0 1.86-1.13 2.87 2.21a1.27 1.27 0 0 1 .75-.44c.84-.14 1.62.79 1.89 1.11 2 2.38 1.07 16.86-5.86 22a28.11 28.11 0 0 0 -7.53 7.88z" fill="#ffb08d"/><path d="m232.88 48.69c-.44 4.54-2.15 15.59-10.89 21.61a25.14 25.14 0 0 1 -5.58 2.77c-5.08 2-13.93 4.4-26.58 3.37q-3.18 5.39-6.35 10.76l-4.93.26c-2.82-24.27 8.81-45.61 26.5-52.25 12.87-4.84 25.22-.49 29.73 1.38 16.85-3.7 25.42-.17 30.09 3.46 14.8 11.49 15.42 43.44 15.42 43.44-3.51.1-21.77.3-35.62-13.7a46.3 46.3 0 0 1 -11.79-21.1z" fill="#383333"/><path d="m183.22 72.42a99.73 99.73 0 0 0 -1.43 19.06c.22 9.51 1.72 14.1 2.34 15.82a39.26 39.26 0 0 0 3.63 7.52 152.78 152.78 0 0 1 -.39-16.46 155.07 155.07 0 0 1 2.85-25.42z" fill="#383333"/><path d="m279.71 78.76a100.6 100.6 0 0 1 1.43 19.07c-.22 9.51-1.72 14.09-2.34 15.82a39.56 39.56 0 0 1 -3.63 7.52 153 153 0 0 0 .39-16.47 156.17 156.17 0 0 0 -2.85-25.42z" fill="#383333"/><path d="m217.58 110.5a55 55 0 0 0 25.85.82 16 16 0 0 1 -14.83 6.29 16.35 16.35 0 0 1 -11.02-7.11z" fill="#fff"/><path d="m221.1 275.85h-.1l-4.95-1.63a.25.25 0 0 1 .15-.48l5 1.63a.25.25 0 0 1 .16.32.25.25 0 0 1 -.26.16z" fill="#171d8f"/><path d="m223.74 273.37a.23.23 0 0 1 -.14 0l-4.69-3.08a.26.26 0 0 1 -.07-.35.25.25 0 0 1 .35-.07l4.68 3.08a.26.26 0 0 1 .08.35.26.26 0 0 1 -.21.07z" fill="#171d8f"/><path d="m226 271.17a.27.27 0 0 1 -.17-.06l-4.16-3.65a.25.25 0 0 1 0-.35.24.24 0 0 1 .35 0l4.16 3.65a.26.26 0 0 1 0 .36.27.27 0 0 1 -.18.05z" fill="#171d8f"/><path d="m228.34 267.52a.27.27 0 0 1 -.16-.06l-3.67-3.11a.25.25 0 0 1 0-.35.24.24 0 0 1 .35 0l3.66 3.11a.24.24 0 0 1 0 .35.25.25 0 0 1 -.18.06z" fill="#171d8f"/><path d="m319.07 172.13h-.07a.26.26 0 0 1 -.16-.32 16.78 16.78 0 0 0 .56-6.55.24.24 0 0 1 .11-.23.25.25 0 0 1 .25 0c1 .46 3.79 1.58 4.76 1.12a.49.49 0 0 0 .28-.33c.39-1.53-1.68-4.32-3.51-5.29s-7 0-7 0a.26.26 0 0 1 -.29-.2.25.25 0 0 1 .2-.29c.23 0 5.5-1 7.37 0s4.23 4 3.75 5.85a1 1 0 0 1 -.55.66c-1.14.54-3.75-.49-4.78-.94a17.14 17.14 0 0 1 -.64 6.33.25.25 0 0 1 -.28.19z"/><path d="m320.93 160.11h-.1a.25.25 0 0 1 -.14-.33l2.47-6.11a.24.24 0 0 1 .32-.14.25.25 0 0 1 .14.33l-2.46 6.14a.26.26 0 0 1 -.23.11z"/><path d="m323.77 162.65h-.12a.26.26 0 0 1 -.1-.34l3.54-6.64a.25.25 0 0 1 .44.24l-3.53 6.61a.25.25 0 0 1 -.23.13z"/><path d="m330 169.89h-.16a.91.91 0 0 1 -.7-.6c-.66-1.64 1-6.39 3.32-9.59a.23.23 0 0 1 .34-.06.25.25 0 0 1 .06.35c-2.41 3.3-3.8 7.76-3.25 9.11.09.23.22.28.31.29 1.05.19 3.72-2.5 5.17-4.23a.25.25 0 0 1 .38.32c-.35.45-3.72 4.41-5.47 4.41z"/><path d="m326.17 168.17a1.7 1.7 0 0 1 -.51-.08 1.73 1.73 0 0 1 -1.05-1.49c-.22-1.44 4.48-8.34 5-9.12a.25.25 0 1 1 .41.29c-2 2.88-5.08 7.82-4.93 8.75a1.27 1.27 0 0 0 .71 1.09c.44.16 1.51.11 3.73-1.94a.25.25 0 0 1 .34.36c-1.52 1.42-2.76 2.14-3.7 2.14z"/><path d="m280 236.18a.24.24 0 0 1 -.24-.26c0-.19.89-19.86 12.28-36.63a.25.25 0 1 1 .42.28c-11.31 16.65-12.19 36.18-12.2 36.37a.25.25 0 0 1 -.26.24z"/><path d="m305.24 457.27a.25.25 0 0 1 -.14 0 .26.26 0 0 1 -.08-.34 16.48 16.48 0 0 1 12.8-6.67.24.24 0 0 1 .26.24.24.24 0 0 1 -.24.26 16 16 0 0 0 -12.39 6.43.25.25 0 0 1 -.21.08z"/><path d="m311.53 461.81a.33.33 0 0 1 -.13 0 .26.26 0 0 1 -.08-.35c.05-.06 4.26-6.49 11.1-6.93a.25.25 0 0 1 .25.23.23.23 0 0 1 -.23.26c-6.59.43-10.66 6.65-10.71 6.71a.22.22 0 0 1 -.2.08z"/><path d="m138.09 459.47a.23.23 0 0 1 -.23-.17 13.09 13.09 0 0 0 -5-6.78.25.25 0 1 1 .25-.43 13.27 13.27 0 0 1 5.25 7.05.26.26 0 0 1 -.16.32z"/><path d="m131 461.42a.24.24 0 0 1 -.22-.14c-2.14-4.39-4.41-5.59-4.43-5.6a.25.25 0 0 1 -.11-.33.23.23 0 0 1 .33-.11c.1 0 2.44 1.26 4.66 5.82a.25.25 0 0 1 -.12.33.2.2 0 0 1 -.11.03z"/><path d="m169.63 230.43h-.09a64.85 64.85 0 0 0 -26-5.09.24.24 0 0 1 -.27-.23.26.26 0 0 1 .24-.27 65.53 65.53 0 0 1 26.22 5.16.23.23 0 0 1 .13.32.25.25 0 0 1 -.23.11z"/><path d="m401.39 384.39a9 9 0 0 1 -1.92-.22l-53.37-12.34a8.48 8.48 0 0 1 -6.36-10.17l5.76-24.9a8.48 8.48 0 0 1 10.17-6.35l53.33 12.33a8.49 8.49 0 0 1 6.35 10.17l-5.75 24.9a8.48 8.48 0 0 1 -8.25 6.58zm-47.63-49.2a3.48 3.48 0 0 0 -3.39 2.7l-5.76 24.9a3.47 3.47 0 0 0 2.61 4.17l53.37 12.33a3.49 3.49 0 0 0 4.18-2.6l5.75-24.91a3.48 3.48 0 0 0 -2.61-4.17l-53.37-12.33a3.46 3.46 0 0 0 -.78-.09z" fill="#ff1a26"/><rect fill="#00ccc1" height="66.09" rx="31.86" transform="matrix(.974 .225 -.225 .974 96.63 -73.52)" width="124.48" x="308.46" y="353.95"/><circle cx="338.19" cy="379.48" fill="#383333" r="19.04"/><circle cx="405.74" cy="395.09" fill="#383333" r="19.04"/><rect fill="#ffb833" height="8.13" rx="2.58" transform="matrix(.974 .225 -.225 .974 93.2 -74.9)" width="29.56" x="360.27" y="367.19"/><path d="m198.5 72.67a.26.26 0 0 1 -.25-.21.25.25 0 0 1 .21-.28c15.42-2.62 29.46-22.73 29.6-22.94a.25.25 0 0 1 .41.29c-.14.2-14.3 20.49-29.93 23.14z" fill="#fff"/><path d="m190.22 66.58a.25.25 0 0 1 -.25-.22.26.26 0 0 1 .22-.28c14-1.7 27.08-15.69 27.21-15.83a.25.25 0 1 1 .36.34c-.13.14-13.36 14.27-27.51 16z" fill="#fff"/><path d="m268.57 70.56c-19.16 0-29.58-19.82-29.69-20a.26.26 0 0 1 .11-.34.25.25 0 0 1 .34.11c.1.2 10.39 19.75 29.24 19.75h.25a.26.26 0 0 1 .25.25.25.25 0 0 1 -.25.25z" fill="#fff"/><path d="m269.26 61c-10.82 0-20.21-10.3-20.26-10.41a.23.23 0 0 1 0-.35.24.24 0 0 1 .35 0c.11.13 11.41 12.49 23.33 9.87a.25.25 0 0 1 .3.19.25.25 0 0 1 -.19.3 16.08 16.08 0 0 1 -3.53.4z" fill="#fff"/><path d="m298.75 166.12h-.05a.25.25 0 0 1 -.19-.29c2.25-11-2.55-18.95-13.53-22.23a29.63 29.63 0 0 1 -12.78-7.52 19.77 19.77 0 0 1 -3.61-4.8.24.24 0 0 1 .12-.33.24.24 0 0 1 .33.12c0 .08 4.2 8.5 16.08 12.05 11.27 3.37 16.19 11.47 13.88 22.81a.26.26 0 0 1 -.25.19z" fill="#fff"/><path d="m290.06 175.77h-.08a.25.25 0 0 1 -.15-.32 21.06 21.06 0 0 0 .85-10.84c-1.07-5.31-4.37-9.24-9.79-11.67-12.54-5.63-12.38-8-12.32-8.28a.27.27 0 0 1 .31-.19.26.26 0 0 1 .18.29c0 .08.14 2.38 12 7.72 5.58 2.51 9 6.56 10.08 12a21.63 21.63 0 0 1 -.87 11.11.25.25 0 0 1 -.21.18z" fill="#fff"/></g></svg>