<svg height="512" viewBox="0 0 512 512" width="512" xmlns="http://www.w3.org/2000/svg"><g id="Kniting"><path d="m354.51 220.13a19.39 19.39 0 0 1 4.82 3.21 20.12 20.12 0 0 1 5.83 10.07 14.83 14.83 0 0 1 3.64-9.34 14.59 14.59 0 0 1 7.2-4.37 13.78 13.78 0 0 1 -6.56-2.77 14.29 14.29 0 0 1 -5.11-8.75 12.56 12.56 0 0 1 -2.23 6.82 12.87 12.87 0 0 1 -7.59 5.13z" fill="#ffb833"/><path d="m131.28 138.72a19.19 19.19 0 0 1 4.81 3.2 20 20 0 0 1 5.83 10.08 14.8 14.8 0 0 1 3.65-9.34 14.5 14.5 0 0 1 7.15-4.37 13.81 13.81 0 0 1 -6.57-2.77 14.21 14.21 0 0 1 -5.1-8.75 12.64 12.64 0 0 1 -2.19 6.85 12.86 12.86 0 0 1 -7.58 5.1z" fill="#ffb833"/><path d="m148.9 211.2a25.05 25.05 0 0 1 6.3 4.2 26.32 26.32 0 0 1 7.63 13.16 18.85 18.85 0 0 1 14.11-17.93 18 18 0 0 1 -8.58-3.62 18.7 18.7 0 0 1 -6.68-11.45 16.46 16.46 0 0 1 -2.86 9 16.8 16.8 0 0 1 -9.92 6.64z" fill="#ffb833"/><path d="m368.19 125.9a24.78 24.78 0 0 1 6.3 4.2 26.25 26.25 0 0 1 7.63 13.16 18.85 18.85 0 0 1 14.11-17.93 18.07 18.07 0 0 1 -8.58-3.63 18.66 18.66 0 0 1 -6.65-11.44 16.43 16.43 0 0 1 -2.86 9 16.83 16.83 0 0 1 -9.95 6.64z" fill="#ffb833"/><circle cx="342.41" cy="60.81" fill="#383333" r="30.91"/><ellipse cx="318.39" cy="85.4" fill="#ffb833" rx="26.53" ry="27.53"/><path d="m218 250.2c-8.79-.48-24.5.07-38.65 9.74-12.62 8.61-18.24 20-24.33 33.13-12.71 27.31-23.77 52.55-33.34 75.33l56.83-12.59 16.51-29z" fill="#00ccc1"/><path d="m199.47 146.78c-.83-.72-5.36-4.52-11.49-3.71-.9.12-4.46.58-6.75 3-5.92 6.22-2.46 24.58 8.63 28.71 6.2 2.31 12.47-.68 14.58-1.81q-2.44-13.1-4.97-26.19z" fill="#d17352"/><path d="m193.82 168.88a.49.49 0 0 1 -.32-.12c-2.87-2.47-4.26-5.13-4.13-7.91.16-3.2 2.3-5.75 3.74-7.1l-8.79.91a.5.5 0 0 1 -.55-.45.49.49 0 0 1 .45-.54l10.41-1.09a.5.5 0 0 1 .34.91s-4.4 3.16-4.6 7.42c-.12 2.45 1.16 4.83 3.78 7.09a.5.5 0 0 1 -.33.88z"/><path d="m332.15 144c.81-.75 5.18-4.73 11.33-4.17.9.08 4.49.4 6.87 2.71 6.17 6 3.45 24.46-7.47 29-6.1 2.56-12.49-.18-14.64-1.23q1.97-13.17 3.91-26.31z" fill="#d17352"/><path d="m338.66 165.82a.48.48 0 0 1 -.36-.16.49.49 0 0 1 0-.7c2.54-2.37 3.71-4.8 3.49-7.25-.37-4.25-4.84-7.19-4.89-7.22a.5.5 0 0 1 .3-.92l10.45.66a.52.52 0 0 1 .47.53.49.49 0 0 1 -.53.47l-8.82-.56c1.49 1.3 3.74 3.76 4 7 .24 2.76-1 5.47-3.8 8.06a.51.51 0 0 1 -.31.09z"/><circle cx="265.6" cy="137.45" fill="#d89071" r="74.61"/><path d="m188.23 377.73c-.5-11.77-1.41-13-2.23-29-2.71-52.8-8-84.4 11.13-94.66 20.05-10.77 44.45-15.59 49.75-26.36s5.19-32.67 5.19-32.67 12.63-13.36 36.38 5.2c-1.59 7.74-3 20.51 3 32.67 9.49 19.32 27.51 16.5 39.35 30.44 21.7 25.52-11.41 67.19-8.16 133.63a198.28 198.28 0 0 0 14.1 63.85 201.76 201.76 0 0 1 -60.23 17.45c-45.39 5.72-81.89-5.53-100.88-13a242.2 242.2 0 0 0 12.6-87.55z" fill="#d89071"/><path d="m288.85 226.26s-22.78 7.37-41.07-.57l1.2-16.56 38.88 2.13z" fill="#d17352"/><path d="m191.4 145.39c5 35.42 26.76 63.92 56 72.61a69.82 69.82 0 0 0 44.6-1.86c27.28-10.75 46-39.13 48.26-73-.05.01-94.98-64.06-148.86 2.25z" fill="#d89071"/><path d="m267.13 168.66c-3.38 0-7.86-.39-8.65-2.39-1.05-2.65 3.84-13.71 4.83-15.9a.75.75 0 1 1 1.36.62c-2.35 5.21-5.4 13.21-4.8 14.72.47 1.19 5.71 1.65 10.31 1.35a.73.73 0 0 1 .8.69.74.74 0 0 1 -.7.8c-.69.05-1.84.11-3.15.11z"/><path d="m307.27 250.08c8.3.28 24.63 2.11 37.35 13.95 10.29 9.57 13.52 21.29 15.72 29.75 7.33 28.2 14.68 58 21.87 89.8l-43.25-1-17.29-53.77z" fill="#00ccc1"/><ellipse cx="306.02" cy="174.38" fill="#d17352" rx="8.85" ry="5.51"/><ellipse cx="224.39" cy="174.38" fill="#d17352" rx="8.85" ry="5.51"/><path d="m188.23 377.73c-.35-8.35-.92-11.39-1.51-18.15-.4-4.67-.56-7.74-.72-10.8-2-37.54-10.24-83.41 7.65-94.52.51-.31 0 0 8.77-3.37 10.79-4.19 19.41-7.77 25-10.12 8.89 19 28.19 29.38 45.88 26 18.13-3.49 26.84-20 28-22.26 4.3 1.56 10.15 3.7 17.66 6.52a71.33 71.33 0 0 1 14.57 6.87 29.24 29.24 0 0 1 3.81 2.62c6.75 6.65-1.82 21.18-3.09 40-.91 13.35 3.13 13.72 3.82 30.14.87 20.67-4 35.66-6.07 43.4-4.57 17.39-6.81 44.63 4.76 86.87a201.76 201.76 0 0 1 -60.23 17.45c-45.39 5.72-81.89-5.53-100.88-13a242.24 242.24 0 0 0 12.58-87.65z" fill="#00ccc1"/><path d="m186 283.51c-13.49 16.4-25.65 31.6-36.41 45.32-25.85 32.92-34.69 45.82-31 59 .39 1.41 3.36 11.58 12.15 15.48 7.59 3.37 15.58.31 19.25-1.16 23.47-9.39 35.19-39.11 46.23-68.1a342.59 342.59 0 0 0 11.89-37.68z" fill="#00ccc1"/><path d="m268.87 196.66a8.66 8.66 0 0 1 -4.48-1.26.5.5 0 0 1 -.17-.69.51.51 0 0 1 .69-.17 7.64 7.64 0 0 0 7.94 0 .5.5 0 0 1 .52.86 8.71 8.71 0 0 1 -4.25 1.25z"/><path d="m289.47 289.49c6.07 4.27 91.63 65.07 93.65 93.61.91 12.74-4.8 19.08-4.8 19.08-7.82 6-14 6.9-18.07 6.77-21-.71-30.17-31.63-65.53-71.7a314.88 314.88 0 0 0 -22.9-23.4z" fill="#00ccc1"/><path d="m288.27 146.29c-.43.18 5.85-5.69 12.49-2.38s3.6 8.39 8.8 10.25c0 0-5.08 2-7.39-1.65s-4.25-10.17-13.9-6.22z" fill="#383333"/><circle cx="294.67" cy="152.89" fill="#fff" r="9.67"/><circle cx="293.76" cy="154.71" fill="#383333" r="6.91"/><circle cx="291.87" cy="151.02" fill="#fff" r="2.01"/><path d="m238.48 146.33c.42.21-5.44-6.07-12.3-3.22s-4.16 8.13-9.47 9.63c0 0 4.93 2.34 7.49-1.15s4.93-9.85 14.28-5.26z" fill="#383333"/><circle cx="231.65" cy="152.49" fill="#fff" r="9.67"/><circle cx="232.86" cy="154.35" fill="#383333" r="6.91"/><circle cx="235" cy="150.8" fill="#fff" r="2.01"/><path d="m219.48 244.07s9.27-4.61 13.84-8.67 3.71-7.77 6.08-9 13.51 7.6 26.69 7.27 24.83-6.37 27.91-5.67 2.87 16.27 12.67 18.53l-11 30.12-54.56 2-13.86-19.26z" fill="#00ccc1"/><path d="m213.14 283.19a7.67 7.67 0 0 0 -7.78 4.33c-2.5 5.36-4.71 14.9 1.68 27.26 9 17.33 9.42 44.12-1 59a4.68 4.68 0 0 0 2.65 7.22c14.93 3.87 49.42 11 71 1.32a6 6 0 0 0 2.81-8.36c-3.31-5.94-7.71-16.37-5.27-26.77 3.32-14.14 10.39-36.63 5.65-51.64a8 8 0 0 0 -6.68-5.55z" fill="#ffb833"/><path d="m201 332.19a1.44 1.44 0 0 1 -.46-.08 1.5 1.5 0 0 1 -1-1.88l32.46-100.8a1.5 1.5 0 0 1 2.86.92l-32.46 100.8a1.5 1.5 0 0 1 -1.4 1.04z" fill="#383333"/><ellipse cx="200.78" cy="331.2" fill="#383333" rx="6.14" ry="3.17" transform="matrix(.307 -.952 .952 .307 -176.01 420.82)"/><path d="m162.92 312s19.37-29.64 34.07-38.25 34.71-19.26 38.51-17-20.44 17.82-20.44 17.82 9.63.17 12 2.71-3.54 4.56-3.54 4.56 5.72-.05 6.83 3.18-5.31 4.45-5.31 4.45 6.25 1.49 6.58 4-14.86 4.06-18.07 7.44c-5.1 5.36-5.67 7.8-12.33 13.85a45 45 0 0 1 -14.87 8.87z" fill="#d89071"/><path d="m293.09 346.38a1.5 1.5 0 0 1 -1.43-1.05l-32.45-100.79a1.5 1.5 0 1 1 2.85-.92l32.45 100.8a1.49 1.49 0 0 1 -1 1.88 1.54 1.54 0 0 1 -.42.08z" fill="#383333"/><ellipse cx="293.25" cy="345.39" fill="#383333" rx="3.17" ry="6.14" transform="matrix(.952 -.307 .307 .952 -91.74 106.49)"/><path d="m331.11 326.19s-19.37-29.64-34.06-38.25-34.72-19.26-38.52-17 20.47 17.84 20.47 17.84-9.62.17-12 2.71 3.55 4.56 3.55 4.56-5.73-.05-6.83 3.18 5.31 4.44 5.31 4.44-6.25 1.5-6.59 4 14.86 4.06 18.07 7.43c5.1 5.37 5.68 7.81 12.33 13.86a45 45 0 0 0 14.87 8.86z" fill="#d89071"/><path d="m252.22 93.68s-25.76 46.3-71 52.37c0 0-6.57-105.75 84.58-87.84 0 0 33.72-10.81 62.43 12.5s17.2 69.38 17.2 69.38-43.33 4.27-72.32-47.09a54.12 54.12 0 0 1 -10.17 17.16 56.5 56.5 0 0 1 -30.31 17.49 48.16 48.16 0 0 0 9.14-8.82 51 51 0 0 0 10.45-25.15z" fill="#383333"/><path d="m188 139.29s1.65 38.1 19.07 47.93c0 0-11-30.87-5.89-57.39z" fill="#383333"/><path d="m344.74 139.29s-1.64 38.1-19.06 47.93c0 0 10.95-30.87 5.89-57.39z" fill="#383333"/><path d="m318.75 309.24a41.45 41.45 0 0 1 -21.94 22.95q14.19 20.81 28.45 41.68l14.59-24.65v-20.22z" fill="#00ccc1"/><path d="m372.52 362.46a.52.52 0 0 1 -.41-.22c-15.83-22.92-53.29-52.31-53.67-52.61a.5.5 0 0 1 -.08-.7.5.5 0 0 1 .7-.09c.38.3 38 29.78 53.88 52.83a.51.51 0 0 1 -.13.7.52.52 0 0 1 -.29.09z"/><path d="m338.2 326.11a.49.49 0 0 1 -.5-.49 340.23 340.23 0 0 0 -2.49-36.07.5.5 0 0 1 .43-.56.5.5 0 0 1 .56.43 343.76 343.76 0 0 1 2.5 36.18.5.5 0 0 1 -.5.51z"/><path d="m329.91 384.08a.51.51 0 0 1 -.48-.35c-6-19.27-32.73-50.9-33-51.22a.49.49 0 0 1 .05-.7.51.51 0 0 1 .71.05c.27.32 27.17 32.11 33.2 51.57a.51.51 0 0 1 -.33.63z"/><path d="m186.72 360.08a.5.5 0 0 1 -.49-.46 186.37 186.37 0 0 1 .31-34.41.5.5 0 0 1 .56-.44.51.51 0 0 1 .43.56 186.38 186.38 0 0 0 -.31 34.21.5.5 0 0 1 -.46.54z"/><path d="m130.89 354a.49.49 0 0 1 -.34-.14.5.5 0 0 1 0-.71c9.88-10.32 31.76-41.11 32-41.42a.52.52 0 0 1 .7-.12.5.5 0 0 1 .12.7c-.22.31-22.15 31.16-32.08 41.53a.48.48 0 0 1 -.4.16z"/><g fill="#fff"><path d="m255.16 180.91 28-1s-3.25 11.57-13 12.2-15-11.2-15-11.2z"/><path d="m194.68 127.06a.5.5 0 0 1 -.15-1c20.88-6.81 44.6-38.88 44.84-39.21a.5.5 0 0 1 .7-.1.51.51 0 0 1 .11.7c-.24.32-24.16 32.66-45.34 39.56z"/><path d="m194.68 105.64a.5.5 0 0 1 -.48-.37.49.49 0 0 1 .35-.61c19-5.24 32.5-26.66 32.63-26.88a.5.5 0 0 1 .69-.16.49.49 0 0 1 .16.69c-.13.22-13.87 22-33.22 27.31z"/><path d="m334.8 120.82c-28.66 0-60.31-34.71-60.64-35.08a.5.5 0 1 1 .75-.67c.34.38 34.24 37.55 63.23 34.58a.5.5 0 0 1 .55.45.49.49 0 0 1 -.44.54 33.22 33.22 0 0 1 -3.45.18z"/><path d="m334.06 103.54c-7 0-15.84-2.43-26.34-7.26a144.38 144.38 0 0 1 -16.06-8.68.49.49 0 0 1 -.15-.69.5.5 0 0 1 .69-.15c.27.18 27.63 17.69 44.93 15.61a.49.49 0 0 1 .56.43.5.5 0 0 1 -.44.56 27.14 27.14 0 0 1 -3.19.18z"/><path d="m325.68 56.21h-.11a.5.5 0 0 1 -.38-.6c.08-.41 2.2-10.1 10.36-15.4 5-3.23 11.06-4.09 18.14-2.58a.5.5 0 1 1 -.2 1c-6.82-1.49-12.66-.63-17.39 2.37-7.81 5.07-9.91 14.68-9.93 14.78a.51.51 0 0 1 -.49.43z"/><path d="m350.3 76.65a.5.5 0 0 1 -.5-.47.5.5 0 0 1 .48-.52 13.49 13.49 0 0 0 10.17-4.78c5.78-7.06 4-19.57 4-19.7a.5.5 0 1 1 1-.14c.08.53 1.84 13.07-4.23 20.47a14.39 14.39 0 0 1 -10.89 5.14z"/></g><path d="m307 135.78a21.24 21.24 0 0 0 -12-4.5c-3-.2-7-.47-8.28 1.79a3.24 3.24 0 0 0 -.06 3.27c1.3 1.91 4.86.39 10.49.58 7.41.26 12.1 3.28 12.63 2.24.43-.76-1.87-2.64-2.78-3.38z" fill="#383333"/><path d="m221.64 136.87a21.13 21.13 0 0 1 11.67-5.23c2.93-.39 6.9-.9 8.37 1.27a3.23 3.23 0 0 1 .26 3.25c-1.18 2-4.82.7-10.43 1.24-7.38.71-11.88 4-12.47 3-.44-.72 1.74-2.73 2.6-3.53z" fill="#383333"/><path d="m204.87 276.65a.24.24 0 0 1 -.23-.16.24.24 0 0 1 .14-.32c.24-.09 5.86-2.15 10.3-1.83a.25.25 0 0 1 .23.27.24.24 0 0 1 -.27.23c-4.32-.31-10 1.78-10.08 1.8z"/><path d="m207 283.4a.26.26 0 0 1 -.25-.2.26.26 0 0 1 .2-.3c.1 0 10-2 16.58-1.29a.24.24 0 0 1 .22.27.26.26 0 0 1 -.27.23c-6.53-.68-16.33 1.26-16.43 1.28z"/><path d="m208.07 291.78a.24.24 0 0 1 -.23-.18.24.24 0 0 1 .16-.31c.09 0 9.72-3 17.06-2.05a.25.25 0 0 1 -.07.49c-7.23-1-16.75 2-16.84 2z"/><path d="m290.45 293.63a.3.3 0 0 1 -.15-.05c-4.62-3.24-11.3-4.58-11.37-4.58a.25.25 0 0 1 -.2-.29.23.23 0 0 1 .29-.2c.07 0 6.85 1.33 11.57 4.63a.25.25 0 0 1 .06.35.26.26 0 0 1 -.2.14z"/><path d="m283.83 299.61a.23.23 0 0 1 -.14 0c-5.38-3.69-13.07-3.28-13.15-3.27a.26.26 0 0 1 -.26-.24.24.24 0 0 1 .23-.26c.08 0 7.94-.43 13.46 3.36a.25.25 0 0 1 .07.34.24.24 0 0 1 -.21.07z"/><path d="m280.68 306.54a.21.21 0 0 1 -.18-.08c-3.65-3.95-11.37-2.56-11.45-2.54a.25.25 0 0 1 -.29-.2.25.25 0 0 1 .2-.29c.33-.06 8.07-1.45 11.9 2.69a.25.25 0 0 1 0 .36.27.27 0 0 1 -.18.06z"/></g></svg>