<svg height="512" viewBox="0 0 512 512" width="512" xmlns="http://www.w3.org/2000/svg"><g id="Painting"><path d="m98 195.4a20.78 20.78 0 0 0 -5.24 3.5 21.74 21.74 0 0 0 -6.35 10.95 15.73 15.73 0 0 0 -11.75-14.93 14.89 14.89 0 0 0 7.14-3 15.51 15.51 0 0 0 5.56-9.53 13.71 13.71 0 0 0 2.39 7.46 14 14 0 0 0 8.25 5.55z" fill="#ffb833"/><path d="m320.16 92.85a20.54 20.54 0 0 0 -5.24 3.49 21.76 21.76 0 0 0 -6.35 11 16.2 16.2 0 0 0 -4-10.17 15.9 15.9 0 0 0 -7.79-4.76 15 15 0 0 0 7.15-3 15.49 15.49 0 0 0 5.56-9.53 13.78 13.78 0 0 0 2.38 7.47 14.07 14.07 0 0 0 8.29 5.5z" fill="#ffb833"/><path d="m343.2 213.59a26.75 26.75 0 0 0 -6.86 4.57 28.48 28.48 0 0 0 -8.3 14.33 21.16 21.16 0 0 0 -5.2-13.3 20.77 20.77 0 0 0 -10.18-6.19 19.65 19.65 0 0 0 9.34-4 20.3 20.3 0 0 0 7.27-12.47 18 18 0 0 0 3.12 9.77 18.33 18.33 0 0 0 10.81 7.29z" fill="#ffb833"/><path d="m258.67 134.4a154.53 154.53 0 0 0 1.48 46.45c1.77 9.5 3.47 18.24 8.93 28.32a78.45 78.45 0 0 0 25.73 27.83 107.74 107.74 0 0 1 -23.45 12.81c-15.29 5.87-37.71 10.69-66.21 6.46-10.67-1.59-18.58-5.15-24.53-12.38-11.67-14.15-8.79-40 7.13-65.56z" fill="#383333"/><path d="m367.47 282.62s20.15-23.89 25.94-28.35 19.15-13.5 21.74-12-2.45 7.12-2.45 7.12 3.85-2.23 4.6.89-4.46 7.42-4.46 7.42 2.16-1.34 3.34 0-1 4.37-6.38 9.05c0 0 1.75-.95 2.67-.22a1.47 1.47 0 0 1 .45.74c.56 2.09-5.55 8.41-7.2 10.16-4 4.23-2.85 4.19-7.34 9.42-4 4.63-12.75 14.83-22.78 17.29a27.41 27.41 0 0 1 -9.05.59 23.43 23.43 0 0 1 -4.9-1.18z" fill="#ffb08d"/><path d="m225.17 214s40.56 6.06 57 24.59 37.05 111.84 37.05 111.84l-41.5 13.57-27.62-69.16s-40.79-58.08-24.93-80.84z" fill="#fff3e3"/><path d="m167.93 180.25s5.42 25.22-4.57 38.6-33.78 10.81-43.75 32.42 18.2 106 0 193.49c0 0 83.68 36 168.08 0 0 0-14.93-93.66-11.84-138.94s-1-64.84-9.78-76.16-40.65-14.93-46.31-17-3.63-32.42-3.63-32.42-24.9-12.34-48.2.01z" fill="#ffb08d"/><path d="m169.33 192.22s20.41 22 48.37 17.81l-1.57-19.14-42.34-5.32z" fill="#ff8c5f"/><circle cx="195.71" cy="116.12" fill="#ffb08d" r="76.1"/><path d="m271.38 124.22c.4 33.08-15.43 61.59-40.3 72.7-22.4 10-44.23 2.38-51 0-46.28-16.2-59.25-69.62-60.46-75-.01.02 96.81-65.33 151.76 2.3z" fill="#ffb08d"/><path d="m176.4 121.71a21.41 21.41 0 0 1 12.21-4.22c3-.12 7-.29 8.3 2a3.26 3.26 0 0 1 0 3.29c-1.37 1.9-4.92.27-10.61.31-7.48.06-12.3 3-12.81 1.92-.39-.74 1.98-2.57 2.91-3.3z" fill="#383333"/><path d="m262.56 121.45a21.45 21.45 0 0 0 -11.64-5.6c-2.95-.46-6.94-1.09-8.49 1.06a3.29 3.29 0 0 0 -.35 3.28c1.14 2 4.85.83 10.5 1.53 7.43.92 11.88 4.37 12.51 3.37.46-.72-1.69-2.81-2.53-3.64z" fill="#383333"/><path d="m220 149.22c-1.23 0-2.29-.05-2.95-.1a.75.75 0 1 1 .1-1.49c4.3.28 9.19-.14 9.62-1.23.51-1.28-1.89-8-4.5-13.76a.76.76 0 0 1 .38-1 .75.75 0 0 1 1 .38c.93 2 5.52 12.43 4.53 14.93-.77 1.9-5 2.27-8.18 2.27z"/><path d="m222.67 175.24a10.21 10.21 0 0 1 -4.86-1.11.5.5 0 1 1 .48-.88c3.51 1.9 8.14.47 8.19.46a.49.49 0 0 1 .62.32.5.5 0 0 1 -.32.63 14.82 14.82 0 0 1 -4.11.58z"/><ellipse cx="181.73" cy="149.44" fill="#ff8c5f" rx="8.3" ry="5.17"/><ellipse cx="259.49" cy="149.44" fill="#ff8c5f" rx="8.3" ry="5.17"/><path d="m159.66 127.77c-.76-.71-4.86-4.44-10.63-3.92-.84.08-4.2.38-6.43 2.54-5.79 5.61-3.24 22.93 7 27.22 5.72 2.4 11.7-.17 13.72-1.15z" fill="#ffb08d"/><path d="m153.55 148.28a.5.5 0 0 1 -.34-.13c-2.6-2.43-3.81-5-3.57-7.59a10.29 10.29 0 0 1 3.71-6.47l-8.18.51a.5.5 0 0 1 -.53-.47.5.5 0 0 1 .47-.53l9.79-.61a.47.47 0 0 1 .51.34.49.49 0 0 1 -.21.57s-4.22 2.79-4.57 6.76c-.2 2.27.9 4.55 3.26 6.76a.5.5 0 0 1 -.34.86z"/><path d="m147.9 229.23a84.79 84.79 0 0 0 -36.21 23.58c-15.69 17.76-41.51 102.41-41.51 102.41l38.82 14.41s29.75-43.95 42.1-80.64-3.2-59.76-3.2-59.76z" fill="#fff3e3"/><path d="m208.62 161.51a55.22 55.22 0 0 0 27.44 0 15.25 15.25 0 0 1 -27.44 0z" fill="#fff"/><path d="m119.61 251.27c-10 21.61 18.2 106 0 193.49 0 0 83.68 36 168.08 0 0 0-14.93-93.66-11.84-138.94s-1-64.84-9.78-76.16c-6.64-8.6-26.6-12.74-38.33-15.14-3.83 5.15-13.43 14-35.77 18.22s-34.26-1.55-39.49-5.6c-11.22 5.52-25.66 8.5-32.87 24.13z" fill="#fff3e3"/><path d="m372.48 276.72c-26 23.75-47.5 38.9-63.55 48.89-7.94 4.94-27.56 16.7-31.05 34.56-1.09 5.58-.14 8.93.85 10.91 4.49 9 18.48 10 23.51 10.36 31.77 2.35 74.58-72.6 78.41-79.42q-4.08-12.64-8.17-25.3z" fill="#ffb08d"/><path d="m145.58 229.76q4.75 11.28 9.6 22.64 7.53 17.62 15.1 35a99.83 99.83 0 0 0 25 4.46 103.74 103.74 0 0 0 52.83-12 217.57 217.57 0 0 0 1-23.33 221.73 221.73 0 0 0 -3.6-37.9 28.62 28.62 0 0 1 9.09 1.71 29 29 0 0 1 9 5.22l9.9 55.33a74 74 0 0 1 10.64 38.43 72.25 72.25 0 0 1 -4.81 25.21 371 371 0 0 0 11.32 100.87 229.86 229.86 0 0 1 -53.6 14.7c-32.12 4.86-74.89 4.7-117.48-15.32l4.95-100.78s16.94-33.84 16.25-55-13.31-49.79-13.31-49.79 9.11-7.14 18.12-9.45z" fill="#ff832f"/><path d="m173.7 434.8c-15.37-4.68-108.79-33.8-107.77-68.8.17-5.83 3.21-14.83 10-18.92 15.81-9.49 44.24 12.36 48 15.25 7.95 6.11 9.77 9.46 16.8 16.33 9.48 9.26 24.54 21.12 48.26 30.7z" fill="#ffb08d"/><path d="m197.36 130.32c.38.15-5.11-4.75-10.73-1.78s-2.9 7.25-7.31 8.94c0 0 4.38 1.61 6.29-1.56s3.39-8.78 11.75-5.6z" fill="#383333"/><circle cx="192.03" cy="136.1" fill="#fff" r="8.27"/><circle cx="193.66" cy="136.4" fill="#383333" r="5.91"/><circle cx="195.2" cy="133.21" fill="#fff" r="1.72"/><path d="m239.93 129.36c-.36.18 4.53-5.31 10.45-3s3.72 6.87 8.29 8.05c0 0-4.16 2.1-6.42-.83s-4.42-8.34-12.32-4.22z" fill="#383333"/><circle cx="245.89" cy="134.48" fill="#fff" r="8.27"/><circle cx="247.69" cy="134.48" fill="#383333" r="5.91"/><circle cx="245.8" cy="131.49" fill="#fff" r="1.72"/><path d="m222.34 64.05s-19.25 54-79.74 62.34l-28.16 9.71a141.32 141.32 0 0 1 3.6-44c3.85-15.74 8.87-36.25 23.93-48.63 19.67-16.17 52.23-15 82.51-.35 0 0 62.1-11.8 46.49 91.36.03 0-3.43-60.48-48.63-70.43z" fill="#383333"/><path d="m146.6 121.35s-6.88 6.35-7 15.05 4.4 21.6 23.72 16.06c0 0 24.07 39.73 10.11 95.31 0 0-21.16 19-77.77 0 17.23-15.33 22.51-29.3 24.19-39.11 2.49-14.54-3.13-18.71-5.15-47.86a219.38 219.38 0 0 1 1.09-43.6 194.92 194.92 0 0 1 8.93-37.81l34.28 18.61z" fill="#383333"/><path d="m193.43 392.89c-21.08 1.3-27.22 5.91-28.55 10.23-2.23 7.23 9.34 12.72 8 23.21-1.44 11.08-15.38 13.06-16.79 24.35-.95 7.54 4.29 14 7.11 17.25 21.69 24.9 114.66 11.2 124.33-2.73 2.42-3.49 6.76-10.53 5.94-19.55-2.26-24.44-41.61-45.76-100.04-52.76z" fill="#00ccc1"/><circle cx="237.57" cy="418.85" fill="#ff1a26" r="10.48"/><circle cx="270.38" cy="439.81" fill="#ff535c" r="10.48"/><circle cx="237.57" cy="460.77" fill="#ffb833" r="10.48"/><circle cx="194.67" cy="452.24" fill="#37ad36" r="10.48"/><path d="m363.39 369.75-1.84-.69a3.35 3.35 0 0 1 -2-4.28l65.45-179.78a3.36 3.36 0 0 1 4.31-2l4.11 1.53a3.34 3.34 0 0 1 2 4.32l-67.74 178.95a3.34 3.34 0 0 1 -4.29 1.95z" fill="#00ccc1"/><path d="m432.78 195-9.78-3.65a.93.93 0 0 1 -.57-1.15l7.19-23.73a.94.94 0 0 1 1.23-.6l12.6 4.67a.94.94 0 0 1 .53 1.26l-10 22.68a1 1 0 0 1 -1.2.52z" fill="#ffb833"/><path d="m431.24 198.8-9.55-3.55a1 1 0 0 1 -.58-1.21l2.35-7.23a1 1 0 0 1 1.26-.6l10.13 3.79a1 1 0 0 1 .56 1.29l-2.93 7a1 1 0 0 1 -1.24.51z" fill="#383333"/><path d="m377 283.16s22.29-19.71 25.39-18.23-4.16 10.8-9.64 16.19-12.91 12.27-16.75 13-.81-6.44 1-10.96z" fill="#ffb08d"/><g fill="#fff"><path d="m154.93 109.54a.5.5 0 0 1 -.49-.4.51.51 0 0 1 .39-.59c34.67-6.94 53.17-45.13 53.34-45.55a.5.5 0 0 1 .66-.24.5.5 0 0 1 .24.67c-.19.39-18.87 39-54 46.07z"/><path d="m133.46 94.08c-.67 0-1.34 0-2 0a.51.51 0 0 1 -.49-.51.48.48 0 0 1 .51-.49c40 1 65.29-27.29 65.54-27.57a.51.51 0 0 1 .71 0 .5.5 0 0 1 0 .71c-.23.21-25.02 27.86-64.27 27.86z"/><path d="m163.32 235.37a.58.58 0 0 1 -.18 0 .5.5 0 0 1 -.28-.64c8.29-21.71-6-66.28-6.15-66.73a.49.49 0 0 1 .32-.63.51.51 0 0 1 .63.32c.14.45 14.55 45.36 6.13 67.39a.52.52 0 0 1 -.47.29z"/><path d="m125.79 240a.52.52 0 0 1 -.44-.26.51.51 0 0 1 .2-.68c24.11-13.31 15.79-59.47 15.7-59.94a.5.5 0 0 1 .4-.58.51.51 0 0 1 .59.4c.08.47 8.52 47.34-16.21 61a.42.42 0 0 1 -.24.06z"/><path d="m267.79 98.48a.51.51 0 0 1 -.5-.46c-2.46-29.86-29.59-41.92-29.86-42a.49.49 0 0 1 -.26-.65.48.48 0 0 1 .65-.26c.28.12 28 12.4 30.47 42.87a.5.5 0 0 1 -.46.54z"/><path d="m276.74 229.73a.59.59 0 0 1 -.22 0c-9.69-4.7-16.43-15.22-20.38-23.21a97.12 97.12 0 0 1 -6.3-16.34.5.5 0 0 1 1-.25c.08.3 8.05 30.12 26.15 38.9a.5.5 0 0 1 -.22.95z"/></g></g></svg>