<svg height="512" viewBox="0 0 512 512" width="512" xmlns="http://www.w3.org/2000/svg" xmlns:xlink="http://www.w3.org/1999/xlink"><clipPath id="clip-path"><path d="m146 162.21c2.35 7.89 4.92 15.16 7.55 21.77a22.17 22.17 0 0 1 -13.93 1.63c-13.11-3.06-17.15-18.61-17.62-20.61-.94-3.63-3.69-14.24 3-22.74 4.91-6.2 12-7.68 14.32-8.06a256.88 256.88 0 0 0 6.68 28.01z"/></clipPath><clipPath id="clip-path-2"><path d="m286 161.84c-2.5 7.84-5.21 15.06-8 21.61a22.12 22.12 0 0 0 13.9 1.91c13.12-2.81 17.45-18.3 18-20.3 1-3.61 4-14.17-2.6-22.8-4.79-6.29-11.86-7.91-14.16-8.33a256.89 256.89 0 0 1 -7.14 27.91z"/></clipPath><g id="Playing_Video_Game" data-name="Playing Video Game"><path d="m126.83 221.72a20.64 20.64 0 0 0 -5.15 3.43 21.54 21.54 0 0 0 -6.24 10.77 15.83 15.83 0 0 0 -3.9-10 15.61 15.61 0 0 0 -7.65-4.68 14.75 14.75 0 0 0 7-3 15.25 15.25 0 0 0 5.46-9.37 13.41 13.41 0 0 0 2.34 7.34 13.82 13.82 0 0 0 8.14 5.51z" fill="#ffb833"/><path d="m83.24 101.39a20.64 20.64 0 0 0 -5.15 3.43 21.46 21.46 0 0 0 -6.24 10.77 15.43 15.43 0 0 0 -11.55-14.67 14.68 14.68 0 0 0 7-3 15.29 15.29 0 0 0 5.47-9.36 13.38 13.38 0 0 0 2.34 7.33 13.76 13.76 0 0 0 8.13 5.5z" fill="#ffb833"/><path d="m329.56 219.8a26.88 26.88 0 0 0 -6.74 4.49 28.1 28.1 0 0 0 -8.16 14.08 20.66 20.66 0 0 0 -5.1-13.06 20.41 20.41 0 0 0 -10-6.12 19.28 19.28 0 0 0 9.18-3.88 19.91 19.91 0 0 0 7.14-12.24 17.68 17.68 0 0 0 3.07 9.59 18 18 0 0 0 10.61 7.14z" fill="#ffb833"/><path d="m448.44 83.17s7.33 54 0 71.58-66.06 14.06-68.88 16.12-5.93 12.4-20.89 12.73c0 0 7.34-10.27 3.39-12.73s-11.85 1-18.35-5.11-13.83-68.76-10.44-78.92 70-12.71 81.29-13.27 31.05-.85 33.88 9.6z" fill="#00ccc1"/><path d="m156.74 57.68s-25.74.32-39.95 17.86l13 2s-16 13.14-20.09 31.34l10.87-1.68s.75 29.1 12.64 47.58 161.53 0 161.53 0 46.64-42.19 5.63-89.13l16.87 2.62s-19.54-25.76-55.64-25.27l16.4-6s-73.9-22.8-121.26 20.68z" fill="#37ad36"/><g fill="#ffb833"><path d="m345.14 108.86s14.46 13.42 14.86 14.39-1.23 29.75 0 30.75 6.09 1.24 6.78 0 1.38-31 1.94-32.79 9.13-22.83 7.74-23.66-7.33-.48-7.74 0-5.74 17.09-6.37 16.95-11.75-11.87-12.58-12.5-5.46 3-6 3.53 1.37 3.33 1.37 3.33z"/><path d="m376.63 116.56s1.57 31.26 4.38 32.51 18.44-3.46 18.86-5.4 0-4.56-1.39-5-11.76 3.18-12.17 1.66-1.8-6.74-1.49-7.44 11.31-2.76 11.42-4-.21-5-1.25-5.26-9.44 3.19-10.38 2.15-1.55-5-1.24-5.6 10.17-4.15 10.38-5.3-1-4.56-2.6-5-14.64 4.51-14.52 6.68z"/><path d="m412.14 105.58s-6.37-3-11.21 2.21-.55 12.59 2.63 13.28 6.36.39 7.75 4.83.62 12.6-2.15 11.5-2.32-6.71-3.72-7a3.14 3.14 0 0 0 -3.19 1.94c-.21.9 1.52 11.55 8.36 10s6.65-10.59 5.26-17.29-5.74-8.17-8.58-9.55a3.69 3.69 0 0 1 -.62-6.23c1.8-1.38 3 4 5.47 3.67s3.18-.83 3.25-2.08-1.66-4.04-3.25-5.28z"/><path d="m423 92.09s3.54 44.15 5.06 45.84 6.07 2.19 6.74 0-.51-47.19-2.87-49.89-9.18 1.54-8.93 4.05z"/><circle cx="429.7" cy="149.23" r="5.23"/><path d="m300.37 145.71s1.45-54.44-24.51-76.29-90.46-19.42-120.86 5.01-29 50.85-17.9 78.91z"/></g><path d="m252.46 245.7s32.43 2.53 52.26 18 52.83 96.11 52.83 96.11l-29.75 18.96-53.64-50.41s-41.32-49.66-21.7-82.66z" fill="#ff832f"/><path d="m193.14 203.52c2.24 8.5 3.9 20.67-1.33 32.24-8.39 18.54-25.9 16.55-39.08 30.23-21.55 22.36-4.47 58.48-3 131.88a495.4 495.4 0 0 1 -2.89 64.25 200.82 200.82 0 0 0 59.82 17.33c45.07 5.67 81.33-5.5 100.18-12.91a442.38 442.38 0 0 1 -9.66-69.71c-.81-13.83-.77-24.75-.66-46.05.35-69.79 4.39-80.71-5.77-91.68-14.41-15.58-34.72-6.72-47.24-24.67-7.75-11.11-7.3-25-5.55-35.43a37.9 37.9 0 0 0 -16.28-5.17c-15.14-1.16-25.96 7.5-28.54 9.69z" fill="#ffb08d"/><path d="m193.92 229.78a63.87 63.87 0 0 0 45.83-2.38l-2.59-17.4-42.3 2.52z" fill="#ff8c5f"/><circle cx="215.1" cy="139.79" fill="#ffb08d" r="74.1"/><path d="m141.06 143c2.75 35.43 22.48 65 50.91 75.51a69.29 69.29 0 0 0 44.27 1c27.71-8.93 48-35.87 52.45-69.28 0-.06-90.03-69.57-147.63-7.23z" fill="#ffb08d"/><path d="m262.05 136.14a22.66 22.66 0 0 0 -13.66-.58c-3.07.78-7.22 1.84-7.82 4.58a3.43 3.43 0 0 0 1 3.34c2 1.52 5.07-1.22 10.85-2.9 7.62-2.22 13.4-.71 13.59-2 .17-.84-2.79-1.99-3.96-2.44z" fill="#37ad36"/><path d="m171.46 133.35a22.66 22.66 0 0 1 13.68.42c3 1 7.06 2.37 7.45 5.15a3.44 3.44 0 0 1 -1.27 3.25c-2.07 1.37-5-1.59-10.61-3.69-7.43-2.77-13.3-1.7-13.41-2.94-.07-.91 2.97-1.83 4.16-2.19z" fill="#37ad36"/><path d="m216.2 169a42.06 42.06 0 0 1 -5.44-.39.75.75 0 0 1 -.65-.84.74.74 0 0 1 .84-.64c4.54.59 9.76.46 10.3-.68.69-1.45-1.82-9.58-3.83-14.89a.75.75 0 0 1 1.41-.53c.84 2.24 5 13.5 3.78 16.06-.72 1.5-3.61 1.91-6.41 1.91z"/><path d="m216.77 193a15.62 15.62 0 0 1 -5.17-.92.5.5 0 0 1 .37-.93c.05 0 4.85 1.85 8.7.07a.5.5 0 0 1 .67.24.52.52 0 0 1 -.25.67 10.37 10.37 0 0 1 -4.32.87z"/><ellipse cx="252.82" cy="178.95" fill="#ff8c5f" rx="5.48" ry="8.79" transform="matrix(.064 -.998 .998 .064 58.12 419.85)"/><ellipse cx="171.92" cy="173.78" fill="#ff8c5f" rx="5.48" ry="8.79" transform="matrix(.064 -.998 .998 .064 -12.47 334.27)"/><circle cx="184.35" cy="156.7" fill="#fff" r="9.86"/><circle cx="185.5" cy="156.44" fill="#383333" r="7.05"/><circle cx="187.57" cy="152.76" fill="#fff" r="2.05"/><circle cx="248.58" cy="158.87" fill="#fff" r="9.86"/><circle cx="247.43" cy="158.59" fill="#383333" r="7.05"/><circle cx="245.4" cy="154.89" fill="#fff" r="2.05"/><path d="m149.72 397.87a495.4 495.4 0 0 1 -2.89 64.25 200.82 200.82 0 0 0 59.82 17.33c45.07 5.67 81.33-5.5 100.18-12.91a442.38 442.38 0 0 1 -9.66-69.71c-.81-13.83-.77-24.75-.66-46.05.35-69.79 4.39-80.71-5.77-91.68-10-10.79-22.78-9.86-33.88-14.23-3.22 3.26-11.74 9.27-32.48 12.65a78.82 78.82 0 0 1 -47.06-6.52c-7.91 4.43-17 7.11-24.59 15-21.55 22.35-4.47 58.47-3.01 131.87z" fill="#ff832f"/><path d="m177.51 253.83a151.77 151.77 0 0 0 -23.92 4.33c-8.06 2.14-12.1 3.21-16.59 5.52-15 7.68-22.73 21.48-27.39 30.06-2.89 5.31-4.06 8.62-7.07 16.27-9.08 23.12-19.76 45.58-29.63 68.38l35.23 14.93s41.36-55.44 55.35-84a129.92 129.92 0 0 0 12.77-40.05 126.35 126.35 0 0 0 1.25-15.44z" fill="#ff832f"/><path d="m204.29 177.11 24.21.29a11.18 11.18 0 0 1 -1.65 6 12.13 12.13 0 0 1 -12 5.15c-5.32-.89-9.7-5.5-10.56-11.44z" fill="#fff"/><path d="m292 145.88a65.75 65.75 0 0 1 -6.9 18.25 17.94 17.94 0 0 1 -3.12-4.07c-1.52-2.71 1.17-17.6.85-25.27-.44-10.78-7.29-18.64-9.12-20.59-5.51-5.91-10.29-4.58-14.89-10.07s-5.16-12.39-5-17.54a40.71 40.71 0 0 1 -42.53 15.52q2.22-3 4.44-6.14 4.78-6.66 9.29-13.25a68.8 68.8 0 0 1 -31.91 18.4 66.76 66.76 0 0 1 -19.33 1.88 25 25 0 0 0 7.22-12.62 46.81 46.81 0 0 0 -17.57 10.7c-2 1.92-12.32 12.39-14.31 28.47-1.68 13.46 3.3 24.44-2.9 29.08a7.89 7.89 0 0 1 -2.47 1.25s-6.3-15.62-4.55-39.92a55.76 55.76 0 0 1 6.05-21.64c14.82-28.69 53.56-34.56 59.93-35.32 10.89-1.44 44.82-5.77 68.82 19.29 16.83 17.55 22.49 42.71 18 63.59z" fill="#37ad36"/><g clip-path="url(#clip-path)"><path d="m146 162.21c2.35 7.89 4.92 15.16 7.55 21.77a22.17 22.17 0 0 1 -13.93 1.63c-13.11-3.06-17.15-18.61-17.62-20.61-.94-3.63-3.69-14.24 3-22.74 4.91-6.2 12-7.68 14.32-8.06a256.88 256.88 0 0 0 6.68 28.01z" fill="#ff832f"/><ellipse cx="126.85" cy="165.42" fill="#ffb833" rx="7.4" ry="22.17" transform="matrix(.948 -.32 .32 .948 -46.21 49.21)"/></g><g clip-path="url(#clip-path-2)"><path d="m286 161.84c-2.5 7.84-5.21 15.06-8 21.61a22.12 22.12 0 0 0 13.9 1.91c13.12-2.81 17.45-18.3 18-20.3 1-3.61 4-14.17-2.6-22.8-4.79-6.29-11.86-7.91-14.16-8.33a256.89 256.89 0 0 1 -7.14 27.91z" fill="#ff832f"/><ellipse cx="308.52" cy="165.62" fill="#ffb833" rx="25.42" ry="15.67" transform="matrix(.163 -.987 .987 .163 94.87 443.06)"/></g><path d="m296.51 351.28a.49.49 0 0 1 -.47-.53c1.67-28.94.5-76.78.49-77.26a.5.5 0 0 1 .47-.49.51.51 0 0 1 .5.49c0 .48 1.19 48.36-.49 77.34a.5.5 0 0 1 -.5.45z"/><path d="m145.66 341.78a.5.5 0 0 1 -.49-.38c-3.85-15.77-3.25-45.35-3.24-45.65a.5.5 0 1 1 1 0c0 .3-.6 29.75 3.21 45.39a.5.5 0 0 1 -.37.61z"/><path d="m253.49 330.08a215 215 0 0 1 39.41 33.74c10.1 11.07 20.59 25 40 33.78 6.43 2.9 12.42 4.58 18.08 2.4 10.21-3.93 13.29-18.1 13.72-20.7 5.07-30.43-85.89-72.19-100.37-78.73q-5.43 14.76-10.84 29.51z" fill="#ffb08d"/><path d="m170.29 317.43c-25.29 11.76-104.29 49.69-99.49 69.57.42 1.73 2.88 9.18 9.67 13.54 7.43 4.76 16.06 3.28 20.06 2.6 16.72-2.85 46.14-26.36 77.92-63.34z" fill="#ffb08d"/><path d="m282.42 463.47a83 83 0 0 1 -12.14-.83c-16.18-2.41-25.51-11.17-29.79-20.55a42.08 42.08 0 0 1 -12.77-5.47c-17.7-10.88-25.41-32.75-22.29-63.26a187.21 187.21 0 0 1 10-42.86 1.5 1.5 0 1 1 2.79 1.08c-.29.78-29.39 77.63 11.06 102.48a41 41 0 0 0 9.84 4.53 31.17 31.17 0 0 1 -1.22-5.17c-1.93-13.14 4.32-25.15 15.93-30.61 7.3-3.43 11.21-.09 12.9 2.21 4.81 6.56 3.75 21.41-4.82 30.71a21.16 21.16 0 0 1 -17.8 6.92c4.28 7.88 12.69 15 26.6 17 35.47 5.26 85.72-16.85 86.22-17.08a1.5 1.5 0 1 1 1.22 2.74 257.89 257.89 0 0 1 -30.08 10.69c-12.6 3.66-29.64 7.47-45.65 7.47zm-39.82-24.08c6.77 1.08 12.63-.82 17.11-5.69 7.3-7.92 8.64-21.41 4.61-26.9-2-2.76-5.12-3.19-9.2-1.27-10.39 4.88-16 15.65-14.24 27.45a29 29 0 0 0 1.72 6.41z" fill="#383333"/><path d="m183 293.44s-15.4-1-20.45 7.38-8.6 54.61 3.79 61.69 23-9.9 27.81-14.05 39.94-7.69 45-6.68 12.37 12.81 27.55 8.59-7.08-62.44-13.14-66.23-21 2.53-26 3.54-18.56-.37-44.56 5.76z" fill="#383333"/><path d="m161.14 319c3.72-1.7 9.53-4 11.29-2.93 2 1.27.08 5.8-6.45 10.62 0 0 7.22-2.54 7.21 1s-5.19 6.14-5.19 6.14 5.19-1.94 7.08 0-1.08 5.17-6.08 8.31c0 0 9.1-2.65 7.71 1.65s-16.17 17.31-19.53 14.79 0-8.73 0-8.73-3.73 1.3-5-2.19 2.15-6.32 2.15-6.32-3.79 1.44-4.8-1.35 3.41-7.2 3.41-7.2c-2.48-2.35-2.71-4.22-2.65-5.18.23-3.74 5.29-6.05 10.85-8.61z" fill="#ffb08d"/><path d="m270.16 300.19c-3.72-1.7-9.53-4-11.29-2.92-2 1.26-.08 5.79 6.45 10.61 0 0-7.22-2.54-7.21 1s5.18 6.15 5.18 6.15-5.18-2-7.07 0 1.13 5.11 6.06 8.27c0 0-9.1-2.66-7.71 1.64s16.17 17.32 19.52 14.79 0-8.72 0-8.72 3.74 1.3 5-2.2-2.09-6.31-2.09-6.31 3.79 1.44 4.8-1.34-3.41-7.21-3.41-7.21c2.48-2.34 2.7-4.21 2.65-5.18-.26-3.77-5.32-6.05-10.88-8.58z" fill="#ffb08d"/><path d="m158.58 358.39a3.56 3.56 0 0 1 -3.08-1.18c-1.48-2 .61-6 1.29-7.16-2.67-.39-4.3-1.33-4.82-2.79-.8-2.18 1.13-4.81 1.9-5.74-2.65-.46-4.18-1.39-4.55-2.76-.64-2.31 2.24-5.08 3.19-5.92a5 5 0 0 1 -2.66-2.84 4.29 4.29 0 0 1 .33-3.17.25.25 0 1 1 .43.25 3.85 3.85 0 0 0 -.28 2.77 4.72 4.72 0 0 0 2.74 2.71.25.25 0 0 1 .14.2.23.23 0 0 1 -.09.22s-4 3.26-3.32 5.64c.34 1.24 1.88 2.07 4.59 2.48a.24.24 0 0 1 .2.16.25.25 0 0 1 -.05.25s-3 3.23-2.1 5.58c.48 1.33 2.09 2.18 4.79 2.52a.25.25 0 0 1 .2.14.23.23 0 0 1 0 .24c0 .05-3 4.84-1.51 6.92.83 1.14 2.89 1.29 6.13.46a.25.25 0 0 1 .3.18.24.24 0 0 1 -.18.3 14.54 14.54 0 0 1 -3.59.54z"/><path d="m157.2 350.1a.26.26 0 0 1 -.2-.1.25.25 0 0 1 .08-.34l11.81-7.72a.26.26 0 0 1 .35.08.25.25 0 0 1 -.08.34l-11.81 7.71a.23.23 0 0 1 -.15.03z"/><path d="m154.35 341.59a.24.24 0 0 1 -.22-.13.26.26 0 0 1 .1-.34l13.65-7.47a.25.25 0 0 1 .34.1.24.24 0 0 1 -.1.34l-13.65 7.47a.24.24 0 0 1 -.12.03z"/><path d="m153 333a.24.24 0 0 1 -.22-.14.25.25 0 0 1 .12-.34l13-6.06a.24.24 0 0 1 .33.12.25.25 0 0 1 -.12.33l-13 6.07z"/><path d="m274.09 331.27a.33.33 0 0 1 -.13 0l-11.81-7.72a.25.25 0 1 1 .27-.41l11.81 7.71a.24.24 0 0 1 .07.34.22.22 0 0 1 -.21.08z"/><path d="m276.94 322.75a.2.2 0 0 1 -.11 0l-14.66-7.8a.24.24 0 0 1 -.11-.33.25.25 0 0 1 .34-.11l14.66 7.79a.26.26 0 0 1 .11.34.26.26 0 0 1 -.23.11z"/><path d="m278.34 314.2h-.11l-13-6.07a.25.25 0 0 1 .21-.45l13 6.07a.25.25 0 0 1 -.1.47z"/><path d="m271.83 340.14a.25.25 0 0 1 -.25-.23.24.24 0 0 1 .22-.27 4 4 0 0 0 3-1.9c.81-1.6.27-4-1.59-7.06a.24.24 0 0 1 0-.27.24.24 0 0 1 .25-.1s3.32.59 4.48-1.08c.87-1.27.31-3.63-1.64-6.84a.25.25 0 0 1 0-.22.26.26 0 0 1 .16-.15s3.32-1 3.78-3.26c.31-1.46-.63-3.13-2.78-5a.26.26 0 0 1 -.07-.26.25.25 0 0 1 .21-.18 4.54 4.54 0 0 0 3-1.78 4.1 4.1 0 0 0 .05-3.6.26.26 0 0 1 .16-.32.25.25 0 0 1 .32.15 4.55 4.55 0 0 1 -.11 4 4.62 4.62 0 0 1 -2.85 1.91c2 1.85 2.89 3.57 2.56 5.12-.44 2.11-2.94 3.21-3.82 3.54 1.95 3.3 2.44 5.69 1.46 7.12s-3.4 1.46-4.46 1.35c1.74 3 2.19 5.42 1.35 7.1a4.45 4.45 0 0 1 -3.36 2.17z"/><path d="m226.85 96.27a.5.5 0 0 1 -.11-1c10.95-2.45 20.48-18.15 20.58-18.31a.5.5 0 0 1 .68-.17.49.49 0 0 1 .17.69c-.39.66-9.84 16.22-21.21 18.77z"/><path d="m188.93 96.27a.5.5 0 0 1 -.08-1c12.28-1.8 25.48-21.32 25.61-21.52a.5.5 0 0 1 .69-.14.51.51 0 0 1 .14.7c-.55.81-13.58 20.09-26.29 22z"/><path d="m131.46 70.48a.5.5 0 0 1 -.48-.35.51.51 0 0 1 .33-.63c.55-.17 13.57-4.13 21-1.51a.5.5 0 1 1 -.33 1c-7.16-2.51-20.28 1.48-20.42 1.52a.32.32 0 0 1 -.1-.03z"/><path d="m119 100.65a.53.53 0 0 1 -.27-.08.51.51 0 0 1 -.14-.7c.47-.7 11.63-17.32 23.1-20.93a.5.5 0 0 1 .63.33.51.51 0 0 1 -.33.63c-11.14 3.5-22.46 20.36-22.57 20.53a.5.5 0 0 1 -.42.22z"/><path d="m178.45 55a.5.5 0 0 1 -.23-.94c.35-.19 35.34-18.1 76.27-17.75a.5.5 0 0 1 .49.51.51.51 0 0 1 -.5.49c-40.69-.37-75.45 17.45-75.8 17.63a.46.46 0 0 1 -.23.06z"/><path d="m300.39 59.53a.47.47 0 0 1 -.25-.07c-19.64-10.92-55.72-9.72-56.08-9.71a.5.5 0 0 1 -.52-.48.5.5 0 0 1 .48-.52c.36 0 36.72-1.22 56.61 9.84a.49.49 0 0 1 .19.68.51.51 0 0 1 -.43.26z"/><path d="m303.53 123.91h-.06a.49.49 0 0 1 -.43-.55c4.96-40.55-14.34-48.79-14.54-48.87a.51.51 0 0 1 -.28-.65.51.51 0 0 1 .65-.28c.83.33 20.2 8.54 15.16 49.91a.51.51 0 0 1 -.5.44z"/></g></svg>