<svg height="512" viewBox="0 0 512 512" width="512" xmlns="http://www.w3.org/2000/svg"><g id="Reading_Book" data-name="Reading Book"><path d="m142.41 137.84a21.6 21.6 0 0 0 -5.48 3.66 22.78 22.78 0 0 0 -6.65 11.5 16.46 16.46 0 0 0 -12.28-15.66 15.64 15.64 0 0 0 7.47-3.15 16.19 16.19 0 0 0 5.81-10 14.37 14.37 0 0 0 2.49 7.81 14.64 14.64 0 0 0 8.64 5.84z" fill="#ffb833"/><path d="m366.24 226.68a21.87 21.87 0 0 0 -5.48 3.66 22.78 22.78 0 0 0 -6.65 11.46 16.82 16.82 0 0 0 -4.11-10.63 16.53 16.53 0 0 0 -8.14-5 15.77 15.77 0 0 0 7.44-3.17 16.26 16.26 0 0 0 5.81-10 14.37 14.37 0 0 0 2.49 7.8 14.64 14.64 0 0 0 8.64 5.88z" fill="#ffb833"/><path d="m398.16 120.65a28.2 28.2 0 0 0 -7.16 4.78 29.77 29.77 0 0 0 -8.69 15 22.07 22.07 0 0 0 -5.43-13.9 21.76 21.76 0 0 0 -10.64-6.53 20.6 20.6 0 0 0 9.77-4.13 21.2 21.2 0 0 0 7.6-13 18.83 18.83 0 0 0 3.26 10.21 19.19 19.19 0 0 0 11.29 7.57z" fill="#ffb833"/><path d="m180.78 126.53c-11.44 37 6.16 82.14 23.68 85.74a43.64 43.64 0 0 0 8.61.36c9-.19 16-2.1 29.37-5.86a96.26 96.26 0 0 1 14.22-3.32s4.55-.63 9.12-.74c14.91-.37 36.47 13.81 48.46 12.79 20.21-1.73 46.89-49.56 33.72-91.84-11.07-35.55-47.58-58.41-84.18-57.94-39.29.5-72.78 27.79-83 60.81z" fill="#383333"/><path d="m194.49 132.13c-.85-.74-5.5-4.64-11.78-3.81-.92.12-4.58.6-6.92 3.06-6.08 6.38-2.53 25.21 8.85 29.45 6.35 2.36 12.79-.71 15-1.87z" fill="#ff8c5f"/><path d="m188.7 154.78a.49.49 0 0 1 -.32-.12c-2.95-2.53-4.37-5.26-4.23-8.1.16-3.3 2.38-5.92 3.86-7.3l-9 .94a.5.5 0 0 1 -.11-1l10.68-1.11a.5.5 0 0 1 .52.32.51.51 0 0 1 -.18.59c-.05 0-4.52 3.24-4.72 7.62-.12 2.51 1.18 5 3.88 7.28a.5.5 0 0 1 -.33.88z"/><path d="m332 129.25c.83-.78 5.31-4.86 11.62-4.28.93.08 4.6.41 7 2.78 6.33 6.12 3.54 25.08-7.65 29.77-6.26 2.63-12.81-.18-15-1.25q2.03-13.51 4.03-27.02z" fill="#ff8c5f"/><path d="m338.72 151.64a.49.49 0 0 1 -.36-.15.5.5 0 0 1 0-.71c2.6-2.43 3.81-4.93 3.58-7.44-.38-4.37-5-7.39-5-7.42a.48.48 0 0 1 -.2-.57.49.49 0 0 1 .5-.35l10.72.68a.5.5 0 0 1 -.07 1l-9.08-.57c1.53 1.32 3.86 3.84 4.15 7.14.25 2.83-1.06 5.61-3.9 8.26a.48.48 0 0 1 -.34.13z"/><circle cx="263.78" cy="122.55" fill="#ffb08d" r="76.53"/><path d="m289.29 186.34c-1.64 7.94-3.08 21 3 33.5 9.73 19.83 28.21 16.93 40.36 31.22 22.35 26.19-11.65 68.94-8.33 137.07a203.5 203.5 0 0 0 14.46 65.49 207.32 207.32 0 0 1 -61.78 17.9c-46.55 5.86-84-5.68-103.47-13.33a248.48 248.48 0 0 0 13-89.86c-.53-12.07-1.53-13.33-2.33-29.69-2.78-54.15-8.18-86.57 11.42-97.09 20.56-11.05 45.59-16 51-27s5.38-33.55 5.38-33.55 12.92-13.7 37.29 5.34z" fill="#aaeeea"/><path d="m289.72 213.08s-20.57 10.38-42.43 0l.91-16.65h41.26q.14 8.33.26 16.65z" fill="#ff8c5f"/><path d="m187.68 130.7c5.17 36.33 27.44 65.56 57.44 74.48 4.81 1.42 24.14 6.59 45.69-1.91 28-11 47.14-40.14 49.5-74.87 0 0-97.37-65.71-152.63 2.3z" fill="#ffb08d"/><path d="m312.42 119.15a23.39 23.39 0 0 0 -13.35-4.63c-3.27-.13-7.69-.31-9.09 2.22a3.59 3.59 0 0 0 0 3.61c1.5 2.08 5.38.29 11.6.34 8.2.07 13.47 3.26 14 2.1.42-.85-2.14-2.85-3.16-3.64z" fill="#383333"/><path d="m218.16 122.85a23.38 23.38 0 0 1 12.73-6.13c3.23-.5 7.59-1.19 9.28 1.16a3.58 3.58 0 0 1 .39 3.59c-1.25 2.24-5.31.91-11.49 1.67-8.13 1-13 4.79-13.69 3.69-.49-.83 1.85-3.08 2.78-3.98z" fill="#383333"/><path d="m269.52 152.62c-3.46 0-8-.4-8.85-2.44-1.07-2.71 3.94-14 4.95-16.28a.75.75 0 0 1 1-.38.76.76 0 0 1 .38 1c-2.42 5.34-5.54 13.56-4.93 15.11.49 1.22 5.87 1.7 10.6 1.39a.75.75 0 0 1 .8.7.76.76 0 0 1 -.7.8c-.77.04-1.9.1-3.25.1z"/><path d="m266.62 178.46a16.36 16.36 0 0 1 -4.48-.63.5.5 0 0 1 .3-1c.05 0 5.13 1.59 9-.5a.5.5 0 0 1 .48.88 11.17 11.17 0 0 1 -5.3 1.25z"/><ellipse cx="305.24" cy="160.43" fill="#ff8c5f" rx="9.08" ry="5.66"/><ellipse cx="223.02" cy="160.43" fill="#ff8c5f" rx="9.08" ry="5.66"/><path d="m239.77 134.89c.46.18-6.3-5.84-13.21-2.19s-3.58 8.92-9 11c0 0 5.4 2 7.74-1.92s4.22-10.78 14.47-6.89z" fill="#383333"/><circle cx="233.2" cy="142.01" fill="#fff" r="10.18"/><circle cx="234.36" cy="141.66" fill="#383333" r="7.28"/><circle cx="236.26" cy="137.74" fill="#fff" r="2.12"/><path d="m292.2 133.7c-.44.23 5.58-6.53 12.87-3.69s4.58 8.45 10.21 9.9c0 0-5.13 2.59-7.91-1s-5.44-10.28-15.17-5.21z" fill="#383333"/><circle cx="299.54" cy="140.02" fill="#fff" r="10.18"/><circle cx="298.34" cy="139.81" fill="#383333" r="7.28"/><circle cx="296.01" cy="136.12" fill="#fff" r="2.12"/><path d="m223 229.59s-29.83 7.91-44.12 20.11-16.44 124.49-16.44 124.49h37.13z" fill="#00baac"/><path d="m180.42 427.16-10.42 32.29s43.41 37.39 82.51 13.67c0 0 18.66 12.51 44.49 5.7a147.86 147.86 0 0 0 45.2-21.17l-12.54-36.95-59.55 3.95z" fill="#aaeeea"/><path d="m304.1 233.26 18.16 9.46s-15.94 37.47-13.79 60.79 18.72 39.1 18.72 39.1a78.69 78.69 0 0 0 -2 26.3c2 19.78 10.77 30.61 8.76 51.43a65.52 65.52 0 0 1 -1.62 9.51 231.58 231.58 0 0 1 -56.5 14.71 234.88 234.88 0 0 1 -96.83-8.07 47.14 47.14 0 0 1 -3.78-14.49c-1.18-13.1 3.86-22 7-31.75 2.78-8.63 5.25-21.57 2.85-39.34a47.55 47.55 0 0 1 -7.9-18c-4.29-21.19 8-38.16 10.51-41.52l15.93-55.2q2.35-1 4.85-2a154.78 154.78 0 0 1 17.08-5.61 39.75 39.75 0 0 0 14.8 21.26c13.83 9.83 29.29 6.45 33.36 5.56 18.92-4.22 28.51-19.07 30.4-22.14z" fill="#00ccc1"/><path d="m280.16 54.06c-20.16 4.05-30.16 12.39-35.52 19.38-8.73 11.3-5.56 19.21-16.86 31.57-8.85 9.67-19.6 14.45-25.83 17.22a94.38 94.38 0 0 1 -23.43 6.93c-2.35-10.52-5.41-31.86 4-54.83 2.91-7.12 10.06-23 26.63-33.63 30.27-19.33 66.22-4.08 70-2.42 4.19-2.41 15.13-7.91 26.17-4.36a37.1 37.1 0 0 1 9.16 4.78 77.41 77.41 0 0 1 14 13.24c21.78 26.76 22.92 60.11 22.32 75.81a76.66 76.66 0 0 1 -24.27-7.41c-35.62-17.85-44.76-58.43-46.37-66.28z" fill="#383333"/><path d="m280.63 162.39a34.41 34.41 0 0 1 -30 1.48c3.84 7.87 12.24 11.74 19.37 9.69 7.8-2.25 10.44-10.56 10.63-11.17z" fill="#fff"/><path d="m314.32 238.81s27.83 9 32 37.32-11.47 66-32 92.55l-38.47-24.58s.15-65.1 38.47-105.29z" fill="#00ccc1"/><path d="m265.09 313.08-78 5.65-51.09-18.15-10.26-113.58a140.85 140.85 0 0 1 58.84 18.12 154.06 154.06 0 0 1 75.67-6.33q2.42 57.15 4.84 114.29z" fill="#fff3e3"/><path d="m258.09 320.79a256.74 256.74 0 0 0 -72.64 4.7 162.3 162.3 0 0 0 -51.12-18.15l-10.23-113.55a214.68 214.68 0 0 1 58.84 18.12 288.67 288.67 0 0 1 69.77-6.28q2.7 57.59 5.38 115.16z" fill="#ff535c"/><path d="m232.18 293s-8.83-13.83-12.66-19.86-3.09-18.1-7.79-18.25-3.54 11.63-3.54 11.63-11.33-19.52-15.45-19.86 0 9.71 0 9.71-9.12-10.45-12.21-9 3.83 10.88 3.83 10.88-7.07-5.44-9-3.38 6.77 11.92 6.77 11.92-6.62-4-8.39-2 7.54 11.11 11.42 18.32 8.74 11 14.48 13.25 13.41 14.64 13.41 14.64 18.25-6.36 19.13-18z" fill="#ffb08d"/><path d="m227 280.34a389.52 389.52 0 0 0 44.24 39.73c19.68 15.09 34.18 23.1 38.81 40.66.76 2.88 4 15.35-2.44 22.17-5.37 5.63-14.74 4.6-18.71 4.16-30.46-3.38-77.55-71.78-85.15-82.95a61.13 61.13 0 0 1 23.25-23.77z" fill="#00ccc1"/><path d="m115.63 300.25s-4-27.44 0-42.24 13.64-32.82 17.76-34.26 0 9.51 0 9.51 3.59-5.74 6.64-4.67-2.51 12.56-2.51 12.56 4.66-5.74 6.82-4.13-3.41 12.2-3.41 12.2 3.23-3.59 5.2-2.15-3.41 14-2.51 18.47c1.66 8.33 2 10.77 0 17.4a25.13 25.13 0 0 1 -4.85 9.06c-7.91 9.16-21.1 8.4-23.14 8.25z" fill="#ffb08d"/><path d="m142.4 286.89c10.3 20.62 19.08 36.94 25.09 47.83 13.67 24.82 21.39 36.93 18.72 53-.49 2.94-2.61 15.66-11.33 19.22-7.21 2.94-15.34-1.86-18.76-3.88-26.39-15.58-40.13-98-42.28-111.41z" fill="#00ccc1"/><path d="m184.24 121.63s1.3 33.7 16.59 44.46c0 0-8.39-31.15-4.08-51.63z" fill="#383333"/><path d="m232.1 161.84a27.63 27.63 0 1 1 27.63-27.63 27.66 27.66 0 0 1 -27.63 27.63zm0-52.26a24.63 24.63 0 1 0 24.63 24.63 24.66 24.66 0 0 0 -24.63-24.63z" fill="#fff"/><path d="m299.54 161.84a27.63 27.63 0 1 1 27.63-27.63 27.67 27.67 0 0 1 -27.63 27.63zm0-52.26a24.63 24.63 0 1 0 24.63 24.63 24.66 24.66 0 0 0 -24.63-24.63z" fill="#fff"/><path d="m273.82 140.34h-16a1.5 1.5 0 0 1 0-3h16a1.5 1.5 0 0 1 0 3z" fill="#fff"/><path d="m280.93 384.36a23.57 23.57 0 0 1 -2.78-.17c-9.77-1.18-23.33-12.15-40.28-32.58-12.58-15.16-22.45-30.18-22.54-30.33a.49.49 0 0 1 .14-.69.5.5 0 0 1 .69.14c.1.15 9.94 15.13 22.49 30.25 16.54 19.94 30.24 31.08 39.62 32.22 22.67 2.75 46.52-30.8 46.76-31.14a.5.5 0 1 1 .81.58 118.33 118.33 0 0 1 -15 16.81c-7.53 6.97-18.64 14.91-29.91 14.91z"/><path d="m296.3 347.88a.5.5 0 0 1 -.45-.28c-11.73-23.32-33.24-33.79-33.45-33.89a.5.5 0 1 1 .43-.9c.22.1 22 10.72 33.92 34.34a.51.51 0 0 1 -.23.68.54.54 0 0 1 -.22.05z"/><path d="m279.69 326a.53.53 0 0 1 -.24-.06.51.51 0 0 1 -.2-.68l22.75-41.48a.5.5 0 0 1 .88.48l-22.71 41.47a.49.49 0 0 1 -.48.27z"/><path d="m174.88 407.44a.48.48 0 0 1 -.41-.23.49.49 0 0 1 .14-.69c13-8.56 10.61-33.39 10.58-33.64a.5.5 0 0 1 .45-.55.49.49 0 0 1 .54.44 65.4 65.4 0 0 1 -.38 13.87c-1.37 9.86-5.05 17-10.64 20.72a.57.57 0 0 1 -.28.08z"/><g fill="#fff"><path d="m337.21 108.58c-10-1-20.65-9.45-31.75-25.21a172.56 172.56 0 0 1 -13.74-23.37.5.5 0 0 1 .91-.42c.21.46 21.52 45.73 44.63 48a.51.51 0 0 1 .45.54.52.52 0 0 1 -.5.46z"/><path d="m343.55 94.21c-20.68 0-34.13-25.31-34.27-25.57a.5.5 0 0 1 .21-.67.51.51 0 0 1 .68.21c.13.25 13.31 25 33.38 25h.63a.5.5 0 0 1 0 1z"/><path d="m187.25 112a.49.49 0 0 1 -.5-.45.5.5 0 0 1 .45-.55c14.63-1.37 29.46-16.39 35.36-30.11 8-18.56 27.72-24.71 27.92-24.77a.51.51 0 0 1 .63.33.5.5 0 0 1 -.34.62c-.19.06-19.51 6.09-27.29 24.21-7.95 18.49-24.57 29.63-36.19 30.72z"/><path d="m195.42 90.17h-.12a.51.51 0 0 1 -.37-.61c5.06-21.22 22.14-34.85 22.32-35a.5.5 0 1 1 .61.78c-.17.14-17 13.56-22 34.44a.5.5 0 0 1 -.44.39z"/><path d="m315.28 204.16a.5.5 0 0 1 -.45-.28.51.51 0 0 1 .22-.67c14.31-7.17 21.61-33.85 21.68-34.12a.5.5 0 1 1 1 .26c-.3 1.11-7.48 27.39-22.19 34.76a.59.59 0 0 1 -.26.05z"/><path d="m203.34 195.37a.5.5 0 0 1 -.31-.1c-5.32-4.16-10.55-22.88-10.77-23.67a.5.5 0 1 1 1-.27c.06.19 5.36 19.2 10.43 23.15a.49.49 0 0 1 .08.7.47.47 0 0 1 -.43.19z"/></g><path d="m127.51 245.52a.22.22 0 0 1 -.11 0 .24.24 0 0 1 -.11-.33l5.88-12a.24.24 0 0 1 .33-.12.25.25 0 0 1 .12.34l-5.89 12a.24.24 0 0 1 -.22.11z"/><path d="m133.39 249.29h-.11a.25.25 0 0 1 -.11-.33l4.13-7.9a.25.25 0 1 1 .44.24l-4.12 7.89a.28.28 0 0 1 -.23.1z"/><path d="m137.52 258.08a.15.15 0 0 1 -.09 0 .24.24 0 0 1 -.14-.32l3.41-8.61a.24.24 0 0 1 .3-.15.25.25 0 0 1 .14.32l-3.41 8.61a.25.25 0 0 1 -.21.15z"/><path d="m186.73 271.44a.27.27 0 0 1 -.17-.06l-4.56-4.38a.25.25 0 1 1 .34-.36l4.59 4.37a.26.26 0 0 1 0 .36.24.24 0 0 1 -.2.07z"/><path d="m191.1 264.72a.23.23 0 0 1 -.17-.07l-6.74-6.18a.25.25 0 0 1 0-.35.25.25 0 0 1 .36 0l6.74 6.18a.25.25 0 0 1 0 .36.25.25 0 0 1 -.19.06z"/><path d="m197 261.63a.25.25 0 0 1 -.19-.09l-4.28-5a.25.25 0 0 1 0-.35.24.24 0 0 1 .35 0l4.28 5a.25.25 0 0 1 -.19.42z"/></g></svg>