<svg height="512" viewBox="0 0 512 512" width="512" xmlns="http://www.w3.org/2000/svg"><g id="Watching_Movie" data-name="Watching Movie"><path d="m381.66 235.54a22.81 22.81 0 0 1 5.73 3.82 23.88 23.88 0 0 1 6.94 12 17.61 17.61 0 0 1 4.34-11.11 17.4 17.4 0 0 1 8.51-5.21 16.44 16.44 0 0 1 -7.82-3.3 17 17 0 0 1 -6.07-10.41 15.06 15.06 0 0 1 -2.61 8.16 15.29 15.29 0 0 1 -9.02 6.05z" fill="#ffb833"/><path d="m117.91 67.19a23.08 23.08 0 0 1 5.73 3.81 24 24 0 0 1 7 12 17.19 17.19 0 0 1 12.84-16.32 16.37 16.37 0 0 1 -7.81-3.29 17 17 0 0 1 -6.12-10.39 15 15 0 0 1 -2.61 8.16 15.25 15.25 0 0 1 -9.03 6.03z" fill="#ffb833"/><path d="m101.23 166.83a29.74 29.74 0 0 1 7.49 5 31.21 31.21 0 0 1 9.08 15.67 23 23 0 0 1 5.68-14.5 22.75 22.75 0 0 1 11.12-6.81 21.52 21.52 0 0 1 -10.21-4.32 22.16 22.16 0 0 1 -8-13.62 19.65 19.65 0 0 1 -3.39 10.63 20 20 0 0 1 -11.77 7.95z" fill="#ffb833"/><path d="m381.66 107.58a29.81 29.81 0 0 1 7.49 5 31.23 31.23 0 0 1 9.08 15.66 23 23 0 0 1 5.68-14.53 22.75 22.75 0 0 1 11.09-6.81 21.37 21.37 0 0 1 -10.21-4.31 22.2 22.2 0 0 1 -7.92-13.59 19.7 19.7 0 0 1 -3.41 10.68 20 20 0 0 1 -11.8 7.9z" fill="#ffb833"/><path d="m319.08 57.53a43.62 43.62 0 0 0 28.92 25.53c22.11 5.94 19.14 35.42 12 45.62s21.37 7.37 26.12 24.51-14.84 24.28-6.53 36.74 8.29 48.09-40.39 62.34-147.23-1.18-170.38-19-12.47-37-4.16-51.74-7.22-13.67-9.84-31.43 19.94-9 14-32.1 3-46 32.66-44.33 66.52-46.42 117.6-16.14z" fill="#ff535c"/><path d="m134.48 262a59.89 59.89 0 0 0 -15-18.56c-6.42-5.22-12.75-7.95-18.19-16.31-1.66-2.56-5.12-7.89-3.56-9.75 3.8-4.55 33.56 16.08 38.25 10.5 1.63-1.95-.85-5.8 1.87-13.13.64-1.72 1.55-4.1 2.81-4.12 1.52 0 2.64 3.32 4.88 9.37 1.51 4.08 3.34 8.05 4.69 12.19 1.77 5.44 5.07 13.56 11.81 25.12z" fill="#ffdb99"/><path d="m316.5 206.74c7.65 1.18 21.09 4.5 31.53 15.39 5.14 5.36 8.88 11.86 15 32.94a411.93 411.93 0 0 1 11 49.78h-42.65l-9-27.93z" fill="#ffc871"/><path d="m230.28 206.74c-7.24.95-21.39 3.94-31.53 15.39-8.2 9.26-10 19.8-11.23 27.4-4 25.33-7.93 52.07-11.53 80.52l37.8-4.55 10.58-48.58z" fill="#ffdb99"/><path d="m205.75 116.4a13.4 13.4 0 0 0 -10.12-3.27 10.32 10.32 0 0 0 -5.94 2.63c-5.21 5.47-2.17 21.63 7.6 25.27 5.45 2 11-.61 12.83-1.6q-2.19-11.52-4.37-23.03z" fill="#ffc871"/><path d="m200.78 135.66a.27.27 0 0 1 -.17-.06c-2.48-2.14-3.68-4.43-3.56-6.81.15-3.1 2.47-5.49 3.66-6.51l-8.32.87a.25.25 0 0 1 0-.5l9.16-1a.23.23 0 0 1 .26.16.24.24 0 0 1 -.09.29s-3.94 2.83-4.12 6.67c-.11 2.22 1 4.37 3.39 6.4a.25.25 0 0 1 0 .35.25.25 0 0 1 -.21.14z"/><path d="m322.52 113.93a13.29 13.29 0 0 1 10-3.67 10.19 10.19 0 0 1 6 2.38c5.43 5.26 3 21.53-6.57 25.55-5.37 2.25-11-.16-12.88-1.08q1.72-11.6 3.45-23.18z" fill="#ffc871"/><path d="m328.25 133a.25.25 0 0 1 -.18-.08.24.24 0 0 1 0-.35c2.27-2.13 3.33-4.32 3.13-6.53-.34-3.84-4.35-6.48-4.39-6.5a.24.24 0 0 1 -.1-.29.22.22 0 0 1 .25-.17l9.19.58a.25.25 0 0 1 .24.26.24.24 0 0 1 -.27.24l-8.34-.53c1.23 1 3.64 3.27 3.92 6.36.21 2.37-.9 4.71-3.29 6.94a.23.23 0 0 1 -.16.07z"/><circle cx="263.94" cy="108.18" fill="#ffdb99" r="65.67"/><path d="m336.92 319.08c.43-10.36 1.24-11.43 2-25.48 2.39-46.46 7-74.28-9.8-83.31-17.64-9.48-39.12-13.72-43.78-23.2s-4.57-28.75-4.57-28.75-11.11-11.76-32 4.58c1.4 6.81 2.64 18.05-2.61 28.75-8.35 17-24.21 14.52-34.63 26.79-19.1 22.46 10 59.13 7.18 117.61a174.58 174.58 0 0 1 -12.41 56.19 178.11 178.11 0 0 0 53 15.36 181.41 181.41 0 0 0 88.7-11.44 213 213 0 0 1 -11.08-77.1z" fill="#ffdb99"/><path d="m248.36 185.77s20.05 6.49 36.15-.5l-1.06-14.57-34.22 1.87z" fill="#ffc871"/><path d="m198.65 115.17c4.43 31.18 23.55 56.26 49.28 63.91a61.46 61.46 0 0 0 39.21-1.63c24-9.47 40.45-34.45 42.47-64.25 0 0-83.55-56.38-130.96 1.97z" fill="#ffdb99"/><path d="m305.68 105.26a20.08 20.08 0 0 0 -11.46-4c-2.8-.12-6.59-.28-7.8 1.9a3.09 3.09 0 0 0 0 3.1c1.28 1.78 4.61.24 9.95.29 7 0 11.56 2.79 12 1.8.41-.69-1.81-2.41-2.69-3.09z" fill="#ff535c"/><path d="m224.8 108.44a20 20 0 0 1 10.92-5.26c2.77-.43 6.52-1 8 1a3.06 3.06 0 0 1 .33 3.08c-1.07 1.92-4.55.77-9.85 1.43-7 .86-11.16 4.11-11.75 3.17-.45-.68 1.55-2.65 2.35-3.42z" fill="#ff535c"/><path d="m269 133.84c-2.86 0-6.87-.31-7.54-2-.9-2.27 3.38-12 4.25-13.86a.5.5 0 0 1 .91.41c-1.94 4.29-4.8 11.63-4.23 13.08.51 1.28 5.7 1.52 9.23 1.28a.5.5 0 1 1 .07 1c-.51.03-1.52.09-2.69.09z"/><ellipse cx="299.52" cy="140.69" fill="#ffc871" rx="7.79" ry="4.85"/><ellipse cx="227.68" cy="140.69" fill="#ffc871" rx="7.79" ry="4.85"/><path d="m336.92 319.08c.31-7.35.8-10 1.32-16 .36-4.11.49-6.82.64-9.51 1.77-33 9-73.4-6.74-83.18-.44-.28 0 0-7.72-3-9.49-3.69-17.07-6.84-22-8.91-7.83 16.71-24.81 25.86-40.38 22.86-15.95-3.07-23.62-17.59-24.64-19.59-3.4 1.28-8.81 3.31-15.53 5.74-11.86 4.28-12.34 4.23-13.46 5.34-6.42 6.37.3 16.88 0 38.2-.18 13.16-2.8 13.18-3.36 26.52-.77 18.19 3.55 31.38 5.34 38.19 4 15.31 6 39.28-4.19 76.46a178.11 178.11 0 0 0 53 15.36 181.41 181.41 0 0 0 88.8-11.38 213 213 0 0 1 -11.08-77.1z" fill="#383333"/><path d="m334 220.13c8.64 16.57 16.36 31.87 23.15 45.63 16.3 33 21.57 45.75 16 56.43-.59 1.14-5 9.37-13.27 11.13-7.15 1.53-13.47-2.55-16.37-4.49-18.51-12.34-23.22-40.05-27.47-67a299.87 299.87 0 0 1 -3.42-34.6z" fill="#ffdb99"/><path d="m266.83 160.1a7.52 7.52 0 0 1 -3.83-1.1.25.25 0 0 1 -.08-.35.25.25 0 0 1 .34-.08 6.93 6.93 0 0 0 7.18 0 .27.27 0 0 1 .35.08.26.26 0 0 1 -.09.35 7.45 7.45 0 0 1 -3.7 1.1z"/><path d="m303.12 473.3s39.42 5.61 52.3 6.59 44.4 4.42 48.21-8.73-20.05-25.64-41-23.35-53.17-4.13-53.17-4.13z" fill="#ffc871"/><path d="m213.19 354.15s-2.24-5.53.92-9.74 8.16-2.17 8.16-2.17-2.57-8.45 2.2-11.43 10.14 2.19 10.14 2.19-1.94-8.29 2.93-10a5.38 5.38 0 0 1 6.89 2.36s1.47-8.42 7-9.93 7.18 3 7.18 3 3.75-4.44 7.5-3.28 3.16 4 3.16 4 4.93-3.68 9.41-2.17a4.26 4.26 0 0 1 2.9 5.66s4.93-3.1 7.7-1.22 1.44 6 1.44 6 5.14-4.48 8.69-2.37 2 6.71 2 6.71 4.22-5.39 8.69-3.42a5.08 5.08 0 0 1 3 6.29s3.55-4.93 9-3.7 2.89 6 2.89 6 1.43-3.87 6.31-2.27 2.65 7 2.65 7 7.38-2.76 8.95 2.77-7.11 9.87-7.11 9.87z" fill="#fff3e3"/><path d="m213.22 349.12h124.78a3.29 3.29 0 0 1 3.29 3.29v39.26a25.79 25.79 0 0 1 -25.79 25.79h-80.37a25.21 25.21 0 0 1 -25.21-25.21v-39.84a3.29 3.29 0 0 1 3.3-3.29z" fill="#ffb833"/><g fill="#ffdb99"><circle cx="241.64" cy="334.34" r="3.35"/><circle cx="251.11" cy="342.86" r="3.35"/><circle cx="236.18" cy="342.86" r="3.35"/><circle cx="285.42" cy="330.99" r="3.35"/><circle cx="294.52" cy="336.16" r="3.35"/><circle cx="283.08" cy="342.86" r="3.35"/><circle cx="308.65" cy="342.86" r="3.35"/></g><path d="m352.34 443.47a479.39 479.39 0 0 1 -101.86-42.25c-48.41-27.12-74.28-53.09-97.33-43-13.87 6.06-24.09 24-22.64 38.48 4.52 45 123.14 69.82 207.49 82.24z" fill="#00baac"/><path d="m244.88 473.63s-40.6 5.78-53.87 6.79-45.73 4.54-49.64-9 20.63-26.42 42.17-24.05 54.77-4.25 54.77-4.25z" fill="#ffdb99"/><path d="m200.62 443.47a479.39 479.39 0 0 0 101.86-42.25c48.41-27.12 74.28-53.09 97.33-43 13.87 6.06 24.09 24 22.64 38.48-4.52 45-123.14 69.82-207.49 82.24z" fill="#00ccc1"/><path d="m126.29 248.45c2.33 6.1 35.68 92.26 59.59 100.15 10.68 3.53 17.32 0 17.32 0 6.79-5.37 8.92-10.47 9.68-13.94 4-18.09-20.45-32.59-47-71.42a278.45 278.45 0 0 1 -15-24.6z" fill="#ffdb99"/><path d="m271.61 51.6c-6.34 12.73-23.18 41.87-57.2 56.79a105.89 105.89 0 0 1 -24.72 7.37s-7.76-19-8.06-32.08 19.88-8.34 23.3-25.26 36.89-39.73 71.55-17.81c0 0 26.27-5.34 42.6 5.64s8.6 33.55 17.07 40.67 2.38 25.72 2.38 25.72-25.23 1.59-30.06-17.11-10.42-39.78-36.86-43.93z" fill="#ff535c"/><path d="m197 109.19s-1.6 23.27 12.37 37.81c0 0-6-25.91 2-44.27-.02.02-7.37-5.12-14.37 6.46z" fill="#ff535c"/><ellipse cx="267.79" cy="146.68" fill="#fff" rx="12.38" ry="7.56"/><path d="m322.08 176.67a5.88 5.88 0 0 0 -1.52.23c0-.08 0-.15 0-.23a6 6 0 0 0 -11.95 0 5.9 5.9 0 0 0 .31 1.79 5.57 5.57 0 1 0 7.33 5.27 5.43 5.43 0 0 0 -.16-1.29l.17-.06s0 .06 0 .09a5.81 5.81 0 1 0 5.81-5.8z" fill="#fff3e3"/><path d="m316.45 238.55s-8.72-21.17-8.88-27-1.94-25 0-27.95 4.68.48 4.68.48-.38-3.12 1.62-4.25 3.71 2.64 3.71 2.64-.32-3 1.51-3.45 3.28 3.34 3.28 3.34-.45-2.8.67-3.35a1.15 1.15 0 0 1 .84 0c2.83.8 6.91 9.5 6.91 9.5 3.67 7.81 3.58 6.29 4.5 9 2.24 6.56.87 9.89 1.5 19.31a87 87 0 0 0 2 13.32 34.17 34.17 0 0 1 -4.13 3 37.3 37.3 0 0 1 -18.21 5.41z" fill="#ffdb99"/><rect fill="#fff" height="24.19" rx="3.49" width="48.51" x="210.46" y="112.22"/><rect fill="#fff" height="24.19" rx="3.49" width="46" x="271.79" y="112.22"/><path d="m283.16 122.55-11.1-.14a7.79 7.79 0 0 0 -7.46-3.93 8.23 8.23 0 0 0 -6.19 4.35l-11.71-.28v-10.33h36.46z" fill="#fff"/><rect fill="#fff" height="9.48" rx="1.03" width="15.94" x="314.29" y="112.24"/><rect fill="#fff" height="9.48" rx=".6" width="15.94" x="198.61" y="112.24"/><rect fill="#00ccc1" height="17.44" rx=".55" width="41.76" x="213.84" y="115.6"/><rect fill="#ff1a26" height="17.44" rx=".55" width="39.25" x="275.17" y="115.6"/><rect fill="#383333" height="10.5" rx="3.78" transform="matrix(.94 .35 -.35 .94 89.82 -31.2)" width="82.27" x="89.54" y="226.06"/><path d="m314.29 197a.25.25 0 0 1 -.24-.21l-2.05-12.65a.25.25 0 0 1 .5-.08l2 12.66a.26.26 0 0 1 -.21.29z"/><path d="m320.29 193.73a.26.26 0 0 1 -.24-.19l-2.71-11a.26.26 0 0 1 .18-.31.25.25 0 0 1 .3.19l2.72 11a.25.25 0 0 1 -.19.3z"/><path d="m326.48 193.73a.24.24 0 0 1 -.23-.16l-4.11-11.11a.25.25 0 0 1 .15-.32.26.26 0 0 1 .32.15l4.1 11.1a.24.24 0 0 1 -.14.32z"/><path d="m209.93 319.65a.28.28 0 0 1 -.23-.13c-6-11.36-27.52-34.29-27.74-34.52a.25.25 0 0 1 0-.35.26.26 0 0 1 .36 0c.21.23 21.75 23.21 27.82 34.62a.26.26 0 0 1 -.11.34.23.23 0 0 1 -.1.04z"/><path d="m338.36 103.27c-16.18 0-22.21-17.61-26.69-30.67-1.17-3.42-2.27-6.65-3.43-9.19-3-6.6-10.38-10.26-16.05-12.17a57 57 0 0 0 -11.76-2.59.26.26 0 0 1 -.23-.27.24.24 0 0 1 .27-.23 58 58 0 0 1 11.87 2.61c5.77 1.94 13.29 5.68 16.36 12.44 1.16 2.56 2.27 5.81 3.45 9.24 5 14.45 11.1 32.45 29.2 30.13a.25.25 0 0 1 .07.5 25.19 25.19 0 0 1 -3.06.2z" fill="#383333"/><path d="m198.28 103.27a.25.25 0 0 1 -.05-.5c21-3.51 36.3-17.56 45.47-28.72a114.06 114.06 0 0 0 15.05-23.64.25.25 0 0 1 .33-.13.26.26 0 0 1 .13.33 114.7 114.7 0 0 1 -15.11 23.75c-9.23 11.23-24.66 25.36-45.78 28.91z" fill="#383333"/><path d="m188.54 89q-.69 0-1.38 0a.25.25 0 1 1 0-.5c25.84 1.07 53.71-28.83 54-29.13a.25.25 0 0 1 .35 0 .26.26 0 0 1 0 .36c-.25.27-27.3 29.27-52.97 29.27z" fill="#383333"/><path d="m358 211.63a.2.2 0 0 1 -.11 0 .26.26 0 0 1 -.11-.34c5.19-10.29 1.68-17.11-1.42-23.13-2.61-5.08-4.87-9.47-.61-14.45 3.22-3.77 4.67-7.81 4.32-12-.59-7.16-6.13-13.21-10.67-17-9.43-7.93-1.64-20.33-1.56-20.46a.25.25 0 0 1 .42.27c-.08.12-7.63 12.16 1.46 19.8 4.62 3.88 10.25 10 10.85 17.37.36 4.35-1.13 8.52-4.44 12.39-4 4.73-2 8.78.68 13.9 3 5.82 6.73 13.07 1.41 23.59a.25.25 0 0 1 -.22.06z" fill="#383333"/><path d="m185.85 222h-.08c-3.27-1.12-7.3-4.89-8.66-9.92-.83-3-1-7.68 3.12-12.41 8.16-9.5 11-15.73 1.28-31.77-3.27-5.45-4.29-10.5-3-15a16.58 16.58 0 0 1 7.44-9.34.26.26 0 0 1 .34.11.25.25 0 0 1 -.1.34 16 16 0 0 0 -7.2 9c-1.22 4.38-.22 9.3 3 14.62 9.84 16.33 7 22.67-1.34 32.35-3.93 4.57-3.8 9-3 12 1.32 4.86 5.2 8.5 8.34 9.58a.26.26 0 0 1 .16.32.26.26 0 0 1 -.3.12z" fill="#383333"/><path d="m208.54 207a.31.31 0 0 1 -.18-.07 8.15 8.15 0 0 1 -2.68-6.66c.34-3.85 3.55-8 9.28-11.95 2.19-1.52 3.36-3.23 3.56-5.22.48-4.67-4.57-10-8.62-14.23-1-1-1.89-2-2.67-2.87a8.53 8.53 0 0 1 0-11.92.25.25 0 0 1 .35.35 8 8 0 0 0 0 11.24c.78.88 1.69 1.84 2.66 2.86 4.13 4.33 9.26 9.72 8.76 14.62-.22 2.12-1.49 4-3.77 5.58-5.61 3.88-8.75 7.89-9.07 11.59a7.62 7.62 0 0 0 2.54 6.25.25.25 0 0 1 0 .35.27.27 0 0 1 -.16.08z" fill="#383333"/><path d="m344.94 207a.3.3 0 0 1 -.15-.05.25.25 0 0 1 -.05-.35 11.19 11.19 0 0 0 1.89-10.05 8.7 8.7 0 0 0 -5.33-5.87c-3.14-1.11-5.09-2.7-6-4.86-1-2.58-.52-5.91 1.6-10.16 4-8.07-1.11-11.73-8.24-16.81l-1-.69a7.56 7.56 0 0 1 -3.45-5.43c-.42-4.32 3.26-8.28 3.42-8.45a.25.25 0 0 1 .35 0 .26.26 0 0 1 0 .36s-3.68 4-3.28 8a7 7 0 0 0 3.24 5.07l1 .69c7.05 5 12.63 9 8.4 17.44-2.06 4.12-2.58 7.31-1.59 9.76.82 2 2.67 3.51 5.67 4.57a9.21 9.21 0 0 1 5.64 6.19 11.74 11.74 0 0 1 -2 10.5.25.25 0 0 1 -.12.14z" fill="#383333"/><path d="m266.83 244.65 15.6-6.64-1.5 16.89 11.13 12.78-16.51 3.79-8.72 14.54-8.71-14.54-16.52-3.79 11.13-12.78-1.49-16.89z" fill="#ff1a26"/></g></svg>