<svg height="512" viewBox="0 0 512 512" width="512" xmlns="http://www.w3.org/2000/svg"><g id="Watering_Plant" data-name="Watering Plant"><path d="m222.77 147.65a68.43 68.43 0 0 0 3.23 24.67c2.95 9.05 8.36 25.67 22.3 32.34 5.44 2.6 12.86 4.1 14.68 9.85a8.87 8.87 0 0 1 0 5 109.18 109.18 0 0 0 28.11-3.85c19.2-5.32 26.29-13.25 43.25-13.06 2 0 6.43.19 6.69-.92.66-2.91-28.12-9.46-27.83-18.24a3.83 3.83 0 0 1 .18-1.08z" fill="#ffb833"/><path d="m273.58 225.91a118 118 0 0 0 -21.58 7.09 132.09 132.09 0 0 0 -13 6.69c-17.83 10.76-31 41.87-36.79 55.38-5.32 12.46-14.1 32.9-27.13 62.43l35.35 30.22s28.57-25 44.92-85.22c3.36-9.76 6.58-20.36 9.47-31.74a404.31 404.31 0 0 0 8.76-44.85z" fill="#ff535c"/><path d="m150.1 148.12a20.73 20.73 0 0 1 5.21 3.48 21.65 21.65 0 0 1 6.32 10.9 16.1 16.1 0 0 1 4-10.11 15.79 15.79 0 0 1 7.75-4.74 14.91 14.91 0 0 1 -7.11-3 15.4 15.4 0 0 1 -5.53-9.48 13.68 13.68 0 0 1 -2.37 7.42 13.89 13.89 0 0 1 -8.27 5.53z" fill="#ffb833"/><path d="m384.8 196.93a20.6 20.6 0 0 1 5.2 3.47 21.77 21.77 0 0 1 6.32 10.9 15.64 15.64 0 0 1 11.68-14.85 14.88 14.88 0 0 1 -7.11-3 15.45 15.45 0 0 1 -5.53-9.48 13.73 13.73 0 0 1 -2.36 7.43 14 14 0 0 1 -8.2 5.53z" fill="#ffb833"/><path d="m181.88 224.6a27.2 27.2 0 0 1 6.82 4.55 28.37 28.37 0 0 1 8.3 14.25 21 21 0 0 1 5.17-13.22 20.71 20.71 0 0 1 10.12-6.2 19.53 19.53 0 0 1 -9.29-3.93 20.21 20.21 0 0 1 -7.24-12.39 17.82 17.82 0 0 1 -3.1 9.71 18.22 18.22 0 0 1 -10.78 7.23z" fill="#ffb833"/><circle cx="286.03" cy="118.34" fill="#ffdb99" r="79.28"/><path d="m285.39 178.64c1.69 8.22 3.18 21.8-3.16 34.71-10.08 20.54-29.22 17.54-41.81 32.34-23.06 27.13 12.13 71.4 8.68 142a210.61 210.61 0 0 1 -15 67.85 214.89 214.89 0 0 0 64 18.54c48.23 6.07 87-5.88 107.19-13.81a257.51 257.51 0 0 1 -13.41-93.09c.52-12.5 1.49-13.8 2.37-30.76 2.88-56.1 8.47-89.68-11.84-100.59-21.3-11.44-47.22-16.56-52.85-28s-5.56-34.71-5.56-34.71-13.37-14.2-38.61 5.52z" fill="#ffdb99"/><path d="m275.33 223.12a57.37 57.37 0 0 0 19.51.63c17.89-2.52 29.56-12.94 34-17.38a40.44 40.44 0 0 1 -1.15-5.69 39.23 39.23 0 0 1 .16-10.82l-49.85 3.23c1.44 4.1 3.95 13.23.55 23.28a32.15 32.15 0 0 1 -3.22 6.75z" fill="#ffc871"/><path d="m209.9 140.46c6 36.19 28.69 63.73 57.11 70 23.4 5.16 43-5.8 49.3-9.34 45.37-25.39 48.61-84.86 48.84-90.7 0 0-111.24-49.35-155.25 30.04z" fill="#ffdb99"/><path d="m309.22 124a22.14 22.14 0 0 0 -13.22-2.1c-3.07.42-7.22 1-8.11 3.58a3.39 3.39 0 0 0 .63 3.36c1.74 1.69 5.06-.62 10.87-1.61 7.65-1.3 13.1.81 13.43-.37.23-.86-2.52-2.27-3.6-2.86z" fill="#ffb833"/><path d="m221.93 143.11a22.18 22.18 0 0 1 10.86-7.82c2.92-1 6.88-2.38 8.85-.46a3.38 3.38 0 0 1 1 3.28c-.79 2.3-4.8 1.73-10.43 3.47-7.42 2.28-11.33 6.62-12.15 5.71-.65-.65 1.16-3.18 1.87-4.18z" fill="#ffb833"/><path d="m270.11 162.88c-1.84 0-3.43-.33-4-1.31-1.46-2.36 1.33-13.77 1.91-16a.75.75 0 0 1 1.45.37c-1.61 6.36-2.84 13.67-2.09 14.88.65 1 5.73.59 10.07-.48a.75.75 0 1 1 .36 1.46 36 36 0 0 1 -7.7 1.08z"/><path d="m275.48 187.48a.5.5 0 0 1 0-1s5.07-.17 7.87-3.23a.5.5 0 0 1 .74.67c-3.09 3.38-8.36 3.55-8.59 3.56z"/><ellipse cx="309.37" cy="163.71" fill="#ffc871" rx="8.6" ry="5.36" transform="matrix(.985 -.175 .175 .985 -23.9 56.74)"/><ellipse cx="236.8" cy="177.61" fill="#ffc871" rx="8.6" ry="5.36" transform="matrix(.985 -.175 .175 .985 -27.46 44.24)"/><path d="m362 225.91a118 118 0 0 1 21.59 7.09 132.09 132.09 0 0 1 13 6.69c17.83 10.76 31 41.87 36.79 55.38 5.32 12.46 14.11 32.9 27.13 62.43l-35.34 30.22s-28.58-25-44.93-85.22c-3.36-9.76-6.58-20.36-9.47-31.74a404.31 404.31 0 0 1 -8.77-44.85z" fill="#ff535c"/><path d="m272.28 225.59a38.87 38.87 0 0 0 18.18 16.41 41.82 41.82 0 0 0 23 2.11c29.21-5.57 33.23-23.75 33.23-23.75s40.95 12.42 50.8 21.71 4.91 74-.25 112.42 14 103.69 14 103.69-89.75 55.19-182.85-6.13c0 0 13.15-30.36 17-54.63s-10.18-81.67-12.89-110.1c-.37-3.83-3.65-40.57 10.62-50a79.14 79.14 0 0 1 7-3.93 92.3 92.3 0 0 1 22.16-7.8z" fill="#ff535c"/><path d="m137.86 453.34s105-63.39 80-104.68-95.74 78.34-95.74 78.34z" fill="#ff535c"/><path d="m337.32 361.66s110-42.53 126.69.75c.21.56 2.81 5.95.81 11.27-8 21.28-78 12.14-81.9 11.6a214.47 214.47 0 0 1 -23.13-4.46z" fill="#ff535c"/><path d="m242.74 343.48a.51.51 0 0 1 -.36-.15c-7.06-7.24-11-14.81-11.65-22.49-.57-6.47 1.28-11.35 3.84-18.1a167.68 167.68 0 0 0 5.43-16.38 146.72 146.72 0 0 0 4.07-21.11.5.5 0 0 1 1 .11 145.83 145.83 0 0 1 -4.1 21.26 164.2 164.2 0 0 1 -5.49 16.47c-2.6 6.88-4.32 11.42-3.77 17.66.65 7.45 4.48 14.81 11.37 21.88a.51.51 0 0 1 0 .71.54.54 0 0 1 -.34.14z"/><path d="m244.08 150.76c.46.09-6.84-4.41-12.68.14s-1.86 8.92-6.57 11.77c0 0 5.36 1 6.9-3.08s2.14-10.78 12.35-8.83z" fill="#383333"/><circle cx="239.14" cy="158.48" fill="#fff" r="9.65"/><circle cx="240.17" cy="157.97" fill="#383333" r="6.89"/><circle cx="241.28" cy="153.99" fill="#fff" r="2.01"/><path d="m292.78 141c-.37.29 4.12-7 11.39-5.59s5.68 7.13 11.16 7.55c0 0-4.35 3.26-7.54.36s-6.79-8.71-15.01-2.32z" fill="#383333"/><circle cx="300.67" cy="145.62" fill="#fff" r="9.65"/><circle cx="299.52" cy="145.62" fill="#383333" r="6.89"/><circle cx="296.73" cy="142.57" fill="#fff" r="2.01"/><path d="m329.89 130.76c.64-.86 4.15-5.41 10.13-5.93.87-.07 4.35-.37 7 1.43 6.92 4.66 7.47 22.81-2.19 29-5.4 3.48-12 1.95-14.22 1.32q-.34-12.89-.72-25.82z" fill="#ffdb99"/><path d="m339.75 150.57a.57.57 0 0 1 -.3-.1.51.51 0 0 1 -.1-.7c2-2.69 2.73-5.21 2.11-7.51-1.08-4-5.86-6-5.91-6.07a.49.49 0 0 1 -.3-.53.51.51 0 0 1 .44-.42l10.1-1.15a.5.5 0 0 1 .56.44.5.5 0 0 1 -.44.55l-8.49 1c1.65 1 4.19 2.95 5 5.95.71 2.6-.06 5.42-2.27 8.37a.51.51 0 0 1 -.4.17z"/><g fill="#ffb833"><path d="m313.93 434.13a7.3 7.3 0 0 1 -4.05 9.3 313.44 313.44 0 0 1 -83.88 21.66 7.32 7.32 0 0 1 -8.05-6.19l-10.38-68.9a7.33 7.33 0 0 1 5.41-8.17l68-17.54a7.32 7.32 0 0 1 8.68 4.54z"/><path d="m310.19 423.19a33.14 33.14 0 1 1 32.14-41.43 33.16 33.16 0 0 1 -32.14 41.43zm.1-56.29a23.14 23.14 0 1 0 22.36 17.36 23.14 23.14 0 0 0 -22.36-17.36z"/><path d="m234.31 421.98-10.08 16.66-67.81-44.64 6.87-11.35z"/><ellipse cx="160.09" cy="389.89" rx="17.04" ry="8.11" transform="matrix(.508 -.862 .862 .508 -257.1 329.93)"/></g><rect fill="#ff832f" height="7.71" rx="3.46" transform="matrix(.968 -.25 .25 .968 -86.91 74.03)" width="65.71" x="215.27" y="375.47"/><path d="m54.61 324.19c6.46 12.19 2.4 42.11 15.33 49.13s22-4.61 22-4.61c32.31-25.11 1.3-50.61-11.08-54.67s-31.79-8.31-33.86-6.65 1.15 4.61 7.61 16.8zm37.49 12.56c1.66-5.31 4.51-3.8 5.26-2.4a14.42 14.42 0 0 1 1.51 11.22c-1.65 6.79-3.45 9.56-6.77 5.4s-1.66-8.91 0-14.22zm-14.22-5.45c-1.48-2.95-.37-8.86 1.2-10.8 0 0 3-1.66 4.52 1.2s.65 6 0 9.6-4.24 2.96-5.72 0zm-4.48 24s10 .41 9 6.78-10.66 3.74-14.26 0 .41-6.68 5.26-6.81zm-6.65-22.3c5.82 1.31 7.86 9.36 7.86 9.36.52 4.58-5.36 5.27-7.86.6s-5.81-11.24 0-9.96zm-11.4-18a3.37 3.37 0 0 1 3.6-2.49s5.36.55 7.2 4.71.74 6.83-2.63 5.54-9.09-4.94-8.17-7.76z" fill="#37ad36"/><path d="m102.21 429.9a1 1 0 0 1 -1-1c0-33-8.24-57.88-15.14-73-7.48-16.35-15-25-15.12-25.09a1 1 0 0 1 1.5-1.33c.31.35 30.72 35.47 30.76 99.37a1 1 0 0 1 -1 1z" fill="#257c23"/><path d="m178.84 261.72c-2.78-1.94-27.34 5.42-42.88 11.86s-52.96 42.32-8.96 71.5c0 0 12.78 14.09 28.75 3.79s7.8-48.44 14.94-64.77 10.93-20.44 8.15-22.38zm-53.78 60.53c-3.87 5.68-6.46 2.29-9.24-6.29s.84-14.6.84-14.6c.83-1.88 4.35-4.1 7 2.58s5.28 12.64 1.4 18.31zm9-26.16c-1.18-4.57-2.56-8.53-.94-12.36s5.71-2 5.71-2c2.21 2.34 4.22 9.84 2.6 13.79s-6.17 5.15-7.35.57zm22.94 38.09c-4.27 5.17-16.5 9.51-18.37 1.4s10.93-9.58 10.93-9.58c6.26-.34 11.72 3 7.44 8.18zm-.08-24.7c-2.75 6.26-10.4 5.94-10.18 0 0 0 1.85-10.58 9.21-12.83s3.73 6.57.97 12.83zm2.19-26.41c-4.22 2-5.91-1.35-3.93-6.88s8.81-6.77 8.81-6.77a4.37 4.37 0 0 1 4.88 2.86c1.47 3.6-5.55 8.8-9.76 10.79z" fill="#37ad36"/><path d="m119.65 424.62a1 1 0 0 1 -1-.93c-3.23-42.94 5-76.19 12.56-96.52 8.14-22.06 17.21-34.15 17.3-34.27a1 1 0 1 1 1.59 1.21c-.35.47-35.57 48-29.45 129.43a1 1 0 0 1 -.92 1.07z" fill="#257c23"/><path d="m93.11 473c4.81.43 10 .73 15.58.83a219.6 219.6 0 0 0 23.31-.83c1.44 0 9.1-.11 15.3-5 3.91-3.1 6.33-7.38 6.33-12.1v-42.33c0-2.56-2.62-4.64-5.87-4.64h-69.01c-3.24 0-5.87 2.08-5.87 4.64v43.43c0 8.79 9.05 16 20.23 16z" fill="#00ccc1"/><path d="m345.12 355.7s-22.26.09-27.87 3.16-9.76 8.27-9.57 12 4 3.35 6.71 3.35c0 0-3.64 7.15 6 6.6 0 0-3.07 7 4.92 7.71 0 0-.72 4.77 2.7 6.22s18.49-.63 25-4.68 10.5-6.47 19.61-8.7c0 0 5.2-22.67-8.55-28.61z" fill="#ffdb99"/><path d="m242.72 98.46s-7.39 25.13-30.18 37.51c0 0-6.9 24.37 2.58 37.75 0 0-17.07-8-12.26-37.75a75.7 75.7 0 0 1 87.24-102.97s36.06-7.07 55.75 11.15c34.15 31.54 29.3 82.28 28.33 87.85-5.41 31-24.34 50.8-32.23 58.19a8.66 8.66 0 0 0 -1.95 6.69 8.52 8.52 0 0 0 3.06 5.3c-1.52.33-9.4 1.94-13.49-2.51a10.43 10.43 0 0 1 -2.4-6.41c-.17-2 10.15-39.57 8.58-35.73s11.61.93 14.9-9.68 2.17-24.89-12.61-23c0 0-6.75 4.92-8.11 7.42s6.81 24.13-7.31 35.94c0 0 3.56-27-3.7-44.68s-45.82 3.44-56.69-33.91c0 0-11.43 12-8.64 24.53 0-.08-10.59-1.47-10.87-15.69z" fill="#ffb833"/><path d="m364.08 353.23a.51.51 0 0 1 -.49-.38.5.5 0 0 1 .36-.61c.13 0 12.87-3.38 28.29-6.09 14.26-2.51 33.79-5 45.87-2.45a.5.5 0 1 1 -.21 1c-22.85-4.77-73.19 8.4-73.69 8.53z"/><path d="m399.74 345.43a.52.52 0 0 1 -.43-.24c-12.89-21.19-24.31-62.19-24.4-62.63a.5.5 0 1 1 1-.27c.11.41 11.47 41.29 24.29 62.38a.5.5 0 0 1 -.17.69.48.48 0 0 1 -.29.07z"/><path d="m314.39 374.44a.24.24 0 0 1 -.14-.05.24.24 0 0 1 -.06-.35c.18-.25 4.52-6.27 9.13-8.09a.25.25 0 0 1 .32.14.25.25 0 0 1 -.14.33c-4.47 1.76-8.86 7.85-8.91 7.91a.23.23 0 0 1 -.2.11z"/><path d="m320.41 381a.23.23 0 0 1 -.17-.07.25.25 0 0 1 0-.35c0-.06 5.19-5.89 10.33-8.25a.26.26 0 0 1 .34.12.26.26 0 0 1 -.13.34c-5 2.31-10.11 8.06-10.16 8.12a.25.25 0 0 1 -.21.09z"/><path d="m325.33 388.75a.25.25 0 0 1 -.24-.21.25.25 0 0 1 .2-.29c.09 0 8.92-1.58 12.92-5.65a.26.26 0 0 1 .36 0 .25.25 0 0 1 0 .36c-4.12 4.19-12.82 5.73-13.19 5.79z"/><path d="m396.42 387.2a.27.27 0 0 1 -.13 0c-10.76-2.86-23.63-5.32-23.76-5.35a.5.5 0 0 1 -.4-.58.51.51 0 0 1 .59-.4c.13 0 13 2.5 23.82 5.37a.5.5 0 0 1 -.12 1z"/><path d="m327.41 122.2h-.07a.51.51 0 0 1 -.43-.56c0-.12 1.15-11.68-20.6-16.62a53.67 53.67 0 0 1 -24.14-12.15 36.42 36.42 0 0 1 -7.17-8.32.5.5 0 0 1 .88-.49c.08.15 8.59 15 30.61 20 22.7 5.16 21.43 17.21 21.37 17.72a.5.5 0 0 1 -.45.42z"/><path d="m207.1 124a.5.5 0 0 1 -.48-.35.51.51 0 0 1 .38-.65c18.44-5.73 25-38.45 25.09-38.78a.5.5 0 0 1 1 .19 93.44 93.44 0 0 1 -5.65 17.48c-5.29 12-12.25 19.62-20.13 22.07z"/><path d="m344 104.28c-29.86 0-56.35-22.4-56.66-22.66a.5.5 0 0 1 .65-.76c.36.31 36.57 30.92 71.74 20.12a.5.5 0 0 1 .62.33.51.51 0 0 1 -.33.63 54.57 54.57 0 0 1 -16.02 2.34z"/><path d="m342.64 178.11a.48.48 0 0 1 -.36-.16.49.49 0 0 1 0-.7c20.72-19.94 19.19-52.13 19.17-52.45a.5.5 0 0 1 .47-.53.51.51 0 0 1 .53.47c0 .33 1.58 33-19.47 53.23a.52.52 0 0 1 -.34.14z"/><path d="m202 101.7a.5.5 0 0 1 -.46-.3.51.51 0 0 1 .26-.66c13.76-6 25-25.69 25.1-25.89a.5.5 0 0 1 .69-.19.49.49 0 0 1 .18.68c-.11.2-11.5 20.18-25.57 26.32a.48.48 0 0 1 -.2.04z"/><path d="m332.14 85.46c-19.35 0-35.43-9.79-35.67-9.94a.5.5 0 0 1 -.16-.69.49.49 0 0 1 .69-.16c.35.22 36 21.91 64.7 0a.5.5 0 0 1 .7.09.51.51 0 0 1 -.1.7 48.63 48.63 0 0 1 -30.16 10z"/><path d="m264 179.78a45.34 45.34 0 0 0 24.74-11.09 15.22 15.22 0 0 1 -10.41 14.4c-7.5 2.33-14.33-3.31-14.33-3.31z" fill="#fff" fill-rule="evenodd"/></g></svg>