<svg height="512" viewBox="0 0 512 512" width="512" xmlns="http://www.w3.org/2000/svg" xmlns:xlink="http://www.w3.org/1999/xlink"><clipPath id="clip-path"><path d="m228.88 225.81h49.72v88.26h-49.72z"/></clipPath><g id="Bankruptcy"><g clip-path="url(#clip-path)"><path d="m228.88 225.81h49.72v88.26h-49.72z" fill="#e39c76"/><path d="m220.78 263.27c22.51 11.62 47.9 12.16 69.92 0v-39.61h-69.92z" fill="#d48f6e"/></g><path d="m230 282.89c-46.41 9.54-61 30.23-66 39.63-4.9 9.18-7.27 19.69-11.91 40.78a433.12 433.12 0 0 0 -7.4 44.4l-45.44-78.11-39 8.06a485.55 485.55 0 0 0 43.91 113.46h74l16.05-88.47s53.11-41.11 35.79-79.75z" fill="#287eef"/><path d="m284 282.89c46.41 9.54 61 30.23 66 39.63 4.9 9.18 7.27 19.69 11.91 40.78a433.12 433.12 0 0 1 7.4 44.4l45.39-78.11 39 8.06a485.55 485.55 0 0 1 -43.91 113.46h-74l-16.05-88.47s-53.06-41.11-35.74-79.75z" fill="#287eef"/><path d="m96.79 323.34-36.51 16.09 6 20a79.74 79.74 0 0 0 40.53-16.89q-5.03-9.62-10.02-19.2z" fill="#e39c76"/><path d="m414.47 328.44-8.59 16.4s25.12 19.16 41.92 14.45l8.39-26.58z" fill="#e39c76"/><path d="m318.05 156.45s-1.11-53.71-39.15-67.31c-.35-.07-.68-.1-1-.16-25.08-9.64-43.37-.15-45 .16a47.77 47.77 0 0 0 -16.61 10.19c-21.78 20.4-22.56 57.12-22.56 57.12a41.74 41.74 0 0 0 -.3 6.24c.34 10.24 6.51 34.06 7.84 42.21 7.8 25.68 27.86 57.19 55.15 55.84 33.1-2 46.42-42.44 50.22-54.73 4.08-13.21 7.41-26 8-28a40.3 40.3 0 0 0 1.44-13.83c.65-2.69 1.33-5.34 1.97-7.73z" fill="#e39c76"/><path d="m253.58 206.48c-4.82-1.22-7.64-3.13-8.38-5.67-1.64-5.67 8-9 6.56-26.78a.5.5 0 0 1 1-.08c.53 6.67-.46 12.57-3 17.53-2 3.9-4.4 6.41-3.64 9.05.64 2.18 3.21 3.86 7.66 5a.49.49 0 1 1 -.2.95z" fill="#2d1929"/><path d="m216 157.89a1 1 0 0 1 0-2 30.87 30.87 0 0 0 21.53-9 1 1 0 0 1 1.42 0 1 1 0 0 1 0 1.41 32.9 32.9 0 0 1 -22.95 9.59z" fill="#2d1929"/><path d="m268.72 149.24a1 1 0 0 1 1.69-1.07 18.13 18.13 0 0 0 20.79 7.76 1 1 0 0 1 .59 1.92 20.18 20.18 0 0 1 -23.07-8.61z" fill="#2d1929"/><path d="m229.81 282.89s-60.81 20.92-69.46 47.21 0 121 0 121h182.65c1.35-4.39 27.71-93.74-16-141.48a105.85 105.85 0 0 0 -37.17-25.62c-26.9-9.84-50.98-3.86-60.02-1.11z" fill="#287eef"/><path d="m222 177.37c-.8 0-1.28 0-1.3 0a.51.51 0 0 1 -.46-.55.5.5 0 0 1 .55-.45c.12 0 12.69 1 16.93-8.16a.49.49 0 0 1 .66-.24.5.5 0 0 1 .25.66c-3.63 7.97-13.12 8.74-16.63 8.74z" fill="#2d1929"/><path d="m283.29 177.37c-3.48 0-12.94-.77-16.62-8.78a.5.5 0 1 1 .9-.42c4.25 9.22 16.8 8.17 16.93 8.16a.5.5 0 0 1 .55.45.51.51 0 0 1 -.45.55s-.51.04-1.31.04z" fill="#2d1929"/><path d="m115.22 302.73h-73.67c4.88-9.19 10.25-22.91 8.55-38.8-2.1-19.77-13.51-27.32-17.1-46.7-2-10.68-1.88-26.46 8.55-47.56h73.67c-11.76 20.38-12.83 36-11.84 46.24 1.63 16.93 9.45 24.27 13.15 44.07a103.06 103.06 0 0 1 -1.31 42.75z" fill="#86ebf9"/><circle cx="75.1" cy="236.2" fill="#e5e5e5" r="15.95"/><path d="m111.25 298.8h-61.88a1 1 0 0 1 -.92-1.39c4.87-11.48 6.74-22.89 5.56-33.9-2.23-20.79-13.68-28.35-17.15-47-2.4-12.95-.08-27.19 6.89-42.32a1 1 0 0 1 .91-.58h62.34a1 1 0 0 1 .9 1.43c-6.89 14.21-9.73 28.09-8.46 41.25 1.71 17.69 9.6 25.14 13.21 44.41a97.88 97.88 0 0 1 -.44 37.3 1 1 0 0 1 -.96.8zm-60.39-2h59.56a95.5 95.5 0 0 0 .28-35.73c-3.55-19-11.48-26.52-13.23-44.59-1.26-13.08 1.41-26.83 8-40.87h-60.17c-6.59 14.53-8.76 28.17-6.47 40.53 3.37 18.15 14.9 26 17.17 47.15 1.17 10.92-.56 22.18-5.14 33.51z" fill="#40c2d6"/><path d="m43.27 190.64c-8.8-11.95-5.37-27.18-4.94-28.94 3.87-16.1 15.52-20.95 14.46-31.9-1-10.2-5.26-12.17-5.26-12.17s18.09 1.64 20.06 17.43c0 0 1.32-19.73 15.79-27.62s11.18-24.67 11.18-24.67 11.84 11.84 12.83 23.35-10.53 21-2 30.59c0 0 2.31-12.83 17.1-17.76a66.1 66.1 0 0 0 -3 18.08c-.29 11.33 2.6 16.08 3 22 1.16 19.34-24.73 45.81-51.31 44.73-2.55-.07-18.78-.76-27.91-13.12z" fill="#e73f46"/><path d="m52 198.42s-9.55-17.15 0-31.21 5.11-23.91 5.11-23.91 11.84 5.41 11.35 14 8.63 8.14 8.14-12.33 11.1-16 16.53-25.16 4.15-10.81 4.15-10.81 4 14.55-2.22 26.64 3.46 24.91 3.46 24.91a26.7 26.7 0 0 1 13.56-23.35 28.63 28.63 0 0 0 -2.3 15c.58 4.48 2 5.92 2.79 10.69a34 34 0 0 1 -1.48 16.44c-3.57 10.27-11.42 15.7-14.67 17.89a42.38 42.38 0 0 1 -44.42 1.2z" fill="#efbd42"/><path d="m61.64 343s-11.06-28.19-10.73-35.59 6.34-32.23 10.73-32.89 3.41 14.8 3.41 14.8 2.63-19.09 6.25-16.32 3.8 15.3 3.8 15.3.8-12.67 4.26-13.16 4.27 13 4.27 13-.66-8.22 2.47-8.71 11.51 20.39 12.17 31.4 1.8 24.18 1.8 24.18-27.07 16.1-38.43 7.99z" fill="#e39c76"/><path d="m64 303.23a.5.5 0 0 1 -.5-.54l1.07-13.43a.5.5 0 0 1 1 .08l-1.07 13.43a.5.5 0 0 1 -.5.46z" fill="#2d1929"/><path d="m75.05 301.15a.5.5 0 0 1 -.5-.5v-13.65a.5.5 0 0 1 1 0v13.67a.5.5 0 0 1 -.5.48z" fill="#2d1929"/><path d="m85.27 301.15a.5.5 0 0 1 -.49-.44l-1.78-13.71a.51.51 0 0 1 .44-.56.49.49 0 0 1 .55.43l1.74 13.68a.5.5 0 0 1 -.46.6z" fill="#2d1929"/><path d="m398.78 302.73h73.67c-4.88-9.19-10.25-22.91-8.55-38.8 2.12-19.77 13.51-27.32 17.1-46.7 2-10.68 1.88-26.46-8.55-47.56h-73.67c11.76 20.38 12.83 36 11.84 46.24-1.63 16.93-9.45 24.27-13.15 44.07a103.06 103.06 0 0 0 1.31 42.75z" fill="#86ebf9"/><circle cx="438.9" cy="236.2" fill="#e5e5e5" r="15.95"/><path d="m464.63 298.8h-61.88a1 1 0 0 1 -1-.8 97.88 97.88 0 0 1 -.44-37.3c3.61-19.26 11.5-26.73 13.21-44.41 1.27-13.16-1.57-27-8.46-41.25a1 1 0 0 1 .9-1.43h62.36a1 1 0 0 1 .91.58c7 15.13 9.29 29.37 6.89 42.32-3.45 18.59-14.93 26.28-17.15 47-1.18 11 .69 22.42 5.56 33.9a1 1 0 0 1 -.9 1.39zm-61.05-2h59.56c-4.58-11.33-6.31-22.59-5.14-33.51 2.27-21.18 13.8-29 17.17-47.15 2.29-12.36.12-26-6.47-40.53h-60.13c6.55 14 9.22 27.79 8 40.87-1.75 18.07-9.68 25.59-13.23 44.59a95.5 95.5 0 0 0 .24 35.73z" fill="#40c2d6"/><path d="m470.73 190.64c8.8-11.95 5.37-27.18 4.94-28.94-3.87-16.1-15.52-20.95-14.46-31.9 1-10.2 5.26-12.17 5.26-12.17s-18.09 1.64-20.06 17.43c0 0-1.32-19.73-15.79-27.62s-11.18-24.67-11.18-24.67-11.84 11.84-12.83 23.35 10.53 21 2 30.59c0 0-2.31-12.83-17.1-17.76a66.1 66.1 0 0 1 3 18.08c.29 11.33-2.6 16.08-3 22-1.16 19.34 24.73 45.81 51.31 44.73 2.55-.07 18.78-.76 27.91-13.12z" fill="#e73f46"/><path d="m462 198.42s9.55-17.15 0-31.21-5.11-23.91-5.11-23.91-11.84 5.41-11.35 14-8.54 8.18-8.1-12.3-11.1-16-16.53-25.16-4.19-10.84-4.19-10.84-4 14.55 2.22 26.64-3.46 24.91-3.46 24.91a26.7 26.7 0 0 0 -13.56-23.35 28.63 28.63 0 0 1 2.3 15c-.58 4.48-2 5.92-2.79 10.69a34 34 0 0 0 1.48 16.44c3.57 10.27 11.42 15.7 14.67 17.89a42.38 42.38 0 0 0 44.42 1.2z" fill="#efbd42"/><path d="m452.36 343s11.06-28.19 10.73-35.59-6.34-32.23-10.73-32.89-3.36 14.78-3.36 14.78-2.63-19.07-6.25-16.28-3.8 15.3-3.8 15.3-.8-12.67-4.26-13.16-4.27 13-4.27 13 .66-8.22-2.47-8.71-11.51 20.39-12.17 31.4-1.8 24.18-1.8 24.18 27.02 16.08 38.38 7.97z" fill="#e39c76"/><path d="m450 303.23a.5.5 0 0 1 -.5-.46l-1.07-13.43a.51.51 0 0 1 .46-.54.52.52 0 0 1 .54.46l1.07 13.43a.5.5 0 0 1 -.5.54z" fill="#2d1929"/><path d="m439 301.15a.5.5 0 0 1 -.5-.5v-13.65a.5.5 0 0 1 1 0v13.67a.5.5 0 0 1 -.5.48z" fill="#2d1929"/><path d="m428.73 301.15a.5.5 0 0 1 -.5-.56l1.77-13.68a.5.5 0 0 1 .56-.43.51.51 0 0 1 .43.56l-1.74 13.67a.5.5 0 0 1 -.52.44z" fill="#2d1929"/><path d="m228.88 283.22s16.06 23.68 28.89 20.06 20.83-22.54 20.83-22.54-23.04-12.98-49.72 2.48z" fill="#e39c76"/><path d="m228.88 268.42s-4.33-.33-6.14 5.59-8 12.71-8 12.71 13.76 31.69 24.26 34.81 16.72-17.87 16.72-17.87-24.23-10.31-26.84-35.24z" fill="#287eef"/><path d="m278.6 265.5s1.58 21.92-22.86 38.16c0 0 7.46 20.17 18.31 15.9s23.1-33.45 23.1-33.45a17.25 17.25 0 0 1 -8.14-9.63c-2.14-6.75-3.07-11.64-10.41-10.98z" fill="#287eef"/><g fill="#1573d8"><path d="m172.76 341.37 8.38 40.63-4.14 69.11h51s-38.15-5.92-41.44-11.18 2-56.9 2-56.9z"/><path d="m343 341.37-8.44 40.63 4.19 69.07h-51.05s38.15-5.92 41.43-11.18-2-56.9-2-56.9z"/><path d="m214.77 286.72 22.28 39.91 18.58-21.87-16.44 11.51z"/><path d="m255.63 304.76 18.5 20.06 23.02-38.71-24.25 28.35z"/></g><path d="m254.28 306.35-12.13 17 9.21 18s-27.93 39-16.11 63.37 0 46.37 0 46.37h38.8s7.23-19.73 0-34.21-18.05-26.28-17.43-42.73a133.83 133.83 0 0 1 4.27-28.87q6.11-10.28 12.17-20.46z" fill="#e73f46"/><path d="m323.46 360.09s-26.34 5.92-44.86 1l3 14.22-1.08 28.94 24.27 15.62 17.76-13.81-18.55 9.2-18.59-11.67-.18-27.59s20.55.33 27.95-2.14c0 0-25.81.17-27.13-1s-1.81-5.84-1.81-5.84 27.3 2.03 39.22-6.93z" fill="#1573d8"/><path d="m110.18 348.39.82 7.61s-7 10.12-33.18 15.05c0 0 19.86-.74 35.15-9.87l10.41 9.87z" fill="#1573d8"/><path d="m403 349.76-14.41 24.84 13.23-9.76s21.92 10.3 36.69 7c0 0-24.11-4.77-35.71-11.1z" fill="#1573d8"/><circle cx="409.24" cy="356.58" fill="#e5e5e5" r="4.01"/><circle cx="104.08" cy="353.93" fill="#e5e5e5" r="4.01"/><path d="m144.64 407.7 11.87 43.41h9.34s-6.17-24.17-21.21-43.41z" fill="#1573d8"/><path d="m369.36 407.7s-9.15 14.3-12.85 43.41h12.85a108.25 108.25 0 0 1 0-43.41z" fill="#1573d8"/><path d="m249.61 96.58s-3.52 19.08-17 29.27-25 11.51-25 11.51l-8 42.42h-12.4l-4.51-32.22s-10.95-8.22-9.31-22 16.8-16.48 32.61-42.79 53-13.81 53-13.81 39.56-21.21 54 15.7 26.27 44.48 24 54.68-10 13.89-10 13.89l-6.25 30.83-12.55-3.61-.2-45.39s-19-56.06-58.39-38.48z" fill="#2d1929"/><path d="m214.8 174.31c-4.12-10.17-14.24-15.68-22.62-12.3s-11.84 14.38-7.73 24.57 14.24 15.69 22.62 12.3 11.85-14.38 7.73-24.57z" fill="#e39c76"/><path d="m199.15 191.67a.52.52 0 0 1 -.33-.12c-.14-.12-3.53-3-3.38-5.56.12-2.26 2.54-3.24 3.53-3.54-.33-5.88-3.45-14.61-9.22-13.46a.5.5 0 0 1 -.2-1c6.62-1.31 10.19 8.06 10.44 14.79a.5.5 0 0 1 -.39.51s-3 .71-3.17 2.73c-.09 1.71 2.16 4 3 4.74a.51.51 0 0 1 -.28.91z" fill="#2d1929"/><path d="m315.3 162c-8.39-3.38-18.51 2.13-22.63 12.3s-.65 21.19 7.73 24.57 18.51-2.12 22.62-12.3.66-21.17-7.72-24.57z" fill="#e39c76"/><path d="m308 190.78c.88-.73 3.14-3 3-4.74-.11-2-3.14-2.72-3.17-2.73a.5.5 0 0 1 -.39-.51c.25-6.73 3.83-16.11 10.44-14.79a.48.48 0 0 1 .39.58.5.5 0 0 1 -.59.4c-5.77-1.15-8.89 7.58-9.22 13.46 1 .3 3.41 1.28 3.54 3.54.14 2.56-3.25 5.44-3.39 5.56a.5.5 0 0 1 -.61-.77z" fill="#2d1929"/><path d="m268 228.13c-2.58 1.83-7.45-5.45-14.22-4.19-6.34 1.17-8.08 8.66-11.18 7.89-2.94-.72-5.11-8.37-2.47-13.44 4-7.65 18.86-9.34 25.28-2.84 3.87 3.96 4.74 11.03 2.59 12.58z" fill="#2d1929"/></g></svg>