<svg id="Book" height="512" viewBox="0 0 512 512" width="512" xmlns="http://www.w3.org/2000/svg"><path d="m492.87 302.44-274.27 178.88-161.98-144.37 251.26-163.53z" fill="#1573d8"/><path d="m492.87 302.44v-8.1l-26.41 9.51 5.22 10.31z" fill="#1573d8"/><path d="m56.62 336.95v-8.1l15.23 8.1-3.99 8.43z" fill="#1573d8"/><path d="m492.87 294.34-274.27 178.87-161.98-144.36 251.26-163.54z" fill="#287eef"/><path d="m289.39 324.34-209.36-21.02v27.25l141.88 129.11 255.24-165.08v-22.69z" fill="#40c2d6"/><path d="m477.15 271.91a513.94 513.94 0 0 0 -122.1 86.17 596.28 596.28 0 0 0 -127.56 76.66l-147.49-131.42 228.75-148.86z" fill="#2d1929"/><path d="m477.15 263.11a244.86 244.86 0 0 0 -130 84.79c-50.79 7-92.2 36.19-119.65 78l-147.5-131.38a239.71 239.71 0 0 1 120.38-78.35 236.63 236.63 0 0 1 108.33-70.51z" fill="#86ebf9"/><path d="m80.03 319.26 25.79 26.12-25.79-30.67z" fill="#86ebf9"/><path d="m477.15 283.38-42.88 30.78 42.88-26.31z" fill="#86ebf9"/><path d="m117.93 353 78.12 71.52s-51.99-66.07-78.12-71.52z" fill="#86ebf9"/><g fill="#fff"><path d="m105.82 301.75a1.5 1.5 0 0 1 -1.22-2.37c.35-.48 35.12-48.48 93.86-62.2a1.5 1.5 0 0 1 .68 2.92c-57.6 13.46-91.76 60.55-92.1 61a1.48 1.48 0 0 1 -1.22.65z"/><path d="m123.68 313.13a1.5 1.5 0 0 1 -1.22-2.37c.34-.48 35.12-48.48 93.86-62.21a1.5 1.5 0 1 1 .68 2.92c-57.61 13.46-91.76 60.56-92.1 61a1.49 1.49 0 0 1 -1.22.66z"/><path d="m141 325.42a1.5 1.5 0 0 1 -1.22-2.37c.35-.48 35.12-48.48 93.86-62.21a1.5 1.5 0 0 1 .68 2.93c-57.6 13.45-91.76 60.55-92.09 61a1.52 1.52 0 0 1 -1.23.65z"/><path d="m154.4 339.64a1.51 1.51 0 0 1 -1.23-2.37c.35-.49 35.12-48.49 93.86-62.21a1.5 1.5 0 0 1 .68 2.92c-57.6 13.46-91.75 60.55-92.09 61a1.5 1.5 0 0 1 -1.22.66z"/><path d="m171.85 353.19a1.5 1.5 0 0 1 -1.22-2.37c.34-.49 35.12-48.49 93.86-62.21a1.5 1.5 0 0 1 .68 2.92c-57.61 13.46-91.76 60.55-92.1 61a1.49 1.49 0 0 1 -1.22.66z"/><path d="m187.52 367.77a1.5 1.5 0 0 1 -1.22-2.37c.35-.48 35.12-48.48 93.86-62.2a1.5 1.5 0 1 1 .68 2.92c-57.61 13.46-91.76 60.55-92.1 61a1.48 1.48 0 0 1 -1.22.65z"/><path d="m205.85 380.82a1.5 1.5 0 0 1 -1.22-2.37c.34-.49 35.12-48.49 93.86-62.21a1.5 1.5 0 0 1 .68 2.92c-57.61 13.46-91.76 60.55-92.1 61a1.49 1.49 0 0 1 -1.22.66z"/><path d="m223.1 392.29a1.5 1.5 0 0 1 -1.22-2.37c.34-.49 35.12-48.49 93.86-62.21a1.5 1.5 0 0 1 .68 2.92c-57.61 13.46-91.76 60.55-92.1 61a1.49 1.49 0 0 1 -1.22.66z"/></g><path d="m347.14 348.9c-.6 0 6 5.73-147.39-132a1 1 0 0 1 1.34-1.49l146.72 131.75a1 1 0 0 1 -.67 1.74z" fill="#2d1929"/><path d="m283.19 237.34c-12.22-11-11.63-26.63-2.63-39.53l-8.56-7.65a3.05 3.05 0 1 1 4.08-4.54l8.34 7.47a30.68 30.68 0 0 1 14.48-8.78 26 26 0 0 1 23.39 5.7c4.74 4.24 4.71 9.24 1.15 13.22-1.53 1.7-4.31 1.61-6.26-.14-11-9.74-20-11.41-27.08-4.9l30.4 27.25c8.5-2.75 14.3-4.38 17.45-5.1 8.43-1.9 16.63-1.38 23.77 5 8.66 7.76 10.8 17.32 8.54 26.58a37.1 37.1 0 0 1 -5.84 12.88l8.53 7.65a3.06 3.06 0 0 1 -4.05 4.55l-8.28-7.42a31.42 31.42 0 0 1 -14.55 8.72c-5.57 1.51-11.31.92-17.34-1.64a22.83 22.83 0 0 1 -6.11-4c-4.61-4.14-4.65-9.31-1.08-13.29 1.53-1.7 4.3-1.62 6.26.14a34.25 34.25 0 0 0 14.91 7.91 13.57 13.57 0 0 0 12.41-2.78l-28.49-25.55c-15.81 4.23-31.67 8.77-43.44-1.78m30.29-10-27-24.19a17 17 0 0 0 4.27 19.9c6.76 6.06 14.47 6.36 22.71 4.29m45.09 32.22a19.23 19.23 0 0 0 .87-10.51 16.12 16.12 0 0 0 -5.26-9.26c-5.05-4.54-12.19-4.33-20.38-2.44z" fill="#e5e5e5"/><path d="m172.28 280.82a316.08 316.08 0 0 0 -155.15-65.36l32.16-76.34a632.32 632.32 0 0 1 155.14 65.36z" fill="#efbd42"/><path d="m304.77 183.49a274.34 274.34 0 0 1 107.03-99.49l-49-52.66a549.1 549.1 0 0 0 -107 99.51z" fill="#efbd42"/><path d="m245.31 390.27a274.38 274.38 0 0 1 144.87 19.34l9.51-71.28a548.94 548.94 0 0 0 -144.86-19.33z" fill="#efbd42"/><path d="m168.91 271.18a321.56 321.56 0 0 0 -142.53-60.05 1 1 0 0 1 -.77-1.38l26.59-63.1a1 1 0 0 1 1.19-.58 627.24 627.24 0 0 1 143.21 60.33 1 1 0 0 1 .42 1.26l-26.59 63.1a1 1 0 0 1 -1.52.42zm-140.91-61.83a323.71 323.71 0 0 1 141.13 59.46l25.75-61.12a624.33 624.33 0 0 0 -141.18-59.45z" fill="#fff"/><path d="m303.06 173.43-39.2-42.16a1 1 0 0 1 0-1.32 542.91 542.91 0 0 1 97.54-90.7 1 1 0 0 1 1.31.13l39.2 42.16a1 1 0 0 1 -.24 1.56 279.79 279.79 0 0 0 -97 90.2 1 1 0 0 1 -1.61.13zm-37.13-42.87 37.73 40.58a282 282 0 0 1 95.89-89.14l-37.73-40.61a541.1 541.1 0 0 0 -95.89 89.17z" fill="#fff"/><path d="m384.76 401.27c-2.24 0-55.7-25.67-131.67-17.59a1 1 0 0 1 -1.09-1.13l7.61-57.06a1 1 0 0 1 1-.87c39.07 0 86.83 5.82 132 17.62a1 1 0 0 1 .74 1.1l-7.62 57.07a1 1 0 0 1 -.97.86zm-.82-2.39 7.33-54.88a541.53 541.53 0 0 0 -129.79-17.33l-7.33 54.93a281.9 281.9 0 0 1 129.79 17.28z" fill="#fff"/><circle cx="326.26" cy="107.41" fill="#e5e5e5" r="16.14"/><circle cx="322.5" cy="352.95" fill="#e5e5e5" r="16.14"/><circle cx="112.96" cy="201.66" fill="#e5e5e5" r="18.17"/></svg>