<svg height="512" viewBox="0 0 512 512" width="512" xmlns="http://www.w3.org/2000/svg" xmlns:xlink="http://www.w3.org/1999/xlink"><clipPath id="clip-path"><path d="m141.49 251.88h58.58v108.51h-58.58z" transform="matrix(.998 -.06 .06 .998 -18.04 10.79)"/></clipPath><clipPath id="clip-path-2"><path d="m287.5 344.08a2.22 2.22 0 0 1 -2.87-3.31c23.28-28 37.54-47.51 46.55-61.94 2-3.16 9-14.79 16.63-14 2.9.31 5.5 2.39 9.53 5.61a56.94 56.94 0 0 1 8.87 8.87 347.13 347.13 0 0 0 37.55-92.52l26.6 13.24c-8.17 24.11-16.33 43.82-22.76 58.29-8.67 19.49-27.82 62-39.32 59.42-1.7-.38-3.85-2.71-8.27-7.24a73.82 73.82 0 0 1 -10.01-12.83 475.27 475.27 0 0 1 -62.5 46.41z"/></clipPath><clipPath id="clip-path-3"><path d="m423.25 127.39a43.63 43.63 0 1 1 43.55-47.17 43.84 43.84 0 0 1 -43.55 47.17z"/></clipPath><g id="Growth"><g clip-path="url(#clip-path)"><path d="m141.49 251.88h58.58v108.51h-58.58z" fill="#f5b493" transform="matrix(.998 -.06 .06 .998 -18.04 10.79)"/><path d="m141 267.86a62 62 0 0 0 15 29.57c18.86 20.45 45.23 20.1 49.62 20l-2.13-35.61z" fill="#eba284"/></g><path d="m231.55 217.05c-5.18-11.27-10.25-17.51-13.39-25-7.74-18.41-10.25-33.55-27.89-42.19a69.08 69.08 0 0 0 -18.27-7.86c-24-8.1-56.52 1.75-73.2 25.07-19.21 26.86-8.62 59.26-6 67.31 12.27 37.57 46.46 54.58 60.82 60.26a101.11 101.11 0 0 0 25.38 8.51c9.8 1.8 36 6.62 48.92-8.93 3.37-4.06 7-12.73 8.79-30.91 2.34-23.51.02-34.99-5.16-46.26z" fill="#f5b493"/><g fill="#2d1929"><path d="m204.69 244.35a.51.51 0 0 1 -.37-.85c3.26-3.46 4.57-6.36 3.91-8.61-1.51-5.14-11.79-3-20.52-19.48a.5.5 0 1 1 .88-.47c8.63 16.23 18.88 13.83 20.6 19.67.77 2.62-.63 5.84-4.14 9.58a.52.52 0 0 1 -.36.16z"/><path d="m211.42 217.19c-2.69 1.11-6.25-1.37-8-5.52s-.91-8.41 1.78-9.52 6.25 1.37 8 5.52.91 8.42-1.78 9.52z"/><path d="m169.58 234.38c-2.69 1.11-6.25-1.36-8-5.52s-.92-8.41 1.77-9.52 6.25 1.37 8 5.52.92 8.42-1.77 9.52z"/><path d="m144.52 211.1a1 1 0 0 1 -1-1.32c4.8-14.18 19.79-14.57 19.94-14.58a1 1 0 0 1 0 2c-.56 0-13.73.4-18.08 13.22a1 1 0 0 1 -.86.68z"/></g><path d="m196 323.92c10.63.66 28.81 3.52 43.13 16.8 10.91 10.1 14.57 21.6 21 42.8 10.33 33.92 18 59.63 22.53 75.1l-182 1.3 22.73-90.28s20.89-52.87 72.61-45.72z" fill="#e73f46"/><path d="m236.48 160.49a739.78 739.78 0 0 1 79.23 32.29c30.77 14.69 36.8 20.34 40.55 27.78 5 10 7.35 27.16-21.77 78.85a529.13 529.13 0 0 1 -71.59 98.18l-69.84-69.08c48.62-12.54 84.49-48.73 99.37-96.68l-59-34.17z" fill="#f5b493"/><path d="m180.16 328.7c40.12-11.7 73.84-35.21 99.23-66.7 0 0 40.06 23.08 51.24 44.14l-53 82.46 5.07 60.83h-45z" fill="#e73f46"/><path d="m138.29 376.39s-5 32-18.16 48.46l9.08 34.87 153.46-10.3-5.07-60.83s-11.08-51.25-14.08-48.59 3 76.22 3 80-123.52 11.6-130.29 11.59 7.5-27.42 2.06-55.2z" fill="#cc3745"/><path d="m188.94 329.44c-11.33-2.35-32.54-5.06-56.32 2.82-30.45 10.09-47.06 31.54-59.7 47.87-19.9 25.7-43.35 56-33.8 76.6 19.9 43 171.84 19.39 213 13.52.1 0 .41 1.76-7.94-37.17l-127.29-8.45 19.71-28.73c29.75-10.17 49.4-36.24 52.34-66.46z" fill="#f5b493"/><path d="m186 323.26s-42.42-.75-74.52 17.08-63.18 74.21-63.18 74.21l69.52 9.95 26.73-16.2s69.76-46.74 41.45-85.04z" fill="#e73f46"/><path d="m142.78 328.52s28 29.66 45.37 24.59 12.85-31.78 12.85-31.78-34.49-10.08-58.22 7.19z" fill="#f5b493"/><path d="m120.13 424.85s13.09-27.6 18.16-50.8-.62 38.17-3 47.47z" fill="#cc3745"/><path d="m234.23 434.59s42.77-8.59 55.57-3.76c20.78 7.95 44.16 17.74 42.81 22.16-.61 2-6.05 2.12-10.52 1.92 3.41 1.6 7.53 3.85 7.19 5.49-.13.59-.79.92-1.27 1.13 0 0-5.57 2.45-17 1.22s9.76 4.88 6.57 7.51-22.53-1.32-29.48-1.32-26.45 6.67-40.35 1.93-13.52-36.28-13.52-36.28z" fill="#f5b493"/><path d="m311 463.25c-.1 0 1.18.32-24.16-6.21a.5.5 0 0 1 .25-1l24 6.19a.5.5 0 0 1 -.09 1.02z" fill="#2d1929"/><path d="m322.09 455.41c-.13 0 2.1.79-31.89-11.53a.49.49 0 0 1 -.3-.64.5.5 0 0 1 .64-.3l31.72 11.5a.5.5 0 0 1 -.17.97z" fill="#2d1929"/><path d="m211.38 254c3.08.31 6.4 2.65 7 5.47 1.1 5.6-9.07 11-10.59 11.85-.69.37-10.36 5.46-12.54 2.81-2.93-3.49 6.75-21.03 16.13-20.13z" fill="#2d1929"/><path d="m147.82 151.91s4.12 27 14.76 31.85 27.34-3 27.34-3 13.94 24.8 32.88 20.19a130.51 130.51 0 0 1 -11.1-28.07c-4.13-15.77-14.64-23.19-14.64-23.19l-21.4-6.69z" fill="#eba284"/><path d="m184.87 192.85a1 1 0 0 1 -.85-1.52c.08-.13 8.1-12.8 22.75-9.64a1 1 0 0 1 -.43 2c-13.23-2.86-20.32 8.26-20.62 8.73a1 1 0 0 1 -.85.43z" fill="#2d1929"/><path d="m117.46 249.17q.56-13.36 1.12-26.73c44.93-25.85.8-51.88 9.55-65.31 1.8-2.76 5.07-3.8 7.26-4.25a9.7 9.7 0 0 1 5.61-3.38c9.88-1.44 15.64 18.73 28.44 25.35 8.12 4.19 22.39 4.66 49.28-13.24a37.88 37.88 0 0 1 -10.42-6.19c-14.28-12-11-28.35-24.22-37.18-5.28-3.54-10.56-4.1-14.36-4.5-19.54-2.07-33.86 11.79-36.51 14.45-3.53.32-46.21 4.86-64.21 39.81-17.91 34.79 1.79 74.1 21.48 94.17 18.11 18.45 39.72 24.22 49.87 26.22z" fill="#2d1929"/><path d="m123.77 238.11c-7.42-9-19.44-11.32-26.84-5.21s-7.37 18.35 0 27.33 19.44 11.32 26.83 5.21 7.43-18.35.01-27.33z" fill="#f5b493"/><path d="m120.4 255.41a7.17 7.17 0 0 1 -6.94-4.32c-1.38-3.27 2.55-5.93 4.08-6.82-1.75-1.88-8.71-8.76-14.7-6.54-5.62 2.09-3.41 8.47-3.31 8.74a.5.5 0 0 1 -1 .34c0-.08-2.64-7.58 3.91-10 7.54-2.81 15.87 6.87 16.22 7.28a.51.51 0 0 1 -.15.78c-.06 0-5.48 2.76-4.18 5.84 1.9 4.46 6.9 3.66 7 3.65a.51.51 0 0 1 .58.41.5.5 0 0 1 -.41.57 5.85 5.85 0 0 1 -1.1.07z" fill="#2d1929"/><path d="m242 162.39s-22.54-11.2-35.42-12.61-54.2 14.08-52.58 20.28 23.26 0 34.13 0 36.84 33.51 49.48 27.6 4.39-35.27 4.39-35.27z" fill="#f5b493"/><path d="m292.43 231.83s22.51-9.39 38.2-8.45c0 0-31.72 13-41.72 18.53z" fill="#eba284"/><path d="m48.27 414.55 38.4 10.3a147.37 147.37 0 0 0 -42.24 28.51s33.05-21.89 85.8-27.84c0 0-64.03-9.22-81.96-10.97z" fill="#eba284"/><g clip-path="url(#clip-path-2)"><path d="m287.5 344.08a2.22 2.22 0 0 1 -2.87-3.31c23.28-28 37.54-47.51 46.55-61.94 2-3.16 9-14.79 16.63-14 2.9.31 5.5 2.39 9.53 5.61a56.94 56.94 0 0 1 8.87 8.87 347.13 347.13 0 0 0 37.55-92.52l26.6 13.24c-8.17 24.11-16.33 43.82-22.76 58.29-8.67 19.49-27.82 62-39.32 59.42-1.7-.38-3.85-2.71-8.27-7.24a73.82 73.82 0 0 1 -10.01-12.83 475.27 475.27 0 0 1 -62.5 46.41z" fill="#287eef"/><path d="m285.81 344.44s58.82-56.52 61.78-57.41 19.64 24.25 26.9 22.46 15.7-15.25 15.7-15.25l-3 29.15-34 10.64-41.39 4.14c-6.05 10.28-18.06 15.35-25.99 6.27z" fill="#1573d8"/></g><path d="m393.11 190.36c1.55 7.07 12 9 32.52 13.9 11.28 2.71 13.54 2.14 15.08.88 5.2-4.23 1.54-16.37-3-31.33-3.31-11-5.46-16.4-8.87-17.44-5.12-1.56-10.75 3.91-20.69 13.6-10.7 10.45-16.07 15.68-15.04 20.39z" fill="#287eef"/><path d="m400.92 197.59-.75 2.57c12.95 9.13 18.37 24.37 15.31 39.74a355.41 355.41 0 0 0 13.2-34.9z" fill="#1573d8"/><circle cx="412.93" cy="84.6" fill="#d7981a" r="51.76"/><circle cx="423.31" cy="83.75" fill="#efbd42" r="51.76"/><g clip-path="url(#clip-path-3)"><path d="m450.14 25.79-60.98 122.34 15.1 4.9 51.75-109.92 5.25 3.01-46.31 96.37 7.06 3.01 50.57-99.08-6.33-16.07z" fill="#e5e5e5"/></g><path d="m410 72.63c-.64-7.89 4.75-13.17 12.18-14.7l-.45-5.5a1.47 1.47 0 0 1 2.94-.24l.44 5.38a14.74 14.74 0 0 1 8 1.74 12.5 12.5 0 0 1 6.29 9.74c.25 3.06-1.41 4.8-4 5a2.13 2.13 0 0 1 -2.14-2.12c-.62-7.05-3.2-10.61-7.85-10.69l1.59 19.61c3.88 1.86 6.45 3.21 7.79 4 3.58 2.13 6.28 5 6.65 9.64.65 8-4.72 13.16-12.14 14.69l.45 5.5a1.47 1.47 0 0 1 -2.94.24l-.43-5.34a15.05 15.05 0 0 1 -8-1.77c-6.44-3.47-9.25-14.19-2.31-14.75a2.13 2.13 0 0 1 2.14 2.13 16.41 16.41 0 0 0 2.6 7.7 6.53 6.53 0 0 0 5.26 3.15l-1.47-18.39c-6.94-3.76-14-7.43-14.6-15m13.91 6.54-1.42-17.4a8.16 8.16 0 0 0 -5.1 8.37c.35 4.36 2.95 7 6.52 9m5.09 26.23a8.68 8.68 0 0 0 5-8.39c-.26-3.26-2.83-5.55-6.32-7.61z" fill="#2d1929"/><path d="m141.6 308.75s-5.48-1-7.76 6.59-11.77 19.89-11.77 19.89 32.56 44.53 47 45.8 19.06-27.92 19.06-27.92c-24.82-1.8-43.47-20.51-46.53-44.36z" fill="#e73f46"/><path d="m188.15 353.11a76.07 76.07 0 0 0 12.13-45.25 11.33 11.33 0 0 1 3.55.51c4.81 1.49 7.31 5.88 8.43 7.85 3 5.25 14.08 32.54 6.16 44.27-3.42 5.07-30.27-7.38-30.27-7.38z" fill="#e73f46"/><path d="m122.07 335.23s32.88 54.93 50.1 53.15 16-35.27 16-35.27-4.78 37.89-22.61 28-43.49-45.88-43.49-45.88z" fill="#cc3745"/><path d="m188.15 353.11s18.14 24.45 26.59 17.35-2.48-54.24-2.48-54.24 6.71 45.79-.73 48.15-23.38-11.26-23.38-11.26z" fill="#cc3745"/><circle cx="195.56" cy="376.41" fill="#2d1929" r="4.66"/><circle cx="203.05" cy="398.56" fill="#2d1929" r="4.66"/></g></svg>