<svg height="512" viewBox="0 0 512 512" width="512" xmlns="http://www.w3.org/2000/svg" xmlns:xlink="http://www.w3.org/1999/xlink"><clipPath id="clip-path"><path d="m319.31 125.63a93.63 93.63 0 1 0 -149.37 75.24 27.56 27.56 0 0 1 11.29 22.13v29.8h88.9v-21.8a43.31 43.31 0 0 1 15.41-33.35 93.47 93.47 0 0 0 33.77-72.02z"/></clipPath><clipPath id="clip-path-2"><path d="m279.11 236.2a9.65 9.65 0 0 0 -9.65-9.65h-87.56a9.65 9.65 0 0 0 -9.65 9.65 9.66 9.66 0 0 0 9.65 9.66 9.65 9.65 0 0 0 -9.65 9.65 9.65 9.65 0 0 0 9.65 9.65h2.43v1.28a10.38 10.38 0 0 0 10.38 10.38h61.94a10.38 10.38 0 0 0 10.35-10.38v-1.28h2.43a9.65 9.65 0 0 0 9.65-9.65 9.65 9.65 0 0 0 -9.65-9.65 9.66 9.66 0 0 0 9.68-9.66z"/></clipPath><g id="Innovation"><path d="m319.31 125.63a93.63 93.63 0 1 0 -150.16 74.65 30.52 30.52 0 0 1 12.08 24.34v28.16h88.9v-19.73a48.81 48.81 0 0 1 17-36.76 93.42 93.42 0 0 0 32.18-70.66z" fill="#efbd42"/><g clip-path="url(#clip-path)"><path d="m229.31 26.9s124.86 69.69 23.3 188.42c0 0-28.4 12.68-72.12 17.06l106 3.82 64.51-85.13 5.09-90.65-16.83-33.52z" fill="#d7981a"/></g><path d="m214.35 242.25a1.5 1.5 0 0 1 -1.49-1.33c-2.75-25.54-10.84-83.21-21.34-110.52-9.53-2.77-16.36-8-18.56-12.38-1.32-2.64-.49-4.2.12-4.9 1.54-1.77 4.76-1.84 9.57-.2 3.82 1.29 7.5 6.26 11.08 15a47.19 47.19 0 0 0 15.27 1.31c8.27-.59 13.17-2.49 16.07-4.46-4.06-4.57-6.1-9.27-5.26-12.23a4.15 4.15 0 0 1 3.19-2.94c7.23-1.8 13.38 8 6.51 15.39 5.14 4.82 12.75 9 20.41 7.93 3.82-20.25 6.56-21 8-21.48 11.9-3.52 15.25 18.76-5.39 24-5 27.75-9.61 77.57-11.63 105.4a1.5 1.5 0 1 1 -3-.21c2-27.87 6.54-76.82 11.46-104.65-8.48.78-16.65-3.81-22.12-9-7.77 5.6-22.38 6.38-32.17 4.31 9.82 26.68 17.77 81.19 20.8 109.31a1.5 1.5 0 0 1 -1.52 1.65zm44.38-127.93c-.54.22-2.58 2.15-5.63 17.85 14.9-4.66 13.23-20.11 5.63-17.85zm-81.89.43a2.24 2.24 0 0 0 -1.5.34c-.15.17-.12.74.3 1.59 1.46 2.92 6.59 7.32 14.4 10.1-2.66-6-5.46-10-8.36-11a15.64 15.64 0 0 0 -4.84-1.03zm46.86-2.24c-.7.18-.89.51-1 .85-.47 1.63 1 5.39 4.65 9.46 4.65-5.08.71-11.39-3.65-10.31z" fill="#fff"/><g clip-path="url(#clip-path-2)"><path d="m279.11 236.2a9.65 9.65 0 0 0 -9.65-9.65h-87.56a9.65 9.65 0 0 0 -9.65 9.65 9.66 9.66 0 0 0 9.65 9.66 9.65 9.65 0 0 0 -9.65 9.65 9.65 9.65 0 0 0 9.65 9.65h2.43v1.28a10.38 10.38 0 0 0 10.38 10.38h61.94a10.38 10.38 0 0 0 10.35-10.38v-1.28h2.43a9.65 9.65 0 0 0 9.65-9.65 9.65 9.65 0 0 0 -9.65-9.65 9.66 9.66 0 0 0 9.68-9.66z" fill="#287eef"/><path d="m216.31 226.55s31.91 2.62 37 8.5-18.52 10.81-18.52 10.81 13.91.12 16.82 6.19-14.33 10.44-14.33 10.44 9.26 11.42-11.64 17.73h53.43l21.6-27.44v-28.18l-18-13.84-21.86 3.89z" fill="#1573d8"/></g><g fill="#e73f46"><path d="m134.08 255.45h15.28c1.83 0 3.27 1.14 3.15 2.48l-7.64 82.15c-.12 1.22-1.49 2.17-3.15 2.17-1.48 0-3-.83-3.15-2.17l-7.64-82.15c-.13-1.34 1.32-2.48 3.15-2.48z"/><path d="m121.84 260.26c2.73 5 11.08 4.18 27.78 3.41 9.17-.43 10.76-1.36 11.65-2.65 3-4.36-2.42-12.78-9.14-23.17-4.94-7.64-7.76-11.26-10.58-11.3-4.24-.06-7.31 5.34-12.74 14.89-5.81 10.31-8.81 15.47-6.97 18.82z"/><path d="m320.2 138.05h15.28c1.83 0 3.27 1.14 3.15 2.48l-7.63 82.15c-.12 1.22-1.49 2.17-3.15 2.17-1.48 0-3-.83-3.15-2.17l-7.64-82.15c-.14-1.34 1.31-2.48 3.14-2.48z"/><path d="m308 142.86c2.73 5 11.08 4.18 27.78 3.41 9.17-.43 10.76-1.36 11.66-2.65 3-4.36-2.43-12.78-9.15-23.17-4.94-7.64-7.76-11.27-10.58-11.31-4.24 0-7.31 5.35-12.74 14.9-5.9 10.31-8.83 15.47-6.97 18.82z"/></g><path d="m367.88 400.26 51.17-38.5-69.42-39.82-33.48 53.43z" fill="#6d5fde"/><path d="m88.38 400.26-51.17-38.5 69.42-39.82 33.48 53.43z" fill="#6d5fde"/><path d="m104.42 321.94h245.31v160.06h-245.31z" fill="#917eec" transform="matrix(-1 0 0 -1 454.14 803.94)"/><path d="m257.01 452.88v-16.03h-13v-44.66h83.8v-15.57h27.13l5.47 105.38h-118.69v-29.12z" fill="#6d5fde"/><path d="m201 386.42c0-14.35 10.53-23.1 24.17-24.77v-10a2.67 2.67 0 0 1 5.34 0v9.78a26.77 26.77 0 0 1 14.16 4.3 22.73 22.73 0 0 1 9.94 18.54c0 5.56-3.26 8.46-7.94 8.46-2 0-3.56-1.86-3.56-4.16-.07-12.83-4.22-19.65-12.6-20.46v35.66c6.75 3.93 11.2 6.75 13.5 8.38 6.15 4.38 10.6 10 10.6 18.4 0 10.15-5 17.12-12.31 21.05a32.29 32.29 0 0 1 -11.79 3.71v10a2.67 2.67 0 1 1 -5.34 0v-9.71a27.48 27.48 0 0 1 -14.17-4.37c-4.23-2.74-7.19-6.82-9.05-12.23a20 20 0 0 1 -1-6.31c0-5.41 3.34-8.45 8-8.45 2 0 3.56 1.85 3.56 4.15a29.87 29.87 0 0 0 3.55 14.31 11.87 11.87 0 0 0 9 6.46v-33.45c-12-7.84-24.17-15.48-24.17-29.29m24.17 13.87v-31.67a14.84 14.84 0 0 0 -10.38 14.38c0 7.93 4.3 13.13 10.45 17.28m5.34 48.12a16.7 16.7 0 0 0 7.34-5.56 14.08 14.08 0 0 0 3-8.82c0-5.93-4.3-10.45-10.31-14.68z" fill="#e5e5e5"/><path d="m373.75 456.34h92.72v25.66h-92.72z" fill="#efbd42"/><path d="m366.94 405.02h92.72v25.66h-92.72z" fill="#efbd42"/><path d="m382.07 430.68h92.72v25.66h-92.72z" fill="#d7981a"/><path d="m382.07 379.36h92.72v25.66h-92.72z" fill="#d7981a"/><path d="m370 353.7h92.72v25.66h-92.72z" fill="#efbd42"/><path d="m264.51 430.68h92.72v25.66h-92.72z" fill="#d7981a"/><path d="m255.12 456.34h92.72v25.66h-92.72z" fill="#efbd42"/><path d="m255.12 405.02h92.72v25.66h-92.72z" fill="#efbd42"/><path d="m333.97 458.32h83.94v23.68h-83.94z" fill="#d7981a"/><path d="m327.81 410.96h83.94v23.68h-83.94z" fill="#d7981a"/><path d="m341.5 434.64h83.94v23.68h-83.94z" fill="#efbd42"/><path d="m341.5 387.28h83.94v23.68h-83.94z" fill="#efbd42"/><path d="m384.52 357.89h7.1v18.73h-7.1z" fill="#d7981a"/><path d="m347.85 389.75h7.1v18.73h-7.1z" fill="#d7981a"/><path d="m332.39 413.43h7.1v18.73h-7.1z" fill="#efbd42"/><path d="m268.66 434.14h7.1v18.73h-7.1z" fill="#efbd42"/><path d="m260.96 459.8h7.1v18.73h-7.1z" fill="#d7981a"/><path d="m337.96 460.79h7.1v18.73h-7.1z" fill="#efbd42"/><path d="m347.85 460.79h7.1v18.73h-7.1z" fill="#efbd42"/><path d="m372.97 357.89h7.1v18.73h-7.1z" fill="#d7981a"/><path d="m270.05 408.48h7.1v18.73h-7.1z" fill="#d7981a"/><path d="m258.5 408.48h7.1v18.73h-7.1z" fill="#d7981a"/></g></svg>