<svg height="512" viewBox="0 0 512 512" width="512" xmlns="http://www.w3.org/2000/svg" xmlns:xlink="http://www.w3.org/1999/xlink"><clipPath id="clip-path"><path d="m138.8 199.01h42.54v78.33h-42.54z" transform="matrix(.996 .093 -.093 .996 22.82 -13.84)"/></clipPath><clipPath id="clip-path-2"><circle cx="161.87" cy="161.67" r="24.01"/></clipPath><g id="Investigation"><path d="m229 136.82-65.8 49-9.5 80.78 58.12 12.56s19.73-20.25 13.85-66 3.33-76.34 3.33-76.34z" fill="#e73f46"/><g clip-path="url(#clip-path)"><path d="m138.8 199.01h42.54v78.33h-42.54z" fill="#e39c76" transform="matrix(.996 .093 -.093 .996 22.82 -13.84)"/><path d="m143.61 208.56a43.77 43.77 0 0 0 7.62 20.12c11.66 16.45 31 18.47 34.25 18.76q.74-10.81 1.48-21.63z" fill="#d48f6e"/></g><path d="m190.15 307.33c2.85 9.33 22.85 71.67 68.68 82.08 4.89 1.11 10.77 2.37 17.5.6 26.77-7 42.31-55.53 40.44-121.91l-30.77-18.71q-11.62 40.44-23.24 80.87c-8.93-16.9-17.42-31.83-25-44.66-4.1-6.89-18.22-30.32-29-32.59-1.13-.23-10.52-3-18.71-3-5.5.14-11.27.29-14.18 2.71-7.12 5.9-.78 28.15 14.28 54.61z" fill="#917eec"/><path d="m435 335.43 48-2.11s2.11 48-25 48-41.65-21.12-41.65-21.12z" fill="#c6c6c6"/><path d="m222.49 179.09c-.32-10-2.13-16.21-2.12-22.73 0-16.11 2.91-28.14-7.49-40.09a55.57 55.57 0 0 0 -11.08-11.62c-15.31-13.55-42.53-16.42-62.23-4.33-22.69 13.92-25 41.3-25.55 48.1-2.67 31.76 17.39 55.11 26.28 63.83a81.61 81.61 0 0 0 16.18 14.33c6.72 4.41 24.68 16.21 39.13 8.7 3.78-2 9.21-7.26 16.23-20.2 9.08-16.74 10.96-25.99 10.65-35.99z" fill="#e39c76"/><g fill="#2d1929"><path d="m193.93 190.12c3.47-1.54 5.33-3.25 5.54-5.1.48-4.19-7.8-6-9.13-20.88a.5.5 0 0 1 1-.09c1.32 14.79 9.7 16.11 9.13 21.08-.26 2.23-2.32 4.21-6.13 5.9a.5.5 0 0 1 -.41-.91z"/><path d="m211.79 166.38c0 3.62-2 6.53-4.3 6.51s-4.21-3-4.18-6.59 2-6.54 4.31-6.52 4.21 2.98 4.17 6.6z"/><path d="m166.85 166c0 3.61 1.83 6.57 4.18 6.59s4.27-2.89 4.3-6.51-1.84-6.58-4.18-6.6-4.27 2.85-4.3 6.52z"/><path d="m195.72 146.75a1 1 0 0 1 -.58-1.82c.1-.07 10.14-7 20.13 0a1 1 0 1 1 -1.14 1.64c-8.86-6.21-17.75 0-17.83 0a1 1 0 0 1 -.58.18z"/><path d="m159.84 147.08a1 1 0 0 1 -.71-1.71c8.67-8.6 19.75-3.43 19.86-3.37a1 1 0 0 1 -.87 1.8c-.4-.19-9.93-4.6-17.58 3a1 1 0 0 1 -.7.28z"/></g><path d="m150.69 248s-54.6-6.47-67.39 31.16c-11.76 34.57 7.92 150.54 7.92 150.54l131.08-.54s11.21-122.13 3.06-150.11c-8.73-29.93-74.67-31.05-74.67-31.05z" fill="#e5e5e5"/><path d="m137.86 247.25c3.33 19.64 19.38 29.38 29.24 26.28 7.29-2.29 12.69-12.08 13.05-23.51a37 37 0 0 0 -42.29-2.77z" fill="#e39c76"/><path d="m180.12 251.33c-4.72 58.79-3.72 119 5.42 178l44.25-1c.48-30.08.48-57.54.26-81.38-.5-54.76-1.87-73.27-13.4-85.14-11.05-11.35-26.02-11.81-36.53-10.48z" fill="#917eec"/><path d="m130.16 243.47s1.18 135.48 7.7 186.32h-58.65c-1.73-38.49-3.74-68.79-5.21-88.91-1.86-25.51-3.06-37.46 3.17-51.85 11.02-25.47 36.83-38.97 52.99-45.56z" fill="#917eec"/><path d="m184.89 108.17c-7.24 25.52-28.34 42.31-54 45.87a84.46 84.46 0 0 0 -1.34 17.34c.48 17.86 7.84 26.16 10.76 40.87 1.56 7.86 2.38 19.77-2.36 35.62a130.67 130.67 0 0 0 -65.6 26c-15.4-13.63-19.39-35.19-4.22-55.68 8.51-11.49 15.48-9.94 22.86-19.45 8.84-11.39 5-22.13 7.27-39.28 6.08-46.28 31.22-87 82-72.08 0 0 32.69-2.72 44.91 19s-4.07 58.6-4.07 58.6-2.31-18.88-.48-28.78c-16.68-1.38-30.14-12.2-35.73-28.03z" fill="#e73f46"/><path d="m135.83 160.94c-2.69-9-10.88-14.5-18.29-12.28s-11.23 11.34-8.54 20.34 10.89 14.5 18.3 12.28 11.23-11.34 8.53-20.34z" fill="#e39c76"/><path d="m128.72 173.12s-4.72-1.12-4.72-5.77c0-2.86 3.61-3.65 5.13-3.86-.78-2.09-3.74-9.07-8.74-9.29-4.77-.22-5.09 5.13-5.1 5.36a.5.5 0 0 1 -1-.05c0-.07.41-6.56 6.14-6.31 6.55.29 9.73 10.15 9.86 10.57a.5.5 0 0 1 -.45.65s-4.84.33-4.84 2.93c0 3.82 3.78 4.76 3.94 4.8a.5.5 0 0 1 -.22.97z" fill="#2d1929"/><path d="m222.62 286.64 5.43 24.17a39.63 39.63 0 0 1 1.68 43.19l5.87 75.37h-50.06s33.16-5.85 35-12.6-13.91-8.77-11.54-15.77 8.45-5.9 13.28-18.55 2.11-32 2.11-32a26.38 26.38 0 0 0 6-10c4.28-13.44-4.88-25.25-6.26-27z" fill="#6d5fde"/><path d="m457.92 381.3h-140.92c-22.9 0-19-143.54-5.77-214.41h146.69a380.9 380.9 0 0 0 -15.37 112.16c.45 34.45-2.39 102.25 15.37 102.25z" fill="#e5e5e5"/><path d="m262.75 330.26c-12.38 13-14.37 31.28-6.64 46.78a101.13 101.13 0 0 1 6.64-46.78z" fill="#6d5fde"/><path d="m282.09 263 5.11-18.41s13.58-25 23.84-26.86-8.24 18.3-8.67 26.22-.92 22.06-.92 22.06-6.07 4.82-19.36-3.01z" fill="#e39c76"/><rect fill="#917eec" height="11.91" rx="2.65" width="37.57" x="322.95" y="190.57"/><rect fill="#efbd42" height="2.81" rx="1.4" width="56.58" x="320.24" y="212.33"/><path d="m340.08 343.5h-19.59a243 243 0 0 1 0-70h19.59a361.89 361.89 0 0 0 0 70z" fill="#86ebf9"/><path d="m376.25 343.5h-19.59a151.82 151.82 0 0 1 0-55.18h19.59a226.39 226.39 0 0 0 0 55.18z" fill="#86ebf9"/><path d="m412.43 343.5h-19.59a362.21 362.21 0 0 1 0-85.5h19.59a540 540 0 0 0 0 85.5z" fill="#86ebf9"/><rect fill="#efbd42" height="2.72" rx="1.36" width="103.5" x="320.99" y="355.91"/><rect fill="#efbd42" height="2.72" rx="1.36" width="103.5" x="320.99" y="368.14"/><circle cx="405.26" cy="227.91" fill="#efbd42" r="23.52"/><path d="m400 221.87c.23-3.59 3-5.61 6.44-5.8l.17-2.51a.67.67 0 1 1 1.33.09l-.16 2.45a5.93 5.93 0 0 1 5.52 4.5c.47 1.87 0 3.71-2 3.58a1 1 0 0 1 -.82-1.09c.19-3.21-.74-5-2.82-5.32l-.58 8.92c3 2 5.82 3.64 5.6 7.08-.23 3.63-3 5.61-6.43 5.81l-.16 2.5a.67.67 0 0 1 -1.33-.09l.15-2.43c-3.64-.39-5.87-3.09-5.67-6.12a1.91 1.91 0 0 1 2.13-2 1 1 0 0 1 .83 1.09 7.55 7.55 0 0 0 .66 3.64 3 3 0 0 0 2.14 1.83l.53-8.36c-2.75-2.06-5.79-4.23-5.57-7.72m5.82 3.86.51-7.92a3.71 3.71 0 0 0 -2.84 3.43 5.06 5.06 0 0 0 2.33 4.49m.56 12.12a4 4 0 0 0 2.81-3.43c.1-1.49-.9-2.68-2.34-3.84z" fill="#e5e5e5"/><path d="m130.21 248.92c-9.81 7.51-11.56 11.05-10.79 12.85 1.13 2.64 9.58-.42 5.33 17.38-4.13 17.32.52 71.25-47.29 126.89l-1.21-22.11a306.1 306.1 0 0 0 37.28-119c-.09-1.31-.19-2.63-.29-3.94l4.9-10.47z" fill="#6d5fde"/><path d="m105.18 276.85 17.76-35-7.79-10.7s-18.06 9.49-23.15 22.77 13.18 22.93 13.18 22.93z" fill="#e39c76"/><path d="m137.7 174.54h6.87v51.91h-6.87z" fill="#e5e5e5" transform="matrix(.882 .471 -.471 .882 111.13 -42.85)"/><path d="m115.64 247.84a8.14 8.14 0 0 1 -3.34-11l19.45-36.41a8.14 8.14 0 1 1 14.36 7.67l-19.45 36.4a8.15 8.15 0 0 1 -11.02 3.34z" fill="#2d1929"/><circle cx="161.87" cy="161.67" fill="#2d1929" r="29.44"/><circle cx="161.87" cy="161.67" fill="#86ebf9" r="24.01"/><g clip-path="url(#clip-path-2)"><path d="m182.35 143.47-49.27 24.53 3.86 4.85 47.12-23.57.69 3-45.81 21.72 3 3 45.12-21.05 5.25-4.37z" fill="#e5e5e5"/></g><path d="m112 237 3.11-5.83s7.7-1.43 11.2.13 4 5.92 4 5.92 6-2.1 6.4-4.26a6 6 0 0 0 -.53-3.83s7.72-.94 4.78-7.82c0 0 5.06-.26 2.56-5.23 0 0 3.33-.69 3.49-3.51.23-4.25-9.28-10.65-18.47-10.82-3-.06-9 .5-18.85 8.54-6.19 5.05-17.33 15.86-24.75 35.81 0 0 11.16 10 20.79 9.49z" fill="#e39c76"/><path d="m88.34 237.72c-13 20.87-75.42 122.71-48.8 148.92 7.25 7.14 18.47 5.93 19.58 5.79 28.21-3.41 50.35-55.11 58.19-127.65z" fill="#917eec"/><path d="m140.92 220.86c1.52-.35 2.45-1 2.77-1.79a3.37 3.37 0 0 0 -.5-2.67.5.5 0 0 1 .24-.76c2-.72 3.16-1.67 3.34-2.81.35-2.27-3-4.78-3-4.81a.51.51 0 0 1 -.1-.7.5.5 0 0 1 .7-.1c.16.12 3.82 2.9 3.39 5.76-.22 1.41-1.37 2.55-3.44 3.39 1.18 2.39.38 4.64-3.18 5.46a.5.5 0 0 1 -.22-.97z" fill="#2d1929"/><path d="m189.56 206.72a7 7 0 0 0 -3.82-4.12c-4.31-1.83-10.16.61-10.21.63a.5.5 0 1 1 -.39-.92c.25-.11 6.28-2.62 11-.63a8 8 0 0 1 4.37 4.68.5.5 0 0 1 -.95.36z" fill="#2d1929"/></g></svg>