<svg height="512" viewBox="0 0 512 512" width="512" xmlns="http://www.w3.org/2000/svg" xmlns:xlink="http://www.w3.org/1999/xlink"><clipPath id="clip-path"><path d="m413.79 217a112.55 112.55 0 0 1 -92.32 110.7 641.81 641.81 0 0 1 -159.75 9 112.63 112.63 0 0 1 -105-112.27v-13.35c0-65.59 55.88-117.39 121.26-112.17q62 4.94 124.25 5.59c61.56.65 111.56 50.55 111.56 112.5z"/></clipPath><clipPath id="clip-path-2"><path d="m254.39 123.18-3.26 35.69 28.94 31.39-10.59 53.41 56.66 34.72 20.39-29.42 33.02 4.48 4.48-28.13 13.86-6.94-31.9-33.6 6.63-24.69-35.47-16.71v-19.97l-38.73-3.91z"/></clipPath><clipPath id="clip-path-3"><path d="m458.59 250.03-41.68 8.03-26.5 36.15-65.96 7.59-19.34 61.33 41.18 7.55 6.4 28.67 32.58-5.57 11.98 8.84 26.67-36.55 28.65-2.43 7.88-34.62 21.61-6.21-6.56-34.47z"/></clipPath><g id="Piggy_Bank" data-name="Piggy Bank"><path d="m105.4 362.53-15.87-6a11.84 11.84 0 0 1 -7.28-14l7.34-28.57a11.84 11.84 0 0 1 15.65-8.13l21.93 8.29a11.84 11.84 0 0 1 6.36 16.45l-13.4 26.28a11.84 11.84 0 0 1 -14.73 5.68z" fill="#1573d8"/><path d="m219 367.59 15.86-6a11.84 11.84 0 0 0 7.28-14l-7.33-28.59a11.83 11.83 0 0 0 -15.65-8.12l-21.93 8.29a11.83 11.83 0 0 0 -6.36 16.44l13.4 26.29a11.85 11.85 0 0 0 14.73 5.69z" fill="#1573d8"/><path d="m366.58 347.21 15.87-6a11.82 11.82 0 0 0 7.27-14l-7.33-28.58a11.84 11.84 0 0 0 -15.65-8.13l-21.93 8.29a11.84 11.84 0 0 0 -6.36 16.45l13.4 26.28a11.84 11.84 0 0 0 14.73 5.69z" fill="#1573d8"/><path d="m413.79 217a112.55 112.55 0 0 1 -92.32 110.7 641.81 641.81 0 0 1 -159.75 9 112.63 112.63 0 0 1 -105-112.27v-13.35c0-65.59 55.88-117.39 121.26-112.17q62 4.94 124.25 5.59c61.56.65 111.56 50.55 111.56 112.5z" fill="#287eef"/><ellipse cx="150.84" cy="218.39" fill="#287eef" rx="110.07" ry="119.84"/><path d="m113.54 114.44c-4.71-6.24-17.12-20.9-38.54-27.52-9.81-3-29.58-9.15-39.14 0-12.12 11.6 7.27 34.6 20.79 88.67 6.75 26.9 56.89-61.15 56.89-61.15z" fill="#287eef"/><path d="m139.07 114.44c4.71-6.24 17.12-20.9 38.53-27.52 9.81-3 29.57-9.15 39.13 0 12.12 11.6-7.27 34.6-20.79 88.67-6.72 26.9-56.87-61.15-56.87-61.15z" fill="#287eef"/><path d="m352.67 192.81c16-10.24 48.6-28.07 67.48-28.91a21.35 21.35 0 0 1 5.43.4 15.6 15.6 0 0 1 10.25 6.78c.15.26.38.76.71 1.46a12.66 12.66 0 0 1 .9 4.2c.37 8.13-6 13.41-11.82 11.62a8.16 8.16 0 0 1 -2.64-1.43c-5.86-4.59-8.15-18.17-1.78-26.42a16.66 16.66 0 0 1 9.24-5.91 22.9 22.9 0 0 1 2.55-.49 13.16 13.16 0 0 1 3.49-.09c9.27 1.3 8.31 16.73 14.25 18.73 0 0 .64.15.68.14a5.81 5.81 0 0 0 1.9 0 9.82 9.82 0 0 0 3.28-1.31l.63-.43a10.33 10.33 0 0 0 1.06-.84c3.51-3.13 4.68-9 4.67-13.72a39.68 39.68 0 0 0 -1.07-8.49 33.45 33.45 0 0 1 2.52 8.37c.83 5.68.19 11.95-3.57 16.31a13.31 13.31 0 0 1 -2.85 2.48 12.19 12.19 0 0 1 -5.89 2.1c-9.85.53-11.2-12.45-15-16.35a2 2 0 0 0 -1.94-.74c.91 0-1.63.11-3 .59-5 1.47-7.31 5.39-7.59 10.53a16.85 16.85 0 0 0 1.31 7.43 6.48 6.48 0 0 0 1.63 2.39l.08.07s-.12 0-.12 0l.63.22c-.61-.19-.16-.05-.29-.1h.09c.18.06.25 0 .42 0a3 3 0 0 0 1.35-1.46 6.11 6.11 0 0 0 .59-2.82 7.09 7.09 0 0 0 -.23-1.53c0-.09 0-.07-.47-1-.13-.27.29.53-.05-.06-1.06-1.68-3.61-2.84-5.52-3.29-13.29-3.24-56.13 15.38-71.31 21.57z" fill="#287eef"/><path d="m58.2 153.88s-4.28-31.19-10.7-44.34c-1.92-3.93-2-7.09-.81-9.41 4-7.42 24.35-2.06 26.11-1.59a58.5 58.5 0 0 1 25.2 14.37 95.09 95.09 0 0 0 -39.8 40.97z" fill="#1573d8"/><path d="m158.49 105.87c5.64-2.5 36.53-16 50.88-12.53 2.14.51 3.17 1.23 3.81 2.12 5 6.92-14.45 21.08-14.64 50.77a99.33 99.33 0 0 0 -40.05-40.36z" fill="#1573d8"/><path d="m79 197 32.59-6.73s26.85 34.1 4.06 88.13l-28.28-4.76c5.83-26.42 2.21-54.96-8.37-76.64z" fill="#1573d8"/><ellipse cx="81.9" cy="233.37" fill="#287eef" rx="17.89" ry="41.58"/><g clip-path="url(#clip-path)"><path d="m220.56 101.8s-13.15 30.37-12.85 46.27c60 54.15 43.12 136.78-15.9 189.26q-2.79 13-5.59 26l203.5-36.09 37.52-111.32s-62 98.52-192 94.23c6.59-8.88 26.16-37.59 24.87-78.26-1.69-53.25-37.8-85.53-44-90.92q2.21-19.6 4.45-39.17z" fill="#1573d8"/></g><path d="m310.78 122.42a731.32 731.32 0 0 1 -76.08 0 4.61 4.61 0 1 1 .59-9.21 486.31 486.31 0 0 0 74.89 0 4.61 4.61 0 1 1 .6 9.21z" fill="#2d1929"/><g clip-path="url(#clip-path-2)"><path d="m254.39 123.18-3.26 35.69 28.94 31.39-10.59 53.41 56.66 34.72 20.39-29.42 33.02 4.48 4.48-28.13 13.86-6.94-31.9-33.6 6.63-24.69-35.47-16.71v-19.97l-38.73-3.91z" fill="#86ebf9"/><path d="m248.78 128.79-3.26 35.69 28.94 31.39-10.59 53.41 56.66 34.72 20.39-29.42 33.02 4.48 4.48-28.13 13.86-6.93-31.9-33.6 6.63-24.69-35.47-16.72v-19.97l-38.73-3.91z" fill="#2d1929"/></g><path d="m378.42 230.93 5.61-5.61-1.34 8.39z" fill="#86ebf9"/><path d="m340.92 254.58 5.61-5.61-5.61 8.1z" fill="#86ebf9"/><path d="m309.84 129h-55.75l-.21-8.46 61-2z" fill="#2d1929"/><path d="m342.07 229.52h35.05v9.6h-35.05z" fill="#efbd42"/><path d="m338.1 239.12h35.05v9.6h-35.05z" fill="#d7981a"/><path d="m292.34 233.71h35.05v9.6h-35.05z" fill="#efbd42" transform="matrix(.928 .373 -.373 .928 111.14 -98.25)"/><path d="m270.64 239.12h35.05v9.6h-35.05z" fill="#d7981a" transform="matrix(.978 .207 -.207 .978 56.76 -54.38)"/><path d="m303.72 248.88h34.38v8.27h-34.38z" fill="#efbd42"/><path d="m304.33 257.15h30.21v8.27h-30.21z" fill="#d7981a"/><g clip-path="url(#clip-path-3)"><path d="m458.59 250.03-41.68 8.03-26.5 36.15-65.96 7.59-19.34 61.33 41.18 7.55 6.4 28.67 32.58-5.57 11.98 8.84 26.67-36.55 28.65-2.43 7.88-34.62 21.61-6.21-6.56-34.47z" fill="#86ebf9"/><path d="m450.55 246.59-41.94 8.04-26.55 36.33-66.39 7.56-19.23 61.66 41.49 7.63 6.56 28.83 32.78-5.57 12.1 8.9 26.71-36.72 28.83-2.41 7.8-34.81 21.73-6.22-6.73-34.67z" fill="#2d1929"/></g><g fill="#2d1929"><path d="m145.33 205.26c-.1 0-.1-.08-6.21-6.19l23.67-23.78 6.27 6.16c-24.5 24.62-23.63 23.76-23.73 23.81z"/><path d="m162.84 205.26c-.1 0 .65.67-23.72-23.7l6.16-6.27 23.78 23.71c-6.6 6.68-6.06 6.21-6.22 6.26z"/><path d="m61.4 199c-.1 0-.27-.24-5.37-5.34l20.45-20.54 5.42 5.32c-21.42 21.46-20.4 20.47-20.5 20.56z"/><path d="m76.53 199c-.1 0 .21.24-20.5-20.47l5.33-5.41 20.54 20.39c-5.61 5.71-5.27 5.4-5.37 5.49z"/><ellipse cx="89.79" cy="232.56" rx="4.59" ry="9.48"/><ellipse cx="72.8" cy="229.91" rx="4.59" ry="9.48"/></g><path d="m65.84 153.88s16.78-37.72 64.16-48.36a172.21 172.21 0 0 0 -64.16 48.36z" fill="#e5e5e5"/><path d="m84.12 274.9c-8 0-11.84-8.35-14.63-15.8-6.63-17.68-3.67-37.36 0-50.76a1 1 0 0 1 1.22-.7 1 1 0 0 1 .71 1.23c-3.57 13.11-6.48 32.34 0 49.53 1.84 4.92 4.93 13.16 11.17 14.35 3.63.7 7.15-1.18 9.47-2.88a1 1 0 0 1 1.39.21 1 1 0 0 1 -.21 1.4 15.6 15.6 0 0 1 -9.12 3.42z" fill="#1573d8"/><path d="m48.52 220.43s-3.06 51.77 41.27 87.65a181.66 181.66 0 0 1 -41.27-87.65z" fill="#e5e5e5"/><path d="m67.68 248.87c-1-3.12-8.72-30.15 6.72-46.78a33.69 33.69 0 0 1 9.18-6.94c-15.36 13.48-19.11 33.9-15.9 53.72z" fill="#e5e5e5"/><path d="m89.79 326.32s-5.75 15.75-3 21.86 12.84 8.57 12.84 8.57-13.56-12.69-9.84-30.43z" fill="#e5e5e5"/><path d="m197.93 341.76s11.47 27.83 26.91 19.88c0 0-19.73-8.22-26.91-19.88z" fill="#287eef"/><path d="m280.44 366.25h66.01v12.28h-66.01z" fill="#efbd42"/><path d="m275.59 341.69h66.01v12.28h-66.01z" fill="#d7981a"/><path d="m286.36 353.97h66.01v12.28h-66.01z" fill="#d7981a"/><path d="m286.36 329.41h66.01v12.28h-66.01z" fill="#d7981a"/><path d="m330.62 332.09h66.01v12.28h-66.01z" fill="#efbd42" transform="matrix(.913 .407 -.407 .913 169.14 -118.72)"/><path d="m252.12 367.19h59.75v11.33h-59.75z" fill="#d7981a"/><path d="m219.7 354.44h59.75v11.33h-59.75z" fill="#d7981a" transform="matrix(.882 -.472 .472 .882 -140.34 160.27)"/><path d="m257.48 353.97h59.75v13.23h-59.75z" fill="#efbd42"/><path d="m257.48 338.37h59.75v11.33h-59.75z" fill="#efbd42" transform="matrix(.989 -.145 .145 .989 -46.76 45.21)"/><circle cx="393.59" cy="313.13" fill="#d7981a" r="28.65"/><circle cx="398.48" cy="310.08" fill="#efbd42" r="28.65"/><path d="m389.11 308c-2.32-3.72-1-7.69 2.26-10.32l-1.61-2.6a.8.8 0 0 1 .24-1.08.81.81 0 0 1 1.12.26l1.58 2.54a7.23 7.23 0 0 1 8.66.55c1.8 1.51 2.58 3.7.58 4.95a1.18 1.18 0 0 1 -1.59-.51c-2.09-3.31-4.27-4.41-6.57-3.26l5.75 9.24c2.39-.07 4-.06 4.85 0a6.65 6.65 0 0 1 5.72 3.06c2.35 3.76 1 7.67-2.25 10.3l1.62 2.6a.81.81 0 1 1 -1.38.86l-1.55-2.59c-3.89 2.2-8 1.1-10-2a2.36 2.36 0 0 1 .72-3.49 1.19 1.19 0 0 1 1.59.5 9.08 9.08 0 0 0 3.23 3.14 3.62 3.62 0 0 0 3.39.21l-5.4-8.67c-4.22-.08-8.75-.08-11-3.68m8.5-.31-5.11-8.21a4.52 4.52 0 0 0 -.39 5.42c1.28 2.05 3.23 2.7 5.5 2.79m9.15 11.61a4.83 4.83 0 0 0 .35-5.4c-1-1.53-2.8-2-5-2.14z" fill="#e5e5e5"/><path d="m414 417.73c-14.21 16.67-39.79 19.07-54.47 4.94-13.46-12.95-10.86-33.63 3.61-46.11 13.28-11.46 33.36-13.05 46.62-3.79 14.32 9.96 17.15 29.86 4.24 44.96z" fill="#d7981a"/><path d="m410.55 412.54c-14.13 16.11-39.27 18.46-53.55 4.79-13.13-12.51-10.42-32.56 3.93-44.67 13.19-11.14 33-12.7 46-3.71 13.9 9.68 16.46 28.97 3.62 43.59z" fill="#efbd42"/><path d="m383.88 381.15c3.58-3.36 8.41-3.43 12.41-1.16l2.42-2.35a1.07 1.07 0 0 1 1.34-.11.72.72 0 0 1 .07 1.14l-2.37 2.33c2.75 2.17 3.86 5.32 2.16 8.76-1.19 2.38-3.53 4-5.64 2.31a1.19 1.19 0 0 1 .1-1.82c3.21-3.25 3.78-5.78 1.75-7.65l-9.06 8.88c1.55 4.92 3 8.82-.62 12.49a10.31 10.31 0 0 1 -13.5 1.35l-2.89 2.84a1.11 1.11 0 0 1 -1.5.13.94.94 0 0 1 .08-1.39l2.81-2.73a8 8 0 0 1 -2.46-4.43c-.8-4.33 3.72-10.27 7-7.57.52.43.42 1.24-.21 1.84a12 12 0 0 0 -3 4.57 3.66 3.66 0 0 0 .56 3.8l9.21-9c-1.08-4.62-2.14-9 1.39-12.26m2.68 8.31 8-7.81a6.3 6.3 0 0 0 -8 7.81m-11.65 13.92a6.83 6.83 0 0 0 6.79-1.61c1.63-1.63 1.7-3.81 1.23-6.25z" fill="#e5e5e5"/></g></svg>