<svg height="512" viewBox="0 0 512 512" width="512" xmlns="http://www.w3.org/2000/svg" xmlns:xlink="http://www.w3.org/1999/xlink"><clipPath id="clip-path"><path d="m289.79 372.37c-38.47-14.88-71.55-52.3-83.24-101.8l-14-59.22a63.83 63.83 0 0 0 32.64-32.51l110.94-.42a70.28 70.28 0 0 0 21.21 21.73l2.37 52.94c2 44.29-12.38 86.64-40.44 119.25l-7.38 8.58z"/></clipPath><g id="Protection"><path d="m159.83 384.33h100.7v24.36h-100.7z" fill="#d7981a"/><path d="m152.44 335.6h100.7v24.36h-100.7z" fill="#d7981a"/><path d="m168.87 359.96h100.7v24.36h-100.7z" fill="#efbd42"/><path d="m168.87 311.24h100.7v24.36h-100.7z" fill="#efbd42"/><path d="m155.77 286.88h100.7v24.36h-100.7z" fill="#d7981a"/><path d="m41.2 359.96h100.7v24.36h-100.7z" fill="#efbd42"/><path d="m31 384.33h100.7v24.36h-100.7z" fill="#d7981a"/><path d="m31 335.6h100.7v24.36h-100.7z" fill="#d7981a"/><path d="m116.63 386.21h91.16v22.48h-91.16z" fill="#efbd42"/><path d="m109.94 341.24h91.16v22.48h-91.16z" fill="#efbd42"/><path d="m124.81 363.72h91.16v22.48h-91.16z" fill="#d7981a"/><path d="m124.81 318.76h91.16v22.48h-91.16z" fill="#d7981a"/><circle cx="107.18" cy="287.29" fill="#d7981a" r="50.63"/><circle cx="117.34" cy="286.47" fill="#efbd42" r="50.63"/><path d="m104.31 275.59c-.63-7.72 4.65-12.89 11.92-14.38l-.44-5.38a1.44 1.44 0 0 1 2.87-.24l.43 5.27a14.41 14.41 0 0 1 7.8 1.69 12.27 12.27 0 0 1 6.16 9.54c.24 3-1.39 4.68-3.9 4.89a2.08 2.08 0 0 1 -2.1-2.08c-.6-6.9-3.13-10.38-7.67-10.45l1.56 19.17c3.8 1.82 6.32 3.14 7.62 3.92 3.51 2.08 6.14 4.92 6.51 9.43.63 7.81-4.62 12.87-11.88 14.37l.44 5.38a1.44 1.44 0 0 1 -2.87.23l-.42-5.22a14.82 14.82 0 0 1 -7.81-1.73c-6.3-3.4-9-13.88-2.26-14.43a2.08 2.08 0 0 1 2.1 2.08 16.1 16.1 0 0 0 2.54 7.54 6.37 6.37 0 0 0 5.14 3.07l-1.46-18c-6.76-3.67-13.67-7.26-14.28-14.69m13.61 6.4-1.39-17a8 8 0 0 0 -5 8.19c.35 4.27 2.89 6.87 6.38 8.84m5 25.64a8.47 8.47 0 0 0 4.91-8.19c-.25-3.19-2.76-5.43-6.18-7.44z" fill="#d7981a"/><g fill="#e5e5e5"><path d="m38.59 337.93h6.63v19.44h-6.63z"/><path d="m53.23 337.93h6.63v19.44h-6.63z"/><path d="m131.27 365.25h6.63v19.44h-6.63z"/><path d="m145.91 365.25h6.63v19.44h-6.63z"/><path d="m165.34 320.28h6.63v19.44h-6.63z"/><path d="m179.98 320.28h6.63v19.44h-6.63z"/><path d="m215.98 387.73h6.63v19.44h-6.63z"/><path d="m121.5 387.73h6.63v19.44h-6.63z"/><path d="m230.62 387.73h6.63v19.44h-6.63z"/><path d="m46.61 362.43h6.63v19.44h-6.63z"/><path d="m35.28 387.73h6.63v19.44h-6.63z"/></g><path d="m337.6 147.82-124.42-2.31a16.66 16.66 0 0 0 -16.73 12.22c-4.13 14.49-17.26 25-34.66 25.28a9.09 9.09 0 0 0 -8.92 11.43l20 83.62c14.41 60.33 55 107.23 105.44 125.56l40.86 14.84q10.35-12.39 20.59-24.68c32.71-39.2 49-89.91 46.61-140.86l-3-64.31c-.24-5-3.4-9.53-7.53-10.94-7.37-2.52-14.07-8.52-18.54-16.46s-11.98-13.21-19.7-13.39z" fill="#917eec"/><path d="m285.78 382.74c-42.54-16.46-77.7-57.34-90-109.61l-16.27-68.86c18.57-5.13 32.58-18.49 38-36.52l122.66-.46a5 5 0 0 1 4 2.81c6 10.56 14.64 18.83 24.07 23.41l2.64 59.09c2.08 46.32-13 92-43.11 127l-12.5 14.53z" fill="#86ebf9"/><g clip-path="url(#clip-path)"><path d="m351.71 167.29s25.65 164.71-71.81 229.22l39.23 21.95 67.43-61.1 14.74-142.56v-52.15z" fill="#e5e5e5"/></g><circle cx="261.36" cy="244.05" fill="#40c2d6" r="8.22"/><circle cx="248.14" cy="294.49" fill="#40c2d6" r="8.22"/><circle cx="309.77" cy="248.52" fill="#40c2d6" r="8.22"/><path d="m418.92 215.64 3.39-16.14a2 2 0 0 1 1.43-1.43l45.12-14.13c1.55-.48 2.93.41 2.6 1.68l-4.57 17.64a2.26 2.26 0 0 1 -1.64 1.49l-44.08 12.5c-1.3.37-2.49-.48-2.25-1.61z" fill="#e73f46"/><path d="m420.1 219.8 11.35 11.95a2 2 0 0 0 2 .47l45.83-11.65c1.56-.4 2.27-1.88 1.32-2.79l-13.14-12.62a2.3 2.3 0 0 0 -2.18-.41l-44.08 12.5c-1.33.37-1.9 1.75-1.1 2.55z" fill="#e73f46"/><path d="m309.87 248.79a2.6 2.6 0 0 1 1.79-3.2l157.57-45.49c2.37-.68 4.72.23 5.24 2 .55 2-1.21 3.88-3.39 4.48l-158 44a2.61 2.61 0 0 1 -3.21-1.79z" fill="#287eef"/><path d="m362.08 296.92 8.29-14.25a2.08 2.08 0 0 1 1.82-.91l47.27.78c1.62 0 2.65 1.3 1.93 2.4l-9.88 15.32a2.27 2.27 0 0 1 -2 .89l-45.77-2c-1.38-.05-2.24-1.23-1.66-2.23z" fill="#e73f46"/><path d="m361.9 301.24 7 14.92a2.06 2.06 0 0 0 1.72 1.07l47.17 3.34c1.61.11 2.74-1.07 2.13-2.23l-8.51-16.12a2.31 2.31 0 0 0 -1.94-1.07l-45.77-2c-1.34-.05-2.3 1.05-1.8 2.09z" fill="#e73f46"/><path d="m248.15 294.12a2.61 2.61 0 0 1 2.7-2.48l163.88 6.36c2.47.09 4.41 1.7 4.33 3.58-.09 2-2.36 3.3-4.62 3.19l-163.82-7.94a2.59 2.59 0 0 1 -2.47-2.71z" fill="#287eef"/><path d="m331.11 154.8 16.29 2.53a2.05 2.05 0 0 0 1.85-.83l29.15-37.23c1-1.27.65-2.88-.65-3l-18.12-2a2.31 2.31 0 0 0 -2 1l-27.23 36.86c-.8 1.09-.4 2.5.71 2.67z" fill="#e73f46"/><path d="m327.64 152.23-7.18-14.84a2.06 2.06 0 0 1 .26-2l27.09-38.76c.92-1.32 2.56-1.46 3.07-.25l7.17 16.75a2.28 2.28 0 0 1 -.39 2.18l-27.26 36.82c-.8 1.09-2.26 1.14-2.76.1z" fill="#e73f46"/><path d="m261.58 245.11a2.6 2.6 0 0 0 3.63-.54l98.21-131.35c1.48-2 1.45-4.5-.06-5.62s-4.05-.24-5.39 1.59l-96.97 132.3a2.59 2.59 0 0 0 .58 3.62z" fill="#287eef"/></g></svg>