<svg height="512" viewBox="0 0 512 512" width="512" xmlns="http://www.w3.org/2000/svg" xmlns:xlink="http://www.w3.org/1999/xlink"><clipPath id="clip-path"><path d="m368 395.17s-40.06 36.1-37.58 56.87 116.21 22 122.64 12-4-56-23.24-68.87-47.51-8.41-61.82 0z"/></clipPath><g id="Cleaning"><path d="m194.09 444.44 2.42 13.91s-17 2.56-15.06 16h46.24a4.23 4.23 0 0 0 4.12-5.18l-6.75-29.05z" fill="#5d5d5d"/><path d="m268.22 445.64 2.42 13.92s-17 2.55-15.06 16.05h46.57a4 4 0 0 0 3.86-4.87l-6.82-29.36z" fill="#5d5d5d"/><path d="m178.64 158.73s4.18-6.91 4.57-12.78-3.65-12.78-3.65-12.78 7.09-22 3.67-24.26-9 19.82-9 19.82.91-21.51-2.74-21-4.3 21.38-4.3 21.38a5.16 5.16 0 0 0 -5.42 6.52 6.18 6.18 0 0 0 -3.92 1.81c-2.21 2.49-1.1 6.71.34 11.88 1.36 4.88 2 7.31 3.7 8.87 3.62 3.43 10.26 3.32 16.75.54z" fill="#d89071"/><path d="m172.67 149.47a.25.25 0 0 1 -.2-.3c.42-2.11 2.57-5.47 3.41-6.72a14.27 14.27 0 0 1 -5.53-.56c-2.09-.61-3.5-1.68-3.76-2.87a1.48 1.48 0 0 1 .45-1.47 5.13 5.13 0 0 1 2.45-.63c1.49-.17 3.34-.39 4.17-1.44 1.52-1.93 5.73-2.54 5.91-2.56a.25.25 0 0 1 .07.5s-4.19.6-5.59 2.37c-1 1.21-2.92 1.44-4.51 1.63a5.06 5.06 0 0 0 -2.17.51 1 1 0 0 0 -.29 1c.08.38.58 1.67 3.41 2.5a12.7 12.7 0 0 0 5.86.46.25.25 0 0 1 .27.11.28.28 0 0 1 0 .28s-3.16 4.53-3.66 7a.25.25 0 0 1 -.29.19z"/><path d="m173.15 136.47a.25.25 0 0 1 -.19-.09l-6-7.09a.25.25 0 1 1 .38-.33l6 7.09a.25.25 0 0 1 0 .36.23.23 0 0 1 -.19.06z"/><path d="m166.75 138.27a.2.2 0 0 1 -.11 0l-5-2.39a.25.25 0 1 1 .21-.45l5 2.39a.24.24 0 0 1 .12.33.24.24 0 0 1 -.22.12z"/><path d="m327.85 131.81a20.09 20.09 0 0 0 -5 3.36 20.87 20.87 0 0 0 -6.1 10.51 15.42 15.42 0 0 0 -3.81-9.75 15.19 15.19 0 0 0 -7.46-4.57 14.41 14.41 0 0 0 6.85-2.9 14.94 14.94 0 0 0 5.34-9.14 13.07 13.07 0 0 0 2.28 7.16 13.44 13.44 0 0 0 7.9 5.33z" fill="#ffb833"/><path d="m369.65 251.06a19.87 19.87 0 0 0 -5 3.35 20.91 20.91 0 0 0 -6.09 10.51 15.54 15.54 0 0 0 -3.81-9.75 15.32 15.32 0 0 0 -7.47-4.57 14.47 14.47 0 0 0 6.86-2.9 14.89 14.89 0 0 0 5.33-9.14 13.2 13.2 0 0 0 2.29 7.16 13.44 13.44 0 0 0 7.89 5.34z" fill="#ffb833"/><path d="m138 272.68a26.19 26.19 0 0 0 -6.57 4.38 27.35 27.35 0 0 0 -8 13.75 20.22 20.22 0 0 0 -5-12.75 20 20 0 0 0 -9.77-6 18.87 18.87 0 0 0 9-3.78 19.46 19.46 0 0 0 7-12 17.32 17.32 0 0 0 3 9.37 17.65 17.65 0 0 0 10.34 7.03z" fill="#ffb833"/><path d="m189.2 264.84s-21.82 79.09-19.95 109.08 19.39 81.53 19.39 81.53 22.32 7 39.65-3.28c0 0-13.12-85.28-10.77-94.65s26.72-76.85 26.72-76.85z" fill="#383333"/><path d="m282.83 268.66s7.8 32.16 4.51 53.72 16.39 123.23 16.39 123.23a79.75 79.75 0 0 1 -10.3 4 82.62 82.62 0 0 1 -30.77 3.39 452.36 452.36 0 0 1 -17.5-53.41 434.41 434.41 0 0 1 -12.85-75.78 407.27 407.27 0 0 1 -.94-43.11z" fill="#383333"/><rect fill="#383333" height="48.13" rx="3.77" transform="matrix(.841 .541 -.541 .841 286.83 -174.9)" width="7.54" x="437.04" y="376.21"/><path d="m219.19 147.34s-19.85 1.55-32 11-32.34 58.83-32.34 58.83l18.21 11.59 32.84-30.86s25.3-30.36 13.29-50.56z" fill="#fff3e3"/><path d="m285.06 89.27a9.23 9.23 0 0 1 7-2.26 7.11 7.11 0 0 1 4.1 1.81c3.6 3.78 1.5 15-5.25 17.46-3.77 1.4-7.58-.42-8.86-1.11q1.51-7.95 3.01-15.9z" fill="#d17352"/><path d="m288.49 102.65a.25.25 0 0 1 -.19-.09.24.24 0 0 1 0-.35c1.61-1.39 2.39-2.85 2.32-4.36-.13-2.62-2.8-4.53-2.82-4.55a.23.23 0 0 1 -.09-.29.24.24 0 0 1 .26-.16l6.33.65a.26.26 0 0 1 .22.28.25.25 0 0 1 -.28.22l-5.5-.57a6.74 6.74 0 0 1 2.37 4.39c.08 1.67-.75 3.27-2.48 4.76a.23.23 0 0 1 -.14.07z"/><path d="m203.53 87.56a9.23 9.23 0 0 0 -6.89-2.56 7.08 7.08 0 0 0 -4.17 1.65c-3.75 3.63-2.1 14.87 4.54 17.65 3.71 1.55 7.59-.11 8.9-.75q-1.18-7.98-2.38-15.99z" fill="#d17352"/><path d="m199.57 100.79a.23.23 0 0 1 -.17-.07c-1.67-1.56-2.44-3.19-2.29-4.86a6.74 6.74 0 0 1 2.55-4.29l-5.53.35a.25.25 0 0 1 0-.5l6.35-.4a.24.24 0 0 1 .26.17.26.26 0 0 1 -.11.29s-2.77 1.82-3 4.43c-.13 1.5.59 3 2.14 4.45a.24.24 0 0 1 0 .35.23.23 0 0 1 -.2.08z"/><path d="m255.51 121.52c-1.37 5.21-2.39 12.66.81 19.74 5.14 11.35 15.85 10.13 23.92 18.5 13.19 13.69 2.74 35.8 1.85 80.73a304.47 304.47 0 0 0 1.76 39.33 122.64 122.64 0 0 1 -36.61 10.61 125.24 125.24 0 0 1 -61.33-7.9 269.47 269.47 0 0 0 5.91-42.68c.5-8.46.47-15.15.41-28.18-.21-42.73-2.69-49.41 3.53-56.13 8.82-9.53 21.25-4.11 28.92-15.09 4.74-6.81 4.47-15.33 3.4-21.69a23.09 23.09 0 0 1 10-3.17c9.22-.71 15.85 4.59 17.43 5.93z" fill="#d89071"/><path d="m255 137.6a39.14 39.14 0 0 1 -28-1.46l1.59-10.65 25.9 1.54z" fill="#d17352"/><circle cx="243.99" cy="83.59" fill="#d89071" r="45.36"/><path d="m289.1 88.42c-3.1 21.58-16.27 38.86-34.05 44.14a42.46 42.46 0 0 1 -27.05-1.12c-16.58-6.54-27.94-23.8-29.34-44.38-.03 0 57.69-38.95 90.44 1.36z" fill="#d89071"/><path d="m215.16 81.57a13.94 13.94 0 0 1 7.92-2.74c1.93-.08 4.55-.19 5.38 1.32a2.13 2.13 0 0 1 0 2.14c-.89 1.23-3.19.17-6.88.2-4.85 0-8 1.93-8.31 1.24-.27-.5 1.29-1.73 1.89-2.16z" fill="#383333"/><path d="m271 83.77a13.79 13.79 0 0 0 -7.54-3.63c-1.92-.31-4.51-.71-5.51.68a2.14 2.14 0 0 0 -.22 2.13c.73 1.33 3.14.54 6.8 1 4.82.6 7.71 2.84 8.12 2.19.35-.48-1.07-1.84-1.65-2.37z" fill="#383333"/><path d="m243.62 101.47c-2.07 0-4.83-.24-5.32-1.48-.64-1.63 2.34-8.36 2.94-9.7a.5.5 0 0 1 .66-.25.51.51 0 0 1 .25.67c-1.69 3.73-3.24 8.09-2.92 8.91s3.45 1 6.23.79a.48.48 0 0 1 .53.46.5.5 0 0 1 -.47.54c-.42.02-1.11.06-1.9.06z"/><path d="m241.43 116a6.56 6.56 0 0 1 -3.12-.71.26.26 0 0 1 -.1-.34.25.25 0 0 1 .34-.1c2.31 1.25 5.34.31 5.37.3a.25.25 0 0 1 .31.16.26.26 0 0 1 -.16.32 9.87 9.87 0 0 1 -2.64.37z"/><ellipse cx="219.42" cy="106.04" fill="#d17352" rx="5.38" ry="3.35"/><ellipse cx="269.05" cy="106.04" fill="#d17352" rx="5.38" ry="3.35"/><circle cx="262.12" cy="95.12" fill="#fff" r="6.04"/><circle cx="261.43" cy="94.92" fill="#383333" r="4.31"/><circle cx="260.3" cy="92.59" fill="#fff" r="1.26"/><circle cx="222.8" cy="93.94" fill="#fff" r="6.04"/><circle cx="223.5" cy="93.82" fill="#383333" r="4.31"/><circle cx="224.89" cy="91.64" fill="#fff" r="1.26"/><path d="m282.09 240.49a147.52 147.52 0 0 0 .4 22.83 129.69 129.69 0 0 0 2.77 16.1 62.54 62.54 0 0 1 -18.54 13.2c-18.84 8.71-37 5.25-48.5 3.05a109.77 109.77 0 0 1 -34-12.65 211.53 211.53 0 0 0 7.57-43.17c.56-7.94.47-16.53.41-28.18-.21-42.73-2.69-49.41 3.53-56.13s14-6 20.74-8.71c2 2 7.18 5.68 19.89 7.75a48.36 48.36 0 0 0 28.8-4c4.84 2.71 10.39 4.35 15.05 9.18 13.22 13.69 2.79 35.8 1.88 80.73z" fill="#fff3e3"/><path d="m270.66 153.31a47 47 0 0 1 30 29.69c8.06 23.89 15.51 54 15.51 54l-22.75 5.58s-19.6-37.58-25.27-56.16-7.62-25.27 2.51-33.11z" fill="#d89071"/><path d="m270.66 153.31a47 47 0 0 1 30 29.69c3.93 11.65 7.71 24.76 10.56 35.15-4.45 3.33-12.31 7.56-25.16 9.81-6.17-12.59-14.51-30.43-17.9-41.54-5.68-18.62-7.63-25.27 2.5-33.11z" fill="#fff3e3"/><path d="m234.23 269.77s-12.34 10.53-11.68 12.09 4.77 2.53 7.07 1.72 7.41-5.75 7.41-5.75z" fill="#b5725b"/><path d="m178.62 158.83a131.35 131.35 0 0 0 -1.19 31.73c.78 9.15 2.71 19.66-1.41 32-1.37 4.1-3.1 7.49-6.43 9.13-6 3-13.66-1.54-15-2.43-15.79-10.36 3.21-68.61 6.28-77.83z" fill="#d89071"/><path d="m244.24 259.3c14.38-9.23 59.88-37.62 68.59-28.63a14.88 14.88 0 0 1 3.83 9.44c0 5.4-3.57 9.38-5.23 11.23-7 7.7-28.76 15.21-58.3 19.51z" fill="#d89071"/><path d="m249.14 106.81-14.8-.77a6.89 6.89 0 0 0 .77 3.71 7.44 7.44 0 0 0 7.12 3.61 8.06 8.06 0 0 0 6.91-6.55z" fill="#fff"/><path d="m289.22 234.45a.25.25 0 0 1 -.23-.16.24.24 0 0 1 .14-.32 34 34 0 0 1 8.32-2.06 35.17 35.17 0 0 1 16.1 2 .25.25 0 0 1 .15.32.24.24 0 0 1 -.32.15 33.82 33.82 0 0 0 -24.07.07.15.15 0 0 1 -.09 0z"/><path d="m93.09 463-7.7-6.25 152.77-188.14h2.33c2.06 0 50.09-.15 70.29 24.59 8 9.87 10.57 22.15 7.5 36.51-10.48 49.08-8.25 82.18 6.63 98.37 8.79 9.57 22.61 13.23 41.07 10.9l1.24 9.84c-21.83 2.77-38.52-2-49.61-14-17.18-18.69-20.22-54.74-9-107.15 2.45-11.43.65-20.65-5.49-28.17-15-18.34-50.82-20.62-60.23-20.91z" fill="#ff832f"/><path d="m122.24 474.59h-59.54c-5.21 0-7.59-4.95-5.53-10.45l.27-.72c1.82-4.85 6.56-8.42 10.83-8.42h48.4c4.24 0 9 3.58 10.83 8.43l.27.72c2.06 5.49-.31 10.44-5.53 10.44z" fill="#ff1a26"/><path d="m245.49 50.42s-13.1 18-17.67 19.72-16.29 1.52-19.57 2.61-4.77 21.81-7.78 22.17-3.18-22.25-3.18-22.25-6.69.08-1.85-14.13 35.45-36.91 58.73-21.24c0 0 22-.63 31.87 12.49s14.21 28 6.24 29c0 0-2.28 15.86-4.57 16.94s-4-19.07-4-19.07-25-5-30.3-9.84-7.92-16.4-7.92-16.4z" fill="#383333"/><g clip-path="url(#clip-path)"><path d="m368 395.17s-40.06 36.1-37.58 56.87 116.21 22 122.64 12-4-56-23.24-68.87-47.51-8.41-61.82 0z" fill="#ff1a26"/><path d="m462.42 425.34c-18.71 1.73-39.05 2.85-60.82 3-24.43.12-47.11-1.05-67.75-3v-12.86a509.34 509.34 0 0 0 75.66 3.95 507.06 507.06 0 0 0 52.91-3.95z" fill="#ff832f"/></g><circle cx="352.64" cy="463.58" fill="#383333" r="11.87"/><circle cx="426.63" cy="464.05" fill="#383333" r="17.95"/><circle cx="352.64" cy="463.1" fill="#5d5d5d" r="5.81"/><circle cx="426.63" cy="463.58" fill="#5d5d5d" r="8.73"/><path d="m250.28 255.49a44.23 44.23 0 0 0 -6 3.39c-4.24 2.85-8.76 6-11.45 11.54-2.42 5-1.87 9.63-1.14 15.65.4 3.37 1.2 10 4.6 11.08a3.21 3.21 0 0 0 2.77-.3c1.39-1.14.66-3.92.66-3.92a3.84 3.84 0 0 0 3.77 1c2-.76 1.34-5 1.34-5s2.49 1.47 3.54-.12.8-5.17.8-5.17 1.09 1.21 2.68-.32.88-7.84 2.23-10.34 13.46-4.5 13.46-4.5l-7.39-9.79z" fill="#d89071"/><path d="m192.23 212.17a.5.5 0 0 1 -.5-.46c-2.4-30.81-.55-44.68-.53-44.82a.51.51 0 0 1 .57-.42.49.49 0 0 1 .42.56c0 .14-1.86 13.92.54 44.6a.5.5 0 0 1 -.46.54z"/><path d="m282 220.15a.49.49 0 0 1 -.44-.26c-14.49-27.36-14.56-44.89-14.56-45.07a.5.5 0 0 1 .5-.5.5.5 0 0 1 .5.5c0 .17.13 17.49 14.53 44.6a.5.5 0 0 1 -.21.68.46.46 0 0 1 -.32.05z"/><path d="m239.69 293.18a.26.26 0 0 1 -.24-.18c-.86-2.64-1.55-6.11-1.56-6.15a.25.25 0 0 1 .49-.1s.7 3.49 1.55 6.1a.26.26 0 0 1 -.16.32z"/><path d="m244.8 289.12a.25.25 0 0 1 -.24-.17l-1.56-4.58a.23.23 0 0 1 .15-.31.24.24 0 0 1 .32.15l1.56 4.58a.26.26 0 0 1 -.16.32z"/><path d="m249.14 283.83a.26.26 0 0 1 -.25-.21l-.69-4.31a.24.24 0 0 1 .2-.28.25.25 0 0 1 .29.2l.7 4.31a.25.25 0 0 1 -.21.28z"/><g fill="#fff"><path d="m212.26 64.13a.25.25 0 0 1 0-.49c12.73-2.44 20.32-14.87 20.4-15a.24.24 0 0 1 .34-.08.25.25 0 0 1 .09.34c-.08.13-7.78 12.74-20.74 15.23z"/><path d="m204.7 56.58a.24.24 0 0 1 -.25-.22.25.25 0 0 1 .21-.28c11.13-1.46 19.87-10.52 20-10.61a.25.25 0 0 1 .35 0 .25.25 0 0 1 0 .36c-.09.09-8.94 9.27-20.25 10.76z"/><path d="m276.93 70.39c-17.55-2.15-25.3-21.33-25.38-21.53a.25.25 0 0 1 .15-.32.24.24 0 0 1 .32.14c.07.19 7.72 19.1 25 21.22a.25.25 0 0 1 0 .49z"/><path d="m289.35 67.62c-12.39-2-23.66-16.33-23.78-16.47a.25.25 0 0 1 .4-.31c.11.15 11.27 14.35 23.45 16.29a.25.25 0 0 1 0 .5z"/></g></g></svg>