<svg height="512" viewBox="0 0 512 512" width="512" xmlns="http://www.w3.org/2000/svg"><g id="Coffee_Time" data-name="Coffee Time"><path d="m372.83 191.54a21.63 21.63 0 0 1 5.49 3.66 22.86 22.86 0 0 1 6.68 11.5 16.87 16.87 0 0 1 4.15-10.7 16.67 16.67 0 0 1 8.17-5 15.8 15.8 0 0 1 -7.5-3.17 16.28 16.28 0 0 1 -5.83-10 14.41 14.41 0 0 1 -2.5 7.83 14.71 14.71 0 0 1 -8.66 5.88z" fill="#ffb833"/><path d="m164.67 221.91a21.63 21.63 0 0 1 5.49 3.66 22.93 22.93 0 0 1 6.67 11.5 16.87 16.87 0 0 1 4.17-10.66 16.67 16.67 0 0 1 8.17-5 15.8 15.8 0 0 1 -7.5-3.17 16.28 16.28 0 0 1 -5.83-10 14.41 14.41 0 0 1 -2.5 7.83 14.71 14.71 0 0 1 -8.67 5.84z" fill="#ffb833"/><path d="m148.65 129a28.36 28.36 0 0 1 7.19 4.79 30 30 0 0 1 8.72 15 21.55 21.55 0 0 1 16.12-20.49 20.51 20.51 0 0 1 -9.8-4.14 21.3 21.3 0 0 1 -7.63-13.07 18.88 18.88 0 0 1 -3.25 10.3 19.29 19.29 0 0 1 -11.35 7.61z" fill="#ffb833"/><path d="m322 222.1s42.56 6.36 59.83 25.8 38.87 117.33 38.87 117.33l-43.56 14.23-29-72.54s-42.77-60.92-26.14-84.82z" fill="#ff1a26"/><path d="m262 186.71s5.69 26.45-4.79 40.49-35.44 11.34-45.9 34 19.1 111.22 0 203c0 0 87.79 37.8 176.33 0 0 0-15.65-98.25-12.42-145.76s-1.08-68-10.25-79.9-42.65-15.66-48.59-17.82-3.81-34-3.81-34-26.17-12.97-50.57-.01z" fill="#ffb08d"/><path d="m263.43 199.27s21.4 23.11 50.74 18.68l-1.65-20.08-44.42-5.58z" fill="#ff8c5f"/><circle cx="291.1" cy="119.43" fill="#ffb08d" r="79.84"/><path d="m370.49 127.92c.42 34.71-16.19 64.61-42.28 76.28-23.51 10.5-46.4 2.49-53.52 0-48.55-17-62.16-73-63.43-78.67 0 0 101.58-68.53 159.23 2.39z" fill="#ffb08d"/><path d="m260.09 118.62a24.31 24.31 0 0 1 13.91-4.82c3.41-.14 8-.34 9.48 2.31a3.72 3.72 0 0 1 0 3.76c-1.56 2.17-5.61.31-12.1.36-8.55.07-14.05 3.4-14.63 2.19-.43-.88 2.25-2.98 3.34-3.8z" fill="#383333"/><path d="m358.43 118.32a24.34 24.34 0 0 0 -13.28-6.39c-3.37-.53-7.93-1.25-9.69 1.21a3.74 3.74 0 0 0 -.4 3.74c1.3 2.34 5.53 1 12 1.74 8.48 1 13.56 5 14.28 3.86.5-.83-1.95-3.22-2.91-4.16z" fill="#383333"/><path d="m309.88 145.36c-1.4 0-2.64-.07-3.38-.12a.74.74 0 0 1 -.7-.79.74.74 0 0 1 .8-.7c4.92.32 10.56-.14 11.08-1.47.65-1.63-2.61-10.22-5.13-15.8a.74.74 0 0 1 .37-1 .75.75 0 0 1 1 .38c1.06 2.34 6.28 14.15 5.17 17-.85 2.08-5.61 2.5-9.21 2.5z"/><path d="m312.91 177.39a11.62 11.62 0 0 1 -5.52-1.26.5.5 0 0 1 .48-.88c4.05 2.19 9.34.54 9.4.53a.49.49 0 0 1 .62.32.5.5 0 0 1 -.32.63 17.09 17.09 0 0 1 -4.66.66z"/><ellipse cx="266.17" cy="150.26" fill="#ff8c5f" rx="9.47" ry="5.9"/><ellipse cx="354.93" cy="150.26" fill="#ff8c5f" rx="9.47" ry="5.9"/><path d="m244.34 125.53c-.86-.81-5.54-5.07-12.12-4.47-1 .09-4.8.43-7.35 2.9-6.6 6.39-3.69 26.17 8 31.06 6.53 2.74 13.36-.19 15.67-1.31q-2.11-14.08-4.2-28.18z" fill="#ffb08d"/><path d="m237.38 148.87a.51.51 0 0 1 -.35-.13c-2.95-2.76-4.32-5.65-4.05-8.6.3-3.47 2.78-6.12 4.36-7.48l-9.53.6a.51.51 0 0 1 -.54-.47.52.52 0 0 1 .47-.53l11.18-.71a.52.52 0 0 1 .51.35.5.5 0 0 1 -.21.57c-.05 0-4.85 3.2-5.25 7.76-.23 2.62 1 5.24 3.75 7.77a.5.5 0 0 1 0 .71.48.48 0 0 1 -.34.16z"/><path d="m240.94 238.09a88.92 88.92 0 0 0 -38 24.74c-16.47 18.63-43.55 107.44-43.55 107.44l40.76 15.11s31.22-46.11 44.18-84.6-3.39-62.69-3.39-62.69z" fill="#ff1a26"/><path d="m118.19 274.66c3.35 16.52 24.52 117 61.14 119.39 6.1.4 15.8-1.88 20.75-8.58 11.48-15.56-8.52-47.43-11.16-51.65-5.59-8.91-8.91-11.14-15.39-19.16-8.73-10.82-19.62-27.73-27.26-53.45z" fill="#ffb08d"/><path d="m337.11 64.7c12.34 9.58 4.78 27.1 14 37.52 4.19 4.71 13 9.29 33.92 5.92 0 0-10.62-10.09-10.62-20s-11.4-65.53-74.35-50.77c0 0-37.43-15.68-72.33 2.24s-30.21 55.34-25.53 63.26c0 0-16.91 72.62 61.19 96.42a36.88 36.88 0 0 0 -7.21-16.16c-2.3-2.89-3.77-3.77-5.58-5.94-3.11-3.74-6.27-10.21-5.66-22-1.65.32-11.23 2.67-17.21-3.65-7.18-7.6-8.87-21.89-2.9-27.52s17.16.82 18.24 2.74 1.5 12.62 5.42 13.64-.95-33.89 1.57-38.75 23 5.43 31.32-5.83 3.17-27.82 9.46-36.46 20.05 5.13 20.05 5.13a22.57 22.57 0 0 1 14.31-4.32 23.37 23.37 0 0 1 11.91 4.53z" fill="#383333"/><path d="m264.5 136.91a25.22 25.22 0 0 1 25.24 0 15.4 15.4 0 0 0 -14.05-6.86c-3.47.31-7.31 2.16-11.19 6.86z" fill="#383333"/><path d="m354.93 136.91a25.22 25.22 0 0 0 -25.24 0 15.4 15.4 0 0 1 14.05-6.86c3.48.31 7.31 2.16 11.19 6.86z" fill="#383333"/><path d="m296.86 161.79a63.21 63.21 0 0 0 31.33 0 17.42 17.42 0 0 1 -31.33 0z" fill="#fff"/><path d="m211.26 261.21c-10.46 22.68 19.1 111.22 0 203 0 0 87.79 37.8 176.33 0 0 0-15.65-98.25-12.42-145.76s-1.08-68-10.25-79.9c-7-9-27.92-13.36-40.21-15.88-4 5.4-14.1 14.68-37.53 19.12s-36-1.64-41.44-5.88c-11.74 5.77-26.92 8.9-34.48 25.3z" fill="#ff1a26"/><path d="m145.24 268.32s2.89-9.88 1.53-18.23.56-17.2.37-22.83-7-3.57-10.42 7.33c0 0-5.45-25.55-10-25.73s-1.53 22.83-1.53 22.83-12.1-24.36-16-22.83 3.75 25.56 3.75 25.56-14.31-15-18.23-12.95 10.22 21.64 10.22 21.64-9-6-13.29-3.58 10.06 11.41 12.61 15.5 6.3 17.57 14.82 19.69 18.16.07 26.17-6.4z" fill="#ffb08d"/><path d="m231.74 179.65s-19.43-4.63-24 11.3 7 20.41 20.24 21.81 5.94 8.15 1.89 16.52 6 19.86 17 16 9.47 19.9 9.47 19.9h8.32s-3.47-11.11 4.61-19.06.62-17.86-12.93-20.05 3.24-6.24 6.46-21.09-4.57-24.83-15.93-21.32-5.41.9-15.13-4.01z" fill="#fff3e3"/><path d="m289.16 324.65a3.24 3.24 0 0 1 -2.71 3.05 141.71 141.71 0 0 1 -45.87 0 3.24 3.24 0 0 1 -2.71-3.05q-1.67-34.78-3.32-69.57a3.25 3.25 0 0 1 3.24-3.4h51.45a3.25 3.25 0 0 1 3.24 3.4z" fill="#ffb833"/><path d="m297.94 306.41h-15.14a10.19 10.19 0 0 1 -10.18-10.17v-19.12a10.2 10.2 0 0 1 10.18-10.18h15.14a10.19 10.19 0 0 1 10.17 10.18v19.12a10.18 10.18 0 0 1 -10.17 10.17zm-15.14-33a3.7 3.7 0 0 0 -3.7 3.7v19.12a3.7 3.7 0 0 0 3.7 3.7h15.14a3.7 3.7 0 0 0 3.7-3.7v-19.11a3.7 3.7 0 0 0 -3.7-3.7z" fill="#ffb833"/><path d="m321.46 277.68c27.32 24.91 49.82 40.81 66.67 51.29 8.33 5.18 28.91 17.51 32.57 36.26 1.15 5.85.15 9.36-.89 11.44-4.76 9.49-19.64 10.52-24.66 10.87-33.15 2.31-73.25-69.37-76.66-75.54z" fill="#ffb08d"/><path d="m321.72 277.68c-2.44-1.71-11.42-7.85-18.08-8-2.65-.08-3.72.83-4.05 1.15-2 1.91-1.15 5.47-1 6 0 0-3.5 2.29-1.5 7.58 0 0-3.58 2.11 0 6.48a4.2 4.2 0 0 0 -2.74 4.58c.4 3.57 5.26 14.68 14.56 20.11s23.45 0 23.45 0-1.65-29.58-10.64-37.9z" fill="#ffb08d"/><g fill="#fff"><path d="m254.62 91.32c-.61 0-1.24 0-1.9-.07a.51.51 0 0 1 -.46-.54.5.5 0 0 1 .54-.46c13.84 1.07 16.52-9.76 19.1-20.23 1.58-6.43 3.08-12.5 7.16-15.32 10.51-7.23 22.24-2.12 22.36-2.07a.51.51 0 0 1 .25.66.5.5 0 0 1 -.66.26c-.11 0-11.35-4.93-21.38 2-3.77 2.59-5.22 8.49-6.76 14.73-2.44 9.88-5.2 21.04-18.25 21.04z"/><path d="m370.55 101.07c-11.18 0-15.34-12.52-19-23.63-2.59-7.81-5-15.18-9.47-17.89-11.11-6.81-25.95-1.81-26.1-1.76a.5.5 0 0 1 -.63-.31.49.49 0 0 1 .3-.63c.16-.06 15.43-5.22 26.95 1.84 4.75 2.91 7.25 10.45 9.9 18.43 3.91 11.77 8 23.93 19.42 22.89a.5.5 0 0 1 .09 1c-.52.04-1.01.06-1.46.06z"/><path d="m219.69 96.26a.5.5 0 0 1 0-1c21.9-.42 34.51-31.16 34.64-31.47a.51.51 0 0 1 .65-.28.51.51 0 0 1 .28.66c-.13.31-13 31.66-35.55 32.09z"/><path d="m209 87.6a.49.49 0 0 1 -.49-.4.5.5 0 0 1 .39-.59c27.81-5.55 39.1-32.89 39.21-33.17a.51.51 0 0 1 .65-.27.5.5 0 0 1 .28.65c-.11.28-11.61 28.12-40 33.77z"/><path d="m224 160.49a.51.51 0 0 1 -.34-.14c-16-14.62-8.31-39.25-8.23-39.5a.49.49 0 0 1 .62-.32.49.49 0 0 1 .33.62c-.08.25-7.54 24.28 8 38.47a.5.5 0 0 1 -.34.87z"/><path d="m354.93 58.45a.51.51 0 0 1 -.4-.2c-13.12-17-38.33-9.08-38.59-9a.5.5 0 1 1 -.31-1c.26-.09 26.14-8.28 39.7 9.35a.51.51 0 0 1 -.1.7.47.47 0 0 1 -.3.15z"/></g><path d="m111.31 249.72a.23.23 0 0 1 -.16-.06.25.25 0 0 1 0-.36c.09-.1 9-10 19.19-11.46a.25.25 0 0 1 .28.21.26.26 0 0 1 -.21.29c-10 1.41-18.79 11.2-18.88 11.3a.27.27 0 0 1 -.22.08z"/><path d="m134.12 249.72a.26.26 0 0 1 -.24-.19 23.24 23.24 0 0 1 2.62-15.06.25.25 0 0 1 .44.24 22.86 22.86 0 0 0 -2.58 14.7.24.24 0 0 1 -.18.3z"/><path d="m310.57 281.26a.25.25 0 0 1 -.18-.08 17.21 17.21 0 0 0 -4.78-3.27c-2.87-1.31-7-.84-7-.84a.25.25 0 1 1 -.05-.49 15.72 15.72 0 0 1 7.26.87 17.33 17.33 0 0 1 4.94 3.38.25.25 0 0 1 0 .36.28.28 0 0 1 -.19.07z"/><path d="m306.34 288.46a.23.23 0 0 1 -.18-.09c-4.26-4.68-9-3.74-9-3.72a.26.26 0 0 1 -.3-.2.25.25 0 0 1 .19-.29c.05 0 5.05-1 9.51 3.88a.25.25 0 0 1 0 .35.28.28 0 0 1 -.22.07z"/><path d="m304.57 296.82a.25.25 0 0 1 -.2-.1c-3.46-4.71-7.33-5.58-7.37-5.59a.25.25 0 0 1 -.19-.3.24.24 0 0 1 .29-.19c.17 0 4.09.91 7.67 5.79a.25.25 0 0 1 0 .35.26.26 0 0 1 -.2.04z"/><path d="m216.29 357.39a.49.49 0 0 1 -.49-.41c-12.81-73.51-7.24-87-7-87.54a.49.49 0 0 1 .66-.25.5.5 0 0 1 .25.66c-.06.13-5.64 14.06 7.07 87a.51.51 0 0 1 -.41.58z"/><path d="m376.22 321.73a.49.49 0 0 1 -.46-.53 268.61 268.61 0 0 0 0-34.4 266.14 266.14 0 0 0 -4.59-35 .5.5 0 0 1 .4-.59.49.49 0 0 1 .58.39 266.75 266.75 0 0 1 4.56 69.69.49.49 0 0 1 -.49.44z"/></g></svg>