<svg height="512" viewBox="0 0 512 512" width="512" xmlns="http://www.w3.org/2000/svg"><g id="Cooking"><path d="m306.27 202a21.46 21.46 0 0 1 5.4 3.6 22.44 22.44 0 0 1 6.54 11.29 16.66 16.66 0 0 1 4.09-10.47 16.48 16.48 0 0 1 8-4.91 15.39 15.39 0 0 1 -7.36-3.11 16 16 0 0 1 -5.73-9.81 14.22 14.22 0 0 1 -2.45 7.69 14.42 14.42 0 0 1 -8.49 5.72z" fill="#ffb833"/><path d="m96.41 114.36a21.43 21.43 0 0 1 5.39 3.6 22.47 22.47 0 0 1 6.55 11.29 16.2 16.2 0 0 1 12.1-15.38 15.43 15.43 0 0 1 -7.36-3.11 15.91 15.91 0 0 1 -5.72-9.81 14.17 14.17 0 0 1 -2.46 7.69 14.43 14.43 0 0 1 -8.5 5.72z" fill="#ffb833"/><path d="m124.85 223.8a28.19 28.19 0 0 1 7.06 4.71 29.37 29.37 0 0 1 8.55 14.76 21.76 21.76 0 0 1 5.35-13.69 21.49 21.49 0 0 1 10.49-6.42 20.26 20.26 0 0 1 -9.63-4.07 20.92 20.92 0 0 1 -7.49-12.83 18.49 18.49 0 0 1 -3.18 10.05 18.91 18.91 0 0 1 -11.15 7.49z" fill="#ffb833"/><path d="m275.35 233s34 2.64 54.79 18.9 55.39 100.75 55.39 100.75l-31.19 19.85-56.24-52.86s-43.32-52.06-22.75-86.64z" fill="#fff3e3"/><path d="m346 261c-.38-2.47-.87-6-1.34-10.2-.9-8.12-1.63-14.68-1.46-22.13.2-8.55 1.33-7.29 3.31-24.52 1.22-10.54 1.3-15.42 2.79-15.63 1-.15 2.71 1.77 5.85 11.38l15.59 1.58s6.78 15.66 4.4 23.21 2.38 22.23 2.38 22.23z" fill="#d89071"/><path d="m162.54 133.52c-.86-.75-5.58-4.71-12-3.87-.93.12-4.65.61-7 3.11-6.17 6.48-2.56 25.59 9 29.89 6.45 2.4 13-.71 15.18-1.89q-2.59-13.62-5.18-27.24z" fill="#d17352"/><path d="m156.66 156.5a.49.49 0 0 1 -.32-.12c-3-2.57-4.43-5.33-4.29-8.21.16-3.37 2.43-6 3.93-7.43l-9.21 1a.5.5 0 0 1 -.55-.45.49.49 0 0 1 .44-.54l10.84-1.13a.5.5 0 0 1 .34.91s-4.58 3.29-4.79 7.73c-.12 2.56 1.2 5.05 3.94 7.4a.51.51 0 0 1 0 .71.52.52 0 0 1 -.33.13z"/><path d="m302.17 130.59c.84-.78 5.39-4.92 11.8-4.34.94.08 4.67.42 7.15 2.82 6.42 6.22 3.59 25.47-7.78 30.23-6.35 2.66-13-.19-15.24-1.28q2.04-13.71 4.07-27.43z" fill="#d17352"/><path d="m309 153.32a.46.46 0 0 1 -.36-.16.49.49 0 0 1 0-.7c2.64-2.47 3.87-5 3.64-7.56-.39-4.43-5.06-7.5-5.1-7.53a.52.52 0 0 1 -.21-.58.5.5 0 0 1 .51-.34l10.88.68a.5.5 0 0 1 .46.54.49.49 0 0 1 -.53.46l-9.24-.58c1.55 1.33 3.93 3.9 4.23 7.26.25 2.87-1.08 5.69-4 8.38a.48.48 0 0 1 -.28.13z"/><path d="m213.15 188.76c2.35 8.91 4.1 21.67-1.39 33.8-8.79 19.44-27.15 17.36-41 31.69-22.59 23.44-4.69 61.31-3.16 138.26a520.18 520.18 0 0 1 -3 67.37 210.37 210.37 0 0 0 62.72 18.12c47.25 6 85.27-5.75 105-13.52a463.17 463.17 0 0 1 -10.13-73.1c-.84-14.49-.8-25.95-.69-48.27.36-73.17 4.6-84.62-6-96.12-15.12-16.29-36.41-6.99-49.5-25.82-8.13-11.65-7.66-26.25-5.83-37.15a39.76 39.76 0 0 0 -17.06-5.42c-15.9-1.22-27.25 7.86-29.96 10.16z" fill="#d89071"/><path d="m214 216.29s22.5 8.85 48.06-2.5l-2.72-18.24-44.34 2.65z" fill="#d17352"/><circle cx="232.87" cy="123.8" fill="#d89071" r="77.69"/><path d="m155.62 132.07c5.25 36.88 27.87 66.55 58.32 75.6a72.76 72.76 0 0 0 46.38-1.93c28.4-11.2 47.85-40.75 50.24-76 0 0-98.84-66.74-154.94 2.33z" fill="#d89071"/><path d="m282.25 120.34a23.66 23.66 0 0 0 -13.55-4.69c-3.32-.14-7.8-.32-9.23 2.25a3.63 3.63 0 0 0 0 3.66c1.52 2.11 5.46.3 11.77.35 8.32.06 13.67 3.31 14.24 2.13.44-.86-2.19-2.9-3.23-3.7z" fill="#383333"/><path d="m186.56 124.1a23.71 23.71 0 0 1 12.93-6.22c3.27-.52 7.71-1.21 9.42 1.18a3.62 3.62 0 0 1 .4 3.64c-1.27 2.27-5.39.92-11.66 1.7-8.26 1-13.2 4.85-13.9 3.74-.51-.8 1.88-3.14 2.81-4.04z" fill="#383333"/><path d="m233.55 154.31c-1.37 0-2.56-.06-3.29-.11a.75.75 0 0 1 -.7-.8.74.74 0 0 1 .8-.69c4.78.31 10.26-.14 10.77-1.42.62-1.58-2.55-9.93-5-15.35a.75.75 0 0 1 1.37-.62c1 2.28 6.11 13.78 5 16.52-.8 2.07-5.44 2.47-8.95 2.47z"/><path d="m237.26 179.38a16 16 0 0 1 -4.54-.65.49.49 0 0 1 -.32-.63.5.5 0 0 1 .63-.32c.05 0 5.21 1.61 9.13-.51a.5.5 0 1 1 .48.88 11.31 11.31 0 0 1 -5.38 1.23z"/><ellipse cx="274.96" cy="162.25" fill="#d17352" rx="9.22" ry="5.74"/><ellipse cx="189.97" cy="162.25" fill="#d17352" rx="9.22" ry="5.74"/><circle cx="201.83" cy="143.55" fill="#fff" r="10.34"/><circle cx="203.02" cy="143.2" fill="#383333" r="7.39"/><circle cx="204.94" cy="139.21" fill="#fff" r="2.15"/><circle cx="269.18" cy="141.53" fill="#fff" r="10.34"/><circle cx="267.96" cy="141.31" fill="#383333" r="7.39"/><circle cx="265.59" cy="137.58" fill="#fff" r="2.15"/><path d="m183.68 83.56s-1.45 25-19.6 27.5a104.4 104.4 0 0 0 -1 14.92c.06 6.34-.71 12.71-.18 19 .13 1.47.46 4.87-.78 5.38-.8.33-1.92-.69-2.33-1.06-6.09-5.51-9.52-25.41-9.7-26.51-.69-4.16-1.44-8.86-2.21-14 0 0-4.92 3.22-13.24.57 0 0 9.83-7.94 10.4-16.07s-3.04-21.36 7.1-29.11 17.14-7 17.14-7 10.77-14.75 24.38-18.91 26.42 2.27 36.65-2.64 32.86-3.41 42 8.31 32.16-1.13 32.16-1.13-.52 12.37-11 17c0 0 13.82 12.86 19.39 26.85s15.77 17.39 15.77 17.39-10.59 4.53-14.74-.76c0 0-.64 38.92-5.9 43.47s-.72-25.23-7.52-42.24c0 0-25.57-4.25-37-21.83 0 0 1.89 13.32 11.52 19.84 0 0-25.82-.28-36.31-19.28s-55 .31-55 .31z" fill="#383333"/><path d="m167.63 392.51a520.18 520.18 0 0 1 -3 67.37 210.37 210.37 0 0 0 62.69 18.12c47.25 6 85.27-5.75 105-13.52a463.17 463.17 0 0 1 -10.13-73.1c-.84-14.49-.8-25.95-.69-48.27.36-73.17 4.6-84.62-6-96.12-10.5-11.27-23.91-10.3-35.5-14.88-3.38 3.42-12.3 9.72-34.06 13.27a82.78 82.78 0 0 1 -49.33-6.86c-8.29 4.64-17.79 7.45-25.78 15.73-22.63 23.44-4.73 61.31-3.2 138.26z" fill="#fff3e3"/><path d="m187.21 243.2s-37.55 9.94-51.36 50.86-26.57 92.46-26.57 92.46l39 9.56s33.55-64.29 43.26-96.18 13.01-43.27-4.33-56.7z" fill="#d89071"/><path d="m187.21 243.2s-37.55 9.94-51.36 50.86c-6.73 19.94-13.21 42.4-18.09 60.19 7.61 5.71 21.07 12.95 43.09 16.81 10.57-21.56 24.85-52.13 30.65-71.16 9.71-31.9 13.05-43.27-4.29-56.7z" fill="#fff3e3"/><path d="m344.83 252.66a225.26 225.26 0 0 1 2.05 54.34c-1.35 15.65-4.64 33.67 2.42 54.81 2.34 7 5.3 12.82 11 15.63 10.29 5.07 23.39-2.64 25.71-4.16 27-17.73-5.5-117.5-10.76-133.29z" fill="#d89071"/><path d="m177.41 247c.58 2.9 5.73 28.86 9.28 53.89a72.33 72.33 0 0 1 -.48 25.85c-.18.86-.38 1.63-.58 2.37-4.73 17.09-18.52 36.1-18.69 36.27a.67.67 0 0 0 -.2.44l-4.42 94.72a.67.67 0 0 0 .36.62c6.91 3.28 106.12 49 176-2.42a.66.66 0 0 0 .26-.64q-4.32-20.82-8.06-43.07c-4.22-25.24-7.39-49.5-9.72-72.62a111.2 111.2 0 0 1 -9.38-38.41c-.75-14-.44-61.26-.37-61.91a.63.63 0 0 0 -.44-.67l-11.32-3.85a.64.64 0 0 0 -.85.53l-8.7 66.34a.62.62 0 0 1 -.37.5 102.44 102.44 0 0 1 -45.27 9.4 101 101 0 0 1 -31-5.73.65.65 0 0 1 -.4-.41q-10.81-33.2-21.67-66.2a.64.64 0 0 0 -.86-.4z" fill="#ffb833"/><path d="m232.45 424.72c-24.62-15.8-102.54-64.43-117.47-49-1.3 1.34-6.51 7.7-6.55 16.16 0 9.25 6.1 16.06 9 19.23 11.9 13.2 49.24 26.05 99.83 33.42z" fill="#d89071"/><path d="m397.77 476.12c-11 1.19-23.07 2-36 2.12a372 372 0 0 1 -43.89-2.12 26.43 26.43 0 0 1 -15.25-4.89 26.17 26.17 0 0 1 -9.63-12.85l-2.69-7.87h129.28l-4.51 13.23a18.27 18.27 0 0 1 -17.31 12.38z" fill="#383333"/><rect fill="#383333" height="14.31" rx="6.75" transform="matrix(.975 .22 -.22 .975 104.65 -44.35)" width="99.65" x="201.2" y="439.6"/><ellipse cx="357.31" cy="450.23" fill="#aaeeea" rx="62.28" ry="7.69"/><path d="m225.2 420.36s23.09 9.66 26.94 16 3 21.82 0 23.21-6.67-4.23-6.67-4.23-.25 2.37-3.51 2.17-4.7-3.61-4.7-3.61a4.08 4.08 0 0 1 -3.6 1.49c-2.28-.3-3.86-3.46-3.86-3.46a5.42 5.42 0 0 1 -2.83.4 6.07 6.07 0 0 1 -2.12-.79c-2.47-1.56-4.26-8.28-4.86-10.07-1.91-5.78-7.4-8.67-15.08-12.72l-18.46-6.53z" fill="#d89071"/><path d="m360 258.8-2.24-.07a5.19 5.19 0 0 1 -5-5.41l5.65-127.8a5.18 5.18 0 0 1 5.36-5 5.2 5.2 0 0 1 5 5.32l-3.41 127.87a5.18 5.18 0 0 1 -5.36 5.09z" fill="#383333"/><path d="m387.37 83-43.78-1.55a6.71 6.71 0 0 0 -6.93 7.21l2.22 29.68a11.36 11.36 0 0 0 10.92 10.46l29.59 1a8.86 8.86 0 0 0 9.08-7.58l4.74-32.22a6.12 6.12 0 0 0 -5.84-7zm-33.46 29.4a2.83 2.83 0 1 1 -5.65-.2l.61-17.3a2.83 2.83 0 1 1 5.65.2zm13 .46a2.83 2.83 0 0 1 -2.92 2.73 2.84 2.84 0 0 1 -2.73-2.93l.61-17.3a2.84 2.84 0 0 1 2.93-2.73 2.83 2.83 0 0 1 2.72 2.93zm13 .46a2.83 2.83 0 1 1 -5.65-.2l.61-17.3a2.83 2.83 0 1 1 5.65.2z" fill="#383333"/><path d="m375.92 193.88s-15.86-1.15-18.36 4.42 10.95 4.32 10.95 4.32-13.06 1.92-13.35 5.47 11 3.17 11 3.17-9.9.68-11.05 4.23 10.43 3.51 10.43 3.51-9.33 3.71-9 5.84 18.06 1 20.46-2.77-1.63-4.42-1.63-4.42 7.72-5.28.59-7.2c0 0 5.75-5.86-.5-7.88-.04-.05 7.87-6.96.46-8.69z" fill="#d89071"/><path d="m224.06 163.57 25.35-1.32a11.74 11.74 0 0 1 -1.32 6.35c-2.4 4.42-7.62 6.61-12.2 6.19-5.64-.53-10.53-5.06-11.83-11.22z" fill="#fff"/><path d="m245.47 455.63h-.1a.26.26 0 0 1 -.13-.33c2.14-4.82.44-12.19.42-12.26a.25.25 0 0 1 .49-.11c.07.3 1.76 7.6-.45 12.57a.25.25 0 0 1 -.23.13z"/><path d="m237.26 454.19h-.09a.26.26 0 0 1 -.14-.33c2.28-5.57 1.5-9.25 1.49-9.28a.25.25 0 0 1 .19-.3.25.25 0 0 1 .3.19c0 .15.83 3.85-1.51 9.58a.25.25 0 0 1 -.24.14z"/><path d="m229.8 452.22a.23.23 0 0 1 -.11 0 .25.25 0 0 1 -.11-.33c2-4 .35-10.29.33-10.36a.25.25 0 0 1 .18-.3.23.23 0 0 1 .3.18c.07.26 1.69 6.55-.37 10.7a.24.24 0 0 1 -.22.11z"/><path d="m366.74 203a.25.25 0 0 1 0-.5c.26 0 6.3-.64 8.76-.19a.25.25 0 0 1 .2.29.26.26 0 0 1 -.29.2c-2.38-.43-8.56.19-8.62.2z"/><path d="m365.15 211.61a.24.24 0 0 1 -.25-.22.23.23 0 0 1 .22-.27c.07 0 7.37-.79 10.79-1a.25.25 0 0 1 0 .5c-3.4.18-10.68 1-10.76 1z"/><path d="m365.54 219.2a.25.25 0 0 1 -.06-.5c.31-.07 7.51-1.74 9.89-1.34a.25.25 0 0 1 .2.28.24.24 0 0 1 -.28.21c-2.31-.38-9.62 1.32-9.7 1.34z"/><path d="m155.41 382h-.09a57.94 57.94 0 0 0 -14.07-3.47 59.54 59.54 0 0 0 -27.25 3.31.25.25 0 0 1 -.32-.15.26.26 0 0 1 .15-.32 60.11 60.11 0 0 1 27.47-3.37 58 58 0 0 1 14.2 3.51.24.24 0 0 1 .14.32.24.24 0 0 1 -.23.17z"/><g fill="#fff"><path d="m160.71 107.17a.5.5 0 0 1 -.14-1c12-3.56 11.49-24.38 11.48-24.59a.5.5 0 0 1 .48-.52.51.51 0 0 1 .52.48 48 48 0 0 1 -1.22 11.29c-1.87 7.79-5.66 12.73-11 14.3a.32.32 0 0 1 -.12.04z"/><path d="m141.45 107.17a.5.5 0 0 1 -.49-.4.51.51 0 0 1 .39-.59 28.66 28.66 0 0 0 21.71-18.38.5.5 0 1 1 1 .28 29.67 29.67 0 0 1 -22.47 19.08z"/><path d="m263.44 96.92h-.13c-12.39-3.39-21.45-24.49-21.83-25.38a.5.5 0 1 1 .92-.39c.09.21 9.25 21.55 21.17 24.8a.5.5 0 0 1 -.13 1z"/><path d="m299.59 100.28h-.11c-20.5-4.6-33.08-32-33.21-32.27a.5.5 0 0 1 .91-.41c.13.28 12.51 27.22 32.52 31.7a.5.5 0 0 1 -.11 1z"/><path d="m306.7 91.91c-13.54 0-23.8-11.46-23.91-11.59a.48.48 0 0 1 0-.7.5.5 0 0 1 .71 0c.12.14 12.44 13.88 27.66 10.8a.5.5 0 1 1 .2 1 23.93 23.93 0 0 1 -4.66.49z"/><path d="m279.43 57.48a48.91 48.91 0 0 1 -16.18-3 .49.49 0 0 1 -.27-.65.5.5 0 0 1 .65-.28c.19.08 18.72 7.39 30.54-1.35a.5.5 0 0 1 .6.81c-4.61 3.4-10.18 4.47-15.34 4.47z"/><path d="m181.74 62.29a.49.49 0 0 1 -.44-.26.5.5 0 0 1 .2-.68c.15-.08 14.92-7.84 28.81-9.24a.5.5 0 1 1 .1 1c-13.7 1.39-28.29 9.06-28.44 9.13a.46.46 0 0 1 -.23.05z"/><path d="m250.65 60.17a.49.49 0 0 1 -.4-.2c-15.87-21.56-49.68-13.46-50-13.37a.5.5 0 0 1 -.24-1c.35-.08 34.79-8.35 51.06 13.76a.49.49 0 0 1 -.11.69.45.45 0 0 1 -.31.12z"/></g></g></svg>