<svg height="512" viewBox="0 0 512 512" width="512" xmlns="http://www.w3.org/2000/svg"><g id="Reading_Newspaper" data-name="Reading Newspaper"><path d="m306.51 212.27a21.88 21.88 0 0 1 5.47 3.64 22.79 22.79 0 0 1 6.62 11.42 16.77 16.77 0 0 1 4.14-10.59 16.52 16.52 0 0 1 8.11-5 15.61 15.61 0 0 1 -7.45-3.14 16.19 16.19 0 0 1 -5.79-9.94 14.36 14.36 0 0 1 -2.49 7.78 14.59 14.59 0 0 1 -8.61 5.83z" fill="#ffb833"/><path d="m359.57 96.55a21.67 21.67 0 0 1 5.46 3.64 22.71 22.71 0 0 1 6.62 11.42 16.83 16.83 0 0 1 4.14-10.61 16.58 16.58 0 0 1 8.12-5 15.61 15.61 0 0 1 -7.45-3.15 16.13 16.13 0 0 1 -5.8-9.93 14.32 14.32 0 0 1 -2.48 7.78 14.59 14.59 0 0 1 -8.61 5.85z" fill="#ffb833"/><path d="m87.65 118.7a28 28 0 0 1 7.15 4.76 29.78 29.78 0 0 1 8.66 14.94 22 22 0 0 1 5.41-13.86 21.71 21.71 0 0 1 10.61-6.49 20.51 20.51 0 0 1 -9.74-4.12 21.18 21.18 0 0 1 -7.58-13 18.8 18.8 0 0 1 -3.25 10.18 19.16 19.16 0 0 1 -11.26 7.59z" fill="#ffb833"/><path d="m313.36 125.76c.8-.79 5.15-5 11.46-4.59.92.06 4.59.29 7.09 2.58 6.48 5.93 4.23 24.9-6.8 29.89-6.16 2.78-12.77.17-15-.84q1.62-13.52 3.25-27.04z" fill="#ff8c5f"/><path d="m320.62 147.9a.47.47 0 0 1 -.35-.15.5.5 0 0 1 0-.71c2.52-2.48 3.65-5 3.36-7.5-.5-4.34-5.16-7.23-5.21-7.26a.51.51 0 0 1 -.22-.57.49.49 0 0 1 .5-.35l10.69.37a.5.5 0 0 1 .49.52.47.47 0 0 1 -.52.48l-9.06-.32c1.56 1.28 3.94 3.73 4.33 7 .33 2.81-.9 5.62-3.66 8.33a.47.47 0 0 1 -.35.16z"/><path d="m174.23 129.87c-.88-.71-5.62-4.46-11.86-3.47-.91.15-4.54.73-6.81 3.25-5.88 6.52-1.81 25.19 9.64 29.09 6.4 2.18 12.73-1.05 14.85-2.27z" fill="#ff8c5f"/><path d="m169.07 152.6a.5.5 0 0 1 -.32-.11c-3-2.44-4.49-5.11-4.43-8 .06-3.3 2.21-6 3.64-7.38l-9 1.18a.5.5 0 0 1 -.56-.43.51.51 0 0 1 .43-.56l10.61-1.4a.5.5 0 0 1 .37.9s-4.41 3.35-4.49 7.72c0 2.51 1.32 4.91 4.07 7.15a.5.5 0 0 1 -.32.88z"/><path d="m262.3 185.89c-2.14 8.7-3.95 22.13 2.47 34.15 10.16 19 30.11 14.2 45 28.38 23.54 22.35 4.48 63.36 4.92 142.16a484.91 484.91 0 0 0 5.17 68 213 213 0 0 1 -62.86 20.42c-47.62 7.5-86.43-3.15-106.67-10.4a467.83 467.83 0 0 0 8-74.25c.4-14.68 0-26.27-.81-48.85-2.66-74-7.31-85.45 3.1-97.42 14.77-17 36.6-8.27 49.29-27.71 7.86-12 6.93-26.79 4.73-37.75a40.18 40.18 0 0 1 17.09-6c16-1.79 27.76 7.04 30.57 9.27z" fill="#ffb08d"/><path d="m262.33 213.77s-22.48 9.66-48.68-1l2.18-18.54 44.94 1.29z" fill="#ff8c5f"/><circle cx="243.35" cy="119.67" fill="#ffb08d" r="78.62"/><path d="m321.92 122.69c-2.75 37.6-23.54 69.12-53.66 80.36-4.83 1.8-24.28 8.44-47 1.24-29.45-9.34-51.13-37.84-56-73.26.06-.03 95.26-74.18 156.66-8.34z" fill="#ffb08d"/><path d="m193.26 119.58a24.08 24.08 0 0 1 13.36-5.67c3.34-.36 7.85-.86 9.47 1.64a3.68 3.68 0 0 1 .23 3.7c-1.39 2.23-5.49.67-11.87 1.16-8.39.64-13.57 4.29-14.23 3.13-.47-.83 2.05-3.07 3.04-3.96z" fill="#c65726"/><path d="m290.13 116.78a23.92 23.92 0 0 0 -13.48-5.39c-3.34-.29-7.87-.69-9.43 1.84a3.68 3.68 0 0 0 -.15 3.7c1.44 2.21 5.51.56 11.89.91 8.41.46 13.66 4 14.29 2.83.46-.85-2.11-3.03-3.12-3.89z" fill="#c65726"/><path d="m241.64 177.38a10.87 10.87 0 0 1 -4.52-.91.51.51 0 0 1 -.25-.67.5.5 0 0 1 .67-.24c4.12 1.88 9.21-.1 9.26-.12a.51.51 0 0 1 .65.28.5.5 0 0 1 -.29.65 16.35 16.35 0 0 1 -5.52 1.01z"/><circle cx="276.05" cy="137.47" fill="#fff" r="10.46"/><circle cx="274.84" cy="137.19" fill="#383333" r="7.48"/><circle cx="272.62" cy="133.3" fill="#fff" r="2.18"/><circle cx="207.92" cy="140.07" fill="#fff" r="10.46"/><circle cx="209.13" cy="139.77" fill="#383333" r="7.48"/><circle cx="211.27" cy="135.84" fill="#fff" r="2.18"/><path d="m255 159.21a26.6 26.6 0 0 1 -25.69.42 11.9 11.9 0 0 0 1.77 6.33c2.73 4.3 8.15 6.15 12.74 5.4 5.67-.92 10.29-5.84 11.18-12.15z" fill="#fff"/><path d="m241.87 150.61a46.31 46.31 0 0 1 -5.92-.43.75.75 0 1 1 .2-1.49c4.81.65 10.37.57 11-.69.74-1.56-1.89-10.21-4-15.85a.75.75 0 1 1 1.4-.53c.89 2.37 5.23 14.33 3.94 17-.75 1.58-3.69 1.99-6.62 1.99z"/><path d="m160.61 248c-10.41 12-5.76 23.42-3.1 97.42.81 22.58 1.21 34.17.81 48.85a467.83 467.83 0 0 1 -8 74.25c20.24 7.25 59 17.9 106.67 10.4a213 213 0 0 0 62.87-20.34 484.91 484.91 0 0 1 -5.17-68c-.44-78.8 18.62-119.81-4.92-142.16-10.44-9.91-23.33-10.53-33.62-16.52-4 4.86-18 19.63-38.2 19-24.2-.71-37-21.66-37-21.66-12.5 8.01-28.63 5.33-40.34 18.76z" fill="#383333"/><path d="m76.9 201.25s73.44 7 166.38 83c0 0 106.59-67.72 189.82-78.92 0 0-55.22 103.75-63.26 130.63s19.16 99.22 19.16 99.22-154.82 21.46-176 18.24-136-40.23-136-40.23 38.66-55.79 43-64.91-21.84-107.37-43.1-147.03z" fill="#aaeeea"/><g fill="#00ccc1"><path d="m118.42 245a297.93 297.93 0 0 1 14.67 55.43 297.64 297.64 0 0 1 3.57 34.34l84.4 36.48a378.86 378.86 0 0 0 4.3-43.28 379 379 0 0 0 -.36-38.62c-12.22-6.77-25.71-13.31-40.15-20-22.26-10.35-48.85-21.46-66.43-24.35z"/><path d="m225.69 454.75h-.11a1 1 0 0 1 -.89-1.1l17.6-169.49a1 1 0 0 1 1.09-.9 1 1 0 0 1 .9 1.1l-17.6 169.49a1 1 0 0 1 -.99.9z"/><path d="m266 291.49a1 1 0 0 1 -.48-1.88c.86-.47 86.74-47 128.84-52.31a1 1 0 0 1 1.12.86 1 1 0 0 1 -.87 1.12c-41.73 5.23-127.28 51.62-128.14 52.08a.9.9 0 0 1 -.47.13z"/><path d="m267.92 307.19a1 1 0 0 1 -.5-1.87 435.36 435.36 0 0 1 119-47 1 1 0 0 1 .46 1.95 433.28 433.28 0 0 0 -118.45 46.81 1 1 0 0 1 -.51.11z"/><path d="m263.62 323.28a1 1 0 0 1 -.88-.54 1 1 0 0 1 .42-1.35 516.56 516.56 0 0 1 119-44.33 1 1 0 0 1 .47 1.95 514.73 514.73 0 0 0 -118.59 44.16 1 1 0 0 1 -.42.11z"/><path d="m260.05 343.31a1 1 0 0 1 -.51-1.86 356.54 356.54 0 0 1 116.77-43.55 1 1 0 0 1 .36 2 354.06 354.06 0 0 0 -116.12 43.3 1 1 0 0 1 -.5.11z"/><path d="m255 365.12a1 1 0 0 1 -.54-1.84 242.6 242.6 0 0 1 113.84-38.42 1 1 0 0 1 .15 2 240.72 240.72 0 0 0 -112.87 38.14 1 1 0 0 1 -.58.12z"/><path d="m252.54 383.72a1 1 0 0 1 -.88-.51 1 1 0 0 1 .39-1.36 312.8 312.8 0 0 1 107.64-36.24 1 1 0 1 1 .28 2 311.19 311.19 0 0 0 -107 36 .94.94 0 0 1 -.43.11z"/><path d="m248.6 406.61a1 1 0 0 1 -.47-1.88 300.51 300.51 0 0 1 105.87-34.09 1 1 0 1 1 .25 2 298.72 298.72 0 0 0 -105.15 33.86 1 1 0 0 1 -.5.11z"/><path d="m245.5 426.22a1 1 0 0 1 -.87-.5 1 1 0 0 1 .36-1.36 202.61 202.61 0 0 1 116.7-27.26 1 1 0 0 1 .92 1.07 1 1 0 0 1 -1.07.93 200.52 200.52 0 0 0 -115.54 27 .93.93 0 0 1 -.5.12z"/></g><path d="m385.16 331s-.53-17.5-2.28-21.45-15.69-13.42-20.47-12.06 9.33 16.69 9.33 16.69-18-13.65-21.15-10.32 15.46 18.65 15.46 18.65-13.31-10.14-15.83-8.33 10.37 15.91 10.37 15.91-13-6.67-13.94-2.73 16.07 14.1 19.25 17.89 1.59 11.17 2.61 14.61 9.67-8.39 13.31-13.25 3.59-10 3.34-15.61z" fill="#ffb08d"/><path d="m217 383.72a1 1 0 0 1 -.39-.08l-83.69-36.12a1 1 0 0 1 .79-1.84l83.69 36.12a1 1 0 0 1 -.4 1.92z" fill="#00ccc1"/><path d="m209.26 398.59a.85.85 0 0 1 -.41-.09l-80.85-37.11a1 1 0 0 1 .83-1.82l80.83 37.12a1 1 0 0 1 -.42 1.9z" fill="#00ccc1"/><path d="m203.54 412.41a.94.94 0 0 1 -.43-.1l-82.62-39.77a1 1 0 0 1 -.46-1.34 1 1 0 0 1 1.33-.47l82.64 39.78a1 1 0 0 1 -.43 1.9z" fill="#00ccc1"/><path d="m199.25 426.22a1.09 1.09 0 0 1 -.39-.08l-86.19-36.6a1 1 0 1 1 .78-1.84l86.19 36.6a1 1 0 0 1 -.39 1.92z" fill="#00ccc1"/><path d="m103.67 315.38s.53-17.5 2.27-21.45 15.69-13.42 20.47-12.05-9.33 16.68-9.33 16.68 18-13.65 21.15-10.32-15.46 18.65-15.46 18.65 13.31-10.14 15.83-8.33-10.37 15.91-10.37 15.91 13-6.67 14-2.73-16.07 14.1-19.26 17.89-1.59 11.17-2.61 14.61-9.72-8.39-13.36-13.24-3.58-10-3.33-15.62z" fill="#ffb08d"/><path d="m278.38 67.11a161.79 161.79 0 0 0 22.8 34.6 161.29 161.29 0 0 0 20.65 20.05c8.11-30.44-.08-58.5-18.48-69.27-3.87-2.27-11.49-5.7-23.38-4.87 0 0-37.29-21.46-78.32-9.66s-51.29-6.44-51.29-6.44c-.62 2-3.63 12.53 2.19 23.19a30 30 0 0 0 13.45 12.58 71.14 71.14 0 0 0 -5.37 16.8 75 75 0 0 0 4.28 40.91 149.16 149.16 0 0 1 22.54-48 108.17 108.17 0 0 0 33.75 5.71 111.55 111.55 0 0 0 57.18-15.6z" fill="#c65726"/><path d="m160.45 109s3.82 33.53 8.34 35.72-.37-27.89 10.84-55.41l-11.85 1.09z" fill="#c65726"/><path d="m303.41 104.25c8.55 10.75 11.64 20 12.79 26.87.72 4.32 1.27 11.23 2.5 11.27.83 0 1.55-3.09 2-5a226.79 226.79 0 0 0 4.3-38.63s-10.84-9.47-21.59 5.49z" fill="#c65726"/><path d="m109.48 304.11a.25.25 0 0 1 -.14-.45l7.6-5.3a.25.25 0 1 1 .29.41l-7.61 5.3a.23.23 0 0 1 -.14.04z"/><path d="m115 312.52a.26.26 0 0 1 -.21-.11.25.25 0 0 1 .06-.35l7.75-5.37a.24.24 0 0 1 .34.06.25.25 0 0 1 -.06.35l-7.74 5.37a.27.27 0 0 1 -.14.05z"/><path d="m119.85 319.4a.25.25 0 0 1 -.12-.47l8.38-4.68a.25.25 0 0 1 .34.1.26.26 0 0 1 -.1.34l-8.35 4.68a.28.28 0 0 1 -.15.03z"/><path d="m368.41 335.18a.22.22 0 0 1 -.13 0l-7.82-4.83a.26.26 0 0 1 -.08-.34.25.25 0 0 1 .35-.08l7.81 4.83a.24.24 0 0 1 .08.34.22.22 0 0 1 -.21.08z"/><path d="m373.73 327.75a.23.23 0 0 1 -.14 0l-9.23-6.13a.25.25 0 0 1 -.07-.34.25.25 0 0 1 .35-.07l9.23 6.12a.26.26 0 0 1 .07.35.26.26 0 0 1 -.21.07z"/><path d="m377.89 320a.28.28 0 0 1 -.17-.07l-6.15-5.59a.25.25 0 0 1 0-.35.26.26 0 0 1 .36 0l6.15 5.59a.24.24 0 0 1 0 .35.23.23 0 0 1 -.19.07z"/><path d="m317 104.09a.5.5 0 0 1 -.26-.08c-9.51-5.73-16.72-16.15-21.1-23.88a109.28 109.28 0 0 1 -7.27-15.54.49.49 0 0 1 .3-.64.51.51 0 0 1 .64.31c.1.28 10.07 28.12 27.95 38.9a.49.49 0 0 1 .17.68.51.51 0 0 1 -.43.25z"/><path d="m321.92 93.36a.54.54 0 0 1 -.21 0c-11.48-5.38-18.93-21-19.24-21.7a.5.5 0 0 1 .9-.42c.08.16 7.62 16 18.76 21.21a.5.5 0 0 1 .24.67.49.49 0 0 1 -.45.24z"/><path d="m225.06 71.49a105.23 105.23 0 0 1 -30.13-4.31c-16.29-4.86-25.64-12.18-25.73-12.29a.5.5 0 0 1 .62-.78c.37.29 37.18 28.89 93.91 9.89a.5.5 0 0 1 .64.32.51.51 0 0 1 -.32.63 122.54 122.54 0 0 1 -38.99 6.54z"/><path d="m238.84 61.22a142.33 142.33 0 0 1 -50.52-9.75.5.5 0 0 1 -.26-.66.51.51 0 0 1 .66-.26c.42.19 42.35 18 81.56 4.82a.49.49 0 0 1 .63.31.51.51 0 0 1 -.31.64 99.66 99.66 0 0 1 -31.76 4.9z"/><path d="m170.12 118.44a.51.51 0 0 1 -.5-.43c-3-21.08 6-36 6.11-36.14a.5.5 0 0 1 .69-.17.51.51 0 0 1 .16.69c-.09.14-8.9 14.77-6 35.48a.5.5 0 0 1 -.42.56z"/><path d="m163.25 102.32a.5.5 0 0 1 -.49-.46c-1-14.48 6.23-29.07 6.3-29.21a.49.49 0 0 1 .67-.22.5.5 0 0 1 .23.67c-.08.14-7.17 14.49-6.21 28.69a.49.49 0 0 1 -.46.53z"/><ellipse cx="280.62" cy="158.21" fill="#ff8c5f" rx="10.18" ry="5.81"/><ellipse cx="200.35" cy="158.21" fill="#ff8c5f" rx="10.18" ry="5.81"/></g></svg>