<svg height="512" viewBox="0 0 512 512" width="512" xmlns="http://www.w3.org/2000/svg"><g id="Sing"><g fill="#ff1a26"><ellipse cx="309.12" cy="203.61" rx="5.18" ry="7.76" transform="matrix(.382 -.924 .924 .382 2.83 411.47)"/><path d="m302.24 175.67h2.1v26.55h-2.1z"/><path d="m304.26 181.49a18.84 18.84 0 0 1 -7.5 1.06 5.73 5.73 0 0 0 -5 2.09.32.32 0 0 1 -.57-.24c.4-4.68 1.76-6.41 3.08-7 .94-.44 1.68-.24 3.19-.4a14.5 14.5 0 0 0 7-2.82c-.09 2.42-.15 4.87-.2 7.31z"/><ellipse cx="343.87" cy="154.16" rx="5.18" ry="7.76" transform="matrix(.382 -.924 .924 .382 70 413.02)"/><path d="m336.99 126.22h2.1v26.55h-2.1z"/><ellipse cx="321" cy="148.01" rx="5.18" ry="7.76" transform="matrix(.382 -.924 .924 .382 61.55 388.08)"/><path d="m314.12 120.06h2.1v26.55h-2.1z"/><path d="m338.89 134.23-24.72-8.62v-8.3l25.15 7.1z"/></g><path d="m406.87 292.47s4.89-18.21 9.84-24.44 22.52-16.92 24.27-21.95-3.12-4-3.12-4 6.74-5.12 6-8.37-6.74.77-6.74.77 4.25-5 2.91-8-11.03 4.84-11.03 4.84 4.4-5.17 1.6-6.35-17.6 11.52-23.21 12.84.61-6.73-2.89-8.16-5.3 7.44-9 12.86-10.5 14.88-8.43 19.79-8.48 24.61-8.48 24.61 10.11 13.99 28.28 5.56z" fill="#d89071"/><path d="m328.85 252.25a21.46 21.46 0 0 1 5.35 3.57 22.31 22.31 0 0 1 6.5 11.2 16.46 16.46 0 0 1 4.05-10.39 16.27 16.27 0 0 1 7.95-4.86 15.43 15.43 0 0 1 -7.3-3.09 15.87 15.87 0 0 1 -5.68-9.73 14 14 0 0 1 -2.43 7.62 14.3 14.3 0 0 1 -8.44 5.68z" fill="#ffb833"/><path d="m68.06 119.52a21.12 21.12 0 0 1 5.36 3.57 22.33 22.33 0 0 1 6.49 11.19 16 16 0 0 1 12-15.25 15.39 15.39 0 0 1 -7.3-3.08 15.91 15.91 0 0 1 -5.68-9.74 14 14 0 0 1 -2.43 7.63 14.35 14.35 0 0 1 -8.44 5.68z" fill="#ffb833"/><path d="m102.37 228.55a28 28 0 0 1 7 4.67 29.17 29.17 0 0 1 8.49 14.65 21.52 21.52 0 0 1 5.3-13.59 21.29 21.29 0 0 1 10.4-6.36 20.1 20.1 0 0 1 -9.55-4 20.69 20.69 0 0 1 -7.42-12.73 18.37 18.37 0 0 1 -3.19 10 18.71 18.71 0 0 1 -11.03 7.36z" fill="#ffb833"/><path d="m245.56 237.18s33.73 2.63 54.35 18.75 54.94 99.94 54.94 99.94l-30.94 19.69-55.78-52.42s-42.97-51.64-22.57-85.96z" fill="#37ad36"/><path d="m133.66 138.52c-.86-.75-5.53-4.67-11.86-3.84-.93.12-4.61.61-7 3.09-6.12 6.42-2.55 25.38 8.91 29.65 6.4 2.38 12.88-.71 15-1.88z" fill="#d17352"/><path d="m127.83 161.32a.49.49 0 0 1 -.32-.12c-3-2.55-4.4-5.29-4.26-8.15.16-3.33 2.41-6 3.89-7.36l-9.12.95a.5.5 0 0 1 -.11-1l10.76-1.11a.5.5 0 0 1 .34.9s-4.55 3.27-4.76 7.68c-.12 2.53 1.19 5 3.91 7.33a.51.51 0 0 1 .05.71.52.52 0 0 1 -.38.17z"/><path d="m272.17 135.62c.83-.78 5.34-4.89 11.7-4.31.93.08 4.63.41 7.09 2.8 6.37 6.17 3.57 25.26-7.71 30-6.3 2.64-12.9-.19-15.12-1.27q2.03-13.62 4.04-27.22z" fill="#d17352"/><path d="m278.89 158.17a.52.52 0 0 1 -.36-.16.5.5 0 0 1 0-.71c2.62-2.44 3.83-5 3.61-7.49-.38-4.39-5-7.44-5.06-7.47a.51.51 0 0 1 -.2-.58.48.48 0 0 1 .5-.34l10.79.68a.5.5 0 0 1 .47.53.51.51 0 0 1 -.53.47l-9.16-.58c1.54 1.33 3.89 3.87 4.19 7.2.25 2.85-1.07 5.65-3.93 8.31a.48.48 0 0 1 -.32.14z"/><path d="m183.87 193.31c2.33 8.84 4.06 21.5-1.39 33.53-8.72 19.28-26.93 17.22-40.64 31.44-22.4 23.25-4.65 60.81-3.13 137.14a514.13 514.13 0 0 1 -3 66.82 208.39 208.39 0 0 0 62.21 18c46.87 5.91 84.58-5.71 104.18-13.41a458.87 458.87 0 0 1 -10-72.51c-.84-14.37-.8-25.74-.69-47.88.36-72.58 4.56-83.94-6-95.35-15-16.2-36.1-7-49.12-25.65-8.07-11.56-7.6-26-5.78-36.84a39.42 39.42 0 0 0 -16.93-5.39c-15.77-1.21-27.02 7.79-29.71 10.1z" fill="#d89071"/><path d="m184.68 220.62s22.32 8.78 47.66-2.48l-2.69-18.09-44 2.63z" fill="#d17352"/><circle cx="203.43" cy="128.88" fill="#d89071" r="77.06"/><path d="m126.8 137.08c5.21 36.58 27.64 66 57.84 75a72.17 72.17 0 0 0 46-1.91c28.17-11.11 47.47-40.43 49.84-75.39.01-.01-98.04-66.18-153.68 2.3z" fill="#d89071"/><path d="m252.41 125.45a23.6 23.6 0 0 0 -13.41-4.66c-3.28-.13-7.73-.32-9.15 2.24a3.58 3.58 0 0 0 0 3.63c1.5 2.09 5.41.29 11.68.34 8.25.07 13.56 3.28 14.12 2.11.4-.85-2.22-2.87-3.24-3.66z" fill="#383333"/><path d="m157.49 129.17a23.58 23.58 0 0 1 12.82-6.17c3.25-.52 7.65-1.21 9.35 1.16a3.61 3.61 0 0 1 .39 3.62c-1.26 2.25-5.35.91-11.57 1.68-8.18 1-13.09 4.82-13.78 3.72-.5-.79 1.86-3.1 2.79-4.01z" fill="#383333"/><path d="m204.1 159.15c-1.36 0-2.54-.06-3.26-.11a.75.75 0 1 1 .1-1.5c4.75.32 10.18-.17 10.67-1.4.62-1.56-2.53-9.84-5-15.22a.75.75 0 0 1 1.37-.62c1 2.26 6.06 13.67 5 16.4-.79 2.05-5.4 2.45-8.88 2.45z"/><path d="m207.78 185.9a16.29 16.29 0 0 1 -4.5-.64.51.51 0 0 1 -.33-.63.51.51 0 0 1 .63-.33s5.17 1.6 9.06-.5a.49.49 0 1 1 .47.87 11.07 11.07 0 0 1 -5.33 1.23z"/><ellipse cx="245.18" cy="167.02" fill="#d17352" rx="9.14" ry="5.69"/><ellipse cx="160.87" cy="167.02" fill="#d17352" rx="9.14" ry="5.69"/><path d="m138.71 395.42a514.13 514.13 0 0 1 -3 66.82 208.39 208.39 0 0 0 62.21 18c46.87 5.91 84.58-5.71 104.18-13.41a458.87 458.87 0 0 1 -10-72.51c-.84-14.37-.8-25.74-.69-47.88.36-72.58 4.56-83.94-6-95.35-10.38-11.22-23.7-10.25-35.23-14.8-3.36 3.4-12.21 9.65-33.79 13.16a82 82 0 0 1 -48.93-6.8c-8.23 4.61-17.65 7.39-25.58 15.61-22.44 23.27-4.69 60.83-3.17 137.16z" fill="#fff3e3"/><path d="m158.13 247.31s-37.24 9.87-50.94 50.45-26.36 91.71-26.36 91.71l38.65 9.53s33.27-63.77 42.9-95.4 12.96-42.96-4.25-56.29z" fill="#37ad36"/><path d="m384.94 263.8a223.66 223.66 0 0 1 -32.44 43.1c-10.84 11.2-24.65 23-32.45 43.69-2.59 6.86-3.95 13.19-1.32 18.92 4.67 10.17 19.21 12.58 22.39 12.89 31.66 3 67.75-94 73.5-109.83a65.44 65.44 0 0 0 -11.17-5.13 66.69 66.69 0 0 0 -18.51-3.64z" fill="#37ad36"/><path d="m164.66 244.14s31.89 69.44 36.62 127.28a728.45 728.45 0 0 1 0 110.46s-37.3-1.62-71.5-18.44c9.95-45.29 7.92-80.49 4.2-104.34-4.59-29.36-18.28-83.29-2.44-97.05a102.43 102.43 0 0 1 16.11-10.86 94 94 0 0 1 17.01-7.05z" fill="#37ad36"/><path d="m252.57 237.18s-18.08 82.89-20.23 137-2.58 105.3 0 107.55 34.14 3.83 75.68-15.1c0 0-18.41-120.93-15.78-165.1s-.72-49.64-5.62-53.56-34.05-10.79-34.05-10.79z" fill="#37ad36"/><path d="m162.62 145.28a24.64 24.64 0 0 1 24.58 0 15 15 0 0 0 -13.69-6.67c-3.38.29-7.12 2.1-10.89 6.67z" fill="#383333"/><path d="m250.69 145.28a24.64 24.64 0 0 0 -24.58 0 15 15 0 0 1 13.69-6.67c3.38.29 7.11 2.1 10.89 6.67z" fill="#383333"/><ellipse cx="207.98" cy="172.27" fill="#fff" rx="7.1" ry="8.81"/><path d="m346.62 468a1.49 1.49 0 0 1 -1.49-1.51c.09-8.36-4.07-14.63-12.37-18.65-18.76-9.06-53.66-3.75-71.76 10.93-12.2 9.89-25.75 12-36.25 5.59a25.64 25.64 0 0 1 -11.15-14.55 37.7 37.7 0 0 1 -17.48-6.72 27.61 27.61 0 0 1 -11.44-18.93c-3.81-27.88 12.39-56 13.08-57.16a1.5 1.5 0 1 1 2.59 1.52c-.16.28-16.36 28.39-12.7 55.23 1.38 10.09 9.68 20.72 25.21 22.95a27.51 27.51 0 0 1 .15-10.42c2.05-10 7.08-12.91 9.9-13.77a10.94 10.94 0 0 1 10.91 2.87c3.67 3.56 5 8.94 3.47 14.4-1.82 6.62-10 10.68-20.44 10.29a22.51 22.51 0 0 0 9.46 11.73c9.37 5.7 21.63 3.7 32.8-5.36 18.87-15.3 55.3-20.79 75-11.29 9.3 4.5 14.17 11.89 14.06 21.38a1.5 1.5 0 0 1 -1.55 1.47zm-130.62-21c9.52.63 16.92-2.6 18.41-8 1.21-4.38.21-8.66-2.66-11.44a8 8 0 0 0 -7.94-2.17c-3.77 1.17-6.56 5.25-7.85 11.51a24.73 24.73 0 0 0 .04 10.1z" fill="#00ccc1"/><rect fill="#ffb833" height="84.65" rx="7.37" transform="matrix(.99 .139 -.139 .99 48.52 -25.06)" width="25.52" x="190.91" y="292.53"/><ellipse cx="212.4" cy="272.68" fill="#ffb833" rx="28.63" ry="23.31" transform="matrix(.139 -.99 .99 .139 -87.15 445.12)"/><rect fill="#00ccc1" height="46.07" rx="2.63" transform="matrix(.99 .139 -.139 .99 44.9 -25.83)" width="69.06" x="172.83" y="285.55"/><path d="m209.27 294.99 12.94-3.49-3.02 13.06 7.31 11.23-13.35 1.16-8.43 10.43-5.22-12.34-12.52-4.79 10.12-8.79.68-13.39z" fill="#ff535c"/><path d="m159.82 342.86s18.17-4.3 26.33-5 28.4-3.94 31.69 0-2.62 6.52-2.62 6.52 4.72 2.81.12 7.28c0 0 3.42 4.16-1.31 8.39 0 0 3.15 4.1 1.31 6.47s-19.81 5.89-27.34 5.12a42.26 42.26 0 0 0 -14.72 1.45s-17.85-12.38-13.46-30.23z" fill="#d89071"/><path d="m175.38 339.48c-8.81 1.27-62 9.28-83.47 29.84-1.91 1.81-12.21 12.33-11.39 21.38.65 7.16 5.9 12.09 7 13.16a23.6 23.6 0 0 0 5 3.31 40.15 40.15 0 0 0 14.73 3.91c8.43.55 37-12.66 70.82-38.74z" fill="#37ad36"/><path d="m215.22 344.67h-.09c-2.93-1.07-7.71-1-7.76-1a.25.25 0 0 1 -.25-.24.26.26 0 0 1 .25-.26 26.67 26.67 0 0 1 7.94 1 .25.25 0 0 1 .15.32.23.23 0 0 1 -.24.18z"/><path d="m215.34 352-8.61-1.18a.25.25 0 0 1 -.21-.28.26.26 0 0 1 .28-.22l8.61 1.18a.26.26 0 0 1 .21.29.25.25 0 0 1 -.28.21z"/><path d="m214 360.34h-7.29a.25.25 0 1 1 0-.5h7.29a.25.25 0 1 1 0 .5z"/><path d="m417.81 238.05a.25.25 0 0 1 -.12-.47l11.14-6.48a.25.25 0 0 1 .25.43l-11.14 6.47a.33.33 0 0 1 -.13.05z"/><path d="m422.76 242a.25.25 0 0 1 -.07-.49 56.11 56.11 0 0 0 14.31-7.18.25.25 0 0 1 .3.41 57 57 0 0 1 -14.46 7.26z"/><path d="m426.52 247.8a.26.26 0 0 1 -.23-.15.25.25 0 0 1 .14-.33 98.55 98.55 0 0 0 11.3-5.4.25.25 0 0 1 .26.42 98.2 98.2 0 0 1 -11.37 5.44.16.16 0 0 1 -.1.02z"/><path d="m421.35 251.93a.25.25 0 0 1 -.23-.17c-2.36-7-9-11.33-9.08-11.37a.24.24 0 0 1 -.04-.39.25.25 0 0 1 .34-.07c.07 0 6.87 4.5 9.28 11.63a.24.24 0 0 1 -.16.31z"/><path d="m404.27 249.93a.24.24 0 0 1 -.14-.05.25.25 0 0 1 -.06-.35c3.09-4.28 1.36-11.54 1.34-11.61a.25.25 0 0 1 .18-.3.26.26 0 0 1 .31.18c.07.31 1.8 7.56-1.42 12a.28.28 0 0 1 -.21.13z"/><path d="m138.53 344.92a.51.51 0 0 1 -.47-.53c1.73-27 1.76-39.8 1.76-39.92a.5.5 0 0 1 .5-.5.5.5 0 0 1 .5.5c0 .12 0 12.92-1.76 40a.51.51 0 0 1 -.53.45z"/><path d="m91.91 369.82a.56.56 0 0 1 -.27-.08.5.5 0 0 1 -.15-.69c.15-.24 16.08-24.2 83.85-30.07a.5.5 0 0 1 .54.45.51.51 0 0 1 -.45.55c-67.29 5.82-82.95 29.37-83.1 29.6a.47.47 0 0 1 -.42.24z"/><path d="m137 400.13a.5.5 0 0 1 -.31-.89c.27-.22 27.38-21.49 41.22-27.36a.49.49 0 0 1 .65.26.5.5 0 0 1 -.26.66c-13.72 5.82-40.72 27-41 27.22a.47.47 0 0 1 -.3.11z"/><path d="m293.7 347.67a.51.51 0 0 1 -.49-.38c-2.48-10-1.11-51.69-1-53.46a.53.53 0 0 1 .51-.48.5.5 0 0 1 .49.51c0 .43-1.42 43.31 1 53.19a.5.5 0 0 1 -.36.6z"/><path d="m325.63 356.67a.51.51 0 0 1 -.5-.47c0-.18-.74-17.84 13.72-36a.51.51 0 0 1 .79.63c-14.22 17.85-13.52 35.15-13.51 35.33a.5.5 0 0 1 -.47.52z"/><path d="m170 84c-3.45 18.77-17.79 37.33-34.63 43.82-4.5 1.73-13.16 4.14-25.59 1.75a44 44 0 0 0 7.72-10.57c5.93-11.35 4.34-20.91 4.91-29.09 1.22-17.62 13.12-38.4 30.14-45.57 18.07-7.6 37.24 2.08 42.42 4.91 3.75-3.16 26.34-21.69 48-14.73 17.92 5.77 31.6 27.78 34.71 46.28 1.77 10.52.86 24.35 11.21 36.45a39.92 39.92 0 0 0 5.4 5.22c-1.89 2.37-6.79 7.88-14 8.46a18 18 0 0 1 -9.65-2.08c-18-9.12-22.12-56.35-44.54-65.93-5.19-2.22-13.56-3.35-26.93 2.8-8-2-18.27-3.12-24.19 2.46-4.22 4-3.73 9.05-4.98 15.82z" fill="#383333"/><path d="m122 127.06c.69 3.57 4.24 20.79 9.74 30.6a1 1 0 0 0 1.8-.46c0-6.89.37-23.36 2.7-37.44a1 1 0 0 0 -1.43-1l-12.36 7.28a1 1 0 0 0 -.45 1.02z" fill="#383333"/><path d="m285.13 128.18c-.5 3.6-3.08 21-8 31.1a1 1 0 0 1 -1.83-.36c-.41-6.88-1.66-23.31-4.77-37.24a1 1 0 0 1 1.37-1.06l12.74 6.58a1 1 0 0 1 .49.98z" fill="#383333"/><path d="m282.51 123.31c-11.7 0-19.13-18.31-26.33-36.06-5.25-13-10.22-25.19-16.57-30.4-15.55-12.74-35.67 3-35.87 3.16a.5.5 0 1 1 -.62-.78c.21-.17 21-16.4 37.12-3.15 6.55 5.37 11.56 17.72 16.87 30.8 7.59 18.71 15.44 38.05 27.89 35.12a.5.5 0 0 1 .23 1 12 12 0 0 1 -2.72.31z" fill="#fff"/><path d="m277.37 105.07h-.13c-13.17-3.72-23-45.9-23.41-47.7a.5.5 0 0 1 1-.22c.1.43 10.1 43.4 22.7 47a.5.5 0 0 1 .34.62.49.49 0 0 1 -.5.3z" fill="#fff"/><path d="m122 121.22a.5.5 0 0 1 -.12-1c15.72-3.74 25.83-10.15 30.06-19 1.78-3.76 2.53-7.88 3.33-12.24 1.37-7.5 2.79-15.26 9.66-21.83a29.39 29.39 0 0 1 4.83-3.74.5.5 0 0 1 .69.16.51.51 0 0 1 -.16.69 28 28 0 0 0 -4.67 3.62c-6.64 6.34-8 13.93-9.37 21.28-.81 4.43-1.57 8.61-3.41 12.48-4.36 9.18-14.7 15.77-30.72 19.58z" fill="#fff"/><path d="m130.6 104.12a.5.5 0 0 1 -.47-.33.51.51 0 0 1 .31-.64c21-7.57 20.79-39 20.78-39.32a.5.5 0 1 1 1 0c0 .32.24 32.46-21.45 40.28a.47.47 0 0 1 -.17.01z" fill="#fff"/></g></svg>