<svg height="512" viewBox="0 0 512 512" width="512" xmlns="http://www.w3.org/2000/svg"><g id="Tea_Time" data-name="Tea Time"><path d="m185.71 116.78s-14.44 24.11-4.55 60.78-34.79 44.3-58.47 81.73-4.73 98 82.24 102.09 176.73-4.49 195.44-29.38-20.22-82.21-39.71-104.37 15.46-60.43 10.21-110.81h-185.16z" fill="#c65726"/><path d="m149.42 312.89a.5.5 0 0 1 -.3-.11 22.42 22.42 0 0 1 -9.05-16.4c-1.94-24.16 30.21-58.71 45.66-75.31 20.84-22.4 11.88-37 11.78-37.13a.5.5 0 0 1 .15-.69.49.49 0 0 1 .69.15c.1.15 9.52 15.34-11.89 38.35-15.35 16.5-47.3 50.83-45.39 74.55a21.42 21.42 0 0 0 8.66 15.7.5.5 0 0 1 .09.7.51.51 0 0 1 -.4.19z"/><path d="m368.62 317.85a.5.5 0 0 1 -.22-1c6.8-3.29 10.61-9.7 11-18.52.86-18.25-12.93-42.46-30.11-52.88-26.08-15.81-9.14-47.74-9-48.06a.5.5 0 0 1 .88.48c-.17.31-16.66 31.41 8.6 46.73 17.45 10.58 31.46 35.21 30.59 53.78-.43 9.21-4.44 15.91-11.58 19.37a.44.44 0 0 1 -.16.1z"/><path d="m408.61 205.56a23.29 23.29 0 0 0 -5.84 3.89 24.35 24.35 0 0 0 -7.07 12.2 18 18 0 0 0 -4.42-11.32 17.75 17.75 0 0 0 -8.66-5.3 16.71 16.71 0 0 0 7.95-3.36 17.22 17.22 0 0 0 6.19-10.61 15.29 15.29 0 0 0 2.65 8.31 15.65 15.65 0 0 0 9.2 6.19z" fill="#ffb833"/><path d="m172.54 76a23 23 0 0 0 -5.84 3.89 24.35 24.35 0 0 0 -7.07 12.2 18 18 0 0 0 -4.42-11.32 17.59 17.59 0 0 0 -8.66-5.3 16.82 16.82 0 0 0 7.95-3.36 17.24 17.24 0 0 0 6.19-10.61 15.31 15.31 0 0 0 2.65 8.31 15.65 15.65 0 0 0 9.2 6.19z" fill="#ffb833"/><path d="m136.91 205.31a30.54 30.54 0 0 0 -7.63 5.09 31.78 31.78 0 0 0 -9.25 16 23.47 23.47 0 0 0 -5.78-14.8 23.17 23.17 0 0 0 -11.33-6.94 21.84 21.84 0 0 0 10.41-4.39 22.65 22.65 0 0 0 8.09-13.88 20 20 0 0 0 3.47 10.87 20.34 20.34 0 0 0 12.02 8.05z" fill="#ffb833"/><path d="m351.79 136.26c.92-.8 5.94-5 12.72-4.11 1 .13 4.94.65 7.48 3.31 6.56 6.88 2.73 27.21-9.56 31.78-6.86 2.56-13.8-.76-16.14-2q2.71-14.48 5.5-28.98z" fill="#ff8c5f"/><path d="m358 160.67a.48.48 0 0 1 -.37-.17.5.5 0 0 1 .05-.71c2.92-2.51 4.33-5.17 4.2-7.9-.23-4.75-5.06-8.21-5.11-8.24a.51.51 0 0 1 -.18-.59.49.49 0 0 1 .52-.32l11.52 1.2a.5.5 0 0 1 .45.55.51.51 0 0 1 -.55.44l-9.89-1c1.58 1.47 4.06 4.32 4.24 7.95.15 3.05-1.38 6-4.55 8.7a.5.5 0 0 1 -.33.09z"/><path d="m200.6 133.15c-.89-.83-5.73-5.24-12.55-4.62-1 .09-5 .45-7.6 3-6.83 6.62-3.82 27.08 8.27 32.15 6.75 2.83 13.83-.21 16.21-1.36q-2.16-14.58-4.33-29.17z" fill="#ff8c5f"/><path d="m193.39 157.29a.48.48 0 0 1 -.34-.13c-3.05-2.85-4.47-5.84-4.2-8.89.32-3.61 2.92-6.36 4.56-7.76l-9.92.63a.5.5 0 0 1 -.07-1l11.57-.73a.48.48 0 0 1 .5.34.49.49 0 0 1 -.2.58s-5 3.31-5.44 8c-.24 2.72 1.07 5.43 3.88 8a.5.5 0 0 1 0 .71.46.46 0 0 1 -.34.25z"/><circle cx="277.77" cy="125.84" fill="#ffb08d" r="85.56"/><path d="m252 198.44c.66 9.54 0 23.05-8.52 33.3-13.36 16.14-31.72 6.36-47 17.4-25.09 18.13-6.17 66.39-12.95 156.17-1.55 20.55-4 37.44-5.92 48.85a192.68 192.68 0 0 0 62.15 21.28c54.24 8.56 97.72-8.8 116.24-17.58a117.13 117.13 0 0 1 -14.07-32.57c-8.16-31.52-1.32-61.49 3.46-81.5 7-29.29 15.87-48.81 7.41-69.9a30.71 30.71 0 0 0 -4.58-7.7c-12.6-16-33.65-9.26-42.55-27.79-6.47-13.44-4.44-35.82-4.44-35.89a130.22 130.22 0 0 0 -49.23-4.07z" fill="#ffb08d"/><path d="m247.89 224.84s31.31 11.11 54.29 2l-1.24-18.58-48.81-1.86z" fill="#ff8c5f"/><path d="m362.85 134.94c-5.78 40.62-30.69 73.3-64.22 83.27-5.38 1.6-27 7.37-51.08-2.13-31.29-12.33-52.71-44.88-55.34-83.7 0 0 108.86-73.47 170.64 2.56z" fill="#ffb08d"/><path d="m223.39 118.66a26.15 26.15 0 0 1 14.93-5.17c3.65-.15 8.59-.35 10.16 2.48a4 4 0 0 1 0 4c-1.68 2.32-6 .32-13 .38-9.16.07-15.06 3.64-15.68 2.34-.46-.9 2.45-3.15 3.59-4.03z" fill="#c65726"/><path d="m328.78 123a26.26 26.26 0 0 0 -14.24-6.85c-3.61-.57-8.49-1.34-10.38 1.3a4 4 0 0 0 -.43 4c1.39 2.5 5.93 1 12.84 1.87 9.09 1.12 14.53 5.35 15.3 4.13.56-.93-2.06-3.45-3.09-4.45z" fill="#c65726"/><path d="m271.48 159.38c-1.11 0-2.36 0-3.75-.13a.75.75 0 1 1 .1-1.5c5.29.35 11.36-.16 11.94-1.61.7-1.76-2.8-11-5.51-17a.75.75 0 1 1 1.37-.61c1.13 2.5 6.72 15.14 5.53 18.13-.16.53-1.53 2.72-9.68 2.72z"/><path d="m275.26 187.69a11.38 11.38 0 0 1 -4.33-.8.5.5 0 0 1 .38-.92c4.57 1.86 10.05-.52 10.1-.55a.5.5 0 1 1 .41.91 17.65 17.65 0 0 1 -6.56 1.36z"/><g fill="#ff8c5f"><ellipse cx="231.42" cy="159.59" rx="10.15" ry="6.32"/><ellipse cx="323.34" cy="159.59" rx="10.15" ry="6.32"/><path d="m221.42 242.26c-12.92.57-36.43 3.68-53.81 20.93-10.79 10.71-14.81 22.5-18.57 33.92-9.84 29.94-19.84 61.89-29.79 95.89l29.75 21.52 56.22-86.13s31.89-43.54 16.2-86.13z"/><path d="m316.3 249.5s34.54 9.9 49.67 32.6 44.32 102.7 44.32 102.7l-41.29 23.78-57.75-70.86s-19.76-54.89 5.05-88.22z"/></g><path d="m229.52 240.76s7.82 18.31 35.18 23.17 47.51-17.13 47.51-17.13 21.94 7.37 33.63 16.42q-3.18 20.11-6.35 40.23a742.44 742.44 0 0 0 10.08 109.77c3.18 19 7 37 11.09 53.83 0 0-89.86 36-189-3.68q6.18-51.72 12.35-103.43a60.63 60.63 0 0 1 -6.05-21.59c-1.95-23.28 10.63-40.49 14.54-45.44l2.4-46s13.57-6.41 34.62-6.15z" fill="#ff1a26"/><path d="m281.77 55.81c-23.17-4-35.75 1.21-43 6.78-21.46 16.54-14.59 51.14-38.19 63.78a37 37 0 0 1 -19.1 4c-3.41-44.58 18.7-83 51.39-94.64 22.64-8.08 44-1.07 52.87 2.46 5.69-1.61 31.23-8.18 53.49 6.14 21.39 13.76 26.45 38.18 29.44 52.67a109.37 109.37 0 0 1 1.15 37.24c-13.49-4-41.28-14.24-64.56-40.58a134.62 134.62 0 0 1 -23.49-37.85z" fill="#c65726"/><path d="m228.26 138.86s9.68 6 23.74 2.86a31.56 31.56 0 0 1 -7 2.28 32.8 32.8 0 0 1 -12.06.15 31.07 31.07 0 0 1 -5.47-1.5 15.09 15.09 0 0 0 -4.42-1.39c-3.56-.43 2.46-1.9 5.21-2.4z" fill="#383333"/><path d="m324.47 138.86s-9.67 6-23.74 2.86a31.89 31.89 0 0 0 7 2.31 32.82 32.82 0 0 0 12.06.15 31.46 31.46 0 0 0 5.48-1.5 15.12 15.12 0 0 1 4.41-1.39c3.56-.46-2.45-1.93-5.21-2.43z" fill="#383333"/><path d="m213.88 269.51-12.67-24.43c-11.05 2.72-23.38 8-33.6 18.11-10.79 10.71-14.81 22.5-18.57 33.92q-5.17 15.75-10.41 32.28c6.88 5.08 23.33 14.76 51.47 17.47z" fill="#ff1a26"/><path d="m307.27 290.71 22.44 69.42a66.11 66.11 0 0 0 24.45 3.44c21.48-1.07 36.21-12.56 41.45-17.09-9.5-23.87-21.61-52.27-29.61-64.38s-21.74-20.61-32.68-25.88l-6 .69z" fill="#ff1a26"/><path d="m315.58 359.46c11.24 2.94 27.81 7 48.12 11.18 31.65 6.43 42.64 6.9 48.13 16 6.95 11.57 2.18 32.24-8.88 40.1-28.66 20.4-102.41-42-110.86-49.27z" fill="#ffb08d"/><path d="m186.19 291.22c-9.53 10.19-84.3 91.18-64.26 120.07.95 1.37 8 7 18.26 9 .88.18 8.23 1.57 13.82.18 14.28-3.55 18.5-25.66 32.35-63.92 4.91-13.53 9.75-25.6 14.19-36q-7.19-14.66-14.36-29.33z" fill="#ffb08d"/><path d="m229.52 240.76s-12.61-.26-15.17 1 7.49 30.65 22 35.8 31.44-8 31.44-8 9.41 16.33 24.59 15.47 34-31.37 33.25-32.94-10.19-5.19-13.41-5.24-23.95 18.95-42.42 16.08-35.38-14.53-40.28-22.17z" fill="#ff8d93"/><path d="m275.42 181.74h-.24c-10.79-.13-16.28-9.15-16.51-9.53a.75.75 0 1 1 1.29-.77c.21.36 5.28 8.68 15.23 8.8h.22c10.08 0 15.41-8.71 15.46-8.8a.75.75 0 1 1 1.29.77c-.24.39-5.83 9.53-16.74 9.53z"/><path d="m309.85 391.83s-13.75-10.31-29.6-14.7-28.87-13.94-20.93-17.95 45.12-1.72 55.08 0 21.23 13.57 21.23 13.57z" fill="#ffb08d"/><ellipse cx="284.56" cy="351.09" fill="#ffb833" rx="44.87" ry="13.37"/><path d="m295.39 195.69s20.62-4.92 25.49 12-7.45 21.67-21.48 23.16-6.31 8.64-2 17.52-6.35 21.08-18.07 17-10.05 21.11-10.05 21.11h-8.83s3.68-11.79-4.89-20.22-.66-19 13.72-21.28-3.44-6.62-6.85-22.38 4.84-26.35 16.9-22.63 5.74.93 16.06-4.28z" fill="#fff3e3"/><path d="m238.82 275.18h70.54a0 0 0 0 1 0 0v27.57a21.08 21.08 0 0 1 -21.08 21.08h-27.6a21.87 21.87 0 0 1 -21.86-21.83v-26.82a0 0 0 0 1 0 0z" fill="#ffb833" transform="matrix(.999 -.052 .052 .999 -15.19 14.65)"/><path d="m225 314.66a19.49 19.49 0 1 1 1 0c-.28 0-.63 0-1 0zm0-34.64c-.26 0-.53 0-.8 0a15.07 15.07 0 1 0 .8 0z" fill="#ffb833"/><path d="m176.47 301.93s15.22-19.49 24.21-23 22.95 0 24.26 3.1-5.19 5.06-7.37 5.26c0 0 5.58 2.49 1.42 7.2 0 0 4.95 3.84 0 9.18 0 0 15.73.9 16.73 3.62a.71.71 0 0 1 0 .34c-.15 2.42-9.21 1.4-16.55 4.87-9.55 4.52-8.34 12.94-18.51 16.31a14.91 14.91 0 0 1 -8.57.73s-2.47-.62-10-6.21-8.7-11.45-5.62-21.4z" fill="#ffb08d"/><path d="m363.33 118.72h-.08c-41.05-7-62.77-64.92-63-65.5a.5.5 0 0 1 .3-.64.5.5 0 0 1 .64.29c.22.58 21.74 58 62.22 64.86a.51.51 0 0 1 .41.58.52.52 0 0 1 -.49.41z"/><path d="m362.85 97.08c-12-.2-24.33-9.93-32.51-18a138.06 138.06 0 0 1 -15-17.69.49.49 0 0 1 .13-.69.5.5 0 0 1 .69.12c.24.35 24.19 34.94 46.68 35.31a.5.5 0 0 1 0 1z"/><path d="m190.9 118.72a.5.5 0 0 1 -.25-.94c12.38-7 14.2-17.56 16.14-28.78 1.45-8.46 3-17.2 9.09-24.82 14.13-17.56 41-16.62 41.28-16.61a.51.51 0 0 1 .48.52.5.5 0 0 1 -.52.48c-.27 0-26.65-.93-40.46 16.24-6 7.42-7.45 16-8.89 24.36-2 11.46-3.84 22.3-16.63 29.48a.44.44 0 0 1 -.24.07z"/><path d="m217.57 287.58c-2.41-.32-10.25-2.24-10.58-2.32a.26.26 0 0 1 -.19-.31.25.25 0 0 1 .3-.18c.09 0 8.15 2 10.54 2.32a.24.24 0 0 1 .21.28.24.24 0 0 1 -.28.21z"/><path d="m219 294.78-11-.76a.25.25 0 0 1 -.23-.27.25.25 0 0 1 .27-.23l11 .76a.25.25 0 0 1 .23.26.25.25 0 0 1 -.27.24z"/><path d="m210.73 305.48a.25.25 0 0 1 -.07-.49c.23-.07 5.65-1.74 8.35-1.53a.25.25 0 0 1 .23.27.26.26 0 0 1 -.27.23c-2.62-.2-8.11 1.49-8.17 1.5z"/><path d="m342.76 361.88h-.16a.5.5 0 0 1 -.32-.63c6.09-18.9 3.76-31.73.73-39.17-3.28-8-8.05-11.68-8.1-11.71a.5.5 0 0 1 .6-.8c.2.14 19.6 15.13 7.72 52a.49.49 0 0 1 -.47.31z"/></g></svg>