<svg height="512" viewBox="0 0 512 512" width="512" xmlns="http://www.w3.org/2000/svg"><g id="Work_from_home" data-name="Work from home"><path d="m339.53 150.2s15 10.69 3.93 31.29c0 0 16.47 9.91 5.11 28.8 0 0 12.11 13.86-1.09 24.34s-24.17-4.22-24.17-4.22-11.24 23.6-30.17 7c0 0-12.42 18.83-34.61 3.5 0 0-9.54 15.18-23.11 3.54l12.28-69.57 35.3-23.35z" fill="#383333"/><path d="m140.25 154.9s-14.5 11.39-2.46 31.44c0 0-16 10.68-3.74 29 0 0-11.44 14.42 2.23 24.26s23.95-5.35 23.95-5.35 12.34 23 30.47 5.56c0 0 13.29 18.23 34.73 1.87 0 0 10.24 14.72 23.25 2.45l-15.54-68.92-36.4-21.65z" fill="#383333"/><path d="m144.17 433.64c.06-1.4.12-2.79.17-4.21.57-16.37.22-29.28-.5-54.46-2.36-82.51-7.44-95.31 4.26-108.56 16.6-18.82 40.86-8.92 55.16-30.48 8.86-13.36 7.94-29.81 5.59-42a44.7 44.7 0 0 1 19.1-6.58c17.85-1.79 30.88 8.15 34 10.66-2.41 10.12-4 24.56 2.47 38.09 10.43 21.69 31.08 18.85 47.05 34.65 26.1 25.83 6.92 69 7.24 155.84 0 3.59.06 7.09.14 10.52-29.32 7.89-101.85 22.29-174.68-3.47z" fill="#d89071"/><path d="m318.71 426.55c0 3.59.06 7.09.14 10.52-29.32 7.93-101.85 22.33-174.68-3.43.06-1.4.12-2.79.17-4.21 0 0 1.1-29.39-.5-54.46-3.08-48.31-25.08-61.74-14.51-87.54a61.25 61.25 0 0 1 19-24.38 53.17 53.17 0 0 1 19.59-8.51c60.15 54.53 124.58 4 124.58 4 6.47 2.94 13.06 6.24 19 12.12 26.07 25.88 6.89 69.06 7.21 155.89z" fill="#ff8d93"/><path d="m303.54 264.4s25.7 9.74 36.95 31 28.65 100.21 27.43 115.79-48.46 51-48.46 51l-19.46-62.67z" fill="#ff8d93"/><path d="m156.43 261.27a67.13 67.13 0 0 0 -19.75 12.13c-16 14.24-18.78 31.28-28.38 77.52-11.3 54.24-12.91 57.36-10.12 66.63 8.82 29.2 38.82 43.65 50.82 48.65l16.52-63.51q-4.52-70.69-9.09-141.42z" fill="#ff8d93"/><path d="m485.92 65.13s7.91 58.2 0 77.18-71.21 15.16-74.26 17.38-6.39 13.36-22.52 13.73c0 0 7.92-11.08 3.66-13.73s-12.8 1.07-19.8-5.51-14.9-74.13-11.25-85.09 75.48-13.7 87.65-14.3 33.48-.92 36.52 10.34z" fill="#ffb833"/><path d="m59.65 229.93a21.84 21.84 0 0 1 5.55 3.7 23.06 23.06 0 0 1 6.73 11.61 17.13 17.13 0 0 1 4.21-10.77 16.91 16.91 0 0 1 8.24-5 15.93 15.93 0 0 1 -7.57-3.2 16.44 16.44 0 0 1 -5.89-10.09 14.49 14.49 0 0 1 -2.52 7.82 14.79 14.79 0 0 1 -8.75 5.93z" fill="#ffb833"/><path d="m349 263.24a21.84 21.84 0 0 1 5.55 3.7 23.06 23.06 0 0 1 6.73 11.61 17.09 17.09 0 0 1 4.21-10.76 16.87 16.87 0 0 1 8.24-5.05 15.93 15.93 0 0 1 -7.57-3.2 16.49 16.49 0 0 1 -5.89-10.09 14.49 14.49 0 0 1 -2.52 7.9 14.79 14.79 0 0 1 -8.75 5.89z" fill="#ffb833"/><path d="m87.87 65.22a28.77 28.77 0 0 1 7.26 4.84 30.27 30.27 0 0 1 8.81 15.19 21.77 21.77 0 0 1 16.28-20.69 20.61 20.61 0 0 1 -9.9-4.18 21.45 21.45 0 0 1 -7.7-13.2 19.12 19.12 0 0 1 -3.3 10.34 19.38 19.38 0 0 1 -11.45 7.7z" fill="#ffb833"/><path d="m317.56 134.33c1-.87 6.17-5.45 13.39-4.68 1.05.12 5.25.57 8 3.32 7.12 7.14 3.57 28.79-9.34 33.95-7.21 2.88-14.66-.46-17.17-1.73q2.56-15.42 5.12-30.86z" fill="#d17352"/><path d="m324.79 160a.49.49 0 0 1 -.37-.16.5.5 0 0 1 0-.71c3-2.74 4.48-5.6 4.27-8.51-.36-5-5.59-8.6-5.64-8.64a.49.49 0 0 1 -.19-.58.48.48 0 0 1 .51-.33l12.25 1a.5.5 0 0 1 .46.54.51.51 0 0 1 -.54.46l-10.6-.85c1.7 1.49 4.47 4.47 4.75 8.35.23 3.23-1.32 6.36-4.6 9.32a.46.46 0 0 1 -.3.11z"/><path d="m160 134.75c-1-.87-6.21-5.41-13.42-4.59-1.05.12-5.25.6-8 3.37-7.08 7.19-3.38 28.82 9.57 33.89 7.23 2.83 14.66-.56 17.16-1.85q-2.64-15.4-5.31-30.82z" fill="#d17352"/><path d="m153 160.5a.51.51 0 0 1 -.33-.13c-3.3-2.94-4.87-6.06-4.66-9.29.25-3.88 3-6.89 4.69-8.39l-10.6.92a.5.5 0 0 1 -.54-.45.5.5 0 0 1 .46-.54l12.24-1.07a.51.51 0 0 1 .52.33.5.5 0 0 1 -.19.58c-.05 0-5.26 3.65-5.59 8.69-.18 2.9 1.27 5.75 4.33 8.47a.5.5 0 0 1 -.33.88z"/><path d="m207.18 228.37s25.79 11.56 55 2v-27l-53.11-.91q-.95 12.99-1.89 25.91z" fill="#d17352"/><circle cx="237.98" cy="125.24" fill="#d89071" r="87.64"/><path d="m325.32 132.51c-4.93 41.73-29.65 75.8-63.75 86.81-5.46 1.77-27.45 8.2-52.35-.94-32.33-11.88-55.06-44.68-58.69-84.38 0 0 109.69-77.85 174.79-1.49z" fill="#d89071"/><path d="m182.21 122.65a26.83 26.83 0 0 1 15.16-5.65c3.73-.24 8.79-.57 10.46 2.3a4.07 4.07 0 0 1 .07 4.13c-1.66 2.42-6.15.48-13.27.7-9.38.3-15.33 4.1-16 2.78-.49-.91 2.43-3.32 3.58-4.26z" fill="#383333"/><path d="m290.22 124.35a26.8 26.8 0 0 0 -14.74-6.67c-3.71-.5-8.73-1.17-10.6 1.58a4.1 4.1 0 0 0 -.35 4.12c1.49 2.52 6.11.89 13.2 1.6 9.33.93 15 5.13 15.77 3.86.55-.92-2.2-3.48-3.28-4.49z" fill="#383333"/><path d="m237 159.58c-3.7 0-8.19-.44-9.06-2.49-1.29-3 4.13-16.11 5.23-18.7a.75.75 0 0 1 1.38.59c-2.45 5.77-6 15.63-5.23 17.52.62 1.47 6.86 1.86 12.28 1.37a.76.76 0 0 1 .81.68.74.74 0 0 1 -.68.81c-.73.07-2.61.22-4.73.22z"/><path d="m235.49 190.72a12.41 12.41 0 0 1 -5.67-1.25.5.5 0 1 1 .45-.89c4.51 2.3 10.31.36 10.37.34a.5.5 0 0 1 .32.94 18 18 0 0 1 -5.47.86z"/><ellipse cx="191.54" cy="169.72" fill="#d17352" rx="10.4" ry="6.48" transform="matrix(1 -.024 .024 1 -3.95 4.56)"/><ellipse cx="287.39" cy="167.46" fill="#d17352" rx="10.4" ry="6.48" transform="matrix(1 -.024 .024 1 -3.87 6.82)"/><rect fill="#383333" height="17.74" rx="7.42" width="425.15" x="22.56" y="464.26"/><path d="m315.88 454.1h-181.45a6.21 6.21 0 0 1 -6.18-5.68l-10.25-120.35a6.19 6.19 0 0 1 6.17-6.72h201.92a6.2 6.2 0 0 1 6.18 6.72l-10.22 120.35a6.19 6.19 0 0 1 -6.17 5.68z" fill="#00ccc1"/><rect fill="#00baac" height="12.76" rx="3.39" width="195.53" x="127.39" y="451.5"/><circle cx="225.15" cy="394.4" fill="#00baac" r="20.03"/><path d="m43.55 462.57a3.61 3.61 0 0 0 3 3.38 159.25 159.25 0 0 0 17.54 1.87 157.55 157.55 0 0 0 33.27-1.88 3.58 3.58 0 0 0 3-3.37q1.84-38.57 3.64-77.06a3.59 3.59 0 0 0 -3.59-3.76h-57a3.59 3.59 0 0 0 -3.59 3.76z" fill="#ffb833"/><path d="m22.56 431.1v-21.17a11.29 11.29 0 0 1 11.27-11.28h16.78a11.29 11.29 0 0 1 11.27 11.28v21.17a11.28 11.28 0 0 1 -11.27 11.27h-16.78a11.28 11.28 0 0 1 -11.27-11.27zm11.27-25.27a4.1 4.1 0 0 0 -4.09 4.1v21.17a4.1 4.1 0 0 0 4.09 4.1h16.78a4.1 4.1 0 0 0 4.09-4.1v-21.17a4.1 4.1 0 0 0 -4.09-4.1z" fill="#ffb833"/><path d="m337 324.1c6 11.35 2.23 39.2 14.27 45.73s20.45-4.29 20.45-4.29c30.08-23.37 1.21-47.11-10.31-50.89s-29.57-7.74-31.46-6.19 1.05 4.3 7.05 15.64zm34.9 11.69c1.55-4.94 4.2-3.54 4.9-2.23a13.41 13.41 0 0 1 1.4 10.44c-1.53 6.32-3.21 8.9-6.3 5s-1.57-8.26-.02-13.21zm-13.24-5.07c-1.37-2.75-.34-8.25 1.12-10.06 0 0 2.84-1.54 4.21 1.12s.6 5.59 0 8.94-3.99 2.75-5.35 0zm-4.19 22.28s9.29.39 8.38 6.32-9.93 3.48-13.28 0 .43-6.16 4.9-6.32zm-6.19-20.71c5.42 1.22 7.32 8.72 7.32 8.72.48 4.25-5 4.9-7.32.55s-5.41-10.45 0-9.24zm-10.61-16.81a3.13 3.13 0 0 1 3.35-2.32s5 .51 6.7 4.38.69 6.36-2.45 5.16-8.46-4.53-7.6-7.19z" fill="#37ad36"/><path d="m381.29 422.58a1 1 0 0 1 -1-1c0-58.77-27.87-90.91-28.15-91.23a1 1 0 0 1 .08-1.41 1 1 0 0 1 1.42.09c.28.32 28.61 33 28.65 92.55a1 1 0 0 1 -1 1z" fill="#257c23"/><path d="m452.63 265.94c-2.63-1.81-25.45 5.06-39.92 11.06s-49.33 39.39-8.31 66.55c0 0 11.91 13.12 26.77 3.53s7.27-45.09 13.91-60.29 10.13-19.04 7.55-20.85zm-50.07 56.36c-3.6 5.28-6 2.12-8.6-5.86s.78-13.59.78-13.59c.78-1.75 4.05-3.82 6.53 2.4s4.9 11.75 1.29 17.05zm8.4-24.36c-1.1-4.26-2.38-7.95-.87-11.51s5.31-1.85 5.31-1.85c2.06 2.18 3.93 9.16 2.42 12.84s-5.76 4.78-6.82.52zm21.34 35.46c-4 4.81-15.36 8.85-17.1 1.3s10.17-9 10.17-9c5.83-.23 10.91 2.89 6.93 7.7zm-.07-23c-2.57 5.83-9.68 5.54-9.48 0 0 0 1.71-9.85 8.57-11.94s3.47 6.12.91 11.94zm2-24.58c-3.92 1.86-5.5-1.25-3.66-6.4s8.21-6.31 8.21-6.31a4.06 4.06 0 0 1 4.54 2.67c1.4 3.34-5.14 8.22-9.06 10.04z" fill="#37ad36"/><path d="m397.53 417.66a1 1 0 0 1 -1-.93c-5.76-76.55 27.47-121.36 27.81-121.8a1 1 0 1 1 1.59 1.2c-.33.44-33.1 44.7-27.41 120.45a1 1 0 0 1 -.92 1.08z" fill="#257c23"/><path d="m375.1 467.13c3.93.44 8.17.75 12.7.85a144.18 144.18 0 0 0 19-.85 18 18 0 0 0 12.51-5.13 17.59 17.59 0 0 0 5.17-12.47v-43.59a4.79 4.79 0 0 0 -4.79-4.79h-56.3a4.79 4.79 0 0 0 -4.78 4.79v44.7a16.49 16.49 0 0 0 16.49 16.49z" fill="#00ccc1"/><path d="m243.51 56.45s-2.48 23 31.34 20c0 0-5.84 20.5 18 21.52 0 0 1.16 38.29 46.11 35 0 0 14.69-16.62-.67-28.22 0 0 7.72-21.41-12.53-24.52 0 0 6.49-17.5-15.76-19.07 0 0 .12-15.66-19.92-16.58 0 0-6.35-18.39-28-10.7 0 0-21.39-5.18-34.07 2.3-.01 0-3.36 15.33 15.5 20.27z" fill="#383333"/><path d="m226.68 56.44s3.51 22.5-29.85 21.1c0 0 6.68 19.86-16.69 22 0 0 .64 37.66-43.67 36.53 0 0-15.2-15.64-.65-27.75 0 0-8.58-20.68 11.17-24.68 0 0-7.18-16.88 14.6-19.46 0 0-.84-15.37 18.79-17.2 0 0 5.39-18.37 27.05-11.82 0 0 20.76-6.08 33.57.68 0-.03 4 14.88-14.32 20.6z" fill="#383333"/><path d="m262.2 137.4c-.49.2 6.49-6.32 13.88-2.64s4 9.33 9.78 11.4c0 0-5.65 2.22-8.22-1.84s-4.72-11.32-15.44-6.92z" fill="#383333"/><circle cx="269.3" cy="144.75" fill="#fff" r="10.75"/><circle cx="268.29" cy="146.77" fill="#383333" r="7.68"/><circle cx="266.19" cy="142.67" fill="#fff" r="2.24"/><path d="m206.83 137.45c.48.24-6.05-6.75-13.67-3.58s-4.62 9-10.53 10.71c0 0 5.48 2.6 8.32-1.27s5.49-10.96 15.88-5.86z" fill="#383333"/><circle cx="199.24" cy="144.3" fill="#fff" r="10.75"/><circle cx="200.59" cy="146.37" fill="#383333" r="7.68"/><circle cx="202.96" cy="142.43" fill="#fff" r="2.24"/><path d="m220.69 173.94a101.11 101.11 0 0 0 17.71 1.46 102.23 102.23 0 0 0 15.95-1.4 20.16 20.16 0 0 1 -9.81 8.58 18.49 18.49 0 0 1 -23.85-8.68z" fill="#fff"/><path d="m142 120.16a.5.5 0 0 1 0-1c11-.11 18.89-4.94 23.41-14.37a38.27 38.27 0 0 0 3.59-14.3.5.5 0 0 1 .45-.49c11.45-1 12.72-14.13 12.73-14.26a.52.52 0 0 1 .44-.46c13.38-1.83 16.11-15.28 16.13-15.4a.49.49 0 0 1 .52-.41c17.11.8 18.68-13.65 18.74-14.26a.49.49 0 0 1 .54-.45.5.5 0 0 1 .46.54c0 .16-1.72 15.75-19.37 15.19-.59 2.36-4.07 13.81-16.56 15.73-.32 2.26-2.44 13.47-13.15 14.73-.2 3.69-2.51 29-27.91 29.21z" fill="#fff"/><path d="m332.78 120.16c-25.39-.25-27.7-25.52-27.9-29.21-10.72-1.26-12.88-12.47-13.17-14.73-12.48-1.92-16-13.37-16.55-15.73-17.71.58-19.35-15-19.37-15.19a.5.5 0 0 1 1-.09c.06.61 1.64 15 18.74 14.26a.5.5 0 0 1 .51.41c0 .13 2.72 13.57 16.19 15.4a.51.51 0 0 1 .43.46 21.25 21.25 0 0 0 2.06 6.79c2.3 4.52 5.89 7 10.67 7.47a.5.5 0 0 1 .46.49 38.37 38.37 0 0 0 3.52 14.3c4.52 9.43 12.4 14.26 23.41 14.37a.5.5 0 1 1 0 1z" fill="#fff"/><path d="m152.94 226.32a.48.48 0 0 1 -.32-.11c-2.91-2.33-4.49-5.05-4.69-8.07-.31-4.59 2.65-8.42 3.59-9.52-5.41-7.79.52-14.33 2.07-15.83-5.29-7.26 2-16.25 2.12-16.34a.49.49 0 0 1 .7-.07.5.5 0 0 1 .07.7c-.08.09-7.14 8.77-1.82 15.45a.51.51 0 0 1 -.07.7c-.33.28-8.06 6.9-2 15.13a.5.5 0 0 1 0 .64s-3.92 4.19-3.59 9.08c.18 2.73 1.64 5.2 4.32 7.35a.5.5 0 0 1 -.31.89z" fill="#fff"/><path d="m324.87 226.32a.5.5 0 0 1 -.39-.18.52.52 0 0 1 .07-.71c2.69-2.15 4.14-4.62 4.33-7.35.33-4.89-3.56-9-3.6-9.08a.51.51 0 0 1 0-.64c6-8.23-1.69-14.85-2-15.13a.5.5 0 0 1 -.07-.7c5.32-6.68-1.75-15.36-1.82-15.45a.5.5 0 1 1 .77-.63c.07.09 7.4 9.08 2.11 16.34 1.56 1.5 7.48 8 2.07 15.83 1 1.1 3.9 4.93 3.59 9.52-.2 3-1.78 5.74-4.69 8.07a.45.45 0 0 1 -.37.11z" fill="#fff"/><path d="m301.54 228.91a.5.5 0 0 1 -.31-.89 5.64 5.64 0 0 0 2-3c.61-2.38-.62-5.14-3.05-6.88a.48.48 0 0 1 -.21-.37.49.49 0 0 1 .15-.4 9 9 0 0 0 2.75-5.84 9.36 9.36 0 0 0 -3.22-7.32.49.49 0 0 1 -.06-.7.51.51 0 0 1 .71-.06 10.23 10.23 0 0 1 3.57 8.13 9.9 9.9 0 0 1 -2.65 6.1 7.62 7.62 0 0 1 3 7.59 6.64 6.64 0 0 1 -2.34 3.48.45.45 0 0 1 -.34.16z" fill="#fff"/><path d="m176.72 228.91a.45.45 0 0 1 -.31-.11 6.64 6.64 0 0 1 -2.34-3.48 7.62 7.62 0 0 1 3-7.59 9.9 9.9 0 0 1 -2.65-6.1 10.23 10.23 0 0 1 3.58-8.13.5.5 0 1 1 .64.76 9.4 9.4 0 0 0 -3.22 7.32 9 9 0 0 0 2.75 5.84.51.51 0 0 1 -.05.77c-2.44 1.74-3.67 4.5-3.06 6.88a5.64 5.64 0 0 0 2 3 .5.5 0 0 1 .08.7.48.48 0 0 1 -.42.14z" fill="#fff"/><path d="m154.27 259.42s22.44 39.33 45 41.64 33.73-20.82 33.73-20.82 12.29 28.69 36.35 20.82 36.79-35.57 36.79-35.57-14.51-8.26-21.65-10.58c0 0-22.87 21.38-57.21 15.75s-48-19.16-48-19.16-16.86 2.55-25.01 7.92z" fill="#ff535c"/><g fill="#ff1a26"><path d="m397.28 130.47a15.79 15.79 0 1 0 15.79-15.79 15.78 15.78 0 0 0 -15.79 15.79zm6.68 0a9.11 9.11 0 1 1 9.11 9.11 9.11 9.11 0 0 1 -9.07-9.11z"/><rect height="9.19" rx="2.31" transform="matrix(-1 0 0 -1 826.13 227.96)" width="7.77" x="409.18" y="109.39"/><rect height="9.19" rx="2.31" transform="matrix(-1 0 0 -1 826.13 292.51)" width="7.77" x="409.18" y="141.66"/><rect height="9.19" rx="2.31" transform="matrix(0 1 -1 0 527.05 -266.81)" width="7.77" x="393.04" y="125.52"/><rect height="9.19" rx="2.31" transform="matrix(0 1 -1 0 559.32 -299.09)" width="7.77" x="425.32" y="125.52"/><rect height="9.19" rx="2.31" transform="matrix(.707 .707 -.707 .707 217.72 -242.56)" width="7.77" x="397.77" y="136.93"/><rect height="9.19" rx="2.31" transform="matrix(.707 .707 -.707 .707 208.27 -265.38)" width="7.77" x="420.59" y="114.11"/><rect height="9.19" rx="2.31" transform="matrix(-.707 .707 -.707 -.707 769.61 -81.37)" width="7.77" x="397.77" y="114.11"/><rect height="9.19" rx="2.31" transform="matrix(-.707 .707 -.707 -.707 824.7 -58.55)" width="7.77" x="420.59" y="136.93"/><path d="m415.64 86.29a18.78 18.78 0 1 0 18.78-18.78 18.78 18.78 0 0 0 -18.78 18.78zm7.94 0a10.84 10.84 0 1 1 10.84 10.84 10.84 10.84 0 0 1 -10.84-10.84z"/><rect height="10.93" rx="2.31" transform="matrix(-1 0 0 -1 868.83 133.36)" width="9.25" x="429.79" y="61.22"/><rect height="10.93" rx="2.31" transform="matrix(-1 0 0 -1 868.83 210.14)" width="9.25" x="429.79" y="99.61"/><rect height="10.93" rx="2.31" transform="matrix(0 1 -1 0 501.1 -329.34)" width="9.25" x="410.6" y="80.41"/><rect height="10.93" rx="2.31" transform="matrix(0 1 -1 0 539.49 -367.74)" width="9.25" x="448.99" y="80.41"/><rect height="10.93" rx="2.31" transform="matrix(.707 .707 -.707 .707 193.58 -268.45)" width="9.25" x="416.22" y="93.98"/><rect height="10.93" rx="2.31" transform="matrix(.707 .707 -.707 .707 182.34 -295.6)" width="9.25" x="443.37" y="66.84"/><rect height="10.93" rx="2.31" transform="matrix(-.707 .707 -.707 -.707 769.55 -174.15)" width="9.25" x="416.22" y="66.84"/><rect height="10.93" rx="2.31" transform="matrix(-.707 .707 -.707 -.707 835.09 -147)" width="9.25" x="443.37" y="93.98"/></g></g></svg>