<svg height="512" viewBox="0 0 512 512" width="512" xmlns="http://www.w3.org/2000/svg" xmlns:xlink="http://www.w3.org/1999/xlink"><clipPath id="clip-path"><path d="m159.25 155.19h57.21v109.94h-57.21z" transform="matrix(.958 .286 -.286 .958 67.98 -44.96)"/></clipPath><clipPath id="clip-path-2"><path d="m282.17 253.42h48.52v93.25h-48.52z" transform="matrix(-.975 -.221 .221 -.975 539.02 660.37)"/></clipPath><g id="Embrace"><path d="m267.27 191.64s-13.21 22-1.73 52.37-18.33 60.72-18.33 60.72l-50.64-22.73 15.43-96z" fill="#2d1929"/><path d="m187.86 223.37s35.14 2.09 49.14 34.63 53 70.81 53 70.81l-17.54 38.49-61.74-2.69-12.18-64.61z" fill="#e73f46"/><g clip-path="url(#clip-path)"><path d="m159.25 155.19h57.21v109.94h-57.21z" fill="#f5b493" transform="matrix(.958 .286 -.286 .958 67.98 -44.96)"/><path d="m172.36 165.56c1.75 28.78 20.91 50.5 47.32 59.91q3.27-14.39 6.55-28.77z" fill="#eba284"/></g><path d="m283.83 150.6c.73-12.1-.75-19.81 0-27.67 1.82-19.43 6.65-33.62-4.56-49.19a67.55 67.55 0 0 0 -12.07-15.27c-16.95-18.06-49.47-24.56-74.59-12.18-28.92 14.27-34.75 47-36.2 55.18-6.76 38 14.83 68.42 24.57 79.94a98.56 98.56 0 0 0 17.92 19.09c7.6 6.07 28 22.32 46.23 14.88 4.78-1.95 11.91-7.74 21.83-22.56 12.83-19.18 16.13-30.13 16.87-42.22z" fill="#f5b493"/><path d="m248.18 160.8c4.39-1.48 6.86-3.36 7.33-5.6.57-2.73-2.08-5-4.36-8.83-2.89-4.8-4.34-10.66-4.32-17.41a.5.5 0 0 1 1 0c-.06 18 9.88 20.61 8.65 26.44-.54 2.61-3.23 4.75-8 6.35a.5.5 0 0 1 -.3-.95z" fill="#2d1929"/><path d="m241.76 183.92c-.17 0-17.25-.38-23.09-13.89a.5.5 0 1 1 .91-.39c5.58 12.9 22 13.28 22.2 13.28a.5.5 0 0 1 0 1z" fill="#2d1929"/><path d="m278.16 110.47a1 1 0 0 1 -.64-.24c-10.07-8.55-21.29-2.26-21.76-2a1 1 0 1 1 -1-1.73c.13-.07 12.89-7.29 24.05 2.19a1 1 0 0 1 -.65 1.78z" fill="#2d1929"/><path d="m211.33 107.48a1 1 0 0 1 -.71-1.7c10.3-10.41 23.64-4.33 23.77-4.27a1 1 0 1 1 -.85 1.81c-.49-.23-12.21-5.53-21.5 3.86a1 1 0 0 1 -.71.3z" fill="#2d1929"/><path d="m181.58 221.07c-15-5.55-37.19-13.76-54.43-6.08-19.35 8.62-28.6 35.53-36.15 164.09-2.44 41.59-3.7 76.72-4.4 102.7l138.56.22a795.16 795.16 0 0 1 2.47-120.4c.23-2.33 2.47-15.55 4-33.51 3.37-39.49 5.05-59.23-4-74.79-11.23-19.3-31.7-26.92-46.05-32.23z" fill="#e73f46"/><g clip-path="url(#clip-path-2)"><path d="m282.17 253.42h48.52v93.25h-48.52z" fill="#e39c76" transform="matrix(-.975 -.221 .221 -.975 539.02 660.37)"/><path d="m336.45 273.53a45.05 45.05 0 0 1 -15.07 15.47c-19.42 11.89-41.09 3.72-44.1 2.53q3.2-8.71 6.4-17.42z" fill="#d48f6e"/></g><path d="m269.7 186.91c7.32-16.44 9.87-30 25.92-37.47a62.19 62.19 0 0 1 16.62-6.81c21.79-6.84 50.87 2.65 65.45 24 16.79 24.56 6.64 53.54 4.12 60.74-13.19 37.66-50.11 51-55.93 53.12a68.8 68.8 0 0 1 -20.17 4.13c-6.56.28-23.64 1-38.37-10.89a46.8 46.8 0 0 1 -15.73-23c-4-13.87.14-26.37 2.1-32.86 3.84-12.72 12.45-23.03 15.99-30.96z" fill="#e39c76"/><g fill="#2d1929"><path d="m280.85 234.29a.51.51 0 0 1 -.37-.17c-3.1-3.44-4.3-6.39-3.55-8.75 1.66-5.25 10.84-2.86 18.92-17.34a.5.5 0 0 1 .88.49c-8.2 14.68-17.4 12.58-18.85 17.15-.63 2 .49 4.62 3.35 7.78a.51.51 0 0 1 -.38.84z"/><path d="m282.57 204.83c-1.62 3.71-4.87 5.87-7.27 4.82s-3-4.9-1.42-8.6 4.87-5.87 7.27-4.83 3.03 4.9 1.42 8.61z"/><path d="m319.92 221.11c-1.61 3.71-4.87 5.87-7.27 4.82s-3-4.9-1.42-8.61 4.88-5.86 7.27-4.82 3.04 4.9 1.42 8.61z"/><path d="m299.69 188.34a1 1 0 0 1 -.86-.49c-.26-.43-6.4-10.53-18.31-8.22a1 1 0 0 1 -.38-2c13.32-2.58 20.34 9 20.41 9.16a1 1 0 0 1 -.86 1.55z"/><path d="m335.4 207.5a1 1 0 0 1 -1-.74c-3.17-11.69-14.93-12.76-15.4-12.76a1 1 0 0 1 -.92-1.08 1 1 0 0 1 1.07-.92c.14 0 13.66 1.17 17.25 14.25a1 1 0 0 1 -1 1.25z"/></g><path d="m238.93 348.9-13.11 34.57-29.25 21.82-14.46-21.4s-10.15-75-5.54-99.18 26.3 9.85 38.77 15.33 17-42 17-42z" fill="#cc3745"/><path d="m206.89 481.72c-.22-7.47-3.26-155.82 58-179.33 11.95-4.58 46.19-11.72 59.63 4.17 3.67 4.34 5.08 10.57 4.91 18.88-.54 25.86-21 156.49-21 156.49z" fill="#917eec"/><path d="m223.82 354.09s42.18 14.91 66.18 2.58-26.47 20.24-21.84 38.68 50.37 14.45 50.37 14.45-59.81 43.2-58.73 72.2h-52.91s-2.78-93.26 16.93-127.91z" fill="#6d5fde"/><path d="m114.14 237.4c4.08-6.41 13.56-21.29 28.19-22.41 12.23-.94 21.94 8.21 23.7 9.93 24.68 24.16-1.36 64.82 16.69 162.4l103.1-6.7q8.69 15.45 17.35 30.9a242.34 242.34 0 0 1 -72.53 30.1c-30.13 7.05-55.35 13-78.14 3.81-66.71-26.93-65.82-164.91-38.36-208.03z" fill="#e73f46"/><path d="m156.73 214.43s23.92 36.88 39.91 36.61c1.72 0 5.83-.15 9.19-3 5.61-4.78 4.67-13.44 4.5-14.87a66.65 66.65 0 0 0 -53.6-18.74z" fill="#f5b493"/><path d="m332.09 151.38s-30.16 23.64-56 20.18c0 0 11.33-34 26.24-40.17s35.51 4.76 35.51 4.76 46.9 5.17 60.72 42.14 4.87 101-63.19 98.21l26.87-47.18s-43.53-30.23-30.15-77.94z" fill="#efbd42"/><path d="m353.84 230.15c6.86-7.94 17.73-9.82 24.27-4.18s6.3 16.67-.56 24.62-17.72 9.83-24.26 4.19-6.29-16.67.55-24.63z" fill="#e39c76"/><path d="m356.73 245.85a6.19 6.19 0 0 1 -1.18-.09.49.49 0 0 1 -.39-.58.5.5 0 0 1 .58-.4c.19 0 4.51.81 6.28-3.13 1.21-2.7-3.58-5.25-3.63-5.27a.5.5 0 0 1 -.14-.78c.32-.36 8-8.95 14.81-6.27 5.9 2.33 3.38 9.09 3.35 9.16a.5.5 0 1 1 -.93-.36c.09-.24 2.18-5.9-2.79-7.87-5.28-2.09-11.6 3.84-13.27 5.56 1.41.86 4.82 3.33 3.51 6.24a6.46 6.46 0 0 1 -6.2 3.79z" fill="#2d1929"/><circle cx="412.32" cy="159.75" fill="#efbd42" r="33.24"/><path d="m272.47 243.18 27.22 2.18c-7.69 12.4-24.8 13.64-27.22-2.18z" fill="#e5e5e5"/><path d="m214.27 127.08a.5.5 0 1 1 .7-.71 11.89 11.89 0 0 0 17.05 0 .5.5 0 0 1 .71 0 .5.5 0 0 1 0 .7 12.88 12.88 0 0 1 -18.46.01z" fill="#2d1929"/><path d="m254.91 129a.5.5 0 1 1 .7-.71 11.88 11.88 0 0 0 17.05 0 .48.48 0 0 1 .7 0 .49.49 0 0 1 0 .7 12.87 12.87 0 0 1 -18.45.01z" fill="#2d1929"/><path d="m234 56.68c.5 2.85 4.13 25.57-12.12 43.73-12.35 13.81-31.56 19.8-50.12 15.76 0 0-5.49 25.27.63 49.39s-6.39 58.26-36.2 55.44-38.39 74.35-38.39 74.35c-27.9-27.72-29.8-42.35-26.67-50.54 7.85-20.54 51.41-11.37 63.43-35.24 8.86-17.59-10.87-30.37-14.64-65.06-4.37-40.22 14.49-93.5 53.82-108.43 7.42-2.82 26.43-8.4 54.62 1.8 21.21-7.14 44.3-1.12 57.83 14.82 16.27 19.2 15.91 49.48-2.37 70.23 4.97-35.55-13.67-69.36-49.82-66.25z" fill="#2d1929"/><path d="m181.32 119c-2.25-11.16-11.51-18.71-20.7-16.87s-14.81 12.4-12.57 23.56 11.52 18.71 20.7 16.86 14.82-12.37 12.57-23.55z" fill="#f5b493"/><path d="m171.42 132.81c-.06 0-5.47-1.88-5-7.37.32-3.46 4.91-3.94 6.65-4-.65-2.45-3.46-11.55-9.63-12.39-5.78-.8-6.82 5.71-6.87 6a.5.5 0 0 1 -1-.15c0-.08 1.23-7.76 8-6.83 7.79 1.07 10.5 13.25 10.61 13.77a.49.49 0 0 1 -.5.6c-.06 0-6-.14-6.27 3.1-.43 4.69 4.09 6.27 4.28 6.33a.5.5 0 0 1 -.27.94z" fill="#2d1929"/><path d="m144.46 203.63s23 38.12 57.61 67.39 99.82 18.45 117.83 31.45-8.76 74.44-57.18 60-127.39-36.38-147.54-143.25c0 0 6.42-23.16 29.28-15.59z" fill="#e39c76"/><path d="m193.42 263.31-30.37 49.46c19 18 58.32 49.89 107.59 52.94 24.94 1.54 35.69-5.34 40.66-9.49 14.26-11.88 21.57-35 13.56-48.52-7.86-13.25-26.26-10.7-58.28-17.35a267.77 267.77 0 0 1 -73.16-27.04z" fill="#917eec"/><path d="m96.63 314.62s0 101.51 34.14 123.74 76 8.1 76 8.1l.08 35.26h-120.24s.83-129.27 10.02-167.1z" fill="#cc3745"/><path d="m261.79 382.15 18.07-2.53c17.74-15.46 17.88-33.33 22.95-33.25 1.91 0 3.29 3.05 3.8 4.16 3.79 8.31-3.32 16.5-.73 18.79 2.26 2 10.07-2.11 14.91-7.41a27.72 27.72 0 0 0 6.42-12.38c6 1.57 6.36 8.35 3.16 13.65 4.28 3.16 3.73 8.71.29 12.69 0 0 5.72 1.22.57 9.9 0 0 4.29 1.8.13 9.21-4.62 8.25-7 12.36-12.26 16.13a35.11 35.11 0 0 1 -21.89 6.28l-19.47 7.91a56.14 56.14 0 0 1 -15.95-43.15z" fill="#f5b493"/><path d="m105.22 227.46s-.26-9.89 6-11.79c0 0-1-8.15 4.61-7.73 0 0 1-6.11 6.91-5.83a7.23 7.23 0 0 1 7.32-3.25c5.15.68 5.17-.05 5.15-3.66s-2-8.95.95-10.44 13.07 19 13.92 27.53-32 20.29-32 20.29c-2.32-5.02-7.86-6.58-12.86-5.12z" fill="#e39c76"/><path d="m322.15 375a.5.5 0 0 1 -.32-.89 27.13 27.13 0 0 0 8.07-11.11.5.5 0 1 1 .94.36 28.33 28.33 0 0 1 -8.37 11.54.51.51 0 0 1 -.32.1z" fill="#2d1929"/><path d="m325.54 383.38a.5.5 0 0 1 -.37-.84 50.08 50.08 0 0 0 5.5-7.33.49.49 0 0 1 .68-.17.5.5 0 0 1 .17.69 50.35 50.35 0 0 1 -5.61 7.48.51.51 0 0 1 -.37.17z" fill="#2d1929"/><path d="m325.31 392.19a10.91 10.91 0 0 0 5.44-6.57.5.5 0 0 1 1 .29 11.9 11.9 0 0 1 -5.94 7.17.5.5 0 0 1 -.5-.89z" fill="#2d1929"/><path d="m182.11 383.89s-26 15.46-35.36 34.09c0 0 24.88-23.84 45.37-32.14 0 0-3.05-6.58-10.01-1.95z" fill="#cc3745"/><path d="m352.71 209.92s-22.51 23.62-16.19 49.76c0 0 22.26-34.77 30.36-40.75s-14.17-9.01-14.17-9.01z" fill="#efbd42"/></g></svg>