<svg height="512" viewBox="0 0 512 512" width="512" xmlns="http://www.w3.org/2000/svg" xmlns:xlink="http://www.w3.org/1999/xlink"><clipPath id="clip-path"><path d="m215.02 168.64h54.24v115.85h-54.24z"/></clipPath><g id="Pregnant"><path d="m305 125.68s6.46 40.86 22.85 67.78-15.65 31.09 4.31 58.94-37.5 58.16-37.5 58.16l-52.5-29.84 7.48-107.72z" fill="#2d1929"/><g clip-path="url(#clip-path)"><path d="m215.02 168.64h54.24v115.85h-54.24z" fill="#955d43"/><path d="m217.87 189.78s7.55 42.71 55.23 48.75v-33.8z" fill="#834a27"/></g><path d="m318.59 148.07c-1.56-12.44-4.54-20-5.29-28.13-1.85-20.11.35-35.46-14-49.15a69.9 69.9 0 0 0 -15.2-13.22c-20.68-15.13-55-15.54-78.16 1.84-26.69 20-26.37 54.46-26.29 63 .38 39.94 28.12 66.74 40.23 76.59a102.26 102.26 0 0 0 21.87 16c8.89 4.72 32.69 17.35 49.84 6.3 4.49-2.88 10.64-10.13 17.9-27.1 9.38-21.93 10.65-33.7 9.1-46.13z" fill="#955d43"/><g fill="#2d1929"><path d="m284.3 165.26c4.19-2.35 6.33-4.74 6.38-7.12.12-5.48-10.39-6.39-13.82-25a.5.5 0 1 1 1-.18c3.37 18.32 14 19.05 13.84 25.22-.05 2.76-2.38 5.44-6.9 8a.5.5 0 1 1 -.5-.92z"/><path d="m299.15 142.07c-2.93.24-5.6-3.22-6-7.74s1.68-8.39 4.61-8.63 5.6 3.22 6 7.74-1.69 8.38-4.61 8.63z"/><path d="m253.6 145.88c-2.92.24-5.6-3.22-6-7.74s1.69-8.39 4.61-8.63 5.61 3.22 6 7.74-1.68 8.38-4.61 8.63z"/><path d="m277.67 190.26c-5.79 0-15.8-1.38-21.63-10a.5.5 0 0 1 .14-.69.49.49 0 0 1 .69.13c8.13 12.07 24.95 9.3 25.13 9.3a.51.51 0 0 1 .58.41.5.5 0 0 1 -.4.58 30 30 0 0 1 -4.51.27z"/><path d="m281.3 110.57a1 1 0 0 1 -.66-1.76c.12-.1 11.7-9.85 24.84-2.35a1 1 0 0 1 -1 1.74c-11.89-6.79-22.11 1.76-22.54 2.13a1 1 0 0 1 -.64.24z"/><path d="m236.48 115a1 1 0 0 1 -.75-1.65c9.91-11.42 24.07-6 24.21-6a1 1 0 0 1 .57 1.3 1 1 0 0 1 -1.3.57c-.53-.21-13-4.9-22 5.44a1 1 0 0 1 -.73.34z"/></g><path d="m225.37 237.57a40.29 40.29 0 0 0 -18.08 3.36c-15.29 6.94-30.79 26.67-40.19 121.34a1022.78 1022.78 0 0 0 -4.83 118.73l184.49-.08c25.07-49.66 18.9-109.1-33.65-128.21-.26-8.49-.67-20-1.31-33.53-2-42.05-3.91-50.07-9.71-58.18-7-9.83-16.92-13.49-29.13-18a99.83 99.83 0 0 0 -47.59-5.43z" fill="#efbd42"/><path d="m305.4 271.07s10.34 19.06 18.12 31.66 5.18 47.43-9.06 56.39-32.04-72.39-9.06-88.05z" fill="#efbd42"/><path d="m162.12 433.14.15 47.81h184.49s-164.9-29.3-184.64-47.81z" fill="#d7981a"/><path d="m236.48 236.75c-10.11-1.59-37.92-4.59-58.74 12.56-11.9 9.79-16.67 22.17-20.12 32.33-22.15 65.44-35.32 100.34-17 130.27 12.84 21 34.89 29.58 73.64 44.72a302.45 302.45 0 0 0 61.74 16.82l15.2-27.5-96.11-63.12 29.7-101.49c20.26-7.34 28.97-29.95 11.69-44.59z" fill="#955d43"/><path d="m215.1 235.54c-17.78-.44-31.78 5.37-40.48 13.43-10.49 9.72-14.62 20.87-17.46 29.19-5.09 14.9-10.63 32.53-15.95 52.68 17.21 15.76 40.87 24.55 65.3 21.66l20.74-68.07c10.42-5.65 24.4-20.48 22.14-31.87-1.93-9.77-16.05-18.19-34.29-17.02z" fill="#efbd42"/><path d="m215 235.89s26.09 28.35 41.44 24.4 12.8-18.84 12.8-18.84-26.61-18.01-54.24-5.56z" fill="#955d43"/><path d="m282.87 444s13.09-2.11 19.55-2.75 17.3-7.92 19.24-6.31-1.13 9.06-8.08 12.13.48 8 5.45 10.82 22.18-1.45 22.91 1.22-9.58 6.3-9.58 6.3 12.25-3 13.7-1.33-9.7 6.54-9.7 6.54 7.52-.85 8.61 0-.36 1.66-.36 1.66c-23.24 11.84-49.25 9.76-73.22 0-3.65-11.83-1.39-22.39 4.84-26.52a11.53 11.53 0 0 1 6.64-1.76z" fill="#955d43"/><path d="m280.53 475.6a115.28 115.28 0 0 0 40.2 5.71c21.94-1 28.85-6.79 11.88-6.67s-31-1.21-31-1.21z" fill="#955d43"/><path d="m319.46 360.86a118.11 118.11 0 0 0 -39.77-.31c-15.34 2.53-28.63 7.91-28.31 9.28.39 1.66 19.9-5.32 46.73-1.85 9.66 1.24 21.69 2.8 33.72 10.52 18.88 12.11 25.9 31.78 28.37 40.49 2.26-22.66-8.65-42.77-27.13-55z" fill="#d7981a"/><path d="m323.48 335.67c-2 0-4.27.7-8.4-.06-4-.73-6.76-2.3-7.93-.9-.71.86-.41 2.35-.3 2.89.88 4.35 6.4 6.92 9.32 8.28 2.67 1.25 3.13 1 3.6 1.95.68 1.34-1.35 8.62-8 13-6.95 4.63-16.15 4.24-21.28 8.59-.44.37-1 .95-.94 1.53.3 1.66 6 2 11.24 2.08-1.67.24-8.22 1.31-10.8 4.82a1.49 1.49 0 0 0 -.42 1.2c.38 1.75 6.07 2 11 1.86-2.06.64-4.94 1.89-6.37 4.27-1.22 2-.61 2.76 1.77 2.49 4.1-.46 12.71-1.91 13.78-2.1-.89.21-4.45 1.12-5.71 4a2.15 2.15 0 0 0 -.23 1.81c.7 1.27 4 .76 6.69.2 8.8-1.84 13.21-2.77 18-6 3.16-2.11 16.45-11.81 15-26.78-1.22-12.8-12.66-23.02-20.02-23.13z" fill="#955d43"/><path d="m261.2 59.32s-9.58.46-19 33.42-46.62 38.85-46.62 38.85c.45 9.17 2.45 22.67 10.6 35.87 6.07 9.84 9.61 9.89 13.62 17.95 8.62 17.35 5.81 44.44-8.25 53.91-10.06 6.77-17.72-1.21-31 6.48-8.85 5.14-12.95 13-19 24.71-6.47 12.42-7 18.77-22 66.25-4.14-.14-14.58-1.1-23-8.93-10.24-9.56-14.62-26.7-9-37.37 2.71-5.2 8-9.17 8.48-17.53a20.73 20.73 0 0 0 -.59-6.62c-3.72-13.44-29.24-31.54-14.86-56.14s34.35-19.33 33.89-44.48-9.29-45 18.1-61.09 10.67-50.85 35.74-67.1 78.44 5.11 78.44 5.11 21.35-16.25 45 9.28 1.25 64.59 1.25 64.59a76.12 76.12 0 0 0 -2.91-15.74c-1.59-5.32-4.91-16.5-13.46-25.64-12.53-13.39-29.7-15.37-35.43-15.78z" fill="#2d1929"/><path d="m208.34 135.5c-4.42-10.91-15.28-16.82-24.27-13.19s-12.69 15.43-8.28 26.35 15.27 16.83 24.26 13.19 12.7-15.43 8.29-26.35z" fill="#955d43"/><path d="m200.9 151.4c-.06 0-5.91-.87-6.44-6.53-.34-3.57 4.26-4.94 6-5.32-1.11-2.34-5.67-11.13-12.17-10.79-6.06.3-5.87 7.12-5.86 7.41a.5.5 0 0 1 -1 0c0-.08-.24-8.1 6.81-8.45 8.14-.38 13.19 11.46 13.4 12a.5.5 0 0 1 -.38.69c-.06 0-6.13 1-5.81 4.36.47 4.89 5.53 5.63 5.58 5.64a.5.5 0 0 1 -.13.99z" fill="#2d1929"/><path d="m203.86 352.77 12.25-45.6s10.44-13.92 9.51-31.56c0 0 7.06 17-6.33 34.95z" fill="#d7981a"/><path d="m299.37 372.66c.09 0 8.65-.92 13.59-4.06a.5.5 0 0 1 .54.84c-5.15 3.28-13.66 4.18-14 4.22a.5.5 0 0 1 -.13-1z" fill="#2d1929"/><path d="m299.41 380.52c.1 0 9.8-.33 16.56-4.73a.51.51 0 0 1 .69.15.5.5 0 0 1 -.14.69c-7 4.55-16.67 4.88-17.08 4.89a.5.5 0 0 1 -.03-1z" fill="#2d1929"/><path d="m309.74 385.11c.07 0 7.24-1 12.57-4.51a.5.5 0 0 1 .55.84c-5.53 3.66-12.69 4.62-13 4.66a.5.5 0 0 1 -.12-.99z" fill="#2d1929"/><path d="m324.83 477.92a.5.5 0 0 1 -.08-1l14.64-2.33a.5.5 0 0 1 .16 1c-15.13 2.41-14.62 2.33-14.72 2.33z" fill="#2d1929"/><path d="m326.34 473.14a.5.5 0 0 1 -.11-1l10.77-2.33a.5.5 0 0 1 .21 1c-11.41 2.46-10.77 2.33-10.87 2.33z" fill="#2d1929"/><path d="m322.28 468.5a.5.5 0 0 1 -.12-1l10.08-2.5a.5.5 0 1 1 .25 1c-10.79 2.66-10.11 2.5-10.21 2.5z" fill="#2d1929"/><path d="m195.07 382.83s-15.15-4.07-32.95 9.41c0 0 24.15-5.82 44.64-1.73z" fill="#834a27"/><path d="m379.69 145.34c3.56-21.52-.64-41.23-9.79-44.75-6-2.32-12 3.46-12.62 4.06-6.62 6.55-10.23 18.49-11.14 26.4-3.4 29.32 24.51 59.36 24.51 59.36 2.25-1.82 46.78-38.43 47.59-68 .2-7.24-2.63-15.09-8.51-15.32-8.95-.32-21.89 16.37-30.04 38.25z" fill="#e73f46"/><path d="m402.58 191.52s15.9-12.07 18.91-3.12c2.78 8.3-12.11 19.62-31.18 21.07 0 0-3.8-23.31 2.95-27.07 7.26-4.05 10.06 7.29 9.32 9.12z" fill="#e73f46"/></g></svg>