<svg height="512" viewBox="0 0 512 512" width="512" xmlns="http://www.w3.org/2000/svg"><g id="Lipstick"><path d="m156.88 67.77h72.38v215h-72.38z" fill="#cc3745" transform="matrix(.99 .11 -.11 .99 19.99 -19.77)"/><path d="m114.22 274.64h115.6v189.96h-115.6z" fill="#2d1929" transform="matrix(.994 .108 -.108 .994 40.79 -16.37)"/><path d="m124.95 253.05h115.6v35.07h-115.6z" fill="#efbd42" transform="matrix(.994 .108 -.108 .994 30.19 -18.1)"/><path d="m144.32 155.09h88.07v127.42h-88.07z" fill="#efbd42" transform="matrix(.994 .108 -.108 .994 24.65 -19.01)"/><ellipse cx="195.21" cy="155.46" fill="#d7981a" rx="7.34" ry="44.04" transform="matrix(.108 -.994 .994 .108 19.64 332.8)"/><ellipse cx="204.83" cy="66.68" fill="#cc3745" rx="34.66" ry="36.19" transform="matrix(.108 -.994 .994 .108 116.48 263.14)"/><path d="m207.77 39.52c-21-2.28-37.13 17-30.14 35.91a29 29 0 0 0 24.25 18.41c15.82 1.71 30-9.08 31.63-24s-9.93-28.61-25.74-30.32z" fill="#e73f46"/><ellipse cx="195.64" cy="151.51" fill="#cc3745" rx="6.52" ry="36.19" transform="matrix(.108 -.994 .994 .108 23.95 329.7)"/><path d="m176.66 84.34-6.76 62.43a38.93 38.93 0 0 0 16.24 5.76q2.94-26.73 5.87-53.45a22.61 22.61 0 0 1 -15.35-14.74z" fill="#e5e5e5"/><ellipse cx="184.63" cy="253.16" fill="#d7981a" rx="7.95" ry="57.8" transform="matrix(.108 -.994 .994 .108 -86.93 409.46)"/><ellipse cx="185.25" cy="247.48" fill="#efbd42" rx="6.55" ry="44.04" transform="matrix(.108 -.994 .994 .108 -80.74 405.01)"/><path d="m163.63 169.01h21.64v72.58h-21.64z" fill="#e5e5e5" transform="matrix(.994 .108 -.108 .994 23.12 -17.59)"/><ellipse cx="180.86" cy="288.02" fill="#efbd42" rx="8.92" ry="57.8" transform="matrix(.108 -.994 .994 .108 -124.96 436.82)"/><path d="m155.95 263.6h21.64v25.18h-21.64z" fill="#e5e5e5" transform="matrix(.994 .108 -.108 .994 30.7 -16.35)"/><ellipse cx="161.79" cy="464.05" fill="#2d1929" rx="13.61" ry="57.8" transform="matrix(.108 -.994 .994 .108 -316.98 574.95)"/><path d="m144.28 312.55h26.1v143.12h-26.1z" fill="#e5e5e5" transform="matrix(.994 .108 -.108 .994 42.27 -14.71)"/><path d="m273.63 274.83h115.6v189.96h-115.6z" fill="#2d1929" transform="matrix(-.97 .23 -.23 -.97 739.38 652.98)"/><ellipse cx="309.48" cy="277.4" fill="#2d1929" rx="57.8" ry="13.61" transform="matrix(.973 -.231 .231 .973 -55.75 79.06)"/><path d="m341.91 278.72h26.1v143.12h-26.1z" fill="#e5e5e5" transform="matrix(-.973 .231 -.231 -.973 781.27 609.02)"/><ellipse cx="353.4" cy="461.11" fill="#efbd42" rx="57.97" ry="15.62" transform="matrix(.969 -.248 .248 .969 -103.46 102.23)"/><path d="m306 476a3 3 0 0 1 -1.23-5.22c17.72-15.82 74.72-29.87 96.07-24.52a3 3 0 0 1 1.22 5.22c-17.86 15.92-74.89 29.82-96.06 24.52z" fill="#d7981a"/></g></svg>