<svg height="512" viewBox="0 0 512 512" width="512" xmlns="http://www.w3.org/2000/svg" xmlns:xlink="http://www.w3.org/1999/xlink"><clipPath id="clip-path"><ellipse cx="145.91" cy="290.63" rx="61.24" ry="73.88"/></clipPath><clipPath id="clip-path-2"><path d="m190.56 164.6h94.82v110.23h-94.82z"/></clipPath><clipPath id="clip-path-3"><path d="m190.56 274.83h94.82v110.23h-94.82z"/></clipPath><clipPath id="clip-path-4"><path d="m95.74 164.6h94.82v110.23h-94.82z"/></clipPath><clipPath id="clip-path-5"><path d="m95.74 274.83h94.82v110.23h-94.82z"/></clipPath><clipPath id="clip-path-6"><path d="m.92 164.6h94.82v110.23h-94.82z"/></clipPath><clipPath id="clip-path-7"><path d="m.92 274.83h94.82v110.23h-94.82z"/></clipPath><clipPath id="clip-path-8"><circle cx="144.52" cy="141.41" r="48.26"/></clipPath><clipPath id="clip-path-9"><ellipse cx="288.56" cy="333.93" rx="50.73" ry="61.2"/></clipPath><clipPath id="clip-path-10"><path d="m325.54 229.52h78.55v91.32h-78.55z"/></clipPath><clipPath id="clip-path-11"><path d="m325.54 320.83h78.55v91.32h-78.55z"/></clipPath><clipPath id="clip-path-12"><path d="m246.99 229.52h78.55v91.32h-78.55z"/></clipPath><clipPath id="clip-path-13"><path d="m246.99 320.83h78.55v91.32h-78.55z"/></clipPath><clipPath id="clip-path-14"><path d="m168.44 229.52h78.55v91.32h-78.55z"/></clipPath><clipPath id="clip-path-15"><path d="m168.44 320.83h78.55v91.32h-78.55z"/></clipPath><clipPath id="clip-path-16"><circle cx="287.4" cy="210.31" r="39.98"/></clipPath><clipPath id="clip-path-17"><ellipse cx="407.06" cy="373.82" rx="38.47" ry="46.41"/></clipPath><clipPath id="clip-path-18"><path d="m435.1 294.64h59.57v69.25h-59.57z"/></clipPath><clipPath id="clip-path-19"><path d="m435.1 363.89h59.57v69.25h-59.57z"/></clipPath><clipPath id="clip-path-20"><path d="m375.54 294.64h59.57v69.25h-59.57z"/></clipPath><clipPath id="clip-path-21"><path d="m375.54 363.89h59.57v69.25h-59.57z"/></clipPath><clipPath id="clip-path-22"><path d="m315.97 294.64h59.57v69.25h-59.57z"/></clipPath><clipPath id="clip-path-23"><path d="m315.97 363.89h59.57v69.25h-59.57z"/></clipPath><clipPath id="clip-path-24"><circle cx="406.18" cy="280.07" r="30.32"/></clipPath><g id="Matryoshka"><path d="m223.21 379.06a31.38 31.38 0 0 1 -16.78 13.29 192.87 192.87 0 0 1 -122.79-.15 31.78 31.78 0 0 1 -16.32-12.41c-37.81-56.45-33.77-130.24 10.57-181a31.75 31.75 0 0 1 23.91-10.89h86.2a31.69 31.69 0 0 1 24.64 11.76c42.02 51.88 44.99 123.76 10.57 179.4z" fill="#917eec"/><path d="m82.21 245.31c-3.14 5.12-9 1.62-10 8.95-.5 3.42 7.53 8.48 7.11 13-.35 3.72-9.22 7.18-9.39 11.42-.15 3.85 8.4 8 8.49 12.09.08 3.93-8.3 8.44-7.92 12.49s9.38 6.74 10.1 10.74-6.75 9.84-5.62 13.67 10.55 4.68 12.18 8.31-4 11.35-1.75 14.68 11.36 1 14.22 3.86.53 12 4 14.18c3.25 2.08 10.67-3.76 14.58-2.27 3.56 1.36 5.07 10.7 9.22 11.49 3.73.71 8.71-7.35 12.94-7.15s8.12 8.72 11.79 8.42c4.07-.33 6.53-9.42 10.12-10.3 3.95-1 10.4 5.87 13.8 4.33 3.65-1.66 2.69-11 5.76-13.24s11.76 1.52 14.38-1.3-1.73-11.21.39-14.46 11.49-2.48 13.14-6-4.91-10.32-3.69-14 10.56-5.12 11.43-8.87-6.83-9.3-6.26-13.06c.61-4 9.6-6.83 9.92-10.55.35-4.1-8-8.49-7.95-12.11.12-4.36 8.69-8.31 8.59-11.66-.22-7.17-7.29-4.6-9.12-10.13s5.15-8 .72-13.27c-2.1-2.51-10.95.53-14-2.38-2.56-2.43.06-11.49-3.18-13.87-2.9-2.15-10.71 3-14.16 1.12-3.2-1.76-3.07-11.17-6.73-12.53-3.43-1.28-9.44 5.9-13.27 5.11-3.57-.74-6.21-9.76-10.14-10-3.62-.2-7.24 8.45-11.17 8.8-3.6.33-8.66-7.58-12.52-6.72-3.53.78-4.83 10.07-8.57 11.36-3.42 1.18-10.11-5.42-13.71-3.78-3.3 1.5-2.8 10.88-6.24 12.8-3.18 1.76-10.86-3.65-14.15-1.5-3.09 2.02-.18 10.02-3.34 12.33z" fill="#d7981a"/><ellipse cx="145.91" cy="290.63" fill="#efbd42" rx="61.24" ry="73.88"/><g clip-path="url(#clip-path)"><g clip-path="url(#clip-path-2)"><path d="m313.63 273.51a13.53 13.53 0 0 0 -13.63-13.51 13.54 13.54 0 0 0 -26.68-4.41 13.54 13.54 0 0 0 -11.73 23.32 13.54 13.54 0 1 0 19.33 18.89 13.54 13.54 0 0 0 24.34-11.8 13.54 13.54 0 0 0 8.37-12.49z" fill="#e5e5e5"/><circle cx="285.73" cy="276.89" fill="#efbd42" r="8.05"/><path d="m218.81 273.51a13.53 13.53 0 0 0 -13.64-13.51 13.54 13.54 0 0 0 -26.68-4.41 13.54 13.54 0 0 0 -11.73 23.32 13.54 13.54 0 1 0 19.33 18.89 13.54 13.54 0 0 0 24.35-11.8 13.54 13.54 0 0 0 8.37-12.49z" fill="#e5e5e5"/><circle cx="190.91" cy="276.89" fill="#efbd42" r="8.05"/><path d="m266.22 218.39a13.55 13.55 0 0 0 -13.64-13.54 13.54 13.54 0 0 0 -26.68-4.41 13.54 13.54 0 0 0 -11.73 23.32 13.54 13.54 0 1 0 19.33 18.9 13.54 13.54 0 0 0 24.35-11.75 13.56 13.56 0 0 0 8.37-12.52z" fill="#e5e5e5"/><circle cx="238.32" cy="221.78" fill="#efbd42" r="8.05"/><path d="m313.63 163.28a13.53 13.53 0 0 0 -13.63-13.54 13.54 13.54 0 0 0 -26.68-4.41 13.54 13.54 0 0 0 -11.73 23.32 13.54 13.54 0 1 0 19.33 18.9 13.54 13.54 0 0 0 24.35-11.76 13.54 13.54 0 0 0 8.36-12.51z" fill="#e5e5e5"/><circle cx="285.73" cy="166.66" fill="#efbd42" r="8.05"/><path d="m218.81 163.28a13.53 13.53 0 0 0 -13.64-13.54 13.54 13.54 0 0 0 -26.68-4.41 13.54 13.54 0 0 0 -11.73 23.32 13.54 13.54 0 1 0 19.33 18.9 13.54 13.54 0 0 0 24.35-11.76 13.54 13.54 0 0 0 8.37-12.51z" fill="#e5e5e5"/><circle cx="190.91" cy="166.66" fill="#efbd42" r="8.05"/></g><g clip-path="url(#clip-path-3)"><path d="m313.63 383.74a13.53 13.53 0 0 0 -13.63-13.54 13.54 13.54 0 0 0 -26.68-4.42 13.54 13.54 0 0 0 -11.73 23.32 13.54 13.54 0 1 0 19.32 18.9 13.54 13.54 0 0 0 24.35-11.75 13.55 13.55 0 0 0 8.37-12.51z" fill="#e5e5e5"/><circle cx="285.73" cy="387.12" fill="#efbd42" r="8.05"/><path d="m218.81 383.74a13.53 13.53 0 0 0 -13.64-13.54 13.54 13.54 0 0 0 -26.68-4.42 13.54 13.54 0 0 0 -11.73 23.32 13.54 13.54 0 1 0 19.33 18.9 13.54 13.54 0 0 0 24.35-11.75 13.55 13.55 0 0 0 8.37-12.51z" fill="#e5e5e5"/><circle cx="190.91" cy="387.12" fill="#efbd42" r="8.05"/><path d="m266.22 328.62a13.54 13.54 0 0 0 -13.64-13.54 13.54 13.54 0 0 0 -26.68-4.41 13.54 13.54 0 0 0 -11.73 23.33 13.54 13.54 0 1 0 19.33 18.9 13.54 13.54 0 0 0 24.35-11.76 13.53 13.53 0 0 0 8.37-12.52z" fill="#e5e5e5"/><circle cx="238.32" cy="332.01" fill="#efbd42" r="8.05"/><path d="m313.63 273.51a13.53 13.53 0 0 0 -13.63-13.51 13.54 13.54 0 0 0 -26.68-4.41 13.54 13.54 0 0 0 -11.73 23.32 13.54 13.54 0 1 0 19.33 18.89 13.54 13.54 0 0 0 24.34-11.8 13.54 13.54 0 0 0 8.37-12.49z" fill="#e5e5e5"/><circle cx="285.73" cy="276.89" fill="#efbd42" r="8.05"/><path d="m218.81 273.51a13.53 13.53 0 0 0 -13.64-13.51 13.54 13.54 0 0 0 -26.68-4.41 13.54 13.54 0 0 0 -11.73 23.32 13.54 13.54 0 1 0 19.33 18.89 13.54 13.54 0 0 0 24.35-11.8 13.54 13.54 0 0 0 8.37-12.49z" fill="#e5e5e5"/><circle cx="190.91" cy="276.89" fill="#efbd42" r="8.05"/></g><g clip-path="url(#clip-path-4)"><path d="m218.81 273.51a13.53 13.53 0 0 0 -13.64-13.51 13.54 13.54 0 0 0 -26.68-4.41 13.54 13.54 0 0 0 -11.73 23.32 13.54 13.54 0 1 0 19.33 18.89 13.54 13.54 0 0 0 24.35-11.8 13.54 13.54 0 0 0 8.37-12.49z" fill="#e5e5e5"/><circle cx="190.91" cy="276.89" fill="#efbd42" r="8.05"/><path d="m124 273.51a13.53 13.53 0 0 0 -13.65-13.51 13.54 13.54 0 0 0 -26.68-4.41 13.54 13.54 0 0 0 -11.73 23.32 13.54 13.54 0 1 0 19.33 18.89 13.54 13.54 0 0 0 24.35-11.8 13.54 13.54 0 0 0 8.38-12.49z" fill="#e5e5e5"/><circle cx="96.09" cy="276.89" fill="#efbd42" r="8.05"/><path d="m171.4 218.39a13.55 13.55 0 0 0 -13.64-13.54 13.54 13.54 0 0 0 -26.68-4.41 13.54 13.54 0 0 0 -11.73 23.32 13.54 13.54 0 1 0 19.33 18.9 13.54 13.54 0 0 0 24.32-11.75 13.56 13.56 0 0 0 8.4-12.52z" fill="#e5e5e5"/><circle cx="143.5" cy="221.78" fill="#efbd42" r="8.05"/><path d="m218.81 163.28a13.53 13.53 0 0 0 -13.64-13.54 13.54 13.54 0 0 0 -26.68-4.41 13.54 13.54 0 0 0 -11.73 23.32 13.54 13.54 0 1 0 19.33 18.9 13.54 13.54 0 0 0 24.35-11.76 13.54 13.54 0 0 0 8.37-12.51z" fill="#e5e5e5"/><circle cx="190.91" cy="166.66" fill="#efbd42" r="8.05"/><path d="m124 163.28a13.53 13.53 0 0 0 -13.64-13.54 13.54 13.54 0 0 0 -26.68-4.41 13.54 13.54 0 0 0 -11.73 23.32 13.54 13.54 0 1 0 19.33 18.9 13.54 13.54 0 0 0 24.35-11.76 13.54 13.54 0 0 0 8.37-12.51z" fill="#e5e5e5"/><circle cx="96.09" cy="166.66" fill="#efbd42" r="8.05"/></g><g clip-path="url(#clip-path-5)"><path d="m218.81 383.74a13.53 13.53 0 0 0 -13.64-13.54 13.54 13.54 0 0 0 -26.68-4.42 13.54 13.54 0 0 0 -11.73 23.32 13.54 13.54 0 1 0 19.33 18.9 13.54 13.54 0 0 0 24.35-11.75 13.55 13.55 0 0 0 8.37-12.51z" fill="#e5e5e5"/><circle cx="190.91" cy="387.12" fill="#efbd42" r="8.05"/><path d="m124 383.74a13.53 13.53 0 0 0 -13.64-13.54 13.54 13.54 0 0 0 -26.68-4.42 13.54 13.54 0 0 0 -11.74 23.32 13.54 13.54 0 1 0 19.33 18.9 13.54 13.54 0 0 0 24.35-11.75 13.55 13.55 0 0 0 8.38-12.51z" fill="#e5e5e5"/><circle cx="96.09" cy="387.12" fill="#efbd42" r="8.05"/><path d="m171.4 328.62a13.54 13.54 0 0 0 -13.64-13.54 13.54 13.54 0 0 0 -26.68-4.41 13.54 13.54 0 0 0 -11.73 23.33 13.54 13.54 0 1 0 19.33 18.9 13.54 13.54 0 0 0 24.32-11.77 13.53 13.53 0 0 0 8.4-12.51z" fill="#e5e5e5"/><circle cx="143.5" cy="332.01" fill="#efbd42" r="8.05"/><path d="m218.81 273.51a13.53 13.53 0 0 0 -13.64-13.51 13.54 13.54 0 0 0 -26.68-4.41 13.54 13.54 0 0 0 -11.73 23.32 13.54 13.54 0 1 0 19.33 18.89 13.54 13.54 0 0 0 24.35-11.8 13.54 13.54 0 0 0 8.37-12.49z" fill="#e5e5e5"/><circle cx="190.91" cy="276.89" fill="#efbd42" r="8.05"/><path d="m124 273.51a13.53 13.53 0 0 0 -13.65-13.51 13.54 13.54 0 0 0 -26.68-4.41 13.54 13.54 0 0 0 -11.73 23.32 13.54 13.54 0 1 0 19.33 18.89 13.54 13.54 0 0 0 24.35-11.8 13.54 13.54 0 0 0 8.38-12.49z" fill="#e5e5e5"/><circle cx="96.09" cy="276.89" fill="#efbd42" r="8.05"/></g><g clip-path="url(#clip-path-6)"><path d="m124 273.51a13.53 13.53 0 0 0 -13.65-13.51 13.54 13.54 0 0 0 -26.68-4.41 13.54 13.54 0 0 0 -11.73 23.32 13.54 13.54 0 1 0 19.33 18.89 13.54 13.54 0 0 0 24.35-11.8 13.54 13.54 0 0 0 8.38-12.49z" fill="#e5e5e5"/><circle cx="96.09" cy="276.89" fill="#efbd42" r="8.05"/><path d="m29.17 273.51a13.53 13.53 0 0 0 -13.63-13.51 13.54 13.54 0 0 0 -26.69-4.41 13.55 13.55 0 0 0 -16.18 13.28 13.5 13.5 0 0 0 4.46 10 13.47 13.47 0 0 0 -4.46 10 13.54 13.54 0 0 0 13.54 13.54 13.52 13.52 0 0 0 10.24-4.69 13.54 13.54 0 0 0 24.35-11.72 13.54 13.54 0 0 0 8.37-12.49z" fill="#e5e5e5"/><circle cx="1.27" cy="276.89" fill="#efbd42" r="8.05"/><path d="m76.58 218.39a13.55 13.55 0 0 0 -13.64-13.54 13.54 13.54 0 0 0 -26.68-4.41 13.54 13.54 0 0 0 -11.72 23.32 13.54 13.54 0 1 0 19.32 18.9 13.54 13.54 0 0 0 24.35-11.75 13.56 13.56 0 0 0 8.37-12.52z" fill="#e5e5e5"/><circle cx="48.68" cy="221.78" fill="#efbd42" r="8.05"/><path d="m124 163.28a13.53 13.53 0 0 0 -13.64-13.54 13.54 13.54 0 0 0 -26.68-4.41 13.54 13.54 0 0 0 -11.73 23.32 13.54 13.54 0 1 0 19.33 18.9 13.54 13.54 0 0 0 24.35-11.76 13.54 13.54 0 0 0 8.37-12.51z" fill="#e5e5e5"/><circle cx="96.09" cy="166.66" fill="#efbd42" r="8.05"/><path d="m29.17 163.28a13.53 13.53 0 0 0 -13.63-13.54 13.54 13.54 0 0 0 -26.69-4.41 13.55 13.55 0 0 0 -16.18 13.28 13.5 13.5 0 0 0 4.46 10 13.5 13.5 0 0 0 -4.46 10 13.54 13.54 0 0 0 13.54 13.54 13.54 13.54 0 0 0 10.24-4.68 13.54 13.54 0 0 0 24.35-11.68 13.54 13.54 0 0 0 8.37-12.51z" fill="#e5e5e5"/><circle cx="1.27" cy="166.66" fill="#efbd42" r="8.05"/></g><g clip-path="url(#clip-path-7)"><path d="m124 383.74a13.53 13.53 0 0 0 -13.64-13.54 13.54 13.54 0 0 0 -26.68-4.42 13.54 13.54 0 0 0 -11.74 23.32 13.54 13.54 0 1 0 19.33 18.9 13.54 13.54 0 0 0 24.35-11.75 13.55 13.55 0 0 0 8.38-12.51z" fill="#e5e5e5"/><circle cx="96.09" cy="387.12" fill="#efbd42" r="8.05"/><path d="m29.17 383.74a13.53 13.53 0 0 0 -13.63-13.54 13.54 13.54 0 0 0 -26.69-4.42 13.55 13.55 0 0 0 -16.18 13.29 13.47 13.47 0 0 0 4.46 10 13.5 13.5 0 0 0 -4.46 10 13.54 13.54 0 0 0 13.54 13.54 13.51 13.51 0 0 0 10.24-4.61 13.54 13.54 0 0 0 24.35-11.75 13.55 13.55 0 0 0 8.37-12.51z" fill="#e5e5e5"/><circle cx="1.27" cy="387.12" fill="#efbd42" r="8.05"/><path d="m76.58 328.62a13.54 13.54 0 0 0 -13.64-13.54 13.54 13.54 0 0 0 -26.68-4.41 13.54 13.54 0 0 0 -11.72 23.33 13.54 13.54 0 1 0 19.32 18.9 13.54 13.54 0 0 0 24.35-11.76 13.53 13.53 0 0 0 8.37-12.52z" fill="#e5e5e5"/><circle cx="48.68" cy="332.01" fill="#efbd42" r="8.05"/><path d="m124 273.51a13.53 13.53 0 0 0 -13.65-13.51 13.54 13.54 0 0 0 -26.68-4.41 13.54 13.54 0 0 0 -11.73 23.32 13.54 13.54 0 1 0 19.33 18.89 13.54 13.54 0 0 0 24.35-11.8 13.54 13.54 0 0 0 8.38-12.49z" fill="#e5e5e5"/><circle cx="96.09" cy="276.89" fill="#efbd42" r="8.05"/><path d="m29.17 273.51a13.53 13.53 0 0 0 -13.63-13.51 13.54 13.54 0 0 0 -26.69-4.41 13.55 13.55 0 0 0 -16.18 13.28 13.5 13.5 0 0 0 4.46 10 13.47 13.47 0 0 0 -4.46 10 13.54 13.54 0 0 0 13.54 13.54 13.52 13.52 0 0 0 10.24-4.69 13.54 13.54 0 0 0 24.35-11.72 13.54 13.54 0 0 0 8.37-12.49z" fill="#e5e5e5"/><circle cx="1.27" cy="276.89" fill="#efbd42" r="8.05"/></g></g><circle cx="144.19" cy="144.16" fill="#e73f46" r="76.13"/><path d="m144.52 207.91s-46.39 55.59-10.78 79.26z" fill="#e73f46"/><path d="m140.16 207.91s46.38 55.59 10.78 79.26z" fill="#e73f46"/><path d="m83.8 185.93s-30.74 28.63-40.47 86.87c0 0 91.64 6.6 105-65.61.03 0-36.33-35.82-64.53-21.26z" fill="#e73f46"/><path d="m203 185.93c24.68 23.19 38.58 53.63 42.15 86.77a101.61 101.61 0 0 1 -49.15-5.63c-40.46-15.47-56.5-52.54-59.59-60.07a77.6 77.6 0 0 1 66.59-21.07z" fill="#e73f46"/><circle cx="144.52" cy="141.41" fill="#f5b493" r="48.26"/><path d="m144.52 93.15s-9.2 39.63-47 37.39c-.03 0 5.62-37.62 47-37.39z" fill="#2d1929"/><path d="m144.52 93.15s-4.66 34.08 47 37.48c.05 0-5.66-36.52-47-37.48z" fill="#2d1929"/><g fill="#e5e5e5"><path d="m240 265.1c-49.41 0-92.23-40.55-99.65-48-33.75 54.78-94.81 47.6-95.42 47.52a1.23 1.23 0 0 1 .31-2.45c.61.08 61.1 7.15 93.82-47.7a1.24 1.24 0 0 1 2-.22c.47.51 47.87 50.36 102.26 48.3a1.22 1.22 0 0 1 1.28 1.18 1.24 1.24 0 0 1 -1.19 1.28c-1.12.07-2.25.09-3.41.09z"/><path d="m56.8 254.2c-3.22 0-2.74 5 .46 5s2.74-5-.46-5z"/><path d="m76.16 252.29c-3.21 0-2.73 5 .46 5s2.74-5-.46-5z"/><path d="m94.33 245.35c-3.21 0-2.73 5 .46 5s2.74-5-.46-5z"/><path d="m108.92 235.55c-3.21 0-2.74 5 .46 5s2.73-5-.46-5z"/><path d="m123.26 222.4c-3.21 0-2.73 5 .47 5s2.73-5-.47-5z"/><path d="m139.28 204.71c-3.21 0-2.73 5 .46 5s2.74-5-.46-5z"/><path d="m153.15 214.27c-3.21 0-2.73 5 .46 5s2.74-5-.46-5z"/><path d="m166.3 225.27c-3.21 0-2.73 5 .46 5s2.74-5-.46-5z"/><path d="m181.6 237c-3.21 0-2.73 5 .46 5s2.74-5-.46-5z"/><path d="m196.9 245.11c-3.21 0-2.73 5 .47 5s2.73-5-.47-5z"/><path d="m214.6 250.61c-3.21 0-2.74 5 .46 5s2.73-5-.46-5z"/><path d="m233 254.2c-3.21 0-2.74 5 .46 5s2.74-5-.46-5z"/></g><path d="m154 78.8c26.17 8.34 44.21 32.27 44.83 59.17a64 64 0 0 1 -37.49 59.28s48.25 11.33 75.51 52.84a152.61 152.61 0 0 0 -37.78-59.63c20.2-29.43 20-65.84 1.19-88.71-16-19.45-39.9-22.37-46.26-22.95z" fill="#cc3745"/><path d="m162 392.25a67.68 67.68 0 0 0 21.69-.82c20.51-4 32.47-18.36 37.83-24.52 27.94-32.11 19.42-79.67 18.18-86.08a130.62 130.62 0 0 1 -77.7 111.42z" fill="#6d5fde"/><g clip-path="url(#clip-path-8)" fill="#e39c76"><circle cx="106.73" cy="164.44" r="18.44"/><circle cx="179.42" cy="164.44" r="18.44"/></g><path d="m144 161.45c-3.42-.86-5.43-2.24-6-4.1-1.2-4.12 5.49-6.26 4.51-18.5a.62.62 0 1 1 1.23-.1c1 12.46-5.5 15-4.56 18.26.41 1.4 2.12 2.5 5.09 3.25a.61.61 0 0 1 -.27 1.19z" fill="#2d1929"/><path d="m130.57 141.41c0 3-1.57 5.42-3.51 5.43s-3.51-2.43-3.51-5.42 1.56-5.43 3.5-5.43 3.51 2.42 3.52 5.42z" fill="#2d1929"/><path d="m136.38 173.79a.62.62 0 0 1 .76-1 11.88 11.88 0 0 0 14.75 0 .62.62 0 0 1 .76 1 13.12 13.12 0 0 1 -16.27 0z" fill="#2d1929"/><path d="m118.17 128.25a1.24 1.24 0 0 1 -.81-2.17c.08-.07 8-6.77 17.06-1.62a1.23 1.23 0 1 1 -1.22 2.14c-7.49-4.27-14 1.12-14.23 1.35a1.23 1.23 0 0 1 -.8.3z" fill="#2d1929"/><path d="m164.83 141.42c0 3-1.58 5.42-3.52 5.42s-3.5-2.44-3.5-5.43 1.58-5.42 3.52-5.42 3.5 2.43 3.5 5.43z" fill="#2d1929"/><path d="m170.21 128.25a1.21 1.21 0 0 1 -.8-.3c-.28-.23-6.74-5.62-14.23-1.35a1.23 1.23 0 0 1 -1.22-2.14c9-5.15 17 1.55 17 1.62a1.23 1.23 0 0 1 -.75 2.17z" fill="#2d1929"/><path d="m78.81 168.55c-15.8-39 3.63-82 47.1-89.75-6.13 2-25.53 9.33-38.6 29.68-17.31 27-9.79 55.52-8.5 60.07z" fill="#e5e5e5"/><path d="m74 216.76s-48.5 88.89 0 158.24c0 0-30.18-75.89 0-158.24z" fill="#e5e5e5"/><path d="m352.6 407.18a26 26 0 0 1 -13.91 11 159.77 159.77 0 0 1 -101.69-.11 26.28 26.28 0 0 1 -13.52-10.28c-31.33-46.76-28-107.9 8.76-150a26.26 26.26 0 0 1 19.81-9h71.4a26.28 26.28 0 0 1 20.42 9.74c34.78 43.01 37.24 102.56 8.73 148.65z" fill="#917eec"/><path d="m235.79 296.38c-2.61 4.24-7.43 1.34-8.32 7.42-.41 2.83 6.24 7 5.89 10.73-.29 3.08-7.64 6-7.77 9.46-.13 3.19 6.95 6.59 7 10 .07 3.25-6.87 7-6.56 10.34s7.8 5.62 8.39 8.91-5.59 8.15-4.66 11.33 8.75 3.87 10.09 6.88-3.28 9.4-1.44 12.16 9.4.83 11.77 3.2.44 9.91 3.31 11.75c2.7 1.72 8.84-3.12 12.08-1.89 2.95 1.13 4.2 8.87 7.64 9.52 3.09.59 7.21-6.09 10.72-5.92s6.72 7.22 9.76 7c3.38-.27 5.42-7.8 8.39-8.53 3.27-.79 8.62 4.86 11.43 3.59 3-1.37 2.23-9.13 4.77-11s9.74 1.26 11.91-1.07-1.43-9.3.33-12 9.52-2.05 10.89-5-4.08-8.56-3.06-11.6 8.74-4.24 9.47-7.35-5.66-7.71-5.19-10.82c.51-3.28 7.95-5.66 8.21-8.74.3-3.4-6.66-7-6.58-10 .1-3.61 7.2-6.89 7.12-9.66-.18-5.94-6-3.82-7.56-8.39s4.27-6.6.6-11c-1.74-2.08-9.07.44-11.62-2-2.12-2 .05-9.52-2.63-11.49-2.41-1.78-8.87 2.5-11.73.93-2.65-1.46-2.54-9.25-5.58-10.38-2.84-1.06-7.81 4.89-11 4.23-2.95-.61-5.15-8.08-8.4-8.25-3-.16-6 7-9.25 7.29-3 .27-7.17-6.28-10.37-5.57-2.93.65-4 8.35-7.1 9.41-2.84 1-8.38-4.48-11.36-3.13-2.74 1.24-2.32 9-5.18 10.6-2.62 1.47-9-3-11.72-1.24-2.48 1.71-.08 8.34-2.69 10.28z" fill="#d7981a"/><ellipse cx="288.56" cy="333.93" fill="#efbd42" rx="50.73" ry="61.2"/><g clip-path="url(#clip-path-9)"><g clip-path="url(#clip-path-10)"><path d="m427.5 319.74a11.21 11.21 0 0 0 -11.29-11.22 11.22 11.22 0 0 0 -22.11-3.65c-11.25-2.23-18 11.78-9.72 19.32-7.53 6.82-2.78 19.53 7.53 19.53a11.17 11.17 0 0 0 8.48-3.88 11.22 11.22 0 0 0 20.18-9.74 11.21 11.21 0 0 0 6.93-10.36z" fill="#e5e5e5"/><circle cx="404.39" cy="322.54" fill="#efbd42" r="6.67"/><path d="m349 319.74a11.22 11.22 0 0 0 -11.3-11.22 11.21 11.21 0 0 0 -22.1-3.65c-11.25-2.23-18 11.78-9.72 19.32a11.22 11.22 0 1 0 16 15.65 11.22 11.22 0 0 0 20.12-9.74 11.22 11.22 0 0 0 7-10.36z" fill="#e5e5e5"/><circle cx="325.83" cy="322.54" fill="#efbd42" r="6.67"/><path d="m388.22 274.08a11.22 11.22 0 0 0 -11.29-11.22 11.22 11.22 0 0 0 -22.11-3.65c-11.24-2.22-18 11.78-9.71 19.32a11.21 11.21 0 1 0 16 15.65 11.22 11.22 0 0 0 20.18-9.73 11.22 11.22 0 0 0 6.93-10.37z" fill="#e5e5e5"/><circle cx="365.11" cy="276.88" fill="#efbd42" r="6.67"/><path d="m427.5 228.42a11.2 11.2 0 0 0 -11.29-11.21 11.22 11.22 0 0 0 -22.11-3.66c-11.25-2.22-18 11.78-9.72 19.32-7.53 6.83-2.78 19.53 7.53 19.53a11.2 11.2 0 0 0 8.48-3.87 11.22 11.22 0 0 0 20.18-9.74 11.22 11.22 0 0 0 6.93-10.37z" fill="#e5e5e5"/><circle cx="404.39" cy="231.23" fill="#efbd42" r="6.67"/><path d="m349 228.42a11.21 11.21 0 0 0 -11.3-11.21 11.21 11.21 0 0 0 -22.1-3.66c-11.25-2.22-18 11.78-9.72 19.32a11.22 11.22 0 1 0 16 15.66 11.22 11.22 0 0 0 20.12-9.74 11.24 11.24 0 0 0 7-10.37z" fill="#e5e5e5"/><circle cx="325.83" cy="231.23" fill="#efbd42" r="6.67"/></g><g clip-path="url(#clip-path-11)"><path d="m427.5 411.06a11.21 11.21 0 0 0 -11.29-11.22 11.22 11.22 0 0 0 -22.11-3.66c-11.25-2.22-18 11.79-9.72 19.32-7.53 6.83-2.78 19.54 7.53 19.54a11.21 11.21 0 0 0 8.48-3.88 11.22 11.22 0 0 0 20.18-9.74 11.21 11.21 0 0 0 6.93-10.36z" fill="#e5e5e5"/><circle cx="404.39" cy="413.86" fill="#efbd42" r="6.67"/><path d="m349 411.06a11.22 11.22 0 0 0 -11.3-11.22 11.21 11.21 0 0 0 -22.1-3.66c-11.25-2.22-18 11.79-9.72 19.32-7.54 6.83-2.78 19.54 7.53 19.54a11.21 11.21 0 0 0 8.48-3.88 11.22 11.22 0 0 0 20.11-9.74 11.22 11.22 0 0 0 7-10.36z" fill="#e5e5e5"/><circle cx="325.83" cy="413.86" fill="#efbd42" r="6.67"/><path d="m388.22 365.4a11.21 11.21 0 0 0 -11.29-11.22 11.22 11.22 0 0 0 -22.11-3.65c-11.24-2.23-18 11.78-9.71 19.32a11.21 11.21 0 1 0 16 15.65 11.22 11.22 0 0 0 20.18-9.74 11.21 11.21 0 0 0 6.93-10.36z" fill="#e5e5e5"/><circle cx="365.11" cy="368.2" fill="#efbd42" r="6.67"/><path d="m427.5 319.74a11.21 11.21 0 0 0 -11.29-11.22 11.22 11.22 0 0 0 -22.11-3.65c-11.25-2.23-18 11.78-9.72 19.32-7.53 6.82-2.78 19.53 7.53 19.53a11.17 11.17 0 0 0 8.48-3.88 11.22 11.22 0 0 0 20.18-9.74 11.21 11.21 0 0 0 6.93-10.36z" fill="#e5e5e5"/><circle cx="404.39" cy="322.54" fill="#efbd42" r="6.67"/><path d="m349 319.74a11.22 11.22 0 0 0 -11.3-11.22 11.21 11.21 0 0 0 -22.1-3.65c-11.25-2.23-18 11.78-9.72 19.32a11.22 11.22 0 1 0 16 15.65 11.22 11.22 0 0 0 20.12-9.74 11.22 11.22 0 0 0 7-10.36z" fill="#e5e5e5"/><circle cx="325.83" cy="322.54" fill="#efbd42" r="6.67"/></g><g clip-path="url(#clip-path-12)"><path d="m349 319.74a11.22 11.22 0 0 0 -11.3-11.22 11.21 11.21 0 0 0 -22.1-3.65c-11.25-2.23-18 11.78-9.72 19.32a11.22 11.22 0 1 0 16 15.65 11.22 11.22 0 0 0 20.12-9.74 11.22 11.22 0 0 0 7-10.36z" fill="#e5e5e5"/><circle cx="325.83" cy="322.54" fill="#efbd42" r="6.67"/><path d="m270.39 319.74a11.21 11.21 0 0 0 -11.29-11.22 11.22 11.22 0 0 0 -22.1-3.65c-11.24-2.23-18 11.78-9.71 19.32a11.22 11.22 0 1 0 16 15.65 11.22 11.22 0 0 0 20.18-9.74 11.21 11.21 0 0 0 6.92-10.36z" fill="#e5e5e5"/><circle cx="247.28" cy="322.54" fill="#efbd42" r="6.67"/><path d="m309.67 274.08a11.22 11.22 0 0 0 -11.29-11.22 11.22 11.22 0 0 0 -22.11-3.65c-11.25-2.22-18 11.78-9.71 19.32-7.54 6.83-2.79 19.53 7.52 19.53a11.16 11.16 0 0 0 8.48-3.88 11.22 11.22 0 0 0 20.18-9.73 11.22 11.22 0 0 0 6.93-10.37z" fill="#e5e5e5"/><circle cx="286.56" cy="276.88" fill="#efbd42" r="6.67"/><path d="m349 228.42a11.21 11.21 0 0 0 -11.3-11.21 11.21 11.21 0 0 0 -22.1-3.66c-11.25-2.22-18 11.78-9.72 19.32a11.22 11.22 0 1 0 16 15.66 11.22 11.22 0 0 0 20.12-9.74 11.24 11.24 0 0 0 7-10.37z" fill="#e5e5e5"/><circle cx="325.83" cy="231.23" fill="#efbd42" r="6.67"/><path d="m270.39 228.42a11.2 11.2 0 0 0 -11.29-11.21 11.22 11.22 0 0 0 -22.1-3.66c-11.24-2.22-18 11.78-9.71 19.32a11.22 11.22 0 1 0 16 15.66 11.22 11.22 0 0 0 20.18-9.74 11.23 11.23 0 0 0 6.92-10.37z" fill="#e5e5e5"/><circle cx="247.28" cy="231.23" fill="#efbd42" r="6.67"/></g><g clip-path="url(#clip-path-13)"><path d="m349 411.06a11.22 11.22 0 0 0 -11.3-11.22 11.21 11.21 0 0 0 -22.1-3.66c-11.25-2.22-18 11.79-9.72 19.32-7.54 6.83-2.78 19.54 7.53 19.54a11.21 11.21 0 0 0 8.48-3.88 11.22 11.22 0 0 0 20.11-9.74 11.22 11.22 0 0 0 7-10.36z" fill="#e5e5e5"/><circle cx="325.83" cy="413.86" fill="#efbd42" r="6.67"/><path d="m270.39 411.06a11.21 11.21 0 0 0 -11.29-11.22 11.22 11.22 0 0 0 -22.1-3.66c-11.25-2.18-18 11.82-9.72 19.32-7.54 6.83-2.78 19.54 7.53 19.54a11.22 11.22 0 0 0 8.48-3.88 11.22 11.22 0 0 0 20.18-9.74 11.21 11.21 0 0 0 6.92-10.36z" fill="#e5e5e5"/><circle cx="247.28" cy="413.86" fill="#efbd42" r="6.67"/><path d="m309.67 365.4a11.21 11.21 0 0 0 -11.29-11.22 11.22 11.22 0 0 0 -22.11-3.65c-11.25-2.23-18 11.78-9.71 19.32-7.54 6.82-2.79 19.53 7.52 19.53a11.16 11.16 0 0 0 8.48-3.88 11.22 11.22 0 0 0 20.18-9.74 11.21 11.21 0 0 0 6.93-10.36z" fill="#e5e5e5"/><circle cx="286.56" cy="368.2" fill="#efbd42" r="6.67"/><path d="m349 319.74a11.22 11.22 0 0 0 -11.3-11.22 11.21 11.21 0 0 0 -22.1-3.65c-11.25-2.23-18 11.78-9.72 19.32a11.22 11.22 0 1 0 16 15.65 11.22 11.22 0 0 0 20.12-9.74 11.22 11.22 0 0 0 7-10.36z" fill="#e5e5e5"/><circle cx="325.83" cy="322.54" fill="#efbd42" r="6.67"/><path d="m270.39 319.74a11.21 11.21 0 0 0 -11.29-11.22 11.22 11.22 0 0 0 -22.1-3.65c-11.24-2.23-18 11.78-9.71 19.32a11.22 11.22 0 1 0 16 15.65 11.22 11.22 0 0 0 20.18-9.74 11.21 11.21 0 0 0 6.92-10.36z" fill="#e5e5e5"/><circle cx="247.28" cy="322.54" fill="#efbd42" r="6.67"/></g><g clip-path="url(#clip-path-14)"><path d="m270.39 319.74a11.21 11.21 0 0 0 -11.29-11.22 11.22 11.22 0 0 0 -22.1-3.65c-11.24-2.23-18 11.78-9.71 19.32a11.22 11.22 0 1 0 16 15.65 11.22 11.22 0 0 0 20.18-9.74 11.21 11.21 0 0 0 6.92-10.36z" fill="#e5e5e5"/><circle cx="247.28" cy="322.54" fill="#efbd42" r="6.67"/><path d="m191.84 319.74a11.21 11.21 0 0 0 -11.29-11.22 11.22 11.22 0 0 0 -22.11-3.65c-11.25-2.23-18 11.78-9.71 19.32-7.54 6.82-2.78 19.53 7.52 19.53a11.16 11.16 0 0 0 8.48-3.88 11.22 11.22 0 0 0 20.18-9.74 11.21 11.21 0 0 0 6.93-10.36z" fill="#e5e5e5"/><circle cx="168.73" cy="322.54" fill="#efbd42" r="6.67"/><path d="m231.12 274.08a11.23 11.23 0 0 0 -11.3-11.22 11.21 11.21 0 0 0 -22.1-3.65c-11.25-2.22-18 11.78-9.72 19.32a11.22 11.22 0 1 0 16 15.65 11.22 11.22 0 0 0 20.18-9.73 11.22 11.22 0 0 0 6.94-10.37z" fill="#e5e5e5"/><circle cx="208.01" cy="276.88" fill="#efbd42" r="6.67"/><path d="m270.39 228.42a11.2 11.2 0 0 0 -11.29-11.21 11.22 11.22 0 0 0 -22.1-3.66c-11.24-2.22-18 11.78-9.71 19.32a11.22 11.22 0 1 0 16 15.66 11.22 11.22 0 0 0 20.18-9.74 11.23 11.23 0 0 0 6.92-10.37z" fill="#e5e5e5"/><circle cx="247.28" cy="231.23" fill="#efbd42" r="6.67"/><path d="m191.84 228.42a11.2 11.2 0 0 0 -11.29-11.21 11.22 11.22 0 0 0 -22.11-3.66c-11.25-2.22-18 11.78-9.71 19.32-7.54 6.83-2.78 19.53 7.52 19.53a11.18 11.18 0 0 0 8.48-3.87 11.22 11.22 0 0 0 20.18-9.74 11.22 11.22 0 0 0 6.93-10.37z" fill="#e5e5e5"/><circle cx="168.73" cy="231.23" fill="#efbd42" r="6.67"/></g><g clip-path="url(#clip-path-15)"><path d="m270.39 411.06a11.21 11.21 0 0 0 -11.29-11.22 11.22 11.22 0 0 0 -22.1-3.66c-11.25-2.18-18 11.82-9.72 19.32-7.54 6.83-2.78 19.54 7.53 19.54a11.22 11.22 0 0 0 8.48-3.88 11.22 11.22 0 0 0 20.18-9.74 11.21 11.21 0 0 0 6.92-10.36z" fill="#e5e5e5"/><circle cx="247.28" cy="413.86" fill="#efbd42" r="6.67"/><path d="m191.84 411.06a11.21 11.21 0 0 0 -11.29-11.22 11.22 11.22 0 0 0 -22.11-3.66c-11.25-2.22-18 11.79-9.71 19.32-7.54 6.83-2.73 19.5 7.52 19.5a11.19 11.19 0 0 0 8.48-3.88 11.22 11.22 0 0 0 20.18-9.74 11.21 11.21 0 0 0 6.93-10.32z" fill="#e5e5e5"/><circle cx="168.73" cy="413.86" fill="#efbd42" r="6.67"/><path d="m231.12 365.4a11.22 11.22 0 0 0 -11.3-11.22 11.21 11.21 0 0 0 -22.1-3.65c-11.25-2.23-18 11.78-9.72 19.32a11.22 11.22 0 1 0 16 15.65 11.22 11.22 0 0 0 20.18-9.74 11.21 11.21 0 0 0 6.94-10.36z" fill="#e5e5e5"/><circle cx="208.01" cy="368.2" fill="#efbd42" r="6.67"/><path d="m270.39 319.74a11.21 11.21 0 0 0 -11.29-11.22 11.22 11.22 0 0 0 -22.1-3.65c-11.24-2.23-18 11.78-9.71 19.32a11.22 11.22 0 1 0 16 15.65 11.22 11.22 0 0 0 20.18-9.74 11.21 11.21 0 0 0 6.92-10.36z" fill="#e5e5e5"/><circle cx="247.28" cy="322.54" fill="#efbd42" r="6.67"/><path d="m191.84 319.74a11.21 11.21 0 0 0 -11.29-11.22 11.22 11.22 0 0 0 -22.11-3.65c-11.25-2.23-18 11.78-9.71 19.32-7.54 6.82-2.78 19.53 7.52 19.53a11.16 11.16 0 0 0 8.48-3.88 11.22 11.22 0 0 0 20.18-9.74 11.21 11.21 0 0 0 6.93-10.36z" fill="#e5e5e5"/><circle cx="168.73" cy="322.54" fill="#efbd42" r="6.67"/></g></g><circle cx="287.13" cy="212.58" fill="#e73f46" r="63.07"/><path d="m287.4 265.39s-38.42 46.06-8.93 65.67z" fill="#e73f46"/><path d="m283.79 265.39s38.43 46.06 8.93 65.67z" fill="#e73f46"/><path d="m237.1 247.19s-25.47 23.71-33.53 72c0 0 75.92 5.47 87-54.35.02-.04-30.09-29.72-53.47-17.65z" fill="#e73f46"/><path d="m335.88 247.19c20.45 19.21 32 44.42 34.93 71.88a84.22 84.22 0 0 1 -40.74-4.66c-33.54-12.82-46.83-43.53-49.39-49.81a64.29 64.29 0 0 1 55.2-17.41z" fill="#e73f46"/><circle cx="287.4" cy="210.31" fill="#f5b493" r="39.98"/><path d="m287.4 170.32s-7.62 32.84-39 31c.04-.02 4.72-31.19 39-31z" fill="#2d1929"/><path d="m287.4 170.32s-3.86 28.24 39 31.05c-.02 0-4.74-30.25-39-31.05z" fill="#2d1929"/><path d="m366.54 313c-40.62 0-75.85-33-82.52-39.62-28.06 45.26-78.6 39.3-79.12 39.24a1.24 1.24 0 0 1 .32-2.45c.5.06 50.48 5.9 77.51-39.42a1.23 1.23 0 0 1 2-.21c.39.42 39.58 41.62 84.55 39.94a1.24 1.24 0 0 1 .1 2.47c-.98.05-1.91.05-2.84.05z" fill="#e5e5e5"/><path d="m214.73 303.74c-2.66 0-2.27 4.12.38 4.12s2.27-4.12-.38-4.12z" fill="#e5e5e5"/><path d="m230.77 302.16c-2.66 0-2.26 4.12.39 4.12s2.26-4.12-.39-4.12z" fill="#e5e5e5"/><path d="m245.83 296.41c-2.66 0-2.27 4.12.38 4.12s2.27-4.12-.38-4.12z" fill="#e5e5e5"/><path d="m257.91 288.29c-2.66 0-2.27 4.12.38 4.12s2.27-4.12-.38-4.12z" fill="#e5e5e5"/><path d="m269.79 277.4c-2.66 0-2.26 4.12.39 4.12s2.26-4.12-.39-4.12z" fill="#e5e5e5"/><path d="m283.07 262.74c-2.66 0-2.27 4.12.38 4.12s2.26-4.12-.38-4.12z" fill="#e5e5e5"/><path d="m294.55 270.66c-2.66 0-2.26 4.12.39 4.12s2.26-4.12-.39-4.12z" fill="#e5e5e5"/><path d="m305.45 279.78c-2.66 0-2.27 4.11.38 4.11s2.27-4.11-.38-4.11z" fill="#e5e5e5"/><path d="m318.12 289.48c-2.66 0-2.26 4.12.39 4.12s2.26-4.12-.39-4.12z" fill="#e5e5e5"/><path d="m330.8 296.22c-2.66 0-2.26 4.11.38 4.11s2.27-4.11-.38-4.11z" fill="#e5e5e5"/><path d="m345.46 300.77c-2.66 0-2.27 4.12.38 4.12s2.27-4.12-.38-4.12z" fill="#e5e5e5"/><path d="m360.71 303.74c-2.66 0-2.26 4.12.38 4.12s2.27-4.12-.38-4.12z" fill="#e5e5e5"/><path d="m295.24 158.43a52.5 52.5 0 0 1 6.08 98.13s40 9.39 62.55 43.77a126.37 126.37 0 0 0 -31.29-49.39c16.73-24.38 16.56-54.54 1-73.49-13.26-16.12-33.05-18.54-38.34-19.02z" fill="#cc3745"/><path d="m301.88 418.11a55.73 55.73 0 0 0 18-.68c17-3.33 26.91-15.21 31.35-20.31 23.14-26.6 16.09-66 15.06-71.31a108.23 108.23 0 0 1 -64.41 92.3z" fill="#6d5fde"/><g clip-path="url(#clip-path-16)" fill="#e39c76"><circle cx="256.1" cy="229.38" r="15.27"/><circle cx="316.31" cy="229.38" r="15.27"/></g><path d="m287 227c-2.88-.73-4.56-1.9-5-3.47-1-3.47 4.54-5.24 3.73-15.35a.62.62 0 1 1 1.23-.1c.82 10.28-4.52 12.54-3.77 15.11.32 1.12 1.71 2 4.13 2.62a.61.61 0 0 1 -.32 1.19z" fill="#2d1929"/><path d="m275.84 210.3c0 2.48-1.29 4.5-2.9 4.5s-2.91-2-2.91-4.49 1.3-4.5 2.9-4.5 2.91 2.01 2.91 4.49z" fill="#2d1929"/><path d="m280.6 237.21a.61.61 0 0 1 -.11-.86.62.62 0 0 1 .87-.11 9.75 9.75 0 0 0 12.08 0 .62.62 0 1 1 .77 1 11 11 0 0 1 -13.61-.03z" fill="#2d1929"/><path d="m265.57 199.61a1.24 1.24 0 0 1 -.8-2.17c.06-.05 6.77-5.7 14.37-1.36a1.23 1.23 0 0 1 -1.22 2.14c-6.07-3.46-11.32.91-11.54 1.09a1.25 1.25 0 0 1 -.81.3z" fill="#2d1929"/><path d="m304.23 210.31c0 2.48-1.31 4.49-2.91 4.49s-2.91-2-2.91-4.5 1.31-4.49 2.92-4.49 2.9 2.02 2.9 4.5z" fill="#2d1929"/><path d="m308.69 199.61a1.25 1.25 0 0 1 -.81-.3c-.22-.18-5.48-4.55-11.54-1.09a1.23 1.23 0 0 1 -1.22-2.14c7.6-4.34 14.3 1.31 14.37 1.36a1.24 1.24 0 0 1 -.8 2.17z" fill="#2d1929"/><path d="m233 232.79c-13.09-32.3 3-68 39-74.36a61.34 61.34 0 0 0 -32 24.57c-14.37 22.39-8.1 46-7 49.79z" fill="#e5e5e5"/><path d="m229 272.72s-40.16 73.65 0 131.06c0 0-25-62.78 0-131.06z" fill="#e5e5e5"/><path d="m455.62 429.37a19.74 19.74 0 0 1 -10.54 8.35 121.16 121.16 0 0 1 -77.15-.1 19.93 19.93 0 0 1 -10.25-7.79c-23.75-35.46-21.21-81.82 6.64-113.71a20 20 0 0 1 15-6.84h54.18a19.91 19.91 0 0 1 15.5 7.39c26.38 32.59 28.24 77.75 6.62 112.7z" fill="#917eec"/><path d="m367 345.34c-2 3.22-5.63 1-6.3 5.63-.32 2.15 4.73 5.33 4.46 8.14-.22 2.34-5.79 4.51-5.9 7.17-.09 2.42 5.28 5 5.34 7.6s-5.21 5.3-5 7.85 5.92 4.26 6.36 6.75-4.23 6.18-3.53 8.59 6.63 2.94 7.66 5.22-2.49 7.13-1.1 9.22 7.13.63 8.93 2.42.33 7.52 2.51 8.91 6.7-2.36 9.16-1.42c2.23.85 3.18 6.72 5.79 7.21 2.34.45 5.47-4.61 8.13-4.49s5.1 5.48 7.41 5.29c2.56-.21 4.1-5.92 6.36-6.47 2.47-.6 6.53 3.69 8.67 2.72 2.29-1 1.68-6.92 3.61-8.32s7.39 1 9-.81-1.08-7.05.25-9.09 7.22-1.56 8.26-3.77-3.09-6.49-2.32-8.8 6.63-3.21 7.18-5.57-4.29-5.84-3.93-8.21 6-4.28 6.22-6.62c.22-2.58-5.05-5.34-5-7.61.08-2.74 5.46-5.22 5.4-7.32-.14-4.51-4.58-2.9-5.73-6.37s3.24-5 .45-8.34c-1.32-1.57-6.88.34-8.81-1.49-1.61-1.52 0-7.22-2-8.72-1.83-1.34-6.73 1.9-8.9.71-2-1.1-1.93-7-4.23-7.87-2.15-.8-5.93 3.71-8.33 3.21s-3.91-6.13-6.37-6.26c-2.28-.12-4.55 5.31-7 5.53-2.27.21-5.44-4.76-7.86-4.22-2.22.49-3 6.33-5.39 7.13-2.15.74-6.35-3.4-8.61-2.37-2.08.94-1.76 6.83-3.93 8-2 1.11-6.81-2.29-8.89-.94-1.82 1.28-.02 6.32-2.02 7.78z" fill="#d7981a"/><ellipse cx="407.06" cy="373.82" fill="#efbd42" rx="38.47" ry="46.41"/><g clip-path="url(#clip-path-17)"><g clip-path="url(#clip-path-18)"><path d="m512.42 363.06a8.52 8.52 0 0 0 -8.57-8.51 8.5 8.5 0 0 0 -16.76-2.77c-8.53-1.68-13.67 8.94-7.37 14.65a8.51 8.51 0 1 0 12.14 11.87 8.51 8.51 0 0 0 15.31-7.38 8.52 8.52 0 0 0 5.25-7.86z" fill="#e5e5e5"/><circle cx="494.89" cy="365.19" fill="#efbd42" r="5.06"/><path d="m452.85 363.06a8.51 8.51 0 0 0 -8.56-8.51 8.51 8.51 0 0 0 -16.77-2.77c-8.53-1.68-13.67 8.94-7.36 14.65a8.5 8.5 0 1 0 12.13 11.87 8.51 8.51 0 0 0 15.31-7.38 8.52 8.52 0 0 0 5.25-7.86z" fill="#e5e5e5"/><circle cx="435.32" cy="365.19" fill="#efbd42" r="5.06"/><path d="m482.64 328.44a8.5 8.5 0 0 0 -8.57-8.51 8.5 8.5 0 0 0 -16.76-2.77c-8.53-1.69-13.68 8.93-7.37 14.65a8.51 8.51 0 1 0 12.14 11.87 8.51 8.51 0 0 0 15.3-7.38 8.51 8.51 0 0 0 5.26-7.86z" fill="#e5e5e5"/><circle cx="465.11" cy="330.56" fill="#efbd42" r="5.06"/><path d="m512.42 293.81a8.5 8.5 0 0 0 -8.57-8.5 8.5 8.5 0 0 0 -16.76-2.78c-8.53-1.68-13.67 8.94-7.37 14.65a8.51 8.51 0 1 0 12.14 11.88 8.51 8.51 0 0 0 15.31-7.39 8.5 8.5 0 0 0 5.25-7.86z" fill="#e5e5e5"/><circle cx="494.89" cy="295.94" fill="#efbd42" r="5.06"/><path d="m452.85 293.81a8.49 8.49 0 0 0 -8.56-8.5 8.51 8.51 0 0 0 -16.77-2.78c-8.53-1.68-13.67 8.94-7.36 14.65a8.51 8.51 0 1 0 12.13 11.88 8.51 8.51 0 0 0 15.31-7.39 8.5 8.5 0 0 0 5.25-7.86z" fill="#e5e5e5"/><circle cx="435.32" cy="295.94" fill="#efbd42" r="5.06"/></g><g clip-path="url(#clip-path-19)"><path d="m512.42 432.31a8.51 8.51 0 0 0 -8.57-8.51 8.5 8.5 0 0 0 -16.76-2.8c-8.53-1.69-13.67 8.94-7.37 14.65a8.51 8.51 0 1 0 12.14 11.87 8.51 8.51 0 0 0 15.31-7.38 8.52 8.52 0 0 0 5.25-7.83z" fill="#e5e5e5"/><circle cx="494.89" cy="434.43" fill="#efbd42" r="5.06"/><path d="m452.85 432.31a8.5 8.5 0 0 0 -8.56-8.51 8.51 8.51 0 0 0 -16.77-2.8c-8.53-1.69-13.67 8.94-7.36 14.65a8.5 8.5 0 1 0 12.13 11.87 8.51 8.51 0 0 0 15.31-7.38 8.52 8.52 0 0 0 5.25-7.83z" fill="#e5e5e5"/><circle cx="435.32" cy="434.43" fill="#efbd42" r="5.06"/><path d="m482.64 397.68a8.5 8.5 0 0 0 -8.57-8.5 8.5 8.5 0 0 0 -16.76-2.77c-8.53-1.69-13.68 8.93-7.37 14.65a8.51 8.51 0 1 0 12.14 11.87 8.51 8.51 0 0 0 15.3-7.39 8.49 8.49 0 0 0 5.26-7.86z" fill="#e5e5e5"/><circle cx="465.11" cy="399.81" fill="#efbd42" r="5.06"/><path d="m512.42 363.06a8.52 8.52 0 0 0 -8.57-8.51 8.5 8.5 0 0 0 -16.76-2.77c-8.53-1.68-13.67 8.94-7.37 14.65a8.51 8.51 0 1 0 12.14 11.87 8.51 8.51 0 0 0 15.31-7.38 8.52 8.52 0 0 0 5.25-7.86z" fill="#e5e5e5"/><circle cx="494.89" cy="365.19" fill="#efbd42" r="5.06"/><path d="m452.85 363.06a8.51 8.51 0 0 0 -8.56-8.51 8.51 8.51 0 0 0 -16.77-2.77c-8.53-1.68-13.67 8.94-7.36 14.65a8.5 8.5 0 1 0 12.13 11.87 8.51 8.51 0 0 0 15.31-7.38 8.52 8.52 0 0 0 5.25-7.86z" fill="#e5e5e5"/><circle cx="435.32" cy="365.19" fill="#efbd42" r="5.06"/></g><g clip-path="url(#clip-path-20)"><path d="m452.85 363.06a8.51 8.51 0 0 0 -8.56-8.51 8.51 8.51 0 0 0 -16.77-2.77c-8.53-1.68-13.67 8.94-7.36 14.65a8.5 8.5 0 1 0 12.13 11.87 8.51 8.51 0 0 0 15.31-7.38 8.52 8.52 0 0 0 5.25-7.86z" fill="#e5e5e5"/><circle cx="435.32" cy="365.19" fill="#efbd42" r="5.06"/><path d="m393.28 363.06a8.51 8.51 0 0 0 -8.56-8.51 8.51 8.51 0 0 0 -16.72-2.77c-8.52-1.68-13.67 8.94-7.36 14.65a8.51 8.51 0 1 0 12.14 11.87 8.51 8.51 0 0 0 15.3-7.38 8.52 8.52 0 0 0 5.2-7.86z" fill="#e5e5e5"/><circle cx="375.76" cy="365.19" fill="#efbd42" r="5.06"/><path d="m423.07 328.44a8.5 8.5 0 0 0 -8.57-8.51 8.5 8.5 0 0 0 -16.76-2.77c-8.53-1.69-13.68 8.93-7.37 14.65a8.51 8.51 0 1 0 12.14 11.87 8.51 8.51 0 0 0 15.3-7.38 8.51 8.51 0 0 0 5.26-7.86z" fill="#e5e5e5"/><circle cx="405.54" cy="330.56" fill="#efbd42" r="5.06"/><path d="m452.85 293.81a8.49 8.49 0 0 0 -8.56-8.5 8.51 8.51 0 0 0 -16.77-2.78c-8.53-1.68-13.67 8.94-7.36 14.65a8.51 8.51 0 1 0 12.13 11.88 8.51 8.51 0 0 0 15.31-7.39 8.5 8.5 0 0 0 5.25-7.86z" fill="#e5e5e5"/><circle cx="435.32" cy="295.94" fill="#efbd42" r="5.06"/><path d="m393.28 293.81a8.49 8.49 0 0 0 -8.56-8.5 8.51 8.51 0 0 0 -16.72-2.78c-8.52-1.68-13.67 8.94-7.36 14.65a8.51 8.51 0 1 0 12.14 11.88 8.51 8.51 0 0 0 15.3-7.39 8.5 8.5 0 0 0 5.2-7.86z" fill="#e5e5e5"/><circle cx="375.76" cy="295.94" fill="#efbd42" r="5.06"/></g><g clip-path="url(#clip-path-21)"><path d="m452.85 432.31a8.5 8.5 0 0 0 -8.56-8.51 8.51 8.51 0 0 0 -16.77-2.8c-8.53-1.69-13.67 8.94-7.36 14.65a8.5 8.5 0 1 0 12.13 11.87 8.51 8.51 0 0 0 15.31-7.38 8.52 8.52 0 0 0 5.25-7.83z" fill="#e5e5e5"/><circle cx="435.32" cy="434.43" fill="#efbd42" r="5.06"/><path d="m393.28 432.31a8.5 8.5 0 0 0 -8.56-8.51 8.51 8.51 0 0 0 -16.72-2.8c-8.52-1.69-13.67 8.94-7.36 14.65a8.51 8.51 0 1 0 12.14 11.87 8.51 8.51 0 0 0 15.3-7.38 8.52 8.52 0 0 0 5.2-7.83z" fill="#e5e5e5"/><circle cx="375.76" cy="434.43" fill="#efbd42" r="5.06"/><path d="m423.07 397.68a8.5 8.5 0 0 0 -8.57-8.5 8.5 8.5 0 0 0 -16.76-2.77c-8.53-1.69-13.68 8.93-7.37 14.65a8.51 8.51 0 1 0 12.14 11.87 8.51 8.51 0 0 0 15.3-7.39 8.49 8.49 0 0 0 5.26-7.86z" fill="#e5e5e5"/><circle cx="405.54" cy="399.81" fill="#efbd42" r="5.06"/><path d="m452.85 363.06a8.51 8.51 0 0 0 -8.56-8.51 8.51 8.51 0 0 0 -16.77-2.77c-8.53-1.68-13.67 8.94-7.36 14.65a8.5 8.5 0 1 0 12.13 11.87 8.51 8.51 0 0 0 15.31-7.38 8.52 8.52 0 0 0 5.25-7.86z" fill="#e5e5e5"/><circle cx="435.32" cy="365.19" fill="#efbd42" r="5.06"/><path d="m393.28 363.06a8.51 8.51 0 0 0 -8.56-8.51 8.51 8.51 0 0 0 -16.72-2.77c-8.52-1.68-13.67 8.94-7.36 14.65a8.51 8.51 0 1 0 12.14 11.87 8.51 8.51 0 0 0 15.3-7.38 8.52 8.52 0 0 0 5.2-7.86z" fill="#e5e5e5"/><circle cx="375.76" cy="365.19" fill="#efbd42" r="5.06"/></g><g clip-path="url(#clip-path-22)"><path d="m393.28 363.06a8.51 8.51 0 0 0 -8.56-8.51 8.51 8.51 0 0 0 -16.72-2.77c-8.52-1.68-13.67 8.94-7.36 14.65a8.51 8.51 0 1 0 12.14 11.87 8.51 8.51 0 0 0 15.3-7.38 8.52 8.52 0 0 0 5.2-7.86z" fill="#e5e5e5"/><circle cx="375.76" cy="365.19" fill="#efbd42" r="5.06"/><path d="m333.72 363.06a8.52 8.52 0 0 0 -8.57-8.51 8.5 8.5 0 0 0 -16.76-2.77c-8.53-1.68-13.68 8.94-7.37 14.65a8.51 8.51 0 1 0 12.14 11.87 8.51 8.51 0 0 0 15.3-7.38 8.51 8.51 0 0 0 5.26-7.86z" fill="#e5e5e5"/><circle cx="316.19" cy="365.19" fill="#efbd42" r="5.06"/><path d="m363.5 328.44a8.5 8.5 0 0 0 -8.57-8.51 8.5 8.5 0 0 0 -16.76-2.77c-8.53-1.69-13.67 8.93-7.37 14.65a8.51 8.51 0 1 0 12.14 11.87 8.51 8.51 0 0 0 15.31-7.38 8.52 8.52 0 0 0 5.25-7.86z" fill="#e5e5e5"/><circle cx="345.97" cy="330.56" fill="#efbd42" r="5.06"/><path d="m393.28 293.81a8.49 8.49 0 0 0 -8.56-8.5 8.51 8.51 0 0 0 -16.72-2.78c-8.52-1.68-13.67 8.94-7.36 14.65a8.51 8.51 0 1 0 12.14 11.88 8.51 8.51 0 0 0 15.3-7.39 8.5 8.5 0 0 0 5.2-7.86z" fill="#e5e5e5"/><circle cx="375.76" cy="295.94" fill="#efbd42" r="5.06"/><path d="m333.72 293.81a8.5 8.5 0 0 0 -8.57-8.5 8.5 8.5 0 0 0 -16.76-2.78c-8.53-1.68-13.68 8.94-7.37 14.65a8.51 8.51 0 1 0 12.14 11.88 8.51 8.51 0 0 0 15.3-7.39 8.49 8.49 0 0 0 5.26-7.86z" fill="#e5e5e5"/><circle cx="316.19" cy="295.94" fill="#efbd42" r="5.06"/></g><g clip-path="url(#clip-path-23)"><path d="m393.28 432.31a8.5 8.5 0 0 0 -8.56-8.51 8.51 8.51 0 0 0 -16.72-2.8c-8.52-1.69-13.67 8.94-7.36 14.65a8.51 8.51 0 1 0 12.14 11.87 8.51 8.51 0 0 0 15.3-7.38 8.52 8.52 0 0 0 5.2-7.83z" fill="#e5e5e5"/><circle cx="375.76" cy="434.43" fill="#efbd42" r="5.06"/><path d="m333.72 432.31a8.51 8.51 0 0 0 -8.57-8.51 8.5 8.5 0 0 0 -16.76-2.8c-8.53-1.69-13.68 8.94-7.37 14.65a8.51 8.51 0 1 0 12.14 11.87 8.51 8.51 0 0 0 15.3-7.38 8.51 8.51 0 0 0 5.26-7.83z" fill="#e5e5e5"/><circle cx="316.19" cy="434.43" fill="#efbd42" r="5.06"/><path d="m363.5 397.68a8.5 8.5 0 0 0 -8.57-8.5 8.5 8.5 0 0 0 -16.76-2.77c-8.53-1.69-13.67 8.93-7.37 14.65a8.51 8.51 0 1 0 12.14 11.87 8.51 8.51 0 0 0 15.31-7.39 8.5 8.5 0 0 0 5.25-7.86z" fill="#e5e5e5"/><circle cx="345.97" cy="399.81" fill="#efbd42" r="5.06"/><path d="m393.28 363.06a8.51 8.51 0 0 0 -8.56-8.51 8.51 8.51 0 0 0 -16.72-2.77c-8.52-1.68-13.67 8.94-7.36 14.65a8.51 8.51 0 1 0 12.14 11.87 8.51 8.51 0 0 0 15.3-7.38 8.52 8.52 0 0 0 5.2-7.86z" fill="#e5e5e5"/><circle cx="375.76" cy="365.19" fill="#efbd42" r="5.06"/><path d="m333.72 363.06a8.52 8.52 0 0 0 -8.57-8.51 8.5 8.5 0 0 0 -16.76-2.77c-8.53-1.68-13.68 8.94-7.37 14.65a8.51 8.51 0 1 0 12.14 11.87 8.51 8.51 0 0 0 15.3-7.38 8.51 8.51 0 0 0 5.26-7.86z" fill="#e5e5e5"/><circle cx="316.19" cy="365.19" fill="#efbd42" r="5.06"/></g></g><circle cx="405.97" cy="281.8" fill="#e73f46" r="47.83"/><path d="m406.18 321.85s-29.14 34.92-6.77 49.79z" fill="#e73f46"/><path d="m403.44 321.85s29.14 34.92 6.77 49.79z" fill="#e73f46"/><path d="m368 308s-19.32 18-25.43 54.58c0 0 57.57 4.14 66-41.22.02.04-22.81-22.47-40.57-13.36z" fill="#e73f46"/><path d="m443 308c15.5 14.57 24.23 33.69 26.48 54.51-30.76 3.95-57.08-13.69-68.35-41.3a48.76 48.76 0 0 1 41.87-13.21z" fill="#e73f46"/><circle cx="406.18" cy="280.07" fill="#f5b493" r="30.32"/><path d="m406.18 249.76s-5.78 24.89-29.55 23.48c0 0 3.55-23.63 29.55-23.48z" fill="#2d1929"/><path d="m406.18 249.76s-2.93 21.4 29.56 23.54c0 0-3.58-22.94-29.56-23.54z" fill="#2d1929"/><path d="m403.67 328.37c-21.41 34.13-59.67 29.63-60.09 29.63a1.24 1.24 0 0 1 .32-2.45c.38.05 38.09 4.44 58.48-29.75a1.24 1.24 0 0 1 2-.21 118.4 118.4 0 0 0 19.15 15.63c10.64 7 27.05 15.21 44.74 14.56a1.24 1.24 0 0 1 .1 2.47c-23.46.86-48.27-13.72-64.7-29.88z" fill="#e5e5e5"/><path d="m351.07 350.93c-2 0-1.72 3.12.29 3.12s1.72-3.12-.29-3.12z" fill="#e5e5e5"/><path d="m363.24 349.73c-2 0-1.72 3.12.29 3.12s1.72-3.12-.29-3.12z" fill="#e5e5e5"/><path d="m374.65 345.37c-2 0-1.71 3.13.29 3.13s1.72-3.13-.29-3.13z" fill="#e5e5e5"/><path d="m383.82 339.21c-2 0-1.72 3.13.29 3.13s1.71-3.13-.29-3.13z" fill="#e5e5e5"/><path d="m392.83 331c-2 0-1.72 3.13.29 3.13s1.72-3.13-.29-3.13z" fill="#e5e5e5"/><path d="m402.89 319.84c-2 0-1.72 3.12.29 3.12s1.72-3.12-.29-3.12z" fill="#e5e5e5"/><path d="m411.6 325.85c-2 0-1.71 3.12.29 3.12s1.72-3.12-.29-3.12z" fill="#e5e5e5"/><path d="m419.87 332.75c-2 0-1.72 3.13.29 3.13s1.71-3.13-.29-3.13z" fill="#e5e5e5"/><path d="m429.48 340.11c-2 0-1.72 3.13.29 3.13s1.72-3.13-.29-3.13z" fill="#e5e5e5"/><path d="m439.09 345.22c-2 0-1.72 3.13.29 3.13s1.72-3.13-.29-3.13z" fill="#e5e5e5"/><path d="m450.21 348.68c-2 0-1.72 3.12.29 3.12s1.71-3.12-.29-3.12z" fill="#e5e5e5"/><path d="m461.77 350.93c-2 0-1.72 3.12.29 3.12s1.72-3.12-.29-3.12z" fill="#e5e5e5"/><path d="m412.12 240.74a39.81 39.81 0 0 1 4.62 74.41s30.31 7.12 47.43 33.2a95.93 95.93 0 0 0 -23.73-37.47c12.69-18.48 12.56-41.35.75-55.72-10.04-12.22-25.06-14.06-29.07-14.42z" fill="#cc3745"/><path d="m417.16 437.66a42.4 42.4 0 0 0 13.62-.52c12.89-2.52 20.4-11.53 23.77-15.4 17.55-20.17 12.2-50.05 11.42-54.08a82.07 82.07 0 0 1 -48.81 70z" fill="#6d5fde"/><g clip-path="url(#clip-path-24)" fill="#e39c76"><circle cx="382.44" cy="294.54" r="11.58"/><circle cx="428.11" cy="294.54" r="11.58"/></g><path d="m405.81 292.89c-2.23-.57-3.55-1.49-3.91-2.74-.46-1.55.76-2.81 1.63-4.52a13.35 13.35 0 0 0 1.19-7.15.62.62 0 0 1 1.23-.1c.63 7.84-3.41 9.57-2.87 11.43.23.79 1.28 1.44 3 1.88a.62.62 0 0 1 -.27 1.2z" fill="#2d1929"/><path d="m397.42 280.07c0 1.88-1 3.41-2.21 3.41s-2.2-1.52-2.2-3.4 1-3.41 2.2-3.41 2.2 1.52 2.21 3.4z" fill="#2d1929"/><path d="m400.93 300.6a.62.62 0 0 1 -.11-.87.61.61 0 0 1 .87-.1 7.25 7.25 0 0 0 9 0 .62.62 0 1 1 .76 1 8.49 8.49 0 0 1 -10.52-.03z" fill="#2d1929"/><path d="m389.63 272.26a1.24 1.24 0 0 1 -.81-2.17 10 10 0 0 1 11.24-1.09 1.23 1.23 0 0 1 -1.22 2.14c-4.41-2.52-8.25.66-8.41.8a1.27 1.27 0 0 1 -.8.32z" fill="#2d1929"/><path d="m418.94 280.08c0 1.88-1 3.4-2.21 3.4s-2.2-1.53-2.2-3.41 1-3.4 2.21-3.4 2.2 1.52 2.2 3.41z" fill="#2d1929"/><path d="m422.32 272.26a1.27 1.27 0 0 1 -.8-.29 7.54 7.54 0 0 0 -8.41-.8 1.23 1.23 0 0 1 -1.23-2.14 10 10 0 0 1 11.25 1.06 1.24 1.24 0 0 1 -.81 2.17z" fill="#2d1929"/><path d="m364.9 297.12c-9.92-24.49 2.28-51.53 29.59-56.38a46.5 46.5 0 0 0 -24.25 18.64c-10.9 16.96-6.15 34.89-5.34 37.74z" fill="#e5e5e5"/><path d="m361.87 327.41s-30.46 55.84 0 99.38c0 0-18.95-47.64 0-99.38z" fill="#e5e5e5"/></g></svg>