<svg height="512" viewBox="0 0 512 512" width="512" xmlns="http://www.w3.org/2000/svg" xmlns:xlink="http://www.w3.org/1999/xlink"><clipPath id="clip-path"><path d="m170.39 206.3h55.23v105.7h-55.23z" transform="matrix(.988 .153 -.153 .988 42.03 -27.27)"/></clipPath><g id="Newborn"><circle cx="254.58" cy="189.59" fill="#2d1929" r="48.27"/><g clip-path="url(#clip-path)"><path d="m170.39 206.3h55.23v105.7h-55.23z" fill="#955d43" transform="matrix(.988 .153 -.153 .988 42.03 -27.27)"/><path d="m160.92 234.3c2.66 3.12 19.83 22.55 46.78 22.24a58.38 58.38 0 0 0 29.77-8.8l5.78-37.33-77.55-12z" fill="#834a27"/></g><path d="m169 138.65c-2.89-12.31-13.44-20.36-23.57-18s-16 14.28-13.12 26.59 13.44 20.36 23.57 18 16-14.24 13.12-26.59z" fill="#955d43"/><path d="m289.61 136.53s8.21-61.3-32.68-83.48c-.38-.14-.75-.23-1.13-.36-26.77-15.36-49.12-7.83-51.2-7.75a54.89 54.89 0 0 0 -20.7 8.66c-28.38 19.37-35.74 61-35.74 61a45.15 45.15 0 0 0 -1.44 7c-1.42 11.71 1.4 39.9 1.48 49.41 4.34 30.58 21.61 70 52.89 73.25 38 3.59 60.29-40.1 66.78-53.41 7-14.32 13-28.32 14-30.44a46.13 46.13 0 0 0 4.13-15.41c1.22-3 2.45-5.86 3.61-8.47z" fill="#955d43"/><g fill="#2d1929"><path d="m148.21 155.56a.52.52 0 0 1 -.38-.17c-.14-.16-3.47-4-2.86-6.86.54-2.55 3.53-3.2 4.65-3.35.68-6.79-1.35-17.38-8.2-17.09a.49.49 0 0 1 -.52-.47.5.5 0 0 1 .48-.52c7.69-.34 10.09 10.91 9.19 18.59a.51.51 0 0 1 -.47.44s-3.65.27-4.15 2.61 2.6 6 2.63 6a.5.5 0 0 1 -.37.82z"/><path d="m207.46 182c-5.24-2.23-8.09-4.88-8.48-7.88-.86-6.67 10.67-8.86 12.19-29.3a.5.5 0 0 1 1 .08c-.56 7.67-2.73 14.19-6.44 19.39-2.93 4.1-6.16 6.52-5.75 9.7.34 2.62 3 5 7.88 7.09a.5.5 0 0 1 -.4.92z"/><path d="m190.19 146c-.77 4.95-4 8.56-7.18 8.06s-5.18-4.9-4.41-9.84 4-8.56 7.17-8.07 5.23 4.85 4.42 9.85z"/><path d="m199.6 121.59a1 1 0 0 1 -.62-.22c-11.88-9.45-24.52-1.82-25-1.49a1 1 0 1 1 -1.06-1.7c.14-.08 14.36-8.72 27.35 1.63a1 1 0 0 1 -.67 1.78z"/><path d="m246.75 154.75c-.77 4.95-4 8.55-7.19 8.05s-5.17-4.91-4.4-9.86 4-8.55 7.19-8.05 5.17 4.91 4.4 9.86z"/><path d="m259.32 133.35a1 1 0 0 1 -.76-.35c-.41-.48-10.15-11.58-24.33-6.16a1 1 0 0 1 -1.29-.58 1 1 0 0 1 .58-1.29c15.48-5.97 26.48 6.6 26.56 6.73a1 1 0 0 1 -.76 1.65z"/></g><path d="m198.83 273.54c-37.5 6.86-87.4 32.3-98.4 74.49-2.69 10.33.2 31.4 6.09 73.1 3.52 24.88 7 45.45 9.54 59.76h158.2c8.93-152.83 18.51-177.84.46-196.61-20.14-20.95-58.12-13.99-75.89-10.74z" fill="#efbd42"/><path d="m150.65 375.34 12 105.55 29.57-67.46s-21.14-1.76-41.57-38.09z" fill="#d7981a"/><path d="m134.91 300.92s-38.78 24.14-44 84.65 0 95.32 0 95.32h71.69z" fill="#efbd42"/><path d="m205.06 329.27c.92.53 21.16 11.72 35.7 2.88 14.85-9 20.38-36.89 3.12-60.61a65.75 65.75 0 0 0 -17-18.64 258.08 258.08 0 0 1 -21.82 76.37z" fill="#917eec"/><path d="m246 313.38c-58.58 32.62-80.41 100.94-83.38 167.51h161.23a710.24 710.24 0 0 0 21.9-85.39c12.05-63 24.79-129.59-6.24-152.8-9-6.7-19.55-8.28-28.06-8.32z" fill="#e5e5e5"/><path d="m233.39 321.31s.09 14.94 5.64 28.11-47.13 31.53-62.72 61c0 0 51.63-38.16 78-44.55s68.24-16.05 86.39-39.19 0-72.76 0-72.76z" fill="#c6c6c6"/><path d="m331.9 240.93c-15.7-16.49-42.36-20.63-60.36-11.6a55 55 0 0 0 -13.5 8.28c-12.92 8.75-13.21 20.91-17.26 36.28-1.95 7.37-8 17.62-9.54 29.2-.78 5.88-2.67 17.43 2.83 28.89a39.74 39.74 0 0 0 11.93 14.34c16.84 12.57 37.79 7 42.28 5.81a59.26 59.26 0 0 0 13.72-5.69c6.33-3.52 36-20 42.05-53.23 1.25-6.64 6.05-33.21-12.15-52.28z" fill="#e39c76"/><path d="m257.12 313.61a.45.45 0 0 1 -.31-.11c-3.21-2.57-4.67-5-4.35-7.17.7-4.78 9.06-4.1 14-17.78a.5.5 0 0 1 .64-.3.52.52 0 0 1 .3.65c-5.08 14-13.36 13.42-14 17.58-.27 1.81 1.07 3.91 4 6.24a.5.5 0 0 1 -.28.89z" fill="#2d1929"/><path d="m256.13 325.29a.5.5 0 1 1 .6-.8 9.69 9.69 0 0 0 13.82-2.11.5.5 0 0 1 .81.59 10.71 10.71 0 0 1 -15.23 2.32z" fill="#2d1929"/><path d="m286.59 297.2a10.34 10.34 0 0 1 -9.36-6.16.5.5 0 0 1 .9-.42 9.82 9.82 0 0 0 4.79 4.8c4.84 2.17 9.48-.87 9.68-1a.5.5 0 0 1 .69.14.49.49 0 0 1 -.13.69 12.86 12.86 0 0 1 -6.57 1.95z" fill="#2d1929"/><path d="m254.22 287.09a10.34 10.34 0 0 1 -9.36-6.15.5.5 0 0 1 .24-.67.52.52 0 0 1 .67.24 9.79 9.79 0 0 0 4.79 4.81c4.83 2.17 9.48-.87 9.68-1a.5.5 0 1 1 .55.83 12.89 12.89 0 0 1 -6.57 1.94z" fill="#2d1929"/><path d="m246.74 251.57s10.39-14.59 23.65-8.87 21.56 11.49 35.34 11.2 18.45 23.21 16.63 36.93 9.54 28.53 9.54 28.53 16.67-14.68 16.82-51.39-81.98-74.05-101.98-16.4z" fill="#d48f6e"/><path d="m340.67 292.55c-6.5-4-15.69-.82-20.53 7.07s-3.5 17.53 3 21.51 15.68.82 20.53-7.07 3.5-17.52-3-21.51z" fill="#e39c76"/><path d="m323.87 313a.5.5 0 1 1 0-1c.16 0 4 .06 5-3.57.66-2.47-3.82-4-3.86-4a.5.5 0 0 1 -.27-.74c.23-.37 5.75-9 12.07-7.58 5.52 1.21 4.27 7.5 4.26 7.57a.5.5 0 0 1 -1-.21c0-.22 1-5.39-3.5-6.38-4.8-1.05-9.39 4.83-10.66 6.63 1.4.58 4.63 2.26 3.91 5-1.15 4.19-5.5 4.28-5.95 4.28z" fill="#2d1929"/><path d="m283.12 412.13-112.52 68.87 86.45-.09 61.15-54.74z" fill="#834a27"/><path d="m166.26 283.66s17.54 48.2 38.8 45.61 19.2-59.22 19.2-59.22-34.79-12.29-58 13.61z" fill="#955d43"/><path d="m169.2 264.67a21.4 21.4 0 0 0 -10.39 7.83c-4 5.89-16.87 23.56-16.87 23.56s22.22 53.34 39.92 56.48 23.2-23.27 23.2-23.27-36.06-15.59-35.86-64.6z" fill="#917eec"/><path d="m237.9 68.85c-19.68 28.78-48.9 47.05-82.38 55.51a158.32 158.32 0 0 0 8.32 102.05 105.35 105.35 0 0 1 -18-22.86c-24.76-42.54-11-89.21-6.93-101.18 5.38-16 21.63-64.31 60.64-70.68 19.9-3.26 37.15 5.81 45.78 11.33 7.3 1.21 38.46 7.18 54.7 33.36 19.71 31.78 10 81.38-28.76 114l1.15-28.38 3.94-21.46c-25.78-15.54-38.89-42.62-38.46-71.69z" fill="#2d1929"/><path d="m285.49 142.37c-8.94-5.33-21.43-.84-27.91 10s-4.48 24 4.46 29.31 21.43.85 27.91-10 4.48-23.98-4.46-29.31z" fill="#955d43"/><path d="m272.16 173.89s4.09-2.51 4.32-4.92-3.13-3.73-3.16-3.74a.5.5 0 0 1 -.31-.56c1.46-7.57 7.14-17.58 14.38-14.94a.49.49 0 0 1 .3.64.5.5 0 0 1 -.64.3c-6.44-2.35-11.57 7.12-13 13.8 1 .49 3.67 2 3.41 4.6-.28 2.9-4.61 5.56-4.8 5.67a.5.5 0 0 1 -.5-.85z" fill="#2d1929"/><path d="m278.41 461.43s28.62-9 36.93-17.59 14-30.41 14-30.41l-41.46 10.66-30.79 21.57 9.1 15.77z" fill="#834a27"/><path d="m358.38 312.53c6.05 6 24.43 25.55 21.15 48.67-1.45 10.23-6.77 18.6-26 37.42a495.16 495.16 0 0 1 -59.77 49.9l-25.46-28.59z" fill="#955d43"/><path d="m296.85 385.9-28.54 29.1s-42.45 5.84-41.93 9.48 8.7 6 15.59 4.85-8.14 17.67-12.12 21-19.93 5.72-19.23 9.87 16.45 1.22 16.45 1.22-15.76 5.89-13 9.53 19.75-1.74 19.75-1.74-11.26 5.2-8.14 8 20.79-2.08 25.12-4.5 8.66-5.37 8.66-5.37-10.26 10.52-7.15 12.47 41.45-31.18 41.45-31.18l16-11.85s9.24-53.39-12.91-50.88z" fill="#955d43"/><path d="m220.67 198.17a16.18 16.18 0 0 1 -31.37-5.25z" fill="#e5e5e5"/><path d="m227.07 461.84a.5.5 0 0 1 -.26-.93l16.19-9.91a.49.49 0 0 1 .68.17.5.5 0 0 1 -.16.69c-17.29 10.58-16.23 9.98-16.45 9.98z" fill="#2d1929"/><path d="m232.82 469.94a.5.5 0 0 1 -.21-.95l16.71-8.1a.49.49 0 0 1 .66.23.5.5 0 0 1 -.23.67c-17.9 8.67-16.75 8.15-16.93 8.15z" fill="#2d1929"/><path d="m258.57 468.69a.5.5 0 0 1 -.33-.88l7.66-6.75a.5.5 0 0 1 .7 0 .5.5 0 0 1 0 .71c-8.36 7.37-7.76 6.92-8.03 6.92z" fill="#2d1929"/><path d="m373.53 132.92c1.19-23.1-5.59-43.38-15.66-46-6.6-1.72-12.25 5.09-12.81 5.79-6.2 7.69-8.58 20.71-8.6 29.17-.08 31.3 32.92 59.65 32.92 59.65 2.15-2.19 44.73-46.1 42.06-77.34-.65-7.66-4.57-15.6-10.8-15.13-9.47.69-21.12 19.82-27.11 43.86z" fill="#e73f46"/><path d="m403.16 178.88s15.33-14.62 19.57-5.54c3.92 8.41-10.42 22.12-30.35 25.92 0 0-6.8-24.12-.13-28.89 7.18-5.13 11.48 6.49 10.91 8.51z" fill="#e73f46"/></g></svg>