<svg height="512" viewBox="0 0 512 512" width="512" xmlns="http://www.w3.org/2000/svg" xmlns:xlink="http://www.w3.org/1999/xlink"><clipPath id="clip-path"><path d="m381.47 205.11s-66.18 190.89-259.07 254.45h303.87l32.16-262.56z"/></clipPath><clipPath id="clip-path-2"><path d="m254.26 300.67c-6.91-22.78-23.27-37.24-38.94-36.7-14.8.51-26.62 14.34-30.64 25.18-10.68 28.72 20.08 72.59 74.32 111.27 49.77-41.48 76.9-86.3 64.67-114-3.83-8.67-13.55-20.33-26.56-21.7-15.89-1.72-33.61 12.36-42.85 35.95z"/></clipPath><g id="Perfume"><path d="m197.17 133.31h114.85v63.66h-114.85z" fill="#40c2d6"/><path d="m416.72 482.89h-319.44a36.51 36.51 0 0 1 -36.46-34.61l-11.82-228.4a36.5 36.5 0 0 1 36.46-38.4h343.12a36.5 36.5 0 0 1 36.42 38.4l-11.86 228.4a36.51 36.51 0 0 1 -36.42 34.61z" fill="#86ebf9"/><path d="m97.28 459.27a12.89 12.89 0 0 1 -12.87-12.22l-11.86-228.39a12.88 12.88 0 0 1 12.87-13.55h343.16a12.88 12.88 0 0 1 12.87 13.55l-11.86 228.39a12.89 12.89 0 0 1 -12.87 12.22z" fill="#40c2d6"/><path d="m98.13 432.86-10.38-200a12.62 12.62 0 0 1 12.61-13.28h313.28a12.62 12.62 0 0 1 12.61 13.28l-10.38 200a12.63 12.63 0 0 1 -12.62 12h-292.5a12.63 12.63 0 0 1 -12.62-12z" fill="#efbd42"/><path d="m198.84 155.75-78.85-35.99v-50.88l78.85-35.98h111.51l78.85 35.98v50.88l-78.85 35.99z" fill="#86ebf9"/><path d="m129.78 76.31h121.22v35.67h-121.22z" fill="#e5e5e5"/><path d="m200.48 146.99-50.63-23.64h91.29v23.64z" fill="#e5e5e5"/><path d="m149.85 64.95 50.63-23.64h40.66v23.64z" fill="#e5e5e5"/><path d="m260.5 72.71h118.57v42.88h-118.57z" fill="#40c2d6" transform="matrix(-1 0 0 -1 639.56 188.3)"/><g clip-path="url(#clip-path)"><path d="m114.51 419.13-9-172.94a9.11 9.11 0 0 1 9.09-9.58h284.78a9.11 9.11 0 0 1 9.09 9.58l-9 172.94a9.11 9.11 0 0 1 -9.09 8.64h-266.77a9.11 9.11 0 0 1 -9.1-8.64z" fill="#d7981a"/></g><g clip-path="url(#clip-path-2)"><path d="m254.26 300.67c-6.91-22.78-23.27-37.24-38.94-36.7-14.8.51-26.62 14.34-30.64 25.18-10.68 28.72 20.08 72.59 74.32 111.27 49.77-41.48 76.9-86.3 64.67-114-3.83-8.67-13.55-20.33-26.56-21.7-15.89-1.72-33.61 12.36-42.85 35.95z" fill="#c6c6c6"/><path d="m257.54 310.08c-6.91-22.78-23.27-37.24-38.94-36.7-14.8.51-26.62 14.34-30.64 25.17-10.65 28.73 20.08 72.6 74.35 111.27 49.77-41.47 76.9-86.29 64.67-114-3.82-8.67-13.55-20.34-26.56-21.7-15.92-1.71-33.64 12.37-42.88 35.96z" fill="#e5e5e5"/></g><path d="m72.74 219.49h26.53v225.48h-26.53z" fill="#e5e5e5" transform="matrix(1 -.027 .027 1 -8.92 2.44)"/><path d="m97.17 208.56h-27.6l.87-6.06a16.37 16.37 0 0 1 16.21-14.06h12.92z" fill="#e5e5e5"/><path d="m88.39 473h17.61l-2.87-20.13h-27.13l1.22 10.19a11.28 11.28 0 0 0 11.17 9.94z" fill="#e5e5e5"/><path d="m195.5 154.22h116.53v27.26h-116.53z" fill="#e73f46"/><path d="m312 175.05s-42.12-76.76-64-81.25-15.44 14.7-25 26.33-20.15 33.57 11.71 45.87 77.29 9.05 77.29 9.05z" fill="#e73f46"/><path d="m312 175.05s-91.94-38.25-98.55-30 9.42 35.16 98.55 30z" fill="#cc3745"/><path d="m291.2 169.18s74.38-53.19 97-47.51 7.88 20.82 11.63 36.1 3.75 40.69-31.8 37.86-76.83-26.45-76.83-26.45z" fill="#e73f46"/><path d="m291.2 169.18s103.8 5.58 106.33 16.37-24.74 28.81-106.33-16.37z" fill="#cc3745"/><path d="m291.62 165.74a183.67 183.67 0 0 0 -14.81 32.76c-9.9 29.24-6.63 44.22-18.63 60.15-5 6.62-13.84 15.05-30.63 20.83l33.64 1.6-3.81 18.42c12.09-8 27.33-21 33-40.85 2.86-9.9 2.08-17.14 2-30a365.76 365.76 0 0 1 5.21-62.88z" fill="#e73f46"/><path d="m311.8 165.74a182.86 182.86 0 0 1 14.82 32.76c9.89 29.24 6.62 44.22 18.62 60.15 5 6.62 13.84 15.05 30.64 20.83l-33.64 1.6q1.9 9.21 3.8 18.42c-12.09-8-27.32-21-33-40.85-2.85-9.9-2.08-17.14-2-30a364.74 364.74 0 0 0 -5.21-62.88z" fill="#e73f46"/><circle cx="305.26" cy="164.23" fill="#e73f46" r="17.25"/><g fill="#cc3745"><path d="m289.42 170.32a17 17 0 0 1 7.31-21.08s-14.67 1.17-17.07 15a8.23 8.23 0 0 0 9.76 6.08z"/><path d="m317.23 151.83s14.54 7.46 8.08 24.88l-6.06-2.4s7.18-8.47-2.02-22.48z"/><path d="m325 157.31s47.06-21.73 47.36-20.23-41.45 21.32-41.6 23.13 18.42-.3 17.92 3-24.68 3.44-24.68 3.44-5.61-6.33 1-9.34z"/><path d="m286.65 152.05s-40.25-32.65-40.91-31.27 34.91 30.88 34.61 32.66-17.78-4.83-18.11-1.5 23.07 9.41 23.07 9.41 6.97-4.76 1.34-9.3z"/></g></g></svg>