<svg height="512" viewBox="0 0 512 512" width="512" xmlns="http://www.w3.org/2000/svg" xmlns:xlink="http://www.w3.org/1999/xlink"><clipPath id="clip-path"><path d="m132.17 229.39h51.82v92.36h-51.82z" transform="matrix(.999 .05 -.05 .999 14.01 -7.57)"/></clipPath><clipPath id="clip-path-2"><path d="m319.49 227.86h49.17v84.22h-49.17z"/></clipPath><g id="Woman_Support_Woman-2" data-name="Woman Support Woman"><path d="m331.6 151.53-55.84 16.15s5.7 50.88-8.63 88.33-6 74 20.36 80.9 72.09-13.91 72.09-13.91z" fill="#2d1929"/><path d="m314.93 285.61s-38.71 2.91-57.2 41.13-37.26 99.26-83.35 117.11l12 27.12 38.71 3.23c14.27-6.24 47.54-23.14 71.19-60.56 36.02-57.03 21.5-117.1 18.65-128.03z" fill="#917eec"/><path d="m122.43 90.51a63.42 63.42 0 0 0 -21.26 14.33c-23.57 24.51-7.25 50.67-23.38 94.38-12.56 34-32.58 39.27-30.71 69.27 1.85 29.59 2.9 54.55 82.81 59.63s105.91-11.31 105.16-46.79-12.3-40.48 5.26-65.72-7.89-91.61-7.89-91.61z" fill="#287eef"/><g clip-path="url(#clip-path)"><path d="m132.17 229.39h51.82v92.36h-51.82z" fill="#834a27" transform="matrix(.999 .05 -.05 .999 14.01 -7.57)"/><path d="m126 257.43c3.4 2.86 21.46 17.46 45.15 13.8a52.4 52.4 0 0 0 20.96-8.23l1.72-33.74-66-3.31z" fill="#6e3d1e"/></g><g clip-path="url(#clip-path-2)"><path d="m319.49 227.86h49.17v84.22h-49.17z" fill="#f5b493"/><path d="m315.48 267.33c20.63 9 43 9.17 63.18 0v-33.08h-63.18z" fill="#eba284"/></g><path d="m107.61 160.62s3.61-50.91 40.35-62c.33-.05.64-.06 1-.1 24.19-7.94 40.93 1.86 42.67 2.29a45.38 45.38 0 0 1 15.28 10.46c19.7 20.39 18.69 55.26 18.69 55.27a38.73 38.73 0 0 1 0 5.93c-.81 9.7-7.81 32-9.45 39.68-8.62 24-29.16 52.93-55 50.35-31.31-3.45-42-42.47-45-54.32-3.25-12.73-5.79-25.05-6.23-26.93a38.11 38.11 0 0 1 -.7-13.18c-.6-2.61-1.12-5.15-1.61-7.45z" fill="#834a27"/><g fill="#2d1929"><path d="m166.2 210.2c4.27-.85 6.79-2.32 7.49-4.35 1.62-4.68-7.23-8.44-5-25.53a.5.5 0 0 1 1 .13c-2.2 16.83 6.79 20.39 4.94 25.73-.82 2.39-3.59 4.07-8.23 5a.5.5 0 0 1 -.2-.98z"/><path d="m196 185.35c-.21 4.13-2.55 7.36-5.22 7.22s-4.66-3.59-4.45-7.71 2.55-7.36 5.22-7.22 4.69 3.59 4.45 7.71z"/><path d="m204.43 166.89a1 1 0 0 1 -.69-.27c-.37-.35-9.22-8.55-20.29-3a1 1 0 0 1 -.9-1.79c12.34-6.24 22.47 3.19 22.57 3.29a1 1 0 0 1 -.69 1.77z"/><path d="m148.86 183c-.21 4.13-2.54 7.37-5.2 7.24s-4.67-3.58-4.47-7.71 2.53-7.36 5.2-7.23 4.67 3.55 4.47 7.7z"/><path d="m132.78 163.3a1 1 0 0 1 -.61-1.79c.11-.09 11.13-8.46 22.78-1a1 1 0 1 1 -1.07 1.68c-10.45-6.68-20.08.6-20.49.91a1 1 0 0 1 -.61.2z"/></g><path d="m153.72 278s-60.87 4.19-72 32.93 4.63 163.49 4.63 163.49h156.27s-6.47-159.71-22.18-177.28-66.72-19.14-66.72-19.14z" fill="#efbd42"/><path d="m403.5 169.48s-1-50-36.45-62.65l-.95-.15c-23.28-9-40.13-.19-41.86.15a44.5 44.5 0 0 0 -15.47 9.48c-20.28 19-21 53.17-21 53.17a40.85 40.85 0 0 0 -.28 5.81c.32 9.54 6.07 31.71 7.31 39.29 7.25 23.9 25.93 53.23 51.33 52 30.81-1.84 43.21-39.5 46.74-50.94 3.8-12.3 6.9-24.24 7.42-26.05a37.57 37.57 0 0 0 1.34-12.87c.64-2.55 1.27-5.01 1.87-7.24z" fill="#f5b493"/><path d="m343.48 216.09c-4.5-1.14-7.13-2.93-7.82-5.31-1.54-5.28 7.42-8.43 6.1-24.93a.5.5 0 0 1 .46-.54.51.51 0 0 1 .54.46c1.34 16.78-7.48 20.11-6.14 24.73.58 2 3 3.57 7.1 4.62a.5.5 0 0 1 -.24.97z" fill="#2d1929"/><path d="m308.49 170.89a1 1 0 0 1 -.66-1.76c.11-.09 10.5-8.83 22.28-2.11a1 1 0 0 1 .37 1.37 1 1 0 0 1 -1.36.37c-10.54-6-19.6 1.57-20 1.89a1 1 0 0 1 -.63.24z" fill="#2d1929"/><path d="m400.93 174.66c-7.8-3.15-17.22 2-21.06 11.45s-.61 19.72 7.2 22.87 17.23-2 21.06-11.45.6-19.72-7.2-22.87z" fill="#f5b493"/><path d="m391.91 202.3a.5.5 0 0 1 -.32-.88c.81-.69 2.9-2.81 2.81-4.39-.1-1.86-2.89-2.5-2.92-2.51a.51.51 0 0 1 -.39-.51c.23-6.31 3.59-15 9.76-13.8a.49.49 0 0 1 .39.58.5.5 0 0 1 -.59.4c-5.34-1.06-8.23 7-8.54 12.47.94.29 3.17 1.21 3.29 3.32.14 2.4-3 5.09-3.17 5.2a.47.47 0 0 1 -.32.12z" fill="#2d1929"/><path d="m378.78 170.89a1 1 0 0 1 -.65-.24c-.38-.32-9.44-7.91-20-1.89a1 1 0 0 1 -1-1.74c11.78-6.72 22.17 2 22.27 2.11a1 1 0 0 1 -.62 1.76z" fill="#2d1929"/><path d="m183 281.33s32.45.49 52 26.3 43.18 89.37 110.92 107.86v46.23c-7.14.2-88 1-135.65-65.33-35.33-49.21-29.03-102.81-27.27-115.06z" fill="#efbd42"/><path d="m331.43 282.36s-51.71 4-61.87 29.72 14.83 162.35 14.83 162.35h135.75s-2.86-142.76-12.55-169.27-76.16-22.8-76.16-22.8z" fill="#917eec"/><path d="m354.11 283.09s46.89-2.09 69.56 22.84 7.86 168.5 7.86 168.5h-36.34l-21.91-146.43z" fill="#917eec"/><path d="m155.72 222 25.42 2.31a14.13 14.13 0 0 1 -15.25 7.4 13.91 13.91 0 0 1 -10.17-9.71z" fill="#e5e5e5"/><path d="m296.32 290.26s-.45 24.36 12.68 32.74 36.91 20.7 36.91 20.7 17-10.79 32.34-15.1 21.11-38.33 21.11-38.33-6.82-4.27-30.7-7.27-52.85-1.63-72.34 7.26z" fill="#f5b493"/><rect fill="#efbd42" height="24.65" rx="5.83" width="65.99" x="125.21" y="268.49"/><path d="m42 409.51c-7.61 27.46.2 52.84 16.61 61.92 7.47 4.13 21.26 7.4 32.67.92 8.12-4.61 11.6-12.21 13.56-16.64 10.39-23.53-1.4-48.75-4.55-55z" fill="#d7981a"/><path d="m236.15 333.67 3.7 29.59c10.36 20.31 9.94 43.21.18 63.94l2.59 47.23h-92.91s40.22-4.43 54.08-15.43-11.79-12.45-12.59-21.51 31.08-4.89 40.33-18.76 10.63-37.45 2.77-49.93z" fill="#d7981a"/><path d="m91.31 414.28 9-91.29c3.3 51.47 6.31 90.4 7.3 110.53.27 5.47.78 17.56 8.78 28.66a45.34 45.34 0 0 0 13.47 12.25h-43.48v-10.26l8.62-13.39z" fill="#d7981a"/><path d="m45.7 291.6s-17.26 157.46 14.17 170.15 41.83-26.75 40.33-65.75-18.76-110.39-18.76-110.39z" fill="#834a27"/><path d="m375.53 187.63a.5.5 0 0 1 -.44-.27s-2.48-4.57-7.52-4.82a9.35 9.35 0 0 0 -7.59 3.57.5.5 0 0 1 -.8-.61 10.46 10.46 0 0 1 8.44-4c5.6.28 8.24 5.15 8.35 5.36a.5.5 0 0 1 -.44.77z" fill="#2d1929"/><path d="m313.2 185.56a10.42 10.42 0 0 1 7.81-5.07c5.56-.49 8.87 4 9 4.16a.5.5 0 0 1 -.81.58c-.13-.17-3.1-4.19-8.11-3.75a9.42 9.42 0 0 0 -7 4.57.5.5 0 0 1 -.89-.49z" fill="#2d1929"/><path d="m331.15 227.86 26.5-1.67a13.39 13.39 0 0 1 -26.5 1.67z" fill="#2d1929"/><path d="m160.21 110.39s-7.29 59-60 72.35c0 0-12.64-45.84 0-75.74s62.58-19.11 62.58-19.11 32.71-13.91 56 7.53 14.76 83.58 14.76 83.58-17.51.44-22.36-15.73-29.62-53.8-50.98-52.88z" fill="#287eef"/><path d="m204.71 182.48c4.4-9.46 14.26-14.2 22.06-10.6s10.54 14.22 6.16 23.68-14.26 14.21-22.05 10.6-10.55-14.16-6.17-23.68z" fill="#834a27"/><path d="m218.77 199.72a.5.5 0 0 1 -.31-.9c.87-.66 3.11-2.72 3.1-4.33 0-1.91-2.83-2.72-2.86-2.72a.51.51 0 0 1 -.36-.53c.56-6.41 4.42-15.13 10.64-13.56a.49.49 0 0 1 .36.6.51.51 0 0 1 -.61.37c-5.4-1.36-8.76 6.75-9.36 12.28.94.35 3.18 1.4 3.19 3.55 0 2.45-3.35 5-3.49 5.13a.5.5 0 0 1 -.3.11z" fill="#2d1929"/><path d="m110 166c8.11-2.81 17.45 2.9 20.88 12.76s-.39 20.12-8.51 22.94-17.45-2.9-20.87-12.75.34-20.11 8.5-22.95z" fill="#834a27"/><path d="m115.18 194.52a.5.5 0 0 1 -.34-.13c-.13-.13-3.22-3-3-5.46.23-2.14 2.56-3 3.53-3.21 0-5.56-2.58-14-8.09-13.17a.48.48 0 0 1 -.56-.42.5.5 0 0 1 .42-.56c6.36-.93 9.31 8.14 9.22 14.56a.48.48 0 0 1 -.41.48s-2.91.53-3.11 2.42c-.18 1.62 1.85 3.89 2.64 4.62a.5.5 0 0 1 -.3.87z" fill="#2d1929"/><path d="m268 354.94s15 85.52 28.31 92.91 69.4-19.88 72.34-14.79-29.48 24.77-25.06 31.11 34.66 10 34.66 10l-93.87.23a720.17 720.17 0 0 1 -16.38-119.46z" fill="#6d5fde"/><path d="m347.85 119.17c-1.72 9.15-2.34 21.39 4.18 31.59 9.62 15.06 25 10.33 33.28 23.12 10.73 16.52-.93 45.93-9.78 68.26-6.37 16.08-14.35 30-8 40.85a19.34 19.34 0 0 0 8 7.23c13.17 6.93 52.92 6 56.48 36.35 0 0 14-31.58-2-62.7s-8.63-74.58-14.18-110-33.13-51.78-58.17-53.63a70.34 70.34 0 0 0 -27.26-1.89s-19.13 2.47-33.68 13.91c-20.65 16.24-28.16 51.39-16.8 87l17.57 1.49-.62-22.75c0-3.91.5-29.18 20.87-46.1a57.93 57.93 0 0 1 30.11-12.73z" fill="#2d1929"/><path d="m307.39 186.11c-3.83-9.47-13.26-14.6-21.06-11.45s-11 13.39-7.19 22.87 13.26 14.6 21.06 11.47 11.02-13.41 7.19-22.89z" fill="#f5b493"/><path d="m292.82 202.3a.47.47 0 0 1 -.32-.12c-.14-.11-3.31-2.8-3.17-5.21.12-2.1 2.35-3 3.29-3.31-.31-5.45-3.21-13.53-8.54-12.47a.5.5 0 0 1 -.59-.4.49.49 0 0 1 .39-.58c6.17-1.24 9.53 7.49 9.76 13.8a.51.51 0 0 1 -.39.51s-2.82.65-2.92 2.51c-.09 1.58 2 3.7 2.81 4.39a.5.5 0 0 1 -.32.88z" fill="#2d1929"/><path d="m346.67 310.57c-9.25 0-16.78-7.23-21.71-15.05a62.23 62.23 0 0 1 -5.96-12.32.5.5 0 0 1 1-.31c.07.23 7.77 23.41 23.72 26.4s31.27-19.13 31.43-19.36a.51.51 0 0 1 .69-.13.5.5 0 0 1 .13.7 68.58 68.58 0 0 1 -9.88 11c-6.72 5.99-13.35 9.07-19.42 9.07z" fill="#e5e5e5"/><ellipse cx="346.17" cy="313.45" fill="#e5e5e5" rx="4.16" ry="7.05"/><path d="m44.6 309.47 1.58-16.87s-16.18-23.6-15.41-33.55 7.7-6.34 7.7-6.34 0-16.9 11.87-5.78c0 0-2.5-42 1.81-40.82s8.45 36.45 8.45 36.45 8.12-37.83 12.92-36.48-2.52 39.79-2.52 39.79c2.87.26 8.17 1.19 11.69 5.27 2.71 3.14 3.48 7.12 3.08 16.86-.6 14.76-.9 22.14-3.73 26.9-9.55 16.21-36.04 14.67-37.44 14.57z" fill="#834a27"/><path d="m52.65 276a.5.5 0 0 1 -.48-.65 23.31 23.31 0 0 1 20.62-16.2l-3.79-2.84c-17.23-.73-20.05-7 1.91-10.93a.5.5 0 0 1 .18 1c-6.3 1.12-15.09 3.62-14.8 5.55.32 2.12 8.11 3.2 12.94 3.39.23 0-.17-.25 5.26 3.91a.5.5 0 0 1 -.3.9 22.29 22.29 0 0 0 -21.07 15.56.49.49 0 0 1 -.47.31z" fill="#2d1929"/><path d="m45.61 270.14c-4.26 0-11.11-8.37-11.91-9.37a.5.5 0 0 1 .78-.63c2.2 2.74 8.56 9.69 11.58 8.94a.48.48 0 0 0 .38-.33c.77-2.14-4.73-10.79-8.38-15.74a.51.51 0 0 1 .11-.7.5.5 0 0 1 .7.1c3.36 4.59 12.46 17.73 6.74 17.73z" fill="#2d1929"/><path d="m45.67 265.2a.5.5 0 0 1 -.1-.7.51.51 0 0 1 .7-.1c1.34 1 5.19 3.28 6.84 1.51s-1.17-12.42-3.25-18.82a.5.5 0 0 1 .32-.63.49.49 0 0 1 .63.32c1 3.24 5.36 17.32 3 19.82-1.97 2.14-5.81.33-8.14-1.4z" fill="#2d1929"/><path d="m454 301.9s17.27 157.46-14.16 170.1c-7 2.81-12.89 3.07-17.88 1.33-20-6.94-21.61-47.3-22.45-67.11-.94-22.38.83-57.35 16.94-99.69z" fill="#917eec"/><path d="m415.74 306.4s-44.6 106.17-31.66 168h31.66s-47.23 6.43 0-168z" fill="#6d5fde"/><path d="m415.74 308.75 7.06-19.07s-1.48-19.17 4.51-29.32.88-27.58 4.46-29 9.09 8.61 10.24 15 2 10.15 6.1 10.45 19.42-6.86 24.06-4-1.5 9.77-1.5 9.77 10.37 1.88 4.31 9.25c0 0 7.22 1 2.07 8.95 0 0 6.2 1.25 2.54 6.94s-12.19 17.46-23.31 16.95l-.65 11.58s-24.71 7.64-39.89-7.5z" fill="#f5b493"/><path d="m446.24 276.92a.5.5 0 0 1 -.47-.67c2.87-7.79-1.3-20.64-1.34-20.77a.51.51 0 0 1 .32-.63.5.5 0 0 1 .63.32c.18.54 4.32 13.31 1.33 21.42a.52.52 0 0 1 -.47.33z" fill="#2d1929"/><path d="m458.61 289c-.67-2 2.38-3.61 4.33-4.5-4.42.49-8.36.16-9.19-2.27s2.14-4.31 4.39-5.47c-3.86.45-6.16 0-7-1.49-1.62-2.85 4.4-6.25 7.29-7.8-5 1.44-9.82 2.24-11 .47-2.42-3.71 8-12.62 9.24-13.62a.5.5 0 1 1 .64.77c-4.27 3.57-10.5 10.06-9 12.3.7 1.08 6.19.89 18-3.59 2.32-1 4-1.61 4.24-1.69a.5.5 0 0 1 .36.93c-.75.32-2.15.89-3.92 1.56-3.19 1.33-16.63 7.19-14.92 10.17.9 1.58 5 1.34 9.86.34a99.3 99.3 0 0 1 13-3.77.5.5 0 0 1 .28 1 107.19 107.19 0 0 1 -13.21 3.79c-2.39.92-8.17 3.36-7.34 5.8 1.05 3.06 10.05 1.4 13.21.74 4.11-1.3 8.21-2.18 9-2.36a.5.5 0 0 1 .25 1c-.91.29-4.76 1.5-9.1 2.4-2 .63-9.2 3-8.54 5 1 3 8.92 3.22 11.89 3.05a.5.5 0 1 1 .06 1c-3.66.24-11.62-.16-12.82-3.76z" fill="#2d1929"/></g></svg>