<svg xmlns="http://www.w3.org/2000/svg" width="512" height="512" viewBox="0 0 512 512"><defs><style>.cls-1,.cls-14{fill:#383333}.cls-2{fill:#ffb08d}.cls-3{fill:#aaeeea}.cls-10,.cls-11,.cls-13,.cls-16,.cls-4,.cls-6,.cls-8{fill:none;stroke-linecap:round;stroke-linejoin:round}.cls-13,.cls-4{stroke:#00ccc1}.cls-4{stroke-width:4px}.cls-5{fill:#ffb833}.cls-10,.cls-11,.cls-6,.cls-8{stroke:#383333}.cls-11,.cls-14,.cls-15,.cls-6{fill-rule:evenodd}.cls-7{fill:#ff8c5f}.cls-11,.cls-8{stroke-width:.75px}.cls-9{fill:#ff8d93}.cls-12{fill:#00ccc1}.cls-13{stroke-width:3px}.cls-15{fill:#fff}.cls-16{stroke:#fff}</style></defs><g id="Approved"><path d="M229,140.05s-45.56,107.85,7.62,131.37l53.19,23.52,1.63-115Z" class="cls-1"/><path d="M137.73,245.49s6-48,6.25-54.21-13.49-32.39-10-37.05,14.74,19.82,16.07,19.82-6.5-29.2-2.67-31.75,12.66,27.92,13.83,26.09.5-28.36,5.66-28.34,2.83,26,3.66,27.17,8.79-6.87,15.78-2.89,5.12,10.72,3.12,11.72-2.12-3.63-7-4.63-7.75,5.09-7,8.17,4.63,5.57,7.75,4.45,3.28-10.12,8.07-7.87.92,12.09-4.08,16.6-8.49,9.75-9.15,16.08-1.5,34.49-1.5,34.49S153.56,254.65,137.73,245.49Z" class="cls-2"/><rect width="108.72" height="95.01" x="99.05" y="33.04" class="cls-3" rx="47.5"/><path d="M167.79,119s4.69,21,21.79,22.53a.84.84,0,0,0,.84-1.17c-1.71-3.89-6.11-16,.59-25.85Z" class="cls-3"/><polyline points="129.83 85.29 148.04 108.47 185 53.61" class="cls-4"/><rect width="3.13" height="16.75" x="75.14" y="86.61" class="cls-5" rx="1.56" transform="translate(-44.7 82.06) rotate(-45)"/><rect width="3.13" height="16.75" x="75.14" y="86.61" class="cls-5" rx="1.56" transform="translate(63.78 216.39) rotate(-135)"/><rect width="3.97" height="21.26" x="109.11" y="143.95" class="cls-5" rx="1.73" transform="translate(-76.76 123.83) rotate(-45)"/><rect width="3.97" height="21.26" x="109.11" y="143.95" class="cls-5" rx="1.73" transform="translate(80.35 342.44) rotate(-135)"/><rect width="3.97" height="21.26" x="232.12" y="42.98" class="cls-5" rx="1.73" transform="translate(30.66 181.24) rotate(-45)"/><rect width="3.97" height="21.26" x="232.12" y="42.98" class="cls-5" rx="1.73" transform="translate(361.73 257.06) rotate(-135)"/><path d="M314.54,197.19s-3,28.87,1,35.63,24,12,24,12l-20.87,26.62L247,262.06l-5.72-25.95s15.11-2.86,19.69-3.61,9.68-27.05,9.68-27.05l32.83-9.7Z" class="cls-2"/><circle cx="291.41" cy="136.77" r="65.83" class="cls-2"/><path d="M317.93,197s-33.43,24.37-69.71,2-17.84-97-17.84-97S258,66.92,288.76,75.15s30.38,62.06,30.38,62.06Z" class="cls-2"/><path d="M304.17,130.29a19.7,19.7,0,0,0-10.62-5.45c-2.71-.5-6.38-1.17-7.86.78a3,3,0,0,0-.4,3c1,1.91,4.46.88,9.66,1.66,6.84,1,10.87,4.32,11.47,3.41C306.86,133.06,304.93,131.07,304.17,130.29Z" class="cls-1"/><path d="M233.45,123.64A19.7,19.7,0,0,1,244.82,120c2.76,0,6.49-.1,7.62,2.07a3,3,0,0,1-.1,3c-1.31,1.72-4.55.13-9.8,0-6.92-.13-11.44,2.46-11.88,1.46C230.33,125.92,232.57,124.28,233.45,123.64Z" class="cls-1"/><path d="M265,139.14s-6.54,10.29-6,12.54,9.26,2.9,9.26,2.9" class="cls-6"/><ellipse cx="297.64" cy="164.83" class="cls-7" rx="4.78" ry="7.67" transform="translate(92.67 436.38) rotate(-81.93)"/><ellipse cx="236.59" cy="155.95" class="cls-7" rx="4.78" ry="7.67" transform="translate(48.98 368.31) rotate(-81.93)"/><path d="M327.93,139.43a13.12,13.12,0,0,1,9.65-4,10.11,10.11,0,0,1,6,2.1c5.55,5,3.86,21-5.42,25.39-5.19,2.43-10.81.29-12.71-.54Q326.71,150.9,327.93,139.43Z" class="cls-2"/><path d="M341.57,144.72l-9.07-.19s9.36,5.51,1.83,13.14" class="cls-8"/><path d="M317.85,224.11A91.9,91.9,0,0,1,269,220.64a4.25,4.25,0,0,0-5.45,2.67c-.87,2.66-2.23,5.69-4,6.32-13.89,4.81-24.19,6.08-35.73,12.4-16.15,8.85-17.48,35.43-18.45,54.78C203.76,328,211,342.66,215,369.42c3,20,4.69,49.7-3.46,87.82a189.29,189.29,0,0,0,65.2,16.45c47.39,3.18,83.85-12.57,100.77-21.29a266.88,266.88,0,0,1-18-56c-8.39-41.35-6.37-82.35-6.23-85.06,1.95-35.86,9-61-2.76-68.45-6.6-4.17-16.38-1-25.93-9.69A30.17,30.17,0,0,1,317.85,224.11Z" class="cls-9"/><path d="M261.12,236.72s-31.8-.69-47.78,9.4-83.51,94.37-83.51,94.37l26.82,30.72a180.35,180.35,0,0,0,22.6-12c24.31-15.15,38-31.77,55.61-53.4,24-29.61,26.55-41.46,27.56-49.45A55,55,0,0,0,261.12,236.72Z" class="cls-9"/><path d="M177.46,216.38c1.77,13.67,17.36,140.83-20.81,154.83-1,.36-8.71,3.07-16.08-.55-33.48-16.46-4.3-135.14.8-155.37a32.3,32.3,0,0,1,15.61-5A32.9,32.9,0,0,1,177.46,216.38Z" class="cls-9"/><path d="M299.84,203.49s-17.53,6.67-29.65,4.13" class="cls-10"/><path d="M268.24,180.22a7.55,7.55,0,0,1-9.35-.3" class="cls-11"/><path d="M309.91,237c30.19-6.48,46.12,3.29,50.72,6.49,10.5,7.32,17.62,19.17,31.48,42.22,1,1.67,2.57,4.32,7.66,13.43,29.19,52.24,36.6,71,41.44,88.31.54,2,1,3.52,1.14,4.25l-20.54,7.37a175.81,175.81,0,0,1-26.05-16.76c-28.11-21.84-43.84-47.9-52.38-65.72Q326.66,276.82,309.91,237Z" class="cls-9"/><path d="M289,88.06s-7.16,38.28,33.64,47.34c0,0-5.14,21.95,2.83,29.43,0,0,2.63-25.32,4.86-27.37s9.23-2.63,12.25-.69,4.84,7.65,3.85,13.79c-.22,1.33-1.38,5.29-10.31,13.07a64.73,64.73,0,0,1-12,8.91c-11.25,6.57-31.42,31.61-30.16,61.44.15,3.52,2.14,38.51,27.84,50.24,9.67,4.41,19.16,3.91,24.94,3,0,0-12.66-37.79-7.2-51.66,0,0,14.09,1.47,23.63,9.82s12.09,13.5,12.09,13.5,16.3-18.84,6.22-63.17S374.71,61.66,299.84,66c0,0-87.27-22.09-72.82,55.67C227,121.65,246.51,84.46,289,88.06Z" class="cls-1"/><path d="M306.23,391.28,316,429.69c109.82-2.08,124.11-22.65,126.41-32.2,2.64-11-6.14-26.26-17.6-31.68-14.39-6.79-28.36,4.1-57.92,13.76A251.65,251.65,0,0,1,306.23,391.28Z" class="cls-9"/><path d="M218.42,284.86s-15,33.92,0,54.07" class="cls-10"/><rect width="119.18" height="163.47" x="189.5" y="319.58" class="cls-12" rx="8.67"/><rect width="100.63" height="138.67" x="198.78" y="331.97" class="cls-3" rx="5.75"/><rect width="52.43" height="19.93" x="222.88" y="317.95" class="cls-5" rx="5.72"/><rect width="36.77" height="14.87" x="230.71" y="311.5" class="cls-5" rx="4"/><line x1="212.97" x2="285.22" y1="358.04" y2="358.04" class="cls-13"/><line x1="212.97" x2="285.22" y1="371.82" y2="371.82" class="cls-13"/><line x1="212.97" x2="285.22" y1="385.6" y2="385.6" class="cls-13"/><line x1="212.97" x2="285.22" y1="399.38" y2="399.38" class="cls-13"/><line x1="212.97" x2="285.22" y1="413.16" y2="413.16" class="cls-13"/><line x1="212.97" x2="285.22" y1="426.94" y2="426.94" class="cls-13"/><line x1="212.97" x2="285.22" y1="440.72" y2="440.72" class="cls-13"/><line x1="212.97" x2="285.22" y1="454.49" y2="454.49" class="cls-13"/><path d="M317.06,390.28s28-4.21,38.27-7.24" class="cls-10"/><path d="M318.81,426.36s30.24,2.83,48.79.47" class="cls-10"/><path d="M384.77,373s18.93-11,35.57-4.91" class="cls-10"/><path d="M340.9,294.94s.72,26.4,11.76,37.67" class="cls-10"/><path d="M151.22,179.59s9.33-6.38,18.32-8" class="cls-8"/><path d="M177.2,184.37s-4.83,1.83-7.66,8.5" class="cls-8"/><path d="M318,392a7.29,7.29,0,0,0-3.3-4.48,7.7,7.7,0,0,0-4.3-.87c-8.14.47-25.55,9.57-24.11,13.27.65,1.67,5.14,2.27,18.5-.25-2.44,1.08-10.82,5-13.37,10.56a2.13,2.13,0,0,0-.24,1.88c1.09,2,8.2.14,14.4-1.85,0,0-14.58,8.91-12.7,13.29s15.8-3.41,15.8-3.41-12.1,9.74-10.38,12.55,22.32-4.22,23.89-10a5,5,0,0,0-.31-3.76,4.78,4.78,0,0,0-2.6-2c2.43-2,3.4-5,2.49-7.42a5.76,5.76,0,0,0-2.53-2.85,7.44,7.44,0,0,0,.39-6.09,7.21,7.21,0,0,0-2.76-3.28A6.91,6.91,0,0,0,318,392Z" class="cls-2"/><path d="M304.79,399.7s8.92-2.89,12.08-2.37" class="cls-8"/><path d="M305.58,410.29s10.46-4.23,13.66-3.59" class="cls-8"/><path d="M308.68,420.17s7.74-3.35,10.6-3.2" class="cls-8"/><path d="M232,135.57c.24-.24,1.86,2,4.06,1.75,1.23-.15,1.57-.89,3.06-1.53a6.61,6.61,0,0,1,4.1-.27c.36.29.77.71.68,1-.15.55-1.44.44-2.89.78-2.85.65-3.13,2.29-4.79,2.28C233.65,139.62,231.67,135.86,232,135.57Z" class="cls-14"/><path d="M240.51,135.39l-3.93,4.16h0c2.95-2.39,4.94-2.56,6.22-2.27,2.88.66,3.69,2.53,7.32,3.6.53.15,1,.24,1.23.29C245.26,135.29,242.19,134.6,240.51,135.39Z" class="cls-14"/><path d="M305,142.15c-.19-.27-2.15,1.68-4.28,1.08-1.19-.34-1.41-1.13-2.78-2a6.68,6.68,0,0,0-4-.91c-.4.23-.87.58-.83.93.06.57,1.35.66,2.73,1.22,2.7,1.1,2.72,2.77,4.37,3C302.71,145.88,305.26,142.48,305,142.15Z" class="cls-14"/><path d="M296.6,140.61l3.22,4.74h0c-2.53-2.83-4.47-3.32-5.78-3.23-3,.2-4,1.91-7.8,2.39a10.25,10.25,0,0,1-1.26.09C291.92,139.76,295.07,139.56,296.6,140.61Z" class="cls-14"/><path d="M252.34,167.62a55.8,55.8,0,0,0,26-.72c-3.29,6.62-9,11.07-14.79,10.68C252.94,176.86,252.34,167.62,252.34,167.62Z" class="cls-15"/><path d="M182.1,277.89s7.54,55.47-9,74.4" class="cls-10"/><path d="M301.94,93.5S313.15,125,332.5,126.87" class="cls-16"/><path d="M315.7,93.5s11.84,27.57,37.44,29.94" class="cls-16"/><path d="M231.92,103.74S241,60.86,290,77.18" class="cls-16"/><path d="M332.5,180.81S285,234.94,315.22,265.66" class="cls-16"/><path d="M328.66,219.1s-13.92,34.56,1.92,52.32" class="cls-16"/><path d="M358.66,164.83s16.08,52.11,12.72,73.23" class="cls-16"/><path d="M234.1,197S224,219.58,228.82,232.7" class="cls-16"/><path d="M247.54,210.26s-6.31,9.06-4.32,18.12" class="cls-16"/></g></svg>