<svg xmlns="http://www.w3.org/2000/svg" width="512" height="512" viewBox="0 0 512 512"><defs><style>.cls-1{fill:#aaeeea}.cls-2{fill:#232121}.cls-3{fill:#ffdb99}.cls-4{fill:#ffb833}.cls-5{fill:#ffb08d}.cls-10,.cls-6{fill:#383333}.cls-13,.cls-15,.cls-17,.cls-7,.cls-8{fill:none;stroke-linecap:round;stroke-linejoin:round}.cls-13,.cls-17,.cls-7,.cls-8{stroke:#383333}.cls-10,.cls-7{fill-rule:evenodd}.cls-8{stroke-width:.75px}.cls-9{fill:#ff8c5f}.cls-11{fill:#fff}.cls-12{fill:#ff832f}.cls-14{fill:#ffc871}.cls-15{stroke:#fff}.cls-16{fill:#00ccc1}.cls-17{stroke-width:4px}</style></defs><g id="Communication"><rect width="226.64" height="198.05" x="28.77" y="88.92" class="cls-1" rx="11.77"/><path d="M207,281.35s9.76,43.78,45.42,47a1.75,1.75,0,0,0,1.73-2.45c-3.55-8.1-12.73-33.46,1.24-53.89Z" class="cls-1"/><path d="M146.64,38.79s-29.55-22.79-55.15,0-10,33.09-10,33.09-33.4,8.81-30,25S89,123.9,105.23,113s9.49-24,9.49-24,7.18-35,21.32-36.23S150.59,47.21,146.64,38.79Z" class="cls-2"/><path d="M386.09,272s.54,20,3.87,24.24,17.43,6.05,17.43,6.05l-11.88,20H345.74l-6.22-17.21s10.07-3.31,13.13-4.23,4.19-19.34,4.19-19.34L378.4,272Z" class="cls-3"/><polygon points="456.94 373.73 478.03 478.66 446.39 478.66 428.08 390.03 456.94 373.73" class="cls-3"/><rect width="3.12" height="16.7" x="281.68" y="309.46" class="cls-4" rx="1.54" transform="translate(-141.77 293.36) rotate(-45)"/><rect width="3.12" height="16.7" x="281.68" y="309.46" class="cls-4" rx="1.54" transform="translate(258.79 742.81) rotate(-135)"/><rect width="3.12" height="16.7" x="288.04" y="99.24" class="cls-4" rx="1.54" transform="translate(8.74 236.29) rotate(-45)"/><rect width="3.12" height="16.7" x="288.04" y="99.24" class="cls-4" rx="1.54" transform="translate(418.29 388.44) rotate(-135)"/><rect width="3.96" height="21.19" x="153.64" y="347.66" class="cls-4" rx="1.73" transform="translate(-207.75 214.97) rotate(-45)"/><rect width="3.96" height="21.19" x="153.64" y="347.66" class="cls-4" rx="1.73" transform="translate(12.33 721.62) rotate(-135)"/><rect width="3.96" height="21.19" x="391.17" y="136.36" class="cls-4" rx="1.73" transform="translate(11.24 321.04) rotate(-45)"/><rect width="3.96" height="21.19" x="391.17" y="136.36" class="cls-4" rx="1.73" transform="translate(567.24 528.87) rotate(-135)"/><circle cx="157.58" cy="83.93" r="41.99" class="cls-5"/><path d="M127,112.68s13.54,22.65,40.41,18.59,34.69-52.5,34.69-52.5-7.44-27.5-27.57-30.35-33.32,28.85-33.32,28.85Z" class="cls-5"/><path d="M127.8,114.82s-6.87,18.73-17.17,24.66-29,3.43-33.4,16.86S87.84,233,80.82,267.16c0,0,61.81,22.94,100.2,6.56,0,0-7.49-52.92-4.21-81.48s.47-37.46-9.83-43.08S145.9,142.13,144,137s5.43-18.26,5.43-18.26Z" class="cls-5"/><path d="M128.72,105.77S116.49,142.4,100,145.41l14.71,10.3,19.63-25L141,113Z" class="cls-5"/><path d="M145.13,74.37a12.66,12.66,0,0,1,7.59-.54c1.72.38,4.05.9,4.43,2.41a2,2,0,0,1-.52,1.88c-1.07.87-2.84-.6-6.08-1.44-4.28-1.1-7.46-.17-7.59-.86C142.86,75.33,144.49,74.64,145.13,74.37Z" class="cls-6"/><path d="M194.22,87.33a12.53,12.53,0,0,0-5.77-5c-1.61-.72-3.79-1.68-5-.69a1.91,1.91,0,0,0-.7,1.81c.34,1.34,2.63,1.21,5.74,2.47,4.09,1.65,6.1,4.3,6.61,3.82S194.58,87.93,194.22,87.33Z" class="cls-6"/><path d="M168.38,89.78s1.27,7.67.38,8.85-6.16-.6-6.16-.6" class="cls-7"/><path d="M163.79,115.31a7.28,7.28,0,0,1-4.8-1.58" class="cls-8"/><ellipse cx="141.7" cy="95.52" class="cls-9" rx="3.05" ry="4.89" transform="translate(12.83 207.75) rotate(-75.04)"/><ellipse cx="185.97" cy="107.35" class="cls-9" rx="3.05" ry="4.89" transform="translate(34.24 259.3) rotate(-75.04)"/><path d="M135.34,75.82A8.35,8.35,0,0,0,129.89,72a6.33,6.33,0,0,0-4,.47c-4.14,2.3-5.33,12.56-.16,16.55,2.9,2.24,6.7,1.69,8,1.44Q134.51,83.14,135.34,75.82Z" class="cls-5"/><path d="M126.11,77.22l5.67,1.14s-6.58,2.13-3,7.93" class="cls-8"/><path d="M151.62,90.88a3.83,3.83,0,1,1,1.63-5.16A3.83,3.83,0,0,1,151.62,90.88Z" class="cls-10"/><path d="M144.3,83.46c.1,0,.51,1.4,1.48,1.54.7.11,1.07-.61,2.11-1.06a4.67,4.67,0,0,1,2.84-.18,10.22,10.22,0,0,1-2,1.79c-1.08.71-1.78,1.17-2.52,1C144.65,86.19,144.17,83.53,144.3,83.46Z" class="cls-10"/><path d="M186.46,100.63a3.84,3.84,0,1,1,1.33-5.25A3.83,3.83,0,0,1,186.46,100.63Z" class="cls-10"/><path d="M191.33,96.83c-.06-.09-1.17.92-2.06.54-.65-.29-.59-1.09-1.24-2a4.67,4.67,0,0,0-2.31-1.64,9.4,9.4,0,0,0,.79,2.59c.54,1.18.89,1.93,1.62,2.18C189.6,99,191.41,97,191.33,96.83Z" class="cls-10"/><path d="M146.64,140.05s31.27,7.55,41,24.09,26.3,55.57,30,55.88,52.76-40,52.76-40l12.18,9.65s-43.29,60-68,62.18-46.43-47.14-46.43-47.14Z" class="cls-5"/><path d="M88.11,146.24S68.17,150.41,61.3,167s-20,95.21-20,95.21,11.81,6.87,23.39,4.06l23.39-72.11S99,159.86,88.11,146.24Z" class="cls-5"/><path d="M184.5,61s-22,15.81-57.52,10.87c0,0-4.26,1.07-4.73,7.24s1.54,12.18,11.42,11.36c0,0,3.45,17.07-8.59,24.08,0,0-22.58-18.51-14.85-46.6S167.78,9.39,191.34,52c7.24,1.4,10.66,5,11.92,6.51,6.73,8.19,5.37,23.27-5,35.89A38.48,38.48,0,0,0,184.5,61Z" class="cls-6"/><path d="M158,102.1l15.59,4.61s-5.14,5.85-11,4.76S158,102.1,158,102.1Z" class="cls-11"/><path d="M109.26,140.19c-6.06,2.9-14.38,3.56-21.15,6.05,0,0-19.94,4.17-26.81,20.71s-20,95.21-20,95.21a50.8,50.8,0,0,0,7.35,3.09,53.92,53.92,0,0,0,21.9,2.42L81.17,215.5c1.69,18.47,2.55,37.54-.35,51.66,15.32,3.83,27.6,7.16,35.7,9.42,20.39,5.69,29.19,8.67,43.38,10a144.35,144.35,0,0,0,22.92.36c-1.47-9.7-2.78-19.83-3.87-30.38-1.33-12.77-2.22-25-2.78-36.73,8.51,14.3,22.89,33.38,38.47,32,17.15-1.51,43.24-30.86,57.6-48.69l-14-13.22c-14.78,11.91-38,30.28-40.57,30.07-3.74-.31-20.29-39.33-30-55.88-9.66-16.39-40.44-23.95-41-24.09A6.62,6.62,0,0,1,144,137a5.52,5.52,0,0,1-.3-1.75l-21.29-5.49-4.27-1.1A54.46,54.46,0,0,1,109.26,140.19Z" class="cls-12"/><path d="M123.57,130s-7.16-2.63-8.85-1.63-10,13.95-10,13.95l7.73,4.6,7.26-6Z" class="cls-12"/><path d="M136.14,133.27s9.3,2.13,10.5,3,3.23,8.28,3.23,8.28l-23.76,3L134,136.11Z" class="cls-12"/><path d="M264.83,184.63s8-9.46,12.76-13.44,9.83-6.56,11.7-5.86-3.62,5.62-3.62,5.62A42.59,42.59,0,0,0,298,167c5.73-3,9.6-6.67,11.7-4.8s-6.32,15.22-13.93,20.84-15.35,9.93-19.91,15.65C275.82,198.66,263.2,192.92,264.83,184.63Z" class="cls-5"/><path d="M171.18,183.24s14.67,18.22,5,36.62" class="cls-13"/><path d="M130.59,117.42s8.4,8.72,14.55,10.91" class="cls-13"/><circle cx="365.95" cy="233.78" r="45.34" class="cls-3"/><path d="M383.56,275.56s-23.29,16.42-48,.64-11.23-67-11.23-67,19.38-23.88,40.5-17.87S385,234.39,385,234.39Z" class="cls-3"/><path d="M383.58,230.81a13.62,13.62,0,0,0-7.25-3.86c-1.87-.38-4.39-.88-5.42.45a2.08,2.08,0,0,0-.32,2.07c.67,1.33,3.07.66,6.64,1.25,4.7.78,7.44,3.09,7.86,2.48C385.4,232.75,384.09,231.36,383.58,230.81Z" class="cls-6"/><path d="M329.54,223.3a13.65,13.65,0,0,1,7.87-2.36c1.9,0,4.47,0,5.22,1.51a2.06,2.06,0,0,1-.1,2.09c-.92,1.18-3.13,0-6.75-.08-4.76-.16-7.9,1.57-8.2.88C327.37,224.84,328.92,223.74,329.54,223.3Z" class="cls-6"/><path d="M354,237s-4.61,7-4.26,8.57,6.35,2.1,6.35,2.1" class="cls-7"/><path d="M347.31,264.25s2.88,1.44,5.44.54" class="cls-8"/><ellipse cx="377.79" cy="254.39" class="cls-14" rx="3.29" ry="5.28" transform="translate(67.56 587.85) rotate(-81.02)"/><ellipse cx="328.91" cy="246.67" class="cls-14" rx="3.29" ry="5.28" transform="translate(33.94 533.06) rotate(-81.02)"/><path d="M391.45,235.52a9.05,9.05,0,0,1,7.06-1.4,7,7,0,0,1,3.79,2.24c3.08,4.09-.24,14.73-7.1,16.41-3.83.93-7.34-1.27-8.51-2.09Q389.06,243.11,391.45,235.52Z" class="cls-3"/><path d="M399.94,241l-6.09-1.36s5.56,5-.56,9.12" class="cls-8"/><path d="M375.84,246.13a4.14,4.14,0,1,1,.65-5.81A4.16,4.16,0,0,1,375.84,246.13Z" class="cls-10"/><path d="M337.14,240.81a4.14,4.14,0,1,1,1-5.76A4.15,4.15,0,0,1,337.14,240.81Z" class="cls-10"/><path d="M358.07,299.31s-34.69,8.37-45.51,26.72-29.16,61.64-33.32,62-58.52-44.35-58.52-44.35l-13.5,10.7s48,66.55,75.42,69,51.5-52.28,51.5-52.28Z" class="cls-3"/><path d="M358.81,253.74l-17.41-2.29s2.51,8,8.77,9.52S358.81,253.74,358.81,253.74Z" class="cls-11"/><path d="M227,348.76s-8.82-10.5-14.14-14.91-10.91-7.27-13-6.49,4,6.23,4,6.23a47.5,47.5,0,0,1-13.64-4.42c-6.36-3.37-10.64-7.4-13-5.32s7,16.88,15.45,23.11,17,11,22.09,17.36C214.78,364.32,228.78,358,227,348.76Z" class="cls-3"/><path d="M375.47,279.42S364,284.1,357.3,283.59" class="cls-13"/><path d="M346.53,303s18.63,14.88,36.54,10.07S401.7,301.4,401.7,301.4,431.22,305,440.84,314s28.43,86,28.43,86a68.3,68.3,0,0,1-37.12,14l-4.44-15.87,4.81,80.5H317.8l5-83.46L316,406.3S289.68,387.06,283,372.62c0,0,30.85-52.45,36-58S346.53,303,346.53,303Z" class="cls-4"/><path d="M362,198.89c-23.58,14.24-44.4,15.8-50.93,7.42-5-6.4-3.37-20.76,6.25-28.24,8-6.23,19.81-6.25,28.59.28a24.08,24.08,0,0,1,23.59-8.6c10.05,2.2,14.81,10.59,15.54,11.93,12.1-.11,21.65,3.28,24.06,8.67a10.37,10.37,0,0,1,.85,6.37,9.8,9.8,0,0,1-4.2,5.79s14.91,8.43,14.32,29.78-27.58,48.39-32.78,47.88-1.05-27,3.41-27.18,9.59-2.65,11.74-7.5.76-11.61-4-11.37-8.22,5.69-10.26,7-2.19-4.67.44-10-11.94-7.79-4.71-21.37a17.18,17.18,0,0,0-5.29-7.78C371.82,196.32,363,198.61,362,198.89Z" class="cls-6"/><line x1="420.12" x2="428.08" y1="349.31" y2="395.94" class="cls-13"/><line x1="327.56" x2="320.62" y1="343.8" y2="381.5" class="cls-13"/><path d="M151.24,286S162.3,301.2,165,302.81s3.44-1.39,3.44-1.39,4.08,5.9,6.22,5.26S176,302.6,176,302.6s1.85,4.09,4.43,2.69.54-5.16.54-5.16,1.72,1.59,3.08,1a2.19,2.19,0,0,0,1-1c1.12-2.24-2.44-16.77-15.32-24.21,0,0-1.44-.83-16.89-6.17h0Z" class="cls-5"/><path d="M126.08,263.27a167.78,167.78,0,0,1,45.42,13.6q-7.12,8.53-14.26,17.08s-10-6.79-31.16-7.1Z" class="cls-5"/><path d="M160.26,288.24s7,7.41,8.16,13.18" class="cls-8"/><path d="M165.44,284.13s9,11.93,10.25,17.29" class="cls-8"/><path d="M167.3,279.62s10.44,7.77,13.68,20.51" class="cls-8"/><path d="M142.09,266.48l-3.83,21.35s-83.74,3.92-91.86,0-6.65-24.74-3.32-35.9C43.08,251.93,114.89,254.82,142.09,266.48Z" class="cls-12"/><path d="M49.47,255.4S63.24,253,73.36,254" class="cls-13"/><path d="M83.48,255s43.68,5.65,58.61,11.53" class="cls-13"/><polygon points="258.27 189.95 217.65 215.49 190.76 172.12 188.41 204.13 207.39 232.48 234.43 227.88 258.27 189.95" class="cls-12"/><path d="M208.62,236.63s2.71-13.4,9-21.14" class="cls-13"/><path d="M176.87,54.2s-22.06,11.19-41.53,9.2" class="cls-15"/><path d="M157.58,54.08s-14.94,5.53-25.8,2.46" class="cls-15"/><path d="M195.2,61.06s6.85,7.55,6.88,17.71" class="cls-15"/><path d="M122.25,47.15S98,49.13,93.5,57.07s3.07,13,3.07,13S63.19,89.26,69.68,96.54" class="cls-15"/><path d="M89,87.49s-13,10.13-5.23,16.66" class="cls-15"/><path d="M325.58,190.35s-1.11,11.5,15.55,10" class="cls-15"/><path d="M351.49,188.43c.37.84,2.28,8.09,14.46,3.26s13.48,2.76,13.48,2.76,10.53.63,13.86,6.05-4.61,23,4.82,24.2" class="cls-15"/><path d="M403.46,253a23,23,0,0,1-10.17,14" class="cls-15"/><path d="M402.43,472.07H265.8a4.22,4.22,0,0,1-4.19-3.79L252.23,375a4.21,4.21,0,0,1,4.18-4.63H411.82A4.21,4.21,0,0,1,416,375l-9.39,93.25A4.2,4.2,0,0,1,402.43,472.07Z" class="cls-16"/><rect width="144.45" height="6" x="261.89" y="470.44" class="cls-1" rx="2.7"/><circle cx="334.11" cy="419.7" r="16.41" class="cls-1"/><line x1="202.9" x2="484.82" y1="478.66" y2="478.66" class="cls-17"/></g></svg>