<svg xmlns="http://www.w3.org/2000/svg" width="512" height="512" viewBox="0 0 512 512"><defs><style>.cls-1,.cls-15{fill:#383333}.cls-2{fill:#ffb833}.cls-3{fill:#d89071}.cls-4{fill:#d17352}.cls-11,.cls-12,.cls-14,.cls-5,.cls-6,.cls-9{fill:none;stroke-linecap:round;stroke-linejoin:round}.cls-14,.cls-5,.cls-6,.cls-9{stroke:#383333}.cls-5{stroke-width:.75px}.cls-15,.cls-6{fill-rule:evenodd}.cls-7{fill:#ff8d93}.cls-8{fill:#fff3e3}.cls-10{fill:#aaeeea}.cls-11{stroke:#00ccc1;stroke-width:3px}.cls-12{stroke:#fff}.cls-13{fill:#ff832f}.cls-14{stroke-width:5px}</style></defs><g id="Editing"><path d="M367.49,141.8s-6.17,45.75,18.7,72.34,83.74,106.35,0,130.67-229.11,19.8-243.25-31.68,41.86-77.49,55.43-98.43-3-67.31,10.65-99S367.49,141.8,367.49,141.8Z" class="cls-1"/><rect width="3.68" height="19.74" x="185.63" y="30.63" class="cls-2" rx="1.63" transform="translate(26.27 144.42) rotate(-45)"/><rect width="3.68" height="19.74" x="185.63" y="30.63" class="cls-2" rx="1.63" transform="translate(291.4 201.7) rotate(-135)"/><rect width="3.68" height="19.74" x="425.25" y="168.16" class="cls-2" rx="1.63" transform="translate(-0.79 354.14) rotate(-45)"/><rect width="3.68" height="19.74" x="425.25" y="168.16" class="cls-2" rx="1.63" transform="translate(603.2 605.91) rotate(-135)"/><rect width="4.68" height="25.05" x="408.21" y="66.85" class="cls-2" rx="1.73" transform="translate(64.12 313.55) rotate(-45)"/><rect width="4.68" height="25.05" x="408.21" y="66.85" class="cls-2" rx="1.73" transform="translate(644.71 425.81) rotate(-135)"/><rect width="4.68" height="25.05" x="76.24" y="383.65" class="cls-2" rx="1.73" transform="translate(-257.12 171.6) rotate(-45)"/><rect width="4.68" height="25.05" x="76.24" y="383.65" class="cls-2" rx="1.73" transform="translate(-146.01 731.87) rotate(-135)"/><path d="M128.2,267.52s-15-17.91-24.13-25.44S85.46,229.67,81.92,231s6.86,10.64,6.86,10.64a81.17,81.17,0,0,1-23.26-7.54c-10.85-5.76-18.16-12.62-22.15-9.08s12,28.8,26.36,39.43,29.05,18.8,37.68,29.62C107.41,294.07,131.3,283.21,128.2,267.52Z" class="cls-3"/><path d="M269.63,197.17s.11,19.32-4.75,28.94S235.51,236.29,216.65,251s3.5,60.53.9,194.78c0,0,106,18.1,161.07,0,0,0-11.78-79.95-7.78-135.76s-5.42-63.36-17.11-68.26-39.6-12.07-42.24-18.1-4.9-26.49-4.9-26.49Z" class="cls-3"/><path d="M349.65,134.2c.78-.76,5-4.73,11.06-4.29.88.07,4.4.32,6.78,2.55,6.16,5.76,3.8,23.95-6.84,28.62-5.95,2.61-12.26,0-14.39-1Z" class="cls-4"/><path d="M365,140.58l-10.27-.48s10.45,6.5,1.7,15" class="cls-5"/><path d="M222.6,134.2c-.78-.76-5-4.73-11.06-4.29-.88.07-4.4.32-6.78,2.55-6.16,5.76-3.8,23.95,6.84,28.62,6,2.61,12.26,0,14.4-1Q224.29,147.16,222.6,134.2Z" class="cls-4"/><path d="M207.28,140.58l10.27-.48s-10.45,6.5-1.7,15" class="cls-5"/><circle cx="286.95" cy="126.87" r="70.29" class="cls-3"/><path d="M216.71,124.08c.29,8.22,2.56,49.45,34.14,73.14,5.8,4.35,17.62,13,34.25,13.61,30.68,1.16,51.09-25.88,55.17-31.29,14.21-18.83,16.44-39,16.83-48.37C357.1,131.17,279.64,77.08,216.71,124.08Z" class="cls-3"/><path d="M333.39,127.5a22.38,22.38,0,0,0-12.86-4.21c-3.12-.07-7.35-.17-8.66,2.28A3.41,3.41,0,0,0,312,129c1.46,2,5.15.19,11.11.13,7.84-.07,12.94,2.91,13.45,1.78C336.9,130.12,334.38,128.24,333.39,127.5Z" class="cls-1"/><path d="M243,127.23a22.52,22.52,0,0,1,12.91-4c3.13,0,7.36-.07,8.63,2.4a3.44,3.44,0,0,1-.13,3.45c-1.5,1.95-5.16.12-11.11,0-7.84-.19-13,2.71-13.48,1.58C239.48,129.8,242,128,243,127.23Z" class="cls-1"/><path d="M288.51,140.08S294,152.77,293,155.19s-10.89,1.59-10.89,1.59" class="cls-6"/><path d="M217.55,445.78s106,18.1,161.07,0c0,0-11.78-79.95-7.78-135.76s-5.42-63.36-17.11-68.26c-7.77-3.25-22.67-7.51-32.59-11.76-5.36,4.77-19.48,15.75-36.41,16.19-21.66.57-29.61-12.92-29.61-12.92h0C245,237.51,229.53,241,216.65,251,197.79,265.71,220.15,311.53,217.55,445.78Z" class="cls-7"/><path d="M269.11,207.62s19.54,7.15,38.69-1.13" class="cls-6"/><ellipse cx="250.81" cy="162.22" class="cls-4" rx="8.16" ry="5.66"/><ellipse cx="326.08" cy="162.22" class="cls-4" rx="8.16" ry="5.66"/><path d="M345.29,238.64s35.21,9.35,52.55,30.47,32.44,119.65,28.67,135.06-47.89,52.91-47.89,52.91L345.29,440.7Z" class="cls-7"/><path d="M242.31,238.64s-35.2,9.35-52.55,30.47S157.33,388.76,161.1,404.17,209,457.08,209,457.08l33.32-16.38Z" class="cls-7"/><path d="M277.19,72c9.61-.7,23,0,33.19,8.43,12.14,10.13,10,23.45,22.06,36.2,5.81,6.16,16,13.34,35.05,15.87a175.66,175.66,0,0,0-4.09-33.22c-3.77-18-11-38.78-24.74-49.9-27.53-22.25-74.2,4.52-74.2,4.52s-32.52-11.69-44.59,8.68-15.11,69.92-15.11,69.92a62.52,62.52,0,0,0,7.19-.88C247.43,125.13,268.51,89.36,277.19,72Z" class="cls-1"/><path d="M309.71,217.43c6.68-.73,10,.9,11.7,2.68,2.17,2.21,1,3.61,3.49,6,3,3,6.43,2.45,9.34,6.5.48.67.8,1,.85,1.39.46,3.25-8.72,7.29-16.44,18.89-8.84,13.29-8.84,22.91-16.19,22.63-9.85-.38-20.21-20.94-14.86-29.07,3.77-5.73,12.9-1.49,20.7-9.87.77-.82,5.67-6.09,4.25-10.09-.43-1.18-1.32-2-2.08-4.34A15.4,15.4,0,0,1,309.71,217.43Z" class="cls-8"/><path d="M266.62,221.62s-.37,6-3.76,9.8S289.26,242.36,290,248s-7.73,6.79-11.88,13.76-7.73,11.5-13,7.36-4.91-17.91-10.74-25.65-7.74-10.77-3.21-13.49S261.9,213.51,266.62,221.62Z" class="cls-8"/><path d="M285.8,276.15c4.34,0,3.7,6.72-.62,6.72S281.48,276.15,285.8,276.15Z" class="cls-8"/><path d="M285.23,307.82c4.34,0,3.7,6.73-.62,6.73S280.91,307.82,285.23,307.82Z" class="cls-8"/><path d="M298.69,167.87c-.3.4-5.55,7.14-14,6.32a15.91,15.91,0,0,1-10.93-6.32" class="cls-9"/><path d="M291.57,178.86s-5.94,1.7-9.48,0" class="cls-5"/><path d="M373.73,300.91s11.28,22.62,4.89,49" class="cls-9"/><path d="M209,300.91s-10.1,29.59,0,52.32" class="cls-9"/><path d="M127.47,265.27c21.34,33,83.18,132.25,60.22,157.07a26.41,26.41,0,0,1-17.6,8.48c-16,.15-27.86-19.9-35.64-33.37-13.06-22.64-14.89-38.14-25.83-73.16-5.93-19-11.49-34-14.9-42.81a81.06,81.06,0,0,1,33.75-16.21Z" class="cls-7"/><rect width="104.31" height="120.69" x="55.51" y="69.53" class="cls-10" rx="4.34" transform="translate(215.32 259.75) rotate(-180)"/><line x1="139.45" x2="73.08" y1="90.66" y2="90.66" class="cls-11"/><line x1="139.45" x2="73.08" y1="109.9" y2="109.9" class="cls-11"/><line x1="139.45" x2="73.08" y1="129.13" y2="129.13" class="cls-11"/><line x1="139.45" x2="73.08" y1="148.36" y2="148.36" class="cls-11"/><line x1="139.45" x2="73.08" y1="167.6" y2="167.6" class="cls-11"/><path d="M259,72.15s-12.13,37.33-35.89,46.38" class="cls-12"/><path d="M247.28,69.53S236.94,96.47,220,102.13" class="cls-12"/><path d="M279.93,63.1s34.37-4,45.19,14.42,16.73,41.86,33.43,41" class="cls-12"/><path d="M332,64.51s13,34.22,26.58,37.62" class="cls-12"/><path d="M223.08,190.22s8.14,29.57-21.67,53.33-33.48,40-31.93,50.52" class="cls-12"/><path d="M354.7,185.55s-5,32.71,25.88,47.09,30,46.87,30,46.87" class="cls-12"/><path d="M189.47,473.23H390.55a6.17,6.17,0,0,0,6.15-5.56l13.81-137.24a6.18,6.18,0,0,0-6.15-6.8H175.67a6.19,6.19,0,0,0-6.16,6.8l13.81,137.24A6.18,6.18,0,0,0,189.47,473.23Z" class="cls-2"/><rect width="212.57" height="8.83" x="183.73" y="470.84" class="cls-13" rx="2.7" transform="translate(580.03 950.5) rotate(-180)"/><circle cx="290.01" cy="396.17" r="24.15" class="cls-13"/><line x1="497.45" x2="82.58" y1="482.93" y2="482.93" class="cls-14"/><path d="M262.28,149.88a6.46,6.46,0,1,1,.57-9.1A6.47,6.47,0,0,1,262.28,149.88Z" class="cls-15"/><path d="M247.29,140.73c.15-.12,1.41,2.07,3,1.91,1.19-.11,1.5-1.43,3-2.59a7.75,7.75,0,0,1,4.55-1.45,16.3,16.3,0,0,1-2.6,3.76c-1.48,1.6-2.43,2.63-3.72,2.65C249,145.05,247.1,140.89,247.29,140.73Z" class="cls-15"/><path d="M323.21,151.63a6.46,6.46,0,1,1,0-9.12A6.47,6.47,0,0,1,323.21,151.63Z" class="cls-15"/><path d="M329.62,143.44c-.13-.13-1.54,2-3.15,1.71-1.19-.19-1.41-1.53-2.86-2.78a7.73,7.73,0,0,0-4.45-1.75,16.87,16.87,0,0,0,2.35,3.92c1.37,1.7,2.25,2.79,3.54,2.89C327.65,147.64,329.8,143.62,329.62,143.44Z" class="cls-15"/><rect width="18.86" height="90.84" x="38.87" y="85.31" class="cls-13" rx="8.33" transform="matrix(-0.85, 0.52, -0.52, -0.85, 158.01, 216.68)"/><path d="M72.13,169.4a9.43,9.43,0,0,1-13-3.08L23.91,109.13,40,99.23l35.25,57.2A9.42,9.42,0,0,1,72.13,169.4Z" class="cls-2"/><path d="M76.28,158.84l2.46,18.35a1.56,1.56,0,0,1-2.4,1.5L60.92,168.48a1.56,1.56,0,0,1-.67-1.6,11.79,11.79,0,0,1,14.91-9.33A1.54,1.54,0,0,1,76.28,158.84Z" class="cls-13"/><rect width="3.27" height="7.08" x="76.94" y="176.31" class="cls-1" rx="1.45" transform="translate(239.83 291.72) rotate(148.35)"/></g></svg>