<svg xmlns="http://www.w3.org/2000/svg" width="512" height="512" viewBox="0 0 512 512"><defs><style>.cls-1{fill:#aaeeea}.cls-2{fill:#00ccc1}.cls-3{fill:#d89071}.cls-4{fill:#ff832f}.cls-5{fill:#ffb833}.cls-6{fill:#232121}.cls-16,.cls-7{fill:#383333}.cls-10,.cls-12,.cls-13,.cls-15,.cls-8{fill:none;stroke-linecap:round;stroke-linejoin:round}.cls-10,.cls-12,.cls-15,.cls-8{stroke:#383333}.cls-14,.cls-15,.cls-16,.cls-8{fill-rule:evenodd}.cls-9{fill:#d17352}.cls-10,.cls-15{stroke-width:.75px}.cls-11{fill:#fff3e3}.cls-13{stroke:#fff}.cls-14{fill:#fff}</style></defs><g id="Marketing"><rect width="437.26" height="329.59" x="15.3" y="132.92" class="cls-1" rx="20.87"/><circle cx="45.16" cy="155.35" r="7.19" class="cls-2"/><circle cx="75.6" cy="155.35" r="7.19" class="cls-2"/><circle cx="106.04" cy="155.35" r="7.19" class="cls-2"/><path d="M328.43,258.2s6.69-19.34,7.76-30.44-7.36-26.61-5.06-28.15,9-1.53,14.36,8.43,14.15,10,19.9,9,8.81,7.65,9,15.31,6.12,3.83,1.34,13-11.3,15.31-12.83,22.59-18.38,1.72-18.38,1.72Z" class="cls-3"/><path d="M340.32,194.78l12.78,53.61a4.29,4.29,0,0,0,5.33,3.13l29-8.19a4.29,4.29,0,0,0,2.79-5.76L370,188.64a4.29,4.29,0,0,0-4.65-2.6l-21.58,3.52A4.28,4.28,0,0,0,340.32,194.78Z" class="cls-4"/><path d="M494.7,207.82a4.9,4.9,0,0,1-6.11,4.76,579.14,579.14,0,0,0-119.47-17.5c-14.47-.58-28.37-.6-41.63-.17a4.91,4.91,0,0,1-5.05-4.91V133.57a4.91,4.91,0,0,1,5.07-4.91c13.92.48,28.58.47,43.9-.2A568.37,568.37,0,0,0,488.58,111a4.9,4.9,0,0,1,6.12,4.76Z" class="cls-5"/><rect width="35.9" height="72.07" x="336.19" y="125.49" class="cls-4" rx="3.54"/><path d="M374.26,198.87s-13.17,5.44-11.3,11,12.2-1.86,12.2-1.86-11.64,8.18-9.77,12.63,12.21-3.44,12.21-3.44-9.9,7.18-8.47,11.05,13.07-2,13.07-2-9.35,7.33-4.6,9.77,18.24-6.61,18.24-11.92-6.18-3-6.18-3,7.61-10.27-2.87-8.37c0,0,5.74-10-4.31-7.28C382.48,205.45,387,193.87,374.26,198.87Z" class="cls-3"/><path d="M267.84,167s-1.63,43.92,7.47,70.91,5.24,45.09-5,50.83-50.3,1.44-50.3,1.44l-15.75-28.43,11.56-62.87Z" class="cls-6"/><rect width="3.92" height="20.98" x="258.06" y="32.94" class="cls-5" rx="1.63" transform="translate(45.44 196.58) rotate(-45)"/><rect width="3.92" height="20.98" x="258.06" y="32.94" class="cls-5" rx="1.63" transform="translate(413.16 258.01) rotate(-135)"/><rect width="3.92" height="20.98" x="81.73" y="86.43" class="cls-5" rx="1.63" transform="translate(-44.02 87.56) rotate(-45)"/><rect width="3.92" height="20.98" x="81.73" y="86.43" class="cls-5" rx="1.63" transform="translate(74.33 224.63) rotate(-135)"/><rect width="4.97" height="26.63" x="139.97" y="30.12" class="cls-5" rx="1.73" transform="translate(11.01 113.46) rotate(-45)"/><rect width="4.97" height="26.63" x="139.97" y="30.12" class="cls-5" rx="1.73" transform="translate(212.48 174.88) rotate(-135)"/><rect width="4.97" height="26.63" x="312.13" y="74.56" class="cls-5" rx="1.73" transform="translate(30.01 248.2) rotate(-45)"/><rect width="4.97" height="26.63" x="312.13" y="74.56" class="cls-5" rx="1.73" transform="translate(474.94 372.48) rotate(-135)"/><path d="M182.7,204.09s-.83,30.42-5.9,36.9-26.55,9.21-26.55,9.21l18.09,30.51h75.78l9.48-26.2s-15.33-5-20-6.43-6.39-29.45-6.39-29.45L194.4,204.09Z" class="cls-3"/><circle cx="214.95" cy="144.39" r="69.03" class="cls-3"/><path d="M179.19,203.44S210.65,233.32,251.4,215s31.72-98.46,31.72-98.46S259.2,76.31,226.07,80.69s-40,60.4-40,60.4Z" class="cls-3"/><path d="M202.56,135.93a20.65,20.65,0,0,1,11.78-4.23c2.89-.15,6.8-.35,8.07,1.88a3.16,3.16,0,0,1,0,3.19c-1.31,1.86-4.76.31-10.27.42-7.25.13-11.89,3-12.4,2C199.39,138.44,201.66,136.63,202.56,135.93Z" class="cls-7"/><path d="M277,138.61a20.67,20.67,0,0,0-11.33-5.29c-2.86-.42-6.74-1-8.21,1.11a3.18,3.18,0,0,0-.31,3.18c1.13,2,4.71.75,10.19,1.37,7.21.81,11.56,4.11,12.16,3.14C279.93,141.41,277.83,139.4,277,138.61Z" class="cls-7"/><path d="M242.77,150.37s5.4,11.58,4.53,13.85-10,1.76-10,1.76" class="cls-8"/><ellipse cx="199.71" cy="172.93" class="cls-9" rx="8.04" ry="5.01" transform="translate(-1.89 2.2) rotate(-0.63)"/><ellipse cx="267.89" cy="172" class="cls-9" rx="8.04" ry="5.01" transform="translate(-1.87 2.95) rotate(-0.63)"/><path d="M176.62,142.21a13.77,13.77,0,0,0-9.5-5.49,10.57,10.57,0,0,0-6.56,1.36c-6.45,4.39-6.88,21.35,2.19,27.14,5.06,3.23,11.2,1.77,13.29,1.17Q176.33,154.3,176.62,142.21Z" class="cls-3"/><path d="M161.71,145.86l9.45,1s-10.47,4.45-3.68,13.41" class="cls-10"/><path d="M176.62,229.2s-9,13-16.29,14.41-45.11,5.23-59.31,24.44S61.35,393.77,65.52,418.84,185,462.51,185,462.51s23.36-21.12,28.8-39.5l-80.6-27.56,58.49-127.4,3.54-27.57S188.11,236.41,176.62,229.2Z" class="cls-11"/><path d="M183.6,233.53s25.46,7.88,48,0c0,0,.6,10.08,3.94,11.76S257.58,249.67,271,263s-3.73,83.33-6.86,127.81,8.14,71.66,8.14,71.66H83.69l50.12-181.8Z" class="cls-11"/><path d="M239,246.43s32.09,9.09,45,24.13,54.69,120.29,54.69,120.29l-36.34,22.56s-43.92-53.26-58.3-89.6S225.75,269.29,239,246.43Z" class="cls-11"/><path d="M331.17,244.24C323.6,261.13,268,387.4,302.35,413.41c.95.72,7.8,5.74,16.29,4.38,38.62-6.19,45.88-134.15,47-156a58.66,58.66,0,0,0-34.46-17.54Z" class="cls-11"/><path d="M212.75,459.18s19.75,19,24,20.6,4.56-2.88,4.56-2.88,7.36,7.4,10.27,5.93.91-6.19.91-6.19,3.7,5.38,7,2.71-.56-7.52-.56-7.52,2.87,1.83,4.68.67a3.18,3.18,0,0,0,1.16-1.73c1-3.49-7.81-23.37-28.17-30.71,0,0-2.27-.81-25.76-4.49h0Z" class="cls-3"/><path d="M226.25,460.13s11.89,8.82,15.07,16.77" class="cls-10"/><path d="M232.6,452.93s16,14.74,19.13,22.1" class="cls-10"/><path d="M234.11,446s16.94,8.45,24.86,25.85" class="cls-10"/><path d="M226.25,471.64s-13.14-7-21.47-7-10.5-3.91-12.66-8.85,5.25-20.68,8.18-21.76,24.33.12,38.87,7c0,0-16.95-2.92-19.58,4.91S226.25,471.64,226.25,471.64Z" class="cls-3"/><path d="M373.05,209.4s5.67-3.54,9.43-4" class="cls-10"/><path d="M375.28,218.83s7.78-5.13,11.51-6.1" class="cls-10"/><path d="M381,226.83s6.86-3.63,9.54-7.12" class="cls-10"/><path d="M259.91,297.71s19.53,17.15,5,69.23" class="cls-12"/><path d="M294,375s1.9-36.62,11.29-63.54" class="cls-12"/><path d="M135.09,302.61s0,36-21.44,89.6" class="cls-12"/><path d="M200.3,434.06s-67.12-51-111.92-41.85" class="cls-12"/><path d="M88.38,437.32s52.68,23.22,108.28,25.19" class="cls-12"/><path d="M239,89.73s-3.08,39.61-71.87,47c0,0-11.54-1.51-11.3,14.37s13.93,17.44,20.22,15.3c0,0,18.89,26.9,18.12,47.05s1.58,29.35-17.54,38,5.15,36.66-.81,51.21-30.95,2.2-42.44-11.58-6.61-37.35,1.72-42.37c0,0-20.81,5.87-29.14,14.07,0,0-15.76-28.07.09-50s24.74-45.5,21.59-76.07c-2.74-26.48,19.58-63.64,51.56-74.21,12.66-4.19,33.21-6,47,2.2,0,0,1.1.65,16.77,10.7h0s20-10.49,38.75,5,1.53,74.08,1.53,74.08S280.09,89.73,239,89.73Z" class="cls-7"/><path d="M222.77,89.34s-17.61,28.73-63.94,36.15" class="cls-13"/><path d="M194.73,89.34s-16.3,22.21-44.48,24.51" class="cls-13"/><path d="M256.85,85.71s29.86,10,28.52,36" class="cls-13"/><path d="M163,177.94s23.6,35.6,5.45,53.93-27,36.52-15.22,48.84" class="cls-13"/><path d="M141.12,172s6.89,19.57-10.62,41.44S117,248.82,117,248.82" class="cls-13"/><path d="M155.82,210.41s3,15.43-5.57,28.93" class="cls-13"/><path d="M256.28,219s-.39,16.86,8.61,27.48" class="cls-13"/><path d="M197.12,212.63S214.44,222,227.39,221" class="cls-12"/><path d="M222,174.92s12.83,9.19,31.59,4c0,0-5.36,12.25-15.8,12.63S222,174.92,222,174.92Z" class="cls-14"/><path d="M230.34,193.3a8.07,8.07,0,0,0,5,2.2,8,8,0,0,0,4.79-1.25" class="cls-15"/><path d="M224.94,156.65a6.19,6.19,0,1,1,.54-8.73A6.21,6.21,0,0,1,224.94,156.65Z" class="cls-16"/><path d="M210.57,147.87c.14-.11,1.35,2,2.91,1.84,1.15-.11,1.44-1.38,2.9-2.49a7.48,7.48,0,0,1,4.37-1.39,15.78,15.78,0,0,1-2.49,3.61c-1.42,1.53-2.33,2.52-3.57,2.54C212.19,152,210.39,148,210.57,147.87Z" class="cls-16"/><path d="M269.15,157.3a6.19,6.19,0,1,1,0-8.74A6.19,6.19,0,0,1,269.15,157.3Z" class="cls-16"/><path d="M275.3,149.45c-.13-.12-1.47,1.9-3,1.65-1.14-.19-1.35-1.47-2.74-2.67a7.43,7.43,0,0,0-4.26-1.69,15.77,15.77,0,0,0,2.25,3.77c1.31,1.63,2.16,2.67,3.39,2.77C273.42,153.48,275.48,149.62,275.3,149.45Z" class="cls-16"/></g></svg>