<svg xmlns="http://www.w3.org/2000/svg" width="512" height="512" viewBox="0 0 512 512"><defs><style>.cls-1{fill:#ffb833}.cls-2{fill:#ffdb99}.cls-3{fill:#ffc871}.cls-10,.cls-13,.cls-4,.cls-6{fill:none;stroke-linecap:round;stroke-linejoin:round}.cls-10,.cls-4,.cls-6{stroke:#383333}.cls-4{stroke-width:.75px}.cls-5{fill:#aaeeea}.cls-7{fill:#00ccc1}.cls-8{fill:#ff8d93}.cls-11,.cls-9{fill:#383333}.cls-10,.cls-11{fill-rule:evenodd}.cls-12{fill:#fff}.cls-13{stroke:#fff}</style></defs><g id="Optimization"><rect width="3.39" height="18.14" x="192.61" y="40.83" class="cls-1" rx="1.63" transform="translate(21.63 152.01) rotate(-45)"/><rect width="3.39" height="18.14" x="192.61" y="40.83" class="cls-1" rx="1.63" transform="translate(296.42 222.57) rotate(-135)"/><rect width="4.3" height="23.02" x="173.45" y="218.2" class="cls-1" rx="1.73" transform="translate(-111 191.45) rotate(-45)"/><rect width="4.3" height="23.02" x="173.45" y="218.2" class="cls-1" rx="1.73" transform="translate(137.34 516.31) rotate(-135)"/><rect width="4.3" height="23.02" x="400.35" y="89.78" class="cls-1" rx="1.73" transform="translate(46.26 314.28) rotate(-45)"/><rect width="4.3" height="23.02" x="400.35" y="89.78" class="cls-1" rx="1.73" transform="translate(615.48 457.53) rotate(-135)"/><path d="M131.75,294.73s-13.84-16.46-22.19-23.38S92.46,260,89.2,261.17s6.32,9.77,6.32,9.77A74.44,74.44,0,0,1,74.14,264c-10-5.29-16.7-11.6-20.36-8.35s11,26.47,24.23,36.24,26.69,17.28,34.63,27.23C112.64,319.14,134.59,309.15,131.75,294.73Z" class="cls-2"/><path d="M416.42,306.54A43.1,43.1,0,0,0,424,293.65a40.85,40.85,0,0,0,2.38-20.73c-1.55-9.72-6.52-15.24-4.48-17.1,1.6-1.45,5.83.87,6.3,1.12,6.34,3.48,5.39,9,10.09,14.44,7.22,8.31,17.16,3,21.85,11.76,4.35,8.13,2.49,15.21-2.95,20.15s-8,13.2-8,13.2S426.37,321,416.42,306.54Z" class="cls-2"/><path d="M339.8,152.36A13.7,13.7,0,0,1,350,148.42c.81.06,4.05.3,6.23,2.34,5.66,5.29,3.5,22-6.28,26.31-5.47,2.4-11.27,0-13.23-.88Z" class="cls-3"/><path d="M353.88,158.22l-9.44-.43s9.6,6,1.56,13.73" class="cls-4"/><path d="M223,152.36a13.68,13.68,0,0,0-10.16-3.94c-.81.06-4.05.3-6.23,2.34-5.66,5.29-3.49,22,6.29,26.31,5.46,2.4,11.27,0,13.23-.88Q224.59,164.27,223,152.36Z" class="cls-3"/><path d="M209,158.22l9.43-.43s-9.6,6-1.56,13.73" class="cls-4"/><path d="M68.08,208.54C39.25,193.26,32.22,158.33,47,138.28c14.4-19.61,47.21-21.75,64.45-6.61,18.89,16.59,19.49,54.27-7.66,77.14Z" class="cls-5"/><path d="M76.49,216.6s-8.06-51.47-14.3-46S76,194.24,84.54,181.77,82,157.1,79.87,165.27s12.21,18.83,20,9.22-2.34-7.28-5.46.26-6.76,44.45-6.76,44.45" class="cls-6"/><circle cx="399.11" cy="204.88" r="42.65" class="cls-7"/><path d="M466.2,304l3.2-2.24a7.06,7.06,0,0,0,1.62-10l-43.07-58a7.05,7.05,0,0,0-9.72-1.57h0a7.05,7.05,0,0,0-1.83,9.67l39.87,60.27A7.05,7.05,0,0,0,466.2,304Z" class="cls-7"/><circle cx="399.11" cy="204.88" r="34.58" class="cls-5"/><path d="M259.34,202c1,2.8,5.77,17.06-1.42,30a36.93,36.93,0,0,1-10.45,11.54c-2.79,1.9-2.19.82-13.93,6.62-3.34,1.65-7.24,3.65-11.65,6l-1.18.65a42.49,42.49,0,0,0-5.07,3.57,56.37,56.37,0,0,0-9.72,10.36c-7.11,10.27,5.25,39.39,13.94,68.51,1.5,5,5.8,19.46,7.62,29.81,3.44,19.52,2.33,48.84-20.44,89.41A196.3,196.3,0,0,0,254.5,471.6c44.27,6.41,80.58-4,100.48-11.48-2.28-11.11-5-26.22-7.28-44.27-2.44-19.61-5.27-42.26-4.48-71.17.57-21.3-.06-42.66,1.68-63.89.83-10.14,2.31-19.21-3.37-25.78-6.65-7.69-16.26-5.43-29.32-16.62-3.29-2.81-6.8-5.83-9.32-10.88-6-12-1.05-25.11.72-29.28Z" class="cls-2"/><circle cx="282.17" cy="145.62" r="64.6" class="cls-2"/><path d="M217.62,143.06c.27,7.55,2.35,45.44,31.38,67.22,5.33,4,16.19,11.92,31.47,12.5,28.2,1.08,47-23.78,50.71-28.75,13.06-17.31,15.11-35.81,15.46-44.46C346.64,149.57,275.46,99.87,217.62,143.06Z" class="cls-2"/><path d="M250.41,240.62c1.65,3.29,7.34,13.58,19,17.57,14.77,5.06,33.17-2.11,44-18.5a62.81,62.81,0,0,1,16,3.7,70.9,70.9,0,0,1,11.09,5.46c9.44,5.92,16.82,42.43,10.65,91.34,0,0,1.12,93.59,11.21,121.05a167.55,167.55,0,0,1-48.14,17c-52.06,9.73-94.6-8.33-111.93-17a466.72,466.72,0,0,0,7.08-75.09c.48-35.53-3.38-48.78.87-71.19C213.69,296.3,223.1,270,250.41,240.62Z" class="cls-8"/><path d="M318.18,241.56c27,2.33,37,12.66,41.1,18.68,3.14,4.65,3.66,8.09,7.85,25.41,6.61,27.38,5.54,19.77,10.08,39.6,3.34,14.56,7.26,33.29,11,55.48l-35.66,5.75-15.8-63.35Z" class="cls-8"/><path d="M452.77,309.76c-6.91,14.54-48.57,100.67-81.53,94.47-6.47-1.21-15.87-6.61-18.38-14.84-3.41-11.21,7.37-23.14,20.34-37.87,11.37-12.91,28.67-32.79,50.8-59.18a47.55,47.55,0,0,0,7.54,7.63A49.22,49.22,0,0,0,452.77,309.76Z" class="cls-8"/><path d="M237,241.56c-30.35,7.93-40.06,22.07-43.49,28.69S187,288.89,181,312.7c-1.49,5.94-2.58,10.51-3,12.55-3.34,14.56-7.26,33.29-11,55.48l35.66,5.75,15.8-63.35Q227.74,282.35,237,241.56Z" class="cls-8"/><path d="M102.43,309.76C109.34,324.3,151,410.43,184,404.23c6.47-1.21,15.87-6.61,18.38-14.84,3.41-11.21-7.37-23.14-20.34-37.87-11.37-12.91-28.67-32.79-50.8-59.18a47.55,47.55,0,0,1-7.54,7.63A49.22,49.22,0,0,1,102.43,309.76Z" class="cls-8"/><path d="M447.16,258.92s6.37-2.38,8.4,4.92c0,0,7.78-1.35,7.27,8.46a4.1,4.1,0,0,1,5.92,5.2,4,4,0,0,1,3.22,1.21,3.26,3.26,0,0,1,.54,2.36c-.32,4.37-5.31,13.29-9.22,12.44a3,3,0,0,1-1.75-1.19s-.75-1.11.55-6.26h0s-2.19,5.6-5.51,4.07.13-9.06.13-9.06-4.2,5.37-7,2.69,1.22-11.21,1.22-11.21c-1.82,2.84-4,4.33-5.55,3.82-1.18-.39-1.67-1.89-1.77-2.19-1.29-4,3.51-7,3-12.59a9.37,9.37,0,0,0-.58-2.44Z" class="cls-2"/><path d="M346.82,287.82a74.11,74.11,0,0,1,5.46,17.42,76.14,76.14,0,0,1-1.76,34.33c-.49,5.66-.77,11.8-.69,18.36a188.2,188.2,0,0,0,3,31.46" class="cls-6"/><path d="M212.7,293.54a52.15,52.15,0,0,0-4.51,12.3c-3.43,15,.72,27.75,3.17,33.73l.69,18.36" class="cls-6"/><path d="M212.49,251.71a101.52,101.52,0,0,1,40.34-13.35,18.18,18.18,0,0,0,.16,12.29c3.26,8,13.3,13,24.69,11.44l-32.06,6.17-15.1,5.89Z" class="cls-8"/><path d="M324.85,146.2A20.61,20.61,0,0,0,313,142.34c-2.87-.07-6.76-.17-8,2.09a3.13,3.13,0,0,0,.08,3.17c1.34,1.81,4.73.17,10.21.12,7.2-.06,11.89,2.67,12.36,1.64C328.08,148.61,325.76,146.88,324.85,146.2Z" class="cls-9"/><path d="M241.93,147.37A20.68,20.68,0,0,1,253,141.79c2.83-.49,6.66-1.17,8.19.88a3.15,3.15,0,0,1,.39,3.15c-1.06,2-4.66.88-10.08,1.64-7.13,1-11.36,4.41-12,3.46C239.1,150.23,241.13,148.18,241.93,147.37Z" class="cls-9"/><path d="M281.93,161.45s-5,11.65-4.1,13.88,10,1.46,10,1.46" class="cls-10"/><path d="M280.14,196.86s4.56,1.71,8.26-.06" class="cls-4"/><ellipse cx="321.96" cy="181.07" class="cls-3" rx="7.99" ry="4.98" transform="translate(-3.05 5.54) rotate(-0.98)"/><ellipse cx="247.12" cy="182.35" class="cls-3" rx="7.99" ry="4.98" transform="translate(-3.09 4.26) rotate(-0.98)"/><path d="M315.22,168.72a5.94,5.94,0,1,1-.53-8.36A5.95,5.95,0,0,1,315.22,168.72Z" class="cls-11"/><path d="M320.6,160.83c-.13-.11-1.29,1.9-2.79,1.76-1.1-.11-1.38-1.32-2.78-2.38a7.09,7.09,0,0,0-4.19-1.34,15.36,15.36,0,0,0,2.39,3.46c1.36,1.47,2.23,2.42,3.42,2.44C319.05,164.8,320.78,161,320.6,160.83Z" class="cls-11"/><path d="M259.24,170.81a5.94,5.94,0,1,1,0-8.38A6,6,0,0,1,259.24,170.81Z" class="cls-11"/><path d="M244.94,163.32c.12-.11,1.41,1.82,2.9,1.58,1.09-.18,1.29-1.41,2.62-2.56a7.06,7.06,0,0,1,4.09-1.61,15.22,15.22,0,0,1-2.16,3.6c-1.26,1.56-2.06,2.57-3.25,2.66C246.75,167.18,244.78,163.48,244.94,163.32Z" class="cls-11"/><path d="M283.25,96.36s-13.81-6.48-23.58,6.21-15.55,49.66-53,48.19c0,0-11.56-109.21,81.19-73.84,0,0,29-14.31,45.5-.81s22.86,74.65,22.86,74.65-19.14,8.78-28.42-17.41S313.9,82.05,283.25,96.36Z" class="cls-11"/><path d="M261.74,218.66s15.85,11.73,38.68,1.11" class="cls-6"/><path d="M272,184.1a48.77,48.77,0,0,0,24.57,0,12.7,12.7,0,0,1-24.57,0Z" class="cls-12"/><circle cx="335.4" cy="60.46" r="29.46" class="cls-9"/><path d="M256.54,226.82s-3.28,10.31-12.38,12.87-4.26,21.79-4.26,21.79l29.46,16.46,28.77-5.72,22.52-19.84,3-10.82s-11.82-2.43-14.25-11.79C309.39,229.77,279.76,238.09,256.54,226.82Z" class="cls-8"/><path d="M66.5,207.75h39.23a0,0,0,0,1,0,0V230a5.25,5.25,0,0,1-5.25,5.25H72.75A6.25,6.25,0,0,1,66.5,229V207.75A0,0,0,0,1,66.5,207.75Z" class="cls-7"/><path d="M84.24,229.72h4a4.37,4.37,0,0,1,4.37,4.37V235a4.37,4.37,0,0,1-4.37,4.37h-4A4.38,4.38,0,0,1,79.87,235v-.87A4.38,4.38,0,0,1,84.24,229.72Z" class="cls-7"/><path d="M121,111.72A31.68,31.68,0,1,0,152.7,80,31.68,31.68,0,0,0,121,111.72Zm13.4,0A18.29,18.29,0,1,1,152.7,130,18.28,18.28,0,0,1,134.42,111.72Z" class="cls-7"/><rect width="15.6" height="18.44" x="144.9" y="69.42" class="cls-7" rx="2.31" transform="translate(305.41 157.28) rotate(-180)"/><rect width="15.6" height="18.44" x="144.9" y="134.18" class="cls-7" rx="2.31" transform="translate(305.41 286.8) rotate(-180)"/><rect width="15.6" height="18.44" x="112.52" y="101.8" class="cls-7" rx="2.31" transform="translate(231.34 -9.3) rotate(90)"/><rect width="15.6" height="18.44" x="177.28" y="101.8" class="cls-7" rx="2.31" transform="translate(296.11 -74.06) rotate(90)"/><rect width="15.6" height="18.44" x="122.01" y="124.7" class="cls-7" rx="2.31" transform="translate(132.71 -52.56) rotate(45)"/><rect width="15.6" height="18.44" x="167.8" y="78.9" class="cls-7" rx="2.31" transform="translate(113.75 -98.36) rotate(45)"/><rect width="15.6" height="18.44" x="122.01" y="78.9" class="cls-7" rx="2.31" transform="translate(283.91 58.65) rotate(135)"/><rect width="15.6" height="18.44" x="167.8" y="124.7" class="cls-7" rx="2.31" transform="translate(394.46 104.44) rotate(135)"/><path d="M61.45,76.64A24.66,24.66,0,1,0,86.11,52,24.66,24.66,0,0,0,61.45,76.64Zm10.43,0A14.23,14.23,0,1,1,86.11,90.87,14.23,14.23,0,0,1,71.88,76.64Z" class="cls-5"/><rect width="12.14" height="14.35" x="80.04" y="43.71" class="cls-5" rx="2.31" transform="translate(172.22 101.77) rotate(-180)"/><rect width="12.14" height="14.35" x="80.04" y="94.12" class="cls-5" rx="2.31" transform="translate(172.22 202.59) rotate(-180)"/><rect width="12.14" height="14.35" x="54.83" y="68.92" class="cls-5" rx="2.31" transform="translate(137 15.19) rotate(90)"/><rect width="12.14" height="14.35" x="105.24" y="68.92" class="cls-5" rx="2.31" transform="translate(187.41 -35.22) rotate(90)"/><rect width="12.14" height="14.35" x="62.22" y="86.74" class="cls-5" rx="2.31" transform="translate(86.41 -20.78) rotate(45)"/><rect width="12.14" height="14.35" x="97.86" y="51.09" class="cls-5" rx="2.31" transform="translate(71.64 -56.43) rotate(45)"/><rect width="12.14" height="14.35" x="62.22" y="51.09" class="cls-5" rx="2.31" transform="translate(157.78 51.18) rotate(135)"/><rect width="12.14" height="14.35" x="97.86" y="86.74" class="cls-5" rx="2.31" transform="translate(243.83 86.83) rotate(135)"/><path d="M247.13,99.16s-9.1,33.74-29.56,38.68" class="cls-13"/><path d="M235.31,97s-6.76,20.58-19,24.72" class="cls-13"/><path d="M296.4,85.07s17.05-3.27,26.2,8.37,10,43.17,23.72,44.56" class="cls-13"/><path d="M336.68,99.16s3.27,20.78,10,26.26" class="cls-13"/><path d="M316.23,62.71s-.66-24.36,20.45-22.87" class="cls-13"/><path d="M346.32,52.58s9.25,15.07-1.88,22.35" class="cls-13"/><path d="M216,146.18s-2.08,35.76,15.42,48.41c0,0-11.89-34.49-2.77-54.24Z" class="cls-11"/><path d="M349.33,146.18s2.08,35.76-15.42,48.41c0,0,11.89-34.49,2.77-54.24Z" class="cls-11"/><line x1="377.24" x2="416.42" y1="197.61" y2="218.66" class="cls-13"/><line x1="394.65" x2="411.29" y1="196.8" y2="204.88" class="cls-13"/><path d="M455.56,263.84s-.36,3.06-4.64,8.71" class="cls-4"/><path d="M462.83,272.3s-3,6-6.12,8.77" class="cls-4"/><path d="M468.48,276.68s-3.51,8-6.39,9.38" class="cls-4"/></g></svg>