<?xml version="1.0" encoding="UTF-8"?>
<svg xmlns="http://www.w3.org/2000/svg" viewBox="0 0 512 512" width="512" height="512"><defs><style>.cls-1{fill:#00ccc1;}.cls-2{fill:#aaeeea;}.cls-3{fill:#ffdb99;}.cls-10,.cls-11,.cls-4,.cls-8{fill:none;stroke-linecap:round;stroke-linejoin:round;}.cls-4{stroke:#ffb833;stroke-width:4px;}.cls-5{fill:#ffb833;}.cls-6,.cls-9{fill:#383333;}.cls-7{fill:#ffc871;}.cls-11,.cls-8{stroke:#383333;}.cls-8{stroke-width:0.75px;}.cls-9{fill-rule:evenodd;}.cls-10{stroke:#fff;}</style></defs><g id="Planning"><rect class="cls-1" x="43.74" y="57.88" width="352.22" height="281.72" rx="7.17" transform="translate(439.69 397.47) rotate(-180)"/><rect class="cls-2" x="36.45" y="52.15" width="366.8" height="50.9" rx="5.12"/><rect class="cls-1" x="71.63" y="31" width="10.11" height="46.6" rx="3.96"/><rect class="cls-1" x="128.89" y="31" width="10.11" height="46.6" rx="3.96"/><rect class="cls-1" x="186.16" y="31" width="10.11" height="46.6" rx="3.96"/><rect class="cls-1" x="243.43" y="31" width="10.11" height="46.6" rx="3.96"/><rect class="cls-1" x="300.69" y="31" width="10.11" height="46.6" rx="3.96"/><rect class="cls-1" x="357.96" y="31" width="10.11" height="46.6" rx="3.96"/><rect class="cls-2" x="67.31" y="127" width="52.95" height="50.9" rx="10"/><rect class="cls-2" x="151.72" y="127" width="52.95" height="50.9" rx="10"/><rect class="cls-2" x="236.12" y="127" width="52.95" height="50.9" rx="10"/><rect class="cls-2" x="320.53" y="127" width="52.95" height="50.9" rx="10"/><rect class="cls-2" x="67.31" y="190.62" width="52.95" height="50.9" rx="10"/><rect class="cls-2" x="151.72" y="190.62" width="52.95" height="50.9" rx="10"/><rect class="cls-2" x="236.12" y="190.62" width="52.95" height="50.9" rx="10"/><rect class="cls-1" x="320.53" y="190.62" width="52.95" height="50.9" rx="10"/><rect class="cls-2" x="67.31" y="254.24" width="52.95" height="50.9" rx="10"/><rect class="cls-2" x="151.72" y="254.24" width="52.95" height="50.9" rx="10"/><rect class="cls-2" x="236.12" y="254.24" width="52.95" height="50.9" rx="10"/><rect class="cls-1" x="320.53" y="254.24" width="52.95" height="50.9" rx="10"/><path class="cls-3" d="M280.78,328.89s-23.26-47.14-44.73-63.31-30.2-31.26-37.56-29.53,19.67,33.48,19.67,33.48c-7.73,4.27-9.82,8.42-10.29,11.43-.66,4.13,1.75,5.94,3.68,14.79,1.59,7.32.48,8.56,1.7,12.44,2.8,9,12.14,13.13,15.83,15.26,0,0,14.24,8.23,29.34,91.43h0s27.28,2.68,51.43-9.84C309.85,405,296.67,357,280.78,328.89Z"/><path class="cls-4" d="M184.89,188.88c-2.75-.09-17.62-.29-28,11-2.22,2.43-10,10.89-7.92,20.75,2.32,11.08,15.62,17.2,26,17.42,11.43.25,25.47-6.5,28-18.46,1.29-6.07,0-15.39-7.35-20.27-7.66-5.1-16.56-1.79-17.53-1.42"/><rect class="cls-5" x="469.89" y="267.22" width="3.68" height="19.73" rx="1.63" transform="translate(-57.76 414.72) rotate(-45)"/><rect class="cls-5" x="469.89" y="267.22" width="3.68" height="19.73" rx="1.63" transform="translate(609.37 806.58) rotate(-135)"/><rect class="cls-5" x="174.19" y="390.35" width="3.68" height="19.73" rx="1.63" transform="translate(-231.43 241.69) rotate(-45)"/><rect class="cls-5" x="174.19" y="390.35" width="3.68" height="19.73" rx="1.63" transform="translate(17.51 807.68) rotate(-135)"/><rect class="cls-5" x="117.93" y="353.3" width="4.67" height="25.04" rx="1.73" transform="translate(-223.45 192.19) rotate(-45)"/><rect class="cls-5" x="117.93" y="353.3" width="4.67" height="25.04" rx="1.73" transform="translate(-53.37 709.54) rotate(-135)"/><rect class="cls-5" x="443.71" y="332.76" width="4.67" height="25.04" rx="1.73" transform="translate(-113.5 416.53) rotate(-45)"/><rect class="cls-5" x="443.71" y="332.76" width="4.67" height="25.04" rx="1.73" transform="translate(517.3 904.82) rotate(-135)"/><circle class="cls-3" cx="348.54" cy="238.97" r="85.87"/><path class="cls-3" d="M316.17,294.89c-4.08,35.72-17.3,52.83-27.9,61.79-24.71,20.89-52.16,11.89-73.75,33.22-16.62,16.42-19.25,40.44-19.26,56.47A518.07,518.07,0,0,0,273,465.64a527.31,527.31,0,0,0,179.6-1.33s-19.49-68.65-31.45-77.95S366.22,369.08,360.91,362s.88-55.81.88-55.81Z"/><path class="cls-3" d="M270.55,203s-27.51,47.38-7.89,85.25,70.31,47.83,124,24.58C386.69,312.83,373.08,172.89,270.55,203Z"/><path class="cls-6" d="M309.51,212a23.88,23.88,0,0,0-11.62-8.46c-3.13-1.1-7.38-2.59-9.5-.54a3.63,3.63,0,0,0-1,3.52c.84,2.47,5.14,1.88,11.18,3.78,8,2.49,12.13,7.17,13,6.2C312.19,215.81,310.27,213.09,309.51,212Z"/><ellipse class="cls-7" cx="294.53" cy="255.42" rx="5.75" ry="9.24" transform="translate(-35.74 462.57) rotate(-73.03)"/><path class="cls-3" d="M339.87,240c1-.51,6.61-3.14,12.58-.71.87.35,4.35,1.77,6,4.79,4.34,7.84-4,25.45-16.29,26.69-6.86.7-12.4-4-14.23-5.68Z"/><path class="cls-8" d="M353.26,251.43,343,247.59s8.43,10-3.17,15.66"/><path class="cls-9" d="M292.39,236.65a7.24,7.24,0,1,1,2.54-9.9A7.26,7.26,0,0,1,292.39,236.65Z"/><path class="cls-6" d="M316.45,143.08s-23.09-7.54-27.75,18.84,28.45,24.31,41.48,44.58-1.1,38.56,1.54,42.79,8.38-9.56,16.82-11,12.36,9.28,10.74,14.35-9.38,18.55-19.41,18.22-30.32,45.55-28.19,54.47,44,13.44,59.05,4,64.46-26.94,73.51-80-18.09-74.55-34.68-77.56C409.56,171.73,377.9,114.43,316.45,143.08Z"/><path class="cls-5" d="M293.46,345.88s-15.84,18.1-46.37,23.37S195.82,388.1,186,445.78c0,0,132.32,66,278.2,17.34,0,0-31.66-75.77-43-85.38s-53.53-13-56.92-15.84S361.12,350,361.12,350,314.75,352.17,293.46,345.88Z"/><path class="cls-8" d="M237.48,275.53s-8.06,1.27-13,5.09-16.52,3.66-15.42,6.81,7.65,7.61,19.38,4.08,13.85,3.38,13.85,3.38"/><path class="cls-8" d="M221.5,277.09a11.94,11.94,0,0,0,1.12,4.65"/><path class="cls-8" d="M227.37,291.81s3.89,4.64,2.9,7.19-10.32,1-17.53-4.11"/><path class="cls-8" d="M212.56,303.81s14.5,6.64,17.87,3.53-1.27-7.42-1.27-7.42"/><path class="cls-8" d="M214.66,311.47s14,5.34,17,2.23-1.23-6.36-1.23-6.36"/><path class="cls-3" d="M270.56,206.5S266,217,258.75,216.9s-14,13.33,5,17.89Z"/><path class="cls-8" d="M257.62,255.42a7.49,7.49,0,0,0,6.72,3.5"/><path class="cls-10" d="M314.6,152.45s11.11,39.35,58.88,38.17"/><path class="cls-10" d="M349.29,157.78s13.46,24.8,46.66,20.13"/><path class="cls-10" d="M419.36,202s27.71,60-18.85,96"/><path class="cls-10" d="M407.68,234.79s11.93,38-21,63.22"/><path class="cls-11" d="M246.52,413.44l1.32,53.83"/><rect class="cls-1" x="349.67" y="194.91" width="18.89" height="91.02" rx="8.33" transform="translate(760.18 79.43) rotate(124.33)"/><path class="cls-2" d="M321.54,214.75A9.45,9.45,0,0,0,324,227.88l55.59,38,10.66-15.6-55.59-38A9.46,9.46,0,0,0,321.54,214.75Z"/><path class="cls-1" d="M332.3,211.09l-18.25-3.31a1.55,1.55,0,0,0-1.61,2.33l9.5,15.91a1.54,1.54,0,0,0,1.56.74,11.81,11.81,0,0,0,10-14.49A1.55,1.55,0,0,0,332.3,211.09Z"/><rect class="cls-5" x="309.74" y="204.27" width="3.28" height="7.09" rx="1.45" transform="translate(658.6 67.87) rotate(124.33)"/><path class="cls-3" d="M339,244.81s7.25-9.44,14.3-6,7.18,11.91,5.39,15.47-3.58-5-3.58-5l-11.28-4.15Z"/><path class="cls-11" d="M258.4,247.26s1.84,8.2,16.25,6.64"/></g></svg>
