<svg xmlns="http://www.w3.org/2000/svg" xmlns:xlink="http://www.w3.org/1999/xlink" width="512" height="512" viewBox="0 0 512 512"><defs><style>.cls-1,.cls-10,.cls-16,.cls-17,.cls-6,.cls-8{fill:none}.cls-2{fill:#ffdb99}.cls-3{fill:#ffb833}.cls-4,.cls-9{fill:#383333}.cls-10,.cls-15,.cls-16,.cls-4{fill-rule:evenodd}.cls-5{fill:#ffc871}.cls-10,.cls-16,.cls-6,.cls-8{stroke:#383333}.cls-10,.cls-16,.cls-17,.cls-6,.cls-8{stroke-linecap:round;stroke-linejoin:round}.cls-16,.cls-6{stroke-width:.75px}.cls-7{fill:#ff8d93}.cls-11{fill:#fff}.cls-12{clip-path:url(#clip-path)}.cls-13{fill:#aaeeea}.cls-14,.cls-15{fill:#00ccc1}.cls-17{stroke:#fff}</style><clipPath id="clip-path"><rect width="166.44" height="160.04" x="316.59" y="51.81" class="cls-1" rx="14"/></clipPath></defs><g id="Profile"><path d="M373.18,260.66s14.09-14.46,22.38-20.37,16.8-9.49,19.77-8.13-6.59,8.72-6.59,8.72a69.91,69.91,0,0,0,20.5-5c9.7-4.27,16.43-9.71,19.64-6.41s-12.12,24-25.19,32.26-26.18,14.34-34.3,23.11C389.39,284.83,369.53,274,373.18,260.66Z" class="cls-2"/><path d="M405.61,272.51a80.28,80.28,0,0,0-24.42,31l-9.1,20.41-32.8-21.59s21.69-35.21,40.77-48.49Z" class="cls-2"/><rect width="3.42" height="18.3" x="93.12" y="56.47" class="cls-3" rx="1.63" transform="translate(-18.62 86.27) rotate(-45)"/><rect width="3.42" height="18.3" x="93.12" y="56.47" class="cls-3" rx="1.63" transform="translate(115.48 179.07) rotate(-135)"/><rect width="3.42" height="18.3" x="293.55" y="31.32" class="cls-3" rx="1.63" transform="translate(57.86 220.63) rotate(-45)"/><rect width="3.42" height="18.3" x="293.55" y="31.32" class="cls-3" rx="1.63" transform="translate(475.42 277.87) rotate(-135)"/><rect width="4.34" height="23.23" x="62.48" y="187.98" class="cls-3" rx="1.73" transform="translate(-122.2 104.17) rotate(-45)"/><rect width="4.34" height="23.23" x="62.48" y="187.98" class="cls-3" rx="1.73" transform="translate(-30.78 386.43) rotate(-135)"/><rect width="4.34" height="23.23" x="327" y="243.25" class="cls-3" rx="1.73" transform="translate(-83.8 307.4) rotate(-45)"/><rect width="4.34" height="23.23" x="327" y="243.25" class="cls-3" rx="1.73" transform="translate(381.71 667.83) rotate(-135)"/><path d="M124.38,143.13S111.16,187,127.2,209.28c0,0,80.86,31.08,148.64,2.62,0,0,15.46-54.8,4.36-98.91s-139.15,4.69-139.15,4.69Z" class="cls-4"/><path d="M265.73,125c.77-.75,5-4.7,11-4.26.88.07,4.38.32,6.74,2.53,6.11,5.72,3.77,23.78-6.79,28.42-5.9,2.6-12.18,0-14.29-1Q264,137.83,265.73,125Z" class="cls-5"/><path d="M280.94,131.29l-10.2-.47s10.38,6.46,1.69,14.84" class="cls-6"/><path d="M139.58,125c-.77-.75-5-4.7-11-4.26-.88.07-4.38.32-6.74,2.53-6.11,5.72-3.77,23.78,6.79,28.42,5.91,2.6,12.18,0,14.3-1Q141.27,137.83,139.58,125Z" class="cls-5"/><path d="M124.38,131.29l10.19-.47s-10.37,6.46-1.69,14.84" class="cls-6"/><path d="M178.81,178.55c1.07,3,6.23,18.43-1.53,32.38A39.89,39.89,0,0,1,166,223.38c-3,2.06-2.37.9-15.05,7.16-3.62,1.79-7.82,3.94-12.59,6.53-.55.3-.86.46-1.27.7a46,46,0,0,0-5.49,3.86,61.11,61.11,0,0,0-10.5,11.18c-7.68,11.1,5.68,42.56,15.06,74,1.62,5.42,6.27,21,8.24,32.2,3.72,21.1,2.51,52.77-22.09,96.6a211.74,211.74,0,0,0,51.28,14.21c47.82,6.93,87.06-4.29,108.55-12.4-2.46-12-5.44-28.33-7.87-47.83-2.64-21.18-5.68-45.65-4.84-76.88.62-23-.07-46.08,1.82-69,.89-11,2.49-20.76-3.64-27.85-7.18-8.31-17.57-5.87-31.68-18-3.55-3-7.35-6.29-10.06-11.75-6.46-13-1.14-27.13.78-31.64Z" class="cls-2"/><circle cx="203.47" cy="117.68" r="69.79" class="cls-2"/><path d="M133.73,114.91c.29,8.16,2.55,49.1,33.9,72.62,5.76,4.32,17.49,12.88,34,13.51,30.47,1.16,50.73-25.69,54.78-31.06,14.12-18.7,16.33-38.69,16.71-48C273.12,122,196.22,68.25,133.73,114.91Z" class="cls-2"/><path d="M169.16,220.31c1.78,3.56,7.93,14.68,20.47,19,16,5.47,35.84-2.28,47.49-20a68.27,68.27,0,0,1,17.29,4,76.92,76.92,0,0,1,12,5.9c10.2,6.4,18.17,45.84,11.51,98.68,0,0,1.21,101.11,12.1,130.77A181.4,181.4,0,0,1,238,477c-56.25,10.5-102.2-9-120.92-18.33,10.42-31.07,11.85-56.31,11-74.14-1-22-6-46.17-7.67-92.48-.48-13.06,0-20.59,3-30C132.08,235.45,161,223.4,169.16,220.31Z" class="cls-7"/><path d="M242.38,221.33c29.15,2.51,40,13.67,44.39,20.18,3.4,5,4,8.74,8.48,27.45,7.14,29.58,6,21.36,10.9,42.78,3.6,15.73,7.84,36,11.88,59.93l-38.52,6.22-17.08-68.44Q252.41,265.4,242.38,221.33Z" class="cls-7"/><path d="M387.77,295c-7.46,15.71-52.47,108.76-88.07,102.07-7-1.32-17.15-7.14-19.86-16-3.68-12.11,8-25,22-40.91,12.29-13.95,31-35.42,54.88-63.93a51.43,51.43,0,0,0,8.15,8.24A53.07,53.07,0,0,0,387.77,295Z" class="cls-7"/><path d="M273.32,271.3a80.84,80.84,0,0,1,5.9,18.82,82.2,82.2,0,0,1-1.91,37.08c-.53,6.12-.83,12.76-.75,19.85a202.37,202.37,0,0,0,3.28,34" class="cls-8"/><path d="M249.58,118.31a22.24,22.24,0,0,0-12.76-4.18c-3.1-.07-7.31-.17-8.6,2.26a3.42,3.42,0,0,0,.08,3.43c1.46,2,5.12.19,11,.13,7.79-.07,12.85,2.88,13.36,1.77C253.06,120.91,250.57,119,249.58,118.31Z" class="cls-9"/><path d="M160,119.57a22.27,22.27,0,0,1,12-6c3.06-.53,7.2-1.26,8.84.95a3.42,3.42,0,0,1,.43,3.41c-1.15,2.14-5,.94-10.89,1.77-7.71,1.09-12.28,4.76-12.95,3.73C157,122.66,159.14,120.44,160,119.57Z" class="cls-9"/><path d="M203.22,131.43s-5.44,12.59-4.44,15S209.59,148,209.59,148" class="cls-10"/><path d="M201.27,173s4.93,1.85,8.93-.07" class="cls-6"/><ellipse cx="246.46" cy="155.98" class="cls-5" rx="8.63" ry="5.37" transform="translate(-2.64 4.24) rotate(-0.98)"/><ellipse cx="165.6" cy="157.36" class="cls-5" rx="8.63" ry="5.37" transform="translate(-2.67 2.86) rotate(-0.98)"/><path d="M239.17,139.29a6.41,6.41,0,1,1-.56-9A6.43,6.43,0,0,1,239.17,139.29Z" class="cls-4"/><path d="M245,130.76c-.14-.12-1.4,2.06-3,1.9-1.19-.11-1.5-1.42-3-2.57a7.71,7.71,0,0,0-4.53-1.44,16.58,16.58,0,0,0,2.59,3.73c1.46,1.59,2.41,2.62,3.69,2.64C243.32,135.05,245.18,130.92,245,130.76Z" class="cls-4"/><path d="M178.69,141.55a6.41,6.41,0,1,1,0-9.06A6.42,6.42,0,0,1,178.69,141.55Z" class="cls-4"/><path d="M163.25,133.46c.13-.13,1.53,2,3.13,1.7,1.18-.2,1.4-1.52,2.83-2.77a7.75,7.75,0,0,1,4.42-1.74,16.42,16.42,0,0,1-2.33,3.9c-1.36,1.69-2.23,2.77-3.51,2.87C165.2,137.63,163.07,133.63,163.25,133.46Z" class="cls-4"/><path d="M181.39,196.59s17.13,12.67,41.8,1.19" class="cls-8"/><path d="M192.44,159.26a52.84,52.84,0,0,0,26.54,0,13.71,13.71,0,0,1-26.54,0Z" class="cls-11"/><path d="M225.58,55.11c-4.55,5.53-9.87,11.7-16,18.25-25.1,26.81-45.13,47.66-71.89,49.43a57.18,57.18,0,0,1-14-.82c0-38.74,7.73-57.91,16-69.29A54.2,54.2,0,0,1,150,41.54c25.2-20.22,62.39-8.3,70.4-5.54a42.6,42.6,0,0,1,17.41-.48A44.27,44.27,0,0,1,262.36,49.4c24,26.21,21.08,73.83,21.08,73.83a37.22,37.22,0,0,1-14.06-3c-10-4.32-15.34-12.2-20.78-21.06A370.5,370.5,0,0,1,225.58,55.11Z" class="cls-4"/><path d="M95.37,422.17a50.63,50.63,0,0,1,15.23,11.16c3.05,3.33,3.77,5.11,6.88,7.27,2,1.39,4.58,2.66,15.44,4.15,17.64,2.43,18.77.16,24,3,1.62.9,5.06,3.08,7,1.8a3.59,3.59,0,0,0,1.24-2.49c.69-4.15-8.83-8.65-8.83-8.65s8.14,1.55,13.33,5.53,12.63-4.67-6.23-12.63c0,0,11.25,4.33,17.82,6.06s1.39-11.08-17.3-15.23c0,0,11.85-.09,16.44.78a2.35,2.35,0,0,0,1.9-.46,2.91,2.91,0,0,0,.51-2.59c-.73-4.48-20.32-6.9-20.32-6.9-17.65-2.18-21.48-.09-28.4-3.49-6.5-3.2-10.49-8.66-12.92-13.06a68.36,68.36,0,0,0-25.74,25.72Z" class="cls-2"/><path d="M158.49,225.05s-38.22,14.28-52,31.41-66.56,73-67.68,88.18,59.83,87.05,59.83,87.05a94.42,94.42,0,0,0,28.72-30.89L89.94,349.65s37.63-26.92,58.69-57.81S158.49,225.05,158.49,225.05Z" class="cls-7"/><path d="M72.69,295.65s32-46.89,44.39-54.76,41.41-15.84,41.41-15.84L127.6,276Z" class="cls-7"/><g class="cls-12"><rect width="166.44" height="160.04" x="316.59" y="51.81" class="cls-13" rx="14"/><circle cx="420.21" cy="93.72" r="32.44" class="cls-14"/><path d="M298.93,91.67s32.52-18.88,57.7,8.4,28.84,66.09,49.82,68.44,46.68-42.29,86.54-28.62l-6.29,75-86.89,6.29L312.34,217l-8.69-55Z" class="cls-15"/></g><path d="M150.81,421a43,43,0,0,1,13.09,1.19" class="cls-16"/><path d="M152.91,429.37a43.84,43.84,0,0,1,10.47,2" class="cls-16"/><path d="M147.53,437s7.17.45,9.82,2" class="cls-16"/><path d="M198.65,60.65s-27,41.43-53,48.78" class="cls-17"/><path d="M181.24,63.76s-25,27-49.32,28.75" class="cls-17"/><path d="M237.83,60.65S249,93.53,273.12,102" class="cls-17"/><path d="M248.5,64.84s10.62,21,27.34,23.34" class="cls-17"/><path d="M138.18,168.43s-1.05,21.23,5.59,31.16" class="cls-17"/><path d="M152.69,186.27s.7,17.88,8,22.31" class="cls-17"/><path d="M266.33,164.38s3.15,23.51-8,44.2" class="cls-17"/><path d="M246.46,187.48s-.24,14.75-2.33,21.1" class="cls-17"/></g></svg>