<svg xmlns="http://www.w3.org/2000/svg" width="512" height="512" viewBox="0 0 512 512"><defs><style>.cls-1{fill:#00ccc1}.cls-2{fill:#aaeeea}.cls-11,.cls-13,.cls-14,.cls-3,.cls-7,.cls-8{fill:none;stroke-linecap:round;stroke-linejoin:round}.cls-3{stroke:#00ccc1}.cls-13,.cls-3{stroke-width:4px}.cls-4{fill:#ffb833}.cls-5{fill:#d89071}.cls-10,.cls-6{fill:#383333}.cls-11,.cls-13,.cls-7,.cls-8{stroke:#383333}.cls-10,.cls-7{fill-rule:evenodd}.cls-8{stroke-width:.75px}.cls-9{fill:#d17352}.cls-12{fill:#fff}.cls-14{stroke:#fff}</style></defs><g id="Programming"><rect width="165.46" height="229.45" x="41.31" y="229.03" class="cls-1" rx="12.55" transform="translate(-25.18 10.16) rotate(-4.26)"/><rect width="131.69" height="115.08" x="315.38" y="68.58" class="cls-2" rx="55.18" transform="translate(762.44 252.24) rotate(-180)"/><path d="M363.8,172.73s-5.67,25.44-26.39,27.29a1,1,0,0,1-1-1.42c2.07-4.7,7.4-19.44-.72-31.31Z" class="cls-2"/><polyline points="362.19 110.95 345.9 127.25 360.35 141.69" class="cls-3"/><polyline points="407.23 110.95 423.52 127.25 409.08 141.69" class="cls-3"/><line x1="396.04" x2="371.72" y1="105.49" y2="149.79" class="cls-3"/><rect width="3.55" height="19" x="273.52" y="50.34" class="cls-4" rx="1.63" transform="translate(38.32 212.19) rotate(-45)"/><rect width="3.55" height="19" x="273.52" y="50.34" class="cls-4" rx="1.63" transform="translate(427.65 296.81) rotate(-135)"/><rect width="4.5" height="24.11" x="88.68" y="130.7" class="cls-4" rx="1.73" transform="translate(-74.31 106.11) rotate(-45)"/><rect width="4.5" height="24.11" x="88.68" y="130.7" class="cls-4" rx="1.73" transform="translate(54.29 308) rotate(-135)"/><rect width="4.5" height="24.11" x="305.79" y="199.44" class="cls-4" rx="1.73" transform="translate(-59.33 279.76) rotate(-45)"/><rect width="4.5" height="24.11" x="305.79" y="199.44" class="cls-4" rx="1.73" transform="translate(376.31 578.86) rotate(-135)"/><path d="M172,211.49s-.76,27.66-5.37,33.54-24.12,8.37-24.12,8.37l16.44,27.73h68.87l8.61-23.81s-13.93-4.57-18.16-5.84-5.81-26.77-5.81-26.77l-29.82-13.22Z" class="cls-5"/><path d="M269,397.37s36.35-26.63,45.57-46.6c0,0-42.69-72.58-49.8-80.26s-38.08-16.11-38.08-16.11c-2.39,4-9.93,15.5-24,19.74-18,5.43-39.41-3.16-52.32-21.92,0,0-40.85,4.94-54.16,17.44s-39.34,119-39.34,119a64.35,64.35,0,0,0,14,8.91,66.11,66.11,0,0,0,30.25,6.08l17.72-51.55q-4.44,54.39-8.9,108.78l164.18-.11c-2.48-6.88-4.82-14.27-6.89-22.16a258.55,258.55,0,0,1-8.37-67Z" class="cls-4"/><circle cx="210.25" cy="162.6" r="62.74" class="cls-5"/><path d="M174.05,213.84s26.6,29.1,64.72,15.12,35.07-87.22,35.07-87.22-19.11-38-49.42-36.18-40.15,52.2-40.15,52.2Z" class="cls-5"/><path d="M196.69,156.73a18.75,18.75,0,0,1,10.95-3.07c2.63,0,6.18.11,7.19,2.21a2.88,2.88,0,0,1-.19,2.9c-1.3,1.6-4.34,0-9.34-.28-6.58-.34-11,2-11.36,1C193.65,158.8,195.83,157.31,196.69,156.73Z" class="cls-6"/><path d="M266.8,162.36a18.82,18.82,0,0,0-9.93-5.53c-2.57-.56-6.05-1.33-7.52.49a2.86,2.86,0,0,0-.48,2.86c.89,1.86,4.22,1,9.15,1.89,6.48,1.2,10.21,4.47,10.82,3.62C269.27,165.08,267.5,163.13,266.8,162.36Z" class="cls-6"/><path d="M230.64,170.83s4.15,10.84,3.21,12.84-9.2,1-9.2,1" class="cls-7"/><path d="M230.77,211.3s-4.33,1.1-7.51-.88" class="cls-8"/><ellipse cx="200.3" cy="186.72" class="cls-9" rx="4.55" ry="7.31" transform="translate(1.98 375.55) rotate(-86.59)"/><ellipse cx="256.48" cy="191.02" class="cls-9" rx="4.55" ry="7.31" transform="translate(50.53 435.67) rotate(-86.59)"/><path d="M175.28,157.39a12.6,12.6,0,0,0-9.14-4,9.66,9.66,0,0,0-5.78,1.9c-5.38,4.62-4.05,20,4.72,24.29,4.9,2.4,10.3.46,12.12-.3Z" class="cls-5"/><path d="M296.22,327.82c4,31.84,16.9,96.86,65.5,122.24a86.53,86.53,0,0,0,8.37,3.82l-73.87,1L246,365.25Z" class="cls-4"/><path d="M162.18,162.2l8.64,0s-9,5.09-2,12.49" class="cls-8"/><path d="M212.17,177.46a5.73,5.73,0,1,1,.85-8.05A5.74,5.74,0,0,1,212.17,177.46Z" class="cls-10"/><path d="M255.2,181a5.73,5.73,0,1,1,.37-8.08A5.74,5.74,0,0,1,255.2,181Z" class="cls-10"/><path d="M124.85,318.51l-5.41,32.62" class="cls-11"/><line x1="306.58" x2="315.49" y1="287.62" y2="336.06" class="cls-11"/><rect width="218.36" height="157.99" x="233.3" y="253.25" class="cls-1" rx="8.08" transform="translate(684.96 664.49) rotate(-180)"/><path d="M170.65,432.71c-17.3-11.91-30.57-22.58-39.39-30C104.48,380,94.77,366.91,80,368.86c-6.93.92-16.12,5.33-20.68,13.46a28.31,28.31,0,0,0-3,14.11c.88,15.92,33.75,36.87,80.43,53.58Z" class="cls-4"/><path d="M115.76,389.11s28.54,29.05,45.16,36.74" class="cls-11"/><path d="M72.17,376.74A33.39,33.39,0,0,1,106.55,381" class="cls-11"/><path d="M111.6,440s16.54,8.13,25.24,10" class="cls-11"/><ellipse cx="227.57" cy="201.06" class="cls-12" rx="5.87" ry="7.57"/><path d="M215.13,142.5c-5.81-.14-7.76-1.86-8.65-3.08a6.48,6.48,0,0,1-1.19-4.14s-5.42,14.44-21.18,10.83c0,0-1,21-5.41,22.3S174,156.18,174,156.18s-7.65-5.67-13.6-.89-3.27,16.72.6,20.88,8.76,5.92,16.24,3.12c0,0-7.14,14.13-3.15,25.56s-4.08,9.55-11.87,3-22.55-18.15-24.27-45.23,9.58-87.15,70.65-74.35c0,0,41.13-6.4,69.2,9.36s7.49,49-4.75,48.26S253.14,119,253.14,119a44.49,44.49,0,0,1-12.31,15S229.46,142.85,215.13,142.5Z" class="cls-6"/><rect width="207.29" height="12.45" x="233.53" y="450.01" class="cls-1" rx="5.54" transform="translate(674.35 912.47) rotate(-180)"/><rect width="57.85" height="103.15" x="313.56" y="351.71" class="cls-2" rx="6.49" transform="translate(684.96 806.56) rotate(-180)"/><path d="M304,445.68H381a0,0,0,0,1,0,0V451a7.83,7.83,0,0,1-7.83,7.83h-60A9.08,9.08,0,0,1,304,449.7v-4A0,0,0,0,1,304,445.68Z" class="cls-2" transform="translate(684.96 904.47) rotate(-180)"/><circle cx="342.48" cy="382.71" r="14.72" class="cls-1"/><path d="M219.9,460.85S216,441.07,193,436.73s-41.63,6.17-44.66,24.12Z" class="cls-1"/><line x1="483.84" x2="41.63" y1="461.92" y2="461.83" class="cls-13"/><path d="M137.79,440.27a8.1,8.1,0,0,0-1.53,7.82c1.38,4.92,13.18,14.41,18.56,12.73s-2.17-9.62-2.17-9.62a12.17,12.17,0,0,1,8.32.88c3.83,2.15,7.83,10.35,12.89,8.94s-1.28-14-9.77-17.53a15.08,15.08,0,0,1,11.58,3.77c5.71,4.82,10.16,13.42,14.92,12.5s-3.38-16.42-10.9-21.34c0,0,10.9,5.26,17.5,11.38s5.22,10.88,10.59,10-3.53-17.07-12.05-25.19a19.25,19.25,0,0,0-3.83-2.89c-2.56-1.44-6.56-3.58-17.4-4.93-5.51-.69-8.26-1-11-.86-3.71.23-13.18.94-20.67,8A27.11,27.11,0,0,0,137.79,440.27Z" class="cls-5"/><path d="M169.12,433.34s7.43,1.7,11.26,5.42" class="cls-8"/><path d="M153.85,440s7.33,1.16,11.39,4.06" class="cls-8"/><path d="M146.47,446.75a14.08,14.08,0,0,1,6.18,4.45" class="cls-8"/><path d="M263.78,102.91s15,7.94,10.12,24.87" class="cls-14"/><path d="M247.29,105.49S233.16,122.9,224,123.86s-8.84-10.12-8.84-10.12-11.91,13.79-22.13,14" class="cls-14"/><path d="M177.2,121.13s3.29,19.16-1.31,26.35" class="cls-14"/><path d="M151.27,127.78s-11.84,36.38-.63,54.38" class="cls-14"/><path d="M180.23,219.3S199.55,233,213.1,232.54" class="cls-11"/></g></svg>