<svg xmlns="http://www.w3.org/2000/svg" width="512" height="512" viewBox="0 0 512 512"><defs><style>.cls-1{fill:#ffb833}.cls-2{fill:#ffb08d}.cls-3{fill:#00ccc1}.cls-4{fill:#aaeeea}.cls-10,.cls-13,.cls-5{fill:none;stroke-linecap:round;stroke-linejoin:round}.cls-5{stroke:#00ccc1;stroke-width:3px}.cls-6{fill:#ff832f}.cls-7{fill:#d9fffc}.cls-11,.cls-8{fill:#383333}.cls-9{fill:#ff8c5f}.cls-10{stroke:#383333;stroke-width:.75px}.cls-11{fill-rule:evenodd}.cls-12{fill:#fff}.cls-13{stroke:#fff}</style></defs><g id="Research"><rect width="3.55" height="19.01" x="458.66" y="150.13" class="cls-1" rx="1.63" transform="translate(21.98 372.33) rotate(-45)"/><rect width="3.55" height="19.01" x="458.66" y="150.13" class="cls-1" rx="1.63" transform="translate(673.13 598.09) rotate(-135)"/><rect width="4.5" height="24.13" x="444.94" y="366.03" class="cls-1" rx="1.73" transform="translate(-136.37 426.95) rotate(-45)"/><rect width="4.5" height="24.13" x="444.94" y="366.03" class="cls-1" rx="1.73" transform="translate(496.05 961.65) rotate(-135)"/><rect width="4.5" height="24.13" x="201" y="354.2" class="cls-1" rx="1.73" transform="translate(-199.45 250.99) rotate(-45)"/><rect width="4.5" height="24.13" x="201" y="354.2" class="cls-1" rx="1.73" transform="translate(87.98 768.96) rotate(-135)"/><path d="M385.86,332.16S383.45,381,393,392.44s70.07.76,83.67,71.71c0,0-152.49,44.25-262.85-10.68,0,0,26.39-40.62,48.71-53.21s45.24-8,57.81-17.17S330.39,327,330.39,327,363.29,315,385.86,332.16Z" class="cls-2"/><path d="M403.63,397.37c-6,3.44-34.59,18.93-67.45,8.7a79.56,79.56,0,0,1-30.11-17.52c-12.39,2.5-28.11,3-43.55,11.71-22.32,12.59-48.71,53.21-48.71,53.21,110.36,54.93,262.85,10.68,262.85,10.68C465.7,407,424.31,402.81,403.63,397.37Z" class="cls-3"/><rect width="403.52" height="304.16" x="33.68" y="31" class="cls-4" rx="20.87" transform="translate(470.88 366.16) rotate(-180)"/><circle cx="148.48" cy="61.48" r="8.21" class="cls-3"/><circle cx="113.74" cy="61.48" r="8.21" class="cls-3"/><circle cx="79" cy="61.48" r="8.21" class="cls-3"/><rect width="118.99" height="90.41" x="290.65" y="82.37" class="cls-3" rx="6.52" transform="translate(700.29 255.15) rotate(-180)"/><line x1="257.16" x2="68.44" y1="92.03" y2="92.03" class="cls-5"/><line x1="257.16" x2="68.44" y1="122.31" y2="122.31" class="cls-5"/><line x1="257.16" x2="68.44" y1="152.77" y2="152.77" class="cls-5"/><line x1="416.28" x2="68.45" y1="183.24" y2="183.24" class="cls-5"/><line x1="416.28" x2="68.45" y1="213.7" y2="213.7" class="cls-5"/><line x1="416.28" x2="68.45" y1="244.17" y2="244.17" class="cls-5"/><line x1="416.28" x2="68.45" y1="274.63" y2="274.63" class="cls-5"/><line x1="416.28" x2="68.45" y1="305.1" y2="305.1" class="cls-5"/><line x1="457.59" x2="317.54" y1="290.41" y2="290.41" class="cls-5"/><circle cx="193.91" cy="225.24" r="71.62" class="cls-6"/><path d="M81.23,391.68l-5.38-3.77a11.85,11.85,0,0,1-2.72-16.76l72.34-97.46a11.86,11.86,0,0,1,16.32-2.64h0a11.86,11.86,0,0,1,3.08,16.24l-67,101.23A11.84,11.84,0,0,1,81.23,391.68Z" class="cls-6"/><circle cx="193.91" cy="225.24" r="58.08" class="cls-7"/><line x1="229.95" x2="157.86" y1="208.71" y2="208.71" class="cls-5"/><line x1="229.95" x2="157.86" y1="249.33" y2="249.33" class="cls-5"/><circle cx="380.57" cy="261.77" r="96.09" class="cls-2"/><path d="M293.3,221.51s-30.78,53-8.82,95.4,78.67,53.52,138.78,27.5C423.26,344.41,408,187.83,293.3,221.51Z" class="cls-2"/><path d="M336.9,231.6a26.6,26.6,0,0,0-13-9.46c-3.51-1.23-8.26-2.9-10.63-.61a4.07,4.07,0,0,0-1.17,3.94c.94,2.76,5.76,2.1,12.52,4.22,8.89,2.79,13.57,8,14.57,6.94C339.91,235.85,337.75,232.8,336.9,231.6Z" class="cls-8"/><ellipse cx="320.33" cy="273.6" class="cls-9" rx="6.44" ry="10.33" transform="translate(-34.87 500.12) rotate(-73.03)"/><path d="M370.87,262.89c1.16-.58,7.4-3.52,14.08-.8,1,.39,4.86,2,6.74,5.36,4.85,8.77-4.48,28.48-18.23,29.87-7.68.77-13.88-4.46-15.93-6.36Z" class="cls-2"/><path d="M385.86,275.71l-11.44-4.3s9.43,11.18-3.55,17.53" class="cls-10"/><path d="M293.31,225.43s-5.1,11.78-13.21,11.64-15.69,14.92,5.63,20Z" class="cls-2"/><path d="M282.6,290.47s2.53,4.32,7.51,3.92" class="cls-10"/><path d="M315.75,256a8.23,8.23,0,1,1,3-11.24A8.26,8.26,0,0,1,315.75,256Z" class="cls-11"/><path d="M118.29,308.81s-13.06-2.43-14.47,13.34c0,0-9.41-1.18-8.47,10.59,0,0-8-.23-8.94,11.53,0,0-6.8,1.31-7.3,9.65s5.18,31.14,21.81,44,19.45,49.58,19.45,49.58,34.15-2.67,53.16-20c0,0-22.09-46.52-26.17-69.74S118.29,308.81,118.29,308.81Z" class="cls-2"/><path d="M159,404.54s-11.73-51.78-10.87-65.8,14.68-32.43,9.53-36.43-29,17-24.41,42.72,8.3,40.34,8.3,40.34Z" class="cls-2"/><path d="M339.33,175s-.86,39.81,27.75,45.43c0,0-4.2,14.08,0,23.78s-10.49,24.77-8.39,29.43,13.31-9.07,16.57-11.83,15.23.23,17.16,7.41-5,26.37-17.16,27.84c-9.92,1.2-11.52-2.71-15-3a8.94,8.94,0,0,0-2.77.44c-5.68,1.86-32.45,44.11-15.25,62.82,4.36,4.74,10.21,6.53,16.79,7.63,16.75,2.79,53.39,3.79,83.92-21.36,31.59-26,45.91-71.18,35.1-108-8.63-29.33-33.56-54.7-57.6-67.9-20.93-11.49-42.4-14.56-45.4-29.38-2.64-13,11.19-24.62,7.63-28.22-3.36-3.4-18.86,3.69-29,14.87C338.16,142.11,338.57,165.35,339.33,175Z" class="cls-8"/><ellipse cx="290.24" cy="278.58" class="cls-12" rx="7.65" ry="11.83"/><path d="M103.82,322.15a115.83,115.83,0,0,0,9.68,13" class="cls-10"/><path d="M95.35,332.74s3.27,8.57,6.7,11.15" class="cls-10"/><path d="M86.41,344.27s2.77,9.53,6.2,13.59" class="cls-10"/><path d="M362.12,159.64s-4.65,34.81,30.87,49.07c0,0-15.84,25.23-5.43,40.15" class="cls-13"/><path d="M447.19,268.74s-.18,66-54.2,74.77" class="cls-13"/><path d="M443.37,204.25s30.44,27.5,22.13,76.21" class="cls-13"/><path d="M407.13,306.12s-19.07,25.66-38.52,29" class="cls-13"/></g></svg>