<?xml version="1.0" encoding="UTF-8"?>
<svg xmlns="http://www.w3.org/2000/svg" viewBox="0 0 512 512" width="512" height="512"><defs><style>.cls-1{fill:#aaeeea;}.cls-2{fill:#fff3e3;}.cls-10,.cls-12,.cls-13,.cls-3,.cls-8{fill:none;stroke-linecap:round;stroke-linejoin:round;}.cls-3{stroke:#00ccc1;stroke-width:3px;}.cls-4{fill:#ffdb99;}.cls-5{fill:#ffb833;}.cls-6{fill:#ff832f;}.cls-7{fill:#ffc871;}.cls-10,.cls-12,.cls-8{stroke:#383333;}.cls-8{stroke-width:0.75px;}.cls-9{fill:#383333;}.cls-10,.cls-11{fill-rule:evenodd;}.cls-11{fill:#fff;}.cls-13{stroke:#fff;}</style></defs><g id="Social_Media" data-name="Social Media"><rect class="cls-1" x="225.06" y="30" width="263.8" height="218.85" rx="20.87"/><circle class="cls-2" cx="262.46" cy="63.75" r="17.47"/><rect class="cls-2" x="249.41" y="87.96" width="220" height="113.31" rx="6.15"/><circle class="cls-2" cx="262.46" cy="225.33" r="13.16"/><circle class="cls-2" cx="300.99" cy="225.33" r="13.16"/><circle class="cls-2" cx="339.51" cy="225.33" r="13.16"/><line class="cls-3" x1="291.3" y1="56.8" x2="378.04" y2="56.8"/><line class="cls-3" x1="291.3" y1="71.68" x2="356.96" y2="71.68"/><path class="cls-4" d="M325.8,299.44S339.7,283.8,348,277.29s16.94-10.64,20.08-9.36-6.41,9.34-6.41,9.34a72.53,72.53,0,0,0,21-6.16c9.85-4.89,16.55-10.85,20-7.58S391.3,289,378.16,298.14s-26.44,16.09-34.42,25.56C343.74,323.7,322.65,313.4,325.8,299.44Z"/><path class="cls-4" d="M360,310.18a83,83,0,0,0-23.81,33.27L327.68,365l-35-20.8s20.78-37.49,39.9-52.16Z"/><rect class="cls-5" x="201.56" y="37.57" width="3.25" height="17.41" rx="1.58" transform="translate(26.79 157.23) rotate(-45)"/><rect class="cls-5" x="201.56" y="37.57" width="3.25" height="17.41" rx="1.58" transform="translate(314.14 222.67) rotate(-135)"/><rect class="cls-5" x="87.03" y="223.26" width="4.13" height="22.1" rx="1.73" transform="translate(-139.59 131.62) rotate(-45)"/><rect class="cls-5" x="87.03" y="223.26" width="4.13" height="22.1" rx="1.73" transform="translate(-13.6 462.98) rotate(-135)"/><rect class="cls-5" x="281.86" y="272.76" width="4.13" height="22.1" rx="1.73" transform="translate(-117.53 283.89) rotate(-45)"/><rect class="cls-5" x="281.86" y="272.76" width="4.13" height="22.1" rx="1.73" transform="translate(284.01 685.27) rotate(-135)"/><path class="cls-6" d="M116.2,263.22c-29.71.74-42.4,13.47-46,17.5C62,289.93,58,302.62,50.27,327.31c-.56,1.79-1.44,4.62-4.15,14.29C30.59,397,27.87,416.25,27.25,433.55c-.07,2-.1,3.51-.11,4.24L48,440.05a169,169,0,0,0,20.6-21.54c21.38-26.77,30.23-54.69,34.2-73.28Q109.5,304.22,116.2,263.22Z"/><path class="cls-6" d="M200.85,260.74c29.7-.92,43.09,11.07,46.89,14.89,8.69,8.74,13.39,21.19,22.53,45.4.66,1.75,1.69,4.53,4.94,14,18.63,54.49,22.42,73.52,24,90.75.18,1.95.29,3.5.35,4.23l-20.72,3.43a168.28,168.28,0,0,1-21.77-20.36c-22.85-25.52-33.25-52.9-38.26-71.24Z"/><path class="cls-4" d="M143.89,225s-.48,18-5.31,26.86-27.7,8.61-45.74,21.76,1.44,56.58-5,181.75c0,0,98.36,20.09,150.27,4.86,0,0-8.58-74.94-3.16-126.89S231.76,274,221,269.1s-36.58-12.46-38.86-18.16-3.77-24.87-3.77-24.87Z"/><path class="cls-7" d="M221,166.38c.75-.68,4.82-4.3,10.47-3.72a10.7,10.7,0,0,1,6.29,2.56c5.61,5.56,2.92,22.54-7.17,26.64-5.63,2.28-11.48-.3-13.45-1.28Q219,178.47,221,166.38Z"/><path class="cls-8" d="M235.14,172.76l-9.6-.71s9.61,6.36,1.2,14"/><path class="cls-7" d="M102,163c-.71-.73-4.56-4.57-10.24-4.31-.83,0-4.14.18-6.42,2.2-5.92,5.24-4.2,22.34,5.65,27,5.5,2.6,11.48.35,13.5-.52Z"/><path class="cls-8" d="M87.44,168.59l9.63-.18s-10,5.82-2,14"/><circle class="cls-4" cx="161.09" cy="157.76" r="67.91"/><path class="cls-4" d="M93.35,152.88c0,7.94.93,47.82,30.68,71.68,5.47,4.39,16.61,13.08,32.65,14.21,29.59,2.09,50.14-23.39,54.24-28.48,14.32-17.74,17.1-37.11,17.77-46.19C228.69,164.1,155.59,109.46,93.35,152.88Z"/><path class="cls-9" d="M208,155.11a21.62,21.62,0,0,0-12.28-4.46c-3-.17-7.1-.4-8.44,1.92a3.3,3.3,0,0,0,0,3.34c1.35,1.94,5,.34,10.72.47,7.57.18,12.4,3.21,12.94,2.14C211.25,157.75,208.88,155.85,208,155.11Z"/><path class="cls-9" d="M120.63,154.45A21.72,21.72,0,0,1,133.22,151c3,.07,7.11.16,8.26,2.59a3.28,3.28,0,0,1-.24,3.33c-1.5,1.83-5,0-10.72-.38-7.57-.42-12.62,2.22-13.07,1.11C117.13,156.82,119.64,155.12,120.63,154.45Z"/><path class="cls-10" d="M164.22,165.86s4.9,12.41,3.85,14.72-10.56,1.2-10.56,1.2"/><ellipse class="cls-7" cx="203.19" cy="182.65" rx="5.23" ry="8.4" transform="translate(17.48 383.04) rotate(-89.13)"/><ellipse class="cls-7" cx="124.52" cy="181.45" rx="5.23" ry="8.4" transform="translate(-58.81 303.2) rotate(-89.13)"/><path class="cls-6" d="M197.68,260c-4.26,12-11.27,16.76-14.1,18.4-15.4,8.9-40.23,2.35-58.28-18.82,0,0-38.76,8.19-42.95,23.38s9.68,133.66-6,186.67c0,0,81.25,27.61,176.42-7.35-2.49-8.45-4.79-17.49-6.74-27.08a327.58,327.58,0,0,1-6.32-76.85c.53-1.19,1.26-2.88,2-4.93,2-5.32,18.56-49.44-3.44-75.81C226.54,263.55,207.84,260.63,197.68,260Z"/><path class="cls-11" d="M177.92,195.53a79.69,79.69,0,0,0-32.94.88c.46.72,5.67,8.63,15.43,9A19.37,19.37,0,0,0,177.92,195.53Z"/><path class="cls-8" d="M179.25,235.09s-18.29,7.27-36.3.71"/><path class="cls-8" d="M157.51,210a9.74,9.74,0,0,0,9.47-.94"/><path class="cls-9" d="M197.62,416l-40.73-4.35c-3.47-.37-5.68-3.69-4.88-7.41l19.57-91.74c.79-3.72,4.16-5.85,7.48-4.77l39,12.64c2.77.91,4.42,4.34,3.71,7.68l-17.59,82.45C203.43,413.82,200.52,416.29,197.62,416Z"/><path class="cls-4" d="M153,365.52c3.88-7.56,2.23-15,5.8-15.91A3.35,3.35,0,0,1,161,350c2,1.17,2.45,4.45,2.28,10.8-.12,4.36-.14,6.9,1.42,7.19s14.48-9.55,18.15-14.69,5.15-12.13,7.93-12.55.26,11.08.26,11.08,3.88-8.63,7.36-9-2.55,13.35-2.55,13.35,4.25-6.36,6.4-5-1.63,11.05-4.66,14.5c0,0,3.69-3.87,5.56-2.91s-2.3,9.16-11.12,21-29.89,16.89-36.05,20.8a37.31,37.31,0,0,0-9.23,8s-14.92-14-15.47-27.82c1-.69,2.55-1.74,4.37-3.08C145.34,374.5,150.18,370.94,153,365.52Z"/><path class="cls-6" d="M139.06,376.4l13.52,35.67s-67.26,46.7-92.53,50.17-40.89-20.67-28.31-36S98.39,386.35,139.06,376.4Z"/><path class="cls-6" d="M312,307.71l34.3,16.7s-17,80.11-33,100-43.94,13-45.26-6.77S289.2,342.83,312,307.71Z"/><path class="cls-10" d="M122.52,170.83a9.76,9.76,0,0,1,18,0"/><path class="cls-10" d="M204.45,170.83a9.76,9.76,0,0,0-18,0"/><path class="cls-9" d="M91.72,158.71c2.8,9.42,4.19,11.79,4.93,11.66,1.72-.3-1.63-14,5.66-20.63,2.07-1.9,3.07-1.45,5-3.74,4-4.79,3.8-11.67,3.74-13.73-.15-5-1.49-5.73-.53-7.12,2.55-3.64,11.85,2.39,19.11-2.77,9.12-6.49,4.63-12.48,12.2-17.8s15.12,10.48,26.4,7.48,19.59-15,29.08-2.83,4.1,11,13.61,18,7.18,18.3,11,24.62-.64,23.26,3.62,24.4,6.53-14.42,6.36-32.55c0,0,9.73.33,10.61-14s-13.73-13-12.17-21.13-.27-20.71-17-24-21.71-24.45-43.67-23.45S144.8,80.62,132.91,72.38s-32.85-1.81-33.1,9.7a9.65,9.65,0,0,1-1.11,4.54c-4.79,8.7-14,7.82-21.18,16.46-4.22,5.08-7,13.23-4.33,19,2.55,5.57,7.71,3.55,12.48,9.49S86.92,142.58,91.72,158.71Z"/><path class="cls-9" d="M77.35,109.57a21.21,21.21,0,0,0-3.16,8.65c-1.33,10.71,6.5,20.21,7,20.79,2.29,2.72,4.81,4.63,6.65,9.15a23.57,23.57,0,0,1,1.5,5.66c1.06,6.79,4.09,26.18,8.32,26.45a2.26,2.26,0,0,0,1.5-.67c2.58-2,.93-6.67.66-13.14-.2-4.74.44-8.18,1.66-14.81a93.81,93.81,0,0,1,2.67-10.81,26.91,26.91,0,0,1-9.57-18.63Z"/><path class="cls-8" d="M191.07,351.78s-4.29,10.32-8.54,13.31"/><path class="cls-8" d="M195.88,356.12s-4,9.22-7.48,12.84"/><path class="cls-8" d="M197.62,365.65a45.87,45.87,0,0,1-6.55,10.05"/><path class="cls-12" d="M81.85,311.24,82,396"/><path class="cls-12" d="M31.74,426.28s18.38-16,39.93-25.44,68.2-22.31,68.2-22.31"/><path class="cls-12" d="M151.1,408.15s-47,28.83-71.53,47.45"/><path class="cls-12" d="M238.07,299.55s.17,65,1.74,85.47"/><path class="cls-12" d="M278.65,405.69s-3.5-25.23,5.28-44.37"/><path class="cls-13" d="M94.82,136.12s-5-6.92,2.25-14.08,16.55,1,17.55-9.81,5.65-20,18.29-19.8,19,13.14,25.79,5.49"/><path class="cls-13" d="M171.84,97.26s8.82-8.49,20.47-4.83,7.65,21.06,17.63,21.84,13.1-1.21,15.12,9.27,10.22,5.91,12.66,1.5"/><path class="cls-13" d="M167.69,83.28S179.16,77.46,189,79s12.31,15.8,19.63,14.3"/><path class="cls-13" d="M126.76,82s-11.64-1.33-16.47,5-3.49,15.47-10.15,17.14"/></g></svg>
