<?xml version="1.0" encoding="UTF-8"?>
<svg xmlns="http://www.w3.org/2000/svg" viewBox="0 0 512 512" width="512" height="512"><defs><style>.cls-1,.cls-11{fill:#383333;}.cls-2{fill:#ff832f;}.cls-3{fill:#ffb08d;}.cls-4{fill:#ff8c5f;}.cls-10,.cls-13,.cls-5,.cls-8{fill:none;stroke-linecap:round;stroke-linejoin:round;}.cls-10,.cls-5,.cls-8{stroke:#383333;}.cls-5{stroke-width:0.75px;}.cls-6{fill:#aaeeea;}.cls-7{fill:#00ccc1;}.cls-9{fill:#ffb833;}.cls-10,.cls-11,.cls-13{fill-rule:evenodd;}.cls-12{fill:#fff;}.cls-13{stroke:#fff;}</style></defs><g id="Video_Content" data-name="Video Content"><path class="cls-1" d="M343.41,76.69c3.61,21.74,12.15,48.41,34.2,65.78,18.73,14.74,34.43,12.73,42.1,27.89,10.63,21-3.29,56.73-24.2,64.73,0,0-7,2.68-51-7.22h0L239,191.51l58.67-71.82Z"/><path class="cls-1" d="M336.79,130c3.7,33.77-34,67.18-70.21,61.7-27.51-4.16-54.19-30.69-50.39-61.7,3.66-29.82,33.56-48,60.3-48C305.28,82,333.84,103,336.79,130Z"/><path class="cls-2" d="M296.46,143.89S402.31,154.81,405.18,196h0l-67.66,18.5-6.77,52.38H184.88s4.26-75,11.15-83.67,36.51-10.31,41.34-20.61,10-29.62,10-29.62Z"/><path class="cls-3" d="M141.59,138.11c-7.6-1-13.42,3-14,7.41-.48,3.53,2.58,6.57,3.23,7.19,0,0-7,.19-4.47,7.77,0,0-4.22,3.65-.55,9.6s11.43,9.07,14.54,13.54-1.87,57.8-1.87,57.8L176.92,243s-5-54.7-6.43-71.54-5.85-45.75-9.74-48.28a2.71,2.71,0,0,0-2-.52c-3.18.76-3.53,10.12-3.52,15.27-4.47-5.45-8.38-9.78-11.22-12.81-12.23-13-16.49-14.82-19.83-14a3.34,3.34,0,0,0-2.25,1.2C119.37,116.14,130.68,128,141.59,138.11Z"/><path class="cls-2" d="M138.91,187.05a99.87,99.87,0,0,0,34.26-4.33q3.69,37.26,7.37,74.52l-22.1,12.05-26.31-8.68Z"/><path class="cls-4" d="M231,111a12.45,12.45,0,0,0-9-4,9.49,9.49,0,0,0-5.74,1.88c-5.33,4.57-4,19.8,4.68,24.08,4.85,2.38,10.2.46,12-.29Q231.94,121.86,231,111Z"/><path class="cls-5" d="M218,115.76l8.57,0s-8.93,5-1.95,12.38"/><path class="cls-4" d="M329.52,122.93a12.43,12.43,0,0,1,9.67-2.06,9.49,9.49,0,0,1,5.24,3c4.3,5.56-.06,20.21-9.43,22.64-5.24,1.36-10.1-1.6-11.72-2.7Z"/><path class="cls-5" d="M341.27,130.21l-8.38-1.75s7.73,6.74-.58,12.52"/><circle class="cls-3" cx="282.2" cy="104.97" r="57.59"/><rect class="cls-6" x="88.63" y="234.49" width="329.7" height="248.51" rx="20.87"/><circle class="cls-7" cx="111.15" cy="251.4" r="5.42"/><circle class="cls-7" cx="134.1" cy="251.4" r="5.42"/><circle class="cls-7" cx="157.05" cy="251.4" r="5.42"/><path class="cls-3" d="M226.32,96.69c-3.31,38.37,14.18,69.51,37.63,76,17.75,4.93,35.35-5.22,40-7.9,25.15-14.5,31.76-40.75,33-46a198.43,198.43,0,0,0-110.6-22.1Z"/><path class="cls-8" d="M220.27,205.09,219,237.19"/><path class="cls-7" d="M184.14,374.23V308.34a12.27,12.27,0,0,1,18.41-10.63l57.07,33,57.07,32.94a12.28,12.28,0,0,1,0,21.26l-57.07,32.95-57.07,32.95a12.27,12.27,0,0,1-18.41-10.63Z"/><rect class="cls-9" x="368.35" y="44.88" width="3.79" height="20.3" rx="1.63" transform="translate(69.53 277.92) rotate(-45)"/><rect class="cls-9" x="368.35" y="44.88" width="3.79" height="20.3" rx="1.63" transform="translate(593.14 355.74) rotate(-135)"/><rect class="cls-9" x="190.8" y="107.83" width="3.79" height="20.3" rx="1.63" transform="translate(-26.99 170.81) rotate(-45)"/><rect class="cls-9" x="190.8" y="107.83" width="3.79" height="20.3" rx="1.63" transform="translate(245.52 337.65) rotate(-135)"/><rect class="cls-9" x="165.07" y="48.54" width="4.81" height="25.77" rx="1.73" transform="translate(5.62 136.42) rotate(-45)"/><rect class="cls-9" x="165.07" y="48.54" width="4.81" height="25.77" rx="1.73" transform="translate(242.47 223.29) rotate(-135)"/><rect class="cls-9" x="396.4" y="98.92" width="4.81" height="25.77" rx="1.73" transform="translate(37.75 314.75) rotate(-45)"/><rect class="cls-9" x="396.4" y="98.92" width="4.81" height="25.77" rx="1.73" transform="translate(601.75 472.86) rotate(-135)"/><path class="cls-3" d="M245.55,236.58s-16.1,22.22-20,24.56-5-2-5-2-5.94,8.6-9.06,7.66-2-5.94-2-5.94-2.69,6-6.45,3.92-.78-7.51-.78-7.51-2.5,2.31-4.49,1.49a3.18,3.18,0,0,1-1.45-1.49c-1.63-3.26,3.55-24.42,22.31-35.26,0,0,2.09-1.21,24.59-9h0Z"/><path class="cls-3" d="M282.2,203.56a244.08,244.08,0,0,0-66.14,19.8l20.75,24.88s14.55-9.89,45.39-10.34Z"/><path class="cls-5" d="M232.42,239.92s-10.15,10.79-11.88,19.19"/><path class="cls-5" d="M224.88,233.94S211.72,251.3,210,259.11"/><path class="cls-5" d="M222.17,227.36s-15.2,11.33-19.92,29.88"/><path class="cls-2" d="M258.89,208.23l5.57,31.09s121.94,5.71,133.77,0,9.69-36,4.84-52.27C403.07,187.05,298.5,191.26,258.89,208.23Z"/><rect class="cls-7" x="130.38" y="96.82" width="17.27" height="83.21" rx="8.21" transform="translate(331.72 101.69) rotate(124.33)"/><path class="cls-6" d="M104.66,115a8.64,8.64,0,0,0,2.26,12l50.82,34.7,9.74-14.27-50.82-34.7A8.64,8.64,0,0,0,104.66,115Z"/><path class="cls-7" d="M114.49,111.62l-16.68-3a1.42,1.42,0,0,0-1.47,2.13L105,125.26a1.41,1.41,0,0,0,1.43.68,10.8,10.8,0,0,0,9.18-13.24A1.41,1.41,0,0,0,114.49,111.62Z"/><rect class="cls-1" x="93.87" y="105.38" width="3" height="6.48" rx="1.42" transform="translate(238.86 91.12) rotate(124.33)"/><path class="cls-3" d="M130.82,152.71s14.35,10.66,17.63,7.76-1.87-10.68-6.55-14.8-11.14-5.45-13.05-3.16S130.82,152.71,130.82,152.71Z"/><path class="cls-5" d="M130.82,152.71s13.08,10,15.77,8.25,2.52-5.18,2.52-5.18"/><path class="cls-5" d="M126.35,160.48s12.48,8.17,15.38,6.46.79-6.46.79-6.46"/><path class="cls-5" d="M124.85,168.19s13.61,6.25,15.11,4.4,0-5.42,0-5.42"/><path class="cls-8" d="M258.89,208.23s76.8-18.76,129.86-20.42"/><path class="cls-8" d="M335.69,181.94l-.57,10.5"/><path class="cls-1" d="M286.4,62.66S257.52,55,245.55,76.34s-5.89,33.21-29.36,32.57c0,0,6-62,45.65-72.92s40.35,11.39,40.35,11.39,29.06-5.42,39.08,16,3.16,60.51,3.16,60.51-15.49,3.31-21.15-16.85S319.73,54.24,286.4,62.66Z"/><path class="cls-1" d="M319.39,110.54a18.93,18.93,0,0,0-10.15-5.27c-2.6-.5-6.12-1.16-7.55.71a2.91,2.91,0,0,0-.4,2.89c1,1.84,4.28.86,9.26,1.63,6.55,1,10.4,4.2,11,3.33C322,113.2,320.11,111.29,319.39,110.54Z"/><path class="cls-1" d="M247.05,99.46a18.9,18.9,0,0,1,11.3-1.76c2.62.36,6.17.84,6.92,3.07a2.88,2.88,0,0,1-.54,2.87c-1.49,1.44-4.32-.54-9.29-1.4-6.54-1.12-11.2.67-11.47-.34C243.76,101.17,246.12,100,247.05,99.46Z"/><path class="cls-10" d="M278.14,118s-6.31,9.83-5.8,12,8.87,2.83,8.87,2.83"/><path class="cls-5" d="M271.23,149.87s3.89,2.24,7.51,1.18"/><ellipse class="cls-4" cx="311.56" cy="141.77" rx="4.58" ry="7.35" transform="translate(126.08 429.46) rotate(-81.66)"/><ellipse class="cls-4" cx="243.41" cy="131.77" rx="4.58" ry="7.35" transform="translate(77.71 353.48) rotate(-81.66)"/><path class="cls-11" d="M306.2,129.55a5.46,5.46,0,1,1,.77-7.68A5.47,5.47,0,0,1,306.2,129.55Z"/><path class="cls-11" d="M312.27,123.19c-.11-.13-1.46,1.53-2.8,1.18-1-.26-1.06-1.41-2.17-2.58a6.56,6.56,0,0,0-3.6-1.84,14,14,0,0,0,1.65,3.5c1,1.54,1.67,2.53,2.74,2.72C310.27,126.56,312.4,123.34,312.27,123.19Z"/><path class="cls-11" d="M257.58,121.68a5.46,5.46,0,1,1,1.22-7.62A5.47,5.47,0,0,1,257.58,121.68Z"/><path class="cls-11" d="M245.72,112.75c.13-.09,1,1.86,2.39,1.86,1,0,1.39-1.08,2.77-1.93a6.47,6.47,0,0,1,4-.86,14,14,0,0,1-2.5,3c-1.37,1.23-2.26,2-3.34,1.93C246.78,116.52,245.54,112.87,245.72,112.75Z"/><path class="cls-12" d="M265.71,137.07a44.34,44.34,0,0,0,9.91,3.08,44.85,44.85,0,0,0,12.39.58,11.68,11.68,0,0,1-22.3-3.66Z"/><path class="cls-13" d="M288,55.9c-2.66-1.82-16.85-11.18-30.64-6-12.17,4.53-17.91,18.07-19,20.52-4.71,11.13-2.81,20.68-11.31,28.42a24.72,24.72,0,0,1-4.82,3.42"/><path class="cls-13" d="M295.66,55.81s13.19-4.21,20,6.85,12.46,54.22,28.25,53.07"/><path class="cls-13" d="M328.67,61.43s6.54,37.73,15.27,42.72"/><path class="cls-13" d="M226.76,139.49s2.37,12.43,7.63,16.56"/><path class="cls-13" d="M355.86,139.49s9.83,13.33,34.73,24.9,22.46,24.91,22.81,30.88"/></g></svg>
