<?xml version="1.0" encoding="UTF-8"?>
<svg xmlns="http://www.w3.org/2000/svg" viewBox="0 0 512 512" width="512" height="512"><defs><style>.cls-1{fill:#aaeeea;}.cls-2{fill:#00ccc1;}.cls-3{fill:#d89071;}.cls-4,.cls-9{fill:#383333;}.cls-5{fill:#ffb833;}.cls-11,.cls-12,.cls-13,.cls-6,.cls-7{fill:none;stroke-linecap:round;stroke-linejoin:round;}.cls-12,.cls-6,.cls-7{stroke:#383333;}.cls-6{stroke-width:0.75px;}.cls-7,.cls-9{fill-rule:evenodd;}.cls-8{fill:#d17352;}.cls-10{fill:#fff;}.cls-11{stroke:#00ccc1;stroke-width:8px;}.cls-13{stroke:#fff;}</style></defs><g id="Electro"><rect class="cls-1" x="26.63" y="56.47" width="176.02" height="162.05" rx="10.23" transform="translate(229.27 274.99) rotate(-180)"/><circle class="cls-2" cx="146.08" cy="137.5" r="16.98"/><circle class="cls-2" cx="83.2" cy="137.5" r="16.98"/><path class="cls-3" d="M181.48,366.18s94.2,25,117.54-9.5-68.45-34.79-68.45-34.79Z"/><path class="cls-4" d="M415.63,69.13s24.88-3.61,37.76,8.24-4.64,33.34,4.64,46.81,19.58,29.43,4.64,46.45,2.24,29-19.75,39.21-59.12-5.08-45.86-36.11S436.08,103.65,415.63,69.13Z"/><path class="cls-5" d="M466.72,376.59a1.55,1.55,0,1,1-3.1,0v-18.4a1.56,1.56,0,0,1,2.09-1.46,1.58,1.58,0,0,1,1,1.5Z"/><path class="cls-5" d="M456,369a1.58,1.58,0,0,1-1.5-1,1.56,1.56,0,0,1,1.46-2.09h18.4a1.55,1.55,0,1,1,0,3.1Z"/><path class="cls-5" d="M116.19,423.37a1.55,1.55,0,1,1-3.1,0V405a1.55,1.55,0,1,1,3.1,0Z"/><path class="cls-5" d="M105.47,415.76a1.56,1.56,0,1,1,0-3.11h18.4a1.56,1.56,0,1,1,0,3.11Z"/><path class="cls-5" d="M243.7,146.66a1.55,1.55,0,1,1-3.1,0V128.3a1.55,1.55,0,1,1,3.1,0Z"/><path class="cls-5" d="M233,139.05a1.56,1.56,0,1,1,0-3.11h18.4a1.56,1.56,0,1,1,0,3.11Z"/><circle class="cls-3" cx="353.29" cy="121.12" r="74.82"/><path class="cls-3" d="M335,174.1c3.09,13.8,5,33.05-5.63,47-8.25,10.87-17,9.09-26.51,16.2-26.49,19.8-8.34,70.62-14,142.14a360.28,360.28,0,0,1-14,74.38,135.66,135.66,0,0,0,162-8.1,158.47,158.47,0,0,1-11-30.93c-14.85-61.08,8.6-126.21-3.65-162-2.23-6.52-5-14.69-12.7-21-7.87-6.47-13.82-5.18-19.88-12.15-4.69-5.39-5.64-11.32-7-20.87a100.78,100.78,0,0,1,.89-33.8Z"/><path class="cls-3" d="M278.47,79c-8.8,55.7,0,103.35,26.63,117.09,6.69,3.46,13.66,4.34,19.28,5,36.76,4.35,65.65-14.3,77.38-23C401.76,178.12,371.8-16.66,278.47,79Z"/><path class="cls-3" d="M399.76,114.51c.8-.78,5.18-4.9,11.45-4.44.92.07,4.57.33,7,2.64,6.38,6,3.94,24.81-7.09,29.65-6.16,2.71-12.7,0-14.91-1Q398,127.94,399.76,114.51Z"/><path class="cls-6" d="M415.63,121.12,405,120.63s10.82,6.73,1.76,15.48"/><path class="cls-4" d="M366.43,106a23.13,23.13,0,0,0-13.31-4.35c-3.24-.08-7.63-.19-9,2.35a3.56,3.56,0,0,0,.09,3.58c1.52,2,5.34.19,11.51.14,8.12-.08,13.41,3,13.94,1.84C370.07,108.69,367.46,106.75,366.43,106Z"/><path class="cls-4" d="M286.62,106.53a23.21,23.21,0,0,1,13.4-4.09c3.24,0,7.63,0,8.93,2.53a3.54,3.54,0,0,1-.16,3.57c-1.56,2-5.34.09-11.51-.09-8.12-.23-13.46,2.75-14,1.57C282.93,109.17,285.58,107.28,286.62,106.53Z"/><path class="cls-7" d="M321.33,123.16s-5.68,13.14-4.63,15.65S328,140.47,328,140.47"/><path class="cls-6" d="M317.61,169.79s5.15,1.93,9.32-.07"/><ellipse class="cls-8" cx="366.45" cy="145.29" rx="9.01" ry="5.61" transform="matrix(1, -0.02, 0.02, 1, -2.44, 6.3)"/><ellipse class="cls-8" cx="292.27" cy="147.18" rx="9.01" ry="5.61" transform="translate(-2.48 5.03) rotate(-0.98)"/><path class="cls-9" d="M356,131.93a6.64,6.64,0,1,1-.43-9.36A6.65,6.65,0,0,1,356,131.93Z"/><path class="cls-9" d="M362.14,123.2c-.14-.12-1.48,2.11-3.15,1.92-1.22-.14-1.52-1.5-3.07-2.71a7.88,7.88,0,0,0-4.65-1.57,16.78,16.78,0,0,0,2.61,3.9c1.49,1.67,2.45,2.75,3.77,2.79C360.34,127.61,362.33,123.37,362.14,123.2Z"/><path class="cls-9" d="M301,132.64a6.63,6.63,0,1,1,.44-9.36A6.65,6.65,0,0,1,301,132.64Z"/><path class="cls-9" d="M285.5,123.49c.15-.13,1.48,2.11,3.15,1.92,1.23-.14,1.52-1.5,3.07-2.71a7.91,7.91,0,0,1,4.66-1.57,17.22,17.22,0,0,1-2.62,3.9c-1.49,1.67-2.45,2.75-3.77,2.79C287.3,127.9,285.31,123.66,285.5,123.49Z"/><path class="cls-3" d="M319.94,229.09s-19,3.88-34.58,16.57-34.2,106.4-34.2,106.4l46.63,18.78S346,256.72,319.94,229.09Z"/><path class="cls-5" d="M387.62,205.85s-34.57,7.9-58,2.4c0,0-4.73,13.64-10.11,18S299.37,234,286,243s-27.89,78-27.89,78a96.89,96.89,0,0,0,25.46,14s-3.77,82.18-14.42,117.9c0,0,84.16,67.85,171.75-5.84,0,0-21.2-64.75-15.24-119.45s4.86-86.22,0-91.72-29.07-12.2-33.45-15.67S387.62,205.85,387.62,205.85Z"/><path class="cls-7" d="M371.55,193.69s-20.44,7.23-34.63,8.06"/><path class="cls-3" d="M267.72,308c12.7,2.2,30.75,5.14,52.56,8.05,37.28,5,53.32,5.53,58.31,16.24,3.58,7.68.39,18.27-4.83,24.32-14.55,16.88-55.46,10.84-102.61-13Q269.44,325.76,267.72,308Z"/><path class="cls-10" d="M336.69,151.83a26,26,0,0,1-28.78,0c1.27,6.2,5.83,11,11.41,12.13C326.56,165.38,334.57,160.31,336.69,151.83Z"/><path class="cls-11" d="M239.66,356s16.89,80.09,95.85,83.81,14.05-61.86-16-37.57,64.11,110.62,166.58,65.16"/><rect class="cls-1" x="196.15" y="323.8" width="69.84" height="72.07" rx="31.33" transform="translate(648.37 453.35) rotate(135.34)"/><rect class="cls-2" x="158.43" y="199.47" width="26.07" height="100.75" rx="11.7" transform="translate(469.04 307.02) rotate(135.34)"/><rect class="cls-2" x="110.34" y="246.99" width="26.07" height="100.75" rx="11.7" transform="translate(420.16 422.15) rotate(135.34)"/><path class="cls-2" d="M171.75,277.67h67.76A30.34,30.34,0,0,1,269.85,308v55.56a19.71,19.71,0,0,1-19.71,19.71H154a19.71,19.71,0,0,1-19.71-19.71v-48.4A37.5,37.5,0,0,1,171.75,277.67Z" transform="translate(578.06 423.5) rotate(135.34)"/><rect class="cls-1" x="86.24" y="278.7" width="162" height="33.1" rx="13" transform="translate(493.73 387.69) rotate(135.34)"/><path class="cls-3" d="M278.84,312.53s-7.75-19.09-15.54-22.24-22.7-9.36-25.39-6,16,13.43,16,13.43-16.49-6.23-17.79-3,17,14.45,17,14.45-4.44-1.82-9.18-3.26c-1.82-.55-10.24-2.55-10.95-1-.44,1,2,3.75,15.56,12-3.05-1.21-9.79-3.55-12-.85a1.13,1.13,0,0,0-.27.44c-.8,3.09,18.16,10.3,20.26,16.76,2.2,6.78,9.19,9.8,15.89,11.48C272.49,344.71,284.54,321.5,278.84,312.53Z"/><path class="cls-6" d="M254.82,321.14s-3.74-3.66-7.68-4.82"/><path class="cls-6" d="M258.61,312.38s-1.1-1.6-5.43-3.23"/><path class="cls-6" d="M261.47,300.75a59.56,59.56,0,0,0-7.54-3"/><path class="cls-7" d="M279,319.62s1.7-6-1.36-9.87"/><path class="cls-3" d="M406.19,226.25c20.5,8.62,28,20.83,30.71,26.09,17.55,34.48-15.37,79.49-38.81,98.47a71.42,71.42,0,0,1-34.35,15.8c-24.69,3.89-44.19-7.08-50.5-11l30.57-33.32c7-2,30.85-9.87,47.69-34.18C410.22,261.11,407.09,232.83,406.19,226.25Z"/><path class="cls-5" d="M371.55,307l41.31,41.38s25.44-28.17,28-62.86-3.76-57.69-42.51-62.34Z"/><path class="cls-3" d="M168.44,392.76s-4.2-4.87-3.66-7.51,3.83-9.77.17-13.26-7.37,5.49-7.37,5.49,3.15-11.64-.24-12.8-7,4.57-7,4.57,2.85-8.62-.23-11.23-6.23,5.48-6.23,5.48,2.74-8.33-.23-9.46-9,6.55-8.8,12.86,5.86,5.1,5.86,5.1.49,5.49,5.28,4.43a8.77,8.77,0,0,0,1.82,3.87,9.63,9.63,0,0,0,6.75,3.29c1.52,5.65,5.33,9.63,9.57,10A8.34,8.34,0,0,0,168.44,392.76Z"/><path class="cls-6" d="M155.08,383.86a20.41,20.41,0,0,1,3.13-8.09"/><path class="cls-6" d="M146,376.43s4.14-6.85,4.35-7.18"/><path class="cls-6" d="M140.71,372s2.31-7,3.48-9.22"/><line class="cls-12" x1="264.63" y1="341.88" x2="282.77" y2="348.4"/><path class="cls-12" d="M351.6,319.62s15.74,14.35,16.51,27.24"/><path class="cls-12" d="M289.41,264.93a71.69,71.69,0,0,1-5.28,22.67,36.41,36.41,0,0,0-1.36,22.87"/><path class="cls-12" d="M397.06,257.72s-7.67,34.62-25.51,49.3"/><path class="cls-12" d="M408.05,343.59s12.85-10.28,17.57-16"/><path class="cls-4" d="M315.61,56.47S294,62.26,287.82,81.15s-15.12,37.41-36.07,21.28c0,0,15.46,4.16,12.71-19.9s29.05-53,53.15-39.85c0,0,41.66-25.08,80.48-.69s41.9,78.81,35,105.19-45.43,44.45-51.22,42.91,10.85-37.74,15.07-42.38,6.06-1.14,13.34-5,12.15-12.4,11.38-20.5-6.25-13.25-12.72-12.1-8.39,7.45-12,14.09-9.53,4.31-6.1-14.38-2.67-22.12-15.42-27.28-9.9-24.68-22.16-29.95S333.88,72.67,315.61,56.47Z"/><path class="cls-13" d="M311.44,52.57s-19.75-3.28-28.17,11.15-1.46,38.65-16.92,37.88"/><path class="cls-13" d="M319.68,49s4.65,9.28,17,0,32.46-9.79,40.18,11.85,19.33,23.19,26.54,19.84"/><path class="cls-13" d="M396.24,91.54s3.31,19.08,23.4,10.06"/><path class="cls-13" d="M381.51,53.93s13.14,24.47,31.95,14.68"/><path class="cls-13" d="M424.3,70.92s16.68,40.88,7.94,72.62-38,42.92-38,42.92"/><path class="cls-13" d="M406.46,152.79s-2,18.36-15.16,25.83"/><path class="cls-13" d="M425.79,139.68s-5.33,22.94-16.82,30"/><path class="cls-13" d="M436,82.08s14.29,1.84,8.62,15.7-7.47,36.39,9.79,43"/><path class="cls-13" d="M440.86,150.9s-9.63,9.69-1.38,23.86.79,29.63-17.77,25.76"/></g></svg>
