<?xml version="1.0" encoding="UTF-8"?>
<svg xmlns="http://www.w3.org/2000/svg" xmlns:xlink="http://www.w3.org/1999/xlink" viewBox="0 0 512 512" width="512" height="512"><defs><style>.cls-1,.cls-10,.cls-14,.cls-7,.cls-9{fill:none;}.cls-12,.cls-2{fill:#383333;}.cls-3{fill:#ffb833;}.cls-4{fill:#aaeeea;}.cls-5{fill:#00ccc1;}.cls-6{clip-path:url(#clip-path);}.cls-7{stroke:#00ccc1;stroke-width:2px;}.cls-10,.cls-14,.cls-7,.cls-9{stroke-linecap:round;stroke-linejoin:round;}.cls-8{fill:#d89071;}.cls-10,.cls-9{stroke:#383333;}.cls-9{stroke-width:0.75px;}.cls-10,.cls-12{fill-rule:evenodd;}.cls-11{fill:#d17352;}.cls-13{fill:#fff3e3;}.cls-14{stroke:#fff;}.cls-15{fill:#fff;}</style><clipPath id="clip-path"><rect class="cls-1" x="67.98" y="110.75" width="165.43" height="158.78" rx="5.53" transform="translate(-72.21 94.35) rotate(-28.35)"/></clipPath></defs><g id="Microchip"><path class="cls-2" d="M406.07,73.31s37.27-11.17,58.54,3.85S485.88,117.6,475.5,137s-20.56,55.42,6.78,68.1c0,0-30,17.22-54,9.51s-24.12-31-18.37-44.32S436.07,77.69,406.07,73.31Z"/><path class="cls-3" d="M244.34,73V50a2,2,0,0,1,1.33-2,2,2,0,0,1,2.58,1.85V73.07a2,2,0,0,1-2.58,1.85A2,2,0,0,1,244.34,73Z"/><path class="cls-3" d="M234.71,63.44a2,2,0,0,1-1.85-2.58,2,2,0,0,1,1.95-1.33h23a2,2,0,0,1,2,1.33,2,2,0,0,1-1.85,2.58Z"/><path class="cls-3" d="M229.13,314.44a1.49,1.49,0,0,1-1.49-1.49V295.29a1.49,1.49,0,0,1,3,0V313A1.49,1.49,0,0,1,229.13,314.44Z"/><path class="cls-3" d="M220.3,305.61a1.49,1.49,0,0,1,0-3H238a1.49,1.49,0,0,1,0,3Z"/><path class="cls-3" d="M422.12,51.64a1.49,1.49,0,0,1-1.49-1.49V32.49a1.49,1.49,0,0,1,3,0V50.15A1.49,1.49,0,0,1,422.12,51.64Z"/><path class="cls-3" d="M413.29,42.81a1.49,1.49,0,0,1,0-3H431a1.49,1.49,0,1,1,0,3Z"/><rect class="cls-4" x="144.32" y="71.01" width="7.93" height="48.29" rx="3.67" transform="translate(323.98 108.48) rotate(151.65)"/><rect class="cls-4" x="106.49" y="91.42" width="7.93" height="48.29" rx="3.67" transform="translate(262.54 164.82) rotate(151.65)"/><rect class="cls-4" x="68.66" y="111.83" width="7.93" height="48.29" rx="3.67" transform="matrix(-0.88, 0.47, -0.47, -0.88, 201.11, 221.15)"/><rect class="cls-4" x="225.17" y="220.85" width="7.93" height="48.29" rx="3.67" transform="translate(547.11 351.82) rotate(151.65)"/><rect class="cls-4" x="187.34" y="241.26" width="7.93" height="48.29" rx="3.67" transform="translate(485.68 408.15) rotate(151.65)"/><rect class="cls-4" x="149.5" y="261.67" width="7.93" height="48.29" rx="3.67" transform="translate(424.25 464.49) rotate(151.65)"/><rect class="cls-4" x="242.25" y="163.75" width="7.93" height="48.29" rx="3.67" transform="translate(197.75 493.79) rotate(-118.35)"/><rect class="cls-4" x="221.84" y="125.92" width="7.93" height="48.29" rx="3.67" transform="translate(200.95 420.04) rotate(-118.35)"/><rect class="cls-4" x="201.43" y="88.09" width="7.93" height="48.29" rx="3.67" transform="translate(204.14 346.28) rotate(-118.35)"/><rect class="cls-4" x="92.4" y="244.59" width="7.93" height="48.29" rx="3.67" transform="translate(-94.38 481.15) rotate(-118.35)"/><rect class="cls-4" x="71.99" y="206.76" width="7.93" height="48.29" rx="3.67" transform="translate(-91.19 407.39) rotate(-118.35)"/><rect class="cls-4" x="51.58" y="168.93" width="7.93" height="48.29" rx="3.67" transform="translate(-88 333.64) rotate(-118.35)"/><rect class="cls-5" x="61.84" y="104.61" width="177.7" height="171.05" rx="12.77" transform="translate(373.59 285.92) rotate(151.65)"/><g class="cls-6"><rect class="cls-4" x="67.98" y="110.75" width="165.43" height="158.78" rx="5.53" transform="translate(-72.21 94.35) rotate(-28.35)"/><polyline class="cls-7" points="137.86 172.68 96.8 194.84 105.93 211.76 65.95 233.33"/><circle class="cls-5" cx="137.86" cy="172.68" r="5.73"/><line class="cls-7" x1="115.99" y1="229.12" x2="70.43" y2="253.7"/><circle class="cls-5" cx="117.08" cy="228.54" r="5.73"/><polyline class="cls-7" points="111.3 133.42 152.37 111.26 161.5 128.19 201.48 106.62"/><circle class="cls-5" cx="111.3" cy="133.42" r="5.73"/><line class="cls-7" x1="170.48" y1="146.13" x2="216.04" y2="121.55"/><circle class="cls-5" cx="169.4" cy="146.72" r="5.73"/><polyline class="cls-7" points="173.73 249.13 214.79 226.97 205.66 210.04 245.64 188.47"/><circle class="cls-5" cx="173.73" cy="249.13" r="5.73"/><line class="cls-7" x1="195.6" y1="192.69" x2="241.16" y2="168.1"/><circle class="cls-5" cx="194.51" cy="193.27" r="5.73"/></g><circle class="cls-8" cx="356.44" cy="133.31" r="71.83"/><path class="cls-8" d="M338.88,184.17c3,13.25,4.76,31.73-5.4,45.12-7.92,10.43-16.33,8.73-25.45,15.55-25.44,19-8,67.79-13.44,136.45a345.21,345.21,0,0,1-13.43,71.41,130.25,130.25,0,0,0,155.54-7.78,151.75,151.75,0,0,1-10.6-29.7c-14.26-58.63,8.25-121.15-3.5-155.47-2.15-6.26-4.83-14.1-12.2-20.15-7.56-6.21-13.26-5-19.09-11.67-4.49-5.17-5.4-10.86-6.75-20a96.57,96.57,0,0,1,.85-32.45Z"/><path class="cls-8" d="M284.62,92.88c-8.45,53.47,0,99.21,25.56,112.41,6.42,3.32,13.11,4.16,18.5,4.8,35.3,4.18,63-13.73,74.29-22.06C403,188,374.21,1,284.62,92.88Z"/><path class="cls-8" d="M401.05,127c.77-.76,5-4.71,11-4.27.88.06,4.38.32,6.75,2.53,6.12,5.73,3.78,23.82-6.8,28.47-5.92,2.6-12.2,0-14.32-.95Q399.37,139.85,401.05,127Z"/><path class="cls-9" d="M416.28,133.31l-10.21-.47s10.39,6.46,1.69,14.86"/><path class="cls-2" d="M369.06,118.78a22.24,22.24,0,0,0-12.79-4.19c-3.11-.07-7.32-.17-8.61,2.26a3.39,3.39,0,0,0,.08,3.44c1.46,1.95,5.13.19,11.05.13,7.8-.07,12.87,2.89,13.38,1.77C372.54,121.38,370,119.51,369.06,118.78Z"/><path class="cls-2" d="M292.43,119.3a22.35,22.35,0,0,1,12.87-3.93c3.11,0,7.32,0,8.57,2.43a3.4,3.4,0,0,1-.15,3.43c-1.5,1.93-5.13.09-11.05-.08-7.8-.22-12.93,2.63-13.42,1.5C288.9,121.84,291.44,120,292.43,119.3Z"/><path class="cls-10" d="M325.76,135.27s-5.45,12.61-4.45,15,10.83,1.59,10.83,1.59"/><path class="cls-9" d="M324.78,179.6s4.94,1.85,8.94-.07"/><ellipse class="cls-11" cx="369.07" cy="156.51" rx="8.65" ry="5.38" transform="translate(-2.63 6.35) rotate(-0.98)"/><ellipse class="cls-11" cx="298.18" cy="158.74" rx="8.65" ry="5.38" transform="translate(-2.68 5.13) rotate(-0.98)"/><path class="cls-12" d="M359,143.68a6.37,6.37,0,1,1-.41-9A6.38,6.38,0,0,1,359,143.68Z"/><path class="cls-12" d="M364.93,135.31c-.13-.12-1.41,2-3,1.84-1.17-.14-1.46-1.44-2.94-2.61a7.63,7.63,0,0,0-4.47-1.5,16.48,16.48,0,0,0,2.5,3.75c1.43,1.6,2.36,2.63,3.63,2.67C363.2,139.54,365.12,135.47,364.93,135.31Z"/><path class="cls-12" d="M306.53,144.62a6.37,6.37,0,1,1,.11-9A6.39,6.39,0,0,1,306.53,144.62Z"/><path class="cls-12" d="M291.32,136.34c.13-.12,1.48,2,3.08,1.74,1.17-.18,1.41-1.49,2.86-2.7a7.61,7.61,0,0,1,4.41-1.66,16.2,16.2,0,0,1-2.38,3.83c-1.37,1.65-2.26,2.72-3.53,2.8C293.19,140.51,291.14,136.51,291.32,136.34Z"/><path class="cls-8" d="M401,234.26s27.13,4.45,39.14,21.77,28.64,87,28.64,87l-38.18,12A434.92,434.92,0,0,1,401,234.26Z"/><path class="cls-8" d="M324.42,237s-18.21,3.72-33.19,15.9S258.4,355,258.4,355l44.76,18S349.44,263.48,324.42,237Z"/><path class="cls-8" d="M189.11,337a478.93,478.93,0,0,0,51.61,6.37c37.8,2.6,57.42-1.24,66.46,11.31,5.17,7.19,6.41,19,1.75,26.19-5.37,8.26-25.83,21.53-129-14.17Q184.51,351.83,189.11,337Z"/><path class="cls-13" d="M389.39,214.65s-33.18,7.58-55.67,2.3c0,0-4.53,13.1-9.7,17.31s-19.34,7.43-32.22,16S265,325.12,265,325.12a93.06,93.06,0,0,0,24.45,13.44s-3.62,78.89-13.85,113.19c0,0,80.8,65.13,164.89-5.61,0,0-20.36-62.16-14.63-114.67s4.66-82.77,0-88.05-27.91-11.71-32.12-15S389.39,214.65,389.39,214.65Z"/><path class="cls-13" d="M462.65,319.35l-40.83,12.12-4.39-93.1s18.79,7,27.36,20.49S462.65,319.35,462.65,319.35Z"/><path class="cls-3" d="M393.76,228.37s-6,29.81-26.13,52.56-12.53,37.26-10.55,69.91-1.24,123.63,1.85,128.26,45,3,86.19-30.65c0,0-15.82-82.77-18.79-120,0,0-5.94-28.36-4-50.79s5.81-33.91,5.81-33.91S412.31,228.08,393.76,228.37Z"/><path class="cls-8" d="M382.12,387.53a131.89,131.89,0,0,0,28.81-25.45c9-10.74,14.28-20.74,28.46-31.1,11.33-8.29,16-7.8,18.38-7.07,9.17,2.81,11.46,18.59,11.66,20.14,4.29,32-61.76,66.48-71.76,71.59Q389.9,401.59,382.12,387.53Z"/><path class="cls-3" d="M324,234.26s20,53.1,21,66.46S337.61,472,329.45,476.15s-55.15-17.15-58.11-26S291.8,312.72,291.8,312.72s8-49,3.9-64.88C295.7,247.84,307.45,231.11,324,234.26Z"/><path class="cls-8" d="M194.25,338.56s-15.41-8.25-26.3-7.09-14.84,1.09-29.92-.11-15.34,6-3,12.64,40.31,24,53.42,24.48S194.25,338.56,194.25,338.56Z"/><path class="cls-10" d="M378.92,381.1s12.36,27.2,25,41.79"/><path class="cls-10" d="M310.86,384.81s-13.63,27-27.32,30.83"/><path class="cls-10" d="M410.58,302.69l-45,2.31s-1.49,13,4.7,16.24S421,327.67,410.58,302.69Z"/><path class="cls-10" d="M412.07,311.85l2.83,33.5a2,2,0,0,1-1.33,2c-5.46,1.87-25.25,7.83-43.11,2.8a2,2,0,0,1-1.43-1.74q-1.8-19.66-3.61-39.33"/><circle class="cls-2" cx="389.3" cy="316.04" r="2.98"/><path class="cls-10" d="M295.2,305l45,2.3s1.48,13-4.7,16.25S284.82,330,295.2,305Z"/><path class="cls-10" d="M293.72,314.15l-2.84,33.5a2,2,0,0,0,1.34,2.06c5.46,1.87,25.25,7.82,43.11,2.79a2,2,0,0,0,1.43-1.74l3.6-39.33"/><circle class="cls-2" cx="316.49" cy="318.34" r="2.98"/><path class="cls-10" d="M278.59,359.25s-3.41-10.94-17.94-14.95"/><path class="cls-10" d="M456.09,336.33s-17.58-2.59-28.45,5"/><path class="cls-2" d="M336.38,70.21s-20.5,0-27.93,13.85-21.78,36.11-46,16.82c0,0,15.58,3.32,16.82-6.88s13.11-43.83,50.21-33.93c0,0,34-17.7,68.21-1.8s45.86,63,42.37,92.85-49.43,52-56.3,48.69,8.35-20.71,10.27-32.32,2.34-13,9-13,18.27-1.82,18.75-15-7.37-19.07-13.11-16.54-8.28,9.54-9,14.77-6.19,8.89-8.3,2.58,2.67-20.1-3.27-35.44S355.41,65.23,336.38,70.21Z"/><path class="cls-14" d="M327.63,67.51s-15-3.86-21.8,4.55-9.07,31.49-23.25,29"/><path class="cls-14" d="M365,74.86s22.63,26.22,44.95,21.76"/><path class="cls-14" d="M418.6,83.94s-20,4.77-34.12-5.12"/><path class="cls-14" d="M411.18,161.89s-.46,13.87-11.6,18.94"/><path class="cls-14" d="M415.55,71.14s51.42,83.1-5.65,118.93"/><path class="cls-14" d="M430.65,78.82S448.78,72.55,460,91.35s-6.27,37.84-4.95,56.35"/><path class="cls-14" d="M434.84,174.23s-14.42,31.22,19.88,33.53"/><path class="cls-14" d="M449.14,140.28s-17.77,57.24,21.47,62.17"/><ellipse class="cls-15" cx="329.25" cy="169.79" rx="10.51" ry="5.66"/><path class="cls-10" d="M374,203s-19.62,6.95-33.25,7.74"/></g></svg>
