<?xml version="1.0" encoding="UTF-8"?>
<svg xmlns="http://www.w3.org/2000/svg" viewBox="0 0 512 512" width="512" height="512"><defs><style>.cls-1{fill:#aaeeea;}.cls-2{fill:#00ccc1;}.cls-3{fill:#ffb08d;}.cls-4{fill:#fff3e3;}.cls-10,.cls-11,.cls-5,.cls-6{fill:none;stroke-linecap:round;stroke-linejoin:round;}.cls-11,.cls-5,.cls-6{stroke:#383333;}.cls-6{stroke-width:0.75px;}.cls-7,.cls-9{fill:#383333;}.cls-8{fill:#ff8c5f;}.cls-9{fill-rule:evenodd;}.cls-10{stroke:#fff;}.cls-11{stroke-width:3px;}.cls-12{fill:#ffb833;}</style></defs><g id="Microscope"><rect class="cls-1" x="71.3" y="55.75" width="147.38" height="61.59" rx="24.03" transform="translate(289.99 173.09) rotate(180)"/><path class="cls-1" d="M203.15,97.35s-3.87,13.46,0,22.75,13.81,10.25,7.72,11.21-30.43-6.2-34.28-28.73Z"/><circle class="cls-2" cx="183.93" cy="87.74" r="7.72"/><circle class="cls-2" cx="145" cy="87.74" r="7.72"/><circle class="cls-2" cx="106.06" cy="87.74" r="7.72"/><path class="cls-3" d="M242.64,243.48s-18-33.17-25.85-38.24-24.4-7.05-33.28-10.56-3.16,9.06,9.71,12.9c0,0-1-.1-2.62-.31,0,0-3.47-.46-6.35-1-7.17-1.34-11.92-6.28-14.33-4.59-1.4,1-1.12,3.6-1.06,4.15.93,8.74,17.67,13.27,19.29,13.69a84.26,84.26,0,0,1-16.65-1.42c-1.24-.25-4-.85-4.94.42s.13,3.34.48,4.06c2.87,6,15.23,7.87,19.08,8.34,0,0-6.4,2.6-11.72,2.77s-7.08,2.88.18,5.83,7.77,3.29,17.74,4,15.59,13.5,15.59,13.5S236.59,253.15,242.64,243.48Z"/><path class="cls-4" d="M205,252.38a293.28,293.28,0,0,0,25.1,70.94C240.08,343,255.72,373,277.56,376c2.42.33,8.74,1.13,14.49-2.36,10.52-6.38,11-22.24,11-23.85.3-20.84-17.8-40.62-17.8-40.62q-10.49-15.19-21-31.38-13-19.92-24.6-39.21A81,81,0,0,0,205,252.38Z"/><path class="cls-3" d="M213.41,210.36s-3.58-7-.44-14,2.36-3.79,12.91,21.73C225.88,218.06,212.64,219.46,213.41,210.36Z"/><circle class="cls-3" cx="335.65" cy="126.67" r="71.31"/><path class="cls-1" d="M150.12,473q-2.91-35.39-5.81-70.79H218.1l38.58,69.27Z"/><path class="cls-1" d="M155.73,249.15c3.83,2.82,38.28,29.12,38.43,74.38.12,34-19.14,65.65-49.85,82.25l41.21,39.1c50.77-30.13,74.71-88.36,59.89-139.34-17.51-60.17-80-79.33-84.26-80.55Q158.44,237.07,155.73,249.15Z"/><rect class="cls-1" x="68.79" y="395.44" width="93.9" height="19.1" rx="6.41"/><rect class="cls-2" x="173.11" y="177.4" width="32.68" height="33.18" transform="translate(115.71 -66.94) rotate(28.54)"/><rect class="cls-2" x="176.41" y="176.76" width="42.5" height="5.27" rx="2.48" transform="translate(101.67 -69.68) rotate(26.7)"/><rect class="cls-1" x="123.88" y="191.12" width="50.73" height="162.24" rx="6.54" transform="translate(138.5 -38.04) rotate(26.75)"/><rect class="cls-2" x="68.79" y="461.9" width="200.83" height="19.1" rx="5"/><circle class="cls-2" cx="157.27" cy="408.21" r="21.2"/><circle class="cls-2" cx="178.47" cy="247.66" r="22.67"/><rect class="cls-2" x="82.09" y="337.52" width="62.86" height="9.86" rx="4.02" transform="translate(170.01 -13.87) rotate(27.35)"/><circle class="cls-5" cx="178.9" cy="247.01" r="14.63"/><circle class="cls-5" cx="157.33" cy="408.19" r="15"/><path class="cls-5" d="M168.26,426.34s27,2.66,55.06-14.79"/><line class="cls-5" x1="181.58" y1="174.25" x2="209.45" y2="188.27"/><path class="cls-3" d="M334.31,176.06c2.82,15.72,3.77,37-8.33,52.95-10.27,13.58-22.38,13.38-32.39,25.45-16.74,20.21-8.73,52-5.31,68.16,7.19,33.95,12,83.62,3.54,155.8a368.32,368.32,0,0,0,152.71-16.86,339.34,339.34,0,0,1-22.28-86.68c-6.12-52.45.34-108.88-24.21-139a85.87,85.87,0,0,1-11.17-16.5c-9.37-18.25-10.12-36.49-9.36-48.82Z"/><path class="cls-3" d="M259.19,97.5c-.46,53.74,14.54,97.42,41.58,106.63,6.79,2.32,13.49,2.16,18.88,2,35.27-1.07,59.87-22.72,69.71-32.55C389.36,173.58,333.71-5.82,259.19,97.5Z"/><path class="cls-3" d="M347.05,118.59c.65-.85,4.2-5.35,10.17-5.8.88-.06,4.35-.32,7,1.5,6.85,4.73,7.2,22.84-2.51,29-5.42,3.41-12,1.81-14.19,1.16Q347.28,131.5,347.05,118.59Z"/><path class="cls-6" d="M362.94,122.59l-10.09,1S364,128.45,356.69,138"/><path class="cls-7" d="M301.13,116.46A22.11,22.11,0,0,0,288,114.22c-3.07.39-7.21.9-8.13,3.49a3.39,3.39,0,0,0,.59,3.36c1.72,1.7,5.06-.57,10.87-1.49,7.64-1.22,13.06.94,13.4-.23C304.93,118.5,302.2,117,301.13,116.46Z"/><ellipse class="cls-8" cx="303.58" cy="153.97" rx="8.58" ry="5.35" transform="translate(-21.2 52.05) rotate(-9.47)"/><path class="cls-9" d="M290.86,142.16a6,6,0,1,1-1.76-8.27A6,6,0,0,1,290.86,142.16Z"/><path class="cls-9" d="M295.06,133.48c-.15-.09-1,2.1-2.52,2.17-1.11.06-1.57-1.1-3.13-2A7.22,7.22,0,0,0,285,133a15.7,15.7,0,0,0,2.91,3.1c1.57,1.26,2.58,2.08,3.77,1.92C294.11,137.67,295.26,133.6,295.06,133.48Z"/><path class="cls-4" d="M331.12,233.54a101.56,101.56,0,0,1-15.58,6c-5.53,1.64-7.82,1.81-11,2.83-9.57,3.12-15.38,10.32-18.77,14.52-9.11,11.29-11.64,25.59-20.36,55.59-2.62,9-10.4,35.47-22.42,67.95h0l34.41,17.47a174.09,174.09,0,0,0,53.69-164.38Z"/><path class="cls-3" d="M259.72,116.73s3.16,17.59-1.83,24.75,1.45,16.68,16.43,11.45C274.32,152.93,276.23,111.45,259.72,116.73Z"/><path class="cls-6" d="M288.23,182.74a6,6,0,0,0,5.82-2.25"/><path class="cls-3" d="M423.18,396.27A256.59,256.59,0,0,1,451.86,481l-106.22-.74L375,418.58Z"/><path class="cls-4" d="M298.19,245.44a90.08,90.08,0,0,0-10.5,9.79c-17.08,18.89,5.05,79,5.55,101,.7,31.16-3.9,124.74-3.9,124.74l167.83-1.76s-3.32-13.3-8-29.54c-7.07-24.69-13.91-41.64-15.93-47.13-20.37-55.58-11.2-143.7-24.61-160.32-1-1.22-14.27-17.16-17.35-19.83a10.39,10.39,0,0,1-2.09-2.2c-2.06-3-.52-4.93-8.17-4.35-9.39.71-34.17,3.9-42.67,3.19a14.55,14.55,0,0,0-6.75.88c-4.42,1.75-6.59,5.39-8,7.44C317.69,235.77,312.37,233.92,298.19,245.44Z"/><path class="cls-3" d="M232.18,266.42s-16.93-33.73-24.63-39-24.17-7.82-32.93-11.61-3.45,8.95,9.29,13.2c0,0-1-.13-2.61-.4,0,0-3.45-.56-6.31-1.19-7.13-1.57-11.72-6.66-14.18-5-1.43.94-1.23,3.57-1.19,4.12.66,8.76,17.25,13.82,18.85,14.29a83.94,83.94,0,0,1-16.6-1.94c-1.23-.29-3.94-1-5,.26s0,3.34.35,4.07c2.68,6.14,15,8.35,18.81,8.94,0,0-6.48,2.39-11.81,2.39s-7.16,2.66,0,5.85,7.66,3.53,17.61,4.6,15.15,14,15.15,14S225.82,275.89,232.18,266.42Z"/><path class="cls-4" d="M194.27,274.12a293.74,293.74,0,0,0,22.84,71.7c9.35,20,24,50.43,45.78,54.11,2.4.4,8.69,1.39,14.55-1.91,10.72-6,11.67-21.88,11.74-23.49,1-20.82-16.5-41.16-16.5-41.16q-10-15.53-20-32-12.32-20.32-23.34-40a81,81,0,0,0-35,12.75Z"/><path class="cls-3" d="M204,232.38s-3.37-7.13,0-14,2.48-3.72,12.21,22.13C216.22,240.48,203,241.46,204,232.38Z"/><path class="cls-5" d="M324.92,278.9s8,38.88-31.83,102.82"/><polyline class="cls-5" points="414.3 400.39 407.6 419.02 414.3 479.24"/><path class="cls-5" d="M428.49,479.24l-18.06-67"/><path class="cls-5" d="M315,233.54s9.07-4.65,21.61-1.16,44.42,4.56,54.68-10"/><path class="cls-5" d="M361.75,192.15s-16.47,10.54-26.21,12.06"/><path class="cls-7" d="M265.3,71.23s-26.17,15.36-5.81,41.51c0,0,4.78-19.2,21.74-29.12,0,0,13.08,20.19,33.79,26.91s22.12,35.05,29.2,27.44-.2-25,13-25.18,15.61,21.39,4.49,30.46S356.26,193,372.55,198s22.66-11,32.22-26.38,29.74-40.89,10.62-77-39.46-45.68-57.26-47.8-54.55-6.65-72.29,18.63C285.84,65.43,272.28,65.25,265.3,71.23Z"/><path class="cls-7" d="M369.2,55.35S374,26.62,396.63,31.57s11.28,19.48,26.71,26.91,12.23,14.88,9.75,24.79-18.76,18.41-38.59,8.85S369.2,55.35,369.2,55.35Z"/><path class="cls-5" d="M279.63,178.16s10.95,4,18.56-9.76"/><polyline class="cls-5" points="271.94 289.48 264.33 320.24 229.32 261.37"/><path class="cls-5" d="M264.33,320.24s8.63,29.29,7.61,51.25"/><path class="cls-5" d="M205.61,215.55s1.87-2.11,2.87.48,1.32,8.59,4.05,14.35a138.62,138.62,0,0,0,7.83,13.52"/><path class="cls-10" d="M292.17,77.6c1.61,3.85,8.74,19.68,26.56,27.62,15.32,6.83,29.44,3.78,34.16,2.69a57.13,57.13,0,0,0,16.31-6.58"/><path class="cls-10" d="M324.27,86.81s17.47,17.35,48.63,2.48"/><path class="cls-10" d="M380.69,135.35s-21.95,34.31-3.18,49.89"/><path class="cls-10" d="M407,126.67s-1.85,34.48-21,44.94"/><path class="cls-10" d="M380.69,54.27s7.16-23.76,15.8-14.91,5.09,29,23.86,29.39"/><path class="cls-10" d="M396.49,65.43s8.59,25.63,26.85,16.07"/><path class="cls-10" d="M256.22,96.3s-1.17-19.88,23.41-21.77"/><path class="cls-10" d="M310.23,70.88s36.51,11.39,61.45-7.23"/><path class="cls-6" d="M177.49,240.71s5,1.41,7.49,1.94"/><path class="cls-6" d="M183.91,229s4.52,1.2,7.17,2.26"/><line class="cls-6" x1="176.08" y1="252.07" x2="182.19" y2="252.87"/><line class="cls-11" x1="35.47" y1="479.24" x2="476.53" y2="479.24"/><path class="cls-12" d="M239.65,61.57V36.67a2,2,0,0,1,1.2-1.9,2.11,2.11,0,0,1,3,1.91V61.55a2.11,2.11,0,0,1-3,1.92A2,2,0,0,1,239.65,61.57Z"/><path class="cls-12" d="M229.31,51.22a2.11,2.11,0,0,1-1.91-3A2,2,0,0,1,229.31,47h24.87a2,2,0,0,1,1.91,1.21,2.11,2.11,0,0,1-1.91,3Z"/><path class="cls-12" d="M423.44,215.62V196.89a1.68,1.68,0,0,1,1.36-1.7,1.6,1.6,0,0,1,1.84,1.58v19a1.61,1.61,0,0,1-1.84,1.59A1.68,1.68,0,0,1,423.44,215.62Z"/><path class="cls-12" d="M415.56,207.85A1.6,1.6,0,0,1,414,206a1.69,1.69,0,0,1,1.7-1.36H434.4a1.69,1.69,0,0,1,1.7,1.36,1.6,1.6,0,0,1-1.58,1.84Z"/><path class="cls-12" d="M154.2,163.33V144.6a1.67,1.67,0,0,1,1.35-1.69,1.59,1.59,0,0,1,1.84,1.58v19a1.6,1.6,0,0,1-1.84,1.58A1.69,1.69,0,0,1,154.2,163.33Z"/><path class="cls-12" d="M146.31,155.57a1.61,1.61,0,0,1-1.58-1.85,1.69,1.69,0,0,1,1.7-1.35h18.73a1.69,1.69,0,0,1,1.7,1.35,1.61,1.61,0,0,1-1.58,1.85Z"/></g></svg>
