<?xml version="1.0" encoding="UTF-8"?>
<svg xmlns="http://www.w3.org/2000/svg" viewBox="0 0 512 512" width="512" height="512"><defs><style>.cls-1{fill:#aaeeea;}.cls-2{fill:#00ccc1;}.cls-3{fill:#d89071;}.cls-4{fill:#fff3e3;}.cls-10,.cls-12,.cls-5{fill:none;stroke-linecap:round;stroke-linejoin:round;}.cls-10,.cls-5{stroke:#383333;}.cls-5{stroke-width:0.75px;}.cls-11,.cls-6{fill:#383333;}.cls-7{fill:#d17352;}.cls-8{fill:#ff8d93;}.cls-9{fill:#ffb833;}.cls-11{fill-rule:evenodd;}.cls-12{stroke:#fff;}.cls-13{fill:#fff;}</style></defs><g id="Pharmacy"><rect class="cls-1" x="313.27" y="207.17" width="15.78" height="81.16" rx="7.18"/><rect class="cls-1" x="318.39" y="277.96" width="5.52" height="27.48" rx="2.51"/><circle class="cls-2" cx="321.15" cy="204.66" r="18.9"/><path class="cls-3" d="M275.47,219.59c6-6.9,10.59-12.44,13.41-15.87,9.41-11.41,14.29-17.94,22.35-20.86a20.7,20.7,0,0,1,9.91-1.14c1.87.27,7.26,1,7.71,3.25.83,4.08-16.33,6.7-19.46,18.05-.72,2.62-.77,6.67,1.2,8.86,2.25,2.5,6.52,2.92,11.6,1.4,8.77-2.63,3.89,10.37-3.8,12.29S292,243.78,292,243.78,273.11,235.63,275.47,219.59Z"/><path class="cls-4" d="M92.9,223.59c10.88,2.49,27.27,6.39,47.15,11.78,15.43,4.17,25.5,7.22,27.88,7.88,18.57,5.22,52.12,1.5,117.8-37.33q8.06,16.59,16.13,33.19s-60.56,53.48-104.48,63.4-77.13-8.42-77.13-8.42S77,246.38,92.9,223.59Z"/><path class="cls-3" d="M64.43,178.79s1.78,28.47-8.74,40.3-29.14,24.44-30.35,49.69,19.44,110.08,0,169c0,0,89.25,35.77,145.52,0,0,0-18.06-56.74-17.18-101.73,1.18-60.48-10.11-90.48-30.15-103.89-4.53-3-11.18-6.12-16-14.2-7.22-12.23-4.87-27-1.93-37.22-3-2.12-8.3-4.53-15.16-6.38C82,172.05,71.69,171.57,64.43,178.79Z"/><circle class="cls-3" cx="98.99" cy="121.04" r="73.64"/><path class="cls-3" d="M174.4,82.9c6.21,55.16-4.53,101.62-31.31,114-6.73,3.11-13.62,3.66-19.17,4.07C87.58,203.61,60,184,48.84,175,48.84,175,86.82-15.26,174.4,82.9Z"/><path class="cls-3" d="M86.41,114c-.76-.8-4.88-5-11.07-4.87-.9,0-4.5.13-7,2.29-6.54,5.59-5,24.23,5.67,29.47,5.94,2.93,12.49.59,14.7-.32Z"/><path class="cls-5" d="M70.52,119.76H81s-10.94,6.15-2.41,15.14"/><path class="cls-6" d="M133.35,106.86a22.82,22.82,0,0,1,13.29-3.7c3.19.06,7.5.15,8.72,2.71a3.49,3.49,0,0,1-.24,3.51c-1.59,1.93-5.26,0-11.33-.37-8-.43-13.31,2.37-13.78,1.2C129.66,109.37,132.31,107.57,133.35,106.86Z"/><ellipse class="cls-7" cx="134.84" cy="143.27" rx="5.52" ry="8.86" transform="translate(-16.46 269.03) rotate(-86.47)"/><path class="cls-3" d="M175.92,102.71s-1.38,18.41,4.52,25.23.29,17.28-15.66,13.52C164.78,141.46,158.39,99.05,175.92,102.71Z"/><path class="cls-5" d="M153.68,173.57a6.2,6.2,0,0,1-6.21-1.7"/><path class="cls-4" d="M45.74,226.25s7.19-11.75,10.7-16.83,11-1.75,17.53,9.29,30.06,18,30.06,18a44,44,0,0,0,2.58-5.13c1.29-3.06,2.24-5.86,1.72-9.07-.29-1.74-.71-1.6-2.45-6.79-1.29-3.83-1.15-4.21-1-4.38,1.12-1.06,6.8,2.18,10.87,6.7,4.32,4.8,5.39,10.19,6.13,11,2,2.12,24.48,21.6,29.89,48.64s5.61,120.16,20.86,161.1c0,0-58,44-153.39,3.35,0,0,14-54.46,8.77-102.18S11.38,245.53,45.74,226.25Z"/><path class="cls-8" d="M41.43,229s9-7.7,20.53,0,38.13,29.94,55.48,30.25c0,0,9.39-12,7.85-27,0,0,23.43,18.61,26.51,45.36s13,121,24.19,161.1c0,0-69.77,51-159.52,4.39,0,0,14.14-75,8.82-109.89S11.2,242.82,41.43,229Z"/><path class="cls-1" d="M192.26,325.09h27.39a0,0,0,0,1,0,0V426.32a12.39,12.39,0,0,1-12.39,12.39h-2.47a12.52,12.52,0,0,1-12.52-12.52V325.09A0,0,0,0,1,192.26,325.09Z"/><rect class="cls-1" x="188.56" y="320.75" width="34.8" height="9.58" rx="4.36"/><path class="cls-9" d="M203.27,364.08a7.4,7.4,0,0,0-7.65-4.05v64.91A10.42,10.42,0,0,0,206,435.35a10.28,10.28,0,0,0,10.27-10.26V366C211.71,367.37,205.44,368.29,203.27,364.08Z"/><path class="cls-3" d="M169.94,346.51s8.77-.06,12.27-2.36,4.76-5.09,10-5.53a6.78,6.78,0,0,0,.44,2.29c1.53,3.87,6.55,5.06,8.8,5.6,8.2,1.94,15.75-2.43,18.15-3.95,0,0,4.11,2.63,1.74,8.06,0,0,3.16,3-.17,7.54,0,0,2.63,2.11-.09,6.14,0,0,2.63,3.59-.26,6.22s-19.16,6.77-29.45,6.14a145,145,0,0,0-18.76.06S163.72,353.08,169.94,346.51Z"/><path class="cls-4" d="M72.21,249.34a39.31,39.31,0,0,1,10.87,8.29c11.43,12.49,8.27,26.13,16.83,46.28,1.59,3.73,6.06,13.54,12.62,21,17.77,20.3,48.69,21.1,63.81,20.34q2.46,15.78,4.91,31.55c-19.24,5.51-53.16,11.66-87.65-2.1a92,92,0,0,1-23.08-12.67C39,337.93,34.28,298.82,33.3,286.38c-3.43-12.26.69-25.23,10.28-32.67C56.08,244,71.1,249,72.21,249.34Z"/><path class="cls-4" d="M54,213.06s-5.09,11.19-9.77,14.18,8.73,3.92,16.09,8,31.29,25.9,39.84,28.67,6.55-5.13,6.5-10.13-3-16.3-1.37-16.56,18.4,20.51,21.82,17.75,2.66-18.28-3.94-27.09a19.75,19.75,0,0,0-15.78-8.3s.52,17-4.8,16.66S54,213.06,54,213.06Z"/><polyline class="cls-10" points="106.84 256.98 105.31 237.21 121.44 252.47"/><path class="cls-5" d="M221.39,350.62A42.29,42.29,0,0,1,210.55,354"/><path class="cls-5" d="M221.22,358.16s-5.15,2.37-8.63,2.57"/><path class="cls-5" d="M221.13,364.3s-5.52,2.41-7.16,2.41"/><path class="cls-6" d="M138.83,44.82c3.36-.61,14-2,23.52,4.19,11.87,7.76,17.3,24.22,12.72,40.67,0,0-20.46,9.13-60.78-3.14,0,0-4.21,17.6-12.44,24s-3.16,19.69-9.3,23.37S89,113.08,81.68,110.5,65.76,107.15,65,121s5.78,22.12,17.35,22.47S69.86,188,92.82,203c0,0-39.6-1.73-67.53-30.18-28.35-44.77-17.53-100.57,18-126C69.6,28,107.21,27.38,138.83,44.82Z"/><path class="cls-10" d="M87.43,193.82s8.93,5.47,15.38,6.25"/><path class="cls-9" d="M359.31,137.55V111.66a2,2,0,0,1,1-1.77,2.2,2.2,0,0,1,3.37,1.84v25.74a2.19,2.19,0,0,1-3.37,1.84A2,2,0,0,1,359.31,137.55Z"/><path class="cls-9" d="M348.61,126.77a2.2,2.2,0,0,1-1.84-3.37,2,2,0,0,1,1.77-1h25.88a2,2,0,0,1,1.77,1,2.2,2.2,0,0,1-1.84,3.37Z"/><path class="cls-9" d="M272.8,349.7a1.65,1.65,0,0,1-1.65-1.65V328.42a1.66,1.66,0,0,1,3.31,0v19.63A1.66,1.66,0,0,1,272.8,349.7Z"/><path class="cls-9" d="M263,339.89a1.66,1.66,0,1,1,0-3.31h19.62a1.66,1.66,0,1,1,0,3.31Z"/><path class="cls-9" d="M221.22,198.12a1.66,1.66,0,0,1-1.66-1.66V176.84a1.66,1.66,0,1,1,3.31,0v19.62A1.65,1.65,0,0,1,221.22,198.12Z"/><path class="cls-9" d="M211.41,188.31a1.66,1.66,0,1,1,0-3.31H231a1.66,1.66,0,1,1,0,3.31Z"/><path class="cls-2" d="M310.87,326.26h84.9a9,9,0,0,1,9,9v99.8a47.12,47.12,0,0,1-47.12,47.12h-9.3a46.51,46.51,0,0,1-46.51-46.51V335.27A9,9,0,0,1,310.87,326.26Z"/><path class="cls-1" d="M385.93,168h84.9a9,9,0,0,1,9,9v99.8a47.12,47.12,0,0,1-47.12,47.12h-9.3a46.51,46.51,0,0,1-46.51-46.51V177A9,9,0,0,1,385.93,168Z" transform="translate(493.85 735.51) rotate(-127.48)"/><path class="cls-11" d="M150.53,130.68a6.77,6.77,0,1,1,.44-9.56A6.8,6.8,0,0,1,150.53,130.68Z"/><path class="cls-11" d="M134.66,121.34c.15-.13,1.51,2.15,3.22,2,1.25-.14,1.55-1.53,3.13-2.76a8,8,0,0,1,4.75-1.61,17.36,17.36,0,0,1-2.66,4c-1.53,1.71-2.5,2.8-3.86,2.84C136.5,125.84,134.47,121.51,134.66,121.34Z"/><path class="cls-10" d="M196.68,264.47s2.92-16.9,14.48-23.92"/><path class="cls-10" d="M96,333.21s10.47-6.31,19.7-5"/><path class="cls-12" d="M145.76,53.27s20.73,6,20,32.43"/><path class="cls-12" d="M143.69,60.14S155.56,70,149,83"/><path class="cls-12" d="M110.22,71.54s-.89,31-45.79,30.95"/><path class="cls-12" d="M87.43,85.7s-11.84,10.44-33,5.5"/><path class="cls-12" d="M72.29,145.65s-10.7,27.66-1.36,43.49"/><path class="cls-12" d="M61.3,117.61s-19.51,45.32-3.57,65.65"/><path class="cls-12" d="M34.92,99.44s-16.48,47.93,1.92,70.91"/><path class="cls-13" d="M143.69,153.86l21.49,2.93s-1,11.11-10.74,12.7S143.69,153.86,143.69,153.86Z"/></g></svg>
