<svg height="512" viewBox="0 0 512 512" width="512" xmlns="http://www.w3.org/2000/svg" xmlns:xlink="http://www.w3.org/1999/xlink"><clipPath id="clip-path"><path d="m288.21 175.3-113.57-28.24a27.93 27.93 0 0 0 -33.64 19.78l-67.75 248.57a27.93 27.93 0 0 0 9.65 29.27c6.81 6.53 35.85 17.34 71.54 26.21s66.41 12.92 75.48 10.34a28 28 0 0 0 22.23-21.35l56.58-251.34a27.94 27.94 0 0 0 -20.52-33.24z"/></clipPath><clipPath id="clip-path-2"><path d="m296.83 205.87a15.83 15.83 0 0 0 -11.56-18.74l-1.77-.44c-20.54 27.4-81.6 99.75-169 123.5l-29.5 108.42a15.71 15.71 0 0 0 5.44 16.5 6.32 6.32 0 0 1 .87.76c3.18 2.91 24.24 12.8 66.05 23.19s65 11.52 69.2 10.44a7.91 7.91 0 0 1 1.14-.27 15.73 15.73 0 0 0 12.54-12z"/></clipPath><clipPath id="clip-path-3"><path d="m273.8 92a8.31 8.31 0 0 1 -6.06-10l1.16-4.67c14.33-13.88 11.26-40.69-5.35-44.82s-31.89 18-25.71 37.08l-.8 3.23a9.83 9.83 0 0 1 -11.9 7.18 16.49 16.49 0 0 0 -20 12l-3.79 15.27a.59.59 0 0 0 -.2.28c-.6 2.4 17.3 8.92 40 14.55s41.54 8.27 42.14 5.87c.18 0-.33 1.84 3.78-14.69 2.19-8.83-2.63-18.6-13.27-21.28z"/></clipPath><clipPath id="clip-path-4"><path d="m381.73 296.1c5.48-8.12 7.78-19.76 5.42-31.91-4-20.56-19.83-34.79-35.37-31.77s-24.88 22.14-20.89 42.7c2.39 12.29 9 22.31 17.25 27.75a14.56 14.56 0 0 1 6.42 9.33l2.58 13.26c.35 1.84 6.15 2.25 12.95.93s12-3.88 11.66-5.71a1 1 0 0 0 -.15-.36l-2.31-11.85a16.51 16.51 0 0 1 2.44-12.37z"/></clipPath><g id="Baby_Feeder" data-name="Baby Feeder"><ellipse cx="157.01" cy="460.54" fill="#86ebf9" rx="10.67" ry="77.89" transform="matrix(.241 -.97 .97 .241 -327.81 501.81)"/><path d="m218.16 480.86-124.69-31a27.94 27.94 0 0 1 -20.22-34.45l67.75-248.57a27.93 27.93 0 0 1 33.69-19.78l113.52 28.24a27.94 27.94 0 0 1 20.52 33.24l-56.58 251.34a27.93 27.93 0 0 1 -33.99 20.98z" fill="#86ebf9"/><g clip-path="url(#clip-path)"><path d="m252.75 160.63s39 27.88 19.88 96.41-45.5 266.12-180.73 210.52l1.4 22.34 164.7 40.93 88.69-356.78-85.6-21.28z" fill="#40c2d6"/></g><path d="m175.33 117.17h122.98v44.67h-122.98z" fill="#287eef" transform="matrix(.97 .241 -.241 .97 40.65 -53.01)"/><ellipse cx="231.43" cy="161.18" fill="#287eef" rx="8.49" ry="61.49" transform="matrix(.241 -.97 .97 .241 19.18 346.89)"/><ellipse cx="242.2" cy="117.83" fill="#1573d8" rx="8.49" ry="61.49" transform="matrix(.241 -.97 .97 .241 69.42 324.45)"/><ellipse cx="242.23" cy="117.73" fill="#efbd42" rx="4.48" ry="42.31" transform="matrix(.241 -.97 .97 .241 69.54 324.4)"/><path d="m274.4 92.19-.6-.15a8.31 8.31 0 0 1 -6.06-10.04l3.5-14.08-31.06-7.72-3.18 12.59a9.83 9.83 0 0 1 -11.86 7.21 16.49 16.49 0 0 0 -20 12l-3.87 15.58 82.14 20.42 3.66-14.72a17.38 17.38 0 0 0 -12.67-21.09z" fill="#efbd42"/><ellipse cx="257.27" cy="57.74" fill="#efbd42" rx="26.03" ry="20.43" transform="matrix(.241 -.97 .97 .241 139.17 293.48)"/><path d="m296.83 205.87a15.83 15.83 0 0 0 -11.56-18.74l-1.77-.44c-20.54 27.4-81.6 99.75-169 123.5l-29.5 108.42a15.71 15.71 0 0 0 5.44 16.5 6.32 6.32 0 0 1 .87.76c3.18 2.91 24.24 12.8 66.05 23.19s65 11.52 69.2 10.44a7.91 7.91 0 0 1 1.14-.27 15.73 15.73 0 0 0 12.54-12z" fill="#e5e5e5"/><g clip-path="url(#clip-path-2)"><path d="m252.75 160.63s39 27.88 19.88 96.41-45.5 266.12-180.73 210.52l1.4 22.34 164.7 40.93 88.69-356.78-85.6-21.28z" fill="#c6c6c6"/></g><g clip-path="url(#clip-path-3)"><path d="m263.8 28s13.2 23.72-1.06 40.22-4.52 20.34.38 23.39-27.56-4.49-28.12-1.06 33.24 8 37.49 12 .55 30.7-27.83 21.57a38.64 38.64 0 0 0 15.64 6.51c9.58 1.74 27.28 1.06 30-1.93s3.32-35.1 3.32-35.1l-12.76-16.54 3.85-32.6-3.09-19.55z" fill="#d7981a"/></g><rect fill="#1573d8" height="35" rx="2.53" transform="matrix(.976 .217 -.217 .976 33.39 -37.88)" width="5.78" x="186.39" y="115.65"/><rect fill="#1573d8" height="35" rx="2.53" transform="matrix(.976 .217 -.217 .976 35.25 -41.17)" width="5.78" x="202.29" y="122.52"/><rect fill="#1573d8" height="35" rx="2.53" transform="matrix(.976 .217 -.217 .976 36.82 -44.78)" width="5.78" x="219.5" y="127.84"/><rect fill="#1573d8" height="35" rx="2.53" transform="matrix(.976 .217 -.217 .976 38.13 -48.61)" width="5.78" x="237.64" y="131.92"/><rect fill="#1573d8" height="35" rx="2.53" transform="matrix(.976 .217 -.217 .976 39.61 -52.77)" width="5.78" x="257.31" y="136.54"/><rect fill="#1573d8" height="35" rx="2.53" transform="matrix(.976 .217 -.217 .976 40.77 -56.71)" width="5.78" x="275.85" y="139.86"/><g fill="#287eef"><path d="m197.14 188.31c-.28 0 2.29.59-37.29-9a1.5 1.5 0 1 1 .7-2.92l36.94 8.92a1.5 1.5 0 0 1 -.35 3z"/><path d="m191.92 209.94c-.28 0 2.29.6-37.29-8.95a1.5 1.5 0 1 1 .7-2.92l36.94 8.93a1.5 1.5 0 0 1 -.35 3z"/><path d="m186.69 231.58c-.27 0 2.3.59-37.28-9a1.5 1.5 0 1 1 .7-2.91l36.89 8.95a1.5 1.5 0 0 1 -.35 3z"/><path d="m181.47 253.21c-.27 0 2.29.6-37.29-9a1.5 1.5 0 0 1 .71-2.92l36.93 8.92a1.49 1.49 0 0 1 -.35 3z"/><path d="m176.25 274.85c-.27 0 2.29.6-37.29-9a1.5 1.5 0 0 1 .71-2.91l36.93 8.91a1.5 1.5 0 0 1 -.35 3z"/><path d="m171 296.49c-.28 0 2.29.59-37.29-9a1.5 1.5 0 0 1 .7-2.92l36.94 8.92a1.5 1.5 0 0 1 1.11 1.81 1.51 1.51 0 0 1 -1.46 1.19z"/><path d="m165.81 318.12c-.28 0 2.29.6-37.29-8.95a1.5 1.5 0 1 1 .7-2.92l36.94 8.91a1.5 1.5 0 0 1 -.35 3z"/><path d="m160.59 339.76c-.28 0 2.29.59-37.29-9a1.5 1.5 0 1 1 .7-2.92l36.94 8.92a1.5 1.5 0 0 1 -.35 3z"/><path d="m155.36 361.39c-.27 0 2.3.6-37.28-8.95a1.5 1.5 0 1 1 .7-2.92l36.93 8.91a1.5 1.5 0 0 1 -.35 3z"/><path d="m150.14 383c-.27 0 2.29.6-37.29-9a1.5 1.5 0 0 1 .71-2.91l36.93 8.91a1.5 1.5 0 0 1 -.35 3z"/><path d="m144.92 404.67c-.27 0 2.29.59-37.29-9a1.5 1.5 0 0 1 .71-2.92l36.93 8.92a1.5 1.5 0 0 1 1.11 1.81 1.51 1.51 0 0 1 -1.46 1.19z"/><path d="m139.7 426.3c-.28 0 2.29.6-37.29-9a1.5 1.5 0 1 1 .7-2.91l36.94 8.91a1.5 1.5 0 0 1 -.35 3z"/></g><path d="m388.18 419.68a56.14 56.14 0 1 1 44.39-65.82 56.21 56.21 0 0 1 -44.39 65.82zm-17.85-91.81a37.39 37.39 0 1 0 43.84 29.57 37.42 37.42 0 0 0 -43.84-29.57z" fill="#e73f46"/><path d="m374.2 351.6c-26.29 5.07-67.53 4.65-72.56-12.35-1.35-4.57.51-8.66 1.3-10.4 7.08-15.54 28.11-12.52 68.33-20.34 33.13-6.44 51.64-14.52 62.9-3.24a12.5 12.5 0 0 1 4.12 7.27c2.28 16.69-36.34 33.67-63.89 39z" fill="#cc3745"/><path d="m433.53 307c1.7 12.48-31.89 29.35-61.19 35-27.5 5.3-64.51 3.29-68.38-9.82-1-3.27.4-6.28 1.12-7.86 5.74-12.62 24.65-10.88 60-17.22 36.71-6.58 55.22-15.43 65.33-5.3a9.15 9.15 0 0 1 3.12 5.2z" fill="#e73f46"/><path d="m387.15 264.19c-4-20.56-19.83-34.79-35.37-31.77s-24.88 22.14-20.89 42.7c2.39 12.29 9 22.31 17.25 27.75a14.56 14.56 0 0 1 6.42 9.33l2.58 13.26 24.53-4.77-2.38-12.22a16.51 16.51 0 0 1 2.44-12.37c5.48-8.1 7.78-19.76 5.42-31.91z" fill="#efbd42"/><ellipse cx="369.44" cy="323.07" fill="#efbd42" rx="12.54" ry="3.39" transform="matrix(.982 -.191 .191 .982 -54.85 76.42)"/><g clip-path="url(#clip-path-4)"><path d="m354.38 232.08s25.95 21.31 25.64 44.78-13.64 22.64-8.53 29.82 5.12 22.22-3.41 23.39l15.19-1.58 11.79-13.85 3.34-40.1-13-31.61-11.36-23-13.55 2.63z" fill="#d7981a"/></g><path d="m239.56 63.35a25.8 25.8 0 0 1 19.55-28.67c-11.11 5.74-17.88 16.32-19.55 28.67z" fill="#e5e5e5"/><path d="m210.5 92.08a10.66 10.66 0 0 1 4.38-8.47 10.51 10.51 0 0 1 8.85-1.23 20.41 20.41 0 0 0 -13.23 9.7z" fill="#e5e5e5"/><path d="m131.84 225.62c.65-3.19 9.32-45.25 18.55-61.68 4.1-7.3 8.2-9.34 10.56-10.13a17.32 17.32 0 0 1 10.77.24 40.49 40.49 0 0 0 -6.2 3.75 50.33 50.33 0 0 0 -9.71 10c-4.67 6.43-14.38 27.76-23.97 57.82z" fill="#e5e5e5"/><path d="m311 329.77s-4.9-12.41 22.87-15.77c0 0-16.17 3.22-22.87 15.77z" fill="#e5e5e5"/><path d="m346.62 237.32a40.41 40.41 0 0 0 -12.75 21.12c-5.07 22.79 13.7 40.33 14.65 41.19-13.05-18.79-14.13-42.71-1.9-62.31z" fill="#e5e5e5"/><path d="m328.16 368.39a46.64 46.64 0 0 0 8.18 27c13.11 18.69 35.59 19.71 38.33 19.79a55.85 55.85 0 0 1 -46.51-46.79z" fill="#e5e5e5"/></g></svg>