<svg height="512" viewBox="0 0 512 512" width="512" xmlns="http://www.w3.org/2000/svg" xmlns:xlink="http://www.w3.org/1999/xlink"><clipPath id="clip-path"><path d="m168.88 186.54h50.7v87.53h-50.7z"/></clipPath><clipPath id="clip-path-2"><path d="m343.37 265.25h42.02v76.65h-42.02z"/></clipPath><clipPath id="clip-path-3"><path d="m91.72 259.74h36.55v57.59h-36.55z" transform="matrix(.987 -.158 .158 .987 -44.28 21.05)"/></clipPath><g id="Family_Single_Mom_" data-name="Family (Single Mom)"><path d="m186.43 249.67a111.63 111.63 0 0 0 -45.6 14.54c-25.5 15-36.13 35.74-54.32 71.3-30.25 59.09-23.28 84.17-20.37 91.66 1.94 5 4.48 8.36 7.9 10.37 12.63 7.42 32.9-6 41-11.39 32.52-21.57 46.42-60.17 52.33-82.55 33.5-24.83 46.4-57.4 37.2-77.74-2.89-6.34-8.57-11.93-18.14-16.19z" fill="#40c2d6"/><path d="m204.28 245.42a161.6 161.6 0 0 1 30.78.56 150.29 150.29 0 0 1 31.24 6.79c26.84 9.64 41.73 35.51 46.85 43.45 14.74 22.87 47.9 51.17 129 74.35l-15.28 39.72c-60.72 1.42-119.27-22.75-161-69.57.03 0-89.65-46.29-61.59-95.3z" fill="#86ebf9"/><g clip-path="url(#clip-path)"><path d="m168.88 186.54h50.7v87.53h-50.7z" fill="#f5b493"/><path d="m168.88 194.25s12.85 42.53 54.93 49.78v-32.72z" fill="#eba284"/></g><g clip-path="url(#clip-path-2)"><path d="m343.37 265.25h42.02v76.65h-42.02z" fill="#f5b493"/><path d="m337.72 303.58a65.87 65.87 0 0 0 51 0v-24.72h-51z" fill="#eba284"/></g><path d="m265.38 158.2c-1.45-11.55-4.22-18.56-4.92-26.12-1.71-18.66.33-32.92-13-45.63a64.57 64.57 0 0 0 -14.1-12.28c-19.2-14-51-14.42-72.57 1.71-24.78 18.59-24.48 50.57-24.4 58.51.34 37.08 26.11 62 37.35 71.12a94.71 94.71 0 0 0 20.26 14.84c8.26 4.39 30.35 16.12 46.28 5.86 4.17-2.68 9.88-9.41 16.62-25.16 8.74-20.38 9.92-31.3 8.48-42.85z" fill="#f5b493"/><g fill="#2d1929"><path d="m233.52 174.13c3.88-2.17 5.87-4.38 5.91-6.57.06-2.66-2.86-4.39-5.66-7.55a31.7 31.7 0 0 1 -7.17-15.68.5.5 0 1 1 1-.18c3.12 17 13 17.68 12.85 23.43-.05 2.57-2.21 5.07-6.42 7.42a.5.5 0 0 1 -.51-.87z"/><path d="m247.33 152.63c-2.72.23-5.21-3-5.56-7.19s1.57-7.78 4.29-8 5.2 3 5.55 7.19-1.61 7.77-4.28 8z"/><path d="m205 156.17c-2.72.23-5.2-3-5.55-7.19s1.56-7.79 4.28-8 5.2 3 5.55 7.19-1.52 7.77-4.28 8z"/><path d="m230.75 123.46a1 1 0 0 1 -.65-1.76c.11-.09 10.9-9.18 23.14-2.2a1 1 0 0 1 -1 1.74c-11-6.28-20.45 1.64-20.85 2a1 1 0 0 1 -.64.22z"/><path d="m188.83 126.57a1 1 0 0 1 -.69-1.72c10.17-9.76 22.85-3.57 23-3.51a1 1 0 0 1 .45 1.35 1 1 0 0 1 -1.35.44c-.46-.23-11.56-5.6-20.69 3.16a1 1 0 0 1 -.72.28z"/></g><path d="m188 245.05c-3.77.67-59.28 11.41-72.22 52.7-4.44 14.15-2.31 26.35-1.16 32.75 6.07 33.76 12.27 80.77 18.42 151.5l165.67-.13c1.07-50.94.57-93.56-.22-125.23-1.24-50-3-63.3-12.05-77.09-21.94-33.33-67.44-40.06-98.44-34.5z" fill="#86ebf9"/><g clip-path="url(#clip-path-3)"><path d="m91.72 259.74h36.55v57.59h-36.55z" fill="#e39c76" transform="matrix(.987 -.158 .158 .987 -44.28 21.05)"/><path d="m90.72 270a33 33 0 0 0 9.28 10.61c13.85 10.23 31.06 5.35 33.61 4.58q-2.09-6.93-4.16-13.86z" fill="#d48f6e"/></g><path d="m288.17 292.39 5.31 27.47c13.94 20.84 14.64 45.95 4.36 68.61l.85 93.4h-15.91c-4.61-6.94-12.12-15.65-23.13-18-13.82-3-20.19 6.78-33.36 4.07-17.42-3.58-19.52-23.38-31.86-25-7.94-1-19.92 5.57-37.58 39h-23.85l-16.42-94.85h82.33l43.45 6.94 6.45 37.85 25.64 1.87c.38-15 1.5-27.62 2.59-37.11 2.58-22.47 5.37-30.5 9.12-37.41a68.65 68.65 0 0 1 10.18-14.09 61.75 61.75 0 0 0 -8.14-23.42z" fill="#40c2d6"/><path d="m106.77 287.4s-27 6.83-23.3 49.88c3.34 38.45 7.69 95.29 48.42 105.37 27 6.69 58.79-9.07 79.66-37.85q7.74 20.35 15.46 40.7l26.42-13.5a360 360 0 0 0 -8.56-58.63c-1.45-6.18-3.07-11.46-7.74-15.17-13.91-11.08-40.88 3.72-44.84 5.95a236.64 236.64 0 0 0 -21.15-39.57c-13.7-20.58-23.23-34.58-39.93-38.58-9.82-2.33-18.7-.45-24.44 1.4z" fill="#917eec"/><path d="m385.65 158.51c-.31-.06-.6-.09-.9-.14-22.4-8.62-38.71-.15-40.19.14a42.8 42.8 0 0 0 -14.85 9.1c-19.47 18.23-20.17 51-20.17 51a38.74 38.74 0 0 0 -.26 5.57c.3 9.16 5.82 30.44 7 37.72 8.29 25.07 29.73 41.18 50.57 40 23.71-1.36 39.08-24.68 43.81-36.47 3.3-8.24 7.2-24 8.16-39.88.6-2.43 1.2-4.79 1.78-6.93.04.02-.95-47.96-34.95-60.11z" fill="#f5b493"/><path d="m363 263.41c-4.32-1.1-6.85-2.82-7.52-5.11-1.48-5.08 7.13-8.08 5.86-23.94a.5.5 0 0 1 .46-.54.51.51 0 0 1 .54.46c1.29 16.14-7.19 19.3-5.9 23.74.56 1.93 2.85 3.41 6.81 4.42a.5.5 0 0 1 -.25.97z" fill="#2d1929"/><path d="m345.51 237.71c0 3.88-2 7-4.54 7s-4.55-3.14-4.56-7 2-7 4.54-7 4.56 3.11 4.56 7z" fill="#2d1929"/><path d="m329.44 220a1 1 0 0 1 -.66-1.76c.1-.08 10.1-8.49 21.43-2a1 1 0 0 1 -1 1.74c-10.09-5.76-18.77 1.5-19.13 1.81a1 1 0 0 1 -.64.21z" fill="#2d1929"/><path d="m389.94 237.72c0 3.88-2.05 7-4.56 7s-4.55-3.15-4.54-7 2-7 4.56-7 4.54 3.11 4.54 7z" fill="#2d1929"/><path d="m396.91 220a1 1 0 0 1 -.65-.24c-.36-.31-9-7.57-19.13-1.81a1 1 0 0 1 -1-1.74c11.33-6.46 21.33 1.95 21.43 2a1 1 0 0 1 -.65 1.79z" fill="#2d1929"/><path d="m169 250.21c2.31 16.52 18.23 26.71 32 23.17 11.84-3 20.49-15.78 18.56-29.75-11.72 0-17.76-5.77-19.9-6.91-4.23-2.28-12.58-1.38-30.66 13.49z" fill="#f5b493"/><path d="m343.77 319s-47 16.82-49.77 42.92c-2.66 25.24 5.83 120 5.83 120h124s16.6-93.21 4.84-123.77c-12.26-31.88-41.74-49.38-84.9-39.15z" fill="#287eef"/><path d="m348 321.2s-45.93 6.8-58.8 47.17c-12.22 38.38-6.42 113.5-6.42 113.5h46.39c9.58-95.69 5.36-59.08 18.83-160.67z" fill="#287eef"/><path d="m389 321.2s45.93 6.76 58.79 47.17c12.23 38.38 6.42 113.5 6.42 113.5h-46.42c-9.58-95.69-5.37-59.08-18.79-160.67z" fill="#287eef"/><rect fill="#287eef" height="28.52" rx="4.25" width="55.25" x="337.34" y="307.5"/><path d="m306.24 366.74 3.06 39.38v75.75h9.21l-3.95-74.05z" fill="#1573d8"/><path d="m428.39 366.74-3.06 39.38v75.75h-9.21l3.95-74.05z" fill="#1573d8"/><path d="m353.86 272.62 23.71-2.62a12.73 12.73 0 0 1 -8.65 10c-5.66 1.64-12.2-1.35-15.06-7.38z" fill="#e5e5e5"/><path d="m93.53 301.33a53 53 0 0 1 17.76-11.33c23.06-8.69 40.08 4.82 65.52 3.73 11.44-.49 27.35-4.05 46.17-18l16.64 12.27c-18 45.53-72.73 63.65-120.18 38.7-3.44-13.01-13.44-21.79-25.91-25.37z" fill="#917eec"/><path d="m135.38 424.31s55.35-13.16 68.93-25.35 19.61-25.09 21-24.41-5.07 52.54 9.21 70.95l-9-5.34-13.74-32.16s-27.78 35-59.07 37.92-33.87-15.44-33.87-15.44z" fill="#6d5fde"/><path d="m225.53 440.16c-.08.59-1.79 14.38 6.11 19.48 6.06 3.9 13.83.16 22.92-4.21 2.9-1.39 24.57-12.07 22.53-22-.58-2.85-2.91-4.63-4.84-6.11-7.9-6.05-17.84-3.44-19.43-3a51.8 51.8 0 0 1 -27.29 15.84z" fill="#2d1929"/><path d="m188.83 81.4a54.9 54.9 0 0 1 -1.24 31.6c-9.46 26.66-37.15 34.77-40.16 35.6 0 0 1.71 32.85 21.57 52.86-18.2 1.21-28.7-4.13-34.29-8.17-33-23.87-29.71-99.76 8.53-125.52 12.19-8.24 25.86-9.97 36.46-9.77 0 0 47.65-18.33 73.73 9.17s8.33 72.66 8.33 72.66c-15.08-49.11-15.66-52.28-18.92-55.86-3-3.32-14.84-13.97-54.01-2.57z" fill="#2d1929"/><path d="m163 146.54c-4.1-10.14-14.18-15.63-22.53-12.26s-11.79 14.33-7.69 24.47 14.22 15.62 22.53 12.25 11.8-14.33 7.69-24.46z" fill="#f5b493"/><path d="m156.1 161.33c-.06 0-5.51-.81-6-6.1-.32-3.31 3.9-4.59 5.56-5-2.15-4.51-6.27-10.21-11.26-10-5.6.27-5.41 6.58-5.4 6.85a.5.5 0 0 1 -1 0c0-.08-.22-7.57 6.35-7.89h.38c7.34 0 11.91 10.68 12.11 11.14a.51.51 0 0 1 -.39.69c-.06 0-5.65.92-5.36 4 .43 4.49 5 5.18 5.15 5.2a.5.5 0 0 1 -.14 1.11z" fill="#2d1929"/><circle cx="115.68" cy="69.49" fill="#2d1929" r="37.49"/><path d="m118.12 174a47.4 47.4 0 0 1 11.59 7.22c11.09 7.63 11.26 18.13 14.66 31.42 1.63 6.37 6.79 15.24 8 25.24.64 5.09 2.2 15.06-2.62 24.92a34.32 34.32 0 0 1 -10.36 12.29c-13.75 10.1-33.61 8.07-48.36-.26-5.44-3.07-30.93-17.47-35.95-46.18-9.08-52.1 38.52-67.21 63.04-54.65z" fill="#e39c76"/><path d="m130 246.85a.5.5 0 0 1 -.31-.89c2.51-2 3.67-3.77 3.46-5.3-.5-3.56-7.64-3.12-11.94-15.25a.5.5 0 1 1 .94-.33c4.22 11.9 11.4 11.17 12 15.44.26 1.91-1 4-3.83 6.22a.45.45 0 0 1 -.32.11z" fill="#2d1929"/><path d="m137.27 229c-1.93.48-4.1-1.56-4.84-4.55s.23-5.79 2.17-6.27 4.09 1.56 4.83 4.54-.23 5.76-2.16 6.28z" fill="#2d1929"/><path d="m107.17 236.4c-1.93.48-4.09-1.56-4.83-4.54s.23-5.8 2.16-6.28 4.1 1.56 4.84 4.55-.23 5.79-2.17 6.27z" fill="#2d1929"/><path d="m123.77 260.72a15.87 15.87 0 0 1 -11.92-4.72.51.51 0 0 1 0-.71.49.49 0 0 1 .7 0c6.69 7.14 17.54 3.52 17.65 3.48a.5.5 0 0 1 .33 1 23.62 23.62 0 0 1 -6.76.95z" fill="#2d1929"/><path d="m115.87 172.89a32.58 32.58 0 0 1 11.7 5.86 26.75 26.75 0 0 1 3.14 3.16 40.25 40.25 0 0 0 -15.18-2.06 55.7 55.7 0 0 0 -15.07 7.21c-30.57 20.87-29.19 66.12-28.89 72.74-12.48-10.51-19.57-25.25-17.57-41.48a78.71 78.71 0 0 1 16.08-24.89c18.06-18.76 39.92-22.15 45.79-20.54z" fill="#917eec"/><path d="m58.07 228.08c5.63-3.4 13.54-.6 17.67 6.23s2.91 15.14-2.72 18.54-13.54.61-17.67-6.23-2.91-15.14 2.72-18.54z" fill="#e39c76"/><path d="m72.45 245.92c-.29 0-4.19-.07-5.16-3.8-.61-2.36 2.1-3.79 3.36-4.33-1.14-1.62-5-6.54-9-5.69-3.87.82-3 5.22-3 5.41a.5.5 0 0 1 -1 .2c-.39-1.92-.1-5.77 3.77-6.58 5.51-1.17 10.24 6.32 10.44 6.64a.51.51 0 0 1 -.27.74s-3.85 1.28-3.32 3.35c.8 3.09 4 3.06 4.19 3.06a.5.5 0 1 1 -.01 1z" fill="#2d1929"/><path d="m119.44 175.27s-9.89-13.41-25.93-11.89-18.25 2-15.66 5.88 21.15 19.29 41.59 6.01z" fill="#917eec"/><path d="m108.74 178.27s5.19-15.83 20.9-19.4 18-3.81 16.72.67-14.07 24.95-37.62 18.73z" fill="#917eec"/><path d="m90.89 178.29s14.91 3.05 24.64 1.56l-6.15 2.31c-6.54 3.03-13.55 1.13-18.49-3.87z" fill="#6d5fde"/><path d="m113.57 169.55a9.83 9.83 0 0 1 4.32 8.74 15.54 15.54 0 0 0 -.5-12.94z" fill="#6d5fde"/><path d="m126.56 178a65 65 0 0 1 -8.93 1.82 58 58 0 0 1 13.08 2.12s-2.04-3.48-4.15-3.94z" fill="#6d5fde"/><path d="m233.45 300.31 7.1-11.78s11.33-5.22 15.66-7.77 11.46-8.78 12-11.45-9.55 2.16-10.57 2.16 9.23-11 8.47-13.49-11.08 5.85-12.29 5.73c-1.49-.16 8.46-12.59 4.14-12.16-4.89.48-11.58 9.76-12.37 9.27s6.5-12.72 2.57-12.14c-5 .74-10.59 13-15.6 12.48-2.7-.27-3.39-4.08-7.76-4.46-.68-.06-2.27-.19-2.81.64-.89 1.4 2.27 3.87 3.31 7.26.77 2.47.64 6.17-3 11.7l-5.06 3.49s2.61 15.87 16.21 20.52z" fill="#e39c76"/><path d="m204.73 286.72 17.52-10.42a24.68 24.68 0 0 0 17.37 13.78c-2.5 5.21-8.48 15.63-13.17 19.88l-16.45-11.88z" fill="#917eec"/><path d="m178.7 336.75a80 80 0 0 1 -52.22-7.35 33.57 33.57 0 0 0 7.13 8.15c8.24 6.74 16 6.22 20.94 8.65 6.5 3.21 12.44 13.75 10.38 45.58l5.6 6.11s10.66-25.23 21.76-33.75a85.05 85.05 0 0 0 -13.59-27.39z" fill="#6d5fde"/><path d="m189.37 374.55c-86.39 12.64-111.54 4.62-122.47 20-8.21 11.58-5.88 32.56 4.33 42.78 18.89 18.89 69.58 5.73 127.65-31.58z" fill="#86ebf9"/><path d="m213.82 183.65a33.57 33.57 0 0 0 24.78 6.48 13.36 13.36 0 0 1 -13.6 7.44c-6.36-.9-11.39-6.86-11.18-13.92z" fill="#e5e5e5"/><path d="m383.9 169.5s-12.84 15.75-24.41 17-3.66-8.52-3.66-8.52-17.08 15.92-23.19 16.6-3.2-4-3.2-4-16.72 14.25-14.61 43.65l-8.92 1.55s-12.51-49.4 3.38-74.18 77.48-9.05 77.48-9.05 35.06-3.22 39.86 21.93-6 61.3-6 61.3l-9-1.55-.11-38.23s-9.96 10.84-27.62-26.5z" fill="#2d1929"/><path d="m328.39 234.61c-3.68-9.09-12.73-14-20.22-11s-10.58 12.85-6.9 21.95 12.73 14 20.21 11 10.58-12.85 6.91-21.95z" fill="#f5b493"/><path d="m314.4 250.17a.47.47 0 0 1 -.32-.12c-.13-.11-3.18-2.7-3.05-5 .11-2 2.24-2.91 3.16-3.2-.31-5.19-3.07-13-8.18-11.94a.5.5 0 0 1 -.59-.39.51.51 0 0 1 .4-.59c5.95-1.18 9.16 7.24 9.39 13.28a.5.5 0 0 1 -.39.5s-2.69.63-2.79 2.39c-.09 1.51 1.91 3.54 2.69 4.2a.5.5 0 0 1 -.32.87z" fill="#2d1929"/><path d="m418.18 223.62c-7.49-3-16.54 1.9-20.22 11s-.58 18.93 6.91 21.95 16.54-1.89 20.21-11 .59-18.92-6.9-21.95z" fill="#f5b493"/><path d="m412 250.17a.5.5 0 0 1 -.32-.88c.78-.66 2.78-2.69 2.69-4.19-.1-1.77-2.76-2.39-2.78-2.4a.49.49 0 0 1 -.4-.5c.23-6 3.44-14.46 9.39-13.28a.51.51 0 0 1 .4.59.5.5 0 0 1 -.59.39c-5.11-1-7.87 6.75-8.18 11.94.92.29 3 1.18 3.16 3.2.13 2.31-2.92 4.9-3.05 5a.47.47 0 0 1 -.32.13z" fill="#2d1929"/><path d="m445.12 357.45s-22.4 5.56-21.06 12.94 20.24.18 20.24.18-19.57 8.22-19.24 14.21 20.69-.77 20.69-.77-17.5 6.85-15.48 12.21 17.26 0 17.26 0-12.79 8.42-9.34 11.09 17.12-.22 20-5.77-2.21-7.09-2.21-7.09 5.66-10.53-2.24-11.56c0 0 5.45-13.9-2.56-13.39.02 0 4.54-15.57-6.06-12.05z" fill="#f5b493"/><path d="m443.34 371.42a.5.5 0 0 1 -.12-1c.64-.16 6.35-1.58 8-1.43a.5.5 0 0 1 -.08 1c-1.5-.12-7.7 1.43-7.8 1.43z" fill="#2d1929"/><path d="m444.12 384c.29-.11 7.12-2.57 9.81-1.58a.5.5 0 0 1 .3.64.5.5 0 0 1 -.64.29c-2-.71-7.25.91-9.12 1.59a.5.5 0 0 1 -.35-.94z" fill="#2d1929"/><path d="m446.57 397.38a.5.5 0 0 1 -.12-1l9.42-2.42a.5.5 0 0 1 .25 1c-10.12 2.57-9.45 2.42-9.55 2.42z" fill="#2d1929"/><path d="m184.35 414.71 16.43-9.61s13.75-3.22 22.07-7.21 21.33-13.67 22.07-17.4-10.39.85-10.39.85 13.61-10.35 12.6-14.6-14.6 4.58-14.6 4.58 12.56-10.52 11.2-14.08-18.41 6.4-18.41 6.4 10.26-9.29 7.72-12.18-25.13 13.92-31.58 15.28-.82-10.52-2.62-14.6-5.69-6.6-7.56-1-6.2 21-12.78 24.94l-10.23 1.31s.15 29.78 16.08 37.32z" fill="#f5b493"/><path d="m216.74 370.64a.5.5 0 0 1 -.3-.9l8.58-6.5a.5.5 0 1 1 .6.8c-9.31 7.05-8.62 6.6-8.88 6.6z" fill="#2d1929"/><path d="m224.38 378.44a.5.5 0 0 1 -.32-.88l8.15-6.62a.5.5 0 1 1 .63.77c-8.84 7.19-8.2 6.73-8.46 6.73z" fill="#2d1929"/><path d="m228.45 386.42a.5.5 0 0 1 -.3-.9l6.08-4.58a.5.5 0 0 1 .7.1.51.51 0 0 1 -.1.7c-6.56 4.95-6.14 4.68-6.38 4.68z" fill="#2d1929"/></g></svg>