<svg id="Happy_Mother_s_Day" height="512" viewBox="0 0 512 512" width="512" xmlns="http://www.w3.org/2000/svg" data-name="Happy Mother's Day"><path d="m451.07 82.61c5.34-10.82 6.28-21.92 2-25.26-2.8-2.18-6.91-.09-7.33.13-4.55 2.4-8.38 8.14-10.14 12.18-6.5 15 3.45 35.35 3.45 35.35 1.48-.6 30.92-12.83 36.1-28.33 1.27-3.8 1-8.41-2-9.48-4.73-1.61-14.25 5.14-22.08 15.41z" fill="#efbd42"/><path d="m455.76 110.73s10.36-3.84 10.52 1.38c.14 4.84-9.56 8.44-19.89 6.15 0 0 1.73-13 5.91-13.86 4.49-.97 4.15 5.48 3.46 6.33z" fill="#efbd42"/><path d="m80 91.94c-5.81-10.57-7.25-21.62-3.12-25.14 2.71-2.31 6.91-.4 7.33-.2 4.69 2.2 8.79 7.76 10.69 11.72 7.16 14.68-1.9 35.47-1.9 35.47-1.51-.53-31.47-11.45-37.32-26.71-1.44-3.74-1.4-8.36 1.62-9.56 4.64-1.82 14.45 4.48 22.7 14.42z" fill="#efbd42"/><path d="m76.58 120.24s-10.52-3.38-10.44 1.85c.07 4.84 9.92 8 20.13 5.26 0 0-2.3-12.86-6.51-13.58-4.53-.77-3.91 5.65-3.18 6.47z" fill="#efbd42"/><circle cx="184.3" cy="210.31" fill="#e73f46" r="7.36"/><circle cx="167.44" cy="93.67" fill="#e73f46" r="12.98"/><circle cx="342.58" cy="210.61" fill="#e73f46" r="7.66"/><circle cx="388.84" cy="83.2" fill="#e73f46" r="6.53"/><circle cx="412.45" cy="287.51" fill="#e73f46" r="12.15"/><circle cx="137.79" cy="334.09" fill="#e73f46" r="7.65"/><circle cx="287.3" cy="360.8" fill="#e73f46" r="11.08"/><circle cx="212.74" cy="450.02" fill="#e73f46" r="6.46"/><circle cx="54.17" cy="299.65" fill="#e73f46" r="12.15"/><path d="m212.43 140.2q4.56 13 8.73 26.12a10.43 10.43 0 0 0 3.78 5.46c2 1.43 4.55 1.9 7.76 1.5.92-.11 1.35-.8 1.31-2.08a2.75 2.75 0 0 0 -1.06-1.86 16.79 16.79 0 0 1 -1.95-4.63c-8-29-13.67-45.21-14.76-49a81.55 81.55 0 0 0 -5.16-13.86c-2.29-4.72-5.25-7.71-8.9-8.86a13.86 13.86 0 0 0 -6.42 0c-2.6.52-4.33 2.2-3.92 4.06.06.16.11.33.17.49 3.71 26.45-6.61 54.27-1.14 76.17 1.22 4.28 3 6.48 5.33 6.71a5.81 5.81 0 0 0 1-.15 4.25 4.25 0 0 0 2.14-1.41c3.22-3.3-4.94-5-3.87-35.12q8.46-2.03 16.96-3.54zm-14.65-36.88a77.18 77.18 0 0 1 6.51 14.46q3.42 9 6.64 18-7.63 1.38-15.21 3.14c.75-12.73 2.36-25.87 2.06-35.6z" fill="#e73f46"/><path d="m148 197.08a2.61 2.61 0 0 0 -1.76-3.6c-2.63-.51-8.72-12.34-9.92-14.74-2.16-4.47-4-8.31-5.62-11.55q9.81-4.89 19.86-9c5.22 13.14 3.76 10.09 5.53 14.36q3.78 9.18 7.19 13.14a8.9 8.9 0 0 0 4.49 3.14c2.76.67 5.52-.89 7.2-3.11a2.62 2.62 0 0 0 -1.35-3.77c-2.54-.82-7.31-13.28-8.22-15.75q-3-8.44-18.13-50.44c-1.93-5.31-6.67-6.69-14.15-3.67a2.26 2.26 0 0 0 -.09 4.3c1.7 1 3.54 6.61 15.85 37.55q-10.2 4.19-20.16 9.13-8-16.23-15.93-32.48c-2.49-5.07-7.39-5.9-14.59-2a2.31 2.31 0 0 0 .3 4.32c2 .74 5.22 8 20.42 36.44 8.26 15.44 6 11.77 8.82 17q4.62 8.46 8.52 12.09a9.1 9.1 0 0 0 4.74 2.56c2.82.38 5.48-1.47 7-3.92z" fill="#e73f46"/><path d="m270.06 88.73a30.55 30.55 0 0 0 -12.83 13.67l-.12-7.5a7.61 7.61 0 0 0 -2.69-5.9c-2.06-1.65-5.21-2.37-9.4-2.13a2.28 2.28 0 0 0 -1.44 4c1.43 1.64 1.27 10.06 3 41.66 1 18.37.42 13.37.77 18.94q.63 9.9 2.56 14.75a8.78 8.78 0 0 0 3.18 4.42c2.35 1.52 5.5 1 7.71-.62a2.6 2.6 0 0 0 0-3.94c-.58-.44-1.08-1.89-1.56-4.43-1.4-6.52-1.16-17-1.25-20.63a37.57 37.57 0 0 0 32.64-21.66c3.6-7.51 4.9-17.32 1.45-24.83-4.15-8.23-13.91-10.26-22.02-5.8zm-12.21 46.85c-.06-4.77-.19-10.11-.33-15.89.51-8.72 3.18-16 8.36-21.78a22.29 22.29 0 0 1 9.8-6.39 9.13 9.13 0 0 1 4.68 4.31c6.52 11.87-2.07 35.03-22.51 39.75z" fill="#e73f46"/><path d="m336.75 96.09a30.58 30.58 0 0 0 -15.25 11l1.32-7.38a7.6 7.6 0 0 0 -1.52-6.31c-1.72-2-4.68-3.33-8.84-3.89a2.31 2.31 0 0 0 -2.4 1.09 2.19 2.19 0 0 0 .21 2.59c1.09 1.89-.67 10-5.06 41.47-2.56 18.19-2.11 13-2.86 18.73-.85 6.56-1 11.54-.31 15a8.86 8.86 0 0 0 2.29 4.95c2 1.94 5.22 2 7.7.86a2.59 2.59 0 0 0 .74-3.87c-.49-.54-.7-2.06-.69-4.64-.13-6.63 2.06-16.65 2.71-20.5a37.84 37.84 0 0 0 36.36-15c5-6.67 8.15-16.06 6.18-24.08-2.48-9.02-11.79-12.82-20.58-10.02zm-21 43.64c.86-4.69 1.75-10 2.72-15.66 2.17-8.46 6.18-15.09 12.4-19.77a22.33 22.33 0 0 1 10.89-4.39 9.21 9.21 0 0 1 3.8 5.13c4.17 12.9-8.72 33.96-29.8 34.69z" fill="#e73f46"/><path d="m430.07 124.43a16.26 16.26 0 0 0 -2.85-1.2c-1.67-.43-2.68-.29-3 .39.06 0 .06 0 0 .09a12.59 12.59 0 0 1 -1.3 4.4c-1.93 3.8-7.08 7.78-15 12.37a121 121 0 0 0 -13.68 9.28c0-6.44.67-9.07.8-32.48a12.53 12.53 0 0 0 -2.23-7.32c-1.58-2.18-4.67-4.19-9.3-5.83-2.08-.74-3.64 0-4.06 1.21a1.22 1.22 0 0 0 .42 1.29c3 3.86 2.46 27.56 1.92 32.68a25.47 25.47 0 0 0 2.21 13.27c-2.91 6.85-4.83 11.15-5.68 13.06-2.5 5.07-5.95 13.58-6.34 19.2-.35 3.14.63 6.33 3.53 7.64a8.66 8.66 0 0 0 4.87.7 2.56 2.56 0 0 0 1.71-3.62c-.35-.66-.17-2.19.5-4.54 1.58-6.56 6.67-16.41 12.26-28.3 7.08-9.63 21.22-14.11 30.32-18.57a20.52 20.52 0 0 0 8.54-6.73c1.29-2.42.12-4.79-3.64-6.99z" fill="#e73f46"/><g fill="#287eef"><path d="m262.56 325.39a5 5 0 0 0 .5-5.49q.07-43.22 6.72-57c1.52-2.84 3-4.22 4.5-4.23 2.25 0 3.41 2.52 3.54 7.53-.39 21-1.88 40.67 1.21 52.69.91 4 3.22 8.55 7.32 8.39a8.38 8.38 0 0 0 5.48-2.4c1.4-1.5 1.46-4.69 0-6.05-.68-.66-1.25-2.87-1.76-6.76-1.61-10.76-1-28.45-.84-46q-.13-8.94-3-13.13c-2-2.8-3.66-4.15-5.11-4.23h-2.31a12.24 12.24 0 0 0 -8.06 3.57c-4.73 4.52-7.91 12.73-9.58 24.76-.43 2.94-.87 6-1.18 9 .09-5.75.46-70.72.47-76.62 0-8.72-3.44-13.13-10.44-13.13-.9 0-1.56.69-2 2.15a5.16 5.16 0 0 0 .46 3.91c1 2.26.63 13.65.44 31.45 0 .83-.49 43.09-.75 53.61-.43 8.48-.47 22.87 1.56 31.13.87 4 3.15 8.75 7.25 8.87a8.08 8.08 0 0 0 5.58-2.02z"/><path d="m125.62 290.13c-1.21-11.07 0-26 .3-37.87.21-9.6-3.63-14.27-8.08-14.92-11-1.67-14.67 19.26-15.74 30.39.08-4.76.32-11.36.65-19.85.17-9.29-3.72-13.63-8.14-14.38-10-1.77-13.66 13.56-15 23.59 0-4 .38-9.39.44-17.19.06-5.78-3.32-9.33-10.15-10.71a1.59 1.59 0 0 0 -1.93.91 2.48 2.48 0 0 0 .47 2.51c.46.77.69 3 .69 6.75-.07 1.85-.24 6.28-.59 13.07-.41 5.72-.22 14.21 1.56 19.92 2 7 7.74 10.52 11.69 9.93 1-.24 1.54-1.76.44-3.54.26-14.52 1.46-24.84 3.7-31.2 1.87-5.44 3.68-8.07 5.37-7.7.88.19 1.33 1.94 1.28 5.19-.2 14.81-3.58 35.22 3.42 44.24 2.36 2.94 5.66 3.73 7.93 3 .64-.24 1-.93 1-1.86a3.8 3.8 0 0 0 -.11-.85c.25-1.49 0-23.38 4.17-36.18 2-6.17 3.8-9.18 5.51-8.86 4.44.81-5 41.76 4.26 54.12 2.49 3 5.78 3.53 8.13 2.48a2.24 2.24 0 0 0 1-2.14 4.21 4.21 0 0 0 -.82-2.77c-.61-.78-1.07-2.78-1.45-6.08z"/><path d="m174.21 250.14c-3.36-3.86-6.92-6-10.71-6.38-4.38-.47-8.56 1.08-12.47 4.56-6.7 6-9 17.16-9.23 26.16-.22 10.06 2 21.6 8 29.69 6.26 8.5 14.84 13.37 23.21 6.9 12.75-10.07 12.99-47.21 1.2-60.93zm-2.88 32.37c-.15 7.46-2.17 25.17-9.39 23.38-3.85-1-7.5-7.77-8.63-19.48-.51-5-.15-7.56-.16-11.92a54.05 54.05 0 0 1 .58-7c1.63-11.15 5.53-16.46 9.37-16 7.19.87 8.47 19.23 8.32 26.51-.13 2.64-.11 1.81-.09 4.51z"/><path d="m392.26 238.31c-3.05.35-5.53 2.07-7.44 5.13-8.75 14.38-5.76 48.41-6.6 8.8-.15-7.12-3.53-11.33-10.76-10.66-1.74.16-3 3.25-1.45 5.69.44.76.75 3.95 1 9.66.08 12.25-1.46 36.45 2 47.83a9.4 9.4 0 0 0 3.57 5.6c2.93 1.74 6.72-.32 9-2.81a4.32 4.32 0 0 0 .69-4.45c.07-6.89-1.91-54.59 6.9-55.76 1.91-.26 3.22 1.93 3.31 6-.12 2.71-.68 4.5-.64 6.1.05 2.28 1 3.21 2.82 2.87a7.79 7.79 0 0 0 5.12-4.19 17.93 17.93 0 0 0 1.36-11.37c-1.39-5.9-4.81-8.89-8.88-8.44z"/><path d="m456.12 236.41a6.2 6.2 0 0 1 5.57 1.74 7.67 7.67 0 0 1 2.53 5.94 1.59 1.59 0 0 0 2.09 1.68 6.18 6.18 0 0 0 4.67-6 8.94 8.94 0 0 0 -6.18-8.54c-5.6-1.93-12-.45-16.88 2.58a17.34 17.34 0 0 0 -8.71 15.59c.1 6.06 2.71 10.27 7.69 12.17a32 32 0 0 0 6.42 1.74c5.35 1 8.09 2.11 8.33 3.8a15.92 15.92 0 0 1 .25 2.25c0 6.45-8.38 14.15-12.88 10.2-1.7-1.4-2.54-3.57-2.58-6.33 0-1.38-1-2.14-2.12-1.72-4.43 1.6-5.45 6.29-4 10.67 1.15 3 3.1 4.85 5.77 5.31 5.71 1.07 12.09-3.18 16.36-7.07 5-4.57 8.54-10.28 8.55-16.23 0-2.92-.62-5.1-1.94-6.46-6-6.34-20.36-2.51-20.48-11.62a9.84 9.84 0 0 1 7.54-9.7z"/><path d="m428.2 209.63c-2.26.12-3.65.73-4.22 1.79-1.6 3-.74 6.18 1.15 8.93a5.51 5.51 0 0 0 2.79 2.44 27.42 27.42 0 0 1 -5.26 10.68c-1.24 1.39-.45 3.67 1 3.44.81-.12 2.11-1.85 3.82-5 4.28-8.04 9.78-22.76.72-22.28z"/><path d="m32.54 166.39c-.55 2.05-5.35 20.93 5.41 31.14 13.59 12.89 31-1.94 29.88-10.67-1.25-9.42-20.53-4.15-27 7.6a20.43 20.43 0 0 0 -2 13.89c1.49 6.46 6.15 10.28 8.77 12.43 6.28 5.15 10.28 4.3 16.23 9.94a31.33 31.33 0 0 1 5.36 6.74 13.91 13.91 0 0 0 6.78.79c3.5-.55 2.52-3.95 2.52-3.95s-.6-6.71-17.44-14.69c-17.09-8.1-14.91-16.77-14.37-19.67.71-3.85 4.28-6.5 6.7-8.3 4-3 9.85-5.15 10.92-3.73.79 1-.95 4-3 5.82-4.36 3.87-12.43 4.46-17.07.87-7-5.43-3.71-18.51-1.2-24.41a32.42 32.42 0 0 1 12.86-14.62q-.39-7.9-.8-15.79c-3.17 1.64-17.99 9.66-22.55 26.61z"/><path d="m115.3 283.06c-.13 2.51-.74 20 10.82 27.93 1.61 1.11 5.27 3.63 9.79 3.07 6.31-.79 11.81-7.25 13.75-16.38l-3.51-7.75c.12.54 1.36 6.22-2.49 10.39-.27.29-3.87 4.07-8.48 3.36-11.53-1.78-8.37-24.39-10.53-24.57-1-.08-1.27 5.25-4.21 5.86a5.44 5.44 0 0 1 -5.14-1.91z"/><path d="m157.55 248.12c-.34 10.45 6.27 19.28 18.2 21.93 12.49 2.77 25.81-5.06 32-16l2.64 4.17c-13.53 19-34.94 24.53-47.6 16.88-9.3-5.61-11.76-17.06-12.39-20.72a14.49 14.49 0 0 1 7.15-6.26z"/><path d="m218 315.2c-1.94-1-3.12-5.12-3.63-12.4-.68-10 .14-38 .73-48q4.4.27 8.79.5c1.21.06 2.2-1.44 2.22-3.36s-.93-3.51-2.15-3.57c-2.86-.13-5.73-.27-8.59-.42.48-8.73.44-15.89.4-21.75 0-7.34-3.24-12.93-10.71-13.09-.9 0-1.51.72-1.95 2.12a4.35 4.35 0 0 0 .48 3.68c.92 2.37.26 24.28.18 28.35l-4-.27c-1.74-.12-3.07 3.14-1.6 5.59a2.08 2.08 0 0 0 1.49 1.14l3.88.3c-.92 25.06-4.21 68 13.62 70.3a9.29 9.29 0 0 0 6.54-1.41c-2.7-1.31-4.62-3.09-5.7-7.71z"/><path d="m203.31 298.27c-.52 16.37 5 30.09 15.06 34.65 17.36 7.82 34.25-14.71 37.73-33l-6.14-7a49.92 49.92 0 0 1 -1.76 7.31c-1.5 4.65-6.12 19-16.37 21.2-11.77 2.48-17.36-11.47-18.13-23.69 0-.06-5.85-8.39-10.39.53z"/><path d="m267.65 177.79c-17.84-4.09-20.9 13.76-19.73 31.29s-5.07 63.4 9.52 67.38a46.1 46.1 0 0 1 14.89-34.72c16.37-15.12 13.16-59.86-4.68-63.95zm-6.2 66.71c.1-2.62-.73-54.54 3.83-57.76s10.48 4.84 10.92 22.79-5.59 29.2-14.75 34.97z"/><path d="m289 299.73s.3 27.78 11.7 28.66 14.91-28.66 14.91-28.66l3 6.43s-5.08 32.75-23.8 31.29-16.67-31.58-16.67-31.58 2.96-7.02 10.86-6.14z"/><path d="m330.35 311.89c-6.77-2.23-9.63-16.51-10.33-23.6 8.6 1.55 15.44-3.06 19.72-10.52a28.84 28.84 0 0 0 3.85-9.85 41.56 41.56 0 0 0 .67-7.15c-.11-6.51-2-11.45-5.69-14.86-2.51-2.27-5.84-3.3-10.07-3.08a14.31 14.31 0 0 0 -11.12 6.3 41.08 41.08 0 0 0 -6.7 15.08c-1.46 6.06-2.21 10.85-2.17 14.33-.07 7.91 0 14.93 2.37 24.09 2.56 10 8.56 20.36 18.7 18.93a14.58 14.58 0 0 0 4.76-1.57 1.84 1.84 0 0 1 -.46-.08c-.32-.17-2.06-4.35-3.53-8.02zm-6-56.34c1.6-2.68 3.34-4 5.33-4.15 4.05-.25 6.16 3.17 6.27 10.31.08 5.29-1.32 11.76-4.93 15.74-3.19 3.45-6.57 4.78-11.34 3.68-.14-8.61.64-17.86 4.63-25.58z"/><path d="m312.1 305s3.21 24.86 28.95 21.06 31-37.14 31-37.14l-4.68-2.63s-6 29-22.74 30.41-22.5-17.33-24-30.41c-.05-.01-10.76 2.63-8.53 18.71z"/><path d="m450.7 144.6c-12.25 15.86-14.47 34.22-6.43 45 .53.72 9.47 12.35 21.49 9.65 10.08-2.26 16.85-13.35 14.77-16.52-2.57-3.9-21.63-.3-31.44 11.7-12.4 15.18-9.45 43.14 4 50.15 4.36 2.28 9.36 2.1 13.9 1l1-6c-1.35.64-7.4 3.35-12.7.59-13.93-7.27-8.71-46.51 10.06-53.23 3.19-1.14 8.32-1.9 8.92-.58.78 1.68-5.31 8-11.88 7.74-6.1-.26-10.06-6.07-10.49-6.71-9.77-14.37 16.2-47.3 17.55-49z"/></g><path d="m145.78 446c37.67 10.29 63.23-12.44 63.83-46.45.2-11.67-2-19.29-4.94-25.54-3.27-6.84-9.17-12.21-16.8-13.65-8.38-1.57-17.94 1.37-24.66 6.35l.63-2.48a8.77 8.77 0 0 0 -1.08-7.11c-1.65-2.46-4.63-4.35-8.94-5.9a2.61 2.61 0 0 0 -2.89.56 2.34 2.34 0 0 0 -.31 2.83c.41 1-.1 3.49-1.37 7.52q-1.06 3-4.44 14.05c-6.6 21.71-7.13 25.13-10.39 36.59-2.19 6.6-4.18 16-2.17 22.63a12.87 12.87 0 0 0 4.66 6.72 29.52 29.52 0 0 0 8.87 3.88zm14.05-65.66c3.71-9.59 13.17-14.83 23.17-15.34.62.34 1.23.68 1.84 1.08 5.26 3.92 8.34 10.14 9.54 19 2.14 16-.68 32.38-11.52 44.82-4.3 5-10.17 8.58-17.54 10.63-4.14 1.25-7.66 1.49-10.38.82-3-.74-4.59-3.32-4.73-7.67a68.43 68.43 0 0 1 1-12.38q3.72-20.69 8.62-41z" fill="#e73f46"/><path d="m247.27 454.45c7.2 2.19 15.81 1.45 21.34-3.95 5.88-5.62 8.56-13.53 9.85-20.39 1.82 6.3 4.35 11.06 7.4 14.28s8.07 5.26 14.24 3.74a22.51 22.51 0 0 0 8.48-4 2.61 2.61 0 0 0 .93-2.74 3.45 3.45 0 0 0 -2.7-1.79c-1.29-.2-2.93-1.58-4.65-4.22-6.19-9.14-9.12-23.26-13.24-36.88a9.49 9.49 0 0 0 -5.13-6.16c-3-1.25-5.42-1.75-7.27-1.45s-2.95.51-3.2.56c-45.4 8.74-51.82 54.25-26.05 63zm3.16-27.56c1.56-11.93 9.29-21.7 21.29-27.65a19.76 19.76 0 0 1 .6 2.23c2.21 9.55.44 24.63-2.95 34.81a23.8 23.8 0 0 1 -8.18 11.91 15.5 15.5 0 0 1 -8.25-7 23.82 23.82 0 0 1 -2.51-14.3z" fill="#e73f46"/><path d="m361.2 359.41c-3.29-.29-7 1-11.44 3.6a2.79 2.79 0 0 0 -1.47 2.83 2.59 2.59 0 0 0 1.17 1.88 3.61 3.61 0 0 0 .35.86c12.08 19.59 18.11 33.66 15.68 43-1 3.06-2.56 5.12-4.83 6.28-3.37 1.72-6.14.9-8.32-2.38-9.24-17.12-16.1-37.24-28.2-38.46a11.87 11.87 0 0 0 -5.33.85 17.82 17.82 0 0 0 -6.28 4.28 2.72 2.72 0 0 0 1.85 4.45c3.82.57 10.64 14.55 12.31 18.06 5.58 12.46 5.29 11.88 8.37 18.3 2.22 4.14 5.31 6.55 9.45 7.21s7.41.43 9.69-.63c5.18-2.22 9.81-4.46 14.49-10.26 4.58-6 5.56-12.93 3.4-20.76 6.76 9.44 5.93 7.21 13.56 18.44a46.72 46.72 0 0 1 7 14.63c1.8 7.43-.77 13.3-7.8 17.12-8.54 4.61-16.4.52-21.4-7.39-.83-1.3-3.06-1.6-5-.69-5.43 2.5-8.49 5.43-9.27 9a6.42 6.42 0 0 0 3 6c4.76 3.1 10.41 4.45 17.07 3.89 19.77-1.71 36.71-16.11 39.84-28.71a25.74 25.74 0 0 0 -3.5-19.31c-10.27-16.11-11.71-13.73-37.45-48.11a9.76 9.76 0 0 0 -6.94-3.98z" fill="#e73f46"/><path d="m95.44 397.83a36.7 36.7 0 0 0 12.29-7.83c15.4-15.72 9.75-58.47 0-60.67s-11.45 23.89-11.45 23.89-7.41-32.25-18.1-28.7-.62 30.9-.62 30.9-14.15-25.33-21.69-19.27 13.13 34.32 13.13 34.32c-1.5-.59-17.35-6.55-24.46.94-14.49 15.29 37.79 31.47 50.9 26.42z" fill="#efbd42"/><path d="m102 401.5a25.82 25.82 0 0 0 8.61-5.52c10.79-11 6.83-41 0-42.5s-8 16.74-8 16.74-5.19-22.6-12.67-20.11-.44 21.65-.44 21.65-9.91-17.75-15.2-13.5 9.21 24.07 9.21 24.07c-1-.41-12.16-4.59-17.14.66-10.21 10.71 26.42 22.01 35.63 18.51z" fill="#d7981a"/><path d="m427.58 386.06a36.73 36.73 0 0 1 -12.29-7.88c-15.4-15.71-9.75-58.46 0-60.66s11.45 23.89 11.45 23.89 7.41-32.25 18.1-28.7.62 30.9.62 30.9 14.15-25.33 21.69-19.27-13.15 34.35-13.15 34.35c1.5-.58 17.35-6.55 24.46.95 14.54 15.28-37.77 31.46-50.88 26.42z" fill="#efbd42"/><path d="m421 389.73a26 26 0 0 1 -8.61-5.52c-10.79-11-6.83-41 0-42.5s8 16.73 8 16.73 5.18-22.59 12.67-20.1.44 21.65.44 21.65 9.91-17.75 15.2-13.5-9.21 24.07-9.21 24.07c1.05-.41 12.16-4.59 17.14.66 10.23 10.71-26.4 22.04-35.63 18.51z" fill="#d7981a"/></svg>