<svg height="512" viewBox="0 0 512 512" width="512" xmlns="http://www.w3.org/2000/svg" xmlns:xlink="http://www.w3.org/1999/xlink"><clipPath id="clip-path"><path d="m242.8 161.93h59.01v116.1h-59.01z"/></clipPath><clipPath id="clip-path-2"><path d="m208 240.83h42.35v82.36h-42.35z" transform="matrix(.982 -.189 .189 .982 -49.15 48.38)"/></clipPath><g id="Hug"><path d="m182 113.82s-4.16 57.58-47.13 145.18-23.35 177.1 81.68 154.08 108.6-43 108.6-43-100.05-282.36-143.15-256.26z" fill="#2d1929"/><path d="m338.79 150.4s58 113.65 32.74 162.07-91.16 25.23-91.16 25.23l-6.37-160.09z" fill="#2d1929"/><g clip-path="url(#clip-path)"><path d="m242.8 161.93h59.01v116.1h-59.01z" fill="#f5b493"/><path d="m245.1 191.33c8.08 28.12 31.83 45.67 60.1 48.85q.06-17.77.1-35.55z" fill="#eba284"/></g><path d="m313.39 252.75s47.06 3.28 59.85 49.83 38.36 102.82 16.88 129.93-48.6 0-48.6 0z" fill="#86ebf9"/><path d="m348.6 139c-3.91-12.54-8.39-19.78-10.67-28-5.64-20.39-6.22-36.63-23.57-48.09a73.07 73.07 0 0 0 -18.11-10.82c-24.14-11.76-59.6-5.82-80.27 16.4-23.81 25.6-17.09 61.06-15.42 69.86 7.8 41.13 41.38 63.62 55.7 71.53a106.92 106.92 0 0 0 25.52 12.44c10 3.22 36.93 11.84 52.57-2.74 4.09-3.81 9.1-12.43 13.43-31.27 5.61-24.39 4.74-36.77.82-49.31z" fill="#f5b493"/><path d="m232.57 146.5c-6.57-10.43-18.87-14.5-27.47-9.1s-10.24 18.26-3.66 28.71 18.88 14.52 27.47 9.11 10.24-18.22 3.66-28.72z" fill="#f5b493"/><g fill="#2d1929"><path d="m227.75 164.26c-.8 0-6.25-.2-7.74-5.53-1-3.62 3.53-5.88 5.22-6.58-1.54-2.17-7.95-10.45-14.6-8.9-6.21 1.43-4.75 8.46-4.68 8.76a.49.49 0 0 1 -.38.59.5.5 0 0 1 -.6-.38c0-.08-1.74-8.29 5.44-9.95 8.27-1.92 15.7 9.36 16 9.84a.51.51 0 0 1 -.26.75c-.06 0-6.15 2.17-5.19 5.6 1.38 4.95 6.6 4.8 6.83 4.8a.5.5 0 1 1 -.04 1z"/><path d="m316.76 164a.5.5 0 0 1 -.32-.88c3.9-3.2 5.67-6.08 5.28-8.55-.9-5.67-11.92-4.68-18.9-23.24a.5.5 0 0 1 .29-.65.49.49 0 0 1 .64.3c6.87 18.23 17.95 17.09 19 23.44.45 2.84-1.45 6-5.63 9.47a.5.5 0 0 1 -.36.11z"/><path d="m307.79 190.68c-5.63 0-12.39-1.43-17.7-6.89a.5.5 0 1 1 .71-.7c10.65 10.94 27.48 5 27.65 4.92a.5.5 0 1 1 .34.94 36.06 36.06 0 0 1 -11 1.73z"/><path d="m303 107.22a1 1 0 0 1 -.77-1.63c.1-.12 10.22-12.3 25.12-7a1 1 0 0 1 -.67 1.89c-13.56-4.81-22.53 5.94-22.9 6.39a1 1 0 0 1 -.78.35z"/><path d="m257.58 120a1 1 0 0 1 -.86-1.51c8.13-13.57 23.69-10.63 23.84-10.59a1 1 0 0 1 .79 1.17 1 1 0 0 1 -1.18.79c-.58-.12-14.34-2.69-21.73 9.65a1 1 0 0 1 -.86.49z"/></g><path d="m265.14 245.63s-77.07 1.35-88.67 31.95 10.92 203.42 10.92 203.42h168.45s13.64-165.34 0-198.67-90.7-36.7-90.7-36.7z" fill="#40c2d6"/><path d="m243.31 248.19s15.86 29.16 34.95 26.94 23.55-24.39 23.55-24.39-36.16-16.19-58.5-2.55z" fill="#f5b493"/><g clip-path="url(#clip-path-2)"><path d="m208 240.83h42.35v82.36h-42.35z" fill="#e39c76" transform="matrix(.982 -.189 .189 .982 -49.15 48.38)"/><path d="m239.87 254.69s0 28.12-39.43 39.62l-3.92-20.31z" fill="#d48f6e"/></g><path d="m272.3 59.44s-13.24 55.06-44.47 83.11 29 43.35 18.7 81.72-64.95 45.54-64.95 45.54-30.5-39.78-11.42-86.37 1.8-92.63 27.25-130 75.15-16.88 75.15-16.88 43.56-18.89 62.14 16.44 10.63 76.86 10.63 76.86-23.06-74.68-73.03-70.42z" fill="#2d1929"/><path d="m233.45 139.1c-22.08-10.76-50.58-4.92-65.37 11-11.44 10.71-15.84 25-15.85 25-6.48 10.08-1.26 28.18 2.72 39.5.63 4.62 1.55 10.3 3 16.79 2.34 10.77 3.35 16.31 5.87 21.66 1.54 3.26 5.35 11.36 12.78 16.79 19.07 14 47.77 0 49.9-1a65.05 65.05 0 0 0 21-17.22c3-3.58 24.38-29.56 18-64.24-1.5-7.88-6.7-35.92-32.05-48.28z" fill="#e39c76"/><path d="m156.71 212.49c.22 16.81-8.82 18.86-7.38 23.67 1.88 6.32 10.14 6.57 14.14 5.8z" fill="#e39c76"/><path d="m330.78 297.75 9.72 4.54 20.8 18.32a106.1 106.1 0 0 1 .61 57.84l-6.07 102.55h-169.44l9.34-73.3 109.38-77.26z" fill="#40c2d6"/><path d="m222.26 283.83s-45.1 10.23-40.33 50.46 29.33 108.45 29.33 108.45l123.44-40.24a1042.94 1042.94 0 0 0 -30.7-105.72c-3.06-8.69-7.13-19.78-17.73-25.91-23.14-13.4-57.27 8.49-64.01 12.96z" fill="#e73f46"/><path d="m308.67 252.4 23.13 25.6a240.22 240.22 0 0 0 -31.45-8.19c-14.24-2.68-24.12-4.46-36.92-2.72a82.47 82.47 0 0 0 -20.63 5.6l22.06 46.74s58.25 19.44 84.33 9.21 22.51-33.64 0-62.09c0 .03-17.62-21.37-40.52-14.15z" fill="#e73f46"/><path d="m176.47 278s-23.53 17.73-20.8 43.31 52.52 61 52.52 61l37.17-110a262.68 262.68 0 0 1 -67.78 20.21z" fill="#e73f46"/><path d="m325.15 368.36c27.85 32.83 29.21 78.07 5.63 112.64h-130.18l7.3-61.2a424.46 424.46 0 0 0 117.25-51.44z" fill="#e73f46"/><path d="m200.6 481 120.8-56.32 25.94 12.53s-2.07 31.24-16.56 43.79z" fill="#cc3745"/><path d="m156.61 325.47a429.58 429.58 0 0 0 -5.37 70.72c.29 43.1.44 64.65 11.25 75.7 22.47 23 90.65 1 168.29-49.1l-9.21-32.74-115.09 28.81q-9.22-26.39-18.47-52.78a121.47 121.47 0 0 1 -31.4-40.61z" fill="#86ebf9"/><path d="m172.21 214.26a10.62 10.62 0 0 1 -7.16-2.87.5.5 0 0 1 .68-.74 9.77 9.77 0 0 0 6 2.6c5 .28 8.1-3.69 8.44-4.14a.5.5 0 1 1 .8.59c-.36.48-3.56 4.56-8.76 4.56z" fill="#2d1929"/><path d="m177.45 256a.5.5 0 0 1 .43-.9 5.6 5.6 0 0 0 8-5.63.5.5 0 0 1 1-.11 6.6 6.6 0 0 1 -9.43 6.64z" fill="#2d1929"/><path d="m268.75 135.46a.51.51 0 0 1 .44-.91 13.61 13.61 0 0 0 17.81-5 .51.51 0 0 1 .69-.16.49.49 0 0 1 .16.69 14.65 14.65 0 0 1 -19.1 5.38z" fill="#2d1929"/><path d="m313 123.32a.49.49 0 0 1 -.19-.68.51.51 0 0 1 .68-.19 13.63 13.63 0 0 0 18-4.08.5.5 0 0 1 .81.58 14.63 14.63 0 0 1 -19.3 4.37z" fill="#2d1929"/><path d="m264.11 337.7a437.29 437.29 0 0 1 67.52 23.88c37.26 16.74 64.06 29.19 66.37 50.09 1.1 9.94-3.33 21.79-11.12 27.66-32.88 24.72-129.32-53.75-145.61-67.18q11.42-17.22 22.84-34.45z" fill="#86ebf9"/><path d="m359.08 374.19a61.12 61.12 0 0 1 34.62 38.88c-1.4-19.65-13.7-35.58-31.79-43z" fill="#40c2d6"/><path d="m206.48 418.86a55.45 55.45 0 0 0 -28.13 36.41s-6-21.92 25.54-43.83z" fill="#40c2d6"/><path d="m278.64 400.8 43.6 27.41s-24.98-.12-43.6-27.41z" fill="#40c2d6"/><path d="m276 341-17.87-7.76s-22.3-16.71-29-20.29-32.07-5.28-34.28-2 10.15 5.83 10.15 5.83-13.43-4.22-13.3-.64 8.75 7.41 8.75 7.41-8.62-5.5-9.9-2.81 11.76 17 11.76 17-8-6.73-8.57-2.77 15.35 21.36 23.7 26.3a71 71 0 0 0 18.42 7.13l15.44 11.86s19.39-16.97 24.7-39.26z" fill="#f5b493"/><path d="m217.1 319.58c-.1 0 .67.15-14.34-2.92a.49.49 0 0 1 -.39-.59.5.5 0 0 1 .59-.39l14.24 2.91a.5.5 0 0 1 -.1.99z" fill="#2d1929"/><path d="m210.7 331.34c-.23 0 .7.56-14.79-9.66a.51.51 0 0 1 -.14-.7.5.5 0 0 1 .69-.14l14.54 9.58a.5.5 0 0 1 -.3.92z" fill="#2d1929"/><path d="m206.65 342c-.29 0 .16.34-6.88-6.4a.49.49 0 0 1 0-.7.5.5 0 0 1 .71 0l6.54 6.26a.5.5 0 0 1 -.37.84z" fill="#2d1929"/><path d="m177.58 292.61s-10 1.66-15.22 13.68c0 0 6.61-8.37 28-16z" fill="#cc3745"/><path d="m331.8 278s23 9.72 28.48 21.31c0 0-1.71-23.65-34.35-27.82z" fill="#cc3745"/><path d="m301.81 295.16 13.41 35.61 10.71.87s-7.23-23.43-24.12-36.48z" fill="#cc3745"/><path d="m165.22 139.24c-3.6 1.94-24.75 13.76-26.22 33.76-.74 9.86 3.32 21.16 6.82 21.14 2.78 0 5.88-7.16 9.21-27.28 2.63 17.63 12.24 29.48 21.14 29.67 2.52.05 8.18-.76 11.94-4.78 4-4.26 2.78-8.86 5.11-9.55 5.9-1.73 11.84 27.68 34.65 16.27a319.2 319.2 0 0 0 17.49 55.53s24.55-23.15 25.23-49.18-12.45-46.82-12.45-46.82 11.08.1-2.69-15.44c-15.32-17.3-53.15-26.09-90.23-3.32z" fill="#6d5fde"/><path d="m242.52 191.66c-8.07-1.58-16.17 5.08-18.09 14.88s3 19 11.12 20.61 16.16-5.08 18.09-14.88-3.06-19.02-11.12-20.61z" fill="#e39c76"/><path d="m232.87 217.71c.17-.06 4.08-1.45 3.69-5.51-.26-2.79-5.4-2.64-5.45-2.64a.5.5 0 0 1 -.51-.6c.1-.45 2.44-11.19 9.31-12.17 6-.85 7.1 6 7.11 6a.5.5 0 0 1 -1 .15c0-.25-1-5.89-6-5.18-5.31.76-7.73 8.55-8.32 10.79 1.59.06 5.54.51 5.83 3.53.47 4.86-4.32 6.54-4.37 6.55a.5.5 0 0 1 -.29-.92z" fill="#2d1929"/></g></svg>