<svg height="512" viewBox="0 0 512 512" width="512" xmlns="http://www.w3.org/2000/svg" xmlns:xlink="http://www.w3.org/1999/xlink"><clipPath id="clip-path"><path d="m145.14 175.2h55.68v114.26h-55.68z"/></clipPath><clipPath id="clip-path-2"><path d="m349.76 326h50.67v80.01h-50.67z"/></clipPath><g id="Motherhood"><circle cx="121.35" cy="200.67" fill="#efbd42" r="41.35"/><path d="m169.13 239.39c29.81-3 50.81 3.49 62.33 8.27 23.84 9.9 30.58 26 98.44 78 14.28 3.5 26.48 7 36.13 9.93 24.88 7.6 49.43 14.85 80.15 35.57l-23.9 37.51c-44.18 3.66-78-3.62-98.72-9.93-14.21-4.32-25.93-7.88-39.71-16.55-43.62-27.38-42.58-65.32-114.72-142.8z" fill="#917eec"/><path d="m466.62 390.43a76.3 76.3 0 0 0 -31.83-26.67q-9.09 11-18.16 22.1l20.37 15.33z" fill="#e39c76"/><ellipse cx="248" cy="373.35" fill="#917eec" rx="22.06" ry="36.34"/><g clip-path="url(#clip-path)"><path d="m145.14 175.2h55.68v114.26h-55.68z" fill="#e39c76"/><path d="m148.42 189.65c5.07 29.42 28.85 48.17 57.11 50.67q-1-14.65-1.93-29.31z" fill="#d48f6e"/></g><g clip-path="url(#clip-path-2)"><path d="m349.76 326h50.67v80.01h-50.67z" fill="#f5b493"/><path d="m398.14 343.43a43 43 0 0 1 -53.14 23.24q.3-8.76.59-17.53z" fill="#eba284"/></g><path d="m251.92 148.83c-1.64-13.08-4.78-21-5.57-29.59-1.94-21.15.37-37.3-14.74-51.71a73.33 73.33 0 0 0 -16-13.9c-21.75-15.92-57.84-16.35-82.22 1.93-28.08 21.07-27.74 57.3-27.66 66.29.4 42 29.59 70.22 42.33 80.58a107.81 107.81 0 0 0 23 16.83c9.35 5 34.39 18.26 52.44 6.63 4.72-3 11.19-10.66 18.82-28.51 9.9-23.09 11.24-35.47 9.6-48.55z" fill="#e39c76"/><g fill="#2d1929"><path d="m215.86 166.94c4.41-2.47 6.68-5 6.73-7.51.06-3.05-3.24-5-6.44-8.59-4.05-4.56-6.78-10.52-8.11-17.74a.5.5 0 0 1 1-.18c3.53 19.24 14.69 20.09 14.56 26.53-.06 2.89-2.5 5.7-7.25 8.36a.5.5 0 0 1 -.49-.87z"/><path d="m225.17 134.38c.4 4.75 3.22 8.4 6.3 8.14s5.25-4.32 4.85-9.08-3.22-8.44-6.32-8.14-5.25 4.32-4.86 9.08z"/><path d="m183.55 146.53c-3.07.26-5.89-3.39-6.29-8.15s1.78-8.82 4.85-9.07 5.9 3.39 6.3 8.14-1.78 8.82-4.86 9.08z"/><path d="m208.87 193.19c-6.09 0-16.61-1.44-22.73-10.51a.52.52 0 0 1 .13-.7.51.51 0 0 1 .7.14c8.57 12.7 26.27 9.8 26.45 9.77a.5.5 0 0 1 .17 1 32 32 0 0 1 -4.72.3z"/><path d="m212.69 109.33a1 1 0 0 1 -.66-1.76c.13-.1 12.29-10.34 26.07-2.47a1 1 0 0 1 -1 1.74c-12.54-7.16-23.32 1.86-23.77 2.25a1 1 0 0 1 -.64.24z"/><path d="m166 115a1 1 0 0 1 -.81-1.58c9.23-12.92 24.55-8.72 24.71-8.67a1 1 0 0 1 -.55 1.92c-.57-.16-14.14-3.84-22.53 7.91a1 1 0 0 1 -.82.42z"/></g><path d="m180.6 240.12s-91.95 3.65-99.24 53.88 17.27 186.41 17.27 186.41h158.73s10.42-174.5-6.25-206.17-70.51-34.12-70.51-34.12z" fill="#917eec"/><path d="m424.8 235c-17.49-19.14-47.74-24.49-68.45-14.62a62.36 62.36 0 0 0 -15.57 9.11c-14.91 9.66-15.52 23.5-20.5 40.91-2.39 8.34-9.51 19.87-11.54 33-1 6.69-3.45 19.79 2.54 33a45.23 45.23 0 0 0 13.22 16.6c18.89 14.71 42.87 8.86 48 7.61a67.31 67.31 0 0 0 15.82-6.16c7.29-3.86 41.45-21.92 49.13-59.62 1.55-7.58 7.62-37.68-12.65-59.83z" fill="#f5b493"/><path d="m338 315.91a.49.49 0 0 1 -.32-.12c-3.57-3-5.18-5.75-4.76-8.2.91-5.45 10.37-4.37 16.37-19.9a.5.5 0 1 1 .94.36c-6.1 15.76-15.53 14.94-16.33 19.7-.35 2.08 1.14 4.53 4.42 7.27a.5.5 0 0 1 -.32.89z" fill="#2d1929"/><path d="m335.6 286.37c-1.09 3.92-4 6.52-6.55 5.82s-3.71-4.44-2.62-8.36 4-6.52 6.55-5.81 3.7 4.44 2.62 8.35z" fill="#2d1929"/><path d="m375 297.3c-1.08 3.92-4 6.52-6.55 5.82s-3.7-4.45-2.62-8.36 4-6.52 6.55-5.82 3.74 4.45 2.62 8.36z" fill="#2d1929"/><path d="m356.12 370.63s-28 6.58-36 31.83 0 77.94 0 77.94h129.15s3.58-67-15.93-92.21-77.22-17.56-77.22-17.56z" fill="#86ebf9"/><path d="m200 349.92-81.76 32.3 19.62-65.67s55.75-31.21 13.44-71.83c0 0-28.64.63-52.9 22.4-15.58 14-22.07 30-28 47.32-22.65 65.92-48 139.66-19.3 161 5.89 4.38 13.1 5.84 23.71 5.52 70.2-2.16 133.44-77.6 150.33-98.74z" fill="#917eec"/><path d="m145.14 245.34c1.68 3.4 14.21 27.9 34.47 29.35 2.93.2 7.54.53 11.58-2.21 10.9-7.38 9.56-31.16 9.66-31.16s-14.32-2.95-17.51-3.51c-8-1.42-20.16-.98-38.2 7.53z" fill="#e39c76"/><path d="m361.12 370.12c-8.63 1.71-33.9 7.88-53.75 30.84-28.5 33-22.43 73.54-21.45 79.44h66.77l4.86-24.58-31.15-15.71 13.14-31.44s40.3-20.81 21.58-38.55z" fill="#86ebf9"/><path d="m383 370.12s38.62-5.73 57 18.84 29.8 64.58 25.23 79.43-15.43 12-61.72 12-20.51-110.27-20.51-110.27z" fill="#86ebf9"/><path d="m261 307.89 7.24 35.05s24.59 26.41-5.13 65.67q-.42 34.62-.21 71.79h-96.9s51.48-13.79 65.82-28.87 4-19.49 2.2-27.21 11.77-7.72 20.59-19.85 22.06-34.2 7.72-58.46z" fill="#6d5fde"/><path d="m125.2 327.63-19.46 66.52s-37.9 10.7-48.93 51c0 0 25.73-34.38 51.84-46.15s87.51-25.55 87.51-25.55l-80.52 13z" fill="#6d5fde"/><path d="m349.76 372.13a30.75 30.75 0 0 0 26.12 15.87c18.91.76 24.55-18.15 24.55-18.15s-33.43-4.41-50.67 2.28z" fill="#f5b493"/><path d="m222.08 356.31c4.79-1.6 12.63-3.38 21.14-.92a34.12 34.12 0 0 1 13 7.47c24.12 20.47 33.63 40.18 43.58 37.94 1.74-.39 1.18-.91 4.78-2.94 15.85-8.94 41.32-6 36.29 7-3.67 9.44-24.26 14.53-40.48 10.46-30.28-7.59-32.24-43.83-60.53-46.86-6.11-.66-17.79-.23-19.65-5.42-.77-2.31.63-4.94 1.87-6.73z" fill="#efbd42"/><path d="m337.4 398c.37 4.37-8.95 9-16.4 10.29-3.94.69-13.85 2.45-17.43-3.32-3.28-5.27.56-13.93 6.2-17.23 3.27-1.91 8.38-2.76 10.21-.69 1.25 1.42.32 3.49 1.79 4.55s3-.09 5.1-.28c4.62-.4 10.26 3.45 10.53 6.68z" fill="#e5e5e5"/><path d="m365.26 331.29c.6 5.09-9 11.17-17.83 10.33-5.27-.51-12.15-3.66-12.46-8.5-.29-4.53 5.36-8 9.72-9.18 8.56-2.32 19.95 2.13 20.57 7.35z" fill="#2d1929"/><path d="m402.41 257.8a114.11 114.11 0 0 0 12.38 58.58q-7.07 15.3-14.14 30.59a78.63 78.63 0 0 0 10.74-5.36c2-1.19 42.12-26.1 39.59-64.47-1.57-23.82-21.61-51.15-52.86-61.64-32.29-10.84-61.93.36-70.68 29.92 0 0 18.39-18.76 35.25-18.76 0 0 0 24.57 39.72 31.14z" fill="#2d1929"/><path d="m433.58 294c-7.31-4.69-17.84-1.3-23.54 7.57s-4.4 19.87 2.91 24.56 17.84 1.3 23.54-7.57 4.39-19.92-2.91-24.56z" fill="#f5b493"/><path d="m414.06 316.8h-.13a.5.5 0 0 1 -.47-.52.51.51 0 0 1 .52-.48c.19 0 4.6.17 5.8-4 .83-2.87-4.29-4.73-4.35-4.74a.51.51 0 0 1 -.25-.75c.28-.41 6.74-10 13.84-8.32 6.19 1.49 4.64 8.56 4.63 8.63a.51.51 0 0 1 -.6.38.5.5 0 0 1 -.38-.6c.06-.25 1.35-6.18-3.88-7.44-5.55-1.33-11 5.46-12.42 7.4 1.52.66 5.26 2.63 4.37 5.71-1.3 4.53-5.87 4.73-6.68 4.73z" fill="#2d1929"/><path d="m211.6 424s-62.36 44.31-112.44 53.41l.57 3h45s45.18-21.51 66.87-56.41z" fill="#6d5fde"/><path d="m189.62 69.52s-13.34-6.25-16.62 10.29-16.55 57.19-50.38 56.34c0 0 7.91 43.51 22.52 63.81 0 0-44.95-1.25-57.63-67s27.14-110.32 66.18-99.89c0 0 73.35-12.14 89.53 21.69s3 62.57 3 62.57l-4.84-32.33s-27.68-43.89-51.76-15.48z" fill="#efbd42"/><path d="m135.93 135.62c-4.64-11.49-16.07-17.7-25.53-13.89s-13.35 16.27-8.71 27.72 16.07 17.71 25.52 13.89 13.36-16.24 8.72-27.72z" fill="#e39c76"/><path d="m128.11 152.32c-.06 0-6.19-.92-6.76-6.86-.35-3.75 4.53-5.18 6.33-5.57-1.14-2.42-6-11.77-12.85-11.4-6.41.32-6.2 7.52-6.18 7.83a.5.5 0 0 1 -1 0c0-.09-.25-8.5 7.14-8.86 8.51-.42 13.85 12 14.07 12.56a.5.5 0 0 1 -.38.69c-.07 0-6.47 1.05-6.13 4.62.49 5.14 5.67 5.92 5.9 6a.5.5 0 0 1 -.14.99z" fill="#2d1929"/><path d="m180.21 377.19 27.53-7.19s25.11-8.73 34.47-9.73 31 6.33 34.13 10.35-16.85 1.09-21.86 3.36c0 0 3.86 3.06 5.22 4.46s1.47 8.27-4.46 8.21c0 0 7.38 5.79-1.38 9.37 0 0 8.9.14 2.69 7.45s-29.55 23.44-41.78 17.78l-10.85 7.92s-26.42-20.81-23.71-51.98z" fill="#e39c76"/><path d="m171.06 379.47 24.1-6.18a71.58 71.58 0 0 0 18.46 48.81l-10.56 7.64s-37.42-27.84-32-50.27z" fill="#917eec"/><path d="m440 383.54s-6.69 28.25-2.16 40.86 9.06 16.83 12.62 17.47 0-25.22 0-25.22 7.76 19.44 10.68 33-3.89 23.29 0 25.23 12.61-19.09 14.55-31.06-1.61-40.11-9.05-53.38-25.33-13.39-26.64-6.9z" fill="#e39c76"/><path d="m254.24 374.42c-3-1.68-11.23-1.34-11.32-1.34a.5.5 0 1 1 0-1c.35 0 8.59-.35 11.85 1.47a.5.5 0 0 1 -.53.87z" fill="#2d1929"/><path d="m255.24 387.15c-.1 0 .42.11-11.49-2.78a.5.5 0 1 1 .23-1l11.38 2.76a.5.5 0 0 1 -.12 1.02z" fill="#2d1929"/><path d="m245.11 398a.5.5 0 0 1 -.09-1l8.76-1.46a.49.49 0 0 1 .57.41.48.48 0 0 1 -.41.57c-9 1.48-8.73 1.48-8.83 1.48z" fill="#2d1929"/><path d="m334 416.72-6.15 24.14s-18.85 3.14-29.11 18.59c0 0 25-14.5 33.09-13.52s25.45 11.21 25.45 11.21l-24.89-17.27z" fill="#40c2d6"/><path d="m416.63 414.22 6.76 25.65-25.92 21.78 30.88-17.37s19.89 5.52 21.11 17.37c0 0-1.81-19.58-18.08-23.71z" fill="#40c2d6"/><path d="m354.69 455.67 11.39 4.7s16.68-3.6 18.52-2.35-6.07 6-6.07 6 7 1.11 10.66 0 9.65-4 11.86-2.39-6.2 7-6.2 7 9.37-5 10.47-3.3-6.06 7.58-6.06 7.58 5.65-2.62 7.17-1.1-7.59 6.06-7.59 6.06 6-1.51 7.76 0-3.79 2.48-3.79 2.48h-47.12s-6.97-16.35-1-24.68z" fill="#f5b493"/><path d="m390 471.8a.5.5 0 0 1 -.24-.93l4.83-2.62a.5.5 0 0 1 .68.2.49.49 0 0 1 -.21.67c-5.17 2.82-4.86 2.68-5.06 2.68z" fill="#2d1929"/><path d="m393.47 476.63a.5.5 0 0 1 -.24-.94l5.79-3.17a.5.5 0 1 1 .48.88c-6.35 3.47-5.85 3.23-6.03 3.23z" fill="#2d1929"/><path d="m396.36 479.88a.5.5 0 0 1 -.25-.94l2.48-1.45a.51.51 0 0 1 .69.18.5.5 0 0 1 -.18.68c-2.68 1.57-2.55 1.53-2.74 1.53z" fill="#2d1929"/></g></svg>