<?xml version="1.0" encoding="utf-8"?>
<!-- Generator: Adobe Illustrator 27.2.0, SVG Export Plug-In . SVG Version: 6.00 Build 0)  -->
<svg version="1.1" id="Calque_1" xmlns="http://www.w3.org/2000/svg" xmlns:xlink="http://www.w3.org/1999/xlink" x="0px" y="0px"
	 viewBox="0 0 512 512" style="enable-background:new 0 0 512 512;" xml:space="preserve">
<style type="text/css">
	.st0{fill:#1573D8;}
	.st1{fill:#E73F46;}
	.st2{fill:#917EEC;}
	.st3{fill:#F5B493;}
	.st4{clip-path:url(#SVGID_00000005254210066577858210000004725250236012679816_);}
	.st5{fill:#955D43;}
	.st6{fill:#834A27;}
	.st7{clip-path:url(#SVGID_00000013160906077058247150000012356625465282063774_);}
	.st8{fill:#EBA284;}
	.st9{fill:#2D1929;}
	.st10{fill:#86EBF9;}
	.st11{fill:#287EEF;}
	.st12{fill:#40C2D6;}
	.st13{fill:#6D5FDE;}
	.st14{fill:#EAEAEA;}
</style>
<path class="st0" d="M177.3,293.6c-5.8-16.6-18.8-22-18.8-22v58.6l15.4,84.6l11.7,0.1C185.6,414.9,183.1,310.1,177.3,293.6z"/>
<circle class="st1" cx="435.6" cy="225.6" r="23.3"/>
<path class="st2" d="M392.5,261.7c-20.1,83.9-23.3,111.7-42.8,122.7c-3.1,1.8-8.6,4.2-28.8,3.5c-24.4-0.9-48.5-5.5-71.6-13.5
	l3.7-28.4l71-1.7c13.7-33.1,16.5-47.8,19.9-54.6C349,279.5,361.2,267.8,392.5,261.7L392.5,261.7z"/>
<path class="st3" d="M268,345.6l-17.3-1.2c0,0-13.1-2.3-18-1.1c-8,1.8-15.4,5.8-14.9,7.5s8.8-1.3,12.2,2.6c4.2,4.8-3.6,14-0.2,19.8
	c2,3.4,8,6,25.4,3.2l10.9,3.2C268.9,368.4,269.5,356.9,268,345.6L268,345.6z"/>
<g>
	<defs>
		<rect id="SVGID_1_" x="86.9" y="204.9" width="37.2" height="76.9"/>
	</defs>
	<clipPath id="SVGID_00000168810599561207617450000001632208439517221556_">
		<use xlink:href="#SVGID_1_"  style="overflow:visible;"/>
	</clipPath>
	<g style="clip-path:url(#SVGID_00000168810599561207617450000001632208439517221556_);">
		<path class="st5" d="M86.9,204.9h37.2v76.9H86.9V204.9z"/>
		<path class="st6" d="M89.8,215.2c0.3,7.4,2.6,14.6,6.8,20.7c10.5,15.3,28.4,17,31.1,17.2v-26.4L89.8,215.2z"/>
	</g>
</g>
<g>
	<defs>
		<rect id="SVGID_00000124860216300770589330000018057565881158650768_" x="380.2" y="208.3" width="37.2" height="76.9"/>
	</defs>
	<clipPath id="SVGID_00000015343154607209253690000017757800971477642145_">
		<use xlink:href="#SVGID_00000124860216300770589330000018057565881158650768_"  style="overflow:visible;"/>
	</clipPath>
	<g style="clip-path:url(#SVGID_00000015343154607209253690000017757800971477642145_);">
		<path class="st3" d="M417.4,285.3h-37.2v-76.9h37.2V285.3z"/>
		<path class="st8" d="M414.6,218.6c-0.3,7.4-2.6,14.6-6.8,20.7c-10.5,15.3-28.4,17-31.1,17.3v-26.4L414.6,218.6z"/>
	</g>
</g>
<path class="st5" d="M151.9,221.6c-5,11.7-9.2,16.7-12.3,18.7c-11.8,7.6-28.2-1.1-34.3-4.3c-5.5-3-10.6-6.7-15.1-11
	c-8.3-6.8-27.5-25.3-27.7-52.8c-0.1-5.9-0.3-29.6,18.1-43.4c16-12,39.6-11.7,53.9-1.3c3.9,2.5,7.4,5.6,10.5,9.1
	c9.9,9.4,8.4,20,9.7,33.9c0.5,5.6,2.6,10.8,3.6,19.4S158.4,206.5,151.9,221.6L151.9,221.6z"/>
<g>
	<path class="st9" d="M134.4,201.5c2.8-1.6,4.3-3.2,4.3-4.8c0.1-3.6-7.2-4.4-9.5-17.2c-0.1-0.3,0.1-0.5,0.4-0.6c0,0,0,0,0,0
		c0.3-0.1,0.5,0.1,0.6,0.4c0,0,0,0,0,0c2.4,12.9,9.6,12.9,9.6,17.4c0,2-1.7,3.9-4.8,5.6c-0.2,0.1-0.5,0-0.7-0.2
		C134.1,201.9,134.2,201.7,134.4,201.5z"/>
	<path class="st9" d="M144.8,185.7c-2,0.2-3.9-2.2-4.1-5.3s1.2-5.8,3.2-5.9s3.9,2.2,4.1,5.3S146.8,185.5,144.8,185.7L144.8,185.7z"
		/>
	<path class="st9" d="M113.4,188.3c-2,0.2-3.9-2.2-4.1-5.3s1.2-5.8,3.2-5.9s3.9,2.2,4.1,5.3S115.4,188.1,113.4,188.3z"/>
	<path class="st9" d="M130,219.1c-4,0-11-1-15-7c-0.2-0.2-0.1-0.5,0.1-0.7c0,0,0,0,0,0c0.2-0.2,0.5-0.1,0.7,0.1
		c5.6,8.2,17,6.4,17.2,6.3c0.3,0,0.5,0.1,0.6,0.4c0,0,0,0,0,0c0,0.3-0.1,0.5-0.4,0.6c0,0,0,0,0,0C132.1,219,131.1,219,130,219.1
		L130,219.1z"/>
	<path class="st9" d="M132.4,164.3c-0.6,0-1-0.5-1-1c0-0.3,0.1-0.6,0.3-0.7c0.1-0.1,8.2-6.9,17.5-1.7c0.5,0.3,0.6,0.9,0.4,1.4
		c-0.3,0.5-0.9,0.6-1.4,0.4c-8-4.6-14.9,1.2-15.2,1.4C132.9,164.2,132.7,164.3,132.4,164.3z"/>
	<path class="st9" d="M101.2,165.9c-0.6,0-1-0.5-1-1c0-0.3,0.1-0.6,0.4-0.8c8.3-6.7,17.4-1.2,17.5-1.1c0.5,0.2,0.8,0.8,0.6,1.3
		s-0.8,0.8-1.3,0.6c-0.1,0-0.2-0.1-0.3-0.2c-0.3-0.2-8-4.8-15.2,1C101.7,165.8,101.4,165.9,101.2,165.9z"/>
</g>
<path class="st10" d="M58.5,414.5c0,0-8.8-102.3,0-127.1c10.7-30,64.5-35.4,85.8-19.2c4.8,3.6,8.7,8.8,16.2,40
	c9.9,41.4,13.9,77.9,16.9,106.3L58.5,414.5z"/>
<path class="st11" d="M91.9,261.6c-5,0.9-35.8,6.6-46.4,30.9c-2,4.7-5.4,14.7,0,37.8c5.2,22.4,14.8,63.5,44.8,78.6
	c43.4-3.6,86.1-12.9,127.1-27.6c-2.5-9.2-5-18.5-7.4-27.7l-114.1,2.9L91.9,261.6z"/>
<path class="st3" d="M441.9,175.6c-0.3,27.5-19.4,46-27.7,52.8c-4.5,4.3-9.6,8-15.1,11c-6.1,3.3-22.5,12-34.4,4.4
	c-3.1-2-7.3-7-12.3-18.7c-6.5-15.1-7.3-23.2-6.3-31.8s3.1-13.8,3.6-19.4c1.3-13.9-0.2-24.4,9.7-33.9c3-3.5,6.6-6.6,10.5-9.1
	c14.3-10.4,37.9-10.7,53.9,1.3C442.2,146,442,169.7,441.9,175.6L441.9,175.6z"/>
<path class="st9" d="M369.4,205.9c-3.2-1.8-4.8-3.7-4.8-5.6c-0.1-4.5,7.2-4.6,9.5-17.4c0-0.3,0.3-0.5,0.6-0.4s0.5,0.3,0.4,0.6
	c-2.4,12.8-9.6,13.6-9.5,17.2c0,1.6,1.5,3.2,4.3,4.8c0.2,0.1,0.3,0.4,0.2,0.7S369.6,206,369.4,205.9L369.4,205.9z"/>
<path class="st9" d="M363.7,183.8c-0.3,3.1-2.1,5.5-4.1,5.3s-3.4-2.8-3.2-6s2.1-5.5,4.1-5.3S364,180.7,363.7,183.8z"/>
<path class="st9" d="M395.1,186.4c-0.3,3.1-2.1,5.5-4.1,5.3s-3.4-2.8-3.2-5.9s2.1-5.5,4.1-5.3S395.3,183.3,395.1,186.4z"/>
<path class="st9" d="M371.9,167.8c-0.2,0-0.5-0.1-0.6-0.2c-0.3-0.2-7.2-6-15.2-1.4c-0.5,0.3-1.1,0.1-1.4-0.4c0,0,0,0,0,0
	c-0.3-0.5-0.1-1.1,0.4-1.4c9.2-5.3,17.4,1.6,17.5,1.6c0.4,0.4,0.5,1,0.1,1.4C372.4,167.6,372.2,167.8,371.9,167.8L371.9,167.8z"/>
<path class="st9" d="M402.9,170.4c-0.3,0-0.5-0.1-0.7-0.3c-6.4-6.6-14.9-2.9-15-2.9c-0.5,0.2-1.1,0-1.3-0.5c-0.2-0.5,0-1.1,0.5-1.3
	c0.1,0,9.8-4.4,17.2,3.3c0.4,0.4,0.4,1,0,1.4C403.4,170.2,403.2,170.3,402.9,170.4L402.9,170.4z"/>
<path class="st2" d="M450.3,414.5c-0.3-13.9-0.9-37.8-1.3-67.7c-0.6-45.4,1.6-57.9-8.7-69.4c-18.1-20.3-60.2-22.5-81.8,2.6
	c-11.5,13.3-12.6,29.3-13.4,38c-2.1,24.4-6.3,54.9-13.7,96.5L450.3,414.5z"/>
<path class="st5" d="M86.9,262.7c0,0,12.1,15.9,24.3,14.1s12.9-16.5,12.9-16.5S101.6,250.7,86.9,262.7L86.9,262.7z"/>
<path class="st10" d="M86.9,249.4c0,0-5.8,1.6-6.9,7.2s-3.2,7.6-1.3,11.3s20.4,25.5,26.8,25.5s7.4-17.1,7.4-17.1
	S93.7,276.2,86.9,249.4L86.9,249.4z"/>
<path class="st10" d="M113,276.5c6.5-6.9,10.4-15.8,11-25.3c2.5-0.3,4.1,0.9,5.6,2.8c1.8,2.6,3.2,5.6,4,8.7
	C133.6,262.7,131.3,303.2,113,276.5z"/>
<path class="st11" d="M79.4,259.2c-10.8,4.7-21,10.8-30.2,18.2c-3.3,2.5-6.4,5.2-9.2,8.3c-11.3,13.4-8,33.9-4.8,52
	c5.5,31.4,10.5,57,14.6,76.9h80.8c0,0-1.1-46.9-7.3-62.6S104.6,291.1,79.4,259.2z"/>
<path class="st11" d="M132.4,258.5c4.6,51.4,9.4,104.8,13.9,156l32.8,0.3c-4.6-22-7-44.5-7.3-67c-0.3-27.8,2.7-66.5-11.6-75.4
	C151.3,267.1,142,262.5,132.4,258.5z"/>
<path class="st3" d="M380.2,264.6c0,0,0,18.1,12.3,17.7s24.9-18.5,24.9-18.5S396.5,250.7,380.2,264.6L380.2,264.6z"/>
<path class="st2" d="M380.2,253c-1-0.1-2.1,0.1-3,0.6c-2.3,1.1-2.9,3.6-4.9,8.8c-1.9,4.8-2,4.4-2.4,5.9c-2.2,7.6,2.1,16.8,6.5,20.4
	c6.1,4.9,13.6-6.2,13.6-6.2C383.2,274.1,379.7,263.7,380.2,253L380.2,253z"/>
<path class="st2" d="M390,282.4c0,0,18.1-4.6,27.4-29.4c0,0,3.9,0.1,5.3,5.2c1.5,5.2,3,9.5,3,9.5s-13.5,24.5-24.6,27.5
	S390,282.4,390,282.4z"/>
<path class="st2" d="M425.7,267.7c0,0,28.4,6.3,38,30.3s18.6,116.8,18.6,116.8l-40.5-0.3C436.4,365.6,431,316.6,425.7,267.7z"/>
<path class="st12" d="M98.5,289.8c0,0,4.4,5,8.5,3.5s6-15.1,6-15.1s5.1,8.5,11.2,7.5c6.1-1,8.8-17.2,8.8-17.2s-1.1,16.7-6.8,19.7
	s-12.7-7.1-12.7-7.1s-1.2,11.8-5,14.6S98.5,289.8,98.5,289.8L98.5,289.8z"/>
<path class="st0" d="M70.2,310.1l22.6,50.1c-6.2,5.4-10.4,12.9-11.7,21c8.7-16.1,25-25.2,43.1-25.3c-8.6-2.1-17.6-2-26.2,0.1
	L70.2,310.1z"/>
<path class="st0" d="M45.6,352.2c4.2,14.4,10.5,28.1,18.7,40.7c6,9.1,9.6,12.2,13.7,14.2c7.3,3.6,14.8,2.8,29.3,1
	c7.7-1,15.3-2.4,22.8-4.2c0.2,3.6,0.4,7.2,0.6,10.7H61C61,414.5,49.8,377.4,45.6,352.2L45.6,352.2z"/>
<path class="st0" d="M141,355.4l30.9-0.8C171.9,354.6,156.2,349.6,141,355.4z"/>
<path class="st0" d="M145,401.4l1.3,13.1l32.9,0.4l-3.2-20.7L145,401.4z"/>
<path class="st9" d="M73,184c0,0,8.8,2.2,10.4-15.4s-0.8-30.7,10.1-31s18.6,7.6,30.6,0.8s22-1.7,27.8,9.4
	c9.2-12.7,10.4-28.1,3.3-38.3c-1.4-2.1-6.1-8-14-9.8C130,97,122,105,107.3,113.1c-31.1,17.2-44.6,8.7-55.2,23.5
	c-8.5,11.9-6.4,26.8-5.4,33.5c4.7,32.8,35.7,49.7,40.2,52.1L73,184z"/>
<path class="st5" d="M76.5,199.3c-6.2,2.5-13.7-1.6-16.7-9.1s-0.5-15.6,5.7-18.2s13.7,1.6,16.7,9.1S82.7,196.8,76.5,199.3z"/>
<path class="st9" d="M77,192.3c0,0-4.2-0.6-4.6-4.6c-0.2-2.5,2.7-3.5,4.1-3.8c-0.9-1.8-3.9-7.4-8.2-7.2c-4,0.2-3.9,4.8-3.9,5
	c0,0.3-0.2,0.5-0.5,0.5c-0.3,0-0.5-0.2-0.5-0.5c0,0,0,0,0,0c-0.1-2,0.8-5.8,4.8-6c5.7-0.2,9.2,8,9.4,8.3c0.1,0.3,0,0.6-0.3,0.7
	c0,0-0.1,0-0.1,0c0,0-4.1,0.7-3.9,2.8c0.3,3.2,3.6,3.7,3.7,3.7c0.3,0.1,0.4,0.4,0.2,0.7C77.3,192.1,77.2,192.2,77,192.3z"/>
<path class="st1" d="M400.8,132.9c0,0-9.6,3-16,14s-33.7,10.1-33.7,10.1s-0.6-36,12.6-43.1c7.6-4.2,16.9-3.7,24,1.2
	c0,0,32.6-14.5,54.2,0.9S480,221,417.4,225.6c16.8-27.8,16.6-39.6,12.2-45.2c-3.9-4.9-9.3-2.6-16.4-9.9s-9.2-17.4-10.8-25.4
	C401.6,141.1,401,137,400.8,132.9L400.8,132.9z"/>
<path class="st3" d="M444.6,193.7c-3,7.5-10.5,11.6-16.7,9.1s-8.8-10.6-5.7-18.2s10.5-11.6,16.7-9.1S447.6,186.2,444.6,193.7z"/>
<path class="st9" d="M427.2,194.8c0.1,0,3.4-0.5,3.7-3.8c0.2-2.2-3.8-2.8-3.9-2.8c-0.3,0-0.5-0.3-0.4-0.6c0,0,0-0.1,0-0.1
	c0.1-0.4,3.7-8.6,9.4-8.4c4,0.2,4.9,4,4.8,6c0,0.3-0.2,0.5-0.5,0.5c0,0,0,0,0,0c-0.3,0-0.5-0.2-0.5-0.5c0,0,0,0,0,0
	c0-0.2,0.1-4.8-3.9-5c-4.2-0.2-7.3,5.4-8.2,7.2c1.4,0.3,4.3,1.3,4.1,3.8c-0.4,4-4.5,4.6-4.6,4.6c-0.3,0-0.5-0.3-0.4-0.6
	C426.9,195,427,194.8,427.2,194.8L427.2,194.8z"/>
<path class="st13" d="M351,291.5l-5.3,18.2c-10.3,10.4-14.1,25.2-6.5,38.4l-3.3,39.6l8.7-39.6c-8.1-11.2-6.3-25.1,2.3-35.4
	L351,291.5z"/>
<path class="st13" d="M430.6,310.1l5,56.1l-2.5,48.2h7.1l1.7-48.6L430.6,310.1z"/>
<path class="st5" d="M193.2,354.1l13.7-2.1c4.2-4,9.5-6.6,15.3-7.6c2.5-0.4,5.1-0.7,7,0.8c2.7,2.1,1.2,5.8,3.9,8
	c1.1,0.9,2.1,0.8,7.4,0.9c10.4,0.1,12,0.5,12.4,1.5c0.2,0.6,0.1,1.8-2.2,4c1.4,0.9,1.8,2.7,0.9,4.1c-0.5,0.8-1.3,1.3-2.2,1.4
	c1.4,1.3,1.5,3.5,0.2,4.8c-0.4,0.5-1,0.8-1.7,1c0.8,4.1,4.3,1.3,4.4,1.4s-8.1,7.7-19.4,9.4c-5.1,0.7-10.2,0.6-15.3-0.2l-16.9,5.6
	C195,377.1,192.4,365.6,193.2,354.1z"/>
<path class="st14" d="M371.3,216.9l20.1-4.1c-1.8,8.2-8.5,12.6-13.5,11.4C373.4,223,371.5,217.5,371.3,216.9L371.3,216.9z"/>
<path class="st3" d="M226.9,344.9c0,0-11.8,5.4-9.1,7.7s16.6-0.3,22.3-2.9S239,342.3,226.9,344.9L226.9,344.9z"/>
<path class="st13" d="M323.9,344.2l3.5,24.5l3.9-43.5L323.9,344.2z"/>
<path class="st13" d="M369.8,268.2c0,0,0.1,24.6,5,25.3S390,284,390,284s-11.6,5.7-13.8,5.2S369.8,268.2,369.8,268.2L369.8,268.2z"
	/>
<path class="st13" d="M391.5,284.7c0,0,2.4,14.9,11.2,12.6s22.9-29.6,22.9-29.6s-18.1,25.9-22.6,25.9S391.5,284.7,391.5,284.7z"/>
<path class="st13" d="M402.1,380.4c-6.4-4.7-45.6,4.9-54.2,1.5s-3.2-33.7-3.2-33.7l-4.2,9.9c-2.3,16.3-5.2,34.9-9.1,56.5h108.8
	c0,0-52.9-4.6-60.3-11S408.5,385.1,402.1,380.4L402.1,380.4z"/>
<path class="st10" d="M197.2,304.5c4.8,6.8,9.7,13.5,14.5,20.3l-8.4-23.7L197.2,304.5z"/>
<path class="st10" d="M234.7,297.6c0.8,9.3,1.6,18.6,2.4,27.9c1.7-9.4,3.5-18.9,5.2-28.3L234.7,297.6z"/>
<path class="st10" d="M271.3,307.8l-20.2,19.7l25.6-12.1L271.3,307.8z"/>
<path class="st5" d="M230.2,352.9c7.8,1.9,13.1,1.5,16.6,0.8c2.5-0.6,8.1-1.5,8.9,1.1c0.7,2.3-2.5,3.6-4.9,4.8c0,0,3.5-1,4.3,0
	s1.3,3.7-5.6,5.5c0,0,1.9-0.2,4.1-0.4s3.3,4.3-5.5,6.2c0,0,4.8-1.6,5,0s-4.4,5.4-8.7,7s-8.5-8-8.5-8L230.2,352.9z"/>
<path class="st9" d="M240.5,361.7c-0.3,0-0.5-0.3-0.5-0.5c0-0.3,0.3-0.5,0.5-0.5c4.3,0.4,9.9-1.7,10-1.7c0.3-0.1,0.6,0,0.6,0.3
	c0.1,0.3,0,0.6-0.3,0.6C247.7,361.2,244.1,361.8,240.5,361.7z"/>
<path class="st9" d="M242.2,367.1c-0.3,0-0.5-0.2-0.5-0.5c0,0,0,0,0,0c0-0.3,0.2-0.5,0.5-0.5c0,0,0,0,0,0c2.9,0.1,7.6-1.8,7.7-1.8
	c0.3-0.1,0.6,0,0.7,0.3s0,0.6-0.3,0.7l0,0C248.1,366.1,244.5,367.2,242.2,367.1L242.2,367.1z"/>
<path class="st9" d="M243,372.5c-0.3,0-0.5-0.2-0.5-0.5s0.2-0.5,0.5-0.5c2.4-0.3,4.7-0.9,7-1.7c0.2-0.1,0.5,0,0.7,0.2s0,0.5-0.2,0.7
	c0,0-0.1,0-0.1,0C248,371.5,245.5,372.1,243,372.5z"/>
</svg>
