<?xml version="1.0" encoding="utf-8"?>
<!-- Generator: Adobe Illustrator 27.2.0, SVG Export Plug-In . SVG Version: 6.00 Build 0)  -->
<svg version="1.1" id="Calque_1" xmlns="http://www.w3.org/2000/svg" xmlns:xlink="http://www.w3.org/1999/xlink" x="0px" y="0px"
	 viewBox="0 0 512 512" style="enable-background:new 0 0 512 512;" xml:space="preserve">
<style type="text/css">
	.st0{fill:#F5B493;}
	.st1{fill:#86EBF9;}
	.st2{clip-path:url(#SVGID_00000125573943255932134720000007816986678622726576_);}
	.st3{fill:#E73F46;}
	.st4{fill:#CC3745;}
	.st5{fill:#2D1929;}
	.st6{fill:#287EEF;}
	.st7{clip-path:url(#SVGID_00000181045111215026323450000011945134526277101736_);}
	.st8{fill:#EBA284;}
	.st9{fill:#EAEAEA;}
	.st10{fill:#1573D8;}
</style>
<path class="st0" d="M173.7,432.3l-9.6,21.3c4.3,6.4,4.9,11.4,4.4,14.9c-0.4,2.8-1,2.2-2.5,7.8c-2,7.7-1.6,11.9-4.9,14.2
	c-0.9,0.6-1.9,1-2.9,1.1c-3.7,0.3-6.4-3.5-6.4-3.5s-5,4.1-7.9-4c0,0-6.4,4.3-7.8-3.6c0,0-2.5,1-4.3-0.3c-0.4-0.3-1.5-1.1-1.9-3.6
	c-1.7-11.7,4-25.1,4-25.1c3.8-8.8,8.2-17.4,13.3-25.5C156.7,424.3,166.2,426.6,173.7,432.3L173.7,432.3z"/>
<path class="st1" d="M166.6,175.4C139.1,238.2,93,288,35.3,321.6c71.4-20.3,126.1-70.6,156.1-137.3l17.8,5.6
	c-4.9-19.8-9.7-39.5-14.6-59.3l-49.1,38.9L166.6,175.4z"/>
<g>
	<defs>
		<path id="SVGID_1_" d="M292,250c0,0-24.6-11.9-60.8,1.6s-105.3,90.9-156.9,83c0,0-1.9,32.7,26.9,33.6s8.8,18.4,23.7,29.5
			s40.4-1.8,45.9,11s44.1,25.1,64.5,7.9S292,250,292,250L292,250z"/>
	</defs>
	<clipPath id="SVGID_00000114754885267280120040000012180880648708282496_">
		<use xlink:href="#SVGID_1_"  style="overflow:visible;"/>
	</clipPath>
	<g style="clip-path:url(#SVGID_00000114754885267280120040000012180880648708282496_);">
		<path class="st3" d="M292,250c0,0-24.6-11.9-60.8,1.6s-105.3,90.9-156.9,83c0,0-1.9,32.7,26.9,33.6s8.8,18.4,23.7,29.5
			s40.4-1.8,45.9,11s44.1,25.1,64.5,7.9S292,250,292,250L292,250z"/>
		<path class="st4" d="M62.7,364c0,0,34.7,20.6,82.9-21.6s81.9-69,110.2-61.5s54,77,54,77L251,439.6l-67.9,3.7l-103-43.6L62.7,364z"
			/>
	</g>
</g>
<path class="st0" d="M419.3,132.2l19.1-26.2c0,0,10.4-25.6,13.4-27.5s22.5-2.2,25.2,0s6.6,16.8,5.7,21.3s-7.8,4.7-7.8,4.7
	s-5.9,10-8,12.5s-9.4,5.1-9.4,5.1l-15.2,28.9L419.3,132.2z"/>
<path class="st5" d="M469.5,107.4c1.8-5.2-2.7-10-2.8-10.1c-0.2-0.2-0.2-0.4-0.1-0.6c0,0,2-4.1,4-7.3s1.6-8.9,0.6-8.5
	c-1.4,0.5-8.6,7-13.1,11.2c-0.2,0.2-0.5,0.2-0.7,0c-0.2-0.2-0.2-0.5,0-0.7c1.2-1.1,11.5-10.7,13.5-11.5c2.8-1.1,2.7,6.6,0.6,10
	c-1.6,2.6-3.3,5.9-3.8,6.9c1,1.1,4.6,5.7,2.8,10.8c-0.1,0.3-0.3,0.4-0.6,0.4C469.5,108,469.4,107.8,469.5,107.4
	C469.4,107.5,469.4,107.4,469.5,107.4z"/>
<path class="st5" d="M470,98.6c-2.5,0-2.8-2.4-1.9-4.8c0.1-0.3,0.4-0.4,0.7-0.3c0.3,0.1,0.4,0.4,0.3,0.7l0,0c-0.2,0.6-0.7,2.4,0,3.1
	c0.4,0.3,1,0.4,1.5,0.3c2.5-0.3,6.1-6.9,8.8-13.1c0.1-0.3,0.4-0.4,0.7-0.3c0,0,0,0,0,0c0.2,0.1,0.4,0.4,0.3,0.7
	c-2.1,5-6.1,13.3-9.6,13.7C470.4,98.6,470.2,98.6,470,98.6L470,98.6z"/>
<path class="st5" d="M471.8,102.5c-0.9,0-1.7-0.4-2.2-1.1c-0.9-1.4,0.3-3.3,0.5-3.7c0.2-0.2,0.5-0.3,0.7-0.1
	c0.2,0.1,0.3,0.4,0.1,0.7c0,0,0,0,0,0c-0.4,0.6-1,1.9-0.5,2.6c0.3,0.4,0.8,0.6,1.2,0.6c1.8,0.2,5.5-3.7,9.5-10.1
	c0.1-0.2,0.4-0.3,0.7-0.2c0,0,0,0,0,0c0.2,0.1,0.3,0.4,0.2,0.7c0,0,0,0,0,0C479.5,96,474.9,102.5,471.8,102.5z"/>
<path class="st5" d="M475,105.1c-0.9,0-1.9-0.4-2.5-1.1c-0.4-0.6-0.6-1.3-0.5-2.1c0-0.3,0.3-0.5,0.6-0.4c0.3,0,0.5,0.3,0.4,0.6l0,0
	c-0.1,0.5,0.1,0.9,0.3,1.3c0.5,0.5,1.1,0.7,1.7,0.7c0.3,0,0.5,0.2,0.5,0.5C475.5,104.9,475.3,105.1,475,105.1L475,105.1z"/>
<path class="st6" d="M277.3,255.9c58.7-36.7,110.3-83.8,152.4-138.8l22.6,16.5c-26.7,62.5-71.3,118.2-133,159
	c-2.1,0.6-15.1,4.1-27.2-3.7C281.3,282.1,275.6,269.2,277.3,255.9L277.3,255.9z"/>
<g>
	<defs>
		
			<rect id="SVGID_00000075845367518056512170000002196371934965201556_" x="255.2" y="224.3" transform="matrix(0.231 -0.973 0.973 0.231 -12.8089 466.1589)" width="66.5" height="33.9"/>
	</defs>
	<clipPath id="SVGID_00000180336498187202144210000004588657701003124618_">
		<use xlink:href="#SVGID_00000075845367518056512170000002196371934965201556_"  style="overflow:visible;"/>
	</clipPath>
	<g style="clip-path:url(#SVGID_00000180336498187202144210000004588657701003124618_);">
		<path class="st0" d="M279.7,204.9l32.9,7.8l-15.4,64.7l-32.9-7.8L279.7,204.9z"/>
		<path class="st8" d="M277.7,213.4c0,0,2.4,34,29.8,42.2l5.6-23.5L277.7,213.4z"/>
	</g>
</g>
<path class="st0" d="M340.8,199.5c-1.1-7.4-3.1-11.9-3.7-16.8c-1.5-12-0.4-21.3-9.2-29.2c-2.7-3-5.9-5.6-9.3-7.7
	c-12.7-8.7-33.3-8.4-46.9,2.4c-15.7,12.5-14.9,33.1-14.7,38.3c0.9,24,18,39.6,25.5,45.3c4,3.7,8.5,6.8,13.4,9.2
	c5.4,2.7,19.9,9.9,30,2.9c2.6-1.8,6.2-6.3,10.3-16.6C341.4,214,341.9,206.9,340.8,199.5L340.8,199.5z"/>
<g>
	<path class="st5" d="M320.4,210.2c2.4-1.4,3.6-2.9,3.6-4.2c0-3.1-6.4-3.7-8.7-14.7c-0.1-0.3,0.1-0.5,0.4-0.6c0,0,0,0,0,0
		c0.3-0.1,0.5,0.1,0.6,0.3c0,0,0,0,0,0c2.4,11.1,8.7,10.9,8.7,14.9c0,1.7-1.4,3.4-4.1,5.1c-0.2,0.1-0.5,0-0.7-0.2
		C320.1,210.6,320.2,210.3,320.4,210.2L320.4,210.2z"/>
	<path class="st5" d="M325.3,191.7c0.3,2.7,2,4.7,3.7,4.6s2.9-2.6,2.6-5.3s-2-4.7-3.7-4.6S325,189,325.3,191.7"/>
	<path class="st5" d="M298,194.7c0.3,2.7,2,4.7,3.7,4.5s2.9-2.6,2.6-5.3s-2-4.7-3.7-4.5S297.7,192,298,194.7"/>
	<path class="st5" d="M316.3,225.7c-3.6,0-9.2-0.9-12.7-5.7c-0.1-0.2-0.1-0.5,0.2-0.7c0.2-0.1,0.5-0.1,0.6,0.1c5,7,14.9,5.1,15,5.1
		c0.3,0,0.5,0.1,0.6,0.4c0.1,0.3-0.1,0.5-0.4,0.6c0,0,0,0,0,0C318.6,225.6,317.5,225.7,316.3,225.7L316.3,225.7z"/>
	<path class="st5" d="M317.8,178c-0.6,0-1-0.5-1-1c0-0.3,0.1-0.5,0.3-0.7c0.1-0.1,7.1-6.3,15.3-1.9c0.5,0.3,0.7,0.9,0.4,1.4
		c-0.3,0.5-0.9,0.7-1.4,0.4c-7-3.7-12.8,1.4-13,1.6C318.3,177.9,318,178,317.8,178z"/>
	<path class="st5" d="M304.7,180c-0.2,0-0.5-0.1-0.6-0.2c0.1,0-6.3-5-13.1-0.9c-0.5,0.3-1.1,0.1-1.4-0.3c0,0,0,0,0,0
		c-0.3-0.5-0.1-1.1,0.3-1.4c8-4.9,15.3,1,15.4,1c0.4,0.3,0.5,1,0.2,1.4C305.3,179.9,305,180,304.7,180L304.7,180z"/>
</g>
<path class="st6" d="M243.5,258.1c-13.8,8.3-17.5,22.6-22.7,64c-3.3,26.1-7,61.1-9.3,103h96c3.1-11.2,20-72.5,24.8-118.3
	c1.3-12.3,2.5-30.5-10.3-41.8c-1.8-1.5-5-4.1-12.6-6.9C293.6,252.2,263,246.5,243.5,258.1L243.5,258.1z"/>
<path class="st6" d="M270.3,251.4c-13.9,3-27.1,8.3-39.3,15.7c-7.8,4.8-29.5,19.3-54.4,65.4c-17.9,33.3-30.4,69.3-36.9,106.6
	l26.1,10.5l40.8-86.9l47.3-54.7c4-2.5,10-7.9,15.2-16C275.4,282,279.5,267.9,270.3,251.4L270.3,251.4z"/>
<path class="st0" d="M268.6,251.6c0,0,15.2,26.5,24.5,24.7s9.7-22.4,9.7-22.4S281.2,245.2,268.6,251.6z"/>
<path class="st3" d="M200.8,289.2c5.2-14.2,18.3-21.9,29.7-20.6c10.4,1.1,12.3,8.7,23.7,15.2c13.6,7.8,27.9,6,35.4,5.1
	s13.3-1.6,17.9-6.4c6.6-6.9,5.6-17,5.3-19.5c-0.6-5.9-3-11.4-6.7-16c-2.9,10.8-8.3,20.7-15.7,29.1l-14.8-5.3l-13.2-25.6
	c-2.4,0.7-5.7,1.6-9.8,2.9c-20.9,6.5-31.4,9.7-38,15.3C210.5,267,203.9,274.4,200.8,289.2L200.8,289.2z"/>
<path class="st9" d="M271.9,237.7c-4.2-0.1-8,2.6-9.2,6.7c-2.3,7.2-4.8,6.7-4,10.8c0.4,2.2,8.4,36.8,19.7,36.2
	c2.1-0.1,6.9-1.6,12.1-15.3C276.8,268,270.7,253.2,271.9,237.7L271.9,237.7z"/>
<path class="st9" d="M290,276.3c0,0,7.2,12.9,14.1,10.1s1.9-41.2,1.9-41.2l-1.2,0.9C301.7,257,296.7,267.2,290,276.3L290,276.3z"/>
<path class="st10" d="M293.6,408.5c-12.4-5.6,4.1-51-3.1-54.3s-42.3,34.8-51.6,31.1s-3.4-71.9-6.2-71.5c-2.4,0.4-11.7,24.9-14.8,33
	c-2.4,22.1-4.8,48.5-6.4,78.4h96c0.8-2.9,2.5-9,4.7-17.4C307.5,409.9,300.6,411.6,293.6,408.5L293.6,408.5z"/>
<path class="st10" d="M332.1,283.7c0,0-7-16.3-12-22.3s19.1,2.3,30.7-1.6c6.8-2.3,13.5-5.1,19.9-8.4
	C359.5,263.9,346.4,274.7,332.1,283.7z"/>
<path class="st5" d="M266.7,196.2c0,0,7.4-4.2,5.8-20.8s9.3-20.8,9.3-20.8s36.8,15,51.6,6s1.3-29.4-8.1-33.1c0,0,0.4,9.5-9.5,4.9
	s-41.8-7.9-51,10c-6.4,2.2-18.7,7.6-23.9,19.3c-8.1,18.4,4,47.2,34.1,63.6L266.7,196.2z"/>
<path class="st0" d="M255.1,202.3c2.8,6.5,9.4,9.8,14.8,7.5s7.4-9.5,4.5-16s-9.4-9.8-14.8-7.5S252.3,195.8,255.1,202.3"/>
<path class="st5" d="M270.2,203.7c-2.1-0.2-3.9-1.9-4.1-4c-0.3-2.1,2.2-3.1,3.4-3.4c-4.6-8.7-10.7-6.7-10.4-1.6
	c0,0.3-0.2,0.5-0.5,0.5c0,0,0,0,0,0c-0.3,0-0.5-0.2-0.5-0.5c-0.1-1.7,0.6-5.1,4.1-5.4c5-0.4,8.3,6.8,8.4,7.1c0.1,0.3,0,0.5-0.2,0.7
	c0,0-0.1,0-0.1,0c0,0-3.5,0.7-3.2,2.5c0.3,1.7,1.6,2.9,3.3,3.1c0.3,0,0.5,0.3,0.5,0.6C270.7,203.5,270.5,203.7,270.2,203.7
	L270.2,203.7z"/>
</svg>
