<?xml version="1.0" encoding="iso-8859-1"?>
<!-- Generator: Adobe Illustrator 26.5.1, SVG Export Plug-In . SVG Version: 6.00 Build 0)  -->
<svg xmlns="http://www.w3.org/2000/svg" xmlns:xlink="http://www.w3.org/1999/xlink" version="1.1" id="Capa_1" x="0px" y="0px" viewBox="0 0 512 512" style="enable-background:new 0 0 512 512;" xml:space="preserve">
<g>
	<path style="fill:#B1B9C6;" d="M373.047,335.52c3.571-38.793-20.089-62.431-20.089-62.431l-177.666,9.921   c0,0-52.004,19.184-52.004,72.104c0,0,102.83,54.336,200.713,20.267C349.876,364.829,373.047,335.52,373.047,335.52z"/>
	<path style="fill:#678490;" d="M373.054,341.032c-0.169,0-0.34-0.008-0.512-0.023c-3.031-0.279-5.261-2.962-4.982-5.992   c3.274-35.578-18.29-57.819-18.508-58.04c-2.136-2.159-2.128-5.645,0.024-7.787c2.154-2.144,5.629-2.144,7.776,0.002   c1.04,1.04,25.445,25.936,21.681,66.835C378.271,338.884,375.869,341.032,373.054,341.032z"/>
	<path style="fill:#678490;" d="M123.287,360.625c-3.043,0-5.51-2.467-5.51-5.51c0-23.271,9.64-44.032,27.877-60.039   c13.612-11.948,27.159-17.025,27.73-17.235c2.857-1.054,6.024,0.408,7.077,3.263c1.053,2.852-0.405,6.018-3.256,7.074   c-0.21,0.079-12.51,4.757-24.558,15.425c-15.826,14.013-23.849,31.344-23.849,51.512   C128.798,358.158,126.33,360.625,123.287,360.625z"/>
	<g>
		<path style="fill:#B1B9C6;" d="M411.67,11.096c-18.971-18.971-79.408,15.537-106.026,32.268    c-13.175-2.191-30.168-3.09-49.629-3.003c-19.464-0.087-36.46,0.813-49.635,3.004c-26.627-16.743-87.06-51.228-106.02-32.268    c-18.83,18.83,2.669,70.524,13.71,93.557c-13.058,22.054-17.825,46.207-17.825,67.006c0,17.985,2.143,35.948,6.451,53.91    c8.411,35.058,36.13,61.98,71.463,69.137c27.286,5.517,54.571,8.275,81.857,8.275c27.286,0,54.571-2.758,81.857-8.275    c35.332-7.157,63.051-34.079,71.462-69.137c4.308-17.963,6.451-35.925,6.451-53.91c0-20.794-4.765-44.941-17.815-66.99    C408.983,81.659,430.507,29.932,411.67,11.096z"/>
		<g>
			<path style="fill:#91A2B5;" d="M275.333,53.197c0,29.77-8.662,53.887-19.307,53.887c-10.668,0-19.33-24.117-19.33-53.887     c0-4.08,0.16-8.047,0.479-11.853c12.56-0.57,25.12-0.57,37.68,0.022C275.174,45.173,275.333,49.14,275.333,53.197z"/>
			<g>
				<path style="fill:#91A2B5;" d="M233.847,43.418c0,29.747-8.64,53.887-19.308,53.887c-10.258,0-18.692-22.453-19.284-50.719      c6.633-1.733,13.494-2.963,20.516-3.67c6.018-0.593,12.035-1.072,18.053-1.391C233.847,42.164,233.847,42.78,233.847,43.418z"/>
				<path style="fill:#91A2B5;" d="M316.775,46.336c-0.547,28.38-8.981,50.969-19.285,50.969c-10.668,0-19.307-24.14-19.307-53.887      c0-0.639,0-1.254,0.023-1.892c6.907,0.365,13.837,0.934,20.744,1.664C305.035,43.828,310.985,44.9,316.775,46.336z"/>
			</g>
		</g>
		<path style="fill:#FFFFFF;" d="M389.445,56.891c0,0,3.077,6.975,3.579,14.794c0.479,7.226-3.875,12.742-9.574,15.044    c-11.968-13.608-26.739-24.732-43.425-32.46c0.16-3.921,1.801-7.773,4.992-10.668c12.811-11.648,30.522-24.209,43.06-19.102    C409.915,33.413,389.445,56.891,389.445,56.891z"/>
		<path style="fill:#FFFFFF;" d="M122.568,56.891c0,0-3.078,6.975-3.579,14.794c-0.479,7.226,3.875,12.742,9.574,15.044    c11.968-13.608,26.739-24.732,43.425-32.46c-0.16-3.921-1.801-7.773-4.992-10.668c-12.811-11.648-30.523-24.209-43.06-19.102    C102.098,33.413,122.568,56.891,122.568,56.891z"/>
		<path style="fill:#678490;" d="M415.558,7.193c-10.071-10.071-28.418-9.572-56.086,1.526    c-19.964,8.008-40.623,19.913-55.008,28.886c-12.632-1.918-28.834-2.848-48.426-2.756c-19.621-0.084-35.84,0.844-48.481,2.76    C167.374,12.543,116.18-12.536,96.454,7.193c-20.072,20.072-2.13,68.375,11.387,97.188    c-14.451,25.723-17.106,51.728-17.106,67.279c0,18.357,2.221,36.928,6.602,55.196c8.872,36.977,38.597,65.73,75.73,73.253    c27.516,5.563,55.424,8.384,82.948,8.383c27.523,0,55.432-2.821,82.951-8.384c37.131-7.522,66.855-36.275,75.727-73.253    c4.381-18.271,6.603-36.841,6.603-55.196c0-15.55-2.656-41.554-17.105-67.276C417.685,75.561,435.602,27.237,415.558,7.193z     M403.975,224.284c-7.875,32.825-34.252,58.347-67.195,65.022c-26.8,5.418-53.974,8.165-80.766,8.165    c-26.792,0.001-53.965-2.747-80.762-8.165c-32.947-6.674-59.323-32.197-67.198-65.022c-4.18-17.427-6.299-35.133-6.299-52.625    c0-19.352,4.423-56.285,34.045-86.208c2.141-2.163,2.123-5.651-0.04-7.792c-2.162-2.141-5.65-2.124-7.793,0.04    c-4.992,5.042-9.324,10.263-13.091,15.562c-17.233-38.71-21.263-67.642-10.63-78.275c10.24-10.238,43.357-0.256,87.71,26.039    c-7.787,2.299-15.27,5.029-22.238,8.163c-2.776,1.249-4.013,4.51-2.765,7.286c0.918,2.042,2.925,3.251,5.028,3.251    c0.755,0,1.524-0.157,2.257-0.486c7.016-3.156,14.591-5.899,22.51-8.153c12.612-3.581,32.545-5.345,59.291-5.216    c26.707-0.114,46.629,1.635,59.239,5.215c7.926,2.256,15.5,4.999,22.512,8.153c2.773,1.247,6.037,0.012,7.286-2.764    c1.248-2.775,0.011-6.037-2.764-7.286c-6.97-3.136-14.458-5.867-22.257-8.169c44.339-26.308,77.459-36.288,87.711-26.034    c10.615,10.615,6.591,39.546-10.615,78.273c-3.766-5.299-8.098-10.519-13.089-15.561c-2.142-2.164-5.63-2.181-7.793-0.04    c-2.163,2.141-2.181,5.63-0.04,7.792c29.623,29.925,34.046,66.857,34.046,86.208C410.275,189.149,408.156,206.855,403.975,224.284    z"/>
		<g>
			<g>
				<path style="fill:#91A2B5;" d="M378.195,240.139h-28.319c-3.043,0-5.51-2.467-5.51-5.51s2.467-5.51,5.51-5.51h28.319      c3.043,0,5.51,2.467,5.51,5.51S381.238,240.139,378.195,240.139z"/>
				<path style="fill:#91A2B5;" d="M373.046,266.744c-0.635,0-1.282-0.111-1.913-0.344l-23.17-8.582      c-2.854-1.057-4.311-4.228-3.253-7.081c1.056-2.853,4.224-4.312,7.081-3.254l23.17,8.582c2.854,1.057,4.311,4.228,3.253,7.081      C377.391,265.368,375.285,266.744,373.046,266.744z"/>
			</g>
			<g>
				<path style="fill:#91A2B5;" d="M180.389,240.139h-28.32c-3.043,0-5.51-2.467-5.51-5.51s2.467-5.51,5.51-5.51h28.32      c3.043,0,5.51,2.467,5.51,5.51S183.432,240.139,180.389,240.139z"/>
				<path style="fill:#91A2B5;" d="M157.22,266.744c-2.24,0-4.345-1.375-5.168-3.598c-1.058-2.853,0.399-6.024,3.253-7.081      l23.17-8.582c2.857-1.057,6.025,0.401,7.081,3.254c1.058,2.854-0.399,6.024-3.253,7.081l-23.17,8.582      C158.502,266.633,157.855,266.744,157.22,266.744z"/>
			</g>
		</g>
		<g>
			<path style="fill:#FFFFFF;" d="M321.456,174.137H306.6c-3.043,0-5.51-2.467-5.51-5.51c0-3.043,2.467-5.51,5.51-5.51h14.856     c3.043,0,5.51,2.467,5.51,5.51C326.967,171.67,324.499,174.137,321.456,174.137z"/>
			<path style="fill:#FFFFFF;" d="M223.665,174.137h-14.856c-3.043,0-5.51-2.467-5.51-5.51c0-3.043,2.467-5.51,5.51-5.51h14.856     c3.043,0,5.51,2.467,5.51,5.51C229.175,171.67,226.708,174.137,223.665,174.137z"/>
		</g>
		<path style="fill:#678490;" d="M296.543,207.039c-2.951-0.739-5.945,1.052-6.686,4.003c-1.087,4.333-4.974,7.359-9.453,7.359    c-5.382,0-9.76-4.375-9.76-9.752c0-0.165-0.01-0.328-0.025-0.49h2.467c3.043,0,5.51-2.467,5.51-5.51c0-3.043-2.467-5.51-5.51-5.51    H257.18c-3.043,0-5.51,2.467-5.51,5.51c0,3.043,2.467,5.51,5.51,5.51h2.468c-0.014,0.162-0.025,0.325-0.025,0.49    c0,5.377-4.375,9.752-9.753,9.752c-4.484,0-8.375-3.026-9.462-7.359c-0.742-2.952-3.736-4.745-6.686-4.003    c-2.952,0.741-4.744,3.734-4.004,6.686c2.32,9.242,10.607,15.697,20.152,15.697c6.029,0,11.466-2.581,15.264-6.697    c3.8,4.115,9.239,6.697,15.27,6.697c9.54,0,17.823-6.455,20.143-15.697C301.288,210.773,299.495,207.779,296.543,207.039z"/>
		<path style="fill:#605C5D;" d="M343.176,205.833h-31.42c-3.043,0-5.51-2.467-5.51-5.51c0-3.043,2.467-5.51,5.51-5.51h31.42    c3.043,0,5.51,2.467,5.51,5.51C348.686,203.366,346.218,205.833,343.176,205.833z"/>
		<path style="fill:#605C5D;" d="M217.891,205.833h-31.419c-3.043,0-5.51-2.467-5.51-5.51c0-3.043,2.467-5.51,5.51-5.51h31.419    c3.043,0,5.51,2.467,5.51,5.51C223.402,203.366,220.934,205.833,217.891,205.833z"/>
	</g>
	<g>
		
			<rect x="148.059" y="317.046" transform="matrix(-0.8136 -0.5814 0.5814 -0.8136 94.2837 731.0276)" style="fill:#FFBF8C;" width="32.509" height="66.71"/>
		<path style="fill:#FF9D6F;" d="M158.147,392.501c-1.142,0-2.263-0.355-3.203-1.027l-26.45-18.901    c-2.476-1.769-3.05-5.211-1.28-7.687l38.784-54.277c0.849-1.189,2.137-1.992,3.578-2.232c1.442-0.241,2.92,0.102,4.108,0.952    l26.45,18.901c2.476,1.769,3.05,5.211,1.28,7.687l-38.785,54.277c-0.849,1.189-2.137,1.992-3.578,2.232    C158.75,392.476,158.448,392.501,158.147,392.501z M139.384,366.81l17.483,12.493l32.377-45.31L171.761,321.5L139.384,366.81z"/>
		<path style="fill:#FFFF9D;" d="M153.585,296.88c-7.081-27.339,14.123-56.48,47.361-65.089    c33.238-8.609,65.923,6.573,73.005,33.912c0.813,3.139,2.027,7.827,2.84,10.965c7.081,27.339-14.123,56.48-47.361,65.089    c-33.238,8.609-65.923-6.573-73.004-33.912C155.612,304.706,154.398,300.019,153.585,296.88z"/>
		<path style="fill:#DDFCFC;" d="M225.118,325.108c23.598-6.112,39.637-26.32,35.025-44.128    c-4.612-17.807-28.445-27.687-52.043-21.575c-23.6,6.113-39.639,26.321-35.026,44.128    C177.686,321.341,201.518,331.221,225.118,325.108z"/>
		<path style="fill:#FFCC6B;" d="M173.069,309.045c-2.451,0-4.688-1.647-5.33-4.13c-5.362-20.699,12.489-43.983,38.979-50.844    c12.564-3.256,25.574-2.522,36.633,2.061c11.426,4.737,19.49,13.29,22.125,23.466c0.763,2.946-1.007,5.953-3.953,6.716    c-2.946,0.763-5.953-1.007-6.716-3.953c-1.787-6.899-7.355-12.598-15.678-16.049c-8.73-3.62-19.537-4.193-29.649-1.574    c-20.35,5.271-34.87,22.753-31.074,37.412c0.763,2.946-1.007,5.952-3.953,6.716C173.992,308.988,173.526,309.045,173.069,309.045z    "/>
		<path style="fill:#FFCC6B;" d="M210.69,349.688c-10.522,0-20.736-2.155-29.893-6.41c-15.311-7.112-25.861-19.205-29.706-34.052    l-2.84-10.964c0,0,0,0,0,0c-3.846-14.847-0.493-30.541,9.44-44.192c9.694-13.323,24.566-23.13,41.874-27.613    c17.31-4.485,35.072-3.13,50.014,3.812c15.311,7.112,25.861,19.205,29.706,34.052l2.84,10.965    c3.846,14.847,0.493,30.542-9.44,44.192c-9.695,13.323-24.565,23.13-41.874,27.613    C224.109,348.827,217.338,349.688,210.69,349.688z M158.92,295.498l2.84,10.965c3.004,11.598,11.414,21.124,23.68,26.821    c12.633,5.869,27.766,6.983,42.608,3.139c14.842-3.845,27.53-12.165,35.726-23.429c7.958-10.936,10.686-23.346,7.682-34.944    l-2.84-10.966c-3.004-11.597-11.414-21.122-23.68-26.82c-12.633-5.869-27.765-6.983-42.608-3.139    c-14.842,3.845-27.53,12.165-35.726,23.429C158.645,271.49,155.916,283.901,158.92,295.498L158.92,295.498z"/>
		<g>
			<path style="fill:#B1B9C6;" d="M122.084,399.934c14.505,10.365,34.666,7.008,45.03-7.496c10.365-14.505,7.008-34.665-7.497-45.03     c-14.505-10.365-27.922-2.19-38.287,12.315C110.966,374.227,107.579,389.569,122.084,399.934z"/>
			<path style="fill:#678490;" d="M140.77,411.469c-7.81,0-15.409-2.421-21.89-7.052l0,0c-0.001,0,0,0,0,0     c-8.295-5.927-12.446-13.983-12.004-23.297c0.359-7.568,3.713-15.845,9.971-24.601c6.256-8.756,13-14.611,20.043-17.403     c8.67-3.435,17.637-2.118,25.929,3.808c8.213,5.869,13.649,14.584,15.307,24.541c1.657,9.957-0.661,19.964-6.531,28.176     c-5.867,8.213-14.583,13.648-24.54,15.306C144.958,411.296,142.855,411.469,140.77,411.469z M146.421,348.272     c-1.819,0-3.638,0.364-5.469,1.09c-4.969,1.969-10.204,6.66-15.138,13.565c-4.934,6.905-7.675,13.376-7.929,18.716     c-0.263,5.544,2.158,10.062,7.403,13.809l0,0c5.818,4.157,12.904,5.8,19.959,4.626c7.053-1.174,13.227-5.025,17.384-10.843     c4.157-5.818,5.8-12.905,4.626-19.959c-1.175-7.053-5.025-13.227-10.842-17.384C153.032,349.474,149.726,348.272,146.421,348.272     z"/>
		</g>
	</g>
	<g>
		<polygon style="fill:#FFFFFF;" points="415.348,377.169 318.57,328.378 241.999,364.94 241.999,391.983 179.609,421.774     249.587,482.794 269.404,473.44 307.305,506.49 410.676,457.699 386.605,445.564 415.348,431.997   "/>
		<path style="fill:#777677;" d="M317.493,406.232c-1.985,0-3.902-1.075-4.886-2.955c-1.412-2.696-0.371-6.026,2.326-7.438    l50.363-26.37c2.694-1.41,6.026-0.369,7.437,2.326c1.412,2.696,0.371,6.026-2.326,7.438l-50.363,26.37    C319.228,406.029,318.354,406.232,317.493,406.232z"/>
		<path style="fill:#777677;" d="M300.633,394.078c-1.985,0-3.902-1.075-4.886-2.955c-1.412-2.696-0.371-6.026,2.326-7.438    l50.363-26.37c2.694-1.41,6.026-0.37,7.437,2.326c1.412,2.696,0.371,6.026-2.326,7.438l-50.363,26.37    C302.369,393.876,301.494,394.078,300.633,394.078z"/>
		<path style="fill:#777677;" d="M285.318,382.489c-1.985,0-3.902-1.075-4.886-2.955c-1.412-2.696-0.371-6.026,2.326-7.438    l50.363-26.37c2.694-1.411,6.026-0.369,7.437,2.326c1.412,2.696,0.371,6.026-2.326,7.438l-50.363,26.37    C287.054,382.286,286.179,382.489,285.318,382.489z"/>
		<path style="fill:#E3E3E3;" d="M417.829,372.249l-96.779-48.791c-1.521-0.769-3.316-0.788-4.855-0.052l-76.57,36.562    c-1.916,0.915-3.136,2.85-3.136,4.973v23.568l-59.254,28.29c-1.674,0.799-2.833,2.388-3.085,4.226    c-0.251,1.838,0.439,3.68,1.837,4.9l69.981,61.024c1.024,0.893,2.317,1.357,3.623,1.357c0.798,0,1.602-0.173,2.352-0.527    l16.557-7.818l35.186,30.683c1.024,0.893,2.317,1.357,3.623,1.357c0.797,0,1.601-0.173,2.351-0.527l103.363-48.792    c1.905-0.899,3.131-2.806,3.158-4.911c0.026-2.106-1.149-4.044-3.03-4.992l-13.985-7.05l18.533-8.748    c1.928-0.91,3.158-2.85,3.158-4.983v-54.828C420.859,375.088,419.687,373.185,417.829,372.249z M318.504,334.516l84.28,42.49    l-89.901,42.433l-60.941-53.14L318.504,334.516z M247.51,377.056l58.957,51.41v5.368l-34.328-29.933    c-1.877-1.637-4.725-1.441-6.361,0.435c-1.637,1.877-1.442,4.725,0.435,6.361l40.253,35.1v6.698l-24.384-21.263    c-1.879-1.637-4.726-1.441-6.362,0.435c-1.637,1.877-1.442,4.725,0.435,6.361l30.31,26.43v4.214l-58.957-51.41V377.056z     M250.496,476.274l-60.944-53.144l46.937-22.41v19.048c0,1.592,0.689,3.107,1.889,4.153l11.07,9.653l-14.495,6.918    c-1.675,0.799-2.834,2.388-3.086,4.227c-0.251,1.838,0.439,3.68,1.838,4.9l25.728,22.435L250.496,476.274z M308.215,499.969    l-60.944-53.143l11.229-5.359l49.857,43.475c1.023,0.893,2.316,1.357,3.622,1.357c0.797,0,1.601-0.173,2.351-0.527l72.195-34.076    l11.584,5.84L308.215,499.969z M409.838,428.504l-92.351,43.589v-6.428l61.054-28.818c2.251-1.062,3.215-3.75,2.152-6.001    c-1.062-2.252-3.75-3.216-6.001-2.152l-57.205,27.001v-8.69l45.726-21.582c2.251-1.062,3.215-3.75,2.152-6.001    c-1.062-2.252-3.75-3.216-6.001-2.152l-41.877,19.766v-7.583l92.351-43.589V428.504z"/>
	</g>
	<g>
		<path style="fill:#B1B9C6;" d="M336.659,320.541c-12.46,12.75-12.225,33.187,0.525,45.647c12.75,12.46,33.187,12.225,45.647-0.525    c12.46-12.75,6.432-27.259-6.317-39.719C363.763,313.484,349.119,307.791,336.659,320.541z"/>
		<path style="fill:#678490;" d="M359.741,380.874c-9.533,0.001-19.069-3.573-26.409-10.745    c-7.219-7.055-11.258-16.499-11.375-26.592c-0.115-10.094,3.706-19.628,10.761-26.847c13.105-13.408,30.47-11.471,47.646,5.314    c17.176,16.785,19.511,34.103,6.408,47.512C379.38,377.078,369.563,380.874,359.741,380.874z M352.18,318.816    c-6.131,0-9.832,3.788-11.579,5.576l0,0c-4.998,5.114-7.705,11.867-7.623,19.018c0.082,7.15,2.943,13.839,8.057,18.837    c10.557,10.318,27.54,10.121,37.855-0.435c12.917-13.217-1.493-27.3-6.227-31.927C363.992,321.412,357.254,318.816,352.18,318.816    z M336.659,320.541h0.01H336.659z"/>
	</g>
</g>
<g>
</g>
<g>
</g>
<g>
</g>
<g>
</g>
<g>
</g>
<g>
</g>
<g>
</g>
<g>
</g>
<g>
</g>
<g>
</g>
<g>
</g>
<g>
</g>
<g>
</g>
<g>
</g>
<g>
</g>
</svg>
