<svg id="Brush" height="512" viewBox="0 0 512 512" width="512" xmlns="http://www.w3.org/2000/svg"><path d="m356.79 149.47s-8.78 8.12 19.67 47.16 18.25 86.61-38.69 106.71-150.07 6.38-163.77-25.5 10.83-58.46 14-81.21-3.5-59 .07-83.55 137.28-16.47 168.72 36.39z" fill="#383333"/><path d="m227 243.49c-7.77 0-25.4 1.14-38.68 13.83-1.18 1.13-4.75 4.66-9.32 12.59-10.67 18.51-11.5 34.46-14.69 51.41a219.92 219.92 0 0 1 -13.73 45.11l25.32 23.62a17.56 17.56 0 0 0 2.94 0c17.09-1.51 28-29.4 39.23-59.17 6.14-16.24 9.21-24.36 11-35.3a132.77 132.77 0 0 0 -2.07-52.09z" fill="#ffdb99"/><path d="m207.07 134.77c-.85-.78-5.45-4.9-11.87-4.28-.94.09-4.68.46-7.15 2.89-6.41 6.28-3.43 25.58 8 30.28 6.39 2.62 13-.29 15.28-1.39q-2.12-13.76-4.26-27.5z" fill="#ffc871"/><path d="m340.72 131.55c.81-.82 5.2-5.16 11.65-4.84.95 0 4.7.23 7.28 2.53 6.7 6 4.66 25.39-6.54 30.63-6.26 2.94-13 .35-15.34-.65q1.49-13.83 2.95-27.67z" fill="#ffc871"/><path d="m200.42 157.5a.35.35 0 0 1 -.25-.1c-2.88-2.65-4.22-5.43-4-8.27.29-3.55 2.93-6.23 4.44-7.49l-9.66.68a.38.38 0 0 1 -.4-.35.38.38 0 0 1 .35-.4l10.91-.76a.34.34 0 0 1 .38.25.37.37 0 0 1 -.15.44c-.05 0-4.76 3.18-5.12 7.69-.22 2.6 1 5.18 3.74 7.66a.38.38 0 0 1 0 .53.39.39 0 0 1 -.24.12z" fill="#383333"/><path d="m348.05 154a.36.36 0 0 1 -.26-.11.38.38 0 0 1 0-.53c2.58-2.61 3.71-5.24 3.38-7.83-.59-4.49-5.45-7.41-5.5-7.44a.4.4 0 0 1 -.17-.43.38.38 0 0 1 .36-.27l10.94.24a.37.37 0 0 1 .36.38.42.42 0 0 1 -.38.37l-9.67-.21c1.56 1.18 4.33 3.73 4.79 7.26.37 2.83-.84 5.67-3.58 8.45a.37.37 0 0 1 -.27.12z" fill="#383333"/><path d="m247.46 187.26c4.08 24.94-1.22 37.56-7.85 44.46-14.05 14.62-32.61 7.47-45.11 20.28-16.05 16.4-3.59 48.56 3.27 83.69 5.6 28.72 9.63 70.62.64 124.88 15.41 5.16 34.47 9.41 56.44 12.14 32.57 4 73.85 4 108.66-12.14-12.27-41.44-14.19-75.56-13.4-100 1.83-56.33 19.29-98.71-2-116.39-11.8-9.82-25.1-3.33-37.92-16.34-12.2-12.38-13.2-31.45-11.94-46.26-1.69-1.42-12.15-9.92-27.13-8a36.05 36.05 0 0 0 -23.66 13.68z" fill="#ffdb99"/><path d="m320.42 234.67a66 66 0 0 1 -45.33 15.22c-27.36-1.47-39.95-14.31-39.95-14.31a139.78 139.78 0 0 0 -25.75 6.7c-10.69 3.9-12.87 6.2-13.61 7-5.79 6.53-3.82 14.53-4.67 28.33s-3.66 19.46-5.33 28.67c-5.34 29.39 10.54 41.72 12.6 79.27l-12 78.6s119.44 39.72 181.72-2.95a388.4 388.4 0 0 1 -10.28-87.2c-.11-64.09 16.28-105-6.37-127-9.83-9.61-23.04-11.76-31.03-12.33z" fill="#ffb833"/><path d="m403.56 401.13 4.93-13a2 2 0 0 1 3.7.08l4.3 13.1a2 2 0 0 0 1.25 1.25l9 3a2 2 0 0 1 0 3.71l-9.21 3.29a2 2 0 0 0 -1.2 1.23l-4.94 14.91a2 2 0 0 1 -3.74-.07l-4.3-14.79a2 2 0 0 0 -1.21-1.3l-9.09-3.31a2 2 0 0 1 0-3.69l9.29-3.26a2 2 0 0 0 1.22-1.15z" fill="#ffb833"/><path d="m105.21 401.13 4.93-13a2 2 0 0 1 3.7.08l4.29 13.1a2 2 0 0 0 1.25 1.25l9 3a2 2 0 0 1 0 3.71l-9.2 3.29a2 2 0 0 0 -1.18 1.24l-4.93 14.91a2 2 0 0 1 -3.75-.07l-4.32-14.79a1.94 1.94 0 0 0 -1.21-1.3l-9.08-3.31a2 2 0 0 1 0-3.69l9.28-3.26a2 2 0 0 0 1.22-1.16z" fill="#ffb833"/><path d="m150.55 53.06 6.12-16.12a2.44 2.44 0 0 1 4.6.11l5.34 16.27a2.46 2.46 0 0 0 1.55 1.56l11.16 3.7a2.44 2.44 0 0 1 .05 4.61l-11.44 4.09a2.39 2.39 0 0 0 -1.49 1.53l-6.14 18.52a2.43 2.43 0 0 1 -4.65-.09l-5.34-18.38a2.47 2.47 0 0 0 -1.51-1.61l-11.29-4.11a2.44 2.44 0 0 1 0-4.59l11.53-4a2.45 2.45 0 0 0 1.51-1.49z" fill="#ffb833"/><path d="m96.57 272.71c3.75 11.75 40.38 123.89 77.8 120.37a21.27 21.27 0 0 0 14.89-8.62c22.05-31-56.92-120-65.4-129.44a74.07 74.07 0 0 1 -27.29 17.69z" fill="#ffdb99"/><path d="m344.17 215.64c6.53 10.47 68.3 111 41.38 137.22a21.23 21.23 0 0 1 -16.2 5.77c-37.88-3.24-54.62-121-56.32-133.63a74.15 74.15 0 0 0 31.14-9.36z" fill="#ffdb99"/><circle cx="274.12" cy="118.66" fill="#ffdb99" r="77.97"/><path d="m196.14 121.58c5.19 44.59 28.91 79.3 60.86 87.84a63.71 63.71 0 0 0 32.46-.09c32.38-8.55 56.61-42.59 63.21-86.32 0-.01-107.67-69.87-156.53-1.43z" fill="#ffdb99"/><path d="m228.29 125.25a25.41 25.41 0 0 1 14.48-5.12c3.55-.17 8.36-.41 9.9 2.34a3.87 3.87 0 0 1 0 3.92c-1.61 2.28-5.84.36-12.61.46-8.91.13-14.62 3.65-15.23 2.39-.45-.92 2.36-3.12 3.46-3.99z" fill="#383333"/><path d="m318 123.66a25.47 25.47 0 0 0 -14.8-4.13c-3.55.07-8.36.16-9.71 3a3.87 3.87 0 0 0 .26 3.91c1.77 2.16 5.86 0 12.62-.4 8.89-.47 14.83 2.65 15.36 1.35.35-.93-2.6-2.94-3.73-3.73z" fill="#383333"/><path d="m274.28 157.66c-3.27 0-6.87-.41-7.63-2.1-1.26-2.84 4.05-16.16 4.65-17.67a.51.51 0 0 1 .66-.28.5.5 0 0 1 .27.65c-2.24 5.55-5.49 15.05-4.67 16.89s7.71 1.67 11.9 1.22a.51.51 0 0 1 .55.44.5.5 0 0 1 -.44.55 50.79 50.79 0 0 1 -5.29.3z" fill="#383333"/><ellipse cx="231.96" cy="159.36" fill="#ffc871" rx="10.05" ry="6.32" transform="matrix(1 -.024 .024 1 -3.77 5.63)"/><ellipse cx="313.41" cy="159.36" fill="#ffc871" rx="10.05" ry="6.32" transform="matrix(1 -.024 .024 1 -3.75 7.59)"/><path d="m273.74 211.48a68.78 68.78 0 0 1 -25.12-4.63.5.5 0 0 1 -.26-.66.51.51 0 0 1 .66-.26c.24.11 24.71 10.67 50-.76a.51.51 0 0 1 .67.25.5.5 0 0 1 -.25.66 62.08 62.08 0 0 1 -25.7 5.4z" fill="#383333"/><path d="m273.45 182h-.12a9.37 9.37 0 0 1 -5-1.54.38.38 0 0 1 -.11-.52.37.37 0 0 1 .52-.1 8.79 8.79 0 0 0 4.62 1.41h.11a8.74 8.74 0 0 0 4.73-1.41.37.37 0 1 1 .41.62 9.47 9.47 0 0 1 -5.16 1.54z" fill="#383333"/><path d="m359.65 129.24s-3.79-1.7-5.26 1c-1 1.78-1.9 7.86-6.39 10.1-3.55 1.77-8.4.09-10.23-.68-18.6-7.86-18.23-65.82-46.16-80.38-5.29-2.75-13.75-5.08-27.12-1.94-18.35-1.81-27.56 3.08-32.53 7.52-19.96 17.81-12.96 65.29-24.65 71.44-9.83 5.19-12.64-5.17-15.37-5.16a8 8 0 0 0 -4.11.9c-2.31-15.16-2.58-35.12 5.06-56.07 4.68-12.84 9.37-25.7 22.56-33.34 17.76-10.3 37.73-3.45 41.85-1.94 3.36-1.68 42-20.29 70.94-1 13.62 9.09 19.65 23 23.86 32.69 10.32 23.79 9.03 45.71 7.55 56.86z" fill="#383333"/><path d="m227.61 138.12c.14-.12 1.32 2 2.87 1.84 1.14-.1 1.45-1.35 2.91-2.44a7.32 7.32 0 0 1 4.34-1.36 15.46 15.46 0 0 1 -2.5 3.56c-1.42 1.52-2.33 2.49-3.56 2.5-2.48.02-4.24-3.95-4.06-4.1z" fill="#383333" fill-rule="evenodd"/><path d="m233.39 137.52a12.77 12.77 0 0 1 7.81-1.79c4.87.31 9.18 5.13 9.18 5.64s-4.39-3.17-9.06-3.15-6.12 3.59-9.4 4z" fill="#383333" fill-rule="evenodd"/><path d="m316 138.35c-.13-.11-1.32 2-2.87 1.84-1.14-.1-1.44-1.35-2.9-2.44a7.34 7.34 0 0 0 -4.34-1.35 15.89 15.89 0 0 0 2.5 3.56c1.42 1.51 2.33 2.49 3.56 2.5 2.43.01 4.19-3.96 4.05-4.11z" fill="#383333" fill-rule="evenodd"/><path d="m310.18 137.75a12.86 12.86 0 0 0 -7.81-1.79c-4.87.32-9.18 5.13-9.19 5.65s4.4-3.18 9.07-3.15 6.12 3.58 9.4 4z" fill="#383333" fill-rule="evenodd"/><path d="m314.45 234.67s-5.16-19.84-1-29 14-16.74 17.54-26.58 3.25-15.23 8.15-15.72 6.86 18.38 5.39 30.15 1.36 24.89 1.36 24.89-21.26 17.72-31.44 16.26z" fill="#ffdb99"/><path d="m331 179.55a.51.51 0 0 1 -.46-.55c.06-.66 1.5-16.18 8.42-16.18h.26a.5.5 0 0 1 .47.52.48.48 0 0 1 -.53.48c-6.17-.31-7.61 15.11-7.62 15.26a.5.5 0 0 1 -.54.47z" fill="#383333"/><path d="m315 238.76a.5.5 0 0 1 -.49-.4l-1.46-7.5a.5.5 0 0 1 .4-.58.51.51 0 0 1 .59.39l1.45 7.5a.5.5 0 0 1 -.39.59z" fill="#383333"/><g fill="#fff"><path d="m259.8 165.69a62.74 62.74 0 0 0 30.57 0c-7.15 10.47-12.33 12.06-16 12.19-9.66.32-14.57-12.19-14.57-12.19z"/><path d="m344.24 124.76a8.57 8.57 0 0 1 -3.6-.81c-8.78-4-15-22.38-21-40.1-4.2-12.39-8.17-24.08-12.62-29.56-11.95-14.73-39.57-2-39.84-1.83a.5.5 0 0 1 -.67-.24.49.49 0 0 1 .24-.66c.28-.14 28.61-13.23 41 2.1 4.56 5.62 8.56 17.39 12.79 29.87 5.95 17.52 12.1 35.64 20.48 39.51a7.53 7.53 0 0 0 6.2.12.5.5 0 0 1 .65.28.5.5 0 0 1 -.28.65 9.08 9.08 0 0 1 -3.35.67z"/><path d="m349.65 110.51a5.08 5.08 0 0 1 -2.15-.51c-9.6-4.49-18.76-38.28-19.15-39.72a.5.5 0 0 1 .35-.61.51.51 0 0 1 .62.35c.09.35 9.42 34.78 18.61 39.07a3.57 3.57 0 0 0 3.18.09.5.5 0 1 1 .42.9 4.34 4.34 0 0 1 -1.88.43z"/><path d="m198 124.12a.49.49 0 0 1 -.5-.48.5.5 0 0 1 .48-.52c8.31-.24 10.38-13.6 12.58-27.75 2-12.91 4.09-26.27 11-32.45a40.79 40.79 0 0 1 31.71-10.18.51.51 0 0 1 .41.58.49.49 0 0 1 -.58.41 39.78 39.78 0 0 0 -30.88 9.93c-6.62 6-8.67 19.12-10.65 31.87-2.26 14.57-4.4 28.33-13.54 28.59z"/><path d="m193.21 114.3a.5.5 0 0 1 -.47-.34.5.5 0 0 1 .31-.63c10.11-3.53 11.42-27.64 11.43-27.89a.49.49 0 0 1 .52-.44.5.5 0 0 1 .47.52c0 1-1.36 25-12.1 28.78a.51.51 0 0 1 -.16 0z"/><path d="m196.39 229.05a.49.49 0 0 1 -.4-.21.51.51 0 0 1 .1-.7c17.66-13.13 9.71-46.77 9.63-47.11a.5.5 0 0 1 .37-.6.49.49 0 0 1 .6.37c.09.34 8.19 34.62-10 48.15a.54.54 0 0 1 -.3.1z"/><path d="m226.31 229.05a.49.49 0 0 1 -.35-.15.5.5 0 0 1 0-.71c10.86-10.85 1.5-25.7 1.4-25.85a.5.5 0 0 1 .15-.69.49.49 0 0 1 .69.14c.1.16 9.9 15.68-1.53 27.11a.51.51 0 0 1 -.36.15z"/><path d="m370.73 255.52a.48.48 0 0 1 -.26-.07.5.5 0 0 1 -.17-.68c.14-.24 13.86-23.68-.93-40.85a64.94 64.94 0 0 1 -13.28-23.51 37.3 37.3 0 0 1 -1.8-10.24.5.5 0 0 1 .5-.49.5.5 0 0 1 .49.51c0 .15-.05 15.79 14.84 33.07 15.26 17.73 1.17 41.78 1 42a.5.5 0 0 1 -.39.26z"/><path d="m196.15 84.42a2.63 2.63 0 0 1 -.77-.12 2.5 2.5 0 0 1 -1.61-3.14 90.8 90.8 0 0 1 9.92-20.16c9-13.55 20-20.82 31.89-21a2.5 2.5 0 0 1 .1 5c-24.86.45-37 37.37-37.15 37.74a2.49 2.49 0 0 1 -2.38 1.68z"/><path d="m356.79 247.8a2.47 2.47 0 0 1 -2.06-1.09c-17-24.83-18.09-37.68-18.12-38.21a2.5 2.5 0 0 1 5-.37c0 .2 1.25 12.35 17.26 35.76a2.49 2.49 0 0 1 -.65 3.47 2.45 2.45 0 0 1 -1.43.44z"/><path d="m355.56 449.64a2.51 2.51 0 0 1 -2.3-1.52c-6.51-15.27-6-51-6-52.51a2.5 2.5 0 1 1 5 .08c0 .36-.49 36.17 5.6 50.47a2.5 2.5 0 0 1 -1.32 3.28 2.6 2.6 0 0 1 -.98.2z"/><path d="m259.81 205.79h-.43c-19.39-3.3-33.09-18.8-33.66-19.46a2.5 2.5 0 0 1 3.77-3.29c.15.18 13.15 14.83 30.73 17.82a2.5 2.5 0 0 1 -.41 5z"/><path d="m344.41 72.66a2.52 2.52 0 0 1 -2.4-1.81c-6.43-22.28-28.6-30.21-28.82-30.29a2.5 2.5 0 0 1 1.64-4.72c1 .35 24.84 8.88 32 33.62a2.5 2.5 0 0 1 -1.7 3.1 2.88 2.88 0 0 1 -.72.1z"/><path d="m350 78c-4.39 0-3.74 6.8.63 6.8s3.72-6.8-.63-6.8z"/><path d="m302.09 33.49c-4.39 0-3.74 6.8.63 6.8s3.74-6.8-.63-6.8z"/><path d="m245.37 41c-4.39 0-3.74 6.8.63 6.8s3.74-6.8-.63-6.8z"/><path d="m195 92.17c-4.39 0-3.74 6.8.63 6.8s3.76-6.8-.63-6.8z"/><path d="m272.34 200.38c-4.39 0-3.74 6.8.63 6.8s3.74-6.8-.63-6.8z"/><path d="m362.08 255.79c-4.39 0-3.74 6.8.63 6.8s3.74-6.8-.63-6.8z"/><path d="m348.35 373c-4.39 0-3.74 6.8.63 6.8s3.74-6.8-.63-6.8z"/></g><path d="m128.61 264.82s6.63-5.13 7-13.5-5.62-18.59-6-23.67 1.5-11-1-12.21-8.12 5.25-9.87 11.13 9.87 38.25 9.87 38.25z" fill="#ffdb99"/><path d="m92.1 197.4 23.68-7.16s0 0 0-.06a94 94 0 0 1 -4.29-21.47s0-.06-.07 0a87 87 0 0 1 -10.42 3.71c-2.27.66-4.45 1.19-6.5 1.61v.06c.56 2.87 1.11 5.74 1.67 8.62 0 0-.07.08-.09 0-1.21-2.68-2.42-5.37-3.62-8.05a.07.07 0 0 0 -.06 0l-8.4 2.51s0 0 0 .06a102.7 102.7 0 0 1 5 10.83c1.27 3.28 2.29 6.4 3.12 9.31a0 0 0 0 0 -.02.03z" fill="#ffb833" fill-rule="evenodd"/><path d="m121 279.58 15.57-4.64a2.48 2.48 0 0 0 1.7-3l-20.63-76.52a2.5 2.5 0 0 0 -3.12-1.74l-19.52 5.78a2.49 2.49 0 0 0 -1.66 3.16l24.57 75.38a2.5 2.5 0 0 0 3.09 1.58z" fill="#ff8d93" fill-rule="evenodd"/><rect fill="#ff535c" height="13.88" rx="2.55" transform="matrix(-.958 .285 -.285 -.958 260.2 352.83)" width="25.34" x="91.73" y="188.43"/><path d="m109 185a.49.49 0 0 1 -.46-.32c-1.19-3-2.38-10.12-2.43-10.42a.51.51 0 0 1 .41-.58.49.49 0 0 1 .57.41c0 .08 1.23 7.34 2.38 10.22a.51.51 0 0 1 -.28.65.65.65 0 0 1 -.19.04z" fill="#383333"/><path d="m102.35 186.7a.5.5 0 0 1 -.43-.25c-1.92-3.29-2.84-10.45-2.92-10.81a.5.5 0 1 1 1-.12c0 .07.92 7.31 2.75 10.42a.51.51 0 0 1 -.18.69.55.55 0 0 1 -.22.07z" fill="#383333"/><path d="m93.54 189.92a.5.5 0 0 1 -.49-.44c-.47-3.6-4.53-10.73-4.57-10.8a.5.5 0 0 1 .19-.68.49.49 0 0 1 .68.19c.17.29 4.19 7.37 4.69 11.16a.5.5 0 0 1 -.43.56z" fill="#383333"/><path d="m98.18 277.63s-12.75-37.56-11.08-46.14 10.73-33.35 16.37-32.37-2 21.58-2 21.58 8.58-13 12.75-11.52-7.89 22.06-7.89 22.06 11.65-10.29 15-8.33-9.85 18.63-9.85 18.63 10.79-5.86 12.26-3.18-9.07 11-10.78 16.66 6.4 24.38-14.78 22.61z" fill="#ffdb99"/><path d="m98.41 228a.41.41 0 0 1 -.16 0 .39.39 0 0 1 -.19-.5l3.11-6.94a.38.38 0 0 1 .5-.19.37.37 0 0 1 .18.49l-3.1 7a.37.37 0 0 1 -.34.14z" fill="#383333"/><path d="m103.47 236.85a.41.41 0 0 1 -.18 0 .37.37 0 0 1 -.14-.51l2.89-5.23a.38.38 0 0 1 .66.36l-2.9 5.24a.37.37 0 0 1 -.33.14z" fill="#383333"/><path d="m107.72 247.64a.35.35 0 0 1 -.21-.07.38.38 0 0 1 -.1-.52l3.84-5.72a.38.38 0 0 1 .63.42l-3.88 5.72a.4.4 0 0 1 -.28.17z" fill="#383333"/><path d="m186.66 364.48a.5.5 0 0 1 -.47-.53c1.85-27.47-20-54.19-20.2-54.45a.52.52 0 0 1 .07-.71.5.5 0 0 1 .7.07c.23.27 22.3 27.28 20.43 55.16a.5.5 0 0 1 -.53.46z" fill="#383333"/><path d="m144.85 366.48a2.52 2.52 0 0 1 -1.45-.46c-6.79-4.8-23.78-41-27.11-48.17a2.5 2.5 0 0 1 4.54-2.1c7.5 16.21 21 43.07 25.46 46.19a2.5 2.5 0 0 1 -1.44 4.54z" fill="#fff"/><path d="m154.46 367.85c-4.48 0-3.82 6.93.64 6.93s3.81-6.93-.64-6.93z" fill="#fff"/><path d="m190.62 329.15a2.5 2.5 0 0 1 -2.44-2c-4.29-20 5.55-40.26 6-41.12a2.5 2.5 0 0 1 4.48 2.21c-.09.2-9.48 19.63-5.56 37.85a2.5 2.5 0 0 1 -1.92 3 2.46 2.46 0 0 1 -.56.06z" fill="#fff"/><path d="m196.39 446.48a1.83 1.83 0 0 1 -.33 0 2.5 2.5 0 0 1 -2.15-2.81l5.39-40a2.5 2.5 0 0 1 5 .67l-5.39 40a2.5 2.5 0 0 1 -2.52 2.14z" fill="#fff"/><path d="m195.12 452.85c-4.47 0-3.81 6.93.65 6.93s3.81-6.93-.65-6.93z" fill="#fff"/><path d="m196.79 335.18c-4.48 0-3.81 6.94.64 6.94s3.82-6.94-.64-6.94z" fill="#fff"/></svg>