<svg height="512" viewBox="0 0 512 512" width="512" xmlns="http://www.w3.org/2000/svg" xmlns:xlink="http://www.w3.org/1999/xlink"><clipPath id="clip-path"><rect height="84.53" rx="5.67" transform="matrix(.925 .379 -.379 .925 125.99 -131.72)" width="18.46" x="388" y="211.58"/></clipPath><g id="Cosmetic_Bag" data-name="Cosmetic Bag"><path d="m130.22 162.79s15.28 45.29 62.8 41.35l-41.37-50.06z" fill="#383333"/><path d="m288.89 162.79s-15.27 45.29-62.79 41.35l41.36-50.06z" fill="#383333"/><path d="m66.66 413.24 5-13a2 2 0 0 1 3.71.09l4.32 13.15a2 2 0 0 0 1.25 1.25l9 3a2 2 0 0 1 0 3.73l-9.24 3.3a2 2 0 0 0 -1.2 1.24l-5 15a2 2 0 0 1 -3.76-.07l-4.28-14.93a1.92 1.92 0 0 0 -1.21-1.3l-9.13-3.33a2 2 0 0 1 0-3.71l9.33-3.27a2 2 0 0 0 1.21-1.15z" fill="#ffb833"/><path d="m68.24 127.92 5-13a2 2 0 0 1 3.71.08l4.32 13.16a2 2 0 0 0 1.25 1.25l9 3a2 2 0 0 1 0 3.73l-9.24 3.3a2 2 0 0 0 -1.21 1.24l-5 15a2 2 0 0 1 -3.76-.07l-4.31-14.92a2 2 0 0 0 -1.21-1.31l-9.13-3.32a2 2 0 0 1 0-3.71l9.33-3.27a2 2 0 0 0 1.25-1.16z" fill="#ffb833"/><path d="m330.87 175.87 6.13-16.19a2.45 2.45 0 0 1 4.62.11l5.38 16.34a2.45 2.45 0 0 0 1.56 1.56l11.21 3.72a2.45 2.45 0 0 1 .05 4.63l-11.49 4.1a2.47 2.47 0 0 0 -1.5 1.54l-6.16 18.6a2.45 2.45 0 0 1 -4.68-.08l-5.36-18.46a2.47 2.47 0 0 0 -1.51-1.62l-11.34-4.12a2.45 2.45 0 0 1 0-4.61l11.58-4.07a2.4 2.4 0 0 0 1.51-1.45z" fill="#ffb833"/><path d="m275.07 140.34c.85-.78 5.47-4.92 11.92-4.29.95.09 4.7.45 7.18 2.89 6.43 6.32 3.45 25.69-8 30.41-6.42 2.64-13.1-.28-15.35-1.39z" fill="#ffc871"/><path d="m140.85 137.11c-.81-.83-5.22-5.18-11.7-4.86-1 0-4.72.23-7.31 2.54-6.73 6-4.68 25.5 6.57 30.76 6.28 2.95 13.1.35 15.4-.65q-1.49-13.9-2.96-27.79z" fill="#ffc871"/><path d="m281.75 163.17a.39.39 0 0 1 -.28-.12.38.38 0 0 1 0-.53c2.71-2.49 4-5.08 3.77-7.69-.37-4.54-5.1-7.7-5.15-7.74a.37.37 0 0 1 -.15-.43.35.35 0 0 1 .38-.25l11 .77a.36.36 0 0 1 .34.4.36.36 0 0 1 -.4.34l-9.7-.68c1.51 1.26 4.17 3.95 4.46 7.52.24 2.86-1.11 5.65-4 8.31a.39.39 0 0 1 -.27.1z" fill="#383333"/><path d="m133.49 159.6a.4.4 0 0 1 -.27-.11c-2.75-2.8-4-5.65-3.59-8.49.46-3.55 3.25-6.12 4.81-7.3l-9.72.22a.38.38 0 0 1 -.37-.37.37.37 0 0 1 .37-.38l11-.25a.38.38 0 0 1 .36.28.36.36 0 0 1 -.17.42s-4.92 3-5.51 7.48c-.34 2.59.8 5.24 3.39 7.86a.38.38 0 0 1 0 .53.36.36 0 0 1 -.3.11z" fill="#383333"/><circle cx="208.52" cy="118.58" fill="#ffdb99" r="78.3"/><path d="m235.3 187.47c-4.1 25.05 1.22 37.72 7.88 44.65 14.11 14.68 32.73 7.5 45.3 20.35 16.12 16.47 3.6 48.76-3.28 84-5.62 28.84-9.67 70.92-.64 125.41a222.72 222.72 0 0 1 -56.68 12.19 227.58 227.58 0 0 1 -103.74-16.31 377.82 377.82 0 0 0 8.07-96.34c-2.78-58.38-19-99.47 2-116.88 11.85-9.86 25.2-3.35 38.08-16.41 12.26-12.43 13.26-31.59 12-46.46 1.7-1.42 12.2-10 27.24-8.06a36.25 36.25 0 0 1 23.77 13.86z" fill="#ffdb99"/><path d="m286.83 121.51c-5.21 44.78-29 79.64-61.11 88.22a64.14 64.14 0 0 1 -32.6-.09c-32.51-8.59-56.85-42.78-63.48-86.69 0 .05 108.1-70.17 157.19-1.44z" fill="#ffdb99"/><path d="m256 125.2a25.48 25.48 0 0 0 -14.54-5.15c-3.56-.17-8.39-.4-9.94 2.35a3.89 3.89 0 0 0 0 3.94c1.62 2.29 5.87.36 12.66.46 9 .14 14.68 3.67 15.3 2.4.41-.92-2.41-3.13-3.48-4z" fill="#383333"/><path d="m164.49 123.6a25.52 25.52 0 0 1 14.86-4.15c3.56.07 8.39.16 9.76 3a3.93 3.93 0 0 1 -.27 3.93c-1.77 2.17-5.88 0-12.67-.4-8.93-.47-14.89 2.66-15.42 1.36-.39-.93 2.57-2.95 3.74-3.74z" fill="#383333"/><path d="m206.85 157.74a51.09 51.09 0 0 1 -5.31-.3.5.5 0 0 1 .11-1c4.2.45 11.17.52 11.95-1.23s-2.44-11.38-4.69-17a.5.5 0 0 1 .93-.37c.61 1.52 5.94 14.89 4.67 17.74-.76 1.75-4.38 2.16-7.66 2.16z" fill="#383333"/><path d="m183.68 146.51a6.62 6.62 0 1 1 .81-9.32 6.63 6.63 0 0 1 -.81 9.32z" fill="#383333" fill-rule="evenodd"/><path d="m168.56 136.76c.15-.12 1.38 2.16 3.05 2 1.23-.09 1.58-1.43 3.17-2.58a7.94 7.94 0 0 1 4.71-1.38 17.11 17.11 0 0 1 -2.76 3.79c-1.55 1.61-2.55 2.64-3.88 2.63-2.68.01-4.49-4.3-4.29-4.46z" fill="#383333" fill-rule="evenodd"/><ellipse cx="245.22" cy="157.22" fill="#ffc871" rx="6.35" ry="10.1" transform="matrix(.024 -1 1 .024 82.14 398.58)"/><ellipse cx="170.06" cy="158.47" fill="#ffc871" rx="6.35" ry="10.1" transform="matrix(.024 -1 1 .024 7.54 324.66)"/><path d="m208.9 211.79a62.27 62.27 0 0 1 -25.79-5.42.5.5 0 0 1 .41-.91c25.4 11.47 50 .87 50.21.76a.5.5 0 0 1 .41.92 69.27 69.27 0 0 1 -25.24 4.65z" fill="#383333"/><path d="m208.78 181.07a9.55 9.55 0 0 1 -5.16-1.54.38.38 0 0 1 .41-.63 8.65 8.65 0 0 0 9.5 0 .38.38 0 1 1 .41.63 9.47 9.47 0 0 1 -5 1.54z" fill="#383333"/><path d="m251.46 240.67a118.89 118.89 0 0 1 14.77 1.33 113.32 113.32 0 0 1 18.38 4.27c15.75 5.47 23.49 33.67 27.25 46.29a453.58 453.58 0 0 0 31 76.66l-38.86 19.18c-14.28-13.55-50.6-51.83-54.82-108.66a148.79 148.79 0 0 1 2.28-39.07z" fill="#ffdb99"/><path d="m396.57 328.65c-19.46 4.24-98.12 22.32-98.17 48.26 0 8.21 7.84 13.89 8.87 14.61 19.23 13.52 61-5.12 105.06-44.15z" fill="#ffdb99"/><path d="m301.42 350.75a9.81 9.81 0 0 1 -9-7.89c-9.12-46.77 1.34-64.38 10.12-72 10.38-9 19.11-4.57 55.75-11.19 46.32-8.37 56.26-19.75 71.29-13.26 9.2 4 23.75 16.11 28.37 61.77a9.8 9.8 0 0 1 -5.09 9.63 280.77 280.77 0 0 1 -151.44 32.91z" fill="#ff1a26"/><path d="m355.83 275c-16.18 2.09-25.65-2.19-39 11s-5.89 54.79-9.61 53.4-4.57-6.58-5.1-19.28-4.38-25.07 2.53-37.16 17.22-14.22 43.77-17.56 64.15-16.88 71.7-18.64a24.64 24.64 0 0 1 10.09 0l-.62-.28c-15-6.49-25 4.89-71.29 13.26-36.64 6.62-45.37 2.2-55.75 11.19-8.78 7.59-19.24 25.2-10.12 72a9.81 9.81 0 0 0 9 7.89 281.61 281.61 0 0 0 58-2.21l-3.56-13.61s16.13-62.09-.04-60z" fill="#ff8d93"/><path d="m307.21 341.41a2.4 2.4 0 0 1 -.52-.07c-1.55-.42-5.29-2.93-6.39-17.29l-.14-1.78c-1.21-15.4-3.47-44.07 13.1-50.86 9.05-3.71 21.94-5.61 34.4-7.45 9.83-1.46 19.11-2.83 25.89-5 2.69-.85 5.87-1.89 9.33-3 22.27-7.34 41.25-13.24 47.92-11.15a2 2 0 1 1 -1.2 3.81c-6-1.88-30.7 6.27-45.47 11.13-3.48 1.15-6.68 2.2-9.37 3.05-7.09 2.24-16.53 3.63-26.52 5.11-12.22 1.81-24.86 3.68-33.47 7.2-13.86 5.68-11.77 32.46-10.62 46.89l.14 1.78c.87 11.38 3.39 13.6 3.67 13.81a2 2 0 0 1 -.75 3.86z" fill="#ffb833"/><g clip-path="url(#clip-path)"><rect fill="#00ccc1" height="84.53" rx="5.67" transform="matrix(.925 .379 -.379 .925 125.99 -131.72)" width="18.46" x="388" y="211.58"/><path d="m381.15 255.53h29.15v3.97h-29.15z" fill="#aaeeea" transform="matrix(.925 .379 -.379 .925 127.27 -130.87)"/></g><path d="m336.83 231.64a20.56 20.56 0 0 0 -5.42.74c-2.13.6-3.69 1-5 2.44a9 9 0 0 0 -2.16 4.83 13.08 13.08 0 0 0 .11 5.61l10-1.2q1.19-6.21 2.47-12.42z" fill="#00ccc1"/><rect fill="#00ccc1" height="50.05" rx="10.35" transform="matrix(-.999 .054 -.054 -.999 715.33 501.53)" width="52.01" x="324.93" y="235.34"/><path d="m382.21 275.49s-2 7.17-7.95 8.57l-4.45-4.89-.19-3.45z" fill="#00ccc1"/><rect fill="#aaeeea" height="50.05" rx="10.35" transform="matrix(-.999 .054 -.054 -.999 723.79 491.59)" width="52.01" x="329.29" y="230.48"/><rect fill="#cffffb" height="16.21" rx="7.55" transform="matrix(-.999 .054 -.054 -.999 722.48 475.43)" width="32.06" x="338.83" y="239.31"/><path d="m458 308.21c-3.6-35.56-13.22-50.79-21.65-57.67-4.57-.56-10.6 1.19-21.16 4.68-19 6.28-52.18 22.22-76.63 21.46s-16.63 42.68-15.49 58.9c.6 8.55 3.44 13.17 6 15.62a280.68 280.68 0 0 0 123.85-33.36 9.8 9.8 0 0 0 5.08-9.63z" fill="#ff8d93"/><path d="m320.65 282.6s6.63-6.36 18.72-6.74a176.78 176.78 0 0 0 22.38-2.17l-14.19 13-17.88 6.1z" fill="#ff8d93"/><path d="m307.21 341.41a2 2 0 0 1 -1.14-.36 2 2 0 0 1 -.5-2.79c1.47-2.1 1.44-9.44 1.42-16.54 0-9.23-.07-19.7 2.6-27 5.39-14.76 16.33-20.76 39-21.4 17.95-.51 40.91-9.89 56.11-16.1 3.83-1.57 7.15-2.92 9.74-3.87 12.83-4.67 21.46-4.79 21.82-4.8a2 2 0 0 1 0 4c-.09 0-8.37.14-20.49 4.56-2.52.92-5.8 2.26-9.6 3.81-15.47 6.32-38.83 15.87-57.51 16.4-24 .68-31.32 7.69-35.37 18.78-2.43 6.63-2.39 16.72-2.36 25.62s.05 15.7-2.14 18.84a2 2 0 0 1 -1.58.85z" fill="#ffb833"/><circle cx="310.03" cy="347.44" fill="#ffb833" r="9.89"/><circle cx="310.03" cy="347.44" fill="#ff535c" r="6.98"/><path d="m435.62 293.65a5.94 5.94 0 0 1 -3.5 7.08c-9 3.65-18.87 7.19-29.56 10.4a337.32 337.32 0 0 1 -46.27 10.42 5.94 5.94 0 0 1 -6.61-4.3l-3.87-14.1a5.93 5.93 0 0 1 4.58-7.39c14.22-2.78 29.42-6.38 45.37-11.05 9.93-2.9 19.36-6 28.28-9.17a5.93 5.93 0 0 1 7.71 4z" fill="#ff535c"/><path d="m391.15 352s6.07-14.61 12.8-18.22 7.72-20.62 10.43-20.24.74 18.88 2.38 18.08 6.27-22.95 9-21.8-1.38 20 0 20.19 7.45-17.24 9.75-16.58-3.12 16.86-3 17.46 8.16-2.2 8.16-2.2-1.27 6.57-7 10-34.53 18.7-34.53 18.7-6.14-1-7.99-5.39z" fill="#ffdb99"/><path d="m442.62 323.07c-.89 2.63-1.77 5.26-2.66 7.88l-8.1 1.29 1.56-4.9z" fill="#ffdb99"/><path d="m155.51 237c-25.29 2.37-37.68 11.55-44.24 19.06-7.75 8.87-5.43 13.19-18.71 59.09-3.45 11.92-4.66 15.27-13.79 45.31l38.37 13.29 27.62-49.24a116.87 116.87 0 0 0 12.81-35.21 117.62 117.62 0 0 0 -2.06-52.3z" fill="#ffdb99"/><path d="m66.46 244.28c-.93 13.21-8.32 128.84 27.08 139.23 8.83 2.59 16.72-2.43 17.07-2.66 31.91-21-9.61-133-14.11-144.94z" fill="#ffdb99"/><path d="m169.38 225.32s58.85 3.2 72.64-1.48c0 0 6.34 12 17.73 15.51s14.51 3.93 18.94 5.17 2.72 31.13 3.71 38.71 6 15.32 7.39 33.93-7.15 34.8-7.47 56.63 2.62 69.77 11.16 95.38c0 0-111.9 31.51-174.3-7.23 0 0 8.18-50.23 9.16-75.51s-4.83-52.85-4.71-67.63 8-32.77 10-45.11-1.19-29.54 1.17-32.49 23.29-4.43 28.09-6.77 6.49-9.11 6.49-9.11z" fill="#ffb833"/><path d="m252.06 139.58c-.13-.1-1.2 1.8-2.6 1.67-1-.09-1.31-1.22-2.63-2.21a6.63 6.63 0 0 0 -3.93-1.23 14 14 0 0 0 2.26 3.23c1.29 1.37 2.11 2.25 3.22 2.26 2.26.01 3.84-3.58 3.68-3.72z" fill="#383333" fill-rule="evenodd"/><path d="m246.83 139a11.61 11.61 0 0 0 -7.08-1.62c-4.4.28-8.31 4.64-8.32 5.11s4-2.87 8.21-2.85 5.55 3.25 8.52 3.6z" fill="#383333" fill-rule="evenodd"/><path d="m230.94 55.67s-13.79-8.87-25.12 9.85-36.11 47.19-53.35 53.06-9.35 26.06-13.95 27.54-8-12.32-11.33-13.05-6.08 2.47-6.08 2.47-15.13-20.2 3.6-44.21 48-82.36 111-51c0 0 23.64-7.76 40.38 8.66s13.63 38.74 21.42 54.5-4.28 34.7-4.28 34.7-4.17-1.22-5.9.67-5.91 11.93-9.35 8.84.26-11.74 2.34-20-24.5-9.47-25.24-26.95.98-54.93-24.14-45.08z" fill="#383333"/><path d="m284.26 111.61c-18.66 0-20.63-20.51-22.38-38.67-.15-1.49-.29-3-.44-4.42-.66-6.39-2.81-11.07-6.4-13.9a14.28 14.28 0 0 0 -9.76-2.89.5.5 0 0 1 -.56-.43.5.5 0 0 1 .43-.56 15 15 0 0 1 10.5 3.09c3.81 3 6.09 7.91 6.79 14.59.15 1.45.29 2.93.43 4.42 1.76 18.21 3.72 38.82 22.89 37.73a.5.5 0 0 1 .53.47.5.5 0 0 1 -.47.53c-.53.03-1.05.04-1.56.04z" fill="#fff"/><path d="m289.48 101.78a13.64 13.64 0 0 1 -8.54-2.78c-7.27-5.56-8.35-17.28-8.4-17.77a.5.5 0 0 1 1-.09c0 .12 1.09 11.78 8 17.07 3 2.32 6.76 3.1 11.1 2.31a.5.5 0 0 1 .18 1 19.7 19.7 0 0 1 -3.34.26z" fill="#fff"/><path d="m130.81 113.23a43.71 43.71 0 0 1 -6.17-.44.49.49 0 0 1 -.42-.56.51.51 0 0 1 .56-.43c31.86 4.45 53.44-27.39 66.32-46.41 3.46-5.1 6.19-9.13 8.45-11.54 10.94-11.69 28.93-4.88 29.11-4.8a.5.5 0 0 1 -.37.93c-.17-.07-17.54-6.64-28 4.55-2.21 2.36-5.05 6.56-8.35 11.42-12.18 17.97-32.04 47.28-61.13 47.28z" fill="#fff"/><path d="m137.18 95.62a45.35 45.35 0 0 1 -7.05-.55.51.51 0 0 1 -.42-.58.5.5 0 0 1 .57-.41c24.54 3.85 42-14.14 42.15-14.32a.5.5 0 0 1 .71 0 .5.5 0 0 1 0 .71c-.14.14-14.68 15.15-35.96 15.15z" fill="#fff"/><path d="m257.5 196a.48.48 0 0 1 -.4-.2.49.49 0 0 1 .09-.7c8.35-6.31 15.37-16.11 15.44-16.2a.5.5 0 0 1 .82.58c-.07.1-7.18 10-15.65 16.41a.5.5 0 0 1 -.3.11z" fill="#fff"/><path d="m157.68 191.72a.44.44 0 0 1 -.24-.07c-6.46-3.6-12.51-15.7-12.76-16.22a.51.51 0 0 1 .22-.67.5.5 0 0 1 .67.23c.06.12 6.17 12.34 12.36 15.79a.5.5 0 0 1 .19.68.51.51 0 0 1 -.44.26z" fill="#fff"/><path d="m191.13 164a97.42 97.42 0 0 0 15.76 2 96.49 96.49 0 0 0 19.54-1.16c-.24.6-4.39 10.33-14.21 12-8.47 1.41-17.46-3.79-21.09-12.84z" fill="#fff"/><path d="m65.83 247.69s-1.8-2.63-9.93-10.34-1.65-29.94 2.1-32.75 6.69 1.69 6.69 1.69 2-11.46 10.11-3.07c0 0-.63-26.33 3.87-29.27s5.55 25.34 5.55 25.34 10.34-26.47 14.06-25.68-5.25 34-5.25 34 6.1 5.61 6.08 11.53-1.5 23.09-1.5 23.09-23.48 10.5-31.78 5.46z" fill="#ffdb99"/><path d="m119.18 339.91h-.11a.49.49 0 0 1 -.38-.59c5.84-27-12.72-74.36-12.91-74.83a.51.51 0 0 1 .28-.65.5.5 0 0 1 .65.28c.19.48 18.86 48.08 13 75.41a.5.5 0 0 1 -.53.38z" fill="#383333"/><path d="m301.32 374.29a.54.54 0 0 1 -.22 0 .51.51 0 0 1 -.24-.67c.07-.15 7.17-15 23.11-21.49a.5.5 0 1 1 .38.92c-15.57 6.35-22.51 20.85-22.58 21a.5.5 0 0 1 -.45.24z" fill="#383333"/><path d="m83.69 233.57a.36.36 0 0 1 -.35-.25c-1.7-4.74 4.57-11.69 6.23-13.42-.75-.24-2.53-.51-5.77.48a10.18 10.18 0 0 1 -7.73-.56 4 4 0 0 1 -2.07-2.15c-.51-1.78 11.64-7.3 18.93-10.43a.37.37 0 1 1 .29.69c-8.91 3.83-18.27 8.46-18.5 9.57a3.51 3.51 0 0 0 1.73 1.66 9.49 9.49 0 0 0 7.15.51c4.93-1.52 6.78-.25 6.86-.2a.39.39 0 0 1 .15.28.38.38 0 0 1 -.11.3c-.08.08-8.18 8.14-6.44 13a.37.37 0 0 1 -.22.48.3.3 0 0 1 -.15.04z" fill="#383333"/><path d="m69.13 224.25c-4.41 0-11.3-10-11.6-10.42a.37.37 0 0 1 .1-.52.38.38 0 0 1 .52.1c2.05 3 8.07 10.64 11.32 10.06a.78.78 0 0 0 .61-.47c1.23-2.54-3.69-12.79-5.69-16.53a.38.38 0 0 1 .66-.36c.76 1.41 7.33 13.88 5.7 17.22a1.53 1.53 0 0 1 -1.15.88 2.42 2.42 0 0 1 -.47.04z" fill="#383333"/><path d="m73.77 222.27c-1.45 0-3.29-1.4-3.52-1.58a.37.37 0 0 1 -.07-.53.38.38 0 0 1 .53-.06c.91.71 2.65 1.7 3.47 1.35 1.07-.47 1-2.34 1-2.36a.38.38 0 0 1 .37-.38.38.38 0 0 1 .37.37c0 .1 0 2.39-1.5 3a1.7 1.7 0 0 1 -.65.19z" fill="#383333"/><path d="m76 216.29a.38.38 0 0 1 -.37-.34l-1.19-12.7a.37.37 0 1 1 .74-.07l1.19 12.7a.38.38 0 0 1 -.33.41z" fill="#383333"/><path d="m431.86 333.92h-.09a.37.37 0 0 1 -.27-.45l1.56-6.21a.37.37 0 1 1 .72.18l-1.56 6.21a.36.36 0 0 1 -.36.27z" fill="#383333"/><g fill="#fff"><path d="m157.68 59.67a2.5 2.5 0 0 1 -1.84-4.19 77.86 77.86 0 0 1 14.31-11.62c11.56-7.36 23.33-10.43 34-8.86a2.5 2.5 0 0 1 -.73 5c-23.08-3.38-43.73 18.69-43.94 18.91a2.47 2.47 0 0 1 -1.8.76z"/><path d="m198 206.89h-.13c-9.89-.51-20.36-6-30.28-15.74a90.73 90.73 0 0 1 -12-14.6 2.5 2.5 0 0 1 4.23-2.66c.17.27 17.25 26.91 38.33 28a2.5 2.5 0 0 1 -.13 5z"/><path d="m122.58 255.34a2.5 2.5 0 0 1 -1.79-4.25 47.72 47.72 0 0 1 32.58-12.73 2.5 2.5 0 0 1 0 5c-.12 0-.25 0-.38 0a43.39 43.39 0 0 0 -28.61 11.23 2.49 2.49 0 0 1 -1.8.75z"/><path d="m78.77 358.76a2.51 2.51 0 0 1 -2.28-1.47c-6.09-13.41-8.41-61.58-8.51-63.62a2.51 2.51 0 0 1 2.38-2.62 2.48 2.48 0 0 1 2.64 2.38c0 .49 2.37 49.25 8.07 61.79a2.5 2.5 0 0 1 -1.24 3.31 2.37 2.37 0 0 1 -1.06.23z"/><path d="m291 258a2.51 2.51 0 0 1 -2-1c-4.77-6.44-18.75-8-23.73-8.09a2.5 2.5 0 1 1 .06-5c.83 0 20.46.36 27.69 10.11a2.49 2.49 0 0 1 -.52 3.49 2.45 2.45 0 0 1 -1.5.49z"/><path d="m319.92 324.12a2.51 2.51 0 0 1 -2.47-2.1c-.22-1.37-5.17-33.59 14.44-39.4 7.13-2.11 16.38-4.08 25.33-6 13.26-2.82 27-5.73 32.72-8.91a2.5 2.5 0 1 1 2.42 4.37c-6.4 3.55-19.86 6.4-34.1 9.43-8.86 1.88-18 3.83-24.95 5.88-15.41 4.57-11 33.52-10.92 33.81a2.51 2.51 0 0 1 -2.07 2.87z"/><path d="m133.36 445.76a2.49 2.49 0 0 1 -2.43-3.11 163.4 163.4 0 0 0 4.73-44.54 2.5 2.5 0 1 1 5-.31 165.74 165.74 0 0 1 -4.87 46.07 2.49 2.49 0 0 1 -2.43 1.89z"/><path d="m129.8 453.47c-4.41 0-3.75 6.83.64 6.83s3.75-6.83-.64-6.83z"/><path d="m139.9 374.18c-4.41 0-3.76 6.83.63 6.83s3.76-6.83-.63-6.83z"/><path d="m88.19 365.32c-4.41 0-3.75 6.83.63 6.83s3.76-6.83-.63-6.83z"/><path d="m71.69 269.54c-4.41 0-3.75 6.82.64 6.82s3.75-6.82-.64-6.82z"/><path d="m115.77 259.69c-4.41 0-3.76 6.82.63 6.82s3.76-6.82-.63-6.82z"/><path d="m167 236.29c-4.4 0-3.75 6.83.64 6.83s3.73-6.83-.64-6.83z"/><path d="m211.06 200.59c-4.41 0-3.76 6.83.63 6.83s3.76-6.83-.63-6.83z"/><path d="m251.44 238.51c-4.41 0-3.75 6.83.63 6.83s3.76-6.83-.63-6.83z"/><path d="m149.75 69.84c-4.41 0-3.76 6.83.63 6.83s3.76-6.83-.63-6.83z"/><path d="m320.63 330.85c-4.41 0-3.75 6.82.63 6.82s3.74-6.82-.63-6.82z"/><path d="m401.89 265.35c-4.41 0-3.76 6.83.63 6.83s3.76-6.83-.63-6.83z"/></g></g></svg>