<?xml version="1.0" encoding="UTF-8"?>
<svg xmlns="http://www.w3.org/2000/svg" xmlns:xlink="http://www.w3.org/1999/xlink" version="1.1" id="Eye_Cream_1_" x="0px" y="0px" viewBox="0 0 512 512" style="enable-background:new 0 0 512 512;" xml:space="preserve" width="512" height="512">
<style type="text/css">
	.st0{fill:#00CCC1;}
	.st1{clip-path:url(#SVGID_2_);}
	.st2{fill:#FF8D93;}
	.st3{fill:#FFDB99;}
	.st4{fill:#383333;}
	.st5{fill:#FFFFFF;}
	.st6{fill:#FFB833;}
</style>
<g id="Eye_Cream">
	<path class="st0" d="M171.6,360.6l81.1,17.8c8.8,1.9,14.4,10.6,12.4,19.4l-15.3,69.9c-1.9,8.8-10.6,14.4-19.4,12.4l-81.1-17.8   c-8.8-1.9-14.4-10.6-12.4-19.4l15.3-69.9C154.1,364.2,162.8,358.6,171.6,360.6z"/>
	<g>
		<defs>
			<path id="SVGID_1_" d="M237.7,407.3l-66.4-14.6c-28.7-6.3-47.6-33.9-43-62.9l45.2-286.5c1.2-7.6,8.4-12.8,16-11.6     c0.3,0,0.5,0.1,0.8,0.2l183,40.2c7.6,1.7,12.3,9.1,10.7,16.7c-0.1,0.3-0.1,0.5-0.2,0.8l-78.4,277.3     C297.1,396,267.4,413.8,237.7,407.3z"/>
		</defs>
		<clipPath id="SVGID_2_">
			<use xlink:href="#SVGID_1_" style="overflow:visible;"/>
		</clipPath>
		<g class="st1">
			<path class="st2" d="M237.7,407.3l-66.4-14.6c-28.7-6.3-47.6-33.9-43-62.9l45.2-286.5c1.2-7.6,8.4-12.8,16-11.6     c0.3,0,0.5,0.1,0.8,0.2l183,40.2c7.6,1.7,12.3,9.1,10.7,16.7c-0.1,0.3-0.1,0.5-0.2,0.8l-78.4,277.3     C297.1,396,267.4,413.8,237.7,407.3z"/>
			
				<rect x="253.3" y="-60" transform="matrix(0.2144 -0.9767 0.9767 0.2144 158.5266 320.4581)" class="st0" width="50.4" height="243.3"/>
		</g>
	</g>
	<path class="st3" d="M214.8,108.2l104.4,22.9c10,2.2,16.4,12.1,14.2,22.2l-44.1,200.9c-2.2,10-12.1,16.4-22.2,14.2l-104.4-22.9   c-10-2.2-16.4-12.1-14.2-22.2l44.1-200.9C194.8,112.3,204.7,106,214.8,108.2z"/>
	<path class="st0" d="M262.9,242.9c-7.5,0-15.1-0.9-22.4-2.5c-30.8-6.8-52.2-24.4-48.8-40.1s30.3-22.7,61.1-16   c14.5,3.2,27.5,9,36.7,16.4c9.5,7.6,13.7,16,12.1,23.7s-9.1,13.5-20.9,16.5C274.9,242.3,268.9,243,262.9,242.9z M230.2,184.8   c-18.9,0-33.3,6-35.6,16.1c-3,13.8,17.8,30.2,46.5,36.5c14.1,3.1,27.8,3.3,38.8,0.5c10.6-2.6,17.2-7.7,18.7-14.2l0,0   c1.4-6.5-2.5-13.9-11-20.7c-8.8-7.1-21.4-12.7-35.5-15.8C245,185.7,237.6,184.8,230.2,184.8z"/>
	
		<ellipse transform="matrix(0.1602 -0.9871 0.9871 0.1602 -2.5088 421.8081)" class="st0" cx="246.6" cy="212.4" rx="27.2" ry="27.2"/>
	<path class="st0" d="M196,251.5l80.1,17.6c1.5,0.3,2.4,1.8,2.1,3.3l-0.1,0.5c-0.3,1.5-1.8,2.4-3.3,2.1l-80.1-17.6   c-1.5-0.3-2.4-1.8-2.1-3.3l0.1-0.5C193.1,252.2,194.6,251.2,196,251.5z"/>
	<path class="st0" d="M190.7,276l80.1,17.6c1.5,0.3,2.4,1.8,2.1,3.3l-0.1,0.5c-0.3,1.5-1.8,2.4-3.3,2.1l-80.1-17.6   c-1.5-0.3-2.4-1.8-2.1-3.3l0.1-0.5C187.7,276.6,189.2,275.7,190.7,276z"/>
	<path class="st4" d="M211.6,66.9h-0.1c-0.3-0.1-0.4-0.3-0.4-0.6c0,0,0,0,0,0l4.3-19.7c0.1-0.3,0.3-0.4,0.6-0.4c0,0,0,0,0,0   c0.3,0.1,0.4,0.3,0.4,0.6c0,0,0,0,0,0l-4.3,19.7C212,66.7,211.8,66.9,211.6,66.9z"/>
	<path class="st4" d="M254.2,76.2h-0.1c-0.3-0.1-0.4-0.3-0.4-0.6c0,0,0,0,0,0l4.3-19.7c0.1-0.3,0.3-0.4,0.6-0.4   c0.3,0.1,0.4,0.3,0.4,0.6c0,0,0,0,0,0l-4.3,19.7C254.7,76.1,254.5,76.2,254.2,76.2z"/>
	<path class="st4" d="M296.9,85.6h-0.1c-0.3-0.1-0.4-0.3-0.4-0.6c0,0,0,0,0,0l4.3-19.7c0.1-0.3,0.3-0.4,0.6-0.4c0,0,0,0,0,0   c0.3,0.1,0.4,0.3,0.4,0.6l-4.3,19.7C297.4,85.5,297.2,85.6,296.9,85.6z"/>
	<path class="st4" d="M339.6,95h-0.1c-0.3-0.1-0.4-0.3-0.4-0.6c0,0,0,0,0,0l4.3-19.7c0.1-0.3,0.3-0.4,0.6-0.4   c0.3,0.1,0.4,0.3,0.4,0.6c0,0,0,0,0,0l-4.3,19.7C340,94.8,339.8,95,339.6,95z"/>
	<path class="st4" d="M251.1,462.1H251l-112.9-24.8c-0.3-0.1-0.5-0.3-0.4-0.6c0.1-0.3,0.3-0.5,0.6-0.4l112.9,24.8   c0.3,0,0.5,0.3,0.4,0.6S251.4,462.1,251.1,462.1L251.1,462.1z"/>
	<path class="st4" d="M204.9,460.8c-0.4,0-0.8,0-1.2-0.1l-22-4.8c-3.1-0.7-5.1-3.7-4.4-6.8c0,0,0,0,0,0l1.4-6.4   c0.7-3.1,3.7-5.1,6.9-4.4l22,4.8c3.1,0.7,5.1,3.7,4.4,6.8l-1.4,6.4C209.9,459,207.6,460.8,204.9,460.8L204.9,460.8z M184.2,439.1   c-2.2,0-4.1,1.6-4.6,3.7l-1.4,6.4c-0.6,2.6,1.1,5.1,3.6,5.7l22,4.8l0,0c2.6,0.6,5.1-1.1,5.6-3.6c0,0,0,0,0,0l1.4-6.4   c0.6-2.6-1.1-5.1-3.6-5.7c0,0,0,0,0,0l-22-4.8C185,439.1,184.6,439.1,184.2,439.1z"/>
	<path class="st5" d="M174.2,109.2c-0.2,0-0.4,0-0.5,0c-1.3-0.3-2.2-1.6-1.9-3c0,0,0,0,0,0l11.3-51.5c2.1-9.4,11.4-15.3,20.8-13.3   l44,9.7c1.4,0.2,2.3,1.5,2,2.9c-0.2,1.4-1.5,2.3-2.9,2c-0.1,0-0.1,0-0.2,0l-44.1-9.7c-6.7-1.5-13.3,2.8-14.8,9.5l-11.3,51.5   C176.4,108.4,175.4,109.2,174.2,109.2z"/>
	<path class="st5" d="M149.6,269.5h-0.4c-1.4-0.2-2.3-1.5-2.1-2.9l14-84.1c0.3-1.4,1.6-2.2,2.9-2c1.3,0.3,2.2,1.5,2,2.8l-13.9,84.1   C151.9,268.7,150.9,269.5,149.6,269.5z"/>
	<path class="st5" d="M186.4,389c-0.2,0-0.3,0-0.5,0c-21.9-4.4-33.4-15.7-39.2-24.5c-3.8-5.5-6.3-11.8-7.4-18.5   c-0.2-1.4,0.8-2.6,2.2-2.8c1.4-0.2,2.6,0.8,2.8,2.2c0.2,1.3,4.2,31,42.6,38.6c1.4,0.3,2.2,1.6,2,2.9   C188.6,388.2,187.6,389,186.4,389L186.4,389z"/>
	<path class="st5" d="M326.9,246.8c-0.2,0-0.4,0-0.6-0.1c-1.3-0.4-2.1-1.7-1.8-3l28.4-108.8c0.2-1.4,1.5-2.3,2.9-2   c1.4,0.2,2.3,1.5,2,2.9c0,0.1-0.1,0.3-0.1,0.4L329.4,245C329.1,246,328.1,246.8,326.9,246.8z"/>
	<path class="st5" d="M274.1,389.3c-1.4,0-2.5-1.1-2.5-2.5c0-1.1,0.8-2.1,1.9-2.4c16.5-4.2,20.7-28.7,20.7-28.9   c0.2-1.4,1.5-2.3,2.9-2.1s2.3,1.5,2.1,2.9l0,0c-0.9,5-2.5,9.8-4.6,14.4c-4.7,10.1-11.6,16.5-19.8,18.6   C274.5,389.2,274.3,389.3,274.1,389.3z"/>
	<path class="st5" d="M144.6,443.2c-1.4,0-2.5-1.1-2.5-2.5c0-0.2,0-0.3,0.1-0.5l7.9-35.8c0.2-1.4,1.5-2.3,2.9-2   c1.4,0.2,2.3,1.5,2,2.9c0,0.1,0,0.1,0,0.2l-7.9,35.8C146.7,442.5,145.7,443.2,144.6,443.2z"/>
	<path class="st5" d="M229,476c-1.2,0-2.4-0.1-3.5-0.4l-16.7-3.7c-1.3-0.3-2.1-1.7-1.8-3.1c0.3-1.3,1.6-2.1,2.9-1.8l16.7,3.7   c6.1,1.3,12.1-2.5,13.4-8.6l4.2-19.1c0.2-1.4,1.5-2.3,2.9-2c1.4,0.2,2.3,1.5,2,2.9c0,0.1,0,0.1,0,0.2l-4.2,19.1   C243.2,470.6,236.6,475.9,229,476L229,476z"/>
	<path class="st5" d="M262.9,54.1c-4.8-1-5.7,6.6-0.9,7.6S267.7,55.2,262.9,54.1z"/>
	<path class="st5" d="M171.9,126c-4.8-1.1-5.7,6.6-1,7.6S176.7,127,171.9,126z"/>
	<path class="st5" d="M167.3,156.9c-4.8-1.1-5.7,6.6-0.9,7.6S172.1,157.9,167.3,156.9z"/>
	<path class="st5" d="M144.9,288.6c-4.8-1.1-5.7,6.5-0.9,7.6S149.7,289.7,144.9,288.6z"/>
	<path class="st5" d="M140.2,325.4c-4.8-1.1-5.7,6.6-0.9,7.6S145,326.4,140.2,325.4z"/>
	<path class="st5" d="M206.1,384.9c-4.8-1-5.7,6.6-1,7.6S210.9,386,206.1,384.9z"/>
	<path class="st5" d="M250.4,423.2c-4.8-1-5.7,6.6-0.9,7.6S255.2,424.2,250.4,423.2z"/>
	<path class="st5" d="M193.5,462.8c-4.8-1.1-5.7,6.6-0.9,7.6S198.2,463.8,193.5,462.8z"/>
	<path class="st5" d="M150.6,448.9c-4.8-1.1-5.7,6.5-1,7.6S155.4,449.9,150.6,448.9z"/>
	<path class="st5" d="M304.4,327.5c-4.8-1.1-5.7,6.6-0.9,7.6S309.2,328.5,304.4,327.5z"/>
	<path class="st5" d="M252.4,391.3c-4.8-1-5.7,6.6-0.9,7.6C256.3,399.9,257.2,392.3,252.4,391.3z"/>
	<path class="st5" d="M321.4,261.7c-4.8-1.1-5.7,6.5-0.9,7.6S326.2,262.8,321.4,261.7z"/>
	<path class="st5" d="M364.2,104.6c-4.8-1.1-5.7,6.6-1,7.6S369,105.7,364.2,104.6z"/>
</g>
<g>
	<path class="st6" d="M393.5,301l5-13.2c0.4-1,1.6-1.5,2.6-1.1c0.6,0.2,1,0.7,1.2,1.2l4.4,13.3c0.2,0.6,0.7,1.1,1.3,1.3l9.1,3   c1,0.4,1.6,1.5,1.2,2.5c-0.2,0.6-0.6,1-1.2,1.2l-9.3,3.3c-0.6,0.2-1,0.7-1.2,1.2l-5,15.1c-0.4,1-1.5,1.6-2.5,1.2   c-0.6-0.2-1.1-0.7-1.3-1.3l-4.4-15c-0.2-0.6-0.6-1.1-1.2-1.3l-9.3-3.3c-1-0.4-1.6-1.5-1.2-2.6c0.2-0.5,0.6-1,1.2-1.2l9.4-3.3   C392.8,302,393.3,301.6,393.5,301z"/>
	<path class="st6" d="M105.7,104.9l5-13.2c0.4-1,1.6-1.5,2.6-1.1c0.5,0.2,1,0.7,1.2,1.2l4.4,13.3c0.2,0.6,0.7,1.1,1.3,1.3l9.1,3   c1,0.4,1.6,1.5,1.2,2.6c-0.2,0.6-0.6,1-1.2,1.2l-9.3,3.3c-0.6,0.2-1,0.7-1.2,1.2l-5,15.1c-0.4,1-1.5,1.6-2.5,1.3   c-0.6-0.2-1.1-0.7-1.3-1.3l-4.4-15c-0.2-0.6-0.6-1.1-1.2-1.3l-9.2-3.4c-1-0.4-1.6-1.5-1.2-2.6c0.2-0.5,0.6-1,1.2-1.2l9.4-3.3   C105,105.9,105.4,105.4,105.7,104.9z"/>
</g>
<path class="st6" d="M322.4,421.6l6.2-16.4c0.5-1.3,1.9-1.9,3.2-1.4c0.7,0.3,1.2,0.8,1.5,1.5l5.4,16.5c0.2,0.7,0.8,1.3,1.6,1.6  l11.3,3.8c1.3,0.4,2,1.8,1.6,3.1c-0.2,0.7-0.8,1.3-1.5,1.5L340,436c-0.7,0.3-1.3,0.8-1.5,1.5l-6.2,18.8c-0.4,1.3-1.8,2-3.1,1.6  c-0.8-0.3-1.4-0.9-1.6-1.7l-5.4-18.6c-0.2-0.8-0.8-1.4-1.5-1.6l-11.5-4.1c-1.3-0.5-1.9-1.9-1.5-3.2c0.3-0.7,0.8-1.2,1.5-1.5  l11.7-4.1C321.6,422.9,322.1,422.3,322.4,421.6z"/>
</svg>
