<svg height="512" viewBox="0 0 512 512" width="512" xmlns="http://www.w3.org/2000/svg"><g id="Face_and_Lip_Mask" data-name="Face and Lip Mask"><path d="m405.65 124.69 5.4-14.22a2.15 2.15 0 0 1 4.06.09l4.71 14.36a2.15 2.15 0 0 0 1.37 1.37l9.84 3.27a2.14 2.14 0 0 1 .05 4.06l-10.08 3.61a2.13 2.13 0 0 0 -1.32 1.35l-5.41 16.34a2.15 2.15 0 0 1 -4.11-.07l-4.71-16.22a2.17 2.17 0 0 0 -1.33-1.42l-10-3.63a2.15 2.15 0 0 1 0-4.05l10.23-3.53a2.12 2.12 0 0 0 1.3-1.31z" fill="#ffb833"/><path d="m122.12 419.21 5.41-14.21a2.15 2.15 0 0 1 4.05.09l4.72 14.36a2.13 2.13 0 0 0 1.36 1.37l9.85 3.27a2.15 2.15 0 0 1 .05 4.07l-10.1 3.6a2.16 2.16 0 0 0 -1.32 1.35l-5.41 16.34a2.15 2.15 0 0 1 -4.11-.07l-4.71-16.22a2.14 2.14 0 0 0 -1.33-1.42l-10-3.63a2.15 2.15 0 0 1 0-4.05l10.18-3.57a2.12 2.12 0 0 0 1.36-1.28z" fill="#ffb833"/><path d="m411.2 318.86 6.72-17.68a2.67 2.67 0 0 1 5 .12l5.85 17.84a2.7 2.7 0 0 0 1.7 1.71l12.24 4a2.68 2.68 0 0 1 .05 5.06l-12.54 4.48a2.71 2.71 0 0 0 -1.64 1.68l-6.72 20.31a2.68 2.68 0 0 1 -5.11-.1l-5.85-20.15a2.69 2.69 0 0 0 -1.66-1.77l-12.38-4.5a2.68 2.68 0 0 1 0-5l12.66-4.44a2.69 2.69 0 0 0 1.68-1.56z" fill="#ffb833"/><path d="m338.09 322.05c5.11 3.7 10.75 7.47 16.93 11.2 1.25.76 2.49 1.49 3.72 2.21 25.26-42.36 33.76-98.46 19.26-155.13a217.72 217.72 0 0 0 -41.36-83.13q-2.72 3-5.75 6.17c-4.73 4.85-9.37 9.09-13.75 12.77a96.83 96.83 0 0 0 5.09-20.54 95.15 95.15 0 0 0 .85-13.48c-40.01-40.12-94.08-59.26-146.3-45.88-50.23 12.87-87.5 52.91-104.3 104.4a81.15 81.15 0 0 0 5.27 10.21 82.55 82.55 0 0 0 19.25 21.71 80.56 80.56 0 0 1 -30.71-7.91 217.34 217.34 0 0 0 3.37 94.7c14.85 57.95 50.64 103.84 94.48 128.46 1.29-2.72 2.56-5.53 3.8-8.46 2.37-5.63 4.36-11 6-16.17.59 4.77 1.08 9.77 1.44 15 .37 5.46.55 10.69.6 15.7 29.85 13.73 62.71 17.81 94.86 9.57 33.38-8.56 61-29.12 80.78-57.06q-2.21-3.76-4.39-7.63-4.76-8.47-9.14-16.71zm-94-57.82a48.35 48.35 0 0 1 7.35.83c5.18.87 10.06 1.68 15.49-.88a10.23 10.23 0 0 0 3.27-2.26c5-5.46 1.54-15.77.79-17.78a1.62 1.62 0 0 1 3-1.13c1.21 3.26 4.7 14.43-1.45 21.09a13.2 13.2 0 0 1 -4.27 3c-6.34 3-12.21 2-17.39 1.15a44 44 0 0 0 -6.84-.79c-8.11-.07-13.65 4.73-18.54 9-3.21 2.78-6.3 5.46-9.74 6.34a9.25 9.25 0 0 1 -4.84 0c-5.55-1.52-9.56-7.6-12.26-18.58a1.63 1.63 0 0 1 1.18-1.95 1.61 1.61 0 0 1 1.95 1.18c2.36 9.61 5.72 15.07 10 16.24 3.89 1.06 7.3-1.89 11.62-5.63 5.1-4.46 11.4-9.91 20.71-9.83zm-126.75-27c-4.06-15.83 11.18-33.42 34-39.28s44.69 2.22 48.75 18.06-11.19 33.43-34 39.29-44.66-2.19-48.72-18.03zm144 113.51c-29.91 7.66-57.5.86-61.61-15.19s16.8-35.28 46.71-42.95 57.5-.87 61.62 15.19-16.76 35.32-46.68 42.99zm-15.4-146.42c-4.06-15.84 11.19-33.42 34.06-39.32s44.69 2.22 48.75 18.06-11.19 33.43-34.06 39.29-44.69-2.19-48.75-18.03z" fill="#ff8d93"/><g fill="#fff"><path d="m96.83 117a2.4 2.4 0 0 1 -1.12-.27 2.49 2.49 0 0 1 -1.11-3.35 157.4 157.4 0 0 1 26.82-36.1c23.32-23.65 50.79-36 79.43-35.71a2.5 2.5 0 0 1 0 5h-1c-65.43 0-100.45 68.37-100.8 69.06a2.49 2.49 0 0 1 -2.22 1.37z"/><path d="m129.09 343.85a2.51 2.51 0 0 1 -1.73-.7c-31.36-30.25-45.27-83.05-45.85-85.28a2.5 2.5 0 0 1 4.84-1.25c.14.53 14.18 53.67 44.48 82.93a2.5 2.5 0 0 1 -1.74 4.3z"/><path d="m374.79 216.43a2.5 2.5 0 0 1 -2.46-2.12c-7.94-50.4-27.37-79.89-27.57-80.18a2.5 2.5 0 1 1 4.16-2.78c.82 1.22 20.23 30.61 28.35 82.19a2.5 2.5 0 0 1 -2.08 2.85 1.87 1.87 0 0 1 -.4.04z"/><path d="m276.13 393.67a2.5 2.5 0 0 1 -.94-4.81c.41-.17 41.58-17.22 58.16-40a2.5 2.5 0 0 1 4 2.94c-7.34 10.1-19.74 20.19-36.85 30a216.68 216.68 0 0 1 -23.46 11.7 2.44 2.44 0 0 1 -.91.17z"/><path d="m375.89 229.73c-4.82 0-4.1 7.46.69 7.46s4.1-7.46-.69-7.46z"/><path d="m336.46 114.32c-4.81 0-4.1 7.45.69 7.45s4.1-7.45-.69-7.45z"/><path d="m221.76 39.76c-4.81 0-4.1 7.46.69 7.46s4.1-7.46-.69-7.46z"/><path d="m89.14 126.5c-4.81 0-4.1 7.46.69 7.46s4.1-7.46-.69-7.46z"/><path d="m78.39 225.43c-4.82 0-4.1 7.46.69 7.46s4.1-7.46-.69-7.46z"/><path d="m141.47 353c-4.81 0-4.1 7.46.69 7.46s4.1-7.46-.69-7.46z"/><path d="m254 390.31c-4.81 0-4.1 7.45.69 7.45s4.12-7.45-.69-7.45z"/><path d="m247.56 170.72a2.52 2.52 0 0 1 -2-.93 2.5 2.5 0 0 1 .39-3.51c1-.81 24.86-19.62 56.75-15.23a2.5 2.5 0 0 1 -.69 5c-29.68-4.1-52.7 14-52.93 14.17a2.53 2.53 0 0 1 -1.52.5z"/><path d="m120 209.08a2.51 2.51 0 0 1 -1.8-4.24c.84-.87 20.9-21.26 50.77-18.68a2.5 2.5 0 0 1 -.43 5c-27.47-2.38-46.55 17-46.74 17.16a2.48 2.48 0 0 1 -1.8.76z"/><path d="m316.39 153c-4.82 0-4.1 7.45.69 7.45s4.1-7.45-.69-7.45z"/><path d="m233.59 176.68c-4.81 0-4.1 7.46.69 7.46s4.1-7.46-.69-7.46z"/><path d="m181.26 186.36c-4.82 0-4.1 7.46.69 7.46s4.1-7.46-.69-7.46z"/><path d="m109.21 215.75c-4.81 0-4.1 7.46.7 7.46s4.09-7.46-.7-7.46z"/></g><path d="m298.32 421.32c9.39-9.59 24.65-15.25 40.1-13.21a38.83 38.83 0 0 1 14.7 5.23 4 4 0 0 0 5.62-1.71 27.69 27.69 0 0 1 5.17-7.53c7.64-7.9 17.81-8.72 21.51-9 14.63-1 20 7 37.27 12.18a83.24 83.24 0 0 0 24.5 3.37 3.93 3.93 0 0 1 3 6.53c-3.15 3.59-6.87 7.87-11 12.68-15.8 18.45-18.06 22.08-21.86 26.17-26.54 28.55-84.72 32.97-109.33 16.17a97.91 97.91 0 0 0 -14-8.6 92.78 92.78 0 0 0 -20.49-7.33 3.94 3.94 0 0 1 -1.12-7.22 62.1 62.1 0 0 0 15.53-13.05c5.96-7 5-9.17 10.4-14.68z" fill="#00ccc1"/><path d="m282.9 452.23a1 1 0 0 1 -1-1 1 1 0 0 1 1-1c1 0 100.81-.92 149.45-33.7a1 1 0 1 1 1.12 1.66c-25.71 17.33-65.3 25.66-94 29.6a486.09 486.09 0 0 1 -56.58 4.44z" fill="#fff"/><path d="m300.47 433.84a2.47 2.47 0 0 1 -1.61-.59 2.49 2.49 0 0 1 -.3-3.52c.73-.88 18.32-21.48 37.08-18.42a2.5 2.5 0 1 1 -.81 4.93c-15.94-2.6-32.29 16.52-32.45 16.71a2.49 2.49 0 0 1 -1.91.89z" fill="#fff"/><path d="m371.79 408.21a2.49 2.49 0 0 1 -1.91-4.1c.3-.37 7.63-8.85 24-4.95a2.5 2.5 0 1 1 -1.16 4.86c-13.39-3.19-19 3.23-19 3.3a2.48 2.48 0 0 1 -1.93.89z" fill="#fff"/><path d="m345.32 477.42a122 122 0 0 1 -18.75-1.32 2.5 2.5 0 0 1 .84-4.93c.54.09 53.81 8.7 80.5-21.59a2.5 2.5 0 0 1 3.76 3.31c-11.86 13.45-30.37 21.73-53.53 23.93-4.59.43-8.92.6-12.82.6z" fill="#fff"/><path d="m313.38 462c-4.81 0-4.1 7.46.7 7.46s4.1-7.46-.7-7.46z" fill="#fff"/><path d="m415.89 438.37c-4.81 0-4.09 7.45.7 7.45s4.1-7.45-.7-7.45z" fill="#fff"/><path d="m407.65 404c-4.81 0-4.1 7.45.69 7.45s4.1-7.45-.69-7.45z" fill="#fff"/><path d="m291.88 436.93c-4.82 0-4.1 7.46.69 7.46s4.1-7.46-.69-7.46z" fill="#fff"/></g></svg>