<svg height="512" viewBox="0 0 512 512" width="512" xmlns="http://www.w3.org/2000/svg" xmlns:xlink="http://www.w3.org/1999/xlink"><clipPath id="clip-path"><path d="m63.75 208.26c-12.59 0-26.63-25.83-26.63-62.88s14-62.87 26.63-62.87 26.63 25.82 26.63 62.87-14.03 62.88-26.63 62.88z"/></clipPath><clipPath id="clip-path-2"><circle cx="371.26" cy="145.38" r="64.23"/></clipPath><g id="Hair_Dyer" data-name="Hair Dyer"><path d="m188.58 246.28 5.42-14.28a2.17 2.17 0 0 1 4.09.1l4.74 14.46a2.18 2.18 0 0 0 1.38 1.38l9.92 3.29a2.17 2.17 0 0 1 0 4.1l-10.13 3.58a2.19 2.19 0 0 0 -1.33 1.36l-5.45 16.46a2.17 2.17 0 0 1 -4.14-.08l-4.75-16.33a2.18 2.18 0 0 0 -1.33-1.43l-10-3.65a2.17 2.17 0 0 1 0-4.09l10.25-3.59a2.18 2.18 0 0 0 1.33-1.28z" fill="#ffb833"/><path d="m386.42 300.39 5.44-14.32a2.16 2.16 0 0 1 4.08.09l4.75 14.46a2.19 2.19 0 0 0 1.38 1.39l9.91 3.28a2.17 2.17 0 0 1 0 4.1l-10.12 3.61a2.2 2.2 0 0 0 -1.32 1.36l-5.45 16.46a2.17 2.17 0 0 1 -4.14-.07l-4.75-16.33a2.17 2.17 0 0 0 -1.34-1.44l-10-3.65a2.17 2.17 0 0 1 0-4.08l10.26-3.6a2.18 2.18 0 0 0 1.3-1.26z" fill="#ffb833"/><path d="m447 50.54 6.76-17.8a2.69 2.69 0 0 1 5.08.11l5.9 18a2.7 2.7 0 0 0 1.71 1.71l12.32 4.09a2.69 2.69 0 0 1 .06 5.09l-12.63 4.51a2.71 2.71 0 0 0 -1.65 1.69l-6.75 20.44a2.69 2.69 0 0 1 -5.14-.1l-5.89-20.28a2.68 2.68 0 0 0 -1.67-1.78l-12.47-4.54a2.69 2.69 0 0 1 0-5.07l12.74-4.48a2.68 2.68 0 0 0 1.63-1.59z" fill="#ffb833"/><path d="m209.15 486a40.26 40.26 0 0 1 -10.56-1.44c-37.45-10.17-31.45-44.7-26.16-75.15 4-23 8.13-46.77-5.06-60-4.14-4.14-8.54-5.58-13.57-4.37 4.57 23.96 3.61 50.96-4.35 67.96-5.93 12.71-15.27 19.43-27 19.43-8.93 0-15.38-5-17.71-13.69-6-22.25 14.61-65.65 37.48-79.46-2.92-11.71-7.29-22-12.84-28.62-21.24-25.36-67.74-8-68.21-7.78a5 5 0 0 1 -3.58-9.33c2.17-.84 53.62-20.16 79.46 10.68 6.29 7.51 11.21 18.59 14.54 31.12 8.34-2 16.24.41 22.85 7 16.86 16.86 12.28 43.23 7.84 68.74-6.05 34.85-7.8 56.53 18.93 63.79 8.39 2.28 16.38 1 24.42-3.86 38.75-23.5 60.06-119.09 60.27-120a5 5 0 1 1 9.77 2.13 419.21 419.21 0 0 1 -16.09 53c-14.35 37.83-30.76 62.55-48.76 73.47a41.42 41.42 0 0 1 -21.67 6.38zm-64.73-136.13c-8.09 6.06-16.29 16.93-22.48 30-6.81 14.35-9.7 28.26-7.54 36.31 1.18 4.39 3.58 6.27 8 6.27 7.67 0 13.71-4.6 17.94-13.66 6.66-14.27 7.66-37.72 4.08-58.92z" fill="#00ccc1"/><path d="m286.42 388.56-7.32-1.39c-14.86-2.82-25.34-17.6-23.28-33.92l18.09-143.91c3.58-28.54 24.28-50.2 45.94-46.09l10.67 2c21.66 4.11 33 31.85 25.87 59.72l-35.87 140.55c-4.07 15.94-19.24 25.86-34.1 23.04z" fill="#ff8d93"/><rect fill="#00ccc1" height="61.34" rx="9.3" transform="matrix(.981 .193 -.193 .981 51.99 -48.77)" width="26.48" x="262.87" y="211.58"/><path d="m334.89 228.15a552.77 552.77 0 0 0 -270-14.55v-138.75a812.68 812.68 0 0 0 139.75 3.8 815.23 815.23 0 0 0 130.25-18.35z" fill="#ff8d93"/><ellipse cx="352.67" cy="144.23" fill="#ff8d93" rx="95.55" ry="89.14"/><ellipse cx="64.9" cy="144.23" fill="#ff535c" rx="33.55" ry="69.8"/><g clip-path="url(#clip-path)"><path d="m63.75 208.26c-12.59 0-26.63-25.83-26.63-62.88s14-62.87 26.63-62.87 26.63 25.82 26.63 62.87-14.03 62.88-26.63 62.88z" fill="#383333"/><g fill="#00ccc1"><path d="m106.11 106.1h-92.3a1.5 1.5 0 0 1 0-3h92.3a1.5 1.5 0 0 1 0 3z"/><path d="m106.11 92.45h-92.3a1.5 1.5 0 0 1 0-3h92.3a1.5 1.5 0 0 1 0 3z"/><path d="m106.11 202.82h-92.3a1.5 1.5 0 0 1 0-3h92.3a1.5 1.5 0 1 1 0 3z"/><path d="m106.11 120h-92.3a1.5 1.5 0 1 1 0-3h92.3a1.5 1.5 0 0 1 0 3z"/><path d="m106.11 133.79h-92.3a1.5 1.5 0 0 1 0-3h92.3a1.5 1.5 0 0 1 0 3z"/><path d="m106.11 147.64h-92.3a1.5 1.5 0 0 1 0-3h92.3a1.5 1.5 0 1 1 0 3z"/><path d="m106.11 161.48h-92.3a1.5 1.5 0 0 1 0-3h92.3a1.5 1.5 0 0 1 0 3z"/><path d="m106.11 175.32h-92.3a1.5 1.5 0 0 1 0-3h92.3a1.5 1.5 0 1 1 0 3z"/><path d="m106.11 189.17h-92.3a1.5 1.5 0 0 1 0-3h92.3a1.5 1.5 0 0 1 0 3z"/></g></g><path d="m64.21 208.71c-16 0-28.59-28.3-28.59-64.44s12.56-64.43 28.59-64.43 28.59 28.3 28.59 64.43-12.56 64.44-28.59 64.44zm0-125.87c-13.87 0-25.59 28.13-25.59 61.43s11.72 61.44 25.59 61.44 25.59-28.13 25.59-61.44-11.72-61.43-25.59-61.43z" fill="#00ccc1"/><g clip-path="url(#clip-path-2)"><circle cx="371.26" cy="145.38" fill="#00ccc1" r="64.23"/><g fill="#383333"><rect height="11.39" rx="4.5" width="89.85" x="355.97" y="121.23"/><rect height="11.39" rx="4.5" width="89.85" x="355.97" y="144.12"/><rect height="11.39" rx="4.5" width="89.85" x="355.97" y="167"/></g></g><path d="m351.23 233.93c-13.45 0-28.51-4.28-39.11-8a201.93 201.93 0 0 1 -21.56-9 .49.49 0 0 1 -.22-.67.49.49 0 0 1 .66-.26c.36.18 36.38 18.2 63.22 16.84a.49.49 0 0 1 .53.47.51.51 0 0 1 -.48.53c-.99.06-2.01.09-3.04.09z" fill="#383333"/><g fill="#fff"><path d="m41.4 116.14a3.05 3.05 0 0 1 -.52 0 2.52 2.52 0 0 1 -1.93-3c.28-1.28 6.87-31.36 24.39-34.25a2.5 2.5 0 1 1 .82 4.94c-11.78 1.93-18.66 22.57-20.32 30.35a2.49 2.49 0 0 1 -2.44 1.96z"/><path d="m65.34 210c-6.53 0-14.75-3.56-21.8-17.62a87.81 87.81 0 0 1 -6.8-19.47 2.5 2.5 0 0 1 4.9-1c.08.36 7.61 36.22 26.13 32.87a2.5 2.5 0 1 1 .89 4.92 18.46 18.46 0 0 1 -3.32.3z"/><path d="m91.3 180.75a2.51 2.51 0 0 1 -2.06-3.93c7.15-10.33 5.91-43.62 4.83-55.57a2.5 2.5 0 0 1 5-.45c.16 1.83 3.94 44.94-5.69 58.87a2.52 2.52 0 0 1 -2.08 1.08z"/><path d="m170.93 91.83a515.48 515.48 0 0 1 -58.8-3.42 2.5 2.5 0 1 1 .64-5c.59.08 59.44 7.57 107.35 0a2.5 2.5 0 0 1 .78 4.94c-16.3 2.65-33.84 3.48-49.97 3.48z"/><path d="m407.79 81.15a2.5 2.5 0 0 1 -1.59-.57c-28.32-23.33-75.8-12.31-76.28-12.19a2.5 2.5 0 0 1 -1.17-4.86 129 129 0 0 1 28.71-2.89c21.39.16 39.35 5.72 51.92 16.08a2.5 2.5 0 0 1 -1.59 4.43z"/><path d="m313.77 143.44h-.22a2.5 2.5 0 0 1 -2.28-2.7c.62-7.06 3.68-25 18.66-39.1a60.07 60.07 0 0 1 28-14.75 2.5 2.5 0 0 1 1.1 4.88 55 55 0 0 0 -25.7 13.51c-13.73 12.92-16.54 29.4-17.11 35.89a2.49 2.49 0 0 1 -2.45 2.27z"/><path d="m373 219.11c-1.51 0-3.06-.05-4.63-.16a2.5 2.5 0 0 1 .36-5c37.24 2.67 59.79-31.72 60-32.06a2.5 2.5 0 0 1 4.21 2.69c-.94 1.48-22.52 34.53-59.94 34.53z"/><path d="m248.2 202.43a2.48 2.48 0 0 1 -.65-.09c-28.86-7.73-76.39-4.71-76.87-4.68a2.5 2.5 0 0 1 -.33-5c2-.13 48.83-3.1 78.49 4.84a2.5 2.5 0 0 1 -.64 4.92z"/><path d="m271.08 267.85h-.08a8.07 8.07 0 0 1 -6.67-3.49c-4.79-7 .33-22.33.93-24.06a2.5 2.5 0 1 1 4.72 1.64c-1.94 5.61-4.07 15.89-1.53 19.59a3.06 3.06 0 0 0 2.71 1.32 2.5 2.5 0 0 1 -.08 5z"/><path d="m281.46 383.69a2.48 2.48 0 0 1 -.54-.06c-7.73-1.72-13.48-5.88-17.08-12.35-10-17.9.12-47.35.55-48.59a2.5 2.5 0 1 1 4.72 1.64c-.1.29-9.77 28.59-.9 44.53 2.92 5.24 7.44 8.47 13.8 9.89a2.5 2.5 0 0 1 -.55 4.94z"/><path d="m322.52 335.82a2.53 2.53 0 0 1 -2.43-3.1l14.91-60.29a2.5 2.5 0 1 1 4.85 1.2l-14.85 60.29a2.53 2.53 0 0 1 -2.48 1.9z"/><path d="m122.5 301a2.49 2.49 0 0 1 -1.42-.45c-11.83-8.24-35.28-6.2-35.51-6.18a2.5 2.5 0 1 1 -.46-5c1-.1 25.5-2.24 38.82 7.05a2.5 2.5 0 0 1 -1.43 4.58z"/><path d="m151.18 386.41h-.18a2.51 2.51 0 0 1 -2.34-2.66c1.2-18.54-4.31-46.08-4.36-46.35a2.5 2.5 0 1 1 4.9-1c.23 1.15 5.69 28.45 4.45 47.67a2.49 2.49 0 0 1 -2.47 2.34z"/><path d="m109.5 419.67a2.51 2.51 0 0 1 -2.13-1.18c-5.57-9 1.4-25.19 1.7-25.88a2.5 2.5 0 0 1 4.59 2c-1.75 4-5.51 15.65-2 21.24a2.51 2.51 0 0 1 -.8 3.45 2.54 2.54 0 0 1 -1.36.37z"/><path d="m173.51 441.89a2.5 2.5 0 0 1 -2.5-2.46c-.14-9.22 5.44-38.95 5.68-40.21a2.5 2.5 0 0 1 4.91.93c-.06.3-5.72 30.49-5.59 39.2a2.5 2.5 0 0 1 -2.46 2.54z"/><path d="m248.78 457.83a2.5 2.5 0 0 1 -1.69-4.34c9.09-8.33 20.48-37.58 20.59-37.88a2.5 2.5 0 0 1 4.67 1.81c-.49 1.24-11.94 30.64-21.88 39.76a2.47 2.47 0 0 1 -1.69.65z"/><path d="m274.36 401.13c-5.16 0-4.4 8 .74 8s4.4-8-.74-8z"/><path d="m238.79 461.89c-5.16 0-4.4 8 .74 8s4.4-8-.74-8z"/><path d="m180.53 380.56c-5.16 0-4.4 8 .74 8s4.4-8-.74-8z"/><path d="m174 448.24c-5.16 0-4.4 8 .75 8s4.38-8-.75-8z"/><path d="m148.8 395.94c-5.16 0-4.39 8 .75 8s4.45-8-.75-8z"/><path d="m116.31 374.41c-5.16 0-4.4 8 .74 8s4.4-8-.74-8z"/><path d="m118.81 423.24c-5.16 0-4.4 8 .74 8s4.45-8-.74-8z"/><path d="m138.23 311c-5.16 0-4.4 8 .74 8s4.4-8-.74-8z"/><path d="m70.55 290.19c-5.17 0-4.4 8 .74 8s4.4-8-.74-8z"/><path d="m87.85 190.78c-5.16 0-4.4 8 .75 8s4.4-8-.75-8z"/><path d="m87.08 98.11c-5.16 0-4.39 8 .75 8s4.39-8-.75-8z"/><path d="m37.48 137.33c-5.17 0-4.4 8 .74 8s4.4-8-.74-8z"/><path d="m94.39 79.26c-5.16 0-4.4 8 .74 8s4.4-8-.74-8z"/><path d="m243.6 78.49c-5.17 0-4.4 8 .74 8s4.4-8-.74-8z"/><path d="m144.38 191.17c-5.16 0-4.4 8 .74 8s4.4-8-.74-8z"/><path d="m262.05 198.09c-5.16 0-4.39 8 .75 8s4.4-8-.75-8z"/><path d="m318.58 157.33c-5.16 0-4.39 8 .75 8s4.4-8-.75-8z"/><path d="m375.5 87.34c-5.17 0-4.4 8 .74 8s4.4-8-.74-8z"/><path d="m309.74 68.88c-5.16 0-4.4 8 .74 8s4.4-8-.74-8z"/><path d="m424.72 92.34c-5.16 0-4.4 8 .74 8s4.4-8-.74-8z"/><path d="m437.41 162.71c-5.16 0-4.4 8 .74 8s4.4-8-.74-8z"/><path d="m340.89 208.47c-5.17 0-4.4 8 .74 8s4.37-8-.74-8z"/><path d="m274.36 220.78c-5.16 0-4.4 8 .74 8s4.4-8-.74-8z"/><path d="m270.9 297.3c-5.16 0-4.4 8 .74 8s4.36-8-.74-8z"/><path d="m300.13 373.45c-5.17 0-4.4 8 .74 8s4.4-8-.74-8z"/><path d="m339.73 250.39c-5.16 0-4.39 8 .75 8s4.4-8-.75-8z"/></g></g></svg>