<svg height="512" viewBox="0 0 512 512" width="512" xmlns="http://www.w3.org/2000/svg"><g id="Moisturizer"><rect fill="#ff8d93" height="77.1" rx="9.13" transform="matrix(-.436 -.9 .9 -.436 312.86 711.63)" width="320.5" x="219.2" y="219.22"/><ellipse cx="350.36" cy="271.86" fill="#ff535c" rx="22.1" ry="160.25" transform="matrix(.9 -.436 .436 .9 -83.46 179.9)"/><ellipse cx="407.34" cy="244.26" fill="#ff8d93" rx="22.1" ry="160.25" transform="matrix(.9 -.436 .436 .9 -65.74 201.98)"/><path d="m92 240.38c-3.14-31.65 4.82-45.48 12.61-52.25 25.3-22 82.24 1.13 92.61-16.58.65-1.11 4-6.78 1.8-10.45-2.59-4.38-11.25-2.9-11.53-4.68s7.78-5.49 15.13-6.49c17.86-2.43 34.32 10.88 43.6 20.18 0 0 80.36-9 68.47 70.27z" fill="#ffdb99"/><rect fill="#00ccc1" height="84.32" rx="8.73" width="239.99" x="83.56" y="208.49"/><ellipse cx="203.55" cy="415.13" fill="#ff8d93" rx="145.65" ry="22.83"/><path d="m44.56 146.27 5.65-14.86a2.24 2.24 0 0 1 4.23.1l4.93 15a2.26 2.26 0 0 0 1.42 1.44l10.29 3.41a2.25 2.25 0 0 1 0 4.25l-10.55 3.76a2.21 2.21 0 0 0 -1.37 1.41l-5.66 17.07a2.25 2.25 0 0 1 -4.29-.08l-4.92-16.93a2.25 2.25 0 0 0 -1.29-1.5l-10.4-3.79a2.24 2.24 0 0 1 0-4.23l10.64-3.73a2.26 2.26 0 0 0 1.32-1.32z" fill="#ffb833"/><path d="m390 437.69 5.64-14.86a2.25 2.25 0 0 1 4.24.1l4.92 15a2.3 2.3 0 0 0 1.43 1.44l10.29 3.41a2.25 2.25 0 0 1 0 4.25l-10.52 3.75a2.3 2.3 0 0 0 -1.38 1.41l-5.65 17.07a2.25 2.25 0 0 1 -4.29-.08l-4.92-16.93a2.27 2.27 0 0 0 -1.39-1.49l-10.43-3.76a2.24 2.24 0 0 1 0-4.23l10.65-3.77a2.22 2.22 0 0 0 1.41-1.31z" fill="#ffb833"/><path d="m398.3 61.46 7-18.46a2.79 2.79 0 0 1 5.26.12l6.12 18.64a2.8 2.8 0 0 0 1.77 1.78l12.78 4.23a2.79 2.79 0 0 1 .06 5.28l-13.1 4.68a2.79 2.79 0 0 0 -1.71 1.76l-7 21.21a2.8 2.8 0 0 1 -5.34-.1l-6.11-21a2.79 2.79 0 0 0 -1.73-1.84l-12.94-4.76a2.8 2.8 0 0 1 0-5.26l13.22-4.64a2.8 2.8 0 0 0 1.72-1.64z" fill="#ffb833"/><rect fill="#ff8d93" height="177.22" rx="25.9" width="320.5" x="43.3" y="245.11"/><path d="m323.55 365.9a20.78 20.78 0 0 1 -16.7 20.4 531.07 531.07 0 0 1 -96.66 10.1 531.79 531.79 0 0 1 -109.88-10.09 20.8 20.8 0 0 1 -16.75-20.41v-65.36a20.83 20.83 0 0 1 17.21-20.54 587.61 587.61 0 0 1 205.63 0 20.79 20.79 0 0 1 17.15 20.48z" fill="#aaeeea"/><path d="m205.47 293.87a4.65 4.65 0 0 0 -7.17.16c-24.47 31.21-27 62.35-14.37 74.34 9.94 9.42 31.37 9 40.65-.9 11.73-12.47 6.99-43.21-19.11-73.6z" fill="#00ccc1"/><g fill="#fff"><path d="m57.9 310.38a2.5 2.5 0 0 1 -2.5-2.5v-31.63a21 21 0 0 1 21-21h59.17a2.5 2.5 0 1 1 0 5h-59.19a16 16 0 0 0 -16 16v31.63a2.5 2.5 0 0 1 -2.48 2.5z"/><path d="m176.47 429.24h-.08c-54.88-1.69-91.47-11.95-108.4-17.91a18.91 18.91 0 0 1 -12.59-17.83v-24.7a2.5 2.5 0 0 1 5 0v24.7a13.9 13.9 0 0 0 9.25 13.11c16.65 5.87 52.69 16 106.89 17.63a2.5 2.5 0 0 1 -.07 5z"/><path d="m272.29 424.84c-.81 0-1.31 0-1.47 0a2.5 2.5 0 0 1 .07-5h.11c.35 0 36.74.78 65.62-16.23a20.68 20.68 0 0 0 10.13-17.79v-35.82a2.5 2.5 0 0 1 5 0v35.78a25.73 25.73 0 0 1 -12.59 22.1c-27.16 16-59.54 16.96-66.87 16.96z"/><path d="m216.34 222h-115.88a2.5 2.5 0 0 1 0-5h115.88a2.5 2.5 0 0 1 0 5z"/><path d="m111.31 197.5a2.5 2.5 0 0 1 -2-4c.47-.62 12-15.12 42.26-12a2.5 2.5 0 0 1 -.51 5c-27.33-2.79-37.37 9.58-37.79 10.11a2.5 2.5 0 0 1 -1.96.89z"/><path d="m235.26 175.69a2.48 2.48 0 0 1 -2.16-1.24c-8.27-14-27-17.28-27.22-17.31a2.5 2.5 0 0 1 .81-4.94c.86.15 21.27 3.66 30.72 19.72a2.5 2.5 0 0 1 -.89 3.42 2.43 2.43 0 0 1 -1.26.35z"/><path d="m302.15 127a2.5 2.5 0 0 1 -1-4.77l28.37-13.14a2.5 2.5 0 0 1 2.1 4.54l-28.42 13.15a2.62 2.62 0 0 1 -1.05.22z"/><path d="m464 362.94a2.5 2.5 0 0 1 -2.46-2.1c-5.33-32.46-24.27-80.16-54.78-138-23.1-43.75-44.86-78.17-45.08-78.52a2.5 2.5 0 0 1 4.23-2.67c.21.34 22.09 34.93 45.27 78.86 31.2 59.09 49.8 106 55.29 139.48a2.5 2.5 0 0 1 -2.06 2.88 2.83 2.83 0 0 1 -.41.07z"/><path d="m241.44 215.73c-5.35 0-4.56 8.29.77 8.29s4.55-8.29-.77-8.29z"/><path d="m167.37 181.49c-5.34 0-4.55 8.28.77 8.28s4.56-8.28-.77-8.28z"/><path d="m247 180.3c-5.34 0-4.55 8.28.77 8.28s4.57-8.28-.77-8.28z"/><path d="m154.63 252.77c-5.34 0-4.55 8.28.77 8.28s4.6-8.28-.77-8.28z"/><path d="m55.48 328.82c-5.34 0-4.55 8.28.77 8.28s4.56-8.28-.77-8.28z"/><path d="m206 420.81c-5.35 0-4.55 8.28.77 8.28s4.55-8.28-.77-8.28z"/><path d="m347.36 316.88c-5.35 0-4.56 8.28.77 8.28s4.55-8.28-.77-8.28z"/><path d="m465.62 373.82c-5.34 0-4.55 8.28.77 8.28s4.61-8.28-.77-8.28z"/><path d="m349 117.68c-5.34 0-4.55 8.28.77 8.28s4.51-8.28-.77-8.28z"/></g></g></svg>