<svg height="512" viewBox="0 0 512 512" width="512" xmlns="http://www.w3.org/2000/svg"><path d="m78.11 338.52h288.81v83.62h-288.81z" fill="#efbd42"/><ellipse cx="127.7" cy="380.33" fill="#eaeaea" rx="16.43" ry="19.65"/><path d="m169.41 371.65h160.45v17.36h-160.45z" fill="#eaeaea"/><path d="m478.28 361.06-111.36 61.09q-.39-41.85-.77-83.7l112.65-27q-.26 24.8-.52 49.61z" fill="#d7981a"/><path d="m78.11 338.52 138.1-35 262.59 7.93-113.8 42.07z" fill="#d7981a"/><path d="m478.8 319.25-103.1 42.04v46.16l102.66-53.93z" fill="#c6c6c6"/><path d="m320.7 357.78-288.6-13.11 2.65-83.57 288.61 13.11z" fill="#e73f46"/><ellipse cx="82.99" cy="305.13" fill="#eaeaea" rx="16.43" ry="19.65"/><path d="m284.72 322.99-160.33-7.29.55-17.35 160.33 7.29z" fill="#eaeaea"/><path d="m433.92 301.8-113.22 56 1.89-83.68 113.41-21.91z" fill="#cc3745"/><path d="m34.75 261.1 139.12-28.74 262.13 19.85-115 36.91z" fill="#e73f46"/><path d="m435.77 260.04-104.36 37.33-1.46 46.12 104.29-49.22z" fill="#c6c6c6"/><path d="m66.56 254.53 258.72 19 134.47-41.2s-6.11-39.69 0-74.42l-129.75 18.77-270.61-11.43s12.05 54.26 7.17 89.28z" fill="#c6c6c6"/><path d="m59.39 165.25 145.44-38.37 254.92 31.06-146.13 25.59z" fill="#2d1929"/><path d="m77.53 151.32 143.26-43.19a965.09 965.09 0 0 1 261.31 47.3l-149.59 17.82q-127.02-13.08-254.98-21.93z" fill="#c6c6c6"/><path d="m55 145.91 142-49.12a959.43 959.43 0 0 1 262.48 36.41l-149 24q-127.55-7.78-255.48-11.29z" fill="#eaeaea"/><g fill="#2d1929"><path d="m65.69 203.87a254.57 254.57 0 0 1 75.74 8.13 731.63 731.63 0 0 0 -74.87.3z"/><path d="m281.35 244.47a439.37 439.37 0 0 1 46.65-1.37l32.09-7.77-30.09 17.67q-24.07-4.37-48.65-8.53z"/><path d="m457.55 176.68-47.85 11.88 47.49-5.03z"/><path d="m357.37 210-28.46 2.51v7.77z"/></g><path d="m344 301c22.17 1.8 39.56 17 49.28 37l73.35-29.7c-6.13-16.64-17.71-30.3-33.62-37z" fill="#eaeaea"/></svg>