<svg height="512" viewBox="0 0 512 512" width="512" xmlns="http://www.w3.org/2000/svg" xmlns:xlink="http://www.w3.org/1999/xlink"><clipPath id="a"><path d="m221.45 173.56h54.21v107.96h-54.21z" transform="matrix(.995 -.097 .097 .995 -21 25.32)"/></clipPath><path d="m258.24 218.29c34.67-30.64 55.76-73.59 55.13-121.94l-52.29 46.28q-1.43 37.83-2.84 75.66z" fill="#2d1929"/><g clip-path="url(#a)"><path d="m221.45 173.56h54.21v107.96h-54.21z" fill="#834a27" transform="matrix(.995 -.097 .097 .995 -21 25.32)"/><path d="m270 185.87a55.22 55.22 0 0 1 -11.58 32.34c-15.74 20.2-40.21 22.9-44.25 23.28l-3.52-35.94z" fill="#6e3d1e"/></g><path d="m263.92 69.44c-23-14-54.75-10.5-72.52 5.38a64.61 64.61 0 0 0 -12.87 13.62c-12.05 14-8.62 28-8.51 46.77 0 7.6-2 14.87-2.35 26.52s1.93 22.43 12.61 41.9c8.26 15.05 14.61 21.2 19 23.47 16.89 8.67 37.78-5.19 45.58-10.36a95.12 95.12 0 0 0 18.81-16.74c10.33-10.27 33.58-37.6 30.33-74.61-.73-7.92-3.55-39.84-30.08-55.95z" fill="#834a27"/><path d="m200.59 175.42c-4.43-1.94-6.83-4.22-7.13-6.77-.7-5.92 9-7 10.53-24.62a.5.5 0 1 1 1 .08c-1.47 17.51-11.12 19.41-10.53 24.42.26 2.18 2.46 4.19 6.54 6a.5.5 0 0 1 -.41.89z" fill="#2d1929"/><path d="m190 146.7c.06 4.23-2.11 7.68-4.84 7.72s-5-3.36-5.05-7.57 2.11-7.68 4.84-7.72 4.95 3.35 5.05 7.57z" fill="#2d1929"/><path d="m232.47 146.1c.06 4.22-2.11 7.67-4.84 7.71s-5-3.35-5-7.57 2.11-7.67 4.84-7.71 4.94 3.35 5 7.57z" fill="#2d1929"/><path d="m176.57 123.78a1 1 0 0 1 -.57-1.78c11.52-8.15 23.17-.15 23.29-.07a1 1 0 0 1 -1.15 1.64c-.43-.3-10.63-7.27-21 .07a1 1 0 0 1 -.57.14z" fill="#2d1929"/><path d="m218.77 122.27a1 1 0 0 1 -.59-1.81c.12-.09 11.65-8.27 23.29-.28a1 1 0 1 1 -1.13 1.65c-10.46-7.18-20.56-.06-21 .25a1.06 1.06 0 0 1 -.57.19z" fill="#2d1929"/><path d="m234.81 249.79c-15.86 3.57-50.63 12.31-64.94 40.88-4.15 8.29-2.8 10.74 6.64 96.1 3.49 31.37 5.49 59.42 2.49 95.57h175.51c-.2-27.69-1-65.21-3.44-109.73-4.35-78.61-9.31-95.61-22.07-108.31-26-25.73-70.36-19.88-94.19-14.51z" fill="#efbd42"/><path d="m212.67 256.16s-53.47 14.91-57.84 59.66c-3.85 39.47 9.08 166.52 9.08 166.52h39.32z" fill="#efbd42"/><path d="m223.77 252.55c7.31 18.27 14.25 22.83 19.51 23.25 15.18 1.22 34.24-30.59 34.24-30.58.17 0-14.25-2.86-19.76-3.4-7.57-.74-18.83.59-33.99 10.73z" fill="#834a27"/><path d="m222.55 240.1s-4.31-.3-7 5.05-7.25 13-7.25 13 8.49 38.76 17.7 39.64 18.23-21.91 18.23-21.91-19.84-16.79-21.68-35.78z" fill="#efbd42"/><path d="m276.09 230.66s-10.42 36.34-31.83 45.18c0 0 8.14 20.67 21.23 14.83s25.83-44.16 25.83-44.16c-7.49-9.74-7.33-15.37-11.14-16.46a5.77 5.77 0 0 0 -4.09.61z" fill="#efbd42"/><path d="m208.33 258.11s10.35 39.82 15.44 41.41 20.49-22.52 20.49-22.52l-19.47 17z" fill="#d7981a"/><path d="m245.67 278.85s14 20.9 22.12 18.93 23.53-51.27 23.53-51.27q-12.81 22.94-25.61 45.89z" fill="#d7981a"/><path d="m243.55 278.11q-7.77 9.06-15.53 18.14l7.39 10.88c1 32.23-3.45 57-7.79 73.8-4.84 18.74-10.07 29.65-11.3 49a133.71 133.71 0 0 0 7.45 52.39h60.66a108.28 108.28 0 0 1 -23.36-38.23c-11.85-34.26 2.22-59.16-10.7-135.56l8.28-14.62z" fill="#917eec"/><path d="m296.84 247.57s35 3.87 49.18 24.64 31.86 129.43 24.78 161.28-34 31.86-60.18 14.87-13.78-200.79-13.78-200.79z" fill="#efbd42"/><path d="m288 406.62a10.83 10.83 0 0 0 -1.73 7.76c1 5.89 6.9 8.14 7.17 8.23a15.55 15.55 0 0 0 -.53 10.09c2.53 8.44 11.73 10.77 12.21 10.89 5.74 14.47.68 29.64-11.22 38.75h60.61l-.32-25a28.05 28.05 0 0 1 -35-12.43 42.62 42.62 0 0 0 16.46-82.82z" fill="#d7981a"/><path d="m258.68 248.2c1.17 30.46 8.09 173.48 56.9 183.88 13 2.77 31.3-3.4 38.93-15.58 10.62-16.93-2.13-41.08-18.4-75-12.77-26.66-31-66.27-51.68-117.16z" fill="#834a27"/><ellipse cx="210.7" cy="192.8" fill="#eaeaea" rx="9.23" ry="6.11"/><path d="m250.65 223.66s-3.39 26.64 12.28 27.17 23.84-7.43 23.84-7.43l-10.93-29.72z" fill="#834a27"/><path d="m228.28 182.37a32 32 0 1 1 29.27-44.93 32.06 32.06 0 0 1 -29.27 44.93zm-.09-61.06a29 29 0 1 0 26.62 17.34 29.06 29.06 0 0 0 -26.62-17.34z" fill="#86ebf9"/><path d="m245.85 191.84a1.51 1.51 0 0 1 -1.38-.89l-5.31-12.06a1.5 1.5 0 1 1 2.75-1.21l5.31 12.06a1.5 1.5 0 0 1 -1.37 2.1z" fill="#86ebf9"/><path d="m270.86 242.83-3.21 1.41a6.12 6.12 0 0 1 -8.15-3.34l-18-45.19a6.12 6.12 0 0 1 11.2-4.93l21.19 43.77a6.13 6.13 0 0 1 -3.03 8.28z" fill="#86ebf9"/><path d="m286.77 229.89s-5.52-35-11.14-39.52-36.33 5.53-38.19 11.37 5.91 7.23 5.91 7.23-5 5.11 1.16 8.7c0 0-1.63 7 4.61 7.36 0 0-2.65 5.82 2 8.21s6 1.63 6 1.63-1-3.74.85-5 12.63-1.67 13.87.89 11.34 5.86 14.93-.87z" fill="#834a27"/><g fill="#2d1929"><path d="m253.58 192.15c12.13-5.24 19.31-3.31 19.61-3.22a.5.5 0 0 1 -.27 1c-.07 0-7.17-1.91-18.94 3.18a.5.5 0 0 1 -.4-.96z"/><path d="m257.21 235.37c-9.17 0-11.57-4.69-9.38-10-3.72-.77-4.89-3.78-4-7.35-4.57-1.36-4.44-5-1.5-8.68-2.78-.48-4.46-1.55-5-3.16-1.19-3.74 4.43-8.92 4.67-9.14a.5.5 0 1 1 .67.74c-1.5 1.37-5.22 5.49-4.38 8.09.44 1.38 2.14 2.26 5 2.61a.5.5 0 0 1 .3.84s-3 3.22-2.31 5.57c.31 1.08 1.4 1.85 3.23 2.29a.5.5 0 0 1 .35.66s-1 2.82.19 4.76a4.44 4.44 0 0 0 3.45 1.89.5.5 0 0 1 .38.73s-1.82 3.48-.28 6.07c1.2 2 4.05 3 8.49 3.08a.51.51 0 0 1 .5.51.5.5 0 0 1 -.38.49z"/><path d="m259.36 263.13a.49.49 0 0 1 -.5-.49l-.23-12.64c-6.83-1.71-8.52-15.34-8.59-15.93a.5.5 0 0 1 1-.12c0 .14 1.74 14 8.18 15.15a.48.48 0 0 1 .41.48l.24 13a.51.51 0 0 1 -.51.55z"/><path d="m243.35 209.47a.5.5 0 0 1 -.18-1l20.06-7.77a.5.5 0 0 1 .65.29.5.5 0 0 1 -.29.64c-21.3 8.29-20.1 7.84-20.24 7.84z"/><path d="m244.51 218.17a.5.5 0 0 1 -.14-1l18.9-5.56a.5.5 0 0 1 .62.34.49.49 0 0 1 -.34.62c-20.12 5.93-18.93 5.6-19.04 5.6z"/><path d="m248.55 225.48a.5.5 0 0 1 -.18-1 74.34 74.34 0 0 1 16.63-4.39.51.51 0 0 1 .56.44.5.5 0 0 1 -.44.55c-8.74 1.05-16.12 4.4-16.57 4.4z"/></g><path d="m167.64 336.86 10.07 35.04 1.32 110.44h8.77l-6.73-110.61z" fill="#d7981a"/><path d="m170 137-7.94-32.67s-14.06-11.97-12.49-26.33 20.43-14.57 20.43-14.57-.77-21.24 21.53-14.34c0 0 20.49-17.52 39.44-16.72s16.03 15.13 16.03 15.13 21.77-10.88 31.32-5.84 7.44 16.19 7.44 16.19 15.93.8 20.17 9.56 0 17.25 0 17.25a11.31 11.31 0 0 1 7.7 10.09c.8 8.23-10.35 28-10.35 28l-13 34.36-21.28-4.22 5.34-31.89c-6.41-3.32-14.17-8.8-17.78-17.79-3.87-9.62-.53-17.18-5.58-20.71s-11.16 2.31-21.24-.26a26.71 26.71 0 0 1 -12.74-8c-11.56 0-16.77 3.48-19.38 6.64-4.28 5.17-2.4 10.45-7.7 14.07-4.92 3.37-13.35 3.45-13.35 3.45s-4.7 4.39-6.57 38.6z" fill="#2d1929"/><path d="m299.93 149.33c-3.09 10.51-12.62 17-21.26 14.42s-13.16-13.14-10.07-23.65 12.62-17 21.27-14.42 13.13 13.14 10.06 23.65z" fill="#834a27"/><path d="m276.71 153.21c.19-.05 4.64-1.17 4.63-5.69 0-3.12-5.68-3.48-5.74-3.48a.5.5 0 0 1 -.45-.65c.15-.49 3.79-11.95 11.36-12.31 6.62-.34 7.1 7.16 7.1 7.24a.5.5 0 0 1 -1 .06c0-.27-.44-6.58-6.06-6.3-6 .28-9.42 8.71-10.25 11 1.68.21 6 1.08 6 4.41 0 5.32-5.35 6.66-5.4 6.67a.5.5 0 0 1 -.19-.95z" fill="#2d1929"/></svg>