<svg height="512" viewBox="0 0 512 512" width="512" xmlns="http://www.w3.org/2000/svg" xmlns:xlink="http://www.w3.org/1999/xlink"><clipPath id="a"><path d="m138.88 178.92h47.51v99.62h-47.51z"/></clipPath><path d="m231.81 86.93s-93.43-61.71-139.9 10.37c0 0-.75 45.1-24.45 86.67s-43.46 109.55 30.19 131.46 156.21.93 167.45-36.89-33.29-191.61-33.29-191.61z" fill="#917eec"/><g clip-path="url(#a)"><path d="m138.88 178.92h47.51v99.62h-47.51z" fill="#955d43"/><path d="m129.15 225.36c20 11.55 44 12.52 64.79 1.5v-42h-67.79z" fill="#834a27"/></g><path d="m224.09 128.27a40.44 40.44 0 0 1 -1.45 13.89c-.56 2-3.9 14.85-8 28.13-3.81 12.36-17.2 53-50.47 55-27.43 1.35-47.59-30.32-55.43-56.12-1.33-8.2-7.54-32.14-7.88-42.43a38.78 38.78 0 0 1 .3-6.27s.78-36.91 22.68-57.42a48 48 0 0 1 16.7-10.24c1.78-.35 20.06-9.83 45.21-.16.34.06.67.09 1 .16 38.24 13.67 39.36 67.65 39.36 67.66-.67 2.41-1.35 5.07-2.02 7.8z" fill="#955d43"/><path d="m161.29 170.76c-4.85-1.22-7.68-3.14-8.42-5.7-1.72-5.92 8-8.67 6.59-26.92a.5.5 0 0 1 1-.08c1.45 18.14-8.09 21.7-6.63 26.72.64 2.19 3.23 3.88 7.7 5a.5.5 0 0 1 -.24.98z" fill="#2d1929"/><path d="m191.55 141.92c0-4.37-2.28-7.91-5.11-7.91s-5.12 3.53-5.13 7.9 2.29 7.92 5.11 7.92 5.13-3.54 5.13-7.91h-60.21c0 4.37 2.3 7.91 5.12 7.91s5.12-3.55 5.12-7.92-2.3-7.91-5.13-7.9-5.12 3.54-5.11 7.91" fill="#2d1929"/><path d="m188 123c-2.62-.3-5.59-.63-8.38-2.88a12.74 12.74 0 0 1 -3.66-4.88 1 1 0 0 1 1.84-.79 10.62 10.62 0 0 0 3.08 4.11c2.33 1.89 4.88 2.17 7.35 2.45a26.38 26.38 0 0 0 10.87-1.01 1 1 0 0 1 .59 1.91 28.42 28.42 0 0 1 -11.69 1.09z" fill="#2d1929"/><path d="m124.91 121.87a1 1 0 0 1 .59-1.91 26.44 26.44 0 0 0 10.86 1.04c2.46-.28 5-.56 7.35-2.45a10.72 10.72 0 0 0 3.08-4.11 1 1 0 1 1 1.83.79 12.54 12.54 0 0 1 -3.66 4.88c-2.78 2.25-5.75 2.58-8.38 2.88a28.32 28.32 0 0 1 -11.67-1.12z" fill="#2d1929"/><path d="m79.15 246.33c-6.46 6.67-8.15 14.84-8.99 19.67-8.92 52.67 6.91 191.39 9.55 214h152.29c5.59-44.5 12.22-100.25 19.24-166.29 2.8-26.35 4.62-49.42-9.73-64-23.11-23.55-71.24-5.75-78.9-2.81-12.42-4.73-62.16-22.62-83.46-.57z" fill="#efbd42"/><path d="m104.43 236.78c-5.75-.2-15.13.37-23.88 5.9-14 8.88-18 25.26-20.31 35.86-14.35 65.71-26.95 123.4-.75 138.29a25.58 25.58 0 0 0 16.29 3.09c25.13-3.95 43.61-48.4 48.27-111z" fill="#efbd42"/><path d="m216 238.09c31.13 1.95 41.5 35.39 49.07 65.54 10.92 43.49 24.76 98.63 11.23 104.49-8.55 3.71-29.46-11.67-84.68-99.25q12.23-35.39 24.38-70.78z" fill="#efbd42"/><path d="m138.88 238.09c-1.84 15.27 9.49 28.23 22.29 29 13.55.84 27-12.07 25.56-28.37a139.53 139.53 0 0 0 -47.85-.63z" fill="#955d43"/><path d="m105.93 238.47c-12.93 31.06-27.33 66.68-42.7 106.36-11.44 29.54-19.77 51.93-9 66.66 6.67 9.12 19.7 14 29.22 12.74 40.55-5.4 55.6-127.81 59.55-165.17z" fill="#efbd42"/><path d="m166.22 62.91a142.63 142.63 0 0 1 -17.41 29.21c-6.8 8.8-17.63 22.51-36.52 32.49a98.15 98.15 0 0 1 -19.85 7.86 134.06 134.06 0 0 1 .38-41.56c3.23-19.27 6.41-37.58 21.35-47.57 19.83-13.24 46.17-2.34 49.83-.75 27.09-7.88 41.16-3.39 49.06 2.62 27.75 21.15 19.15 91.62 19.15 91.62-4.32.4-10.56.27-16.25-3.14-9.81-5.87-12.06-17.91-14-24.71-3.54-11.98-12.19-28.37-35.74-46.07z" fill="#917eec"/><path d="m114.54 163.12c-8.42 3.41-18.6-2.13-22.73-12.36s-.66-21.29 7.76-24.7 18.6 2.14 22.74 12.37.69 21.29-7.77 24.69z" fill="#955d43"/><path d="m106.58 155.87a.52.52 0 0 1 -.33-.12c-.14-.12-3.55-3-3.4-5.59.12-2.27 2.56-3.25 3.55-3.55-.33-5.92-3.46-14.68-9.27-13.54a.49.49 0 0 1 -.59-.39.51.51 0 0 1 .39-.59c6.66-1.33 10.24 8.14 10.49 14.88a.49.49 0 0 1 -.39.5s-3.07.71-3.18 2.75c-.1 1.72 2.17 4 3.05 4.77a.5.5 0 0 1 -.32.88z" fill="#2d1929"/><path d="m231.08 150.76c-4.08 10.24-14.31 15.77-22.73 12.36s-11.91-14.46-7.77-24.69 14.31-15.77 22.74-12.37 11.9 14.46 7.76 24.7z" fill="#955d43"/><path d="m216.31 155.87a.5.5 0 0 1 -.31-.87c.88-.74 3.15-3.05 3-4.77-.11-2-3.15-2.74-3.18-2.75a.49.49 0 0 1 -.39-.5c.25-6.79 3.85-16.2 10.48-14.88a.51.51 0 0 1 .4.59.5.5 0 0 1 -.59.39c-5.81-1.15-8.94 7.64-9.28 13.54 1 .3 3.43 1.28 3.56 3.56.15 2.57-3.26 5.46-3.41 5.58a.47.47 0 0 1 -.28.11z" fill="#2d1929"/><path d="m94.11 267.15 10.78-28.68a302.33 302.33 0 0 1 2.54-32.21 27.25 27.25 0 0 1 2.06-8.24s5.34-12 22.65-15.92a6.18 6.18 0 0 1 4.68.37c2.34 1.44 2.59 4.74 2.63 5.62 3.94-2.05 7.23 1.48 6.41 5.57a4.14 4.14 0 0 1 5.76 5.34 4.63 4.63 0 0 1 3.51 1c1.84 1.77.83 5.24.42 6.65-1.44 5-4.33 5.57-6.18 9.18-2.89 5.63 1.29 9.75.75 17-.31 4.18-2.22 9.91-9.36 16.48l-6 31.27s-32.15 3.47-40.65-13.43z" fill="#955d43"/><path d="m151.62 199s2.74-1.92 5.68 2.39 4.9 19.36 3 21.53a.86.86 0 0 1 -.35.24c-1.63.88-3.91-.45-4.11-.56-3.57-2.09-2.11-9.3-4.21-9.82-1.67-.42-3.28 4-5.62 3.64-1.55-.23-2.51-2.42-2.81-3.52-1.71-6.18 7.61-13.29 8.42-13.9z" fill="#955d43"/><path d="m222.78 246.7a962.58 962.58 0 0 1 45 98.13c13.26 33.89 18.63 53.48 9 66.66-6.67 9.12-19.7 14-29.22 12.74-40.56-5.4-55.56-127.81-59.56-165.17z" fill="#efbd42"/><path d="m140.52 248.89c12-6.4 9.79-16.85 8.34-23.76-.19-.89-.36-1.72-.49-2.48-1.22-7 2.77-10.14 2.94-10.27a.52.52 0 0 1 .26-.1c.6-.05 1.43.65 2 4.34s4.29 7.68 6 6.17.93-6.18-.38-13.9c-.52-3.11-1-7.39-3.89-9.06a4.49 4.49 0 0 0 -3.54-.36.51.51 0 0 1 -.67-.55c.36-2.16.07-3.66-.85-4.44-1.48-1.26-4.22-.35-4.25-.34a.5.5 0 0 1 -.66-.49c.08-2.52-.46-4.2-1.61-5-1.66-1.13-4.08-.12-4.11-.11a.5.5 0 0 1 -.69-.4c-.34-2.8-1.43-4.61-3.23-5.38-6.06-2.55-18.36 6.73-18.48 6.82a.5.5 0 0 1 -.7-.09.51.51 0 0 1 .09-.71c.53-.39 12.88-9.72 19.48-6.94 2 .86 3.27 2.73 3.75 5.57 3.63-1.06 6.46.59 6.51 5.59 3.78-.84 6.31.88 5.84 5.33a5.41 5.41 0 0 1 3.6.62c3.28 1.87 3.83 6.41 4.4 9.76 1.46 8.61 2.19 12.93.06 14.82-2.57 2.27-7-2.51-7.65-6.76a9 9 0 0 0 -1-3.36c-.84.82-3.23 3.66-2.29 9.06 1.27 7.29 5.71 19.78-8.36 27.29a.5.5 0 0 1 -.42-.87z" fill="#2d1929"/><path d="m125.15 196.27a.5.5 0 0 1 -.23-.94l14.29-7.68a.5.5 0 0 1 .68.21.49.49 0 0 1 -.21.67c-15.17 8.15-14.33 7.74-14.53 7.74z" fill="#2d1929"/><path d="m135.33 202.45a.5.5 0 0 1 -.31-.89l10.53-8.29a.5.5 0 0 1 .62.79c-11.48 9.03-10.59 8.39-10.84 8.39z" fill="#2d1929"/><path d="m141.88 208.44a.5.5 0 0 1 -.34-.87l9.74-8.94a.5.5 0 1 1 .68.74c-10.59 9.72-9.8 9.07-10.08 9.07z" fill="#2d1929"/><path d="m227.63 267.15-10.78-28.68a300.17 300.17 0 0 0 -2.53-32.21 27.55 27.55 0 0 0 -2.06-8.24s-5.35-12-22.66-15.92a6.18 6.18 0 0 0 -4.68.37c-2.33 1.44-2.58 4.74-2.62 5.62-3.94-2.05-7.24 1.48-6.42 5.57a4.14 4.14 0 0 0 -5.76 5.34 4.63 4.63 0 0 0 -3.51 1c-1.84 1.77-.83 5.24-.42 6.65 1.45 5 4.33 5.57 6.18 9.18 2.89 5.63-1.29 9.75-.75 17 .31 4.18 2.22 9.91 9.37 16.48q3 15.63 6 31.27s32.14 3.47 40.64-13.43z" fill="#955d43"/><path d="m170.12 199s-2.74-1.92-5.67 2.39-4.9 19.36-3 21.53a.93.93 0 0 0 .36.24c1.62.88 3.9-.45 4.1-.56 3.57-2.09 2.12-9.3 4.21-9.82 1.67-.42 3.29 4 5.62 3.64 1.55-.23 2.51-2.42 2.81-3.52 1.71-6.18-7.62-13.29-8.43-13.9z" fill="#955d43"/><g fill="#2d1929"><path d="m180.75 249.77c-12.64-6.75-10.36-17.64-8.85-24.85.19-.87.36-1.69.49-2.44.94-5.4-1.44-8.24-2.29-9.06a8.91 8.91 0 0 0 -1 3.36c-.5 3.06-2.85 6.33-5.13 7.14a2.38 2.38 0 0 1 -2.52-.38c-2.14-1.89-1.41-6.22.06-14.83.57-3.41 1.11-7.87 4.39-9.75a5.41 5.41 0 0 1 3.6-.62c-.47-4.44 2.05-6.17 5.85-5.33.05-5 2.86-6.66 6.51-5.59.47-2.84 1.73-4.71 3.74-5.57 6.6-2.78 19 6.55 19.48 6.94a.51.51 0 0 1 .09.71.49.49 0 0 1 -.7.09c-.12-.09-12.41-9.37-18.48-6.82-1.8.77-2.89 2.58-3.23 5.38a.5.5 0 0 1 -.69.4s-2.47-1-4.11.11c-1.15.79-1.69 2.47-1.61 5a.5.5 0 0 1 -.66.49s-2.77-.91-4.25.34c-.92.78-1.21 2.28-.85 4.44a.5.5 0 0 1 -.67.55 4.49 4.49 0 0 0 -3.54.36c-2.87 1.67-3.37 6-3.89 9-1.31 7.72-2.1 12.39-.38 13.91s5.41-2.55 6-6.17 1.44-4.39 2-4.34a.49.49 0 0 1 .26.1c.17.13 4.17 3.27 2.95 10.27s-5.58 19.07 7.84 26.24a.5.5 0 0 1 -.41.92z"/><path d="m196.59 196.27c-.2 0 .82.51-14.53-7.74a.5.5 0 0 1 .47-.88l14.29 7.68a.5.5 0 0 1 -.23.94z"/><path d="m186.42 202.45c-.26 0 .43.48-10.85-8.39a.52.52 0 0 1 -.08-.71.5.5 0 0 1 .7-.08l10.54 8.29a.5.5 0 0 1 -.31.89z"/><path d="m179.86 208.44c-.29 0 .42.57-10.07-9.07a.5.5 0 0 1 0-.71.5.5 0 0 1 .7 0l9.74 8.94a.5.5 0 0 1 -.37.84z"/><path d="m154 184.19a.5.5 0 0 1 -.34-.87c.11-.1 10.89-9.51 22.49-1.9a.5.5 0 0 1 -.55.83c-10.94-7.17-20.86 1.44-21.27 1.82a.54.54 0 0 1 -.33.12z"/></g><path d="m94.11 267.15-38.56 90.65c-10.47 12.64-11.4 29.05-4.68 43.39-3.56-14.45-.2-29.12 10.11-39.88q16.58-47.08 33.13-94.16z" fill="#d7981a"/><path d="m229.11 267.15 38.56 90.65c11.63 11.92 12.95 28.62 6.6 43.58 2.81-14.34-.58-29-10.86-40.26q-17.14-46.98-34.3-93.97z" fill="#d7981a"/><path d="m73.85 423.68s19.81 4.85 35.59-22.49 25.72-122.65 25.72-122.65l5.3-27.64 2.54 5-3.3 30.45c-3.06 82.32-15.8 119.15-28 137.12-28.58 42 26 20.38 27.71 25.84 1.22 3.81-26.21 12.77-25.28 21.35.52 4.73 9.49 7.66 16.72 9.36h-51.14z" fill="#d7981a"/><path d="m182.26 256-4.26 4.9c9.89 75.37 21.84 115.55 32 138.79 2.53 5.78 6.88 20.35 3.93 38.21-3.18 19.28-14 33.48-22.27 42.13h40.34l7.17-58.75s-22.32-12.53-34.31-64.71c-22.86-99.25-14.42-57.92-22.6-100.57z" fill="#d7981a"/><ellipse cx="133.68" cy="40.48" fill="#86ebf9" rx="22.91" ry="9.09"/><ellipse cx="190.77" cy="40.48" fill="#86ebf9" rx="22.91" ry="9.09"/><path d="m100.14 84.44a1 1 0 0 1 -1-1.13l5.62-43a1 1 0 0 1 1-.87h5a1 1 0 0 1 0 2h-4.14l-5.5 42.09a1 1 0 0 1 -.98.91z" fill="#2d1929"/><path d="m224.31 84.44a1 1 0 0 1 -1-.87l-5.5-42.09h-4.14a1 1 0 0 1 0-2h5a1 1 0 0 1 1 .87l5.61 43a1 1 0 0 1 -.97 1.09z" fill="#2d1929"/><path d="m167.85 41.48h-11.26a1 1 0 0 1 0-2h11.26a1 1 0 0 1 0 2z" fill="#2d1929"/><path d="m435.32 481.25-149.38.13-1.29-19.8 148.75-22.76c4.83-.74 9.15 3.35 9.15 8.66v25.9c0 4.34-3.24 7.87-7.23 7.87z" fill="#e73f46"/><path d="m285 465.33 147.77-21.9a5.16 5.16 0 0 1 5.66 5.39v21.58a6.14 6.14 0 0 1 -5.83 6.38l-146.82.76c-.49-7.65-.29-4.54-.78-12.21z" fill="#2d1929"/><path d="m285.25 467.2 142.18-19.1v24.72h-141.57z" fill="#eaeaea"/><path d="m448.43 419.5-149.43.13-1.28-19.8 148.78-22.76c4.83-.74 9.15 3.34 9.15 8.65v25.91c0 4.37-3.23 7.86-7.22 7.87z" fill="#86ebf9"/><path d="m298.1 403.57 147.77-21.89a5.16 5.16 0 0 1 5.66 5.39v21.58a6.14 6.14 0 0 1 -5.83 6.35l-146.81.76c-.5-7.62-.3-4.54-.79-12.19z" fill="#2d1929"/><path d="m298.35 405.44 142.18-19.09v24.72h-141.57z" fill="#eaeaea"/><path d="m284 462.17 147.87-23.17-1.32-19.8-150.2.65c-4.89 0-8.63 4.73-7.93 10l3.4 25.64c.57 4.31 4.23 7.3 8.18 6.68z" fill="#287eef"/><path d="m430.7 423-149.13 1.35a5.3 5.3 0 0 0 -4.89 6.21l2.83 21.36a6 6 0 0 0 6.6 5.41l145.41-22.13c-.52-7.64-.31-4.57-.82-12.2z" fill="#2d1929"/><path d="m430.69 424.88-143.22 3.25 3.24 24.47 140.12-22.06z" fill="#eaeaea"/><path d="m308.33 277.19a11 11 0 0 1 -9.54-16.52l74.21-128.45a11 11 0 0 1 19.08 0c2.52 4.38 76.56 132.6 74.16 128.45a11 11 0 0 1 -9.54 16.52z" fill="#e73f46"/><path d="m316 256.78 62.2-107.73a5 5 0 0 1 8.61 0l62.19 107.73a5 5 0 0 1 -4.3 7.46h-124.41a5 5 0 0 1 -4.29-7.46z" fill="#eaeaea"/><path d="m375.14 172.64a2.3 2.3 0 0 1 2.3-2.36c7.48 0 11.18 2.87 11.18 8.63 0 5.23-4 50.45-1.15 53a2.14 2.14 0 0 1 1.15 2c0 1.73-2 2.62-3.38 2.94-8.56 2.31-9.46-11.2-9.46-20.06 0-2.48.33-6.71.45-14.31.33-15.93.83-26.56-.38-28.24a2.29 2.29 0 0 1 -.71-1.6m8.82 70.6c3.9 0 5.88 1.41 5.88 4.28 0 3.83-3.52 8.31-5.63 8.31-2.68 0-6.32-4.48-6.32-8.31 0-2.87 2-4.28 6.07-4.28" fill="#231f20"/></svg>