<svg height="512" viewBox="0 0 512 512" width="512" xmlns="http://www.w3.org/2000/svg"><path d="m161.02 118.71h253.38v340.22h-253.38z" fill="#6d5fde" transform="matrix(-.981 .194 -.194 -.981 626.06 516.23)"/><path d="m167.71 117.39h253.38v340.22h-253.38z" fill="#917eec" transform="matrix(-.981 .194 -.194 -.981 639.07 512.3)"/><path d="m183.21 141.5h222.38v292.01h-222.38z" fill="#c6c6c6" transform="matrix(-.981 .194 -.194 -.981 639.07 512.3)"/><path d="m225.29 439.26 230.88-43.89a927.76 927.76 0 0 1 -76.92-273.52l-222.25 44.04q34.13 136.68 68.29 273.37z" fill="#eaeaea"/><rect fill="#efbd42" height="40.51" rx="5.75" transform="matrix(.981 -.194 .194 .981 -20.06 55.52)" width="93.4" x="226.25" y="109.74"/><g fill="#2d1929"><path d="m210.46 255.75a1 1 0 0 1 -1-.81l-4.2-21.19a1 1 0 0 1 .79-1.18l24-4.75a1 1 0 0 1 1.17.79l4.2 21.19a1 1 0 0 1 -.78 1.17c-25.57 5.03-24.03 4.78-24.18 4.78zm-3-21.41 3.81 19.23 22-4.36-3.81-19.21z"/><path d="m247.12 237.47a1 1 0 0 1 -1-.81 1 1 0 0 1 .79-1.17l128.87-25.49a1 1 0 0 1 .39 2c-135.04 26.68-128.89 25.47-129.05 25.47z"/><path d="m219.31 300.41a1 1 0 0 1 -1-.8l-4.2-21.19a1 1 0 0 1 .78-1.18l24-4.75a1 1 0 0 1 1.17.78l4.2 21.2a1 1 0 0 1 -.78 1.17c-25.56 5.07-24.02 4.77-24.17 4.77zm-3-21.4 3.81 19.23 22-4.37-3.81-19.23z"/><path d="m256 282.14a1 1 0 0 1 -.19-2l128.85-25.53a1 1 0 0 1 1.17.78 1 1 0 0 1 -.78 1.18c-135.05 26.77-128.93 25.57-129.05 25.57z"/><path d="m228.16 345.08a1 1 0 0 1 -1-.81l-4.16-21.19a1 1 0 0 1 .78-1.17l24-4.76a1 1 0 0 1 1.17.79l4.2 21.19a1 1 0 0 1 -.78 1.18c-25.6 5.06-24.07 4.77-24.21 4.77zm-3-21.41 3.81 19.23 22-4.36-3.81-19.23z"/><path d="m264.82 326.8a1 1 0 0 1 -1-.8 1 1 0 0 1 .79-1.18l128.85-25.53a1 1 0 0 1 .39 2c-135.02 26.71-128.85 25.51-129.03 25.51z"/><path d="m237 389.75a1 1 0 0 1 -1-.81l-4.2-21.19a1 1 0 0 1 .78-1.18l24-4.75a1 1 0 0 1 1.17.79l4.25 21.19a1 1 0 0 1 -.79 1.17c-25.6 5.03-24.06 4.78-24.21 4.78zm-3-21.41 3.81 19.23 22-4.36-3.81-19.21z"/><path d="m273.67 371.47a1 1 0 0 1 -.19-2l128.85-25.47a1 1 0 0 1 .39 2c-135.04 26.68-128.9 25.47-129.05 25.47z"/></g><path d="m362 30.31-6.67 60.13 19.53-54.44z" fill="#86ebf9"/><path d="m60.83 129.24 64.62 38.21-70.45-25.45q2.93-6.4 5.83-12.76z" fill="#86ebf9"/><path d="m122.06 217.36-55.75 2.48 2.13 10.21z" fill="#86ebf9"/><path d="m402.46 119.72 33.32-44.77 7.26 7.49z" fill="#86ebf9"/><path d="m252.21 178.53a.68.68 0 0 1 .54-.8c2.37-.5 3.46.4 3.75 1.8l.14.68c1.91-4.38 7-6.22 10.22-2.37 3.46 4.07 4.62 12.58 1.28 18.66a10.62 10.62 0 0 1 -7.1 5.34 4.47 4.47 0 0 1 -2.06.08c-2.47-.91-2.81-5.81-3.81-10.84-1.85-9.31-2.18-11.72-2.66-12.11a.72.72 0 0 1 -.3-.44m8.29 19.8c.38 1.07.85 1.56 1.42 1.44a3.58 3.58 0 0 0 1.75-1.24c3.2-3.39 3.72-8.83 2.79-13.28-.67-3.2-2.31-7.34-5.56-7.72a6.47 6.47 0 0 0 -3.49 6.43c2.13 10.67 2.31 12 3.09 14.37" fill="#231f20"/><path d="m297 169.19a.68.68 0 0 1 .52-.82c2.17-.45 3.41.16 3.75 1.8 3.6 17.24 3.48 19.61 5.28 20.73l4.19-.87c1.12-.24 2-.73 1.75-2-.16-.77.76-1 1.51-.72a1.62 1.62 0 0 1 .61 2.57 4.51 4.51 0 0 1 -2.6 1.31l-7.01 1.43c-1.7.36-2.73-1.11-3.31-2.73-.75-2.29-.4-1.73-2.92-14.37-.67-3.35-1-5.56-1.45-5.9a.71.71 0 0 1 -.28-.43" fill="#231f20"/><path d="m206.59 188.79c-.27-1.28 1.11-2 2.39-2.29l10.38-1.34c.67-.14 1.65-.42 1.36-1.79-.2-1 1.45-1.12 2.31.1.79 1.55-.46 2.52-2.17 2.88-.17 0-1.67.23-4.49.57.37.6.11-.46 3.52 16.55.18.87 1 4.59 1.85 4.9a.69.69 0 0 1 .22 1.16 2.58 2.58 0 0 1 -4.07-.42c-1.31-2-1.74-5.84-2.48-9.73-1.94-9.73-2.14-11.27-2.56-12-1.38.15-2.16.25-2.37.3-.62.13-1.65.4-1.36 1.78.25 1.17-2.17 1-2.53-.68" fill="#231f20"/><path d="m314.36 174.45a.75.75 0 0 1 .58-.91c2.39-.5 3.77.17 4.15 2 .84 4.05 1.22 7.64 2.36 10.37.31.77.61 1.2.86 1.29a.78.78 0 0 1 .27 1.29 3.83 3.83 0 0 1 -1.72.83c-3.22.67-4.26-4.42-4.72-7.68-.37-2.38-.63-3.9-.74-4.54a5 5 0 0 0 -.73-2.17.78.78 0 0 1 -.31-.47m-1-4.75c-.19-.9.37-1.49 1.66-1.76 3.6-.75 2 3.79.92 4-.8.17-2.31-.95-2.58-2.25" fill="#231f20"/><path d="m227.32 197.87a7.51 7.51 0 0 1 1.77-4.92 6.74 6.74 0 0 1 7.85-1.87c4.72 2 6.46 10.11 2.9 13.89a6.71 6.71 0 0 1 -8 1.4c-3-1.38-4.66-5.16-4.57-8.5m4.71 3.84c1 2.62 2.61 3.72 3.92 3.45 2.39-.5 2.26-4.59 1.66-7-.4-2.4-1.92-6.24-4.31-5.74-1.31.27-2.31 1.91-2.21 4.73a10 10 0 0 0 .35 2.3 9.47 9.47 0 0 0 .59 2.22" fill="#231f20"/><path d="m273.88 188.15a7.51 7.51 0 0 1 1.78-4.92 6.72 6.72 0 0 1 7.84-1.87c4.72 2 6.47 10.11 2.9 13.89a6.69 6.69 0 0 1 -7.94 1.4c-3-1.38-4.67-5.16-4.58-8.5m4.71 3.84c1 2.62 2.62 3.72 3.93 3.45 2.38-.5 2.25-4.59 1.66-7-.41-2.39-1.93-6.23-4.32-5.73-1.31.27-2.31 1.91-2.21 4.73a9.79 9.79 0 0 0 .35 2.29 9.92 9.92 0 0 0 .59 2.23" fill="#231f20"/><path d="m329.31 181.68a.74.74 0 0 1 .89.58 3.19 3.19 0 0 0 1.33 2 2.85 2.85 0 0 0 4-.76 2.36 2.36 0 0 0 .08-2.38c-.4-1.1-3.87-1.58-5.91-2.31a4.85 4.85 0 0 1 -3.49-3.63c-.86-4.12 4.55-6.67 8.22-5.64 2.67.78 4.17 4.25 1.53 4.8a.75.75 0 0 1 -.89-.6 3.22 3.22 0 0 0 -3.47-2.52 2.56 2.56 0 0 0 -2.17 3c.7 3.38 8.48 1.16 9.61 6.6a4.25 4.25 0 0 1 -2.27 4.66 7.53 7.53 0 0 1 -5.92 1c-2.68-.76-4.2-4.23-1.55-4.78" fill="#231f20"/><path d="m341.54 168.75a.76.76 0 0 1 .58-.89l1.35-.28c-.22-1.09-1.07-5.68-1.49-6.11a.68.68 0 0 1 -.35-.76.7.7 0 0 1 .56-.61c2-.42 3.81 0 4.27 2 .33 1.36.67 2.81.94 4.67l2.9-.61a.75.75 0 0 1 .89.59.74.74 0 0 1 -.58.89l-3 .62q.35 2.55 1.27 7c.37 1.79 1.17 6 2.89 5.6 1.09-.22.94-1.24.71-2.34-.29-1.42 3.23-1.51 2.67 1.15a4.08 4.08 0 0 1 -3.46 3.24c-5.87 1.22-7-7.85-8-13.81l-1.31.27a.77.77 0 0 1 -.89-.58" fill="#231f20"/></svg>