<svg height="512" viewBox="0 0 512 512" width="512" xmlns="http://www.w3.org/2000/svg" xmlns:xlink="http://www.w3.org/1999/xlink"><clipPath id="clip-path"><rect height="124.89" rx="3.26" transform="matrix(-1 0 0 -1 805.79 261.01)" width="154.67" x="325.56" y="68.06"/></clipPath><clipPath id="clip-path-2"><path d="m215.19 198.13h41.31v77.16h-41.31z"/></clipPath><g id="Coding"><rect fill="#40c2d6" height="124.89" rx="3.26" transform="matrix(-1 0 0 -1 805.79 261.01)" width="154.67" x="325.56" y="68.06"/><g clip-path="url(#clip-path)"><path d="m325.56 68.06h154.67v124.89h-154.67z" fill="#efefef" transform="matrix(-1 0 0 -1 805.79 261.01)"/><path d="m319.37 62.33h167.02v21.29h-167.02z" fill="#287eef" transform="matrix(-1 0 0 -1 805.76 145.94)"/></g><path d="m342.7 79.09h39.83a2.8 2.8 0 0 0 0-5.6h-39.83a2.8 2.8 0 0 0 0 5.6z" fill="#efefef"/><circle cx="402.9" cy="126.67" fill="#efbd42" r="32.89"/><path d="m387.19 143.53h31.41v25.23h-31.41z" fill="#efbd42"/><path d="m387.19 159.56h31.41a0 0 0 0 1 0 0v11.84a9.57 9.57 0 0 1 -9.6 9.6h-10.45a11.35 11.35 0 0 1 -11.35-11.35v-10.09a0 0 0 0 1 -.01 0z" fill="#c6c6c6"/><path d="m381.59 128.37 11.42-8.5a2.07 2.07 0 0 0 .85-1.68v-.54a.57.57 0 0 0 -.91-.46l-14.77 11a.71.71 0 0 0 0 1.14l14.69 10.92a.62.62 0 0 0 1-.5v-.67a1.66 1.66 0 0 0 -.66-1.32l-11.61-8.63a.46.46 0 0 1 -.01-.76z" fill="#2d1929"/><path d="m424.21 128.37-11.43-8.5a2.09 2.09 0 0 1 -.84-1.68v-.54a.57.57 0 0 1 .91-.46l14.76 11a.71.71 0 0 1 0 1.14l-14.69 10.92a.61.61 0 0 1 -1-.5v-.67a1.63 1.63 0 0 1 .66-1.32l11.61-8.63a.47.47 0 0 0 .02-.76z" fill="#2d1929"/><path d="m396.39 148.22a1 1 0 0 1 -1.08-1.06c0-.12 0-.24 12.41-33.15.6-1.52 2.76-1.66 2.76-.19 0 .18 0 .21-12.37 33.15a2 2 0 0 1 -1.72 1.25z" fill="#2d1929"/><path d="m251.17 249c17.1-1.4 34.65 2.76 43.13 7.41 10.76 5.89 15.61 16.49 23.58 39.7 5.12 14.89 11.12 33.75 17.02 56.12l39-67.17 28.21 9.86a473.89 473.89 0 0 1 -16.57 60.44c-13.1 37.77-21.87 47.43-32.23 52.39a42.75 42.75 0 0 1 -19.26 4c-25.47-.86-43-26.51-52.53-40.45-30.06-43.87-31.62-95.38-30.35-122.3z" fill="#e39c76"/><path d="m237.44 251.48c4.95-.74 12.34-1.74 21.34-2.53 21.86-1.92 32.8-2.88 39 .3 5.64 2.9 10.2 8.24 22.16 48.13 4.63 15.45 8.05 28.32 10.3 37.16a144.67 144.67 0 0 1 -47.84 52l-43.21-83.54q-.87-25.74-1.75-51.52z" fill="#e73f46"/><path d="m372.64 287.15s-2.47-16.35 2.06-24.08a24.08 24.08 0 0 0 2.52-19.81c-1.51-5.37 3.36-5.54 7.56 0s3.86 12.76 6 13.27 14.28-1.52 17 2.18-2.35 6.21-2.35 6.21 5.88 1.51 4.37 5-3 4-3 4 8.56.18 3.26 7.72c0 0 6.66-1 2.11 5.44s-6.23 14.92-14.8 15.12-24.73-15.05-24.73-15.05z" fill="#e39c76"/><g clip-path="url(#clip-path-2)"><path d="m215.19 198.13h41.31v77.16h-41.31z" fill="#e39c76"/><path d="m209.81 233.61a54.21 54.21 0 0 0 51.05.6q.17-14.93.35-29.85h-51.91z" fill="#d48f6e"/></g><path d="m235.57 249.5c-13-.48-54.51-.4-70.74 30-8.06 15.11-7.22 29.39-3.88 64.75 2.16 22.85 5.3 58.08 8.51 102.89l131.78.29c2.1-23.48 5-57 8.36-97.56 3.82-46.62 4.78-61.3-3.06-74.84-15.85-27.38-54.23-26.9-70.97-25.53z" fill="#e73f46"/><path d="m288.79 139.54s-1-46.55-33.92-58.33c-.31-.06-.59-.08-.89-.13-21.72-8.36-37.57-.14-39 .13a41.42 41.42 0 0 0 -14.37 8.79c-18.88 17.68-19.56 49.49-19.56 49.5a37.52 37.52 0 0 0 -.26 5.4c.3 8.88 5.65 29.52 6.8 36.58 6.76 22.25 24.14 49.55 47.78 48.38 28.69-1.71 40.23-36.77 43.52-47.42 3.54-11.45 6.42-22.56 6.9-24.25a34.76 34.76 0 0 0 1.25-12c.61-2.29 1.19-4.58 1.75-6.65z" fill="#e39c76"/><g fill="#2d1929"><path d="m232.91 183c-4.2-1.07-6.66-2.74-7.3-5-1.42-4.88 6.9-7.89 5.68-23.22a.51.51 0 0 1 .46-.54.52.52 0 0 1 .54.46c1.24 15.57-6.95 18.78-5.72 23 .54 1.87 2.76 3.3 6.59 4.28a.5.5 0 0 1 -.25 1.02z"/><path d="m215.94 158c0 3.76-2 6.82-4.41 6.82s-4.42-3.05-4.42-6.81 2-6.83 4.41-6.83 4.41 3.07 4.42 6.82z"/><path d="m201.49 143.89a1 1 0 0 1 -.86-1.51c.07-.11 6.71-10.92 19.15-8.39a1 1 0 0 1 .78 1.17 1 1 0 0 1 -1.18.79c-11-2.24-16.8 7.06-17 7.46a1 1 0 0 1 -.89.48z"/><path d="m259 158c0 3.76-2 6.81-4.42 6.81s-4.41-3.06-4.41-6.82 2-6.82 4.42-6.82 4.41 3.09 4.41 6.83z"/><path d="m264.87 143.49a1 1 0 0 1 -.87-.49c-.26-.38-6.47-9.41-17.37-6.67a1 1 0 0 1 -.49-1.94c12.3-3.09 19.45 7.4 19.52 7.51a1 1 0 0 1 -.79 1.59z"/></g><path d="m215.19 250.11s5.38 20.78 24.19 17.94 17.12-19.32 17.12-19.32-28.05-9.11-41.31 1.38z" fill="#e39c76"/><path d="m215.35 250.59c-10.54-4.31-30.87-10.76-46.12-1.34-10.53 6.5-14.33 23.74-21.94 58.2-4.38 19.87-14.76 83.62-14.77 83.73l54.18 9.82z" fill="#e73f46"/><path d="m173.93 275.29 3.36 47.16h10.97z" fill="#cc3745"/><path d="m202.07 364.72s3 46.35 42.38 47.08 41.29 8.29 25.13 18.83 31.66 16.81 31.66 16.81h-99.17z" fill="#cc3745"/><path d="m301.24 284.77v25.37s13 16.31 7.37 51.74c0 0 15.23-32.49-3-54.35z" fill="#cc3745"/><path d="m234.49 195.9a.49.49 0 0 1 -.39-.19c-2.56-3.24-6.08-4.42-10.46-3.5a19.5 19.5 0 0 0 -6 2.43.49.49 0 0 1 -.69-.14.5.5 0 0 1 .14-.69c.11-.07 11.06-7.21 17.77 1.28a.5.5 0 0 1 -.37.81z" fill="#2d1929"/><path d="m229.49 85.42s-10.78-3.28-13.55 14.86-5.55 43.07-28.21 44.58c0 0-3 57 28.21 79.3 0 0-41.51 1.8-57.4-19.86s3.24-36.77 8.78-76.06 30.58-68.71 58.62-57.94c0 0 52.37-9.57 68.66 21.16s4.79 67.64 13.31 85.71-6.91 51-53.3 45.54a89.19 89.19 0 0 0 11.62-14.71c10.71-17 12.82-33.38 13.72-41a109.23 109.23 0 0 0 .47-20.65s-21-2.85-23.88-24.68-14.54-39.61-27.05-36.25z" fill="#2d1929"/><path d="m293.1 165.64c-3.56 8.82-12.34 13.6-19.6 10.66s-10.26-12.46-6.7-21.28 12.34-13.6 19.61-10.67 10.26 12.47 6.69 21.29z" fill="#e39c76"/><path d="m280.37 170.12a.5.5 0 0 1 -.32-.88c.75-.64 2.68-2.6 2.6-4.06-.09-1.7-2.66-2.3-2.69-2.3a.51.51 0 0 1 -.39-.51c.22-5.88 3.35-14 9.12-12.89a.51.51 0 0 1 .4.59.52.52 0 0 1 -.59.4c-4.94-1-7.61 6.52-7.91 11.54.9.29 3 1.16 3.06 3.12.13 2.25-2.83 4.77-3 4.87a.49.49 0 0 1 -.28.12z" fill="#2d1929"/><path d="m218.11 447.33h-168a2.61 2.61 0 0 1 -2.6-2.31l-16.02-134.56a2.62 2.62 0 0 1 2.6-2.93h171.09a2.62 2.62 0 0 1 2.61 2.37l12.93 134.56a2.62 2.62 0 0 1 -2.61 2.87z" fill="#917eec"/><path d="m267 447.33h-75.1a2.62 2.62 0 0 1 -2.62-2.62v-11.17a2.62 2.62 0 0 1 2.89-2.61l75.06 7.81a2.62 2.62 0 0 1 2.35 2.61v3.36a2.62 2.62 0 0 1 -2.58 2.62z" fill="#917eec"/><path d="m119.38 409.3a22.79 22.79 0 1 1 22.79-22.79 22.82 22.82 0 0 1 -22.79 22.79zm0-43.58a20.79 20.79 0 1 0 20.79 20.79 20.82 20.82 0 0 0 -20.79-20.79z" fill="#efefef"/><path d="m219.7 433.8s1.92 11.55-1.59 13.53h4.55s1.16-11.74-2.96-13.53z" fill="#2d1929"/><path d="m476.65 316.88h-54.63l-4.82-82.13h64.27z" fill="#efbd42"/><ellipse cx="449.33" cy="234.75" fill="#2d1929" rx="32.13" ry="6.04"/><ellipse cx="449.25" cy="316.88" fill="#efbd42" rx="27.34" ry="4.99"/><path d="m411.83 291.2a20.25 20.25 0 1 1 20.24-20.2 20.26 20.26 0 0 1 -20.24 20.2zm0-35.49a15.25 15.25 0 1 0 15.24 15.29 15.26 15.26 0 0 0 -15.24-15.29z" fill="#efbd42"/><path d="m404 258.33s-15.11 0-15 5.16 11.46 3.15 11.46 3.15-12.35 1.77-11.47 5.67 12.35 2 12.35 2-12 6.05-10.33 9.07 15.09-1.38 15.09-1.38-13 8.56-8.58 10.2 14.31-6.3 14.31-6.3l-2.2-2-2.39-6.8-3.4-6.14a110.22 110.22 0 0 1 .16-12.63z" fill="#e39c76"/><path d="m396.92 291.21c-1.7-2.82 2.44-5.43 5.39-6.92-3.72.79-11.67 2.23-12-1.54-.27-3.45 5.86-6.13 10.72-7.71-4.29.3-13.65.76-13.35-3.52.12-1.74 3.22-3.26 6.83-4.45-3.48-.1-6.66-1.27-5.89-4.64 1-4.62 13.45-4.61 14.87-4.6a.5.5 0 0 1 0 1c-3.37-.05-13.15.54-13.89 3.82-.89 3.93 5.59 3.68 9.56 3.09 2.73-.67 5.14-1.13 6.15-1.31a.5.5 0 0 1 .22 1 54.8 54.8 0 0 1 -6 1.3c-5.38 1.34-10.72 3.21-10.84 4.89-.29 4 14.07 2.37 18 1.9a.5.5 0 0 1 .17 1c-4.43 1-15.86 4.38-15.56 8.2s14.87-.32 18.56-1.44a.5.5 0 0 1 .3.95c-3 1-11.4 4.05-12.55 7.06a1.8 1.8 0 0 0 1.54 2.37c3.86.68 11.88-5.75 12-5.81a.5.5 0 0 1 .63.78c-3.78 2.99-12.35 8.72-14.86 4.58z" fill="#2d1929"/><path d="m385 276.32a.5.5 0 0 1 -.45-.73c3.1-6.22 3.21-18.44 3.21-18.56a.5.5 0 0 1 1 0c0 .51-.11 12.58-3.32 19a.5.5 0 0 1 -.44.29z" fill="#2d1929"/><path d="m192.63 176.3c-7.26 2.94-16-1.84-19.6-10.66s-.57-18.35 6.69-21.29 16 1.85 19.61 10.67.57 18.35-6.7 21.28z" fill="#e39c76"/><path d="m185.76 170.12a.49.49 0 0 1 -.32-.12c-.13-.1-3.09-2.62-3-4.87.11-2 2.16-2.83 3.06-3.12-.3-5-3-12.52-7.91-11.54a.52.52 0 0 1 -.59-.4.51.51 0 0 1 .4-.59c5.77-1.15 8.91 7 9.12 12.89a.5.5 0 0 1 -.39.51s-2.6.6-2.69 2.3c-.08 1.46 1.85 3.42 2.6 4.06a.5.5 0 0 1 -.28.88z" fill="#2d1929"/></g></svg>