<svg height="512" viewBox="0 0 512 512" width="512" xmlns="http://www.w3.org/2000/svg" xmlns:xlink="http://www.w3.org/1999/xlink"><clipPath id="clip-path"><path d="m184.89 181.49h49.94v106.26h-49.94z"/></clipPath><g id="Creative_Idea" data-name="Creative Idea"><path d="m441.77 264.78-71.24 82.14a538.74 538.74 0 0 1 -54.35-55.92c-10.42-12.41-13.75-17.56-21.11-23.75-16.26-13.67-41.2-23.23-80.74-20.58-1.74 10.46-3.46 30.18 5.59 50.8 6.7 15.27 16.5 24.61 22.33 29.94 59.84 54.7 110.44 101 152 85 15.63-6 25-21.07 43.8-51.19a330.44 330.44 0 0 0 38.17-87.24z" fill="#86ebf9"/><g clip-path="url(#clip-path)"><path d="m184.89 181.49h49.94v106.26h-49.94z" fill="#955d43"/><path d="m186.81 201.48c8.7 24.93 31.52 40.34 57.06 41.74v-30.38z" fill="#834a27"/></g><path d="m270.12 155.09c-2.86-10.55-6.35-16.72-8-23.66-4-17.14-4-30.67-18.07-40.75a60.9 60.9 0 0 0 -14.73-9.58c-19.7-10.56-49.39-6.75-67.3 11.08-20.63 20.53-16.17 50.25-15.06 57.63 5.18 34.46 32.4 54.24 44.06 61.28a89.34 89.34 0 0 0 20.83 11.17c8.25 3 30.35 11 43.83-.61 3.52-3 8-10 12.17-25.58 5.45-20.07 5.15-30.42 2.27-40.98z" fill="#955d43"/><g fill="#2d1929"><path d="m242.84 175a.5.5 0 0 1 -.3-.9c3.31-2.52 4.87-4.83 4.63-6.86-.56-4.67-9.78-4.31-15-19.93a.5.5 0 0 1 .95-.32c5.13 15.4 14.38 14.74 15 20.13.29 2.41-1.4 5-5 7.77a.53.53 0 0 1 -.28.11z"/><path d="m252.59 152.27c-2.49.57-5.23-2.1-6.1-6s.44-7.45 2.93-8 5.24 2.11 6.11 6-.44 7.44-2.94 8z"/><path d="m213.71 161.09c-2.5.57-5.23-2.1-6.11-6s.44-7.45 2.94-8 5.23 2.11 6.11 6-.44 7.44-2.94 8z"/><path d="m233.23 127.36a1 1 0 0 1 -.76-1.66c.09-.1 9-10 21.32-5.08a1 1 0 0 1 -.74 1.86c-11-4.39-18.75 4.18-19.07 4.54a1 1 0 0 1 -.75.34z"/><path d="m195.5 137.36a1 1 0 0 1 -.88-1.47c6.23-11.73 19.38-9.89 19.54-9.89a1 1 0 0 1 .85 1.14 1 1 0 0 1 -1.14.84c-.48-.07-11.92-1.6-17.49 8.87a1 1 0 0 1 -.88.51z"/></g><path d="m160.82 480.7s-29.24-169.13-14.72-201.4c15.18-33.74 106.23-48 137.82-11.07 30.08 35.18 10.47 212.47 10.47 212.47z" fill="#efbd42"/><path d="m188 249.23q-41.81 15-83.4 30.15 15.57-44.32 31.13-88.65l-31.73-16.89c-6.38 9.15-15 22.22-24.27 38.52-30.36 53.54-54.68 96.43-38.7 120.83 14 21.42 52.34 18.27 88.3 15.32 22.8-1.88 31.87-7.38 34.83-14.25a15.88 15.88 0 0 0 1.05-7.92c-.84-10.15 3.11-31.02 22.79-77.11z" fill="#86ebf9"/><path d="m185 250.29c4.07 23.38 23.78 34.77 35.36 30.94 9.59-3.18 17-18 14.42-35a52.23 52.23 0 0 0 -49.78 4.06z" fill="#955d43"/><path d="m185.17 251a393.85 393.85 0 0 1 23.68 84.47s5.48 34 3.21 145.2h-70.74s-2.48-38.95-4.4-81.56c-2.56-56.87-12.74-78.33-1-103.51 10.58-22.67 30.96-36.24 49.25-44.6z" fill="#86ebf9"/><path d="m234.82 246.23s31.25 133 22.25 234.47h48.13s9.31-157.62-2.14-193.31c-12.06-37.53-47.74-41.69-68.24-41.16z" fill="#86ebf9"/><path d="m132.35 348.13a125.53 125.53 0 0 1 8.77-53.62s-15.25 16.21-17.37 54.49z" fill="#40c2d6"/><path d="m104.57 279.38a103.27 103.27 0 0 1 -33.25 29c20.22-6 36.64-18.36 48.6-34.6z" fill="#40c2d6"/><path d="m300.68 306s8.59 59.41 8.09 78.94l9.58 6.95a213.74 213.74 0 0 0 -17.67-85.89z" fill="#40c2d6"/><path d="m185 234.62s-6.42 1.31-9.76 8.88-10.56 14.09-10.56 14.09 13.38 38.15 16.72 39.2 15.27-10 15.27-10-12.42-41.69-11.67-52.17z" fill="#86ebf9"/><path d="m249.32 246.78s-6-5.79-9.66-10.28-4.84-4.35-4.84-4.35-5.13 22.57 10 64.71z" fill="#86ebf9"/><path d="m166.05 257a85.55 85.55 0 0 0 8.7 42.13l10.25-20.54 11.67 11.28-11.67-18.14q-4.87 8.92-9.76 17.85a173.59 173.59 0 0 1 -9.19-32.58z" fill="#40c2d6"/><path d="m249.32 246.78s7.75 17.22 8.11 35.22l-12.85-9.09-.17 17.77 3.69-11.26 14.43 8.79a64.36 64.36 0 0 0 -13.21-41.43z" fill="#40c2d6"/><path d="m370.53 346.92s-9 26-2.64 44.92c0 0-13.48-21.86-6-52.82z" fill="#40c2d6"/><path d="m163.67 161.17 6.07-12.66c23.87-28.71 15-53.58 23.75-57 7.35-2.85 16.42 12.78 27.59 9.4a15.54 15.54 0 0 0 7.5-5.44s19.29-2.57 28.38 13.23c0 0 12.78-32.85 2.93-49.73s-33.35 1.42-45.89-2.1-29.88-1.41-37.74 7.38-16.11 3.52-32.38 13.75-14.16 24.6-12.75 33-7 6.31-9.5 20.57 16 63.36 63.41 75.57z" fill="#2d1929"/><path d="m169.38 181.4c-7.32 4.22-17.43.44-22.56-8.46s-3.36-19.54 4-23.77 17.42-.44 22.56 8.46 3.33 19.54-4 23.77z" fill="#955d43"/><path d="m168.85 172.33c-.08 0-5.26-.05-6.42-4.91-.73-3 3-4.8 4.5-5.38-1.3-2-6.27-8.79-11.72-7.74-5.13 1-4.15 6.79-4.11 7a.5.5 0 0 1 -.4.58.5.5 0 0 1 -.58-.4c0-.07-1.2-7 4.9-8.21 7-1.34 12.86 8.33 13.1 8.74a.5.5 0 0 1 -.28.74c-.05 0-5.11 1.58-4.44 4.39 1 4.1 5.26 4.15 5.44 4.15a.5.5 0 0 1 .01 1.04z" fill="#2d1929"/><path d="m96.76 185.61 14.32-22.85s8.09-26.74 16-34.3 31.31-16.36 34.48-13-17.68 16.17-17.68 16.17 9.82-.34 6.63 7.75c0 0 10.63-1.48 5.56 8.14 0 0 5 .24 4 6.6s-8.55 30.73-19.45 31.22l-9.11 17.33a60.48 60.48 0 0 1 -34.75-17.06z" fill="#955d43"/><path d="m223.83 186 26.65-1.32c.61 7.55-4.7 14.08-11.33 15-7.44 1.07-15.08-5.11-15.32-13.68z" fill="#efefef"/><path d="m150.51 178.21a.5.5 0 0 1 -.42-.77c.12-.19 12.27-19.15 9.24-26.7a4.48 4.48 0 0 0 -3.33-2.74.5.5 0 1 1 .23-1c10.5 2.48.54 22-5.26 31a.51.51 0 0 1 -.46.21z" fill="#2d1929"/><circle cx="354.92" cy="69.36" fill="#efbd42" r="38.65"/><path d="m359.84 122.26-27.31-4.71 2.82-30.02 31.91 5.51z" fill="#efbd42"/><path d="m352.16 129.12-13.46-2.33c-3.82-.66-6.6-4.62-6.19-9.05l.76-8 28.52 4.92-2.35 9.25c-.89 3.46-4.13 5.75-7.28 5.21z" fill="#287eef"/><ellipse cx="347.53" cy="112.15" fill="#d7981a" rx="2.05" ry="14.45" transform="matrix(.17 -.985 .985 .17 177.85 435.51)"/><path d="m351.29 112.28a.5.5 0 0 1 -.46-.67c1.15-3.12 4.75-12.68 8.55-21-2-.64-3.28-2.74-4.12-4.62-3 2.46-5.89 2.9-9.65.66.42 7.61.39 17.77.13 24.13a.5.5 0 1 1 -1 0c.22-5.5.36-15.8-.18-24.77-6.06-4.34-11.17-14.9-5.27-17.55 4.89-2.19 5.9 11.63 6.25 17 2.24 1.49 4.89 2.31 7.24 1a11.42 11.42 0 0 0 2.08-1.46c-1.48-3.85-2-8.75-1.23-11.57.47-1.69 1.32-2.17 1.94-2.27 4.4-.73 6 8.64.46 14.12.71 1.69 2 3.89 3.76 4.4 3.37-7.3 6.79-13.45 8.82-13.09 4.73.81 1.5 10.33-6.35 13.81a4.25 4.25 0 0 1 -1.86.38c-2.78 6.12-5.86 13.68-8.64 21.18a.48.48 0 0 1 -.47.32zm9.58-22.53a3.53 3.53 0 0 0 1-.28c6.95-3.08 9.93-11.33 6.58-11.91-1.85-.3-6.8 10.51-7.58 12.19zm-21.17-20.44a3.34 3.34 0 0 0 -2 3c-.28 3.61 2.84 9.1 6.77 12.26-.26-3.74-1.28-16.83-4.77-15.26zm16 2.83c-2 .33-1.88 7.12-.11 12.11 4.74-5.02 3.13-12.62.15-12.11z" fill="#efefef"/><path d="m399.86 313.11c19-10.22 34.19-14.38 45-16.25 6.12-1.05 16.2-2.29 23.74-10.15a31.41 31.41 0 0 0 7.4-13.37c-19.2-4.88-59.37-15.08-40.1-10.21a232 232 0 0 1 -36.04 49.98z" fill="#40c2d6"/><path d="m441.25 294.51h-163a5.61 5.61 0 0 1 -5.58-6.07l10.33-122.31a5.6 5.6 0 0 1 5.58-5.13h162.7a5.61 5.61 0 0 1 5.59 6.06l-10 122.31a5.61 5.61 0 0 1 -5.62 5.14z" fill="#917eec"/><circle cx="368.98" cy="227.75" fill="#efefef" r="15.62"/><path d="m456 287.6c7.66 1.64 17.11-5.17 20.36-13.42 2.13-5.42 1.1-10.23-.81-18.63-2.27-10-3.6-18.18-10-25.75-2.7-3.17-6.62-5.67-14.47-10.68-16.47-10.52-21.24-8.75-22.64-7.93a1.57 1.57 0 0 0 -.66.61c-2.13 4 17.81 18.55 17.81 18.55s-17.55-10.27-20.5-7.12 14.03 14.77 14.03 14.77-11.67-6.85-14.41-5.48 1.82 7.75 12.67 17.71c-5.09-3.28-11.58-6.93-13.45-5.11-.74.72-.54 2.09-.28 3.2 2 8.42 10.07 11 16.67 20.36 5.5 7.82 6.35 14.32 13.58 18.16a7.45 7.45 0 0 0 2.1.76z" fill="#955d43"/><path d="m90.27 194.72 13.73-20.88 33.32 17.69-11.21 26.47z" fill="#86ebf9"/><path d="m98.17 185.3a106.59 106.59 0 0 0 26.12 13.7l7.39-7.21q-.75 5.35-1.49 10.73l2 1.25-.84 2-3.29-2 1.3-7.83-5.3 5.89a57.74 57.74 0 0 1 -25.89-16.53z" fill="#40c2d6"/><path d="m452.61 234.13c-.18 0 .49.3-8.33-4.11a.5.5 0 0 1 .45-.9l8.1 4.06a.5.5 0 0 1 -.22.95z" fill="#2d1929"/><path d="m447.33 243c-.19 0 .38.28-9.65-5.35a.51.51 0 0 1 -.19-.68.5.5 0 0 1 .68-.19l9.41 5.28a.51.51 0 0 1 -.25.94z" fill="#2d1929"/><path d="m443.64 255.63c-.25 0 .33.39-8-6a.5.5 0 1 1 .61-.79l7.72 5.93a.5.5 0 0 1 -.33.86z" fill="#2d1929"/></g></svg>