<svg id="Embedded" height="512" viewBox="0 0 512 512" width="512" xmlns="http://www.w3.org/2000/svg"><g fill="#2d1929"><path d="m460.69 259.68h-407.36a3 3 0 1 1 0-6h407.36a3 3 0 0 1 0 6z"/><path d="m426.59 320.36h-339.16a3 3 0 0 1 0-6h339.16a3 3 0 1 1 0 6z"/><path d="m426.59 200.42h-339.16a3 3 0 0 1 0-6h339.16a3 3 0 0 1 0 6z"/></g><circle cx="54.82" cy="255.47" fill="#287eef" r="25.58"/><circle cx="460.69" cy="255.47" fill="#287eef" r="25.58"/><path d="m260.22 461.58a3 3 0 0 1 -3-3v-407.36a3 3 0 0 1 6 0v407.36a3 3 0 0 1 -3 3z" fill="#2d1929"/><path d="m199.53 427.48a3 3 0 0 1 -3-3v-339.16a3 3 0 0 1 6 0v339.16a3 3 0 0 1 -3 3z" fill="#2d1929"/><path d="m319.47 427.48a3 3 0 0 1 -3-3v-339.16a3 3 0 0 1 6 0v339.16a3 3 0 0 1 -3 3z" fill="#2d1929"/><circle cx="261.42" cy="59.74" fill="#287eef" r="25.58"/><circle cx="261.42" cy="458.58" fill="#287eef" r="25.58"/><rect fill="#efbd42" height="281.6" rx="36.33" width="281.6" x="116.21" y="111.35"/><rect fill="#e73f46" height="185.95" rx="18.42" width="185.95" x="164.04" y="159.18"/><path d="m223.42 289.06-40.13-29.84a3.94 3.94 0 0 1 0-6.31l40.34-30a3.55 3.55 0 0 1 5.66 2.85v1.49a7.74 7.74 0 0 1 -3.11 6.19l-30.42 22.62 30.92 23a6.5 6.5 0 0 1 2.61 5.2c0 1.85.22 3.23-1.14 4.51a3.66 3.66 0 0 1 -4.73.29z" fill="#efefef"/><path d="m282.71 286.11v-1.85a6.5 6.5 0 0 1 2.61-5.2l30.92-23-30.42-22.62a7.74 7.74 0 0 1 -3.11-6.19v-1.49a3.55 3.55 0 0 1 5.66-2.85l40.34 30a3.94 3.94 0 0 1 0 6.31l-40.13 29.84a3.68 3.68 0 0 1 -5.87-2.95z" fill="#efefef"/><path d="m238.23 306.39a4.84 4.84 0 0 1 -4.94-4.87c0-.8 0-1 34-91.29 2.54-6.4 11.4-6 11.4.18 0 .94 0 .94-33.94 91.28a7.33 7.33 0 0 1 -6.52 4.7z" fill="#efefef"/><path d="m361.49 375.14h-208.95a18.54 18.54 0 0 1 -18.54-18.51v-208.95a18.53 18.53 0 0 1 18.52-18.51h209a18.53 18.53 0 0 1 18.48 18.51v209a18.54 18.54 0 0 1 -18.51 18.46zm-208.95-233a5.52 5.52 0 0 0 -5.52 5.51v209a5.52 5.52 0 0 0 5.52 5.51h209a5.51 5.51 0 0 0 5.51-5.51v-208.97a5.51 5.51 0 0 0 -5.51-5.51z" fill="#d7981a"/></svg>