<svg height="512" viewBox="0 0 512 512" width="512" xmlns="http://www.w3.org/2000/svg" xmlns:xlink="http://www.w3.org/1999/xlink"><clipPath id="clip-path"><path d="m342.02 203.42h47.11v107.75h-47.11z" transform="matrix(.979 -.205 .205 .979 -45 80.45)"/></clipPath><g id="Hosting"><path d="m357 237.14-50.21-100.37-23.7-6.77a22.67 22.67 0 0 0 -19.58 19.58c-.44 2.91-1.23 6 .4 11.6 4.79 16.4-8.19 14.6 0 27.79s3.57 15 0 25 3.32 14.12 7.72 19.35-9.46 13.18-3.19 24 9.56 13.21 4.56 26.11-1.59 17.08 8.07 22.66-7.32 24.4 16.86 30.33 66.68-14.29 66.68-14.29z" fill="#e73f46"/><path d="m341.66 281.68c-12.73 3.18-30.79 9.89-44.45 25.63-8.36 9.62-9.17 15.83-23 60.14-7.39 23.66-30.3 94.39-22.82 70.76.1 0 .22 0-73.41 13.44q3.41 11 6.8 22a477.76 477.76 0 0 0 57.53 4.71c30.81.64 39.9-2.21 47.06-7.32 10-7.15 13.85-17 18.83-30.33 8.2-22 17.31-47.57 26.8-76.38q3.32-41.33 6.66-82.65z" fill="#efbd42"/><g clip-path="url(#clip-path)"><path d="m342.02 203.42h47.11v107.75h-47.11z" fill="#955d43" transform="matrix(.979 -.205 .205 .979 -45 80.45)"/><path d="m380.76 218.15a57.07 57.07 0 0 1 -47.25 58.12l-3.78-30.45z" fill="#834a27"/></g><path d="m381.29 229.7a91.91 91.91 0 0 1 -16.37 18.18c-7 5.82-25.67 21.4-42.89 14.81-4.49-1.72-11.28-7-20.83-20.64-12.36-17.66-15.66-27.82-16.59-39.1s.31-18.51-.53-25.84c-2.1-18.14-6.88-31.27 3.28-46a62.91 62.91 0 0 1 11-14.49c15.48-17.2 45.72-23.92 69.42-12.85 27.3 12.75 33.39 43.25 34.91 50.82 7.03 35.33-12.53 64.16-21.4 75.11z" fill="#955d43"/><g fill="#2d1929"><path d="m317.82 212.7c-4.49-1.4-7-3.35-7.61-5.8-1.25-5.41 8-8.1 7.56-24.87a.5.5 0 0 1 .49-.51.52.52 0 0 1 .51.49c.42 17-8.68 19.93-7.58 24.67.48 2.07 2.81 3.78 6.93 5.07a.5.5 0 0 1 -.3.95z"/><path d="m300.68 194.05c-2.63.32-5.17-2.71-5.67-6.77s1.22-7.63 3.85-8 5.17 2.71 5.67 6.78-1.22 7.66-3.85 7.99z"/><path d="m341.64 189c-2.63.32-5.17-2.71-5.68-6.77s1.23-7.63 3.86-8 5.18 2.77 5.67 6.77-1.22 7.65-3.85 8z"/><path d="m289.09 165.42a1 1 0 0 1 -.67-1.75c10.28-9.1 22.38-2.6 22.5-2.53a1 1 0 0 1 .39 1.36 1 1 0 0 1 -1.35.39c-.45-.24-11-5.87-20.21 2.28a1 1 0 0 1 -.66.25z"/><path d="m329.58 159.17a1 1 0 0 1 -.65-1.76c.1-.09 10.66-8.89 22.55-2a1 1 0 0 1 -1 1.74c-10.65-6.15-19.87 1.49-20.25 1.82a1 1 0 0 1 -.65.2z"/></g><path d="m354.21 276.45c-14.25 5.1-40.39 14.45-52.3 37.66-8.67 16.91-1.14 24.31 4.19 83.67 3.66 40.88 4.34 84.72 4.34 84.72h169.28a843.16 843.16 0 0 0 -23-131.78c-13.86-53.62-24-70.66-40.79-78.45-21.77-10.11-47-1.08-61.72 4.18z" fill="#efbd42"/><path d="m403.37 288.66c-16.56 7.69-10.53 43-16.5 136l-120.17 14.61-2.79 26.5c37.73 4.73 69.77 6.76 94.13 7.67 49.24 1.82 63.91-1.06 73.92-11.5 7.38-7.7 10.55-17.77 11.85-52.65a672.13 672.13 0 0 0 -3.49-96.92c-.8-2.49-6.45-19.19-21.61-23.71-2.41-.72-9.34-2.79-15.34 0z" fill="#efbd42"/><path d="m346.15 279.43s6.66 32.68 16.08 35.42 29.6-47.12 29.6-47.12-25.83-6.59-45.68 11.7z" fill="#955d43"/><path d="m321.44 118.17s-.12 11.16 19.29 12.2 10.34 14.3 27.42 19.88 6.71 15.78 18.72 29.05-7.2 22.63-3.72 32.92-9.3 13.44-1.75 27.63-2.91 26.25 7.44 34.91 14-1 26.73 2.74 26.43 23.66 31.73 40.78c0 0 10.8-9.4 5.58-20.91s6.62-11.85 4.53-23-12.55-9.06-7.32-20.92 7.32-19.52 0-28.24.69-8-1-19.17-12.2-13-12.55-22.36 3.83-17.46-5.93-23.87-9.41-9.21-11.5-20.36-5.58-15.69-15.87-21.27-5.24-14.62-13.69-19.86-15.4-1.76-24-7.69a15.32 15.32 0 0 0 -6.46-2.73c-6.67-1-8.83 3.52-15 2.73-5.07-.65-5.65-4-11.16-4a15.32 15.32 0 0 0 -7 1.74c-4.63 2.35-4.46 5.19-8.19 8.2-6 4.83-10.1.49-15.87 5.22-4.08 3.36-3.58 6.81-8.35 9-2.75 1.25-3.52.38-6.46 1.83-.94.46-5.87 2.9-7.33 7.67-1.35 4.47 1.54 7-.52 10.29-1.21 1.92-2.36 1.26-4.36 3.48s-4 6.52-3 10.29c.94 3.3 3.78 4.61 3.27 7.67a4.3 4.3 0 0 1 -.66 1.76c-2.78 4.34 1.63 14 8.58 16.14 0 0-2.3-12.15 3.63-20.86s1-16.91 4.53-20.05 10.12 3.49 13.34-6.28 16.9-4.56 16.9-4.56z" fill="#e73f46"/><path d="m410.93 177c-1.88 10.47-10.38 17.7-19 16.16s-14.08-11.29-12.21-21.75 10.39-17.7 19-16.16 14.09 11.3 12.21 21.75z" fill="#955d43"/><path d="m388.92 183.2c.18-.06 4.35-1.62 3.86-6-.34-3-5.83-2.74-5.88-2.74a.5.5 0 0 1 -.52-.59c.09-.49 2.39-11.95 9.67-13.1 6.34-1 7.63 6.18 7.64 6.25a.51.51 0 0 1 -.41.58.51.51 0 0 1 -.58-.41c0-.26-1.13-6.28-6.49-5.43-5.7.9-8.14 9.35-8.71 11.69 1.66 0 5.91.42 6.28 3.64.58 5.14-4.47 7-4.52 7a.5.5 0 0 1 -.34-.89z" fill="#2d1929"/><ellipse cx="329.29" cy="230.43" fill="#efefef" rx="8.97" ry="5.23"/><path d="m298 336.42-3 32.4a30.75 30.75 0 0 0 -7.65 12.4c-5.16 16.38 6.39 31 7.65 32.51v64.68h10.11l-2.79-64.24a35.45 35.45 0 0 1 -4.32-42.17z" fill="#d7981a"/><path d="m322.82 469.49-20.76-.9s-11.66-1.81-18.11-9.48-17.37 7.95-22.83 7.72c-5.29-.23 3.93-14.49 4.49-15.35-.71.88-12.16 15-17.24 14.8s5.28-17.9 5.91-19c-.69 1.07-12.15 18.74-16.88 17.56-4.88-1.22 9.76-26.33 16.39-31s36.39 1 36.39 1l31.68.87s8.14 18.36.96 33.78z" fill="#955d43"/><path d="m404.16 332.93 14.37 102-96.67.84 101.9 4.92a49.8 49.8 0 0 1 23.24 28.8 42.49 42.49 0 0 0 -19.58-33.49q-11.62-51.55-23.26-103.07z" fill="#d7981a"/><path d="m232.24 483-166.07-1.25a6.24 6.24 0 0 1 -6.38-5l-25.65-176.57c-.42-2.83 1.66-4.92 4.88-4.94l164.39-1.05c2.28 0 4.72 2.4 5.12 5.06l27.31 178.59c.41 2.7-1.3 5.16-3.6 5.16z" fill="#2d1929"/><path d="m326.47 482.64h-150.18a5 5 0 0 1 -5-5v-11.18a5 5 0 0 1 5.26-5l150.18 7.85a5 5 0 0 1 4.74 5v3.33a5 5 0 0 1 -5 5z" fill="#2d1929"/><circle cx="124.85" cy="375.1" fill="#efefef" r="19.29"/><path d="m201.17 92.34c1.18-3.66 5.74-19.28-2.33-35-7.78-15.12-25.89-27.6-45.19-23.65-20.16 4.12-28.73 23.53-29.56 25.49-14.67-11.5-34.53-11.08-47.09-2.4-11.71 8.09-17.75 22.83-15.74 37.9-16.26-1.19-30.5 10.39-32.66 25.65-2 14 6.63 28 20.67 32.74h161.79c17.91-2.14 30.6-16.45 30.61-30.61.01-17.04-18.33-33.77-40.5-30.12z" fill="#86ebf9"/><path d="m57.01 156.74h152.79v76.96h-152.79z" fill="#2d1929"/><rect fill="#287eef" height="39.92" rx="6" width="175.63" x="45.59" y="125.35"/><circle cx="67.54" cy="145.31" fill="#efefef" r="7.76"/><path d="m148.7 141.21h56.77v8.2h-56.77z" fill="#efefef"/><rect fill="#1573d8" height="39.92" rx="6" width="175.63" x="45.59" y="175.27"/><circle cx="67.54" cy="195.22" fill="#86ebf9" r="7.76"/><path d="m148.7 191.12h56.77v8.2h-56.77z" fill="#86ebf9"/><rect fill="#287eef" height="39.92" rx="6" width="175.63" x="45.59" y="225.18"/><circle cx="67.54" cy="245.14" fill="#efefef" r="7.76"/><path d="m148.7 241.04h56.77v8.2h-56.77z" fill="#efefef"/></g></svg>