<svg height="512" viewBox="0 0 512 512" width="512" xmlns="http://www.w3.org/2000/svg" xmlns:xlink="http://www.w3.org/1999/xlink"><clipPath id="clip-path"><circle cx="112.37" cy="164.72" r="60.48"/></clipPath><clipPath id="clip-path-2"><path d="m361.74 277.8a100.26 100.26 0 0 1 -100.15-100.14v-44.8a100.15 100.15 0 1 1 200.3 0v44.8a100.26 100.26 0 0 1 -100.15 100.14zm0-211.08a66.21 66.21 0 0 0 -66.14 66.14v44.8a66.14 66.14 0 0 0 132.27 0v-44.8a66.21 66.21 0 0 0 -66.13-66.14z"/></clipPath><clipPath id="clip-path-3"><rect height="193.95" rx="3.75" width="226.76" x="248.36" y="205.8"/></clipPath><clipPath id="clip-path-4"><path d="m178.8 433.5a32.74 32.74 0 0 1 -41.51-13.91 28.81 28.81 0 1 0 -17.65-40.87 33.67 33.67 0 0 1 18.91-40.08l63.68-27.64 41.08 94.49z"/></clipPath><g id="Login"><circle cx="112.37" cy="164.72" fill="#287eef" r="75.75"/><g clip-path="url(#clip-path)"><circle cx="112.37" cy="164.72" fill="#287eef" r="60.48"/><g fill="#86ebf9"><circle cx="112.37" cy="145.89" r="21.74"/><rect height="73.46" rx="24.43" width="57.66" x="83.54" y="172.35"/></g></g><path d="m148.44 223.87a37 37 0 0 0 13.28 12.13c17.5 9.26 36.16 0 38.35-1.18a38.2 38.2 0 0 1 -15.63-10.91c-11.13-13.12-9-29.36-8.56-32.17-.9-.19-13.17-2.65-22.13 6.2a24.3 24.3 0 0 0 -5.31 25.93z" fill="#287eef"/><path d="m18.31 402.64c18.13-10.82 28.92-22.54 35.31-30.94 4.13-5.42 9.31-20.34 26.65-45.86 16.73-24.58 25.73-30.34 30.14-32.84 13-7.28 25-8.21 35.81-9 17.22-1.22 44-3.12 54.92 11.77 11.66 15.93 3.57 49 3.59 45.62 0 0-5.58 70.23-25.42 85.61s-55.09 18.14-55.09 18.14l-33.9 37.53c-34.51-14.91-60.39-43.6-72.01-80.03z" fill="#834a27"/><path d="m197.47 307.53a57.36 57.36 0 0 0 -22.45-7.9c-25.66-3.26-52.27 11.61-64.8 31a18.3 18.3 0 0 0 -2.18 4.21 37.65 37.65 0 0 0 -1.1 18.5c3 15.1-2.66 20.63.37 41.39.92 6.34 5.75 39.4 21.54 42.93 4.12.92 7.64-.48 14.18-3.76 34-17.09 61.24-40.79 61.24-40.79s.17 2.14-6.8-85.58z" fill="#6e3d1e"/><g clip-path="url(#clip-path-2)"><path d="m361.74 277.8a100.26 100.26 0 0 1 -100.15-100.14v-44.8a100.15 100.15 0 1 1 200.3 0v44.8a100.26 100.26 0 0 1 -100.15 100.14zm0-211.08a66.21 66.21 0 0 0 -66.14 66.14v44.8a66.14 66.14 0 0 0 132.27 0v-44.8a66.21 66.21 0 0 0 -66.13-66.14z" fill="#c6c6c6"/><g fill="#2d1929"><path d="m252.09 170.79h55.27v27.87h-55.27z"/><path d="m414.12 170.79h55.27v27.87h-55.27z"/></g></g><rect fill="#917eec" height="237.41" rx="26.97" width="270.22" x="226.63" y="184.07"/><rect fill="#efbd42" height="193.95" rx="3.75" width="226.76" x="248.36" y="205.8"/><g clip-path="url(#clip-path-3)"><path d="m482.91 195.35s-23.62 170.07-180.46 219.2h172.67l7.79-23.62 28.34-188z" fill="#d7981a"/></g><path d="m260.25 215.19h41.85l-41.85 40.83z" fill="#d7981a"/><path d="m260.25 270.56 56.89-55.37h20.98l-77.87 73.13z" fill="#d7981a"/><path d="m275.05 119.14c.05-3.2 1.29-42.65 34.33-63.62 22.6-14.35 46.07-11.14 52.36-10.07a87.91 87.91 0 0 0 -37.87 9.13c-36.97 18.52-47.15 57.7-48.82 64.56z" fill="#efefef"/><circle cx="361.74" cy="266.27" fill="#2d1929" r="23.27"/><path d="m384.57 362.55h-45.66l9.1-89.28h27.45z" fill="#2d1929"/><path d="m342.24 330.85 4.48-11.08a3.33 3.33 0 0 1 4.94-1.53l6.61 4.41a3.34 3.34 0 0 0 5.06-1.84c6.74-22.7 6.65-41.2-2-46.71a10.65 10.65 0 0 0 -3.44-1.41 3.25 3.25 0 0 0 -2 .2l-161.71 70.3a3.35 3.35 0 0 0 -1.73 4.4l17.41 40.05a3.34 3.34 0 0 0 4.39 1.73l96.41-41.92a3.39 3.39 0 0 0 1.47-1.23l11.59-17.73a3.34 3.34 0 0 1 4.39-1.11l9.46 5.15a3.33 3.33 0 0 0 4.67-1.68z" fill="#c6c6c6"/><rect fill="#efefef" height="7.76" rx="3.29" transform="matrix(.917 -.399 .399 .917 -104.9 137.65)" width="144.69" x="206.15" y="317.14"/><path d="m227.52 327.31h16.82v50.35h-16.82z" fill="#2d1929" transform="matrix(.917 -.399 .399 .917 -120.97 123.29)"/><path d="m203.17 295.16-70.25 30.54a47.71 47.71 0 0 0 -24.73 62.78l14.64 33.7a46.81 46.81 0 0 0 61.6 24.26l71.08-30.9a7 7 0 0 0 3.6-9.15l-46.79-107.63a7 7 0 0 0 -9.15-3.6zm-52.06 110.22a14.69 14.69 0 1 1 7.62-19.33 14.69 14.69 0 0 1 -7.62 19.33z" fill="#c6c6c6"/><g clip-path="url(#clip-path-4)"><path d="m135.87 452.16 14.84 8.94 52-155.26 8.43 4-46.88 140.47h22.41l39.61-158.81-29-6.87c-9.21 22.37 1.51-6.36-61.41 167.53z" fill="#efefef"/></g><path d="m107 399.57s17.48-27.14 34-39.59 36.46-20.39 40.08-32.73-29.51-2.76-54.06 7.07-34.63 6.94-34.63 6.94-28.64 45.04 14.61 58.31z" fill="#834a27"/></g></svg>