<svg height="512" viewBox="0 0 512 512" width="512" xmlns="http://www.w3.org/2000/svg" xmlns:xlink="http://www.w3.org/1999/xlink"><clipPath id="clip-path"><rect height="266.48" rx="8.36" width="316.61" x="179.53" y="34.37"/></clipPath><clipPath id="clip-path-2"><path d="m287.55 253.87-9.9-5.68a7.29 7.29 0 0 1 -3.65-6.31v-84.36a7.29 7.29 0 0 1 7.28-7.28h104.36a7.29 7.29 0 0 1 7.28 7.28v84.61a7.34 7.34 0 0 1 -3.53 6.24l-7.6 4.55a93.12 93.12 0 0 1 -94.24.95z"/></clipPath><clipPath id="clip-path-3"><path d="m109.84 240.76h55.34v112.25h-55.34z"/></clipPath><clipPath id="clip-path-4"><path d="m109.84 218.43a20.05 20.05 0 1 1 20-20.05 20.07 20.07 0 0 1 -20 20.05z"/></clipPath><clipPath id="clip-path-5"><path d="m170.84 218.43a20.05 20.05 0 1 1 20-20.05 20.07 20.07 0 0 1 -20 20.05z"/></clipPath><g id="Security"><g clip-path="url(#clip-path)"><rect fill="#efefef" height="266.48" rx="8.36" width="316.61" x="179.53" y="34.37"/><path d="m163.11 16.21h339.8v56.66h-339.8z" fill="#287eef"/></g><rect fill="#efefef" height="10.89" rx="2.7" width="42.82" x="439.54" y="50.06"/><path d="m340.17 179.23h-13.42a33.7 33.7 0 0 1 -33.66-33.65v-24.81a33.7 33.7 0 0 1 33.66-33.65h13.42a33.69 33.69 0 0 1 33.65 33.65v24.81a33.69 33.69 0 0 1 -33.65 33.65zm-13.42-79.11a20.68 20.68 0 0 0 -20.66 20.65v24.81a20.68 20.68 0 0 0 20.66 20.65h13.42a20.67 20.67 0 0 0 20.65-20.65v-24.81a20.67 20.67 0 0 0 -20.65-20.65z" fill="#c6c6c6"/><path d="m395.24 258.13-7.59 4.55a104.49 104.49 0 0 1 -105.76 1.06l-9.9-5.67a18.68 18.68 0 0 1 -9.38-16.19v-84.36a18.67 18.67 0 0 1 18.67-18.66h104.36a18.66 18.66 0 0 1 18.66 18.66v84.61a18.68 18.68 0 0 1 -9.06 16z" fill="#1573d8"/><g clip-path="url(#clip-path-2)"><path d="m392.38 133.17-144 107.86 14.23 23.33 145.7-125.5 15.37 11.1-149.68 114.4 13.09 19.35 146.27-125.34v-29.46z" fill="#287eef"/></g><circle cx="333.46" cy="186.17" fill="#2d1929" r="16.51"/><path d="m350.39 246.78h-33.87l5.13-53.5h23.62z" fill="#2d1929"/><circle cx="417.38" cy="55.51" fill="#efefef" r="6"/><g clip-path="url(#clip-path-3)"><path d="m109.84 240.76h55.34v112.25h-55.34z" fill="#f5b493"/><path d="m96.19 283.37c24.35 15.8 56 16.68 81.48-.62q.62-22.56 1.24-45.11h-82.81z" fill="#eba284"/></g><path d="m204.27 172.44s-.87-40.87-25.11-63.58a53.22 53.22 0 0 0 -18.5-11.34c-2.51-.49-22.3-10.84-50-.17-.38.06-.75.1-1.13.17-42.35 15.14-43.58 74.91-43.58 74.92.71 2.66 1.47 5.6 2.21 8.63a44.94 44.94 0 0 0 1.6 15.38c1.8 6.28 3.33 17.71 8.87 31.15 8.23 20 17.1 41.51 38.68 52.92 6.34 3.35 14.64 7.74 25.26 6.86 30.36-2.52 47.19-45.39 53.32-61a131.09 131.09 0 0 0 8.74-47 42.43 42.43 0 0 0 -.36-6.94z" fill="#f5b493"/><path d="m137.42 227.08c5-1.26 7.86-3.14 8.57-5.59.86-3-1.86-5.76-4.05-10.11-2.78-5.52-3.88-12.07-3.29-19.48a.5.5 0 0 1 1 .08c-1.59 19.82 9.13 23.5 7.3 29.79-.82 2.81-3.94 4.93-9.28 6.28a.5.5 0 0 1 -.25-.97z" fill="#2d1929"/><path d="m179.53 173.91a1 1 0 0 1 -.65-.24c-.46-.4-11.39-9.55-24.11-2.29a1 1 0 1 1 -1-1.73c14-8 26.28 2.39 26.4 2.5a1 1 0 0 1 -.64 1.76z" fill="#2d1929"/><path d="m95.48 173.91a1 1 0 0 1 -.65-1.76c.12-.11 12.44-10.48 26.41-2.5a1 1 0 1 1 -1 1.73c-12.73-7.26-23.66 1.89-24.12 2.29a1 1 0 0 1 -.64.24z" fill="#2d1929"/><path d="m49.6 335.5c-9 11.44-9.17 23.29-3.07 64.32 3.43 23.12 8.36 52.08 15.52 84.55h155.61a807.82 807.82 0 0 0 15.24-82.05c6.38-47.8 3.83-59.09-4.35-68.88-21.09-25.24-67.61-24.74-90-24.51s-68.61.73-88.95 26.57z" fill="#287eef"/><path d="m91.1 313.13s-57.88 14.54-67.72 45.24c-9.43 29.44 1.93 126 1.93 126h59.29z" fill="#287eef"/><path d="m187.27 313.13s57.88 14.54 67.72 45.24c9.43 29.44-1.93 126-1.93 126h-59.29z" fill="#287eef"/><path d="m109.84 307s13.73 49.89 32.26 47.71 29.45-45.83 29.45-45.83-28.95-15.28-61.71-1.88z" fill="#f5b493"/><path d="m109.84 296.88a7.23 7.23 0 0 0 -5 3.16c-2.18 3-9.12 11.59-9.12 11.59l46.12 123.1q18.47-62.12 36.91-124.25s-3.86-12-7-13.6a17.22 17.22 0 0 0 -6.57-1.73s-11.37 33.68-23.08 39-32.26-37.27-32.26-37.27z" fill="#efefef"/><path d="m224 376.63s4.07 53.9 44.42 56.39 54.32-34.38 47.95-59.59-92.37 3.2-92.37 3.2z" fill="#1573d8"/><path d="m215.51 348.75c5.26 12.32 2.16 12.47 7.13 24.61 4.14 10.1 8.08 19.72 17.83 27.22 10.68 8.2 22.49 9.36 27.58 9.51 21 .6 35.64-12.92 37.56-14.74 18.08-17.22 5.28-31.2 22.11-84.87 3.06-9.78 9.11-27.51 3.33-31.86-1.55-1.17-3.56-.88-4.76-.71 0 0-7.88 1.11-22.7 34.47a248 248 0 0 1 .18-30.38c1.12-16.61 3.67-28.93-1.73-31.91a6.35 6.35 0 0 0 -4.51-.39c-10 2.63-14.62 57-14.62 57-4.44-42-2.35-62.61-9.63-64.76a4.85 4.85 0 0 0 -2.86.1c-8.76 2.88-3.76 27.49-12.48 65-3.68-26-9.47-56.09-17.47-56.23a4.13 4.13 0 0 0 -2.5 1c-9.9 6.83-3 35.51 1.07 78.37 0 0 .75 7.82-1.07 8.28-2.2.56-6.87-11.23-17.83-22.82-1.57-1.67-3.77-3.85-6.77-3.93-3.81-.09-7.74 3.25-9.27 6.78-3.2 7.31 4.57 14.27 11.41 30.26z" fill="#f5b493"/><path d="m104 328.93 17.88 27.23 15.63-20.16-16.27 11.85z" fill="#c6c6c6"/><path d="m144.11 336 14.55 17.46 11.64-17.46-13.1 9.98z" fill="#c6c6c6"/><path d="m137.51 336-14.57 18.78 12 14.06-6.07 31.37 12.93 34.52 11.79-39.67-9.5-26 13.09-17.34-13.07-15.72s-4.35-1.64-6.6 0z" fill="#e73f46"/><path d="m74.89 194 5.4-29.52a78 78 0 0 0 16.81-12 25.7 25.7 0 0 0 2.61-2.67c4.86-6.07 3.42-12.24 4.46-24 .89-10.08 1.46-15.7 5.22-17.88s8.79-.06 12.06 1.67c1.75-1.57 7.07-5.94 12.47-4.58 4.46 1.13 6.75 5.6 9.15 10.81 9.58 20.8 8.88 27 13.42 32.79 4.17 5.31 13.24 10.88 35.63 9l5.76 28 14.51 2.22s10.29-30.89 4.16-66.23-51.45-41.57-91.36-37c0 0-54.46 0-71.09 32.43s7.28 76.96 7.28 76.96z" fill="#e73f46"/><path d="m198.27 211.56a.5.5 0 0 1 -.33-.88c1-.83 3.51-3.4 3.4-5.33-.13-2.29-3.53-3.08-3.57-3.09a.51.51 0 0 1 -.39-.51c.27-7.44 4.23-17.87 11.55-16.41a.48.48 0 0 1 .39.58.5.5 0 0 1 -.59.4c-6.46-1.29-10 8.46-10.33 15.07 1.06.32 3.8 1.39 3.94 3.91.16 2.82-3.59 6-3.75 6.14a.51.51 0 0 1 -.32.12z" fill="#2d1929"/><path d="m60.39 206c-4.57-11.33-.72-23.57 8.6-27.35s20.6 2.37 25.19 13.7.72 23.58-8.61 27.34-20.57-2.41-25.18-13.69l43.78-9.78c0 4.84 2.55 8.76 5.68 8.75s5.66-3.92 5.66-8.76-2.55-8.76-5.68-8.76-5.67 3.93-5.66 8.77h66.67c0-4.84-2.52-8.76-5.66-8.77s-5.67 3.92-5.67 8.76 2.53 8.76 5.66 8.76 5.67-3.91 5.67-8.75l43.78 9.78c-4.58 11.33-15.85 17.46-25.18 13.69s-13.18-16-8.6-27.34 15.85-17.46 25.18-13.7 13.18 16 8.6 27.35" fill="#f5b493"/><path d="m76.75 211.56a.47.47 0 0 1 -.32-.12c-.16-.13-3.91-3.32-3.75-6.14.13-2.52 2.87-3.59 3.94-3.91-.37-6.61-3.87-16.36-10.34-15.07a.51.51 0 0 1 -.59-.4.49.49 0 0 1 .39-.58c7.33-1.46 11.28 9 11.55 16.41a.5.5 0 0 1 -.39.51s-3.44.8-3.57 3.09c-.11 1.93 2.42 4.5 3.4 5.33a.5.5 0 0 1 -.32.88z" fill="#2d1929"/><circle cx="109.84" cy="198.38" fill="#2d1929" r="25.04"/><g clip-path="url(#clip-path-4)"><path d="m130.33 171.94-44.13 46.06 3.95 2.66 40.18-41.65 4.15 3.94-39.96 39.51 2.49 2.35 40.54-40.16-4.16-12.71z" fill="#efefef"/></g><circle cx="170.84" cy="198.38" fill="#2d1929" r="25.04"/><g clip-path="url(#clip-path-5)"><path d="m191.34 171.94-44.13 46.06 3.95 2.66 40.18-41.65 4.15 3.94-39.96 39.51 2.49 2.35 40.53-40.16-4.15-12.71z" fill="#efefef"/></g><path d="m132.88 196.16h15.49v6.39h-15.49z" fill="#2d1929"/><path d="m273.81 364.56a.5.5 0 0 1 -.47-.34 48.61 48.61 0 0 0 -25.34-25.58.5.5 0 0 1 0-.93c.31-.11 31.06-10.83 58.37 1.89a.49.49 0 0 1 .24.66.5.5 0 0 1 -.66.25c-23.9-11.14-50.5-4.06-56.41-2.25a49.58 49.58 0 0 1 24.67 25.64.5.5 0 0 1 -.4.66z" fill="#2d1929"/><g fill="#1573d8"><path d="m85.18 317.45 5.92 89.93 15.28-3.38q-2.68 8.52-5.38 17l41.09 45-33.95-47.35 5.07-19.35-17.51.7z"/><path d="m149.72 466.71 35.28-63.43-8.42-15.49 15.8.56v-73.78l-5.06 67.31-17.75.69q3.66 10.73 7.33 21.45z"/><path d="m42.33 394.32 13.04 29.48 2.37 60.58h12.16l-6.55-59.46z"/><path d="m230.44 398.61a84.27 84.27 0 0 0 -.44 26.39c1.62 11.19 4.54 15 4.8 20.81.39 8.68-5.24 21.52-34.3 38.55h52.52q2.3-27.58 4.58-55.19z"/></g><path d="m128.88 244.78a57.34 57.34 0 0 1 19.55-.79.5.5 0 0 1 -.13 1 56.39 56.39 0 0 0 -19.21.78.5.5 0 0 1 -.21-.99z" fill="#2d1929"/><circle cx="72.8" cy="201.79" fill="#2d1929" r="10.33"/><path d="m88 275.7c-9 0-13.51-4.95-13.85-11.94-2.27.26-5.17-.22-8.53-2.5-6.86-4.66-5.44-14.6-1.63-22a18 18 0 0 1 -2.43-4.26c-2.54-6.1-2-13.76 1.54-22.17a54.89 54.89 0 0 1 6.13-10.83 1 1 0 0 1 1.59 1.21c-.13.17-13.08 17.49-7.42 31.08a18 18 0 0 0 1.66 3.15c1.75-2.81 3.81-5 5.77-5.76a3.37 3.37 0 0 1 3.58.45c5.2 4.43-2.3 14.38-9 8.76-3 6.21-4.45 14.86 1.29 18.77 3 2 5.52 2.39 7.43 2.12a16 16 0 0 1 2.5-7.78c1.49-2.12 2.91-2.06 3.62-1.85 4.59 1.42 2.09 9.13-4.12 11.19a11.07 11.07 0 0 0 2 6.4c3.55 4.76 11.42 5.28 22.75 1.48a1 1 0 0 1 .63 1.9 43.39 43.39 0 0 1 -13.51 2.58zm-9.74-20.56a14 14 0 0 0 -2 6c4-1.78 5.52-6.45 3.43-7.1-.46-.13-1.16.72-1.43 1.1zm-11.84-16.14c4.76 4.55 9.91-2.68 6.69-5.43a1.38 1.38 0 0 0 -1.55-.11c-1.56.66-3.5 2.77-5.14 5.54z" fill="#2d1929"/></g></svg>