<svg height="512" viewBox="0 0 512 512" width="512" xmlns="http://www.w3.org/2000/svg" xmlns:xlink="http://www.w3.org/1999/xlink"><clipPath id="clip-path"><rect height="184.84" rx="14.76" transform="matrix(-1 0 0 -1 316.91 283.42)" width="256.91" x="30" y="49.29"/></clipPath><clipPath id="clip-path-2"><path d="m342.72 190.22h47.89v89.36h-47.89z" transform="matrix(-1 0 0 -1 733.33 469.8)"/></clipPath><g id="Seo"><g clip-path="url(#clip-path)"><path d="m30 49.29h256.91v184.84h-256.91z" fill="#efefef" transform="matrix(-1 0 0 -1 316.91 283.42)"/><path d="m19.72 40.8h277.41v31.5h-277.41z" fill="#40c2d6" transform="matrix(-1 0 0 -1 316.85 113.11)"/></g><path d="m49.66 64.4h39.59a3.84 3.84 0 0 0 0-7.67h-39.59a3.84 3.84 0 0 0 0 7.67z" fill="#efefef"/><path d="m71.56 157.1h25.81v62.77h-25.81z" fill="#efbd42"/><path d="m119.02 135.32h25.81v84.55h-25.81z" fill="#efbd42"/><path d="m166.49 124.17h25.81v95.7h-25.81z" fill="#efbd42"/><path d="m213.95 109.98h25.81v109.88h-25.81z" fill="#efbd42"/><path d="m69.54 125.4c53.62-1.18 103.2-20.13 143.88-52.43l-9.12-8.87 43.07-2.94-16.72 38.16-9.65-10.9s-63.81 54.72-151.46 36.98z" fill="#e73f46"/><g clip-path="url(#clip-path-2)"><path d="m342.72 190.22h47.89v89.36h-47.89z" fill="#f5b493" transform="matrix(-1 0 0 -1 733.33 469.8)"/><path d="m388.73 209.25c-8.09 21.21-27.68 33-49.65 33.43l-.51-30.39z" fill="#eba284"/></g><path d="m432.33 159.34c-7.14 32.62-34.42 49.81-46 55.8a85.23 85.23 0 0 1 -20.63 9.35c-8.08 2.35-29.72 8.62-41.87-3.35-3.18-3.13-7-10.11-10-25.24-3.93-19.56-3-29.41.43-39.32s7.14-15.58 9.14-22.11c4.95-16.14 5.76-29.07 19.86-37.83a58.52 58.52 0 0 1 14.69-8.22c19.51-8.85 47.65-3.33 63.65 14.86 18.4 20.94 12.25 49.07 10.73 56.06z" fill="#f5b493"/><g fill="#2d1929"><path d="m329.66 175.86a.51.51 0 0 1 -.33-.13c-3.29-2.86-4.74-5.48-4.31-7.77.94-5 9.78-4 15.64-18.29a.5.5 0 0 1 .65-.28.49.49 0 0 1 .27.65c-6 14.68-14.75 13.66-15.58 18.1-.36 1.93 1 4.23 4 6.84a.5.5 0 0 1 -.34.88z"/><path d="m328 148.21c-1.08 3.64-3.86 6-6.21 5.32s-3.38-4.22-2.3-7.85 3.86-6 6.21-5.32 3.3 4.22 2.3 7.85z"/><path d="m364.58 159.11c-1.09 3.64-3.87 6-6.22 5.32s-3.38-4.22-2.3-7.85 3.86-6 6.22-5.32 3.38 4.22 2.3 7.85z"/><path d="m341.9 131a1 1 0 0 1 -.79-.39c-.29-.37-7.12-9-17.9-5.54a1 1 0 1 1 -.62-1.9c12.14-3.93 20 6.12 20.1 6.22a1 1 0 0 1 -.79 1.61z"/><path d="m378.14 141.7a1 1 0 0 1 -.85-.46c-6.11-9.53-16.89-7.18-17.35-7.07a1 1 0 0 1 -1.2-.75 1 1 0 0 1 .75-1.2c.12 0 12.6-2.8 19.49 7.94a1 1 0 0 1 -.84 1.54z"/></g><path d="m418.81 463.16s22.79-170.89 7.34-196.71c-15.9-26.56-85-31.47-120.77-11.27-35.06 19.78-12.9 208-12.9 208z" fill="#f5b493"/><path d="m369.76 243.15s37.33-7 58.56 17.86 56.18 95.25 51.11 124.13-71.94 55.22-71.94 55.22l-30.91-107.36z" fill="#f5b493"/><path d="m357.6 242.25c-11.13-1.27-30.71-1.67-48.57 9.47-12.91 8-19.29 18.63-27.7 33.1-12.22 21-26.46 46.4-41.88 75.66q-25.66-48.66-51.34-97.33l-32.42 4.11a508.21 508.21 0 0 0 22.64 88c20.3 57 35.17 65.95 45.6 68.4 4.29 1 9.52 1.31 18.75-.84 42.23-9.85 70.16-48.15 77.83-58.94 33.15-46.67 36.99-97.27 37.09-121.63z" fill="#f5b493"/><path d="m345.11 242.25s-32.52-3.53-47.21 13.19-44.58 51.17-48.13 60.79 0 24.92 0 24.92l-6.33 11.85 37.26 52.12 5.66-4.26 2.42 62.34h132.22l10.51-85.62 46.34-15.11-1.62-17.32c2.84-4.08 4.07-10.91 3.69-16-.77-10-17.77-21.15-29.7-38.59-10.34-15.11-6.24-19.44-16.89-30.4a65.93 65.93 0 0 0 -26.33-16.16c-9.55-3.2-17.31-3.3-32.43-3.38a238.91 238.91 0 0 0 -29.46 1.63z" fill="#86ebf9"/><path d="m334.88 314.71s-8.61 56.24-17.22 66.37-17.23 3.55-17.23 3.55l-14.07 16.19.49 12.68 21.15-17.72c24.34 5.22 27.18-56.44 26.88-81.07z" fill="#40c2d6"/><path d="m431.52 272.92v104.62l10.17-3.32v-19.14s12.26-1.69 22.39-6.76c0 0-19.59 3.38-23.31 1.35s-9.25-76.75-9.25-76.75z" fill="#40c2d6"/><path d="m299.93 391.22s-10.93-19.22-14.36-28.88c0 0 18.09 27.24 27.24 22.86l-2.18 6z" fill="#40c2d6"/><path d="m432 326a169.42 169.42 0 0 1 -10.13 62.48c-7.83 21.42-12.43 34-24.15 39.18-27 11.9-68-25.31-75.67-16.47a3.69 3.69 0 0 0 -.83 2.28c-1 16.22 34.45 38.51 0 49.66h99.78l14.7-100.82z" fill="#40c2d6"/><path d="m328.45 116.74s2.38-19.88 17.55-34.32a29.81 29.81 0 0 1 32.33-6.34s52.67-4.08 69.47 21.79 6.56 103.86-19.48 121.13-37.71-6.18-37.71-6.18 24.83-37.62 24.49-50.34-36.47-32-29.38-65.08c0-.04-25.37-17.35-57.27 19.34z" fill="#e73f46"/><path d="m431 181.46c-5.48 8.19-15.38 11.17-22.11 6.66s-7.76-14.8-2.29-23 15.4-11.12 22.13-6.63 7.75 14.79 2.27 22.97z" fill="#f5b493"/><path d="m410.19 179.51h-.19a.5.5 0 0 1 .07-1c.18 0 4.26.23 5.45-3.61.81-2.63-3.91-4.44-4-4.46a.49.49 0 0 1 -.23-.75c.26-.38 6.47-9.26 13.1-7.53 5.78 1.51 4.2 8.11 4.18 8.18a.49.49 0 0 1 -.6.36.51.51 0 0 1 -.37-.61c.06-.23 1.36-5.71-3.46-7-5.1-1.33-10.27 4.81-11.66 6.63 1.43.67 4.84 2.58 3.95 5.44-1.23 4.1-5.26 4.35-6.24 4.35z" fill="#2d1929"/><circle cx="415.02" cy="225.28" fill="#e73f46" r="29.89"/><path d="m439 207.4s-6.86 19.16-29 16.79c0 0 18.42 8.65 33-9.52a19.79 19.79 0 0 0 -4-7.27z" fill="#cc3745"/><path d="m239.45 360.48s3 31.75-4.88 46.95c0 0 15.45-14.71 13.17-36.48l28.19 27.46-32.49-45.41z" fill="#eba284"/><path d="m428.85 409.38 15-19.94s14.95 2.54 23.56 0c0 0-15.58-3.54-19.57-5.32s21.77-19 21.77-19l-35.72 11.65z" fill="#eba284"/><path d="m90.84 288.35h6.27v24.15h-6.27z" fill="#d7981a"/><path d="m124.41 300.43h6.27v24.15h-6.27z" fill="#d7981a" transform="matrix(.707 .707 -.707 .707 258.33 1.34)"/><path d="m57.86 300.43h6.27v24.15h-6.27z" fill="#d7981a" transform="matrix(-.707 .707 -.707 -.707 325.09 490.34)"/><circle cx="94.37" cy="347.32" fill="#efbd42" r="49.39"/><path d="m94.37 387.42a40.1 40.1 0 1 1 40.11-40.1 40.15 40.15 0 0 1 -40.11 40.1z" fill="#efefef"/><path d="m94.37 307.22a40.15 40.15 0 0 0 -40.1 40.1h40.1z" fill="#e73f46"/><path d="m97.34 294.31h-6.74a1.42 1.42 0 0 1 -1.34-1.19l-1-5.79c-.18-1.05.35-1.94 1.19-1.94h9c.84 0 1.37.89 1.2 1.94l-1 5.79a1.42 1.42 0 0 1 -1.31 1.19z" fill="#efbd42"/><path d="m59.29 306-4.67 4.86a1.45 1.45 0 0 1 -1.8.14l-4.82-3.26c-.87-.6-1.15-1.6-.56-2.21l6.21-6.53c.59-.61 1.6-.37 2.22.48l3.49 4.73a1.44 1.44 0 0 1 -.07 1.79z" fill="#e73f46"/><path d="m129.4 306 4.67 4.86a1.44 1.44 0 0 0 1.79.14l4.86-3.3c.88-.6 1.15-1.6.57-2.21l-6.29-6.49c-.58-.61-1.59-.37-2.22.48l-3.49 4.73a1.43 1.43 0 0 0 .11 1.79z" fill="#e73f46"/><path d="m94 349.82h-29.42a2.5 2.5 0 1 1 0-5h29.42a2.5 2.5 0 0 1 0 5z" fill="#2d1929"/><path d="m323.7 187.59h24.38c-8.08 9.17-17.5 11.64-21.62 8.45-.54-.42-2.94-2.45-2.76-8.45z" fill="#2d1929"/><path d="m148.13 195.5a33.44 33.44 0 1 1 32.59-41.2 33.44 33.44 0 0 1 -32.59 41.2zm.06-61.89a28.44 28.44 0 1 0 27.66 21.85 28.47 28.47 0 0 0 -27.66-21.85z" fill="#2d1929"/><path d="m158.45 207.63a2.5 2.5 0 0 1 -2.43-1.92l-3.09-13a2.5 2.5 0 1 1 4.86-1.16l3.09 13a2.49 2.49 0 0 1 -2.43 3.08z" fill="#2d1929"/><path d="m173.83 262-3.46.82a6.2 6.2 0 0 1 -7.52-4.81l-9.68-48.32a6.2 6.2 0 0 1 12.06-2.87l13.14 47.49a6.2 6.2 0 0 1 -4.54 7.69z" fill="#2d1929"/><path d="m155.87 223.11c1.27 2.42 5.44 9.85 10.81 11.68a3.36 3.36 0 0 0 2.79.06c1.65-.87 2.17-3.84 1.42-7.63 1.81 0 5.55.29 8.33 2.94a10.82 10.82 0 0 1 2.83 5c2.57 8.76 4.79 23 5.15 25.33q5.56 11.28 11.14 22.55l-37.49 3.54c-4.59-7.32-7.39-11.76-9.88-15.7-3.67-5.81-6.14-9.7-4.89-13.77a9.09 9.09 0 0 1 2.7-4.05 6.12 6.12 0 0 1 -2.54-7.26 6.25 6.25 0 0 1 4.4-3.38 5.74 5.74 0 0 1 -2-6.58 6 6 0 0 1 4.22-3.38 8.62 8.62 0 0 1 3.01-9.35z" fill="#f5b493"/></g></svg>