<svg height="512" viewBox="0 0 512 512" width="512" xmlns="http://www.w3.org/2000/svg"><g id="Server"><circle cx="332.5" cy="182.49" fill="#40c2d6" r="148.5"/><circle cx="332.5" cy="182.49" fill="#86ebf9" r="135.13"/><g fill="#40c2d6"><path d="m220.53 103a6.07 6.07 0 1 1 3.21-11.71 418.32 418.32 0 0 0 219.72.6 6.07 6.07 0 1 1 3.16 11.73 430.51 430.51 0 0 1 -226.09-.62z"/><path d="m445.05 269.24c-5.79 0-101.3-35-226.37-.82a6.08 6.08 0 1 1 -3.21-11.72 433.38 433.38 0 0 1 231.21.62 6.07 6.07 0 0 1 -1.63 11.92z"/><path d="m472.78 188.87-281-.61a6.08 6.08 0 0 1 0-12.15l281 .61a6.08 6.08 0 0 1 0 12.15z"/><path d="m332.5 329.43a6.07 6.07 0 0 1 -6.07-6.07v-280.92a6.08 6.08 0 0 1 12.15 0v280.92a6.08 6.08 0 0 1 -6.08 6.07z"/><path d="m311.52 326.49a6.07 6.07 0 0 1 -4.29-1.77c-11.29-11.25-67.18-71.83-58.34-159.59 6.67-66.21 46.33-109.13 63.11-124.53a6.08 6.08 0 0 1 8.22 8.95c-15.72 14.44-53 54.74-59.21 116.8-8.29 82.29 44.22 139.2 54.83 149.77a6.08 6.08 0 0 1 -4.32 10.37z"/><path d="m353.59 326.49a6.08 6.08 0 0 1 -4.29-10.37c10.61-10.57 63.12-67.48 54.83-149.77-6.25-62.07-43.49-102.36-59.2-116.8a6.07 6.07 0 0 1 8.21-8.95c16.75 15.4 56.41 58.32 63.08 124.53 8.84 87.76-47.05 148.34-58.34 159.59a6.07 6.07 0 0 1 -4.29 1.77z"/></g><path d="m48.85 276.04h276.17v139.37h-276.17z" fill="#2d1929"/><rect fill="#287eef" height="81.52" rx="13.33" width="311.87" x="31" y="213.44"/><rect fill="#1573d8" height="81.52" rx="13.33" width="311.87" x="31" y="304.96"/><rect fill="#287eef" height="81.52" rx="13.33" width="311.87" x="31" y="396.48"/><circle cx="67.91" cy="254.2" fill="#e73f46" r="7.93"/><circle cx="99.62" cy="254.2" fill="#86ebf9" r="7.93"/><circle cx="131.32" cy="254.2" fill="#efefef" r="7.93"/><path d="m270.41 244.57h44.5v19.27h-44.5z" fill="#efbd42"/><path d="m217.33 244.57h44.5v19.27h-44.5z" fill="#efbd42"/><circle cx="67.91" cy="345.72" fill="#e73f46" r="7.93"/><circle cx="99.62" cy="345.72" fill="#86ebf9" r="7.93"/><circle cx="131.32" cy="345.72" fill="#efefef" r="7.93"/><path d="m270.41 336.09h44.5v19.27h-44.5z" fill="#efbd42"/><path d="m217.33 336.09h44.5v19.27h-44.5z" fill="#efbd42"/><circle cx="67.91" cy="437.25" fill="#e73f46" r="7.93"/><circle cx="99.62" cy="437.25" fill="#86ebf9" r="7.93"/><circle cx="131.32" cy="437.25" fill="#efefef" r="7.93"/><path d="m270.41 427.61h44.5v19.27h-44.5z" fill="#efbd42"/><path d="m217.33 427.61h44.5v19.27h-44.5z" fill="#efbd42"/></g></svg>