<svg height="512" viewBox="0 0 512 512" width="512" xmlns="http://www.w3.org/2000/svg" xmlns:xlink="http://www.w3.org/1999/xlink"><clipPath id="clip-path"><rect height="323.78" rx="8.02" transform="matrix(-1 0 0 -1 512.05 574.26)" width="450" x="31.03" y="125.24"/></clipPath><g id="Update"><g clip-path="url(#clip-path)"><path d="m31.03 125.24h450v323.78h-450z" fill="#86ebf9" transform="matrix(-1 0 0 -1 512.05 574.26)"/><path d="m13.02 110.38h485.92v55.18h-485.92z" fill="#40c2d6" transform="matrix(-1 0 0 -1 511.96 275.94)"/></g><rect fill="#efefef" height="13.44" rx="5.62" transform="matrix(-1 0 0 -1 205.26 289.6)" width="82.61" x="61.33" y="138.08"/><circle cx="174.92" cy="144.8" fill="#efefef" r="7.39"/><path d="m359.55 258.41c1.37-4.27 6.69-22.47-2.71-40.75-9.06-17.61-30.16-32.15-52.64-27.55-23.49 4.8-33.48 27.41-34.44 29.69a47.7 47.7 0 0 0 -16.58-8.45c-3-.82-21.82-5.74-38.29 5.63-13.64 9.42-20.67 26.59-18.34 44.15-18.9-1.38-35.52 12.11-38 29.88-2.31 16.28 7.72 32.58 24.08 38.14h188.44c20.87-2.49 35.64-19.16 35.66-35.65.01-19.85-21.36-39.34-47.18-35.09z" fill="#1573d8"/><path d="m306.69 258.41c1.37-4.27 6.68-22.47-2.72-40.75-9.06-17.61-30.15-32.15-52.64-27.55-23.48 4.8-33.47 27.41-34.43 29.69a47.7 47.7 0 0 0 -16.58-8.45c-2.95-.82-21.82-5.74-38.29 5.63-13.64 9.42-20.68 26.59-18.34 44.15-18.91-1.38-35.52 12.11-38 29.88-2.31 16.28 7.72 32.58 24.08 38.14h188.44c20.86-2.49 35.64-19.16 35.65-35.65.02-19.85-21.35-39.34-47.17-35.09z" fill="#287eef"/><rect fill="#efefef" height="36.55" rx="15.28" width="341.41" x="85.32" y="354.53"/><path d="m107.65 361.53a11.29 11.29 0 0 0 -11.25 12 11.55 11.55 0 0 0 11.65 10.51h141.24a10.79 10.79 0 0 0 10.79-10.79 11.76 11.76 0 0 0 -11.76-11.76z" fill="#e73f46"/><g fill="#efbd42"><path d="m214.93 116.06h82.19v143.14h-82.19z" transform="matrix(-1 0 0 -1 512.05 375.27)"/><path d="m194.78 139.78 61.22-73.53 61.24 73.53z"/></g></g></svg>