<svg id="Layer_1" enable-background="new 0 0 100 100" height="512" viewBox="0 0 100 100" width="512" xmlns="http://www.w3.org/2000/svg"><g id="_x30_1._Facebook"><path id="Icon_11_" d="m40.437 55.166c-.314 0-6.901.002-9.939-.001-1.564-.001-2.122-.563-2.122-2.137-.002-4.043-.003-8.086 0-12.129.001-1.554.591-2.147 2.135-2.148 3.038-.002 9.589-.001 9.926-.001 0-.277-.001-6.114 0-8.802.002-3.974.711-7.778 2.73-11.261 2.067-3.565 5.075-6.007 8.93-7.419 2.469-.905 5.032-1.266 7.652-1.268 3.278-.002 6.556.001 9.835.007 1.409.002 2.034.625 2.037 2.044.006 3.803.006 7.606 0 11.408-.002 1.434-.601 2.01-2.042 2.026-2.687.029-5.376.011-8.06.119-2.711 0-4.137 1.324-4.137 4.13-.065 2.968-.027 5.939-.027 9.015.254 0 7.969-.001 11.575 0 1.638 0 2.198.563 2.198 2.21 0 4.021-.001 8.043-.004 12.064-.001 1.623-.527 2.141-2.175 2.142-3.606.002-11.291.001-11.627.001v32.545c0 1.735-.546 2.288-2.258 2.288-4.174 0-8.349.001-12.523 0-1.513 0-2.103-.588-2.103-2.101-.001-10.599-.001-32.36-.001-32.732z" fill="#3d6ad6"/></g></svg>