<?xml version="1.0" encoding="utf-8"?>
<!-- Generator: Adobe Illustrator 27.8.0, SVG Export Plug-In . SVG Version: 6.00 Build 0)  -->
<svg version="1.1" id="Calque_1" xmlns="http://www.w3.org/2000/svg" xmlns:xlink="http://www.w3.org/1999/xlink" x="0px" y="0px"
	 viewBox="0 0 500 500" style="enable-background:new 0 0 500 500;" xml:space="preserve">
<style type="text/css">
	.st0{fill-rule:evenodd;clip-rule:evenodd;fill:#4285F4;}
	.st1{fill-rule:evenodd;clip-rule:evenodd;fill:#34A853;}
	.st2{fill-rule:evenodd;clip-rule:evenodd;fill:#FBBC05;}
	.st3{fill-rule:evenodd;clip-rule:evenodd;fill:#EA4335;}
	.st4{fill:none;}
</style>
<g id="logo_googleg_48dp" transform="translate(15.000000, 15.000000)">
	<path id="Shape" class="st0" d="M475,240.68c0-17.73-1.59-34.77-4.55-51.14H235v96.7h134.55c-5.8,31.25-23.41,57.73-49.89,75.45
		v62.73h80.8C447.73,380.91,475,316.82,475,240.68L475,240.68z"/>
	<path id="Shape_00000182525083893618966490000007317517289090043826_" class="st1" d="M235,485c67.5,0,124.09-22.39,165.45-60.57
		l-80.8-62.73c-22.39,15-51.02,23.86-84.66,23.86c-65.11,0-120.23-43.98-139.89-103.07H11.59v64.77C52.73,428.98,137.27,485,235,485
		L235,485z"/>
	<path id="Shape_00000080169974288545537300000007268468382602199168_" class="st2" d="M95.11,282.5c-5-15-7.84-31.02-7.84-47.5
		s2.84-32.5,7.84-47.5v-64.77H11.59C-5.34,156.48-15,194.66-15,235s9.66,78.52,26.59,112.27L95.11,282.5L95.11,282.5z"/>
	<path id="Shape_00000158026586000525124630000010959663367549553830_" class="st3" d="M235,84.43c36.7,0,69.66,12.61,95.57,37.39
		l71.7-71.7C358.98,9.77,302.39-15,235-15C137.27-15,52.73,41.02,11.59,122.73l83.52,64.77C114.77,128.41,169.89,84.43,235,84.43
		L235,84.43z"/>
	<path id="Shape_00000110445361092716975990000002046709116953187493_" class="st4" d="M-15-15h500v500H-15V-15z"/>
</g>
</svg>
