<?xml version="1.0" encoding="UTF-8"?>
<svg xmlns="http://www.w3.org/2000/svg" xmlns:xlink="http://www.w3.org/1999/xlink" viewBox="0 0 512 512" width="512" height="512"><defs><style>.cls-1,.cls-11,.cls-16,.cls-17,.cls-5,.cls-6,.cls-9{fill:none;}.cls-2{clip-path:url(#clip-path);}.cls-3{fill:#aaeeea;}.cls-4{fill:#00ccc1;}.cls-5{stroke:#aaeeea;}.cls-11,.cls-16,.cls-17,.cls-5,.cls-6,.cls-9{stroke-linecap:round;stroke-linejoin:round;}.cls-6{stroke:#00ccc1;}.cls-7{fill:#ffdb99;}.cls-8{fill:#ffb833;}.cls-11,.cls-16,.cls-9{stroke:#383333;}.cls-16,.cls-9{stroke-width:0.75px;}.cls-10,.cls-13{fill:#383333;}.cls-11,.cls-13,.cls-15,.cls-16{fill-rule:evenodd;}.cls-12{fill:#ffc871;}.cls-14{fill:#ff535c;}.cls-15{fill:#fff;}.cls-17{stroke:#fff;}</style><clipPath id="clip-path"><rect class="cls-1" x="15.97" y="52.51" width="314.55" height="248.53" rx="20.45" transform="translate(346.49 353.54) rotate(-180)"/></clipPath></defs><g id="Automotive"><g class="cls-2"><rect class="cls-3" x="15.97" y="52.51" width="314.55" height="248.53" rx="20.45" transform="translate(346.49 353.54) rotate(-180)"/><rect class="cls-4" x="10.16" y="44.37" width="327.85" height="44.98"/></g><circle class="cls-3" cx="42.62" cy="71.24" r="7.1"/><circle class="cls-3" cx="80.02" cy="71.24" r="7.1"/><circle class="cls-3" cx="117.42" cy="71.24" r="7.1"/><path class="cls-4" d="M72.92,198s21.33-45.52,124.5-55.89a10.25,10.25,0,0,1,10.84,7.25q7.31,24.32,14.59,48.64Z"/><path class="cls-4" d="M73.28,178.52H261.47a32.05,32.05,0,0,1,32.05,32.05v3.28A11.15,11.15,0,0,1,282.38,225H73.28a11.15,11.15,0,0,1-11.15-11.15V189.67a11.15,11.15,0,0,1,11.15-11.15Z"/><circle class="cls-4" cx="114.44" cy="225" r="18.32"/><circle class="cls-4" cx="245.05" cy="225" r="18.32"/><path class="cls-3" d="M106.61,176.77s22-15.49,44.48-19.24v19.24Z"/><path class="cls-3" d="M158.84,157.53l2.59,19.24h48.13L202.2,156.6a7.8,7.8,0,0,0-8.62-5.2c-4.16.25-8.6.69-13.27,1.38A155.79,155.79,0,0,0,158.84,157.53Z"/><circle class="cls-3" cx="114.44" cy="225" r="6.75"/><circle class="cls-3" cx="245.05" cy="225" r="6.75"/><line class="cls-5" x1="62.13" y1="198.01" x2="287.64" y2="198.01"/><path class="cls-5" d="M62.13,206.67H79.58a5.79,5.79,0,0,1,5.79,5.79h0a5.79,5.79,0,0,1-5.79,5.79H63"/><path class="cls-5" d="M291.33,206.67H278.06c-2.43,0-4.4,2.59-4.4,5.79h0c0,3.2,2,5.79,4.4,5.79h12.6"/><rect class="cls-3" x="162.21" y="183.14" width="11.03" height="3.37" rx="1.57"/><rect class="cls-3" x="138.58" y="183.14" width="11.03" height="3.37" rx="1.57"/><polyline class="cls-6" points="184.2 231.74 184.2 258.98 144.09 258.98"/><rect class="cls-4" x="68.24" y="250.49" width="70.34" height="23.49" rx="3.45"/><rect class="cls-4" x="199.74" y="106.48" width="70.34" height="23.49" rx="3.45"/><polyline class="cls-6" points="100.96 115.83 119.7 115.83 128.85 145.99"/><rect class="cls-4" x="40.34" y="120.25" width="70.34" height="23.49" rx="3.45" transform="translate(151.01 263.98) rotate(-180)"/><line class="cls-6" x1="234.91" y1="134.98" x2="234.91" y2="171.77"/><polygon class="cls-4" points="40.34 183.14 26.08 201.76 40.34 218.25 40.34 183.14"/><polygon class="cls-4" points="310.06 183.14 324.31 201.76 310.06 218.25 310.06 183.14"/><path class="cls-7" d="M212.37,275.14s-11.12-19.36-11.25-26.23-1.62-20.12,1.63-21.49S208,238.54,208,238.54s.63-18.24,4.38-19.37S215.49,235,215.49,235s2.37-17.37,5.87-17S223,235.66,223,235.66s3-14,5.87-13.74,2,16,3.37,20.32,3.13,5.67,3.13,5.67.37-10.25,5.12-13.12,1.75,3.87,2.75,9.74,2.75,19.24-1.88,23.87l3.7,9.49S213.37,284,212.37,275.14Z"/><path class="cls-8" d="M261.4,56.38V33a1.91,1.91,0,0,1,1-1.73,2,2,0,0,1,3,1.73V56.38a2,2,0,0,1-3,1.73A1.91,1.91,0,0,1,261.4,56.38Z"/><path class="cls-8" d="M251.67,46.65a2,2,0,0,1-1.73-3,1.92,1.92,0,0,1,1.73-1h23.4a1.93,1.93,0,0,1,1.74,1,2,2,0,0,1-1.74,3Z"/><path class="cls-8" d="M184.2,355.44a1.5,1.5,0,0,1-1.5-1.5V336.09a1.51,1.51,0,0,1,3,0v17.85A1.51,1.51,0,0,1,184.2,355.44Z"/><path class="cls-8" d="M175.28,346.52a1.51,1.51,0,1,1,0-3h17.84a1.51,1.51,0,1,1,0,3Z"/><path class="cls-8" d="M444.7,224.56a1.51,1.51,0,0,1-1.5-1.51V205.21a1.51,1.51,0,1,1,3,0v17.84A1.52,1.52,0,0,1,444.7,224.56Z"/><path class="cls-8" d="M435.78,215.64a1.51,1.51,0,0,1,0-3h17.85a1.51,1.51,0,0,1,0,3Z"/><circle class="cls-7" cx="373.05" cy="139.84" r="72.57"/><path class="cls-7" d="M355.31,191.23c3,13.38,4.8,32.05-5.46,45.58-8,10.54-16.5,8.82-25.72,15.71-23.94,17.9-13.27,61.57-13.57,137.86-.07,18.46-.8,40.55-2.95,65.59a139,139,0,0,0,69.3,21.33c41.23,1.32,70.87-16.39,81.3-23.32a184.42,184.42,0,0,1-11.33-36c-11.62-56.86,4.53-116.85-7-150.41-2.19-6.36-4.9-14.26-12.32-20.36-7.64-6.27-13.4-5-19.29-11.78-4.54-5.23-5.46-11-6.82-20.24a97.52,97.52,0,0,1,.85-32.79Z"/><path class="cls-7" d="M300.48,99c-8.54,54,0,100.24,25.82,113.57,6.49,3.35,13.26,4.21,18.7,4.85,35.66,4.22,63.68-13.87,75.05-22.29C420.05,195.12,391,6.2,300.48,99Z"/><path class="cls-7" d="M418.12,133.43c.78-.76,5-4.76,11.1-4.31.89.06,4.43.32,6.82,2.56,6.19,5.79,3.82,24.06-6.87,28.76-6,2.62-12.32,0-14.47-1Z"/><path class="cls-9" d="M433.51,139.83l-10.32-.47s10.5,6.53,1.71,15"/><path class="cls-10" d="M385.79,125.15a22.4,22.4,0,0,0-12.91-4.22c-3.14-.08-7.4-.18-8.71,2.28a3.45,3.45,0,0,0,.09,3.47c1.47,2,5.18.19,11.16.14,7.88-.08,13,2.91,13.52,1.78C389.32,127.78,386.79,125.89,385.79,125.15Z"/><path class="cls-10" d="M308.38,125.68a22.61,22.61,0,0,1,13-4c3.14,0,7.39,0,8.66,2.46a3.44,3.44,0,0,1-.16,3.46c-1.51,2-5.18.09-11.16-.08-7.88-.23-13.06,2.66-13.56,1.52C304.81,128.25,307.37,126.41,308.38,125.68Z"/><path class="cls-11" d="M342,141.82s-5.5,12.74-4.49,15.18,10.94,1.6,10.94,1.6"/><path class="cls-9" d="M338.44,187s5,1.87,9-.07"/><ellipse class="cls-12" cx="385.81" cy="163.28" rx="8.73" ry="5.44" transform="translate(-2.74 6.63) rotate(-0.98)"/><ellipse class="cls-12" cx="314.19" cy="165.53" rx="8.73" ry="5.44" transform="translate(-2.79 5.41) rotate(-0.98)"/><path class="cls-13" d="M375.65,150.32a6.43,6.43,0,1,1-.42-9.08A6.44,6.44,0,0,1,375.65,150.32Z"/><path class="cls-13" d="M322.62,151.26a6.43,6.43,0,1,1,.11-9.09A6.45,6.45,0,0,1,322.62,151.26Z"/><path class="cls-14" d="M422,242.82a66.33,66.33,0,0,1,39.67,21.76c9.37,10.77,12.39,22.14,15.89,36.55,5.13,21.12,9.24,40.32,12.57,57.26l-38.1,6.19c-3.74-9.26-7.46-19.39-11-30.35-2.24-7-6-19.47-9.74-35.37A455.1,455.1,0,0,1,422,242.82Z"/><path class="cls-11" d="M390.76,210.22s-19.83,7-33.59,7.82"/><path class="cls-14" d="M341,246.46s-23.23,4.27-38.6,15.82-56.74,79.89-56.74,79.89l27.09,25.22c4.41-2.51,10.58-6.21,17.65-11.11A235.32,235.32,0,0,0,321.09,331C340.06,311.93,359.54,251.93,341,246.46Z"/><path class="cls-8" d="M437.55,255.07c-1-5.2-2.63-7.87-5-9.74a1.92,1.92,0,0,0-.64-.32c-6.15-1.67-14.64-3.5-14.64-3.5s-8.93,8.73-41.66,6.48c-16.68-1.15-25.5-3.17-30.15-4.87a6.07,6.07,0,0,0-4.71.24c-8.49,4.06-26.37,10.44-30,13.68-4.52,4-6.48,22.68-6.15,52.67s-4.13,144.93-4.13,144.93c73.5,59.31,164.39,0,164.39,0C444.88,412.66,439.89,267.58,437.55,255.07Z"/><path class="cls-14" d="M211.12,274c7.6,54.07,26,93.37,49,96.2,1.88.23,8.95,1.1,13.61-3.22,16.82-15.6-19.37-78.84-31.48-99.22a51.49,51.49,0,0,1-18.12,6.12A50.66,50.66,0,0,1,211.12,274Z"/><path class="cls-15" d="M360.21,173.15c-3.4,7.34-11,11.57-18.43,10.49-9.49-1.37-13.4-10.6-13.56-11a54.4,54.4,0,0,0,32,.5Z"/><path class="cls-14" d="M444.7,345l9.51,41.13q2,36.19,4,72.4s28.16,5.65,41.9-3.35c-.91-9.33-2.47-26-4.14-47-3.22-40.53-3.31-53.07-13.77-62.34-8-7.06-22.84-13-31.89-7.3A15.66,15.66,0,0,0,444.7,345Z"/><path class="cls-8" d="M425.3,243.35s12.08,2.7,15.92,5.53S444.7,345,444.7,345l-27.3-15.12Z"/><path class="cls-11" d="M265.3,311.13s13.66,24.62,7.91,40.61"/><path class="cls-11" d="M454.21,386.14s4.74-10.33,18.2-12.66"/><path class="cls-16" d="M209,247.29s9.92-4.61,16.58-4.83"/><path class="cls-16" d="M235.36,247.91s-4.71,3.37-3.21,8.12"/><path class="cls-10" d="M332.44,81.36s5,23.74,19.74,29.49,52.72,3.75,52.72,3.75,0,26.79,11.66,30.73c0,0-.07-12.29,5.38-14.64s17.46-3.09,17.39,9.15-7.82,21.32-17.19,21.74-30,43.23-19.61,46.72c5.47,1.85,38.65-20.14,46.35-55.89,6.92-32.1-7.47-73.24-42-89.12-30.76-14.16-61-.65-66,1.66,0,0-54.4-5.41-42.36,48.61C298.57,113.56,310.61,82.45,332.44,81.36Z"/><path class="cls-17" d="M348.49,81.61s9.92,25.49,34.42,23.24"/><path class="cls-17" d="M367.67,84.11S399,108.85,427.06,98.86"/><path class="cls-17" d="M414.7,110.6s3.23,13.81,13.65,14.28"/><path class="cls-17" d="M425.39,112s10.21,12.87,20.23,11.25"/><path class="cls-17" d="M427.06,168.72s-5.41,13-15.66,18.25"/><path class="cls-17" d="M441.64,160.7s-9.25,27-27.74,34.49"/><path class="cls-17" d="M300.48,101.23s4.3-25.95,25.79-25.11"/></g></svg>
