<?xml version="1.0" encoding="UTF-8"?>
<svg xmlns="http://www.w3.org/2000/svg" xmlns:xlink="http://www.w3.org/1999/xlink" id="Geography" viewBox="0 0 512 512" width="512" height="512"><defs><style>.cls-1,.cls-10,.cls-3,.cls-5,.cls-8{fill:none;}.cls-2{fill:#ffdb99;}.cls-10,.cls-3,.cls-5{stroke:#383333;}.cls-10,.cls-3,.cls-5,.cls-8{stroke-linecap:round;stroke-linejoin:round;}.cls-3{stroke-width:0.75px;}.cls-12,.cls-4{fill:#383333;}.cls-12,.cls-5{fill-rule:evenodd;}.cls-6{fill:#ffc871;}.cls-7{fill:#fff;}.cls-8{stroke:#fff;}.cls-9{fill:#ffb833;}.cls-11{fill:#ff8d93;}.cls-13{clip-path:url(#clip-path);}.cls-14{fill:#aaeeea;}.cls-15{fill:#00ccc1;}.cls-16{fill:#009b8f;}</style><clipPath id="clip-path"><circle class="cls-1" cx="132.41" cy="203.89" r="100.41"/></clipPath></defs><circle class="cls-2" cx="321.99" cy="118.44" r="77.78"/><path class="cls-2" d="M304.35,174.63c1.61,12.88,1.82,31.79-9.65,45.28-11.26,13.24-23.58,9.05-35.13,18-24.75,19.28-6.76,68.5-6.16,133.78a380.68,380.68,0,0,1-12.5,99.45,223.7,223.7,0,0,0,170.88-6.43,300.32,300.32,0,0,1-12.68-56.6c-10.9-87.86,20-161.53-5.71-176.41-9-5.23-20.75-.41-31-11.28-6.32-6.71-8.13-15.28-10-23.57a84.1,84.1,0,0,1-1.07-31.07Z"/><path class="cls-2" d="M244.21,74.66c-9.15,57.9,0,107.43,27.68,121.73,6.95,3.59,14.2,4.5,20,5.19,38.22,4.52,68.24-14.86,80.44-23.89C372.37,177.69,341.22-24.8,244.21,74.66Z"/><path class="cls-2" d="M370.29,111.57c.83-.82,5.39-5.1,11.9-4.62,1,.07,4.75.35,7.31,2.74,6.63,6.21,4.09,25.8-7.37,30.83-6.4,2.81-13.2,0-15.5-1Z"/><path class="cls-3" d="M386.78,118.44l-11-.51s11.25,7,1.83,16.09"/><path class="cls-4" d="M339.05,102.7a24.11,24.11,0,0,0-13.84-4.53c-3.37-.08-7.93-.19-9.33,2.45a3.67,3.67,0,0,0,.09,3.72c1.58,2.11,5.55.2,12,.14,8.45-.08,13.94,3.13,14.5,1.92C342.83,105.52,340.12,103.5,339.05,102.7Z"/><path class="cls-4" d="M252.67,103.27A24.16,24.16,0,0,1,266.61,99c3.36,0,7.92,0,9.28,2.63a3.7,3.7,0,0,1-.17,3.72c-1.62,2.09-5.55.1-12-.09-8.45-.24-14,2.85-14.53,1.63C248.84,106,251.59,104.05,252.67,103.27Z"/><path class="cls-5" d="M288.76,120.56s-5.9,13.66-4.82,16.27,11.73,1.72,11.73,1.72"/><path class="cls-3" d="M287.7,170s5.35,2,9.68-.08"/><ellipse class="cls-6" cx="335.66" cy="143.56" rx="9.36" ry="5.83" transform="translate(-2.41 5.77) rotate(-0.98)"/><ellipse class="cls-6" cx="258.9" cy="145.97" rx="9.36" ry="5.83" transform="translate(-2.46 4.46) rotate(-0.98)"/><path class="cls-2" d="M284.85,229.75C274,229.66,257.07,231.32,245,243c-11.62,11.28-13.12,26.52-14.46,36.43-2.91,21.63-9.73,52.58-27.14,93l40.71,10S301.28,292,284.85,229.75Z"/><path class="cls-2" d="M115.59,353.87C180.5,382,233.07,398.16,244.14,382.44c3.9-5.53,1.47-13.33.89-15.18-7-22.63-48.05-34.53-101.23-32.67Z"/><path class="cls-2" d="M119.8,355.68s-56.08-20-55.28-23.5,1.88-6.16,18.48-4,28.12,2.95,38.84.8,24.1,5.44,24.1,5.44S135.7,354.82,119.8,355.68Z"/><ellipse class="cls-7" cx="290.96" cy="160.06" rx="9.42" ry="5.76"/><path class="cls-4" d="M306.94,53.89a23,23,0,0,0-7.5,4.55c-11.33,10.42-7.3,29-6.9,30.71,0,0-27.36,7.83-50.45,1.78-7.72-19.38-2.07-40.27,12.27-50.34,14.06-9.87,30.79-5.37,33.34-4.64,3.31-1.77,47-24.19,85.4-1.61C396.78,48.26,405.36,71.6,409,81.48c2.75,7.46,15.67,42.64-2.13,75.2-13.68,25-41.57,40.45-53.57,37.59-20-4.77-2.15-55.81,13.35-54.78S391,138.06,392.86,124s-6.19-21.16-14.38-16.77c-7.1,3.8-9.83,13.94-15.32,14.63a3.85,3.85,0,0,1-2.74-.41c-3.15-2.07-.77-10,0-15.47,2.23-16.1-6.94-31.82-9.29-31.43-1.12.19-2.05,4.31-1.07,22l-45-4.82a27.95,27.95,0,0,1,1.87-37.76Z"/><path class="cls-4" d="M375.73,50.23c2.88-2.6,14.84-12.81,30.4-11.07,15.09,1.68,24.23,13.57,26.42,16.43,15.3,19.89,14.12,51.35,12.14,104.27-.18,4.8-.62,15.11,5.73,24.2s16.51,12.7,22.84,14.28c0,0-32.17,35.08-80.15,22.58,0,0-22.72-13.92-20.74-40s27.39-45.46,27.39-45.46S393.18,53.8,375.73,50.23Z"/><path class="cls-8" d="M279.09,40.66s-33.75,8.14-26.78,40"/><path class="cls-8" d="M279.09,55.23s-15,10.44-7.77,27.85"/><path class="cls-8" d="M319,49.87s-15.31,20.73-4.84,37.77"/><path class="cls-8" d="M332.58,57.37s-9.84,15.79,0,32.41"/><path class="cls-8" d="M358.63,67s11.16,13.66,13.61,25.71,24.69,7.77,24.69,7.77"/><path class="cls-8" d="M373.9,73.57s4.28,14.07,19.55,16.21"/><path class="cls-8" d="M373.9,149.39s-2.41,17.72-19.55,24.18"/><path class="cls-8" d="M393.45,149.19s-17.14,31.11-34.82,31.38"/><path class="cls-8" d="M386.78,44.79s34.35,24.4,32.56,61.88S398.45,180,373.9,189.21"/><path class="cls-8" d="M447.91,202.42s-24.64-1.18-20.36-32S437.2,75,419.41,67"/><path class="cls-8" d="M411.79,170.85s-20.17,32.93,7.62,44.36"/><path class="cls-8" d="M391.13,189.21s-6.79,14.93,2.32,21"/><path class="cls-9" d="M170.16,78.52V53.37a2,2,0,0,1,1.2-1.89,2.13,2.13,0,0,1,3,1.92V78.48a2.13,2.13,0,0,1-3,1.92A2,2,0,0,1,170.16,78.52Z"/><path class="cls-9" d="M159.74,68.06a2.13,2.13,0,0,1-1.92-3,2,2,0,0,1,1.88-1.2h25.15a2,2,0,0,1,1.89,1.2,2.13,2.13,0,0,1-1.92,3Z"/><path class="cls-9" d="M155.24,423V404a1.65,1.65,0,0,1,1.07-1.59,1.61,1.61,0,0,1,2.15,1.52v19.13a1.61,1.61,0,0,1-2.15,1.52A1.63,1.63,0,0,1,155.24,423Z"/><path class="cls-9" d="M147.29,415.14a1.62,1.62,0,0,1-1.53-2.15,1.65,1.65,0,0,1,1.59-1.08h19a1.65,1.65,0,0,1,1.59,1.08,1.62,1.62,0,0,1-1.53,2.15Z"/><path class="cls-9" d="M469.21,164.08v-19a1.65,1.65,0,0,1,1.08-1.59,1.62,1.62,0,0,1,2.15,1.52v19.13a1.62,1.62,0,0,1-2.15,1.52A1.64,1.64,0,0,1,469.21,164.08Z"/><path class="cls-9" d="M461.26,156.19a1.62,1.62,0,0,1-1.52-2.15,1.65,1.65,0,0,1,1.59-1.08h19a1.65,1.65,0,0,1,1.59,1.08,1.62,1.62,0,0,1-1.52,2.15Z"/><path class="cls-10" d="M339.38,194.27s-18.3,9.51-36,8"/><path class="cls-2" d="M372.37,226.85S406.26,226,417.69,250s17.86,121,17.86,121c-1.62,6.95-4.95,10.3-6.79,11.79-9.21,7.45-26.75,5.19-42-7.5Q379.58,301.08,372.37,226.85Z"/><path class="cls-11" d="M356.45,203.89s-27,14.1-62,9.46c0,0,.18,9.47-20.71,15s-25,11.41-25,11.41,4.68,27.34,0,42.69-8.9,28.57-2.5,48.92,2.83,102.49-10,140.34c0,0,107.12,46.43,181.4-10,0,0-34.6-108.54-24.58-167.83,0,0,10.28-55.28,9.31-59.71s-27.22-7.78-32-10.46S356.45,203.89,356.45,203.89Z"/><path class="cls-10" d="M215,342.82s21.31,11.85,25.28,23.64"/><path class="cls-12" d="M326.16,128.61a6.9,6.9,0,1,1-.45-9.73A6.91,6.91,0,0,1,326.16,128.61Z"/><path class="cls-12" d="M332.57,119.54c-.15-.14-1.54,2.19-3.27,2-1.28-.15-1.59-1.56-3.2-2.82a8.17,8.17,0,0,0-4.83-1.63,17.77,17.77,0,0,0,2.71,4.06c1.55,1.74,2.55,2.85,3.92,2.9C330.7,124.12,332.77,119.71,332.57,119.54Z"/><path class="cls-12" d="M266.89,129.62a6.9,6.9,0,1,1,.11-9.74A6.91,6.91,0,0,1,266.89,129.62Z"/><path class="cls-12" d="M250.42,120.66c.14-.14,1.6,2.13,3.33,1.88,1.27-.19,1.53-1.61,3.1-2.93a8.28,8.28,0,0,1,4.78-1.79,17.75,17.75,0,0,1-2.58,4.15c-1.49,1.79-2.44,2.94-3.82,3C252.44,125.17,250.22,120.84,250.42,120.66Z"/><g class="cls-13"><circle class="cls-14" cx="132.41" cy="203.89" r="100.41"/><path class="cls-15" d="M218.85,121.58s-7.15,30.71-23.93,28.92-14.28,6.07-24.28,3.93-.36-15-7.86-21.78-19.64-1.07-24.28-11.07,5.71-22.86,5.71-22.86Z"/><path class="cls-15" d="M241.52,256.74s-4.1-35.35-22.67-33.21-17.5,20.8-28.75,16.56-18.21-18.36-31.6-16.66-2.15,18.85-8.57,23.67-26.25,7.5-24.11,17.14,18.21,2.14,19.29,16.07-1.61,26.24,7.49,34.28Z"/><path class="cls-15" d="M20.3,158.18s22,.54,30,15.53-6.43,18,0,30.18,22.49,5.78,30,19.4-10.18,9.88-11.78,24.34S69.82,275,51.22,281.38L14.41,200Z"/></g><path class="cls-16" d="M151.37,110.31a144.16,144.16,0,0,1,45.47,43.37A145.14,145.14,0,0,1,220.74,225a187.19,187.19,0,0,1-139.53-3.46,231.6,231.6,0,0,1,70.16-111.24Z"/><circle class="cls-9" cx="154.02" cy="194.22" r="21.6"/><polyline class="cls-10" points="151.37 110.31 152.57 194.74 220.74 225.01"/><line class="cls-10" x1="81.21" y1="221.55" x2="152.57" y2="194.74"/><path class="cls-2" d="M350.92,282.55c8.27,7.6,20.55,19,35.23,33.2,40.21,38.85,48.69,50.41,45.77,60.36-2.28,7.78-11,13-17.77,14.53-37.79,8.8-84.92-78.38-86.85-82a56.86,56.86,0,0,1,7.18-11.86A57.5,57.5,0,0,1,350.92,282.55Z"/><path class="cls-2" d="M356.22,292.25c-3.55-12.95-7.86-20.15-11.25-24.37a25.34,25.34,0,0,1-3.61-5.22c-3.81-7.72-1.64-15.12-4.29-15.94a3.3,3.3,0,0,0-2.54.81c-.79.5-2.2,1.67-3.21,5.75a34.84,34.84,0,0,0-.81,10.32h0s-30.8-20.72-34.19-18.75S316.14,268,316.14,268s-5.18,1.83-1.79,8.08c0,0-5.71,1.84-3.75,6.46,0,0-5.35,1.22-2.85,7.29s15.71,23,23.21,22.68S356.22,292.25,356.22,292.25Z"/><line class="cls-3" x1="324.17" y1="271.09" x2="316.14" y2="268.01"/><line class="cls-3" x1="320.16" y1="279.49" x2="314.35" y2="276.09"/><line class="cls-3" x1="314.35" y1="286.99" x2="310.6" y2="282.55"/><line class="cls-10" x1="428.49" y1="361.5" x2="391.07" y2="320.52"/></svg>
