<?xml version="1.0" encoding="UTF-8"?>
<svg xmlns="http://www.w3.org/2000/svg" xmlns:xlink="http://www.w3.org/1999/xlink" viewBox="0 0 512 512" width="512" height="512"><defs><style>.cls-1,.cls-15,.cls-16,.cls-17,.cls-18,.cls-2,.cls-5,.cls-8{fill:none;}.cls-2{stroke:#231f20;stroke-width:0.3px;}.cls-3{fill:#ffb833;}.cls-4{fill:#ff8c5f;}.cls-16,.cls-18,.cls-5,.cls-8{stroke:#383333;}.cls-15,.cls-16,.cls-17,.cls-18,.cls-5,.cls-8{stroke-linecap:round;stroke-linejoin:round;}.cls-5{stroke-width:0.75px;}.cls-6{fill:#ffb08d;}.cls-7,.cls-9{fill:#383333;}.cls-8,.cls-9{fill-rule:evenodd;}.cls-10{fill:#fff3e3;}.cls-11{clip-path:url(#clip-path);}.cls-12{fill:#aaeeea;}.cls-13{fill:#00ccc1;}.cls-14{fill:url(#Grid_.25_inch_Lines);}.cls-15{stroke:#00ccc1;}.cls-16{stroke-width:2px;}.cls-17{stroke:#fff;}</style><clipPath id="clip-path"><rect class="cls-1" x="175.79" y="187.89" width="313.41" height="247.63" rx="20.45" transform="translate(664.99 623.41) rotate(-180)"/></clipPath><pattern id="Grid_.25_inch_Lines" data-name="Grid .25 inch Lines" width="72" height="72" patternTransform="translate(59.43 143.81)" patternUnits="userSpaceOnUse" viewBox="0 0 72 72"><rect class="cls-1" width="72" height="72"/><line class="cls-2" x1="45" y1="71.75" x2="45" y2="144.25"/><line class="cls-2" x1="9" y1="71.75" x2="9" y2="144.25"/><line class="cls-2" x1="63" y1="71.75" x2="63" y2="144.25"/><line class="cls-2" x1="27" y1="71.75" x2="27" y2="144.25"/><line class="cls-2" x1="71.75" y1="9" x2="144.25" y2="9"/><line class="cls-2" x1="71.75" y1="45" x2="144.25" y2="45"/><line class="cls-2" x1="71.75" y1="27" x2="144.25" y2="27"/><line class="cls-2" x1="71.75" y1="63" x2="144.25" y2="63"/><line class="cls-2" x1="-0.25" y1="9" x2="72.25" y2="9"/><line class="cls-2" x1="-0.25" y1="45" x2="72.25" y2="45"/><line class="cls-2" x1="-0.25" y1="27" x2="72.25" y2="27"/><line class="cls-2" x1="-0.25" y1="63" x2="72.25" y2="63"/><line class="cls-2" x1="45" y1="-0.25" x2="45" y2="72.25"/><line class="cls-2" x1="9" y1="-0.25" x2="9" y2="72.25"/><line class="cls-2" x1="63" y1="-0.25" x2="63" y2="72.25"/><line class="cls-2" x1="27" y1="-0.25" x2="27" y2="72.25"/><line class="cls-2" x1="-72.25" y1="9" x2="0.25" y2="9"/><line class="cls-2" x1="-72.25" y1="45" x2="0.25" y2="45"/><line class="cls-2" x1="-72.25" y1="27" x2="0.25" y2="27"/><line class="cls-2" x1="-72.25" y1="63" x2="0.25" y2="63"/><line class="cls-2" x1="45" y1="-72.25" x2="45" y2="0.25"/><line class="cls-2" x1="9" y1="-72.25" x2="9" y2="0.25"/><line class="cls-2" x1="63" y1="-72.25" x2="63" y2="0.25"/><line class="cls-2" x1="27" y1="-72.25" x2="27" y2="0.25"/></pattern></defs><g id="Math"><path class="cls-3" d="M236.69,62.06V38.87A2,2,0,0,1,238,37a2,2,0,0,1,2.64,1.86V62.12A2,2,0,0,1,238,64,2,2,0,0,1,236.69,62.06Z"/><path class="cls-3" d="M227,52.43a2,2,0,0,1-1.86-2.63,2,2,0,0,1,1.93-1.3h23.18a2,2,0,0,1,1.93,1.3,2,2,0,0,1-1.86,2.63Z"/><path class="cls-3" d="M258.38,161.62a1.5,1.5,0,0,1-1.5-1.5V142.34a1.5,1.5,0,0,1,3,0v17.78A1.5,1.5,0,0,1,258.38,161.62Z"/><path class="cls-3" d="M249.49,152.73a1.5,1.5,0,0,1,0-3h17.78a1.5,1.5,0,0,1,0,3Z"/><path class="cls-3" d="M47.9,219.09a1.5,1.5,0,0,1-1.5-1.5V199.81a1.5,1.5,0,0,1,3,0v17.78A1.5,1.5,0,0,1,47.9,219.09Z"/><path class="cls-3" d="M39,210.2a1.5,1.5,0,1,1,0-3H56.79a1.5,1.5,0,1,1,0,3Z"/><path class="cls-4" d="M191.57,131.45c.82-.81,5.33-5,11.79-4.57.95.06,4.7.34,7.24,2.71,6.57,6.15,4.06,25.56-7.3,30.55-6.34,2.79-13.08,0-15.36-1Z"/><path class="cls-5" d="M207.91,138.26l-11-.51s11.15,6.94,1.82,15.95"/><path class="cls-4" d="M57.39,131.45c-.82-.81-5.33-5-11.79-4.57-1,.06-4.71.34-7.24,2.71-6.57,6.15-4.06,25.56,7.3,30.55,6.34,2.79,13.08,0,15.36-1Z"/><path class="cls-5" d="M41.05,138.26l11-.51s-11.14,6.94-1.81,15.95"/><circle class="cls-6" cx="123.99" cy="119.99" r="77.07"/><path class="cls-6" d="M201.06,127.35c-5.94,38.67-28.27,69.42-58.65,78.51a66.55,66.55,0,0,1-36.41.55c-30-8.31-52.43-38.76-57.92-77.59,4-42.52,40.78-73.94,80.9-71.71C165.62,59.14,196.88,88.77,201.06,127.35Z"/><path class="cls-6" d="M140.9,190.48c-.35,8,.46,19.92,7.82,29.85,12.68,17.12,32.25,11.43,46.83,23.17,20.41,16.44,11.95,51.7,10.07,99.21A504.25,504.25,0,0,0,215,460.05a274.62,274.62,0,0,1-167.2,3.36c1.75-9.48,3.93-23.11,5.38-39.62a440.35,440.35,0,0,0,.8-63.41c-4.28-81.73-21.06-103.09-4.9-117.12,15.87-13.78,42-15.16,49.39-24.12s4-32.62,4-32.62S130.22,176.28,140.9,190.48Z"/><path class="cls-7" d="M170.3,116.79A25.56,25.56,0,0,0,155.65,112c-3.56-.08-8.38-.2-9.86,2.59a3.9,3.9,0,0,0,.09,3.93c1.67,2.24,5.87.22,12.66.16,8.93-.08,14.74,3.3,15.32,2C174.29,119.77,171.42,117.63,170.3,116.79Z"/><path class="cls-7" d="M78.94,117.4a25.51,25.51,0,0,1,14.74-4.51c3.56,0,8.38,0,9.81,2.79a3.9,3.9,0,0,1-.17,3.93c-1.72,2.2-5.87.1-12.66-.1-8.93-.26-14.8,3-15.36,1.72C74.89,120.3,77.8,118.22,78.94,117.4Z"/><path class="cls-8" d="M124.1,130.77s6.24,14.44,5.09,17.2-12.4,1.82-12.4,1.82"/><path class="cls-5" d="M118.87,173.68s5.65,2.11,10.24-.08"/><ellipse class="cls-4" cx="165.71" cy="156.11" rx="9.9" ry="6.17" transform="translate(-2.65 2.86) rotate(-0.98)"/><ellipse class="cls-4" cx="84.52" cy="156.11" rx="9.9" ry="6.17" transform="translate(-2.66 1.47) rotate(-0.98)"/><path class="cls-9" d="M157.87,142.35a6.9,6.9,0,1,1-.6-9.73A6.91,6.91,0,0,1,157.87,142.35Z"/><path class="cls-9" d="M97.53,143.86a6.9,6.9,0,1,1,.6-9.74A6.93,6.93,0,0,1,97.53,143.86Z"/><path class="cls-8" d="M142.41,205.86s-21.13,6.81-39.48-.39"/><path class="cls-10" d="M90.09,224.67s5.39,30.92,33.9,34.44,39.46-27.69,39.46-27.69,27.32,5.43,37.61,12.78,4.56,121.68,9.6,158.44S224.26,457,224.26,457s-78,48.15-182,8c0,0,17.55-99,5.87-162.76s1.25-60.87,8.14-65S90.09,224.67,90.09,224.67Z"/><path class="cls-10" d="M52.84,241.36c15.35.72,26.24,25.27,30.21,40.5,4.33,16.59-.74,17.53.5,51.79,0,0,.23,6.47,5.06,55h0l-43.35,7a341.31,341.31,0,0,1-12.5-37.59c-9.5-35.26-21.09-78.28-.5-104.07C34.64,251,42.71,240.89,52.84,241.36Z"/><path class="cls-6" d="M150.21,318.49A729.23,729.23,0,0,1,71.68,368c-11.41,6.17-26.13,13.47-26.9,25.08-.72,10.71,10.82,21.11,19.09,24.79C100.52,434.16,165,359,171.66,351.08a86.17,86.17,0,0,0-21.45-32.59Z"/><path class="cls-10" d="M107.31,162.35a101.39,101.39,0,0,0,35.61-1c-6,8-15.46,11.84-23.85,9.63A21.19,21.19,0,0,1,107.31,162.35Z"/><g class="cls-11"><rect class="cls-12" x="175.79" y="187.89" width="313.41" height="247.63" rx="20.45" transform="translate(664.99 623.41) rotate(-180)"/><rect class="cls-13" x="169.99" y="179.78" width="326.67" height="44.82"/></g><circle class="cls-12" cx="383.33" cy="206.55" r="7.07"/><circle class="cls-12" cx="420.6" cy="206.55" r="7.07"/><circle class="cls-12" cx="457.86" cy="206.55" r="7.07"/><rect class="cls-12" x="233.9" y="258.29" width="201.18" height="141.04"/><rect class="cls-14" x="233.9" y="258.29" width="201.18" height="141.04"/><rect class="cls-15" x="231.9" y="258.29" width="201.18" height="141.04"/><path class="cls-16" d="M268.77,328.81s8-49,36.35-50.95,35.36,50.95,35.36,50.95,3,54.62,36.35,54.12,35.35-52.56,35.35-52.56"/><path class="cls-6" d="M255.6,435.49s6.18-.65,7.55-2.86,3.77-9.42,8.65-9.45,1.56,8.74,1.56,8.74,5.48-10.28,8.64-8.86,1.9,7.85,1.9,7.85,3.7-8,7.6-7.75.76,8,.76,8,3.58-7.67,6.42-6.51,2,10.59-2.31,14.89-7.51-.29-7.51-.29-4,3.54-6.65-.37a8.54,8.54,0,0,1-3.84,1.52,9.34,9.34,0,0,1-6.93-2.16c-4.81,3-10.13,3.26-13.36.71A8.05,8.05,0,0,1,255.6,435.49Z"/><path class="cls-5" d="M270.9,438.06a19.57,19.57,0,0,0,3.14-7.77"/><path class="cls-5" d="M282.21,438.86s1.63-7.57,1.69-7.95"/><path class="cls-5" d="M288.86,439.23s3-6.45,3.66-8.79"/><path class="cls-6" d="M144.71,324.15s18-21.89,24-23.76,15.29,0,15.29,0,23.17-15.6,27.66-14-18,21.84-18,21.84,7,1.72,5.46,8.59c0,0,5.78,1.71,2,8.73,0,0,5.46,2.19,2.66,7.49s-21.38,23.1-35.74,18.26C168.12,351.26,138.46,338.07,144.71,324.15Z"/><path class="cls-7" d="M41.05,127.89s5-.17,5.48,5,5.12,18.38,8.44,18.38-6.8-44.65,2.49-48.31,17.76-15.27,16-25.39c0,0,59.38,9.46,92.23-3.49,0,0-.69,17.12,16.57,23.91s9,41.64,11.29,46.14,7.07-9.26,8.86-13.2a4.82,4.82,0,0,1,5.48-3s5.7-41.23-11-62.81c0,0,9.26-2.32,11.9-11,0,0-19,5-33.06-9.29s-78.16-25.56-105.38,9C70.41,53.79,30,66.55,41.05,127.89Z"/><path class="cls-17" d="M81.9,66.77s60.75,13.28,101.25-7"/><path class="cls-17" d="M107.31,59.17s32,6.27,54.59-5.68"/><path class="cls-17" d="M173.91,75.53s4.39,21.12,27.15,21.87"/><path class="cls-17" d="M186.83,84.13s5,10.63,17.07,8.3"/><path class="cls-17" d="M64,77.48s1.62,15.81-18.67,20"/><path class="cls-17" d="M55.26,84.58s-6.1,7.1-12.83,6.53"/><line class="cls-5" x1="193.71" y1="308.19" x2="189.21" y2="311.71"/><line class="cls-5" x1="193.71" y1="320.24" x2="199.17" y2="316.78"/><line class="cls-5" x1="197.18" y1="328.88" x2="201.2" y2="325.51"/><path class="cls-18" d="M77.76,266.74s8.83,11.51,6,43.21,2.08,50.14,2.08,50.14"/></g></svg>
