<?xml version="1.0" encoding="UTF-8"?>
<svg xmlns="http://www.w3.org/2000/svg" xmlns:xlink="http://www.w3.org/1999/xlink" viewBox="0 0 512 512" width="512" height="512"><defs><style>.cls-1,.cls-17,.cls-18,.cls-19,.cls-3,.cls-5,.cls-9{fill:none;}.cls-2{fill:#ffb08d;}.cls-17,.cls-3,.cls-5{stroke:#383333;}.cls-17,.cls-18,.cls-19,.cls-3,.cls-5,.cls-9{stroke-linecap:round;stroke-linejoin:round;}.cls-3{stroke-width:0.75px;}.cls-4,.cls-7{fill:#383333;}.cls-5,.cls-7{fill-rule:evenodd;}.cls-6{fill:#ff8c5f;}.cls-8{fill:#fff;}.cls-9{stroke:#fff;}.cls-10{fill:#ffb833;}.cls-11{fill:#00e8d7;}.cls-12{fill:#aaeeea;}.cls-13{fill:#00ccc1;}.cls-14{clip-path:url(#clip-path);}.cls-15{fill:#ff535c;}.cls-16{fill:#fff3e3;}.cls-18{stroke:#fff3e3;}.cls-19{stroke:#00ccc1;stroke-width:2px;}</style><clipPath id="clip-path"><path class="cls-1" d="M145.44,246.46S146.46,235,132,230s-22.56-13.44-26.8-11.91S98.12,227,89.8,230s-28.66,8.28-34.94,16.42S42,276.15,44.51,302.61s15.78,40.2,13.74,75.32S48,464.44,48,464.44,152.91,498,224.66,469.53c0,0-15.77-146.9-13.4-182.87s.82-39.67-2.39-44.77-23.39-10.7-29.33-13.07-6.28-9.52-10.69-10.87-11.36,4.25-15.43,9.17S145.1,237.81,145.44,246.46Z"/></clipPath></defs><g id="Plant"><circle class="cls-2" cx="142.47" cy="129.01" r="73.9"/><path class="cls-2" d="M159.22,182.4c-1.53,12.24-1.73,30.2,9.17,43,10.64,12.52,22.2,8.76,33.37,17.15,24.22,18.17,9.86,65.73,8.94,129.53a460.61,460.61,0,0,0,9.06,97,353.71,353.71,0,0,1-167.95-4.32A479.59,479.59,0,0,0,60.63,353.5c-2.05-51.52-12.74-102.42,9.16-115,10.38-6,23.64-.78,34.26-12.56,5.94-6.57,7.8-14.83,9.5-22.39a79.89,79.89,0,0,0,1-29.51Z"/><path class="cls-2" d="M216.36,87.42c8.69,55,0,102.07-26.29,115.65-6.61,3.41-13.5,4.28-19,4.93-36.32,4.3-64.85-14.12-76.43-22.7C94.6,185.3,124.19-7.07,216.36,87.42Z"/><path class="cls-2" d="M96.57,122.48c-.79-.77-5.11-4.84-11.31-4.39-.9.07-4.51.33-6.94,2.61-6.3,5.89-3.89,24.51,7,29.29,6.09,2.67,12.55,0,14.73-1Z"/><path class="cls-3" d="M80.9,129l10.51-.49s-10.69,6.66-1.74,15.29"/><path class="cls-4" d="M126.25,114.06a22.9,22.9,0,0,1,13.16-4.31c3.2-.07,7.53-.18,8.86,2.33a3.49,3.49,0,0,1-.09,3.53c-1.5,2-5.27.2-11.36.14-8-.07-13.25,3-13.77,1.82C122.66,116.74,125.24,114.81,126.25,114.06Z"/><path class="cls-4" d="M208.32,114.6a23,23,0,0,0-13.24-4c-3.2,0-7.53,0-8.82,2.49a3.52,3.52,0,0,0,.16,3.53c1.54,2,5.28.09,11.37-.08,8-.23,13.3,2.71,13.8,1.55C212,117.21,209.34,115.34,208.32,114.6Z"/><path class="cls-5" d="M174,131s5.6,13,4.57,15.45-11.14,1.64-11.14,1.64"/><path class="cls-3" d="M176,177.08s-5.08,1.9-9.2-.07"/><ellipse class="cls-6" cx="129.47" cy="152.88" rx="5.54" ry="8.89" transform="translate(-25.6 279.71) rotate(-89.02)"/><ellipse class="cls-6" cx="202.4" cy="155.17" rx="5.54" ry="8.89" transform="translate(43.79 354.88) rotate(-89.02)"/><path class="cls-7" d="M149.46,139.37a6.2,6.2,0,1,1,.55-8.75A6.22,6.22,0,0,1,149.46,139.37Z"/><path class="cls-7" d="M202.85,139.37a6.2,6.2,0,1,1,.55-8.75A6.22,6.22,0,0,1,202.85,139.37Z"/><path class="cls-8" d="M182.56,160.71H157.11s4.23,13.2,12.72,13.6S182.43,164.7,182.56,160.71Z"/><path class="cls-2" d="M171.66,230c26.21,1.8,38,11.2,43.8,18.15s7.82,13.9,14.18,49.62c2.93,16.42,5.25,30.52,7,41.44,8.9-2.8,18.49-5.48,28.76-7.89,13.29-3.11,25.83-5.31,37.4-6.87q3.83,9.42,7.63,18.83c-3.49,2.75-81.92,63.26-115.77,38.17-4.86-3.6-10.32-10.56-17.3-42.75C172,314,166.91,276.94,171.66,230Z"/><path class="cls-4" d="M85.26,118.09s7.81,1.74,10.31,8.78,4.75,12.32,7.8,11-3.05-23.09,1.87-28.16,11.72,2.21,20.7-19.84,24.29-4.07,40.9,0,17.69-10.86,31.9-4.75,20.66,12.55,33.56,2.71S235.72,46.12,219.76,41s-24.51,8.82-37.2-2.71-29-7.81-41.87,0S94.21,31.88,72.5,55.12s-18.66,82.77-5.77,105.59,41.73,40.8,48.52,36.39,8.48-15.61-3.73-27.82-7.25-19.44-15.17-18.9-14.86,1-17.86-6.57S71.69,119,85.26,118.09Z"/><path class="cls-9" d="M125.94,74.28S132.88,60,147.47,65.8s11.63,16.28,31.27,8.48,25.28,3.8,40.88,7.13,11.32-20.1,11.32-20.1"/><path class="cls-9" d="M215,48.84s11.95,15.26-3.69,18"/><path class="cls-9" d="M115.08,84.46s-12.35,26.63-40.19,19"/><path class="cls-9" d="M97.61,84.46S78.1,98,64,93.11"/><path class="cls-9" d="M121.86,66.82s8.64-13.4,20.61-11.7,20,14.67,30.63,7.54"/><path class="cls-9" d="M92.52,158.42s3,10.76,13.4,15.9"/><path class="cls-9" d="M84.88,167.51s8.66,12.79,18.66,15.68"/><path class="cls-10" d="M254.36,224.51v-23.7a2,2,0,1,1,4-.06v23.83a2,2,0,1,1-4-.07Z"/><path class="cls-10" d="M244.45,214.67a2,2,0,0,1-1.9-2.69,2.05,2.05,0,0,1,2-1.33h23.71a2.05,2.05,0,0,1,2,1.33,2,2,0,0,1-1.9,2.69Z"/><path class="cls-10" d="M256.37,131.69V113.77a1.61,1.61,0,0,1,1.19-1.62,1.53,1.53,0,0,1,1.87,1.49v18.17a1.54,1.54,0,0,1-1.87,1.5A1.62,1.62,0,0,1,256.37,131.69Z"/><path class="cls-10" d="M248.81,124.26a1.53,1.53,0,0,1-1.49-1.87,1.61,1.61,0,0,1,1.62-1.19h17.91a1.62,1.62,0,0,1,1.63,1.19,1.54,1.54,0,0,1-1.5,1.87Z"/><path class="cls-10" d="M55.09,218.3V200.39a1.62,1.62,0,0,1,1.19-1.63,1.54,1.54,0,0,1,1.87,1.5v18.17a1.53,1.53,0,0,1-1.87,1.49A1.61,1.61,0,0,1,55.09,218.3Z"/><path class="cls-10" d="M47.54,210.88A1.54,1.54,0,0,1,46,209a1.63,1.63,0,0,1,1.62-1.2H65.58A1.63,1.63,0,0,1,67.2,209a1.54,1.54,0,0,1-1.5,1.87Z"/><circle class="cls-11" cx="381.43" cy="171.98" r="88.36"/><circle class="cls-12" cx="381.43" cy="171.98" r="71.66"/><rect class="cls-11" x="309.82" y="231.05" width="19.34" height="80.97" rx="7.09" transform="translate(191.67 -127.8) rotate(31.89)"/><rect class="cls-13" x="249.45" y="268.78" width="53.91" height="143.98" rx="19.75" transform="translate(221.74 -94.59) rotate(31.89)"/><g class="cls-14"><path class="cls-15" d="M145.44,246.46S146.46,235,132,230s-22.56-13.44-26.8-11.91S98.12,227,89.8,230s-28.66,8.28-34.94,16.42S42,276.15,44.51,302.61s15.78,40.2,13.74,75.32S48,464.44,48,464.44,152.91,498,224.66,469.53c0,0-15.77-146.9-13.4-182.87s.82-39.67-2.39-44.77-23.39-10.7-29.33-13.07-6.28-9.52-10.69-10.87-11.36,4.25-15.43,9.17S145.1,237.81,145.44,246.46Z"/><path class="cls-16" d="M91.16,226.27s-1.7,9.33,11.2,13.24,25,24.76,32,23.41S143.4,248,146.46,248.5s10,14.08,16.29,9.67,2.37-11,6.1-19.85,10.18-12,10.18-12l-12.21-11.53-59.37-2.55Z"/></g><path class="cls-2" d="M80.9,235.2S55.71,233.4,49.09,269s16.09,121.12,71.49,136.05,124.35-27.14,124.35-27.14L231.62,344s-78.89,14.93-95.76,7.46S113.39,245.14,80.9,235.2Z"/><path class="cls-15" d="M83.19,234.42C70.94,231.51,57,241.87,50.11,250.7c-18.73,24.09-10.28,68.92,20.1,113a122.49,122.49,0,0,0,19.08-5.85A125.77,125.77,0,0,0,129,332.38c-3-10.85-7.62-26.38-14.42-44.7C96.55,239.11,87.27,235.39,83.19,234.42Z"/><path class="cls-15" d="M203.43,237.86s16.31,5.38,21.23,22.34,10,65.4,10,65.4-16,15.35-43.77,8.56C190.91,334.16,178.64,244,203.43,237.86Z"/><path class="cls-2" d="M305.83,344.42s2.25-4.91,1.2-6.92-5.39-7-3.26-10.67,7.25,2.7,7.25,2.7-5.28-8.66-2.82-10.4,6.73,2.05,6.73,2.05-4.32-6.29-2.45-9.12,6.32,3,6.32,3-4.17-6.08-2-7.7,8.83,3.18,10.13,8.33-3.54,5.49-3.54,5.49.9,4.55-3.22,4.82a7.54,7.54,0,0,1-.56,3.56,8.11,8.11,0,0,1-4.69,4.24c.1,4.92-2,9-5.38,10.33A7.05,7.05,0,0,1,305.83,344.42Z"/><path class="cls-3" d="M314.53,334.1a17,17,0,0,0-4.43-5.8"/><path class="cls-3" d="M320.14,326l-5.21-4.78"/><path class="cls-3" d="M323.36,321.14s-3.51-5.09-5-6.63"/><path class="cls-2" d="M227.37,344.78s9.89-2.32,15.23-8.89,6.62-7.37,8.72-5.82-4.39,12.49-3.88,15.54,23.28,4.33,34.73,2,1.78,7.38-11.32,9.29c0,0,12.08-1,17.94-3.57s.12,10.94-16.67,10.18c0,0,3.56,1,9.73,0s7.38-1.21,7.57.43-5.21,5.52-16.33,6.71c0,0,4.25.51,7.55.51s4.75,3.14-5,4.92-24.37,2.23-31.38,4.15-9,3-9,3S218.51,352.82,227.37,344.78Z"/><path class="cls-3" d="M261.69,371.31a71.86,71.86,0,0,0,12.45-.71"/><path class="cls-3" d="M264.49,363.81s5,.63,7.63-.26"/><path class="cls-3" d="M263.72,356.33s5.74,1.18,8.4.48"/><path class="cls-17" d="M91.16,250s11,2,15,19,19.75,66.14,19.75,66.14"/><path class="cls-17" d="M212.28,262.58s-3.39,53.26.68,71.58"/><line class="cls-18" x1="146.46" y1="248.5" x2="152.23" y2="298.37"/><circle class="cls-16" cx="161.3" cy="288.78" r="4.83"/><circle class="cls-16" cx="158.42" cy="269.02" r="4.83"/><line class="cls-17" x1="54.22" y1="336.42" x2="70.21" y2="363.68"/><path class="cls-17" d="M115.25,369s11.15-14.79,23.26-16.68"/><path class="cls-17" d="M213.47,347.13s11.92-1.86,18-4.32a42.23,42.23,0,0,0,9.1-4.78"/><path class="cls-17" d="M125.94,201.05s17.38,9,34.17,7.59"/><path class="cls-13" d="M375.34,199.59s9.65-16.88,24-16.84,28.44.72,28.59,3.47-19.07,24.57-34,24.56S375.34,199.59,375.34,199.59Z"/><path class="cls-19" d="M385.27,163.1s-4.15,36-21.13,54.5"/><path class="cls-13" d="M381.48,181.89s-15.11-20.16-11-35.6,13.72-30.7,19-27.56S407.5,159.26,381.48,181.89Z"/><path class="cls-13" d="M371.41,207.46a27,27,0,0,1-12.08-3.55c-18.28-10.77-18.8-43.29-13-45.67,1.45-.59,3.68,1.32,8.14,5.15,8.67,7.45,17.83,15.31,19.34,27.82A32.27,32.27,0,0,1,371.41,207.46Z"/></g></svg>
