<svg height="512" viewBox="0 0 512 512" width="512" xmlns="http://www.w3.org/2000/svg"><g id="Radiation"><path d="m150.11 239.31s29.83 13.77 40.16 28.75 30.06 87.79 30.06 87.79l-43.49 21.15-23-66.11z" fill="#ff535c"/><path d="m264.64 312.47s-85.35 38.22-84 64.56 42.16 21.17 61.27 4.13 45.24-45.45 45.24-45.45z" fill="#ff535c"/><path d="m260.2 400.27s15.59 1.52 26.23 1.14 11.79-1 24.52 5.32 46.33 5.8 50 11.21-13.19 12.26-30 16-68.43 5.7-68.43 5.7-9.73-27.64-2.32-39.37z" fill="#ffb08d"/><path d="m333.74 374a1.56 1.56 0 0 1 -1.56-1.56v-18.44a1.56 1.56 0 0 1 3.11 0v18.44a1.55 1.55 0 0 1 -1.55 1.56z" fill="#ffb833"/><path d="m324.52 364.8a1.56 1.56 0 1 1 0-3.11h18.48a1.56 1.56 0 0 1 0 3.11z" fill="#ffb833"/><path d="m190.27 236.57a1.55 1.55 0 0 1 -1.55-1.55v-18.44a1.56 1.56 0 1 1 3.11 0v18.42a1.56 1.56 0 0 1 -1.56 1.57z" fill="#ffb833"/><path d="m181.05 227.35a1.56 1.56 0 0 1 0-3.11h18.44a1.56 1.56 0 1 1 0 3.11z" fill="#ffb833"/><rect fill="#aaeeea" height="280.39" rx="16.89" width="280.9" x="215.41" y="55.35"/><circle cx="350.93" cy="206.01" fill="#00ccc1" r="17.19"/><path d="m355.83 171.28a7.15 7.15 0 0 1 -5.26 8.67 53.76 53.76 0 0 0 -9.3 3.21 54.65 54.65 0 0 0 -7.81 4.31 7.11 7.11 0 0 1 -9.85-2.06l-40.2-61.11a7.14 7.14 0 0 1 2-9.84 134.07 134.07 0 0 1 44.09-19.36 7.15 7.15 0 0 1 8.61 5.21q8.89 35.49 17.72 70.97z" fill="#00ccc1"/><path d="m377.82 223.6a7.15 7.15 0 0 1 -5.82-8.3 54.68 54.68 0 0 0 .8-9.81 55.52 55.52 0 0 0 -.82-8.88 7.11 7.11 0 0 1 5.84-8.2l72.11-12.27a7.13 7.13 0 0 1 8.22 5.76 133.6 133.6 0 0 1 0 48.18 7.15 7.15 0 0 1 -8.22 5.79z" fill="#00ccc1"/><path d="m317.78 210.78a7.14 7.14 0 0 1 9.8 2.56 54.86 54.86 0 0 0 12.11 14.23 7.12 7.12 0 0 1 .86 10q-23.52 28-47 56a7.13 7.13 0 0 1 -10 .93 133.84 133.84 0 0 1 -31.19-36.72 7.15 7.15 0 0 1 2.52-9.74z" fill="#00ccc1"/><circle cx="117.05" cy="140.16" fill="#ffb08d" r="74.99"/><path d="m134.05 194.34c-2.89 12.9-4.63 30.9 5.27 43.94 7.71 10.16 15.9 8.5 24.79 15.15 24.77 18.51 7.8 66 13.08 132.89a336.66 336.66 0 0 0 13.08 69.55 126.83 126.83 0 0 1 -151.49-7.57 165.84 165.84 0 0 0 10.33-28.93c18.77-73.44-19.58-137.8 6.89-160.44 4.23-3.61 12.92-8.56 22.07-20.41 3.86-5 8.89-11.45 11.5-21.07a56.69 56.69 0 0 0 -.83-31.61z" fill="#ffb08d"/><path d="m192 98c8.82 55.83 0 103.58-26.69 117.36-6.7 3.47-13.69 4.35-19.32 5-36.85 4.36-65.8-14.33-77.55-23 .04-.07 30.06-195.3 123.56-99.36z" fill="#ffb08d"/><path d="m70.48 133.54c-.81-.79-5.2-4.92-11.48-4.46-.92.07-4.58.34-7 2.65-6.4 6-4 24.87 7.1 29.72 6.17 2.71 12.73 0 14.94-1q-1.79-13.45-3.56-26.91z" fill="#ffb08d"/><path d="m54.58 140.16 10.65-.49s-10.84 6.75-1.76 15.52" fill="none" stroke="#383333" stroke-linecap="round" stroke-linejoin="round" stroke-width=".75"/><path d="m100.59 125a23.24 23.24 0 0 1 13.35-4.37c3.25-.08 7.64-.18 9 2.36a3.58 3.58 0 0 1 -.09 3.59c-1.52 2-5.35.19-11.54.14-8.14-.08-13.43 3-14 1.84-.31-.85 2.26-2.81 3.28-3.56z" fill="#383333"/><path d="m183.87 125.54a23.23 23.23 0 0 0 -13.43-4.11c-3.24 0-7.64 0-8.94 2.54a3.54 3.54 0 0 0 .15 3.58c1.57 2 5.36.09 11.54-.08 8.14-.24 13.49 2.74 14 1.57.38-.86-2.27-2.76-3.32-3.5z" fill="#383333"/><path d="m149.09 142.21s5.69 13.17 4.64 15.68-11.31 1.66-11.31 1.66" fill="none" stroke="#383333" stroke-linecap="round" stroke-linejoin="round"/><path d="m150.11 188.94s-5.16 1.93-9.34-.07" fill="none" stroke="#383333" stroke-linecap="round" stroke-linejoin="round" stroke-width=".75"/><ellipse cx="103.86" cy="164.38" fill="#ff8c5f" rx="5.62" ry="9.03" transform="matrix(.017 -1 1 .017 -62.27 265.41)"/><ellipse cx="177.87" cy="166.71" fill="#ff8c5f" rx="5.62" ry="9.03" transform="matrix(.02 -1 1 .02 8.14 341.7)"/><path d="m80.79 216.05s35.89 11.55 67.35 8.11c0 0-2.39 9.64 2 15.15s27.74 12.39 29.8 41.69 3.95 152.28 15.4 177.36c0 0-85.63 56.76-163.44-9.35 0 0 26.16-36.49 19.28-86.07s-19.45-94.08 2.75-109.57 26.86-37.32 26.86-37.32z" fill="#ff535c"/><path d="m69.94 261.86c1.25.4 3.27 1.09 5.68 2.07 41 16.61 54.24 60.4 67.66 81.59 14.6 23.08 48 48.76 133.06 53.89a130.1 130.1 0 0 1 0 42.69 197.45 197.45 0 0 1 -83.88.09c-81.08-17.85-123.39-82.83-132.85-98.19-14.18-23-16.71-48.89-5.16-67.13a47 47 0 0 1 15.49-15.01z" fill="#ff535c"/><path d="m128.69 84.72s-2.44 18.25-24.83 24.45-21.86 31.62-26.52 36.32-6.44-14.59-12.34-15.49-15.17-3.12-16.45 11.18 7.79 25.66 22.36 20.5 2.09 19.71 17.62 33.86 17.56 49.8 0 68.9-37.7 13.95-43.38 20.66-2.28 23.07-2.28 23.07-42.13-22.72-21.47-68.86 7.74-69.37 4.64-105 38.22-104.17 111-69.13c0 0 59.41-18.88 56.13 41a25.75 25.75 0 0 1 -12.58.62c-10.06-2.19-13.72-10.22-21.69-15.84-5.67-4.06-14.9-7.75-30.21-6.24z" fill="#383333"/><path d="m37.15 93 155.88 2s8.75-49.95-52.26-60.8-102.84 6.06-103.62 58.8z" fill="#ff535c"/><path d="m99 93.74s67.56 28.17 93 23 1-21.83 1-21.83-43-22.8-94-1.17z" fill="#ff535c"/><g fill="none" stroke-linecap="round" stroke-linejoin="round"><path d="m99.04 93.74 93.99 1.17" stroke="#383333"/><path d="m172.37 264.44a51.42 51.42 0 0 1 12.85 41c-3.06 25.42.39 74.82.39 74.82" stroke="#383333"/><path d="m86 277.87s22.39 4.53 34.53 26.23 37.38 78.12 101.79 88.09" stroke="#383333"/><path d="m61.24 331.61s31.67 92.09 131.22 110.58" stroke="#383333"/><path d="m203.18 370.31s3.6-25.89 12.39-31.33" stroke="#383333"/><path d="m128.69 224.62a110 110 0 0 0 8.91 47.38c10.67 24.44 16.51 83.11 16.51 83.11" stroke="#383333"/><path d="m152.57 429.53v46.72" stroke="#383333"/><path d="m101.44 208.15s15.14 11.53 30.47 12.82" stroke="#383333"/><path d="m94.84 98s-6.79 29.71-52.78 26.73" stroke="#fff"/><path d="m76.81 108.64s-28.7 8.09-39.66 4.82" stroke="#fff"/><path d="m66.83 179.88s-1 15.52 12.74 32.05 6.13 52-22.59 56.12" stroke="#fff"/><path d="m42.06 161.08s12.76 28.37 0 54.07-24.06 39.85-14.48 58.75" stroke="#fff"/><path d="m57 197.13s9 36.4-8.5 58.87-11.66 33.57-9.7 36.15" stroke="#fff"/></g><path d="m106.58 142.5c.13-.11 1.22 1.82 2.64 1.69 1-.09 1.33-1.24 2.67-2.24a6.75 6.75 0 0 1 4-1.25 14.43 14.43 0 0 1 -2.3 3.28c-1.31 1.39-2.14 2.28-3.27 2.29-2.32.02-3.9-3.63-3.74-3.77z" fill="#383333" fill-rule="evenodd"/><path d="m111.89 142a11.8 11.8 0 0 1 7.19-1.65c4.47.29 8.44 4.72 8.45 5.19s-4-2.92-8.34-2.9-5.63 3.3-8.65 3.66z" fill="#383333" fill-rule="evenodd"/><path d="m184.62 142.71c-.12-.1-1.21 1.83-2.63 1.7-1.05-.1-1.33-1.25-2.67-2.25a6.82 6.82 0 0 0 -4-1.24 14.41 14.41 0 0 0 2.3 3.27c1.31 1.39 2.14 2.29 3.27 2.3 2.29.01 3.9-3.64 3.73-3.78z" fill="#383333" fill-rule="evenodd"/><path d="m179.32 142.16a11.84 11.84 0 0 0 -7.19-1.64c-4.47.29-8.44 4.71-8.45 5.19s4-2.92 8.34-2.9 5.63 3.3 8.65 3.66z" fill="#383333" fill-rule="evenodd"/><path d="m132.67 173.11s15.37 3.21 27.89-.78c0 0-.7 11.53-12.42 13.51s-15.47-12.73-15.47-12.73z" fill="#fff" fill-rule="evenodd"/><path d="m402 103.46v-24.13a2 2 0 0 1 1.2-1.9 2.06 2.06 0 0 1 2.88 1.88v24.18a2.05 2.05 0 0 1 -2.88 1.87 2 2 0 0 1 -1.2-1.9z" fill="#ffb833"/><path d="m391.92 93.44a2.06 2.06 0 0 1 -1.87-2.88 2 2 0 0 1 1.9-1.2h24.13a2 2 0 0 1 1.9 1.2 2.06 2.06 0 0 1 -1.87 2.88z" fill="#ffb833"/></g></svg>