<?xml version="1.0" encoding="UTF-8"?>
<svg xmlns="http://www.w3.org/2000/svg" viewBox="0 0 512 512" width="512" height="512"><defs><style>.cls-1,.cls-4{fill:#ffb08d;}.cls-1,.cls-11,.cls-12,.cls-6,.cls-7{fill-rule:evenodd;}.cls-2{fill:#ff8c5f;}.cls-14,.cls-15,.cls-3,.cls-6{fill:none;stroke-linecap:round;stroke-linejoin:round;}.cls-14,.cls-3,.cls-6{stroke:#383333;}.cls-3{stroke-width:0.75px;}.cls-5,.cls-7{fill:#383333;}.cls-8{fill:#fff3e3;}.cls-9{fill:#ffb833;}.cls-10,.cls-11{fill:#00ccc1;}.cls-12,.cls-13{fill:#aaeeea;}.cls-15{stroke:#fff;}</style></defs><g id="Telescope"><path class="cls-1" d="M269.8,364.76s16.1,17.55,32.67,7.24,29.37-84.23,29.37-84.23-57.51,25.62-62,77"/><path class="cls-2" d="M137.8,135.2c-.8-.77-5.11-4.84-11.3-4.38-.9.06-4.5.33-6.93,2.6-6.29,5.88-3.88,24.47,7,29.24,6.08,2.67,12.53,0,14.71-1Q139.53,148.44,137.8,135.2Z"/><path class="cls-2" d="M266.24,135.2c.79-.77,5.11-4.84,11.29-4.38.9.06,4.5.33,6.93,2.6,6.29,5.88,3.88,24.47-7,29.24-6.07,2.67-12.53,0-14.7-1Q264.5,148.44,266.24,135.2Z"/><path class="cls-3" d="M122.15,141.71l10.49-.48S122,147.87,130.9,156.5"/><path class="cls-3" d="M281.51,141.71,271,141.23s10.67,6.64,1.74,15.27"/><circle class="cls-4" cx="202.49" cy="124.22" r="73.78"/><path class="cls-4" d="M128.71,131.27c5.69,37,27.06,66.46,56.15,75.16a63.59,63.59,0,0,0,34.85.52c28.7-7.95,50.18-37.1,55.44-74.27C271.36,92,236.12,61.9,197.71,64,162.63,66,132.71,94.34,128.71,131.27Z"/><path class="cls-4" d="M279.57,450.69c4.41-2.64,7.86-5,10.26-6.73-14.32-34.29-17-62.1-16.93-80.67.17-55,24.42-98.4,2.66-120.84a34.34,34.34,0,0,0-12.51-8h0a125.67,125.67,0,0,0-25-8.69c-4.95-1.87-9-3.85-11.2-6.57-7-8.57-3.86-31.23-3.86-31.23s-26.52-9.8-36.74,3.79c.22,8.59-1,20.25-8.34,29.84a30.56,30.56,0,0,1-8.05,7.38l-.09,0c-5.29,1.08-11,2.5-17,4.34-5.65,1.74-8.57,2.56-11.87,4.1a58.92,58.92,0,0,0-16.45,12.45c-9.06,9.83-10.9,50.44,6.31,100.91a131.89,131.89,0,0,1,3.6,43.1,132.55,132.55,0,0,1-16.88,54.5,153.94,153.94,0,0,0,81.29,24.53,152,152,0,0,0,60.55-11.92A66.19,66.19,0,0,0,279.62,451S279.6,450.87,279.57,450.69Z"/><path class="cls-5" d="M158.16,121.16a24.41,24.41,0,0,1,14-4.58c3.41-.08,8-.19,9.45,2.48a3.72,3.72,0,0,1-.09,3.76c-1.6,2.14-5.62.21-12.12.15-8.55-.08-14.11,3.16-14.67,1.94C154.33,124,157.08,122,158.16,121.16Z"/><path class="cls-5" d="M245.61,121.74a24.43,24.43,0,0,0-14.11-4.31c-3.41,0-8,0-9.39,2.67a3.73,3.73,0,0,0,.17,3.76c1.64,2.11,5.62.09,12.11-.09,8.55-.25,14.17,2.88,14.71,1.65C249.49,124.52,246.7,122.53,245.61,121.74Z"/><path class="cls-6" d="M204.37,134.54s6,13.83,4.88,16.47-11.88,1.74-11.88,1.74"/><path class="cls-7" d="M177.34,143.19a6.32,6.32,0,1,1,.56-8.92A6.34,6.34,0,0,1,177.34,143.19Z"/><path class="cls-7" d="M162.66,134.23c.14-.12,1.38,2,3,1.87,1.17-.11,1.47-1.4,3-2.54a7.63,7.63,0,0,1,4.47-1.42,16.41,16.41,0,0,1-2.55,3.68c-1.45,1.57-2.38,2.58-3.64,2.6C164.31,138.46,162.48,134.38,162.66,134.23Z"/><path class="cls-7" d="M235.68,142.64a6.33,6.33,0,1,1-.56-8.92A6.35,6.35,0,0,1,235.68,142.64Z"/><path class="cls-7" d="M241.42,134.23c-.14-.12-1.38,2-3,1.87-1.18-.11-1.48-1.4-3-2.54a7.58,7.58,0,0,0-4.47-1.42,16.76,16.76,0,0,0,2.55,3.68c1.45,1.57,2.38,2.58,3.65,2.6C239.77,138.46,241.6,134.38,241.42,134.23Z"/><path class="cls-8" d="M178.08,214.84s27.94,3.19,49-2.69c0,0,2.61,8.49,15,11.6s38.07,7.51,40.35,33-21.89,117.31,13.4,191.81c0,0-105.87,68.87-185.6-3.8A180.63,180.63,0,0,0,128.71,388c9.2-63.48-17.81-127.76,2.28-144.26a70.31,70.31,0,0,1,12.87-8.46c10.94-5.21,17.17-3.78,24.91-9.4A31.31,31.31,0,0,0,178.08,214.84Z"/><ellipse class="cls-2" cx="163.05" cy="156.81" rx="9.48" ry="5.9" transform="translate(-3.48 3.7) rotate(-1.29)"/><ellipse class="cls-2" cx="240.81" cy="156.18" rx="9.48" ry="5.9" transform="translate(-3.45 5.45) rotate(-1.29)"/><path class="cls-6" d="M184.86,206.43a70.66,70.66,0,0,0,37.78-.37"/><path class="cls-6" d="M189.69,165.8a15.14,15.14,0,0,0,27.94,0"/><path class="cls-3" d="M199.18,178.82a9.85,9.85,0,0,0,10.36,0"/><path class="cls-5" d="M201.93,61S200.76,88.48,215.13,98s29.58,1.8,39.7,9.32,16.87,45.57-4.39,73c0,0,19.59-11.52,23.35-29.61s5.88-18.53,6.69-18.82,3.3,1,3.3,1S294.86,39.47,211.87,46c0,0-42.48-6.53-66.34,12.09s-22.28,73.31-22.28,73.31,3.24,0,4.14,4.5,2.5,12.13,7.16,10.78,1.14-32.71,6.72-38.6S195.26,106.45,201.93,61Z"/><circle class="cls-5" cx="130.97" cy="54.66" r="22.55"/><path class="cls-9" d="M303.74,75.27V52.59a2,2,0,0,1,1.64-2.05,1.93,1.93,0,0,1,2.23,1.91v23a1.92,1.92,0,0,1-2.23,1.91A2,2,0,0,1,303.74,75.27Z"/><path class="cls-9" d="M294.2,65.86a1.94,1.94,0,0,1-1.91-2.23,2,2,0,0,1,2-1.64H317a2,2,0,0,1,2.06,1.64,1.94,1.94,0,0,1-1.92,2.23Z"/><path class="cls-9" d="M122.15,222.67a1.48,1.48,0,0,1-1.48-1.47V203.7a1.48,1.48,0,0,1,3,0v17.5A1.48,1.48,0,0,1,122.15,222.67Z"/><path class="cls-9" d="M113.4,213.92a1.48,1.48,0,1,1,0-2.95h17.5a1.48,1.48,0,1,1,0,2.95Z"/><path class="cls-9" d="M281.51,202.9a1.47,1.47,0,0,1-1.48-1.47v-17.5a1.48,1.48,0,1,1,3,0v17.5A1.47,1.47,0,0,1,281.51,202.9Z"/><path class="cls-9" d="M272.76,194.15a1.48,1.48,0,1,1,0-3h17.5a1.48,1.48,0,0,1,0,3Z"/><path class="cls-1" d="M143.92,235.34a55.08,55.08,0,0,0-33.53,40.53c-6.37,31.37-5.39,94.6-5.39,94.6l38.92,6.37S180.88,230.11,143.92,235.34Z"/><rect class="cls-10" x="104.48" y="381.92" width="38.47" height="93.86" transform="translate(361.3 51) rotate(48.25)"/><path class="cls-11" d="M171.3,425.56l-38.93-43.62a5.52,5.52,0,0,1,.34-7.71L350,169.85a5.53,5.53,0,0,1,7.91.35l49.31,55.24a5.52,5.52,0,0,1-.56,7.9L179,426.1A5.53,5.53,0,0,1,171.3,425.56Z"/><path class="cls-12" d="M336.67,292l-52.82-59.19a5.53,5.53,0,0,1,.2-7.58l72.49-72.88a5.53,5.53,0,0,1,8,.22l61,68.3a5.53,5.53,0,0,1-.7,8l-80.62,63.77A5.53,5.53,0,0,1,336.67,292Z"/><rect class="cls-10" x="330.12" y="174.11" width="126.17" height="28.47" rx="4.79" transform="translate(271.91 -230.43) rotate(48.25)"/><path class="cls-12" d="M159.45,432.22l-35-39.26a8.76,8.76,0,0,1,.36-11.8l28.21-29c3.77-3.86,9.54-4.07,12.83-.38L205,395.74c3.29,3.69,2.43,9.4-1.83,12.7l-32,24.75A8.75,8.75,0,0,1,159.45,432.22Z"/><rect class="cls-13" x="66.62" y="448.31" width="47.32" height="20.77" rx="3.33" transform="translate(372.39 85.92) rotate(48.25)"/><rect class="cls-13" x="216.97" y="325.96" width="95.47" height="38.51" rx="10.87" transform="translate(-159.34 248.09) rotate(-39.62)"/><rect class="cls-10" x="254.2" y="349.18" width="21.01" height="117.35" rx="10.51" transform="translate(-67.75 53.04) rotate(-10.15)"/><rect class="cls-10" x="298.9" y="319.97" width="21.01" height="117.35" rx="10.51" transform="translate(-175.11 312.75) rotate(-43)"/><path class="cls-1" d="M227.53,361.65c-26.93.16-48.92-1.28-64.45-2.7-31.64-2.88-47.92-6.73-55.39,2.7-6,7.51-4.45,21,.74,28.91,20.75,31.88,113.44,1.26,117.88-.24Q226.91,376,227.53,361.65Z"/><path class="cls-4" d="M329.74,298.34s5.27-3.9,5.33-6.65-1.62-10.59,2.81-13.24,6.1,7.12,6.1,7.12-.52-12.29,3.11-12.69S353,279,353,279s-.9-9.22,2.76-11.13,5,6.85,5,6.85-.86-8.9,2.35-9.36,7.51,8.55,5.87,14.78-7,3.76-7,3.76-1.71,5.35-6.24,3.22a9.11,9.11,0,0,1-2.69,3.45,9.78,9.78,0,0,1-7.45,1.75c-2.78,5.29-7.47,8.39-11.78,7.81A8.6,8.6,0,0,1,329.74,298.34Z"/><path class="cls-3" d="M345,292.48s.5-3.4-1.3-8.75"/><path class="cls-3" d="M355.76,287.13s-2.59-7.75-2.73-8.12"/><path class="cls-3" d="M362,283.91s-.73-7.47-1.39-10"/><path class="cls-1" d="M188.39,400.17s32.41-7.86,40.5-7.67,29.06-5.62,33-10.71-12-2-12-2,18.48-6.36,19.83-10.6-18.69,0-18.69,0S268.2,363,269,358.79s-19.85,1.73-19.85,1.73,14.22-9.44,12.8-12.52-15.83,4.41-22.41,4.71c-1.55.07-2.31-.18-2.59-.65-.93-1.61,2.58-4.27,2.59-8.49,0-2-.77-5.24-2.59-5.86-3.59-1.23-6.84,9.46-19.07,17a55.38,55.38,0,0,1-12.62,5.64c-3.07.86-6.75,1.54-7.72,1.72-5,.92-6.18.76-7.11,1.1C187.31,364.32,184.8,371.55,188.39,400.17Z"/><path class="cls-3" d="M243.21,381.82a49.37,49.37,0,0,0,7.84-2.23"/><path class="cls-3" d="M241.09,371s7.17-.64,10.84-2.1"/><path class="cls-3" d="M239.21,361.56a38.92,38.92,0,0,0,9.91-1"/><path class="cls-14" d="M115.16,363.2s12.13-9.23,33.21-5.72"/><path class="cls-15" d="M212.88,68s3.51,23.36,24.38,26.14,28.39,11.66,29.53,18.49"/><path class="cls-15" d="M235.41,74.82A32.46,32.46,0,0,0,271,86.91"/><path class="cls-15" d="M189.69,65s-14.88,32.9-53.44,31.6"/><path class="cls-15" d="M176.12,74.82s-24.84,12.58-39.87,9"/><path class="cls-15" d="M117.79,47.25s-6.37,19.23,15,21.44"/><path class="cls-15" d="M131,44.89S144.14,39,146.71,57.17"/></g></svg>
